<svg data-name="Layer 1" xmlns="http://www.w3.org/2000/svg" xmlns:xlink="http://www.w3.org/1999/xlink" viewBox="0 0 1200 900"><defs><linearGradient id="a" x1="5458.11" y1="-1447.06" x2="5740.52" y2="-1447.06" gradientTransform="matrix(.22 0 0 -.44 -1075.44 -1.76)" gradientUnits="userSpaceOnUse"><stop offset=".8" stop-color="#efb508"/><stop offset="1" stop-color="#b48906"/></linearGradient><linearGradient id="d" x1="5458.11" y1="-1447.06" x2="5740.52" y2="-1447.06" gradientTransform="matrix(.22 0 0 -.44 -962.53 -1.76)" xlink:href="#a"/><linearGradient id="f" x1="5458.11" y1="-1447.06" x2="5740.52" y2="-1447.06" gradientTransform="matrix(.22 0 0 -.44 -1018.99 92.54)" xlink:href="#a"/><clipPath id="b"><path fill="none" d="M124.8 620.27l-11.48-50.88 21.81 25.44 4.59-32.92 10.34 29.93 9.18-34.42 9.18 34.42 10.33-29.93 4.6 32.92 21.81-25.44-11.48 50.88v25.43H124.8v-25.43z"/></clipPath><clipPath id="c"><path fill="none" d="M237.71 620.27l-11.48-50.88 21.81 25.44 4.59-32.92 10.33 29.93 9.18-34.42 9.19 34.42 10.33-29.93 4.59 32.92 21.81-25.44-11.48 50.88v25.43h-68.87v-25.43z"/></clipPath><clipPath id="e"><path fill="none" d="M181.25 714.56l-11.48-50.87 21.82 25.44 4.59-32.92 10.33 29.92 9.18-34.41 9.19 34.41 10.33-29.92 4.59 32.92 21.81-25.44-11.48 50.87V740h-68.88v-25.44z"/></clipPath></defs><path d="M0 0h1200v900H0z" fill="#007448"/><path d="M858.05 233.12c.54 35.49 2.61 63.19 20.63 84.85 21.72 26.09 57.89 44.91 104.42 63.41 46.53-18.5 82.7-37.32 104.42-63.41 18-21.66 20-49.36 20.63-84.85.62-36.84.66-83.66 0-120.5-38.7 29.2-103.07 19.32-125.37.86-30.9 21.11-89 29.32-124.73-1.43-.75 36.84-.56 84.23 0 121.07z" fill="#004001" stroke="#000" stroke-width=".2"/><path d="M436.52 444.75c.71 50.25 3.41 89.47 27 120.13 28.39 36.94 75.69 63.59 136.54 89.78 60.84-26.19 108.14-52.84 136.54-89.78 23.57-30.66 26.19-69.88 27-120.13.81-52.16.86-118.45 0-170.61-50.6 41.34-134.82 27.36-163.98 1.21-40.41 29.9-116.44 41.52-163.1-2-1 52.16-.74 119.25 0 171.41z" fill="#fff" stroke="#000" stroke-width=".19"/><g fill="#00803e"><path d="M610.94 336.86c3.45-4.92 14-14.24 23.93 3.87 18.49-4.19 24.32 6.06 21.45 14.35-3.17 9.14-25.54 14-27.44 19.41-.94 2.78-3.69 5.19-.52 4.06 34.06-10.75 43.86 9 19.41 27 7.25 23.65-24.95 39.49-28.83-6.16-.34-2.35-3.23-7.45-5.9-3.84-.95 1.28-8.83 17.89-10.07 40.25-2.88 51.73 1.21 142.54-1.76 154.28-1.48 5.82-3.76-4.78-6.55-3.39 4.51-14.21 1.27-94.84 3.07-147.62 1-28.92 9.52-47.87 7.62-46.7-41.11 32.62-39.58-6.74-24.25-18.69-6.68-9.64 2.78-45.23 28.18 4 1.54 2.5-1.75 4.48.1.33.94-17.85-6.19-19.63 1.56-41.15z"/><path d="M542.62 456.8c-1.47-11.06-3.52-21.74-12.16-29.28-14.48-12.64-33.29.19-20 22-24.61.15-21.53 23.59-15.91 29.2 14.33 14.34 35.87-1.4 39.82 1.71 2 1.64 3.81-.57.83 1-38.74 2.65-32.13 38.62-4.74 34.53 5.32 26.28 37.43 16.82 19.31-25.75-.83-2.31-.48-7.61 3.26-9 15.16-5.78 46.06 48.08 48.78 64.54 1 6-4.5-16.12-1.68-17.17 2.58-13.73-40.41-56.85-42.79-58.18 47.06-4.95 36.83-43.41 11-33.71 5.9-27.6-22.8-29.19-25.56-2.28l-.23 22.45z"/><path d="M691.92 466.69c23.49 1.87 16.55 18.58 8.94 22.62-6.78 3.61-29.52-3.9-27.92-2.2-1.89 1.65-2.84-.63 0 .54 27.94 12.42 29.3 47.73 2.07 30.26-2.38 36.44-38.22 19.81-21.24-19.9.77-2.14 1.36-1.87-1.87-3.7-8.19-4.65-41.4 26.78-49.8 46.78-2.18 5.19 1.16-8.15-1.49-8.86 5.86-16 53.71-47 50.12-47.3-44.18-.55-34.61-44.26-9.75-31-5.74-22 36.33-33.52 22.87 21.19 0 3.06-2.94 2.29.2.13 3.23-10.3 4.88-15.94 10.77-24.52 17.62-14.44 29.71 4.78 17.14 15.93z"/></g><path d="M91.83 638.68c.55 35.49 2.61 63.19 20.64 84.85 21.71 26.08 57.88 44.91 104.41 63.41 46.53-18.5 82.71-37.33 104.42-63.41 18-21.66 20-49.36 20.63-84.85.62-36.84.66-83.66 0-120.5-38.7 29.19-103.07 19.32-125.37.85-30.9 21.12-89 29.32-124.73-1.42-.75 36.84-.56 84.23 0 121.07z" fill="#212c59" stroke="#000" stroke-width=".2"/><g clip-path="url(#b)"><ellipse cx="159.24" cy="523.99" rx="81.51" ry="106.23" fill="none" stroke="#000"/></g><g fill="#ff0" stroke="#000"><path d="M107.88 577.41C113 589.17 118 601 123 612.87h74.57c5.58-11.72 9.84-23.68 15.35-35.46l-19 19.69-1.77-31.47-20.21 28.93-10.46-32.42L150 594.56l-18.45-28.93L128 597.1z" stroke-width="2.217"/><path d="M160.31 622c-13.42 0-25.46 3.4-33.93 8.58.7-.66-.34-6.61-1.21-11.1-1.06-5.42-2.62-6.23-2.62-6.23 9.37-5.5 23.3-9.38 37.81-9.42s28.52 3.8 37.89 9.3c0 0-1.85 1.2-2.91 6.63-.87 4.49-1.59 10.16-.88 10.82-8.47-5.18-20.74-8.53-34.15-8.58" stroke-width="1.994"/><path d="M160.39 605.16c-14.52 0-27.56 3.48-36.93 9-.62.37-1.28-.12-1.49-1.29s.14-2.53.76-2.91c9.41-5.74 22.79-9.34 37.66-9.4s28.31 3.66 37.72 9.4c.62.38 1 1.73.75 2.91s-.86 1.66-1.48 1.29c-9.37-5.51-22.47-8.95-37-9m.05 38.52c-13.26 0-25.13-3.16-33.61-8.23a3.18 3.18 0 01-.91-2.68 3 3 0 01.91-2.52c8.48-5.07 20.35-8.19 33.61-8.23s25.12 3.16 33.59 8.23a3 3 0 01.9 2.52 3.15 3.15 0 01-.9 2.68c-8.47 5.07-20.34 8.19-33.59 8.23" stroke-width="2.217"/></g><path d="M160.39 640.22c-12 0-22.77-2.77-31-7 8.23-4.24 19-6.82 31-6.87s22.83 2.63 31.06 6.87c-8.23 4.23-19.1 7-31.06 7" stroke="#000" stroke-width="2.217" fill="url(#a)"/><g stroke="#000" stroke-width=".887"><path d="M160.41 618.81a5.21 5.21 0 115.62-5.19 5.41 5.41 0 01-5.62 5.19" fill="#eac102"/><path d="M160.42 617.18c-2.31 0-4.17-1.6-4.17-3.56s1.86-3.56 4.17-3.56 4.16 1.59 4.16 3.56-1.86 3.56-4.16 3.56" fill="#0000b3"/><path d="M196.15 617.1c-.1-.06-.18-.17-.29-.23-3-1.73-5.71-.88-6.11 1.86s1.66 6.33 4.61 8.07c.15-.36.31-.66.45-1 .21-.58.41-1.16.57-1.77s.3-1.23.41-1.85.18-1.19.23-1.77.1-1.15.13-1.72 0-1 0-1.55z" fill="#eac102"/><path d="M196.2 618.87a6.17 6.17 0 00-.57-.44c-2.21-1.28-4.22-.78-4.5 1.1s1.28 4.46 3.49 5.75c.14.07.26.08.39.15a6.9 6.9 0 00.52-.8 7.07 7.07 0 00.39-.92 6.46 6.46 0 00.26-1 8.25 8.25 0 00.13-1.15v-1.23c0-.42-.07-.95-.12-1.43z" fill="#0000b3"/><path d="M124.54 617.1c.1-.06.19-.17.29-.23 3-1.73 5.71-.88 6.11 1.86s-1.65 6.33-4.61 8.07c-.15-.36-.31-.66-.45-1-.21-.58-.4-1.16-.57-1.77s-.3-1.23-.41-1.85-.17-1.19-.23-1.77-.1-1.15-.13-1.72 0-1 0-1.55z" fill="#eac102"/><path d="M124.49 618.87a6.17 6.17 0 01.57-.44c2.21-1.28 4.22-.78 4.5 1.1s-1.28 4.46-3.49 5.75c-.14.07-.26.08-.39.15a8.52 8.52 0 01-.52-.8 7.07 7.07 0 01-.39-.92 6.46 6.46 0 01-.26-1 10.15 10.15 0 01-.12-1.15v-1.23c0-.42.07-.95.12-1.43z" fill="#0000b3"/></g><g clip-path="url(#c)"><ellipse cx="272.14" cy="523.99" rx="81.51" ry="106.23" fill="none" stroke="#000"/></g><g fill="#ff0" stroke="#000"><path d="M220.79 577.41c5.14 11.76 10.15 23.62 15.16 35.46h74.57c5.57-11.72 9.84-23.68 15.34-35.46l-19 19.69-1.76-31.47-20.22 28.93-10.46-32.42-11.51 32.42-18.46-28.93-3.52 31.47z" stroke-width="2.217"/><path d="M273.21 622c-13.41 0-25.45 3.4-33.93 8.58.71-.66-.33-6.61-1.21-11.1-1.06-5.42-2.61-6.23-2.61-6.23 9.37-5.5 23.29-9.38 37.81-9.42s28.52 3.8 37.89 9.3c0 0-1.86 1.2-2.91 6.63-.88 4.49-1.59 10.16-.88 10.82-8.48-5.18-20.74-8.53-34.16-8.58" stroke-width="1.994"/><path d="M273.29 605.16c-14.51 0-27.55 3.48-36.92 9-.63.37-1.29-.12-1.49-1.29s.13-2.53.76-2.91c9.41-5.74 22.79-9.34 37.66-9.4s28.3 3.66 37.71 9.4c.63.38 1 1.73.76 2.91s-.86 1.66-1.49 1.29c-9.37-5.51-22.46-8.95-37-9m.05 38.52c-13.25 0-25.13-3.16-33.6-8.23a3.18 3.18 0 01-.91-2.68 3 3 0 01.91-2.52c8.47-5.07 20.35-8.19 33.6-8.23s25.12 3.16 33.6 8.23a3 3 0 01.9 2.52 3.21 3.21 0 01-.9 2.68c-8.48 5.07-20.34 8.19-33.6 8.23" stroke-width="2.217"/></g><path d="M273.3 640.22c-12 0-22.78-2.77-31-7 8.23-4.24 19-6.82 31-6.87s22.83 2.63 31.06 6.87c-8.23 4.23-19.1 7-31.06 7" stroke="#000" stroke-width="2.217" fill="url(#d)"/><g stroke="#000" stroke-width=".887"><path d="M273.32 618.81a5.21 5.21 0 115.61-5.19 5.41 5.41 0 01-5.61 5.19" fill="#eac102"/><path d="M273.32 617.18c-2.3 0-4.16-1.6-4.16-3.56s1.86-3.56 4.16-3.56 4.17 1.59 4.17 3.56-1.86 3.56-4.17 3.56" fill="#0000b3"/><path d="M309.06 617.1c-.1-.06-.19-.17-.3-.23-3-1.73-5.7-.88-6.11 1.86s1.66 6.33 4.62 8.07c.15-.36.31-.66.45-1 .2-.58.4-1.16.57-1.77s.3-1.23.41-1.85.17-1.19.23-1.77.1-1.15.12-1.72 0-1 0-1.55z" fill="#eac102"/><path d="M309.11 618.87c-.2-.14-.36-.32-.57-.44-2.21-1.28-4.22-.78-4.5 1.1s1.28 4.46 3.49 5.75c.13.07.25.08.39.15a6.86 6.86 0 00.51-.8 7.07 7.07 0 00.4-.92 6.46 6.46 0 00.26-1 10.15 10.15 0 00.12-1.15v-1.23c0-.42-.08-.95-.12-1.43z" fill="#0000b3"/><path d="M237.44 617.1c.11-.06.19-.17.3-.23 3-1.73 5.71-.88 6.11 1.86s-1.66 6.33-4.61 8.07c-.15-.36-.31-.66-.45-1-.21-.58-.41-1.16-.57-1.77a17 17 0 01-.41-1.85c-.1-.59-.18-1.19-.24-1.77s-.09-1.15-.12-1.72 0-1 0-1.55z" fill="#eac102"/><path d="M237.39 618.87c.2-.14.37-.32.58-.44 2.21-1.28 4.22-.78 4.49 1.1s-1.27 4.46-3.49 5.75c-.13.07-.25.08-.38.15a6.9 6.9 0 01-.52-.8 7.07 7.07 0 01-.39-.92 6.46 6.46 0 01-.26-1 8.25 8.25 0 01-.13-1.15v-1.23c0-.42.07-.95.11-1.43z" fill="#0000b3"/></g><g clip-path="url(#e)"><ellipse cx="215.69" cy="618.28" rx="81.51" ry="106.23" fill="none" stroke="#000"/></g><g fill="#ff0" stroke="#000"><path d="M164.34 671.71c5.14 11.76 10.14 23.61 15.16 35.46h74.56c5.58-11.72 9.85-23.68 15.35-35.46l-19 19.69-1.76-31.48-20.22 28.93-10.46-32.41-11.52 32.41L188 659.92l-3.53 31.48z" stroke-width="2.217"/><path d="M216.76 716.3c-13.41.05-25.45 3.39-33.93 8.58.71-.66-.34-6.61-1.21-11.1-1.06-5.43-2.61-6.23-2.61-6.23 9.37-5.5 23.29-9.38 37.81-9.42s28.51 3.79 37.89 9.3c0 0-1.86 1.2-2.92 6.63-.87 4.48-1.58 10.16-.88 10.82-8.47-5.19-20.74-8.53-34.15-8.58" stroke-width="1.994"/><path d="M216.84 699.45c-14.51 0-27.56 3.48-36.93 9-.62.38-1.28-.11-1.48-1.28s.13-2.53.76-2.91c9.4-5.74 22.78-9.34 37.65-9.4s28.31 3.66 37.72 9.4c.62.38 1 1.73.76 2.91s-.87 1.66-1.49 1.28c-9.37-5.51-22.47-8.94-37-9m.05 38.55c-13.26 0-25.13-3.16-33.6-8.24a3.11 3.11 0 01-.91-2.67 3 3 0 01.91-2.52c8.47-5.07 20.34-8.19 33.6-8.23s25.12 3.16 33.59 8.23a3 3 0 01.91 2.52 3.14 3.14 0 01-.91 2.67c-8.47 5.08-20.34 8.2-33.59 8.24" stroke-width="2.217"/></g><path d="M216.84 734.52c-12 0-22.77-2.78-31-7 8.23-4.24 19-6.83 31-6.87s22.84 2.63 31.07 6.87c-8.23 4.22-19.1 7-31.07 7" stroke="#000" stroke-width="2.217" fill="url(#f)"/><g stroke="#000" stroke-width=".887"><path d="M216.87 713.1a5.21 5.21 0 115.61-5.18 5.41 5.41 0 01-5.61 5.18" fill="#eac102"/><path d="M216.87 711.47c-2.3 0-4.16-1.59-4.16-3.55a3.9 3.9 0 014.16-3.57c2.3 0 4.17 1.6 4.17 3.57s-1.87 3.55-4.17 3.55" fill="#0000b3"/><path d="M252.61 711.4c-.11-.07-.19-.17-.3-.23-3-1.73-5.71-.89-6.11 1.86s1.66 6.33 4.61 8.07c.15-.37.31-.66.45-1.05.21-.57.41-1.16.58-1.77a18.39 18.39 0 00.4-1.85c.1-.58.18-1.18.24-1.77s.09-1.15.12-1.71 0-1 0-1.55z" fill="#eac102"/><path d="M252.66 713.17c-.2-.14-.37-.32-.58-.44-2.21-1.28-4.22-.79-4.49 1.1s1.28 4.46 3.49 5.74a3 3 0 00.38.15 6.75 6.75 0 00.52-.79 6.87 6.87 0 00.39-.92 6.47 6.47 0 00.27-1 10.15 10.15 0 00.12-1.15v-1.23c0-.41-.07-1-.11-1.43z" fill="#0000b3"/><path d="M181 711.4c.11-.07.19-.17.3-.23 3-1.73 5.7-.89 6.11 1.86s-1.66 6.33-4.62 8.07c-.15-.37-.31-.66-.45-1.05-.2-.57-.4-1.16-.57-1.77a18.39 18.39 0 01-.4-1.85c-.1-.58-.18-1.18-.24-1.77s-.1-1.15-.12-1.71 0-1 0-1.55z" fill="#eac102"/><path d="M180.94 713.17c.2-.14.37-.32.57-.44 2.22-1.28 4.22-.79 4.5 1.1s-1.28 4.46-3.49 5.74a3 3 0 01-.38.15 6.75 6.75 0 01-.52-.79 8.5 8.5 0 01-.4-.92 6.46 6.46 0 01-.26-1 10.15 10.15 0 01-.12-1.15v-1.23c0-.41.08-1 .12-1.43z" fill="#0000b3"/></g><path d="M207.09 377.25c-43.09-17.43-69.46-33.62-87.88-52.15-8-8.1-12.17-13.88-16-22-6.14-13-9.57-28-10.49-53.86-.71-19.56-1.44-88.66-.92-122.19l.23-15 1.8 1.53c8.14 6.42 21.35 13.2 33.12 15.78 8.92 2 11.62 2.79 24.26 2.78s17.33-.78 27.27-2.9c16.75-3.59 26.81-8.38 36.16-14.51 1-.62 2.28-1.23 2-1.38-.15-.07.82.59 1.94 1.35 14.53 11.23 40.1 16.68 65 16.24a107.18 107.18 0 0047.53-11.44 80.65 80.65 0 0010.9-6.87c.38-.44-.07 1.24.15 6.71.66 16 .28 124.11-1.08 131.3a52 52 0 00-.38 5.55c.12 14.6-2.72 29.23-6.36 38.64a93.08 93.08 0 01-7.58 15.52c-7.58 11.9-22.09 25.83-42.78 38.66a342.8 342.8 0 01-58.25 28.25c-4.77 1.8-8.73 3.53-8.93 3.53s-4.6-1.55-9.73-3.62z" fill="#ff0"/><path d="M190.42 370.16l-6.11-2.85-.17-26.59c-.1-15.6-.34-38.82-.47-51.6l-.23-23.25h-45.55l-44-.16-1.5-34.87-.88-35.16 46.16.24 45.27.12-.2-26.69c-.11-14.68-.29-30-.39-34l-.16-6.91c3.34-.72 6.59-1.88 9.89-2.91 8.91-2.79 20-9 20.44-9.31l4.24-2.65 4.62 3.22C229 122.14 245.84 127 247 127.18l3.58.7.09 33.9.09 34.26 45.43-.11 46.37-.11-.2 18.85c0 17.14-.21 29-1.24 45.53l-.66 5.67h-89.39l.2 11.58c.17 10.09.87 81.8.87 88.72l-1.84 1-8.74 3.83c-15.22 6.71-23.62 10.35-24.63 10.32-5.68-2.24-7-2.82-12.64-5.21z" fill="red"/><path d="M170.87 174.68q-.36 26.55 0 53.12c.22 17.06 1 30.37 7.57 40.78 8 12.54 21.25 21.58 38.33 30.47 17.09-8.89 30.37-17.93 38.34-30.47 6.61-10.41 7.35-23.72 7.57-40.78q.35-26.56 0-53.12z" fill="#fff" stroke="#000" stroke-width="1.7"/><g fill="red" stroke="#000" fill-rule="evenodd"><path d="M231.29 221c.3-.93.78-3.4.93-4.09.72-3.26 5.14-5 7-3.42 1.14 1-.17 4.37-.17 6.26s2.42 7.09 2.42 9.45-.54 14.15-.54 17.46-3.55 6.19-5.33 8.64c-2 2.69-3.84 4.7-4.31 8.48-1 4.65-.26 5.45.71 10.85-.26 1.11-21.51 4.9-30.5-.22a30.32 30.32 0 00.47-12.65c-2.71-5.19-7.33-8.85-8.7-12.53s-1.15-11.92-.56-14.89c.28-1.43 1.06-10.15 1.11-10.52.1-.83.37-10.08.36-10.21s.15-9.29.38-10.41c.85-4.26 7.7-3.91 8.29 0 .33 1 .35 12.62.38 12.82s-.05 7.92-.14 8.75c.22-.94.08-14.4.06-16.38-.06-4.85-.24-14.36-.06-15.08.12-3.56 7.54-4.93 8.55 0 .25 1.23.4 15.34.43 14.93 0 .31.38 13.51.26 13.57.18.86-.39-21.54-.44-21.83s-.15-7.37 0-10.83c.42-4.83 9.27-5 9.42.38 0 .21.38 9.53.37 9.59s0 2.7 0 2.83.38 18.37.21 19.13v-8.63c0-.24-.48-18.57.06-19.6 1-2.92 7.38-3.37 8.19.91.28.33.41 8.7.41 9.1s.32 9.42.36 9.95c0 .23.06 3.43 0 3.6a45.92 45.92 0 00.41 4.59z" stroke-width="2.443"/><path d="M231.29 220.24c-.84 3.46.52 6.08.52 8a44.84 44.84 0 01-.89 6.17l-.44.62s-6.42.88-8.85 2.79-5.33 11-4.36 17.25" stroke-width="2.459"/></g><g fill="#c00"><path d="M189.61 127.9a2.16 2.16 0 01.44 0h-.44z"/><path d="M189.84 127.83l.2-.06v.12h-.39l.18-.06zm149.84 129.5v.08zm.25-3.39s0-.05 0 0v.06zm0-.14v-.05.1z"/></g><path d="M92 233.12c1 35.27 2.6 63.19 20.63 84.85 21.71 26.09 57.88 44.92 104.41 63.41 46.53-18.49 82.71-37.32 104.42-63.41 18-21.66 20-49.36 20.63-84.85.63-36.84.66-83.66 0-120.5-38.7 29.2-103.07 19.32-125.37.86-30.9 21.11-89 29.32-124.72-1.43-.76 36.84-1 84.24 0 121.07z" fill="none" stroke="#000" stroke-width=".2"/><path d="M942.92 769.37c-5.34-2.92-7.11-3.46-10.72-5.43s-3.53-1.85-5.85-3.13-9.61-5.84-11.09-6.69-2.65-1.54-3.75-2.21c-2.18-1.33-4-2.61-7.1-4.84a125.25 125.25 0 01-14-11.46c-10.16-9.5-16.93-17.56-21.5-27.42s-7-21.51-9.1-37.12c-.56-4.15-1.63-17.85-1.94-32.1-.59-26.18-.36-120.63.25-121.22.2-.2 1.63 1.42 2.43 2 2.73 2.16 10.7 7.48 16 9.7a97.44 97.44 0 0025 7.22c12.26 2 23.93 1.72 37.88-.81 17.2-3.12 23.36-5.73 37.75-13.2 2.25-1.17 3.68-2.42 5.65-3.53.82 129.85.6 128.77.32 267.87-3.21-1.35-6.52-2.55-9.69-4-10.21-4.11-20.35-8.86-30.5-13.61z" fill="#fff"/><path d="M965.39 581.07h.16v.22h-.16z"/><path d="M946.45 587.81c-.54-.12-.48-.28.26-.67l.5-.25a15.31 15.31 0 002.27-1.28 22.89 22.89 0 002.35-1.77 25.06 25.06 0 012.74-2.09 24.74 24.74 0 019.06-3.73 20.8 20.8 0 013.51-.36l3.47-.18v.1a5.54 5.54 0 01.07 1.67 3.31 3.31 0 01-.26 1.16c0 .06 0 .07-.06.05a1.63 1.63 0 00-.5-.14c-.33-.06-.82 1.39-1.28 1.37-3-.13-3.57-1.53-6.34-.92-.63.14-1.17.18-1.79.38s-1.25.43-1.88.69-1.28.56-1.94.89a43.77 43.77 0 00-4.28 2.5c-.89.58-1 .63-1.53.95a14.43 14.43 0 01-3.7 1.67 2.23 2.23 0 01-.71 0z" fill="maroon" stroke="#000" stroke-linecap="square" stroke-width=".63"/><g stroke="#646464" stroke-width=".444"><path d="M953.6 671.06c-.2-2 2.38-6.23 3-8 3-8.43 2.94-37.11 2.26-45.43a18.53 18.53 0 015.42-.53c1.44 6.89.73 35.28-3.21 43.49 3.92-7.68 4.73-36.18 3.21-43.49 2.26-.84 3.16-1.09 5.21-1.71.35 8.66.73 36.84-4.14 45.49-1.83 3-4.85 5.87-8.2 8.88-1.15 1.1-2.88 2.24-3.55 1.3z" fill-rule="evenodd"/><path d="M937 677c-.15-2.79 3.73-8.72 4.7-11.17 4.7-11.82 6.57-27 6.15-38.93a43.66 43.66 0 016.51-3c1.59 9.89-.18 27.23-6.23 38.67 6-10.69 7.9-28.18 6.23-38.67 3.23-1.06 4.5-1.37 7.43-2.13-.06 12.34-.29 29.45-7.67 41.47-2.76 4.22-7.18 8.07-12.07 12.15-1.62 1.43-4.18 2.95-5.05 1.61z" fill-rule="evenodd"/><path d="M916.33 677.36c.48-3.08 5.73-8.66 7.26-11.11 7.4-11.81 12.74-28 15-41a43.64 43.64 0 017.22-1.82c-.9 11-6.59 29.51-15.06 40.66 8.14-10.32 14-28.93 15.06-40.66 3.48-.43 3.67-.42 6.78-.6-1.56 13.62-5.84 31.89-16 43.32-3.73 4-9 7.18-14.86 10.54-2 1.24-4.87 2.33-5.44.63z" fill-rule="evenodd"/><path d="M910.77 662.77c1.07-2.16 2.18-4.31 3.37-6.47 2.25-4.12 4.68-8.23 7.22-12.25a38.39 38.39 0 005.28-11.27 57.6 57.6 0 012.77-7.88c.55-1.37 2.82-4.22 3.59-4.47.54.53 3 .65 3.38.67-1.9 10.62-8.56 24.76-15.71 31 7.46-6.6 13.82-20.84 15.71-31 3.43-.9 3.91-1.39 6.22-1.33-2.92 9.76-6.44 21.6-13.36 29.69a93 93 0 01-17.13 14.3c-1.26.58-1.72.27-1.34-1z" fill-rule="evenodd"/><path d="M897.77 647c1.36-2.16 6.68-4.7 8.51-6.06 8.86-6.55 16.74-17.06 22.66-26.14a24.43 24.43 0 015 .49c-4.21 8.16-12.81 20.73-22.25 26.34 9-5.08 17.78-17.7 22.25-26.34 2.42.78 3.38.68 5.47 1.54-5 8.5-8.85 14.38-16.2 21.91-1.6 2-5.48 4.8-8.4 6.3-3.79 1.81-8.33 2.54-13.28 3.22-1.7.35-3.97.25-3.76-1.26z" fill-rule="evenodd"/><path d="M893.24 634.72c1.51-1.9 6.7-3.72 8.55-4.81 8.92-5.23 17.44-14.35 24-22.33a21.89 21.89 0 014.52 1c-4.86 7.3-14.28 18.3-23.63 22.57 8.89-3.81 18.47-14.84 23.63-22.57 2.13 1 3 1 4.83 2.09-5.63 7.54-9.88 12.71-17.54 19a29.09 29.09 0 01-8.47 5c-3.7 1.29-8 1.47-12.58 1.55-1.62.23-3.69-.12-3.31-1.5z" fill-rule="evenodd"/><path d="M889.34 616.65c1.87-1.46 7-1.61 8.93-2.12 9.38-2.44 17.37-7.34 25.37-13.39.59 1.28 1.42 3.59 3 3.62-6.76 5.52-15.37 10.92-24.34 12.68 8.63-1.64 17.34-7 24.34-12.68a10.62 10.62 0 004.93-2.54 8.87 8.87 0 001.67 3.56c-8.27 6.88-19 15.48-29.75 16.17-3.64.11-7.49-1.11-11.63-2.55-1.45-.41-3.2-1.46-2.49-2.75z" fill-rule="evenodd"/><path d="M891.58 596.89a15 15 0 016.45-.43c9.55 1.6 20-.74 29.18-2.14.89 2.46 1 3.86 3.45 5-8.55 1.65-17.33 2.92-26.13 2 8.8.95 17.58-.32 26.13-2 .82.32 3.14 1.63 4.14 2.18-11.11 3.38-22.91 8-33.46 4.3-3.36-1.44-6.18-3.48-9.82-6q-1.72-1.49.06-2.91z" fill-rule="evenodd"/><path d="M897.71 585.46a12.63 12.63 0 015.41.3 85.8 85.8 0 0024.8 3.18 3.38 3.38 0 00.17.93 7.38 7.38 0 001.86 2.2c-7.32.5-14.05 1.28-22.31-1.71 8 3 15 2.21 22.31 1.71.4.46 2.15 2.39 2.87 3.29-11 1.39-19.62 2.24-27.79-1.92a42.13 42.13 0 01-7.81-5.54c-.79-1-.63-1.77.49-2.44z" fill-rule="evenodd"/><path d="M902.2 575.38a20.94 20.94 0 004.69 1.83c3.09 1.09 5.19 1.5 8.41 3.06 3.78 2 13.36 7.31 17.55 8.57-.5.43-2.27 1.25-2.35 1.54a53.94 53.94 0 01-20.76-8.65 52.49 52.49 0 0020.76 8.65c.37.6.81.53.54 1.34-7.13-1.54-14.43-1.54-20.94-5.86-4-3-6.51-5.15-8.68-9.58-.31-.63.01-1.23.78-.9z" fill-rule="evenodd"/><path d="M905.19 568.37a20.89 20.89 0 004.54 2.1c3 1.27 5 1.8 8.13 3.55 3.63 2.22 12.78 8.11 16.86 9.61-.53.4-2.32 1.14-2.43 1.43a53 53 0 01-20-9.88 51.46 51.46 0 0020 9.88c.33.62-.71 2.09-1 2.89-7-1.94-12.69-3.87-18.88-8.59-3.8-3.27-6.13-5.55-8-10.13-.31-.65.05-1.23.78-.86z" fill-rule="evenodd"/><path d="M909 560.79a19.71 19.71 0 003.89 2.78 59.26 59.26 0 017 4.74c3 2.74 10.59 10 14.15 12.05a21.17 21.17 0 00-2.5 1 49.12 49.12 0 01-17.06-12.8 47.66 47.66 0 0017.06 12.8c.21.66.59 1.93.17 2.66-6.19-3-11.54-4.73-17.83-11.33-3-3.81-4.81-6.41-5.8-11.2-.14-.66.29-1.18.92-.7z" fill-rule="evenodd"/><path d="M915.37 551.9a19.46 19.46 0 002.73 4.1c1.86 2.57 3.3 4 5 7.11 1.92 3.79 6.65 13.63 9.29 16.92-.63.15-1.93-.71-2.16-.47-5-4.85-9.81-10.91-12.31-17.84 2.54 6.93 7.33 13 12.31 17.84a3.29 3.29 0 01-.81 2.3c-4.82-5-10.59-8.67-13.43-16-1.57-4.88-2.39-8.15-1.73-13.44.09-.75.67-1.16 1.1-.47z" fill-rule="evenodd"/><path d="M928.16 543.43c-2.46 4.46-2.63 10.11-1.56 14.47.78 3.19 2.74 6 4.29 8.75.91 1.61 1.76 3.24 2.52 4.91.23.67.65 3 .25 3.55-.32.82-.62.76-1.32.87-.49.3-1.63-.28-2.11-.78-3.78-6.14-8-13.07-7.18-19.63-.78 6.44 3.4 13.49 7.18 19.63.48.5 1.62 1.08 2.11.78a20.83 20.83 0 01-1 1.82c-2.68-1.58-9.23-10.15-10.68-16.85-.66-2.71-1.21-12.34 7.52-17.52z" fill-rule="evenodd"/><path d="M935.47 572.91a25 25 0 01-5.39-5.08c-1.13-1.51-4.16-7.21-.64-12a14.77 14.77 0 003.18 9 28.66 28.66 0 004.9 4.45l.72.6-2 2.08z" fill-rule="evenodd"/><path d="M929.94 564.11c1.62 3.43 4.34 5.45 6.83 7.3" fill="none"/><path d="M939.39 623.31c-2.47 8.91 5.06 13 9.72 7.32 1.51 8.79 11 7.1 11.58 1.18l-2-5.6c3.55-4.08 5-9.07 7.38-11l-1.51-3.62c-2.86 1.4-5.63 3.35-9.61 3.83-2.39-.15-5-1.86-6.63-4.71-6.55-11.32-4-21-2.84-26.4 2.7-12.85-12-15.47-10.74-23.78-.8 1.59-1.58 3.19-1.33 4.91-3.44 1.33-6 4.4-4.85 8.17a7.17 7.17 0 00-6.36 1.84c-2.81 2.66-1.59 8.21 2.33 11.41a6.74 6.74 0 00-3.66 1.85c-3.19 3-.54 10.2 5.88 11.65-7.08 6.18-1.27 12.59 5.92 11.59-6 8.89 0 15.09 6.67 11.36z" fill-rule="evenodd"/><g fill="none" stroke-linecap="round" stroke-linejoin="round"><path d="M949.11 630.63c1.51 8.79 11 7.1 11.58 1.18m-27.99-52.76c-7.38-6.07-4.24-11.68.76-13.61-.25-1.72.53-3.32 1.33-4.91-1.31 8.31 13.44 10.93 10.74 23.78-1.14 5.42-3.71 15.08 2.84 26.4 4.54 8 10.39 3.85 16.07.94"/><path d="M939.9 574.24c5.65 6.56.34 14.84 1 22.79 1.57 18.29 11.33 26.93 23.46 18.8"/><path d="M937.69 572.15c-5.18 0-6.37 4.77-4.21 8.92 1.3 2.49 5.87 5.29 8.48 5.94m-8.48-5.94c-3.34.95-6.4 5-4.36 8.7a8.9 8.9 0 007.3 4.43"/><path d="M933.62 593.61c-2.83 1.94-4.61 5.08-3.66 7.82s3.52 3.33 4.85 3.66"/><path d="M936.73 601.94a11 11 0 00-2.22 4c-1.39 4.7.59 9.54 4.13 8 1.42-.64 4-3.37 5-4.86"/><path d="M940.3 612.76c-.88 3.16-.1 7.16 1.91 8.34 2.58 1.52 5.6-2.27 6.15-4.67"/><path d="M947 619.23c-.12 2.7.08 8 3.32 8.71 3.48.72 5.09-3.29 4.88-5.08m-.1 1.07c.07.9 2 2.6 3.64 2.28m-30.13-52.6a7.17 7.17 0 00-6.36 1.84c-3.65 3.44-.51 11.76 6.5 13.49"/><path d="M924.58 586.86a6.74 6.74 0 00-3.66 1.85c-3.64 3.44.33 12.32 8.84 11.9m-2.96-.25c-7.63 6.67-.27 13.6 7.63 11.22m-1.71.42c-6.8 10.15 2 16.79 9.49 9.15m-2.82 2.16c-2.78 10 7.14 13.91 11.32 4.7m-26.14-50.15c1 2.68 2.73 4.25 5.32 5.66m1.4-14.52c-.17 1.68 1.21 3.43 2.49 4.57m1.86 3.12a9.42 9.42 0 006.89 5.49m-10.85 4.09a11.17 11.17 0 009.59 4.58m-8.62 10.53c1.42-3.23 4.84-4.45 8.15-5.58m-3.49 14.93a13.1 13.1 0 014.56-7.15m1.48 15.42c-.84-2 .26-5.32 1.8-6.72m5.47 5.72c1.21 2.41 2.13 6.21.59 7.94m-5.57-5.36c-.84 2.35-.85 7-.6 8.74m-7.46-15.09c-1.18 2.14-2.15 4.76-1.66 6.62m-2.13-16.05a13.71 13.71 0 01-7.47 3.27m-3.96-16.48c3.32 2.83 6.06 3.13 11.25 2m20.51 32.72a22.52 22.52 0 002.06 7.17"/></g></g><g stroke="#000" stroke-width="1.539"><g stroke-linecap="round" stroke-linejoin="round"><path d="M930.38 698.17a6.4 6.4 0 01-4.16-.38c-1.67-.78-3.14-3.76-4.82-4.52a2.14 2.14 0 00-3 .9 2.34 2.34 0 001 3.14c.64.29 1.54-.2 2.32.16.53.23.67 1.16 1.19 1.6a3.42 3.42 0 001.54.7c1.91.43 3.93-.9 5.93-1.6z" fill="#eac102"/><path d="M923.07 702.43c-2.51.42-5.21.6-6.09 1.82-.68 1-.41 2.43.11 3.73.39 1 1.75 1.95 2.9 1.21 1.43-.93 1.83-3.82 3.45-4.35s2.67.06 4.26.37a5.08 5.08 0 004.32-1.39 2.85 2.85 0 012.24 1c.51.75.59 2.28 1.63 2.75a2.39 2.39 0 003.23-1.11c.72-1.86.47-4.24-1.09-5-1-.45-3.56-.17-4.91.12 3.86-2 10.1-3.52 14.57-5.77 1-.52 4.3.88 6.14-.29l7.84-5.66-8-4.94-5.09 4.25c-4.83 3.54-11.86 6.19-18.54 9a14.08 14.08 0 01-6.82 1.48c-1.86-.76-4.17-2.77-5.5-2l-1.17 2.64c.36 1.32 1.57 3.18 4 .87a.19.19 0 01.33 0 3.57 3.57 0 002.24 1.25z" fill="#eac102"/><path d="M918.33 691.73c-1.84-.74-4.08.85-2.76 3.44.23-1.44 1.93-1.76 2.91 0a1.76 1.76 0 001.41-1.89 3 3 0 00-1.56-1.55zm22.51 11.41a4.09 4.09 0 00-1.77-.24 2.26 2.26 0 00-.56 3.59 1.83 1.83 0 012.67 2.32c2.05-1 2.39-2.62 1.78-3.87a3.7 3.7 0 00-2.12-1.8zm-24.21-6a3.83 3.83 0 00-.43-.17 2.83 2.83 0 00-2.55.24 2.62 2.62 0 00-.19 4.15c-.06-1.75 1.8-2.72 3.37-.87a2 2 0 001.06-2.47 5.15 5.15 0 00-1.26-.84zm1 7.53a3.72 3.72 0 00-3.66 2.08 2.82 2.82 0 001.66 3.87 1.81 1.81 0 012.62-2.35 2.28 2.28 0 00-.63-3.56z" fill="#fc0"/></g><path d="M922.9 702.47a12.31 12.31 0 003.87-1.23" fill="none"/><path d="M951.15 693.79a2.66 2.66 0 012 .05c.12 0 .15-.05.22-.1.54-1.17 1-2.24 1.52-3.3" stroke-linecap="round" stroke-linejoin="round" fill-rule="evenodd"/></g><g stroke-width="1.504"><g stroke="#646464"><path d="M984.2 603.24c-.71 2.6-1.13 2.6-1.84 0s-.16-4.28-2.15-6.7c.49-.62 1-.25 1.48-.39a10.83 10.83 0 01-2.43-3.63c1.7 1.18 2.76.56 3.19-1.84a1.85 1.85 0 01-2.08.82 3.48 3.48 0 01-1.12-3.12 9.24 9.24 0 00-.52-4.74 1.71 1.71 0 011.51 0c-.41-.68-2.22-1.75-2.82-2.37a15.43 15.43 0 00-1.53-4.75c1.17-.08 1.24.72 1.78.79a15.61 15.61 0 00-5.84-6.54c1.09-.49 1.62-1 1.86-1.79a10.7 10.7 0 01-3.61 1c-3 .25-3.52 0-6.56-.5-2.89-.13-4.5.23-6.52 2.49l1.67 1.92 2.68 4.68c1 .37 5.34 0 4.21 3.06l-1.18 1.77c4.69 0 1.69 9.32-2.33 6.62 1 2.43 2.28 3.31 3.76 2.61a9.73 9.73 0 01-1.8 5c-.09.35-.53.49-1.33.41a1.85 1.85 0 002.35.62 10.12 10.12 0 001.05-.68c-1.07 1-4.71 6.47-4.37 8.37a11 11 0 01-.05 2.52 4.9 4.9 0 01-1.52 3.08 2.93 2.93 0 002.41-.61 3.6 3.6 0 001.06-2.17 7.42 7.42 0 01-.59 2.74 2.83 2.83 0 00-.14.35c-.37 1.09-1.82 2.34-1.39 3.74a8.66 8.66 0 00.92-.9 8.48 8.48 0 00.62-.8 8.79 8.79 0 00-.36 1.52 8.12 8.12 0 001 4.91 1.7 1.7 0 00.52-.65 5.11 5.11 0 00.48-1.67 10.44 10.44 0 00.12 3.29c-2.43 4.35-.4 6.84 1 12.7 1.31 5.51 3.92 13.29 4.83 23.57-4.34 1.63-3.73 5.58-6.25 10.44-2.61 2.2-4.77 6.68-6.54 8.89a40.52 40.52 0 01-4.61 5.48 19.1 19.1 0 01-2.51 2c-2 .69-4.19 1.37-7.4-.49 1.33 2 3.11 3.68 5.46 3.71a3.63 3.63 0 00-1.13 2.32 8.5 8.5 0 004.73-1.72 19.84 19.84 0 00-3.18 3.61c2 .42 3.82-.63 6.29-2.84-.46.83-1.9 4.66-1.81 5.65.64-.53 2-2.92 3.18-3.3a13.18 13.18 0 00-.78 6.14c2.48-6.19 10.74-8.8 14.82-14.76a7.39 7.39 0 01-.83 3 8.51 8.51 0 003.09-3.8c2.26-.16 1.8-.92 3.49-2.39-1.07 11-1.29 14.71-10.52 21.11-1.37-1.76-3.34-1.14-5.3-.54 1.45.08 2.91-.1 3.79 1.36l-4 2.46c-1.81-2-4.44-2.06-7-2.18 1.89 1 4.51 1.07 4.92 3.81-7.46 4.87-15.48 8.94-18.86 19.63-2.24 2.38-4.31-1.75-5.46-3.27 1.23 3.65 2.25 7.61 6.21 7.27 3.81 6.14 9.43 4.65 12.36-1.27 1.67-1.18 3.57-.43 5.37-.55a8.77 8.77 0 00-4.6-1 11.08 11.08 0 003.54-5.18 17.63 17.63 0 00-4.75 3.92c.18-1.47-1-2.8-1.46-4.1-.18 1.63.42 3.44.12 5-5.79 12.1-14.71-3.47.49-10.67l.83 4.36c1.22-3.48 2.6-6.64 7-8.91a11 11 0 001.75 7.36c-.24-2.63-.8-5.72.68-8.36l10.6-7c.9 1.23.33 2.71-.15 4.18a7 7 0 002.8-5.54c1.62-1.42 2.38-1.55 3.21-3-.6 5.92-.32 8.5-4.09 10.16a5.22 5.22 0 00-4.24 0c.88.21 1.92.12 2.42 1-3 2.14-11.48 6.41-8.18 12.09 1.9 1.86 3.14.94 4.24.54-1.49 0-3.91-.74-3.18-3.5 1.07-2.69 3.59-4.14 5.91-5.22l6.52-1.76c-3 4.84-4.11 9.53-9.62 13.3-5.17 3.26-12 5.12-13.39 10.17-1.49 4.86 1.33 9.09 4.14 9.28 5.3-.46 4.09-3.12 5.82-4.79 1.22-1.21 3.27-1.67 4.79-2.75-1.9.21-3.73-.13-5.76 1.18a5.06 5.06 0 00-1.89-4.55c.32 1.91.92 3.82.3 5.73-.61 1.61-1.43 2.18-2.47 1.93-3.34-.41-2.81-5-2.6-5.2 1.88-4.68 6-4.19 9.09-6.54.39 2-.46 3.76-.76 5.63a18 18 0 004.13-7 8.62 8.62 0 00.49 5c.34-2.47.7-5.86 2.62-6.2 2.12-.46 4.94-1.73 5.77-3.26l-.38 4.81c-.17 7.81-4.63 12.34-10.24 15.91-1.65 1-2.63.4-3.68.09a2.47 2.47 0 002.92 1.5c-.5 1.66-.58 3.29.53 4.59 1.44 2.22 5.21.39 5-2.55-2.29 4-5.25 1.06-3.56-2.32 1.68-1.87 4.37-1.94 5.75-3.49 1.19 1.41.14 3.44.15 5.18 1.25-2.18 2-4.31 1.29-6.37a19.44 19.44 0 003.49-4.29c.74 8.48-3.66 12.14-3.5 15 .64-.71 2.92-3.21 4.36-3.2-3.14 7.12-2.92 10.39 2.81 15.18h0c5.73-4.79 5.94-8.06 2.8-15.18 1.44 0 3.72 2.49 4.36 3.2.16-2.89-4.24-6.55-3.5-15a19.44 19.44 0 003.49 4.29c-.67 2.06 0 4.19 1.28 6.37 0-1.74-1-3.77.16-5.18 1.38 1.55 4.07 1.62 5.75 3.49 1.69 3.38-1.27 6.35-3.56 2.32-.17 2.94 3.59 4.77 5 2.55 1.11-1.3 1-2.93.53-4.59a2.47 2.47 0 002.92-1.5c-1 .31-2 .86-3.68-.09-5.61-3.57-10.07-8.1-10.24-15.91l-.38-4.81c.83 1.53 3.65 2.8 5.77 3.26 1.92.34 2.28 3.73 2.62 6.2a8.62 8.62 0 00.49-5 18 18 0 004.13 7c-.3-1.87-1.15-3.68-.76-5.63 3.06 2.35 7.21 1.86 9.09 6.54.21.23.74 4.79-2.6 5.2-1 .25-1.86-.32-2.47-1.93-.62-1.91 0-3.82.3-5.73a5.06 5.06 0 00-1.89 4.55c-2-1.31-3.86-1-5.76-1.18 1.51 1.08 3.57 1.54 4.79 2.75 1.73 1.67.52 4.33 5.82 4.79 2.81-.19 5.62-4.42 4.14-9.28-1.43-5.05-8.22-6.91-13.39-10.17-5.51-3.77-6.62-8.46-9.62-13.3l6.52 1.76c2.32 1.08 4.84 2.53 5.91 5.22.72 2.76-1.7 3.5-3.19 3.5 1.11.4 2.35 1.32 4.25-.54 3.3-5.68-5.16-10-8.19-12.09.51-.88 1.55-.79 2.43-1a5.22 5.22 0 00-4.24 0c-3.77-1.66-3.49-4.24-4.09-10.16.83 1.42 1.59 1.55 3.21 3a7 7 0 002.85 5.56c-.48-1.47-1-3-.16-4.18l10.61 7c1.48 2.64.92 5.73.68 8.36a10.9 10.9 0 001.74-7.36c4.44 2.27 5.83 5.43 7 8.91l.83-4.36c15.2 7.2 6.28 22.77.49 10.67-.31-1.6.3-3.41.12-5-.5 1.3-1.65 2.63-1.46 4.1a17.63 17.63 0 00-4.75-3.92 11 11 0 003.54 5.18 8.75 8.75 0 00-4.6 1c1.79.12 3.7-.63 5.37.55 2.93 5.92 8.55 7.41 12.35 1.27 4 .34 5-3.62 6.22-7.27-1.15 1.52-3.22 5.65-5.46 3.27-3.38-10.69-11.4-14.76-18.86-19.63.41-2.74 3-2.85 4.92-3.81-2.6.12-5.23.17-7 2.18l-4-2.46c.88-1.46 2.33-1.28 3.79-1.36-2-.6-3.93-1.22-5.3.54-9.23-6.4-9.46-10.08-10.52-21.11.82 1.83 2.33 1.64 3.49 2.39a8.44 8.44 0 003.09 3.8 7.58 7.58 0 01-.84-3c4.09 6 12.35 8.57 14.83 14.76a13.32 13.32 0 00-.79-6.14c1.22.38 2.55 2.77 3.19 3.3.09-1-1.35-4.82-1.81-5.65 2.47 2.21 4.24 3.26 6.29 2.84a19.84 19.84 0 00-3.18-3.61 8.47 8.47 0 004.72 1.72 3.61 3.61 0 00-1.12-2.32c2.35 0 4.13-1.69 5.46-3.71-3.21 1.86-5.37 1.18-7.4.49a19 19 0 01-2.52-2 41.19 41.19 0 01-4.6-5.48c-1.77-2.21-3.94-6.69-6.54-8.89-2.52-4.86-1.92-8.81-6.26-10.44.92-10.28 3.53-18.06 4.84-23.57 1.4-5.86 3.43-8.35 1-12.7a10.14 10.14 0 00.13-3.29 4.88 4.88 0 00.48 1.67 1.7 1.7 0 00.52.65 8.12 8.12 0 001-4.91 8.79 8.79 0 00-.36-1.52c.2.29.4.55.61.8a11.07 11.07 0 00.92.9c.44-1.4-1-2.65-1.38-3.74 0-.12-.09-.25-.14-.35a7.22 7.22 0 01-.59-2.74 3.6 3.6 0 001.06 2.17 2.93 2.93 0 002.41.61 4.9 4.9 0 01-1.52-3.08 11 11 0 010-2.52c.33-1.9-3.3-7.35-4.37-8.37a10.12 10.12 0 001 .68 1.85 1.85 0 002.35-.62c-.8.08-1.24-.06-1.33-.41a4 4 0 00-1.26-2.41 4 4 0 00-.55-2.61c1.48.7 2.73-.18 3.77-2.61-4 2.7-7-6.71-2.37-6.7l-1.12-1.76c-1.13-3 3.22-2.62 4.19-3l3-5 1.08-1.66c-2-2.26-2.56-2.53-5.45-2.4a70.48 70.48 0 01-7.33.51 7.78 7.78 0 01-3.16-.56c.24.84.9.88 2 1.37-2.62 1.74-5.1 3.78-6.21 6.32.54-.06.87-.75 2-.67-.64 1.49-2.22 3.3-2.31 4.87a23.32 23.32 0 00-2.48 2.35 1.71 1.71 0 011.51 0 9.24 9.24 0 00-.52 4.74 3.48 3.48 0 01-1.12 3.12 1.85 1.85 0 01-2.08-.82c.43 2.4 1.49 3 3.19 1.84a10.83 10.83 0 01-2.43 3.63c.49.14 1-.23 1.48.39-2 2.42-1.43 4.11-2.15 6.7z" fill-rule="evenodd"/><path d="M982.12 721.16c-.45 4.87-2.92 8.53-4.63 12.22m4.28-28.29c-.68 7.38-2 11.4-4.26 15.93m4.02-47.02c-.68 7.39-1.64 17.08-5.15 23" fill="none"/><path d="M966.12 578a3.6 3.6 0 012.66 1.12 6.49 6.49 0 011.06 2 5.1 5.1 0 01.1 2.55 5.1 5.1 0 00-.1-2.55 6.49 6.49 0 00-1.06-2 3.6 3.6 0 00-2.66-1.12zm5.15 44.85a3.74 3.74 0 00-.62 3.57 3.74 3.74 0 01.62-3.57zm.51-4.64a2 2 0 00-1.21 1.3 2 2 0 011.21-1.3zm11.58 30.39a8.27 8.27 0 01-1.46 4.4 8.27 8.27 0 001.46-4.4zm-5.48-12.35a1.17 1.17 0 01.73 1.82 1.17 1.17 0 00-.73-1.82 3.12 3.12 0 01-1.72 2.3 5.08 5.08 0 00.33-3c-.43.08-.81-.18-1.11-.81-1.21.11-2-.54-2.27-2a2.86 2.86 0 01.38-2.4 2.86 2.86 0 00-.38 2.4c.3 1.43 1.06 2.08 2.27 2a7.82 7.82 0 01-.59-2.07 7.82 7.82 0 00.59 2.07c.3.63.68.89 1.11.81a5.08 5.08 0 01-.33 3 3.12 3.12 0 001.72-2.3 6.65 6.65 0 000-2.15 6.65 6.65 0 010 2.15zm-5.07 7.49c-.66 1.35-.66 2.41 0 3.15-.66-.74-.66-1.8 0-3.15zm2.09 4.39a4.37 4.37 0 00-2.13 3.86 1.69 1.69 0 011.59-.55 3.32 3.32 0 00-1.1 2.73 3.32 3.32 0 011.1-2.73 1.69 1.69 0 00-1.59.55 4.37 4.37 0 012.13-3.86zm6.16-3.81c.67 2 .39 3.22-.89 3.63 1.28-.41 1.56-1.59.89-3.63zm-2.32.32c1.16 2.4.92 3.61-.71 3.59 1.63.02 1.87-1.23.71-3.59zm-7.94 30.11a5 5 0 01-1.59 3.52 5 5 0 001.59-3.52zm3.8-.2c.24.83-.25 1.75-1.42 2.73 1.17-.98 1.66-1.9 1.42-2.73zm-.1-14.76a3.09 3.09 0 01-.63-1.2 3.6 3.6 0 01-.1-1.24 3.6 3.6 0 00.1 1.24c-.65 2.19-1.57 3.6-2.75 4.21 1.18-.61 2.1-2 2.75-4.21a3.09 3.09 0 00.63 1.2zm-.12 18.86a3.47 3.47 0 01-.84 2.48 5.15 5.15 0 002.57-2.33c2.15-.95 6.65-8.95.07-6.41" fill-rule="evenodd"/><path d="M982.36 666.31c-1.86-.66-1-6-1.72-7.23-.54-1.71 1.2-2.83 1-4.24" fill="none"/><g fill-rule="evenodd"><path d="M978.82 660a9.5 9.5 0 00.57 5.21 9.5 9.5 0 01-.57-5.21zm-13.32-35.71a7.23 7.23 0 01-3.77 5.55c2.72.88 4.31.8 5-2.47-.4 1.18-.08 1.22-1.18 2.57-1.88 1.82-1.69 3.28-1.85 4.81a7.27 7.27 0 012.28-1.14 7.92 7.92 0 00-1.24 6.62l1.92-2.36a8.26 8.26 0 000 7.28c.19-1.35 2.36-2.46 2-4.68m2.44 8.47a4.75 4.75 0 00-1 3.39c-1.82-2.35-1.6-4.3-.21-6"/><path d="M968.62 641.91c-.2 1-1.19 3.08.7 5 .1-.68-.18-.86 1.15-3.1"/></g><path d="M984.59 721.16c.45 4.87 2.93 8.53 4.64 12.22M985 705.09c.68 7.38 2 11.4 4.26 15.93M985.19 674c.68 7.39 1.63 17.08 5.14 23m-6.89-21.06v21.85" fill="none"/><path d="M995.19 622.85a3.74 3.74 0 01.63 3.57 3.74 3.74 0 00-.63-3.57zm-11.84 25.75a8.19 8.19 0 001.47 4.37 8.19 8.19 0 01-1.47-4.37zm5.24-12.35c-.93.38-1.16 1-.74 1.82-.42-.82-.19-1.44.74-1.82a3.07 3.07 0 001.72 2.3 5 5 0 01-.33-3c.43.07.81-.18 1.11-.81 1.2.11 2-.54 2.26-2a2.79 2.79 0 00-.38-2.4 2.79 2.79 0 01.38 2.4c-.3 1.43-1.06 2.08-2.26 2a8.22 8.22 0 00.59-2.07 8.22 8.22 0 01-.59 2.07c-.3.63-.68.88-1.11.81a5 5 0 00.33 3 3.07 3.07 0 01-1.72-2.3 6.38 6.38 0 010-2.15 6.38 6.38 0 000 2.15zm5.06 7.49c.66 1.35.66 2.41 0 3.15.66-.74.66-1.8 0-3.15zm-2.08 4.39a4.39 4.39 0 012.13 3.87 1.7 1.7 0 00-1.59-.55 3.27 3.27 0 011.09 2.73 3.27 3.27 0 00-1.09-2.73 1.7 1.7 0 011.59.55 4.39 4.39 0 00-2.13-3.87zm-5.91-3.81c-.68 2-.4 3.22.89 3.63-1.29-.41-1.55-1.59-.89-3.63zm2.34.32c-1.16 2.4-.92 3.61.71 3.59-1.65.02-1.89-1.23-.71-3.59zm7.92 30.11a5 5 0 001.58 3.52 5 5 0 01-1.58-3.52zm-3.81-.2c-.23.83.26 1.75 1.43 2.73-1.17-.98-1.66-1.9-1.43-2.73zm-.11-14.77a2.86 2.86 0 00.63-1.19 3.62 3.62 0 00.1-1.24 3.62 3.62 0 01-.1 1.24c.66 2.19 1.57 3.6 2.76 4.21-1.19-.61-2.1-2-2.76-4.21a2.86 2.86 0 01-.63 1.19zm.34 18.87a3.47 3.47 0 00.84 2.48 5.17 5.17 0 01-2.58-2.33c-2.14-.95-6.64-8.95-.06-6.41" fill-rule="evenodd"/><path d="M984.36 666.31c1.86-.66 1-6 1.72-7.24.54-1.7-1.2-2.82-1-4.23" fill="none"/><g fill-rule="evenodd"><path d="M987.9 660a9.5 9.5 0 01-.57 5.21 9.5 9.5 0 00.57-5.21zm13.1-35.71a7.2 7.2 0 003.77 5.55c-2.73.88-4.32.8-5-2.47.4 1.18.08 1.22 1.18 2.57 1.87 1.82 1.69 3.28 1.85 4.81a7.23 7.23 0 00-2.29-1.14 7.89 7.89 0 011.24 6.62l-1.92-2.36a8.27 8.27 0 010 7.27c-.19-1.34-2.37-2.45-2.05-4.67m-2.41 8.47a4.8 4.8 0 011 3.39c1.82-2.35 1.59-4.3.21-6"/><path d="M997.84 641.91c.2 1 1.2 3.08-.69 5-.11-.68.17-.86-1.15-3.1"/></g><path d="M979.2 674.79l3.18-5.66c1-1.68 1.79-.7 2 0l3 5.59m-4.11 74.13v7.68m0-35.03v16m0-33.7v7.68" fill="none"/><g fill-rule="evenodd"><path d="M979.89 615.73a2.45 2.45 0 01-.84-2 2.45 2.45 0 00.84 2 1.41 1.41 0 01.59-1 1.41 1.41 0 00-.59 1zm6.76.03a2.51 2.51 0 00.84-1.94 2.51 2.51 0 01-.84 1.94 1.39 1.39 0 00-.6-1 1.39 1.39 0 01.6 1zm-10.11 5.37a4.39 4.39 0 00-2.13 3.86 1.71 1.71 0 011.59-.56 3.3 3.3 0 00-1.09 2.74 3.3 3.3 0 011.09-2.74 1.71 1.71 0 00-1.59.56 4.39 4.39 0 012.13-3.86zm13.32-.13a4.37 4.37 0 012.13 3.86 1.69 1.69 0 00-1.59-.55 3.31 3.31 0 011.1 2.73 3.31 3.31 0 00-1.1-2.73 1.69 1.69 0 011.59.55 4.37 4.37 0 00-2.13-3.86zm3.84-39.91a2.55 2.55 0 00-.94 1.33 2.53 2.53 0 01-.13-2.38 2.53 2.53 0 00.13 2.38 2.55 2.55 0 01.94-1.33zm-2.03 2.91a4.11 4.11 0 00-1.29 2.22 4.5 4.5 0 01-.36-3.11 4.5 4.5 0 00.36 3.11 4.11 4.11 0 011.29-2.22zm1.95 4.25a2.37 2.37 0 01-.71-1.79 2.37 2.37 0 00.71 1.79 1.3 1.3 0 01.52-.89 1.3 1.3 0 00-.52.89z"/><path d="M990.4 605.43a3.74 3.74 0 00-1.88 1.76 4.11 4.11 0 01.46-3.84 4.11 4.11 0 00-.46 3.84 3.74 3.74 0 011.88-1.76zm-1.22 3.8a2.52 2.52 0 01.79 1.39 2.84 2.84 0 00.25-1.94 2.84 2.84 0 01-.25 1.94 2.52 2.52 0 00-.79-1.39z" fill="#ed1c24"/></g><path d="M993.47 598.42c.17.88 1 2.84-.63 4.57-.09-.63.16-.79-1-2.86" fill="none"/><path d="M993.3 594a1.09 1.09 0 00-.79 1.59 1.09 1.09 0 01.79-1.59 3 3 0 001.27 2.29 4.91 4.91 0 010-2.79c.36.11.7-.08 1-.63 1 .24 1.73-.28 2.11-1.56a2.8 2.8 0 00-.11-2.24 2.8 2.8 0 01.11 2.24c-.38 1.28-1.09 1.8-2.11 1.56a7.26 7.26 0 00.69-1.83 7.26 7.26 0 01-.69 1.83c-.31.55-.65.74-1 .63a4.91 4.91 0 000 2.79 3 3 0 01-1.27-2.29 6.64 6.64 0 01.17-2 6.64 6.64 0 00-.17 2zm-3.46 2.07a4 4 0 00-2.15 3.31 1.34 1.34 0 011.4-.34 3.08 3.08 0 00-1.17 2.39 3.08 3.08 0 011.17-2.39 1.34 1.34 0 00-1.4.34 4 4 0 012.15-3.31z" fill="#ed1c24" fill-rule="evenodd"/><path d="M990.32 588.41c-.33.81-1.52 2.53-.24 4.62.2-.59 0-.82 1.48-2.56m-.4-14.47a3.34 3.34 0 00-.17 3.47c.15-.44 0-.61 1.11-1.92" fill="none"/><g fill-rule="evenodd"><path d="M973 581.09a2.55 2.55 0 01.94 1.33 2.53 2.53 0 00.13-2.38 2.53 2.53 0 01-.13 2.38 2.55 2.55 0 00-.94-1.33zm2.06 2.91a4.07 4.07 0 011.3 2.22 4.5 4.5 0 00.36-3.11 4.5 4.5 0 01-.36 3.11 4.07 4.07 0 00-1.3-2.22zm-1.94 4.25a2.37 2.37 0 00.71-1.79 2.37 2.37 0 01-.71 1.79 1.3 1.3 0 00-.52-.89 1.3 1.3 0 01.52.89z"/><path d="M976.34 605.43a3.71 3.71 0 011.87 1.76 4.06 4.06 0 00-.46-3.84 4.06 4.06 0 01.46 3.84 3.71 3.71 0 00-1.87-1.76zm1.22 3.8a2.52 2.52 0 00-.79 1.39 2.84 2.84 0 01-.25-1.94 2.84 2.84 0 00.25 1.94 2.52 2.52 0 01.79-1.39z" fill="#ed1c24"/></g><path d="M972.81 607.36a4.52 4.52 0 00-.86 3.12c-1.59-2.15-1.41-4-.23-5.56m1.55-6.5c-.17.88-1 2.84.63 4.57.09-.63-.16-.79 1-2.86" fill="none"/><g fill-rule="evenodd"><path d="M973.44 594a1.08 1.08 0 01.78 1.59 1.08 1.08 0 00-.78-1.59 3 3 0 01-1.27 2.29 5 5 0 000-2.79c-.36.11-.7-.08-1-.63-1 .24-1.73-.28-2.11-1.56a2.8 2.8 0 01.11-2.24 2.8 2.8 0 00-.11 2.24c.38 1.28 1.08 1.8 2.11 1.56a7.26 7.26 0 01-.69-1.83 7.26 7.26 0 00.69 1.83c.31.55.65.74 1 .63a5 5 0 010 2.79 3 3 0 001.27-2.29 6.67 6.67 0 00-.18-2 6.67 6.67 0 01.18 2zm3.46 2.07a4 4 0 012.15 3.31 1.36 1.36 0 00-1.41-.34 3.06 3.06 0 011.18 2.39 3.06 3.06 0 00-1.18-2.39 1.36 1.36 0 011.41.34 4 4 0 00-2.15-3.31z" fill="#ed1c24"/><path d="M973.14 573.29c.76 1.8.62 2.91-.44 3.43 1.06-.52 1.2-1.63.44-3.43z"/><path d="M970.86 573.27c1.2 2.08 1.1 3.22-.29 3.37 1.43-.15 1.49-1.29.29-3.37zM969 600.5a4.21 4.21 0 00-1.49 3.75 1.44 1.44 0 011.32-.67 3.21 3.21 0 00-.7 2.62 3.21 3.21 0 01.7-2.62 1.44 1.44 0 00-1.32.67 4.21 4.21 0 011.49-3.75z" fill="#ed1c24"/></g><path d="M976.42 588.41c.33.81 1.52 2.53.24 4.62-.2-.59 0-.82-1.48-2.56m-5.77 4.58c-.13.69-.79 2.25.51 3.61.06-.49-.13-.62.76-2.26m-1.14-11.81c-.13.69-.8 2.24.5 3.61a3.91 3.91 0 01.77-2.26m4.76-9.94a3.33 3.33 0 01.18 3.47c-.15-.44 0-.61-1.11-1.92" fill="none"/></g><path d="M957.32 571.85c-2.86.3-7.6 3.42-3.65 6.18a2.83 2.83 0 01.26-1.27 1.53 1.53 0 011.19-.77c1-.3 2.18.47 3.44 1.53s3.54 1.06 5.18 1.5c.85-1.92-4.77-4.39-6.42-7.17z" fill="#eac102" stroke="#000" fill-rule="evenodd"/><g stroke="#646464"><path d="M960.92 572.77c1.14-.31 3.18.8 4.62.22-.46.84-.78 2.15-3.22 1.93-1.26-.12-2.05-1.15-1.4-2.15z" fill="#e6e6e6" fill-rule="evenodd"/><path d="M961.1 572.74a2.55 2.55 0 00-1.1.26" fill="none"/></g></g><path d="M962 572.93a.8.8 0 00-.77.85.78.78 0 101.56 0 .81.81 0 00-.79-.85z" fill-rule="evenodd"/><path d="M961.73 573.33a.41.41 0 00-.4.44.42.42 0 00.4.44.44.44 0 000-.88z" fill="#e3e4e5" fill-rule="evenodd"/><path d="M964.13 581c-1.66.11-2.79 1.35-4.11 2a6 6 0 01-3.61.55 2.85 2.85 0 001.09 1.78 3 3 0 002.27-.15l1.92-.76a17.49 17.49 0 012.18-.74l1.44-2.31c.06-.35-.11-.31-.38-.36a4.46 4.46 0 00-.8-.01z" fill="#eac102" stroke="#000" stroke-width="1.504"/><path d="M998 780.82a482.56 482.56 0 0046.82-22.89 155 155 0 0030.59-22.06c19.39-17.66 27.93-33.49 31.26-64.8.44-4.16 1.18-17.85 1.5-32.1.58-26.18.61-120 0-120.63-.2-.19-1.9 1.34-2.7 1.89-2.48 1.7-10.5 6.55-15.91 8.52a171.15 171.15 0 01-25 6.51c-9.45 1.67-27.81 1.74-37.64.08-16.06-2.71-30-6.4-38.16-12.08l-6-4.17c-.82 129.86 0 128.67.29 267.77.07 0 2.76-1.17 4.8-1.89s5.39-2.16 5.49-2.21z" fill="#0c1c8d"/><path d="M1049.2 648.05l5.68-6.27-54.79-90.59-8.37-6.71 2.9 11.55z" fill="#f5f5f5" stroke="#000" stroke-width="1.505"/><path d="M1051.42 644l-58.1-96.94 58.38 96.61-.28.34z"/><g stroke="#000"><path d="M982.19 604.68c10.53-2 14.12 5.05 15.91 15.37.24 1.36.46 3.5.73 4.84l-7.2 20.11c-2.36 4.09-4.55 8.27-7.46 11.74-.21-5-1-7.22-2.1-12z" fill="#fff" stroke-width="2.3"/><g fill="#f5f5f5"><path d="M1051.16 643.78l5.55-4.53c.48 1.19-.22 1.69-.58 3.12-1 3.87 6.59 17.5 10.74 26.41.84 2.22 1.67 2.43-.3 4.43-1.76 2.22-4.26 1.75-5.56-1-4.51-8.05-9-21.56-12-20.91-1 .2-1.42 1.16-2 .11z" stroke-width="2.122"/><path d="M1040.15 650.73c1.58-2 3.73-1.72 4.81.58a5.34 5.34 0 01.27.7l4.51-5.66.53-4.59 2.85.36 7.36-9.22c1.58-1.94 3.72-1.69 4.8.6a8.08 8.08 0 01-.91 7.75c-1.58 2-3.74 1.73-4.82-.57a6 6 0 01-.26-.71l-4.5 5.64-.54 4.61-2.87-.34-7.32 9.17c-1.58 2-3.74 1.74-4.83-.56a8.1 8.1 0 01.92-7.76z" stroke-width="2.582"/><path d="M1062.72 632.67a2.22 2.22 0 012 1.5 6.54 6.54 0 01-.78 6.26c-1.32 1.65-3 1.39-3.9-.43a3.73 3.73 0 01-.2-.56c-.17-.51-.56-.7-.88-.42a.52.52 0 00-.1.11l-4.5 5.64a1.26 1.26 0 00-.25.67l-.41 3.66-2.29-.28a.54.54 0 00-.46.22l-7.31 9.17c-1.32 1.65-3.05 1.41-3.91-.4a6.48 6.48 0 01.79-6.24c1.32-1.65 3-1.42 3.89.4a4.2 4.2 0 01.2.56c.17.52.56.7.88.42l.1-.1 4.52-5.67a1.42 1.42 0 00.25-.69l.41-3.6 2.26.29a.54.54 0 00.46-.22l7.34-9.22h0a3.14 3.14 0 011-.86 2 2 0 01.81-.21z" stroke-width="1.153"/></g></g><path d="M1058.19 641.65l3.42-.13a.53.53 0 01.18 0 3 3 0 01.47.11 1.94 1.94 0 01.42.17 1.88 1.88 0 01.18.12 4.19 4.19 0 01.39.45 2.8 2.8 0 01.49 1 5.84 5.84 0 01.2.59c0 .16 0 .31.07.48a2.83 2.83 0 010 .29 6.26 6.26 0 010 .85.28.28 0 000 .09l2.17 1.37-.09.54.52.06a8.67 8.67 0 01-.21 3.51l-.1 1.61.75.41.18.8a1.39 1.39 0 01.1.27 2.22 2.22 0 01.11.56v.43a7.42 7.42 0 01-.14.82c0 .16-.06.31-.11.48a13.63 13.63 0 01-.59 1.67c.22.18-.27.09-.31.17l-.18 1.08c.13-.13.33-.37.38-.36a1.06 1.06 0 01.33.1h.12a1.43 1.43 0 01.24.19 1.22 1.22 0 01.21.41c0 .06.23.82.24.89a2.78 2.78 0 010 .5 9 9 0 01-.38 1.76c-.08.19-.16.36-.25.53-.08.17-.18.33-.26.49-.18.33-.32.63-.5.91a11.12 11.12 0 01-1.07 1.24l-.29.31-.09.09v.26l-.26-.12c-.59 1.18-2.38 1.89-2.77.18v-.18c0-.05 0 0 0 0a5.62 5.62 0 01-.13-1.3 4.44 4.44 0 01.41-1.39l.09-.65-1 .38a1.86 1.86 0 01-1.94-.76c0-.14-.08-.27-.11-.41a2.88 2.88 0 010-.88l.07-.44c.08-.36-.11-.44.08-.84v-.7l-.6-.76a1.5 1.5 0 01-.14-.74 6.1 6.1 0 01.28-1.6 1.09 1.09 0 00.25 0l-.43-.08-.46-.54-.23-1v-.31a6.77 6.77 0 01.2-2.1 1.27 1.27 0 01.06-.18l.69-1.92-.66-.23a3.25 3.25 0 01-1.52.33 1.3 1.3 0 01-1.11-.76c-.3 1.87 1.29-.33.27 2.61a14.16 14.16 0 00-.47 1.6l-.16 2.65a6.17 6.17 0 01.32.92 18.46 18.46 0 01.44 1.82 12.14 12.14 0 01.41 1.48l.09 1.29c.45 1.31 3.21 6.2 3.32 7.62-1.55 3.82-2.9 5.05-5.62 6.51a46.53 46.53 0 00-4.14 3.11c-1.69 1.19-2.87 2.47-4.42-1.36-1.64-2.54-2.21-10.17.58-15.71a2.34 2.34 0 001.17-1.54c0-4.08 2.38-7.87 3.23-10.59.06-.22.11-.42.18-.61a7 7 0 01.48-1 3.1 3.1 0 01.27-.4l.2-.2.17-.16a2.34 2.34 0 01.39-.25 2.19 2.19 0 01.59-.21c.26-.38.49-.75.68-1.09s.35-.62.49-.9.19-.25.28-.36.05-.15.17-.22l1-.37.29.06.14-.16h.35l2.09-2.79z" fill="#ec8e78"/><path d="M1062.87 642l.88 1.58.21 2.69-1.11 3.19-.83 2.66-.77 2-1 2-.79.71-.34-.38-.6.17-.28 1.06c.16 1 .79.15 1.34.07 1.41-.19 1.36-.64 1.87-1a8.26 8.26 0 002.1-3 9.69 9.69 0 002.33-6.56l.68 1.15v2.38l-.76 2.64-1.68 2.9-2.89 2.53-1.07.84-1.12.35-.17 1.21h1l1.29.42c1-.22 1.56-1.14 2.25-1.84a8.43 8.43 0 003.83-5.34v1.82l-.61 2-1.32 2.1-2 2.52-1.3.69-.41.78-.31 1.4.12.93.48-.75 1.29-.6a6.33 6.33 0 004.15-4.85l.06 1.61-.62 2.13-1.48 2.25c.07.06.11.35.18.29s-.06-.07.49 0c-.54 2.13-1.23 2.1-2.84 2.59-1 .28-1.62-.2-2.11-1.3-.65-1.14-.31-2.08-.34-3.1-.67-.34-2.79.88-2.2-3.27a5.39 5.39 0 01-.54-3.08l-.67-1.36a2.77 2.77 0 01-2.14.66l.67 2.85-.12 4-.88 3.24a2.16 2.16 0 00-1.66-.9 4.46 4.46 0 00-.18-2.81c1.75-2.3.88-5.27.8-8v-.64l1.09-3.06.48-2.26a4.49 4.49 0 001.92-.35 14.16 14.16 0 003.79-3.53l.66-.59-.15 1.35a10.9 10.9 0 01-3.64 3.42l.34.94-.73 2.39v1.1-.12c.5.68.83.22 1.08.23l.92-1.78a9.21 9.21 0 011.12-1.89c1.4-3.29 2.82-6.9 2.15-9.36zm-6.28 21.07l2.76 5.95.21.56-.41 1.45-.9 2.07-2 2.17-2.12 1.22-.95.24-1 1-1.6 1.09-.58.52h-.28l-1.74-2-.86-1.66c2.36-.3 5.52-2.11 5.81-4 .9.07 1.61 1.57 2.83-.75a13.27 13.27 0 00.85-7.81z" fill-opacity=".294"/><path d="M1058.31 641.47a5 5 0 012.18-.32 3.08 3.08 0 012.68.93 5.11 5.11 0 011.08 3.75 3.29 3.29 0 012.5 2.11c.49 1.49.08 2.83-.29 4.39 1.53 1.2 1.29 4.26.22 6.46a2.47 2.47 0 011.07 2.28 7.8 7.8 0 01-1.66 4.57 12.13 12.13 0 01-1.53 1.51c-1 1.67-3.09 1.19-3.12-.25-.43-.71-.1-2.22.28-3.16-.11.07-.19 0-.31 0a1.86 1.86 0 01-2.55-.58 2.33 2.33 0 010-1.75 3 3 0 01.14-1.41c-.06 0-.14 0-.15-.06v-.2c-.79-.58-.84-1.78-.5-2.93a2 2 0 01-.52-.47c-.84-1.55-.38-4.21.63-5.82a6 6 0 01-2.18.64 6.59 6.59 0 01-.31 1.34 17.68 17.68 0 00-.31 1.84 6.84 6.84 0 01-.71 1.84 14.78 14.78 0 011.11 3.2 15.54 15.54 0 01.09 2.44c.68 1.39 1.4 2.9 1.94 4.16.36.82.72 1.57 1 2.23s.14.67.23.8c.19.29.63.68.49 1.06a9.4 9.4 0 01-6.57 6.91c-1.21 1.3-2 1.62-2.88 2.46l-.81-.42c1.34-.47 2.11-1.54 3.48-2.73 2.77-1.25 4.84-1.95 6.26-6.7-1-2.31-2.5-5.62-3.18-7.31a11.48 11.48 0 01-1.52 5.92 16.08 16.08 0 001.08-6.81 16.7 16.7 0 00-.23-1.69 15.05 15.05 0 00-.85-3 1.23 1.23 0 00-.35-.39 1.82 1.82 0 01-.93-.78 1.31 1.31 0 001.1.11 3.94 3.94 0 00.65-1.58 16.26 16.26 0 01.47-1.58c1-2.94-.55-.76-.25-2.63a1.25 1.25 0 001.1.74 4.63 4.63 0 002.34-.77 6.58 6.58 0 001-.73 5.71 5.71 0 001.4-1.45 2.61 2.61 0 00.28-.48 3.88 3.88 0 00.25-1.27 1.91 1.91 0 01-2.71.54c-.11-.07-.13-.28-.2-.39a3.13 3.13 0 01-.13-1.37c-.38.13-.75.27-1.12.36h-.43c-.72 0-1.61-.39-2.28-.17a1 1 0 00-.28.16 2.19 2.19 0 00-.61.75c-.41.71-.73 1.29-1.13 1.91a2.28 2.28 0 00-1.66 1.18 7.54 7.54 0 00-.57 1.24c-.07.22-.06.52-.12.71-.85 2.71-2.89 6.2-3.12 10.24a1.19 1.19 0 01-.54 1l-.16-.55a.88.88 0 00.32-.66c.13-4.45 2.33-8 3-10.32a11.28 11.28 0 01.79-2 2.73 2.73 0 011.8-1.42c.21-.31.42-.64.57-.9a7 7 0 00.51-1 2 2 0 01.8-.79 4.61 4.61 0 012.57.05c.32 0 .65-.13.92-.19a4.52 4.52 0 00.89-.25 2.69 2.69 0 012.13-.68 1.71 1.71 0 011.12 1.82v.47a5.46 5.46 0 01-.2 1.22 5.11 5.11 0 01-1.79 2.47c-.34.24-.63.47-1 .73a11 11 0 00-1.17 2.83c-.55 1.82 0 3.93 1.11 3.29a3.13 3.13 0 01-.47-1.23c.52-2.22 2.26-3.48 2.69-1.33a7.6 7.6 0 00.5-1.36c.49-2.23 1.61-4.06 2-6.25a4.34 4.34 0 00-.73-3.58 3 3 0 00-2.63-.9 6.68 6.68 0 00-2.74.56l.6-.73h.06zm1.89 2.42a1.69 1.69 0 00-.36.12c-.34.17-.66.43-1 .57a2.32 2.32 0 00.16 1.42 1.82 1.82 0 002.73-.57 1.49 1.49 0 00-1-1.48.83.83 0 00-.44 0zm3.94 2.81c-.57 2.17-1.49 3.83-2.09 5.86a14.35 14.35 0 01-.75 2c-.31.91-1.26 2.53-1.77 2.36a.48.48 0 01-.2-.2 1.68 1.68 0 01-.64.12c-.32 1.09-.47 2.07.17 2.63a3.17 3.17 0 01.14-1.25c.52-.94 1.69-.66 2.37.19a11.2 11.2 0 003.82-4 13.5 13.5 0 001.26-3.77 4.19 4.19 0 00-.13-2.42 2.13 2.13 0 00-2.18-1.52zm-4 6.48a3.33 3.33 0 00-1.29 1.93 3.13 3.13 0 00.75 1.54 4.18 4.18 0 001.5-2.39c-.16-.8-.44-1.12-.77-1.11a.68.68 0 00-.19 0zm6.11-.23c-.14.41-.44 1.11-.63 1.51a9.7 9.7 0 01-4.19 4.55 2.74 2.74 0 01-2.08 1 1.46 1.46 0 00-.23 1.16 1.76 1.76 0 012.52 2.13c3.29-.76 7.56-8.71 4.62-10.37zm-6.42 5.14a.53.53 0 00-.18 0 .91.91 0 00-.37.42 2.67 2.67 0 00-.12 1.12 2.36 2.36 0 002-.88 1.57 1.57 0 00-1.37-.7zm6.59 1.26a15 15 0 01-3.19 3.8c-.51.29-.82.37-1.14.92a4.37 4.37 0 00-.52 2.5 2 2 0 012-1.42c.56 0 1 .37 1.11 1.25a6.82 6.82 0 002.72-5.24c0-1.17-.39-1.75-1-1.81zm-6.81 2.09a2.07 2.07 0 00-.43.1 2.56 2.56 0 00-.25 1.16 1.58 1.58 0 002.47.74c.3-1.69-.77-2.15-1.79-2zm3.47 4.19a2.19 2.19 0 00-.55.17c-.51.27-.91.72-.78 1.18.5 1.75 2.47.55 2.65-.28-.07-.64-.36-1.05-.68-1.11a1.44 1.44 0 00-.64 0z"/><path d="M1064.72 670.83c.25.52.72.6 1 .18a1.8 1.8 0 00.15-1.69c-.25-.52-.72-.6-1.05-.18a1.8 1.8 0 00-.15 1.69z" fill="#fee79b" stroke="#000" stroke-width="2.122"/><path d="M1001 625.45c3.76 3.44 3.22 16.14 7.53 22.12l-1.28 1.17c.68 2.08 1.38 4.14 2.07 6.17l.24.69a1.73 1.73 0 00-.24-.69 1.25 1.25 0 011.34.45c.58.84.52 2.11 0 3.62.47 1.38.93 2.73 1.37 4.09a2.11 2.11 0 012.84.95c1.29 2 1.71 8.3 2 13.57.18-.36.23-.53.33-.47s0 .21 0 .7a29.1 29.1 0 013.93-7.54 3.3 3.3 0 011.12-1.21l.18-.12h.1a.76.76 0 01.26-.08c1.21-.29 2.25 1.32 3.11 3.75 7.51-3.5 15.76-5 19.63-9.87.33-.78.75-1.25 1.28-1.2-2.34 4.2-.88 14 2.1 17.15l.73.61c.45.29.31.34.81.3-.59.21-.51.35-1 .24a51.56 51.56 0 00-5.38 3.63c-3.67 3-7 7.2-10.57 10.41-1.32 1.16-3.14 2.54-4.87 3.76-.28 4-1 7.31-2.28 7.84-2.24 1.21-6.15 0-8.21-1.09-1.71 1.87-4.48 1.86-7.68 2.24-.26.61-.48 1-.62.87s-.15-.41-.13-.93c-2.19-2.51-3.63-6.31-5.29-9.75-2-1.34-7-6.07-8-9.33-.46-1.1-.28-2.76.31-4.66-.89-1.52-1.73-3.12-2.56-4.78a1.51 1.51 0 01-1.85-.66c-.34-.64-.36-1.44.18-2.83-1.27-2.75-2.5-5.61-3.74-8.48a4.78 4.78 0 01-.93 2.31l-.14.15-.21.18-.22.17c-1.24.77-2.6-.22-3-2.2s.23-4.21 1.47-5a1.68 1.68 0 01.81-.26c.14-1.53-1.12-.52-3.06-3.88 7.69-9.41 10.49-21.69 14.93-33a3.26 3.26 0 012.6.85z" fill="#f5f5f5"/><path d="M1046.62 674.45l.26.31a10.66 10.66 0 002.07 3.92l.73.61c.45.29.31.33.81.29-.59.21-.51.36-1 .25a50.53 50.53 0 00-5.38 3.63c-3.68 3-7 7.2-10.57 10.41-1.32 1.16-3.14 2.53-4.87 3.75-.28 4-1 7.32-2.28 7.85-2.24 1.21-6.15 0-8.21-1.1-1.72 1.87-4.48 1.87-7.68 2.24-.26.62-.48.95-.62.87s-.15-.4-.13-.92c-2.19-2.51-3.64-6.31-5.29-9.75-2-1.35-7-6.09-8-9.35-.46-1.1-.27-2.75.31-4.65q-1.32-2.29-2.56-4.79a1.5 1.5 0 01-1.85-.66c-.34-.64-.35-1.43.18-2.82-1.27-2.75-2.51-5.62-3.74-8.49a4.74 4.74 0 01-.93 2.31l-.14.15-.21.2-.22.17c-1.24.77-2.6-.23-3-2.21s.21-4.21 1.46-5a1.65 1.65 0 01.81-.24c.14-1.54-1.12-.53-3.07-3.89.4-.49-.06.06.31-.44h.15c.2 1.07 5.17 5.52 6.66 4.52l.65-.7c.49.36 1.08.79 1.87 1.4l2.7-.85c.9.46 2.19 0 2.66 1.78-.07 0-.53.27-.6.2-1.19-1.18-3.36.56-3.26.91 1 3.49 2.39 5.25 4.33 7.84-.62 1.6-.27 2.41 1 2.47a34.14 34.14 0 004.46 9c-.75 1.83.12 2.07 1.29 2 .47 4.89 2.34 6.64 3.1 7.4.6 2 .89 4.23 2.64 4.91.34.56.54 1.64 1.35.52 1.29.85 2.48.34 3.64-.57 1.84 1.51 3.54 1.54 5.08-.15 1.4.1.82-2.13.58-4 4.34 4.61 15.81-6.72 22.9-15.06.77-.61.86-1.88 1-3.07.94 1 1-.47.65-1.35z" fill="#c3c7c8"/><path d="M1018 704.15l.42.41-.09.11c-1.82 2-4.66 2-7.87 2.4 0 0 0-.09-.08-.09l.23-.75c.05 0 0 .29.07.28 3-.35 5.68-.72 7.32-2.36zm-13.23-7.58c1.62 3.37 2.89 7.23 5 9.67 0 0 .1-.08.12 0l-.15.53c-2.27-2.61-3.77-6.4-5.45-9.85z"/><path d="M1021.52 669.44l-.6 1.64c-.2.31-.41.66-.62 1a36 36 0 00-3.09 6.28c-.05 0 0-.27 0-.19v-.07l-.09-.19.1-.36a30.46 30.46 0 012.74-5.95 14.32 14.32 0 011.53-2.17zm-4.75 12.33c-.8 7.1-.69 19.06 1.65 22.38 1.6 1.33 4.88 1.83 7 1.28l1 .37c-2.36 1.28-6.64.34-8.35-1.1h-.09v-.17c-2.39-4.39-2.43-15-1.45-21.92z"/><path d="M1024.26 669a4.69 4.69 0 01.76 1 13.82 13.82 0 011.14 2.51l-.41.25a13.27 13.27 0 00-1-2.27 3.56 3.56 0 00-.9-1 1.14 1.14 0 00-1-.22c-.91.22-1.58 1.11-2.07 2.49a21.89 21.89 0 00-1 5.36 73.64 73.64 0 00.34 12.89 51.58 51.58 0 002.29 10.53 13.69 13.69 0 001.84 3.76c.66.84 1.34 1.2 2 .91s1-1.08 1.37-2.42a28 28 0 00.7-4.66c0-.16.13.32.17-.17l.3-.27a29.44 29.44 0 01-.78 5.37c-.38 1.45-.93 2.52-1.67 2.82a2.36 2.36 0 01-2.64-1 14.29 14.29 0 01-1.95-3.94 53.85 53.85 0 01-2.35-10.74 75.07 75.07 0 01-.33-13.11 22 22 0 011.27-5.66c.54-1.51 1.34-2.59 2.4-2.84a1.4 1.4 0 011.16.25l.28.22z"/><path d="M1046.16 661.52l-.09.38-.1-.08a14.52 14.52 0 00-1.17 3.71v-.11l.47-2c-2.33 2.67-5.65 4.48-9.65 6-4.29 1.63-9.28 3-13.46 5.59-.27.17-.57.32-.84.49l-.22-.55c.34-.23.57-.38.92-.59 4.23-2.62 9-4.16 13.3-5.78s8.06-3.36 10.24-6.24l.6-.79zm3.84 17.83l.5.23-.47.28a53.7 53.7 0 00-6 3.94c-3.65 3-6.82 6.85-10.36 10.37-2.81 2.79-8.13 6.52-9.58 7h-.13l.07-.71c2.66-1.18 6.29-4 9.44-6.84 3.57-3.23 6.56-7.44 10.26-10.49a37.57 37.57 0 015.23-3.27c.22-.12.29.2.4.13l.45-.14.24-.44zm-5.19-9.08c-7.26 2.58-13.68 9.14-20.59 13.68-.11.07-.24 0-.28-.19s.53-.39.64-.46c6.87-4.51 12.82-11.12 20.19-13.72zM1042 674a1.75 1.75 0 01.61 1.06 2.52 2.52 0 01-.73 2.49c-.6.38-1.3-.14-1.5-1.11a2.54 2.54 0 01.72-2.5.78.78 0 01.9.06zm-.19.64a.5.5 0 00-.57 0 1.73 1.73 0 00-.47 1.6c.12.58.61.94 1 .71a1.72 1.72 0 00.47-1.6 1.14 1.14 0 00-.4-.67zm-9.22 5.65a1.78 1.78 0 01.62 1.06 2.52 2.52 0 01-.74 2.49c-.6.37-1.3-.15-1.51-1.11a2.51 2.51 0 01.74-2.49.75.75 0 01.89 0zm-.19.64a.48.48 0 00-.56 0 1.72 1.72 0 00-.48 1.58c.12.57.61.92 1 .69a1.68 1.68 0 00.46-1.58 1.1 1.1 0 00-.4-.65z"/><path d="M1023.45 670.82a1.92 1.92 0 01.71 1.21c-.64-.93-1.08-1.06-1.71-.28a3.76 3.76 0 00-.48 1 19 19 0 00-.8 4.5 71.54 71.54 0 00.31 12.23 50 50 0 002.15 9.83 13.13 13.13 0 001.53 3.15c.73 1 1.4.39 1.62-1.11a3.07 3.07 0 01-.65 2.28c-.47.28-.93-.2-1.25-.61a13.17 13.17 0 01-1.63-3.35 50.35 50.35 0 01-2.19-10 71.75 71.75 0 01-.31-12.43 19.3 19.3 0 01.85-4.76 3.76 3.76 0 01.6-1.21c.43-.49.84-.62 1.25-.39zm-8.45-6.49v-.58c.72 1.1 1.09 3.26 1.38 5.79a45.67 45.67 0 01.55 7.84c0 .1-.1.11-.1.21l-.05.1v.06l-.1.33c.18-2.8-.45-5.92-.72-8.37a27.81 27.81 0 00-.61-3.6 7.68 7.68 0 00-.29-1.38l-.08-.37zm.67 17.19c-2.52 6.66-7.33 13.86-11.14 15.59l-.09.09-.09-.07a29.23 29.23 0 01-4.43-4 15.78 15.78 0 01-3.68-5.53l-.06-.26.55.17a16.52 16.52 0 003.43 5 29.24 29.24 0 004.26 3.85c3.43-1.77 8.48-8.55 11.12-15l.13.06z"/><path d="M1017.26 676.79c.27 1.71-.47 5-.94 7l-4.32 18.5c-.36 1.58-1.25 4.94-2.26 5.52-.59-1.71.25-5 .62-6.46l4.75-18.5c.47-1.82 1.2-5.16 2.11-6.06zm-.1.3a37.85 37.85 0 00-1.6 6l-4.75 18.5a21.39 21.39 0 00-1 5.95 24.7 24.7 0 001.8-5.47l4.28-18.46a37.3 37.3 0 001.27-6.52zm-2.83-14.16a2.4 2.4 0 01.7.85l.16.3a8.51 8.51 0 01.52 4.46 20.39 20.39 0 01-1.66 5.25 44.9 44.9 0 01-5.9 9.35 23.92 23.92 0 01-6.37 5.53 6 6 0 01-3.15.88 2.92 2.92 0 01-2.35-1.91 6.55 6.55 0 010-3.84c.09-.39.2-.8.33-1.21l.33.46c-.1.33-.19.65-.26 1a5.52 5.52 0 000 3.22 2.11 2.11 0 001.9 1.46 5.67 5.67 0 003-.86 23.22 23.22 0 006.24-5.4 44 44 0 005.81-9.2 19.46 19.46 0 001.59-5 6.53 6.53 0 00-.46-4 1.84 1.84 0 00-.8-.83 2 2 0 00-1.12-.16 3.3 3.3 0 00-.65.14l-.22-.64a4 4 0 01.86-.2 2.17 2.17 0 011.27.21 2.61 2.61 0 01.28.17z"/><path d="M1007.4 648.61c.79 2.4 1.52 4.77 2.33 7.12l-.16.74c-.84-2.45-1.69-4.93-2.52-7.45zm3.38 10a66.38 66.38 0 013.27 10.09v.27a20 20 0 01-1.21 3.43 43.71 43.71 0 01-5.61 8.87 22.64 22.64 0 01-6 5.17 6.49 6.49 0 01-1.95.73h-.09l-.07-.09a66.7 66.7 0 01-5.22-9c-.06-.11.17.12.12 0l.3.12.08-.24a67.12 67.12 0 004.94 8.5 6.94 6.94 0 001.77-.67 22.48 22.48 0 005.83-5 43 43 0 005.51-8.72 19.08 19.08 0 001.13-3.16 55.14 55.14 0 00-3.08-9.48l.24-.76zm-21.92 7c1.4 3.27 2.81 6.51 4.27 9.61l-.61-.48-.07.21c-1.28-2.77-2.53-5.64-3.77-8.53z"/><path d="M1013.57 664.83a.86.86 0 01.4.42 3 3 0 01.36 1.16 5.89 5.89 0 01-.07 1.53 18 18 0 01-1.42 4.44 43.44 43.44 0 01-5.61 8.87 22.91 22.91 0 01-6 5.16 5.26 5.26 0 01-2.66.78 1.47 1.47 0 01-.78-.23 1.52 1.52 0 01-.42-.62.79.79 0 010-.22 3 3 0 010-.34 6.55 6.55 0 01.18-1.25l.42.22a5.24 5.24 0 00-.17 1 .39.39 0 000 .17.8.8 0 00.25.36 1.12 1.12 0 00.61.19 5.17 5.17 0 002.5-.75 22.48 22.48 0 005.83-5 42.75 42.75 0 005.51-8.72 17.17 17.17 0 001.34-4.18 5.54 5.54 0 00.08-1.26 2.06 2.06 0 00-.27-.85.36.36 0 00-.2-.2 1.1 1.1 0 00-.59 0v-.7a1.38 1.38 0 01.74.07zm33.56-3.3l-.12.23c-1.34 2.4-1.38 6.93-.52 10.79a15.7 15.7 0 001.88 4.92c.79 1.24 1.42 1.82 2.43 1.72.28 1-1.16 1-1.62.91a3.93 3.93 0 01-1.93-1.47 15.74 15.74 0 01-2.32-6 23.94 23.94 0 01-.21-7.25 9 9 0 01.83-3c.48-.82 1-1.38 1.58-.78zm-.69.47c-.22 0-.57.31-.76.73a10.48 10.48 0 00-.68 2.75 22.92 22.92 0 00.2 6.9 15.81 15.81 0 002.19 5.74c.59.82 1.64 1.93 2.37 1.43-1.79-.89-3.29-4.24-3.85-6.69-.83-3.73-.67-8.07.53-10.86zm-35.19-5.36a8.72 8.72 0 01-.11 2.26 18.94 18.94 0 01-1.88 4.36 55.21 55.21 0 01-6 8.45 34.71 34.71 0 01-6.07 5.59 8.76 8.76 0 01-2.92 1.43 2 2 0 01-2.1-1.12 2.59 2.59 0 01-.29-1.38 6.09 6.09 0 01.44-1.86c.06-.16.21-.22.3-.13 1.27 1.19 2.64.34 3.85-.49a32.16 32.16 0 005.6-5.15 55.17 55.17 0 005.74-8 15.55 15.55 0 001.43-3.4 3.66 3.66 0 00.08-1.19 1.82 1.82 0 00-.21-.79c-.12-.17 0-.58.13-.61.74-.33 1.88.33 2 2.07zm-1.65-1.38a2.63 2.63 0 01.17.6 5.06 5.06 0 01-.1 1.54 16.13 16.13 0 01-1.53 3.61 54.81 54.81 0 01-5.81 8.14 32.22 32.22 0 01-5.69 5.25c-1.16.79-2.62 1.64-4 .56a5.48 5.48 0 00-.32 1.28 1.71 1.71 0 00.2.9 1.34 1.34 0 001.62.56 8.6 8.6 0 002.8-1.37 34.17 34.17 0 006-5.53 55.91 55.91 0 005.91-8.35 18.29 18.29 0 001.8-4.14 5.25 5.25 0 00.19-1.57c-.14-1.12-.56-1.48-1.22-1.48zm-7.37-28.57a24.32 24.32 0 012 6.36c1.06 5 1.91 10.8 4.39 14.25l.24.32-.29.25c-4.28 3.8-8.08 8.16-10 15l-.14.47-.21-.37c-2.69-2.37-7 .72-9.26 3.09a4.36 4.36 0 01-1.65 3.17c-1.35.84-2.83-.23-3.3-2.39s.25-4.6 1.6-5.43a1.67 1.67 0 01.63-.18v-.26a11.93 11.93 0 01-3.09-3.4l.2-.23c8.27-9.07 10.92-23 15.05-33.36a4.69 4.69 0 013.88 2.7zm-3.54-1.5c-4.35 11.16-7.78 25.14-14.93 32.42a7.06 7.06 0 002.06 2.31 2.47 2.47 0 01.66.51 1.72 1.72 0 01.22 1.1v.3h-.18a1.61 1.61 0 00-.73.24c-1.13.7-1.72 2.73-1.33 4.54s1.63 2.69 2.76 2a3.78 3.78 0 001.43-2.83l.07-.16v-.09l.09-.07c1.91-1.93 5.93-6.15 9.52-3.17 2-6.73 5.72-11 9.85-14.77-2.45-3.66-3.29-9.43-4.31-14.2a23.41 23.41 0 00-1.92-6.15 3.22 3.22 0 00-3.22-2z"/><path d="M1006.48 646.8a34.62 34.62 0 00-8.55 12.91 9.33 9.33 0 00-9.09 4.51.16.16 0 01-.22 0 .51.51 0 010-.61c1-2.5 5.61-5.44 9.13-4.72.22-1.51 5.48-11.46 8.71-12.09z"/><path d="M988.83 663.62a.34.34 0 01.09.19 6.36 6.36 0 01.13 1.79l-.45.2a5.49 5.49 0 00-.08-1.76c-.06-.26.16-.56.31-.42zm-2 .61a1 1 0 01.34.61 1.38 1.38 0 01-.4 1.39c-.35.21-.73-.06-.85-.61a1.38 1.38 0 01.41-1.4.44.44 0 01.5 0zm-.06.86c0-.16-.2-.3-.31-.24a.61.61 0 00-.14.51c0 .17.21.29.31.23a.59.59 0 00.14-.5z"/><path d="M1023.33 671l.69.6a4.87 4.87 0 01.35 1.75l-1.42.83-1.67.9.08-1.52.63-1.68.66-.87zm-9.68-5.65l.39.94-.08 1.83s-.11.41-.15.33-.55-1.81-.55-1.81l-.36-1.53.75.24z" fill-opacity=".294"/><path d="M1016 652.33c1.34 4.1.22 9.2-1.49 12.71-.64-.79-1.31-1.2-2.13-.17a42.34 42.34 0 003.62-12.54zm15.51 14.45a16.29 16.29 0 01.9 8.54c-.65-.37-.89-1.06-1.72-.75a28 28 0 00.86-7.79zm-4.23-2.19a24.9 24.9 0 01-.89 5.37 12.74 12.74 0 01-2.79 5.28l-.15.17c-.37-.76-.87-1.28-1.69-1.17a5.3 5.3 0 011.24-1.1 8.26 8.26 0 002.81-3.69 21.24 21.24 0 001.51-4.86zm-21.19-10c-.58 4-1 8.33-2.2 12.08-.37-.45-.48-1.45-1.32-.87 1.65-3.34 2.54-7.42 3.56-11.23zm3.94 4.36c-.31 3.82-2.16 6.64-3 10.15-.07.36-.13.72-.17 1.08-.64-.73-1.3-.18-2 1a15.2 15.2 0 011.35-4.41c1.27-2.6 3-4.65 3.75-7.86zm9.2 10.89a61.56 61.56 0 00-1.71 6.27c-.31-.58-.61-1.23-1.31-.49a13.3 13.3 0 013.06-5.8zm13.77 15.24c-1 2-1.5 5.14-2.07 7.43-.45-1.16-.44-2.46-1.62-2.54 1.08-2 2.08-4.11 3.69-4.89zm-36.5-16.67a22.82 22.82 0 01.45 6.06c-1.1-.34-2.2.16-3.29 1.64a25.79 25.79 0 012.87-7.7zm-7.27 3.12a8.38 8.38 0 011.14 5.66c-.63-1-1.19-.64-1.7.46a17.18 17.18 0 00.59-6.12zm-6.91 3.7a13.87 13.87 0 012 6c-1.21-.25-1.69.78-2 2a11.38 11.38 0 01-.36-3c.08-1.82-.14-3.23.45-4.94zm-2.46 7.42a15.74 15.74 0 001 5.37 5.37 5.37 0 00-.48 3.69c-1.48-3.1-2.21-6.71-.49-9.06z" fill="none"/><g fill="#ececec" stroke="#000" stroke-width="1.132"><path d="M1071.57 671.06c-1.74-3.47-5.21-4.27-7.73-1.78s-3.17 7.31-1.43 10.78 5.2 4.26 7.73 1.78 3.17-7.32 1.43-10.78z"/><path d="M1068.92 673.65c-.73-1.46-2.19-1.8-3.26-.75a4.14 4.14 0 00-.6 4.55c.73 1.47 2.19 1.8 3.26.75a4.14 4.14 0 00.6-4.55z"/></g><path d="M858.05 638.68c1 35.27 2.61 63.19 20.63 84.85 21.72 26.08 57.89 44.91 104.42 63.41 46.53-18.5 82.7-37.33 104.42-63.41 18-21.66 20-49.36 20.63-84.85.62-36.84.66-83.66 0-120.5-38.7 29.19-103.07 19.32-125.37.85-30.9 21.12-89 29.32-124.73-1.42-.75 36.84-1 84.24 0 121.07z" fill="none" stroke="#000" stroke-width=".2"/><path d="M958 168.05l.27-.41.31.46z" fill="#806600" stroke="#806600" stroke-miterlimit="1.142" stroke-width=".286"/><g fill="#f3ae00"><path d="M1015.92 310.65c-6.84 1-6.93 1.1-9 1-1-.06-2.16-.11-2.29-.13a4.26 4.26 0 00-.74 0 3.41 3.41 0 01-.9-.08c-.07 0 4.57-26.87 10.08-59.29l10-58.87-.81-1.19a7.58 7.58 0 00-3.3-3 7.47 7.47 0 00-1-.37 9.64 9.64 0 00-1.16-.2c-.42-.05-.83-.05-1.3-.06s-1 0-1.48 0h-.73l.42-.66a3.47 3.47 0 011.7-1.42 61.35 61.35 0 017.56 0 22.33 22.33 0 017.78 2l2.13.91.63 1.28c1 2 1.43 2.8 1.12 4.26-.13.65-2.3 25.66-5.23 55.7s-5.38 55.6-5.5 56.83c-.18 2 0 2.4-.29 2.45s-3.74.25-7.69.84zm-75.3-111.4c1.44-3.49 4.89-10.25 6.79-14.12.92-2.09 2-4.15 3-6.2.11.06.34.16.43.22l-4.85 10c-4.61 9.51-4.7 10.08-4.77 10.09s-.43.02-.6.01z"/><path d="M984.55 334.31c-2.11 0-2.62-.49-5.53-3.53l-.44-.35-.31.52c-.8 1.3-3.26 2.06-5.12 1.95-2-.13-4.08-2.56-4.33-4.35a3.94 3.94 0 014-4.39 4.91 4.91 0 013.39 1.91c.55.8.64 1.1.38 1.71a2.76 2.76 0 01-1 1.08 3 3 0 01-2.25.4c-1.18-.14-1.45-.22-1.37.13s1.46.29 2.38.24a3.29 3.29 0 002.61-1.55c.39-.84-.78-2.69-.85-2.73a48 48 0 01-4-4.15c-2.25-2.39-5.28-5.51-8.43-8.91l-11.42-12.37-1.25.31a2 2 0 01-2.44-.9 2.31 2.31 0 01.23-1.19c.45-.87.46-.72-.33-1.31s-.8-1-.33-1.87c.22-.42.42-.87.31-1a33.31 33.31 0 01-2.62-3.59 127.56 127.56 0 01-10-21.91c-2.22-6-3.78-16.37-4.24-24.13a79.52 79.52 0 017.34-38.22c.34-.69.76-1.34.74-1.42s-.39-.26-.68-.49c-.62-.5-1-1.1-.61-1.53s.1-1.14-.12-1.13h-.59l.31-.86c.24-.67 1.23-.86 3-1 .65 0 .56-.16 5.27-10 2.63-5.49 5-10.31 5-10.35s3.36 1.83 6.88 4l6.52 4.1-1.67 2.36c-11.8 16.64-18.4 37.79-16.54 55.64a70.84 70.84 0 004.1 16.61c3.66 9.26 9 17.43 18.82 30l2.52 3 5.52 3.89c3.06 2.15 6.49 4.58 7.67 5.46l2.27 1.67-1.34 2.53c-4.55 8.62-6.09 15.89-5.83 19.88.18 2.76 1.41 4.14 3.69 4.5 4.93.79 12-4.77 21.39-17.16 1.1-1.45 2.88-4 2.94-3.95s.69-.21-.06 1a95.82 95.82 0 01-5.93 8.34 65.11 65.11 0 01-6 6.68c-2 1.89-5.07 4.44-5.75 4.49-1.29 1.3-4.83 1.92-5.83 1.92z"/><path d="M979.63 300.21c-4.07-2.91-7.86-5.63-7.89-5.69S977.79 279 985 260c11.62-30.7 13.92-36.57 20.44-52.61 4-9.93 7.43-18.39 7.49-18.51.53-1.2 6.53-.12 6.84.93 0 .14-32.32 115.55-32.51 115.85 0 .07-3.54-2.57-7.61-5.48zm-6.57 23.71l-3-3.13c-3.5-3.62-6-6.27-8.85-9.31s-5.88-6.63-8.24-9.33l-1.51-1.61.41-.13s.28-.18.46.11l10.89 11.69c5.44 5.84 11 11.82 11 11.84-.14 0-1-.17-1.16-.13zm11.85 8.87c-2.2.15-3.41-1-4.19-2.85-1.38-3.35.14-10.33 4.17-18.69a55.86 55.86 0 012.77-5s3.54 1.2 7.65 2.72l7.42 2.75 2.4.15c1.23.08 2.32.11 2.33.14 0 .18-5.36 7.23-7.35 9.57-6 7.08-10.64 10.84-14.22 11.08z"/></g><path d="M995.17 308.55c-4-1.43-7.52-2.52-7.52-2.61S1019.86 190.22 1020 190s1.18 1 1.94 2.29l.74 1.07-9.95 58.76c-5.47 32.33-10 59.06-10 59.1s-3.58-1.22-7.56-2.67z" fill="#c37b24"/><path d="M1030.58 187.67a27.49 27.49 0 00-12.18-1.89l-2.62.09.67-2c.33-1 .69-1.9.71-1.93a42.46 42.46 0 014.72-.19c.75 0 2 .09 2.75.17a38.48 38.48 0 016.13 1.47c.1.17 1.84 5.17 1.82 5.21s-.73-.39-1.55-.74z" fill="#fc0"/><path d="M943.75 174.67l-.58-1.95L955.92 159l1.59 1" fill="#f3ae00" stroke="#c37b24" stroke-miterlimit="1.142" stroke-width=".514"/><g fill="none"><path d="M986.05 185.61a10 10 0 00-2.25-1.48 6.31 6.31 0 00-2.25-.43 7.35 7.35 0 00-3.47 1.15c-.28.15-.54.29-.6.31s-1.31-.53-2.78-1.16l-2.7-1.16-.08-.62a6.51 6.51 0 00-.61-2.05 4.33 4.33 0 00-2.5-2 8.2 8.2 0 00-3.71.07 2.15 2.15 0 01-.64.08c-.05 0-.85-.42-1.77-.89a6.37 6.37 0 01-1.72-1c0-.09-.1-.56-.18-1.07-.33-2.17-.91-2.92-2.93-3.81-.41-.17-.76-.33-.78-.35s.63-.87.73-.81.41.23.8.47a9 9 0 002.81 1.12 6 6 0 003.22-.48c.27-.12.3-.1 1.7.85l1.41.94v.79a3.51 3.51 0 001.27 3 5.16 5.16 0 002.33 1 11.31 11.31 0 003-.16l.47-.14 1.91.83c1 .47 2 .88 2 .92a1.07 1.07 0 01.18.4 5.1 5.1 0 001.28 2 4.58 4.58 0 001.06.61 4.87 4.87 0 004.74-.94l.47-.42 2.38-.56 2.39-.54.59.22a5.34 5.34 0 001.2.32 1.79 1.79 0 01.61.13.89.89 0 01-.17.33 7.31 7.31 0 00-.69 2l-.13.7-3 1-3.16 1.22a1.69 1.69 0 01-.43-.34z"/><path d="M985.76 186.87a5.17 5.17 0 00-2.27-1.83 3.81 3.81 0 00-1.75-.31 4.79 4.79 0 00-1.66.29 6 6 0 00-1.93 1.1l-.28.23-3.45-1.42-3.42-1.39v-.24a6.89 6.89 0 00-.11-1.63A3.41 3.41 0 00968 179a2.68 2.68 0 00-.92 0 5 5 0 00-2.19.57l-.29.12-2.32-1.14-2.28-1.2v-.23c0-2.07 0-2.41-.49-3.16-.53-.9-1.57-1.52-3.37-2-.31-.11-.56-.17-.58-.19s2.17-2.73 2.3-2.88c0 0 .44.34.95.78 1.62 1.36 2.16 1.62 3.25 1.55a7 7 0 002.3-.71l.7-.3 2 1.3c1.84 1.2 2 1.31 2 1.4a4 4 0 00-.14 1.38 2.54 2.54 0 00.39 1.51 3.29 3.29 0 001.47 1.22 3.6 3.6 0 001.78.28 3.44 3.44 0 001.12-.1 4.33 4.33 0 001.16-.47c.14-.12.16-.09.27-.06s1.12.51 2.32 1.06l2.18 1 .07.43a3.32 3.32 0 002.42 3 3.53 3.53 0 001.9-.22 4.62 4.62 0 001.65-1.27l.23-.26 2.73-.61 2.74-.58.19.08a4.84 4.84 0 002.64.58 3.56 3.56 0 001.4-.34 3.06 3.06 0 001.7-2 4.24 4.24 0 00.12-1 .18.18 0 010-.15s4.25-3 4.44-3.06a1.91 1.91 0 01.63.06 4.07 4.07 0 002.49-.18v.32a9.17 9.17 0 00.36 1.87l.18.78s-1.31 1-2.91 2.19l-2.92 2.14-.47-.13a4.53 4.53 0 01-.6-.16 7.13 7.13 0 00-2.3 0 3 3 0 00-2.17 1.83 7.21 7.21 0 00-.45 2.34v.21l-.27.08c-.53.21-7.33 2.54-7.4 2.56s-.13-.06-.26-.24zm3.92-1.57l3.33-1.18a2.56 2.56 0 00.14-.59 7.25 7.25 0 01.78-2.36 5.3 5.3 0 01.45-.54l.31-.33h-.32a5.92 5.92 0 01-2.81-.54l-.21-.13-2.62.61c-2.22.49-2.64.59-2.69.69a6.53 6.53 0 01-.85.74 4.44 4.44 0 01-1.44.61 4.32 4.32 0 01-1.92 0 2.85 2.85 0 01-1.3-.67 3.87 3.87 0 01-1.24-1.94 4.31 4.31 0 00-.18-.46s-1-.48-2.17-1l-2.11-.93-.39.12a6.65 6.65 0 01-1.92.25 6.72 6.72 0 01-1.3-.06 3.46 3.46 0 01-3-4.09c0-.21.06-.42.06-.45s-3.28-2.28-3.36-2.29l-.47.22a5 5 0 01-3 .46 8.84 8.84 0 01-3.33-1.48c-.43-.28-.57-.34-.6-.3l-.64.81-.6.78 1 .4a6.33 6.33 0 012 1.1c.64.59.93 1.4 1.18 3.24a6.47 6.47 0 00.12.73c.09.07 3.85 2 3.9 2a1.93 1.93 0 00.58-.13 7.13 7.13 0 013.85 0c1.52.56 2.35 1.78 2.57 3.8l.07.66 3 1.29 3 1.28.24-.16a7.29 7.29 0 013.19-1.36 5.12 5.12 0 012.56.31 8.59 8.59 0 012.38 1.6 3.2 3.2 0 00.43.37s1.52-.51 3.33-1.15zm12.61-7.39c1.49-1.06 2.7-1.94 2.7-2a7.76 7.76 0 00-.23-.77 4.39 4.39 0 01-.25-1v-.29h-.81a2.38 2.38 0 01-1.21-.1 1.06 1.06 0 00-.47-.08s-1 .65-2.07 1.46-2 1.41-2.05 1.44a4.24 4.24 0 00-.12.41 9.77 9.77 0 01-.73 2l-.31.6h1.02a2.26 2.26 0 01.83.13 2.5 2.5 0 01.65.24 1 1 0 00.32.07s1.26-.89 2.73-2zm4.86-3.65a1.06 1.06 0 01-.52-1.81 1.34 1.34 0 011.75 0 1.1 1.1 0 01.41.76 1.24 1.24 0 01-.68 1 1.56 1.56 0 01-1 .06zm-54.26 21.39a2 2 0 00-.42-.05 4.77 4.77 0 01-2.65-1.31 4.46 4.46 0 01-.84-1.39 4.18 4.18 0 01-.05-1.65 3.56 3.56 0 011-1.66 4.8 4.8 0 014.32-1 3.5 3.5 0 010 7 8.93 8.93 0 01-1.34.12z"/><path d="M952.81 197.36c-3.38-.15-6-2.78-5.74-5.73a5.31 5.31 0 013.24-4.33 6.12 6.12 0 012.65-.59 6.42 6.42 0 013.27.73c.22.12.42.22.45.25s.59 2.14.59 2.29a2.83 2.83 0 01-.25-.27 5.36 5.36 0 00-7.41-.42 3.92 3.92 0 00-.81 1 3.55 3.55 0 00-.24 2.82 4.13 4.13 0 00.94 1.46 4.82 4.82 0 002.6 1.37 4 4 0 001.17.06 3.86 3.86 0 001.26-.13 4.32 4.32 0 003.3-3.1c0-.18.06-.25.09-.2s.12.53.25 1.08l.25 1-.12.14a5.69 5.69 0 01-1.63 1.53 6.59 6.59 0 01-3.88 1zm6.79-8.95c-.63-2.52-1.12-4.57-1.12-4.57l1 .62 1 .62.72 2.9c.4 1.58.72 2.93.71 3a5.38 5.38 0 01-.5.85l-.63.92a1 1 0 01-.13.21s-.51-2-1.12-4.54zm24.17-.02a8.39 8.39 0 01-1.47-.08h.12a1.83 1.83 0 00.81-.45 1.39 1.39 0 00.46-.8 1.5 1.5 0 00-1.12-1.67 1.81 1.81 0 00-.78-.09 1.51 1.51 0 00-1.37 2.23 2 2 0 00.64.61l.16.08h-.16l-1.44-.23a38.69 38.69 0 01-5.69-1.65 4 4 0 01-1.17-.5 2.26 2.26 0 00-.74-.3 20.31 20.31 0 01-2.89-1.29c-1-.5-1-.48-1.1-.69a1.48 1.48 0 00-1.36-.74h-.32L965 182a21.08 21.08 0 01-2.81-1.65 1.75 1.75 0 00-.88-.56c-.22 0-.32-.1-1.22-.69-1.35-.87-2.77-1.86-4.18-2.95l-.6-.45c-.07 0-.11 0-1.31.5-.69.27-1.3.55-1.37.56l-.12.06.83.57a6.68 6.68 0 01.91.7l.14.21a7.68 7.68 0 01.41 1.48l.34 1.41-10.85-6.63s12.34-13 12.37-13 1.23.86 4.18 3c2.12 1.57 4.86 3.56 5.9 4.32a87.59 87.59 0 0011.11 6.95 28.8 28.8 0 004.43 1.81 13.73 13.73 0 003.47.34h1v1.69l-1.26.25s-.11.11-.18.22a4.18 4.18 0 01-1.89 1.41 3.11 3.11 0 01-1.28.08 2.26 2.26 0 01-1.55-1.14 4.7 4.7 0 01-.59-2v-.14l-2.56-1.15-2.56-1.15-.22.13a3.81 3.81 0 01-2.32.64 2.78 2.78 0 01-3-2.11 4.59 4.59 0 01.14-1.9c0-.16.06-.25 0-.27s-4.41-2.9-4.45-2.92-.36.14-.79.32a7.44 7.44 0 01-2.23.76 2.42 2.42 0 01-1.7-.44c-.19-.13-.7-.52-1.35-1.07-.83-.69-1.07-.9-1.1-.86s-.06 0-.13 0h-.12s-.69.86-1.5 1.86L954.7 172l.85.25a9.31 9.31 0 012.12.73 2.93 2.93 0 011.73 2.12 8 8 0 01.06 2v.5l5.11 2.53s.16 0 .41-.15a6.8 6.8 0 011.36-.5 4.74 4.74 0 011.44-.09 3 3 0 012.63 2.48 6.43 6.43 0 01.05 1.65v.3s1.7.7 3.76 1.52l3.77 1.56.32-.28a5.21 5.21 0 013.93-1.43 4.46 4.46 0 013.33 2.24c.09.12.18.25.19.25l1.22-.42s.06 0 .06.42a3.05 3.05 0 010 .47.85.85 0 00-.31 0 11.2 11.2 0 01-1.52.16 3.59 3.59 0 01-.54 0h-.88zm-15.69-5.66a1.74 1.74 0 001.36-.86 1.35 1.35 0 000-1.36 1.9 1.9 0 00-.79-.67 1.75 1.75 0 00-2.49 1.22 1.25 1.25 0 00.21.89 1.84 1.84 0 001.46.81 1.32 1.32 0 00.3 0zm15-1.39a2.06 2.06 0 00.8-.42 1.37 1.37 0 00-.07-2.17 1.82 1.82 0 00-1.26-.42 1.5 1.5 0 00-1.05 2.71 2.81 2.81 0 00.75.33 3.87 3.87 0 00.86-.03zm-11-4.9a1.76 1.76 0 00.82-.45 1.38 1.38 0 00-.15-2.24 1.79 1.79 0 00-1.31-.32 1.51 1.51 0 00-1.34 2.22 2 2 0 00.81.67 2.06 2.06 0 001.18.12zm-14.47-.2a1.64 1.64 0 001.26-1.21 1 1 0 000-.66 1.37 1.37 0 00-.5-.71 1.78 1.78 0 00-1.24-.42 1.6 1.6 0 00-1.69 1.57 1.46 1.46 0 00.78 1.22 2.12 2.12 0 00.64.24 3.33 3.33 0 00.78 0zm4.63-5.9a1.54 1.54 0 001.13-1.47 1.68 1.68 0 00-1.78-1.51 1.55 1.55 0 00-1.49 2.29 2.81 2.81 0 00.31.34 1.7 1.7 0 00.89.41 2 2 0 00.95-.06z"/><path d="M982.38 180.91a1.09 1.09 0 01-.58-.28 1 1 0 010-1.5 1.31 1.31 0 012 .25.63.63 0 01.11.45.88.88 0 01-.09.48 1.25 1.25 0 01-.65.55 1.63 1.63 0 01-.75.06zm-23.05 2.89a5.33 5.33 0 01-1-.68c-.06-.22-.66-2.62-.63-2.66s1.63 1 1.93 1.26l.13.09.31 1.3c.16.7.3 1.28.31 1.31l-1-.62zm6.13 3.68c-.51-.26-1.66-.91-1.86-1.07 0 0-.66-2.6-.65-2.6a2.84 2.84 0 01.48.24c.34.22 2.09 1.17 2.15 1.19s.62 2.49.61 2.55l-.7-.34zm-1.04-3.38a11.05 11.05 0 01-1.66-1 18.33 18.33 0 01-.42-1.8c0-.2 0-.2.57.14.29.16 1.05.58 1.68.91 1.11.62 1.14.65 1.07.69a1.62 1.62 0 00-.43.39 1 1 0 000 1c.06.1.1.18.08.16s-.41-.22-.89-.49zm5.22 2.57c-.32-.13-.77-.33-1-.45l-.41-.17-.17-.72c-.16-.67-.17-.69-.12-.76a1.8 1.8 0 00.11-.2l.06-.13.59.3c.32.17 1 .46 1.44.7l.85.4-.11.05a2.48 2.48 0 00-.46.37.8.8 0 01-.11.14 1.25 1.25 0 00-.08.51 1.25 1.25 0 010 .21l-.59-.25zm.49 3.13a7.34 7.34 0 01-1.1-.6s-.64-2.43-.64-2.54.42.13 1.09.42a11.75 11.75 0 011.1.49s.67 2.62.68 2.71-.5-.24-1.09-.52zm4.63 1.94a5 5 0 01-.6-.21s-.18-.66-.36-1.41-.34-1.44-.36-1.5-.06-.07.61.13a4.4 4.4 0 01.56.2 5.84 5.84 0 01.42 1.48 11.83 11.83 0 00.37 1.43v.06a5.84 5.84 0 01-.6-.18zm-.97-3.55l-.48-.15a2.84 2.84 0 01-.13-.41l-.09-.39.06-.13a1 1 0 00.08-.34v-.18l.63.21c.53.2.88.33 1.18.41.08 0 .08 0-.09.13a1.2 1.2 0 00-.65.88c0 .06 0 .12-.06.13a4 4 0 01-.5-.15zm5.21 4.65c-.64-.12-.75-.16-.75-.19l-.36-1.52c-.19-.8-.35-1.47-.35-1.5l.57.14.56.11.11.18a7.51 7.51 0 01.44 1.5c.17.72.34 1.33.34 1.33l-.53-.06zm3.89.42h-.4s-.69-2.79-.66-2.8a8 8 0 011 .12 1.55 1.55 0 00.22.38c.05.05.6 2.18.61 2.26a2.74 2.74 0 01-.84 0zm2.92-3.26a1.78 1.78 0 00-2.62-.44 1 1 0 00-.31.48c0 .06-.12.06-.72 0l-.48-.07v-.29a.79.79 0 00-.12-.5 1.08 1.08 0 00-.3-.34c-.18-.16-.19-.16-.1-.15s1.06.11 1.43.14a24.08 24.08 0 002.55 0 22.58 22.58 0 008.84-2.67l.64-.31s-.05.07-.15.15a.91.91 0 00-.36.69c0 .32.06.48.39.87 0 0 0 .1-.49.38-.72.36-.82.41-.85.36a1.35 1.35 0 00-.23-.24 1.76 1.76 0 00-2.55.31c-.08.13-.08.19-.08.45a.66.66 0 00.11.44l.09.16-.28.09a3.11 3.11 0 01-.58.13s-.1-.07-.17-.17c-.75-1-2.78-.69-2.85.46 0 .24 0 .23-.43.24h-.28l-.06-.14zm.68 3.13s-.13-.56-.33-1.24a9.35 9.35 0 01-.3-1.28c0-.05 0-.06.2-.07h.72l.1.09a1.06 1.06 0 01.12.18c0 .22.57 2.21.56 2.21l-1 .14zm3.76-.81c-.07-.19-.58-2.26-.57-2.29a1.36 1.36 0 01.24-.09 3 3 0 00.5-.14l.31-.07s.14.5.29 1.08.29 1.1.3 1.13 0 .05-.71.3c-.31.1-.35.11-.36.08zm3.57-1.41c0-.08-.54-2-.54-2.09s.09-.08.26-.18a6.38 6.38 0 00.67-.35l.42-.21s.6 2.17.57 2.2l-.7.34c-.5.22-.67.32-.68.29zm3.49-2.85c-.22-.82-.26-1-.21-1a1.47 1.47 0 000-.32v-.23l.56-.39a2.28 2.28 0 01.56-.39s.13.58.32 1.24.32 1.24.33 1.27 0 .07-.1.11l-1.2.68s-.12-.44-.26-.97zm-10.53-9.18v-.84a2.76 2.76 0 01.39-.06 7 7 0 00.79-.06 17.43 17.43 0 007-2.65c.65-.41 1.44-.93 2.77-1.84a41.34 41.34 0 015.52-3.45 28.32 28.32 0 014.62-1.76c.77-.22.65-.26 1 .14a7.72 7.72 0 001.77 1.71 7.59 7.59 0 002 .91l.29.05v.46h-.14a5.72 5.72 0 01-2.41-1.07 3.87 3.87 0 01-.8-.87l-.2-.28-.59.28-1.79.86-1.19.59v.12a7.52 7.52 0 01-.47 1 2.44 2.44 0 01-.35.43 1.56 1.56 0 01-1.29.49 6.62 6.62 0 01-1.37-.16c-.43-.05-.56-.08-.6 0s-4.78 3.25-4.82 3.32 0 .07 0 .18a3.53 3.53 0 010 .47 2.72 2.72 0 01-.84 1.93 3.48 3.48 0 01-3.28.62 5.29 5.29 0 01-1-.44 1.1 1.1 0 00-.29-.11s-1.06.2-2.29.48-2.25.5-2.27.47a3.12 3.12 0 010-.81zm8 .33a1.59 1.59 0 001.17-1 1.68 1.68 0 00.05-.86 1.46 1.46 0 00-.5-.73 1.9 1.9 0 00-2.54.1 1.45 1.45 0 00-.37.66 2 2 0 000 .73 1.76 1.76 0 001.3 1.11 3.14 3.14 0 00.86-.01z"/><path d="M994 178.82a1.3 1.3 0 01-.86-.6.56.56 0 01-.1-.44.78.78 0 01.09-.49 1.33 1.33 0 012-.32 1 1 0 01.16 1.39 1.37 1.37 0 01-1.25.46zm2.64 4.35a1.29 1.29 0 01-.72-.43.92.92 0 01-.23-.62 1.07 1.07 0 01.65-1 .92.92 0 01.55-.12 1.3 1.3 0 01.53.08 1.2 1.2 0 01.73.86 1.16 1.16 0 01-1.51 1.19zm4.53 3.57c-.13-.44-.55-2.1-.58-2.29s0-.32-.05-.34.09-.14.54-.44a2.27 2.27 0 01.56-.36s.74 2.66.72 2.7a11.2 11.2 0 01-1.16.78zm3.11-3.52c-.33-1.21-.34-1.24-.31-1.45v-.18l.64-.47.66-.46s.73 2.6.74 2.69a.26.26 0 010 .1s-.34.25-.7.5a8.16 8.16 0 01-.67.47 9.94 9.94 0 01-.36-1.2zm3.84-1.53s-.17-.58-.35-1.29-.35-1.27-.35-1.3a11 11 0 011.08-.82s.68 2.5.67 2.53a6.84 6.84 0 01-1 .9zm-.66-3.38a1 1 0 00-.28-.44.63.63 0 01-.18-.28c0-.11 0-.11-.12 0s-.07 0-.2 0a.5.5 0 00-.21-.07c-.08 0-.05-.08.58-.6s.67-.56.7-.5a1.39 1.39 0 00.25.38c.11.12.14.17.25.58l.11.45c-.15.12-.78.58-.8.61s0 0-.08-.1zm-3.65 2.79l-.09-.09a.54.54 0 01-.1-.18c0-.09 0-.08-.09-.07a.68.68 0 01-.2-.07 3 3 0 00-.38-.15l-.24-.07.39-.32c.22-.16.64-.49.92-.73s.53-.44.54-.44a.62.62 0 01.08.1 2 2 0 00.21.25c.13.11.14.14.23.47l.09.36-.56.42-.67.47c-.07 0-.12.08-.12 0zm-3.73 2.5a2.1 2.1 0 00-.47-.22 2.43 2.43 0 00-.46 0h-.31l.64-.44 1.06-.76.42-.29v.1a1.62 1.62 0 00.31.46.52.52 0 01.19.33 7.82 7.82 0 01-1.19.88c-.13.06-.17.07-.23 0zm-3.39 2.33a1.82 1.82 0 00-1.63-.28h-.18s.11-.08.26-.18c.44-.21 1.56-.84 2-1.15l.44-.24a.9.9 0 010 .12 1 1 0 00.27.9c.06.08.1.13.09.13s-1 .75-1.05.79a1 1 0 01-.2-.13zM1007 256.5c-.95-.22-1.68-1.46-1.91-3.24a11.42 11.42 0 010-2.79c.43-2.92 1.93-5.42 3.52-5.86a1.45 1.45 0 01.94.06 2.34 2.34 0 01.8.58 5.3 5.3 0 011 2.58 13 13 0 010 2.84c-.39 2.6-1.65 4.92-3.08 5.68a1.64 1.64 0 01-1.23.15zm.94-4.11c.25-1.23.45-2.26.45-2.29s.43.05 1.15.18a3.69 3.69 0 001.14.15 1.13 1.13 0 00.08-.39l-1.11-.19a8.92 8.92 0 01-1.14-.22s.17-1 .39-2.13.42-2.13.42-2.16-.07 0-.24-.06-.24 0-.24 0-.19.89-.4 2-.4 2-.41 2.13-.06.13-.09.14-.49-.07-1-.15a6 6 0 00-1-.17 1.62 1.62 0 00-.09.4 6 6 0 001 .2c.52.08 1 .16 1 .18s.06.07-.37 2.21c-.24 1.22-.43 2.26-.44 2.29s0 .08.17.11a.65.65 0 00.25 0c.06 0 .1-.14.5-2.24z"/><path d="M1006.79 257.81a3.16 3.16 0 01-2-2 9 9 0 01-.5-1.84 16.87 16.87 0 01-.06-2.67 13.11 13.11 0 011.74-5.5 6.12 6.12 0 012.28-2.26c1.75-.79 3.3.44 3.88 3.11a7.7 7.7 0 01.19 1.85 10.07 10.07 0 01-.14 2.25c-.52 3.42-2.3 6.38-4.24 7a2.74 2.74 0 01-1.15.06zm1.21-.88c1.26-.37 2.47-1.78 3.22-3.78 1.19-3.24.91-7-.65-8.43-1-.89-2.25-.82-3.41.26a9.87 9.87 0 00-2.6 6.3 13.12 13.12 0 00.06 2.17 4.76 4.76 0 001.51 3.14 2.14 2.14 0 001.87.34zm18.41-45.7c-.1-.56-1.58-10-1.58-10l.38.18a7.75 7.75 0 002.43 1 6.71 6.71 0 002.39-.27l.94-.18-4.52 9.4v-.13z"/><path d="M1012.59 251.3s0-.21.07-.45a9.88 9.88 0 00-.83-6.38 3.05 3.05 0 00-2.27-1.63 3.51 3.51 0 00-2.74 1.11 11.48 11.48 0 00-3.09 7.13c0 .18-.05.36-.06.37s-.18.12-.39.11h-.41l3.52-12.75 3.66-13.24 1.49.1c.83.08 1-.59 1.48 0 .09.1-1.57 3.74-3.36 7.78s-3.26 7.35-3.24 7.35.12.06.23.09l.2.07v-.1s1.47-3.3 3.21-7.19 3.21-7.25 3.27-7.38l.11-.22h.35v.2c0 .33-.52 15.93-.51 15.93a1.33 1.33 0 01.25 0h.23v-.18c0-.12.12-3.74.26-8.09s.24-8.57.24-8.57a5.61 5.61 0 011.34-.09l1.43.12-2.14 13c-1.11 6.84-2.11 12.52-2.14 12.61s0 .18-.12.2a.27.27 0 00-.1 0zm-.14-6.77h.14s-1.08-9-1.08-9.07-5.3 8.13-5.33 8.22a1.07 1.07 0 00.4.26s.21-.22.43-.44a8.73 8.73 0 012.21-1.78c.84-.39 1.4-.16 2 .84a10.16 10.16 0 01.79 1.78.87.87 0 00.09.24h.36z"/><path d="M1011.74 242.44a5.14 5.14 0 00-.69-.92 1.63 1.63 0 00-1.18-.44 3.08 3.08 0 00-1.79.78c-.17.12-.31.24-.31.21s3.37-5.24 3.38-5.24.7 5.65.69 5.74-.03 0-.1-.13zM955.7 177.4l-.86-.16c0-.06.2-.16.32-.21a1.38 1.38 0 01.7 0 1.09 1.09 0 01.7.42c.07.11.07.13 0 .14s-.41-.05-.89-.15zm5.3 3.29c-.45-.07-.85-.13-.9-.15h-.1.06a1.05 1.05 0 01.66-.26h.19l.47.3a2.45 2.45 0 01.47.31l-.84-.14zm5.62 3.31a7.8 7.8 0 01-.91-.33c-.09 0 .38-.34.53-.35a5.48 5.48 0 01.55.26c.28.17.58.31.67.37s.16.09.16.12a.27.27 0 01-.1.22l-.9-.29zm5.15 2.6l-.93-.26c0-.05.2-.22.31-.27a1.21 1.21 0 01.47-.1c.06 0 .21 0 .54.17s.45.19.51.29.1.42 0 .4zm4.1 1.66l-1-.17s0-.09.14-.2a1 1 0 01.62-.29c.57-.09 1.17.24 1.21.67v.12c0 .01-.47-.07-1-.13zm4.25 1.33l-.94-.09c-.08 0 0-.24.19-.36a.8.8 0 01.21-.13 1.43 1.43 0 01.78-.12 1 1 0 01.8.64v.11h-1.08zm4.13.51h-.86s.07-.16.17-.24a1.07 1.07 0 01.55-.24 1.26 1.26 0 011.15.39.26.26 0 010 .1h-1.06zm2.83-.22a.61.61 0 01.33-.49 1.39 1.39 0 011.18-.09 1.16 1.16 0 01.36.27l-1.86.39v-.08zm3.71-.95a.69.69 0 010-.23.64.64 0 010-.24 1.1 1.1 0 011.2-.41.89.89 0 01.5.21c.06 0 .13 0-.78.38-.41.15-.78.29-.82.32s-.08 0-.11 0z"/></g><path d="M991.68 189.43a.62.62 0 01.17-.06c.09-.05.32-.13.49-.2s.32-.13.33-.1a1.06 1.06 0 01-.31.24 1.2 1.2 0 01-.68.12z" fill="#b0b0b0"/><path d="M994.66 187a.69.69 0 010-.49 1.17 1.17 0 011.48-.33.49.49 0 01.14.06s-1.52.83-1.55.84zm3.47-2.3a.52.52 0 01.09-.6 1 1 0 01.7-.33 1.49 1.49 0 01.73.13h.06l-.75.43-.77.43a.47.47 0 01-.06-.1zm3.35-2.9a.57.57 0 010-.32 1.87 1.87 0 01.32-.31c.31-.21.31-.21.46-.25a1.61 1.61 0 01.71.11s-.12.11-.69.44c-.41.21-.75.4-.76.41a.15.15 0 010-.08zm6.76-5.53a.52.52 0 010-.35 6.85 6.85 0 01.6-.51 1.71 1.71 0 01.61 0 .87.87 0 01.43.14s-.08.1-.76.4l-.81.39zm-3.24 2.49c-.07-.1 0-.14.43-.53a5.85 5.85 0 01.48-.37 1.58 1.58 0 01.38 0s-.06.07-.25.23-.46.31-.65.44-.39.26-.39.23zm.81.53a1 1 0 01-.38-.15 10.34 10.34 0 011.21-.83 3 3 0 01.19.6l-.2.17a.68.68 0 01-.33.18 1.58 1.58 0 01-.49.03zm4.92-3.35v-.05a.89.89 0 00-.12-.3 1.36 1.36 0 00-.69-.54 1.85 1.85 0 00-.4-.12h-.13l.14-.11.15-.1.72.48.71.49a1.07 1.07 0 00-.16.12c-.08.08-.16.13-.17.16z" fill="none"/><g stroke="#c37b24"><g stroke-miterlimit="1.142" stroke-width=".514"><path d="M1018 181.69c-.92-1.75-3.78-3.3-5.86-2.78-.7.18-1.23.8-2.43 1.82-.81.71-1.67 1.42-2.57 2.12a74.629 74.629 0 01-5.73 4.11 65.52 65.52 0 01-6 3.49 35.29 35.29 0 01-5.55 2.28 22.94 22.94 0 01-7 .75 31.54 31.54 0 01-12.08-3.12l-6.1-3-20.75-12.7 13.74-14.56c1.06 1 2.65 2.42 4.58 4s4.16 3.27 6.52 5 4.83 3.27 7.2 4.61a19 19 0 0013.68 2.76 20.32 20.32 0 005.37-2c3.29-1.76 6.27-4.08 10.63-5.67a20.68 20.68 0 0112.95-1 18.69 18.69 0 015.66 2.53c6 4.6 6.9 6.61 6.65 13" fill="#f3ae00"/><path d="M1015.43 186.1c10.51-.5 12.1.52 17.57 3l-2.12-5.83c-5.88-1.88-8-1.91-13.87-1.47z" fill="#f3ae00"/><g fill="none"><path d="M1008.88 311.84c-4.84 7.3-15.72 23.81-25.41 22.55a5.91 5.91 0 01-1.83-.81 25 25 0 01-3-2.86 5.54 5.54 0 01-4.58 2.33 5.31 5.31 0 01-2.79-.72 5.38 5.38 0 01-2.51-5 4.11 4.11 0 016.38-2.47l-23-24.7c-3.06 1-4.86-.38-3.14-2.72-1.77-.86-1.66-1.7-.7-3.2a114.58 114.58 0 01-13.74-29.56c-3.87-16.12-4.22-31.12-.46-46a66.74 66.74 0 015.22-13.94c-1.62-1-1.61-1.65-.87-2.69-.14-.35-1-.16-1-.46a1.85 1.85 0 01.16-.82c.79-1.4 2.42-1.18 3.78-1.28l9.72-20.34m4.19-2.86l-2.15 1.15c2.19 1.47 4.36 2.94 6.53 4.38s4.35 2.8 6.57 4.06a54.17 54.17 0 006.77 3.3 35 35 0 007.14 2.09c7.53.6 11.32-.92 17.15-4.08a116.41 116.41 0 0014.74-11.1l-1.84-1.46c-6.5 5.42-11.79 10-18.62 13-6.41 2.71-13 1.55-19.26-1.2s-12.12-7-17.03-10.14z"/><path d="M964.84 187.47a98.67 98.67 0 00-14.6 27.5c-3.88 11.51-5.13 22.58-3.35 33.89a64.62 64.62 0 004.81 16c4.48 10.12 11.41 19.43 20 29.82l.14-.24 26.27-69.36 14.89-36.45c5.92-.44 7.38.57 9.89 4.74m0 0c.07-.1-.21-.22.07 0m11.88 1.3c0-2.08 0-2.08-1.95-5.9m-17.28-2.77a4.41 4.41 0 00-2.66 2.75"/><path d="M1034.83 194.59l-11.19 115.22-15.12 2.09m-36.62 17.28a5.24 5.24 0 003 .24c1.67-.57 2.52-1.93 1.65-3.19a7.92 7.92 0 00-1.5-1.51"/></g></g><path d="M1022.9 193.16l-20.06 118.31" fill="none" stroke-miterlimit="1.142" stroke-width=".942"/><path d="M987.43 305.94l32.39-116.23" fill="#f3ae00" stroke-miterlimit="1.142" stroke-width=".685"/><g fill="none" stroke-miterlimit="1.142" stroke-width=".514"><path d="M987.53 306l-15.66-11.19m-21.55-116.12c-3.43 7-6.94 13.88-10 20.69m10.62 100.89c7.33 8.17 14.6 15.94 22.14 23.83m-24.33-26.36l2.84-1.8c4.58-2.77 1.87-7.31 1.07-11.85 2.3 6.3 5 8.6 2 13.6a11.31 11.31 0 01-2.43 2.4"/><path d="M948.36 294.18a8.25 8.25 0 002.78-.67c2.89-1.58 1-6.2.17-8.56-.68-2-1.54-3.92-2.4-6a117.66 117.66 0 01-6-15 78.14 78.14 0 01-3.28-15 64.08 64.08 0 01-.35-15.33 65.59 65.59 0 012-11c.21-.87.44-1.71.65-2.57s.44-1.71.64-2.57.39-1.75.56-2.64c1-5.67.59-9.82-4.06-10.33"/><path d="M941.37 199.42c3.94 1.06 4.45 3.15 4.54 6.83a23.42 23.42 0 01-.32 4.05c-.22 1.32-.52 2.69-.85 4s-.67 2.57-1 3.75a75 75 0 00-3.45 21c-.45 17.28 6.37 31.31 12.49 45.39"/><path d="M937.56 201.58a8.25 8.25 0 013.91 1.18c4.42 2.62 3.11 5.69 3.65 10"/></g><path d="M947 166.43l2 1.46-3.52 3.85-2-1.46zm5.81-6.16l2 1.48-3.41 3.74-2-1.49z" fill="#f3ae00" stroke-linecap="square" stroke-width="1.804"/><g fill="none" stroke-miterlimit="1.142"><path d="M934.24 263l8-1.26m-1.43 19.11l7.83-2.09m-7.18 2.95l7.7-2.09m-6.96-17.71l-5.7 8 10.5 4.66m-6 6.08l4.91-8.63" stroke-width=".514"/><path d="M939.36 277.75l5.19-9" stroke-width=".571"/><g stroke-width=".514"><path d="M948.21 277.64l-10.49-4.32 5.67-8.12"/><path d="M945.43 271l-10.06-4.27 3.37-4.44m5.02 4.23l-9.53-3.42m4.42 13.02l6.25 3.31 2-4.91m-15.33-38.14l7.37.36m-7.42.82l7.34.4m-4.62-19.24l7.72.94M932.43 236l6.91-4.49-6.58-5.78 5.17-3.39 4-2.61"/><path d="M936.28 236.5l-4.36-3.74 7.94-4.72-4.41-4-2.05-1.84 4.81-3m3 3.87l-8.91 5.58m6.7 5.87l-6.74-6"/></g><path d="M936.16 236.56l2.87-2.15" stroke-width=".428"/><path d="M932.57 236.1l-.94-.7m9.08-10.4l-6.62-6.16m7.29 3.23l-3.15-2.66m-6.88 22.89c5.07.58 7.53-1.35 7.25-4.59m-3.84 5.67a5.47 5.47 0 004.33-2.39m-7.37 1.33c7.69.72 8.4 13.85 1.66 15.74m.62-.21c5-1 7.74.72 7.79 3.95m-5.79-5.28a6.27 6.27 0 015.31 1.54" stroke-width=".514"/></g></g><path d="M987 193a28.87 28.87 0 01-13-1.61 47.81 47.81 0 01-6.06-2.75c-3-1.51-3.76-1.92-13.34-7.79-5.57-3.41-10.13-6.23-10.14-6.26s11.93-12.76 13-13.8l.23-.23.87.78c5.6 5.1 15.27 11.91 19.81 14a18.31 18.31 0 0013.62.81c2-.75 3.09-1.29 7.6-4a33.26 33.26 0 018.41-3.79 18.94 18.94 0 0114.26 1.12 14.5 14.5 0 013.17 2.14c3.11 2.59 4.27 4.15 4.82 6.47a13.81 13.81 0 01.31 2 22.7 22.7 0 010 2.68 8.47 8.47 0 01-1.19-.3 26.59 26.59 0 00-10.41-1.11h-.75l-.48-.57a7.06 7.06 0 00-3.94-2.21 3.21 3.21 0 00-1.5.05l-.81.18-1.76 1.51c-5.72 4.89-12.21 9.07-17.41 11.21A27.74 27.74 0 01987 193zm5.52-3.8c0-.13-.32-.05-.66.14s-.17.13.19.06.49-.16.51-.22z" fill="none"/><g stroke="#f3ae00"><path d="M1011.42 256.71L990 301.65m13.13-46.65l-.6 49.37" fill="none" stroke-miterlimit="1.142" stroke-width=".514"/><path d="M1012.37 251.1c-.74 4.14-3.18 7.26-5.46 7s-3.53-3.88-2.79-8 3.18-7.25 5.46-7 3.53 3.9 2.79 8z" fill="#c37b24" stroke-linecap="square" stroke-width="1.224"/><path d="M1006.7 258.11l-9.7 42.12m10.93-23.73l-8 11.62-2.67-13.68 8.29-11.29 2.31 13.55" fill="none" stroke-miterlimit="1.142" stroke-width=".514"/><path d="M1011.51 251c-.6 3.43-2.55 6-4.37 5.79s-2.81-3.22-2.21-6.65 2.55-6 4.37-5.79 2.81 3.22 2.21 6.65z" fill="#c37b24" stroke-linecap="square" stroke-width="1.505"/><g fill="none"><g stroke-miterlimit="1.142" stroke-width=".514"><path d="M1006.08 249.35l4.54 1m.86-14.63l-5 7.69c3.51-3.76 4.66-3.08 6 .75z"/><path d="M1013.56 242.28l.59-18.27-7.53 17"/></g><path d="M1000.52 310.64c2-2.48 1.37-6.12-1.5-8.13a6.68 6.68 0 00-8.88.86 5.14 5.14 0 00-1.18 3.08" stroke-linecap="square" stroke-miterlimit="1.466" stroke-width=".513"/><path d="M994.91 308.46l6.72-1.64" stroke-miterlimit="1.142" stroke-width=".685"/><path d="M999.44 303l-4.41 5.2m-5.03-6.67c6.32-2.86 9.27-1 12.56 2.58" stroke-miterlimit="1.142" stroke-width=".514"/></g><path d="M1017 220.86a2.08 2.08 0 01-2.23 1.87 2 2 0 01-2-2.1 2.08 2.08 0 012.23-1.86 2 2 0 012 2.09z" fill="#c37b24" stroke-linecap="square" stroke-width="1.199"/><path d="M1015.8 220.8a.9.9 0 01-1 .77.87.87 0 01-.88-.88.9.9 0 011-.76.86.86 0 01.88.87z" fill="#c37b24" stroke-linecap="square" stroke-width="1.477"/><path d="M1021.11 191.53l-7.25 26.18m7.29-26.15l-3.93 26.55m3.62-25.11l-5.34 24.83" fill="none" stroke-miterlimit="1.142" stroke-width=".514"/></g><g stroke="#c37b24"><path d="M1023.61 249.8a2.18 2.18 0 01-2.4 1.86 2.12 2.12 0 01-2.12-2.11 2.17 2.17 0 012.39-1.86 2.12 2.12 0 012.13 2.11z" fill="#f3ae00" stroke-linecap="square" stroke-width="1.468"/><g fill="none"><path d="M1017.11 310.48c-.23-1.34-1.89-2.28-3.7-2.11s-3.11 1.4-2.88 2.74a1.89 1.89 0 00.05.23" stroke-linecap="square" stroke-width="1.316"/><path d="M1028.47 260.43l-24.4 44.69" stroke-miterlimit="1.142" stroke-width=".514"/><path d="M1021.77 200l3.23 16.23" stroke-miterlimit="1.142" stroke-width=".571"/><path d="M1034.22 200.72l-7.82 15.54m4.86-14.42l-5.1 10.56-1.82-11.47c3.61 2.06 3.19 1.57 6.92.91zm-4.94 21.03l4.54 12.51m-.72 7.16l-5.62-16.91-10 16.73m8.8-19.84l-7.5 12.27m-2.75 16.7l11.68 47.14" stroke-miterlimit="1.142" stroke-width=".514"/></g><path d="M1017.08 300a2.17 2.17 0 01-2.4 1.86 2.12 2.12 0 01-2.12-2.11 2.18 2.18 0 012.4-1.86 2.1 2.1 0 012.12 2.11z" fill="#f3ae00" stroke-linecap="square" stroke-width="1.501"/><path d="M1011.9 258l11.81 47.65m5.37-51.8l-23.89 43.68" fill="none" stroke-miterlimit="1.142" stroke-width=".514"/><g stroke-linecap="square"><g fill="#f3ae00"><g stroke-width="1.477"><path d="M1026.06 281.36a3.64 3.64 0 01-3.76 3.45 3.52 3.52 0 01-3.25-3.84 3.65 3.65 0 013.76-3.46 3.53 3.53 0 013.25 3.85z"/><path d="M1024.71 281.28a2.21 2.21 0 01-2.3 2.06 2.14 2.14 0 01-2-2.3 2.19 2.19 0 012.3-2.05 2.13 2.13 0 012 2.29zm-9.47-.59a3.65 3.65 0 01-3.76 3.46 3.54 3.54 0 01-3.25-3.85 3.65 3.65 0 013.76-3.46 3.53 3.53 0 013.25 3.85z"/><path d="M1013.88 280.61a2.21 2.21 0 01-2.3 2.06 2.15 2.15 0 01-2-2.3 2.2 2.2 0 012.3-2.05 2.12 2.12 0 012 2.29z"/></g><path d="M1034.73 194.28c-.19 2.71-3 4.75-6.24 4.57s-5.75-2.52-5.56-5.23 3-4.74 6.24-4.56 5.75 2.52 5.56 5.22z" stroke-width="1.372"/><path d="M1030.73 194.09a1.74 1.74 0 01-1.94 1.47 1.7 1.7 0 01-1.73-1.67 1.75 1.75 0 011.94-1.47 1.7 1.7 0 011.73 1.67z" stroke-width="1.437"/><path d="M1030.53 197.22a1.74 1.74 0 01-1.94 1.46 1.68 1.68 0 01-1.72-1.67 1.74 1.74 0 011.94-1.46 1.68 1.68 0 011.72 1.67zm3.85-2.93a1.75 1.75 0 01-1.94 1.47 1.71 1.71 0 01-1.73-1.68 1.74 1.74 0 011.94-1.46 1.69 1.69 0 011.73 1.67zm-7.44-.4a1.75 1.75 0 01-1.94 1.47 1.71 1.71 0 01-1.73-1.68 1.74 1.74 0 011.94-1.46 1.69 1.69 0 011.73 1.67zm3.99-2.99a1.74 1.74 0 01-1.94 1.47 1.7 1.7 0 01-1.73-1.67 1.75 1.75 0 011.94-1.47 1.7 1.7 0 011.73 1.67z" stroke-width="1.078"/><path d="M1020.8 280.74a3.64 3.64 0 01-3.76 3.45 3.52 3.52 0 01-3.25-3.84 3.65 3.65 0 013.76-3.46 3.53 3.53 0 013.25 3.85z" stroke-width="1.477"/><path d="M1019.45 280.66a2.22 2.22 0 01-2.3 2.06 2.13 2.13 0 01-2-2.3 2.19 2.19 0 012.3-2.05 2.13 2.13 0 012 2.29z" stroke-width="1.477"/><path d="M1017 305.52a2.58 2.58 0 01-2.84 2.44 2.89 2.89 0 01-3.07-2.44 2.59 2.59 0 012.85-2.44 2.87 2.87 0 013.06 2.44z" stroke-width="1.381"/></g><g fill="none"><path d="M1023.23 309.6c-.22-1.31-1.76-2.23-3.44-2.06s-2.89 1.36-2.67 2.67a1.55 1.55 0 000 .23" stroke-width="1.368"/><path d="M1010.07 311.28c0-1.44-1.47-2.64-3.3-2.69s-3.31 1.07-3.32 2.51v.17" stroke-width="1.27"/></g></g><path d="M1003.48 307.78c4.77-6.52 16-7.23 20.37.31m-10.06-61.25a7.89 7.89 0 015.23-4.2c-.18-6.17 8.4-4.9 6.66.79a7.88 7.88 0 014 4.65m-16.52 2.37a7.58 7.58 0 003.9 5.35c-2 5.62 7.14 7.13 6.69.84a7.63 7.63 0 005.5-4.33" fill="none" stroke-miterlimit="1.142" stroke-width=".514"/><g stroke-linecap="square"><path d="M1028.3 250.06c-.24 3.42-3.48 6-7.25 5.81s-6.62-3.16-6.39-6.58 3.48-6 7.24-5.81 6.63 3.16 6.4 6.58z" fill="none" stroke-width="1.428"/><g fill="#f3ae00"><path d="M1019.51 249.39a2.16 2.16 0 01-2.39 1.86 2.1 2.1 0 01-2.12-2.11 2.17 2.17 0 012.39-1.85 2.09 2.09 0 012.12 2.1zM1024 246a2.17 2.17 0 01-2.39 1.85 2.09 2.09 0 01-2.12-2.1 2.16 2.16 0 012.39-1.86A2.1 2.1 0 011024 246zm4 4.26a2.16 2.16 0 01-2.39 1.86 2.1 2.1 0 01-2.12-2.11 2.17 2.17 0 012.39-1.86 2.1 2.1 0 012.12 2.11zm-4.93 3.33a2.17 2.17 0 01-2.39 1.86 2.1 2.1 0 01-2.12-2.11 2.16 2.16 0 012.39-1.85 2.11 2.11 0 012.12 2.1z" stroke-width="1.468"/><path d="M1024.26 241.47a1.67 1.67 0 00-1.39-1.94 1.71 1.71 0 00-2 1.34 1.68 1.68 0 001.38 1.95 1.73 1.73 0 002.01-1.35zm-2.4 16.99a1.68 1.68 0 00-1.38-1.95 1.73 1.73 0 00-2 1.35 1.68 1.68 0 001.39 1.95 1.73 1.73 0 001.99-1.35z" stroke-width="1.832"/><path d="M1029 200.62a1.11 1.11 0 01-1.21 1 1.14 1.14 0 01-1.08-1.19 1.11 1.11 0 011.21-1 1.14 1.14 0 011.08 1.19z" stroke-width="1.616"/><path d="M1031.51 220.37a1.62 1.62 0 01-1.72 1.48 1.59 1.59 0 01-1.51-1.67 1.62 1.62 0 011.72-1.48 1.58 1.58 0 011.51 1.67z" stroke-width="1.147"/></g></g><path d="M1018.9 216a3.78 3.78 0 014.53.78 3.28 3.28 0 014.52.8c2-1 3.29-.75 4.67.78m-14.45 2.74a3.77 3.77 0 004.55.59 3.29 3.29 0 004.56.5c1.68 1.52 3 1.64 4.75.58" fill="none" stroke-miterlimit="1.142" stroke-width=".514"/><g fill="#f3ae00" stroke-linecap="square"><path d="M1026.87 219.55a1.62 1.62 0 01-1.72 1.48 1.57 1.57 0 01-1.51-1.66 1.61 1.61 0 011.72-1.48 1.58 1.58 0 011.51 1.66zm-4.33-.55a1.62 1.62 0 01-1.72 1.48 1.57 1.57 0 01-1.51-1.66 1.62 1.62 0 011.72-1.48 1.58 1.58 0 011.51 1.66z" stroke-width="1.147"/><path d="M959.46 192.38c-.21 3.07-3.22 5.4-6.71 5.21s-6.15-2.85-5.94-5.92 3.21-5.4 6.7-5.2 6.16 2.84 5.95 5.91z" stroke-width="1.472"/><path d="M957.66 192.28c-.14 2.11-2.29 3.7-4.79 3.57s-4.41-2-4.27-4.08 2.29-3.7 4.79-3.56 4.42 1.96 4.27 4.07z" stroke-width="2.099"/><path d="M971 301.65c-.21 3.07-3.21 5.4-6.7 5.2s-6.16-2.84-6-5.91 3.22-5.4 6.71-5.21 6.16 2.85 5.99 5.92z" stroke-width="1.473"/><path d="M969.17 301.55c-.15 2.11-2.29 3.71-4.79 3.57s-4.41-2-4.27-4.07 2.29-3.71 4.79-3.57 4.41 1.96 4.27 4.07z" stroke-width="2.099"/></g><path d="M1030.74 182c-4.88-.63-6.59-3.29-6.61-6.75-3.2-.51-5.2-2-6.13-4.12-3.93 2-7.66.54-9-1.5l-3.16 1.67" fill="none" stroke-miterlimit="1.142" stroke-width=".514"/><path d="M962.71 168.55a1.37 1.37 0 11-1.28-1.41 1.34 1.34 0 011.28 1.41z" fill="#f3ae00" stroke-linecap="square" stroke-width="1.132"/><path d="M1015.05 169.17a1.28 1.28 0 01-2.56-.16 1.27 1.27 0 011.36-1.16 1.26 1.26 0 011.2 1.32z" fill="#f3ae00" stroke-linecap="square" stroke-width="1.449"/><g stroke-miterlimit="1.142" stroke-width=".514"><g fill="none"><path d="M957.72 168c1.92 2.53 3.89 3.66 7 1.7l4.58 3c-1.27 4.48 3.23 5.17 5 3.46l6.09 2.7c0 3.71 3.93 4 5.29 1.21l5.36-1.52c2.57 1.52 5.81.6 5.84-2.62"/><path d="M996.81 176.19l5.18-3.66c2.94.16 3.48.15 4-1.52"/><path d="M1005.22 172.37a7.32 7.32 0 00.31 3.69l-5.58 4.41c-3.89-1.26-6 .36-6.06 4.12l-8.07 2.77c-2.3-3.28-5.43-2.93-7.92-.76l-7.21-3c.3-3.27-2.49-5.22-6.18-3.44l-4.83-2.77c.38-3.55-.63-4.62-4.58-5.58l2.74-3.93"/></g><path d="M957.84 170.07c2.1 1.68 3.63 2.34 6.79 1.05l3.31 2.13c-.66 4.08 3.18 6.06 6.42 4.37l4.85 2.13a4 4 0 007.29 1.44l4.36-1.26a7.18 7.18 0 003.16.51 7.19 7.19 0 00-1.34 3.37l-6.42 2.19c-2.67-2.44-4.91-2.85-8.65-.74l-5.61-2.34c-.84-4.72-4.31-5.17-7.37-4.08l-3.69-2.13c.24-3.6-2.08-4.88-4-5.45z" fill="#f3ae00"/></g><path d="M997.27 178.9a6.15 6.15 0 00.87-2.13l4.12-3h1.61a11.08 11.08 0 00.1 2l-4.3 3.44a7.48 7.48 0 00-2.4-.31z" fill="#f3ae00" stroke-miterlimit="1.142" stroke-width=".428"/><path d="M1008.77 167.64c2.4 4.48 6.39 3.89 9.66 2.23a6.71 6.71 0 006.83 4.42c-.92 3.76 2.06 6.6 5.42 6.64" fill="none" stroke-miterlimit="1.142" stroke-width=".514"/><g fill="#f3ae00" stroke-linecap="square"><path d="M1023.69 171.66a1.28 1.28 0 11-1.2-1.32 1.25 1.25 0 011.2 1.32zm5.46 5.82a1.27 1.27 0 01-1.36 1.17 1.25 1.25 0 11.15-2.49 1.27 1.27 0 011.21 1.32z" stroke-width="1.449"/><path d="M958.41 174.9a1.37 1.37 0 01-1.45 1.25 1.33 1.33 0 111.45-1.25zm14.59-.03a1.37 1.37 0 01-2.73-.16 1.37 1.37 0 011.45-1.25 1.34 1.34 0 011.28 1.41zm-3.79 6.98a1.37 1.37 0 01-1.45 1.25 1.33 1.33 0 111.45-1.25zm15.14-2.02a1.37 1.37 0 01-2.73-.17 1.37 1.37 0 012.73.17zm-.97 7.27a1.37 1.37 0 11-1.28-1.41 1.36 1.36 0 011.28 1.41zm12.15-9.92a1.37 1.37 0 11-1.28-1.41 1.35 1.35 0 011.28 1.41zm13.26-3.61a1.37 1.37 0 01-2.73-.17 1.35 1.35 0 011.45-1.24 1.34 1.34 0 011.28 1.41zm-10.49 8.77a1.35 1.35 0 01-1.45 1.24 1.33 1.33 0 01-1.28-1.4 1.37 1.37 0 012.73.16z" stroke-width="1.132"/></g><g stroke-miterlimit="1.142" stroke-width=".514"><path d="M981.39 284.62l-8.6 10.78" fill="#fc0"/><path d="M972.77 295.4l8.68 6.24c1.91-5.09-4.24-8.83-8.68-6.24z" fill="#f3ae00"/><path d="M982.7 289l-3.47 6.4m4.63 2.87l-1.22 4.13" fill="#fc0"/><path d="M973.94 296.28l6.41 4.61c1.41-3.75-3.14-6.56-6.41-4.61z" fill="#f3ae00"/></g></g><path d="M957.36 178.57l28.4 118.51-1.34 1-28.74-119.85zm5.11 3.37l25.76 106.31-1.35.92-26.06-107.5zm5.32 2.92l22.85 95.48-1.37.86-23.12-96.55zm5.21 2.65L993.21 272l-1.39.78-20.46-85.43zm4.24 1.49l17.68 75.44-1.41.73-17.89-76.28zm32.95-12.24l5 18.74-1.47.41-5.07-18.91zm-3.1 2.59l5.88 22.7-1.47.42-6-22.95zm-3.58 2.59l7.51 28.3-1.46.48-7.6-28.61zm-3.59 2.42l8.7 33.5-1.45.51-8.81-33.88zm-3.69 2.29l10.13 38.49-1.44.54-10.26-38.92zm-3.43 1.8l11.29 44.87-1.44.57-11.43-45.37zm-3.62 1.32l12.82 51.39-1.43.61-12.93-52zm-3.75.4l14.41 58.54-1.42.64-14.59-59.18zm-3.93-.03l16.33 66.92-1.41.7-16.52-67.67z" fill="#fff"/><g stroke="#c37b24"><path d="M963 182a1.27 1.27 0 01-1.34 1.15 1.23 1.23 0 01-1.18-1.29 1.27 1.27 0 011.34-1.15A1.23 1.23 0 01963 182zm5.26 3.06a1.27 1.27 0 01-1.34 1.15 1.22 1.22 0 01-1.17-1.29 1.25 1.25 0 011.34-1.15 1.23 1.23 0 011.17 1.29zm5.1 2.58a1.24 1.24 0 01-1.33 1.15 1.23 1.23 0 01-1.18-1.29 1.26 1.26 0 011.34-1.14 1.2 1.2 0 011.17 1.28zm4.32 1.58a1.26 1.26 0 01-1.34 1.15 1.22 1.22 0 01-1.17-1.29 1.26 1.26 0 011.34-1.15 1.22 1.22 0 011.17 1.29zm4.26.93a1.27 1.27 0 01-1.34 1.15 1.23 1.23 0 01-1.18-1.29 1.27 1.27 0 011.34-1.15 1.23 1.23 0 011.18 1.29zm3.89.25a1.26 1.26 0 01-1.34 1.14 1.2 1.2 0 01-1.17-1.29 1.25 1.25 0 011.34-1.14 1.22 1.22 0 011.17 1.29zm3.73-.51a1.26 1.26 0 01-1.34 1.15 1.22 1.22 0 01-1.17-1.29 1.26 1.26 0 011.34-1.15 1.23 1.23 0 011.17 1.29zm3.7-1.17a1.26 1.26 0 01-1.34 1.15 1.22 1.22 0 01-1.17-1.29 1.25 1.25 0 011.34-1.15 1.22 1.22 0 011.17 1.29zm3.6-1.72a1.26 1.26 0 01-1.34 1.14 1.22 1.22 0 01-1.18-1.29 1.26 1.26 0 011.34-1.14 1.23 1.23 0 011.18 1.29zm3.49-2.15A1.25 1.25 0 01999 186a1.21 1.21 0 01-1.17-1.28 1.26 1.26 0 011.34-1.15 1.22 1.22 0 011.18 1.28zm3.65-2.54a1.27 1.27 0 01-1.34 1.15 1.22 1.22 0 01-1.17-1.29 1.25 1.25 0 011.34-1.15 1.23 1.23 0 011.17 1.29zm3.4-2.75a1.25 1.25 0 01-1.34 1.14 1.21 1.21 0 01-1.17-1.28 1.26 1.26 0 011.34-1.15 1.22 1.22 0 011.17 1.29zm3.13-2.56a1.25 1.25 0 01-1.34 1.15 1.23 1.23 0 01-1.17-1.29 1.27 1.27 0 011.34-1.15 1.22 1.22 0 011.17 1.29zm-52.91 1.4a1.26 1.26 0 01-1.34 1.15 1.22 1.22 0 01-1.17-1.29 1.25 1.25 0 011.34-1.14 1.21 1.21 0 011.17 1.28zm31.18 110.36a1.26 1.26 0 01-1.34 1.15 1.23 1.23 0 01-1.18-1.29 1.26 1.26 0 011.34-1.14 1.22 1.22 0 011.18 1.28zm2.53-8.02a1.26 1.26 0 01-1.34 1.15 1.22 1.22 0 01-1.17-1.29 1.25 1.25 0 011.34-1.15 1.23 1.23 0 011.17 1.29zm2.31-8.48a1.25 1.25 0 01-1.34 1.15 1.22 1.22 0 01-1.17-1.29 1.27 1.27 0 011.34-1.15 1.22 1.22 0 011.17 1.29zm2.11-7.58a1.27 1.27 0 01-1.34 1.15 1.22 1.22 0 01-1.17-1.29 1.25 1.25 0 011.34-1.15 1.23 1.23 0 011.17 1.29zm2.51-7.43a1.27 1.27 0 01-1.34 1.15 1.23 1.23 0 01-1.18-1.29 1.26 1.26 0 011.34-1.15 1.23 1.23 0 011.18 1.29zm2.42-8.25a1.26 1.26 0 01-1.34 1.15 1.22 1.22 0 01-1.17-1.29 1.25 1.25 0 011.34-1.14 1.21 1.21 0 011.17 1.28zm2.09-7.35a1.26 1.26 0 01-1.34 1.15 1.21 1.21 0 01-1.17-1.29 1.25 1.25 0 011.34-1.14 1.21 1.21 0 011.17 1.28zm2.02-8.16a1.27 1.27 0 01-1.34 1.15 1.22 1.22 0 01-1.17-1.29 1.25 1.25 0 011.34-1.15 1.22 1.22 0 011.17 1.29zm2.41-7.9a1.26 1.26 0 01-1.34 1.15 1.23 1.23 0 01-1.17-1.29 1.26 1.26 0 011.34-1.15 1.21 1.21 0 011.17 1.29zm2.09-7.34a1.25 1.25 0 01-1.34 1.15 1.23 1.23 0 01-1.17-1.29 1.26 1.26 0 011.34-1.15 1.22 1.22 0 011.17 1.29zm2.28-8.04a1.27 1.27 0 01-1.34 1.15 1.23 1.23 0 01-1.18-1.29 1.27 1.27 0 011.34-1.15 1.23 1.23 0 011.18 1.29zm2.04-8.39a1.26 1.26 0 01-1.34 1.15 1.22 1.22 0 01-1.17-1.29 1.25 1.25 0 011.34-1.14 1.21 1.21 0 011.17 1.28zm2.03-6.41a1.25 1.25 0 01-1.34 1.15 1.22 1.22 0 01-1.17-1.29 1.27 1.27 0 011.34-1.15 1.22 1.22 0 011.17 1.29zm-29.39 102.34a1.24 1.24 0 01-1.33 1.15 1.23 1.23 0 01-1.18-1.29 1.26 1.26 0 011.34-1.14 1.2 1.2 0 011.17 1.28z" fill="#f3ae00" stroke-linecap="square" stroke-width="1.477"/><g stroke-miterlimit="1.142" stroke-width=".514"><path d="M984.09 298.32l2.06-1.28H986" fill="#f3ae00"/><path d="M986.62 289.35l1.93-1.22h-.15m.76-6.82l1.93-1.21h-.15m.56-7.3l1.92-1.22h-.15m.33-6.4l1.93-1.21h-.15m.73-6.2l1.93-1.22h-.15m.63-6.99l1.93-1.22h-.15m.32-6.13l1.92-1.22h-.15" fill="#806600"/><path d="M1002.61 234l1.93-1.22h-.15" fill="#f3ae00"/><path d="M1005.1 226.1l2-1.23h-.15" fill="#806600"/><path d="M1007.14 218.81l1.92-1.21h-.15" fill="#f3ae00"/><path d="M1009.43 210.75l1.92-1.22h-.15m.13-7.05l1.92-1.22h-.15m.28-5.26l1.92-1.22h-.15" fill="#806600"/></g><path d="M957.48 168.13l.27-.41.32.45z" fill="#c37b24" stroke-miterlimit="1.142" stroke-width=".143"/><path d="M1003.84 305.62a14.5 14.5 0 016.48-3.62c-.76-7.11 9.92-7 8.77.5a10.91 10.91 0 015 3.82" fill="none" stroke-miterlimit="1.142" stroke-width=".514"/></g><path d="M1007.22 255.12l1.9-9.24" fill="none" stroke="#f3ae00" stroke-miterlimit="1.142" stroke-width=".514"/><path d="M994.9 308.43l-4.54-5.63m4.06-1.64l.5 7.3" fill="none" stroke="#f3ae00" stroke-width="1.8"/><path d="M1016.62 275.92l.2.8c.25 0 1.49-.21 2.17-.25l-.82-3.33z" fill="#f3ae00"/><path d="M1008.65 311.87l-5.88-.36-15.22-5.45c-4 7-11.19 22.57-5.11 26.4a6.55 6.55 0 005.22 0 25.55 25.55 0 007.92-5.67 81.41 81.41 0 007.28-8.28c2.16-2.72 3.95-5.22 5.14-6.8" fill="none" stroke="#c37b24" stroke-miterlimit="1.142" stroke-width=".514"/><g fill="none" stroke="#c37b24" stroke-miterlimit="10"><g stroke-width=".52"><path d="M957.68 298.44l2.87-13.12-8.4-5.06 1.65-9-7.59-4.79 2.06-8.55-6.29-7 3.55-7.57-4.28-8.46 5-6.29"/><path d="M946.22 228.83l-2.33-8.49 5.84-6.48-2.33-8.33 8.45-7.23c-3.63.95-6.19.34-8.71-2.16L952 206.7l-6 6.16 1.72 8.51-5.54 6.51 3.41 7.32-4.38 8.45 5.21 6.49-2.48 9.1 7.18 5.65"/><path d="M951 264.63l-2 8.66 8 4.71-1.52 9.53 11.33 7.13c-3.47-.83-7.88 1-9.19 3.82"/></g><path d="M931.47 243.2c6.59.55 7.41 12.27 1.44 14.06" stroke-width=".494"/></g></svg>