<svg height="169" viewBox="0 0 239 169" width="239" xmlns="http://www.w3.org/2000/svg"><g transform="translate(.617837 .157961)"><path d="m223.710937 167.460938c.996094-.46875 2.34375-1.582032 3.046875-2.402344 1.054688-1.347656 1.230469-1.875 1.230469-4.277344s-.117187-2.929688-1.054687-4.21875c-1.230469-1.640625-2.929688-2.519531-6.621094-3.574219-4.394531-1.230469-4.863281-1.582031-4.863281-3.457031 0-1.640625 0-1.640625 1.640625-1.640625 1.464844 0 1.640625.117187 1.757812 1.113281l.117188 1.113281h4.394531 4.394531l-.410156-1.699218c-.46875-2.109375-1.640625-3.398438-3.925781-4.453125-3.632813-1.640625-11.132813-1.347657-14.238281.527343-3.457032 2.109375-4.277344 8.496094-1.347657 11.191407.585938.527343 2.8125 1.523437 5.097657 2.226562 4.863281 1.523438 5.976562 2.34375 5.976562 4.160156 0 1.582032-.644531 2.285157-2.109375 2.285157-1.171875 0-1.992187-.9375-1.992187-2.402344 0-.820313-.234375-.820313-4.6875-.820313h-4.746094l.292969 1.523438c.410156 2.226562 1.640625 3.984375 3.398437 4.804687 3.28125 1.582032 11.425781 1.582032 14.648437.000001zm-54.726562.117187c1.171875-.46875 2.578125-1.230469 3.046875-1.757812 1.171875-1.230469 2.109375-3.632813 2.109375-5.332032v-1.40625h-4.394531-4.394531v1.816407c0 .996093-.234375 2.050781-.46875 2.285156-.644532.644531-2.929688.585937-3.398438-.117188-.175781-.292968-.351562-3.632812-.351562-7.324218 0-5.625.117187-6.855469.644531-7.441407 1.464844-1.464843 3.398437-.351562 3.691406 2.109375l.234375 1.699219h4.21875 4.21875v-1.523437c0-2.402344-1.523437-4.980469-3.632812-6.152344-1.699219-.9375-2.226563-.996094-7.324219-.996094-5.039063 0-5.625.058594-7.148438.9375-2.050781 1.171875-3.164062 3.046875-3.808593 6.445313-.527344 2.871093-.351563 9.550781.410156 12.011718.703125 2.285157 2.636719 4.277344 4.804687 4.921875 2.929688.9375 8.90625.820313 11.542969-.175781zm-158.7890625-1.816406.2929688-1.816407h2.7539062 2.7539063l.2929687 1.816407.2929688 1.816406h4.5703125 4.5703125l-.2929688-1.347656c-.1757812-.703125-1.171875-4.511719-2.1679687-8.4375-1.0546875-3.925781-2.2851563-8.730469-2.7539063-10.664063l-.8789062-3.574218h-7.4414063c-6.03515625 0-7.44140625.117187-7.44140625.585937 0 .292969.41015625.820313.87890625 1.171875l.87890625.585938-.87890625 3.222656c-.9375 3.457031-4.27734375 16.054687-4.62890625 17.519531-.234375.9375-.17578125.9375 4.39453125.9375h4.6289063zm1.171875-6.796875c.0585938-.292969.46875-2.519531.8789062-4.980469.4101563-2.460937.8203125-4.628906.9960938-4.746094.1171875-.175781.5859375 1.582032.9960937 3.867188.4101563 2.285156.8203125 4.6875.9375 5.273437.234375 1.113282.1757813 1.113282-1.8164062 1.113282-1.5234375 0-2.109375-.175782-1.9921875-.527344zm34.8046875 5.976562v-2.636718h-4.0429687-4.0429688v-9.316407-9.316406h-2.109375c-1.171875 0-3.6328125.117188-5.5078125.234375-3.3984375.292969-4.21875.761719-2.4609375 1.582031.9375.410157.9375.410157.9960938 11.25l.1171875 10.898438h8.5546875 8.4960937zm19.8632812 0v-2.636718h-4.0429687-4.0429687v-9.316407-9.316406h-1.9335938c-1.0546875 0-3.4570312.117188-5.2734375.234375-3.3984375.292969-4.1015625.703125-2.5195312 1.699219.7617187.46875.8203125.9375.8203125 11.25v10.722656h8.5546875 8.5546875v-2.636719zm32.2265625 2.050782c4.9804683-2.109376 4.1601563-9.960938-1.171875-10.957032-1.5820312-.292968-1.5234375-.820312.1757813-1.171875 2.871094-.585937 4.570313-3.808593 3.691406-7.03125-.9960935-3.574219-2.6953123-4.042968-14.0624998-4.042968-4.9804687 0-9.140625.175781-9.3164062.351562s.1757813.703125.7617188 1.113281l1.1132812.820313v10.722656 10.78125h8.671875c6.796875 0 9.0234375-.117187 10.1367187-.585937zm-9.84375-6.503907v-2.636719h1.5234375c1.875 0 2.5195313.585938 2.5195313 2.34375 0 1.699219-1.2304688 2.988282-2.8710937 2.988282h-1.2304688v-2.695313zm.0000001-9.550781v-2.460937l1.5234375.117187c2.0507812.175781 2.9296875 1.640625 2.109375 3.398438-.46875.9375-.8789063 1.230468-2.109375 1.347656l-1.5234375.117187zm34.5117192 14.003906v-2.636718h-4.042969-4.042969v-9.316407-9.316406h-2.109375c-4.6875 0-8.847656.527344-8.847656 1.054688 0 .292968.292968.527343.644531.527343 1.171875 0 1.40625 2.109375 1.40625 12.1875v10.136719h8.554687 8.554688v-2.636719zm11.894531.703125.351562-1.757812 2.695313.117187 2.695312.117188.175782 1.640625.175781 1.640625 4.570312.117187c5.15625.117188 4.921875.292969 3.984375-2.988281-.351562-1.113281-1.347656-4.921875-2.226562-8.496094-.9375-3.574219-1.816406-7.03125-2.050781-7.734375-.175782-.644531-.585938-1.992187-.820313-2.929687l-.46875-1.699219h-7.324219c-7.675781 0-8.320312.175781-6.445312 1.757813.527344.46875.761719.996093.585937 1.40625-.117187.351562-.585937 1.933593-.996093 3.515624-.410157 1.582032-1.113282 4.21875-1.582032 5.917969s-1.230468 4.511719-1.699218 6.269531c-.46875 1.757813-.996094 3.691407-1.113282 4.160157l-.175781.9375 4.628906-.117188 4.628907-.117187zm1.113281-6.386718c0-.9375 1.757812-9.785157 1.992188-10.019532.175781-.175781.644531 1.816407 1.054687 4.453125.410156 2.578125.820312 4.980469.9375 5.273438.175781.410156-.292969.527344-1.875.527344-1.171875 0-2.109375-.117188-2.109375-.234375zm51.210938 4.863281c0-3.164063.058593-3.574219 1.054687-4.511719.585937-.585937 1.113281-.996094 1.171875-.878906.058594.058594 1.289063 2.109375 2.636719 4.511719l2.519531 4.394531h4.628906c2.578125 0 4.628906-.117188 4.628906-.175781 0-.117188-1.933593-3.398438-4.277343-7.324219s-4.277344-7.207031-4.277344-7.324219c0-.117187 2.050781-2.167969 4.570312-4.628906l4.570313-4.453125h-5.332031-5.332032l-3.222656 3.28125-3.222656 3.28125-.117188-3.28125-.117187-3.28125h-5.390625c-3.222656 0-5.449219.175781-5.449219.410156s.46875.820313.996094 1.40625l.996094.996094v10.488281 10.546875h4.453125 4.453125v-3.457031zm48.632812-22.089844c1.816406-1.113281 2.285156-2.226562 2.050781-4.628906-.175781-1.640625-.410156-2.226563-1.347656-2.988282-2.285156-1.816406-5.800781-1.582031-7.441406.585938-.9375 1.171875-1.113282 4.101562-.410157 5.449219.644532 1.230469 2.8125 2.402344 4.453125 2.402344.761719-.058594 1.992188-.410157 2.695313-.820313zm-3.808594-.292969c-2.402343-.46875-3.457031-4.570312-1.582031-6.386719 1.347656-1.347656 2.753906-1.640624 4.21875-.878906 1.464844.761719 2.285156 2.636719 1.992188 4.453125-.46875 2.109375-2.285157 3.222657-4.628907 2.8125zm.292969-2.34375c0-.585937.175781-.996093.351562-.996093.175782 0 .527344.46875.820313.996093.234375.585938.644531.996094.878906.996094.292969 0 .292969-.234375 0-.761719-.585937-1.113281-.527344-1.640625.234375-1.640625.46875 0 .585938-.292969.527344-1.113281-.117188-.996094-.292969-1.113281-2.050781-1.230469l-1.933594-.117187v2.460937c0 1.933594.117188 2.460938.585937 2.460938.351563-.058594.585938-.46875.585938-1.054688zm0-2.695312c0-.644531.234375-.820313.9375-.761719.527344.058594.9375.410156.9375.761719 0 .351562-.410156.644531-.9375.761719-.761719.117187-.9375-.058594-.9375-.761719zm-208.0664062-19.101563c2.578125-2.578125 6.0351562-5.742187 7.6757812-7.089844 2.5195313-1.992187 2.9296875-2.519531 2.7539063-3.339843-.1757813-.761719-.1171875-.878907.46875-.644532 2.578125 1.113282 4.2773437 1.933594 6.3867187 2.871094 1.3476563.644531 8.4375 3.808594 15.8203125 7.148438 7.3828125 3.28125 13.828125 6.269531 14.4140625 6.5625.8789063.46875 1.171875.410156 2.4609375-.644532 3.3398438-2.636718 3.5742188-2.167968-3.3398437-6.796875-10.8984375-7.207031-23.3789063-15.351562-25.078125-16.3476558-3.3398438-1.9335937-1.4648438-1.5234375 3.984375.8203128 3.046875 1.347656 8.1445312 3.515625 11.25 4.863281 3.1054687 1.347656 6.2109375 2.695312 6.9140625 2.988281.6445312.292969 4.3359375 1.933594 8.1445312 3.574219l6.9726563 2.988281 2.109375-1.875 2.109375-1.875-14.4140625-9.316406c-7.9101563-5.15625-15.1757813-9.7851562-16.0546875-10.3125-.8789063-.5273438-1.640625-1.1132812-1.640625-1.2890625 0-.2929687 4.5117187 1.640625 12.7734375 5.4492187 3.8085937 1.7578126 6.7382812 3.046875 6.8554687 3.046875.0585938 0 2.0507813.8789063 4.3359375 1.9921878 2.34375 1.054687 6.328125 2.929687 8.9648438 4.101562l4.7460937 2.167969 1.875-1.347656c.9960938-.703125 1.875-1.464844 1.875-1.582032 0-.175781-10.4882812-7.148437-26.5429687-17.5781245-2.4023438-1.5820313-4.2773438-2.9296875-4.21875-3.046875.1171875-.1171875 1.9335937.6445313 4.1015625 1.640625 2.1679687.9960937 3.984375 1.875 4.0429687 1.875s2.109375.9375 4.5117187 2.0507812c2.4023438 1.1132813 5.3320313 2.4609375 6.4453126 2.9882813 1.1132812.5273437 3.8085937 1.8164062 6.0351562 2.8125 2.2265625 1.0546875 5.7421875 2.6367188 7.8515625 3.5742188 4.1015625 1.8164062 3.8085935 1.8164062 6.9726565 0l1.347656-.7617188-3.574219-2.34375c-3.515625-2.2851562-13.8281248-9.0820312-22.8515623-15-2.578125-1.6992188-4.453125-3.046875-4.21875-3.046875s3.6914063 1.5234375 7.6171875 3.4570312c3.9257813 1.875 7.2070313 3.4570313 7.3242188 3.4570313.0585937 0 2.7539062 1.2890625 5.9765625 2.8125 11.0156245 5.3320313 15.4687495 7.3828125 15.9374995 7.3242187.234375 0 1.289063-.4101562 2.402344-.9375l1.933594-.9375-8.964844-5.859375c-4.921875-3.2226562-11.8359373-7.734375-15.3515623-10.078125-6.8554687-4.5117187-8.5546875-6.09375-3.6914062-3.4570312 1.640625.8789062 9.0234375 4.6875 16.4062495 8.4375 7.382813 3.75 14.003907 7.1484375 14.765625 7.5585937 1.640625.9375 1.640625.9375 3.984375-.0585937l1.933594-.8203125-9.316406-6.1523438c-19.6875-12.9492187-21.6796875-14.296875-21.5039062-14.4726562.1171874-.1171875 2.0507812.8203125 4.3945312 2.0507812 4.277344 2.2265625 11.015625 5.7421875 24.023438 12.421875l7.207031 3.6914063 1.640625-.6445313c.878906-.3515625 1.640625-.7617187 1.640625-.9375 0-.1171875-6.796875-4.7460937-15-10.1953125-8.261719-5.4492187-14.941406-10.0195312-14.824219-10.078125.058594-.0585937 2.226563.9375 4.746094 2.2851563 2.519531 1.3476562 7.324219 3.8671875 10.722656 5.5664062 3.339844 1.7578125 9.023438 4.6875 12.539063 6.6210938 6.386718 3.3984375 6.503906 3.4570312 8.027343 2.9296875.878907-.2929688 1.523438-.6445313 1.523438-.7617188s-3.515625-2.578125-7.792969-5.4492187c-14.179687-9.4921875-21.035156-14.1796875-20.859375-14.3554688.117188-.1171875 1.347656.46875 2.753906 1.2304688 1.40625.7617187 7.675782 3.984375 13.945313 7.2070312 6.269531 3.1640625 12.65625 6.5039063 14.238281 7.3242188 2.695313 1.4648437 2.929688 1.4648437 4.160156.9375.703125-.2929688 1.347657-.6445313 1.347657-.7617188s-2.34375-1.6992187-5.15625-3.5742187c-14.414063-9.4335938-22.089844-14.5898438-21.914063-14.765625.117188-.1171875 1.523438.5273437 3.164063 1.40625 3.222656 1.7578125 8.144531 4.3359375 17.578125 9.2578125 3.339843 1.7578125 7.089843 3.6914062 8.261718 4.3359375 2.109375 1.171875 2.226563 1.171875 3.574219.5273437l1.40625-.6445312-3.398437-2.2851563c-1.875-1.2890625-7.734375-5.2148437-13.007813-8.7890625-5.273437-3.5742187-9.550781-6.5625-9.433594-6.6210937.117188-.1171875 1.582032.5859375 3.339844 1.5820312 1.757813.9375 3.925781 2.109375 4.804688 2.6367188.878906.46875 3.808593 2.0507812 6.503906 3.4570312 2.695312 1.40625 6.152344 3.28125 7.734375 4.1015625 6.914062 3.75 6.914062 3.75 8.261719 3.1640625l1.230468-.5273437-.9375-.703125c-.527343-.4101563-5.742187-3.9257813-11.660156-7.9101563s-11.132812-7.6171875-11.601562-8.0273437l-.820313-.8203125 1.40625.8203125c.761719.46875 3.808594 2.0507812 6.679688 3.5742187 2.929687 1.5234375 6.210937 3.28125 7.324218 3.8671875 1.933594 1.0546875 5.039063 2.7539063 10.605469 5.7421875l2.460938 1.3476563 1.230468-.7617188 1.230469-.7617187-11.777344-7.9101563c-6.445312-4.3359375-11.660156-7.96875-11.601562-8.0273437.117187-.1171875 6.269531 2.8710937 13.710937 6.6210937 13.125 6.5625 13.535157 6.7382813 14.53125 6.1523438.585938-.3515625 1.054688-.7617188 1.113282-.9375.058593-.1757813-4.746094-3.515625-10.664063-7.3828125s-10.664062-7.1484375-10.605469-7.2070313c.058594-.1171875 5.683594 2.6367188 12.480469 5.9765625l12.304687 6.1523438 1.347657-.703125c1.582031-.8203125 1.640625-1.171875.410156-1.9335938-4.160156-2.5195312-8.964844-5.5078125-10.664063-6.5625-1.113281-.703125-3.632812-2.2851562-5.566406-3.4570312-1.933594-1.2304688-3.398437-2.2265625-3.164062-2.34375.175781-.0585938 1.816406.5273437 3.574218 1.2890625 5.625 2.5195312 20.449219 8.7890625 20.800782 8.7890625.175781 0 .761718-.46875 1.230468-.9960938l.9375-.9960937-2.871093-1.6992188c-1.582032-.9375-3.925782-2.2851562-5.214844-2.9882812-7.675781-4.2773438-11.484375-6.5039063-11.308594-6.6796875.175782-.1757813 10.078125 3.28125 12.832032 4.3945312.585937.234375 3.046875 1.171875 5.449218 2.0507813l4.453125 1.5820312 1.171875-1.171875 1.171875-1.171875-9.257812-4.6875c-8.320313-4.21875-9.316406-4.6289062-10.078125-4.1601562-.46875.2929687-1.289063.6445312-1.816407.8203125-1.113281.3515625-1.230468 1.40625.761719-9.0820313.703125-3.8671875 1.230469-7.0898437 1.113281-7.2070312-.117187-.1171875-1.523437.1757812-3.222656.5859375l-2.988281.7617187-.117188 8.5546875-.117187 8.5546875-1.933594.8203125c-1.054687.46875-1.992187.7617188-2.050781.703125-.117188-.1171875.117187-1.6992187 1.875-11.953125 1.113281-6.5625 1.113281-6.6210937.292969-6.3867187-.46875.1171875-1.875.3515625-3.164063.46875l-2.34375.234375-.117187 9.5507812-.117188 9.5507813-1.933594.8203125c-1.054687.4101562-2.050781.703125-2.109375.5859375-.117187-.1171875.058594-1.640625.410157-3.3984375.292968-1.7578125.996093-5.8007813 1.464843-8.90625.46875-3.1054688.996094-6.2109375 1.113282-6.8554688.234375-1.1132812.175781-1.171875-.9375-.9375-.644532.1171875-2.402344.3515625-3.867188.46875l-2.753906.2929688.175781 2.2851562c.351563 3.984375.996094 11.8945313 1.230469 15.1757813l.234375 3.1640625-1.875.8203125c-2.636719 1.1132812-3.046875 1.0546875-2.8125-.5273438.117187-.703125.46875-4.3359375.820312-8.0273437.351563-3.6914063.820313-7.96875.996094-9.5507813.175781-1.5820312.292969-2.8710937.234375-2.9882812-.058594-.0585938-1.582031 0-3.457031.1757812l-3.339844.2929688.234375 3.9257812c.117188 2.1679688.46875 6.5625.703125 9.7851563.761719 10.0195312.9375 8.9648437-1.523437 9.9023437-1.171875.4101563-2.285157.6445313-2.402344.5273438-.117188-.1171875.058594-3.6914063.410156-7.8515625.351563-4.1601563.761719-8.7890625.878906-10.2539063.117188-1.4648437.292969-3.3398437.410157-4.21875l.234375-1.5820312-3.398438.2929687c-1.875.1757813-3.457031.3515625-3.515625.4101563-.058594.0585937.058594 2.2851562.292969 4.921875.644531 6.9726562 1.171875 12.890625 1.464844 16.40625l.234375 3.1054687-2.109375.703125c-1.171875.3515625-2.226563.5859375-2.34375.46875-.117188-.1171875.058593-5.0390625.46875-10.8984375.351562-5.859375.703125-11.5429687.644531-12.65625v-1.9921875l-3.164063.2929688c-1.757812.1757812-3.164062.3515625-3.222656.3515625-.058594.0585937.117188 2.109375.292969 4.5117187.761719 8.3203125 1.171875 12.9492188 1.582031 17.2265625.292969 3.28125.292969 4.3359375-.117187 4.5703125-.820313.5273438-4.453125 1.640625-4.628907 1.40625-.117187-.1171875.117188-4.2773437.410157-9.2578125.351562-4.9804687.703125-11.1914062.878906-13.7695312l.234375-4.6875-3.28125.4101562-3.28125.4101563.234375 1.875c.117187 1.0546875.410156 5.3320312.644531 9.609375.234375 4.21875.527344 9.7265625.644531 12.2460937l.292969 4.5117188-2.519531.8203125-2.519531.8203125v-2.1679688c0-1.2304687.175781-3.984375.410156-6.1523437.234375-2.1679688.703125-7.3828125 1.054687-11.484375.351563-4.1601563.703125-8.1445313.820313-8.8476563.175781-1.2304687.058594-1.3476562-.703125-1.171875-.46875.1171875-2.050781.3515625-3.398438.46875l-2.519531.2929688.175781 4.921875c.117188 2.6953125.292969 9.4921875.410157 15.1171875l.175781 10.1953125-2.519531.8789062c-1.40625.46875-2.578125.7617188-2.636719.703125-.058594-.0585937.058594-1.5820312.292969-3.3398437s.585937-5.0390625.820312-7.265625c.585938-5.859375 1.640625-15 1.992188-18.1054688.175781-1.4648437.292968-2.6953125.175781-2.8125-.058594-.0585937-1.875.0585938-4.042969.3515625l-3.925781.5273438.234375 10.6054687c.117187 5.859375.351562 13.0664063.46875 16.1132813l.234375 5.5078125-2.753906.8789062-2.7539065.8789063.2929687-2.9296875c.1171875-1.640625.46875-4.7460938.703125-6.9726563.2343748-2.2265625.5859378-5.9179687.8203128-8.1445312.996093-10.6640625 1.230468-13.125 1.464843-14.3554688l.234375-1.3476562-1.992187.2929687c-1.1132813.1757813-2.6953125.46875-3.515625.6445313l-1.5234375.4101562v13.5351563c0 7.4414062-.1171875 15.1757812-.234375 17.1679688l-.234375 3.6328125-2.4609375 1.1132812c-1.3476563.6445312-2.5195313 1.0546875-2.6367188.9375s0-1.5234375.234375-3.1640625c.5859375-4.0429687 1.5820313-11.5429687 2.0507813-15.9960937.46875-3.984375.9375-7.734375 1.640625-13.3007813.234375-1.9921875.4101562-3.6328125.2929687-3.75s-1.8164062.234375-3.8085937.7617188l-3.6328125.9375-.3515625 18.3398437-.3515625 18.3398438-2.6367188 1.2890625c-1.4648437.703125-2.6953125 1.2304687-2.8125 1.1132812-.1757812-.1757813-.0585937-.9960937 1.6992188-14.7070313.5859375-4.453125 1.2304687-9.4335937 1.40625-10.9570312.1757812-1.5820312.6445312-5.0390625.9960937-7.6757812.3515625-2.6367188.5273438-4.921875.46875-5.0390626-.1171875-.1171874-2.0507812.4101563-4.2773437 1.1132813-2.9882813.9375-4.1015625 1.4648438-4.1015625 1.9921875-.1171875 6.8554688-1.2304688 37.96875-1.40625 38.203125-.2929688.46875-4.5117188 2.8710938-5.0390625 2.8710938-.1757813 0-.234375-.9375001-.0585938-2.1093751.1757813-1.171875.5273438-3.7499999.7617188-5.8007812.234375-1.9921875.703125-5.390625 1.0546875-7.5.2929687-2.109375.7617187-5.390625.9960937-7.3242188.234375-1.875.5859375-4.6289062.8203125-6.0937499.1757813-1.4648438.5859375-4.21875.8203125-6.0937501.234375-1.8749999.5273438-4.0429687.6445313-4.7460937s.1171875-1.3476563-.0585938-1.3476563c-.1171875 0-2.2265625.8203125-4.6289062 1.875l-4.3945313 1.875-.234375 6.9726563c-.1171875 3.8671875-.3515625 12.9492187-.46875 20.2148437-.234375 14.8242188.1171875 13.2421875-3.6328125 15.5859375-1.0546875.6445313-1.9921875 1.0546875-2.109375.9375-.1171875-.1171874.0585938-2.5195312.4101563-5.2148437.6445312-4.7460937.9960937-7.3242187 1.875-14.4140625.5273437-4.1601563 1.1132812-8.671875 1.8164062-14.1210938.9375-6.9726562 1.171875-9.140625.9375-9.140625-.46875 0-8.3789062 4.1015626-8.6132812 4.453125-.1171875.234375-.4101563 6.2695313-.5859375 13.4765625-.1757813 7.2070313-.46875 16.6992188-.6445313 21.0351563l-.2929687 7.9101562-2.5195313 1.6992188c-1.40625.9375-2.6367187 1.6992187-2.8125 1.6992187-.1757812 0-.1757812-.4101562-.0585937-.9375.1171875-.5273437.4101562-2.4609375.5859375-4.3945312.234375-1.875.5859375-4.9804688.8203125-6.9140625 1.4648437-11.71875 2.7539062-21.8554688 3.2226562-25.3710938.234375-1.5820312.5273438-3.9257812.6445313-5.2734375.3515625-2.8710937.5859375-2.8710937-4.8632813.3515625l-3.8085937 2.2265625-.234375 2.7539063c-.1171875 1.5234375-.4101563 7.1484375-.6445313 12.4804687-.6445312 15.1757813-1.2890625 29.6484375-1.3476562 29.6484375-.0585938 0-1.1132813.8789063-2.34375 1.9335938-1.2890625 1.054687-2.4609375 1.933594-2.6367188 1.933594-.3515625 0 .0585938-3.5156253 3.8671875-33.6328128.9375-7.2070312 1.640625-13.3007812 1.640625-13.5351562 0-.46875-2.7539062 1.1132812-6.9140625 3.984375l-3.1054687 2.109375-.2929688 13.7109375c-.1757812 7.5585937-.4101562 17.34375-.5273437 21.7382812l-.2929688 8.0273433-5.9179687 4.453125c-3.28125 2.460938-6.6796875 5.15625-7.6171875 6.035157-.9375.820312-2.8125 2.519531-4.1601563 3.75l-2.4609375 2.167968v5.039063 5.039062l3.3398438-4.21875c1.9335937-2.226562 5.5078125-6.269531 8.1445313-8.847656zm172.9101562-75.7617185c.585937-.8203125 1.054687-1.5234375.9375-1.5234375-.058594-.0585937-1.054687-.46875-2.167969-.9375-3.398437-1.40625-10.898437-4.8046875-11.894531-5.3320312-1.289063-.703125-.9375-.9375.703125-.46875.761719.234375 3.105469.7617187 5.273438 1.2304687 2.167968.46875 5.214843 1.1132813 6.738281 1.4648438 1.582031.3515625 3.105469.5859375 3.457031.5859375.761719 0 3.046875-3.6328125 2.578125-4.1015626-.175781-.1757812-2.519531-.8789062-5.15625-1.5820312-2.695313-.703125-5.390625-1.5234375-6.09375-1.875-1.113281-.5273437-.644531-.5273437 4.21875-.2929687 9.726563.5273437 9.375.5859375 10.429688-1.2890625 1.523437-2.6953125 1.757812-2.578125-6.269532-3.28125-1.640625-.1171875-2.929687-.4101563-2.929687-.5273438 0-.1757812 1.992187-.5273437 4.394531-.8203125 7.441406-.8789062 7.558594-.8789062 8.320313-2.5195312 1.230468-2.5195313 1.171875-2.578125-3.222657-2.2265625-3.691406.2929687-4.042968.3515625-5.273437 1.5234375-1.640625 1.5820312-1.640625 1.2890624-.46875-4.3359375.46875-2.1679688.761719-4.0429688.644531-4.1601563-.117187-.1171875-1.230469.2929688-2.460937.9375l-2.285157 1.1132813v5.15625 5.15625l-1.875 1.5234375c-.996093.8203125-1.933593 1.4648437-1.992187 1.3476562-.058594-.0585937.351562-2.34375.996094-5.0390625.644531-2.6953125 1.289062-5.4492187 1.40625-6.1523437l.292968-1.2890625-2.929687 1.2890625-2.929688 1.2890625.234375 6.09375.234375 6.09375-1.875 1.1132812c-.996094.6445313-1.875 1.0546875-1.933593.9960938-.058594-.0585938.117187-1.4648438.410156-3.1640625.292969-1.6992188.820312-4.6875 1.171875-6.6796875.351562-1.9921875.527344-3.6914063.410156-3.8085938-.117187-.1171875-1.40625.2929688-2.871094.9375l-2.636718 1.1132813v6.9726562 7.03125l-1.875.9375c-.996094.5273437-1.933594.8789063-1.992188.7617187-.058594-.0585937.234375-1.9921874.644531-4.2187499 1.289063-6.5625 1.992188-10.8984375 1.875-10.9570313-.058593-.0585937-1.40625.2929688-2.929687.8203125l-2.871094.8789063-.117187 7.734375-.117188 7.734375 2.929688.8789062c1.640625.46875 3.398437 1.0546875 3.984375 1.2304688.585937.1757812 3.222656.9960937 5.917968 1.8164062 2.695313.8203125 5.214844 1.640625 5.683594 1.8164062 1.464844.6445313 2.167969.46875 3.28125-.9960937zm11.132812-25.7226563c2.988282-1.0546875 3.574219-1.40625 4.160157-2.578125 1.054687-2.1093749.9375-2.4023437-.703125-1.9335937-.820313.234375-1.816407.3515625-2.34375.2929687-.703125-.1171875-.351563-.4101562 1.582031-1.4648437 1.347656-.703125 2.695312-1.58203125 2.988281-1.93359375.46875-.5859375 2.578125-7.1484375 2.34375-7.3828125-.058593-.05859375-.644531.29296875-1.230469.76171875-.703125.5859375-1.289062 1.5234375-1.523437 2.6953125-.761719 3.33984375-2.578125 5.15625-1.933594 1.93359375.175781-.9375.351563-1.875.351563-2.05078125s-.644532.17578125-1.523438.8203125c-.820312.64453125-1.582031 1.11328125-1.582031 1.171875-.058594 0-.234375 1.46484375-.46875 3.22265625-.292969 2.40234375-.644531 3.39843755-1.289063 4.16015625-.527343.5273438-.996093.9375-1.054687.8203125-.058594-.0585937.234375-1.6992188.644531-3.6914063.410157-1.9335937.644532-3.51562495.527344-3.39843745-.175781.05859375-1.230469.64453125-2.402344 1.34765625l-2.109375 1.2304687v3.9257813 3.9257812l1.113281-.3515625c.527344-.1171874 2.578126-.8203125 4.453125-1.5234375z"/><path d="m168.398437 168.222656c3.75-1.113281 6.152344-4.277343 6.152344-8.203125v-1.347656h-4.6875-4.6875v1.816406c0 2.578125-1.757812 3.984375-3.164062 2.578125-.527344-.527343-.703125-13.066406-.234375-14.296875.117187-.351562.703125-.644531 1.40625-.644531 1.347656 0 1.992187.9375 1.992187 2.8125v1.230469h4.6875 4.6875v-1.347656c0-1.699219-.9375-4.160157-1.875-5.273438-.410156-.46875-1.464844-1.230469-2.402344-1.699219-1.40625-.761718-2.285156-.878906-7.089843-.878906-4.980469 0-5.625.058594-7.089844.9375-3.339844 1.933594-4.394531 4.628906-4.394531 11.484375-.058594 8.027344 1.40625 11.074219 5.859375 12.597656 2.695312.996094 7.910156 1.054688 10.839843.234375zm54.609375-.058594c3.398438-1.171874 5.214844-3.75 5.273438-7.441406.058594-4.101562-1.933594-6.269531-7.207031-7.792968-5.214844-1.523438-6.269532-2.226563-5.683594-3.984376.527344-1.757812 2.929687-1.464843 3.339844.410157l.234375 1.171875h4.394531 4.394531v-1.054688c0-2.636718-2.34375-5.449218-5.214844-6.269531-2.695312-.761719-6.738281-.9375-9.257812-.46875-5.625 1.113281-7.558594 3.222656-7.617187 8.203125-.058594 3.984375 1.113281 5.15625 7.382812 7.265625 4.863281 1.640625 6.09375 2.695313 5.390625 4.570312-.351562.878907-.703125 1.113282-1.640625 1.113282-1.054687 0-1.289062-.175782-1.640625-1.640625l-.410156-1.640625h-4.628906-4.628907v1.464843c0 2.929688 1.523438 4.863282 4.804688 6.035157 2.109375.9375 10.3125.878906 12.714843.058593zm-212.5195307-2.109374.3515624-1.699219h2.4023438c2.578125 0 2.5195313-.058594 2.9296875 2.636719.1171875.761718.46875.820312 5.0976563.9375 2.7539062.058593 4.9804687.058593 4.9804687 0 0-.058594-.2929687-1.113282-.6445313-2.34375-.5273437-1.933594-2.109375-7.910157-4.9804687-18.867188l-.7617188-2.871094-7.7929687-.117187c-7.6171875-.117188-7.79296875-.117188-7.79296875.703125 0 .46875.29296875.820312.64453125.820312 1.40625 0 1.40625.175782-3.6328125 18.691407-.5859375 2.109375-1.0546875 3.925781-1.0546875 3.984375 0 .058593 2.2265625.058593 4.98046875 0l4.98046875-.117188zm1.1132812-6.679688c.0585938-.703125 1.5820312-8.964844 1.6992187-9.082031.1171875-.117188.4101563 1.347656.703125 3.164062.2929688 1.816406.5859375 3.925781.703125 4.6875.234375 1.289063.1757813 1.347657-1.4648437 1.347657-.8789062 0-1.640625-.058594-1.640625-.117188zm34.7460937 5.566406v-2.871094l-3.984375-.117187-3.984375-.117187v-9.140626-9.140624h-5.9179687c-5.4492188 0-5.9179688.058593-5.9179688.761718 0 .410156.46875.9375.9960938 1.230469l.9960937.46875v11.015625 11.015625l8.8476563-.117187 8.8476562-.117188v-2.871094zm20.0976563 0v-3.046875h-4.0429688-4.0429687v-9.140625-9.140625h-5.6835937c-4.9804688 0-5.6835938.058594-5.6835938.644531 0 .351563.46875.996094.9960938 1.464844l.9960937.820313v10.722656 10.722656h8.7304687 8.7304688zm31.9921875 2.285156c2.34375-1.054687 3.339844-2.8125 3.339844-5.800781 0-1.992187-.175782-2.519531-1.113282-3.574219-.585937-.703124-1.8164058-1.464843-2.6367182-1.757812l-1.5234376-.527344 1.640625-.703125c2.1093748-.9375 3.2226568-2.695312 3.2226568-5.214843 0-2.460938-.820313-4.101563-2.5195318-5.039063-1.1132812-.644531-2.6953125-.761719-11.3671874-.878906-9.5507813-.117188-10.078125-.117188-10.078125.585937 0 .410156.3515625.996094.8203124 1.230469.7617188.46875.8203125.9375.8203125 11.484375v10.957031h8.8476563c7.8515625 0 9.0234375-.058593 10.546875-.761719zm-10.0195313-6.738281v-2.226562h1.640625c1.3476563 0 1.6992188.175781 1.9921875.9375.3515625.996093-.1171875 2.753906-.8789062 3.222656-.2929688.175781-.9960938.292969-1.5820313.292969-1.171875 0-1.171875-.058594-1.171875-2.226563zm0-9.550781v-2.050781h1.40625c1.1132813 0 1.5234375.234375 1.875.996094.7617188 1.640625-.1171875 3.046875-1.875 3.046875h-1.40625zm34.5117193 14.003906v-3.046875h-3.867188-3.867188v-9.140625-9.140625h-5.917968c-5.625 0-5.917969.058594-5.917969.820313 0 .46875.175781.820312.351562.820312.234375 0 .644532.292969.996094.644532.527344.527343.644531 2.167968.644531 11.367187v10.722656h8.730469 8.730469v-3.046875zm12.070312 1.347656.351562-1.699218 2.460938-.117188 2.460937-.117187.292969 1.875.292969 1.875h4.863281c3.632813 0 4.863281-.117188 4.863281-.527344 0-.292969-.46875-2.226563-1.054687-4.394531-.585938-2.109375-1.640625-6.210938-2.402344-9.140625-.761719-2.929688-1.699219-6.328125-1.992187-7.617188-.351563-1.289062-.644532-2.460937-.644532-2.519531 0-.117188-3.457031-.175781-7.734375-.175781-6.796875 0-7.734375.058593-7.734375.644531 0 .351563.351563.9375.820313 1.347656.820312.644532.820312.703125-.410156 5.15625-1.640625 6.09375-4.101563 15.234375-4.335938 16.347657-.175781.9375-.175781.9375 4.6875.9375h4.921875zm1.464844-8.144531c1.230468-8.496093 1.523437-8.847656 2.285156-3.574219.234375 1.699219.585937 3.457032.703125 3.984376.234375.820312.117187.9375-1.464844.9375-1.699219 0-1.699219 0-1.523437-1.347657zm50.683593 6.386719c0-3.105469.117188-3.574219.9375-4.511719l.9375-1.054687 2.578125 4.394531 2.578125 4.394531 4.980469.117188c3.925781.117187 4.980469 0 4.980469-.410156 0-.292969-.175781-.703125-.351563-.9375-.175781-.234375-.703125-1.054688-1.171875-1.816407-.410156-.761719-2.109375-3.574219-3.691406-6.152343-1.582031-2.578125-2.988281-4.980469-3.105469-5.273438-.117187-.351562 1.464844-2.226563 4.277344-5.039062 2.460938-2.460938 4.453125-4.570313 4.453125-4.746094 0-.175782-2.460937-.292969-5.390625-.292969h-5.390625l-3.164062 3.222656c-1.757813 1.816407-3.222657 3.222656-3.339844 3.222656-.058594 0-.175781-1.464843-.175781-3.222656v-3.222656h-5.683594c-5.625 0-5.683594 0-5.683594.9375 0 .585937.351563 1.054687.9375 1.347656.9375.410156.9375.410156.996094 11.484375l.117187 11.074219h4.6875 4.6875zm49.101563-22.441406c1.582031-1.171875 2.109375-2.460938 1.933594-4.746094-.117188-1.640625-.410157-2.226562-1.464844-3.105469-1.582031-1.347656-3.28125-1.699218-5.332031-1.171875-4.570313 1.230469-4.980469 7.617188-.644532 9.609375 1.640625.703125 4.160157.46875 5.507813-.585937zm-4.804688-.878906c-.527343-.351563-.527343-.410157.117188-.410157.46875 0 .703125-.351562.703125-.996093 0-1.230469.644531-1.347657.9375-.175782.117188.46875.644531.9375 1.113281 1.054688.644532.175781.761719.292968.351563.585937-.761719.410157-2.460938.410157-3.222657-.058593zm-1.40625-1.464844c-.351562-.996094-.292968-3.164063.175782-3.808594.292968-.410156.410156.117188.410156 1.933594 0 2.578125-.117188 2.988281-.585938 1.875zm4.628907-.234375c-.351563-.703125-.351563-.9375.175781-1.230469.761719-.410156.878906-1.992187.175781-2.695312-.292969-.292969-1.347656-.468751-2.34375-.468751-1.347656 0-1.699219-.117187-1.230469-.410156 1.992188-1.289062 4.863282.46875 4.863282 2.988281 0 2.578126-.761719 3.457032-1.640625 1.816407zm-2.402344-2.8125c0-.234375.351562-.410156.820312-.410156s.820313.175781.820313.410156-.351563.410156-.820313.410156-.820312-.175781-.820312-.410156zm-216.1523438-9.609375c3.8671876-4.980469 10.8398438-12.128906 15.7617188-16.113282 2.109375-1.699218 3.28125-2.988281 3.1640625-3.339843-.1171875-.292969-.0585938-.527344.0585937-.527344.234375 0 19.1015625 8.4375 26.4257813 11.835938 1.40625.644531 3.515625 1.582031 4.6875 2.109375 1.1132812.46875 3.1054687 1.347656 4.3359375 1.992187l2.2265625 1.054688 1.40625-1.113282c.7617187-.644531 1.8164062-1.582031 2.34375-2.109375l.9375-.996093-7.03125-4.628907c-3.8671875-2.519531-10.78125-7.089843-15.3515625-10.078125-4.5703125-2.988281-8.4960938-5.6249997-8.7304687-5.8593747-.234375-.234375.7031249.1171875 2.0507812.7031247 1.3476563.585938 3.515625 1.523438 4.8632813 2.109375 1.3476562.527344 3.3398437 1.40625 4.453125 1.933594 1.1132812.527344 4.0429687 1.816406 6.5039062 2.871094 2.4609375 1.054687 5.0390625 2.167969 5.6835938 2.460937 3.515625 1.582032 9.1992187 3.984375 11.015625 4.746094l2.109375.820313 2.2265625-1.757813c1.2304687-.996094 2.2265625-1.875 2.2851562-1.992187 0-.292969.4101563 0-16.3476562-10.839844-7.0898438-4.5703127-12.8320313-8.3789065-12.7734375-8.496094.1171875-.1171875 27.2460937 12.011719 33.046875 14.765625 1.2890625.585938 1.3476562.585938 3.5742187-1.054687l2.2851563-1.640625-4.8046875-3.105469c-11.1914063-7.2656252-23.9648438-15.7031252-24.3164063-16.1132815-.234375-.234375.1171875-.1171875.8203125.1757813 1.6992187.8789062 7.0898438 3.3398437 11.1914063 5.15625 1.875.8203125 5.2734375 2.4023437 7.5 3.4570312s4.9804687 2.34375 6.09375 2.8710938c1.1132812.5273437 3.515625 1.640625 5.2734375 2.4609374l3.2226567 1.5234378 2.519531-1.3476565c1.40625-.7617187 2.519531-1.4648437 2.519531-1.5820312s-2.460937-1.7578125-5.390625-3.6914063c-4.9804687-3.2226562-13.2421875-8.5546875-19.9804687-12.9492188-2.578125-1.6992187-4.3359375-2.9882812-3.2226563-2.4023437.234375.1171875 1.40625.703125 2.6367188 1.2304687 1.2304687.5859376 4.6289062 2.1679688 7.5 3.515625 2.9296875 1.40625 6.2695312 2.9882813 7.5 3.5742188 1.2304687.5859375 5.3906252 2.578125 9.3164062 4.453125 3.867188 1.875 7.265625 3.3984375 7.5 3.3984375s1.40625-.5273437 2.578125-1.1132812l2.167969-1.1132813-7.03125-4.6289062c-16.8750002-11.1328125-20.449219-13.5351563-20.8593752-13.8867188-.234375-.234375 2.2265625.9375 5.5078124 2.6367188 3.2226563 1.6992187 10.6640628 5.4492187 16.4062498 8.4375l10.546875 5.390625 2.285156-1.1132813c1.992188-.9960937 2.167969-1.171875 1.523438-1.5820312-.410156-.234375-4.628906-3.046875-9.316406-6.1523438-4.746094-3.1054687-10.78125-7.0898437-13.476563-8.8476562-2.695312-1.7578125-4.7460935-3.1640625-4.5703122-3.1640625.1757812 0 2.3437502 1.0546875 4.8632812 2.4023437 2.519531 1.2890625 8.027344 4.1601563 12.304687 6.328125 4.21875 2.1679688 9.433594 4.8632813 11.484376 5.9765625l3.75 1.9921875 1.816406-.8789062c.996094-.46875 1.816406-.9960938 1.816406-1.1132813s-5.800781-4.0429687-12.832031-8.7304687-12.890625-8.671875-13.007813-8.8476563c-.117187-.1757812 1.289063.46875 3.164063 1.4648438 1.875.9960937 5.917969 3.1054687 9.082031 4.7460937 3.105469 1.640625 7.148438 3.75 8.964844 4.6875 1.757812.9375 4.570312 2.4023438 6.210937 3.28125l2.929688 1.5234375 1.640625-.7617187c.878906-.4101563 1.640625-.8789063 1.640625-.9960938s-.527344-.5859375-1.171875-.9375c-1.992188-1.171875-23.378906-15.8203125-24.023438-16.40625-.351562-.3515625.761719.1171875 2.460938.9960938 1.699219.8789062 8.320312 4.2773437 14.824219 7.6171875 6.503906 3.28125 11.953125 6.1523437 12.128906 6.328125.410156.3515625 3.515625-1.0546875 3.457031-1.5820313 0-.1757812-.878906-.8203125-1.933594-1.5234375-3.046875-1.9335937-22.617187-14.8828125-22.851562-15.1171875-.175781-.234375 2.167969.9960938 10.78125 5.5664063 1.582031.8203125 6.210937 3.28125 10.371094 5.390625l7.5 3.8671875 1.289062-.703125c.703125-.3515625 1.347656-.8203125 1.40625-.9960938.058594-.1757812-.820312-.8789062-1.933594-1.640625-8.964844-5.9179687-20.507812-13.828125-20.507812-13.9453125s.585937.1757813 1.347656.5859375c.703125.4101563 2.988281 1.640625 4.980469 2.7539063 1.992187 1.0546875 4.570312 2.4609375 5.683593 3.046875 1.113282.5859375 4.394532 2.34375 7.324219 3.8671875 2.929688 1.5234375 5.449219 2.9296875 5.683594 3.1054687.585938.5273438 1.289062.4101563 2.695312-.4101562l1.230469-.7617188-10.488281-7.03125c-5.742187-3.8671875-10.78125-7.3242187-11.074219-7.6171875-.527343-.5859375-.527343-.5859375 0-.234375.351563.234375 2.8125 1.5820313 5.507813 2.9882813 2.695312 1.40625 5.800781 3.046875 6.914062 3.6328125 2.402344 1.2890625 8.203125 4.3945312 10.664063 5.6835937l1.699218.8789063 1.464844-.8789063c.820313-.46875 1.289063-1.0546875 1.113281-1.2304687-.175781-.1757813-4.921875-3.3398438-10.488281-7.0898438s-10.3125-6.9140625-10.488281-7.0898437c-.175781-.1757813 5.332031 2.5195312 12.246094 5.9765625l12.539062 6.328125 1.289063-.9375c.703125-.5273438 1.230468-1.0546875 1.171875-1.2304688-.058594-.1757812-4.21875-3.046875-9.140625-6.328125-4.980469-3.28125-8.964844-6.0351562-8.90625-6.1523437.058594-.0585938 4.921875 2.2851562 10.78125 5.2148437l10.664062 5.3320313 1.640625-1.1132813 1.699219-1.1132812-1.757813-1.1132813c-4.980468-3.1640625-15.117187-9.375-16.230468-9.9609375-.703125-.3515625-1.230469-.7617187-1.113282-.8203125.175782-.1171875 8.90625 3.515625 15.117188 6.2695313.878906.4101562 2.871094 1.2304687 4.394531 1.875l2.753906 1.171875 1.289063-1.2890625c.703125-.703125 1.171875-1.3476563 1.113281-1.4648438-.234375-.234375-15.410156-8.8476562-16.757812-9.4921875-1.640625-.8203125-1.347657-.9960937.410156-.2929687.820312.3515625 5.566406 2.0507812 10.429687 3.8671875l8.906251 3.28125 1.406249-1.40625 1.40625-1.40625-3.808593-1.9921875c-2.109375-1.1132813-5.566407-2.8710938-7.734375-3.984375-2.167969-1.1132813-3.867188-2.109375-3.75-2.1679688.058593-.0585937 2.871093.703125 6.152343 1.7578125 3.339844 1.0546875 7.265625 2.2851563 8.789063 2.7539063 1.523437.46875 2.8125.7617187 2.871094.703125.058593-.1171875.644531-.8789063 1.230468-1.6992188.585938-.8203125 1.113282-1.5820312 1.113282-1.6992187s-.9375-.5859375-2.109375-1.1132813c-1.171875-.5273437-2.871094-1.2304687-3.75-1.640625-.878907-.4101562-3.105469-1.40625-4.863282-2.1679687-1.816406-.8203125-3.105468-1.4648438-2.988281-1.4648438.117188 0 2.636719.5273438 5.507813 1.171875 7.617187 1.6992188 10.3125 2.2265625 10.429687 2.0507813.820313-.9960938 2.695313-4.0429688 2.695313-4.3359375 0-.234375-2.167969-.9960938-4.746094-1.6992188-7.207031-1.9921875-7.324219-2.0507812-2.34375-1.8164062 2.460937.1171875 5.449219.2929687 6.679687.46875l2.226563.234375 1.171875-2.34375c1.40625-2.8125 1.347656-2.8710938-3.164063-3.28125-5.214843-.46875-5.15625-.8203125.234375-1.3476563 2.753907-.2929687 5.15625-.5859375 5.332032-.703125.46875-.2929687 1.933593-3.28125 1.933593-3.984375 0-.5273437-.46875-.5859375-3.339843-.3515625-1.816407.1757813-3.28125.1757813-3.164063.0585938.117188-.1171875 1.640625-.703125 3.457031-1.3476563 3.984375-1.3476562 4.921875-1.9335937 5.15625-3.1640625.117188-.5273437.351563-1.2890625.527344-1.6992187.292969-.703125.175781-.7617188-1.699219-.5273438l-1.992187.2929688 2.34375-1.3476563c2.285156-1.2890625 2.34375-1.40625 3.339844-4.39453125.527343-1.69921875 1.113281-3.69140625 1.289062-4.39453125l.292969-1.34765625-1.640625 1.34765625c-1.171875.9375-1.757813 1.7578125-1.933594 2.8125-.117187.8203125-.527344 1.93359375-.820312 2.4609375-.527344.9375-.585938.9375-.351563-.9375.117188-1.0546875.117188-1.93359375.058594-1.93359375-.117188 0-.996094.5859375-1.992188 1.2890625l-1.816406 1.2890625-.292969 3.1640625c-.234375 2.40234375-.46875 3.33984375-1.113281 3.92578125-.761719.703125-.820312.703125-.585937-.0585937.117187-.46875.410156-1.6992188.703125-2.8710938.234375-1.11328125.527343-2.34375.644531-2.75390625.292969-1.0546875-.234375-.87890625-3.046875.76171875l-2.519531 1.4648438v4.1601562c0 3.8671875-.058594 4.21875-.996094 5.0976563-1.289063 1.171875-1.289063.9375-.175781-4.21875.46875-2.1679688.703125-4.1015625.585937-4.21875-.117187-.1171875-1.40625.3515625-2.871093 1.171875l-2.636719 1.40625v5.15625 5.15625l-1.699219 1.3476562c-1.347656 1.0546875-1.640625 1.171875-1.464844.5273438.117188-.4101563.527344-2.0507813.878906-3.6328125.351563-1.5820313.9375-3.984375 1.289063-5.4492188.351563-1.40625.527344-2.6367187.46875-2.7539062-.117188-.1171875-.703125.1171875-1.347656.4101562-.644531.2929688-2.050781.9960938-3.164063 1.4648438l-1.992187.8789062.292969 6.0351563.292968 6.0351562-1.582031.9960938c-.878906.5273437-1.582031.9960937-1.640625.9375 0-.0585938.175781-1.40625.46875-3.1054688.292969-1.6992187.820313-4.6875 1.171875-6.6796875.351563-1.9921875.585938-3.6914062.46875-3.8085937s-1.582031.3515625-3.28125.9960937l-3.105469 1.171875v6.9726563 6.9726562l-1.464844.8789063c-.820312.46875-1.523437.8203125-1.640624.703125-.117188-.1171875 0-.9960938.234375-1.9921875.820312-3.6914063 2.519531-13.0078125 2.402343-13.1835938-.117187-.0585937-1.640625.3515625-3.515625.9375l-3.339843 1.1132813v7.734375 7.734375l-1.464844.703125c-.820313.4101562-1.582032.5859375-1.640625.5273437-.117188-.1171875.292969-2.6953125.878906-5.8007812 1.816406-9.4921875 1.992188-10.3125 1.757813-10.4882813-.234375-.234375-6.09375 1.171875-6.796875 1.640625-.292969.1757813-.46875 2.9882813-.46875 8.6132813v8.0273437l-1.40625.703125c-.761719.3515625-1.523438.5859375-1.640625.46875-.117188-.1171875.058593-1.7578125.410156-3.6328125 1.289062-7.3242187 2.34375-14.1796875 2.226562-14.3554687-.117187-.1171875-.996093 0-1.992187.1757812-.996094.1757813-2.519531.46875-3.339844.5859375l-1.523437.234375v9.4921875 9.4921875l-1.699219.6445312c-.9375.3515625-1.757813.6445313-1.816406.5273438-.058594-.0585937.46875-3.9257812 1.230468-8.6132812 1.992188-12.65625 1.933594-11.6601563 1.113282-11.4257813-.351563.1171875-1.992188.2929688-3.515625.46875-4.21875.4101563-4.160157.3515625-3.984375 2.34375.527343 5.7421875 1.347656 16.6992188 1.347656 17.6953125 0 1.0546875-.234375 1.2890625-1.875 1.875-.996094.4101563-1.875.6445313-1.933594.5859375-.117187-.1757812.234375-4.453125 1.171875-14.0625.410156-4.1015625.644531-7.5.585938-7.5585937-.292969-.2929688-6.796875.3515625-7.089844.6445312-.234375.234375.644531 13.8867188 1.289062 20.2734375l.234375 2.2851563-1.757812.703125c-.996094.3515625-1.933594.703125-2.109375.703125-.351563 0-.234375-2.34375.9375-15.5859376.410156-4.4531249.585937-8.1445312.46875-8.2031249-.117188-.0585938-1.757813 0-3.691406.1171874l-3.398438.2929688.058594 1.640625c0 .8789063.234375 3.984375.527344 6.796875 1.113281 12.4804688 1.347656 15.4101563 1.171875 15.8789063-.234375.5859375-3.105469 1.6992187-3.457032 1.3476562-.117187-.1171875.058594-5.8007812.46875-12.65625.410157-6.796875.644532-12.4804687.527344-12.5976562-.117187-.1171875-1.757812-.0585938-3.632812.1171875l-3.398438.3515625.117188 2.2265625c.058593 1.2304687.585937 6.9140625 1.113281 12.5976562.527344 5.6835938.996094 10.6640625.996094 11.015625 0 .4101563-.761719.8789063-2.109375 1.2890625-1.171875.3515625-2.167969.5859375-2.285157.5273438-.175781-.1757813.644532-14.6484375 1.40625-24.3164063l.234375-3.2226562-3.398437.2929687c-1.875.1757813-3.457031.3515625-3.574219.4101562-.117187.0585938-.058594 2.2851563.058594 4.921875.996094 16.6406251 1.171875 19.6289063 1.171875 21.5039063v2.109375l-1.699219.46875c-.9375.234375-1.933594.5859375-2.226562.703125-.351563.1171875-.410157-.1757812-.292969-1.1132812.117187-.7617188.351562-3.984375.644531-7.265625.234375-3.2226563.703125-8.6132813 1.054688-11.953125.292968-3.3398438.585937-6.796875.585937-7.6757813v-1.640625l-2.871094.2929688c-1.582031.1757812-3.164062.4101562-3.515625.5273437-.527343.234375-.585937 1.9921875-.46875 15.234375l.175782 15-1.992188.7617188c-1.113281.4101562-2.050781.703125-2.167969.6445312-.058593-.0585937.058594-1.6992187.292969-3.5742187s.585938-5.3320313.878906-7.6757813c.234375-2.34375.703125-6.4453125.996094-9.140625s.703125-6.2695312.820313-8.0273437c.292968-3.6328125.761718-3.3984375-4.6875-2.578125l-3.457032.5273437.058594 6.8554688c.058594 3.8085937.175781 11.015625.351563 16.0546875l.234375 9.1992187-2.285157.8203125-2.285156.8203125v-1.171875c0-.6445313.46875-5.6835937 1.054688-11.25.585937-5.5078125 1.230468-12.0703125 1.40625-14.53125.234375-2.4609375.527343-4.9804687.644531-5.625l.234375-1.171875-1.757813.2929688c-.996093.1757812-2.753906.46875-3.925781.703125l-2.109375.4101562v17.1679687 17.1679688l-2.4609375 1.0546875-2.4609375 1.0546875.234375-1.6992187c.1171875-.9375.4101563-3.1054688.5859375-4.7460938.9375-7.734375 2.9296875-23.6132812 3.28125-26.0742187.234375-1.5234375.4101563-2.9296875.4101563-3.2226563 0-.5859375-2.6953125-.2929687-6.2109375.703125l-2.34375.6445313v10.8398437c0 5.9765625-.1171875 14.1796875-.2929688 18.2226563l-.2929687 7.3828125-2.2265625 1.2304687c-1.2304688.703125-2.2851563 1.171875-2.4023438 1.0546875s.1757813-3.1640625.6445313-6.8554687c.46875-3.6328125 1.0546875-8.0273438 1.2304687-9.6679688.234375-1.6992187.9375-7.265625 1.5820313-12.3632812.6445312-5.15625 1.1132812-9.4335938 1.0546875-9.4921875-.1757813-.1757813-7.8515625 2.1679687-8.6132813 2.6953125-.3515625.234375-.6445312 5.625-.9960937 19.6289062l-.5273438 19.2773438-2.2265625 1.3476562c-2.5195312 1.5234375-2.9882812 1.640625-2.6953125.5859375.1171875-.4101562.4101563-2.1679687.6445313-3.984375.5273437-4.1015625.9960937-7.4414062 2.2851562-16.875 2.109375-15.0585937 2.578125-19.21875 2.4023438-19.453125-.1757813-.1757812-4.1015625 1.40625-7.5 2.9882813l-2.2851563 1.0546875-.2929687 7.6171875c-.1171875 4.21875-.2929688 10.1953125-.2929688 13.3007812 0 3.1054688-.1171875 8.8476563-.2929687 12.7148438l-.2929688 7.03125-1.2890625.7617187c-.703125.4101563-1.8164062 1.1132813-2.4609375 1.5234375l-1.171875.7617188.234375-1.9921875c.1171875-1.1132813 1.171875-9.3164063 2.2851563-18.28125 1.171875-8.9648438 2.2851562-17.6953125 2.5195312-19.453125s.2929688-3.28125.234375-3.3984375c-.1171875-.1171875-2.2851562.8789062-4.921875 2.1679687l-4.6875 2.34375v2.0507813c0 3.4570312-.7617187 29.3554687-1.0546875 35.0976562l-.234375 5.390625-2.2851562 1.640625c-1.2304688.8789063-2.2851563 1.5820313-2.34375 1.5234375-.0585938-.0585937.1757812-2.0507812.46875-4.3945312.2929687-2.34375.7617187-5.9179688.9960937-7.9101563.7617188-6.3867187 1.1132813-9.140625 2.2265625-17.4609375 1.40625-10.4882812 1.9335938-15.2929687 1.7578125-15.46875-.1757812-.1757812-8.671875 4.7460938-9.2578125 5.2734375-.3515625.3515625-.9960937 11.3085938-1.9921875 35.9179688l-.3515625 8.7304687-2.1679687 1.9335938c-2.2265625 1.9921877-2.8710938 2.3437497-2.578125 1.4648437.1171875-.292969.3515625-2.1679687.5859375-4.1601562.5273437-4.6289063 1.2304687-10.4882813 3.1054687-24.7851563.5859375-4.453125 1.2304688-9.4921875 1.40625-11.1914062.234375-1.6992188.5273438-3.9257813.6445313-4.9804688.1757812-1.171875.1171875-1.9335937-.1171875-1.9335937s-2.578125 1.4648437-5.2734375 3.2226562l-4.921875 3.2226563-.234375 2.578125c-.1171875 1.40625-.3515625 8.4960937-.46875 15.7617187s-.3515625 15.9960938-.46875 19.3945313l-.2929688 6.2109377-2.6953125 1.875c-3.9257812 2.8125-10.3710937 7.96875-14.1796875 11.425781l-3.3398437 3.046875v5.390625c0 2.988281.0585937 5.390625.1171875 5.390625.0585937-.058594 1.6406249-1.992187 3.5156249-4.394531z"/></g></svg>