<svg xmlns="http://www.w3.org/2000/svg" viewBox="0 0 767.91 157.49"><g data-name="RugbyDB Logo" stroke="#fff" stroke-miterlimit="10" stroke-width="5"><path d="M548.58 151.49L571.65 6h37.05c12.42 0 27.36.39 37.37 6.79 12 7.76 11.83 21.93 9.55 35.89l-10.13 64.61c-2.46 14.55-8.67 25.22-19.62 31.42-9.8 5.82-20.84 6.79-31.31 6.79zm38.34-26.19c22.53 1.56 24.31-7.76 26.69-27.16l7.7-47.53c2.42-17.07-3-18-19.72-18.43zm72.45 26.17L679.9 6h44.23c25.81 0 44.92 8.35 40.7 37.64C763 56.41 756.75 67.85 744 74.25v.39c14.28 8.93 16.49 16.69 13.82 34.73-4.2 29.49-22.58 42.1-50.32 42.1zm37.89-26.19c17.06-.39 24.08.77 26.89-18.82 2.32-16.88-7.37-16.49-21.94-17.07zM706 63.2c15.09-1 21.92 0 24.42-17.27 2-14.36-8-13.77-20.08-13.77z" fill="#162c53"/><g fill="#c42033"><path d="M37.12 151.48H3L28.59 6h49.85c27.94 0 40 11.25 34.92 40.15-2.71 15.5-8.36 26.56-23.86 33.16l-.19.38c9.12 2.14 14.74 8.74 13.58 18.82-1 11.64-5.24 36.67-5 46a11.3 11.3 0 002.53 5l-.39 1.95h-37.3a24 24 0 01-.39-8.35c1.55-12.8 4.46-24.83 5-33.75s-1-14.75-8.93-15.33h-11.2zm14.75-83.62h11.64c9.89 0 13.77-9.12 15.32-18 3.11-17.27-3.88-18-20.76-17.66zM137.09 6h34.14l-19.4 109.8c-1.16 7 0 13 9.7 13 8.93 0 13-7.76 14-14L194.71 6h34.14l-18.62 105.32C206 136 191.6 155 156.68 155c-28.9 0-43.45-13.78-38.21-43.65zM292.3 151.69l.55-13h-.39c-9.09 12.41-17.37 16.3-32.11 16.3-28.91 0-35.08-20-30.88-46.37l9.43-59.75C244 17.24 260.79 2.5 292 2.5c29.1 0 44.45 12.42 39.73 42.1L330 55.46h-34.14l1.41-8c1.92-12.42 1.23-18.63-7.7-18.82-10.67-.19-14.26 5.63-15.64 15.13l-11.55 72c-1.22 8.15 1.78 13 10.7 13 11.64 0 13.42-9.31 15-18.62l1.74-11.45H277.6l4.2-26.19h46.37l-12.59 79.16z"/><path d="M335.64 151.47L356.17 6h44.24c25.8 0 44.91 8.34 40.69 37.63-1.88 12.81-8.08 24.25-20.85 30.66v.39c14.28 8.92 16.49 16.68 13.82 34.72-4.2 29.49-22.58 42.1-50.32 42.1zm37.89-26.19c17.06-.39 24.08.78 26.89-18.82 2.32-16.88-7.36-16.49-21.93-17.07zm8.7-62.08c15.1-1 21.92 0 24.42-17.27 2-14.35-8-13.77-20.07-13.77z" data-name="B"/><path d="M498.44 53.51h.39L522.14 6h34.15l-45.44 84.37-7.66 61.11H469l7.67-61.11L452.69 6h34.53z"/></g></g></svg>