<?xml version="1.0" encoding="UTF-8" standalone="no"?>
<!-- Generator: Adobe Illustrator 14.0.0, SVG Export Plug-In . SVG Version: 6.00 Build 43363)  -->

<svg
   xmlns:ns="http://ns.adobe.com/SaveForWeb/1.0/"
   xmlns:dc="http://purl.org/dc/elements/1.1/"
   xmlns:cc="http://creativecommons.org/ns#"
   xmlns:rdf="http://www.w3.org/1999/02/22-rdf-syntax-ns#"
   xmlns:svg="http://www.w3.org/2000/svg"
   xmlns="http://www.w3.org/2000/svg"
   xmlns:sodipodi="http://sodipodi.sourceforge.net/DTD/sodipodi-0.dtd"
   xmlns:inkscape="http://www.inkscape.org/namespaces/inkscape"
   version="1.1"
   id="Layer_1"
   x="0px"
   y="0px"
   width="700"
   height="600"
   viewBox="0 0 700 600"
   enable-background="new 0 0 800 800"
   xml:space="preserve"
   inkscape:version="0.48.1 "
   sodipodi:docname="Rugby_Union_of_Russia.svg"><defs
   id="defs3069" /><sodipodi:namedview
   pagecolor="#ffffff"
   bordercolor="#666666"
   borderopacity="1"
   objecttolerance="10"
   gridtolerance="10"
   guidetolerance="10"
   inkscape:pageopacity="0"
   inkscape:pageshadow="2"
   inkscape:window-width="1280"
   inkscape:window-height="706"
   id="namedview3067"
   showgrid="false"
   inkscape:zoom="0.36375"
   inkscape:cx="400"
   inkscape:cy="400"
   inkscape:window-x="-8"
   inkscape:window-y="-8"
   inkscape:window-maximized="1"
   inkscape:current-layer="Layer_1" />
<metadata
   id="metadata3029">
	<ns:sfw>
		<ns:slices />
		<ns:sliceSourceBounds
   x="80"
   y="138.546"
   width="640"
   height="521.454"
   bottomLeftOrigin="true" />
	</ns:sfw>
<rdf:RDF><cc:Work
     rdf:about=""><dc:format>image/svg+xml</dc:format><dc:type
       rdf:resource="http://purl.org/dc/dcmitype/StillImage" /></cc:Work></rdf:RDF></metadata>
<g
   id="g3031"
   transform="translate(-46.487973,-100)">
	<path
   clip-rule="evenodd"
   d="m 398.633,322.668 -3.043,2.118 -2.754,2.343 -7.484,5.016 -7.204,4.461 -7.484,3.953 -7.195,3.68 -7.492,3.175 -7.477,2.356 -7.203,2.105 -7.199,1.575 4.414,0.261 h 4.445 l 4.414,-0.261 4.723,-0.5 4.703,-0.801 4.723,-1.317 4.98,-1.332 4.984,-1.843 5.004,-2.078 4.981,-2.106 4.976,-2.648 4.985,-2.883 4.722,-3.18 4.981,-3.418 4.703,-3.418 4.715,-3.941 4.414,-4.231 4.164,-4.183 4.172,-4.219 3.594,-4.484 3.32,-4.188 3.313,-4.492 2.789,-4.723 2.477,-4.492 2.227,-4.48 1.934,-4.461 1.664,-4.481 1.406,-4.453 1.109,-4.215 0.551,-4.496 0.535,-4.183 v -3.957 l -1.375,4.218 -1.66,4.199 -1.941,4.481 -1.949,4.215 -0.273,0.5 v 0.277 l -3.32,5.797 -3.609,6.055 -3.875,5.797 -4.414,5.757 -4.723,5.801 -5.266,5.524 -5.539,5.527 -5.824,5.281 -2.754,2.356 -3.065,2.636 z m 0,0"
   id="path3033"
   inkscape:connector-curvature="0"
   style="fill:#1f1a17;fill-rule:evenodd" />
	<path
   clip-rule="evenodd"
   d="m 338.801,305.297 -2.473,-2.117 -2.23,-2.078 -2.223,-2.375 -1.937,-2.105 -1.653,-2.383 -1.66,-2.375 -3.891,5.793 -3.605,5.785 -3.313,6.074 -2.789,5.777 -2.476,6.075 -1.938,5.761 -1.402,5.528 -1.098,5.785 1.371,1.851 1.661,1.84 2.511,2.383 2.75,2.098 2.793,1.843 3.024,1.313 3.32,1.34 3.359,1.039 3.586,0.801 3.61,0.5 7.199,-1.575 7.203,-2.105 7.477,-2.356 7.492,-3.175 7.195,-3.68 7.484,-3.953 7.204,-4.461 7.484,-5.016 -5.828,-0.507 -5.817,-1.067 -6.113,-1.308 -5.812,-1.84 -3.606,-1.313 -3.32,-1.34 -3.317,-1.566 -3.32,-1.574 -3.043,-1.582 -3.062,-1.836 -3.047,-1.844 -2.774,-1.836 -2.48,-2.117 -2.496,-2.102 z m 0,0"
   id="path3035"
   inkscape:connector-curvature="0"
   style="fill:#d92827;fill-rule:evenodd" />
	<path
   clip-rule="evenodd"
   d="m 415.813,306.868 5.266,-5.524 4.723,-5.801 4.414,-5.757 3.875,-5.797 3.609,-6.055 3.32,-5.797 -0.289,-0.277 v -0.262 l -2.758,1.063 -3.035,0.781 -3.07,0.801 -3.023,0.535 -3.043,0.261 -3.352,0.512 h -3.32 -3.316 -3.598 l -3.313,-0.273 -3.613,-0.239 -3.594,-0.796 -3.605,-0.539 -3.598,-0.77 -3.605,-1.074 -3.879,-1.035 -3.594,-1.305 -3.605,-1.602 -3.594,-1.574 -3.328,-1.582 -3.344,-1.836 -3.043,-1.844 -3.031,-2.113 -2.789,-2.105 -4.157,3.445 -4.14,3.418 -3.602,3.156 -3.597,3.414 -3.61,3.68 -3.34,3.418 -3.043,3.418 -3.043,3.68 -2.769,3.679 -2.754,3.692 1.66,2.375 1.653,2.383 1.937,2.105 2.223,2.375 2.23,2.078 2.473,2.117 2.496,2.102 2.48,2.117 2.774,1.836 3.047,1.844 3.062,1.836 3.043,1.582 3.32,1.574 3.317,1.566 3.32,1.34 3.606,1.313 5.812,1.84 6.113,1.308 5.817,1.067 5.828,0.507 2.754,-2.343 3.043,-2.118 3.063,-2.636 2.754,-2.356 5.824,-5.281 5.538,-5.527 z m 0,0"
   id="path3037"
   inkscape:connector-curvature="0"
   style="fill:#2691d0;fill-rule:evenodd" />
	<path
   clip-rule="evenodd"
   d="m 394.492,272.934 3.598,0.77 3.605,0.539 3.594,0.796 3.613,0.239 3.313,0.273 h 3.598 3.316 3.32 l 3.352,-0.512 3.043,-0.261 3.023,-0.535 3.07,-0.801 3.035,-0.781 2.758,-1.063 h 0.289 l 0.273,-0.238 1.949,-4.215 1.941,-4.481 1.66,-4.199 1.375,-4.218 -0.281,-3.415 -0.531,-3.453 -0.84,-3.41 -0.82,-3.152 -1.41,-2.883 -1.66,-2.91 -1.945,-2.879 -2.184,-2.383 -1.66,-1.836 -2.23,-1.582 -4.152,0.539 -4.449,0.504 -4.699,0.801 -4.449,0.773 -4.691,1.34 -4.695,1.305 -4.727,1.836 -4.703,1.844 -4.723,1.851 -4.699,2.379 -4.727,2.344 -4.699,2.637 -4.687,2.882 -4.723,2.914 -4.703,3.157 -4.449,3.414 2.789,2.105 3.031,2.113 3.043,1.844 3.344,1.836 3.328,1.582 3.594,1.574 3.605,1.602 3.594,1.305 3.879,1.035 3.604,1.074 z m 0,0"
   id="path3039"
   inkscape:connector-curvature="0"
   style="fill:#ffffff;fill-rule:evenodd" />
	<path
   clip-rule="evenodd"
   d="m 568.188,323.204 -5.004,2.617 -4.98,2.906 -4.426,2.617 -4.152,2.918 -3.883,2.883 -3.594,3.148 -3.32,2.903 -3.605,3.156 -3.32,3.68 -3.594,3.957 -3.352,4.215 -3.594,4.46 -3.047,4.758 -3.317,4.985 -3.063,4.992 -3.039,5.258 -2.754,5.293 -2.52,5.515 -2.5,5.539 -1.934,5.254 -1.949,5.524 -1.66,5.526 -1.367,5.263 -1.387,5.258 -1.094,5 -1.121,4.75 -1.387,8.937 -0.84,7.898 -0.531,6.575 v 4.754 3.14 1.043 l 0.258,-1.043 0.84,-2.879 1.383,-4.754 1.93,-6.054 2.5,-7.375 3.316,-8.138 4.172,-8.94 4.695,-9.211 2.789,-4.754 2.754,-4.724 2.781,-4.754 3.32,-4.461 3.043,-4.48 3.32,-4.453 3.605,-4.231 3.34,-3.941 6.926,-7.91 6.914,-6.844 6.637,-6.317 6.102,-4.996 6.113,-5.254 7.203,-5.523 8.012,-5.793 9.141,-5.535 4.715,-2.637 4.703,-2.625 4.977,-2.637 5.02,-2.375 5.246,-2.359 5.27,-2.098 5.254,-1.843 5.266,-1.836 10.52,-3.156 9.703,-2.383 9.141,-2.098 8.051,-1.32 6.637,-1.063 4.973,-0.773 3.352,-0.262 1.094,-0.273 h -1.094 l -3.352,-0.266 -5.246,-0.535 -6.641,-0.508 -8.336,-0.262 h -9.387 l -5.266,0.262 -5.543,0.266 -5.535,0.515 -5.824,0.528 -5.832,0.8 -6.094,1.036 -5.824,1.054 -6.074,1.602 -6.113,1.574 -5.813,2.106 -6.086,2.078 -5.543,2.113 -5.543,2.379 -5.536,2.638 z m 0,0"
   id="path3041"
   inkscape:connector-curvature="0"
   style="fill:#1f1a17;fill-rule:evenodd" />
	<path
   clip-rule="evenodd"
   d="m 441.02,377.399 -4.98,1.074 -5.535,1.043 -5.543,1.063 -5.543,0.773 -5.543,0.801 -5.828,0.261 -11.363,0.52 h -11.332 l -11.086,-0.277 -10.52,-0.504 -9.426,-0.539 -8.605,-0.532 -4.418,-0.503 -4.723,-0.262 h -5.265 l -5.536,0.262 -5.824,0.503 -6.066,0.809 -6.399,1.043 -6.347,1.336 -6.672,1.562 -6.356,1.844 -6.386,2.11 -6.356,2.351 -6.113,2.91 -5.82,2.879 -5.536,3.417 -5.253,3.692 -4.993,3.683 -4.156,3.685 -4.141,3.948 -3.339,3.957 -3.043,3.681 -2.754,3.683 -2.504,3.688 -1.938,3.418 -3.043,6.319 -1.941,5 -1.402,3.418 -0.258,1.595 0.82,-1.332 2.223,-2.888 3.601,-3.68 4.973,-4.75 2.789,-2.359 3.043,-2.637 3.594,-2.375 3.609,-2.625 4.156,-2.371 4.161,-2.104 4.703,-2.114 4.968,-1.566 5.02,-1.582 5.254,-1.573 5.543,-1.063 5.543,-1.051 5.535,-0.8 5.543,-0.504 5.266,-0.263 5.543,-0.276 h 5.531 l 4.988,0.276 4.973,0.263 4.73,0.504 9.137,0.8 9.398,0.809 4.723,0.242 h 4.98 l 5.266,-0.242 5.543,-0.269 5.813,-0.54 5.824,-0.8 6.105,-0.767 6.074,-1.069 6.387,-1.313 6.352,-1.574 6.395,-1.573 6.066,-2.106 6.113,-2.108 6.105,-2.384 5.813,-2.617 5.801,-2.637 5.539,-2.886 5.008,-3.153 4.695,-3.176 4.156,-3.14 4.141,-3.418 3.352,-3.184 3.043,-3.152 2.754,-3.145 4.441,-5.535 2.781,-4.48 1.66,-2.879 0.25,-1.07 -0.523,1.07 -2.508,2.105 -4.164,3.157 -5.543,3.418 -3.594,2.097 -3.609,1.844 -4.137,1.844 -4.152,1.847 -4.703,1.571 -5.005,1.572 z m 0,0"
   id="path3043"
   inkscape:connector-curvature="0"
   style="fill:#1f1a17;fill-rule:evenodd" />
	<path
   clip-rule="evenodd"
   d="m 150.414,311.079 3.883,-5.782 4.164,-5.535 3.891,-5.262 4.125,-4.714 3.601,-4.493 3.883,-4.218 3.594,-4.196 3.883,-4.218 4.449,-4.481 4.414,-4.715 5.012,-4.758 5.253,-4.996 5.539,-4.718 5.833,-4.762 6.074,-4.715 6.383,-4.754 6.355,-4.461 6.672,-4.219 6.637,-4.218 6.925,-3.692 7.204,-3.679 6.914,-3.157 8.605,-3.679 8.578,-3.153 8.043,-2.906 8.02,-2.375 7.203,-1.844 6.945,-1.574 6.363,-1.043 5.536,-1.074 -1.375,3.953 -0.848,3.957 -0.813,3.68 -0.57,3.953 -0.84,7.906 v 7.91 l 0.274,7.098 0.566,6.832 0.844,6.324 1.101,5.531 1.098,5.258 1.121,4.453 -4.441,5.02 -3.875,5.262 -3.61,5.254 -3.027,5.257 -2.789,5.27 -2.481,5.523 -1.933,5.258 -1.383,5.02 -1.129,5.254 -0.531,4.996 v 4.757 l 0.254,4.723 0.84,4.211 1.097,4.461 0.852,1.848 1.094,2.105 1.129,1.844 1.093,1.836 1.098,-5.785 1.402,-5.528 1.938,-5.761 2.476,-6.075 2.789,-5.777 3.313,-6.074 3.605,-5.785 3.891,-5.793 2.754,-3.692 2.769,-3.679 3.043,-3.68 3.043,-3.418 3.34,-3.418 3.61,-3.68 3.597,-3.414 3.602,-3.156 4.14,-3.418 4.157,-3.445 4.449,-3.414 4.703,-3.157 4.723,-2.914 4.687,-2.882 4.699,-2.637 4.727,-2.344 4.699,-2.379 4.723,-1.851 4.703,-1.844 4.727,-1.836 4.695,-1.305 4.691,-1.34 4.449,-0.773 4.699,-0.801 4.449,-0.504 4.152,-0.539 -3.063,-2.097 -3.602,-1.856 -3.883,-1.562 -3.852,-1.317 -4.445,-0.801 -4.441,-0.539 h -4.414 l -4.73,0.278 -4.977,0.523 -4.98,0.781 -4.973,1.075 -5.266,1.562 -5.293,1.856 -5.254,2.097 -5.261,2.383 -4.977,2.617 -1.66,3.141 -1.129,2.914 -0.531,2.879 v 2.644 l 0.277,2.379 0.543,2.078 0.84,1.852 0.531,1.324 0.289,0.277 v 0.243 l -0.547,-0.52 -0.836,-1.062 -1.386,-1.844 -1.371,-2.348 -1.129,-2.906 -0.532,-1.578 -0.285,-1.574 -0.277,-1.844 -0.289,-1.574 -1.371,0.773 -1.403,1.063 -1.382,3.156 -0.817,2.883 -0.281,2.914 0.281,2.617 0.285,2.375 0.817,2.105 0.84,1.575 0.82,1.343 0.277,0.5 h -0.277 l -0.289,-0.265 -1.094,-1.035 -1.379,-1.856 -1.41,-2.105 -1.656,-2.875 -0.531,-1.344 -0.567,-1.574 -0.273,-1.844 -0.289,-1.574 -1.371,1.043 -1.11,1.07 -1.402,2.879 -0.817,3.183 -0.273,2.618 0.273,2.64 0.286,2.375 0.82,1.844 0.836,1.836 0.82,1.32 v 0.262 0.262 -0.262 h -0.289 l -1.094,-1.063 -1.093,-1.582 -1.407,-2.113 -1.382,-2.617 -1.372,-2.902 -0.562,-3.157 -1.387,1.313 -1.093,1.066 -1.129,3.157 -0.274,2.636 v 2.617 l 0.274,2.383 0.289,1.836 0.84,1.844 0.531,1.297 0.851,1.078 0.278,0.504 h -0.278 l -0.289,-0.262 -0.84,-0.781 -1.093,-1.301 -1.383,-1.84 -1.379,-2.375 -0.84,-2.656 -0.82,-2.883 v -0.535 -0.527 L 326.9,256.09 v -0.535 -4.48 l 0.274,-4.739 0.258,-5.257 0.289,-5.516 0.84,-5.801 1.093,-5.789 1.379,-6.062 1.656,-6.297 2.227,-5.532 2.496,-5.519 3.047,-5.262 3.316,-5.019 1.688,-2.352 1.906,-2.101 2.227,-2.118 2.222,-2.113 2.223,-1.844 2.223,-1.836 2.191,-1.578 2.5,-1.308 4.992,-2.637 5.246,-2.379 5.02,-1.574 5.254,-1.574 4.976,-1.043 4.985,-0.801 4.722,-0.539 4.692,-0.524 4.445,-0.511 4.703,-0.27 5.254,-0.273 h 5.543 11.93 l 12.754,0.812 13.289,1.305 13.559,1.574 13.313,2.106 13.016,2.648 9.68,1.844 9.426,2.078 8.605,2.105 8.016,1.852 7.207,1.844 6.109,1.574 5.246,1.324 3.883,1.043 -2.223,3.418 -1.66,3.176 -1.652,3.152 -1.098,2.879 -1.691,4.219 -0.242,1.582 0.531,-0.774 2.223,-2.382 3.313,-2.907 4.16,-3.418 4.703,-3.679 4.727,-3.153 2.227,-1.574 2.184,-1.305 1.941,-0.8 1.941,-0.801 3.605,-1.574 3.887,-1.582 1.656,-0.262 h 1.66 l 0.84,0.523 0.84,0.278 0.543,0.765 0.551,0.801 1.109,2.113 0.566,2.379 0.273,2.082 v 1.836 3.18 1.039 l 0.559,-1.039 1.371,-2.641 0.82,-2.113 0.84,-2.344 0.289,-2.918 0.281,-3.14 v -1.078 l -0.281,-1.036 -0.566,-0.8 -0.273,-1.043 -1.387,-1.575 -1.652,-1.578 -1.949,-1.328 -2.207,-1.047 -2.227,-0.808 h -1.945 -2.191 -1.949 l -1.66,0.277 -1.684,0.531 -3.031,0.805 -2.48,1.043 -1.934,0.801 -1.699,1.304 -1.91,1.313 -1.684,1.305 -3.043,3.437 -2.758,3.938 -3.883,-1.844 -4.715,-2.356 -5.824,-2.914 -6.652,-3.14 -7.469,-3.153 -8.297,-3.687 -8.863,-3.68 -9.426,-3.695 -6.383,-2.371 -6.355,-2.383 -6.668,-2.098 -6.922,-2.121 -6.637,-1.836 -6.922,-1.843 -6.945,-1.575 -6.918,-1.566 -6.922,-1.313 -6.645,-1.062 -6.656,-0.781 -6.641,-0.536 -6.106,-0.539 h -6.074 l -5.824,0.278 -5.547,0.535 -5.254,0.527 -5.828,1.043 -6.106,1.309 -6.347,1.844 -3.36,1.339 -3.035,1.036 -3.32,1.582 -3.32,1.558 -3.063,1.613 -3.32,2.083 -3.043,1.843 -3.313,2.371 -3.886,3.418 -3.872,3.446 -3.324,3.914 -3.32,3.961 -2.781,4.218 -2.504,4.489 -2.192,4.461 -1.66,4.742 h -5.824 -6.672 l -7.195,0.515 -8.024,0.801 -8.605,1.035 -8.859,1.844 -9.426,2.113 -9.949,2.645 -7.766,2.34 -8.024,2.648 -7.765,3.145 -8.043,3.457 -7.477,3.679 -7.765,3.922 -7.196,4.219 -7.211,4.492 -6.918,4.715 -6.355,4.754 -6.391,4.723 -5.816,4.722 -5.266,4.758 -5.254,4.727 -4.449,4.742 -3.844,4.738 -4.171,4.481 -3.883,4.992 -4.156,5.519 -3.887,6.071 -4.137,6.3 -3.594,6.594 -3.882,6.832 -3.321,7.367 -3.351,7.368 -3.321,7.632 -2.746,7.645 -2.797,7.633 -2.222,7.898 -2.192,7.875 -1.656,7.906 -1.406,7.633 -1.375,7.367 -0.821,7.372 -0.839,7.097 -0.282,6.867 -0.566,12.621 v 10.79 l 0.277,9.214 0.289,6.563 0.555,4.491 v 1.306 l 0.289,-1.306 0.277,-4.491 0.821,-6.563 1.375,-8.953 1.66,-10.531 2.5,-12.098 1.66,-6.57 1.656,-6.598 2.227,-6.836 2.223,-7.097 2.48,-7.129 2.773,-7.098 2.77,-7.105 3.336,-7.094 3.32,-6.836 3.883,-6.867 3.606,-6.567 3.886,-6.589 3.848,-6.297 4.16,-6.074 z m 0,0"
   id="path3045"
   inkscape:connector-curvature="0"
   style="fill:#1f1a17;fill-rule:evenodd" />
	<path
   clip-rule="evenodd"
   d="m 642.141,226.344 -0.816,0.539 -0.84,0.504 -0.82,0.539 -1.129,1.035 -0.281,0.266 15.805,8.434 -1.363,-3.418 -1.414,-2.637 -1.371,-2.106 -1.387,-1.312 -1.371,-1.063 -1.414,-0.781 -1.371,-0.262 h -1.098 l -1.13,0.262 z m 0,0"
   id="path3047"
   inkscape:connector-curvature="0"
   style="fill:#1f1a17;fill-rule:evenodd" />
	<path
   clip-rule="evenodd"
   d="m 699.219,249.493 -9.711,-7.098 -9.684,-6.297 -8.598,-5.293 -0.531,-2.34 -1.41,-2.918 -1.66,-2.617 -1.66,-2.637 -2.223,-2.617 -2.48,-2.383 -2.5,-2.375 -3.043,-2.105 -2.781,-1.848 -3.027,-1.57 -3.32,-1.578 -3.043,-1.313 -3.063,-1.062 -3.32,-1.043 -3.043,-0.801 -4.449,-1.035 -4.406,-1.078 -4.164,-0.504 -3.609,-0.539 v -2.375 l -0.273,-2.106 -0.84,-1.836 -0.82,-1.578 -1.129,-1.039 -1.363,-1.074 -1.387,-0.262 -1.656,-0.242 h -1.387 l -1.656,0.504 -1.688,0.539 -1.383,1.035 -1.379,1.336 -1.094,1.582 -0.848,1.836 -0.84,2.106 13.59,3.156 4.152,1.297 4.43,1.582 5.004,1.844 4.977,2.113 5.539,2.91 4.977,3.148 2.512,1.575 2.48,1.843 2.211,1.836 1.945,2.121 1.938,1.836 1.375,2.118 1.406,2.097 1.094,1.844 1.098,2.113 0.563,1.844 0.57,1.836 0.281,1.043 0.242,0.262 v 0.277 0.262 l 0.289,0.273 -0.531,-0.812 0.531,0.812 2.789,3.68 4.125,2.082 4.742,2.637 4.973,2.656 5.543,2.879 5.816,2.879 5.543,2.918 5.543,2.878 5.543,3.176 1.383,0.781 1.66,1.063 1.113,1.836 1.109,1.844 0.551,1.836 0.289,1.855 v 1.836 1.582 l -0.289,1.836 -0.273,1.582 -0.277,1.836 0.277,1.305 v 0.539 l 0.563,0.261 0.258,0.278 h 0.563 1.094 l 1.398,-1.078 1.66,-1.578 1.66,-2.375 1.383,-1.844 0.551,-1.574 0.289,-1.567 v -1.312 -0.262 l -0.289,-1.582 -0.84,-1.301 -0.82,-1.336 -0.84,-1.043 -1.934,-2.113 -1.941,-2.106 -2.191,-1.835 -2.5,-2.118 -9.429,-7.636 z m 0,0"
   id="path3049"
   inkscape:connector-curvature="0"
   style="fill:#1f1a17;fill-rule:evenodd" />
	<path
   clip-rule="evenodd"
   d="m 527.742,244.231 -2.223,2.922 -1.383,2.879 -0.84,1.574 -0.531,1.566 -0.566,1.614 -0.563,1.843 -0.273,3.914 v 3.957 l 0.551,4.219 1.105,3.942 0.84,1.855 0.82,1.836 0.84,1.844 1.098,1.574 4.156,5.523 3.602,4.493 2.504,2.605 1.09,1.074 -0.523,-1.336 -1.41,-3.418 -1.949,-5 -1.652,-6.054 -0.813,-3.414 -0.281,-3.418 v -3.145 l 0.563,-2.918 0.531,-2.879 0.848,-2.636 0.805,-2.118 1.137,-2.113 0.813,-2.105 1.133,-2.356 1.66,-2.367 1.934,-2.649 4.418,-5.261 5.008,-4.992 4.973,-4.723 3.883,-3.438 3.043,-2.617 1.098,-0.801 -1.098,0.54 -3.883,1.035 -5.266,2.371 -6.633,2.91 -3.344,1.844 -3.324,2.078 -3.328,2.113 -3.027,2.379 -3.059,2.375 -2.484,2.879 z m 0,0"
   id="path3051"
   inkscape:connector-curvature="0"
   style="fill:#1f1a17;fill-rule:evenodd" />
	<path
   clip-rule="evenodd"
   d="m 173.188,598.59 v 2.742 l -0.481,2.301 -0.25,0.903 -0.469,0.94 -0.468,0.669 -0.481,0.469 -0.691,0.69 -0.731,0.442 -0.937,0.238 -0.965,0.469 -2.598,0.229 -2.84,0.23 h -1.902 V 578.84 h 1.902 2.84 l 2.598,0.457 0.965,0.239 0.937,0.457 0.731,0.453 0.691,0.465 0.481,0.695 0.468,0.672 0.469,0.937 0.25,0.903 0.481,2.511 v 2.771 9.19 l 0,0 z m 23.937,-32.129 -2.355,-2.07 -2.606,-1.602 -2.855,-1.371 -3.305,-1.14 -3.559,-0.938 -4.043,-0.668 -4.511,-0.233 -4.746,-0.234 h -44.813 v 17.906 h 0.938 l 0.964,0.469 0.704,0.906 0.468,0.926 0.485,1.371 0.246,1.608 0.218,1.841 v 2.043 46.586 2.301 l -0.218,1.838 -0.246,1.61 -0.485,1.371 -0.468,0.926 -0.704,0.675 -0.964,0.469 -0.938,0.231 v 17.672 h 41.5 v -17.672 l -1.434,-0.231 -1.171,-0.469 -0.938,-0.675 -0.73,-0.926 -0.473,-1.371 -0.465,-1.61 -0.238,-1.839 v -2.301 -4.117 l 2.844,1.132 3.324,0.696 3.562,0.468 3.086,0.208 4.5,-0.208 4.028,-0.468 3.558,-0.696 3.324,-1.132 2.844,-1.379 2.606,-1.599 2.386,-1.848 2.141,-2.07 1.637,-2.508 1.445,-2.535 1.18,-2.979 0.937,-2.981 0.719,-3.207 0.465,-3.457 0.238,-3.647 0.246,-3.918 -0.246,-5.056 -0.238,-4.59 -0.699,-4.133 -0.969,-3.668 -1.172,-3.441 -1.422,-2.979 -1.668,-2.77 -1.914,-2.517 0,0 z m 0,0"
   id="path3053"
   inkscape:connector-curvature="0"
   style="fill:#ec221c;fill-rule:evenodd" />
	<path
   clip-rule="evenodd"
   d="m 251.02,632.021 -0.239,3.288 -0.242,2.609 -0.25,1.879 -0.711,1.407 -0.73,0.929 -1.203,0.72 -1.192,0.477 -1.441,0.234 -1.442,-0.234 -1.218,-0.477 -0.957,-0.72 -0.731,-0.929 -0.711,-1.407 -0.476,-1.879 -0.254,-2.609 v -3.288 -26.816 -3.297 l 0.254,-2.599 0.476,-2.094 0.711,-1.199 0.731,-0.934 0.957,-0.707 1.218,-0.479 1.442,-0.22 1.441,0.22 1.192,0.479 1.203,0.707 0.73,0.934 0.711,1.199 0.25,2.094 0.242,2.599 0.239,3.297 v 26.816 l 0,0 z m 21.191,-50.125 -2.422,-1.396 -2.394,-1.441 -2.899,-1.163 -3.351,-0.691 -3.372,-0.715 -3.867,-0.481 -4.324,-0.233 h -4.562 -4.575 l -4.105,0.233 -3.836,0.481 -3.371,0.715 -3.375,0.691 -2.641,1.163 -2.664,1.441 -2.148,1.396 -2.168,1.891 -1.684,2.093 -1.203,2.371 -1.219,2.817 -0.949,2.815 -0.492,3.543 -0.473,3.524 v 4.254 26.816 4.25 l 0.473,3.53 0.492,3.539 0.949,2.821 1.219,2.812 1.203,2.367 1.684,2.117 2.168,1.657 2.148,1.64 2.664,1.41 2.641,0.934 3.375,0.949 3.371,0.453 3.836,0.481 4.105,0.226 4.575,0.247 4.562,-0.247 4.324,-0.226 3.867,-0.481 3.372,-0.453 3.351,-0.949 2.899,-0.934 2.394,-1.41 2.422,-1.64 1.91,-1.892 1.68,-2.12 1.219,-2.359 1.203,-2.575 0.699,-3.058 0.742,-3.302 0.238,-3.772 0.25,-4.012 v -26.817 l -0.25,-4.25 -0.238,-3.527 -0.742,-3.543 -0.699,-2.815 -1.203,-2.817 -1.219,-2.367 -1.68,-2.094 -1.91,-1.897 0,0 z m 0,0"
   id="path3055"
   inkscape:connector-curvature="0"
   style="fill:#ec221c;fill-rule:evenodd" />
	<path
   clip-rule="evenodd"
   d="m 357.414,631.172 0.234,3.774 0.247,3.772 0.695,3.297 0.949,3.063 0.957,2.574 1.422,2.358 1.668,2.129 1.906,1.888 2.117,1.401 2.387,1.41 2.848,1.176 3.094,0.953 3.328,0.692 3.566,0.468 4.031,0.246 h 4.504 5.231 l 4.992,-0.472 4.516,-0.724 3.785,-1.164 3.809,-1.176 3.563,-1.647 3.336,-2.121 3.086,-2.129 v -25.399 h -25.902 v 9.403 1.89 l -0.246,1.649 -0.449,1.405 -0.727,1.16 -0.73,0.724 -0.938,0.476 -1.421,0.45 h -1.176 -1.43 l -1.203,-0.45 -0.941,-0.714 -0.938,-0.93 -0.484,-1.406 -0.485,-1.883 -0.234,-2.841 -0.246,-3.305 v -26.82 l 0.246,-3.522 0.234,-2.606 0.485,-2.094 0.484,-1.445 0.938,-0.926 0.941,-0.715 1.203,-0.457 h 1.43 1.176 l 1.183,0.457 0.961,0.481 0.945,0.715 0.727,1.164 0.449,1.172 0.246,1.879 v 1.897 7.755 h 25.902 v -23.313 l -3.574,-2.32 -3.566,-1.894 -3.785,-1.883 -3.57,-1.41 -4.055,-0.957 -4.27,-0.93 -4.75,-0.481 h -4.746 -4.269 l -4.047,0.246 -3.551,0.708 -3.328,0.699 -3.074,0.949 -2.852,1.176 -2.391,1.401 -2.125,1.649 -1.906,1.652 -1.66,2.125 -1.422,2.578 -1.203,2.594 -0.949,3.062 -0.695,3.06 -0.247,3.534 -0.234,3.767 v 27.056 z m 0,0"
   id="path3057"
   inkscape:connector-curvature="0"
   style="fill:#ec221c;fill-rule:evenodd" />
	<path
   clip-rule="evenodd"
   d="m 461.281,592.008 0.449,-0.229 0.707,-0.239 0.691,-0.21 v -14.375 h -35.023 v 15.054 h 0.918 l 0.723,0.481 0.707,0.479 0.449,0.938 0.477,0.929 0.23,1.196 0.242,1.644 v 1.642 37.18 1.656 l -0.242,1.647 -0.23,1.426 -0.477,0.931 -0.449,0.929 -0.707,0.481 -0.723,0.479 h -0.918 v 15.071 h 35.023 v -14.371 l -0.922,-0.219 -0.707,-0.25 -0.461,-0.474 -0.23,-0.719 -0.477,-1.859 -0.234,-2.358 0.234,-1.168 0.23,-0.961 0.938,-1.41 1.629,-2.129 9.348,-11.767 v 15.539 2.13 l -0.234,1.655 v 1.399 l -0.457,0.929 -0.234,0.719 -0.477,0.474 -0.691,0.25 -0.949,0.219 v 14.371 h 35.059 v -15.071 h -0.957 l -0.684,-0.479 -0.715,-0.481 -0.477,-0.929 -0.441,-0.931 -0.238,-1.426 -0.242,-1.647 v -1.656 -37.18 -1.642 l 0.242,-1.644 0.238,-1.196 0.441,-0.929 0.477,-0.938 0.715,-0.479 0.684,-0.481 h 0.957 v -15.054 h -35.059 v 14.375 l 0.949,0.21 h 0.691 l 0.477,0.469 0.234,0.25 0.457,1.414 0.234,1.879 -0.234,1.892 -0.215,1.394 -0.953,1.664 -1.641,1.879 -9.336,10.817 v -15.754 -1.656 l 0.234,-1.403 0.23,-0.957 0.246,-0.69 0.474,-0.73 z m 0,0"
   id="path3059"
   inkscape:connector-curvature="0"
   style="fill:#ec221c;fill-rule:evenodd" />
	<path
   d="m 352.852,458.2 c -134.055,0 -246.02,41.519 -272.852,96.886 46.141,-36.761 143.031,-62.093 255.113,-62.093 156.766,0 283.836,49.535 283.836,110.632 0,6.743 -1.559,13.332 -4.523,19.747 11.23,-13.286 17.398,-27.637 17.398,-42.637 0,-67.672 -124.902,-122.535 -278.972,-122.535 l 0,0 z m 0,0"
   id="path3061"
   inkscape:connector-curvature="0"
   style="fill:#04aeec" />
	<path
   clip-rule="evenodd"
   d="m 291.07,652.899 1.907,1.887 2.117,1.402 2.39,1.409 2.844,1.181 3.094,0.949 3.328,0.69 3.566,0.469 4.032,0.246 h 4.504 5.23 l 4.992,-0.472 4.516,-0.723 3.785,-1.16 3.809,-1.181 3.562,-1.647 3.336,-2.118 3.086,-2.132 V 626.3 H 325.27 v 9.403 1.89 l -0.25,1.649 -0.45,1.406 -0.726,1.159 -0.731,0.724 -0.937,0.476 -1.422,0.449 h -1.176 -1.43 l -1.203,-0.449 -0.937,-0.715 -0.942,-0.929 -0.484,-1.407 -0.48,-1.882 -0.239,-2.84 -0.246,-3.306 V 605.11 l 0.246,-3.524 0.239,-2.604 0.48,-2.095 0.484,-1.44 0.942,-0.931 0.937,-0.715 1.203,-0.457 h 1.43 1.176 l 1.184,0.457 0.964,0.481 0.942,0.715 0.726,1.164 0.45,1.171 0.25,1.879 v 1.899 7.758 h 25.898 v -23.313 l -3.574,-2.323 -3.567,-1.896 -3.785,-1.882 -3.57,-1.411 -4.055,-0.953 -4.265,-0.933 -4.754,-0.481 h -4.746 -4.27 l -4.047,0.246 -3.547,0.707 -3.332,0.7 -3.074,0.949 -2.852,1.176 -2.39,1.402 -2.125,1.647 -1.906,1.653 -1.661,2.125 -1.421,2.582 -1.204,2.59 -0.949,3.062 -0.691,3.06 -0.25,3.535 -0.235,3.765 v 27.055 l 0.235,3.774 0.25,3.773 0.691,3.297 0.949,3.062 0.957,2.575 1.422,2.359 1.668,2.129 z m 0,0"
   id="path3063"
   inkscape:connector-curvature="0"
   style="fill:#ec221c;fill-rule:evenodd" />
	<path
   d="m 581.648,577.069 v 15.964 c -1.804,0.642 -2.826,1.539 -3.07,2.692 -0.242,1.154 -0.328,2.501 -0.261,4.039 0,0.257 0,0.529 0,0.817 0,0.289 0,0.529 0,0.722 v 34.14 c 0,2.244 0.141,4.168 0.417,5.77 0.277,1.604 1.249,2.918 2.914,3.943 v 14.425 h -34.449 v -14.329 c 1.11,-0.255 1.891,-0.913 2.342,-1.972 0.451,-1.058 0.712,-2.195 0.78,-3.413 0.069,-0.513 0.104,-1.01 0.104,-1.491 0,-0.48 0,-0.977 0,-1.49 v -9.81 c -0.276,0.064 -0.572,0.13 -0.884,0.192 -0.313,0.064 -0.607,0.13 -0.885,0.192 -1.804,0.385 -3.451,1.043 -4.944,1.972 -1.491,0.93 -2.237,2.645 -2.237,5.145 v 7.693 c 0,1.026 -0.017,2.373 -0.052,4.039 -0.034,1.668 -0.087,3.366 -0.156,5.098 -0.139,1.538 -0.313,3.046 -0.521,4.52 -0.208,1.476 -0.521,2.692 -0.937,3.654 h -30.286 v -14.329 c 1.526,-0.704 2.445,-1.698 2.758,-2.981 0.313,-1.281 0.469,-2.628 0.469,-4.039 0,-0.063 0,-0.144 0,-0.24 0,-0.096 0,-0.207 0,-0.336 v -5.963 c 0,-3.013 0.676,-5.722 2.029,-8.126 1.353,-2.404 4.493,-3.991 9.419,-4.761 -3.677,-1.153 -6.781,-3.029 -9.315,-5.625 -2.531,-2.597 -3.799,-7.293 -3.799,-14.089 0,-6.539 1.701,-11.331 5.1,-14.377 3.4,-3.045 7.147,-5.081 11.24,-6.106 2.568,-0.641 5.014,-1.042 7.338,-1.202 2.325,-0.16 4.285,-0.272 5.88,-0.337 h 41.006 l 0,-0.001 0,0 z m -31.223,17.503 c -3.677,0 -6.261,0.433 -7.753,1.298 -1.491,0.865 -2.446,3.19 -2.862,6.972 -0.276,3.271 0.296,5.434 1.717,6.492 1.423,1.058 3.036,1.651 4.84,1.778 0.557,0.064 1.093,0.097 1.613,0.097 0.52,0 1.024,0 1.509,0 0.141,0 0.296,0 0.469,0 0.174,0 0.33,-0.032 0.468,-0.097 v -16.637 0.097 l -0.001,0 z"
   id="path3065"
   inkscape:connector-curvature="0"
   style="fill:#ec221c" />
</g>
</svg>