<?xml version="1.0" encoding="utf-8"?>
<!-- Generator: Adobe Illustrator 18.1.1, SVG Export Plug-In . SVG Version: 6.00 Build 0)  -->
<!DOCTYPE svg PUBLIC "-//W3C//DTD SVG 1.1//EN" "http://www.w3.org/Graphics/SVG/1.1/DTD/svg11.dtd">
<svg version="1.1" id="Layer_1" xmlns="http://www.w3.org/2000/svg" xmlns:xlink="http://www.w3.org/1999/xlink" x="0px" y="0px"
	 viewBox="0 -20 792 641" enable-background="new 0 -20 792 641" xml:space="preserve">
<g id="blue">
</g>
<g id="USAR_Logo_Digital">
	<g>
		<path shape-rendering="optimizeQuality" fill="#002B54" d="M267.6,606.2L267.6,606.2c-1.2,0-2.2-0.1-2.9-0.2c-20.7-2.2-179.5-64.4-231-252.1
			C3.1,242.4,47.3,100.4,49.3,94.4l2.1-6.8l6-3.9c4.9-3.1,121.2-77.8,335.1-77.8c3,0,6.1,0,9.1,0C620.6,8,751.9,86.1,757.4,89.5
			l11.3,6.9l-1.8,13c-3.8,27.5-16.3,147.1-160.5,314.8C477.9,573.7,295.5,606.2,267.6,606.2z M85.5,113.6
			c-8.2,29.3-36.8,142.9-13,229.7c45.5,166.1,182.7,217.8,196.8,222.6c30.6-2,192.3-37.1,307.3-168.6
			c105.4-114,139.4-239.4,148.1-280c-14.2-7.2-40.4-19.4-77.1-31.6C594.9,68.1,509.5,47,401.3,46c-109.5-1.1-192,18.9-241.5,35.6
			C121.4,94.5,96.3,107.6,85.5,113.6z"/>
		
			<radialGradient id="SVGID_1_" cx="614.2267" cy="572.4773" r="179.922" gradientTransform="matrix(1.0109 0 0 -1.0109 16.6086 618.6719)" gradientUnits="userSpaceOnUse">
			<stop  offset="0" style="stop-color:#FFFFFF;stop-opacity:0.8"/>
			<stop  offset="1" style="stop-color:#FFFFFF;stop-opacity:0"/>
		</radialGradient>
		<path shape-rendering="optimizeQuality" fill="url(#SVGID_1_)" d="M267.6,606.2L267.6,606.2c-1.2,0-2.2-0.1-2.9-0.2c-20.7-2.2-179.5-64.4-231-252.1
			C3.1,242.4,47.3,100.4,49.3,94.4l2.1-6.8l6-3.9c4.9-3.1,121.2-77.8,335.1-77.8c3,0,6.1,0,9.1,0C620.6,8,751.9,86.1,757.4,89.5
			l11.3,6.9l-1.8,13c-3.8,27.5-16.3,147.1-160.5,314.8C477.9,573.7,295.5,606.2,267.6,606.2z M85.5,113.6
			c-8.2,29.3-36.8,142.9-13,229.7c45.5,166.1,182.7,217.8,196.8,222.6c30.6-2,192.3-37.1,307.3-168.6
			c105.4-114,139.4-239.4,148.1-280c-14.2-7.2-40.4-19.4-77.1-31.6C594.9,68.1,509.5,47,401.3,46c-109.5-1.1-192,18.9-241.5,35.6
			C121.4,94.5,96.3,107.6,85.5,113.6z"/>
		<g>
			
				<radialGradient id="SVGID_2_" cx="64.252" cy="183.9616" r="179.6194" gradientTransform="matrix(1.0109 0 0 -1.0109 16.6086 618.6719)" gradientUnits="userSpaceOnUse">
				<stop  offset="0" style="stop-color:#FFFFFF;stop-opacity:0.9"/>
				<stop  offset="1" style="stop-color:#FFFFFF;stop-opacity:0"/>
			</radialGradient>
			<path shape-rendering="optimizeQuality" fill="url(#SVGID_2_)" d="M267.6,608.1c-1.1,0-2.2-0.1-3.1-0.2C243.6,605.6,83.6,543.2,32,354.4
				C1.2,242.5,45.6,99.9,47.4,93.8l2.3-7.5l6.6-4.2C61.2,79,178,4,392.5,4c3,0,6.1,0,9.1,0C621,6.2,752.8,84.6,758.3,87.9l12.3,7.5
				l-2,14.3l-0.4,2.7c-2.1,16-7.3,53.5-29.3,107.5c-27.5,67.1-71.7,136.4-131.2,205.6c-68.2,79.4-150.6,124-207.8,147.6
				C329.2,602.1,277.5,608.1,267.6,608.1z M87,114.8c-9.2,33-36.1,143-12.8,228c19,69.2,55.8,126.8,109.6,170.8
				c41.9,34.4,80.1,48.4,85.7,50.4c34.3-2.4,193.1-39.2,305.7-168c45.2-48.8,82.2-105,110-167.1c22.2-49.4,32.9-90.1,37.3-110.7
				c-15.5-7.8-40.8-19.3-75.6-30.9c-52.5-17.5-137.7-38.5-245.6-39.5c-2.9,0-5.9,0-8.7,0c-104.8,0-184.2,19.3-232.2,35.5
				C123.3,95.8,98.7,108.3,87,114.8z"/>
			<path shape-rendering="optimizeQuality" fill="#FFFFFF" d="M392.5,5.9c3,0,6.1,0,9.1,0C620.6,8,751.9,86.1,757.4,89.5l11.3,6.9l-1.8,13
				c-3.8,27.5-16.3,147.1-160.5,314.8C477.9,573.7,295.5,606.2,267.6,606.2l0,0c-1.2,0-2.2-0.1-2.9-0.2
				c-20.7-2.2-179.5-64.4-231-252.1C3.1,242.4,47.3,100.4,49.3,94.4l2.1-6.8l6-3.9C62.2,80.5,178.6,5.9,392.5,5.9 M269.2,566
				c30.6-2,192.3-37.1,307.3-168.6C682,283.4,716,158,724.6,117.4c-14.2-7.2-40.4-19.4-77.1-31.6c-52.6-17.5-138-38.6-246.3-39.6
				c-2.9,0-5.9,0-8.7,0c-105.1,0-184.6,19.4-232.8,35.6c-38.3,12.9-63.4,25.9-74.2,32c-8.2,29.3-36.8,142.9-13,229.7
				C117.9,509.4,255.1,561.2,269.2,566 M392.5,0c-6.8,0-13.6,0.1-20.5,0.2c-6.9,0.1-13.7,0.4-20.6,0.7c-6.9,0.3-13.8,0.7-20.6,1.1
				c-6.9,0.5-13.8,1-20.6,1.6c-6.8,0.6-13.6,1.3-20.4,2.1c-6.8,0.8-13.6,1.7-20.3,2.6c-6.4,0.9-12.9,1.9-19.3,3
				c-6.4,1.1-12.8,2.2-19.2,3.5c-6.4,1.2-12.7,2.6-19.1,4c-6.3,1.4-12.6,2.9-18.9,4.5c-6.3,1.6-12.5,3.3-18.8,5.1
				c-6.2,1.8-12.4,3.7-18.6,5.6c-6.2,2-12.3,4-18.4,6.2c-6.1,2.2-12.2,4.4-18.2,6.8c-6,2.4-12,4.8-18,7.4c-0.5,0.2-1,0.4-1.4,0.6
				c-0.4,0.2-1,0.6-1.4,0.6c-2.2,0-6.5,2.8-8.5,3.7c-3.6,1.6-7.2,3.3-10.8,5.1c-8.9,4.4-17.6,9-25.9,14.5c0,0-6,3.9-6,3.9l-1.1,0.7
				l-0.4,1.3c0,0-2.1,6.9-2.1,6.9C18,173.8,4.6,271.2,27.6,355.3c11.7,42.8,30.5,83.8,55.8,120.3c20.5,29.5,45.2,56,73.4,78.6
				c50.5,40.7,95.8,56.5,106.7,57.7c1,0.1,2.1,0.2,3.3,0.2c16.3,0,32.3-3.9,48.1-7.6c16-3.7,31.7-8.3,47.3-13.5
				c13.1-4.4,26-9.2,38.7-14.4c37.3-15.4,72.8-34.4,105.3-56.3c39.4-26.7,74.7-57.9,104.7-92.8c60.1-69.9,104.7-139.7,132.5-207.5
				c22.3-54.5,27.5-92.5,29.6-108.7c0.1-1,0.3-1.9,0.4-2.7l1.8-13.1l0.3-2.4l-2-1.2c0,0-11.4-6.9-11.4-6.9
				c-10-6-20.6-11.2-31.1-16.2c-26.5-12.3-53.9-22.6-81.8-31.2c-13-4-26-7.7-39.2-11.1c-13.2-3.4-26.6-6.4-40-9.1
				c-13.4-2.7-26.8-5.1-40.3-7.2c-5.9-0.9-11.9-1.8-17.8-2.5c-13.6-1.8-27.2-3.3-40.9-4.5c-13.7-1.2-27.3-2-41-2.5
				c-5.6-0.2-11.2-0.4-16.9-0.5c-3.8-0.1-7.7-0.2-11.5-0.2C398.6,0,395.5,0,392.5,0z M88.5,116.1c11.9-6.7,36.2-18.8,72.3-31
				c48-16.2,127.1-35.5,231.7-35.5c2.8,0,5.8,0,8.7,0c107.9,1,192.8,22,245.1,39.4c33.8,11.2,58.6,22.4,74.1,30.2
				c-4.7,20.9-15.3,60.8-36.9,109C655.7,290,618.8,346,573.8,394.8l0,0l0,0c-26.3,30.1-57.1,57.3-91.6,81
				c-28.6,19.6-59.6,36.8-92.5,51.1c-53.7,23.4-101.7,34-120.1,35.4c-6.7-2.3-44-16.4-84.8-49.9c-23.7-19.4-44.3-42-61.6-66.8
				c-21.1-30.7-37.1-65.4-47.4-103.1c-10-36.5-11.8-81.9-5.4-135C75.5,165.8,84.5,130.6,88.5,116.1L88.5,116.1z"/>
		</g>
		<g>
			<path shape-rendering="optimizeQuality" fill="#FFFFFF" d="M266.6,588.3c-1.5-0.2-164.2-50.7-215.8-239.2c-29.1-106.3,15-248,15.4-249.4l0.2-0.8l0.7-0.4
				c1.1-0.7,116.7-74.9,325.4-74.9c2.9,0,6,0,8.9,0c214.2,2.1,345.5,80.3,346.7,81.1l1.3,0.8l-0.2,1.5
				c-0.2,1.6-23.9,162.2-156,305.1C467.8,555.6,290,588.4,267.4,588.4C267.6,588.4,266.8,588.4,266.6,588.3z"/>
			<path shape-rendering="optimizeQuality" fill="#FFFFFF" d="M392.5,25.9c2.9,0,6,0,8.9,0C617.4,28,747,106.5,747,106.5s-22.2,159.9-155.4,303.9
				c-129.2,147.9-308.5,175.7-324,175.7c-0.3,0-0.5,0-0.7,0c-9.4-1-164.4-57-213.8-237.5C23.7,241.6,68.4,100.5,68.4,100.5
				S182.1,25.9,392.5,25.9 M392.5,21.3C183.1,21.3,67,95.8,65.8,96.6l-1.3,0.9L64,99.1c-0.4,1.4-44.8,143.6-15.4,250.8
				c26.1,95.2,81.6,155.1,123.4,188.4c45.4,36.1,87.5,51.7,94.3,52.4c0.3,0,0.7,0,1.2,0c22.6,0,201.5-33.1,327.5-177.1
				c132.4-143.2,156.2-304.7,156.5-306.3l0.4-2.9l-2.5-1.5c-1.3-0.8-133.1-79.3-348-81.4C398.4,21.3,395.5,21.3,392.5,21.3
				L392.5,21.3z"/>
		</g>
		<g>
			<g>
				
					<linearGradient id="SVGID_3_" gradientUnits="userSpaceOnUse" x1="442.2048" y1="505.7672" x2="527.5077" y2="456.5176" gradientTransform="matrix(1.0109 0 0 -1.0109 16.6086 618.6719)">
					<stop  offset="0" style="stop-color:#181E56"/>
					<stop  offset="0" style="stop-color:#032556"/>
					<stop  offset="0" style="stop-color:#002956"/>
					<stop  offset="0" style="stop-color:#002B56"/>
					<stop  offset="0" style="stop-color:#002B55"/>
					<stop  offset="0" style="stop-color:#002B54"/>
					<stop  offset="0" style="stop-color:#002B54"/>
					<stop  offset="0" style="stop-color:#002B54"/>
					<stop  offset="0.3715" style="stop-color:#00315A"/>
					<stop  offset="1" style="stop-color:#003F68"/>
				</linearGradient>
				<polygon fill="url(#SVGID_3_)" points="462.7,109 558.6,142.1 499.9,148.4 509.2,133.6 				"/>
			</g>
		</g>
		<path shape-rendering="optimizeQuality" fill="#002B54" d="M650.7,88.2C622,77,609.5,69.2,557.8,57.9C440.4,32,338.6,38.7,338.6,38.7s80.7,0.1,133.9,16.6
			c79.5,24.7,108,61.8,108,61.8l-0.6,23.3c0,0,11.8,7.3,20.8,25.7c14.4,29-7.6,67.4-7.6,67.4s-86.7-93.4-222.9-23.8l26.8-47.8
			l-92.9-15.4l84.2-31.3l-86.6-24l98-25.5c0,0-54.8-14.4-132.5-2.2C136,83.9,152.7,170.2,152,170.3c3.2,24.1,11.1,49.2,24.6,72.9
			c-12.9-29.9-12.7-60.5,2.6-76.1c23.8-8.5,85.2,20.5,127.7,57.5c54.4,47.4,58.6,91.8,58.9,113.6c-34.1,6.1-97.6-13.5-134.2-33.5
			c13.8,10.1,29.8,19.1,47.8,26.5c176.8,72.1,361.8-24.6,361.8-24.6s0.9-0.9,2.4-2.4c-20.1,2.9-71,5.3-89.8-2.4
			c0,0,86.9-21.8,128.3-65.3c-30.3,9.5-72.9,3.9-72.9,3.9s102.4-30.2,107.5-87.2C719.7,119.3,670.8,95.8,650.7,88.2z M389.4,321.7
			c-0.9,8-7.5,13.2-12.1,13.6c-4.7-34.8-5.6-66.4-57-113.9c-39.9-36.8-85.6-57.7-119.3-61.9c35.6-11.8,107.1,21.7,137.3,47.8
			C395.7,256.7,393.4,308.2,389.4,321.7z"/>
		<g opacity="0.5">
			<path shape-rendering="optimizeQuality" fill="none" d="M370.3,209.7c136.2-69.8,222.9,23.8,222.9,23.8s21.9-38.3,7.6-67.4c-9-18.4-20.8-25.7-20.8-25.7l0.6-23.3
				c0,0-10.3-13.3-35.5-29.2c-65.2,16.5-125.9,39.7-180.4,68.6l32.4,5.4L370.3,209.7z"/>
			<path shape-rendering="optimizeQuality" fill="none" d="M201,159.5c26.3,3.2,59.9,16.8,92.4,40c5.7-3.8,11.3-7.7,17.1-11.5C275.9,167.9,228.1,150.5,201,159.5z"/>
			<path shape-rendering="optimizeQuality" fill="none" d="M320.3,221.4c51.5,47.5,52.4,79.2,57,113.9c4.7-0.3,11.2-5.7,12.1-13.6c3.9-13.4,6.3-65-51.2-114.3
				c-7.3-6.3-16.9-12.8-27.7-19.2c-5.8,3.7-11.4,7.6-17.1,11.5C302.5,206.1,311.5,213.3,320.3,221.4z"/>
			<path shape-rendering="optimizeQuality" fill="none" d="M201,159.5c27.1-9,74.9,8.3,109.5,28.5c17.3-11.2,35.4-21.7,54.1-31.7l-60.5-10l84.2-31.3l-86.6-23.8
				l98-25.5c0,0-54.8-14.4-132.5-2.2C136,83.9,152.7,170.2,152,170.3c3.2,24.1,11.1,49.2,24.6,72.9c-12.9-29.9-12.7-60.5,2.6-76.1
				c19.7-7,65.2,11.7,104.5,39.4c3.2-2.3,6.5-4.7,9.8-6.9C260.9,176.3,227.3,162.8,201,159.5z"/>
			<path shape-rendering="optimizeQuality" fill="none" d="M557.9,57.8C440.5,31.9,338.7,38.6,338.7,38.6s80.7,0.1,133.9,16.6c31.9,9.9,55.5,21.8,72.5,32.6
				c22.2-5.7,45.1-10.5,68.3-14.6C600.2,68.4,584,63.6,557.9,57.8z"/>
		</g>
		<g>
			<path shape-rendering="optimizeQuality" fill="#C41230" d="M131.6,87.1c-20.9,46.9-43.3,166.1,16.3,258.2c10.2-15.6,21.5-30.7,33.9-45.4
				C108.2,211.9,131.6,87.1,131.6,87.1z"/>
			<path shape-rendering="optimizeQuality" fill="#C41230" d="M87.9,124.4c0,0-72.2,176.9,17.1,305.5c7.7-20.8,17.1-41,28.3-60.7C58.5,261.6,87.9,124.4,87.9,124.4z"/>
		</g>
		<g>
			<path shape-rendering="optimizeQuality" fill="none" d="M320.3,221.4c51.5,47.5,52.4,79.2,57,113.9c4.7-0.3,11.2-5.7,12.1-13.6c3.9-13.4,6.3-65-51.2-114.3
				c-7.3-6.3-16.9-12.8-27.7-19.2c-5.8,3.7-11.4,7.6-17.1,11.5C302.5,206.1,311.5,213.3,320.3,221.4z"/>
			<path shape-rendering="optimizeQuality" fill="none" d="M201,159.5c26.3,3.2,59.9,16.8,92.4,40c5.7-3.8,11.3-7.7,17.1-11.5C275.9,167.9,228.1,150.5,201,159.5z"/>
			<path shape-rendering="optimizeQuality" fill="none" d="M370.3,209.7c136.2-69.8,222.9,23.8,222.9,23.8s21.9-38.3,7.6-67.4c-9-18.4-20.8-25.7-20.8-25.7l0.6-23.3
				c0,0-10.3-13.3-35.5-29.2c-65.2,16.5-125.9,39.7-180.4,68.6l32.4,5.4L370.3,209.7z"/>
			
				<linearGradient id="SVGID_4_" gradientUnits="userSpaceOnUse" x1="537.8489" y1="291.0635" x2="385.0732" y2="474.9247" gradientTransform="matrix(1.0109 0 0 -1.0109 16.6086 618.6719)">
				<stop  offset="0" style="stop-color:#181E56"/>
				<stop  offset="0" style="stop-color:#032556"/>
				<stop  offset="0" style="stop-color:#002956"/>
				<stop  offset="0" style="stop-color:#002B56"/>
				<stop  offset="0" style="stop-color:#002B55"/>
				<stop  offset="0" style="stop-color:#002B54"/>
				<stop  offset="0" style="stop-color:#002B54"/>
				<stop  offset="0" style="stop-color:#002B54"/>
				<stop  offset="0.2647" style="stop-color:#00315A"/>
				<stop  offset="0.7219" style="stop-color:#004068"/>
				<stop  offset="1" style="stop-color:#134B73"/>
			</linearGradient>
			<path shape-rendering="optimizeQuality" fill="url(#SVGID_4_)" d="M650.7,88.2c-14.2-5.5-24.5-10.2-37.3-14.9c-23.3,4-46.1,8.9-68.3,14.6
				c25.2,16,35.5,29.2,35.5,29.2l-0.6,23.3c0,0,11.8,7.3,20.8,25.7c14.4,29-7.6,67.4-7.6,67.4s-86.7-93.4-222.9-23.8l26.8-47.8
				l-32.4-5.4c-18.8,9.9-36.9,20.5-54.1,31.7c10.9,6.4,20.5,13,27.7,19.2c57.4,49.3,55.1,100.9,51.2,114.3
				c-0.9,8-7.5,13.2-12.1,13.6c-4.7-34.8-5.6-66.4-57-113.9c-8.7-8.1-17.7-15.3-26.8-21.7c-3.3,2.3-6.6,4.5-9.8,6.9
				c8.1,5.8,16,11.7,23.3,18.1c54.4,47.4,58.6,91.8,58.9,113.6c-34.1,6.1-97.6-13.5-134.2-33.5c13.8,10.1,29.8,19.1,47.8,26.5
				c176.8,72.1,361.8-24.6,361.8-24.6s0.9-0.9,2.4-2.4c-20.1,2.9-71,5.3-89.8-2.4c0,0,86.9-21.8,128.3-65.3
				c-30.3,9.5-72.9,3.9-72.9,3.9s102.4-30.2,107.5-87.2C719.7,119.3,670.8,95.8,650.7,88.2z"/>
		</g>
		
			<linearGradient id="SVGID_5_" gradientUnits="userSpaceOnUse" x1="229.2381" y1="411.7435" x2="529.2549" y2="100.0485" gradientTransform="matrix(1.0109 0 0 -1.0109 16.6086 618.6719)">
			<stop  offset="0" style="stop-color:#C41230"/>
			<stop  offset="0" style="stop-color:#C71D35"/>
			<stop  offset="0" style="stop-color:#CD3140"/>
			<stop  offset="0" style="stop-color:#CF3744"/>
			<stop  offset="0.23" style="stop-color:#BB2F39"/>
			<stop  offset="0.6993" style="stop-color:#901D1D"/>
			<stop  offset="0.8245" style="stop-color:#851817"/>
		</linearGradient>
		<path shape-rendering="optimizeQuality" fill="url(#SVGID_5_)" d="M248.1,352.3c-28.4-14.4-49.5-32.2-66.3-52.4c-12.3,14.7-23.7,29.7-33.9,45.3
			c27.7,42.8,72.1,79.5,143.3,100.6c94.4,28,189.9,5.1,238.7-19.4c21.5-10.8,36.3-21.2,53.7-37.7c20.5-19.3,40.8-48.4,40.8-48.4
			S427.5,442.8,248.1,352.3z"/>
		
			<linearGradient id="SVGID_6_" gradientUnits="userSpaceOnUse" x1="112.4289" y1="264.533" x2="478.121" y2="39.9693" gradientTransform="matrix(1.0109 0 0 -1.0109 16.6086 618.6719)">
			<stop  offset="0" style="stop-color:#C41230"/>
			<stop  offset="0" style="stop-color:#C71D35"/>
			<stop  offset="0" style="stop-color:#CD3140"/>
			<stop  offset="0" style="stop-color:#CF3744"/>
			<stop  offset="0.23" style="stop-color:#BB2F39"/>
			<stop  offset="0.6993" style="stop-color:#901D1D"/>
			<stop  offset="0.8245" style="stop-color:#851817"/>
		</linearGradient>
		<path shape-rendering="optimizeQuality" fill="url(#SVGID_6_)" d="M108,434.6c59.5,81.3,159.7,124.5,168.2,126.3c8.6,1.7,52.2,1.6,127.9-34.1
			c89.2-42.1,109.4-66.8,109.4-66.8s-212,87.2-354.4-59.2c-9.8-10.1-18.5-20.8-26.1-31.7c-11.1,19.6-20.6,39.7-28.2,60.6
			C105.9,431.1,106.8,433,108,434.6z"/>
	</g>
</g>
</svg>
