<svg xmlns="http://www.w3.org/2000/svg" viewBox="0 -20 792 641"><path shape-rendering="optimizeQuality" fill="#002B54" d="M267.6 606.2c-1.2 0-2.2-.1-2.9-.2-20.7-2.2-179.5-64.4-231-252.1C3.1 242.4 47.3 100.4 49.3 94.4l2.1-6.8 6-3.9c4.9-3.1 121.2-77.8 335.1-77.8h9.1c219 2.1 350.3 80.2 355.8 83.6l11.3 6.9-1.8 13c-3.8 27.5-16.3 147.1-160.5 314.8-128.5 149.5-310.9 182-338.8 182zM85.5 113.6c-8.2 29.3-36.8 142.9-13 229.7C118 509.4 255.2 561.1 269.3 565.9c30.6-2 192.3-37.1 307.3-168.6 105.4-114 139.4-239.4 148.1-280-14.2-7.2-40.4-19.4-77.1-31.6C594.9 68.1 509.5 47 401.3 46c-109.5-1.1-192 18.9-241.5 35.6-38.4 12.9-63.5 26-74.3 32z"/><radialGradient id="a" cx="614.227" cy="572.477" r="179.922" gradientTransform="matrix(1.0109 0 0 -1.0109 16.609 618.672)" gradientUnits="userSpaceOnUse"><stop offset="0" stop-color="#fff" stop-opacity=".8"/><stop offset="1" stop-color="#fff" stop-opacity="0"/></radialGradient><path shape-rendering="optimizeQuality" fill="url(#a)" d="M267.6 606.2c-1.2 0-2.2-.1-2.9-.2-20.7-2.2-179.5-64.4-231-252.1C3.1 242.4 47.3 100.4 49.3 94.4l2.1-6.8 6-3.9c4.9-3.1 121.2-77.8 335.1-77.8h9.1c219 2.1 350.3 80.2 355.8 83.6l11.3 6.9-1.8 13c-3.8 27.5-16.3 147.1-160.5 314.8-128.5 149.5-310.9 182-338.8 182zM85.5 113.6c-8.2 29.3-36.8 142.9-13 229.7C118 509.4 255.2 561.1 269.3 565.9c30.6-2 192.3-37.1 307.3-168.6 105.4-114 139.4-239.4 148.1-280-14.2-7.2-40.4-19.4-77.1-31.6C594.9 68.1 509.5 47 401.3 46c-109.5-1.1-192 18.9-241.5 35.6-38.4 12.9-63.5 26-74.3 32z"/><radialGradient id="b" cx="64.252" cy="183.962" r="179.619" gradientTransform="matrix(1.0109 0 0 -1.0109 16.609 618.672)" gradientUnits="userSpaceOnUse"><stop offset="0" stop-color="#fff" stop-opacity=".9"/><stop offset="1" stop-color="#fff" stop-opacity="0"/></radialGradient><path shape-rendering="optimizeQuality" fill="url(#b)" d="M267.6 608.1c-1.1 0-2.2-.1-3.1-.2-20.9-2.3-180.9-64.7-232.5-253.5C1.2 242.5 45.6 99.9 47.4 93.8l2.3-7.5 6.6-4.2C61.2 79 178 4 392.5 4h9.1C621 6.2 752.8 84.6 758.3 87.9l12.3 7.5-2 14.3-.4 2.7c-2.1 16-7.3 53.5-29.3 107.5-27.5 67.1-71.7 136.4-131.2 205.6-68.2 79.4-150.6 124-207.8 147.6-70.7 29-122.4 35-132.3 35zM87 114.8c-9.2 33-36.1 143-12.8 228 19 69.2 55.8 126.8 109.6 170.8 41.9 34.4 80.1 48.4 85.7 50.4 34.3-2.4 193.1-39.2 305.7-168 45.2-48.8 82.2-105 110-167.1 22.2-49.4 32.9-90.1 37.3-110.7-15.5-7.8-40.8-19.3-75.6-30.9-52.5-17.5-137.7-38.5-245.6-39.5h-8.7c-104.8 0-184.2 19.3-232.2 35.5-37.1 12.5-61.7 25-73.4 31.5z"/><path shape-rendering="optimizeQuality" fill="#FFF" d="M392.5 5.9h9.1c219 2.1 350.3 80.2 355.8 83.6l11.3 6.9-1.8 13c-3.8 27.5-16.3 147.1-160.5 314.8-128.5 149.5-310.9 182-338.8 182-1.2 0-2.2-.1-2.9-.2-20.7-2.2-179.5-64.4-231-252.1C3.1 242.4 47.3 100.4 49.3 94.4l2.1-6.8 6-3.9c4.8-3.2 121.2-77.8 335.1-77.8M269.2 566c30.6-2 192.3-37.1 307.3-168.6C682 283.4 716 158 724.6 117.4c-14.2-7.2-40.4-19.4-77.1-31.6-52.6-17.5-138-38.6-246.3-39.6h-8.7c-105.1 0-184.6 19.4-232.8 35.6-38.3 12.9-63.4 25.9-74.2 32-8.2 29.3-36.8 142.9-13 229.7C117.9 509.4 255.1 561.2 269.2 566M392.5 0c-6.8 0-13.6.1-20.5.2s-13.7.4-20.6.7c-6.9.3-13.8.7-20.6 1.1-6.9.5-13.8 1-20.6 1.6-6.8.6-13.6 1.3-20.4 2.1-6.8.8-13.6 1.7-20.3 2.6-6.4.9-12.9 1.9-19.3 3s-12.8 2.2-19.2 3.5c-6.4 1.2-12.7 2.6-19.1 4-6.3 1.4-12.6 2.9-18.9 4.5-6.3 1.6-12.5 3.3-18.8 5.1-6.2 1.8-12.4 3.7-18.6 5.6-6.2 2-12.3 4-18.4 6.2-6.1 2.2-12.2 4.4-18.2 6.8-6 2.4-12 4.8-18 7.4-.5.2-1 .4-1.4.6-.4.2-1 .6-1.4.6-2.2 0-6.5 2.8-8.5 3.7-3.6 1.6-7.2 3.3-10.8 5.1-8.9 4.4-17.6 9-25.9 14.5l-6 3.9-1.1.7-.4 1.3-2.1 6.9C18 173.8 4.6 271.2 27.6 355.3c11.7 42.8 30.5 83.8 55.8 120.3 20.5 29.5 45.2 56 73.4 78.6 50.5 40.7 95.8 56.5 106.7 57.7 1 .1 2.1.2 3.3.2 16.3 0 32.3-3.9 48.1-7.6 16-3.7 31.7-8.3 47.3-13.5 13.1-4.4 26-9.2 38.7-14.4 37.3-15.4 72.8-34.4 105.3-56.3 39.4-26.7 74.7-57.9 104.7-92.8C671 357.6 715.6 287.8 743.4 220c22.3-54.5 27.5-92.5 29.6-108.7.1-1 .3-1.9.4-2.7l1.8-13.1.3-2.4-2-1.2-11.4-6.9c-10-6-20.6-11.2-31.1-16.2-26.5-12.3-53.9-22.6-81.8-31.2-13-4-26-7.7-39.2-11.1-13.2-3.4-26.6-6.4-40-9.1-13.4-2.7-26.8-5.1-40.3-7.2-5.9-.9-11.9-1.8-17.8-2.5-13.6-1.8-27.2-3.3-40.9-4.5-13.7-1.2-27.3-2-41-2.5-5.6-.2-11.2-.4-16.9-.5-3.8-.1-7.7-.2-11.5-.2h-9.1zm-304 116.1c11.9-6.7 36.2-18.8 72.3-31 48-16.2 127.1-35.5 231.7-35.5h8.7c107.9 1 192.8 22 245.1 39.4 33.8 11.2 58.6 22.4 74.1 30.2-4.7 20.9-15.3 60.8-36.9 109C655.7 290 618.8 346 573.8 394.8c-26.3 30.1-57.1 57.3-91.6 81-28.6 19.6-59.6 36.8-92.5 51.1-53.7 23.4-101.7 34-120.1 35.4-6.7-2.3-44-16.4-84.8-49.9-23.7-19.4-44.3-42-61.6-66.8-21.1-30.7-37.1-65.4-47.4-103.1-10-36.5-11.8-81.9-5.4-135 5.1-41.7 14.1-76.9 18.1-91.4z"/><g shape-rendering="optimizeQuality" fill="#FFF"><path d="M266.6 588.3c-1.5-.2-164.2-50.7-215.8-239.2-29.1-106.3 15-248 15.4-249.4l.2-.8.7-.4c1.1-.7 116.7-74.9 325.4-74.9h8.9c214.2 2.1 345.5 80.3 346.7 81.1l1.3.8-.2 1.5c-.2 1.6-23.9 162.2-156 305.1C467.8 555.6 290 588.4 267.4 588.4c.2 0-.6 0-.8-.1z"/><path d="M392.5 25.9h8.9C617.4 28 747 106.5 747 106.5s-22.2 159.9-155.4 303.9c-129.2 147.9-308.5 175.7-324 175.7h-.7c-9.4-1-164.4-57-213.8-237.5-29.4-107 15.3-248.1 15.3-248.1s113.7-74.6 324.1-74.6m0-4.6C183.1 21.3 67 95.8 65.8 96.6l-1.3.9-.5 1.6c-.4 1.4-44.8 143.6-15.4 250.8C74.7 445.1 130.2 505 172 538.3c45.4 36.1 87.5 51.7 94.3 52.4h1.2c22.6 0 201.5-33.1 327.5-177.1 132.4-143.2 156.2-304.7 156.5-306.3l.4-2.9-2.5-1.5c-1.3-.8-133.1-79.3-348-81.4-3-.2-5.9-.2-8.9-.2z"/></g><linearGradient id="c" gradientUnits="userSpaceOnUse" x1="442.205" y1="505.767" x2="527.508" y2="456.518" gradientTransform="matrix(1.0109 0 0 -1.0109 16.609 618.672)"><stop offset="0" stop-color="#181e56"/><stop offset="0" stop-color="#032556"/><stop offset="0" stop-color="#002956"/><stop offset="0" stop-color="#002b56"/><stop offset="0" stop-color="#002b55"/><stop offset="0" stop-color="#002b54"/><stop offset="0" stop-color="#002b54"/><stop offset="0" stop-color="#002b54"/><stop offset=".371" stop-color="#00315a"/><stop offset="1" stop-color="#003f68"/></linearGradient><path fill="url(#c)" d="M462.7 109l95.9 33.1-58.7 6.3 9.3-14.8z"/><path shape-rendering="optimizeQuality" fill="#002B54" d="M650.7 88.2c-28.7-11.2-41.2-19-92.9-30.3C440.4 32 338.6 38.7 338.6 38.7s80.7.1 133.9 16.6c79.5 24.7 108 61.8 108 61.8l-.6 23.3s11.8 7.3 20.8 25.7c14.4 29-7.6 67.4-7.6 67.4s-86.7-93.4-222.9-23.8l26.8-47.8-92.9-15.4 84.2-31.3-86.6-24 98-25.5s-54.8-14.4-132.5-2.2C136 83.9 152.7 170.2 152 170.3c3.2 24.1 11.1 49.2 24.6 72.9-12.9-29.9-12.7-60.5 2.6-76.1 23.8-8.5 85.2 20.5 127.7 57.5 54.4 47.4 58.6 91.8 58.9 113.6-34.1 6.1-97.6-13.5-134.2-33.5 13.8 10.1 29.8 19.1 47.8 26.5 176.8 72.1 361.8-24.6 361.8-24.6l2.4-2.4c-20.1 2.9-71 5.3-89.8-2.4 0 0 86.9-21.8 128.3-65.3-30.3 9.5-72.9 3.9-72.9 3.9s102.4-30.2 107.5-87.2c3-33.9-45.9-57.4-66-65zM389.4 321.7c-.9 8-7.5 13.2-12.1 13.6-4.7-34.8-5.6-66.4-57-113.9-39.9-36.8-85.6-57.7-119.3-61.9 35.6-11.8 107.1 21.7 137.3 47.8 57.4 49.4 55.1 100.9 51.1 114.4z"/><g opacity=".5" shape-rendering="optimizeQuality" fill="none"><path d="M370.3 209.7c136.2-69.8 222.9 23.8 222.9 23.8s21.9-38.3 7.6-67.4c-9-18.4-20.8-25.7-20.8-25.7l.6-23.3s-10.3-13.3-35.5-29.2c-65.2 16.5-125.9 39.7-180.4 68.6l32.4 5.4-26.8 47.8zM201 159.5c26.3 3.2 59.9 16.8 92.4 40 5.7-3.8 11.3-7.7 17.1-11.5-34.6-20.1-82.4-37.5-109.5-28.5zm119.3 61.9c51.5 47.5 52.4 79.2 57 113.9 4.7-.3 11.2-5.7 12.1-13.6 3.9-13.4 6.3-65-51.2-114.3-7.3-6.3-16.9-12.8-27.7-19.2-5.8 3.7-11.4 7.6-17.1 11.5 9.1 6.4 18.1 13.6 26.9 21.7z"/><path d="M201 159.5c27.1-9 74.9 8.3 109.5 28.5 17.3-11.2 35.4-21.7 54.1-31.7l-60.5-10 84.2-31.3-86.6-23.8 98-25.5s-54.8-14.4-132.5-2.2C136 83.9 152.7 170.2 152 170.3c3.2 24.1 11.1 49.2 24.6 72.9-12.9-29.9-12.7-60.5 2.6-76.1 19.7-7 65.2 11.7 104.5 39.4 3.2-2.3 6.5-4.7 9.8-6.9-32.6-23.3-66.2-36.8-92.5-40.1zM557.9 57.8C440.5 31.9 338.7 38.6 338.7 38.6s80.7.1 133.9 16.6c31.9 9.9 55.5 21.8 72.5 32.6 22.2-5.7 45.1-10.5 68.3-14.6-13.2-4.8-29.4-9.6-55.5-15.4z"/></g><g shape-rendering="optimizeQuality" fill="#C41230"><path d="M131.6 87.1c-20.9 46.9-43.3 166.1 16.3 258.2 10.2-15.6 21.5-30.7 33.9-45.4-73.6-88-50.2-212.8-50.2-212.8z"/><path d="M87.9 124.4S15.7 301.3 105 429.9c7.7-20.8 17.1-41 28.3-60.7-74.8-107.6-45.4-244.8-45.4-244.8z"/></g><path shape-rendering="optimizeQuality" fill="none" d="M320.3 221.4c51.5 47.5 52.4 79.2 57 113.9 4.7-.3 11.2-5.7 12.1-13.6 3.9-13.4 6.3-65-51.2-114.3-7.3-6.3-16.9-12.8-27.7-19.2-5.8 3.7-11.4 7.6-17.1 11.5 9.1 6.4 18.1 13.6 26.9 21.7zM201 159.5c26.3 3.2 59.9 16.8 92.4 40 5.7-3.8 11.3-7.7 17.1-11.5-34.6-20.1-82.4-37.5-109.5-28.5zm169.3 50.2c136.2-69.8 222.9 23.8 222.9 23.8s21.9-38.3 7.6-67.4c-9-18.4-20.8-25.7-20.8-25.7l.6-23.3s-10.3-13.3-35.5-29.2c-65.2 16.5-125.9 39.7-180.4 68.6l32.4 5.4-26.8 47.8z"/><linearGradient id="d" gradientUnits="userSpaceOnUse" x1="537.849" y1="291.063" x2="385.073" y2="474.925" gradientTransform="matrix(1.0109 0 0 -1.0109 16.609 618.672)"><stop offset="0" stop-color="#181e56"/><stop offset="0" stop-color="#032556"/><stop offset="0" stop-color="#002956"/><stop offset="0" stop-color="#002b56"/><stop offset="0" stop-color="#002b55"/><stop offset="0" stop-color="#002b54"/><stop offset="0" stop-color="#002b54"/><stop offset="0" stop-color="#002b54"/><stop offset=".265" stop-color="#00315a"/><stop offset=".722" stop-color="#004068"/><stop offset="1" stop-color="#134b73"/></linearGradient><path shape-rendering="optimizeQuality" fill="url(#d)" d="M650.7 88.2c-14.2-5.5-24.5-10.2-37.3-14.9-23.3 4-46.1 8.9-68.3 14.6 25.2 16 35.5 29.2 35.5 29.2l-.6 23.3s11.8 7.3 20.8 25.7c14.4 29-7.6 67.4-7.6 67.4s-86.7-93.4-222.9-23.8l26.8-47.8-32.4-5.4c-18.8 9.9-36.9 20.5-54.1 31.7 10.9 6.4 20.5 13 27.7 19.2 57.4 49.3 55.1 100.9 51.2 114.3-.9 8-7.5 13.2-12.1 13.6-4.7-34.8-5.6-66.4-57-113.9-8.7-8.1-17.7-15.3-26.8-21.7-3.3 2.3-6.6 4.5-9.8 6.9 8.1 5.8 16 11.7 23.3 18.1 54.4 47.4 58.6 91.8 58.9 113.6-34.1 6.1-97.6-13.5-134.2-33.5 13.8 10.1 29.8 19.1 47.8 26.5 176.8 72.1 361.8-24.6 361.8-24.6l2.4-2.4c-20.1 2.9-71 5.3-89.8-2.4 0 0 86.9-21.8 128.3-65.3-30.3 9.5-72.9 3.9-72.9 3.9s102.4-30.2 107.5-87.2c2.8-34-46.1-57.5-66.2-65.1z"/><linearGradient id="e" gradientUnits="userSpaceOnUse" x1="229.238" y1="411.743" x2="529.255" y2="100.049" gradientTransform="matrix(1.0109 0 0 -1.0109 16.609 618.672)"><stop offset="0" stop-color="#c41230"/><stop offset="0" stop-color="#c71d35"/><stop offset="0" stop-color="#cd3140"/><stop offset="0" stop-color="#cf3744"/><stop offset=".23" stop-color="#bb2f39"/><stop offset=".699" stop-color="#901d1d"/><stop offset=".825" stop-color="#851817"/></linearGradient><path shape-rendering="optimizeQuality" fill="url(#e)" d="M248.1 352.3c-28.4-14.4-49.5-32.2-66.3-52.4-12.3 14.7-23.7 29.7-33.9 45.3 27.7 42.8 72.1 79.5 143.3 100.6 94.4 28 189.9 5.1 238.7-19.4 21.5-10.8 36.3-21.2 53.7-37.7 20.5-19.3 40.8-48.4 40.8-48.4s-196.9 102.5-376.3 12z"/><linearGradient id="f" gradientUnits="userSpaceOnUse" x1="112.429" y1="264.533" x2="478.121" y2="39.969" gradientTransform="matrix(1.0109 0 0 -1.0109 16.609 618.672)"><stop offset="0" stop-color="#c41230"/><stop offset="0" stop-color="#c71d35"/><stop offset="0" stop-color="#cd3140"/><stop offset="0" stop-color="#cf3744"/><stop offset=".23" stop-color="#bb2f39"/><stop offset=".699" stop-color="#901d1d"/><stop offset=".825" stop-color="#851817"/></linearGradient><path shape-rendering="optimizeQuality" fill="url(#f)" d="M108 434.6c59.5 81.3 159.7 124.5 168.2 126.3 8.6 1.7 52.2 1.6 127.9-34.1 89.2-42.1 109.4-66.8 109.4-66.8s-212 87.2-354.4-59.2c-9.8-10.1-18.5-20.8-26.1-31.7-11.1 19.6-20.6 39.7-28.2 60.6 1.1 1.4 2 3.3 3.2 4.9z"/></svg>