<?xml version="1.0" encoding="utf-8"?>
<!-- Generator: Adobe Illustrator 23.0.6, SVG Export Plug-In . SVG Version: 6.00 Build 0)  -->
<svg version="1.1" id="Layer_1" xmlns="http://www.w3.org/2000/svg" xmlns:xlink="http://www.w3.org/1999/xlink" x="0px" y="0px"
	 viewBox="0 0 639 500" style="enable-background:new 0 0 639 500;" xml:space="preserve">
<style type="text/css">
	.st0{display:none;}
	.st1{fill:#6795C5;}
	.st2{fill:#7EA9D8;}
</style>
<g>
	<g>
		<g>
			<g>
				<rect x="-229.1" y="-5" class="st0" width="1105" height="736"/>
			</g>
		</g>
	</g>
	<g>
		<g>
			<g>
				<path d="M139.8,64.8l61.8-12.7c39.1-8,79.1-12.1,119-12.1c39.9,0,79.9,4.1,119,12.1l61.8,12.7c15.5-7.5,30.7-15.9,45.4-25.3
					L446.4,18.9c-41.3-8.5-83.6-12.8-125.8-12.8c-42.2,0-84.5,4.3-125.8,12.8L94.5,39.5C109.1,48.9,124.3,57.3,139.8,64.8z"/>
				<path d="M529.4,170.8v76.5c0,25.3-6.6,50.3-19,72.3c-12.5,22-30.5,40.5-52.2,53.6l-137.5,82.6l-137.5-82.6
					c-21.7-13-39.7-31.5-52.2-53.6c-12.5-22-19-47-19-72.3v-76.5c-11.6-7.8-22.9-16.2-33.9-25.3v101.8c0,31.1,8.1,61.9,23.4,89
					c15.3,27.1,37.5,49.9,64.2,65.9l155,93l155-93c26.7-16,48.9-38.8,64.2-65.9c15.3-27.1,23.4-57.9,23.4-89V145.6
					C552.3,154.6,541,163,529.4,170.8z"/>
			</g>
			<g>
				<path d="M250.3,367.6l-5.4-5.6l-0.8-7.8c-1.6-15.7,1.5-24.1,5-29.1c-0.1-0.4-0.2-0.9-0.5-1.6c-2.3-5.7-8.8-24.5-18.5-52.5
					c-6.1-17.7-13.7-39.7-15.2-43.5c-2.4-5.3-3-10.9-1.4-19.2c-23.2-7.5-45.9-17.5-67.7-29.7v67.2c0,19.5,5.1,38.7,14.6,55.6
					c9.6,16.9,23.5,31.2,40.2,41.2l62,37.2C256.7,374.2,252,369.3,250.3,367.6z"/>
				<path d="M320.6,117.6c50.7,0,100.7-9.1,147.9-26.6l-35.6-7.3c-36.8-7.6-74.6-11.4-112.2-11.4c-37.6,0-75.3,3.8-112.2,11.4
					L172.8,91C220,108.5,269.9,117.6,320.6,117.6z"/>
				<path d="M427.7,208.2c1.6,8.3,1,13.9-1.4,19.2c-1.5,3.8-9.1,25.8-15.2,43.5c-9.7,28-16.2,46.8-18.5,52.5
					c-0.3,0.7-0.4,1.2-0.5,1.6c3.5,5,6.5,13.5,5,29.1l-0.8,7.8l-5.4,5.6c-1.7,1.8-6.7,6.9-13,12.8l63-37.8
					c16.7-10,30.6-24.3,40.1-41.2c9.6-16.9,14.7-36.2,14.7-55.6v-67.4C473.8,190.7,451,200.7,427.7,208.2z"/>
			</g>
		</g>
		<path class="st1" d="M634.6,13.9c-84,78.6-193.9,126.3-314,126.3c0,0,0,0,0,0v25.1l0,0l10.7,32.5h34.5L337.9,218l10.9,33
			l-28.2-20.4v155.5c2.1,0,4.4-0.1,6.3-0.3c3.7-0.4,8.8-1.6,14.9-5.2c12.1-7.1,32.8-28.7,32.8-28.7s1.2-11.8-1.5-14.5
			c-2.7-2.7-5.9-11.5-1.5-22.5c4.4-10.9,31.7-91.7,34-96.7c1.4-3-2.6-15.8-6-25.5C493.7,169.2,576.1,104.5,634.6,13.9z M346.1,358.3
			v-11.8c0-1.4,0.7-2.6,1.9-3.3l10.6-5.9L346.1,358.3z"/>
		<path class="st2" d="M320.6,165.3v-25.1c-120.2,0-230-47.6-314-126.3c58.5,90.6,140.9,155.3,235,178.9c-3.4,9.7-7.5,22.4-6,25.5
			c2.4,5,29.6,85.8,34,96.7c4.4,10.9,1.2,19.8-1.5,22.5c-2.7,2.7-1.5,14.5-1.5,14.5s20.7,21.6,32.8,28.7c6.5,3.8,12,5,15.7,5.2
			c1.5,0.1,3.4,0.2,5.4,0.2V230.6l0,0L292.4,251l10.8-33l-27.9-20.3h34.6L320.6,165.3z M293,343.2c1.2,0.7,1.9,1.9,1.9,3.3v11.8
			l-12.6-21L293,343.2z"/>
	</g>
</g>
</svg>
