<svg xmlns="http://www.w3.org/2000/svg" xmlns:xlink="http://www.w3.org/1999/xlink" viewBox="0 0 166.08 289.29">
  <defs>
    <clipPath id="clip-path" transform="translate(0 0)">
      <rect y="0.04" width="166.54" height="289.25" style="fill: none"/>
    </clipPath>
    <clipPath id="clip-path-2" transform="translate(0 0)">
      <rect width="166.08" height="289.29" style="fill: none"/>
    </clipPath>
    <clipPath id="clip-path-3" transform="translate(0 0)">
      <rect x="18.36" y="18.38" width="130.17" height="245.35" style="fill: none"/>
    </clipPath>
  </defs>
  <title>Asset 1</title>
  <g id="Layer_2" data-name="Layer 2">
    <g id="Layer_1-2" data-name="Layer 1">
      <g style="clip-path: url(#clip-path)">
        <g id="Group14">
          <g style="clip-path: url(#clip-path-2)">
            <g id="Group13">
              <path d="M41.3,247.86,0,206.56V0H166V206.56L124.7,247.94C102,270.63,83.28,289.25,83,289.25S64.05,270.63,41.3,247.86Z" transform="translate(0 0)" style="fill: #092344;stroke: #fff;stroke-width: 0.0798494964838028px"/>
              <g style="clip-path: url(#clip-path-3)">
                <g id="Group12">
                  <path d="M50.48,231.49,18.4,199.37V132.66H30L70,172.77,110.17,213l7.59-7.59,7.58-7.59-31.93-32c-17.55-17.57-31.92-32.19-31.92-32.59s5.11-.56,11.41-.56H84.24l23.14,23.17L130.53,179l.39-22.93.4-23h16.76l.24,32.75.16,32.76-19.15,19.17-19.16,19.18L72.66,199.37l-37.5-37.55v30.36l29.92,30L95,252.1l-5.75,5.75A66.85,66.85,0,0,1,83,263.68C82.8,263.68,68.2,249.22,50.48,231.49Z" transform="translate(0 0)" style="fill: #ff6522;stroke: #fff;stroke-width: 0.0798494964838028px"/>
                  <path d="M18.4,69.94V18.41H65.08l6.23,6.24,6.14,6.15V73.94l-6,6L65.4,86l6.47,17.5c3.51,9.59,6.38,17.57,6.38,17.73a71,71,0,0,1-8.54.08l-8.62-.24-8.94-24c-4.94-13.18-8.93-24.21-9-24.53s2.47-.64,5.42-.64c5.11,0,5.59-.16,8-2.63l2.56-2.64V37.91l-2.64-2.56L53.83,32.8H36v88.67H18.4Z" transform="translate(0 0)" style="fill: #ff6522;stroke: #fff;stroke-width: 0.0798494964838028px"/>
                  <path d="M95.57,115.24l-6.15-6.15v-83l-3.75-3.83-3.75-3.84h25.86v82.77l2.63,2.56c2.48,2.4,3,2.56,8.62,2.56s6.07-.08,8.54-2.64l2.56-2.64V18.41h18.35v89.88l-6.62,6.63-6.55,6.55H101.79Z" transform="translate(0 0)" style="fill: #ff6522;stroke: #fff;stroke-width: 0.0798494964838028px"/>
                </g>
              </g>
            </g>
          </g>
        </g>
      </g>
    </g>
  </g>
</svg>
