<?xml version="1.0" encoding="utf-8"?>
<!-- Generator: Adobe Illustrator 16.0.4, SVG Export Plug-In . SVG Version: 6.00 Build 0)  -->
<!DOCTYPE svg PUBLIC "-//W3C//DTD SVG 1.1//EN" "http://www.w3.org/Graphics/SVG/1.1/DTD/svg11.dtd">
<svg version="1.1" id="Layer_1" xmlns="http://www.w3.org/2000/svg" xmlns:xlink="http://www.w3.org/1999/xlink" x="0px" y="0px"
	 width="1000px" height="1000px" viewBox="0 0 1000 1000" enable-background="new 0 0 1000 1000" xml:space="preserve">
<g>
	<path fill="#FFFFFF" d="M420.571,151.709c4.222-2.346,8.269-6.312,12.023-11.786c6.986-10.17,11.867-25.662,11.867-45.681
		c0-21.107-5.424-47.244-19.561-77.496c-0.126-0.333-3.64-9.014-7.411-16.747c111.207,20.326,132.697,88.803,141.753,121.944
		c3.728,13.643,5.918,21.635,10.802,24.889c3.989,2.66,9.868,2.208,14.829,0.831c14.86-4.115,29.551-25.463,37.628-42.489
		c0,0,5.956-11.598,10.06-20.563c3.169,8.874,8.712,27.66,8.712,50.987c0,0.528,0,1.053-0.016,1.581
		c-0.398,36.591-11.024,68.917-20.402,97.438l-1.761,5.359l-2.955,8.276c-4.372,11.847-7.694,21.539-7.694,28.108
		c0,3.219,0.788,5.688,2.656,7.296c1.6,1.389,3.2,1.47,4.264,1.294c3.897-0.644,6.867-5.711,11.782-14.106
		c6.385-10.883,16.023-27.327,31.894-39.63c14.998-11.614,33.885-14.626,41.77-15.415c-2.396,7.771-6.622,23.063-6.622,34.451
		c0,5.313,0.919,9.742,3.384,12.13c2.695,2.61,8.153,2.649,14.967,0.107c17.011-6.347,46.256-31.056,53.153-82.797
		c4.295,6.278,11.53,16.804,11.53,16.804c18.305,29.034,23.962,59.152,23.962,86.383c0,28.671-6.262,54.153-10.603,71.826
		l-0.689,2.718c-1.47,5.818-3.062,12.085-3.062,17.122c0,3.525,0.789,6.446,2.932,8.184c5.558,4.517,13.903,3.499,17.233,2.855
		c16.199-3.143,33.792-19.894,43.782-34.167c0,0.762,0.054,1.558,0.054,2.315c0,28.966-5.512,53.744-17.064,77.224
		c-23.909,48.595-66.789,72.672-98.093,90.257l-8.827,4.992l-7.61,4.279c-16.253,9.057-26.206,14.921-27.247,19.974l0.038,1.286
		c3.246,11.759,36.342,14.148,75.371,5.458c0,0,15.312-3.261,24.1-5.122c-2.741,4.448-6.262,10.312-14.071,21.367
		c-29.038,41.157-92.933,48.89-126.648,43.913c-0.007,0-8.735-1.286-8.735-1.286l13.627,13.78
		c9.141,9.355,22.424,22.792,36.648,34.895c-32.361-2.657-69.56-17.554-88.898-31.878l-0.475-0.359l-25.456-5.352l0,0l-7.801-1.784
		c-15.434-3.346-31.465-8.046-47.703-13.964l-3.361-1.232l-0.252,3.567c-1.569,22.263-4.8,55.864-11.315,89.633
		c-18.569,96.248-33.433,101.63-39.033,103.651c-10.619,3.835-17.532-4.271-22.894-12.708c-2.186-3.454-3.583-5.482-4.708-6.377
		c-6.324-4.065-13.734-11.821-13.734-26.068c0-4.004,0.597-8.33,1.78-12.885c1.956-7.533,7.273-16.866,13.432-27.668
		c7.625-13.367,16.261-28.525,20.403-43.178c4.995-17.669,9.826-38.417,13.585-58.405l0.907-4.823l-4.563,1.822
		c-4.551,1.83-28.755,9.854-50.493,13.543c-27.419,4.67-46.926,5.344-56.79,5.918c13.428-11.346,16.349-14.515,16.349-16.414
		c0-0.459-0.119-0.789-0.222-1.08c-0.18-0.528-0.961-2.235-3.43-2.259c-7.135-0.076-39.867-2.817-58.386-10.182
		c-18.439-7.35-45.039-5.673-66.67,3.636c8.379-34.022,28.567-41.961,45.069-48.154l6.978-2.71l4.379-1.784
		c6.783-2.725,13.792-5.542,16.942-8.659c1.291-1.133,2.002-2.618,2.002-4.218c0-0.353-0.031-0.705-0.1-1.057
		c-1.397-7.25-18.056-14.431-48.292-25.156l-1.623-0.574c-51.875-18.393-116.436-41.276-121.339-122.664
		c-0.26-4.39-0.348-8.731-0.348-12.433c0-2.431,0.042-4.467,0.08-6.194c37.904,26.676,61.64,32.725,66.092,30.16
		c5.206-2.989-1.347-17.148-9.045-29.88c-33.972-56.178-42.057-121.722-12.739-152.908c22.917,49.544,41.356,60.718,58.138,55.611
		c8.437-2.564,34.883-15.839,24.548-62.8c8.219,7.059,22.811,20.096,22.811,20.096l4.329,3.79l1.673-2.691
		c5.868-9.409,13.355-18.098,22.244-25.838l2.044-1.776l-8.792-10.014c-11.024-14.615-17.091-31.446-17.091-47.393
		c0-3.854,0.368-7.617,1.091-11.181c2.588-12.739,9.803-23.093,20.318-29.168c17.283-9.999,43.672-6.132,62.758,9.198
		c9.137,7.342,16.571,17.095,22.098,28.98l1.221,2.63L420.571,151.709z"/>
	<g>
		<path d="M513.339,797.08h-4.233v-16.56h-6.052v-3.544h16.326v3.544h-6.041V797.08z"/>
		<path d="M541.161,797.08h-3.889v-16.812h-0.084l-3.729,16.812h-4.134l-3.683-16.812h-0.039v16.812h-3.927v-20.104h6.155
			l3.622,15.839h0.053l3.575-15.839h6.079V797.08z"/>
	</g>
	<path fill="#C41230" d="M842.168,373.431c-21.842,23.231-66.298,31.282-65.9,2.021c0.329-22.925,37.927-101.393-7.61-173.602
		c-5.061,23.205-15.977,42.145-37.428,59.007c-17.662,13.876-59.7,30.565-41.839-35.802c-22.661,4.28-40.262,23.749-66.016,65.242
		c-6.27,10.09-28.112,6.393-22.914-18.944c6.255-30.554,39.067-98.319,28.64-159.431c-14.109,32.702-40.438,49.349-58.643,45.777
		c-32.2-6.316-5.864-107.792-136.402-145.229c44.74,95.765,7.342,153.854-24.766,151.641c0.138,0.414,0.302,0.812,0.429,1.232
		c1.715,5.532,2.671,10.925,3.013,16.058c25.156-3.369,53.785,0.501,81.28,12.689c59.78,26.458,90.717,81.859,71.578,124.237
		c-1.523,3.376-3.422,6.519-5.474,9.554c10.213,14.649,18.213,41.012,20.357,71.39c1.516,21.589-1.187,44.009-5.206,59.141
		c8.261,10.932,32.422,47.963,47.389,78.188c12.693,25.593,22.714,49.938,29.604,70.77c25.134,3.713,86.188-0.827,117.339-40.308
		c-34.604,7.702-80.952,10.389-87.291-12.632C672.341,518.319,819.798,503.739,842.168,373.431z"/>
	<path d="M367.241,223.076c4.31,12.674,21.019,21.467,21.019,21.467s1.052-9.665,14.102-11.243
		C385.026,233.021,372.635,225.53,367.241,223.076z"/>
	<path d="M471.52,240.991c-1.106,0.857-2.189,2.404-2.688,1.171c-0.405-0.95-0.459-2.423-0.777-3.308
		c-0.731-2.063-1.439-2.955-2.652-3.751c0.203,1.041,0.092,2.014-0.494,3.066c-0.49,0.877-1.531,2.155-2.381-0.789
		c-0.57,0.042-1.141,2.848-1.397,3.924c-0.107,0.513-1.053,0.819-1.451-0.528c-0.394-1.343-1.118-6.216-1.665-7.078
		c-0.011,1.16-0.796,2.714-1.615,2.875c-1.455,0.268-2.071-3.989-8.265-3.759c3.583,3.227,2.404,6.025,2.159,6.351
		c-0.555,0.792-2.358,0.421-2.358,0.421c0.038,0.065,0.065,0.138,0.111,0.203c1.091,1.93,3.051,4.134,3.709,4.838
		c0.696,0.731,0.57,2.021-0.969,1.47c-0.601-0.214-4.046-1.4-4.046-1.4s1.007,1.592,0.31,2.075
		c-1.221,0.857-3.001,0.857-4.528-0.536c-0.023,0.375,0.701,2.687,2.025,3.954c1.175,1.106,2.569,1.96,2.312,2.646
		c-0.256,0.692-2.013,0.509-2.97,0.271c1.428,1.991,3.051,2.676,5.527,3.005c1.236,0.176,3.793-0.463,4.318,0.329
		c0.532,0.796-1.792,1.78-2.018,3.273c0.678-0.337,1.034-0.589,2.01-0.716c0.857-0.119,2.752-0.517,3.369-0.777
		c0.635-0.249-0.038,0.912-0.038,0.912s1.914-1.072,2.787-1.849c0.475-0.425,0.854-0.823,1.087-1.099
		c0.271,0.972,0.562,2.362,0.754,3.721c0.168,1.278-0.241,2.821-0.153,3.483c0.119,0.666,0.432,0.953,0.823,1.026
		c0.401,0.084,0.846,0.682,1.11,0.444c0.348-0.314,0.134-2.201-0.375-4.528c-0.417-1.853-1.052-3.698-1.385-4.586
		c0,0,1.393,0.039,2.943-0.218c0.627-0.111,1.818-0.23,2.859-0.62c0.314-0.111,0.605-0.253,0.865-0.417
		c-0.804-0.142-0.88-0.521-0.88-0.521s3.774-1.095,4.49-3.74c-1.562,0.685-3.173,1.78-3.851,0.93
		C467.072,249.829,472.779,246.066,471.52,240.991z"/>
	<g>
		<path fill="#FFFFFF" d="M162.86,833.514c-20.242-0.805-37.528,3.835-48.66,13.084c-13.979,11.537-15.866,27.529-15.866,41.646
			v49.824c-0.023,15.609-0.046,33.316,15.043,47.389c10.259,9.669,29.203,15.089,50.646,14.499
			c21.378-0.612,40.835-6.89,53.387-17.271l4.107-3.392v-62.823c0,0-55.305,0-57.472,0c0-3.453,0-3.705,0-6.921
			c2.167,0,57.472,0,57.472,0v-55.811l-5.061-3.36C201.384,840.381,181.847,834.232,162.86,833.514z"/>
		<path fill="#FFFFFF" d="M249.473,837.617c-2.312,12.439-19.702,106.001-19.702,106.016c-0.031,0.115-0.659,3.047-0.659,3.047
			c-0.368,1.846-0.995,4.938-1.581,5.804l-3.151,2.909l-1.267,5.956v35.875h136.108V952.95c0,0-3.782-1.141-6.044-1.83
			c-0.344-0.788-0.8-2.12-1.389-5.343c-0.035-0.199-19.239-95.574-21.773-108.16H249.473z"/>
		<path fill="#FFFFFF" d="M361.634,836.224v41.846c0,0,3.448,2.336,4.555,3.094c0.038,0.834,0.118,3.139,0.118,3.139v64.828
			c0,0-0.08,2.297-0.118,3.147c-1.107,0.742-4.23,2.84-4.23,2.84l-0.325,6.231v35.875h128.677V884.332c0,0,0.084-2.335,0.119-3.161
			c1.079-0.743,4.188-2.864,4.188-2.864l0.379-6.216l-0.191-35.913L361.634,836.224z M704.534,836.224h-50.765l-19.14-0.046v43.14
			c0,0,3.476,1.607,5.367,2.473c0.054,0.812,0.115,1.662,0.115,1.662s0,66.88,0,66.902c0-0.145-0.076,0.566-0.138,1.264
			c-1.523,0.666-5.198,2.028-6.293,2.435v-1.103c0,0-3.782-1.141-6.063-1.83c-0.344-0.788-0.796-2.12-1.378-5.343
			c-0.03-0.199-19.844-97.014-22.377-109.6l-34.198,0.046h-31.335l-11.614-0.046c-3.169,17.042-22.492,107.44-22.492,107.455
			c-0.031,0.115-0.659,3.039-0.659,3.039c-0.375,1.854-0.999,4.954-1.592,5.819c-0.739,0.688-3.143,2.901-3.143,2.901l-1.26,5.956
			v35.875h130.599h5.512h73.273c14.661,0,30.057-1.026,42.979-13.245c14.676-13.811,14.676-29.535,14.676-42.152v-51.821
			c0-10.642,0-30.446-16.75-43.599c-6.438-4.962-13.719-7.48-20.916-8.789L704.534,836.224z"/>
		<path fill="#FFFFFF" d="M895.628,951.12c-0.368-0.818-0.812-2.174-1.417-5.39l-22.025-109.507h-9.271h-70.754
			c0,0-19.943,107.395-19.943,107.409c-0.03,0.131-0.666,3.056-0.666,3.056c-0.383,1.837-0.995,4.93-1.593,5.787
			c-0.727,0.689-3.154,2.917-3.154,2.917l-1.263,5.956v35.875h136.126V952.95C901.668,952.95,897.886,951.81,895.628,951.12z"/>
	</g>
	<g>
		<path fill="#C41230" d="M168.563,890.005c0-5.649,1.125-15.327-7.912-15.327c-9.03,0-7.912,9.678-7.912,15.327v53.437
			c0,5.643-1.118,15.327,7.912,15.327c9.038,0,7.912-9.685,7.912-15.327v-15.663h41.644v46.188
			c-11.135,9.202-29.057,14.192-46.497,14.691c-17.268,0.475-34.056-3.415-42.619-11.461c-11.943-11.14-11.446-25.677-11.446-40.867
			v-48.085c0-12.44,1.604-24.545,11.771-32.942c9.359-7.771,24.701-11.14,41.008-10.488c16.472,0.628,33.915,5.795,47.783,14.997
			v38.425h-41.644V890.005z"/>
		<path fill="#C41230" d="M293.995,922.771l-7.097-40.997h-0.329l-6.771,40.997H293.995z M282.052,985.908h-47.626v-24.56
			c4.693-3.216,5.164-10.312,6.462-15.648l18.243-98.169h61.35l20.18,100.267c0.8,4.364,2.419,12.104,7.258,13.551v24.56h-54.406
			v-24.56c3.399-1.271,5.007-3.858,5.007-7.563c0-1.471-0.326-2.748-0.647-4.035h-20.835c-0.31,1.287-0.631,2.733-0.631,4.035
			c0,3.873,1.933,6.614,5.646,7.563V985.908z"/>
		<path fill="#C41230" d="M443.825,910.017h0.311v-24.375c0-5.16,0.497-10.32-4.678-13.551v-24.56h44.227v24.56
			c-5.16,3.23-4.682,8.391-4.682,13.551v100.267h-41.8l-25.685-62.165h-0.314v24.055c0,5.168-0.479,10.335,4.682,13.551v24.56
			h-42.945v-24.56c5.164-3.216,4.67-8.383,4.67-13.551v-62.156c0-5.16,0.494-10.32-4.67-13.551v-24.56h46.822L443.825,910.017z"/>
		<path fill="#C41230" d="M554.236,922.771l6.791-40.997h0.306l7.127,40.997H554.236z M556.51,961.349
			c-3.729-0.949-5.666-3.69-5.666-7.563c0-1.302,0.322-2.748,0.658-4.035h20.824c0.314,1.287,0.635,2.564,0.635,4.035
			c0,3.705-1.607,6.293-4.999,7.563v24.56h54.402v-24.56c-4.831-1.447-6.454-9.187-7.258-13.551l-20.173-100.267h-61.353
			L515.338,945.7c-1.294,5.337-1.776,12.433-6.462,15.648v24.56h47.634V961.349z"/>
		<path fill="#C41230" d="M694.543,877.732h3.391c9.355,0,12.257,3.392,12.257,13.398v52.166c0,9.998-2.901,13.39-12.257,13.39
			h-3.391V877.732z M645.944,847.531v24.56c4.991,2.09,5.321,6.124,5.481,10.971v67.309c-0.161,4.693-0.65,8.881-5.481,10.979v24.56
			h61.008c13.076,0,25.34-0.827,35.216-10.151c10.488-9.884,11.124-20.38,11.124-33.931v-51.821
			c0-13.229-1.133-25.846-12.425-34.703c-9.86-7.603-23.411-7.771-35.201-7.771H645.944z"/>
		<path fill="#C41230" d="M883.103,947.798l-20.188-100.267H801.57L783.334,945.7c-1.31,5.337-1.776,12.433-6.477,15.648v24.56
			h47.634v-24.56c-3.713-0.949-5.65-3.69-5.65-7.563c0-1.302,0.313-2.748,0.643-4.035h7.373c-0.299-0.413-0.391-0.979,0-1.876
			c0.589-1.286,1.141-1.913,2.396-3.958c1.822-3,2.503-7.854,3.024-12.096c-0.766,0.384-2.45,1.164-3.858,1.646
			c-2.564,0.872-7.602,1.53-7.602,1.53s2.488-1.905,0.918-1.905c-1.577,0-5.933-0.743-7.862-1.218
			c-2.189-0.544-3.192-0.337-4.922-0.184c1.845-2.947,7.686-3.077,7.28-5.198c-0.398-2.128-6.393-2.924-8.857-4.333
			c-4.946-2.81-7.771-5.612-8.958-11.01c1.807,1.295,5.336,3.186,6.523,1.938c1.194-1.225-0.988-4.203-2.473-7.541
			c-1.662-3.797-1.064-9.286-0.666-10.044c1.952,4.233,4.999,5.344,8.383,4.586c1.921-0.429,1.347-4.854,1.347-4.854
			s6.837,6.025,7.893,6.982c2.794,2.45,4.211-0.161,3.438-2.289c-0.589-1.585-2.006-5.742-2.871-9.86
			c-0.245-1.172-0.452-2.358-0.574-3.483c-0.031-0.169-0.046-0.345-0.069-0.513c0,0,3.499,2.312,5.413,1.133
			c0.788-0.506,5.849-5.397,1.232-15.212c13.344,4.746,10.741,14.231,14.071,14.875c1.876,0.375,4.953-2.259,6.049-4.686
			c0.39,2.29-2.565,13.168-2.94,16.345c-0.406,3.17,1.753,3.002,2.35,1.938c1.692-2.963,5.581-7.097,6.807-6.676
			c-0.888,6.89,2.496,5.083,4.318,3.659c2.22-1.73,3.345-3.659,3.866-6.048c1.845,2.694,2.526,5.175,2.212,10.159
			c-0.145,2.128-1.385,5.298-1.424,7.641c-0.053,3.001,3.636,0.658,6.798-0.215c-1.975,11.782-17.523,14.859-16.498,18.565
			c0.658,2.357,5.076,1.416,9.003,1.309c-3.943,4.954-12.923,4.073-12.923,4.073s-0.191,0.881,1.378,1.846
			c-0.705,0.129-1.462,0.16-2.212,0.152c-0.177-0.023-0.337-0.023-0.49-0.038c-2.427-0.138-4.8-0.781-6.163-1.079
			c-3.506-0.767-6.446-2.037-6.446-2.037c-0.383,7.886-1.585,14.53-2.795,17.976h9.363c0.322,1.287,0.644,2.564,0.644,4.035
			c0,3.705-1.623,6.293-5.007,7.563v24.56h54.402v-24.56C885.522,959.901,883.907,952.162,883.103,947.798z"/>
	</g>
	<g>
		<path d="M520.375,292.824c-0.184,1.068-0.513,2.056-0.743,3.093c5.106,3.307,9.501,6.901,13.061,10.652
			c11.063-30.99-12.196-71.439-44.051-92.749C507.184,226.537,524.21,268.835,520.375,292.824z"/>
	</g>
	<path d="M601.985,585.414c-65.579-79.432-97.867-162.588-84.581-207.236c-22.232,20.314-25.608,65.177-9.608,112.145
		c0,0-50-43.412-72.4-104.187c10.882-0.559,19.867-1.845,30.704-4.996c15.97-4.632,29.964-11.839,41.834-20.705
		c14.225-3.162,24.644-10.029,28.035-20.1c1.225-3.667,1.378-7.53,0.689-11.449c-0.145,1.478-0.406,2.932-0.888,4.356
		c-6.293,18.745-38.535,25.65-71.986,15.376c-33.433-10.27-59.053-33.18-52.733-51.94c4.559-13.585,26.343-21.486,48.736-20.609
		c-32.717-5.543-61.055,2.347-67.091,20.307c-7.082,21.096,19.219,48.036,58.788,60.182c6.737,2.063,9.604,2.986,16.1,3.955
		c-53.67,12.44-112.562-18.133-131.598-65.912c-12.288-30.837-1.466-59.267,20.284-81.576c15.53,9.788,32.805,12.265,45.544,5.497
		c2.768-1.474,5.171-3.357,7.292-5.512c-1.807,1.293-3.771,2.396-5.933,3.265c-19.082,7.629-45.425-5.003-59.451-29.107
		c-14.642-25.164-10.423-53.188,10.102-61.613c10.986-4.505,24.146-2.24,36.074,4.865c-17.022-13.528-37.685-18.16-52.878-9.363
		c-21.773,12.575-21.433,46.233-1.317,72.906c4.976,6.61,10.741,12.134,16.858,16.544c-18.159,12.218-31.564,28.36-39.002,46.244
		c-11.284-10.006-12.505-11.648-19.732-17.489c4.907,34.274-50.827,93.208-94.387,2.626c-10.041,12.705-9.512,60.913,6.546,97.867
		c14.201,32.625,37.279,60.591,24.016,73.671c-11.824,11.656-45.827-6.316-63.298-18.944
		c5.631,118.465,164.56,105.312,172.687,149.685c3.782,20.64-59.784,25.823-70.486,50.704c10.898-5.888,33.934-6.025,54.096,2.006
		c22.798,9.072,52.419,9.057,67.596,10.259c20,1.577-6.733,19.912-6.733,19.912s48.874-6.393,73.633-14.975
		c13.654-4.746,24.854-9.952,32.288-13.719c-3.261,22.209-9.485,53.322-17.75,82.544c-7.851,27.76-30.01,56.109-33.789,70.64
		c-3.755,14.523,0.222,23.135,7.538,27.828c7.529,4.846,11.303,20.893,18.821,18.167c10.041-3.628,22.496-44.027,32.529-96.064
		c8.031-41.593,11.238-84.649,12.203-105.871c0,0,28.387,12.51,62.456,19.897c8.398,1.83,21.022,5.091,35.216,7.556
		c21.33,16.177,40.285,26.014,67.187,34.068C644.183,635.1,630.396,619.812,601.985,585.414z"/>
	<path d="M466.551,291.339c-2.071-0.111-4.138-0.195-6.144-0.215c-3.078-4.536-7.621-7.238-9.792-6.947
		c1.975,1.715,4.038,4.149,5.906,7.043c-14.06,0.368-26.049,3.085-33.547,7.622c9.394-2.875,21.761-4.295,35.603-3.974
		c1.906,3.66,3.196,7.189,3.602,10.033c1.435-1.271,1.925-5.42,0.298-9.899c2.132,0.096,4.28,0.226,6.469,0.406
		c1.994,3.759,3.319,7.403,3.744,10.324c1.432-1.282,1.941-5.432,0.298-9.91c0.992,0.104,1.972,0.176,2.975,0.298
		c1.267,0.165,2.5,0.368,3.751,0.547c2.216,3.985,3.602,7.87,4.062,10.967c1.481-1.306,1.963-5.688,0.126-10.354
		c2.48,0.425,4.918,0.881,7.296,1.386c2.109,3.901,3.472,7.69,3.912,10.703c1.401-1.248,1.895-5.306,0.349-9.704
		c12.552,3.016,23.446,7.177,31.461,11.958c-6.752-6.672-18.887-12.586-33.834-16.356c-3.066-4.341-7.415-6.909-9.524-6.637
		c1.611,1.42,3.288,3.36,4.88,5.615c-2.328-0.505-4.705-0.945-7.139-1.328c-3.028-3.961-7.07-6.293-9.091-6.014
		c1.558,1.359,3.162,3.204,4.708,5.34c-0.18-0.023-0.352-0.058-0.524-0.081c-1.937-0.234-3.824-0.379-5.727-0.532
		c-3.058-4.341-7.403-6.928-9.546-6.641C462.934,286.565,464.806,288.751,466.551,291.339z"/>
	<path d="M425.513,246.51c0,2.163-1.765,3.928-3.928,3.928c-2.17,0-3.935-1.765-3.935-3.928c0-2.167,1.765-3.927,3.935-3.927
		C423.748,242.583,425.513,244.344,425.513,246.51z"/>
	<path d="M420.774,184.595c3.767,15.146,0.804,27.173-6.381,35.357c-11.464,13.064-4.383,29.915,3.9,37.494
		c-7.285-14.726-6.029-29.632,3.024-36.617c8.008-0.613,14.37,2.458,14.37,2.458S437.602,204.048,420.774,184.595z"/>
</g>
<g>
</g>
<g>
</g>
<g>
</g>
<g>
</g>
<g>
</g>
<g>
</g>
</svg>
