<?xml version="1.0" encoding="utf-8"?>
<!-- Generator: Adobe Illustrator 15.1.0, SVG Export Plug-In  -->
<!DOCTYPE svg PUBLIC "-//W3C//DTD SVG 1.1//EN" "http://www.w3.org/Graphics/SVG/1.1/DTD/svg11.dtd" [
	<!ENTITY ns_flows "http://ns.adobe.com/Flows/1.0/">
]>
<svg version="1.1"
	 xmlns="http://www.w3.org/2000/svg" xmlns:xlink="http://www.w3.org/1999/xlink" xmlns:a="http://ns.adobe.com/AdobeSVGViewerExtensions/3.0/"
	 x="0px" y="0px" width="1000px" height="1000px" viewBox="0 -55.566 1000 1000"
	 overflow="visible" enable-background="new 0 -55.566 1000 1000" xml:space="preserve">
<defs>
</defs>
<path fill-rule="evenodd" clip-rule="evenodd" fill="#ED1C24" d="M476.175,362.494c-2.253-0.02-4.434-0.294-6.541-0.815
	c-29.854,74.887-133.584,246.775,129.057,277.257c-167.004,124.205-380.803-120.393-146.157-289.32
	c-0.701-1.045-1.322-2.14-1.863-3.279c-76.579,24.954-275.351,55.062-130.726,276.572
	C117.642,573.972,168.94,253.135,448.948,325.538c0.264-0.905,0.598-1.779,0.945-2.644
	c-69.504-40.552-224.289-169.157-293.58,86.261C58.343,225.488,332.098,50.461,464.216,307.763c1.493-0.714,3.042-1.312,4.668-1.75
	c-9.93-79.875-1.576-280.85-246.602-181.04c86.559-189.273,391.687-77.868,267.361,183.189c1.582,0.805,3.064,1.786,4.454,2.858
	c58.113-55.756,224.011-169.23-2.491-305.879c203.452-43.81,296.682,267.291,13.262,323.865l0.187,1.422
	c80.562,2.411,277.558,41.062,216.326-216.159c173.838,114.407,17.288,398.905-221.668,236.448
	c-1.155,1.573-2.478,3.039-3.913,4.347c45.112,66.833,128.887,249.129,301.797,49.195
	C806.316,612.173,483.931,651.389,476.175,362.494z"/>
<path fill="#030202" d="M501.736,673.785c-65.755,0-126.012-44.444-146.531-108.086c-11.084-34.349-9.592-71.188,4.313-106.537
	c15.815-40.254,46.678-77.19,91.743-109.779c-0.384-0.624-0.731-1.249-1.078-1.906c-7.031,2.274-15.134,4.614-23.694,7.084
	c-51.188,14.791-128.532,37.13-150.691,96.802c-16.062,43.242-0.938,100.781,44.938,171.033l1.292,1.983l-2.3-0.555
	c-42.502-10.296-76.509-33.227-98.351-66.339c-19.785-30.028-28.275-66.761-23.905-103.439
	c4.504-37.827,22.376-72.362,50.297-97.249c31.404-27.988,74.155-42.785,123.611-42.785c24.115,0,49.993,3.496,76.933,10.393
	l0.411-1.112c-6.394-3.749-13.552-8.256-21.11-13.018c-36.749-23.15-87.079-54.848-135.994-54.848
	c-28.353,0-53.393,10.897-74.433,32.412c-24.786,25.334-44.955,66.226-59.963,121.558l-0.627,2.28l-1.105-2.083
	c-27.871-52.244-27.671-109.175,0.537-156.184c28.165-46.975,79.344-76.148,133.541-76.148c40.504,0,117,16.804,175.07,129.273
	c1.082-0.477,2.153-0.875,3.222-1.208c-0.895-7.352-1.653-15.769-2.458-24.669c-3.238-36.024-7.265-80.866-24.603-117.585
	c-20.456-43.319-54.354-64.376-103.639-64.376c-31.784,0-70.323,9.131-114.547,27.14l-2.177,0.898l0.981-2.15
	C248.701,64.917,301.669,29.3,363.084,29.3c53.412,0,103.986,27.581,132.021,71.972c34.481,54.601,32.966,127.908-4.227,206.491
	c1.062,0.591,2.11,1.275,3.145,2.033c5.355-5.105,11.646-10.734,18.276-16.687c39.67-35.564,99.6-89.283,93.63-152.645
	c-4.341-45.914-42.962-91.172-114.811-134.508l-2.017-1.229l2.304-0.494C504.447,1.429,517.461,0,530.034,0
	c40.92,0,77.639,14.607,106.184,42.238c26.596,25.731,43.256,60.38,46.929,97.546c4.06,41.076-8.447,81.531-35.21,113.916
	c-30.575,37.003-79.32,63.201-141.019,75.848c7.098,0.257,15.117,0.765,23.558,1.295c15.197,0.972,32.418,2.067,50.141,2.067
	c39.082,0,94.685-4.624,126.275-44.605c28.024-35.48,32.592-93.96,13.574-173.818l-0.547-2.304l1.977,1.305
	c74.151,48.795,83.633,122.727,67.788,175.654c-9.295,31.053-28.278,59.001-53.438,78.706
	c-27.344,21.417-61.031,32.732-97.416,32.746h-0.033c-44.485,0-91.213-16.353-138.876-48.598c-0.895,1.139-1.863,2.21-2.905,3.212
	c4.1,6.096,8.554,13.181,13.254,20.673c29.601,47.152,74.346,118.409,141.921,118.409c43.997,0,92.682-30.515,144.698-90.645
	l1.542-1.79l0.101,2.371c1.97,46.975-12.627,88.114-42.222,118.964c-28.899,30.148-69.945,47.429-112.619,47.429
	c-43.323,0-83.534-17.608-113.248-49.579c-34.168-36.779-53.232-91.27-55.172-157.636c-1.716-0.063-3.412-0.273-5.065-0.638
	c-2.738,6.838-6.11,14.527-9.652,22.64c-21.378,48.808-53.669,122.553-21.976,177.741c22.967,40.004,76.866,65.185,160.214,74.854
	l2.356,0.28l-1.89,1.415C569.258,661.993,535.544,673.785,501.736,673.785z M451.142,345.196l0.364,0.731
	c0.554,1.135,1.145,2.17,1.812,3.175l0.494,0.751l-0.737,0.524c-45.156,32.515-76.052,69.341-91.811,109.458
	c-13.745,34.963-15.221,71.368-4.29,105.282c20.286,62.881,79.804,106.798,144.762,106.798c32.686,0,65.304-11.185,94.484-32.318
	c-82.626-9.956-136.211-35.351-159.269-75.508c-32.165-56.023,0.354-130.289,21.879-179.427c3.683-8.407,7.154-16.349,9.936-23.327
	l0.304-0.761l0.795,0.2c2.036,0.494,4.163,0.761,6.323,0.788l0.901,0.01l0.03,0.902c1.779,66.299,20.696,120.693,54.704,157.285
	c29.347,31.584,69.077,48.992,111.866,48.992c42.167,0,82.732-17.081,111.271-46.842c28.733-29.975,43.149-69.771,41.774-115.238
	c-51.79,59.375-100.422,89.49-144.545,89.49c-68.61,0-113.682-71.781-143.503-119.288c-4.868-7.739-9.462-15.064-13.669-21.287
	l-0.454-0.675l0.595-0.541c1.389-1.266,2.664-2.678,3.786-4.21l0.54-0.725l0.748,0.504c47.609,32.365,94.23,48.782,138.562,48.782
	h0.033c35.964-0.01,69.25-11.195,96.254-32.345c24.859-19.468,43.623-47.089,52.811-77.774
	c15.505-51.803,6.431-123.999-65.051-172.236c18.51,79.271,13.643,137.49-14.482,173.101
	c-32.078,40.615-88.269,45.316-127.744,45.316c-17.782,0-35.037-1.095-50.254-2.063c-9.162-0.581-17.815-1.135-25.334-1.362
	l-0.814-0.02l-0.094-0.808l-0.174-1.369l-0.153-0.895l0.888-0.181c62.166-12.406,111.205-38.545,141.807-75.578
	c26.449-32.001,38.809-71.965,34.789-112.533c-3.625-36.729-20.092-70.954-46.36-96.388C606.711,16.3,570.46,1.873,530.034,1.873
	c-11.698,0-23.771,1.249-35.91,3.709c71.08,43.292,109.321,88.605,113.668,134.715c6.057,64.29-54.293,118.399-94.237,154.207
	c-6.864,6.153-13.348,11.966-18.803,17.194l-0.587,0.561l-0.641-0.494c-1.409-1.095-2.844-2.026-4.307-2.768l-0.801-0.417
	l0.387-0.818c37.273-78.289,38.949-151.262,4.715-205.489c-27.682-43.854-77.675-71.097-130.433-71.097
	c-59.916,0-111.708,34.352-138.969,92.037c43.523-17.518,81.541-26.389,113.048-26.389c50.09,0,84.545,21.407,105.328,65.448
	c17.478,37.026,21.534,82.048,24.79,118.226c0.824,9.191,1.603,17.885,2.541,25.391l0.09,0.808l-0.778,0.207
	c-1.506,0.421-2.981,0.968-4.523,1.703l-0.818,0.391l-0.411-0.808c-57.659-112.286-133.64-129.057-173.811-129.057
	c-53.543,0-104.107,28.826-131.945,75.241c-27.491,45.807-28.018,101.168-1.589,152.237c15.038-54.471,35.156-94.872,59.809-120.085
	c21.411-21.882,46.909-32.97,75.775-32.97c49.456,0,100.053,31.854,136.989,55.128c7.829,4.931,15.224,9.589,21.755,13.401
	l0.711,0.411l-0.314,0.748c-0.424,1.018-0.701,1.796-0.925,2.564l-0.25,0.861l-0.875-0.227c-27.1-7.001-53.118-10.56-77.33-10.56
	c-48.992,0-91.296,14.63-122.359,42.311c-27.587,24.586-45.232,58.707-49.686,96.081c-4.324,36.237,4.056,72.522,23.604,102.184
	c21.174,32.111,53.963,54.547,94.932,64.97c-45.209-69.885-59.956-127.297-43.834-170.713
	c22.486-60.566,100.388-83.066,151.923-97.95c8.858-2.558,17.231-4.975,24.403-7.312L451.142,345.196z"/>
<path fill-rule="evenodd" clip-rule="evenodd" d="M413.521,754.26c-54.878-6.276-227.25-50.087-295.816-254.567l-10.681-32.298
	l-38.278-18.597c66.907,211.905,143.73,292.328,344.692,305.662L413.521,754.26z"/>
<path d="M476.292,820.566v0.455l0.153,0.307c-2.717,2.417-5.231,4.935-7.562,7.552c-2.314,2.631-4.23,5.289-5.739,8.013
	c-12.987-1.822-19.284-8.867-18.887-21.16c0-8.46,0-16.974,0-25.541c0-8.554,0-17.114,0-25.681c-1.105,0-2.164,0-3.162,0
	c-1.015,0-2.03,0-3.031,0c-2.11,0-3.529-0.401-4.23-1.209c-0.701-0.801-1.065-1.709-1.065-2.711h0.905h0.918
	c0.207,1.296,1.409,2.003,3.626,2.097c1.813,0,3.656,0,5.519,0c1.863,0,3.696,0,5.516,0c0,9.368,0,18.777,0,28.186
	c0,9.428,0,18.823,0,28.178c-0.304,7.96,3.269,13.055,10.717,15.258c2.621-2.41,5.295-4.808,8.02-7.171
	C470.7,824.787,473.471,822.577,476.292,820.566z M476.896,792.615l0.077,0.301l0.07,0.301c-2.307,2.109-4.37,4.053-6.187,5.815
	c-1.812,1.77-2.73,4.007-2.73,6.718c0.1,2.932,0.988,4.921,2.647,5.982c1.669,1.056,2.344,2.645,2.036,4.755
	c-0.598,3.024-1.729,5.516-3.389,7.485c-1.669,1.949-3.559,3.646-5.672,5.062c2.21-3.325,3.392-6.03,3.559-8.087
	c0.141-2.057-0.134-3.846-0.835-5.361c-0.708-1.51-1.516-2.979-2.417-4.381c-0.911-1.409-1.309-3.191-1.208-5.288
	C463.345,800.968,468.029,796.535,476.896,792.615z"/>
<path d="M463.652,837.908l-0.638-0.094c-13.482-1.876-20.112-9.328-19.695-22.129v-50.247h-5.255c-2.431,0-4.043-0.487-4.932-1.529
	c-0.864-0.954-1.289-2.083-1.289-3.318v-0.948h3.545l0.117,0.802c0.057,0.3,0.19,1.202,2.737,1.328h11.933v57.278
	c-0.277,7.398,2.858,12.04,9.556,14.203l1.753-1.596l-1.112,0.741l2.598-3.894c2.113-3.165,3.252-5.742,3.392-7.625
	c0.137-1.896-0.11-3.553-0.738-4.908c-0.681-1.469-1.486-2.897-2.364-4.253c-1.005-1.59-1.459-3.553-1.362-5.856
	c0.544-5.315,5.462-10.043,14.624-14.103l4.594-2.043l-3.108,3.104l0.037,0.174l0.033,0.447l-0.374,0.454
	c-2.337,2.124-4.394,4.047-6.2,5.81c-1.639,1.589-2.434,3.579-2.434,6.043c0.077,2.551,0.835,4.313,2.21,5.195
	c1.966,1.248,2.814,3.211,2.46,5.682c-0.521,2.611-1.416,4.861-2.688,6.731c1.492-1.188,2.995-2.337,4.5-3.412l0.21-0.154
	l6.888-4.928L477.3,820.8l0.057,0.848l-0.244,0.588l-0.307,0.014c-2.571,2.303-5.011,4.761-7.218,7.251
	c-2.267,2.558-4.156,5.195-5.615,7.833L463.652,837.908z M445.195,763.642v52.09c-0.377,11.665,5.329,18.256,17.455,20.146
	c1.489-2.577,3.352-5.142,5.532-7.625l0.21-0.228c-2.657,2.317-5.282,4.661-7.786,6.984l-0.387,0.361l-0.514-0.147
	c-7.882-2.351-11.715-7.799-11.398-16.199v-55.382H445.195z M473.271,795.44c-5.923,3.251-9.111,6.79-9.495,10.569
	c-0.09,1.85,0.267,3.446,1.072,4.675c0.918,1.442,1.752,2.958,2.474,4.5c0.765,1.656,1.085,3.612,0.918,5.837
	c-0.097,1.201-0.487,2.584-1.195,4.133c0.584-0.574,1.125-1.169,1.652-1.796c1.556-1.823,2.635-4.207,3.205-7.059
	c0.234-1.696-0.264-2.911-1.626-3.779c-1.933-1.222-2.968-3.492-3.088-6.73c0-3.005,1.021-5.489,3.012-7.425
	C471.15,797.429,472.179,796.468,473.271,795.44z M433.854,761.512l0.681,1.175c0.314,0.354,1.042,0.762,2.725,0.868
	c-2.037-0.301-2.975-1.148-3.365-2.043H433.854z"/>
<path d="M509.688,803.747l0.615,0.761c-2.719,1.816-5.343,3.779-7.854,5.89c-2.523,2.123-4.981,4.347-7.411,6.657l-0.828-0.228
	l-0.688-0.38c0.614-0.607,1.229-1.229,1.823-1.896c0.608-0.635,1.202-1.329,1.816-2.03c0.901-1.208,1.456-3.225,1.669-6.05
	c0-2.504,0-5.081,0-7.699c0-2.617,0-5.228,0-7.858c0-1.816-0.487-3.526-1.442-5.142c-0.961-1.609-2.35-2.765-4.153-3.479
	c-1.122,0.922-2.204,1.81-3.252,2.725c-1.055,0.908-2.143,1.71-3.245,2.424c0.394,1.209,0.701,2.464,0.901,3.779
	c0,1.496,0,3.012,0,4.521c0,1.51,0,3.031,0,4.534c0,1.322,0.127,2.063,0.374,2.264h0.988c0.5-0.294,1.362-0.741,2.564-1.355
	l0.755,0.901c-1.81,1.028-3.553,2.15-5.208,3.412s-3.302,2.478-4.915,3.699c0-2.817,0-5.716,0-8.681c0-2.991,0-5.989,0-8.994v-0.901
	c-0.701,0.494-1.409,0.968-2.11,1.429c-0.711,0.454-1.355,0.828-1.97,1.129l-0.304-0.748c1.709-1.108,3.071-2.124,4.087-3.025
	c-0.301-1.822-0.862-3.425-1.67-4.834c-0.798-1.409-2.113-2.21-3.926-2.424c-2.021,2.017-4.177,3.926-6.497,5.749
	c0,3.325,0,6.617,0,9.89c0,3.285,0,6.537,0,9.749c0,1.723,0.153,3.345,0.457,4.914c0.308,1.562,0.905,2.838,1.823,3.853h-1.669
	h-1.512c-2.017-1.302-3.226-3.933-3.629-7.859c0-2.824,0-5.669,0-8.54c0-2.878,0-5.763,0-8.681
	c-0.902,0.694-1.863,1.355-2.861,1.957l-0.16-1.517c1.005-0.487,2.02-1.208,3.021-2.109c0-1.81,0-3.572,0-5.282
	c0-1.723,0-3.485,0-5.288c0.3-2.123,0.798-3.96,1.502-5.516c0.714-1.556,1.666-2.991,2.875-4.307
	c-1.512-1.816-2.264-3.934-2.264-6.344c0.611-5.135,2.621-8.42,6.046-9.829c3.419-1.409,7.205-1.909,11.332-1.522v0.4v0.381
	c-3.933-0.428-7.512,0.134-10.727,1.649c-3.226,1.503-5.088,4.527-5.596,9.067c0,2.117,0.611,3.934,1.819,5.436
	c1.913-1.816,4.324-3.632,7.248-5.436c3.937-2.43,8.063-4.427,12.384-6.043c4.347-1.615,7.412-4.733,9.221-9.368
	c0.308-0.908,0.308-1.876,0-2.878c-0.287-1.008-0.594-2.057-0.901-3.165c0.901,1.202,1.529,2.311,1.89,3.319
	c0.354,1.001,0.521,2.41,0.521,4.227c0,2.523-1.436,5.062-4.301,7.632c-2.871,2.564-6.717,4.921-11.558,7.024
	c-2.217,1.016-4.28,2.137-6.19,3.412c-1.92,1.249-3.532,2.645-4.838,4.146c1.906,0.915,4.177,1.51,6.791,1.823
	c13.912-1.115,21.411-8.213,22.513-21.313c0-3.927-1.609-7.346-4.828-10.271c1.71,0.901,3.146,2.157,4.301,3.779
	c1.168,1.597,1.843,3.819,2.043,6.645c-0.601,7.245-3.031,12.707-7.251,16.399c-4.227,3.679-9.922,5.502-17.078,5.502
	c-2.925-0.094-5.288-0.741-7.101-1.963c-2.006,2.624-3.119,5.448-3.322,8.467c0,0.915,0,1.829,0,2.798c0,0.955,0,1.883,0,2.791
	c1.208-1.108,2.42-2.237,3.629-3.405c1.215-1.155,2.424-2.33,3.626-3.539c4.323,1.603,7.305,3.979,8.917,7.091
	c1.305-1.102,2.587-2.27,3.849-3.552c1.262-1.242,2.544-2.537,3.847-3.847c3.131,1.409,5.549,3.118,7.258,5.136
	c1.717,2.022,2.571,4.54,2.571,7.552c0,2.224,0,4.38,0,6.504c0,2.109,0,4.22,0,6.343c0,2.725,0.808,3.466,2.41,2.264
	c0.614-0.407,1.235-0.821,1.896-1.281C508.467,804.734,509.095,804.26,509.688,803.747z"/>
<path d="M495.419,817.996h-0.38l-1.303-0.367l-0.627-0.354l-1.155-0.581l0.921-0.908c0.581-0.602,1.188-1.209,1.783-1.856
	c0.601-0.654,1.188-1.336,1.789-2.023c0.755-1.002,1.256-2.878,1.436-5.502v-15.491c0-1.636-0.441-3.198-1.309-4.661
	c-0.761-1.282-1.81-2.237-3.185-2.878c-0.955,0.802-1.89,1.569-2.805,2.357c-0.881,0.761-1.803,1.469-2.744,2.103
	c0.307,1.042,0.547,2.131,0.714,3.226l0.014,9.215c0,0.814,0.06,1.249,0.1,1.469c0.467-0.354,1.315-0.801,2.484-1.396l0.842-0.42
	l0.407,0.841l0.581,0.647l0.895,0.895l-1.102,0.602c-1.77,0.981-3.473,2.109-5.102,3.332c-1.66,1.255-3.292,2.497-4.918,3.699
	l-1.496,1.122v-18.677l-0.664,0.454c-0.745,0.454-1.426,0.861-2.054,1.168l-1.352,0.682v-1.516l-0.217-0.334l-0.361-0.755
	l0.694-0.461c1.453-0.921,2.654-1.796,3.573-2.577c-0.3-1.496-0.778-2.838-1.453-4.02c-0.591-1.028-1.509-1.656-2.788-1.884
	c-1.839,1.797-3.816,3.553-5.893,5.202v19.185c0,1.636,0.147,3.238,0.437,4.727c0.264,1.402,0.809,2.531,1.593,3.399l1.409,1.562
	h-5.559l-0.234-0.134c-2.253-1.469-3.616-4.34-4.046-8.561l-0.013-15.471l-1.446,0.928l-1.416,0.842v-1.649l-0.127-1.289
	l-0.18-0.728l0.667-0.327c0.818-0.414,1.666-0.995,2.501-1.71V778.98c0.334-2.324,0.861-4.267,1.599-5.903
	c0.638-1.408,1.486-2.737,2.514-3.959c-1.319-1.83-1.993-3.967-1.993-6.304c0.661-5.603,2.885-9.154,6.62-10.697
	c3.553-1.469,7.506-1.983,11.796-1.569l0.848,0.074v2.65l-1.045-0.113c-3.736-0.374-7.178,0.153-10.229,1.582
	c-2.938,1.369-4.591,4.087-5.064,8.313c0,1.456,0.347,2.765,1.042,3.934c1.816-1.609,4.033-3.226,6.597-4.828
	c3.96-2.438,8.183-4.494,12.56-6.123c4.113-1.536,6.944-4.421,8.674-8.841c0.22-0.668,0.22-1.436-0.027-2.264
	c-0.273-0.915-0.561-1.896-0.834-2.925l-5.335-4.821l4.681,2.471l-0.714-2.638l2.824,3.753c1.75,0.962,3.245,2.29,4.447,3.96
	c1.248,1.749,1.983,4.146,2.21,7.131c-0.628,7.612-3.179,13.335-7.585,17.168c-4.381,3.806-10.33,5.735-17.686,5.735
	c-2.718-0.093-5.008-0.634-6.851-1.655c-1.569,2.276-2.474,4.721-2.641,7.285l0.007,3.392c0.674-0.642,1.362-1.282,2.037-1.943
	c1.208-1.135,2.41-2.316,3.619-3.539l0.424-0.421l0.564,0.201c4.06,1.535,7.024,3.719,8.834,6.53
	c0.988-0.861,1.97-1.783,2.945-2.744l4.307-4.327l0.594,0.273c3.232,1.463,5.782,3.266,7.572,5.382
	c1.863,2.184,2.798,4.935,2.798,8.16v12.847c0,1.383,0.233,1.816,0.287,1.896l0.635-0.387c0.647-0.421,1.269-0.842,1.916-1.309
	c0.635-0.428,1.229-0.889,1.816-1.369l0.914-0.768l0.528,1.055l0.427,0.514l0.814,0.814l-0.947,0.642
	c-2.705,1.803-5.322,3.766-7.786,5.829c-2.484,2.084-4.962,4.307-7.352,6.61L495.419,817.996z M469.19,815.345h1.105
	c-0.444-0.795-0.751-1.717-0.945-2.725c-0.32-1.609-0.474-3.325-0.474-5.088v-27.197c0.21-3.252,1.398-6.271,3.516-9.041
	l0.537-0.688l0.097,0.053h0.006c1.349-1.576,3.045-3.038,5.025-4.34c1.947-1.269,4.08-2.438,6.324-3.466
	c4.734-2.063,8.533-4.367,11.318-6.857c2.651-2.384,4.006-4.721,4.006-6.944l-0.014-0.441c-1.949,4.494-5.128,7.572-9.461,9.168
	c-4.267,1.597-8.374,3.606-12.223,5.983c-2.854,1.763-5.251,3.553-7.101,5.309l-0.05,0.06l0.05,0.054l-0.554,0.614
	c-1.135,1.216-2.043,2.584-2.711,4.047c-0.668,1.462-1.142,3.238-1.439,5.262l0.006,29.333
	C466.57,811.812,467.564,814.176,469.19,815.345z M493.062,781.237l0.514,0.2c1.997,0.768,3.56,2.077,4.614,3.847
	c1.042,1.769,1.562,3.665,1.562,5.629v15.558c-0.214,3.105-0.828,5.249-1.843,6.617l-0.12,0.121c1.342-1.202,2.697-2.385,4.06-3.526
	c0.714-0.607,1.462-1.215,2.217-1.796c-0.995-0.341-1.503-1.562-1.503-3.68V791.36c0-2.765-0.781-5.108-2.336-6.944
	c-1.517-1.77-3.653-3.332-6.344-4.621l-3.393,3.393l-1.355,1.315l0.234-0.2c1.062-0.902,2.15-1.823,3.258-2.725L493.062,781.237z
	 M483.13,788.795v18.517c1.132-0.842,2.267-1.696,3.422-2.564l1.576-1.148l-0.708-0.334c-0.514-0.4-0.728-1.208-0.728-2.991v-9.055
	c-0.174-1.115-0.468-2.33-0.852-3.479l-0.077-0.261l-0.083,0.073l-0.541-1.048c-1.419-2.751-4.06-4.915-7.846-6.438l-1.132,1.109
	l0.247,0.026c2.12,0.261,3.679,1.222,4.644,2.897c0.828,1.456,1.402,3.112,1.736,4.935L483.13,788.795z M475.334,770.927
	c1.549,0.587,3.329,0.994,5.315,1.222c13.321-1.082,20.399-7.766,21.467-20.446c0-1.282-0.187-2.497-0.561-3.679l0.021,1.028
	c0,2.791-1.569,5.589-4.621,8.34c-2.938,2.61-6.911,5.035-11.815,7.185c-2.147,0.976-4.184,2.097-6.046,3.325
	C477.661,768.843,476.409,769.845,475.334,770.927z"/>
<path d="M515.432,771.294c1.803-0.809,3.665-1.609,5.575-2.424c1.93-0.795,3.84-1.649,5.749-2.564c0,1.823,0,3.579,0,5.289
	c0,1.709,0,3.425,0,5.135c0.107,6.049-5.535,10.336-16.913,12.847c2.41,0.301,4.794,0.562,7.171,0.755
	c2.364,0.2,4.761,0.4,7.172,0.601c2.925,0,5.262-0.4,7.031-1.215c1.763-0.795,3.445-1.649,5.062-2.564
	c-1.516,2.932-4.828,4.734-9.963,5.436c0,5.856,0,11.732,0,17.608c0,7.285,0,9.542,0,17.607c1.102-0.307,2.203-0.634,3.312-0.981
	c1.095-0.354,2.264-0.681,3.479-0.981c-8.968,4.233-14.203,8.754-15.719,13.602c-5.942-0.601-10.623-2.196-14.049-4.761
	c-3.419-2.577-5.282-6.43-5.589-11.565c0-1.909,0.02-3.819,0.073-5.735c0.047-1.91,0.327-3.886,0.821-5.89
	c-0.995,0.515-2.023,0.988-3.092,1.429c-1.055,0.454-2.083,0.929-3.092,1.442c5.436-3.639,11.125-7.759,17.074-12.406
	c-2.116,1.923-3.826,3.96-5.142,6.13s-1.863,4.507-1.662,7.031c0,1.409,0,2.765,0,4.08c0,1.309,0,2.617,0,3.919
	c-0.301,3.833,0.507,6.831,2.424,8.988c1.909,2.163,4.527,3.859,7.853,5.068c0.407-1.522,1.836-3.019,4.3-4.527
	c2.471-1.516,3.766-3.072,3.853-4.694c0-5.436,0-10.924,0-16.46c0-5.549,0-11.091,0-16.627c0.614-1.422,1.016-2.463,1.216-3.164
	c-3.019,0.086-5.589,0-7.713-0.314c-2.104-0.301-4.227-0.708-6.343-1.209c-0.901,0.301-1.776,0.501-2.638,0.615
	c-0.855,0.093-1.689,0.2-2.491,0.293l0.081-0.527l0.066-0.681c11.985-1.716,18.235-5.389,18.743-11.024c0-1.416,0-2.824,0-4.233
	s0-2.878,0-4.38c-1.216,0.187-2.37,0.406-3.485,0.601C517.495,771.041,516.433,771.201,515.432,771.294z"/>
<path d="M518.056,840.452l-0.762-0.094c-6.083-0.614-10.971-2.264-14.516-4.935c-3.64-2.725-5.643-6.857-5.963-12.253
	c-0.007-1.963,0.02-3.893,0.067-5.815c0.04-1.369,0.187-2.778,0.447-4.2l-1.402,0.621c-1.042,0.454-2.05,0.928-3.045,1.408
	l-0.941-1.608c5.402-3.606,11.117-7.753,17.021-12.347l1.195,1.436c-2.03,1.843-3.706,3.839-4.954,5.909
	c-1.202,1.99-1.717,4.16-1.536,6.471l0.007,8.072c-0.287,3.633,0.447,6.411,2.184,8.381c1.622,1.843,3.846,3.345,6.61,4.467
	c0.721-1.422,2.149-2.777,4.36-4.12c2.177-1.342,3.325-2.671,3.405-3.939v-33.24l0.066-0.167c0.301-0.701,0.562-1.309,0.755-1.836
	c-2.497,0.027-4.674-0.087-6.511-0.341c-2.05-0.293-4.126-0.694-6.183-1.161c-0.875,0.267-1.743,0.454-2.578,0.554l-3.532,0.428
	v-1.056l0.12-0.827l0.027-0.381v-0.814l0.814-0.101c11.438-1.643,17.468-5.074,17.929-10.196l-0.007-7.412
	c-0.814,0.134-1.609,0.268-2.37,0.401c-1.108,0.207-2.204,0.367-3.252,0.467l-5.77,0.567l5.309-2.363
	c1.81-0.795,3.679-1.609,5.596-2.411c1.829-0.768,3.753-1.622,5.709-2.55l1.349-0.628v11.893c0.074,5.549-4.22,9.735-12.807,12.473
	c0.741,0.074,1.476,0.134,2.189,0.2c2.377,0.194,4.762,0.401,7.172,0.602c2.704,0,4.935-0.381,6.563-1.129
	c1.736-0.781,3.413-1.636,4.995-2.53l2.73-1.529l-1.436,2.777c-1.568,3.025-4.888,4.981-9.875,5.81v33.16
	c0.707-0.194,1.402-0.407,2.104-0.642c1.135-0.354,2.316-0.694,3.545-0.988l0.621,1.763c-8.681,4.08-13.795,8.468-15.218,13.028
	L518.056,840.452z M513.762,837.96c0.969,0.188,1.95,0.341,2.991,0.461c1.275-3.325,4.127-6.424,8.635-9.388h-0.021v-37.173
	l-1.182,0.013l-0.868-0.066l-0.04,0.146c-0.221,0.722-0.595,1.736-1.169,3.105v32.893c-0.127,2.023-1.535,3.786-4.3,5.488
	c-2.243,1.369-3.553,2.718-3.886,3.98L513.762,837.96z M499.913,810.336l-0.348,1.383c-0.486,1.942-0.761,3.853-0.808,5.676
	c-0.047,1.916-0.073,3.826-0.073,5.722c0.28,4.835,1.99,8.394,5.215,10.805c1.83,1.382,4.061,2.471,6.671,3.252
	c-2.491-1.169-4.541-2.651-6.13-4.447c-2.07-2.344-2.965-5.609-2.638-9.683v-7.926c-0.214-2.598,0.367-5.121,1.729-7.425
	C502.317,808.601,501.102,809.482,499.913,810.336z M523.01,769.13v9.723c-0.233,2.611-1.542,4.848-3.913,6.664
	c4.527-2.271,6.785-5.208,6.725-8.774v-8.954c-1.068,0.487-2.123,0.955-3.139,1.396L523.01,769.13z"/>
<path fill-rule="evenodd" clip-rule="evenodd" d="M566.052,834.95c78.914-100.167,4.121-191.687-108.152-123.511l-1.446,1.989
	l1.959-0.227c108.988-39.697,158.233,27.537,104.748,118.943c-0.721,1.235-1.883,3.345-0.814,4.053
	C564.143,837.36,565.11,836.158,566.052,834.95z"/>
<path fill-rule="evenodd" clip-rule="evenodd" fill="#ED1C24" d="M413.278,874.125c37.951,13.829,78.008,2.097,120.342-14.844
	c-32.792,26.095-67.842,35.417-126.195,23.598"/>
<path fill="#030202" d="M452.374,888.869c-13.699,0-28.596-1.716-45.136-5.067l0.377-1.83c51.589,10.437,86.93,4.868,120.089-19.357
	c-43.496,16.887-79.958,25.066-114.747,12.394l0.648-1.77c35.871,13.087,73.795,3.525,119.662-14.838l5.93-2.356l-4.988,3.973
	C509.595,879.601,484.208,888.869,452.374,888.869z"/>
<path fill-rule="evenodd" clip-rule="evenodd" d="M58.964,571.488c118.676,195.286,311.265,188.929,353.202,181.871
	C207.285,787.807,113.599,727.317,0,532.639l41.43,9.702L58.964,571.488z"/>
<path fill-rule="evenodd" clip-rule="evenodd" fill="#ED1C24" d="M428.683,730.729c-8.026,3.052-68.78,67.041-39.443,136.792
	c0.751,1.79,5.609,2.338,8.647,0.328c3.028-1.983,4.764-4.167,6.58-6.371l-8.931,0.041c-5.412-7.065-6.297-13.408-6.601-22.557
	c-0.404-12.039,0.661-26.095,5.489-42.955C400.908,773.377,415.301,747.323,428.683,730.729z"/>
<path fill="#030202" d="M393.286,870.059c-1.92,0-4.22-0.574-4.908-2.184c-14.272-33.941-6.717-65.726,2.14-86.425
	c12.483-29.16,32.996-49.76,37.84-51.603l3.229-1.235l-2.18,2.697c-14.343,17.782-28.048,43.891-34.078,64.957
	c-4.156,14.49-5.936,28.446-5.462,42.669c0.311,9.488,1.318,15.211,6.143,21.635l10.437-0.027l-1.459,1.77
	c-1.736,2.13-3.56,4.327-6.604,6.317C396.995,869.558,395.183,870.059,393.286,870.059z M423.721,735.637
	c-8.053,7.565-22.179,24.819-31.477,46.555c-8.717,20.346-16.166,51.622-2.127,84.962c0.207,0.494,1.479,1.035,3.169,1.035
	c1.512,0,3.001-0.414,4.069-1.115c2.224-1.462,3.727-3.018,5.108-4.646l-7.385,0.026l-0.281-0.367
	c-5.849-7.612-6.524-14.671-6.808-23.097c-0.474-14.41,1.333-28.56,5.522-43.236C399.025,776.556,410.817,753.218,423.721,735.637z"
	/>
<path fill-rule="evenodd" clip-rule="evenodd" d="M892.976,465.532l-10.684,32.285c-68.47,204.193-240.465,248.17-295.6,254.54
	l0.053,0.247c200.842-13.374,277.618-93.83,344.498-305.686L892.976,465.532z"/>
<path fill-rule="evenodd" clip-rule="evenodd" d="M941.025,569.605C822.349,764.897,629.768,758.547,587.834,751.49
	C792.702,785.938,886.378,725.427,1000,530.769l-41.433,9.702L941.025,569.605z"/>
</svg>
