<?xml version="1.0" encoding="UTF-8" standalone="no"?>
<!-- Created with Inkscape (http://www.inkscape.org/) -->
<svg
   xmlns:ns="http://creativecommons.org/ns#"
   xmlns:dc="http://purl.org/dc/elements/1.1/"
   xmlns:cc="http://web.resource.org/cc/"
   xmlns:rdf="http://www.w3.org/1999/02/22-rdf-syntax-ns#"
   xmlns:svg="http://www.w3.org/2000/svg"
   xmlns="http://www.w3.org/2000/svg"
   xmlns:sodipodi="http://sodipodi.sourceforge.net/DTD/sodipodi-0.dtd"
   xmlns:inkscape="http://www.inkscape.org/namespaces/inkscape"
   width="300"
   height="300"
   viewBox="0 0 57.500001 78.500001"
   id="svg3845"
   version="1.0"
   inkscape:version="0.45.1"
   sodipodi:docname="irfu_logo.svg"
   sodipodi:version="0.32"
   inkscape:output_extension="org.inkscape.output.svg.inkscape"
   sodipodi:docbase="C:\Users\Fernando\Documents\+backup!\!!!!comiccovers!">
  <defs
     id="defs3847">
	
	

	
	
</defs>
  <sodipodi:namedview
     id="base"
     pagecolor="#ffffff"
     bordercolor="#666666"
     borderopacity="1.0"
     inkscape:pageopacity="0.0"
     inkscape:pageshadow="2"
     inkscape:zoom="1.2600344"
     inkscape:cx="87.061548"
     inkscape:cy="147.84015"
     inkscape:document-units="px"
     inkscape:current-layer="layer1"
     showgrid="false"
     units="px"
     inkscape:window-width="1366"
     inkscape:window-height="706"
     inkscape:window-x="-8"
     inkscape:window-y="-8"
     inkscape:window-maximized="1"
     width="300px"
     height="300px" />
  <metadata
     id="metadata3850">
    <rdf:RDF>
      <ns:Work
         rdf:about="">
        <dc:format>image/svg+xml</dc:format>
        <dc:type
           rdf:resource="http://purl.org/dc/dcmitype/StillImage" />
        <dc:title />
      </ns:Work>
      <cc:Work
         rdf:about="">
        <dc:format>image/svg+xml</dc:format>
        <dc:type
           rdf:resource="http://purl.org/dc/dcmitype/StillImage" />
      </cc:Work>
    </rdf:RDF>
  </metadata>
  <g
     inkscape:label="Layer 1"
     inkscape:groupmode="layer"
     id="layer1"
     transform="translate(0,-973.86209)">
    <g
       id="g12347">
      <g
         transform="translate(-80.115849,-2.1845257)"
         id="g12304">
        <g
           id="g10296"
           transform="matrix(0.1242334,0,0,0.1242334,71.713918,978.03389)"
           style="fill:#006946;fill-opacity:1">
	<path
   d="M 294.113,579.464 C 223.239,549.225 165.044,504.34 121.143,446.057 C 86.119,399.558 60.16,344.57 43.986,282.623 C 16.583,177.66 26.665,89.896 27.107,86.211 L 29.057,69.975 L 45.065,73.317 C 67.666,78.035 90.587,80.427 113.192,80.426 C 220.033,80.423 290.181,27.626 290.877,27.093 L 300.001,20.103 L 309.124,27.095 C 309.278,27.212 327.093,40.64 357.879,53.863 C 386.097,65.983 431.369,80.429 486.806,80.427 C 509.42,80.427 532.342,78.034 554.935,73.318 L 570.943,69.976 L 572.893,86.212 C 573.336,89.897 583.417,177.661 556.014,282.624 C 539.84,344.572 513.881,399.559 478.857,446.058 C 434.957,504.341 376.76,549.226 305.887,579.465 L 300,581.976 L 294.113,579.464 z "
   id="path10298"
   style="fill:#006946;fill-opacity:1" />

	<path
   d="M 300,39 C 300,39 373.631,95.426 486.807,95.426 C 509.088,95.426 532.915,93.237 558,88 C 558,88 600,437.667 300,565.667 C 0,437.667 42,88 42,88 C 67.095,93.239 90.905,95.426 113.194,95.426 C 226.355,95.426 300,39 300,39 M 299.819,0.839 L 281.784,15.162 C 280.646,16.005 263.763,28.35 235.252,40.481 C 208.508,51.86 165.623,65.425 113.193,65.425 C 91.612,65.425 69.721,63.14 48.13,58.632 L 16.114,51.948 L 12.214,84.421 C 11.757,88.221 1.359,178.726 29.473,286.41 C 46.143,350.261 72.954,407.009 109.162,455.079 C 154.662,515.485 214.908,561.975 288.226,593.259 L 300,598.283 L 311.773,593.261 C 385.091,561.978 445.337,515.488 490.837,455.081 C 527.045,407.011 553.857,350.263 570.526,286.412 C 598.64,178.727 588.241,88.223 587.785,84.423 L 583.885,51.95 L 551.868,58.634 C 530.277,63.142 508.387,65.427 486.805,65.427 C 434.369,65.427 391.485,51.863 364.742,40.483 C 336.111,28.3 319.209,15.902 318.201,15.154 L 299.819,0.839 L 299.819,0.839 z "
   id="path10300"
   style="fill:#006946;fill-opacity:1" />

</g>
        <path
           style="fill:#006946;fill-opacity:1"
           id="path10304"
           d="M 108.61832,1049.1656 C 99.965339,1045.4736 92.862915,1039.9972 87.508331,1032.8884 C 83.230603,1027.2092 80.058551,1020.4875 78.080134,1012.9097 C 74.719745,1000.0389 75.952513,989.30583 76.006679,988.85524 L 76.127806,987.84671 L 77.122171,988.05431 C 79.992459,988.65349 82.904242,988.95736 85.776393,988.95724 C 92.850243,988.95711 98.623991,987.10678 102.22179,985.55473 C 106.1334,983.86727 108.39557,982.15595 108.41793,982.13881 L 108.98443,981.7066 L 109.55082,982.13956 C 109.57256,982.15608 111.83422,983.86777 115.74559,985.55523 C 119.34326,987.1074 125.11689,988.95761 132.19161,988.95724 C 135.06475,988.95724 137.97641,988.65336 140.84583,988.05431 L 141.84019,987.84671 L 141.96132,988.85524 C 142.01549,989.30583 143.24826,1000.0389 139.88799,1012.9097 C 137.90957,1020.4875 134.73752,1027.2092 130.45979,1032.8884 C 125.10509,1039.9973 118.00279,1045.4737 109.34968,1049.1656 L 108.98394,1049.3216 L 108.61832,1049.1656 z " />
        <path
           style="fill:#ffffff"
           id="path10306"
           d="M 108.98394,982.87899 C 108.98394,982.87899 118.13137,989.88899 132.19161,989.88899 C 134.95965,989.88899 137.91976,989.61704 141.03616,988.96643 C 141.03616,988.96643 146.25396,1032.4067 108.98394,1048.3086 C 71.713918,1032.4067 76.931721,988.96643 76.931721,988.96643 C 80.049358,989.61729 83.007355,989.88899 85.776269,989.88899 C 99.834769,989.88899 108.98394,982.87899 108.98394,982.87899 M 108.98406,980.53135 L 107.85329,981.39776 L 107.85329,981.39776 C 107.83142,981.41441 105.61783,983.08261 101.79294,984.72523 C 98.28707,986.23093 92.662527,988.02561 85.776269,988.02561 C 82.967476,988.02561 80.119923,987.72844 77.312496,987.14231 L 75.323768,986.72712 L 75.081513,988.74418 C 75.067599,988.86046 74.740741,991.64055 74.835655,996.04264 C 74.922867,1000.0849 75.400047,1006.3333 77.178448,1013.1451 C 79.187675,1020.8411 82.412774,1027.6723 86.763925,1033.4491 C 92.217895,1040.6898 99.447658,1046.266 108.25258,1050.0227 L 108.98394,1050.3347 L 109.7153,1050.0227 C 118.52009,1046.266 125.74998,1040.6898 131.20395,1033.4491 C 135.5551,1027.6723 138.78008,1020.8411 140.78943,1013.1451 C 142.56783,1006.3333 143.04501,1000.0849 143.1321,996.04264 C 143.22714,991.64055 142.90028,988.86033 142.88624,988.74418 L 142.64398,986.72712 L 140.65526,987.14231 C 137.84783,987.72844 135.00028,988.02561 132.19148,988.02561 C 118.91677,988.02561 110.20391,981.46621 110.11732,981.39999 L 108.98406,980.53135 L 108.98406,980.53135 z " />
      </g>
      <g
         style="fill:#ffffff"
         transform="translate(-7.7840067e-2,1.734009)"
         id="g12292">
        <path
           inkscape:connector-curvature="0"
           id="path3365"
           style="fill:#ffffff;fill-opacity:1;fill-rule:nonzero;stroke:none"
           d="M 46.737736,1002.1409 C 46.183451,1001.3443 45.433207,1001.0819 45.244446,1000.8124 C 45.057285,1000.5436 45.074881,999.74862 44.522196,998.95037 C 43.474414,997.44429 42.52661,997.97218 41.728376,998.52646 C 40.882152,999.11434 40.11911,1000.3653 39.700797,1001.501 C 39.501638,1002.0225 39.481642,1002.2841 39.382463,1002.2737 C 39.315277,1002.2665 39.289682,1002.1897 39.269686,1001.9498 C 39.265687,1001.8114 39.256889,1001.6714 39.245691,1001.5282 C 39.245691,1001.5227 39.244092,1001.517 39.244092,1001.5099 C 39.151311,1000.4452 38.86737,999.3215 38.380271,998.62084 C 37.825186,997.82421 37.121332,996.99878 35.613645,998.04336 C 34.81701,998.59925 34.557064,999.34869 34.285921,999.53585 C 34.279522,999.54145 34.270724,999.54542 34.261926,999.54942 C 34.139551,999.46147 34.017976,999.37589 33.898001,999.2959 C 32.287935,998.21773 30.920219,997.80661 30.861031,997.78822 C 30.026005,997.53707 29.250966,997.3731 28.539913,997.26832 C 28.428736,996.70204 28.331956,996.03338 28.331956,995.4471 C 28.328757,995.11837 28.36315,994.82323 28.432735,994.58488 C 28.50472,994.38012 28.557509,994.36333 28.663887,994.4833 C 28.741471,994.58648 28.834252,994.72005 28.898239,994.83763 C 29.51971,995.98379 31.566485,997.60505 33.206944,997.77542 C 34.170744,997.8754 35.255319,997.881 35.44408,996.05657 C 35.547259,995.09118 35.147342,994.40172 35.181735,994.07539 C 35.214528,993.74985 35.746417,993.15878 35.847996,992.19338 L 35.847996,992.19178 L 35.851196,992.18938 C 36.040756,990.36576 34.976977,990.1474 34.012377,990.04742 C 33.596464,990.00503 33.119763,990.05382 32.628664,990.1634 C 32.623066,990.1634 32.619866,990.165 32.615867,990.165 C 32.524686,990.18579 32.433505,990.21059 32.341524,990.23458 C 32.321528,990.23938 32.301532,990.24498 32.282336,990.25058 C 32.21595,990.26898 32.150364,990.28737 32.084777,990.30897 C 32.053584,990.31857 32.02319,990.32736 31.993596,990.33776 C 31.923211,990.35936 31.853625,990.38175 31.78484,990.40735 C 31.730451,990.42494 31.680861,990.44494 31.628072,990.46334 C 31.608076,990.47053 31.58968,990.47773 31.570484,990.48493 C 31.389722,990.55452 31.212158,990.6273 31.040994,990.70729 L 31.040994,990.70569 C 30.497107,990.95603 30.325942,991.04721 30.271554,990.96723 C 30.244359,990.92724 30.284351,990.87445 30.369133,990.78567 C 30.517103,990.6457 30.668271,990.48893 30.81704,990.31857 C 30.82104,990.31297 30.825839,990.30897 30.829838,990.30497 C 31.39932,989.6507 31.937608,988.81168 32.239145,988.00785 L 32.247944,987.98305 C 32.280737,987.89907 32.308731,987.81509 32.333526,987.7311 C 32.334326,987.7295 32.335925,987.7263 32.335925,987.7263 C 32.348723,987.68471 32.35912,987.64632 32.370318,987.60793 C 32.374317,987.59113 32.379116,987.57354 32.384715,987.55514 C 32.399112,987.49515 32.413509,987.43676 32.424707,987.37838 C 32.430306,987.35518 32.434305,987.33519 32.439104,987.31279 C 32.444703,987.2792 32.450302,987.248 32.4559,987.21521 C 32.4591,987.18962 32.463099,987.16402 32.466298,987.13843 C 32.468698,987.11363 32.473497,987.08964 32.475896,987.06724 C 32.577475,986.10184 32.580674,985.01807 30.755453,984.82851 C 29.790853,984.72853 29.102196,985.12684 28.774264,985.09245 C 28.448732,985.05966 27.859254,984.52697 26.892255,984.42619 C 25.067034,984.23743 24.848679,985.30121 24.7479,986.26501 C 24.745501,986.2874 24.745501,986.3106 24.743901,986.33299 C 24.741501,986.38338 24.736702,986.43617 24.735103,986.48736 C 24.734303,986.52415 24.734303,986.56415 24.735103,986.60174 C 24.735103,986.64333 24.736702,986.68412 24.736702,986.72571 C 24.738302,986.7673 24.741501,986.80889 24.743901,986.85129 C 24.7471,986.88968 24.751099,986.93127 24.754299,986.97126 C 24.763897,987.05684 24.774295,987.14402 24.788692,987.23361 C 24.792691,987.2624 24.79669,987.29119 24.801489,987.32079 C 24.811087,987.37678 24.821485,987.43117 24.832682,987.48635 C 24.838281,987.51355 24.84388,987.54234 24.849479,987.56954 C 24.863076,987.62952 24.875074,987.68951 24.889471,987.7479 C 24.89427,987.7647 24.899869,987.78229 24.903868,987.79909 C 25.079831,988.49414 25.37497,989.2036 25.7133,989.80187 C 25.742094,989.85226 25.767688,989.89945 25.793283,989.94504 L 25.794883,989.94504 C 25.997241,990.28897 26.122015,990.43214 26.060428,990.49053 C 26.011638,990.53612 25.937253,990.50493 25.743693,990.36576 C 25.738095,990.36176 25.731696,990.35776 25.727697,990.35296 C 25.623718,990.27218 25.516541,990.19059 25.406163,990.10901 C 25.405364,990.10901 25.402164,990.10581 25.398965,990.10341 C 25.396565,990.10181 25.393366,990.10021 25.392566,990.09781 L 25.390967,990.09781 C 25.386967,990.09461 25.383768,990.09301 25.379769,990.09061 C 24.515948,989.46674 23.481763,988.95405 22.633939,988.86447 C 21.669339,988.76529 20.585564,988.75969 20.392804,990.58571 C 20.292825,991.54951 20.691142,992.23737 20.656749,992.5645 C 20.625556,992.89003 20.091267,993.48271 19.991287,994.44731 C 19.892108,995.41831 20.144056,995.935 20.547972,996.22054 C 20.905498,996.47489 21.380599,996.54767 21.834905,996.59646 L 21.838904,996.59326 C 23.508157,996.76043 26.066027,995.69105 26.77308,994.83763 C 27.048223,994.5049 27.1554,994.36893 27.262578,994.36893 C 27.472135,994.36893 27.436942,994.62567 27.436942,994.80164 C 27.436942,995.4311 27.517725,996.35891 27.602508,997.16594 C 27.244982,997.13715 26.908252,997.12435 26.591517,997.12435 C 24.743901,997.12435 23.617735,997.53867 23.377784,997.63705 C 23.252211,997.68104 22.769911,997.8538 22.200429,998.11375 C 22.141241,998.11055 22.091651,998.10335 22.04846,998.08975 C 21.737325,997.98657 21.275021,997.33871 20.356012,997.03157 C 18.615573,996.45089 18.171665,997.44109 17.864529,998.3625 C 17.588586,999.18473 17.638976,1000.3541 17.862929,1001.4043 L 17.861329,1001.4043 C 17.988503,1001.9882 18.040492,1002.1777 17.948511,1002.2121 C 17.90692,1002.2297 17.861329,1002.1793 17.794143,1002.0785 C 17.690165,1001.9009 17.56859,1001.721 17.435818,1001.5386 C 17.431818,1001.533 17.429419,1001.5282 17.42462,1001.5227 L 17.42462,1001.5243 C 16.70237,1000.5436 15.610596,999.54305 14.622002,999.21432 C 13.699793,998.90558 12.644012,998.66723 12.062533,1000.4061 C 11.755397,1001.3275 11.994547,1002.0857 11.891368,1002.3961 C 11.78739,1002.7088 11.140324,1003.1703 10.833188,1004.0909 C 10.254108,1005.8313 11.243503,1006.2753 12.164112,1006.5824 C 13.142309,1006.9095 14.595607,1006.7719 15.754567,1006.428 C 16.296854,1006.2753 16.520008,1006.1329 16.571197,1006.2193 C 16.60559,1006.2769 16.5584,1006.3441 16.380037,1006.5024 C 16.26886,1006.5912 16.158483,1006.6839 16.049705,1006.7808 C 16.047306,1006.7831 16.045706,1006.7863 16.041707,1006.7879 C 15.243473,1007.499 14.514024,1008.3996 14.24448,1009.2091 C 13.935744,1010.1312 13.697394,1011.1894 15.437832,1011.7701 C 16.356842,1012.0757 17.115084,1011.8357 17.427819,1011.9397 C 17.738955,1012.0444 18.201259,1012.6923 19.121868,1012.9994 C 20.860707,1013.5801 21.305415,1012.5899 21.613351,1011.6685 C 22.082853,1010.26 21.591755,1007.8629 20.907897,1006.7824 C 21.877296,1007.5774 22.137242,1007.7502 22.618742,1008.0501 C 22.699525,1008.0997 23.984858,1008.9179 23.984858,1008.9179 C 23.984858,1008.9179 31.276945,1014.1528 25.554933,1023.2949 C 25.546134,1023.3093 25.538136,1023.3237 25.527738,1023.3381 C 25.516541,1023.3653 25.513341,1023.3909 25.525339,1023.4108 C 25.534937,1023.4325 25.560531,1023.4453 25.591725,1023.4493 L 31.744848,1023.4493 C 31.744848,1023.4493 31.839228,1023.4421 31.810434,1023.3341 C 31.78484,1023.2269 29.083,1013.1722 33.343716,1011.0439 C 35.25292,1010.7055 36.342294,1009.8617 36.559049,1009.6769 C 37.078941,1009.2874 37.434067,1008.8995 37.665219,1008.514 C 37.669218,1008.5068 37.672418,1008.4996 37.676417,1008.494 C 37.590835,1009.7785 37.859579,1011.4878 38.525041,1012.4452 C 39.078526,1013.2418 39.783979,1014.0656 41.288467,1013.0211 C 42.088301,1012.4667 42.348247,1011.7141 42.616192,1011.5286 C 42.887335,1011.3406 43.68237,1011.359 44.479005,1010.8055 C 45.986692,1009.7569 45.458802,1008.8091 44.904517,1008.0125 C 44.409419,1007.3007 43.44322,1006.6392 42.467423,1006.1897 C 42.457825,1006.1865 42.449026,1006.1809 42.441028,1006.1785 C 42.43383,1006.1737 42.427431,1006.1713 42.421032,1006.1681 C 41.913937,1005.9369 41.742773,1005.8674 41.768368,1005.7769 C 41.779565,1005.7314 41.848351,1005.7257 41.972325,1005.7346 C 42.173883,1005.7545 42.389039,1005.7673 42.612192,1005.7689 L 42.634588,1005.7689 C 43.851135,1005.7769 45.306033,1005.4986 46.161056,1004.9051 C 46.96089,1004.3525 47.783919,1003.647 46.737736,1002.1409 M 28.50712,1020.1915 C 28.387145,1020.3875 28.375947,1020.4427 28.332756,1020.4315 C 28.298363,1020.4243 28.330357,1020.3747 28.35995,1020.1915 C 28.270369,1020.7555 29.630887,1013.469 26.633109,1010.2536 C 26.633109,1010.2536 26.542728,1010.1184 26.720291,1010.1456 C 26.751484,1010.1497 26.792276,1010.1728 26.842665,1010.1897 C 28.126399,1010.6536 29.363742,1010.8879 29.426929,1010.9007 C 29.426929,1010.9007 29.940422,1011.2478 29.980414,1013.0282 C 30.074795,1017.1977 28.928632,1019.5053 28.50712,1020.1915 M 35.384093,1008.7196 C 34.305916,1009.4362 32.751839,1010.0257 30.321943,1009.7689 C 27.776072,1009.4978 24.69831,1008.5012 21.71333,1005.8865 C 21.119053,1005.3658 20.068871,1003.8541 20.580765,1002.0625 C 20.754329,1001.4571 21.766119,1001.1947 22.522762,1001.1715 C 24.192815,1001.1219 25.523739,1001.3619 26.748285,1001.6626 C 26.759483,1001.8938 26.815471,1002.0921 26.813871,1002.2465 C 26.813871,1002.2609 26.813871,1002.2721 26.812272,1002.2865 L 26.812272,1002.3041 L 26.812272,1002.3049 L 26.813871,1002.3081 L 26.813871,1002.3121 L 26.813871,1002.3137 C 26.822669,1002.4105 26.895454,1002.4921 26.993834,1002.5064 L 26.998633,1002.508 L 26.999433,1002.508 C 26.999433,1002.508 27.001032,1002.5096 27.002632,1002.5096 L 27.006631,1002.5096 L 27.008231,1002.5096 L 27.01383,1002.5096 L 27.01383,1002.5104 L 27.019429,1002.5104 L 27.025827,1002.5104 C 27.039425,1002.5104 27.049822,1002.5096 27.05942,1002.508 L 27.06102,1002.508 C 27.06102,1002.508 27.06262,1002.5064 27.064219,1002.5064 L 27.065019,1002.5064 L 27.069818,1002.5064 L 27.071418,1002.5064 L 27.072218,1002.5064 L 27.077017,1002.5048 L 27.078616,1002.5048 L 27.081016,1002.5048 C 27.081016,1002.5048 27.082616,1002.5032 27.084215,1002.5032 L 27.088214,1002.5024 C 27.175396,1002.4761 27.237783,1002.3992 27.244182,1002.3041 L 27.244182,1002.2953 C 27.249781,1002.1497 27.295371,1001.9937 27.353759,1001.8282 C 27.356959,1001.8186 27.362557,1001.8066 27.368156,1001.797 C 27.606507,1001.8498 27.848857,1001.9098 28.096005,1001.9722 C 28.087207,1002.0281 28.083208,1002.0825 28.083208,1002.1321 C 28.086407,1002.3897 28.154393,1002.6064 28.151994,1002.7736 C 28.151994,1002.7848 28.151994,1002.7991 28.150394,1002.8136 L 28.150394,1002.8152 C 28.146395,1002.9336 28.239176,1003.0335 28.355951,1003.0375 L 28.364749,1003.0375 C 28.479126,1003.0375 28.574306,1002.948 28.579905,1002.8319 C 28.579905,1002.8248 28.579905,1002.8176 28.581504,1002.8104 C 28.587103,1002.6696 28.634293,1002.516 28.690282,1002.3552 C 28.711078,1002.2921 28.743871,1002.2297 28.783862,1002.1625 C 28.995818,1002.2241 29.207774,1002.2881 29.42213,1002.3577 C 29.392536,1002.4505 29.381338,1002.5464 29.381338,1002.632 C 29.385338,1002.8879 29.452524,1003.1063 29.449324,1003.2735 L 29.449324,1003.3127 C 29.446925,1003.347 29.454123,1003.3815 29.467721,1003.4126 L 29.46932,1003.4126 L 29.47092,1003.4158 L 29.47252,1003.4174 L 29.474119,1003.4199 C 29.474119,1003.4199 29.474119,1003.4231 29.474919,1003.4247 L 29.474919,1003.4254 C 29.490916,1003.4526 29.512511,1003.4774 29.536506,1003.4958 L 29.541305,1003.4974 L 29.541305,1003.499 C 29.574898,1003.5214 29.61489,1003.5358 29.656481,1003.5358 L 29.66368,1003.5358 C 29.698073,1003.5358 29.729266,1003.5286 29.75966,1003.5142 L 29.763659,1003.5118 L 29.766059,1003.5086 L 29.767658,1003.5086 L 29.770858,1003.507 L 29.773257,1003.507 L 29.773257,1003.5054 L 29.776456,1003.5046 L 29.778056,1003.503 C 29.800451,1003.487 29.822047,1003.4686 29.838044,1003.4471 L 29.842043,1003.443 L 29.842043,1003.4414 L 29.843643,1003.4382 L 29.845242,1003.4375 L 29.846042,1003.4343 L 29.847642,1003.4327 L 29.849241,1003.4302 L 29.849241,1003.4286 C 29.850841,1003.427 29.851641,1003.4254 29.851641,1003.4254 C 29.867638,1003.3959 29.876436,1003.3646 29.878835,1003.3303 L 29.878835,1003.319 C 29.885234,1003.1735 29.930824,1003.0175 29.987613,1002.8536 C 30.014807,1002.772 30.065197,1002.6904 30.123584,1002.5992 C 32.223149,1003.3431 34.300318,1004.4748 36.033558,1006.2008 C 36.752609,1006.9791 36.395883,1008.0485 35.384093,1008.7196 M 36.780603,1006.1809 C 36.660628,1006.1865 36.437474,1006.0873 36.004764,1005.6602 C 34.341909,1004.0325 32.384715,1002.9432 30.471512,1002.2169 C 30.509104,1002.1649 30.540298,1002.0897 30.538698,1002.0081 C 30.538698,1001.9786 30.536299,1001.9498 30.5299,1001.9258 C 30.520302,1001.8657 30.469113,1001.7914 30.411525,1001.7626 C 30.374732,1001.7426 30.345938,1001.7354 30.318744,1001.7314 C 30.28995,1001.7226 30.258756,1001.7226 30.225963,1001.7266 C 30.225963,1001.7266 29.970816,1001.7882 29.938823,1001.8242 C 29.863638,1001.8554 29.786054,1001.8954 29.716469,1001.9466 C 29.522109,1001.8826 29.329349,1001.821 29.139789,1001.7626 C 29.148587,1001.7514 29.159784,1001.7394 29.168583,1001.7258 C 29.207774,1001.6738 29.242167,1001.5938 29.241368,1001.5099 C 29.241368,1001.4802 29.238168,1001.453 29.232569,1001.4274 C 29.221372,1001.3627 29.166983,1001.2915 29.109395,1001.2627 C 29.078201,1001.2459 29.051007,1001.2387 29.027012,1001.2347 C 28.996618,1001.2243 28.962225,1001.2227 28.928632,1001.2283 C 28.928632,1001.2283 28.671086,1001.2883 28.639892,1001.3243 C 28.527116,1001.3731 28.415939,1001.4354 28.319959,1001.533 C 28.093606,1001.4747 27.868053,1001.4187 27.646499,1001.3683 C 27.666494,1001.3531 27.68969,1001.3347 27.717684,1001.3131 C 27.752077,1001.2843 27.793668,1001.2515 27.83206,1001.1971 C 27.872052,1001.1475 27.906445,1001.0675 27.906445,1000.9819 C 27.906445,1000.9515 27.901646,1000.9243 27.896047,1000.8988 C 27.884849,1000.8388 27.835259,1000.766 27.776072,1000.7364 C 27.741679,1000.7188 27.713685,1000.7108 27.68969,1000.706 C 27.659296,1000.6972 27.626503,1000.6948 27.59211,1000.7004 C 27.59211,1000.7004 27.333763,1000.762 27.30417,1000.7972 C 27.137004,1000.8692 26.970639,1000.9747 26.857062,1001.1675 C 26.851464,1001.1771 26.848264,1001.1891 26.842665,1001.1987 C 24.849479,1000.8164 23.580942,1000.7532 22.872289,1000.7516 C 22.62594,1000.7516 22.502766,1000.7716 22.222824,1000.7916 C 22.082853,1000.802 21.818908,1000.85 21.678937,1000.85 C 21.456583,1000.85 21.32781,1000.7804 21.247827,1000.7132 C 21.207835,1000.682 21.147047,1000.6388 21.147047,1000.538 C 21.142248,1000.3621 21.295017,1000.1413 21.554963,999.92702 C 21.940483,999.60382 22.53396,999.2983 23.028257,999.07755 C 23.523354,998.85599 23.917672,998.71602 23.917672,998.71602 L 23.921672,998.71602 L 23.925671,998.71362 C 23.925671,998.71362 23.981659,998.68883 24.100035,998.64884 C 24.454361,998.52646 25.336578,998.27931 26.671501,998.27931 C 27.655297,998.27931 28.887041,998.41369 30.331541,998.8344 C 30.331541,998.8344 30.629879,998.92158 31.104181,999.12474 C 32.534284,999.73262 35.54006,1001.3858 36.713417,1004.8132 C 36.713417,1004.8132 36.768605,1004.9803 36.826193,1005.1979 C 36.881382,1005.4162 36.935771,1005.6842 36.935771,1005.8729 C 36.935771,1006.0481 36.860586,1006.1793 36.780603,1006.1809" />
        <g
           style="fill:#ffffff"
           id="g10191"
           transform="translate(-1.1828823,-0.4551833)">
          <g
             transform="matrix(0.799834,0,0,-0.799834,19.255856,1031.3967)"
             id="g3355"
             style="fill:#ffffff">
            <path
               inkscape:connector-curvature="0"
               id="path3357"
               style="fill:#ffffff;fill-opacity:1;fill-rule:nonzero;stroke:none"
               d="M 0,0 C 0,-1.581 0.027,-2.22 0.068,-2.545 C 0.162,-3.241 0.328,-3.406 1.226,-3.541 C 1.376,-3.568 1.444,-3.689 1.444,-3.812 C 1.444,-3.921 1.389,-4.03 1.267,-4.03 L -2.626,-4.03 C -2.75,-4.03 -2.804,-3.921 -2.804,-3.812 C -2.804,-3.689 -2.736,-3.568 -2.586,-3.541 C -1.633,-3.406 -1.498,-3.227 -1.442,-2.545 C -1.415,-2.22 -1.374,-1.594 -1.374,0.012 L -1.374,1.905 C -1.374,3.497 -1.415,4.26 -1.442,4.587 C -1.498,5.269 -1.565,5.432 -2.518,5.567 C -2.668,5.594 -2.736,5.717 -2.736,5.84 C -2.736,5.949 -2.683,6.058 -2.558,6.058 L 1.103,6.058 C 1.226,6.058 1.28,5.949 1.28,5.84 C 1.28,5.717 1.212,5.594 1.064,5.567 C 0.162,5.432 0.162,5.281 0.068,4.587 C 0.027,4.26 0,3.497 0,1.933 L 0,0 z " />
          </g>
          <g
             transform="matrix(0.799834,0,0,-0.799834,24.308254,1031.1583)"
             id="g3359"
             style="fill:#ffffff">
            <path
               inkscape:connector-curvature="0"
               id="path3361"
               style="fill:#ffffff;fill-opacity:1;fill-rule:nonzero;stroke:none"
               d="M 0,0 C -0.136,0.205 -0.232,0.37 -0.232,0.462 C -0.232,0.573 -0.148,0.626 0.028,0.626 C 1.212,0.626 2.465,1.294 2.465,2.941 C 2.465,4.343 1.471,5.107 -0.148,5.107 C -0.354,5.107 -0.721,5.08 -0.844,5.023 L -0.844,-0.135 C -0.844,-2.34 -0.803,-2.627 -0.748,-3.049 C -0.68,-3.539 -0.532,-3.704 0.369,-3.839 C 0.518,-3.866 0.585,-3.987 0.585,-4.11 C 0.585,-4.219 0.532,-4.328 0.409,-4.328 L -3.472,-4.328 C -3.593,-4.328 -3.648,-4.219 -3.648,-4.11 C -3.648,-3.987 -3.581,-3.866 -3.431,-3.839 C -2.478,-3.704 -2.342,-3.525 -2.286,-2.843 C -2.26,-2.519 -2.219,-1.892 -2.219,-0.286 L -2.219,1.662 C -2.219,3.254 -2.26,3.962 -2.286,4.289 C -2.342,4.971 -2.41,5.133 -3.361,5.269 C -3.513,5.296 -3.581,5.419 -3.581,5.542 C -3.581,5.651 -3.525,5.76 -3.404,5.76 L 0.259,5.76 C 2.124,5.76 3.95,4.996 3.95,3.036 C 3.95,1.403 2.586,0.503 1.376,0.3 L 3.595,-2.777 C 4.207,-3.62 4.56,-3.92 5.281,-4.287 C 5.351,-4.316 5.39,-4.37 5.39,-4.437 C 5.39,-4.587 5.092,-4.628 4.601,-4.628 C 3.566,-4.628 2.954,-4.452 2.627,-3.961 L 0,0 z " />
          </g>
          <g
             style="fill:#ffffff"
             transform="matrix(0.799834,0,0,-0.799834,31.059333,1030.1232)"
             id="g3367">
            <path
               inkscape:connector-curvature="0"
               id="path3369"
               style="fill:#ffffff;fill-opacity:1;fill-rule:nonzero;stroke:none"
               d="M 0,0 C 0.327,-0.041 0.614,-0.068 0.98,-0.068 C 2.328,-0.068 2.804,-0.028 3.007,1.049 C 3.036,1.198 3.159,1.266 3.281,1.266 C 3.39,1.266 3.5,1.212 3.5,1.089 C 3.5,0.694 3.416,0.259 3.416,-0.448 C 3.416,-1.224 3.5,-1.498 3.5,-1.785 C 3.5,-1.906 3.39,-1.962 3.281,-1.962 C 3.159,-1.962 3.036,-1.892 3.007,-1.742 C 2.872,-0.75 2.315,-0.721 1.021,-0.721 C 0.639,-0.721 0.353,-0.721 2.220446e-016,-0.776 L 2.220446e-016,-1.633 C 2.220446e-016,-3.213 0.027,-3.813 0.068,-4.137 C 0.162,-4.833 0.639,-5.01 1.771,-5.133 C 1.919,-5.146 1.986,-5.281 1.986,-5.405 C 1.986,-5.514 1.935,-5.622 1.812,-5.622 L -2.627,-5.622 C -2.751,-5.622 -2.804,-5.514 -2.804,-5.405 C -2.804,-5.281 -2.734,-5.16 -2.586,-5.133 C -1.635,-4.998 -1.497,-4.819 -1.444,-4.137 C -1.415,-3.813 -1.374,-3.227 -1.374,-1.621 L -1.374,0.368 C -1.374,1.96 -1.415,2.668 -1.444,2.995 C -1.497,3.677 -1.565,3.839 -2.518,3.975 C -2.668,4.002 -2.734,4.125 -2.734,4.248 C -2.734,4.357 -2.682,4.466 -2.56,4.466 L 3.936,4.466 C 4.234,4.466 4.439,4.357 4.439,4.069 L 4.439,2.083 C 4.439,1.933 4.316,1.853 4.193,1.853 C 4.071,1.853 3.936,1.933 3.92,2.11 C 3.813,3.186 3.309,3.771 2.436,3.771 L 0.694,3.771 C 0.489,3.771 0.123,3.745 0,3.689 L 0,0 z " />
          </g>
          <g
             transform="matrix(0.799834,0,0,-0.799834,37.102399,1031.9733)"
             id="g3371"
             style="fill:#ffffff">
            <path
               inkscape:connector-curvature="0"
               id="path3373"
               style="fill:#ffffff;fill-opacity:1;fill-rule:nonzero;stroke:none"
               d="M 0,0 C 0,-1.773 1.144,-2.668 2.615,-2.668 C 4.398,-2.668 5.392,-1.785 5.392,-0.505 L 5.392,2.681 C 5.392,4.273 5.351,4.981 5.323,5.308 C 5.269,5.99 5.199,6.152 4.248,6.288 C 4.098,6.315 4.03,6.438 4.03,6.561 C 4.03,6.67 4.084,6.779 4.207,6.779 L 7.502,6.779 C 7.623,6.779 7.679,6.67 7.679,6.561 C 7.679,6.438 7.611,6.315 7.461,6.288 C 6.563,6.152 6.563,6.002 6.467,5.308 C 6.427,4.981 6.427,4.273 6.399,2.709 L 6.358,-0.316 C 6.331,-2.452 4.766,-3.445 2.356,-3.445 C 0.327,-3.445 -1.389,-2.52 -1.389,-0.07 L -1.389,2.681 C -1.389,4.273 -1.43,4.981 -1.457,5.308 C -1.51,5.99 -1.579,6.152 -2.533,6.288 C -2.683,6.315 -2.751,6.438 -2.751,6.561 C -2.751,6.67 -2.695,6.779 -2.572,6.779 L 1.089,6.779 C 1.212,6.779 1.266,6.67 1.266,6.561 C 1.266,6.438 1.2,6.315 1.048,6.288 C 0.15,6.152 0.15,6.002 0.054,5.308 C 0.013,4.981 0,4.273 0,2.709 L 0,0 z " />
          </g>
        </g>
      </g>
    </g>
  </g>
</svg>
