<svg id="kenya-rugby-union" data-name="kenya-rugby-union" xmlns="http://www.w3.org/2000/svg" viewBox="0 0 420.03 550.18">
  <title>Kenya</title>
  <path transform="translate(-10.17 -23.62)" fill="#ed2024" stroke="#ed2024" stroke-width="1px" fill-rule="evenodd" d="M290.68,25.14a6.77,6.77,0,0,1,3-1,5.62,5.62,0,0,1,4.2,1.15,5.28,5.28,0,0,1,1.8,3.85,59.08,59.08,0,0,1-3,13,28.82,28.82,0,0,1-2,7c-.69,1.6-1.62,3.4-1,4s2.07-.32,4-1a18.69,18.69,0,0,1,6-1,25.49,25.49,0,0,0,6-2c1.73-.83,3.42-1.88,6-2a11.17,11.17,0,0,1,5,1,18,18,0,0,1,3,11,8,8,0,0,1,0,3,9.68,9.68,0,0,1-3,5c-3.73,3.52-5.58,7.53-9.51,11.62-3.39,3.53-7.64,8.15-11.49,12.38-.33,3.34-.67,6.67-1,10a19.85,19.85,0,0,0-1,10,19.65,19.65,0,0,0,2,6,45.72,45.72,0,0,1,4,11,55,55,0,0,1,1,13c-.31,6.56-.84,29.41-1,35l20,28v3a22.47,22.47,0,0,1-3,4,28.56,28.56,0,0,1-5,4c-2.4,1.44-9.53,6.53-13,9a120.37,120.37,0,0,0-10,8l6,5,10,8a30.32,30.32,0,0,0,10-7c3.91-4.18,7.94-10.75,10-14a9.22,9.22,0,0,1,3-3c2.11-1.22,4.13-1.07,7-1,1.33,0,2.64,0,4,0,.78-2.29,1.44-4.62,2-7a95.53,95.53,0,0,0,2-18c0-14.18,1.91-27.17,2-42,0-5.58.81-11.91,1-16a28.76,28.76,0,0,1,.65-4.69c.94-3.9,3-6.8,4.35-9.31,3.45-6.25,2.05-11.07,3-19,.53-4.36,4.13-14.17,8-23a93.88,93.88,0,0,1,8-15c2.9-4,6-6,8-10a15.32,15.32,0,0,1,3-4,13.52,13.52,0,0,1,6-3,33.16,33.16,0,0,1,4-2,26.51,26.51,0,0,1,8-2,19.77,19.77,0,0,1,7,1c1.71,1,3.8,2.34,5,3a4,4,0,0,1,2,2,3.39,3.39,0,0,1,0,2,18,18,0,0,0,0,4c.17,2.09.58,3.29,0,5a8,8,0,0,1-2,3c-1.39,1.32-7.28,9.31-10,13a97.58,97.58,0,0,0-7,11c-2.44,4.48-3.68,8.46-6,13a54.36,54.36,0,0,0-4,9,49.78,49.78,0,0,0-2,11c-.36,4.85-1,10.85-1,14-.17,13.14,1.27,24.79,2,38,.41,7.45.87,16.64,1,22,.11,4.66.92,8.34,1,13a52,52,0,0,0,2,11,16.62,16.62,0,0,0,5,8c1.93,1.61,3.53,2.05,6,3a40.78,40.78,0,0,1,8,4,28.91,28.91,0,0,1,7,7l10,11a9.44,9.44,0,0,1,3,6,5.22,5.22,0,0,1-1,4,4.44,4.44,0,0,1-3,1,9,9,0,0,1-4-1c-2.16-1.07-3.79-1-6-2s-3.81-2-6-3a24.32,24.32,0,0,0-7-2,17.64,17.64,0,0,0-7,1,13.45,13.45,0,0,0-5,2,16.51,16.51,0,0,0-5,6,21.65,21.65,0,0,0-2,6c-1.95,10.66-.88,19.23,1,24,1.34,3.41,3.25,5.65,5,9,1.43,2.74,2.49,5.27,4,7a14.47,14.47,0,0,1,2,3,13.77,13.77,0,0,1,1,4c.16,1.93.69,3.87,1,6,.28,1.91.93,3.29,1,5a4.23,4.23,0,0,0,1,3c.81.79,1.8.78,3,1s1.81.74,3,1a8.49,8.49,0,0,1,3,1,6.58,6.58,0,0,1,2,2,3.67,3.67,0,0,1,1,3,3.51,3.51,0,0,1-1,2q-6.49,8-13,16c-.21,2.69-.55,5.35-1,8-.29,1.69-.62,3.33-1,5a47.8,47.8,0,0,0-5,2,45.26,45.26,0,0,0-7,4,31.91,31.91,0,0,1-3,2c-1.38.78-2.62,1.23-4,2a24.07,24.07,0,0,0-3,2,12.54,12.54,0,0,1-3,0,7,7,0,0,0-3,0,5.87,5.87,0,0,0-2,1c-.89.68-1.1,1.34-2,2a6.55,6.55,0,0,1-3,1c-3.55.4-9.2-.83-10-1-1.69-.36-3.31-.64-5-1-1.4-.3-2.73-.62-4-1a29.68,29.68,0,0,1-3-1c-2.46-1.11-3.95-2.57-5-2-.62.34-.55,1.1-1,2-1,2-3.52,2.55-5,3-2.63.81-4.18,2.58-7,4-3.62,1.83-6.37,2.92-9,6-1.93,2.27-2.88,5.13-4,7-1.32,2.21-2.71,3.77-4,6-1.06,1.84-2,3.9-3,6-.65,1.34-1.31,2.66-2,4a14.5,14.5,0,0,0-1,4c-.1,1.07,0,1.93,0,3a14.31,14.31,0,0,0,0,3,9.53,9.53,0,0,0,2,4,19.75,19.75,0,0,0,4,4,21.58,21.58,0,0,0,7,3,20.73,20.73,0,0,1,4,1c1,.45,2.3,1.67,4,2s2.4-.23,4,0a5.83,5.83,0,0,1,4,2,5.37,5.37,0,0,1,1,4c-.33.67-.67,1.34-1,2a5.62,5.62,0,0,1-1,2,7.39,7.39,0,0,1-3,2c-1.06.43-1.94.57-3,1-.74.31-1.27.67-2,1a12.45,12.45,0,0,0-2,1,7.92,7.92,0,0,0-2,2c1.05,1,2.05,2,3,3,2.51,2.76,3.72,4.86,4,7,.31,2.38-.1,4-1,5-1.24,1.42-3.2,1.25-6,2-1.13.31-1.85.76-3,1-.65.14-4.67.17-5,1s1.81,2.21,2,4c.15,1.45-.71,3.06-3,5-6.73,5.69-44.16,25.78-56,39a37.52,37.52,0,0,0-9,18c-.35,1.85-.57,3.94-1,6-.27,1.3-.6,2.62-1,4a26.68,26.68,0,0,1-1,3c-.52,1.15-1.59,2.37-2,4-.44,1.8.06,3.51,0,5a8.91,8.91,0,0,1-1,4c-1.86,2.46-5.47,2.28-7,2a9.77,9.77,0,0,1-7-6,58,58,0,0,0-5-7c-1.45-1.73-2.71-3.15-4-5a44.4,44.4,0,0,1-3-5l-1-2c-1-2.14-1.62-3.48-3-4a7.69,7.69,0,0,0-3,0,16.68,16.68,0,0,1-2,0,29,29,0,0,0-3,6,16.76,16.76,0,0,1-2,4,13.55,13.55,0,0,1-3,3,4.94,4.94,0,0,1-3,1,5.16,5.16,0,0,1-4-2,26.29,26.29,0,0,1-1-4,27.19,27.19,0,0,1,0-9c-.81-.75-1.55-1.22-2-1-.66.33-.17,2-1,3a3.68,3.68,0,0,1-3,1,5,5,0,0,1-4-3,24.49,24.49,0,0,0-2-4c-.67-1.07-1.36-1.9-2-3a18.3,18.3,0,0,1-2-5,26.67,26.67,0,0,1,2-4,33.66,33.66,0,0,1,3-4c2.37-2.72,4.48-6.74,6-9,1.68-2.48,3.56-5.16,5-7s3.31-3.94,5-6c1.44-1.75,3.34-4,4-5,1-1.46,2-2.62,3-4a9.56,9.56,0,0,1,2-2,8.11,8.11,0,0,1,2-1,36,36,0,0,1,4-1c.62-.14,1.94-.61,3-1a142.29,142.29,0,0,0,19-9c1.69-1,3.33-1.95,5-3l-15-29a7.54,7.54,0,0,1-9,5l-32-29a33.56,33.56,0,0,0-8,5c-4.82,4.08-8.09,10.14-9,12-3.87,7.91-12.62,21.17-20,32a8.87,8.87,0,0,1-4,1,10.11,10.11,0,0,1-4-1c-4.44-2.21-38.68-16.94-55-24a13,13,0,0,0-6,1c-4.16,1.81-6.2,5.54-7,7-4.75,8.71-8.55,15.91-13,16a5.17,5.17,0,0,1-3-1c-2.23-1.57-2.42-4.39-3-8-.27-1.66-.6-3.31-1-5a12.37,12.37,0,0,1-3,2,9.17,9.17,0,0,1-4,1c-2.58-.28-4.86-2.61-6-6a10.22,10.22,0,0,1,0-6,10.39,10.39,0,0,1,5-6,7.87,7.87,0,0,1-7.49.36,7,7,0,0,1-2.51-2.36,7.88,7.88,0,0,1-1-6,12.14,12.14,0,0,1,1-6,11.78,11.78,0,0,1,3-4c3.07-2.76,9-6.28,10-7s8.52-9.89,14-10a20.91,20.91,0,0,0,4,0c2.74-.48,4.32-1.84,6-3a22.15,22.15,0,0,1,10-4,39.7,39.7,0,0,1,5,0c.84,0,2.72,0,4,0,7.43,0,15.78.24,20,1a69,69,0,0,1,16,5,78.15,78.15,0,0,0,12-21c1.53-4.12,3.7-10.36,8-16,2.87-3.76,5.82-5.49,9-9a27.82,27.82,0,0,1,14-9c4.28-1.28,7.68-2.85,12-4a93.64,93.64,0,0,1,25-3c1-.05,2-.05,3,0,.8,0,4.12,0,6,0a4.38,4.38,0,0,0,3-1,2.74,2.74,0,0,0,1-2,2.61,2.61,0,0,0-1-2c-1.38-1.66-2.69-3.29-4-5-2.1-2.72-3.84-5.32-6-8-2-2.5-4-4.45-6-7-1.79-2.3-4-5.76-6-9-1.79-2.83-3.77-6.41-5-8a20.1,20.1,0,0,1-3-5,19.86,19.86,0,0,1-1-9c.14-2.83.14-5.85,0-9a3.25,3.25,0,0,0-2,0,4.25,4.25,0,0,0-2,2,9.14,9.14,0,0,1-3,3,7.73,7.73,0,0,1-4,1l-5-2a10.77,10.77,0,0,1-7-6c1.11-5.41,2.43-10.71,4-16,1.21-4.07,2.52-8,4-12l-4,1a56.22,56.22,0,0,0-7,2c-2.49.89-4.57,2-7,3-5,2.19-10.49,3.79-13,4-4.24.35-6.9-.33-11-1a80.73,80.73,0,0,0-11-1c-7.72,5.65-15.34,11.28-23,17l-8,6a5.59,5.59,0,0,1-8-4l3-16c-1.65.74-3.3,1.4-5,2-2,.73-4,1.27-6,2-1.7.61-3.35,1.27-5,2a54.15,54.15,0,0,1-6,3c-5,2.13-8.86,2.67-10,2-3.07-1.79-3.93-8.15-1-17a29.86,29.86,0,0,1-4,2c-2.07.86-4.16,1.33-6,2a31.14,31.14,0,0,0-6,3,10.83,10.83,0,0,1-6,2,7,7,0,0,1-4-1c-.95-.74-1.88-2.22-2-5a12.64,12.64,0,0,1,1-5,74,74,0,0,0,3-8c.43-1.37.68-2.59,1-4a85.29,85.29,0,0,1,3-10l19-12c8-.64,16.43-1.34,24-2,3.78-.33,8.91-.71,11-1,3.65-.49,6.36-1.08,10-1a42.91,42.91,0,0,0,6,0c2.18-.22,3.82-.78,6-1s3.75.24,6,0c5.38-.57,8.49-3.71,13-5a27.86,27.86,0,0,1,6-1q1-5,2-10a76.24,76.24,0,0,0-8,0c-4,.22-7.1-.35-11,0a7.53,7.53,0,0,1-5-1,17.13,17.13,0,0,1-2-2c-1.36-1.2-2.77-1.48-5-2s-4.09-1.11-5-2c-1.49-1.46-1.75-3.32-2-5s-.63-4-1-6a4.78,4.78,0,0,0-2,1c-1.19,1-1.13,2.18-2,3-1.33,1.26-3.85,1.07-7,0a14.28,14.28,0,0,1-2-4c-.57-1.82-.46-3.16-1-5a17.31,17.31,0,0,1-1-3c-.21-1.73.81-4.29,0-5-.4-.35-1.11-.3-2,0a7,7,0,0,1-10,2,23.21,23.21,0,0,1-1-5,29,29,0,0,1,0-4c.34-4.16-.24-15.67-.68-24.52-.17-3.23-.29-6.46-.32-9.48,0-2.19-.1-5.31,0-6a22,22,0,0,0,0-4,6,6,0,0,0-1-3c-.68-.93-1.42-1-2-2s-.22-2.07-1-3a3.17,3.17,0,0,0-2-1h-7a5.4,5.4,0,0,1-5-2,5.34,5.34,0,0,1-1-4,5.87,5.87,0,0,1,0-3,6.41,6.41,0,0,1,2-3c1.52-1.42,3.82-3.33,6-5a17.41,17.41,0,0,1,2-3c1-1.16,2.4-2.38,3-3a19.82,19.82,0,0,0,3-4,5.84,5.84,0,0,0,0-4,6.16,6.16,0,0,0-3-3c-1.35-.71-6.51-4-8-5a34.48,34.48,0,0,1-4-3,3.57,3.57,0,0,1-1-2,3.67,3.67,0,0,1,1-3,9.67,9.67,0,0,1,2-3,10.46,10.46,0,0,1,7-3,2.65,2.65,0,0,0,0-2c-.52-1.1-2.23-1.37-3-2-1.2-1-1.87-2.67-2-5a5.74,5.74,0,0,1,1-4,3.85,3.85,0,0,1,2-1,4.9,4.9,0,0,1,2-1,5.42,5.42,0,0,1,2,0,42.13,42.13,0,0,1,5,1c.86.27,2,.65,3,1s2.23.77,3,1c1.28.38,2.61.68,4,1,1.15.27,2.65.67,4,1s3.08.74,4,1c2.16.61,3.83,1.41,6,2,2.66.73,4.59.75,7,2a19.35,19.35,0,0,1,5,4c2.5,2.48,4.71,3.33,7,6,1.83,2.14,4.24,6.72,6,12,.81,2.44,1.47,4.75,2,7a106,106,0,0,1,2,12c.43,3.67.75,7.28,1,11l1,1,33-10a20.16,20.16,0,0,0,1-5c.23-3.39-.49-5.67,1-8a8,8,0,0,1,4-3c4-1.57,15.23-5.16,21-8a35.51,35.51,0,0,1,5-2,36.13,36.13,0,0,1,5-1c4.18-.47,7.8-1.39,12-2,4.74-.69,11-1.49,14-2,7.13-1.19,12.83-3.06,20-4,5.26-.68,9.81-.89,15-2,1.72-.37,3.29-.73,5-1s4.62-.54,7-1a29.84,29.84,0,0,0,4-1,27.3,27.3,0,0,0,7-4c.94-.77,6.56-4.93,8-6,3.06-2.26,5.91-3.77,9-6,2.94-2.12,5.9-4.62,9-7C288,27.12,289.33,26.14,290.68,25.14Z" />
  <path transform="translate(-10.17 -23.62)" fill="#fff" stroke="#ed2024" stroke-width="1px" fill-rule="evenodd" d="M285.49,42.68a96.46,96.46,0,0,0-14,9c-4.61,3.58-7.85,6.65-14,9-5.31,2-10,2-16,3-3.48.57-6.54,1.38-10,2-3.28.59-11.13,1.71-13,2-5.89.92-11.11,2.17-17,3-5.48.78-10.54,1.16-16,2-3.73.58-7.35,1.24-11,2-1.68.65-3.33,1.31-5,2-2.38,1-4.63,2-7,3s-5,2.07-7,3c-1.37.65-2.68,1.3-4,2a4.14,4.14,0,0,0-1,4,4.2,4.2,0,0,0,2,2c1.41.77,2.53.66,4,1a16.22,16.22,0,0,1,4,2c1.35.76,2.62,1.29,4,2a39.21,39.21,0,0,0,4,2,11,11,0,0,1,1.16.54,7.94,7.94,0,0,1,2.84,2.46,6.76,6.76,0,0,1,1,4c-1,2.34-2,4.69-3,7-1.33,3.12-2.72,6.35-4,9-.66,1.36-1.31,2.67-2,4l5,6a137.18,137.18,0,0,1,31-5c4-.17,8-.17,12,0l25-26,7,1a6.53,6.53,0,0,1,1,4.86,5.39,5.39,0,0,1-1,2.14c-2,2.65-5.91,4.85-8,8a12.83,12.83,0,0,0-2,7l4,4,53-1c-.34-1-.67-2-1-3-2.55-8.31-4-17.49-3.16-25.78a30.7,30.7,0,0,1,3.16-11.22c2.21-4,4.66-5.66,8-9,1.25-1.25,3.92-4.47,6-7,2.43-3,4.73-5.92,7-9a37.2,37.2,0,0,0-7,0c-6.53.64-11.69,2.66-13,4a33.62,33.62,0,0,1-4,3,5.28,5.28,0,0,1-3,1,5.19,5.19,0,0,1-3-1,4.77,4.77,0,0,1-2-3,4.82,4.82,0,0,1,1-4c.32-1.34.65-2.66,1-4C282.71,52,284,47.35,285.49,42.68Z" />
  <path transform="translate(-10.17 -23.62)" fill="#fff" stroke="#ed2024" stroke-width="1px" fill-rule="evenodd" d="M57.49,52.68a6.76,6.76,0,0,1-1,3c-1,1.57-2.39,2.1-4,3a24.07,24.07,0,0,0-3,2,22.47,22.47,0,0,1,6,4,24.12,24.12,0,0,1,4,5,29.22,29.22,0,0,1,2,4,33.42,33.42,0,0,1,2,7c-1.69,2-3.34,4-5,6-2.73,3.33-5.36,6.61-8,10,2.5-.43,4.57-.18,6,1,1.19,1,1.31,2.14,2,4,.87,2.37,2.08,3.65,3,6,.38,1,.71,2,1,3a34.3,34.3,0,0,1,1,5,134.23,134.23,0,0,1,1,18c0,2.81,0,10,0,15v4a5.36,5.36,0,0,1,10-1,37.3,37.3,0,0,1,3,15,20.75,20.75,0,0,1,3-3,8,8,0,0,1,4-2,6.33,6.33,0,0,1,5,3c.75,2.33,1.4,4.63,2,7,.82,3.31,1.49,6.63,2,10a42.84,42.84,0,0,0,10,4,44.22,44.22,0,0,0,5,1c4.4.63,7.55.15,12,0a8,8,0,0,0,4-1,11.86,11.86,0,0,0,3-3c.32-.37,1.3-1.3,2-2l9-9,13-13c-2,.14-3.89.19-5.81.16-1.11,0-2.23-.07-3.19-.16a32.68,32.68,0,0,1-6-1,28.13,28.13,0,0,1-5-2c-2-1-8-3.64-12-6-2.45-1.42-6.51-4.41-10-7a18.55,18.55,0,0,1-4-4,19.23,19.23,0,0,1-3-8,79,79,0,0,0-2-9c-.87-2.91-2-5.1-3-8a70.1,70.1,0,0,1-2-8c-.79-3.93-1.47-8.43-2-13-.32-2.71-.72-5.27-1-8a31.41,31.41,0,0,0-2-9c-1-2.35-2.19-3.59-3-6-.69-2-.8-3.29-2-5-1.41-2-3-2.43-5-4-.26-.2-2.84-3.28-5-4-1.68-.55-3.11,0-5-1a7,7,0,0,0-2-1c-1.22-.24-1.79.31-3,0-.91-.23-1.11-.74-2-1a10.68,10.68,0,0,0-3,0A6.22,6.22,0,0,1,57.49,52.68Z" />
  <path transform="translate(-10.17 -23.62)" fill="#fff" stroke="#ed2024" stroke-width="1px" fill-rule="evenodd" d="M369.49,100.18a65.94,65.94,0,0,0-2,12,58.19,58.19,0,0,1-1,9,39.1,39.1,0,0,1-3,9,32.64,32.64,0,0,0-3,6,24,24,0,0,0-1,7c0,2.7,0,6,0,8-.06,4-.81,7-1,11-.16,3.14.07,5.87,0,9a99.06,99.06,0,0,1-1,12,75.76,75.76,0,0,0-1,9c-.05,1.28,0,4,0,6v4c0,1,0,2.49,0,3a23.1,23.1,0,0,1,0,3,16.4,16.4,0,0,1-1,4c-.36,1-.66,2.15-1,3a12.3,12.3,0,0,0-1,3c-.23,1.53.15,2.47,0,4a22.7,22.7,0,0,1-.62,2.69c-.1.38-.25.87-.38,1.31-.61,2-1.13,3.32-2,4a5,5,0,0,1-3,1h-11l-7,10q1.5-.08,3,0a30.85,30.85,0,0,1,6,1c1.34.35,3,.76,4,1,1.39.33,2.75.63,4,1,1.09.33,1.88.76,3,1a8.49,8.49,0,0,1,3,1,6.58,6.58,0,0,1,2,2,6.72,6.72,0,0,1,1,3,32.94,32.94,0,0,1,1,4,28.75,28.75,0,0,0,1,5,29.27,29.27,0,0,0,2,4,31.82,31.82,0,0,1,2,6,44.42,44.42,0,0,1,1,10c-.07,5.32.49,13.66,0,21-.4,6-1.52,11-2,17a54.43,54.43,0,0,1-1,7c-.58,2.65-1.57,4.34-2,7a8.17,8.17,0,0,1-1,3c-.68,1.12-2.82,2.78-6,4a13.75,13.75,0,0,0-4,2,11.47,11.47,0,0,0-2,2,12.59,12.59,0,0,0-2,4c-.34,1-.81,2.29-1,3a62.07,62.07,0,0,0-2,8,47.49,47.49,0,0,0,0,8c.06,2,.06,4,0,6a26.28,26.28,0,0,0,5.08,2,24.85,24.85,0,0,0,4,.73c3.46.36,5.76,1.11,8.89,1.24,1,.05,2,.05,3,0a6.56,6.56,0,0,1,4-5,5.73,5.73,0,0,1,4,0,7.33,7.33,0,0,0,2,1c1.8.3,3.47-1.47,4-2,2.53-2.52,6.8-4.46,12-6a17,17,0,0,1,1.08-11,16.43,16.43,0,0,1,3.92-5c1.95-1.85,4-3.89,6-6a10.85,10.85,0,0,1-7-3c-2.83-2.92-2.39-6.72-3-12a44.16,44.16,0,0,0-2-9,52.3,52.3,0,0,0-5-10c-2.37-3.77-4.68-6.11-6-10-1.62-4.74-1.23-8.45-1-12,.25-3.89.74-13.66,0-18a9.3,9.3,0,0,1,0-3c.52-2.69,2.29-4,4-6,1.89-2.18,2-3.94,4-6a22.79,22.79,0,0,1,9-5,47.71,47.71,0,0,1,16-2,19.64,19.64,0,0,0-4-3,30.49,30.49,0,0,0-5-2,30,30,0,0,1-8-5,44.16,44.16,0,0,1-4-4c-3.05-3.36-5.28-6.88-6-9a21.84,21.84,0,0,1-1-5c-.59-8.05-2.57-38.07-3-52-.09-2.74-.89-23.58-1-31a109.64,109.64,0,0,1,3-27,97.57,97.57,0,0,1,7-19c1.6-2.73,3.24-5.36,5-8,2.52-3.79,5.17-7.43,8-11a16.34,16.34,0,0,1,5-6,13.11,13.11,0,0,0,3-3c1-1.57,1.57-3.06,1-4-.37-.6-1.26-1-3-1-2.44,0-7.84,1.24-13,6C381.35,70.62,374,86.6,369.49,100.18Z" />
  <path transform="translate(-10.17 -23.62)" fill="#ed2024" stroke="transparent" stroke-width="0" fill-rule="evenodd" d="M224.49,68.68a25.14,25.14,0,0,1,7-1,11.17,11.17,0,0,1,5,1,9.76,9.76,0,0,1,4,4,5.87,5.87,0,0,1,0,3,7.65,7.65,0,0,1-1,2c-.41.69-.62,1.31-1,2a22.32,22.32,0,0,1-2,3,18.48,18.48,0,0,1-7,5,95.2,95.2,0,0,1-9,4,40.65,40.65,0,0,1-10.72,2c-.44,0-.86,0-1.28,0a14.14,14.14,0,0,1-7-2,10.56,10.56,0,0,1-4-6,7.84,7.84,0,0,1,4-7,25.84,25.84,0,0,1,5-4,28.12,28.12,0,0,1,4-2A86.64,86.64,0,0,1,224.49,68.68Z" />
  <path transform="translate(-10.17 -23.62)" fill="#ed2024" stroke="transparent" stroke-width="0" fill-rule="evenodd" d="M180.49,90.68l3,1a16.6,16.6,0,0,1,3.27,4.38c.24.48.49,1,.73,1.62.41,1,.79,2.41,1,3a28.53,28.53,0,0,0,2,4c.78,1.43,1.12,2.63,2,4a5.52,5.52,0,0,1,1,3,7.59,7.59,0,0,1-1,3c-.46,1.1-.5,1.93-1,3a12.47,12.47,0,0,1-2,3,5.7,5.7,0,0,1-7,4,3.54,3.54,0,0,1-4-4c.33-1.33.66-2.66,1-4a9.35,9.35,0,0,1,1-2c.18-.28,1.83-1.86,2-3,.2-1.39-.84-2.46-2-4a27.44,27.44,0,0,1-2-3,11,11,0,0,1-2-3,11.28,11.28,0,0,1-1-5,5.14,5.14,0,0,1,5-6Z" />
  <path transform="translate(-10.17 -23.62)" fill="#fff" stroke="#fff" stroke-width="1px" fill-rule="evenodd" d="M153.49,101.68a8.21,8.21,0,0,0-2.43-.91,8,8,0,0,0-2.57-.09c-1.25.18-1.78.76-3,1-1.94.39-3-.45-5,0-.83.18-2,.59-2,1s1.85.87,3,1a16.18,16.18,0,0,0,3,0,21.37,21.37,0,0,1,4,0,7.72,7.72,0,0,1,5,2,9,9,0,0,1,2,4c.8,2.52,1.39,4,2,4s1.24-1.32,2-3c.61-1.35,1.27-2.67,2-4l-4-3Z" />
  <path transform="translate(-10.17 -23.62)" fill="#fff" stroke="#ed2024" stroke-width="1px" fill-rule="evenodd" d="M108.49,110.68c.64,3,1.31,6,2,9,1.3,5.75,2.25,9.37,5,13s7.53,5.54,13,9a35.21,35.21,0,0,0,11,5,29.62,29.62,0,0,0,4,.67,35.91,35.91,0,0,0,17-2.67c1.82-1.21,3-2.55,3-4,0-2.11-2.42-3.28-5-6a21.44,21.44,0,0,1-3-4,13.44,13.44,0,0,1-4-5c-.71-1.58-.79-2.68-2-4-.52-.56-1.46-1-2-2-.82-1.46-.25-2.54-1-4a5.19,5.19,0,0,0-2-2c-1,0-2,0-3,0a20,20,0,0,1-3,0,17.58,17.58,0,0,1-4-1c-.92-.3-3.17-.68-5-1-2.71-.46-5.37-.79-8-1A85.48,85.48,0,0,0,108.49,110.68Z" />
  <path transform="translate(-10.17 -23.62)" fill="#fff" stroke="#ed2024" stroke-width="1px" fill-rule="evenodd" d="M225,129.68a9.64,9.64,0,0,0-3,3c-.75,1.22-.93,2.17-2,3a5.94,5.94,0,0,1-4,1c-1.45,0-2.58.15-4,0-2.55-.26-4.45.13-7,0a44.19,44.19,0,0,0-7,0,28.51,28.51,0,0,0-3.75.66l-1.25.34a30.21,30.21,0,0,1-4,1,13.65,13.65,0,0,1-4,0,7,7,0,0,0-4,0c-.89.36-1.9,1-2,2a2.37,2.37,0,0,0,1,2v4c0,.71,0,1.65,0,2-.09.88-.27,1.4,0,2,.46,1.06,1.66,1.15,3,2a11.17,11.17,0,0,1,2,2,10,10,0,0,1,2,4,10.77,10.77,0,0,1,0,3,22.16,22.16,0,0,0,0,2.31l1.12.65,27.92-14a6.84,6.84,0,0,1,5,0,6.68,6.68,0,0,1,3,3c1.56,2.84,3.35,4.21,5,7s3.63,5.76,5.78,8.71l1.79,0Q243.27,159,250,148.68a8.27,8.27,0,0,1,5,0,9.08,9.08,0,0,1,3,2c3.6,3.79,23.88,17.06,33.42,23.28l1.62-.85,1-36.43a171.84,171.84,0,0,0-20-1q-8.13.07-17,1c-2.7.28-5.33.61-8,1a40.57,40.57,0,0,0-5.23.59c-.75.14-1.81.3-2.77.41a11.83,11.83,0,0,1-4,0,11.55,11.55,0,0,1-5-3c-1.11-1-2-2-3-3A23.6,23.6,0,0,0,225,129.68Z" />
  <path transform="translate(-10.17 -23.62)" fill="#fff" stroke="#ed2024" stroke-width="1px" fill-rule="evenodd" d="M172.88,158.59l-6.25.56c-3.46,4.41-6.81,8.38-10.43,12.37-4.52,4.95-9.24,9.66-14.21,14.16-1,.51-2.14,1.33-2,2s1.28.87,2,1a57.76,57.76,0,0,0,7,1c1.86,0,4,0,6,0a34.76,34.76,0,0,0,5,0c1.26-.09,2.59,0,4,0a7.53,7.53,0,0,1,4,1,6.58,6.58,0,0,1,2,2,6.69,6.69,0,0,1,1,4v15l2-1,30-11a7.11,7.11,0,0,1,4,2c1.82,2,1.54,4.45,2,7a17.38,17.38,0,0,0,5,9,18.76,18.76,0,0,0,11,2c4.89-.7,10.14-4.51,14-6a14.07,14.07,0,0,1,8-1,14.56,14.56,0,0,1,6,3q2.82,2,6,4l12-14,8.08,2.77q.46,9.12.92,18.23l26.1-18.9.49-5.5A229.88,229.88,0,0,0,278,177.68c-4.89-3.54-9.85-6.85-15-10-2.69-3-7-7.1-9-6a2.52,2.52,0,0,0-1,2c-.86,1.09-1.66,2.21-2.42,3.38a45.59,45.59,0,0,0-2.58,4.62c-1.75,3.55-3.09,6.72-5,9a22.57,22.57,0,0,1-6.28,5.16l-4.85-1.38c-2.35-4.09-4.77-8-7.36-12-2.42-3.69-4.89-7.23-7.51-10.79l-4,2c-2,1-5,2.49-6,3-5,2.57-13.33,7.72-21,11-1.67.72-3.31,1.38-5,2a5.4,5.4,0,0,1-4-1,6.16,6.16,0,0,1-2-4,17.47,17.47,0,0,1,0-5c.88-4.32,1.3-6.87,0-9a9,9,0,0,0-2-2Z" />
  <path transform="translate(-10.17 -23.62)" fill="#fff" stroke="#ed2024" stroke-width="1px" fill-rule="evenodd" d="M133,197.68a25.09,25.09,0,0,1-2,8c-.63,1.43-1.33,2.6-2,4a43.79,43.79,0,0,0-2,5l-5,2-5,2c-1.69.69-3.58,1.46-5,2a49.49,49.49,0,0,1-6,2,43.67,43.67,0,0,1-8,1c-2.44.11-4.56-.07-7,0-2.73.08-5.82.6-9,1-1.64.21-6.22.74-8,1-2.06.31-3.94.72-6,1a125.27,125.27,0,0,1-19,1,22.3,22.3,0,0,0-7,1,19.53,19.53,0,0,0-4,2c-4.32,2.77-8.87,5.87-13.26,9l1.52,7.07a7.88,7.88,0,0,0,2.74,0,10.4,10.4,0,0,0,4-2,14.5,14.5,0,0,1,5-2c1.29-.72,2.62-1.38,4-2a8.47,8.47,0,0,1,5-1,7.69,7.69,0,0,1,4,2c.09,2,.09,4,0,6a69.6,69.6,0,0,1-1,9c6.11-2.92,12.46-5.77,18-8a53.5,53.5,0,0,0,5-2,14.29,14.29,0,0,1,5-2c2.72-.41,4.32.28,5,1a4.25,4.25,0,0,1,1,3v13l19-15a24.67,24.67,0,0,1,9-1c3.82.31,6.19,1.57,10,2a33.31,33.31,0,0,0,7,0,38.22,38.22,0,0,0,9-2c3.41-1.16,6.54-2.51,10-4s7.29-3.05,10-4a51.39,51.39,0,0,0,6-2,12.4,12.4,0,0,1,3-1,10.06,10.06,0,0,1,3,0,6.16,6.16,0,0,1,4,9q-4,13.5-8,27l2-2c2.79-2.27,5.42-4.58,8-7,5.59-5.25,14.8-13.72,15-14,.94-1.29,3.43-4.88,7-5a10.72,10.72,0,0,1,5,2,16,16,0,0,1,4,4,6.36,6.36,0,0,0,2,2,5.87,5.87,0,0,0,3,1c2.89,0,4.51-2.9,8-6,1.4-1.24,2.63-1.71,4-3s2.2-2.32,4-3a9.39,9.39,0,0,1,6,0c2.42,1.32,5.17,2.86,7,4a33.21,33.21,0,0,0,4,2,10.71,10.71,0,0,0,4,1c1.88.08,3-.41,5-1,1.42-.42,2.59-.52,4-1,1.83-.61,3.16-1.39,5-2a21.74,21.74,0,0,1,5-1c2,.08,3.64-.13,4-1s-1-2-2-4a18.12,18.12,0,0,1-1-6c-.09-2-.09-4,0-6a30.46,30.46,0,0,1-2,4c-1.78,3-3.72,4.6-5,5a7,7,0,0,1-4,0c-2.52-1.68-4.94-3.37-7.4-5.13-2.24-1.6-4.41-3.2-6.6-4.87a35.73,35.73,0,0,1-13,6,50.29,50.29,0,0,1-9,1c-1.05,0-2,0-3,0s-1.84-.12-2.82-.22c-1.51-.17-3.39-.47-5.18-.78a9,9,0,0,1-5-2,7.55,7.55,0,0,1-2-3c-.39-1-.72-2-1-3a23.45,23.45,0,0,0-1-3c-.28-.63-.65-1.3-1-2s-.88-1.66-1-2c-.37-1-.43-1.7-1-2-.72-.37-1.8.11-3,1-1.37.66-2.68,1.32-4,2s-2.67,1.44-4,2c-2,.87-5.55,1.85-6,2-1,.35-3.27,1.28-5,2-3.41,1.43-6.43,1.95-10,3a6,6,0,0,1-4,0,5.85,5.85,0,0,1-3-3v-21a98.29,98.29,0,0,1-27-3Z" />
  <path transform="translate(-10.17 -23.62)" fill="#fff" stroke="#ed2024" stroke-width="1px" fill-rule="evenodd" d="M278.49,249.68l-30,9a16.91,16.91,0,0,1-9-4,11.7,11.7,0,0,0-8-3c-2.73.12-4.72,1.33-7,3a63.32,63.32,0,0,0-5,4c-4,3.75-6.26,6.18-9,6-1-.06-3.45-1.71-6-4-1.62-1.45-3-2.73-4.73-4.05-.43-.33-.84-.64-1.27-.95l-13,12a4.44,4.44,0,0,0-1,3c.1,1.18.77,1.75,1,3a9.54,9.54,0,0,1,0,2c0,.35,0,1.58,0,2,0,1.71,0,4.13,0,5a35.75,35.75,0,0,0,2,11c1.57,4.34,3.75,7,6,10,2.88,3.85,4.07,7.2,7,11a177.61,177.61,0,0,0,13,15,13.84,13.84,0,0,1,4,6c.79,2.67,0,6.52,1,7,.84.4,2.43-1.12,4-3a127.45,127.45,0,0,1,34-14c14.89-3.63,26.74-2.49,33,0a40.85,40.85,0,0,1,9,5,44.65,44.65,0,0,1,15,17,45.4,45.4,0,0,1,3,32c2-1.28,4-2.6,6-4a7,7,0,0,0,2-2,7.49,7.49,0,0,0,1-4c0-1,0-2,0-3a56.87,56.87,0,0,1,1-6c.21-1,.65-2.64,1-4s.71-3,1-4a26.29,26.29,0,0,0,1-4,18.2,18.2,0,0,0,0-5,17.93,17.93,0,0,0-2-6c-.29-1.68-.62-3.32-1-5-.2-.86-.66-2.64-1-4-.21-.82-1.11-5.28-2-8a42.57,42.57,0,0,0-3-7c-1.24-2.23-3-4.45-4-6-1.58-2.43-2.41-4.58-4-7-1.75-2.63-3.75-4.06-5-7-1-2.32-1.18-4.06-3-6a12.52,12.52,0,0,1-2-2c-1.53-2.33-.6-4.54-1-8a34.32,34.32,0,0,0-1-4c-.31-1-.69-2.18-1-3-2.18-5.63-7.38-9.09-10-11A71,71,0,0,1,278.49,249.68Z" />
  <path transform="translate(-10.17 -23.62)" fill="#fff" stroke="#ed2024" stroke-width="1px" fill-rule="evenodd" d="M334.3,252l-4.76.1c-3,2.68-6.05,5.36-9.07,8.06-3.35,3-6.66,6-10,9,.32,2,.66,4,1,6a35.3,35.3,0,0,0,2,8c1.62,3.91,3.56,5.91,6,9,1.17,1.49,3.9,5.85,6,9,1.38,2.08,3.25,5,4,6a30.3,30.3,0,0,1,4,6,26.29,26.29,0,0,1,2,10,51,51,0,0,0,2,11l9.53-1c.35-4.24.82-8.05,1.49-11.95.81-4.76,2.42-10.24,3-16,.51-5.18-.26-9.69-.27-14.41,0-6.62.57-11.27-.73-17.59-.82-3.93-2.46-6-3-10-.26-1.83-.54-5.12-3-7a11.46,11.46,0,0,0-3-1.3c-1.07-.33-2-.39-3-.7A12.44,12.44,0,0,1,334.3,252Z" />
  <path transform="translate(-10.17 -23.62)" fill="#fff" stroke="#fff" stroke-width="0.5px" fill-rule="evenodd" d="M288.49,242.68l16,16,2-1-1.73-1.31-1.55-1.2C300.26,252.86,293.33,246.9,288.49,242.68Z" />
  <path transform="translate(-10.17 -23.62)" fill="#ed2024" stroke="transparent" stroke-width="0" fill-rule="evenodd" d="M226.49,286.68a5.08,5.08,0,0,1,3-1,5.2,5.2,0,0,1,4,2,6.76,6.76,0,0,1,1,4,7.13,7.13,0,0,1-1,3,8.37,8.37,0,0,1-3,3c-.68.35-1.33.68-2,1a37.27,37.27,0,0,0-4,2,20.1,20.1,0,0,1-3,2,15.8,15.8,0,0,1-4,1c-.55.08-1.1.12-1.65.15a19.6,19.6,0,0,1-3.35-.15,29.24,29.24,0,0,1-4-1c-1.11-.29-3.3-.85-4-1a6.16,6.16,0,0,1-4-2,5.5,5.5,0,0,1-1-4,5.12,5.12,0,0,1,1-3,4.74,4.74,0,0,1,1-1,8.43,8.43,0,0,1,6-1c1.71.45,2.29,1.41,4,2a8.88,8.88,0,0,0,6,0,11.46,11.46,0,0,0,3-2c.49-.38,2.14-1.43,3-2Z" />
  <path transform="translate(-10.17 -23.62)" fill="#ed2024" stroke="transparent" stroke-width="0" fill-rule="evenodd" d="M209.49,306.68l5.06.2,20.94.8q1,2.51,2,5l-2,5c-10.3,1.54-18.94,1.61-28-1l-1-7Z" />
  <path transform="translate(-10.17 -23.62)" fill="#fff" stroke="#ed2024" stroke-width="1px" fill-rule="evenodd" d="M268.49,334.68a123.08,123.08,0,0,0-21,4c-1.84.55-3.56,1.14-5.19,1.78a52.91,52.91,0,0,0-11.81,6.22,47.28,47.28,0,0,0-11,12c-2.06,3.11-3,5.85-5,9-1.65,2.61-3.09,4.35-4,7-1.9,5.51-.1,9.49,0,16,0,2.24-.24,6.51,0,10a28.42,28.42,0,0,0,1,6,35.89,35.89,0,0,0,3,7c2.17,3.94,3.21,8.79,5,14,1.1,3.21,2.6,7.3,4,11a228.77,228.77,0,0,0,20,40,81.28,81.28,0,0,0-9,5c-2,1.29-4,2.67-6,4a56.49,56.49,0,0,1-5,3,71.87,71.87,0,0,1-7,3c-2.46,1-4.53,2.07-7,3-1.74.66-3.26,1.37-5,2a15.21,15.21,0,0,0-4,2,15.94,15.94,0,0,0-5,7c-2,5.06-6.41,10.52-12,16,3.55-1.26,6.54-.69,8,1a8.91,8.91,0,0,1,1,5,16.59,16.59,0,0,1-1,5,15.55,15.55,0,0,1,2-1c2.68-1.09,4.67-1,8-1,2.08,0,5.07.06,6,0a8,8,0,0,1,5,1,7.06,7.06,0,0,1,2,2,25,25,0,0,0,2,9,25.66,25.66,0,0,0,9,11c2.66-10,6.52-21.5,11-30a42,42,0,0,1,7-10c4.28-4.39,8.12-6.08,13-9,3.41-2,8-5.83,11-8,6.18-4.46,12.42-8.73,19-13a7.83,7.83,0,0,1-6.52-3,7.59,7.59,0,0,1-1.48-5l3-4,24-6a13.24,13.24,0,0,1-5-6,12.94,12.94,0,0,1-1-5,9.62,9.62,0,0,1,8-6l-3-2a29.76,29.76,0,0,1-19-17,73.86,73.86,0,0,1,6-22c2.62-5.78,12.47-17.7,15-31a43.77,43.77,0,0,0,0-17c-2.08-10.11-6.53-17.62-13-22-2.73-1.84-8.7-4.25-16-5A45.11,45.11,0,0,0,268.49,334.68Z" />
  <path transform="translate(-10.17 -23.62)" fill="#fff" stroke="#ed2024" stroke-width="1px" fill-rule="evenodd" d="M180.49,354.68a46.82,46.82,0,0,1-8,3c-3.1.85-5.88,1.24-9,2a27.29,27.29,0,0,0-8,3,22.38,22.38,0,0,0-7,7,17.75,17.75,0,0,0-6,6,22.78,22.78,0,0,0-2,5c-.92,2.78-2.48,5.14-4.37,8.15-1.62,2.58-5.55,9.07-6.63,10.85a128.09,128.09,0,0,0-9,18c-2-.26-4-.59-6-1-3.89-.79-7.18-1.94-11-3a78.18,78.18,0,0,0-18-3c-2.81-.09-5.2.15-8,0a32.1,32.1,0,0,0-5,0,23.08,23.08,0,0,0-10,3c-1.51.93-3.3,3.09-6,4s-4.33.15-7,1-5.11,3-7,6c3.18-2.19,7-1.91,9,0,2.48,2.45,2.27,8-2,11a5.63,5.63,0,0,1,7,7c1.31-1.06,2.63-2.05,4-3a39.13,39.13,0,0,1,5-3,19.51,19.51,0,0,1,9-2,15.09,15.09,0,0,1,6,2c2.89,1.57,6.82,4.28,8,5,3.49,2.14,6.09,2.71,10,4,6.73,2.23,11.45,5.3,18,8,3.12,1.29,5.93,2.53,9,4,1.35.66,2.67,1.32,4,2,2.8-3.55,5.44-7.18,8-11s4.56-7.27,7-11c2.11-3.23,4.39-5.95,6-9s2.54-5.29,5-8c2.25-2.48,4.73-3.89,8-6,2.35-1.51,5.52-3.48,6-4a6.69,6.69,0,0,1,3-2,6,6,0,0,1,3,0l31,27a10.06,10.06,0,0,0,2-4,11.08,11.08,0,0,0-2-9q-2.84-6.42-5-13a128.73,128.73,0,0,1-4-16,44.4,44.4,0,0,1-.78-8.79,28.29,28.29,0,0,1,1.78-10.21,27.15,27.15,0,0,1,2-4c.66-1.08,1.35-1.89,2-3,.81-1.38,1.21-2.6,2-4,.62-1.1,1.27-1.95,2-3a45.3,45.3,0,0,0,3-5l1-2c-5-.16-10-.16-15,0S185.51,354.18,180.49,354.68Z" />
  <path transform="translate(-10.17 -23.62)" fill="#ed2024" stroke="transparent" stroke-width="1px" fill-rule="evenodd" d="M259.49,370.68a27.65,27.65,0,0,1,4-2,28.93,28.93,0,0,1,3.75-1.21,33.62,33.62,0,0,1,4.25-.79c3.11-.38,7.25-.74,11-1a6.94,6.94,0,0,1,4,3,6.87,6.87,0,0,1,1,4,8.3,8.3,0,0,1-3,3,9.16,9.16,0,0,1-5,1,31.39,31.39,0,0,0-8,1,37.47,37.47,0,0,0-7,3,33.25,33.25,0,0,0-8,6,28.59,28.59,0,0,0-5,7c-2,4.06-3,7.86-3,10a7.77,7.77,0,0,1-1,4,7.58,7.58,0,0,1-4,3,5.5,5.5,0,0,1-7-6q1-3,2-6t2-6a29.47,29.47,0,0,1,2-5,39.06,39.06,0,0,1,5-7,49.69,49.69,0,0,1,7-7A32,32,0,0,1,259.49,370.68Z" />
</svg>
