<?xml version="1.0" encoding="UTF-8" standalone="no"?>
<!-- Created with Inkscape (http://www.inkscape.org/) -->
<!DOCTYPE svg PUBLIC "-//W3C//DTD SVG 1.1//EN" "http://www.w3.org/Graphics/SVG/1.1/DTD/svg11.dtd">
<svg
   xmlns:svg="http://www.w3.org/2000/svg"
   xmlns="http://www.w3.org/2000/svg"
   version="1.1"
   width="400"
   height="315"
   id="svg5364"
   xml:space="preserve">
    <defs id="defs5368" />
        <g transform="matrix(1.25,0,0,-1.25,433.55186,335.88322)" id="g5374">
            <g id="g6872"><rect
         width="320"
         height="252"
         x="-346.84149"
         y="-268.70657"
         transform="scale(1,-1)"
         id="rect6829"
         style="fill:#fff;fill-opacity:1;fill-rule:nonzero;stroke:#fff;stroke-width:0;stroke-linecap:butt;stroke-linejoin:miter;stroke-miterlimit:4;stroke-opacity:1;stroke-dasharray:none" /><path
         d="m -175.06383,224.29332 c -3.54215,-0.44514 -7.04642,-0.91869 -10.45124,-1.43486 l 1.22649,-39.6031 43.86965,-22.95777 c 1.27859,0.62508 2.55244,1.25017 3.83102,1.88 l -36.66696,24.94668 -6.04249,-2.07415 4.23353,39.2432 z"
         id="path5422"
         style="fill:#000;fill-opacity:1;fill-rule:nonzero;stroke:none" /><path
         d="m -196.27602,220.97893 c -3.55635,-0.70559 -6.93276,-1.48695 -10.09134,-2.35355 l -0.46408,-45.02526 45.53181,-23.25137 c 1.69531,0.79556 3.43323,1.61481 5.22325,2.46246 l -39.49405,25.98377 -6.28874,-2.81763 5.58315,45.00158 z"
         id="path5426"
         style="fill:#000;fill-opacity:1;fill-rule:nonzero;stroke:none" /><path
         d="m -186.41339,222.71213 c -3.08755,-0.48302 -6.09933,-0.9992 -8.99271,-1.55799 l -0.16575,-42.35916 45.1435,-23.3082 c 1.48695,0.70085 2.99284,1.42065 4.50819,2.14992 l -38.367,25.61913 -6.30768,-2.21622 4.18145,41.67252 z"
         id="path5430"
         style="fill:#000;fill-opacity:1;fill-rule:nonzero;stroke:none" /><path
         d="m -156.25727,226.34521 c -2.775,-0.27466 -5.55001,-0.55405 -8.32027,-0.85239 l 1.96523,-34.96703 -6.03776,-1.9463 3.13963,36.80915 c -2.90286,-0.31254 -5.79151,-0.63456 -8.65175,-0.98972 l 0.90922,-37.27796 42.63842,-21.94911 c 1.22175,0.61562 2.44825,1.24544 3.67474,1.88 l -35.46887,23.47868 40.17122,-21.02095 c 1.19335,0.63456 2.38669,1.27859 3.58004,1.92736 l -33.50365,22.54577 -6.09932,-2.08836 2.00312,34.45086 z"
         id="path5434"
         style="fill:#000;fill-opacity:1;fill-rule:nonzero;stroke:none" /><path
         d="m -146.6409,227.27622 c -2.8555,-0.27466 -5.73469,-0.54932 -8.62807,-0.82872 l 3.11122,-32.46668 37.74665,-20.2017 c 1.07496,0.59667 2.14991,1.21229 3.21067,1.8137 l -31.89358,21.54659 -5.25167,-1.86579 1.70478,32.0026 z"
         id="path5438"
         style="fill:#000;fill-opacity:1;fill-rule:nonzero;stroke:none" /><path
         d="m -257.83227,194.96155 c -5.37006,-3.31486 -9.77881,-6.27456 -12.86161,-8.43395 l -1.33068,-53.71493 c 0,0 -10.32812,-7.40161 -14.20649,-10.67385 -3.88785,-3.27224 -10.99583,-9.96352 -10.99583,-9.96352 l 0.005,-13.264175 c 0,0 8.59966,11.886135 14.61848,17.530875 5.86728,5.50266 13.44408,11.71092 13.44408,11.71092 l -1.3875,2.00786 47.91849,-21.66498 c 0.76242,0.74822 2.63294,2.54298 5.31797,4.99124 l -41.54926,27.20552 -6.47342,-5.18539 7.50103,59.45438 z"
         id="path5442"
         style="fill:#000;fill-opacity:1;fill-rule:nonzero;stroke:none" /><path
         d="m -244.75567,202.54263 c -4.28089,-2.3204 -8.25397,-4.63133 -11.84348,-6.82388 l -2.25883,-55.02193 48.58147,-21.01147 c 1.74266,1.48695 3.61318,3.0402 5.58788,4.63133 l -40.73948,26.44311 -6.48763,-4.72131 7.16007,56.50415 z"
         id="path5446"
         style="fill:#000;fill-opacity:1;fill-rule:nonzero;stroke:none" /><path
         d="m -136.92413,228.21243 c -2.88865,-0.28413 -5.8294,-0.56826 -8.81276,-0.84766 l 2.64714,-30.22678 35.98978,-19.15515 c 1.15073,0.68191 2.30145,1.37329 3.43324,2.06941 l -30.09409,20.24906 -5.65418,-2.00786 2.49087,29.91898 z"
         id="path5450"
         style="fill:#000;fill-opacity:1;fill-rule:nonzero;stroke:none" /><path
         d="m -207.31067,218.36635 c -0.23678,-0.0663 -0.49249,-0.1326 -0.7198,-0.20363 -3.52321,-1.02287 -7.02274,-2.20675 -10.47492,-3.49954 l -1.13178,-47.75292 46.71095,-22.12432 c 1.78054,0.87133 3.6558,1.78055 5.6305,2.72292 l -39.53193,26.08794 -6.73388,-3.41904 6.25086,48.18859 z"
         id="path5454"
         style="fill:#000;fill-opacity:1;fill-rule:nonzero;stroke:none" /><path
         d="m -219.33836,214.34637 c -4.10568,-1.55798 -8.13559,-3.27224 -12.03764,-5.07647 l -1.16966,-49.96914 -6.56814,-4.20513 6.83806,53.75754 c -4.02991,-1.88473 -7.90355,-3.84997 -11.57829,-5.81994 l -1.57692,-52.2706 47.26026,-21.37137 c 1.71899,1.29279 3.47586,2.56665 5.26114,3.81209 l -39.63611,25.96008 46.50732,-21.4282 c 1.85158,1.13653 3.70789,2.21622 5.54053,3.20121 0.10892,0.0616 0.23677,0.12312 0.34095,0.17995 l -39.47984,25.79434 -6.65337,-3.81682 6.95171,51.25246 z"
         id="path5458"
         style="fill:#000;fill-opacity:1;fill-rule:nonzero;stroke:none" /><path
         d="m -80.066433,240.40306 c -2.42931,-1.00393 -4.977008,-1.97945 -7.643093,-2.92655 l 0.07103,-17.29409 22.332607,-4.83023 c 1.250171,1.88 2.424574,3.76474 3.542152,5.64 l -16.953081,4.7734 -4.361393,-2.82237 3.011776,17.45984 z"
         id="path5462"
         style="fill:#000;fill-opacity:1;fill-rule:nonzero;stroke:none" /><path
         d="m -88.55055,237.17865 c -2.599788,-0.90922 -5.313229,-1.77108 -8.13085,-2.58559 l -0.165742,-19.19304 25.803726,-7.95093 c 1.05128,1.33542 2.074148,2.68031 3.054396,4.02993 l -19.647579,8.70387 -4.508194,-2.36776 3.594243,19.36352 z"
         id="path5466"
         style="fill:#000;fill-opacity:1;fill-rule:nonzero;stroke:none" /><path
         d="m -63.951535,248.17451 c -2.074148,-1.15546 -4.318774,-2.33934 -6.719671,-3.52322 l -0.132594,-12.86166 -4.337716,-3.4143 3.688953,15.89712 c -2.452988,-1.19335 -5.062247,-2.38197 -7.841984,-3.53743 l 0.577731,-14.96896 19.050906,-1.11758 c 1.051281,1.90841 2.045735,3.79788 2.969157,5.6542 l -13.841859,1.62902 15.551374,1.9463 c 0.838183,1.78055 1.605333,3.53269 2.315658,5.2138 l -10.56963,-0.67245 -3.22961,-2.94549 2.519285,12.70065 z"
         id="path5470"
         style="fill:#000;fill-opacity:1;fill-rule:nonzero;stroke:none" /><path
         d="m -97.421084,234.37522 c -1.245436,-0.35516 -2.509814,-0.70085 -3.788396,-1.0276 -1.49168,-0.38358 -3.09702,-0.74348 -4.8018,-1.09391 l -0.0663,-21.09197 -0.0332,-0.0142 29.05701,-10.6549 c 1.008661,1.07022 1.988909,2.14992 2.940744,3.24856 l -22.735123,11.65883 -4.522401,-2.12624 3.949406,21.10144 z"
         id="path5474"
         style="fill:#000;fill-opacity:1;fill-rule:nonzero;stroke:none" /><path
         d="m -45.408274,260.70657 c 0,0 -1.250171,-1.12705 -3.679481,-2.95496 l -0.989719,-4.68816 -1.979438,-2.49088 1.074958,5.78207 c -1.273849,-0.91396 -2.765531,-1.93209 -4.451368,-3.04494 l -1.051281,-7.93672 -2.178328,-2.42932 2.083618,9.6273 c -1.960496,-1.25017 -4.171973,-2.59032 -6.606019,-3.96836 l -0.05209,-10.18609 12.080254,4.40403 c 0.644028,1.62902 1.221758,3.187 1.752134,4.65974 l -6.241386,-1.22176 7.273725,4.19567 c 2.088354,6.26035 2.964421,10.25238 2.964421,10.25238"
         id="path5478"
         style="fill:#000;fill-opacity:1;fill-rule:nonzero;stroke:none" /><path
         d="m -126.97106,229.23861 c -2.89813,-0.31728 -5.9099,-0.62035 -8.97377,-0.92342 l 2.18306,-28.0153 34.635433,-17.39354 c 1.164932,0.75295 2.315658,1.50116 3.456913,2.25884 l -28.375096,18.76684 -5.58316,-2.13098 2.65662,27.43756 z"
         id="path5482"
         style="fill:#000;fill-opacity:1;fill-rule:nonzero;stroke:none" /><path
         d="m -115.3421,207.31461 0.009,0 -0.0521,0.0284 0.0426,-0.0284 z"
         id="path5486"
         style="fill:#000;fill-opacity:1;fill-rule:nonzero;stroke:none" /><path
         d="m -116.1997,230.57308 c -3.13963,-0.4404 -6.45922,-0.84766 -9.92087,-1.23123 l 2.07889,-25.41077 32.258205,-16.09127 c 0.805035,0.56826 1.595863,1.12705 2.372485,1.70005 0.421459,0.3078 0.842918,0.62035 1.259642,0.93763 l -27.191222,16.83948 -4.83495,-1.8942 3.97782,25.15031 z"
         id="path5498"
         style="fill:#000;fill-opacity:1;fill-rule:nonzero;stroke:none" /><path
         d="m -106.12351,211.14422 0.009,0.005 -0.0379,0.0142 0.0284,-0.0189 z"
         id="path5502"
         style="fill:#000;fill-opacity:1;fill-rule:nonzero;stroke:none" /><path
         d="m -106.9025,232.08702 c -2.57611,-0.49722 -5.36532,-0.95657 -8.33921,-1.37803 l 0.0521,-23.33661 -0.14206,-0.0568 31.401081,-13.40624 c 1.065487,0.91869 2.102561,1.86106 3.111222,2.81763 l -25.306503,14.41964 -4.6692,-2.03153 3.89258,22.97197 z"
         id="path5514"
         style="fill:#000;fill-opacity:1;fill-rule:nonzero;stroke:none" /><path
         d="m -298.88288,82.755447 0.68665,-0.06156 c 0.71032,-0.05683 0.98972,-0.525642 0.98972,-1.089168 l 0,-19.49611 8.31079,0 0,9.641506 0.09,0 5.27061,-9.641506 8.21135,0 0,22.076964 -8.30133,0 0,-10.88221 -0.12786,0 -5.27061,10.88221 -9.8593,0 0,-1.430125 z"
         id="path5518"
         style="fill:#000;fill-opacity:1;fill-rule:nonzero;stroke:none" /><path
         d="m -265.02076,72.6456 c 0,1.491686 0,2.855514 1.58166,2.855514 1.43012,0 1.48694,-1.363828 1.48694,-2.855514 l -3.0686,0 z m 3.10175,-4.83496 c -0.12312,-1.335415 -0.36937,-2.045742 -1.45853,-2.045742 -1.54851,0 -1.67637,0.748212 -1.67637,3.906799 l 10.36127,0 c 0,6.445034 -1.24543,9.793042 -8.62334,9.793042 -7.28319,0 -9.23422,-3.527958 -9.23422,-8.921707 0,-5.39375 1.32594,-8.931179 8.92641,-8.931179 5.11908,0 8.71332,1.145994 8.93115,6.198787 l -7.22637,0 z"
         id="path5522"
         style="fill:#000;fill-opacity:1;fill-rule:nonzero;stroke:none" /><path
         d="m -249.35431,62.109556 10.84429,0 1.58639,12.336012 0.0616,0 1.67163,-12.336012 10.75905,0 4.03464,16.858428 -8.12611,0 -1.48695,-12.269716 -0.0663,0 -1.48695,12.269716 -10.47965,0 -1.27385,-12.269716 -0.0568,0 -1.70004,12.269716 -9.15372,0 0,-1.420654 0.67718,-0.06156 c 0.71979,-0.06156 0.87606,-0.554055 0.99445,-1.084433 l 3.2012,-14.291779 z"
         id="path5526"
         style="fill:#000;fill-opacity:1;fill-rule:nonzero;stroke:none" /><path
         d="m -200.32439,67.31862 8.80329,12.364426 0,4.503473 -17.63973,0 0,-5.242213 7.28319,0 -7.65729,-12.336013 0,-4.498737 18.26481,0 0,6.885436 -1.43012,0 -0.0663,-0.691385 c -0.0568,-0.710327 -0.5209,-0.984987 -1.07969,-0.984987 l -6.47816,0 z"
         id="path5530"
         style="fill:#000;fill-opacity:1;fill-rule:nonzero;stroke:none" /><path
         d="m -182.01696,72.6456 c 0,1.491686 0,2.855514 1.58639,2.855514 1.42539,0 1.48695,-1.363828 1.48695,-2.855514 l -3.07334,0 z m 3.10175,-4.83496 c -0.12312,-1.335415 -0.36463,-2.045742 -1.45853,-2.045742 -1.54377,0 -1.67163,0.748212 -1.67163,3.906799 l 10.35653,0 c 0,6.445034 -1.24543,9.793042 -8.62334,9.793042 -7.28319,0 -9.23422,-3.527958 -9.23422,-8.921707 0,-5.39375 1.32594,-8.931179 8.92641,-8.931179 5.11434,0 8.71805,1.145994 8.93115,6.198787 l -7.22637,0 z"
         id="path5534"
         style="fill:#000;fill-opacity:1;fill-rule:nonzero;stroke:none" /><path
         d="m -151.60323,73.699725 c 0,3.96836 -3.38114,5.76312 -8.74172,5.76312 -5.48845,0 -8.22083,-1.733198 -8.46707,-6.042515 l 6.95171,0 c 0,1.183878 0.36463,1.80423 1.26911,1.80423 0.98972,0 1.33067,-0.710327 1.33067,-1.742669 l 0,-1.079697 -2.97389,-0.217833 c -4.56028,-0.279396 -7.32581,-1.486952 -7.32581,-5.521609 0,-3.097026 1.65269,-5.052793 5.34164,-5.052793 2.47666,0 4.27615,1.056019 4.99595,3.40957 l 0.0568,0 c 0,-1.046549 0.12313,-2.197279 0.43567,-2.912341 l 8.79855,0 0,1.425389 -0.67717,0.06156 c -0.71506,0.06156 -0.99446,0.530378 -0.99446,1.089168 l 0,9.016418 z m -7.56259,-4.058335 c 0,-2.571384 -0.53037,-3.59899 -1.80422,-3.59899 -1.01813,0 -1.29753,0.743475 -1.29753,1.586397 0,1.174407 0.64403,1.827908 1.86105,1.922618 l 1.2407,0.08997 z"
         id="path5538"
         style="fill:#000;fill-opacity:1;fill-rule:nonzero;stroke:none" /><path
         d="m -147.54917,62.109556 8.00299,0 0,22.076963 -9.67935,0 0,-1.430125 0.68191,-0.06156 c 0.71506,-0.05683 0.99445,-0.530378 0.99445,-1.089168 l 0,-19.496109 z"
         id="path5542"
         style="fill:#000;fill-opacity:1;fill-rule:nonzero;stroke:none" /><path
         d="m -119.33365,73.699725 c 0,3.96836 -3.37641,5.76312 -8.74173,5.76312 -5.48371,0 -8.22082,-1.733198 -8.46707,-6.042515 l 6.94698,0 c 0,1.183878 0.3741,1.80423 1.27384,1.80423 0.98972,0 1.32594,-0.710327 1.32594,-1.742669 l 0,-1.079697 -2.96915,-0.217833 c -4.56029,-0.279396 -7.31635,-1.486952 -7.31635,-5.521609 0,-3.097026 1.64322,-5.052793 5.33217,-5.052793 2.47667,0 4.27616,1.056019 4.99122,3.40957 l 0.0663,0 c 0,-1.046549 0.11839,-2.197279 0.4262,-2.912341 l 8.80802,0 0,1.425389 -0.68191,0.06156 c -0.71506,0.06156 -0.99445,0.530378 -0.99445,1.089168 l 0,9.016418 z m -7.55786,-4.058335 c 0,-2.571384 -0.52564,-3.59899 -1.80422,-3.59899 -1.02287,0 -1.29753,0.743475 -1.29753,1.586397 0,1.174407 0.64403,1.827908 1.85632,1.922618 l 1.24543,0.08997 z"
         id="path5546"
         style="fill:#000;fill-opacity:1;fill-rule:nonzero;stroke:none" /><path
         d="m -115.23508,62.109556 8.00299,0 0,9.584679 c 0,1.510629 0.43567,2.25884 1.48221,2.25884 0.99446,0 1.36856,-0.748211 1.36856,-2.045742 l 0,-9.797777 7.993521,0 0,11.625685 c 0,3.442719 -1.728456,5.729972 -5.294281,5.729972 -2.95022,0 -4.53188,-1.022871 -5.61157,-3.376422 l -0.071,0 0,2.879193 -9.54676,0 0,-1.420654 0.68191,-0.06156 c 0.71506,-0.06156 0.99445,-0.530378 0.99445,-1.084433 l 0,-14.291779 z"
         id="path5550"
         style="fill:#000;fill-opacity:1;fill-rule:nonzero;stroke:none" /><path
         d="m -85.820063,72.342527 c 0,1.29753 0.492492,2.225691 1.520095,2.225691 0.771886,0 1.458533,-0.554055 1.458533,-1.922618 l 0,-3.471132 c 0,-1.240704 -0.563524,-1.98418 -1.52483,-1.98418 -1.079693,0 -1.453798,0.989722 -1.453798,2.296724 l 0,2.855515 z m 2.917067,4.806546 c -0.80977,1.794759 -2.760795,2.315666 -4.621846,2.315666 -4.280889,0 -6.634432,-2.666094 -6.634432,-8.983269 0,-6.946998 2.353543,-8.869617 6.137205,-8.869617 2.419839,0 4.28089,1.018135 5.299022,3.224885 l 0.0663,0 0.307807,-2.727656 7.501028,0 0,22.076964 -9.669886,0 0,-1.430125 0.681912,-0.06156 c 0.71506,-0.05683 0.994454,-0.525642 0.994454,-1.089168 l 0,-4.456118 -0.06156,0 z"
         id="path5554"
         style="fill:#000;fill-opacity:1;fill-rule:nonzero;stroke:none" /><path
         d="m -309.3346,33.372092 c 0,3.300653 -2.10729,5.029115 -6.31242,5.644732 l 0,0.170478 c 4.41349,0.994458 6.44028,3.348008 6.44028,7.591029 0,5.284833 -3.509,7.969869 -9.57517,7.969869 l -20.05957,0 0,-1.903677 0.90921,-0.07577 c 0.95184,-0.08997 1.31647,-0.705591 1.31647,-1.449067 l 0,-25.960085 11.10474,0 0,9.698332 1.8942,0 c 2.19254,0 3.14437,-1.269118 3.14437,-3.831031 l 0,-2.931283 c 0,-1.567455 0.69612,-2.936018 2.51455,-2.936018 l 10.84903,0 0,1.898941 -0.90448,0.08997 c -0.9471,0.0805 -1.32121,0.700856 -1.32121,1.444331 l 0,4.579242 z m -16.17646,8.585486 0,6.516066 1.61007,0 c 2.31093,0 3.50901,-0.989722 3.50901,-3.381156 0,-1.98418 -1.07496,-3.13491 -3.22488,-3.13491 l -1.8942,0 z"
         id="path5558"
         style="fill:#000;fill-opacity:1;fill-rule:nonzero;stroke:none" /><path
         d="m -278.09121,54.747253 -11.1,0 0,-20.310618 c 0,-1.647958 -0.57773,-2.879192 -2.1878,-2.879192 -1.61007,0 -2.1878,1.231234 -2.1878,2.879192 l 0,20.310618 -13.33516,0 0,-1.898941 0.91395,-0.0805 c 0.9471,-0.08998 1.32594,-0.705591 1.32594,-1.449067 l 0,-14.395961 c 0,-8.831733 2.68029,-12.175005 13.28307,-12.175005 10.60278,0 13.2878,3.343272 13.2878,12.089766 l 0,17.909712 z"
         id="path5562"
         style="fill:#000;fill-opacity:1;fill-rule:nonzero;stroke:none" /><path
         d="m -247.26312,40.594224 -12.9137,0 0,-1.898941 0.90448,-0.08524 c 0.9471,-0.08524 1.32121,-0.700856 1.32121,-1.439596 l 0,-2.732391 c 0,-2.102568 -0.98972,-2.883928 -2.59979,-2.883928 -1.94156,0 -2.56191,1.235969 -2.56191,2.883928 l 0,11.109515 c 0,1.652694 0.62035,2.883927 2.23516,2.883927 1.60533,0 2.22568,-1.231233 2.22568,-2.883927 l 0,-1.155466 11.05739,0 c -0.33149,7.875159 -3.75525,10.934301 -13.1268,10.934301 -10.97215,0 -13.65244,-4.044129 -13.65244,-15.598781 0,-10.811178 3.29591,-15.021049 11.75824,-15.021049 3.96361,0 6.60602,1.444331 7.38738,4.868108 l 0.16574,0 0.90921,-4.214607 6.89015,0 0,15.234147 z"
         id="path5566"
         style="fill:#000;fill-opacity:1;fill-rule:nonzero;stroke:none" /><path
         d="m -242.76581,25.359603 17.33665,0 c 4.79232,0 9.20107,1.861057 9.20107,7.553144 0,4.711836 -2.84603,6.606041 -7.46788,7.221658 l 0,0.170479 c 4.32825,0.535113 6.47816,2.557177 6.47816,6.767048 0,6.473447 -4.86809,7.676268 -10.28076,7.676268 l -17.49293,0 0,-1.903677 0.90922,-0.07577 c 0.95183,-0.08997 1.31647,-0.705591 1.31647,-1.449067 l 0,-25.960085 z m 12.88055,23.114041 c 1.40171,0 2.2683,-1.155465 2.2683,-2.557177 0,-1.240704 -0.74347,-2.727656 -2.2683,-2.727656 l -2.14992,0 0,5.284833 2.14992,0 z m -0.33149,-11.30367 c 1.7332,0 2.92654,-0.662972 2.92654,-2.642417 0,-1.856321 -0.73874,-2.76554 -2.88865,-2.76554 l -1.8137,0 0,5.407957 1.77581,0 z"
         id="path5570"
         style="fill:#000;fill-opacity:1;fill-rule:nonzero;stroke:none" /><path
         d="m -207.51288,34.483043 0,-9.125334 11.42202,0 0,9.125334 9.45206,20.263263 -11.67774,0 -3.30064,-12.255509 -0.16101,0 -3.0544,12.255509 -12.21758,0 0,-1.861057 c 1.52483,-0.156272 1.94155,-0.947103 2.43405,-2.055213 l 7.10324,-16.346993 z"
         id="path5574"
         style="fill:#000;fill-opacity:1;fill-rule:nonzero;stroke:none" /><path
         d="m -150.19063,54.747253 -11.09527,0 0,-20.310618 c 0,-1.647958 -0.58246,-2.879192 -2.19253,-2.879192 -1.61007,0 -2.18307,1.231234 -2.18307,2.879192 l 0,20.310618 -13.33516,0 0,-1.898941 0.90922,-0.0805 c 0.9471,-0.08998 1.31647,-0.705591 1.31647,-1.449067 l 0,-14.395961 c 0,-8.831733 2.68029,-12.175005 13.29254,-12.175005 10.60751,0 13.2878,3.343272 13.2878,12.089766 l 0,17.909712 z"
         id="path5578"
         style="fill:#000;fill-opacity:1;fill-rule:nonzero;stroke:none" /><path
         d="m -146.88762,52.846418 0.91395,-0.0805 c 0.9471,-0.08998 1.31174,-0.705592 1.31174,-1.444332 l 0,-25.960085 11.06212,0 0,12.837977 0.12312,0 7.02274,-12.837977 10.92953,0 0,29.383862 -11.05738,0 0,-14.481201 -0.16575,0 -7.01327,14.481201 -13.1268,0 0,-1.898941 z"
         id="path5582"
         style="fill:#000;fill-opacity:1;fill-rule:nonzero;stroke:none" /><path
         d="m -98.682621,25.359603 0,29.388597 -13.330429,0 0,-1.903677 0.90922,-0.07577 c 0.9471,-0.08997 1.3212,-0.705591 1.3212,-1.449067 l 0,-25.960085 11.100009,0 z"
         id="path5586"
         style="fill:#000;fill-opacity:1;fill-rule:nonzero;stroke:none" /><path
         d="m -81.513601,24.748722 c 11.019503,0 13.666646,4.167252 13.666646,14.978429 0,11.554653 -2.689763,15.598781 -13.666646,15.598781 -10.972148,0 -13.657175,-4.044128 -13.657175,-15.598781 0,-10.811177 2.637672,-14.978429 13.657175,-14.978429 m 0,23.687038 c 1.610069,0 2.386691,-1.235969 2.386691,-2.888663 l 0,-11.109515 c 0,-1.647958 -0.776622,-2.883927 -2.386691,-2.883927 -1.610069,0 -2.396162,1.235969 -2.396162,2.883927 l 0,11.109515 c 0,1.652694 0.786093,2.888663 2.396162,2.888663"
         id="path5590"
         style="fill:#000;fill-opacity:1;fill-rule:nonzero;stroke:none" /><path
         d="m -66.199949,52.846418 0.909215,-0.0805 c 0.9471,-0.08998 1.321204,-0.705592 1.321204,-1.444332 l 0,-25.960085 11.057387,0 0,12.837977 0.118387,0 7.022743,-12.837977 10.929528,0 0,29.383862 -11.052651,0 0,-14.481201 -0.165742,0 -7.018008,14.481201 -13.122063,0 0,-1.898941 z"
         id="path5594"
         style="fill:#000;fill-opacity:1;fill-rule:nonzero;stroke:none" /><path
         d="m -82.29259,96.35821 0,-5.971483 1.316468,0 0,2.400906 0.483021,0 1.396971,-2.400906 1.434856,0 -1.482211,2.462467 c 0.42146,0.05683 0.762416,0.208363 1.051281,0.473552 0.28413,0.288866 0.43093,0.677178 0.43093,1.179143 0,0.60141 -0.184684,1.060755 -0.56826,1.378034 -0.374104,0.317279 -0.95657,0.478287 -1.733192,0.478287 l -2.329864,0 z m 1.316468,-2.519293 0,1.47748 0.866596,0 c 0.123123,0 0.24151,-0.0095 0.374104,-0.02841 0.132594,-0.0095 0.265188,-0.04735 0.369369,-0.09471 0.123123,-0.04736 0.213097,-0.123124 0.279394,-0.227305 0.0805,-0.08997 0.113652,-0.217834 0.113652,-0.378841 0,-0.326751 -0.09471,-0.535113 -0.28413,-0.615617 -0.194155,-0.08998 -0.435665,-0.132594 -0.719795,-0.132594 l -0.99919,0 z m -4.688143,-0.464081 c 0,-0.771888 0.146801,-1.491686 0.440402,-2.164129 0.284129,-0.667708 0.677176,-1.254911 1.174403,-1.747405 0.506698,-0.501964 1.0939,-0.885541 1.75687,-1.169672 0.677176,-0.279395 1.401707,-0.411989 2.168857,-0.411989 0.762416,0 1.482211,0.132594 2.149916,0.411989 0.677176,0.284131 1.259643,0.667708 1.761605,1.169672 0.506699,0.492494 0.899745,1.079697 1.198081,1.747405 0.28413,0.672443 0.426195,1.392241 0.426195,2.164129 0,0.762418 -0.142065,1.482216 -0.426195,2.149923 -0.298336,0.672443 -0.691382,1.259647 -1.198081,1.756876 -0.501962,0.511435 -1.084429,0.904483 -1.761605,1.198085 -0.667705,0.284131 -1.3875,0.435667 -2.149916,0.435667 -0.76715,0 -1.491681,-0.151536 -2.168857,-0.435667 -0.66297,-0.293602 -1.250172,-0.68665 -1.75687,-1.198085 -0.497227,-0.497229 -0.890274,-1.084433 -1.174403,-1.756876 -0.293601,-0.667707 -0.440402,-1.387505 -0.440402,-2.149923 m 1.671631,0 c 0,0.535113 0.08997,1.041813 0.288865,1.5201 0.194156,0.487758 0.464079,0.913954 0.805035,1.269118 0.340956,0.355163 0.752944,0.64403 1.221758,0.852392 0.478286,0.213098 0.99919,0.312544 1.553243,0.312544 0.554054,0 1.070223,-0.09945 1.539037,-0.312544 0.47355,-0.208362 0.880803,-0.497229 1.221758,-0.852392 0.345692,-0.355164 0.615615,-0.78136 0.805035,-1.269118 0.203626,-0.478287 0.298336,-0.984987 0.298336,-1.5201 0,-0.544584 -0.09471,-1.056019 -0.298336,-1.539042 -0.18942,-0.478286 -0.459343,-0.899747 -0.805035,-1.254911 -0.340955,-0.355163 -0.748208,-0.644029 -1.221758,-0.857128 -0.468814,-0.208362 -0.984983,-0.307808 -1.539037,-0.307808 -0.554053,0 -1.074957,0.09945 -1.553243,0.307808 -0.468814,0.213099 -0.880802,0.501965 -1.221758,0.857128 -0.340956,0.355164 -0.610879,0.776625 -0.805035,1.254911 -0.198891,0.483023 -0.288865,0.994458 -0.288865,1.539042"
         id="path5598"
         style="fill:#000;fill-opacity:1;fill-rule:nonzero;stroke:none" /></g></g></svg>