<?xml version="1.0" encoding="utf-8"?>
<!-- Generator: Adobe Illustrator 16.0.4, SVG Export Plug-In . SVG Version: 6.00 Build 0)  -->
<!DOCTYPE svg PUBLIC "-//W3C//DTD SVG 1.1//EN" "http://www.w3.org/Graphics/SVG/1.1/DTD/svg11.dtd">
<svg version="1.1" id="Layer_1" xmlns="http://www.w3.org/2000/svg" xmlns:xlink="http://www.w3.org/1999/xlink" x="0px" y="0px"
	 width="1000px" height="1000px" viewBox="0 0 1000 1000" enable-background="new 0 0 1000 1000" xml:space="preserve">
<g>
	<path fill="#005DAA" d="M791.834,109.867c-1.38-4.54-14.535-1.818-12.665,3.506c18.989,53.672,9.534,170.279-67.963,273.392
		c-122.56,163.083-318.955,201.973-382.772,157.89c-21.291-14.718-24.766-36.764-20.067-52.8
		c9.174-30.965,41.14-56.052,107.307-79.097c42.62-14.873,58.946-25.68,50.897-46.349c-5.21-13.374-5.084-21.539,0.396-27.613
		c19.947-21.984,155.182-28.09,175.317-57.993c16.786-24.831-44.052-50.1-24.266-68.889c14.149-13.433,78.341-11.021,89.817-29.993
		c13.321-21.954-34.43-38.454-23.938-54.173c7.736-11.619,48.642-15.094,50.709-33.724c2.084-18.634-32.174-25.459-28.324-39.332
		c3.855-13.806,30.784-41.018,8.398-51.6c-15.441-7.266-36.92-1.444-71.241,14.467c-30.278,13.992-23.417-22.17-58.55-3.446
		c-29.674,15.751-35.514,48.878-59.389,34.411c-25-15.092-48.172-12.273-75.731,38.232c-21.442,39.333-36.759,17.569-62.775,30.812
		c-17.176,8.674-41.338,37.952-63.333,124.188c-4.741,18.66-12.508,21.541-27.73,21.385c-15.055-0.125-23.859,17.755-30.012,49.288
		c-9.049,46.555-12.82,126.128,7.908,192.234c-5.011-71.3,34.883-150.561,111.219-233.914l2.683-4.351
		c2.719-4.514-5.215-11.964-2.24-16c3.443-4.762,22.073,0.031,26.772-4.637c4.694-4.693-5.267-16.911-2.037-20.947
		c3.636-4.479,21.573,0.969,26.11-3.006c4.548-3.944-6.59-16.564-3.563-20.289c3.491-4.262,22.87,2.503,27.241-1.378
		c4.371-3.947-7.205-15.129-4.318-18.445c3.225-3.727,22.651,2.537,25.892,0.095c3.193-2.503-8.153-15.595-5.434-18.726
		c2.959-3.379,18.025,2.911,23.396-0.031c0,0,32.831-25.017,50.142-37.327c3.319-2.344,10.57,0.125,5.121,5.171
		c-13.889,12.615-24.849,22.575-37.998,35.196c-4.913,3.19,7.861,11.301,5.496,13.714c-3.771,3.725-22.636-4.075-26.318-0.469
		c-3.694,3.6,9.049,17.28,5.762,20.604c-3.917,3.881-23.547-4.105-26.834-0.44c-3.282,3.634,9.367,16.691,5.84,20.385
		c-4.271,4.541-22.812-2.506-26.235,1.378c-3.808,4.29,7.981,19.385,4.298,23.422c-4.475,4.888-22.167-4.008-27.147,1.063
		c-4.996,5.04,9.539,18.911,5.986,23.203c-4.292,5.168-17.817-4.257-24.208,3.162c-0.032,0.094-3.506,3.257-3.559,3.319
		C304.985,395.155,256.417,499.06,304.861,566.352c9.33,12.055,20.333,22.454,33.346,30.622
		c79.597,50.063,254.101,4.256,380.475-163.958C793.647,333.221,819.669,201.925,791.834,109.867z"/>
	<g>
		<g>
			<path fill="#005DAA" d="M248.524,713.203c33.367,0,43.932,17.255,43.932,30.659c0,13.778-11.398,25.673-29.523,29.34
				c14.087,20.261,33.362,45.281,53.289,57.644c-6.684,0.531-23.448,1.193-24.454,1.193c-25.975,0.688-41.895-32.007-57.82-61.155
				c14.576-1.719,28.668-10.93,28.668-24.328c0-10.023-7.215-18.755-23.141-18.755c-2.35,0-6.012,0.183-8.206,0.656v84.979
				c0,5.699,0.678,12.436,8.555,17.41H194.73c7.856-4.975,8.377-11.711,8.377-17.41v-82.316c0-5.855-0.521-12.56-8.377-17.603
				C201.248,713.517,240.825,713.203,248.524,713.203z"/>
			<path fill="#005DAA" d="M351.965,713.517c-7.856,5.043-8.387,11.747-8.387,17.603v58.025c0,8.543,0.531,27.453,25.344,27.453
				c14.904,0,27.668-7.543,27.668-27.803v-57.676c0-5.855-0.688-12.56-8.564-17.603h45.083c-7.882,5.043-8.372,11.747-8.372,17.603
				v82.316c0,5.699,0.489,12.436,8.372,17.41h-35.54v-13.061c-10.049,12.248-24.448,16.098-38.212,16.098
				c-41.239,0-43.896-27.303-43.896-41.082v-61.682c0-5.855-0.677-12.56-8.569-17.603H351.965z"/>
			<path fill="#005DAA" d="M555.706,736.376c-7.861-5.538-18.619-9.581-33.523-9.581c-34.863,0-46.954,25.329-46.954,42.901
				c0,25.609,16.941,48.089,48.443,48.089c6.043,0,11.571-0.655,17.093-2v-31.158c0-1.688-0.656-3.407-2.016-4.912
				c-0.312-3.318-1.177-6.013-4.839-8.675h34.508c-0.13,2.381-0.5,5.194-0.5,8.174v38.765c0,3.318,0,6.043,0.37,9.518
				c-13.931,3.726-29.367,6.231-44.771,6.231c-47.125,0-78.627-24.673-78.627-60.025c0-35.039,27.991-62.999,77.294-62.999h3.683
				c11.706,0,17.942,2.006,29.841,3.688V736.376z"/>
			<path fill="#005DAA" d="M640.747,713.203c25.813-0.119,37.889,12.717,37.889,26.31c0,13.117-10.549,21.099-21.276,23.979
				c18.083,1.661,31.674,13.248,31.674,30.846c0,19.098-14.941,36.508-51.481,36.508h-54.612c7.861-4.975,8.351-11.711,8.351-17.41
				v-82.316c0-5.855-0.489-12.56-8.351-17.603L640.747,713.203z M619.455,759.61c0.85,0,6.893,0.225,7.58,0.225
				c14.717,0.119,21.933-7.711,21.933-17.51c0-10.174-7.877-14.873-18.77-14.873c-3.163,0-7.361,0.531-10.742,1.188V759.61z
				 M619.455,814.472c4.381,0.782,10.742,1.626,15.92,1.626c21.5,0,24.318-14.242,24.318-21.266c0-9.231-5.043-22.161-27.84-22.161
				c-0.812,0-7.199,0-12.398,0.37V814.472z"/>
			<path fill="#005DAA" d="M703.704,713.365c5.022,0,9.565,0.151,14.399,0.501c10.242,15.753,20.307,31.502,30.361,47.307
				l20.12-31.027c1.172-1.688,2.672-4.538,2.672-7.361c0-3.725-2.344-6.757-6.2-9.268h34.852l-43.724,65.229v34.69
				c0,5.699,0.485,12.436,8.34,17.41h-45.057c7.861-4.975,8.512-11.711,8.512-17.41v-35.07l-34.503-51.039
				c-3.693-5.574-8.877-10.58-13.899-13.81C687.622,713.74,695.827,713.365,703.704,713.365z"/>
		</g>
		<g>
			<path fill="#005DAA" d="M82.121,878.44c33.357,0,43.912,17.285,43.912,30.721c0,13.742-11.367,25.61-29.497,29.335
				c14.092,20.265,33.383,45.25,53.293,57.648c-6.699,0.501-23.438,1.193-24.454,1.193c-25.99,0.657-41.9-32.069-57.805-61.187
				c14.55-1.692,28.622-10.96,28.622-24.328c0-10.019-7.205-18.76-23.13-18.76c-2.329,0-6.007,0.157-8.2,0.661v84.984
				c0,5.694,0.672,12.461,8.564,17.436H28.337c7.856-4.975,8.361-11.741,8.361-17.436v-82.296c0-5.887-0.505-12.554-8.361-17.598
				C34.881,878.815,74.431,878.44,82.121,878.44z"/>
			<path fill="#005DAA" d="M292.457,937.152c0,33.008-26.866,61.998-74.945,61.998c-50.616,0-73.59-31.496-73.59-60.992
				c0-31.689,25.824-62.187,74.762-62.187C266.784,875.972,292.457,904.775,292.457,937.152z M174.251,934.459
				c0,31.033,20.463,48.636,44.964,48.636c19.223,0,42.869-11.09,42.869-41.655c0-26.767-16.41-49.407-43.896-49.407
				C197.064,892.032,174.251,904.274,174.251,934.459z"/>
			<path fill="#005DAA" d="M353.283,878.815l34.336,78.597l28.334-66.886c1.5-3.85,3.193-8.012,4.043-11.711h41.546
				c-4.694,2.193-7.372,6.012-7.372,12.592c0,1.281,0.172,2.818,0.349,4.318l10.878,80.598c1.031,8.267,2.178,13.972,9.736,19.821
				h-45.266c5.688-3.85,6.876-8.704,6.876-13.586c0-1.85,0-4.23-0.344-5.699l-8.549-69.043
				c-12.398,30.122-25.141,60.182-37.701,90.179c-13.586-2.881-18.286-8.924-23.323-20.136l-30.992-69.734l-10.06,68.047
				c-0.328,2.375-0.505,4.693-0.505,6.73c0,5.387,1.693,9.893,8.393,13.242h-36.04c4.522-3.692,8.049-8.893,9.893-19.437
				l12.248-78.477c0.479-2.001,0.812-4.162,0.812-6.512c0-4.355-1.474-8.898-7.548-12.904H353.283z"/>
			<path fill="#005DAA" d="M564.281,878.815c13.941,32.852,28.652,65.667,43.093,98.383c4.657,10.429,9.377,15.909,16.244,18.946
				h-51.476c5.715-2.317,7.236-6.229,7.236-9.893c0-3.157-3.042-9.929-4.699-14.092l-7.027-16.098H521.37
				c-2.85,7.268-6.34,14.473-9.377,21.609c-1.037,2.193-1.677,5.574-1.677,8.58c0,3.194,1.344,6.7,6.543,9.893h-38.556
				c8.388-6.229,12.086-12.398,15.759-20.947c10.883-25.454,21.781-51.131,32.68-76.809c1.344-3.163,3.36-7.325,3.36-11.024
				c0-2.537-1.016-6.042-6.194-8.549H564.281z M561.937,942.2l-17.442-40.926c-5.855,13.586-11.711,27.178-17.41,40.926H561.937z"/>
			<path fill="#005DAA" d="M663.153,878.815c2.193,3.162,4.366,5.548,5.871,7.393c22.104,24.646,44.588,49.068,66.537,73.715v-63.51
				c0-5.887-0.672-12.554-8.528-17.598h34.175c-7.856,5.044-8.549,11.711-8.549,17.598V1000
				c-20.104-4.381-31.346-14.904-41.551-26.339l-54.987-60.65v65.698c0,5.694,0.662,12.461,8.549,17.436h-34.185
				c7.882-4.975,8.543-11.741,8.543-17.436v-78.79c0-5.037-0.172-13.903-10.57-21.104H663.153z"/>
			<path fill="#005DAA" d="M819.591,878.815c-7.903,5.044-8.564,11.711-8.564,17.598v82.296c0,5.694,0.661,12.461,8.564,17.436
				h-45.11c7.882-4.975,8.393-11.741,8.393-17.436v-82.296c0-5.887-0.511-12.554-8.393-17.598H819.591z"/>
			<path fill="#005DAA" d="M912.326,878.815c13.925,32.852,28.663,65.667,43.083,98.383c4.667,10.429,9.397,15.909,16.254,18.946
				h-51.45c5.705-2.317,7.2-6.229,7.2-9.893c0-3.157-3.037-9.929-4.679-14.092l-7.048-16.098H869.41
				c-2.834,7.268-6.34,14.473-9.377,21.609c-0.974,2.193-1.662,5.574-1.662,8.58c0,3.194,1.349,6.7,6.543,9.893h-38.577
				c8.398-6.229,12.086-12.398,15.764-20.947c10.914-25.454,21.818-51.131,32.674-76.809c1.35-3.163,3.381-7.325,3.381-11.024
				c0-2.537-1.026-6.042-6.215-8.549H912.326z M909.976,942.2l-17.41-40.926c-5.856,13.586-11.748,27.178-17.447,40.926H909.976z"/>
			<path fill="#005DAA" d="M541.833,844.813h12.102l22.859,24.641h-6.345l-22.558-11.737l-22.594,11.737h-6.48L541.833,844.813z"/>
		</g>
	</g>
</g>
<g>
</g>
<g>
</g>
<g>
</g>
<g>
</g>
<g>
</g>
<g>
</g>
</svg>
