<svg xmlns="http://www.w3.org/2000/svg" width="150" height="93" viewBox="0 0 150 93">
    <g fill="none" fill-rule="evenodd">
        <g fill-rule="nonzero">
            <g>
                <path fill="#EC1C25" d="M150 .182c-7.796 17.873-15.593 35.745-23.435 53.709 2.234 1.094 4.377 2.188 6.702 3.373-4.24 3.192-8.343 6.292-12.492 9.393-.046-.046-.091-.046-.091-.092 1.915-4.24 3.83-8.48 5.745-12.766-1.05-.501-2.007-1.003-3.01-1.504-4.604-2.28-9.255-4.514-13.86-6.793-.456-.228-.775-.228-1.185.045-1.824 1.094-3.693 2.143-5.517 3.237-.182.137-.41.228-.684.365-2.006-3.237-3.966-6.474-5.972-9.666l.09-.09c.73.318 1.505.683 2.235 1.002 3.328 1.505 6.656 3.01 9.939 4.56.41.182.73.182 1.094-.092 1.824-1.14 3.648-2.234 5.471-3.328.137-.091.274-.182.502-.365-7.113-3.465-14.18-6.93-21.383-10.44 2.827-1.368 5.517-2.645 8.343-4.013-2.462-1.094-4.787-2.143-7.294-3.282C113.57 15.547 131.718 7.796 149.863 0c.046.046.091.091.137.182zM120.502 66.793c-.593 1.414-1.186 2.736-1.779 4.058-3.1 6.976-6.155 13.951-9.255 20.927-.182.456-.365.638-.912.456-9.392-2.963-18.738-5.927-28.13-8.89-7.66-2.417-15.32-4.833-22.934-7.25-9.574-3.009-19.149-6.018-28.769-9.027-.182-.046-.364-.137-.683-.228 30.911-.046 61.64-.046 92.462-.046z" transform="translate(-55 -170) translate(55 170)"/>
                <path fill="#1A0045" d="M27.538 50.7c0 4.148-2.918 7.02-7.158 7.02-4.195 0-7.113-2.918-7.113-7.067 0-4.148 2.964-6.975 7.204-6.975 4.15 0 7.067 2.872 7.067 7.021zm-3.465-.047c0-2.234-1.505-3.784-3.647-3.784-2.143 0-3.693 1.55-3.693 3.739 0 2.28 1.55 3.92 3.693 3.92 2.097 0 3.647-1.595 3.647-3.875zM37.158 39.119v-.776-9.528c0-.41-.182-.867-.365-1.231-.41-.684-.866-1.368-1.367-2.098h11.079v3.01h-5.882v2.325h1.322c.775.045 1.55.045 2.28.136 2.553.365 3.693 2.007 3.374 4.65-.274 2.098-1.778 3.375-4.104 3.466-2.051.091-4.148.046-6.337.046zm3.42-2.827c.82 0 1.55.045 2.234 0 .82-.046 1.322-.593 1.322-1.368 0-.73-.456-1.368-1.231-1.413-.775-.046-1.55 0-2.371 0 .046.957.046 1.823.046 2.78zM53.663 43.906h5.106v6.975c2.827-2.507 5.471-4.924 8.252-7.386v13.997H63.74v-6.93c-2.782 2.508-5.472 4.924-8.344 7.478v-.821-9.803c0-.592-.091-1.094-.456-1.55-.456-.638-.82-1.276-1.276-1.96zM49.696 39.574v-10.44c0-.73-.137-1.322-.593-1.87-.41-.547-.73-1.14-1.14-1.778h5.107v6.976c2.827-2.508 5.517-4.924 8.252-7.386v13.997h-3.328v-6.976c-2.781 2.553-5.471 4.924-8.298 7.477zM81.61 43.495v13.997h-3.282v-6.975c-2.826 2.553-5.516 4.924-8.343 7.477v-.82-9.849c0-.547-.091-1.003-.41-1.413-.456-.593-.821-1.277-1.277-1.96h5.06v6.975c2.782-2.553 5.472-4.97 8.253-7.432zM22.295 30.638v2.964h-4.879v2.507h5.745v2.964h-9.164c0-.228-.046-.456-.046-.684v-9.438c0-.547-.09-1.048-.456-1.504-.455-.638-.866-1.322-1.322-2.006h10.76v2.963h-5.562v2.234h4.924zM1.778 39.073v-1.778-8.435c0-.456-.182-.912-.41-1.276C1.003 26.9.502 26.216 0 25.44h5.608c.775 0 1.55 0 2.28.137 2.644.41 4.285 2.462 4.194 5.106-.046 2.553-1.87 4.468-4.468 4.787-.775.091-1.55.091-2.462.137v3.51c-1.14-.045-2.188-.045-3.374-.045zm3.42-6.429c1.14-.045 2.37.274 3.1-.957.501-.82.501-1.733-.091-2.553-.775-1.049-1.87-.82-3.01-.82v4.33zM5.198 53.89v3.557h-3.42v-.73-9.665c0-.32-.137-.684-.319-1.003-.41-.73-.912-1.368-1.368-2.098.091-.045.137-.09.183-.09 2.37 0 4.741-.046 7.112 0 2.097.045 3.83 1.413 4.468 3.327.684 1.96.046 4.195-1.459 5.472-.957.775-2.052 1.14-3.237 1.185-.638.046-1.277.046-1.96.046zm.045-7.157v4.285c1.14 0 2.325.228 3.055-.912.501-.82.501-1.687 0-2.462-.775-1.14-1.915-.911-3.055-.911zM52.568 53.298v3.1c0 .137-.136.32-.228.41-2.735 1.368-7.158 1.46-9.528-1.686-1.779-2.371-1.915-5.882-.274-8.435 1.459-2.325 4.468-3.51 7.523-2.872.73.136 1.413.41 2.143.683.136.046.364.274.364.456.046 1.095 0 2.189 0 3.329-1.048-.41-2.051-.775-3.054-1.14-1.505-.547-2.964-.091-3.876 1.185-1.276 1.778-.957 5.426 2.326 6.11.364.09.82.045 1.185-.046 1.049-.32 2.188-.684 3.42-1.094zM39.985 53.298v3.191c0 .137-.183.274-.32.365-2.872 1.231-5.698 1.322-8.297-.593-2.189-1.595-3.055-4.741-2.28-7.705.684-2.644 2.827-4.468 5.608-4.833 1.641-.228 3.192.046 4.696.639.456.182.593.456.593.912-.046.957 0 1.914 0 2.963-1.003-.365-1.96-.73-2.918-1.094-2.189-.775-4.15.273-4.65 2.553-.502 2.188.774 4.24 2.872 4.696.41.091.866.046 1.23-.045 1.14-.274 2.28-.639 3.466-1.05zM29.68 39.073h-3.373c0-.228-.046-.456-.046-.638v-9.53c0-.455-.182-.911-.364-1.276-.365-.684-.867-1.368-1.368-2.097h9.666v2.963H29.68v10.578z" transform="translate(-55 -170) translate(55 170)"/>
            </g>
        </g>
    </g>
</svg>
