<?xml version="1.0" encoding="UTF-8"?>
<svg width="177px" height="149px" viewBox="0 0 177 149" version="1.1" xmlns="http://www.w3.org/2000/svg" xmlns:xlink="http://www.w3.org/1999/xlink">
    <!-- Generator: Sketch 51.3 (57544) - http://www.bohemiancoding.com/sketch -->
    <title>Group@1x</title>
    <desc>Created with Sketch.</desc>
    <defs></defs>
    <g id="Symbols" stroke="none" stroke-width="1" fill="none" fill-rule="evenodd">
        <g id="Large_Footer" transform="translate(-151.000000, -149.000000)">
            <g id="Group-21" transform="translate(0.000000, 0.226562)">
                <g id="Group" transform="translate(151.000000, 149.274644)">
                    <path d="M169.387629,26.2354811 C165.980862,23.9648899 163.370768,21.1086047 162.283595,20.4508727 C161.196423,19.7904998 159.655895,18.8394807 155.829518,18.8394807 C155.829518,18.8394807 153.800422,15.7622398 152.493175,14.3723904 C151.188861,12.9810737 149.156832,11.2972035 146.184347,10.1253754 C143.211862,8.95369403 139.005487,6.90405853 136.54211,4.63346734 C134.077266,2.36375644 132.552877,0.0933119669 126.389299,0.0195133516 C126.389299,0.0195133516 128.565111,1.48448189 129.869424,3.24156383 C131.173738,4.99864577 132.698127,8.00120773 134.221048,9.75828967 C135.74397,11.5166921 137.846424,13.4200508 139.948877,14.885166 C142.051331,16.3495477 143.720969,18.0334179 143.283753,18.766269 C143.283753,18.766269 136.251611,17.7408643 129.869424,19.205246 C129.869424,19.205246 132.770018,27.9199382 141.399908,30.5562947 C141.399908,30.5562947 141.68894,30.6286261 141.109408,31.5816993 C140.529876,32.5327184 133.351017,42.8582157 123.778764,49.0837085 C114.206218,55.30568 107.099544,59.1869296 91.8003424,62.4835123 C91.8003424,62.4835123 75.9202888,64.8989131 72.368272,65.8519863 C68.8134675,66.8043259 66.2033733,67.9016218 62.0696239,72.5895211 C62.0696239,72.5895211 60.8364681,72.8822214 58.2988521,72.1486367 C55.7613828,71.4171061 54.4563357,71.4909048 51.2659761,72.00236 C48.0735624,72.5144021 45.9741899,73.174775 41.3304524,72.3687121 C36.6908229,71.5641165 33.5845321,70.0990012 32.8468394,69.6587037 C32.2671608,69.2197267 33.7902292,73.3210517 34.8785754,74.8586451 C35.9654544,76.3962386 38.3581141,79.5444904 42.49113,79.9102557 C46.625613,80.2780751 49.23424,78.7398948 50.9029984,78.3016513 C52.5710232,77.8606202 54.0216134,77.3485781 56.196105,78.0808423 C57.9228166,78.6612545 58.3727974,78.666683 58.0083526,79.4720123 C57.6459617,80.2780751 56.7772508,83.792239 56.41486,87.893564 C56.0505619,91.9941554 55.7613828,94.7773756 51.4101988,97.1920428 C47.0590149,99.6094976 40.9695287,101.439791 36.6183447,100.196806 C36.6183447,100.196806 33.4279851,105.908202 30.3106905,108.397402 C27.190755,110.885721 21.8264907,114.767851 18.0549853,116.377335 C14.2834799,117.991222 13.4146223,118.429905 12.5431237,118.20983 L11.0923867,120.259465 L7.83101609,120.186107 L0.000293433858,131.390879 C0.000293433858,131.390879 3.40735396,132.709864 7.75707076,131.244162 C12.1082547,129.779927 26.0319847,120.991583 31.8309714,117.184278 C37.6342128,113.375507 44.5483948,108.926023 51.0844872,107.325048 C58.1877874,106.155273 68.7499391,102.907547 73.8250244,100.856592 C78.9021637,98.8062225 90.004087,92.3599207 95.0631802,88.7713714 C95.0631802,88.7713714 95.9258757,88.0922187 97.3123507,88.4056061 C99.3426196,88.6264151 102.170001,89.2116689 103.258348,89.0653921 C104.355644,89.1052991 113.989517,84.9639204 116.454655,83.7190272 C118.92038,82.4734005 130.231815,76.17675 132.190486,75.2258776 C134.149157,74.2728044 135.381579,73.6862302 134.873939,74.4928798 C134.364831,75.2976222 130.086565,79.8377776 127.91222,81.4485827 C125.736408,83.0592412 123.996932,84.8908553 123.052809,84.1580043 C122.110886,83.4264737 122.522134,82.8902233 120.006672,84.3773461 C118.050202,85.5506414 108.98691,90.6760506 108.98691,90.6760506 C108.98691,90.6760506 116.237954,93.6787592 121.31304,93.0935054 C126.389299,92.5069311 128.882019,90.8920179 131.854504,88.8423824 C134.826989,86.7914264 139.876986,82.3277106 141.182767,80.7163185 C142.48708,79.1056601 145.224818,75.5819596 147.036772,73.020282 C148.744557,70.4060798 153.556872,61.4091043 153.919263,60.4560311 C153.919263,60.4560311 153.816561,60.4291819 142.608855,60.4291819 C142.608855,60.4291819 148.505408,52.1566946 150.317363,48.7158891 C152.132251,45.2742034 155.540485,37.9521483 155.756159,37.145352 C155.974767,36.3414899 156.120017,36.6340435 158.295829,36.7795867 C160.468707,36.926597 165.54658,36.5602448 167.360001,36.1950664 C169.550485,35.8341428 172.69903,34.9805437 174.175002,34.655419 C174.175002,34.655419 175.526265,33.7217124 176.060315,32.6789952 L176.060315,29.6038084 C176.060315,29.6038084 172.798798,28.5044584 169.387629,26.2354811" id="Fill-3" fill="#000000"></path>
                    <path d="M154.68806,23.6980118 C154.68806,23.6980118 154.692461,23.6972782 154.702732,23.6965447 C153.835634,22.6959352 149.542697,17.6297996 149.542697,17.6297996 C148.185566,15.6153762 145.352462,12.6361422 144.896172,12.1598991 C144.610074,11.9998309 144.300501,11.8349211 143.93811,11.6637024 C140.529876,10.053044 137.774532,8.07456619 136.829675,7.342302 C136.009528,6.70525709 132.127398,3.30450539 131.078372,2.18652239 C132.111259,3.66880353 136.135704,9.7204367 140.962691,12.9087423 C146.621563,16.642248 147.48866,19.7904998 147.708736,21.7683908 C147.708736,21.7683908 141.109408,19.4254681 133.351017,21.0361266 C133.351017,21.0361266 133.276191,25.1368647 144.806675,30.043519 C144.806675,30.043519 138.643096,40.6623035 130.666097,47.3245725 C122.690565,53.9890423 114.715619,58.9675878 101.95198,62.7769462 C89.1503412,65.9777227 79.909082,66.7312609 76.3550111,67.5360032 C72.8015271,68.3398653 67.2903991,69.3661502 63.6659041,75.0781337 C63.6659041,75.0781337 62.2870584,75.2976222 58.8785307,74.4930266 C55.6115848,73.7214422 53.7393301,73.222458 49.756699,74.3432286 C49.6531169,74.4004482 47.9030773,75.3693668 45.7360683,76.4018138 C43.6381629,77.4666853 41.8894439,77.5764295 41.8086028,77.5812712 C42.8617369,77.8745583 45.014221,78.2478062 47.5676824,77.4225235 C51.1934979,76.2499618 50.9029984,75.8111314 53.4419349,75.8111314 C55.9780837,75.8111314 56.41486,75.6648547 61.4892117,78.0077773 C61.4892117,78.0077773 59.7494424,81.5963267 59.1704974,86.2829055 C58.5893516,90.9687508 58.950422,95.6553297 53.1512886,99.1706673 C47.3509815,102.685418 39.6631612,103.125716 37.8509137,102.904907 C37.8509137,102.904907 35.6749549,108.543091 26.0319847,114.255809 C16.3876941,119.967499 14.4291698,119.747423 13.8480241,120.114216 C13.2683455,120.481008 12.7611451,122.090493 12.3264228,122.457285 L8.77293877,122.238677 C8.77293877,122.238677 4.13272246,128.38905 4.27753207,128.827734 C4.42175481,129.267885 7.75707076,129.63321 15.4435707,125.021897 C23.131391,120.406182 29.9462457,115.28136 34.3699078,112.718215 C38.7928364,110.155951 44.0141984,107.298785 47.2039712,106.128424 C50.3943308,104.955863 59.0201125,103.323783 62.1759936,102.246588 C62.1793681,102.244534 65.8886655,100.506085 69.3855168,94.6469442 L69.3834628,94.6517859 C69.3834628,94.6517859 72.7711567,86.1392697 74.4792352,82.1435808 C76.1858465,78.1471584 77.3597286,77.9822486 81.2009246,78.1954283 C85.0428541,78.408608 91.0177543,77.4487858 98.1666834,75.847664 C105.316199,74.2472757 113.158659,69.0991254 114.385653,68.2722288 C115.612647,67.444892 116.493242,67.3157811 116.893632,67.3157811 C117.293876,67.3157811 118.814157,67.6580717 118.814157,67.6580717 L131.31752,70.2991231 L130.357991,70.3771765 C130.525249,70.3688137 130.689572,70.3613311 130.859763,70.3522347 L139.46031,70.0320983 C139.46031,70.0320983 139.45004,70.0362064 139.428032,70.0445693 C139.457375,70.0376736 139.485252,70.0320983 139.514595,70.0259362 C139.514595,70.0259362 137.123109,79.8379243 123.562063,87.2331911 C123.562063,87.2331911 122.255109,86.1206366 121.748495,85.9046693 C121.239241,85.9784679 114.352495,89.723711 114.859109,90.0177317 C115.366309,90.3102852 121.167496,92.0673672 126.387831,89.6506459 C131.609487,87.2331911 138.643096,82.035157 143.138503,74.9318569 C147.635377,67.8285568 148.82085,65.9846184 150.345239,62.616878 C150.345239,62.616878 143.515566,62.7776798 138.789813,62.7037344 C137.582333,62.7603672 136.760718,62.7935252 136.147442,62.7927916 C136.263348,62.6955183 136.471686,62.5168171 136.751915,62.2634369 C136.367517,62.6064611 136.15331,62.7776798 136.15331,62.7776798 L135.726364,62.7776798 C135.726364,62.7776798 131.031422,62.5099214 130.865632,59.7887625 C130.701309,57.0683372 133.915877,55.1077589 138.047426,50.5053955 C142.178974,45.9043526 149.503084,35.4532656 149.503084,35.4532656 C149.503084,35.4532656 149.080539,36.189051 148.370429,37.3918364 C150.720834,33.518216 151.785999,30.9524304 151.785999,30.9524304 C152.905449,28.1250484 154.253778,27.7958157 155.213306,27.688859 C156.083338,27.5915857 157.544638,27.601269 157.807262,27.6040566 L154.68806,23.6980118 Z M137.790671,22.9808595 C137.790671,22.9808595 146.841638,23.3700995 147.14681,23.6033794 C147.456382,23.8366593 149.687947,27.7661788 149.687947,27.7661788 C149.687947,27.7661788 142.914026,27.8787107 137.790671,22.9808595 Z" id="Fill-4" fill="#FFC425"></path>
                    <path d="M174.481641,30.3125979 C173.481031,29.8805165 169.522609,28.2249627 167.14286,26.4976643 C164.314158,24.4480288 162.933551,22.3997137 160.465773,21.5902764 C157.999461,20.7855341 155.316008,20.8607998 154.95215,20.9318108 C154.95215,20.9318108 151.426543,14.4337181 144.831617,12.0928494 C144.831617,12.0928494 144.836018,12.1086949 144.846288,12.1329032 C144.862427,12.1418529 144.878566,12.1508026 144.894705,12.1597524 C145.352462,12.6359955 148.185566,15.6152295 149.542697,17.6296529 C149.542697,17.6296529 153.835634,22.6965221 154.702732,23.6963979 C154.856784,23.6805525 156.112681,23.558484 157.240934,23.6978651 C158.444013,23.8469295 160.08871,25.2181459 162.164755,26.9254908 C164.139564,28.5493538 168.568949,30.3739255 169.016435,30.556148 C169.022304,30.5589356 169.020837,30.558202 169.026705,30.560256 C169.02964,30.5617232 169.038443,30.5650977 169.041377,30.5665649 C169.048713,30.5692058 169.063385,30.574781 169.063385,30.574781 C168.596825,30.7376368 168.00849,30.7506946 167.3556,30.6645718 C164.377246,30.2704901 160.016819,27.7853987 159.369797,27.6894459 C158.690498,27.5886513 158.02587,27.5983347 157.851277,27.6031763 C157.851277,27.6031763 157.851277,27.6039099 157.851277,27.6044968 C157.851277,27.6044968 157.838072,27.6044968 157.817532,27.6039099 C157.811663,27.6044968 157.807262,27.6044968 157.807262,27.6044968 L157.807262,27.6039099 C157.544638,27.6018559 156.083338,27.5921726 155.213306,27.6894459 C154.253778,27.7964025 152.905449,28.1249017 151.784532,30.9522837 C151.784532,30.9522837 150.584387,33.8465685 147.917074,38.1280619 C146.410291,40.6759481 142.299282,47.3790045 139.181548,51.0394451 C136.066747,54.6997391 133.34955,58.894963 134.00244,60.7983217 C134.65533,62.7050549 135.727831,62.7775331 135.727831,62.7775331 L136.15331,62.7775331 C136.15331,62.7775331 136.154777,62.775479 136.156245,62.7747454 C136.173851,62.760954 136.379254,62.594577 136.724039,62.2874985 C138.924793,60.3282406 147.184956,52.2491262 154.523737,35.5352804 C154.523737,35.5352804 154.658716,35.1950438 152.389006,31.6174982 C152.400743,31.5837533 152.413947,31.5492748 152.425685,31.5153832 C153.173941,32.2593848 155.204503,34.1599559 156.77144,34.5104626 C156.924026,34.5449411 157.070743,34.5753115 157.211591,34.6036279 C157.642939,34.7161598 158.457218,34.894861 159.582537,35.0066593 C159.61188,34.9867058 159.647092,34.9639647 159.677903,34.9438644 C159.647092,34.9645515 159.610413,34.9880262 159.579602,35.0081265 C161.015961,35.1516156 162.962895,35.1827196 165.282489,34.8203288 C170.404377,34.0205748 173.178794,33.0598723 173.178794,33.0598723 C173.178794,33.0598723 172.609533,32.0503132 171.026457,31.30147 C171.026457,31.30147 171.019121,31.2973619 171.017654,31.2966283 C173.167057,31.9597888 174.433224,30.5837307 174.481641,30.3125979 M136.83221,62.2634369 C136.809585,62.2832336 136.801101,62.2900211 136.778476,62.3098178 C136.744539,62.33923 136.696461,62.3844796 136.665352,62.4136091 C136.721914,62.3629861 136.77282,62.3177365 136.83221,62.2634369 M139.461777,70.0326852 L130.859763,70.3528215 C130.689572,70.3611844 130.525249,70.3694005 130.357991,70.3770298 L119.507248,71.2596789 C101.68789,81.6099714 84.2417796,81.7700395 80.5607986,81.9833659 C76.8796708,82.1965456 76.4525779,83.7438224 76.0260718,84.1703285 C75.8935864,84.3035475 75.1993219,85.3697394 74.3062559,86.7747007 C73.2620715,88.4931961 71.9978117,90.5786305 70.4933764,92.8615459 C69.8322699,93.9264174 69.3836095,94.6517859 69.3836095,94.6517859 L69.3858103,94.6469442 C65.8869049,100.507992 62.1761404,102.246441 62.1761404,102.246441 C71.3111765,99.7606161 81.6463572,94.1196436 84.5488582,92.4329858 C87.4501854,90.7505828 93.7576929,85.9900586 94.2670941,85.6242933 C94.7742945,85.2579411 102.45874,86.2827588 103.765108,86.2827588 C105.072796,86.2827588 118.922727,79.2512033 123.852856,76.6170475 C128.783719,73.9808378 139.461777,70.0326852 139.461777,70.0326852 M45.7356282,76.4016671 C47.970127,75.3382628 49.7665291,74.3382402 49.7665291,74.3382402 L47.834854,74.6315273 C47.834854,74.6315273 42.1588161,75.8372471 35.9670683,72.9573405 C35.9670683,72.9573405 36.2797221,74.3865101 37.9863334,75.7515644 C38.8496158,76.4424544 40.1118215,77.0979856 41.801267,77.5818581 C41.801267,77.5818581 43.5879857,77.4928009 45.7356282,76.4016671" id="Fill-5" fill="#FFFFFF"></path>
                    <path d="M45.6047567,135.757174 C45.2139028,135.438799 44.8664771,135.171774 44.5624796,134.954633 C44.2584821,134.737492 43.9653417,134.562899 43.6830583,134.432321 C43.4007749,134.30321 43.1218661,134.207844 42.8470653,134.150624 C42.571971,134.093405 42.2824985,134.064061 41.978501,134.064061 C41.4281658,134.064061 40.9938837,134.182902 40.6756547,134.42205 C40.3571323,134.661199 40.1979444,134.982509 40.1979444,135.388915 C40.1979444,135.606056 40.2268476,135.796788 40.2848008,135.964045 C40.3426073,136.129835 40.4618881,136.3191 40.6430835,136.528906 C40.8239855,136.738711 41.0807401,136.98813 41.4139343,137.277162 C41.746835,137.567661 42.1956421,137.935921 42.7602088,138.384875 C43.2087225,138.747266 43.5887193,139.083247 43.9001994,139.394287 C44.211386,139.705327 44.4572836,140.020768 44.638479,140.339144 C44.8193809,140.65752 44.9496656,140.987633 45.0293329,141.326549 C45.1087067,141.666932 45.1487604,142.039593 45.1487604,142.445999 C45.1487604,143.213329 44.9967617,143.919037 44.6927642,144.563125 C44.3887667,145.207212 43.9653417,145.764736 43.4224891,146.23423 C42.8796364,146.705192 42.2315877,147.074918 41.4790766,147.341943 C40.726272,147.608968 39.9083252,147.743948 39.0253827,147.743948 C37.3605857,147.743948 35.912783,147.453448 34.6825616,146.875383 L34.2699936,143.769386 C34.7477039,144.131777 35.181986,144.435481 35.5728399,144.681965 C35.9636938,144.92845 36.3328336,145.126518 36.6802593,145.279103 C37.027685,145.431689 37.3676281,145.543194 37.7008222,145.615085 C38.033723,145.688443 38.3739595,145.723655 38.7213852,145.723655 C39.4162366,145.723655 39.9771354,145.554931 40.4042284,145.214548 C40.8310279,144.874164 41.0447945,144.428145 41.0447945,143.877957 C41.0447945,143.647611 41.0155978,143.437806 40.9579381,143.248541 C40.8999849,143.060743 40.7875997,142.858274 40.6213694,142.641133 C40.4548457,142.423992 40.2159906,142.174573 39.904804,141.891409 C39.5934706,141.609713 39.1845706,141.259059 38.677957,140.837982 C38.2002467,140.447715 37.7985357,140.08239 37.4728241,139.742006 C37.1471126,139.401623 36.8865433,139.072977 36.6911163,138.754601 C36.4956894,138.436226 36.3579222,138.113448 36.2785483,137.787737 C36.198881,137.462025 36.1591208,137.111372 36.1591208,136.734309 C36.1591208,136.025666 36.3002624,135.381579 36.5825458,134.802047 C36.8648292,134.222515 37.2665401,133.726612 37.7876787,133.314338 C38.3088172,132.902063 38.9419008,132.586622 39.6876629,132.369481 C40.4331316,132.15234 41.2619356,132.043769 42.173928,132.043769 C42.8542544,132.043769 43.4731064,132.102456 44.030484,132.218362 C44.5875682,132.334269 45.1704745,132.51473 45.7784695,132.761215 L45.6047567,135.757174" id="Fill-6" fill="#FFC425"></path>
                    <path d="M54.935073,140.817441 L54.2185076,135.843737 L51.417388,140.817441 L54.935073,140.817441 Z M59.7773186,145.116247 C59.8349783,145.478638 59.8892636,145.772072 59.9401744,145.995082 C59.990645,146.219559 60.0487449,146.416159 60.1138872,146.58195 C60.1790295,146.74774 60.2584034,146.892989 60.3527424,147.016232 C60.4466412,147.139474 60.5732579,147.280322 60.7327392,147.440244 L54.6962179,147.440244 C55.0870718,147.149744 55.347641,146.917931 55.4779257,146.744805 C55.6082103,146.571679 55.6733526,146.367743 55.6733526,146.137397 C55.6733526,145.948132 55.6516385,145.730991 55.6082103,145.485974 L55.5647821,145.116247 L55.2607846,142.944837 L50.2448263,142.944837 L49.376262,144.486832 C49.0288363,145.09424 48.7861665,145.55053 48.6488395,145.854234 C48.5110723,146.157938 48.4425555,146.397086 48.4425555,146.571679 C48.4425555,146.687586 48.4751267,146.799091 48.540269,146.907661 C48.6054113,147.016232 48.7535954,147.193759 48.9854081,147.440244 L44.425446,147.440244 C44.657112,147.294994 44.8453498,147.164416 44.9900127,147.048509 C45.1348223,146.932603 45.2868211,146.769747 45.4460089,146.559942 C45.6054902,146.350137 45.7934346,146.06844 46.0105757,145.713385 C46.2277167,145.35833 46.5100001,144.877099 46.8574258,144.269691 L51.9602406,135.518026 C52.2208099,135.070539 52.3978972,134.718419 52.4922362,134.466066 C52.586135,134.212245 52.6333779,133.955491 52.6333779,133.694334 C52.6333779,133.405302 52.575278,133.158818 52.459665,132.956348 C52.3436119,132.753879 52.1556675,132.55141 51.8950983,132.34894 L57.5190516,132.34894 L59.7773186,145.116247 Z" id="Fill-7" fill="#FFC425"></path>
                    <path d="M73.6957668,139.406025 C73.7968547,139.433901 73.8801899,139.455908 73.945479,139.47058 C74.0106213,139.485252 74.1008522,139.492588 74.2167586,139.492588 C74.6219907,139.492588 74.9947985,139.401623 75.335035,139.221161 C75.6751249,139.039232 75.9682653,138.786879 76.214603,138.461167 C76.4605006,138.135456 76.6559275,137.751058 76.8008839,137.30944 C76.9454,136.867822 77.0180249,136.38659 77.0180249,135.865745 C77.0180249,134.794711 76.3589725,134.259195 75.0418946,134.259195 L74.8464676,134.259195 L73.6957668,139.406025 Z M66.8123953,147.440244 C67.0728179,147.236307 67.2971481,147.038239 67.4853859,146.843106 C67.673477,146.646505 67.8329583,146.42643 67.9630962,146.179945 C68.0935275,145.933461 68.2091405,145.64883 68.3105219,145.323118 C68.4116098,144.997407 68.513138,144.595402 68.6146661,144.117105 L70.4819324,135.670611 C70.6700235,134.860734 70.7643625,134.229851 70.7643625,133.780897 C70.7643625,133.550552 70.7243088,133.343681 70.6449349,133.163219 C70.5651209,132.98129 70.4022651,132.709864 70.1563676,132.34894 L76.0624575,132.34894 C77.0322564,132.34894 77.8214468,132.391488 78.4294418,132.478051 C79.03729,132.566081 79.5293786,132.702528 79.9060009,132.891793 C80.3690396,133.13681 80.7381794,133.524143 81.0134203,134.052324 C81.2882211,134.581972 81.4259883,135.171774 81.4259883,135.823197 C81.4259883,136.459949 81.3065607,137.079094 81.0677056,137.679166 C80.8288504,138.279238 80.5210383,138.761937 80.1448561,139.122861 C79.811662,139.426565 79.449858,139.643706 79.0591508,139.774284 C78.6682969,139.904862 78.1470117,139.976753 77.4955885,139.991425 L78.2991571,141.728554 C78.7621958,142.727696 79.1568643,143.552245 79.4824292,144.203668 C79.8082875,144.855091 80.0976132,145.39501 80.3509934,145.821956 C80.6040801,146.248902 80.8288504,146.58195 81.0241307,146.821098 C81.2195576,147.060247 81.4259883,147.26565 81.6431294,147.440244 C81.3099352,147.482791 81.0421768,147.512135 80.8395608,147.526807 C80.636798,147.541478 80.4630851,147.554683 80.3185689,147.569354 C80.1736126,147.584026 80.0396601,147.591362 79.9167113,147.591362 C79.7936158,147.591362 79.6379491,147.591362 79.449858,147.591362 C78.7117251,147.591362 78.0999155,147.529741 77.6150161,147.406499 C77.1299699,147.284724 76.728259,147.077853 76.41003,146.78882 C76.2650736,146.658242 76.1277466,146.505657 75.9974619,146.332531 C75.8670306,146.157938 75.733078,145.940797 75.5956043,145.681108 C75.4579838,145.419951 75.309653,145.098641 75.1506118,144.714243 C74.9911305,144.331312 74.8030394,143.864752 74.5858984,143.314564 L73.4786257,140.425707 L72.6534897,144.117105 C72.5519616,144.595402 72.4796301,144.975399 72.4363486,145.257096 C72.3929204,145.540259 72.3712063,145.789678 72.3712063,146.006819 C72.3712063,146.253304 72.4108199,146.470445 72.4906339,146.658242 C72.5700078,146.84604 72.7328636,147.107196 72.9790546,147.440244 L66.8123953,147.440244 Z" id="Fill-8" fill="#FFC425"></path>
                    <path d="M90.7061275,146.006819 C90.3441769,146.339867 90.0074615,146.618629 89.6965683,146.843106 C89.3850883,147.067583 89.0702338,147.243643 88.751858,147.374221 C88.4334823,147.504799 88.0895778,147.598698 87.720438,147.657385 C87.3514449,147.714604 86.9350623,147.743948 86.4720237,147.743948 C85.8782603,147.743948 85.3754613,147.682326 84.9628933,147.559084 C84.5501786,147.435842 84.18456,147.243643 83.8661843,146.983954 C83.5331369,146.708126 83.2762355,146.37948 83.0953335,145.995082 C82.9142849,145.612151 82.8239072,145.210146 82.8239072,144.790536 C82.8239072,144.659958 82.8274284,144.541117 82.834911,144.432547 C82.8419534,144.323976 82.8566251,144.200734 82.8781925,144.06282 C82.8999066,143.926373 82.9288098,143.766452 82.9651956,143.58599 C83.0011413,143.404061 83.0482374,143.17665 83.1063373,142.900822 L84.7130344,135.670611 C84.9011255,134.816719 84.9954645,134.187303 84.9954645,133.780897 C84.9954645,133.53588 84.9554108,133.321673 84.8760369,133.141212 C84.7962229,132.96075 84.6333671,132.695192 84.3874695,132.34894 L90.6411319,132.34894 C90.3805627,132.55141 90.155939,132.749477 89.9679947,132.946078 C89.7797568,133.141212 89.6204222,133.361287 89.4902843,133.607771 C89.359853,133.854256 89.2437999,134.140354 89.1427119,134.466066 C89.0411838,134.791777 88.9398024,135.192314 88.8388612,135.670611 L87.579443,141.294271 C87.5066715,141.656662 87.4416759,141.967702 87.3840161,142.228858 C87.3259162,142.488547 87.2826347,142.72036 87.2537315,142.922829 C87.2245348,143.125299 87.202674,143.302826 87.1885891,143.455412 C87.1740642,143.60653 87.166875,143.748846 87.166875,143.877957 C87.166875,144.341582 87.3112445,144.703973 87.6010104,144.963662 C87.8904829,145.224818 88.2883792,145.355396 88.795433,145.355396 C89.2873748,145.355396 89.7251781,145.246825 90.1089896,145.029684 C90.492361,144.812543 90.7855014,144.508839 90.9884109,144.117105 C91.1188422,143.872088 91.2307873,143.59626 91.3251262,143.292556 C91.4190251,142.988852 91.5239277,142.57511 91.6399808,142.054265 L93.0512509,135.670611 C93.1524856,135.251001 93.2249638,134.881274 93.2685387,134.562899 C93.3118202,134.244523 93.3335343,133.984834 93.3335343,133.780897 C93.3335343,133.53588 93.2934806,133.318739 93.2141067,133.129474 C93.1344394,132.941677 92.9715836,132.681988 92.7255393,132.34894 L98.9793484,132.34894 C98.7187792,132.55141 98.4941556,132.749477 98.3062112,132.946078 C98.1179733,133.141212 97.9586388,133.361287 97.8285008,133.607771 C97.6980695,133.854256 97.5820164,134.140354 97.4809284,134.466066 C97.3794003,134.791777 97.2780189,135.192314 97.1770777,135.670611 L95.3096646,144.117105 C95.1214268,144.92845 95.0273812,145.557865 95.0273812,146.006819 C95.0273812,146.253304 95.0669948,146.470445 95.1466621,146.658242 C95.2263294,146.84604 95.3890385,147.107196 95.6352295,147.440244 L90.1851357,147.440244 L90.7061275,146.006819" id="Fill-9" fill="#FFC425"></path>
                    <path d="M111.797126,136.060879 C111.348172,135.438799 110.819991,134.975173 110.21185,134.671469 C109.604002,134.367765 108.887436,134.21518 108.0623,134.21518 C107.280592,134.21518 106.56388,134.375101 105.912604,134.693477 C105.261034,135.011852 104.699988,135.463741 104.22976,136.050608 C103.759093,136.637476 103.397142,137.338783 103.143908,138.157463 C102.890528,138.974677 102.764058,139.882855 102.764058,140.881997 C102.764058,142.372641 103.071284,143.541975 103.686908,144.388531 C104.301945,145.235088 105.15261,145.6591 106.238169,145.6591 C106.353928,145.6591 106.455456,145.656166 106.542313,145.64883 C106.629022,145.641494 106.730257,145.622421 106.84631,145.594545 L107.389016,143.183985 C107.476019,142.749703 107.544536,142.416656 107.5953,142.184843 C107.645917,141.95303 107.682157,141.768167 107.704017,141.63172 C107.725731,141.493806 107.739963,141.385236 107.747299,141.306009 C107.754488,141.225314 107.758303,141.128481 107.758303,141.012575 C107.758303,140.76609 107.704017,140.546015 107.5953,140.349414 C107.48673,140.154281 107.287635,139.92687 106.998309,139.665713 L112.600548,139.665713 C112.470264,139.882855 112.365067,140.064784 112.285547,140.208566 C112.20588,140.353816 112.136923,140.51227 112.07941,140.686863 C112.02131,140.859989 111.959835,141.074196 111.89484,141.326549 C111.829697,141.580369 111.753551,141.917818 111.666695,142.337429 L111.188985,144.464824 C111.015418,145.276169 110.928415,145.91292 110.928415,146.375079 C110.928415,146.535 110.957319,146.730134 111.015418,146.961946 C110.305895,147.208431 109.487948,147.40063 108.561578,147.537077 C107.63506,147.674991 106.67964,147.743948 105.695316,147.743948 C103.364424,147.743948 101.562153,147.171752 100.28865,146.028827 C99.0145605,144.884435 98.3776623,143.255877 98.3776623,141.143153 C98.3776623,139.651042 98.699706,138.258698 99.34394,136.963188 C99.9880273,135.667677 100.881974,134.606914 102.025632,133.780897 C103.646707,132.623301 105.659077,132.043769 108.0623,132.043769 C108.858239,132.043769 109.582141,132.09512 110.233711,132.196355 C110.884987,132.297589 111.558124,132.464847 112.252976,132.695192 L111.797126,136.060879" id="Fill-10" fill="#FFC425"></path>
                    <path d="M119.424793,138.44943 C119.540552,138.464102 119.645455,138.475839 119.739794,138.483175 C119.833693,138.490511 119.916881,138.493445 119.989506,138.493445 C120.727786,138.493445 121.324777,138.224953 121.78092,137.689436 C122.236769,137.15392 122.464914,136.467284 122.464914,135.626596 C122.464914,135.105751 122.320105,134.73309 122.030632,134.508613 C121.740719,134.284137 121.270492,134.172632 120.619215,134.172632 L120.38036,134.172632 L119.424793,138.44943 Z M117.94838,145.224818 C118.179753,145.296709 118.37518,145.343659 118.534661,145.365666 C118.693702,145.387674 118.882087,145.397944 119.099081,145.397944 C119.95312,145.397944 120.637115,145.155861 121.151211,144.671695 C121.664867,144.186062 121.922062,143.531705 121.922062,142.705688 C121.922062,141.997045 121.697291,141.43512 121.248924,141.022845 C120.79997,140.610571 120.184933,140.4037 119.403225,140.4037 C119.3306,140.4037 119.265458,140.4037 119.207798,140.4037 C119.149698,140.4037 119.077514,140.418371 118.990511,140.447715 L117.94838,145.224818 Z M121.379209,132.34894 C121.987204,132.34894 122.464914,132.351875 122.81234,132.35921 C123.159619,132.366546 123.445423,132.376816 123.670047,132.391488 C123.89423,132.40616 124.085989,132.428167 124.245471,132.457511 C124.404659,132.485387 124.585414,132.529402 124.788617,132.586622 C125.396025,132.761215 125.869921,133.086926 126.210304,133.563756 C126.550687,134.042054 126.720879,134.606914 126.720879,135.258337 C126.720879,135.865745 126.604972,136.455547 126.37316,137.027743 C126.141347,137.599939 125.837643,138.066499 125.462048,138.42889 C125.171548,138.717922 124.853172,138.935063 124.50604,139.080313 C124.158614,139.224096 123.702471,139.347338 123.138051,139.448572 C125.164212,139.665713 126.178026,140.773426 126.178026,142.771711 C126.178026,143.668151 125.963819,144.48243 125.536873,145.214548 C125.109927,145.945198 124.541986,146.47778 123.832903,146.809361 C123.528905,146.954611 123.246622,147.067583 122.986053,147.14681 C122.725337,147.226037 122.395957,147.287658 121.997914,147.331673 C121.599578,147.374221 121.1003,147.403564 120.499641,147.418236 C119.898982,147.432908 119.113459,147.440244 118.143807,147.440244 L112.324427,147.440244 C112.584996,147.236307 112.80918,147.038239 112.997564,146.843106 C113.185509,146.646505 113.34499,146.42643 113.475128,146.179945 C113.605559,145.933461 113.721172,145.64883 113.8227,145.323118 C113.923788,144.997407 114.02517,144.595402 114.126698,144.117105 L115.993964,135.648604 C116.182055,134.838727 116.276247,134.21518 116.276247,133.780897 C116.276247,133.550552 116.23634,133.343681 116.156966,133.163219 C116.077152,132.98129 115.914297,132.709864 115.668399,132.34894 L121.379209,132.34894 Z" id="Fill-11" fill="#FFC425"></path>
                    <path d="M137.620479,134.259195 C137.780401,133.998039 137.910979,133.763291 138.012214,133.553486 C138.113448,133.343681 138.163332,133.180825 138.163332,133.064919 C138.163332,132.833106 138.01955,132.593957 137.72905,132.34894 L141.790175,132.34894 C141.486471,132.739207 141.207708,133.097197 140.953888,133.422908 C140.701535,133.74862 140.516672,133.99217 140.400765,134.150624 L135.710225,140.642848 L134.928224,144.117105 C134.856333,144.494168 134.794711,144.849223 134.744828,145.180803 C134.693477,145.51385 134.668535,145.789678 134.668535,146.006819 C134.668535,146.253304 134.703747,146.470445 134.777105,146.658242 C134.848997,146.84604 135.007451,147.107196 135.253935,147.440244 L129.151978,147.440244 C129.413134,147.236307 129.637611,147.038239 129.825409,146.843106 C130.013207,146.646505 130.176063,146.42643 130.313976,146.179945 C130.45189,145.933461 130.570731,145.644428 130.673433,145.311381 C130.7732,144.978333 130.875902,144.580731 130.977137,144.117105 L131.737131,140.664856 C131.577209,140.028104 131.342462,139.31506 131.031422,138.525723 C130.718915,137.736386 130.372663,136.958786 129.988265,136.191457 C129.605334,135.424127 129.210665,134.708148 128.805726,134.042054 C128.39932,133.375959 128.023725,132.847778 127.676006,132.457511 C128.182179,132.297589 128.595921,132.189019 128.914297,132.131799 C129.232673,132.073112 129.578925,132.043769 129.955987,132.043769 C130.404941,132.043769 130.806945,132.087784 131.162,132.174347 C131.515588,132.26091 131.838365,132.403225 132.127398,132.598359 C132.41643,132.793493 132.68052,133.050247 132.919669,133.368623 C133.158818,133.686999 133.393565,134.078733 133.625378,134.540891 C133.684064,134.671469 133.745685,134.809383 133.810241,134.954633 C133.876263,135.098415 133.958425,135.295016 134.05966,135.540033 C134.160894,135.786518 134.291472,136.109295 134.451394,136.506898 C134.609848,136.904501 134.819653,137.415076 135.080809,138.037156 L137.620479,134.259195" id="Fill-12" fill="#FFC425"></path>
                </g>
            </g>
        </g>
    </g>
</svg>