<?xml version="1.0" encoding="UTF-8" standalone="no"?>
<!-- Created with Inkscape (http://www.inkscape.org/) -->

<!-- viewBox fix by in[k]firmary (http://inkfirmary.48design.de) -->
<svg
   xmlns:dc="http://purl.org/dc/elements/1.1/"
   xmlns:cc="http://creativecommons.org/ns#"
   xmlns:rdf="http://www.w3.org/1999/02/22-rdf-syntax-ns#"
   xmlns:svg="http://www.w3.org/2000/svg"
   xmlns="http://www.w3.org/2000/svg"
   version="1.1"
   width="100%"
   height="100%"
   id="svg2"
   viewBox="0 0 600 700">
  <metadata
     id="metadata29">
    <rdf:RDF>
      <cc:Work
         rdf:about="">
        <dc:format>image/svg+xml</dc:format>
        <dc:type
           rdf:resource="http://purl.org/dc/dcmitype/StillImage" />
        <dc:title></dc:title>
      </cc:Work>
    </rdf:RDF>
  </metadata>
  <defs
     id="defs4" />
  <g
     transform="translate(1.2179566e-7,-0.3786807)"
     id="layer1"
     style="display:inline">
    <g
       transform="matrix(0.96153331,0,0,0.96329343,-54.417655,-159.99924)"
       id="g3806"
       style="stroke-width:5.19111967;stroke-miterlimit:4;stroke-dasharray:none;display:inline">
      <path
         d="m 268.70057,796.03595 c 0.63074,20.39014 -19.22771,37.49856 -35.78611,49.23695 -19.48105,13.81029 -44.76339,21.43127 -68.77773,20.67647 -24.20867,-0.76092 -48.83945,-10.71312 -68.414799,-25.17345 -15.086597,-11.14448 -34.017208,-26.09904 -34.102615,-44.73997 -0.09271,-20.23474 19.970072,-36.65826 36.57573,-48.05539 19.239374,-13.20475 43.913034,-20.54551 67.374184,-19.64931 24.52231,0.93672 49.16486,11.47218 69.17932,25.87068 14.5802,10.48907 33.39992,23.98585 33.95202,41.83402 z"
         transform="matrix(0.70586777,0.76508575,-0.77398273,0.69775377,650.30226,110.70181)"
         id="path3808"
         style="fill:#f99c1b;fill-opacity:1;stroke:#000000;stroke-width:4.98435783;stroke-linejoin:miter;stroke-miterlimit:4;stroke-opacity:1;stroke-dasharray:none" />
      <path
         d="m 86.428572,708.43361 c 0,0 0.553985,31.94621 5.714285,46.78572 7.282664,20.9428 20.745863,39.50821 34.642853,56.78571 14.67065,18.23937 31.63368,35.01294 50.71429,48.57143 10.67642,7.58656 35,17.85714 35,17.85714"
         id="path3810"
         style="fill:none;stroke:#000000;stroke-width:5.19111967;stroke-linecap:butt;stroke-linejoin:miter;stroke-miterlimit:4;stroke-opacity:1;stroke-dasharray:none" />
    </g>
    <path
       d="m 166.31015,94.026308 -4.99427,7.746482 -8.49026,1.24943 -11.98625,-1.24943 -7.2417,-8.121312 z M 453.98028,671.76386 c 45.6976,-1.33272 91.3952,-2.66546 137.0928,-3.99818 9.62494,-6.13328 2.69422,-21.04711 5.30753,-30.89912 4.19452,-13.00053 -3.98004,-19.88601 -14.52379,-25.60021 -24.97909,-17.98349 -49.95816,-35.96699 -74.93724,-53.9505 -0.49943,-24.90535 -0.99887,-49.8107 -1.49829,-74.71606 -15.1493,-15.57625 -30.29858,-31.15251 -45.44788,-46.72877 3.58973,-10.61399 15.99522,-17.66559 23.03453,-26.88563 15.42414,-18.30291 36.80451,-32.32847 46.38586,-54.82724 2.06295,-11.48651 2.85327,-22.65288 -6.38569,-31.29639 -43.15286,-65.28347 -86.30569,-130.56696 -129.45853,-195.85044 22.05803,-23.90581 44.11607,-47.81161 66.17412,-71.717418 27.6067,5.275548 67.50373,-15.445407 64.91953,-42.668557 -33.1728,-8.4118505 -42.10531,7.456974 -55.96106,15.43093 -17.1932,2.838075 -10.99434,23.493859 -23.73437,31.08844 -21.04493,22.622203 -42.08984,45.244405 -63.13476,67.866605 42.95074,67.21947 85.90149,134.43893 128.85223,201.6584 3.32526,13.66554 -12.95323,17.53325 -20.47242,25.77881 -21.31026,16.89549 -42.62052,33.79097 -63.93079,50.68646 -13.65123,-9.6543 -26.25277,-22.16547 -40.54657,-30.07095 -25.12508,-1.87999 -51.29599,-0.91554 -75.77843,-4.54344 -18.74238,-14.53336 -37.48475,-29.06672 -56.22713,-43.60009 16.14815,-15.24307 32.29629,-30.48615 48.44445,-45.72922 C 300.57286,197.56261 298.99134,113.93394 297.40983,30.305253 287.5348,22.00631 279.08889,10.236477 268.34835,4.0395819 235.04479,3.9849221 201.44268,2.1544136 168.32362,3.1972574 154.66266,9.2695896 138.46098,11.847676 126.35597,20.059908 122.74356,30.166233 104.77601,29.851278 93.156162,38.526923 82.381258,46.571714 69.687741,61.04163 68.1121,77.458454 c 9.713171,6.725267 24.75508,3.861531 34.27991,9.077955 8.72913,3.130515 -13.716488,15.348941 -18.767064,21.065361 -16.620676,4.19223 -52.919573,10.99503 -40.389062,24.33856 12.513099,-0.79939 23.767338,-0.63163 37.47954,-2.82502 12.468213,-7.77067 22.136406,-27.78478 39.147986,-19.59604 7.57436,6.90206 25.70278,8.50088 20.30878,21.9193 -4.30378,9.39508 -19.35055,11.60424 -27.9447,18.1295 -24.340529,13.05508 -48.681056,26.11015 -73.021583,39.16522 -15.197505,9.68289 2.006425,32.73216 -13.741461,41.51138 -8.900252,8.61426 -21.6465249,15.83728 -18.6128012,30.18001 -0.2858845,18.66687 -0.5717688,37.33373 -0.8576532,56.0006 8.9792154,7.49567 16.9292984,15.5064 15.6887164,28.11702 6.506969,48.68463 13.013939,97.36924 19.520908,146.05386 -12.901872,12.74421 -25.803743,25.48842 -38.7056155,38.23263 1.5811895,26.18453 21.4173445,1.34941 28.6546415,-7.02805 18.680675,-3.56743 39.082638,-4.25292 57.434139,1.53055 8.827999,-9.75161 -14.462062,-18.11509 -0.643066,-30.76414 4.313821,-11.23552 8.627642,-22.47105 12.941465,-33.70657 30.63155,20.57398 61.26308,41.14798 91.89462,61.72196 23.04492,3.29213 34.25803,-24.14755 55.43643,-30.23626 21.12118,-14.64664 45.59949,-23.74352 71.64221,-21.3778 18.84232,-1.08259 10.38125,6.13084 -3.57504,3.48535 -12.44196,0.71629 -26.61599,-3.38585 -35.10975,8.31398 -17.06218,13.93793 -34.12434,27.87588 -51.18651,41.81382 -0.33295,20.99046 -0.66592,41.98093 -0.99886,62.9714 31.6304,17.90853 63.26079,35.81705 94.89119,53.72559 -3.57838,12.65406 -11.67793,17.75218 -24.57667,14.82974 -42.41641,0.22108 -84.83282,0.44215 -127.24924,0.66322 -13.61418,9.37952 -34.63043,15.05432 -34.9599,34.73422 m -0.0712,0.60024 c 100.76502,2.59155 201.53003,5.1831 302.29506,7.77464 6.50832,-9.18411 18.64288,-16.41836 14.8273,-29.18039 -0.47025,-11.54408 2.49625,-24.98111 -11.34903,-29.15822 -13.41883,-9.08373 -26.83767,-18.16746 -40.2565,-27.25119 9.68367,-9.52999 20.48777,-16.91446 34.25039,-18.6337 15.04305,2.82287 29.61207,12.36891 44.47557,17.73813 13.54573,5.87933 27.09145,11.75864 40.63717,17.63797 -5.14143,13.16119 -19.58152,7.95565 -30.69292,9.32493 -13.19973,1.52013 -28.10293,-3.58532 -37.72863,8.16712"
       id="path3836"
       style="fill:#d71f27;fill-opacity:1;stroke:#000000;stroke-width:4.99600124;stroke-linecap:butt;stroke-linejoin:miter;stroke-miterlimit:4;stroke-opacity:1;stroke-dasharray:none" />
    <path
       d="m 402.94323,612.35961 -24.36724,-13.07555 4.23778,-7.77463 24.01409,-8.12804 15.89168,-8.12803 3.17833,-2.82714 0.7063,-28.97822"
       id="path3778"
       style="fill:none;stroke:#000000;stroke-width:4.99600124;stroke-linecap:round;stroke-linejoin:miter;stroke-miterlimit:4;stroke-opacity:1;stroke-dasharray:none" />
    <path
       d="m 323.13167,639.57086 57.5632,31.09857 37.08059,-0.35338 6.00352,-8.12805"
       id="path3780"
       style="fill:none;stroke:#000000;stroke-width:4.99600124;stroke-linecap:round;stroke-linejoin:miter;stroke-miterlimit:4;stroke-opacity:1;stroke-dasharray:none" />
    <path
       d="m 460.15327,435.66317 2.11889,127.57484 c 0,0 -0.35314,3.53392 -0.7063,4.59409 -0.35314,1.06019 -1.76573,2.12036 -2.82518,3.88733 -1.05945,1.76697 -21.8952,21.91036 -21.8952,21.91036"
       id="path3782"
       style="fill:none;stroke:#000000;stroke-width:4.99600124;stroke-linecap:butt;stroke-linejoin:miter;stroke-miterlimit:4;stroke-opacity:1;stroke-dasharray:none" />
    <path
       d="m 513.12554,637.2738 c 8.50219,-2.35744 17.1418,-8.04098 26.30956,-10.07169 8.18052,-1.81204 15.89656,-1.76697 25.07354,-1.76697"
       id="path3784"
       style="fill:none;stroke:#000000;stroke-width:4.99600124;stroke-linecap:round;stroke-linejoin:miter;stroke-miterlimit:4;stroke-opacity:1;stroke-dasharray:none" />
    <path
       d="m 102.63317,109.76916 17.23024,-16.242626 15.6071,0.37483"
       id="path3839"
       style="fill:none;stroke:#000000;stroke-width:4.99600124;stroke-linecap:round;stroke-linejoin:miter;stroke-miterlimit:4;stroke-opacity:1;stroke-dasharray:none" />
    <path
       d="m 122.61027,93.776421 c 0,0 -5.99313,6.247159 -6.24284,7.246709 -0.24972,0.99955 -1.24857,6.24716 -1.24857,6.24716"
       id="path3841"
       style="fill:none;stroke:#000000;stroke-width:4.99600124;stroke-linecap:round;stroke-linejoin:miter;stroke-miterlimit:4;stroke-opacity:1;stroke-dasharray:none" />
    <path
       d="m 139.3672,122.15085 c 4.77325,-2.25465 10.48089,-2.55621 14.82119,0.94009 4.97321,2.69064 10.67951,2.93268 16.0032,1.30151 10.58411,-5.55522 20.8627,-11.92392 31.32973,-17.79087 0.23543,-22.381553 0.47087,-44.763104 0.7063,-67.144654 -9.29958,-6.125476 -18.59915,-12.250952 -27.89873,-18.376429 -6.12047,-0.181275 -12.2567,-1.475126 -18.36372,-0.706784 -5.14546,5.096834 -12.99276,3.599189 -19.51144,5.124196 -8.7925,1.250341 -16.63392,5.887222 -24.96201,8.790178 -7.48629,3.393646 -15.198975,6.732994 -22.21287,10.882209 -3.795578,5.471865 -8.933328,10.646284 -8.292192,17.875604 -0.09823,5.554568 -1.990472,10.765353 -0.948394,16.344418"
       id="path3843"
       style="fill:none;stroke:#000000;stroke-width:4.99600124;stroke-linecap:butt;stroke-linejoin:miter;stroke-miterlimit:4;stroke-opacity:1;stroke-dasharray:none;display:inline" />
    <path
       d="m 99.412148,84.390678 39.199482,2.47375 15.36195,-12.545447 c 0,0 2.47203,-0.706785 4.23778,-0.706785 1.76575,0 3.88464,0 6.00353,0.706785 2.11888,0.706785 4.59092,2.297054 5.12065,3.003839 0.52972,0.706787 1.58916,1.766965 1.23602,4.064019 -0.35316,2.297053 -0.7063,3.710625 -1.23602,5.300892 -0.52973,1.590269 -1.4126,5.124196 -1.4126,5.124196"
       id="path3863"
       style="fill:none;stroke:#000000;stroke-width:4.99600124;stroke-linecap:round;stroke-linejoin:miter;stroke-miterlimit:4;stroke-opacity:1;stroke-dasharray:none" />
    <path
       d="M 201.29547,106.30104 200.94232,120.96685 31.607649,224.68764"
       id="path3865"
       style="fill:none;stroke:#000000;stroke-width:4.99600124;stroke-linecap:butt;stroke-linejoin:miter;stroke-miterlimit:4;stroke-opacity:1;stroke-dasharray:none" />
    <path
       d="m 14.126801,323.99103 29.31132,10.60179 1.942317,-67.67473 c 0,0 0.353148,-1.59027 0.88287,-2.47375 0.529723,-0.88349 1.589169,-2.65045 2.47204,-3.35723 0.882871,-0.70679 2.472039,-1.76696 3.884632,-2.82715 1.412594,-1.06017 141.7891,-92.41223 141.7891,-92.41223"
       id="path3867"
       style="fill:none;stroke:#000000;stroke-width:4.99600124;stroke-linecap:round;stroke-linejoin:miter;stroke-miterlimit:4;stroke-opacity:1;stroke-dasharray:none" />
    <path
       d="m 43.084973,334.23943 9.888156,7.42124 34.255398,-29.3316 0.706297,-33.92572 C 140.05037,244.70999 226.70769,187.01026 268.6742,158.84985 c 3.68161,-2.47044 8.41905,-5.42672 10.59071,-9.56772 1.87738,-3.57986 1.43572,-8.22369 1.56697,-12.05614 1.26774,-37.01893 1.5031,-80.24715 1.68773,-110.084955 L 262.7433,4.8772852"
       id="path3871"
       style="fill:none;stroke:#000000;stroke-width:4.99600124;stroke-linecap:butt;stroke-linejoin:miter;stroke-miterlimit:4;stroke-opacity:1;stroke-dasharray:none" />
    <path
       d="m 70.63055,520.47747 -1.059446,-146.30465 1.412595,-2.47375 2.11889,-2.82714 49.087631,-31.45196 -1.41259,-31.45197"
       id="path3891"
       style="fill:none;stroke:#000000;stroke-width:4.99600124;stroke-linecap:butt;stroke-linejoin:miter;stroke-miterlimit:4;stroke-opacity:1;stroke-dasharray:none" />
    <path
       d="m 86.875378,311.97568 c 0.117716,4.24072 0.235433,8.48143 0.353149,12.72214 53.678563,-32.62993 107.357123,-65.25988 161.035683,-97.88982 7.17531,-3.97753 16.91576,0.80334 13.48103,9.77145 m -7.47751,90.94552 c -9.29958,-7.77465 -18.59915,-15.54929 -27.89872,-23.32394 0,0 -2.8913,-23.05057 -4.1607,-35.18261 -0.2603,-2.48781 -0.0602,-5.75187 1.94454,-7.24785 12.0178,-8.96787 23.58145,-18.3149 37.83022,-25.27907"
       id="path3893"
       style="fill:none;stroke:#000000;stroke-width:4.99600124;stroke-linecap:butt;stroke-linejoin:miter;stroke-miterlimit:4;stroke-opacity:1;stroke-dasharray:none" />
    <path
       d="m 229.19419,306.67478 31.43021,-22.61713 1.35866,-52.86945"
       id="path3897"
       style="fill:none;stroke:#000000;stroke-width:4.99600124;stroke-linecap:round;stroke-linejoin:miter;stroke-miterlimit:4;stroke-opacity:1;stroke-dasharray:none" />
    <path
       d="m 85.109635,360.74389 5.297227,87.64143 12.007038,11.30857"
       id="path3899"
       style="fill:none;stroke:#000000;stroke-width:4.99600124;stroke-linecap:butt;stroke-linejoin:miter;stroke-miterlimit:4;stroke-opacity:1;stroke-dasharray:none" />
    <path
       d="m 149.70017,49.238816 c 2.44651,-1.585634 5.15159,-3.793377 7.96201,-4.732334 3.19841,-1.166366 2.05786,-1.479432 5.31085,-2.527076 2.27437,-0.851983 10.48795,-1.82961 13.16912,-2.12454 2.59183,-0.4527 4.17038,1.822123 2.10517,3.279668 -1.28188,0.987347 -8.12528,3.460008 -7.74271,4.993839 -2.89457,4.98203 -4.48295,9.217722 -14.72893,5.136012 -2.55033,0.866792 0.41653,-0.17009 -3.10343,1.05262 -2.31581,0.267879 -3.43488,0.08906 -5.72725,-0.720246 0.20289,-1.744534 0.93825,-3.600884 2.75517,-4.357943 z"
       id="path3901"
       style="fill:#000000;fill-opacity:1;fill-rule:evenodd;stroke:none" />
    <path
       d="m 470.3824,27.203572 c 0,0 12.12822,-4.789744 18.45349,-6.272984 4.66887,-1.094823 14.25953,-1.907564 14.25953,-1.907564"
       transform="translate(-1.2179566e-7,0.3786807)"
       id="path3002"
       style="fill:none;stroke:#000000;stroke-width:6;stroke-linecap:round;stroke-linejoin:miter;stroke-miterlimit:4;stroke-opacity:1;stroke-dasharray:none" />
    <path
       d="m 465.3591,54.090211 c 0.5156,-1.031197 4.19622,-7.713933 7.31601,-10.705149 2.81411,-2.698133 9.92527,-6.187185 9.92527,-6.187185"
       transform="translate(-1.2179566e-7,0.3786807)"
       id="path3772"
       style="fill:none;stroke:#000000;stroke-width:7;stroke-linecap:round;stroke-linejoin:miter;stroke-miterlimit:4;stroke-opacity:1;stroke-dasharray:none" />
    <path
       d="m 501.16193,45.963054 c 0,0 1.81225,-5.846308 3.41038,-8.417485 0.8714,-1.401952 3.29241,-3.699084 3.29241,-3.699084"
       transform="translate(-1.2179566e-7,0.3786807)"
       id="path3774"
       style="fill:none;stroke:#000000;stroke-width:7;stroke-linecap:round;stroke-linejoin:miter;stroke-miterlimit:4;stroke-opacity:1;stroke-dasharray:none" />
  </g>
</svg>
