<?xml version="1.0" encoding="utf-8"?>
<!-- Generator: Adobe Illustrator 15.1.0, SVG Export Plug-In  -->
<!DOCTYPE svg PUBLIC "-//W3C//DTD SVG 1.1//EN" "http://www.w3.org/Graphics/SVG/1.1/DTD/svg11.dtd" [
	<!ENTITY ns_flows "http://ns.adobe.com/Flows/1.0/">
]>
<svg version="1.1"
	 xmlns="http://www.w3.org/2000/svg" xmlns:xlink="http://www.w3.org/1999/xlink" xmlns:a="http://ns.adobe.com/AdobeSVGViewerExtensions/3.0/"
	 x="0px" y="0px" width="1001px" height="1000px" viewBox="0 -217.344 1001 1000"
	 overflow="visible" enable-background="new 0 -217.344 1001 1000" xml:space="preserve">
<defs>
</defs>
<path fill="#9FD6F6" d="M595.726,130.667c0.134,6.271-2.771,11.599-7.532,12.866c-5.961,1.583-12.549-3.77-14.73-11.958
	c-2.175-8.188,0.895-16.109,6.849-17.693c0.431-0.116,0.868-0.182,1.306-0.227c-1.135-0.109-2.276-0.044-3.398,0.253
	c-6.842,1.818-10.361,10.921-7.863,20.326c2.505,9.405,10.076,15.556,16.925,13.734C593.38,146.348,596.823,138.927,595.726,130.667
	L595.726,130.667z"/>
<path fill="#9FD6F6" d="M610.399,209.889c2.111,5.837,1.064,11.751-3.006,14.443c-5.086,3.365-12.961,0.423-17.59-6.571
	c-4.623-6.996-4.248-15.393,0.843-18.758c0.368-0.244,0.755-0.447,1.154-0.626c-1.104,0.255-2.149,0.677-3.113,1.311
	c-5.84,3.867-6.271,13.514-0.964,21.551c5.313,8.033,14.362,11.414,20.209,7.549C613.145,225.338,614.045,217.292,610.399,209.889
	L610.399,209.889z"/>
<path fill="#9FD6F6" d="M684.1,264.396c2.562,5.575,2.036,11.474-1.73,14.438c-4.712,3.709-12.695,1.436-17.825-5.074
	c-5.136-6.517-5.472-14.81-0.767-18.522c0.336-0.268,0.704-0.496,1.071-0.702c-1.053,0.338-2.048,0.833-2.936,1.533
	c-5.415,4.263-5.016,13.788,0.888,21.278c5.897,7.479,15.065,10.089,20.475,5.824C688.095,279.373,688.291,271.39,684.1,264.396
	L684.1,264.396z"/>
<path fill="#9FD6F6" d="M747.129,235.188c1.668,5.323,0.691,10.594-2.771,12.856c-4.318,2.83-10.862-0.111-14.616-6.564
	c-3.748-6.457-3.298-13.983,1.027-16.813c0.316-0.206,0.646-0.372,0.982-0.518c-0.926,0.187-1.813,0.526-2.632,1.059
	c-4.958,3.251-5.49,11.897-1.179,19.314c4.318,7.416,11.832,10.794,16.791,7.542C749.158,249.165,750.046,241.971,747.129,235.188
	L747.129,235.188z"/>
<path fill="#9FD6F6" d="M753.343,165.587c1.915,5.114,1.396,10.469-1.616,13.113c-3.761,3.304-9.981,1.114-13.887-4.892
	c-3.913-6.005-4.04-13.554-0.273-16.857c0.273-0.239,0.559-0.44,0.862-0.625c-0.837,0.292-1.623,0.728-2.333,1.351
	c-4.331,3.793-4.191,12.466,0.305,19.365c4.495,6.897,11.636,9.415,15.96,5.618C756.216,179.276,756.514,172.014,753.343,165.587
	L753.343,165.587z"/>
<path fill="#9FD6F6" d="M710.935,100.304c1.3,5.177,0.108,10.222-3.271,12.295c-4.229,2.595-10.247-0.435-13.456-6.765
	c-3.215-6.33-2.391-13.564,1.839-16.158c0.305-0.187,0.622-0.339,0.945-0.469c-0.882,0.154-1.737,0.452-2.53,0.942
	c-4.857,2.979-5.802,11.288-2.111,18.562c3.684,7.273,10.608,10.751,15.459,7.772C712.14,113.826,713.345,106.927,710.935,100.304
	L710.935,100.304z"/>
<path fill="#9FD6F6" d="M642.269,80.437c1.218,5.366-0.374,10.477-4.293,12.438c-4.901,2.449-11.56-0.948-14.889-7.592
	c-3.322-6.642-2.048-14.015,2.854-16.466c0.355-0.178,0.723-0.314,1.098-0.431c-1.009,0.112-1.985,0.375-2.911,0.838
	c-5.624,2.815-7.096,11.284-3.278,18.915s11.478,11.536,17.102,8.72C642.973,94.349,644.672,87.337,642.269,80.437L642.269,80.437z"
	/>
<path fill-rule="evenodd" clip-rule="evenodd" stroke="#000000" stroke-width="0.4347" d="M249.481,382.521
	c-0.477,0.133-1.096,0.37-1.85,0.713c-0.686,0.343-1.988,1.167-3.909,2.473c-1.301,1.573-2.159,4.183-2.57,7.812
	c-0.206,2.809-0.41,5.624-0.616,8.439v8.428c0,2.197,0.065,3.437,0.206,3.706v2.058c0,0.479,0.033,0.856,0.102,1.129
	c-0.068,0.14-0.102,0.278-0.102,0.412c0-0.134,0.033,0.038,0.102,0.517c0,0.137-0.243,0.336-0.72,0.612l-1.235-0.406
	c-0.616,0.275-1.507,0.406-2.676,0.406c-0.685,0-1.644-0.07-2.877-0.203c-1.509-0.203-2.402-0.308-2.674-0.308
	c-0.688,0.14-1.373,0.206-2.058,0.206h-2.058l-0.103,0.102c-0.208-0.073-0.926-0.102-2.161-0.102c-6.239,0-10.112,0.27-11.621,0.821
	c-1.439-0.552-3.668-1.475-6.685-2.78c-0.96-0.686-2.124-1.472-3.499-2.365l-0.717-0.2c-0.277-0.415-0.826-0.856-1.647-1.341
	c-0.754-0.552-1.27-0.989-1.544-1.335c-1.507-0.688-4.456-3.225-8.844-7.612c-4.388-4.458-6.995-7.543-7.818-9.258
	c-0.615-1.16-1.334-3.082-2.157-5.755c-0.206-1.578-0.311-3.534-0.311-5.868c0-3.494,0.239-6.75,0.72-9.765
	c-0.068-0.14-0.102-0.343-0.102-0.628c0-0.539,0.173-1.569,0.515-3.075c0.341-1.51,0.512-2.499,0.512-2.987v-0.202
	c0.414-1.237,0.651-1.957,0.723-2.163c0.412-0.754,1.061-1.544,1.953-2.364c0.687-0.755,1.713-1.776,3.085-3.085
	c0.685-0.618,1.713-1.513,3.086-2.68c0.889-0.545,1.988-1.468,3.291-2.771l0.308-0.21c0.07-0.133,0.79-0.652,2.163-1.54
	c1.37-0.895,2.157-1.37,2.363-1.439c1.99-1.307,5.725-3.12,11.212-5.45c5.826-2.47,9.737-3.77,11.725-3.912
	c1.508-0.682,3.05-1.095,4.629-1.233c0.685-0.063,1.577-0.172,2.673-0.305l0.103,0.102c0.138-0.14,0.307-0.206,0.515-0.206
	c0.068,0,0.239,0.066,0.515,0.206c0.339,0.069,0.579,0.102,0.72,0.102v0.102c0,1.1,1.473,3.05,4.421,5.862
	c0.756,1.03,2.468,2.679,5.141,4.939c0.62,0.206,1.647,0.827,3.086,1.854c1.921,1.369,3.017,2.156,3.291,2.362
	c-4.044,2.945-6.308,4.974-6.785,6.064c-1.236,1.307-2.608,2.746-4.117,4.318h-0.41c-0.344-0.545-1.509-1.503-3.499-2.872
	c-1.576-1.034-2.363-2.096-2.363-3.189c-0.688-0.688-1.749-1.478-3.189-2.372c-0.549-0.481-1.441-1.233-2.673-2.257v-0.104
	c-0.342-0.07-1.167-0.653-2.468-1.744c-1.305-1.17-2.333-1.785-3.085-1.854c-0.139-0.14-0.312-0.206-0.515-0.206
	c-0.893,0-2.54,0.72-4.938,2.159c-2.125,1.232-3.464,2.162-4.011,2.773c-2.33,1.037-5.212,3.77-8.641,8.228
	c-3.633,4.733-5.448,8.335-5.448,10.799v0.216c-0.48,0.679-0.722,1.604-0.722,2.771c0,0.892,0.344,2.952,1.027,6.17l0.103,0.102
	c0.685,2.33,1.82,4.769,3.396,7.305v0.102c2.125,2.882,4.183,5.212,6.171,6.994l0.102-0.102c3.703,4.049,8.434,7.473,14.194,10.285
	c0.754,0.275,1.782,0.786,3.085,1.541c0.687,0,1.612,0.174,2.777,0.52c1.167,0.272,1.988,0.44,2.468,0.511
	c0.139-0.346,0.206-0.615,0.206-0.821v-0.104c0-0.137,0.035-0.34,0.103-0.618v-1.027c0-2.124,0.102-3.431,0.309-3.906v-2.162
	c0-5.073,0.035-7.711,0.103-7.92c-0.208-3.497-0.379-5.415-0.515-5.758c-0.55-1.376-2.158-2.371-4.835-2.98h-0.103
	c-0.547-0.139-0.788-0.215-0.72-0.215h-0.102c-0.617-0.473-2.4-0.85-5.349-1.126c0.07-0.409,0.445-1.439,1.132-3.085
	c0.753-1.648,1.267-2.567,1.542-2.783h0.205c2.47,0,4.527,0.247,6.173,0.723c0.821,0.14,4.114,0.206,9.873,0.206
	c3.223,0,5.038-0.035,5.45-0.099l0.206,0.099c1.509-0.13,3.703-0.301,6.582-0.511C247.631,379.5,248.522,380.869,249.481,382.521
	L249.481,382.521z"/>
<path fill-rule="evenodd" clip-rule="evenodd" stroke="#000000" stroke-width="0.4347" d="M328.778,396.811
	c-0.137,1.167-0.617,2.606-1.437,4.321v0.517c-0.688,2.124-1.168,3.976-1.442,5.549c0,0.275-0.138,0.932-0.411,1.956
	c-0.205,0.964-0.309,1.613-0.309,1.956v0.305c-0.342,0.758-0.582,1.788-0.72,3.088c-0.136,1.648-0.276,2.714-0.411,3.189v0.405
	c0-0.13-0.138,0.762-0.412,2.68l0.102,0.104l0.205,0.926c-3.014,0.479-4.934,0.713-5.756,0.713l-0.414-0.206
	c0-0.202-0.135-0.476-0.411-0.817c-0.272-0.343-0.409-0.65-0.409-0.926v-0.102c-0.414-0.691-0.688-1.408-0.823-2.159
	c-0.826,0-2.093-0.137-3.808-0.409c-0.138,0.066-0.41,0.102-0.822,0.102c-0.344,0-0.961-0.069-1.85-0.209
	c-0.825-0.134-1.443-0.2-1.853-0.2c-0.339,0-0.581,0.028-0.72,0.099l-2.055-0.206h-0.721c-0.893-0.206-3.671-0.305-8.332-0.305
	c-13.44,0-20.913,0.27-22.42,0.821c-0.07,0-0.346,0.031-0.826,0.095h-0.409c-1.921,0-3.223,0.178-3.911,0.521
	c-0.136,0-0.375,0-0.72,0c-0.274,0.072-0.515,0.102-0.72,0.102l-0.102-0.102c0.48-2.67,0.722-3.773,0.722-3.291
	c0-0.343-0.037-0.615-0.104-0.824v-1.027l0.515-1.135c0.753-0.609,2.056-0.926,3.908-0.926c1.647-0.609,2.674-0.923,3.084-0.923
	l0.103-0.104c0.617-0.203,1.509-0.612,2.676-1.233c0.412-6.373,0.617-12.78,0.617-19.229c0-2.536-0.07-6.347-0.205-11.42
	c-0.139-5.072-0.206-8.846-0.206-11.312V363.8c0-7.886-0.036-12.067-0.104-12.549c-0.069-0.203-0.857-0.622-2.367-1.233
	c-1.438-0.688-2.4-1.068-2.877-1.132c-0.482-0.552-1.579-0.923-3.292-1.135l-0.104,0.107c-1.097-0.412-1.644-0.653-1.644-0.723
	c0-0.203,0.169-0.482,0.512-0.824c0.48-2.467,1.269-4.046,2.367-4.728h0.822l0.411,0.206c0.069,0,0.138-0.038,0.206-0.104
	c0.068,0,0.136,0,0.204,0c0.274,0,0.687,0.133,1.235,0.412v-0.104l12.444,1.03c4.458,0,7.921-0.14,10.39-0.415
	c0.068,0,0.206,0,0.412,0c0.135,0.069,0.273,0.104,0.411,0.104c3.771,0,6.823-0.58,9.153-1.75c0.206,1.372,0.548,2.913,1.028,4.629
	c0.137,0.206,0.31,0.58,0.516,1.132v0.102c0.069,0.281,0.239,0.723,0.512,1.338c-0.066,0.062-0.616,0.304-1.644,0.723
	c-0.961,0.063-2.812,0.304-5.555,0.717c-2.947,0.481-4.732,0.855-5.349,1.135c-0.547,0-1.097,0.102-1.646,0.311h-0.102l-0.617,0.095
	c-0.482,4.807-0.72,9.876-0.72,15.225c0,0.488,0.033,0.856,0.1,1.136c0,0.476-0.067,1.229-0.206,2.254l0.106,0.111v1.334
	c0,0.549-0.073,0.964-0.206,1.228v0.834c0,0.066,0.035,0.206,0.1,0.402c0,0.076,0,0.107,0,0.107c-0.065,0.07-0.1,0.137-0.1,0.206
	c0,0.067,0.035,0.206,0.1,0.416c0,0.136,0,0.272,0,0.412c0,0.199-0.035,0.371-0.1,0.51l0.206,0.72
	c-0.073,0.203-0.106,0.479-0.106,0.821v1.544c0,0.349-0.035,0.622-0.1,0.821c0.065,0.137,0.1,0.378,0.1,0.72
	c0,0.279-0.035,0.444-0.1,0.521l0.1,0.919l-0.205,0.314c0,0.339,0.035,1.949,0.104,4.835c0,2.875,0,4.933,0,6.163v1.857
	l-0.104,0.102c0.07,1.643,0.104,4.147,0.104,7.505l0.1,0.313v0.406c0,0.136,0.033,0.412,0.106,0.824c0,0.349,0,0.621,0,0.821v0.412
	c0,0.897,0.169,2.162,0.514,3.811c0.273,0,0.65,0,1.129,0c0.48,0.066,0.824,0.099,1.03,0.099c1.713,0,4.8-0.168,9.258-0.517
	c5.485-0.409,10.009-1.132,13.574-2.159c0.07-0.063,0.274-0.647,0.619-1.744l0.206-0.206c0.481-1.512,1.371-3.741,2.674-6.689
	c0.135-1.024,0.65-1.984,1.542-2.876c2.056,0.685,3.083,1.027,3.083,1.027c0.276,0.07,0.687,0.203,1.235,0.412
	c0.55,0.14,0.96,0.279,1.235,0.412L328.778,396.811L328.778,396.811z"/>
<path fill-rule="evenodd" clip-rule="evenodd" stroke="#000000" stroke-width="0.435" d="M433.275,413.164v0.107
	c0,0.685-0.856,2.429-2.571,5.244c-0.204,0.133-0.582,0.203-1.132,0.203c-0.547,0-1.333-0.102-2.363-0.305
	c-1.029-0.206-1.681-0.317-1.955-0.317c-7.819-0.27-12.616-0.405-14.399-0.405c-5.829,0-10.901,0.311-15.223,0.926
	c-0.274-1.51-0.891-3.462-1.85-5.865l3.908-0.926c3.771-0.336,7.2-1.161,10.285-2.461c-2.604-6.791-4.971-11.699-7.097-14.711
	c-6.582-0.209-12.377-0.311-17.384-0.311c-6.651,0-10.695,0.272-12.136,0.824c-1.094,2.327-2.159,4.699-3.185,7.096
	c-1.921,4.252-2.915,6.854-2.985,7.818c2.538,1.097,6.205,2.124,11.005,3.082l-1.338,3.189l-1.027,2.264h-0.309
	c-0.549,0-3.736-0.073-9.564-0.203c-5.827-0.206-9.462-0.317-10.903-0.317h-0.617v0.111c-1.235-0.14-2.161-0.206-2.777-0.206
	c-1.783,0-4.113,0.241-6.991,0.717l2.467-5.967c2.123-0.203,3.427-0.343,3.908-0.412c1.438-0.273,2.4-0.818,2.88-1.643
	c2.879-4.8,7.438-13.988,13.679-27.564c5.553-12.137,9.564-21.362,12.034-27.672c1.783-4.654,3.736-9.524,5.86-14.597
	c3.911-0.143,7.2-0.653,9.875-1.547c0.276,1.646,1.957,6.103,5.04,13.373l-0.102,0.102c0.067,0.82,2.501,6.483,7.303,16.965
	c4.867,10.501,7.99,16.978,9.358,19.444v0.206c3.224,6.513,6.445,12.787,9.668,18.823c1.099,2.055,2.777,3.396,5.04,4.008
	C432.011,412.786,433.209,413.101,433.275,413.164L433.275,413.164z M396.866,384.475c-0.547-1.104-1.268-2.715-2.159-4.839
	c-2.058-4.182-4.901-10.729-8.537-19.647c-0.272,0.21-0.651,0.727-1.132,1.541c-0.412,0.831-0.616,1.379-0.616,1.648
	c-0.893,1.991-2.126,5.111-3.705,9.362c-0.341,1.031-0.924,2.397-1.747,4.112c-0.821,1.922-1.888,4.557-3.19,7.917
	c0.961,0.212,4.288,0.313,9.978,0.313C392.548,384.883,396.249,384.743,396.866,384.475L396.866,384.475z"/>
<path fill-rule="evenodd" clip-rule="evenodd" stroke="#000000" stroke-width="0.4347" d="M507.536,362.36l-0.104,0.615
	c-2.604,0.272-5.381,0.716-8.329,1.344h-0.618v-0.317c0-0.342-0.206-0.786-0.618-1.334v-0.21c0-0.339-0.168-0.929-0.514-1.743
	c-0.07-0.073-0.957-2.882-2.673-8.437c-1.854-0.07-4.217-0.479-7.099-1.23c0,0-2.194-0.552-6.582-1.648
	c-1.642-0.412-2.708-0.622-3.189-0.622c-0.476,0-1.3,0.653-2.467,1.96c-0.206,0.479-0.583,1.265-1.128,2.365v0.102
	c0,0-0.209,0.408-0.622,1.236v1.331c0,0.755,0.038,1.205,0.102,1.342c0.07,0.345,0.241,0.855,0.52,1.544
	c0,0.206,0.203,0.751,0.615,1.642c0.413,0.895,0.685,1.376,0.825,1.439c0.203,0.476,0.545,1.065,1.027,1.754
	c0.203,0.27,0.479,0.716,0.821,1.331c0.891,0.758,1.817,2.062,2.781,3.909l0.304,0.311c0.209,0,0.618,0.479,1.236,1.439
	c0.686,0.964,1.098,1.472,1.233,1.548l-0.104,0.095c0.482,0.346,1.167,1.274,2.058,2.777c0.891,1.446,1.513,2.226,1.854,2.365
	c1.37,1.516,3.222,3.912,5.555,7.207c0.273,0.408,0.752,1.023,1.439,1.848v0.102c0.752,0.964,1.953,2.162,3.599,3.596
	c0.276,0.691,0.409,1.268,0.409,1.756v0.305c-0.133,0.279-0.374,0.615-0.717,1.033c-0.209,0.612-1.236,2.537-3.088,5.758
	c-1.852,3.222-2.91,4.972-3.189,5.244c-0.755,0.961-1.572,2.333-2.467,4.115c-0.891,1.785-1.646,3.085-2.264,3.912
	c-0.133,0.748-0.545,1.503-1.233,2.258c-0.618,0.685-1.233,1.338-1.852,1.953c-0.136,0-0.377,0.034-0.72,0.107
	c-0.342,0-0.653,0.063-0.926,0.203c-0.206,0.133-1.167,0.272-2.879,0.412c-1.715,0.069-2.815,0.203-3.291,0.409
	c-0.825,0-1.75,0.174-2.781,0.517c-0.066,0-0.133-0.035-0.206-0.102c-0.133,0-0.238,0-0.304,0c-0.552,0-1.408,0.168-2.571,0.514
	c-1.1,0.336-1.82,0.511-2.159,0.511c-3.361,0.275-5.523,0.72-6.48,1.341h-0.108c-0.203,0-0.476,0.133-0.818,0.406
	c-0.272,0.272-0.482,0.408-0.618,0.408h-0.104c-0.273-0.548-0.444-0.951-0.514-1.233l-0.615-0.51l0.206-0.206
	c-0.073-0.482-0.345-1.098-0.828-1.852c-0.339-0.546-0.748-1.367-1.23-2.467c-0.482-1.167-1.953-3.462-4.426-6.893
	c-2.397-3.494-3.703-5.447-3.906-5.856c-0.548-0.757-1.439-1.889-2.676-3.398c0-0.206-0.136-0.447-0.412-0.723
	c-0.273-0.336-0.409-0.65-0.409-0.929l-0.206-0.096c0.342-0.891,1.852-1.68,4.528-2.365h0.101c0.14,0,0.273,0.165,0.412,0.511
	c0.136,0.275,0.308,0.409,0.514,0.409h0.102l0.412,0.412v0.209c1.579,1.513,4.15,3.323,7.714,5.453
	c3.567,2.055,6.375,3.431,8.437,4.109c0.476,0.14,1.129,0.415,1.95,0.824v-0.104c0.964,0.409,2.163,0.688,3.602,0.821
	c0.07,0.209,0.308,0.349,0.72,0.412c0.412,0,0.653,0.031,0.717,0.107c1.788,0.272,3.398,0.412,4.838,0.412
	c1.509,0,2.708-0.209,3.599-0.615c0.346-1.921,0.514-3.703,0.514-5.354v-1.027c0-3.218-1.202-6.376-3.599-9.458
	c-0.481-1.166-1.198-2.099-2.159-2.777c-0.618-0.894-1.062-1.438-1.338-1.648c-1.373-1.718-3.979-4.66-7.815-8.846
	c-3.431-3.636-6.005-6.651-7.717-9.048c-0.685-0.482-1.027-3.326-1.027-8.542c0-1.236,0.038-1.949,0.104-2.155
	c1.03-1.439,2.226-2.917,3.599-4.426c1.852-2.328,4.594-5.555,8.227-9.671c0.206-0.476,1.271-1.331,3.187-2.567l3.088-0.622
	c0.479,0,2.983-0.304,7.508-0.919c4.527-0.621,6.994-0.996,7.406-1.135c0-0.063,0.035-0.241,0.102-0.511c0-0.276,0-0.517,0-0.723
	c0-1.373-0.137-2.296-0.409-2.777c0-0.27,0.066-0.688,0.206-1.233c0.412-0.07,1.062-0.104,1.953-0.104c0.343,0,0.891,0,1.648,0
	c0.686,0.066,1.23,0.104,1.643,0.104c0.895,0,1.541-0.038,1.953-0.104l0.206,0.517c0.206,4.66,1.407,10.624,3.602,17.895
	l0.821,1.648l-0.102,0.203c0.412,0.82,1.062,2.054,1.953,3.703c0.342,0.887,0.621,1.438,0.824,1.642
	C506.575,360.331,507.054,361.26,507.536,362.36L507.536,362.36z"/>
<path fill-rule="evenodd" clip-rule="evenodd" stroke="#000000" stroke-width="0.4347" d="M596.297,382.521
	c-0.482,0.133-1.104,0.37-1.852,0.713c-0.685,0.343-1.991,1.167-3.906,2.473c-1.306,1.573-2.162,4.183-2.574,7.812
	c-0.209,2.809-0.412,5.624-0.622,8.439v8.428c0,2.197,0.076,3.437,0.21,3.706v2.058c0,0.479,0.038,0.856,0.102,1.129
	c-0.063,0.14-0.102,0.278-0.102,0.412c0-0.134,0.038,0.038,0.102,0.517c0,0.137-0.235,0.336-0.71,0.612l-1.237-0.406
	c-0.624,0.275-1.519,0.406-2.682,0.406c-0.686,0-1.636-0.07-2.876-0.203c-1.509-0.203-2.396-0.308-2.679-0.308
	c-0.685,0.14-1.367,0.206-2.055,0.206h-2.058l-0.104,0.102c-0.203-0.073-0.92-0.102-2.156-0.102c-6.239,0-10.114,0.27-11.623,0.821
	c-1.437-0.552-3.671-1.475-6.684-2.78c-0.96-0.686-2.13-1.472-3.5-2.365l-0.72-0.2c-0.272-0.415-0.821-0.856-1.646-1.341
	c-0.758-0.552-1.268-0.989-1.544-1.335c-1.506-0.688-4.457-3.225-8.842-7.612c-4.389-4.458-6.994-7.543-7.818-9.258
	c-0.622-1.16-1.339-3.082-2.163-5.755c-0.202-1.578-0.304-3.534-0.304-5.868c0-3.494,0.24-6.75,0.72-9.765
	c-0.067-0.14-0.104-0.343-0.104-0.628c0-0.539,0.171-1.569,0.513-3.075c0.346-1.51,0.514-2.499,0.514-2.987v-0.202
	c0.412-1.237,0.653-1.957,0.724-2.163c0.405-0.754,1.062-1.544,1.956-2.364c0.682-0.755,1.709-1.776,3.085-3.085
	c0.685-0.618,1.712-1.513,3.081-2.68c0.895-0.545,1.991-1.468,3.294-2.771l0.308-0.21c0.07-0.133,0.786-0.652,2.163-1.54
	c1.369-0.895,2.158-1.37,2.365-1.439c1.984-1.307,5.726-3.12,11.21-5.45c5.824-2.47,9.733-3.77,11.725-3.912
	c1.503-0.682,3.05-1.095,4.626-1.233c0.688-0.063,1.582-0.172,2.679-0.305l0.096,0.102c0.14-0.14,0.308-0.206,0.52-0.206
	c0.069,0,0.241,0.066,0.511,0.206c0.349,0.069,0.586,0.102,0.723,0.102v0.102c0,1.1,1.468,3.05,4.43,5.862
	c0.744,1.03,2.46,2.679,5.133,4.939c0.618,0.206,1.646,0.827,3.088,1.854c1.921,1.369,3.015,2.156,3.287,2.362
	c-4.045,2.945-6.306,4.974-6.784,6.064c-1.23,1.307-2.606,2.746-4.115,4.318h-0.412c-0.343-0.545-1.506-1.503-3.497-2.872
	c-1.576-1.034-2.362-2.096-2.362-3.189c-0.688-0.688-1.743-1.478-3.196-2.372c-0.538-0.481-1.433-1.233-2.663-2.257v-0.104
	c-0.349-0.07-1.173-0.653-2.473-1.744c-1.3-1.17-2.327-1.785-3.085-1.854c-0.136-0.14-0.308-0.206-0.517-0.206
	c-0.894,0-2.536,0.72-4.934,2.159c-2.127,1.232-3.465,2.162-4.014,2.773c-2.33,1.037-5.212,3.77-8.636,8.228
	c-3.634,4.733-5.453,8.335-5.453,10.799v0.216c-0.482,0.679-0.721,1.604-0.721,2.771c0,0.892,0.34,2.952,1.027,6.17l0.102,0.102
	c0.688,2.33,1.82,4.769,3.396,7.305v0.102c2.124,2.882,4.186,5.212,6.17,6.994l0.102-0.102c3.703,4.049,8.434,7.473,14.194,10.285
	c0.758,0.275,1.785,0.786,3.091,1.541c0.679,0,1.607,0.174,2.771,0.52c1.167,0.272,1.987,0.44,2.47,0.511
	c0.137-0.346,0.212-0.615,0.212-0.821v-0.104c0-0.137,0.029-0.34,0.102-0.618v-1.027c0-2.124,0.096-3.431,0.312-3.906v-2.162
	c0-5.073,0.031-7.711,0.098-7.92c-0.206-3.497-0.381-5.415-0.511-5.758c-0.558-1.376-2.165-2.371-4.838-2.98h-0.102
	c-0.545-0.139-0.792-0.215-0.723-0.215h-0.102c-0.618-0.473-2.403-0.85-5.352-1.126c0.069-0.409,0.444-1.439,1.132-3.085
	c0.758-1.648,1.271-2.567,1.544-2.783h0.203c2.473,0,4.533,0.247,6.176,0.723c0.824,0.14,4.115,0.206,9.88,0.206
	c3.215,0,5.034-0.035,5.437-0.099l0.213,0.099c1.509-0.13,3.703-0.301,6.582-0.511C594.445,379.5,595.339,380.869,596.297,382.521
	L596.297,382.521z"/>
<path fill-rule="evenodd" clip-rule="evenodd" stroke="#000000" stroke-width="0.435" d="M697.809,366.367v1.136
	c0,9.46-0.96,18.104-2.878,25.918v0.203c0,0.343-0.279,1.062-0.824,2.162v0.206c0,0.203-0.175,0.444-0.514,0.717
	c-0.273,0.209-0.412,0.381-0.412,0.517c-1.37,1.709-3.393,3.84-6.075,6.376c-0.608,0.552-1.433,1.439-2.46,2.673
	c0-0.066-0.076-0.104-0.206-0.104c-0.07,0-0.175,0.038-0.314,0.104c-0.476,0.824-2.704,2.645-6.683,5.456
	c-3.973,2.739-6.652,4.382-8.021,4.934c-0.892,0.343-2.023,0.894-3.399,1.646c-0.751,0.206-2.529,0.891-5.345,2.055l-0.203,0.412
	h-0.209c-0.824,0-2.194-0.244-4.109-0.72c-0.824-0.14-1.788-0.336-2.885-0.622l-0.099-0.202h-0.111c-0.545,0-1.537-0.2-2.977-0.615
	c-1.37-0.479-2.19-0.856-2.47-1.132c-1.579-0.066-4.598-1.373-9.049-3.909c-4.458-2.537-7.305-4.524-8.535-5.967l-0.209-0.511
	c-0.272-0.343-0.786-0.758-1.544-1.233c-4.458-3.982-7.505-7.647-9.15-11.008c-0.409-0.824-0.618-3.184-0.618-7.096
	c0-8.979,0.482-15.256,1.439-18.819c0.482-0.279,0.717-1.408,0.717-3.399c0.761-0.545,3.469-3.805,8.129-9.771
	c1.236-1.366,3.189-3.151,5.862-5.345c0.206-0.409,1.887-1.82,5.038-4.217c3.228-2.397,5.009-3.634,5.352-3.703
	c1.991-1.034,4.356-2.502,7.096-4.423c0.615-0.276,1.509-0.618,2.67-1.024c10.082,3.078,17.148,5.758,21.194,8.019
	c4.049,2.264,7.644,4.866,10.795,7.814c1.722,1.855,3.431,3.669,5.143,5.454c0.482,0.688,0.929,1.097,1.338,1.229l-0.101,0.102
	c0.349,0.488,0.786,1.104,1.338,1.852c0.618,0.685,1.338,1.858,2.155,3.5c0.209,0.346,0.552,0.786,1.034,1.338H697.809
	L697.809,366.367z M686.281,387.141c-0.061-1.709-0.127-3.459-0.196-5.237c-0.213-2.474-0.755-4.775-1.646-6.896
	c-0.07-0.069-0.346-0.611-0.821-1.646c-0.482-1.027-0.758-1.648-0.824-1.852c-0.412-0.278-1.373-1.677-2.879-4.217v0.108
	c-0.482-0.622-1.173-1.51-2.061-2.683c-0.615-0.343-1.402-1.094-2.365-2.261c-0.892-1.163-1.678-1.911-2.365-2.26
	c-0.758-0.688-1.985-1.713-3.703-3.085c-1.579-1.101-2.746-1.849-3.494-2.261c-1.373-0.758-2.717-1.274-4.018-1.544l-0.199-0.305
	c-0.343-0.079-1.408-0.313-3.192-0.726c-1.304-0.276-2.432-0.416-3.396-0.416h-0.615c-0.272,0-0.717-0.034-1.335-0.098
	c-0.618-0.073-1.101-0.102-1.442-0.102c-0.688,0-1.266,0.136-1.744,0.405l-0.107-0.095c-3.494,0.406-6.037,1.23-7.612,2.467h-0.104
	c-0.958,0.611-2.499,1.541-4.623,2.777l-0.723,0.717c-0.206,0.202-0.583,0.517-1.129,0.929c-0.552,0.751-1.373,1.949-2.47,3.595
	c-0.412,0.622-1.03,2.166-1.854,4.626c-0.682,1.991-1.024,4.286-1.024,6.896c0,4.595,1.17,9.186,3.494,13.782
	c2.197,4.255,5.11,7.92,8.741,11.008c0.758,0.615,2.229,1.674,4.429,3.189c2.258,1.434,3.703,2.261,4.315,2.467
	c0.754,0.482,2.403,1.135,4.939,1.95c2.536,0.821,4.35,1.233,5.453,1.233h0.308c0.545,0.14,1.303,0.212,2.261,0.212
	c0.481,0,2.162-0.241,5.041-0.723c4.039-1.303,7.264-3.015,9.67-5.14v-0.107C682.692,399.112,685.121,394.207,686.281,387.141
	L686.281,387.141z"/>
<path fill-rule="evenodd" clip-rule="evenodd" stroke="#000000" stroke-width="0.4347" d="M823.284,339.317
	c-0.888,3.018-2.055,5.792-3.494,8.328c-1.988,5.559-5.143,13.751-9.464,24.588h-0.099c-0.481,1.097-1.274,3.151-2.371,6.169
	c-2.945,7.4-6.994,18.439-12.137,33.119l-0.511,1.129v0.311c0,0.272-0.174,0.72-0.517,1.338c-0.272,0.545-0.406,0.992-0.406,1.332
	c-0.345,0.481-0.52,0.926-0.52,1.344c0,0.343-0.549,0.853-1.643,1.541v-0.102l-0.412,0.203l-0.203-0.102
	c-0.551,0.069-1.338,0.203-2.371,0.409c-0.063,0-0.171,0-0.305,0c-0.139-0.066-0.244-0.104-0.313-0.104
	c-0.618,0-1.433,0.171-2.467,0.517c-0.479,0-1.201,0.136-2.159,0.412v-0.206l0.311-0.618c0-0.549-0.136-1.367-0.412-2.464
	c-0.206-0.549-1.331-3.982-3.393-10.291v-0.099c-1.712-5.212-5.481-15.874-11.312-31.993c-0.412,0.824-0.895,2.127-1.446,3.906
	c0,0-0.069,0.079-0.206,0.216c-0.06,0.336-0.346,1.128-0.821,2.364c-0.136,0.14-0.24,0.409-0.311,0.818
	c0,0.412-0.066,0.755-0.206,1.03c-0.063,0.206-0.304,0.752-0.716,1.646c-0.137,0.552-0.409,1.167-0.821,1.852
	c0,0.209-0.108,0.514-0.312,0.926c-0.202,0.412-0.307,0.755-0.307,1.027c-0.276,1.101-0.856,2.676-1.754,4.736v0.096
	c0,0.279-0.133,0.59-0.409,0.929c-0.202,0.343-0.308,0.583-0.308,0.72v0.209c-0.202,1.098-0.754,2.701-1.639,4.832
	c-0.079,0.412-0.244,0.859-0.517,1.335v0.206c-0.552,1.307-1.236,3.357-2.061,6.173c-0.755,2.742-1.408,4.766-1.96,6.065
	c-0.27,1.1-0.779,2.609-1.534,4.527c-0.279,0.275-0.685,0.405-1.236,0.405c0,0-0.378,0.111-1.136,0.317l-0.304-0.104
	c-1.233,0.409-2.536,0.723-3.906,0.923c-0.488,0.272-1.097,0.488-1.854,0.614v-0.51c0-0.688-0.241-1.779-0.72-3.288
	c-0.482-1.579-0.717-2.574-0.717-2.986c0-0.203,0.038-0.343,0.095-0.412c-0.342-0.134-0.649-0.92-0.926-2.365l-1.642-5.244
	c-0.958-3.019-1.548-4.698-1.75-5.038c-0.615-1.921-1.611-4.733-2.98-8.434l0.102-0.104c-0.272-1.3-0.996-3.091-2.156-5.346
	c-0.279-1.236-0.999-3.056-2.156-5.453c-1.103-2.403-1.791-4.255-2.061-5.555c-0.824-2.47-1.819-5.278-2.983-8.439l-4.321-10.278
	c-0.412-0.961-0.618-1.541-0.618-1.744l-0.723-1.037h0.104l-0.311-0.922c-0.063-0.14-0.818-1.611-2.258-4.427
	c-0.343,0-0.926,0.07-1.753,0.203c-0.061-0.057-0.168-0.095-0.308-0.095c-0.409,0-1.366,0.203-2.879,0.615
	c-1.437,0.342-2.296,0.514-2.574,0.514v-0.102c1.033-1.437,2.473-4.15,4.327-8.123h2.055c0.143,0.196,0.821,0.308,2.052,0.308
	c0.481,0,1.097-0.035,1.854-0.111c0.618,0,0.999,0,1.129,0c7.066,0.213,13.648,0.317,19.755,0.317c2.673,0,6.269-0.275,10.799-0.827
	c-0.073,0.345-0.279,0.827-0.622,1.439c0-0.27-0.408,0.827-1.229,3.294l0.099,0.514c0,0.548-0.131,1.436-0.409,2.676
	c0.202,0.27,0.311,0.514,0.311,0.717c0,0.206-0.178,0.311-0.521,0.311c-0.272,0-0.748-0.07-1.439-0.206
	c-0.614-0.137-0.988-0.206-1.131-0.206h-0.099l-0.615,0.206h-1.236c-0.21-0.067-0.546-0.104-1.034-0.104h-1.128
	c-0.479,0.069-2.467,0.206-5.967,0.415c-0.134,0.136-0.203,0.308-0.203,0.511c0,0.278,0.755,2.916,2.261,7.923
	c0.415,1.227,0.96,2.809,1.648,4.727c0,0.412,0.275,1.376,0.818,2.886c0.624,1.439,0.926,2.226,0.926,2.361l1.03,2.673
	c0,0.21,0.069,0.479,0.202,0.821c0.213,0.346,0.314,0.621,0.314,0.827c0.751,1.579,1.646,4.078,2.676,7.512
	c1.163,1.914,1.816,3.699,1.949,5.349c0.279,0.336,1.104,2.428,2.474,6.271c0.679-1.369,2.844-8.332,6.48-20.881
	c0.888-3.703,1.987-7.682,3.284-11.927c0-0.488,0.143-1.236,0.412-2.264c0.343-1.034,0.518-1.852,0.518-2.47l0.104,0.104
	c0.548-1.922,1.338-4.769,2.361-8.538l0.206-0.206v-0.311c0,0.551,0.172-0.206,0.514-2.261v-0.102c0,0.136,0.172-0.311,0.514-1.338
	c0.412-0.073,0.895-0.171,1.446-0.314h0.611c0.552,0,1.373-0.095,2.47-0.304c1.167-0.203,1.988-0.311,2.467-0.311h0.314
	c0.066,0.481,0.855,3.804,2.365,9.98c0.275,1.027,2.02,6.303,5.243,15.84l-0.098,0.095c0.199,0.412,0.44,1.065,0.71,1.959
	c1.445,4.115,2.162,6.411,2.162,6.893c0.552,1.301,0.856,2.125,0.933,2.461c0.13,0.278,0.44,1.135,0.919,2.58
	c0.552,1.367,0.824,2.197,0.824,2.464l1.953,5.146l0.203,0.102v0.099c0.418,1.17,0.894,2.368,1.445,3.602
	c0.609-1.852,1.573-4.458,2.876-7.815c0.073-0.542,0.412-1.439,1.03-2.676c0.615-1.3,0.926-2.261,0.926-2.872v-0.108
	c0.685-1.921,1.37-3.836,2.058-5.758c1.03-3.018,1.538-4.901,1.538-5.662v-0.199c0.275-1.031,0.723-2.565,1.344-4.626
	c0.682-2.061,1.37-4.356,2.055-6.896l0.209-0.199v-0.111c0,0.622,0.21-0.304,0.609-2.773c-0.137-0.07-0.577-0.276-1.332-0.615
	c-1.984-0.824-4.146-1.236-6.48-1.236v0.102c-0.615,0-1.475-0.07-2.571-0.203c-0.063,0-0.099,0-0.099,0
	c-0.069,0.069-0.143,0.102-0.212,0.102c-0.063-0.067-0.165-0.102-0.305-0.102l0.099-0.412c0.275-0.273,0.517-0.552,0.723-0.824
	c0.552-1.367,1.475-3.361,2.777-5.964c0.137,0,0.272-0.035,0.412-0.102c0.206,0,0.346,0,0.412,0c0.343,0,0.821,0.028,1.434,0.102
	c0.627,0.066,1.071,0.104,1.338,0.104h0.517c2.33-0.206,5.868-0.583,10.599-1.132c0.273-0.073,0.818-0.244,1.643-0.514
	c0.891-0.276,1.506-0.415,1.852-0.415h0.209c0.272-0.067,0.679-0.206,1.23-0.412C817.735,340.417,820.132,339.933,823.284,339.317
	L823.284,339.317z"/>
<path d="M371.139,146.78c0,0,1.538-0.815,3.762-0.646c4.542,0,27.508,7.525,27.508,35.162l-18.685-7.527
	C383.724,173.769,386.579,157.032,371.139,146.78L371.139,146.78z"/>
<path fill="#9FD6F6" d="M428.637,207.197l-2.866-2.768l-2.631,2.727c-1.454-1.354-2.917-2.659-4.39-3.917l2.792-2.893l-4.46-4.306
	l-3.152,3.264c-25.925-20.163-53.228-25.695-65.473-12.508c-9.593,10.331-9.104,30.763,0.103,52.712l-19.259-0.951
	c-10.006-24.579-8.907-48.147,3.415-60.58c19.237-19.41,64.185-8.399,99.635,26.351 M470.641,281.002
	c-0.073,10.225-3.053,18.842-9.21,24.555c-17.926,16.636-58.307,11.087-92.029-15.148l38.78-6.67
	c21.311,13.357,41.608,16.857,50.022,7.799c2.144-2.312,3.491-5.361,4.09-8.988"/>
<path d="M422.995,126.814c2.877,6.241,5.514,10.48,5.231,10.661l-3.343,16.856c0,0-0.989-10.884-2.226-14.596
	c-1.238-3.711-3.218-9.192-3.218-8.906c0,0-2.051-17.168-1.979-17.317c0,0,3.06,1.241,3.066,1.162
	C420.527,114.674,420.12,120.573,422.995,126.814L422.995,126.814z"/>
<path d="M458.961,158.331c0,0,11.195,0.198,10.872,5.304c0,0-0.717,4.752-2.949,2.292c0,0-2.562-2.072-8.288-1.815
	c0,0-5.596,0.44-11.16,3.256l-3.12-2.744C444.317,164.624,451.691,158.199,458.961,158.331L458.961,158.331z"/>
<path d="M438.499,149.486c-0.428,7.868,6.243,4.876,6.243,4.876s5.215-1.712,10.691-2.053c7.818-0.488,19.704,2.158,19.704,2.158
	c1.376,0.196,0.98-2.228,0.98-2.228c0.066,0-0.457-1.636-0.457-1.636c-0.59-1.703-1.734-1.428-1.998-1.428
	c-0.26,0-3.722,0.482-9.422,0.567c-5.701,0.089-18.884-3.243-21.8-3.637C439.195,145.667,438.499,149.486,438.499,149.486
	L438.499,149.486z M434.195,149.878c0,0-0.261-7.63,5.791-7.63c6.049,0,16.312,5.876,26.245,5.474l7.856-0.655
	c0,0,4.401-0.521,5.96,3.863c0,0,3.088,8.067-1.503,6.745c0,0-11.99-3.348-18.411-3.228c-0.459,0-6.667-0.086-10.339,1.394
	c0,0-6.423,2.796-8.475,2.882C441.321,158.724,434.195,158.734,434.195,149.878L434.195,149.878z"/>
<path d="M494.486,118.823c0,0,3.735-3.21,3.662-3.21c0,0-0.061,15.165,0.225,15.165c0,0-2.999,1.676-5.38,6.874
	c-3.288,7.172-7.416,24.752-7.825,24.766c0,0,2.521-19.836,4.854-26.151c2.441-6.609,4.54-9.597,4.489-9.611
	C494.512,126.654,494.512,118.928,494.486,118.823L494.486,118.823z"/>
<path d="M481.405,202.149l-0.736,1.549c-6.442,11.694-5.307,24.674,2.537,28.993c7.837,4.32,19.416-1.657,25.858-13.353
	c6.436-11.691,5.301-24.671-2.536-28.993c-6.009-3.308-14.204-0.575-20.608,6.143l-2.683,0.819l3.843-11.688
	c0,0-12.523,15.028-37.563,21.372l0.333,6.679c0,0,12.355-4.841,15.862-6.179C469.218,206.157,481.405,202.149,481.405,202.149
	L481.405,202.149z M410.309,131.029l-0.978-7.755c0,0-1.71,0.014-1.812-2.297c0,0-4.835-4.757-6.132-14.217
	c0,0-0.126-4.591,1.813-4.738v-1.58c0,0-0.349-2.841-3.026-2.841c-1.59,0-2.969,1.983-2.969,7.723c0,0,0.14,5.888,3.484,10.481
	c0,0,3.416,4.724,3.625,7.326c0,0-0.42,3.159,1.95,5.742C409.041,131.903,410.309,131.029,410.309,131.029L410.309,131.029z
	 M507.353,134.306c0,0,1.262,0.874,4.039-2.151c2.371-2.587,1.953-5.747,1.953-5.747c0.202-2.6,3.62-7.322,3.62-7.322
	c3.342-4.596,3.481-10.483,3.481-10.483c0-5.74-1.376-7.723-2.961-7.723c-2.676,0-3.031,2.841-3.031,2.841v1.58
	c1.94,0.149,1.813,4.738,1.813,4.738c-1.294,9.459-6.132,14.217-6.132,14.217c-0.102,2.311-1.813,2.297-1.813,2.297L507.353,134.306
	L507.353,134.306z M459.37,181.012c7.099,0,13.215,1.208,13.215,1.208c2.65,0.769,6.414,1.367,6.414,1.367
	c7.764,0,12.616-9.992,12.616-9.992l8.167-18.655c0-14.158,2.993-18.216,2.993-18.216c0.168-0.258,0.85-1.71,0.85-1.71
	c0.26-4.875,2.482-6.216,2.482-16.505c0-10.292-7.866-20.781-7.866-20.781s-4.252,0.555-4.67,1.148l2.711,4.497l-1.205-0.049
	c-2.657,0-5.155,0.682-7.324,1.88c0,0,5.149,3.232,6.417,4.496c0.14,0.141-3.367,0.942-3.367,0.942
	c-10.836-6.703-18.651,1.198-18.651,1.198l-3.798-12.615l-0.39-2.373l47.12-9.236l8.465,7.183l12.054,0.77
	c0,0-33.093,41.05-2.308,122.122c0,0-14.108,10.005-28.734,10.775c0,0-0.253,45.703-37.453,69.303c0,0,3.875-6.848,3.361-19.606
	c2.397-1.718,5.117-5.296,4.569-6.637c-0.625-1.53-2.825-6.173-2.825-6.173c0.625-1.957,1.931-4.716,1.931-4.716
	c0-2.746-1.598-6.876-1.598-6.876c-1.813-2.873-2.181-6.856-2.181-6.856c2.324-6.507-3.741-10.91-3.741-10.91
	c-5.418-3.692-5.608-7.792-5.608-7.792c0-3.909-3.424-4.973-5.301-5.299c-1.068-0.186-4.458,0.751-7.178,1.592
	c-1.579-2.17-3.262-4.382-5.06-6.636c5.453-7.937,1.953-15.525,1.953-15.525c0-4.56-4.166-1.154-4.166-1.154l-5.003,4.887
	c-0.493,0.417-1.076,0.85-1.729,1.292c-2.134-2.357-4.388-4.752-6.772-7.189c0,0-10.046-30.762-14.041-50.731
	c0,0-1.998-9.416-6.389-13.59c0,0-7.053-5.86-6.409-13.056c0,0-6.335-7.731-6.291-17.986c0,0,0.385-7.311,3.592-12.956
	c0,0,2.437-3.337,6.03-4.234c0,0,17.188,8.852,45.279,11.417l-3.799,12.615c0,0-7.815-7.899-18.65-1.197
	c0,0-3.507-0.802-3.366-0.943c1.264-1.262,6.416-4.494,6.416-4.494c-2.172-1.2-4.667-1.88-7.324-1.88
	c-0.406,0-0.807,0.014-1.205,0.047l2.711-4.497c-0.418-0.595-4.67-1.147-4.67-1.147s-7.869,10.489-7.869,20.781
	s2.226,11.631,2.481,16.505c0,0,0.685,1.452,0.854,1.71c0,0,2.995,4.06,2.995,18.214l8.167,18.657c0,0,4.851,9.993,12.614,9.993
	c0,0,3.765-0.599,6.416-1.368c0,0,6.112-1.208,13.214-1.208L459.37,181.012L459.37,181.012z"/>
<path d="M517.099,90.244c0,0-8.237-85.37-58.35-90.231L458.729,0c-50.301,5.56-57.899,90.005-57.899,90.005
	c25.795,9.751,46.035,10.566,46.035,10.566l-3.871,33.096c0,0,6.192,2.565,15.735,2.565l0.02,0.012
	c9.543,0,15.738-2.565,15.738-2.565l-3.874-33.096C470.613,100.583,491.304,99.994,517.099,90.244L517.099,90.244z M460.461,132.136
	c-6.075,0-10.494-1.289-10.494-1.289l2.539-34.549c0,0-22.409-1.885-44.077-9.324l2.064-12.059c0,0,15.145,4.126,19.275,4.897
	c0-26.683,13.687-68.454,29.558-74.082c40.566,10.393,49.51,81.806,49.51,81.806c-21.572,8.774-42.199,8.625-42.199,8.625
	l3.333,34.806C469.969,130.968,466.535,132.136,460.461,132.136L460.461,132.136z"/>
<path d="M506.338,203.338c1.509,3.942,1.147,9.045-1.363,13.698c-4.018,7.446-12.01,10.929-17.851,7.777
	c0,0-4.717-2.127-4.052-7.303c0.669-5.176,2.505-5.344,3.507-5.01c0,0,0.837,0.501,0.837,1.669c0,0-0.501,1.17,1.167,1.837
	c1.668,0.667,10.685,2.172,14.691-12.021c0,0,0.502-2.671,1.332-2.837C505.443,200.981,506.338,203.338,506.338,203.338
	L506.338,203.338z"/>
<path d="M538.975,229.961c0,0-9.575,19.841-35.566,25.312c0,0,17.78,6.159,3.418,28.732
	C506.826,284.005,545.823,264.852,538.975,229.961L538.975,229.961z"/>
<path d="M433.786,85.349c0.838-2.032,3.045-3.048,4.932-2.271l0.001,0.001c-0.38-0.373-0.824-0.691-1.341-0.905
	c-2.308-0.951-5.009,0.293-6.038,2.782c-1.024,2.487,0.015,5.277,2.322,6.227c1.495,0.619,3.15,0.301,4.414-0.667
	c-0.774,0.244-1.609,0.244-2.394-0.08C433.797,89.658,432.949,87.381,433.786,85.349L433.786,85.349z"/>
<path d="M416.81,85.899c-1.444,0-2.614-1.456-2.614-3.25c0-1.793,1.169-3.248,2.614-3.248c0.669,0,1.273,0.32,1.736,0.834
	c-0.601-1.274-1.684-2.132-2.929-2.132c-1.896,0-3.431,1.962-3.431,4.383c0,2.422,1.535,4.386,3.431,4.386
	c1.002,0,1.897-0.563,2.525-1.441C417.751,85.722,417.3,85.899,416.81,85.899L416.81,85.899z"/>
<path d="M503.123,85.736c-1.442,0-2.612-1.455-2.612-3.25c0-1.793,1.17-3.247,2.612-3.247c0.669,0,1.274,0.32,1.737,0.832
	c-0.6-1.274-1.681-2.132-2.93-2.132c-1.896,0-3.431,1.962-3.431,4.385c0,2.422,1.534,4.385,3.431,4.385
	c1.005,0,1.899-0.562,2.523-1.441C504.062,85.559,503.611,85.736,503.123,85.736L503.123,85.736z"/>
<path d="M480.974,85.062c0.834-2.034,3.044-3.052,4.934-2.273v0.001c-0.381-0.374-0.824-0.691-1.345-0.903
	c-2.308-0.953-5.009,0.293-6.036,2.78c-1.027,2.489,0.013,5.276,2.32,6.227c1.497,0.618,3.151,0.301,4.414-0.666
	c-0.774,0.239-1.607,0.241-2.391-0.081C480.983,89.369,480.134,87.091,480.974,85.062L480.974,85.062z"/>
<path d="M458.47,87.31c0.979-2.375,3.513-3.583,5.663-2.695l0,0c-0.431-0.431-0.936-0.796-1.522-1.038
	c-2.631-1.084-5.732,0.393-6.931,3.3s-0.041,6.143,2.587,7.226c1.706,0.702,3.599,0.317,5.054-0.823
	c-0.888,0.289-1.845,0.299-2.736-0.068C458.438,92.326,457.493,89.683,458.47,87.31L458.47,87.31z"/>
<path d="M720.675,173.729c1.553,19.343-5.739,37.034-20.685,45.392c-22.301,12.466-53.144-0.541-68.895-29.051
	c-15.751-28.509-10.45-61.723,11.845-74.188c4.166-2.33,8.631-3.768,13.234-4.383c-6.538,0.168-12.892,1.785-18.7,5.032
	c-23.969,13.4-29.58,49.271-12.536,80.121c17.051,30.847,50.297,44.989,74.271,31.589
	C716.692,218.468,724.391,196.741,720.675,173.729L720.675,173.729z"/>
<path d="M293.302,245.281c-2.53-1.688,8.281-21.265,27.003-21.265c12.563,0,24.639,10.632,24.639,10.632
	c9.958,2.362,55.358,2.532,55.358,2.532l0.502-6.076c3.037-16.035,14.682-18.734,14.682-18.734
	c16.877-4.724,22.109-11.644,22.109-11.644c7.259-5.233,9.789,0,9.789,0c3.374,7.255-1.015,15.694-1.015,15.694
	c-0.336,1.351-6.074,8.101-6.074,8.101l8.439-1.855c4.052-1.856,9.112-1.351,9.112-1.351c3.376,1.351,5.063,6.919,5.063,6.919
	c0.339,3.375,1.69,5.569,1.69,5.569c3.544,1.688,5.399,3.544,5.399,3.544c2.19,2.869,1.689,7.257,1.689,7.257
	s-1.015,3.037-0.171,5.063c0.843,2.026,2.022,2.532,3.037,3.882c1.015,1.349,1.519,6.244,1.015,7.593
	c-0.507,1.353-1.687,4.22-1.687,4.22c0,0.843,1.516,2.363,1.516,2.363c1.521,2.362,1.021,5.447,1.021,5.447
	c-1.503,9.907-18.325,13.509-18.325,13.509c-31.232,8.712-46.25-4.502-46.25-4.502c2.432-0.031,4.778-0.088,7.039-0.165
	c40.416,1.588,51.788-3.947,51.788-3.947c2.191-1.626,4.911-5.205,4.363-6.545c-0.625-1.53-2.825-6.173-2.825-6.173
	c0.625-1.957,1.931-4.716,1.931-4.716c0-2.746-1.598-6.876-1.598-6.876c-1.813-2.873-2.181-6.856-2.181-6.856
	c2.324-6.507-3.741-10.91-3.741-10.91c-5.418-3.692-5.608-7.792-5.608-7.792c0-3.909-3.424-4.973-5.301-5.299
	c-1.877-0.325-10.907,2.806-10.907,2.806c-4.064,2.279-7.793,0.935-7.793,0.935c-2.188-2.606,3.117-4.986,3.117-4.986
	c10.003-9.121,5.298-19.325,5.298-19.325c0-4.56-4.166-1.154-4.166-1.154l-5.003,4.887c-5.003,4.233-19.384,10.098-19.384,10.098
	c-9.69,5.212-9.066,13.027-9.066,13.027l0.501,5.653l-0.366,2.287c0,3.305-3.605,4.206-3.605,4.206
	c-14.113,0-62.17,2.403-62.17,2.403l-3.001,2.104c-4.507-3.604-10.515-8.411-24.629-8.411
	C300.42,237.432,293.302,245.281,293.302,245.281L293.302,245.281z"/>
<path d="M785.567,80.631l-92.07,90.336l-5.58,8.113c0,0-11.718,4.868-21.204-2.704c0,0-11.16-8.656-5.573-23.26h2.783
	c0,0,0,11.902,11.16,12.442L785.567,80.631L785.567,80.631z"/>
<path d="M393.749,117.799c0,0-24.536-7.01-37.777,12.465c0,0-23.091-12.809-51.411,10.517
	c-19.865,16.356-18.306,46.346-18.306,46.346s-35.443,15.58-35.832,50.243c0,0-19.084,16.358-21.031,50.238
	c0,0,1.557,13.63,13.632,14.02l14.41,0.777c0,0,37,14.416,71.662-1.554c0,0,35.054-3.507,77.507-15.189
	c0,0,4.445-3.021,7.181-10.545c0,0-56.1,11.626-67.73,10.26c0,0,5.472-9.578,1.368-15.733c0,0-17.788,26.678-61.574,26.678
	c0,0-43.101,1.372-29.417-35.573c0,0-10.946,4.104-14.367,9.58c0,0,1.368-20.524,17.788-32.155l2.051,6.157
	c0,0,3.421-28.051,38.997-43.786c0,0-10.261-26.681,12.998-50.627c0,0,21.209-22.577,51.314-14.366
	C365.21,135.549,369.312,119.811,393.749,117.799L393.749,117.799z"/>
<path d="M734.022,288.602c46.511-31.483,50.601-106.672,9.124-167.934c-1.179-1.744-2.384-3.456-3.607-5.14l4.901-3.76
	c1.167,1.606,2.309,3.237,3.431,4.897c44.45,65.659,40.284,147.88-13.278,184.136c-53.562,36.261-133.008,12.426-177.464-53.229
	c-44.444-65.661-37.063-148.283,16.492-184.541c51.254-34.696,123.262-14.004,168.327,45.37l-5.605,2.882
	c-42.129-54.271-108.449-74.357-152.506-44.528c-46.511,31.488-50.601,106.679-9.125,167.94
	C616.182,295.958,687.512,320.095,734.022,288.602L734.022,288.602z"/>
<path stroke="#000000" stroke-width="0.621" d="M151.682,454.009c-1.211,4.094-2.796,7.859-4.752,11.303
	c-2.701,7.533-6.988,18.649-12.856,33.344h-0.139c-0.653,1.49-1.725,4.28-3.215,8.377c-4.008,10.05-9.505,25.034-16.493,44.951
	l-0.697,1.534v0.419c0,0.374-0.209,0.954-0.628,1.746c-0.418,0.793-0.628,1.421-0.628,1.884c-0.466,0.653-0.697,1.233-0.697,1.747
	s-0.745,1.233-2.235,2.162v-0.14l-0.558,0.279l-0.279-0.14c-0.745,0.082-1.816,0.241-3.211,0.481c-0.095,0-0.235,0-0.418,0
	c-0.188,0-0.327,0-0.419,0c-0.837,0-1.953,0.226-3.348,0.676c-0.653,0-1.633,0.181-2.933,0.542v-0.279l0.418-0.837
	c0-0.745-0.187-1.864-0.558-3.354c-0.279-0.741-1.817-5.399-4.607-13.966v-0.14c-2.327-7.073-7.447-21.55-15.357-43.432
	c-0.558,1.115-1.211,2.885-1.953,5.304l-0.279,0.279c-0.095,0.466-0.466,1.537-1.119,3.212c-0.187,0.187-0.304,0.561-0.349,1.119
	c-0.047,0.558-0.14,1.002-0.279,1.325c-0.14,0.326-0.488,1.094-1.046,2.302c-0.187,0.745-0.558,1.582-1.116,2.514
	c0,0.279-0.139,0.698-0.418,1.256c-0.279,0.558-0.418,1.024-0.418,1.395c-0.374,1.49-1.167,3.634-2.375,6.424v0.14
	c0,0.374-0.165,0.792-0.488,1.255c-0.327,0.467-0.488,0.793-0.488,0.977v0.279c-0.279,1.49-1.024,3.678-2.235,6.563
	c-0.095,0.558-0.326,1.163-0.697,1.813v0.278c-0.745,1.77-1.652,4.54-2.724,8.311c-1.071,3.77-1.979,6.537-2.72,8.303
	c-0.374,1.49-1.072,3.538-2.096,6.145c-0.374,0.374-0.932,0.559-1.674,0.559l-1.535,0.418l-0.418-0.14
	c-1.677,0.529-3.446,0.923-5.304,1.186c-0.653,0.353-1.493,0.615-2.514,0.793v-0.697c0-0.929-0.327-2.438-0.98-4.531
	c-0.653-2.092-0.976-3.414-0.976-3.972c0-0.279,0.044-0.463,0.139-0.559c-0.466-0.184-0.884-1.256-1.255-3.208l-2.235-7.108
	c-1.303-4.09-2.092-6.366-2.372-6.833c-0.837-2.603-2.188-6.413-4.048-11.433l0.139-0.14c-0.374-1.766-1.351-4.182-2.933-7.25
	c-0.374-1.671-1.328-4.135-2.863-7.388s-2.489-5.764-2.86-7.53c-1.116-3.345-2.466-7.155-4.045-11.433l-5.865-13.943
	c-0.558-1.3-0.837-2.09-0.837-2.368l-0.976-1.396h0.139l-0.418-1.255c-0.095-0.185-1.119-2.188-3.072-6.005
	c-0.466,0-1.258,0.095-2.375,0.278c-0.095-0.092-0.234-0.14-0.418-0.14c-0.558,0-1.839,0.292-3.839,0.872
	c-2.004,0.584-3.189,0.872-3.561,0.872v-0.143c1.395-1.988,3.348-5.729,5.862-11.221h2.793c0.184,0.273,1.116,0.406,2.793,0.406
	c0.65,0,1.487-0.133,2.511-0.406c0.837,0,1.348,0,1.538,0c9.584,0.457,18.519,0.686,26.803,0.686c3.627,0,8.513-0.361,14.657-1.091
	c-0.095,0.466-0.374,1.116-0.837,1.949c0-0.37-0.558,1.116-1.674,4.458l0.139,0.697c0,0.745-0.187,1.953-0.558,3.624
	c0.279,0.371,0.418,0.694,0.418,0.974s-0.235,0.418-0.698,0.418c-0.374,0-1.002-0.057-1.886-0.174
	c-0.885-0.117-1.42-0.178-1.604-0.178H50.43h-0.837h-1.677c-0.279,0-0.745,0-1.395,0h-1.534c-0.653,0.095-3.351,0.279-8.098,0.558
	c-0.187,0.188-0.279,0.419-0.279,0.698c0,0.374,1.024,3.95,3.072,10.735c0.558,1.674,1.3,3.813,2.232,6.413
	c0,0.559,0.393,1.839,1.186,3.837c0.793,1.997,1.189,3.091,1.189,3.274l1.395,3.628c0,0.278,0.114,0.652,0.349,1.115
	c0.231,0.467,0.349,0.837,0.349,1.116c1.021,2.137,2.232,5.529,3.63,10.178c1.579,2.605,2.464,5.021,2.651,7.251
	c0.374,0.466,1.49,3.3,3.351,8.506c0.929-1.861,3.861-11.309,8.795-28.341c1.208-5.022,2.698-10.421,4.467-16.191
	c0-0.653,0.209-1.678,0.627-3.072c0.418-1.396,0.628-2.515,0.628-3.352l0.14,0.14c0.742-2.625,1.813-6.516,3.211-11.671l0.279-0.278
	v-0.422c0,0.748,0.231-0.282,0.701-3.095v-0.14c0,0.188,0.231-0.421,0.697-1.829c0.558-0.092,1.208-0.231,1.956-0.422h0.837
	c0.742,0,1.883-0.066,3.418-0.202c1.535-0.134,2.628-0.203,3.281-0.203h0.419c0.092,0.649,1.163,5.143,3.211,13.48
	c0.371,1.392,2.743,8.528,7.118,21.407l-0.14,0.14c0.279,0.558,0.603,1.437,0.977,2.638c1.953,5.562,2.933,8.668,2.933,9.314
	c0.742,1.764,1.186,2.851,1.326,3.266c0.139,0.419,0.561,1.576,1.258,3.476c0.698,1.902,1.046,3.037,1.046,3.404l2.654,6.95
	l0.279,0.14v0.14c0.558,1.575,1.208,3.195,1.953,4.863c0.837-2.511,2.14-6.05,3.909-10.608c0.092-0.745,0.558-1.979,1.395-3.7
	s1.259-3.002,1.259-3.839v-0.14c0.929-2.606,1.861-5.213,2.793-7.818c1.395-4.094,2.093-6.652,2.093-7.68v-0.278
	c0.371-1.396,0.999-3.487,1.883-6.281c0.884-2.79,1.792-5.909,2.723-9.353l0.279-0.282v-0.14c0,0.84,0.279-0.415,0.837-3.767
	c-0.187-0.092-0.792-0.371-1.813-0.84c-2.701-1.116-5.631-1.674-8.795-1.674v0.14c-0.837,0-2-0.093-3.491-0.279h-0.14
	c-0.095,0.095-0.187,0.14-0.279,0.14c-0.095-0.092-0.234-0.14-0.418-0.14l0.139-0.559c0.371-0.37,0.698-0.744,0.98-1.119
	c0.742-1.857,2-4.559,3.773-8.097c0.184,0,0.371-0.045,0.558-0.14c0.279,0,0.463,0,0.558,0c0.466,0,1.119,0.048,1.957,0.143
	c0.837,0.095,1.442,0.14,1.816,0.14h0.701c3.164-0.264,7.961-0.748,14.391-1.452c0.374-0.089,1.141-0.308,2.305-0.659
	c1.164-0.353,1.979-0.53,2.448-0.53h0.279c0.371-0.095,0.929-0.291,1.677-0.586C144.136,455.572,147.396,454.891,151.682,454.009z"
	/>
<path stroke="#000000" stroke-width="0.621" d="M286,554.219v0.139c0,0.933-1.164,3.304-3.487,7.118
	c-0.279,0.187-0.792,0.279-1.535,0.279c-0.745,0-1.816-0.14-3.212-0.419c-1.395-0.279-2.279-0.418-2.65-0.418
	c-10.605-0.371-17.117-0.559-19.533-0.559c-7.907,0-14.793,0.466-20.652,1.396c-0.374-2.055-1.211-4.718-2.511-7.99l5.304-1.259
	c5.117-0.466,9.771-1.588,13.96-3.363c-3.539-9.248-6.747-15.929-9.632-20.041c-8.934-0.279-16.8-0.422-23.591-0.422
	c-9.029,0-14.521,0.374-16.474,1.123c-1.49,3.177-2.933,6.401-4.328,9.67c-2.606,5.792-3.957,9.343-4.048,10.649
	c3.443,1.496,8.42,2.897,14.936,4.204l-1.813,4.347l-1.398,3.082h-0.418c-0.745,0-5.073-0.14-12.983-0.419
	s-12.844-0.418-14.797-0.418h-0.837v0.139c-1.677-0.184-2.933-0.278-3.77-0.278c-2.422,0-5.586,0.326-9.492,0.977l3.351-8.095
	c2.885-0.279,4.651-0.463,5.304-0.558c1.953-0.371,3.256-1.116,3.909-2.235c3.906-6.513,10.095-18.979,18.566-37.402
	c7.539-16.468,12.983-28.984,16.334-37.545c2.416-6.325,5.07-12.932,7.955-19.818c5.304-0.184,9.771-0.882,13.401-2.093
	c0.374,2.235,2.654,8.285,6.842,18.145l-0.14,0.14c0.092,1.116,3.418,8.792,9.981,23.027c6.56,14.235,10.77,23.03,12.634,26.378
	v0.279c4.369,8.84,8.738,17.355,13.11,25.542c1.487,2.793,3.789,4.584,6.902,5.373C284.301,553.686,285.905,554.126,286,554.219z
	 M236.607,515.339c-0.745-1.49-1.721-3.685-2.933-6.576c-2.793-5.688-6.655-14.597-11.588-26.721c-0.374,0.279-0.862,0.98-1.465,2.1
	c-0.605,1.119-0.907,1.864-0.907,2.238c-1.211,2.704-2.888,6.946-5.025,12.729c-0.47,1.401-1.259,3.266-2.375,5.596
	c-1.116,2.612-2.559,6.204-4.328,10.773c1.3,0.278,5.815,0.418,13.541,0.418C230.742,515.896,235.771,515.713,236.607,515.339z"/>
<path stroke="#000000" stroke-width="0.621" d="M416.157,551.841l-0.14,0.139c-2.143,0.745-3.725,1.582-4.746,2.515h-0.14
	c-0.653,0.095-1.538,0.514-2.654,1.262c-3.538,1.03-7.583,3.367-12.143,7.014c-0.095-0.188-0.514-0.514-1.259-0.977
	c-0.187-1.398-2.606-4.239-7.257-8.525c-6.049-5.587-9.122-8.428-9.213-8.522c-0.932-1.211-2.467-2.467-4.606-3.773
	c-0.188-0.652-2.327-2.701-6.424-6.147c-3.538-2.98-5.443-4.474-5.723-4.474c-3.63-3.164-7.073-5.82-10.329-7.964
	c-0.095,0-1.443-0.929-4.049-2.793c0,1.211-0.14,3.075-0.418,5.586l-0.282,3.631c0.184,0.187,0.279,1.023,0.279,2.511
	c0,0.932-0.069,2.796-0.209,5.586s-0.209,4.839-0.209,6.142c0,1.861,0.092,3.024,0.279,3.487c-0.095,0.374-0.139,1.119-0.139,2.235
	v0.837c0.837,0.279,1.953,0.419,3.351,0.419c0.463,0,1.208-0.045,2.232-0.14c1.024,0,1.769,0,2.235,0
	c1.395,0,2.466,0.187,3.211,0.558c1.021-0.092,2.511-0.279,4.467-0.558l-1.956,3.211l0.14,0.14
	c-0.466,0.279-1.024,1.072-1.674,2.372l0.279,0.14c-0.837,1.211-1.861,2.979-3.072,5.307l-0.697,0.559
	c-0.558-0.374-1.072-0.562-1.535-0.562c-1.306,0-2.235-0.14-2.793-0.422c-2.514,0-4.654-0.234-6.42-0.703c-0.279,0-0.745,0-1.398,0
	c-0.374,0-1.002,0-1.883,0c-0.884,0-1.56,0-2.026,0h-1.255c-0.745,0-1.255-0.181-1.535-0.549c-2.235,0.368-4.47,0.549-6.702,0.549
	h-2.232l-0.139,0.117c-2.885,0-4.702,0.199-5.444,0.593h-0.282c-0.187,0-0.444,0.048-0.767,0.14c-0.327,0.095-0.583,0.14-0.767,0.14
	c-0.095,0-0.279-0.045-0.558-0.14c1.706-1.858,3.954-4.883,6.744-9.071c0.27-0.745,0.72-1.816,1.351-3.212
	c0.178-0.649,0.27-1.674,0.27-3.068c0.089-0.185,0.177-0.371,0.27-0.559v-0.561c0-0.371,0-3.535,0-9.489c0-7.815,0-11.816,0-12.004
	l0.44-0.278c-0.295-0.742-0.44-3.44-0.44-8.095v-6.56v-0.279v-0.977c0-0.932,0-1.629,0-2.096l-0.016-0.14
	c0-0.37,0.003-0.976,0.016-1.813c0-0.741,0-1.347,0-1.813c0-0.837,0-1.439,0-1.813c0-0.278,0-0.745,0-1.397c0-0.559,0-1.418,0-2.581
	c0-1.16,0-1.976,0-2.441c0-0.653,0-1.119,0-1.398l-0.016-0.977c0-0.741,0.003-2.185,0.016-4.324c0-2.14,0-3.675,0-4.606
	c0-1.49,0-2.327,0-2.515v-0.14c0-1.674-0.181-3.813-0.536-6.42l0.14-0.697v-0.279c0-1.766-1.233-3.278-3.7-4.533
	c-2.466-1.256-4.958-2.489-7.469-3.7l0.139-0.279c0.092-0.279,0.279-0.58,0.558-0.906c0.279-0.324,0.463-0.581,0.558-0.768v-0.279
	c0.748-2.048,1.636-3.535,2.667-4.467c3.272,0.821,7.717,1.229,13.329,1.229c1.496,0,3.741-0.044,6.734-0.139
	c2.993,0,5.143,0,6.452,0h2.78c1.3-0.371,3.199-0.559,5.704-0.559h0.834c2.131,0,3.754-0.178,4.87-0.532h0.275
	c1.021,0,1.994,0,2.923,0h2.501c1.021,0,1.763,0,2.226,0h0.694c0.371,0,0.929-0.134,1.671-0.406c0.742-0.27,1.297-0.405,1.668-0.405
	c0.463,0,1.021,0.282,1.671,0.84c0.646,0.558,1.157,0.933,1.528,1.116c0.371,0.187,0.881,0.653,1.532,1.398
	c2.409,1.677,4.587,3.681,6.537,6.008l0.694,0.418l-0.14,0.14c0.457,0.466,1.101,1.304,1.928,2.515
	c0.092,0.095,0.412,0.561,0.964,1.397l0.276,0.14c1.284,2.238,2.524,4.521,3.719,6.849c2.02,3.633,3.031,6.053,3.031,7.264
	c0,0.278,0,0.514,0,0.7v0.14c0,0.279-0.165,0.628-0.491,1.047c-0.33,0.418-0.492,0.77-0.492,1.049
	c-0.282,0.653-0.891,1.582-1.826,2.793c-0.19,0.374-0.447,0.933-0.773,1.678c-0.33,0.745-0.961,1.582-1.896,2.514
	c-2.248,4.939-7.349,10.343-15.307,16.208c-0.748,0.561-2.013,1.445-3.792,2.656l1.398,0.837v0.14
	c0.929,1.864,2.603,3.542,5.025,5.032l0.558,0.837c0.279,0.278,0.745,0.7,1.398,1.259c2.511,3.259,4.464,5.263,5.862,6.008
	c0.371,0.466,1.696,1.747,3.979,3.843c2.28,2.096,3.7,3.284,4.258,3.563c0.463,0.653,2.93,2.653,7.397,6.008
	c5.025,3.634,7.911,5.821,8.655,6.566c1.211,1.027,3.072,2.33,5.586,3.912C414.945,550.582,415.503,551.096,416.157,551.841z
	 M375.058,485.533c-0.377-1.592-1.598-4.22-3.665-7.879c-1.034-1.312-2.818-3.139-5.355-5.484v-0.14
	c-4.001-2.907-7.213-4.689-9.632-5.346c-0.745-0.188-3.538-0.422-8.376-0.704l-0.14,4.062l0.279,0.14
	c0,0.095-0.048,0.282-0.14,0.562c-0.095,0.278-0.14,0.514-0.14,0.7v1.398c0,1.214-0.139,2.102-0.418,2.66l0.279,0.143
	c0,0.748-0.14,2.333-0.418,4.759c-0.188,1.963-0.279,3.551-0.279,4.762c0,0.748,0.044,1.89,0.14,3.431
	c0.092,1.541,0.14,2.733,0.14,3.57c0,1.217-0.048,2.104-0.14,2.663l-0.279,0.278c0.279,0.375,0.419,0.796,0.419,1.259
	c0,0.656-0.07,1.684-0.209,3.085c-0.139,1.401-0.209,2.426-0.209,3.079c0,0.187,0.045,0.466,0.14,0.84
	c-0.013,0.374-0.013,0.653,0,0.84c0,0.374-0.047,0.91-0.14,1.611c-0.095,0.7-0.139,1.236-0.139,1.61c0,0.562,0.044,1.449,0.139,2.66
	c-0.013,1.122-0.013,2.007,0,2.66c0,0.095,0.07,0.234,0.209,0.421c0.14,0.188,0.209,0.327,0.209,0.419
	c5.016-2.511,9.983-5.771,14.907-9.771c5.945-4.746,9.845-9.166,11.702-13.262c0.184-0.559,0.463-1.348,0.837-2.372l0.139-2.514
	L375.058,485.533z"/>
<path stroke="#000000" stroke-width="0.621" d="M544.586,551.841l-0.14,0.139c-2.143,0.745-3.722,1.582-4.742,2.515h-0.14
	c-0.653,0.095-1.541,0.514-2.657,1.262c-3.538,1.03-7.584,3.367-12.143,7.014c-0.096-0.188-0.514-0.514-1.256-0.977
	c-0.19-1.398-2.606-4.239-7.26-8.525c-6.05-5.587-9.119-8.428-9.214-8.522c-0.933-1.211-2.467-2.467-4.604-3.773
	c-0.19-0.652-2.327-2.701-6.424-6.147c-3.538-2.98-5.446-4.474-5.726-4.474c-3.627-3.164-7.07-5.82-10.329-7.964
	c-0.095,0-1.439-0.929-4.046-2.793c0,1.211-0.14,3.075-0.418,5.586l-0.285,3.631c0.184,0.187,0.279,1.023,0.279,2.511
	c0,0.932-0.07,2.796-0.209,5.586c-0.14,2.79-0.209,4.839-0.209,6.142c0,1.861,0.095,3.024,0.279,3.487
	c-0.095,0.374-0.139,1.119-0.139,2.235v0.837c0.837,0.279,1.953,0.419,3.354,0.419c0.463,0,1.205-0.045,2.232-0.14
	c1.021,0,1.77,0,2.232,0c1.395,0,2.466,0.187,3.215,0.558c1.021-0.092,2.511-0.279,4.464-0.558l-1.953,3.211l0.14,0.14
	c-0.47,0.279-1.027,1.072-1.675,2.372l0.279,0.14c-0.837,1.211-1.864,2.979-3.075,5.307l-0.697,0.559
	c-0.559-0.374-1.072-0.562-1.535-0.562c-1.306,0-2.231-0.14-2.79-0.422c-2.518,0-4.654-0.234-6.423-0.703c-0.279,0-0.742,0-1.395,0
	c-0.375,0-1.002,0-1.883,0c-0.888,0-1.56,0-2.029,0h-1.255c-0.742,0-1.255-0.181-1.535-0.549c-2.232,0.368-4.47,0.549-6.702,0.549
	h-2.232l-0.139,0.117c-2.885,0-4.699,0.199-5.441,0.593h-0.285c-0.184,0-0.444,0.048-0.767,0.14c-0.324,0.095-0.583,0.14-0.767,0.14
	c-0.095,0-0.279-0.045-0.558-0.14c1.706-1.858,3.957-4.883,6.747-9.071c0.267-0.745,0.717-1.816,1.351-3.212
	c0.178-0.649,0.267-1.674,0.267-3.068c0.089-0.185,0.177-0.371,0.272-0.559v-0.561c0-0.371,0-3.535,0-9.489
	c0-7.815,0-11.816,0-12.004l0.438-0.278c-0.292-0.742-0.438-3.44-0.438-8.095v-6.56v-0.279v-0.977c0-0.932,0-1.629,0-2.096
	l-0.019-0.14c0-0.37,0.006-0.976,0.019-1.813c0-0.741,0-1.347,0-1.813c0-0.837,0-1.439,0-1.813c0-0.278,0-0.745,0-1.397
	c0-0.559,0-1.418,0-2.581c0-1.16,0-1.976,0-2.441c0-0.653,0-1.119,0-1.398l-0.019-0.977c0-0.741,0.006-2.185,0.019-4.324
	c0-2.14,0-3.675,0-4.606c0-1.49,0-2.327,0-2.515v-0.14c0-1.674-0.184-3.813-0.539-6.42l0.14-0.697v-0.279
	c0-1.766-1.23-3.278-3.697-4.533c-2.467-1.256-4.958-2.489-7.47-3.7l0.14-0.279c0.088-0.279,0.279-0.58,0.558-0.906
	c0.279-0.324,0.463-0.581,0.558-0.768v-0.279c0.749-2.048,1.636-3.535,2.663-4.467c3.272,0.821,7.717,1.229,13.329,1.229
	c1.496,0,3.741-0.044,6.734-0.139c2.993,0,5.143,0,6.455,0h2.777c1.3-0.371,3.202-0.559,5.707-0.559h0.831
	c2.131,0,3.754-0.178,4.87-0.532h0.278c1.021,0,1.991,0,2.924,0h2.498c1.021,0,1.763,0,2.226,0h0.697
	c0.368,0,0.926-0.134,1.668-0.406c0.742-0.27,1.3-0.405,1.668-0.405c0.463,0,1.021,0.282,1.674,0.84
	c0.646,0.558,1.154,0.933,1.528,1.116c0.367,0.187,0.881,0.653,1.528,1.398c2.409,1.677,4.591,3.681,6.537,6.008l0.697,0.418
	l-0.14,0.14c0.457,0.466,1.098,1.304,1.928,2.515c0.089,0.095,0.412,0.561,0.964,1.397l0.273,0.14
	c1.287,2.238,2.523,4.521,3.722,6.849c2.017,3.633,3.031,6.053,3.031,7.264c0,0.278,0,0.514,0,0.7v0.14
	c0,0.279-0.165,0.628-0.495,1.047c-0.329,0.418-0.488,0.77-0.488,1.049c-0.285,0.653-0.894,1.582-1.826,2.793
	c-0.19,0.374-0.45,0.933-0.773,1.678c-0.329,0.745-0.964,1.582-1.896,2.514c-2.251,4.939-7.35,10.343-15.308,16.208
	c-0.748,0.561-2.017,1.445-3.792,2.656l1.396,0.837v0.14c0.932,1.864,2.606,3.542,5.028,5.032l0.558,0.837
	c0.279,0.278,0.742,0.7,1.396,1.259c2.511,3.259,4.464,5.263,5.865,6.008c0.367,0.466,1.693,1.747,3.976,3.843
	c2.283,2.096,3.703,3.284,4.261,3.563c0.463,0.653,2.93,2.653,7.395,6.008c5.028,3.634,7.913,5.821,8.655,6.566
	c1.211,1.027,3.075,2.33,5.586,3.912C543.375,550.582,543.933,551.096,544.586,551.841z M503.49,485.533
	c-0.38-1.592-1.598-4.22-3.665-7.879c-1.033-1.312-2.821-3.139-5.357-5.484v-0.14c-4.002-2.907-7.21-4.689-9.633-5.346
	c-0.741-0.188-3.538-0.422-8.376-0.704l-0.14,4.062l0.279,0.14c0,0.095-0.044,0.282-0.14,0.562c-0.095,0.278-0.14,0.514-0.14,0.7
	v1.398c0,1.214-0.139,2.102-0.418,2.66l0.279,0.143c0,0.748-0.14,2.333-0.418,4.759c-0.184,1.963-0.279,3.551-0.279,4.762
	c0,0.748,0.044,1.89,0.14,3.431s0.14,2.733,0.14,3.57c0,1.217-0.044,2.104-0.14,2.663l-0.279,0.278
	c0.279,0.375,0.419,0.796,0.419,1.259c0,0.656-0.07,1.684-0.209,3.085s-0.209,2.426-0.209,3.079c0,0.187,0.045,0.466,0.14,0.84
	c-0.013,0.374-0.013,0.653,0,0.84c0,0.374-0.044,0.91-0.14,1.611c-0.095,0.7-0.139,1.236-0.139,1.61c0,0.562,0.044,1.449,0.139,2.66
	c-0.013,1.122-0.013,2.007,0,2.66c0,0.095,0.07,0.234,0.209,0.421c0.14,0.188,0.209,0.327,0.209,0.419
	c5.016-2.511,9.987-5.771,14.907-9.771c5.948-4.746,9.848-9.166,11.705-13.262c0.185-0.559,0.463-1.348,0.838-2.372l0.139-2.514
	L503.49,485.533z"/>
<path stroke="#000000" stroke-width="0.621" d="M623.715,554.85v0.278c0,0.188-0.234,0.605-0.697,1.253v0.14l-0.558,0.837
	c0,0.932-0.19,1.629-0.559,2.092c-0.279,0.837-0.608,1.671-0.977,2.508c-0.469,0-1.236-0.082-2.308-0.24
	c-1.072-0.159-1.884-0.241-2.441-0.241h-0.698c-5.307,0-11.077-0.323-17.311-0.977c-0.095,0.095-0.234,0.14-0.418,0.14
	c-0.096,0-0.234-0.045-0.419-0.14c-0.278,0-0.469,0-0.558,0c-0.19,0-0.374,0.095-0.559,0.279c-0.189-0.092-0.652-0.14-1.395-0.14
	c-0.47,0-1.122,0-1.959,0c-0.838,0.095-1.301,0.14-1.396,0.14c-0.279,0-0.697-0.045-1.256-0.14c-0.558,0-0.976,0-1.255,0
	c-0.47,0-0.837,0.048-1.116,0.14c-1.396,0-2.422,0.047-3.069,0.14h-0.843c-1.675,0-3.906,0.26-6.696,0.779l-0.279,0.26h-0.558
	c-0.933,0-1.96,0-3.075,0v-0.408c1.109-3.64,2.175-6.142,3.189-7.508c2.124-0.273,4.07-0.727,5.827-1.363
	c0.089,0,0.184-0.045,0.279-0.137h0.133c1.021-0.371,2.594-0.881,4.718-1.534c0.552-2.79,0.83-5.536,0.83-8.237
	c0-0.184,0-0.605,0-1.259c0-0.278,0-0.649,0-1.116c0.025-0.463,0.025-0.789,0-0.976v-0.838c0-0.558,0-1.347,0-2.371s0-1.77,0-2.235
	c0-0.558,0-1.303,0-2.235c0-0.649,0-1.347,0-2.092v-6.145v-0.14c0-1.021,0-2.093,0-3.212v-1.116c0-0.837,0.127-2.511,0.381-5.024
	c0.025-2.512,0.025-4.28,0-5.305c0-1.674-0.063-2.653-0.19-2.933c0-1.208-0.063-2.093-0.19-2.653v-0.279c0-1.674,0-3.535,0-5.583
	c0-2.049,0-4.746,0-8.098c0-4.651,0-9.863,0-15.637v-0.14c0.025-0.279,0.025-0.742,0-1.395c0-0.559,0-0.977,0-1.256v-0.559
	c-0.38-1.115-0.57-1.908-0.57-2.374l-1.852-0.559h-0.14c-0.285-0.092-0.425-0.184-0.425-0.278c-0.666-0.374-2.378-0.724-5.13-1.053
	c-2.752-0.327-4.268-0.584-4.553-0.773c-0.855,0-2.042-0.279-3.563-0.841c0.184-0.558,0.514-1.306,0.977-2.244
	c0.374-1.493,0.558-2.103,0.558-1.823l0.286-0.279c0.088-0.466,0.602-1.306,1.534-2.523c0.019-0.095,0.019-0.188,0-0.282
	c-0.095,0-0.146-0.044-0.146-0.14c0-0.374,0.418-0.561,1.255-0.561c0.933,0,1.585,0,1.96,0h0.558c0.742,0,1.763,0.148,3.069,0.443
	c1.3,0.298,2.276,0.444,2.93,0.444l0.278-0.14c0.463,0,1.186-0.045,2.162-0.14c0.977-0.092,1.751-0.14,2.309-0.14
	c1.021,0,1.953,0.14,2.79,0.419c0.374-0.093,0.932-0.14,1.674-0.14c0.748,0,1.307,0.047,1.681,0.14l0.278-0.14
	c0.838,0.095,2.138,0.14,3.906,0.14c1.674,0,4.211-0.083,7.609-0.254c3.398-0.168,5.979-0.254,7.748-0.254
	c0.463,0,1.116-0.063,1.953-0.19c0.838-0.126,1.439-0.189,1.814-0.189h0.558c0.184,0.758,0.653,1.705,1.401,2.841
	c0.463,0.627,1.021,1.565,1.674,2.814c-0.095,0.358-0.33,0.536-0.697,0.536c-0.096,0-0.14-0.044-0.14-0.14c-0.095,0-0.19,0-0.279,0
	c-0.095,0-0.234,0.096-0.418,0.279c-0.933,0.653-2.474,0.977-4.61,0.977c-0.279,0.374-0.881,0.653-1.813,0.837
	c-1.306,0.47-3.259,1.398-5.865,2.793l-0.14,0.559l-0.14,0.14c0.096,0.187,0.14,0.418,0.14,0.697c0.025,0.095,0.025,0.329,0,0.7
	c-0.095,0.279-0.14,0.514-0.14,0.697v0.279c0,4.097-0.196,7.165-0.596,9.214c0.209,0.095,0.317,0.326,0.317,0.697
	c0,0.374-0.108,0.793-0.317,1.256c0,0.282,0,0.748,0,1.397c0,0.559,0,1.304,0,2.232c0,0.187,0,0.466,0,0.84c0,0.653,0,1.351,0,2.093
	v0.279c0,0.374-0.089,3.002-0.26,7.888c-0.172,4.889-0.261,8.402-0.261,10.539c0,1.769,0.172,2.749,0.521,2.933v3.77h-0.521
	c0.35,0.188,0.521,0.558,0.521,1.116c0,0.095-0.171,0.326-0.521,0.697c0.35,0.279,0.521,0.694,0.521,1.252
	c0.025,0.375,0.025,0.838,0,1.396c-0.349,0.653-0.521,1.116-0.521,1.392c0,0.466,0.172,0.793,0.521,0.977
	c-0.438,1.116-0.659,2.045-0.659,2.787c0,0.558,0.107,1.442,0.329,2.65c0.223,1.208,0.33,2.137,0.33,2.787
	c0,0.837-0.171,1.486-0.521,1.949l0.521,0.279l-0.659,2.232c0.095,0.278,0.139,0.837,0.139,1.671c0,1.674-0.095,3.068-0.278,4.182
	l0.038,0.418c0,0.188-0.013,0.467-0.038,0.837c-0.096,0.375-0.14,0.606-0.14,0.698c0,0.374,0.044,0.605,0.14,0.694v2.371l-0.14,0.14
	c0.184,0.279,0.279,0.837,0.279,1.671v2.511c0,0.742,0.069,1.208,0.209,1.392c0.14,0.188,1.046,0.514,2.727,0.977l0.837,0.559
	c0.646,0,1.439,0.234,2.372,0.697c0.932,0,2.562,0.419,4.889,1.252C621.718,554.199,623.437,554.757,623.715,554.85z"/>
<path stroke="#000000" stroke-width="0.621" d="M765.609,490.735v1.535c0,12.834-1.303,24.552-3.905,35.154v0.278
	c0,0.467-0.375,1.443-1.119,2.93v0.279c0,0.279-0.21,0.583-0.628,0.907c-0.419,0.326-0.628,0.583-0.628,0.767
	c-1.864,2.327-4.61,5.209-8.237,8.649c-0.837,0.745-1.956,1.953-3.351,3.627c0-0.092-0.096-0.14-0.279-0.14
	c-0.096,0-0.234,0.048-0.419,0.14c-0.652,1.122-3.678,3.57-9.073,7.349c-5.399,3.779-9.029,6.04-10.891,6.785
	c-1.211,0.47-2.746,1.215-4.607,2.241c-1.023,0.279-3.442,1.212-7.257,2.797l-0.279,0.562h-0.278c-1.119,0-2.98-0.35-5.587-1.044
	c-1.116-0.196-2.419-0.494-3.905-0.891l-0.14-0.298h-0.14c-0.748,0-2.074-0.305-3.982-0.907c-1.908-0.602-3.047-1.09-3.418-1.464
	c-2.143-0.093-6.236-1.858-12.285-5.299c-6.05-3.437-9.911-6.131-11.585-8.084l-0.282-0.697c-0.374-0.463-1.071-1.021-2.093-1.675
	c-6.049-5.39-10.192-10.36-12.425-14.917c-0.559-1.116-0.837-4.321-0.837-9.619c0-12.175,0.649-20.681,1.953-25.516
	c0.653-0.371,0.979-1.905,0.979-4.601c1.021-0.742,4.698-5.158,11.027-13.246c1.674-1.858,4.327-4.274,7.957-7.248
	c0.279-0.558,2.581-2.463,6.909-5.716c4.327-3.253,6.725-4.924,7.19-5.02c2.698-1.395,5.909-3.393,9.632-5.995
	c0.837-0.371,2.048-0.837,3.63-1.395c13.681,4.188,23.269,7.818,28.76,10.887c5.491,3.069,10.377,6.604,14.657,10.603
	c2.327,2.514,4.654,4.98,6.981,7.396c0.649,0.933,1.255,1.49,1.813,1.674l-0.14,0.14c0.463,0.653,1.091,1.465,1.883,2.441
	c0.79,0.977,1.744,2.584,2.863,4.815c0.279,0.467,0.742,1.072,1.395,1.813H765.609z M749.976,518.896
	c-0.095-2.323-0.187-4.695-0.278-7.117c-0.279-3.352-1.024-6.471-2.235-9.356c-0.096-0.092-0.466-0.837-1.116-2.231
	c-0.653-1.396-1.024-2.235-1.116-2.515c-0.558-0.371-1.86-2.279-3.909-5.723v0.14c-0.653-0.837-1.582-2.045-2.793-3.63
	c-0.837-0.463-1.887-1.487-3.142-3.069c-1.256-1.582-2.35-2.606-3.278-3.072c-1.024-0.932-2.698-2.327-5.025-4.188
	c-2.144-1.49-3.726-2.514-4.746-3.072c-1.864-1.021-3.678-1.721-5.444-2.096l-0.281-0.418c-0.467-0.092-1.909-0.419-4.325-0.977
	c-1.769-0.371-3.307-0.558-4.606-0.558h-0.84c-0.374,0-0.977-0.045-1.813-0.14c-0.837-0.092-1.49-0.14-1.956-0.14
	c-0.933,0-1.722,0.187-2.372,0.558l-0.14-0.14c-4.749,0.559-8.192,1.678-10.329,3.352h-0.14c-1.307,0.837-3.398,2.096-6.284,3.77
	l-0.977,0.977c-0.278,0.279-0.792,0.697-1.534,1.256c-0.748,1.027-1.864,2.656-3.352,4.889c-0.558,0.837-1.397,2.933-2.514,6.28
	c-0.933,2.702-1.396,5.818-1.396,9.354c0,6.236,1.583,12.473,4.747,18.709c2.977,5.771,6.934,10.751,11.866,14.936
	c1.021,0.838,3.047,2.258,6.072,4.259c3.024,2.003,4.955,3.142,5.792,3.421c1.024,0.652,3.26,1.537,6.702,2.653
	c3.443,1.116,5.91,1.674,7.4,1.674h0.418c0.742,0.188,1.767,0.279,3.069,0.279c0.653,0,2.933-0.323,6.842-0.977
	c5.491-1.77,9.863-4.097,13.123-6.981v-0.14C745.091,535.139,748.394,528.483,749.976,518.896z"/>
<path stroke="#000000" stroke-width="0.621" d="M895.127,551.841l-0.14,0.139c-2.144,0.745-3.723,1.582-4.743,2.515h-0.14
	c-0.652,0.095-1.541,0.514-2.656,1.262c-3.539,1.03-7.584,3.367-12.144,7.014c-0.095-0.188-0.514-0.514-1.255-0.977
	c-0.19-1.398-2.606-4.239-7.261-8.525c-6.05-5.587-9.118-8.428-9.214-8.522c-0.932-1.211-2.466-2.467-4.604-3.773
	c-0.189-0.652-2.326-2.701-6.423-6.147c-3.538-2.98-5.447-4.474-5.726-4.474c-3.627-3.164-7.07-5.82-10.33-7.964
	c-0.095,0-1.439-0.929-4.045-2.793c0,1.211-0.14,3.075-0.419,5.586l-0.285,3.631c0.184,0.187,0.279,1.023,0.279,2.511
	c0,0.932-0.07,2.796-0.21,5.586c-0.139,2.79-0.209,4.839-0.209,6.142c0,1.861,0.096,3.024,0.279,3.487
	c-0.096,0.374-0.14,1.119-0.14,2.235v0.837c0.837,0.279,1.953,0.419,3.354,0.419c0.463,0,1.205-0.045,2.231-0.14
	c1.021,0,1.77,0,2.232,0c1.396,0,2.467,0.187,3.215,0.558c1.021-0.092,2.511-0.279,4.464-0.558l-1.953,3.211l0.14,0.14
	c-0.469,0.279-1.027,1.072-1.674,2.372l0.279,0.14c-0.837,1.211-1.864,2.979-3.075,5.307l-0.698,0.559
	c-0.558-0.374-1.071-0.562-1.534-0.562c-1.307,0-2.232-0.14-2.79-0.422c-2.518,0-4.654-0.234-6.424-0.703c-0.278,0-0.741,0-1.395,0
	c-0.374,0-1.002,0-1.884,0c-0.888,0-1.56,0-2.028,0h-1.256c-0.742,0-1.256-0.181-1.534-0.549c-2.232,0.368-4.471,0.549-6.703,0.549
	h-2.231l-0.14,0.117c-2.885,0-4.702,0.199-5.443,0.593h-0.282c-0.188,0-0.444,0.048-0.768,0.14c-0.326,0.095-0.583,0.14-0.768,0.14
	c-0.095,0-0.278-0.045-0.558-0.14c1.706-1.858,3.953-4.883,6.743-9.071c0.27-0.745,0.72-1.816,1.351-3.212
	c0.178-0.649,0.27-1.674,0.27-3.068c0.089-0.185,0.178-0.371,0.27-0.559v-0.561c0-0.371,0-3.535,0-9.489c0-7.815,0-11.816,0-12.004
	l0.441-0.278c-0.295-0.742-0.441-3.44-0.441-8.095v-6.56v-0.279v-0.977c0-0.932,0-1.629,0-2.096l-0.016-0.14
	c0-0.37,0.003-0.976,0.016-1.813c0-0.741,0-1.347,0-1.813c0-0.837,0-1.439,0-1.813c0-0.278,0-0.745,0-1.397c0-0.559,0-1.418,0-2.581
	c0-1.16,0-1.976,0-2.441c0-0.653,0-1.119,0-1.398l-0.016-0.977c0-0.741,0.003-2.185,0.016-4.324c0-2.14,0-3.675,0-4.606
	c0-1.49,0-2.327,0-2.515v-0.14c0-1.674-0.181-3.813-0.535-6.42l0.139-0.697v-0.279c0-1.766-1.232-3.278-3.699-4.533
	c-2.467-1.256-4.959-2.489-7.47-3.7l0.14-0.279c0.092-0.279,0.278-0.58,0.558-0.906c0.279-0.324,0.463-0.581,0.558-0.768v-0.279
	c0.749-2.048,1.637-3.535,2.667-4.467c3.271,0.821,7.717,1.229,13.328,1.229c1.497,0,3.741-0.044,6.734-0.139
	c2.993,0,5.143,0,6.455,0h2.777c1.3-0.371,3.202-0.559,5.707-0.559h0.831c2.13,0,3.754-0.178,4.869-0.532h0.279
	c1.021,0,1.991,0,2.923,0h2.499c1.021,0,1.763,0,2.226,0h0.697c0.368,0,0.926-0.134,1.668-0.406c0.741-0.27,1.3-0.405,1.667-0.405
	c0.463,0,1.021,0.282,1.674,0.84c0.647,0.558,1.154,0.933,1.528,1.116c0.368,0.187,0.882,0.653,1.528,1.398
	c2.41,1.677,4.591,3.681,6.538,6.008l0.697,0.418l-0.14,0.14c0.457,0.466,1.097,1.304,1.928,2.515
	c0.089,0.095,0.412,0.561,0.964,1.397l0.272,0.14c1.287,2.238,2.523,4.521,3.723,6.849c2.016,3.633,3.03,6.053,3.03,7.264
	c0,0.278,0,0.514,0,0.7v0.14c0,0.279-0.165,0.628-0.494,1.047c-0.33,0.418-0.488,0.77-0.488,1.049
	c-0.285,0.653-0.895,1.582-1.826,2.793c-0.19,0.374-0.45,0.933-0.773,1.678c-0.33,0.745-0.964,1.582-1.896,2.514
	c-2.251,4.939-7.349,10.343-15.307,16.208c-0.748,0.561-2.017,1.445-3.792,2.656l1.395,0.837v0.14
	c0.933,1.864,2.606,3.542,5.029,5.032l0.558,0.837c0.278,0.278,0.741,0.7,1.395,1.259c2.512,3.259,4.464,5.263,5.866,6.008
	c0.367,0.466,1.692,1.747,3.976,3.843c2.282,2.096,3.703,3.284,4.261,3.563c0.463,0.653,2.93,2.653,7.394,6.008
	c5.028,3.634,7.913,5.821,8.655,6.566c1.211,1.027,3.075,2.33,5.587,3.912C893.916,550.582,894.474,551.096,895.127,551.841z
	 M854.031,485.533c-0.381-1.592-1.599-4.22-3.665-7.879c-1.034-1.312-2.822-3.139-5.358-5.484v-0.14
	c-4.001-2.907-7.21-4.689-9.632-5.346c-0.742-0.188-3.538-0.422-8.376-0.704l-0.14,4.062l0.278,0.14
	c0,0.095-0.044,0.282-0.139,0.562c-0.096,0.278-0.14,0.514-0.14,0.7v1.398c0,1.214-0.14,2.102-0.419,2.66l0.279,0.143
	c0,0.748-0.14,2.333-0.419,4.759c-0.184,1.963-0.278,3.551-0.278,4.762c0,0.748,0.044,1.89,0.14,3.431
	c0.095,1.541,0.139,2.733,0.139,3.57c0,1.217-0.044,2.104-0.139,2.663l-0.279,0.278c0.279,0.375,0.418,0.796,0.418,1.259
	c0,0.656-0.069,1.684-0.209,3.085s-0.209,2.426-0.209,3.079c0,0.187,0.044,0.466,0.14,0.84c-0.013,0.374-0.013,0.653,0,0.84
	c0,0.374-0.045,0.91-0.14,1.611c-0.096,0.7-0.14,1.236-0.14,1.61c0,0.562,0.044,1.449,0.14,2.66c-0.013,1.122-0.013,2.007,0,2.66
	c0,0.095,0.069,0.234,0.209,0.421c0.14,0.188,0.209,0.327,0.209,0.419c5.016-2.511,9.987-5.771,14.908-9.771
	c5.947-4.746,9.848-9.166,11.705-13.262c0.184-0.559,0.463-1.348,0.837-2.372l0.14-2.514L854.031,485.533z"/>
<path stroke="#000000" stroke-width="0.621" d="M1000.311,485.264l-0.14,0.834c-3.538,0.371-7.305,0.973-11.306,1.807h-0.837v-0.418
	c0-0.463-0.272-1.068-0.806-1.817v-0.278c0-0.463-0.234-1.256-0.697-2.372c-0.095-0.092-1.307-3.909-3.634-11.448
	c-2.518-0.092-5.732-0.65-9.645-1.674l-8.947-2.235c-2.238-0.558-3.678-0.837-4.33-0.837c-0.653,0-1.77,0.885-3.354,2.653
	c-0.279,0.653-0.793,1.722-1.535,3.209v0.14l-0.932,1.677v1.813c0,1.027,0.044,1.633,0.14,1.816c0.095,0.467,0.33,1.164,0.703,2.093
	c0,0.279,0.279,1.024,0.844,2.235s0.938,1.861,1.129,1.953c0.279,0.653,0.748,1.442,1.401,2.375
	c0.279,0.374,0.659,0.976,1.129,1.813c1.217,1.023,2.485,2.793,3.798,5.304l0.419,0.419c0.278,0,0.868,0.652,1.756,1.956
	c0.888,1.303,1.427,2,1.617,2.092l-0.14,0.14c0.653,0.47,1.579,1.703,2.79,3.703c1.211,2.001,2.048,3.095,2.518,3.278
	c1.857,2.049,4.375,5.308,7.539,9.771c0.374,0.562,1.021,1.398,1.953,2.515v0.14c1.027,1.303,2.67,2.933,4.921,4.886
	c0.374,0.932,0.558,1.721,0.558,2.374v0.419c-0.184,0.374-0.514,0.837-0.977,1.395c-0.278,0.837-1.681,3.443-4.191,7.818
	c-2.517,4.376-3.956,6.747-4.331,7.121c-1.027,1.303-2.143,3.164-3.354,5.583c-1.212,2.423-2.232,4.188-3.069,5.305
	c-0.19,1.023-0.723,2.025-1.61,3.002c-0.882,0.977-1.744,1.884-2.581,2.721c-0.19,0-0.514,0.025-0.983,0.072
	c-0.463,0.048-0.862,0.165-1.186,0.35c-0.323,0.187-1.654,0.349-3.981,0.488c-2.327,0.139-3.817,0.349-4.471,0.627
	c-1.116,0-2.372,0.235-3.767,0.698c-0.095,0-0.19-0.045-0.279-0.14c-0.189,0-0.329,0-0.425,0c-0.741,0-1.883,0.229-3.417,0.685
	c-1.541,0.453-2.543,0.682-3.006,0.682c-4.565,0.364-7.495,0.958-8.802,1.778h-0.14c-0.278,0-0.627,0.203-1.046,0.609
	c-0.419,0.405-0.723,0.608-0.907,0.608h-0.139c-0.375-0.748-0.609-1.306-0.704-1.677l-0.837-0.698l0.279-0.278
	c-0.096-0.653-0.463-1.49-1.116-2.518c-0.463-0.742-1.021-1.884-1.675-3.421c-0.652-1.538-2.631-4.661-5.935-9.365
	c-3.304-4.705-5.092-7.337-5.371-7.895c-0.748-1.024-1.959-2.562-3.633-4.613c0-0.279-0.185-0.628-0.559-1.047
	c-0.374-0.418-0.558-0.814-0.558-1.188l-0.279-0.14c0.463-1.211,2.512-2.282,6.145-3.215h0.14c0.184,0,0.374,0.213,0.558,0.631
	c0.185,0.419,0.419,0.628,0.697,0.628h0.14l0.559,0.558v0.279c2.144,2.048,5.631,4.492,10.469,7.33s8.655,4.721,11.452,5.653
	c0.652,0.187,1.534,0.558,2.65,1.116v-0.14c1.3,0.558,2.923,0.932,4.876,1.116c0.089,0.281,0.412,0.446,0.97,0.491
	c0.559,0.047,0.882,0.117,0.977,0.209c2.41,0.374,4.591,0.558,6.544,0.558c2.042,0,3.665-0.278,4.87-0.837
	c0.463-2.6,0.697-5.013,0.697-7.244v-1.396c0-4.362-1.623-8.636-4.876-12.817c-0.653-1.579-1.63-2.832-2.93-3.764
	c-0.837-1.205-1.439-1.95-1.813-2.229c-1.857-2.321-5.39-6.316-10.589-11.984c-4.648-4.921-8.136-9.011-10.457-12.264
	c-0.932-0.647-1.395-4.502-1.395-11.566c0-1.671,0.044-2.647,0.14-2.926c1.395-1.95,3.024-3.947,4.889-5.992
	c2.511-3.158,6.233-7.523,11.166-13.098c0.279-0.649,1.725-1.811,4.331-3.484l4.186-0.834c0.653,0,4.045-0.418,10.189-1.255
	s9.499-1.348,10.057-1.535c0-0.089,0.045-0.32,0.14-0.694c-0.013-0.371-0.013-0.697,0-0.977c0-1.857-0.19-3.109-0.558-3.763
	c0-0.368,0.089-0.926,0.278-1.671c0.559-0.092,1.439-0.14,2.65-0.14c0.463,0,1.212,0,2.232,0c0.933,0,1.681,0,2.238,0
	c1.205,0,2.093,0,2.65,0l0.279,0.694c0.279,6.303,1.908,14.362,4.889,24.181l1.116,2.227l-0.14,0.275
	c0.559,1.113,1.439,2.78,2.65,5.003c0.463,1.205,0.837,1.947,1.116,2.226C999.011,482.534,999.657,483.783,1000.311,485.264z"/>
</svg>
