<svg id="usa-rugby" xmlns="http://www.w3.org/2000/svg" xmlns:xlink="http://www.w3.org/1999/xlink" viewBox="0 0 1240.67 209.1">
  <defs>
    <linearGradient id="linear-gradient" x1="218.39" y1="2.22" x2="218.32" y2="214.18" gradientTransform="matrix(1, 0, 0, -1, 0, 213.55)" gradientUnits="userSpaceOnUse">
      <stop offset="0" stop-color="#181e56"/>
      <stop offset="0.49" stop-color="#063169"/>
      <stop offset="1" stop-color="#004684"/>
    </linearGradient>
    <linearGradient id="linear-gradient-2" x1="218.41" y1="-48.12" x2="218.33" y2="163.84" gradientTransform="matrix(1, 0, 0, -1, 0, 213.55)" gradientUnits="userSpaceOnUse">
      <stop offset="0" stop-color="#181e56"/>
      <stop offset="0" stop-color="#032556"/>
      <stop offset="0" stop-color="#002956"/>
      <stop offset="0" stop-color="#002b56"/>
      <stop offset="0" stop-color="#002b55"/>
      <stop offset="0" stop-color="#002b54"/>
      <stop offset="0.37" stop-color="#00315a"/>
      <stop offset="1" stop-color="#003f68"/>
    </linearGradient>
    <linearGradient id="linear-gradient-3" x1="842.38" y1="8.78" x2="842.38" y2="205.18" gradientTransform="matrix(1, 0, 0, -1, 0, 213.55)" gradientUnits="userSpaceOnUse">
      <stop offset="0" stop-color="#771110"/>
      <stop offset="0.59" stop-color="#940d25"/>
      <stop offset="1" stop-color="#a90533"/>
    </linearGradient>
    <linearGradient id="linear-gradient-4" x1="842.28" y1="-34.34" x2="842.28" y2="162.06" gradientTransform="matrix(1, 0, 0, -1, 0, 213.55)" gradientUnits="userSpaceOnUse">
      <stop offset="0" stop-color="#851817"/>
      <stop offset="0.2" stop-color="#89161a"/>
      <stop offset="0.56" stop-color="#951224"/>
      <stop offset="1" stop-color="#a90533"/>
      <stop offset="1" stop-color="#ae0833"/>
      <stop offset="1" stop-color="#bc0f31"/>
      <stop offset="1" stop-color="#c41230"/>
    </linearGradient>
  </defs>
  <g id="wrapper">
    <g id="logo-text">
      <path id="usa-inner-text" d="M46.48,12.78h47.8l-36.5,141.5c-2.4,9-1.4,16.8,12.2,16.8,12.5,0,18.9-10,20.9-18l36.2-140.3h47.8l-35.1,135.7c-8.2,31.8-30,56.2-78.9,56.2-40.4,0-59.5-17.7-49.6-56.2Zm157.9,124.8-3.4,13.2c-2.8,10.8-1.5,20.3,13.8,20.3,11.1,0,18.4-9.3,20.8-18.8,4.1-15.8-8.5-21.8-19.2-28.8-12.6-7.8-23.3-15-29.8-24.5-6.2-9.5-8.3-21-4.2-37.5,9.1-35.2,36.9-53.2,73.8-53.2,41.6,0,56.2,25.5,45,60.7h-44c2.3-11,6.8-26-8.8-27-9.6-.7-16.6,4.2-19.8,12.5-4.3,11.2.5,17,8.4,23,15.2,10.4,29,17,37.8,26.5s11.9,21.9,6.1,44.7c-9.3,36-36.2,56-75.9,56-43.7,0-56.4-22.4-50-47.2l5.1-20h44.3Zm73.1,62.7,92.9-187.5H428l-4.1,187.5h-48.4l2.6-36.5h-37.4l-15.2,36.5Zm113-153.5h-.6l-35.6,84H382Zm-344-34h47.8l-36.5,141.5c-2.4,9-1.4,16.8,12.2,16.8,12.5,0,18.9-10,20.9-18l36.2-140.3h47.8l-35.1,135.7c-8.2,31.8-30,56.2-78.9,56.2-40.4,0-59.5-17.7-49.6-56.2Zm157.9,124.8-3.4,13.2c-2.8,10.8-1.5,20.3,13.8,20.3,11.1,0,18.4-9.3,20.8-18.8,4.1-15.8-8.5-21.8-19.2-28.8-12.6-7.8-23.3-15-29.8-24.5-6.2-9.5-8.3-21-4.2-37.5,9.1-35.2,36.9-53.2,73.8-53.2,41.6,0,56.2,25.5,45,60.7h-44c2.3-11,6.8-26-8.8-27-9.6-.7-16.6,4.2-19.8,12.5-4.3,11.2.5,17,8.4,23,15.2,10.4,29,17,37.8,26.5s11.9,21.9,6.1,44.7c-9.3,36-36.2,56-75.9,56-43.7,0-56.4-22.4-50-47.2l5.1-20h44.3Zm73.1,62.7,92.9-187.5H428l-4.1,187.5h-48.4l2.6-36.5h-37.4l-15.2,36.5Zm113-153.5h-.6l-35.6,84H382Z" transform="translate(-2.41 -1.98)" stroke="#fff" stroke-width="12.6" fill="url(#linear-gradient)"/>
      <path id="usa" d="M46.48,12.78h47.8l-36.5,141.5c-2.4,9-1.4,16.8,12.2,16.8,12.5,0,18.9-10,20.9-18l36.2-140.3h47.8l-35.1,135.7c-8.2,31.8-30,56.2-78.9,56.2-40.4,0-59.5-17.7-49.6-56.2Zm157.9,124.8-3.4,13.2c-2.8,10.8-1.5,20.3,13.8,20.3,11.1,0,18.4-9.3,20.8-18.8,4.1-15.8-8.5-21.8-19.2-28.8-12.6-7.8-23.3-15-29.8-24.5-6.2-9.5-8.3-21-4.2-37.5,9.1-35.2,36.9-53.2,73.8-53.2,41.6,0,56.2,25.5,45,60.7h-44c2.3-11,6.8-26-8.8-27-9.6-.7-16.6,4.2-19.8,12.5-4.3,11.2.5,17,8.4,23,15.2,10.4,29,17,37.8,26.5s11.9,21.9,6.1,44.7c-9.3,36-36.2,56-75.9,56-43.7,0-56.4-22.4-50-47.2l5.2-20h44.2Zm73.1,62.7,92.9-187.5H428l-4.1,187.5h-48.4l2.6-36.5h-37.4l-15.2,36.5Zm113-153.5h-.6l-35.6,84H382Zm-344-34h47.8l-36.5,141.5c-2.4,9-1.4,16.8,12.2,16.8,12.5,0,18.9-10,20.9-18l36.2-140.3h47.8l-35.1,135.7c-8.2,31.8-30,56.2-78.9,56.2-40.4,0-59.5-17.7-49.6-56.2Zm157.9,124.8-3.4,13.2c-2.8,10.8-1.5,20.3,13.8,20.3,11.1,0,18.4-9.3,20.8-18.8,4.1-15.8-8.5-21.8-19.2-28.8-12.6-7.8-23.3-15-29.8-24.5-6.2-9.5-8.3-21-4.2-37.5,9.1-35.2,36.9-53.2,73.8-53.2,41.6,0,56.2,25.5,45,60.7h-44c2.3-11,6.8-26-8.8-27-9.6-.7-16.6,4.2-19.8,12.5-4.3,11.2.5,17,8.4,23,15.2,10.4,29,17,37.8,26.5s11.9,21.9,6.1,44.7c-9.3,36-36.2,56-75.9,56-43.7,0-56.4-22.4-50-47.2l5.2-20h44.2Zm73.1,62.7,92.9-187.5H428l-4.1,187.5h-48.4l2.6-36.5h-37.4l-15.2,36.5Zm113-153.5h-.6l-35.6,84H382Z" transform="translate(-2.41 -1.98)" fill="url(#linear-gradient-2)"/>
      <path id="rugby-inner-text" d="M501.68,200.28h-47.8l48.4-187.5h69.8c39.1,0,54.9,14.5,45.4,51.7-5.3,20-14.1,34.3-36.4,42.8v.5c12.6,2.7,19.9,11.2,17.3,24.2-2.6,15-10.6,47.3-11,59.3a11.55,11.55,0,0,0,3,6.5l-.7,2.5h-52.1a38.35,38.35,0,0,1,0-10.7c3.5-16.4,8.5-32,10.2-43.5s-.2-19-11.2-19.8h-15.8Zm27.9-107.7h16.2c13.9,0,20.2-11.8,23.1-23.2,5.8-22.3-4-23.3-27.5-22.8ZM652,12.78h47.9l-36.7,141.5c-2.3,9-1.3,16.8,12.3,16.8,12.5,0,18.8-10,20.9-18l36.2-140.3h47.8l-35,135.7c-8.2,31.8-30.1,56.2-78.8,56.2-40.6,0-59.6-17.7-49.7-56.2Zm199.5,187.8,2.2-16.8h-.5c-13.9,16-26,21-46.7,21-40.5,0-46.9-25.7-38.1-59.7l19.9-77c10.6-40.8,35.7-59.7,79.5-59.7,40.7,0,60.7,16,51,54.2l-3.6,14h-47.8l2.5-10.3c4.2-16,4-24-8.7-24.2-14.8-.3-20.4,7.3-23.4,19.5l-24,92.7c-2.7,10.6.9,16.8,13.3,16.8,16.3,0,19.9-12,23-24l3.8-14.7h-17l8.7-33.8h65l-26.3,102Zm55.2-.3,48.4-187.5h62c36,0,61.6,10.8,51.8,48.5-4.3,16.5-14.6,31.3-33.3,39.5l-.1.5c18.8,11.5,20.8,21.5,14.7,44.8-9.7,37.9-37.3,54.2-76.1,54.2Zm56.5-33.8c24-.5,33.6,1,40.2-24.2,5.6-21.8-8.1-21.3-28.3-22Zm20.7-79.9c21.2-1.2,30.7,0,36.4-22.3,4.7-18.5-9.2-17.7-26.1-17.7Zm158.4-12.5h.6l40.2-61.3h47.8l-77.2,108.8-20.3,78.7h-47.9l20.3-78.7-20-108.8h48.4Zm-640.6,126.2h-47.8l48.4-187.5h69.8c39.1,0,54.9,14.5,45.4,51.7-5.3,20-14.1,34.3-36.4,42.8v.5c12.6,2.7,19.9,11.2,17.3,24.2-2.6,15-10.6,47.3-11,59.3a11.55,11.55,0,0,0,3,6.5l-.7,2.5h-52.1a38.35,38.35,0,0,1,0-10.7c3.5-16.4,8.5-32,10.2-43.5s-.2-19-11.2-19.8h-15.8Zm27.9-107.7h16.2c13.9,0,20.2-11.8,23.1-23.2,5.8-22.3-4-23.3-27.5-22.8ZM652,12.78h47.9l-36.7,141.5c-2.3,9-1.3,16.8,12.3,16.8,12.5,0,18.8-10,20.9-18l36.2-140.3h47.8l-35,135.7c-8.2,31.8-30.1,56.2-78.8,56.2-40.6,0-59.6-17.7-49.7-56.2Zm199.5,187.8,2.2-16.8h-.5c-13.9,16-26,21-46.7,21-40.5,0-46.9-25.7-38.1-59.7l19.9-77c10.6-40.8,35.7-59.7,79.5-59.7,40.7,0,60.7,16,51,54.2l-3.6,14h-47.8l2.5-10.3c4.2-16,4-24-8.7-24.2-14.8-.3-20.4,7.3-23.4,19.5l-24,92.7c-2.7,10.6.9,16.8,13.3,16.8,16.3,0,19.9-12,23-24l3.8-14.7h-17l8.7-33.8h65l-26.3,102Zm55.2-.3,48.4-187.5h62c36,0,61.6,10.8,51.8,48.5-4.3,16.5-14.6,31.3-33.3,39.5l-.1.5c18.8,11.5,20.8,21.5,14.7,44.8-9.7,37.9-37.3,54.2-76.1,54.2Zm56.5-33.8c24-.5,33.6,1,40.2-24.2,5.6-21.8-8.1-21.3-28.3-22Zm20.7-79.9c21.2-1.2,30.7,0,36.4-22.3,4.7-18.5-9.2-17.7-26.1-17.7Zm158.4-12.5h.6l40.2-61.3h47.8l-77.2,108.8-20.3,78.7h-47.9l20.3-78.7-20-108.8h48.4Z" transform="translate(-2.41 -1.98)" stroke="#fff" stroke-width="12.6" fill="url(#linear-gradient-3)"/>
      <path id="rugby" d="M501.58,200.28h-47.8l48.4-187.5h69.7c39.1,0,54.9,14.5,45.4,51.7-5.3,20-14.1,34.3-36.4,42.8v.5c12.6,2.7,19.9,11.2,17.3,24.2-2.6,15-10.6,47.3-11,59.3a11.55,11.55,0,0,0,3,6.5l-.7,2.5h-52.1a38.35,38.35,0,0,1,0-10.7c3.5-16.4,8.5-32,10.2-43.5s-.2-19-11.2-19.8h-15.8Zm27.8-107.7h16.2c13.9,0,20.2-11.8,23.1-23.2,5.8-22.3-4-23.3-27.5-22.8Zm122.4-79.8h47.9l-36.6,141.5c-2.3,9-1.3,16.8,12.3,16.8,12.5,0,18.8-10,20.9-18l36.2-140.3h47.8l-35,135.7c-8.2,31.8-30.1,56.2-78.8,56.2-40.6,0-59.6-17.7-49.7-56.2Zm199.5,187.8,2.2-16.8H853c-13.9,16-26,21-46.7,21-40.5,0-46.9-25.7-38.1-59.7l19.9-77c10.6-40.8,35.7-59.7,79.5-59.7,40.7,0,60.7,16,51,54.2l-3.6,14h-47.8l2.6-10.3c4.2-16,4-24-8.7-24.2-14.8-.3-20.4,7.3-23.4,19.5l-24,92.7c-2.7,10.6.9,16.8,13.3,16.8,16.3,0,19.9-12,23-24l3.8-14.7h-17l8.7-33.8h65l-26.3,102Zm55.2-.3,48.4-187.5h62c36,0,61.6,10.8,51.8,48.5-4.3,16.5-14.6,31.3-33.3,39.5l-.1.5c18.8,11.5,20.8,21.5,14.7,44.8-9.7,37.9-37.3,54.2-76.1,54.2Zm56.6-33.8c24-.5,33.6,1,40.2-24.2,5.6-21.8-8.1-21.3-28.3-22Zm20.6-79.9c21.2-1.2,30.7,0,36.4-22.3,4.7-18.5-9.2-17.7-26.1-17.7Zm158.5-12.5h.6l40.2-61.3h47.8l-77.3,108.8-20.3,78.7h-47.9l20.3-78.7-20-108.8H1134Zm-640.6,126.2h-47.8l48.4-187.5h69.7c39.1,0,54.9,14.5,45.4,51.7-5.3,20-14.1,34.3-36.4,42.8v.5c12.6,2.7,19.9,11.2,17.3,24.2-2.6,15-10.6,47.3-11,59.3a11.55,11.55,0,0,0,3,6.5l-.7,2.5h-52.1a38.35,38.35,0,0,1,0-10.7c3.5-16.4,8.5-32,10.2-43.5s-.2-19-11.2-19.8h-15.8Zm27.8-107.7h16.2c13.9,0,20.2-11.8,23.1-23.2,5.8-22.3-4-23.3-27.5-22.8Zm122.4-79.8h47.9l-36.6,141.5c-2.3,9-1.3,16.8,12.3,16.8,12.5,0,18.8-10,20.9-18l36.2-140.3h47.8l-35,135.7c-8.2,31.8-30.1,56.2-78.8,56.2-40.6,0-59.6-17.7-49.7-56.2Zm199.5,187.8,2.2-16.8H853c-13.9,16-26,21-46.7,21-40.5,0-46.9-25.7-38.1-59.7l19.9-77c10.6-40.8,35.7-59.7,79.5-59.7,40.7,0,60.7,16,51,54.2l-3.6,14h-47.8l2.6-10.3c4.2-16,4-24-8.7-24.2-14.8-.3-20.4,7.3-23.4,19.5l-24,92.7c-2.7,10.6.9,16.8,13.3,16.8,16.3,0,19.9-12,23-24l3.8-14.7h-17l8.7-33.8h65l-26.3,102Zm55.2-.3,48.4-187.5h62c36,0,61.6,10.8,51.8,48.5-4.3,16.5-14.6,31.3-33.3,39.5l-.1.5c18.8,11.5,20.8,21.5,14.7,44.8-9.7,37.9-37.3,54.2-76.1,54.2Zm56.6-33.8c24-.5,33.6,1,40.2-24.2,5.6-21.8-8.1-21.3-28.3-22Zm20.6-79.9c21.2-1.2,30.7,0,36.4-22.3,4.7-18.5-9.2-17.7-26.1-17.7Zm158.5-12.5h.6l40.2-61.3h47.8l-77.3,108.8-20.3,78.7h-47.9l20.3-78.7-20-108.8H1134Z" transform="translate(-2.41 -1.98)" fill="url(#linear-gradient-4)"/>
    </g>
  </g>
</svg>
