<svg xmlns="http://www.w3.org/2000/svg" width="1000" height="1000" viewBox="0 -145.833 1000 1000" overflow="visible"><path d="M467.339 124.23c-12.116 1.506-24.051 3.125-35.662 4.896l4.18 135.026 149.613 78.281c4.33-2.111 8.683-4.25 13.062-6.415l-125.045-85.066-20.61 7.1 14.462-133.822z"/><path d="M394.976 135.521c-12.122 2.415-23.626 5.08-34.391 8.03l-1.593 153.551 155.252 79.272c5.787-2.731 11.722-5.528 17.807-8.399l-134.664-88.587-21.438 9.603 19.027-153.47z"/><path d="M428.614 129.612c-10.526 1.638-20.785 3.399-30.664 5.321l-.563 144.456 153.958 79.455a3993.579 3993.579 0 0015.362-7.334l-130.849-87.356-21.501 7.575 14.257-142.117z"/><path d="M531.454 117.209c-9.455.934-18.931 1.904-28.375 2.914l6.727 119.242-20.623 6.652 10.728-125.551a2111.121 2111.121 0 00-29.5 3.385l3.077 127.102 145.416 74.861a1811.64 1811.64 0 0012.52-6.412l-120.938-80.056 136.97 71.662c4.083-2.168 8.158-4.359 12.222-6.566L545.444 227.57l-20.836 7.106 6.846-117.467z"/><path d="M564.262 114.038c-9.739.928-19.564 1.87-29.438 2.839l10.617 110.694 128.707 68.893c3.674-2.056 7.331-4.126 10.969-6.211l-108.765-73.441-17.917 6.349 5.827-109.123zM185.083 224.256c-18.327 11.31-33.353 21.418-43.882 28.77l-4.54 183.166s-35.219 25.263-48.458 36.419c-13.239 11.162-37.501 33.976-37.501 33.976l.01 45.238s29.328-40.542 49.866-59.791c20.022-18.767 45.856-39.943 45.856-39.943l-4.74-6.832 163.388 73.839c2.615-2.542 8.987-8.655 18.153-16.998l-141.673-92.792-22.092 17.701 25.613-202.753z"/><path d="M229.652 198.403a924.185 924.185 0 00-40.376 23.281l-7.713 187.624 165.671 71.658a919.443 919.443 0 0119.049-15.819L227.368 374.98l-22.143 16.132 24.427-192.709zm367.742-87.561c-9.854.97-19.891 1.931-30.051 2.901l9.01 103.068 122.741 65.302a962.052 962.052 0 0011.69-7.046l-102.615-69.042-19.26 6.836 8.485-102.019zm-240.048 33.604c-.81.229-1.654.444-2.454.677-12.007 3.498-23.938 7.54-35.705 11.943l-3.864 162.851 159.286 75.414c6.06-2.97 12.45-6.054 19.18-9.262l-134.796-88.967-22.959 11.669 21.312-164.325z"/><path d="M316.353 158.146c-14.017 5.331-27.759 11.177-41.061 17.322l-3.997 170.401-22.422 14.349 23.355-183.327c-13.736 6.424-26.964 13.127-39.488 19.861l-5.372 178.229 161.142 72.862a641.21 641.21 0 0117.937-12.985L271.31 346.326 429.905 419.4c6.302-3.888 12.613-7.562 18.874-10.924.378-.204.795-.418 1.179-.622l-134.635-87.937-22.692 12.999 23.722-174.77zm474.934-88.893a541.42 541.42 0 01-26.06 9.974l.236 58.982 76.147 16.454a443.967 443.967 0 0012.082-19.229l-57.801-16.285-14.871 9.632 10.267-59.528z"/><path d="M762.353 80.259c-8.862 3.085-18.131 6.025-27.717 8.801l-.591 65.46 87.999 27.102a392.856 392.856 0 0010.413-13.765l-66.993-29.649-15.373 8.076 12.262-66.025zm83.89-37.516a518.505 518.505 0 01-22.918 12.006l-.446 43.863-14.808 11.655 12.596-54.225a535.988 535.988 0 01-26.748 12.098l1.974 51.009 64.948 3.825a493.744 493.744 0 0010.134-19.303l-47.204-5.533 53.054-6.63c2.84-6.1 5.466-12.045 7.891-17.794l-36.044 2.294-11.009 10.055 8.58-43.32z"/><path d="M732.095 89.803a544.566 544.566 0 01-12.926 3.521c-5.08 1.31-10.543 2.542-16.348 3.708l-.252 71.942-.114.048 99.082 36.331a349.507 349.507 0 0010.052-11.092l-77.544-39.74-15.398 7.257 13.448-71.975zM909.484 0s-4.279 3.84-12.56 10.083l-3.387 15.981-6.756 8.504 3.678-19.732a420.902 420.902 0 01-15.163 10.381l-3.587 27.078-7.442 8.298 7.107-32.836c-6.664 4.26-14.203 8.815-22.522 13.515l-.182 34.735 41.224-15.014a539.688 539.688 0 005.946-15.875l-21.282 4.175 24.797-14.349C906.483 13.607 909.484 0 909.484 0zM631.349 107.324a2813.177 2813.177 0 01-30.627 3.188l7.447 95.513 118.104 59.303a740.29 740.29 0 0011.781-7.721l-96.76-63.979-19.021 7.279 9.076-93.583z"/><path d="M670.982 182.105l.04-.014-.202-.085z"/><path d="M668.063 102.786c-10.702 1.496-22.023 2.887-33.836 4.211l7.067 86.63 110.034 54.868a599.168 599.168 0 008.087-5.79 285.4 285.4 0 004.279-3.207l-92.713-57.392-16.486 6.429 13.568-85.749z"/><path d="M702.433 169.034l.022-.012-.113-.041z"/><path d="M699.77 97.611c-8.794 1.699-18.31 3.26-28.436 4.714l.165 79.581-.477.185 107.08 45.716a311.693 311.693 0 0010.623-9.609l-86.293-49.165-15.949 6.913 13.287-78.335z"/><path fill-rule="evenodd" clip-rule="evenodd" d="M974.637 580.295h1.954l5.181 9.532h5.239l-5.795-9.919c3.959-.17 6.409-1.731 6.409-6.022 0-5.403-3.623-7.025-9.643-7.025h-8.581v22.967h5.235v-9.533zm0-4.12v-5.186h3.234c1.673 0 4.18.108 4.18 2.337 0 2.343-1.059 2.849-3.007 2.849h-4.407zm3.402 23.351c11.314 0 21.961-7.689 21.961-21.126 0-13.434-10.646-21.126-21.961-21.126-11.373 0-21.961 7.692-21.961 21.126 0 13.437 10.588 21.126 21.961 21.126zm14.939-21.126c0 9.476-6.801 15.89-14.938 15.89-8.306 0-14.939-6.414-14.939-15.89 0-9.479 6.634-15.887 14.939-15.887 8.137.001 14.938 6.409 14.938 15.887z"/><path d="M731.455 638.11c0-23.588-8.271-39.023-47.161-39.023-37.873 0-48.173 12.289-48.173 54.178.143 38.736 7.979 54.178 48.317 54.178 39.614 0 47.017-18.301 47.017-40.887h-38.6v11.151c0 5.146-2.61 8.575-8.417 8.575-5.804 0-8.413-3.43-8.413-8.575v-48.891c0-5.143 2.609-8.575 8.413-8.575 5.807 0 8.417 3.433 8.417 8.575v9.294h38.6zm-399.444 66.186v-88.649c-.229-2.822-1.553-4.512-3.278-5.5-.912-.52-1.908-.832-2.85-1.031a21.068 21.068 0 00-1.863-.296l.001-6.317h7.989l54.269-.275c29.314 0 38.163 8.581 38.163 24.732 0 16.724-10.011 22.728-24.957 25.3 15.959 2.146 26.99 8.295 26.99 25.734 0 12.866-7.4 26.303-33.084 26.303h-61.38zm38.017-41.743v20.583h7.835c5.807 0 8.853-5.429 8.853-11.722 0-6.289-3.338-8.861-8.125-8.861h-8.563zm0-39.166v18.866h7.835c4.934 0 7.982-4.288 7.982-9.434 0-5.147-3.048-9.433-7.982-9.433h-7.835zm72.201 80.909v-81.494l-.077-6.352c-.037-3.294-1.438-5.193-3.311-6.264-.913-.525-1.909-.832-2.852-1.035a20.965 20.965 0 00-1.861-.297l.003-6.312h8.098l39.18-.315v77.767h33.689v24.303h-72.869zm-322.497 0v-81.494l-.08-6.352c-.037-3.294-1.439-5.193-3.312-6.264-.913-.525-1.908-.832-2.849-1.035a20.907 20.907 0 00-1.861-.297l.001-6.312h8.101l39.18-.315v77.767h33.687v24.303h-72.867zm84.382 0v-81.494l-.077-6.352c-.037-3.294-1.44-5.193-3.312-6.264-.913-.525-1.908-.832-2.851-1.035a20.89 20.89 0 00-1.863-.297l.001-6.312h8.101l39.18-.315v77.767h33.689v24.303h-72.868zm751.382-74.424c0-17.003-8.408-31.675-46.165-31.675-30.091 0-46.021 10.754-46.021 35.741 0 37.928 55.164 22.957 55.164 45.915 0 5.089-3.838 9.01-9.144 9.01-3.394 0-5.31-1.454-6.491-3.776-1.179-2.471-1.474-5.812-1.621-9.879h-39.086c-1.77 29.783 24.482 33.126 49.998 33.126 25.224 0 45.872-8.575 45.872-36.036 0-37.633-55.455-26.155-55.455-45.475 0-3.928 2.8-7.701 7.075-7.701 4.132 0 6.491 1.017 7.67 2.904 1.182 1.886 1.477 4.504 1.477 7.846h36.727zm-377.281-6.561l-7.981 45.244h15.526l-7.545-45.244zm-54.413 80.985l23.625-88.389c.633-3.148-.088-5.188-1.874-6.21-.915-.524-1.315-.655-2.258-.857a20.955 20.955 0 00-1.862-.295l.003-6.318h63.335l26.7 102.069h-40.052l-2.899-16.009h-21.478l-2.902 16.009h-40.338zM54.415 623.311l-7.98 45.244h15.524l-7.544-45.244zM0 704.296l23.624-88.389c.636-3.148-.084-5.188-1.875-6.21-.913-.524-1.312-.655-2.254-.857a20.918 20.918 0 00-1.863-.295l.001-6.318h63.335l26.7 102.069h-40.05l-2.902-16.009H43.241l-2.902 16.009H0zm737.952-102.552l47.307-.147v28.421l27.893-28.308h45.804l-39.603 38.876 37.894 63.108h-41.485l-21.986-37.879-8.471 8.382v29.46h-39.177v-81.582l-.15-6.264c-.04-3.291-1.439-5.193-3.313-6.259-.912-.522-1.908-.835-2.851-1.036a19.354 19.354 0 00-1.863-.296l.001-6.476z"/></svg>