<?xml version="1.0" encoding="UTF-8"?>
<svg width="151.5pt" version="1.1" xmlns="http://www.w3.org/2000/svg" height="136pt" viewBox="0 0 151.5 136" xmlns:xlink="http://www.w3.org/1999/xlink">
 <defs>
  <clipPath id="Clip0">
   <path d="M0 0 L141.5 0 L141.5 126 L0 126 L0 0 Z" transform="translate(5.25, 5.31974)"/>
  </clipPath>
  <clipPath id="Clip1">
   <path d="M0 0 L134.707 0 L134.707 86.3817 L0 86.3817 L0 0 Z" transform="translate(8.73421, 5.31974)"/>
  </clipPath>
  <clipPath id="Clip2">
   <path d="M0 0 L135.582 0 L135.582 15.5562 L0 15.5562 L0 0 Z" transform="translate(5.25, 97.329)"/>
  </clipPath>
  <clipPath id="Clip3">
   <path d="M0 0 L92.6982 0 L92.6982 16.3483 L0 16.3483 L0 0 Z" transform="translate(21.9361, 114.971)"/>
  </clipPath>
 </defs>
 <g id="Background">
  <g id="Group59" clip-path="url(#Clip0)">
   <g id="Group57" clip-path="url(#Clip1)">
    <g transform="translate(68.4915, 24.7627)">
     <path style="fill:#000000; fill-rule:evenodd;" d="M5.59415 0 C3.69374 0.235943 1.82101 0.488474 0 0.766813 L0.657487 21.9059 L24.1275 34.1638 C24.8053 33.8339 25.4887 33.5002 26.1757 33.1611 L6.56009 19.8413 L3.32621 20.951 L5.59415 0 Z"/>
     <path style="fill:none; stroke:none;" d="M5.59415 0 C3.69374 0.235943 1.82101 0.488474 0 0.766813 L0.657487 21.9059 L24.1275 34.1638 C24.8053 33.8339 25.4887 33.5002 26.1757 33.1611 L6.56009 19.8413 L3.32621 20.951 L5.59415 0 Z"/>
    </g>
    <g transform="translate(57.0921, 26.5295)">
     <path style="fill:#000000; fill-rule:evenodd;" d="M5.64219 0 C3.74176 0.377877 1.93552 0.794466 0.247481 1.25713 L0 25.2975 L24.3528 37.7103 C25.2615 37.2827 26.1923 36.8458 27.1453 36.396 L6.02266 22.5234 L2.65949 24.0275 L5.64219 0 Z"/>
     <path style="fill:none; stroke:none;" d="M5.64219 0 C3.74176 0.377877 1.93552 0.794466 0.247481 1.25713 L0 25.2975 L24.3528 37.7103 C25.2615 37.2827 26.1923 36.8458 27.1453 36.396 L6.02266 22.5234 L2.65949 24.0275 L5.64219 0 Z"/>
    </g>
    <g transform="translate(63.1147, 25.6048)">
     <path style="fill:#000000; fill-rule:evenodd;" d="M4.89604 0 C3.24495 0.256219 1.63632 0.532717 0.0868028 0.833174 L0 23.4487 L24.1515 35.891 C24.9438 35.515 25.7472 35.1315 26.5598 34.7426 L6.03373 21.0634 L2.66134 22.2505 L4.89604 0 Z"/>
     <path style="fill:none; stroke:none;" d="M4.89604 0 C3.24495 0.256219 1.63632 0.532717 0.0868028 0.833174 L0 23.4487 L24.1515 35.891 C24.9438 35.515 25.7472 35.1315 26.5598 34.7426 L6.03373 21.0634 L2.66134 22.2505 L4.89604 0 Z"/>
    </g>
    <g transform="translate(74.5668, 23.6647)">
     <path style="fill:#000000; fill-rule:evenodd;" d="M9.57603 0 C8.09299 0.145621 6.60624 0.298615 5.12505 0.455296 L6.18148 19.1243 L2.94576 20.1657 L4.62825 0.508751 C3.07504 0.676491 1.52921 0.851606 0 1.03778 L0.483882 20.9381 L23.2946 32.6615 C23.9484 32.3297 24.604 31.9961 25.2597 31.6569 L6.2886 19.1225 L27.7732 30.3427 C28.4141 30.0035 29.0531 29.6606 29.6921 29.3159 L11.772 17.2791 L8.50297 18.3906 L9.57603 0 Z"/>
     <path style="fill:none; stroke:none;" d="M9.57603 0 C8.09299 0.145621 6.60624 0.298615 5.12505 0.455296 L6.18148 19.1243 L2.94576 20.1657 L4.62825 0.508751 C3.07504 0.676491 1.52921 0.851606 0 1.03778 L0.483882 20.9381 L23.2946 32.6615 C23.9484 32.3297 24.604 31.9961 25.2597 31.6569 L6.2886 19.1225 L27.7732 30.3427 C28.4141 30.0035 29.0531 29.6606 29.6921 29.3159 L11.772 17.2791 L8.50297 18.3906 L9.57603 0 Z"/>
    </g>
    <g transform="translate(84.6721, 23.1685)">
     <path style="fill:#000000; fill-rule:evenodd;" d="M4.61717 0 C3.08981 0.145621 1.54768 0.293086 0 0.444237 L1.66587 17.775 L21.8558 28.562 C22.4321 28.2413 23.0046 27.9168 23.5753 27.5906 L6.5139 16.0902 L3.70482 17.0837 L4.61717 0 Z"/>
     <path style="fill:none; stroke:none;" d="M4.61717 0 C3.08981 0.145621 1.54768 0.293086 0 0.444237 L1.66587 17.775 L21.8558 28.562 C22.4321 28.2413 23.0046 27.9168 23.5753 27.5906 L6.5139 16.0902 L3.70482 17.0837 L4.61717 0 Z"/>
    </g>
    <g transform="translate(8.73421, 40.419)">
     <path style="fill:#000000; fill-rule:evenodd;" d="M21.0765 0 C18.2009 1.76957 15.8443 3.35297 14.1932 4.50319 L13.4821 33.1795 C13.4821 33.1795 7.95817 37.1352 5.88228 38.8808 C3.80455 40.6283 0 44.2006 0 44.2006 L0.00184687 51.2824 C0.00184687 51.2824 4.60239 44.9361 7.82335 41.9223 C10.963 38.984 15.0169 35.6698 15.0169 35.6698 L14.2726 34.5988 L39.9016 46.1638 C40.3134 45.7655 41.3126 44.807 42.7495 43.502 L20.5261 28.9712 L17.0595 31.7435 L21.0765 0 Z"/>
     <path style="fill:none; stroke:none;" d="M21.0765 0 C18.2009 1.76957 15.8443 3.35297 14.1932 4.50319 L13.4821 33.1795 C13.4821 33.1795 7.95817 37.1352 5.88228 38.8808 C3.80455 40.6283 0 44.2006 0 44.2006 L0.00184687 51.2824 C0.00184687 51.2824 4.60239 44.9361 7.82335 41.9223 C10.963 38.984 15.0169 35.6698 15.0169 35.6698 L14.2726 34.5988 L39.9016 46.1638 C40.3134 45.7655 41.3126 44.807 42.7495 43.502 L20.5261 28.9712 L17.0595 31.7435 L21.0765 0 Z"/>
    </g>
    <g transform="translate(29.2592, 36.3719)">
     <path style="fill:#000000; fill-rule:evenodd;" d="M7.54263 0 C5.25436 1.2387 3.1286 2.47556 1.2097 3.64421 L0 33.0191 L25.9891 44.2411 C26.9218 43.4467 27.9228 42.6153 28.9774 41.7638 L7.18616 27.6459 L3.71221 30.1712 L7.54263 0 Z"/>
     <path style="fill:none; stroke:none;" d="M7.54263 0 C5.25436 1.2387 3.1286 2.47556 1.2097 3.64421 L0 33.0191 L25.9891 44.2411 C26.9218 43.4467 27.9228 42.6153 28.9774 41.7638 L7.18616 27.6459 L3.71221 30.1712 L7.54263 0 Z"/>
    </g>
    <g transform="translate(89.7724, 22.6686)">
     <path style="fill:#000000; fill-rule:evenodd;" d="M4.71322 0 C3.16738 0.151151 1.59385 0.302302 0 0.453451 L1.4147 16.5897 L20.6683 26.8164 C21.2833 26.4514 21.8965 26.0846 22.5022 25.7141 L6.40493 14.9013 L3.38347 15.9722 L4.71322 0 Z"/>
     <path style="fill:none; stroke:none;" d="M4.71322 0 C3.16738 0.151151 1.59385 0.302302 0 0.453451 L1.4147 16.5897 L20.6683 26.8164 C21.2833 26.4514 21.8965 26.0846 22.5022 25.7141 L6.40493 14.9013 L3.38347 15.9722 L4.71322 0 Z"/>
    </g>
    <g transform="translate(50.2417, 27.9262)">
     <path style="fill:#000000; fill-rule:evenodd;" d="M6.58961 0 C6.4622 0.0350228 6.33108 0.0700457 6.20548 0.106912 C4.32168 0.652528 2.45079 1.28662 0.603925 1.97602 L0 27.4708 L24.9863 39.2808 C25.9374 38.8163 26.9384 38.3334 27.9948 37.8301 L6.85003 23.9003 L3.24864 25.727 L6.58961 0 Z"/>
     <path style="fill:none; stroke:none;" d="M6.58961 0 C6.4622 0.0350228 6.33108 0.0700457 6.20548 0.106912 C4.32168 0.652528 2.45079 1.28662 0.603925 1.97602 L0 27.4708 L24.9863 39.2808 C25.9374 38.8163 26.9384 38.3334 27.9948 37.8301 L6.85003 23.9003 L3.24864 25.727 L6.58961 0 Z"/>
    </g>
    <g transform="translate(36.4446, 30.0702)">
     <path style="fill:#000000; fill-rule:evenodd;" d="M13.9568 0 C11.759 0.835019 9.60189 1.7493 7.51678 2.7115 L6.89066 29.3897 L3.37423 31.6366 L7.03471 2.93454 C4.88126 3.93914 2.80539 4.98984 0.842171 6.04234 L0 33.9481 L25.2781 45.3581 C26.1978 44.6688 27.1379 43.9886 28.0927 43.3232 L6.89252 29.4615 L31.7717 40.9047 C32.7597 40.2965 33.7497 39.7214 34.7322 39.1942 C34.7913 39.1628 34.856 39.1297 34.9169 39.0965 L13.7961 25.327 L10.2372 27.362 L13.9568 0 Z"/>
     <path style="fill:none; stroke:none;" d="M13.9568 0 C11.759 0.835019 9.60189 1.7493 7.51678 2.7115 L6.89066 29.3897 L3.37423 31.6366 L7.03471 2.93454 C4.88126 3.93914 2.80539 4.98984 0.842171 6.04234 L0 33.9481 L25.2781 45.3581 C26.1978 44.6688 27.1379 43.9886 28.0927 43.3232 L6.89252 29.4615 L31.7717 40.9047 C32.7597 40.2965 33.7497 39.7214 34.7322 39.1942 C34.7913 39.1628 34.856 39.1297 34.9169 39.0965 L13.7961 25.327 L10.2372 27.362 L13.9568 0 Z"/>
    </g>
    <g transform="translate(120.813, 16.1604)">
     <path style="fill:#000000; fill-rule:evenodd;" d="M4.08712 0 C2.78877 0.536403 1.42209 1.05805 0 1.56128 L0.0369374 10.7962 L11.9806 13.3732 C12.651 12.3704 13.2808 11.364 13.8774 10.3631 L4.81111 7.81194 L2.47665 9.31973 L4.08712 0 Z"/>
     <path style="fill:none; stroke:none;" d="M4.08712 0 C2.78877 0.536403 1.42209 1.05805 0 1.56128 L0.0369374 10.7962 L11.9806 13.3732 C12.651 12.3704 13.2808 11.364 13.8774 10.3631 L4.81111 7.81194 L2.47665 9.31973 L4.08712 0 Z"/>
    </g>
    <g transform="translate(115.922, 17.8832)">
     <path style="fill:#000000; fill-rule:evenodd;" d="M4.43987 0 C3.04918 0.482948 1.59754 0.943774 0.0923435 1.37695 L0 11.6257 L13.8053 15.8709 C14.3705 15.1575 14.9135 14.4386 15.438 13.716 L4.9293 9.07276 L2.51728 10.3373 L4.43987 0 Z"/>
     <path style="fill:none; stroke:none;" d="M4.43987 0 C3.04918 0.482948 1.59754 0.943774 0.0923435 1.37695 L0 11.6257 L13.8053 15.8709 C14.3705 15.1575 14.9135 14.4386 15.438 13.716 L4.9293 9.07276 L2.51728 10.3373 L4.43987 0 Z"/>
    </g>
    <g transform="translate(125.313, 12.0109)">
     <path style="fill:#000000; fill-rule:evenodd;" d="M8.20747 0 C7.09753 0.617505 5.89706 1.24792 4.61347 1.87833 L4.54328 8.74648 L2.21994 10.5713 L4.19609 2.08109 C2.88296 2.71887 1.48488 3.35297 0 3.97601 L0.310274 11.9612 L10.4976 12.5603 C11.0646 11.5409 11.5947 10.5308 12.0878 9.5391 L4.68366 8.67273 L13.0057 7.63498 C13.4508 6.68014 13.8626 5.74926 14.2431 4.84973 L8.58794 5.20917 L6.8611 6.78151 L8.20747 0 Z"/>
     <path style="fill:none; stroke:none;" d="M8.20747 0 C7.09753 0.617505 5.89706 1.24792 4.61347 1.87833 L4.54328 8.74648 L2.21994 10.5713 L4.19609 2.08109 C2.88296 2.71887 1.48488 3.35297 0 3.97601 L0.310274 11.9612 L10.4976 12.5603 C11.0646 11.5409 11.5947 10.5308 12.0878 9.5391 L4.68366 8.67273 L13.0057 7.63498 C13.4508 6.68014 13.8626 5.74926 14.2431 4.84973 L8.58794 5.20917 L6.8611 6.78151 L8.20747 0 Z"/>
    </g>
    <g transform="translate(110.967, 19.3768)">
     <path style="fill:#000000; fill-rule:evenodd;" d="M4.64858 0 C3.9837 0.18986 3.30959 0.374191 2.62071 0.551149 C1.82471 0.755753 0.967759 0.9493 0.0572531 1.13179 L0.0184687 12.3944 L0 12.4018 L15.5432 18.092 C16.0844 17.5206 16.6107 16.9418 17.1205 16.3557 L4.95515 10.1327 L2.54129 11.2681 L4.64858 0 Z"/>
     <path style="fill:none; stroke:none;" d="M4.64858 0 C3.9837 0.18986 3.30959 0.374191 2.62071 0.551149 C1.82471 0.755753 0.967759 0.9493 0.0572531 1.13179 L0.0184687 12.3944 L0 12.4018 L15.5432 18.092 C16.0844 17.5206 16.6107 16.9418 17.1205 16.3557 L4.95515 10.1327 L2.54129 11.2681 L4.64858 0 Z"/>
    </g>
    <g id="Copy of  path647855" transform="translate(133.902, 5.31974)">
     <path style="fill:#000000; fill-rule:evenodd;" d="M9.53906 0 C9.53906 0 8.8668 0.600918 7.56848 1.57787 L7.03841 4.08107 L5.97832 5.41193 L6.55453 2.32256 C5.87491 2.81104 5.08076 3.3585 4.17577 3.94836 L3.61432 8.18798 L2.4471 9.48565 L3.56076 4.34467 C2.51543 5.01195 1.33344 5.72531 0.027703 6.46078 L0 11.9004 L6.4659 9.55015 C6.8094 8.67827 7.11968 7.84695 7.39854 7.06353 L4.06127 7.71794 L7.95076 5.47094 C9.06811 2.13086 9.53906 0 9.53906 0 Z"/>
     <path style="fill:none; stroke:none;" d="M9.53906 0 C9.53906 0 8.8668 0.600918 7.56848 1.57787 L7.03841 4.08107 L5.97832 5.41193 L6.55453 2.32256 C5.87491 2.81104 5.08076 3.3585 4.17577 3.94836 L3.61432 8.18798 L2.4471 9.48565 L3.56076 4.34467 C2.51543 5.01195 1.33344 5.72531 0.027703 6.46078 L0 11.9004 L6.4659 9.55015 C6.8094 8.67827 7.11968 7.84695 7.39854 7.06353 L4.06127 7.71794 L7.95076 5.47094 C9.06811 2.13086 9.53906 0 9.53906 0 Z"/>
    </g>
    <g transform="translate(95.0085, 22.1183)">
     <path style="fill:#000000; fill-rule:evenodd;" d="M4.8037 0 C3.24864 0.171427 1.64002 0.335481 0 0.499535 L1.16907 15.4524 L19.695 24.739 C20.3193 24.339 20.9361 23.9371 21.5437 23.5298 L6.3643 13.5133 L3.38162 14.6524 L4.8037 0 Z"/>
     <path style="fill:none; stroke:none;" d="M4.8037 0 C3.24864 0.171427 1.64002 0.335481 0 0.499535 L1.16907 15.4524 L19.695 24.739 C20.3193 24.339 20.9361 23.9371 21.5437 23.5298 L6.3643 13.5133 L3.38162 14.6524 L4.8037 0 Z"/>
    </g>
    <g transform="translate(106.004, 33.8124)">
     <path style="fill:#000000; fill-rule:evenodd;" d="M0.0258562 0.0147464 L0.0313968 0.0129031 L0 0 L0.0258562 0.0147464 Z"/>
     <path style="fill:none; stroke:none;" d="M0.0258562 0.0147464 L0.0313968 0.0129031 L0 0 L0.0258562 0.0147464 Z"/>
    </g>
    <g transform="translate(100.264, 21.4085)">
     <path style="fill:#000000; fill-rule:evenodd;" d="M5.30792 0 C3.6291 0.2341 1.85241 0.45161 0 0.658059 L1.10997 14.2229 L18.3708 22.8146 C18.7975 22.5123 19.2222 22.2118 19.6378 21.9077 C19.8649 21.7418 20.0884 21.574 20.31 21.4063 L5.76594 12.4184 L3.18031 13.4248 L5.30792 0 Z"/>
     <path style="fill:none; stroke:none;" d="M5.30792 0 C3.6291 0.2341 1.85241 0.45161 0 0.658059 L1.10997 14.2229 L18.3708 22.8146 C18.7975 22.5123 19.2222 22.2118 19.6378 21.9077 C19.8649 21.7418 20.0884 21.574 20.31 21.4063 L5.76594 12.4184 L3.18031 13.4248 L5.30792 0 Z"/>
    </g>
    <g transform="translate(110.949, 31.7717)">
     <path style="fill:#000000; fill-rule:evenodd;" d="M0.0147749 0.00921652 L0.0184687 0.00737321 L0 0 L0.0147749 0.00921652 Z"/>
     <path style="fill:none; stroke:none;" d="M0.0147749 0.00921652 L0.0184687 0.00737321 L0 0 L0.0147749 0.00921652 Z"/>
    </g>
    <g transform="translate(106.037, 20.5989)">
     <path style="fill:#000000; fill-rule:evenodd;" d="M4.50821 0 C3.1286 0.265436 1.63632 0.510595 0.0480185 0.737321 L0.0738747 13.1962 L0 13.2257 L16.7973 20.3851 C17.3661 19.8948 17.922 19.3934 18.4631 18.881 L4.92745 11.1815 L2.42494 12.2635 L4.50821 0 Z"/>
     <path style="fill:none; stroke:none;" d="M4.50821 0 C3.1286 0.265436 1.63632 0.510595 0.0480185 0.737321 L0.0738747 13.1962 L0 13.2257 L16.7973 20.3851 C17.3661 19.8948 17.922 19.3934 18.4631 18.881 L4.92745 11.1815 L2.42494 12.2635 L4.50821 0 Z"/>
    </g>
   </g>
   <g id="Group58" clip-path="url(#Clip2)">
    <g transform="translate(95.2767, 97.455)">
     <path style="fill:#000000; fill-rule:evenodd;" d="M13.4923 5.5114 C13.4923 2.17913 12.3221 0 6.81817 0 C1.45832 0 0 1.73471 0 7.65253 C0.0198636 13.1243 1.12891 15.3051 6.83968 15.3051 C12.4445 15.3051 13.4923 12.7196 13.4923 9.52936 L8.02985 9.52936 L8.02985 11.1038 C8.02985 11.8307 7.66073 12.3165 6.83968 12.3165 C6.01868 12.3165 5.64789 11.8307 5.64789 11.1038 L5.64789 4.19965 C5.64789 3.47272 6.01868 2.987 6.83968 2.987 C7.66073 2.987 8.02985 3.47272 8.02985 4.19965 L8.02985 5.5114 L13.4923 5.5114 Z"/>
     <path style="fill:none; stroke:none;" d="M13.4923 5.5114 C13.4923 2.17913 12.3221 0 6.81817 0 C1.45832 0 0 1.73471 0 7.65253 C0.0198636 13.1243 1.12891 15.3051 6.83968 15.3051 C12.4445 15.3051 13.4923 12.7196 13.4923 9.52936 L8.02985 9.52936 L8.02985 11.1038 C8.02985 11.8307 7.66073 12.3165 6.83968 12.3165 C6.01868 12.3165 5.64789 11.8307 5.64789 11.1038 L5.64789 4.19965 C5.64789 3.47272 6.01868 2.987 6.83968 2.987 C7.66073 2.987 8.02985 3.47272 8.02985 4.19965 L8.02985 5.5114 L13.4923 5.5114 Z"/>
    </g>
    <g id=" path369462" transform="translate(51.1074, 97.8978)">
     <path style="fill:#000000; fill-rule:evenodd;" d="M1.13057 14.4179 L1.13057 1.89661 C1.09746 1.4968 0.910413 1.25891 0.667087 1.11847 C0.536315 1.04578 0.395616 1.00118 0.263192 0.973091 C0.172151 0.954916 0.0827649 0.941699 0 0.931788 L0 0.0396505 L1.13057 0.0396505 L8.81117 0 C12.9593 0 14.2124 1.21265 14.2124 3.4942 C14.2124 5.85671 12.7954 6.70423 10.68 7.06768 C12.9395 7.37167 14.4988 8.23904 14.4988 10.7023 C14.4988 12.5196 13.4526 14.4179 9.81757 14.4179 L1.13057 14.4179 Z M6.51029 8.52156 L6.51029 11.4292 L7.61933 11.4292 C8.44204 11.4292 8.87241 10.6627 8.87241 9.77385 C8.87241 8.88501 8.40064 8.52156 7.72197 8.52156 L6.51029 8.52156 L6.51029 8.52156 Z M6.51029 2.98865 L6.51029 5.6535 L7.61933 5.6535 C8.31789 5.6535 8.74993 5.04885 8.74993 4.32191 C8.74993 3.59498 8.31789 2.98865 7.61933 2.98865 L6.51029 2.98865 L6.51029 2.98865 Z"/>
     <path style="fill:none; stroke:none;" d="M1.13057 14.4179 L1.13057 1.89661 C1.09746 1.4968 0.910413 1.25891 0.667087 1.11847 C0.536315 1.04578 0.395616 1.00118 0.263192 0.973091 C0.172151 0.954916 0.0827649 0.941699 0 0.931788 L0 0.0396505 L1.13057 0.0396505 L8.81117 0 C12.9593 0 14.2124 1.21265 14.2124 3.4942 C14.2124 5.85671 12.7954 6.70423 10.68 7.06768 C12.9395 7.37167 14.4988 8.23904 14.4988 10.7023 C14.4988 12.5196 13.4526 14.4179 9.81757 14.4179 L1.13057 14.4179 Z M6.51029 8.52156 L6.51029 11.4292 L7.61933 11.4292 C8.44204 11.4292 8.87241 10.6627 8.87241 9.77385 C8.87241 8.88501 8.40064 8.52156 7.72197 8.52156 L6.51029 8.52156 L6.51029 8.52156 Z M6.51029 2.98865 L6.51029 5.6535 L7.61933 5.6535 C8.31789 5.6535 8.74993 5.04885 8.74993 4.32191 C8.74993 3.59498 8.31789 2.98865 7.61933 2.98865 L6.51029 2.98865 L6.51029 2.98865 Z"/>
    </g>
    <g transform="translate(66.6894, 97.8978)">
     <path style="fill:#000000; fill-rule:evenodd;" d="M1.14712 14.4179 L1.14712 2.90605 L1.13553 2.00896 C1.13057 1.54471 0.931932 1.27542 0.667087 1.12508 C0.537973 1.05074 0.397272 1.00613 0.264848 0.978044 C0.173806 0.959874 0.0844204 0.946656 0 0.936741 L0.0016553 0.0446068 L1.14712 0.0446068 L6.69239 0 L6.69239 10.9848 L11.4596 10.9848 L11.4596 14.4179 L1.14712 14.4179 Z"/>
     <path style="fill:none; stroke:none;" d="M1.14712 14.4179 L1.14712 2.90605 L1.13553 2.00896 C1.13057 1.54471 0.931932 1.27542 0.667087 1.12508 C0.537973 1.05074 0.397272 1.00613 0.264848 0.978044 C0.173806 0.959874 0.0844204 0.946656 0 0.936741 L0.0016553 0.0446068 L1.14712 0.0446068 L6.69239 0 L6.69239 10.9848 L11.4596 10.9848 L11.4596 14.4179 L1.14712 14.4179 Z"/>
    </g>
    <g transform="translate(21.0473, 97.8978)">
     <path style="fill:#000000; fill-rule:evenodd;" d="M1.14712 14.4179 L1.14712 2.90605 L1.13553 2.00896 C1.13057 1.54471 0.931932 1.27542 0.667087 1.12508 C0.537973 1.05074 0.397272 1.00613 0.264848 0.978044 C0.173806 0.959874 0.0844204 0.946656 0 0.936741 L0.0016553 0.0446068 L1.14712 0.0446068 L6.69239 0 L6.69239 10.9848 L11.4596 10.9848 L11.4596 14.4179 L1.14712 14.4179 Z"/>
     <path style="fill:none; stroke:none;" d="M1.14712 14.4179 L1.14712 2.90605 L1.13553 2.00896 C1.13057 1.54471 0.931932 1.27542 0.667087 1.12508 C0.537973 1.05074 0.397272 1.00613 0.264848 0.978044 C0.173806 0.959874 0.0844204 0.946656 0 0.936741 L0.0016553 0.0446068 L1.14712 0.0446068 L6.69239 0 L6.69239 10.9848 L11.4596 10.9848 L11.4596 14.4179 L1.14712 14.4179 Z"/>
    </g>
    <g transform="translate(32.9897, 97.8978)">
     <path style="fill:#000000; fill-rule:evenodd;" d="M1.14712 14.4179 L1.14712 2.90605 L1.13553 2.00896 C1.13057 1.54471 0.931932 1.27542 0.667087 1.12508 C0.537973 1.05074 0.397272 1.00613 0.264848 0.978044 C0.173806 0.959874 0.0844204 0.946656 0 0.936741 L0 0.0446068 L1.14712 0.0446068 L6.69239 0 L6.69239 10.9848 L11.4596 10.9848 L11.4596 14.4179 L1.14712 14.4179 Z"/>
     <path style="fill:none; stroke:none;" d="M1.14712 14.4179 L1.14712 2.90605 L1.13553 2.00896 C1.13057 1.54471 0.931932 1.27542 0.667087 1.12508 C0.537973 1.05074 0.397272 1.00613 0.264848 0.978044 C0.173806 0.959874 0.0844204 0.946656 0 0.936741 L0 0.0446068 L1.14712 0.0446068 L6.69239 0 L6.69239 10.9848 L11.4596 10.9848 L11.4596 14.4179 L1.14712 14.4179 Z"/>
    </g>
    <g transform="translate(127.013, 97.329)">
     <path style="fill:#000000; fill-rule:evenodd;" d="M13.4642 4.4739 C13.4642 2.07174 12.2741 0 6.92908 0 C2.67165 0 0.417135 1.51829 0.417135 5.04885 C0.417135 10.4049 8.22519 8.29191 8.22519 11.535 C8.22519 12.252 7.68057 12.8071 6.92908 12.8071 C6.45072 12.8071 6.17759 12.6006 6.01204 12.2735 C5.84485 11.9249 5.8035 11.4524 5.78194 10.8775 L0.24995 10.8775 C0 15.0854 3.71449 15.5562 7.32636 15.5562 C10.8968 15.5562 13.8184 14.3469 13.8184 10.4677 C13.8184 5.15124 5.96901 6.77199 5.96901 4.0427 C5.96901 3.48925 6.36629 2.95561 6.97211 2.95561 C7.55646 2.95561 7.89082 3.09934 8.05801 3.36533 C8.22519 3.63298 8.26655 4.0014 8.26655 4.4739 L13.4642 4.4739 Z"/>
     <path style="fill:none; stroke:none;" d="M13.4642 4.4739 C13.4642 2.07174 12.2741 0 6.92908 0 C2.67165 0 0.417135 1.51829 0.417135 5.04885 C0.417135 10.4049 8.22519 8.29191 8.22519 11.535 C8.22519 12.252 7.68057 12.8071 6.92908 12.8071 C6.45072 12.8071 6.17759 12.6006 6.01204 12.2735 C5.84485 11.9249 5.8035 11.4524 5.78194 10.8775 L0.24995 10.8775 C0 15.0854 3.71449 15.5562 7.32636 15.5562 C10.8968 15.5562 13.8184 14.3469 13.8184 10.4677 C13.8184 5.15124 5.96901 6.77199 5.96901 4.0427 C5.96901 3.48925 6.36629 2.95561 6.97211 2.95561 C7.55646 2.95561 7.89082 3.09934 8.05801 3.36533 C8.22519 3.63298 8.26655 4.0014 8.26655 4.4739 L13.4642 4.4739 Z"/>
    </g>
    <g transform="translate(79.3821, 97.8978)">
     <path style="fill:#000000; fill-rule:evenodd;" d="M7.70046 2.97874 L6.5699 9.36908 L8.76814 9.36908 L7.70046 2.97874 Z M0 14.4179 L3.34205 1.93296 C3.43143 1.48854 3.33046 1.19943 3.0772 1.0557 C2.94809 0.98135 2.89015 0.963176 2.75773 0.93509 C2.66669 0.915265 2.57895 0.902048 2.49454 0.892137 L2.49454 0 L3.86016 0 L11.458 0 L15.2354 14.4179 L9.5693 14.4179 L9.15878 12.1562 L6.11798 12.1562 L5.70746 14.4179 L0 14.4179 L0 14.4179 Z"/>
     <path style="fill:none; stroke:none;" d="M7.70046 2.97874 L6.5699 9.36908 L8.76814 9.36908 L7.70046 2.97874 Z M0 14.4179 L3.34205 1.93296 C3.43143 1.48854 3.33046 1.19943 3.0772 1.0557 C2.94809 0.98135 2.89015 0.963176 2.75773 0.93509 C2.66669 0.915265 2.57895 0.902048 2.49454 0.892137 L2.49454 0 L3.86016 0 L11.458 0 L15.2354 14.4179 L9.5693 14.4179 L9.15878 12.1562 L6.11798 12.1562 L5.70746 14.4179 L0 14.4179 L0 14.4179 Z"/>
    </g>
    <g transform="translate(5.25, 97.8978)">
     <path style="fill:#000000; fill-rule:evenodd;" d="M7.70046 2.97874 L6.57153 9.36908 L8.76814 9.36908 L7.70046 2.97874 Z M1.60571e-15 14.4179 L3.34205 1.93296 C3.43309 1.48854 3.33046 1.19943 3.0772 1.0557 C2.94809 0.98135 2.89181 0.963176 2.75773 0.93509 C2.66834 0.915265 2.57895 0.902048 2.49454 0.892137 L2.49454 0 L3.86016 0 L11.458 0 L15.237 14.4179 L9.5693 14.4179 L9.15878 12.1562 L6.11965 12.1562 L5.70913 14.4179 L0 14.4179 L1.60571e-15 14.4179 Z"/>
     <path style="fill:none; stroke:none;" d="M7.70046 2.97874 L6.57153 9.36908 L8.76814 9.36908 L7.70046 2.97874 Z M1.60571e-15 14.4179 L3.34205 1.93296 C3.43309 1.48854 3.33046 1.19943 3.0772 1.0557 C2.94809 0.98135 2.89181 0.963176 2.75773 0.93509 C2.66834 0.915265 2.57895 0.902048 2.49454 0.892137 L2.49454 0 L3.86016 0 L11.458 0 L15.237 14.4179 L9.5693 14.4179 L9.15878 12.1562 L6.11965 12.1562 L5.70913 14.4179 L0 14.4179 L1.60571e-15 14.4179 Z"/>
    </g>
    <g transform="translate(109.688, 97.8094)">
     <path style="fill:#000000; fill-rule:evenodd;" d="M0.0016553 0.0198253 L6.69568 0 L6.69568 4.01296 L10.6436 0.0148689 L17.1274 0.0148689 L11.5209 5.50648 L16.884 14.4212 L11.0127 14.4212 L7.90072 9.07172 L6.70228 10.2546 L6.70228 14.4163 L1.15871 14.4163 L1.15871 2.89283 L1.13553 2.0073 C1.13057 1.54306 0.93359 1.27377 0.668741 1.12343 C0.539628 1.04909 0.397272 1.00613 0.263192 0.978044 C0.173806 0.958218 0.0844204 0.945005 0 0.93509 L0.0016553 0.0198253 Z"/>
     <path style="fill:none; stroke:none;" d="M0.0016553 0.0198253 L6.69568 0 L6.69568 4.01296 L10.6436 0.0148689 L17.1274 0.0148689 L11.5209 5.50648 L16.884 14.4212 L11.0127 14.4212 L7.90072 9.07172 L6.70228 10.2546 L6.70228 14.4163 L1.15871 14.4163 L1.15871 2.89283 L1.13553 2.0073 C1.13057 1.54306 0.93359 1.27377 0.668741 1.12343 C0.539628 1.04909 0.397272 1.00613 0.263192 0.978044 C0.173806 0.958218 0.0844204 0.945005 0 0.93509 L0.0016553 0.0198253 Z"/>
    </g>
   </g>
   <g id="Copy of Group28" clip-path="url(#Clip3)">
    <g transform="translate(21.9361, 114.971)">
     <path style="fill:#000000; fill-rule:evenodd;" d="M13.5967 4.87003 C13.4637 0.792621 10.3296 0 6.6875 0 C2.31782 0 0.286265 1.54285 0.286265 4.73727 C0.286265 7.57967 2.07403 8.81284 5.91554 10.5087 C7.19538 11.0838 8.07821 11.3916 8.07821 12.2506 C8.07821 12.9787 7.59248 13.1962 6.88515 13.1962 C5.82687 13.1962 5.60527 12.4939 5.56093 11.4137 L0.131128 11.4137 C0 16.0165 3.37608 16.3483 7.10675 16.3483 C11.8754 16.3483 13.9716 14.6967 13.9716 11.6331 C13.9716 8.28564 10.7931 7.05063 7.81413 5.81747 C6.55453 5.28842 6.00417 4.95849 6.00417 4.07555 C6.00417 3.50412 6.44557 3.21657 6.99593 3.21657 C8.03387 3.21657 8.25552 3.92255 8.25552 4.87003 L13.5967 4.87003 Z"/>
     <path style="fill:none; stroke:none;" d="M13.5967 4.87003 C13.4637 0.792621 10.3296 0 6.6875 0 C2.31782 0 0.286265 1.54285 0.286265 4.73727 C0.286265 7.57967 2.07403 8.81284 5.91554 10.5087 C7.19538 11.0838 8.07821 11.3916 8.07821 12.2506 C8.07821 12.9787 7.59248 13.1962 6.88515 13.1962 C5.82687 13.1962 5.60527 12.4939 5.56093 11.4137 L0.131128 11.4137 C0 16.0165 3.37608 16.3483 7.10675 16.3483 C11.8754 16.3483 13.9716 14.6967 13.9716 11.6331 C13.9716 8.28564 10.7931 7.05063 7.81413 5.81747 C6.55453 5.28842 6.00417 4.95849 6.00417 4.07555 C6.00417 3.50412 6.44557 3.21657 6.99593 3.21657 C8.03387 3.21657 8.25552 3.92255 8.25552 4.87003 L13.5967 4.87003 Z"/>
    </g>
    <g transform="translate(36.529, 115.281)">
     <path style="fill:#000000; fill-rule:evenodd;" d="M1.19123 15.6865 L12.9336 15.6865 L12.9336 11.9852 L7.1289 11.9852 L7.1289 9.78242 L12.2059 9.78242 L12.2059 6.07924 L7.1289 6.07924 L7.1289 3.70135 L12.9336 3.70135 L12.9336 0 L0 0 L0 1.01198 L0.483882 1.05805 C0.991768 1.1023 1.19123 1.43225 1.19123 1.82856 L1.19123 15.6865 Z"/>
     <path style="fill:none; stroke:none;" d="M1.19123 15.6865 L12.9336 15.6865 L12.9336 11.9852 L7.1289 11.9852 L7.1289 9.78242 L12.2059 9.78242 L12.2059 6.07924 L7.1289 6.07924 L7.1289 3.70135 L12.9336 3.70135 L12.9336 0 L0 0 L0 1.01198 L0.483882 1.05805 C0.991768 1.1023 1.19123 1.43225 1.19123 1.82856 L1.19123 15.6865 Z"/>
    </g>
    <g transform="translate(50.3478, 115.281)">
     <path style="fill:#000000; fill-rule:evenodd;" d="M12.6049 15.6865 L16.3799 0 L10.0894 0 L8.63228 11.6091 L8.58794 11.6091 L7.01997 0 L0 0 L0 0.991698 C0.818162 1.07833 1.12659 1.45437 1.30389 2.09215 L4.37154 15.6865 L12.6049 15.6865 Z"/>
     <path style="fill:none; stroke:none;" d="M12.6049 15.6865 L16.3799 0 L10.0894 0 L8.63228 11.6091 L8.58794 11.6091 L7.01997 0 L0 0 L0 0.991698 C0.818162 1.07833 1.12659 1.45437 1.30389 2.09215 L4.37154 15.6865 L12.6049 15.6865 Z"/>
    </g>
    <g transform="translate(67.9428, 115.281)">
     <path style="fill:#000000; fill-rule:evenodd;" d="M1.19308 15.6865 L12.9373 15.6865 L12.9373 11.9852 L7.13075 11.9852 L7.13075 9.78242 L12.2078 9.78242 L12.2078 6.07924 L7.13075 6.07924 L7.13075 3.70135 L12.9373 3.70135 L12.9373 0 L0 0 L0 1.01198 L0.485726 1.05805 C0.993616 1.1023 1.19308 1.43225 1.19308 1.82856 L1.19308 15.6865 Z"/>
     <path style="fill:none; stroke:none;" d="M1.19308 15.6865 L12.9373 15.6865 L12.9373 11.9852 L7.13075 11.9852 L7.13075 9.78242 L12.2078 9.78242 L12.2078 6.07924 L7.13075 6.07924 L7.13075 3.70135 L12.9373 3.70135 L12.9373 0 L0 0 L0 1.01198 L0.485726 1.05805 C0.993616 1.1023 1.19308 1.43225 1.19308 1.82856 L1.19308 15.6865 Z"/>
    </g>
    <g transform="translate(82.2054, 115.279)">
     <path style="fill:#000000; fill-rule:evenodd;" d="M0 1.01382 L0.485726 1.0599 C0.993616 1.1023 1.19123 1.43409 1.19123 1.82856 L1.19123 15.6883 L7.1086 15.6883 L7.1086 8.83494 L7.17509 8.83494 L10.9261 15.6883 L16.777 15.6883 L16.777 0 L10.8614 0 L10.8614 7.73449 L10.7728 7.73449 L7.01997 0 L0 0 L0 1.01382 Z"/>
     <path style="fill:none; stroke:none;" d="M0 1.01382 L0.485726 1.0599 C0.993616 1.1023 1.19123 1.43409 1.19123 1.82856 L1.19123 15.6883 L7.1086 15.6883 L7.1086 8.83494 L7.17509 8.83494 L10.9261 15.6883 L16.777 15.6883 L16.777 0 L10.8614 0 L10.8614 7.73449 L10.7728 7.73449 L7.01997 0 L0 0 L0 1.01382 Z"/>
    </g>
    <g transform="translate(100.663, 114.971)">
     <path style="fill:#000000; fill-rule:evenodd;" d="M13.5967 4.87003 C13.4637 0.792621 10.3296 0 6.6875 0 C2.31598 0 0.286265 1.54285 0.286265 4.73727 C0.286265 7.57967 2.07403 8.81284 5.91554 10.5087 C7.19538 11.0838 8.07821 11.3916 8.07821 12.2506 C8.07821 12.9787 7.59248 13.1962 6.88696 13.1962 C5.82687 13.1962 5.60707 12.4939 5.56093 11.4137 L0.131128 11.4137 C0 16.0165 3.37608 16.3483 7.10675 16.3483 C11.8754 16.3483 13.9716 14.6967 13.9716 11.6331 C13.9716 8.28564 10.7931 7.05063 7.81413 5.81747 C6.55453 5.28842 6.00417 4.95849 6.00417 4.07555 C6.00417 3.50412 6.44557 3.21657 6.99593 3.21657 C8.03387 3.21657 8.25552 3.92255 8.25552 4.87003 L13.5967 4.87003 Z"/>
     <path style="fill:none; stroke:none;" d="M13.5967 4.87003 C13.4637 0.792621 10.3296 0 6.6875 0 C2.31598 0 0.286265 1.54285 0.286265 4.73727 C0.286265 7.57967 2.07403 8.81284 5.91554 10.5087 C7.19538 11.0838 8.07821 11.3916 8.07821 12.2506 C8.07821 12.9787 7.59248 13.1962 6.88696 13.1962 C5.82687 13.1962 5.60707 12.4939 5.56093 11.4137 L0.131128 11.4137 C0 16.0165 3.37608 16.3483 7.10675 16.3483 C11.8754 16.3483 13.9716 14.6967 13.9716 11.6331 C13.9716 8.28564 10.7931 7.05063 7.81413 5.81747 C6.55453 5.28842 6.00417 4.95849 6.00417 4.07555 C6.00417 3.50412 6.44557 3.21657 6.99593 3.21657 C8.03387 3.21657 8.25552 3.92255 8.25552 4.87003 L13.5967 4.87003 Z"/>
    </g>
   </g>
   <g transform="translate(140.825, 91.7003)">
    <path style="fill:#000000; fill-rule:evenodd;" d="M0.893885 2.9585 C0.893885 2.67095 0.943751 2.39998 1.04533 2.14561 C1.15245 1.8857 1.2965 1.65897 1.47749 1.46912 C1.66403 1.27741 1.88196 1.12626 2.13129 1.01382 C2.38615 0.901375 2.66319 0.846076 2.96238 0.846076 C3.25972 0.846076 3.53491 0.901375 3.78424 1.01382 C4.04095 1.12626 4.25888 1.27741 4.43987 1.46912 C4.62639 1.65897 4.77048 1.8857 4.87018 2.14561 C4.9773 2.39998 5.03086 2.67095 5.03086 2.9585 C5.03086 3.24606 4.9773 3.51887 4.87018 3.77877 C4.77048 4.03499 4.62639 4.25619 4.43987 4.44789 C4.25888 4.63961 4.04095 4.79073 3.78424 4.90319 C3.53491 5.01565 3.25972 5.0691 2.96238 5.0691 C2.66319 5.0691 2.38615 5.01565 2.13129 4.90319 C1.88196 4.79073 1.66403 4.63961 1.47749 4.44789 C1.2965 4.25619 1.15245 4.03499 1.04533 3.77877 C0.943751 3.51887 0.893885 3.24606 0.893885 2.9585 Z M0 2.9585 C0 3.36772 0.0775686 3.75297 0.230859 4.11426 C0.385996 4.47001 0.596539 4.78153 0.862487 5.04695 C1.13398 5.31242 1.44794 5.51884 1.80439 5.66631 C2.16638 5.81747 2.55237 5.89122 2.96238 5.89122 C3.37238 5.89122 3.75469 5.81747 4.11298 5.66631 C4.47312 5.51884 4.78707 5.31242 5.05486 5.04695 C5.32636 4.78153 5.53878 4.47001 5.6939 4.11426 C5.8472 3.75297 5.92476 3.36772 5.92476 2.9585 C5.92476 2.54929 5.8472 2.16588 5.6939 1.81197 C5.53878 1.44884 5.32636 1.13548 5.05486 0.870038 C4.78707 0.599073 4.47312 0.387094 4.11298 0.2341 C3.75469 0.0792621 3.37238 0 2.96238 0 C2.55237 0 2.16638 0.0792621 1.80439 0.2341 C1.44794 0.387094 1.13398 0.599073 0.862487 0.870038 C0.596539 1.13548 0.385996 1.44884 0.230859 1.81197 C0.0775686 2.16588 0 2.54929 0 2.9585 Z M2.50805 2.7115 L2.50805 1.92257 L2.96977 1.92257 C3.03441 1.92257 3.10089 1.9281 3.16923 1.93731 C3.24495 1.94469 3.31144 1.95943 3.36869 1.98524 C3.43333 2.01104 3.48319 2.05344 3.52198 2.10505 C3.55892 2.15298 3.57739 2.22302 3.57739 2.31151 C3.57739 2.48293 3.52567 2.59169 3.42594 2.63961 C3.32436 2.68754 3.19693 2.7115 3.04179 2.7115 L2.50805 2.7115 L2.50805 2.7115 Z M1.80439 1.36405 L1.80439 4.55296 L2.50805 4.55296 L2.50805 3.27002 L2.76292 3.27002 L3.51275 4.55296 L4.2792 4.55296 L3.48873 3.23868 C3.71221 3.21104 3.89874 3.12624 4.04834 2.98247 C4.20163 2.83316 4.2792 2.62302 4.2792 2.3539 C4.2792 2.03501 4.17946 1.78985 3.97631 1.61842 C3.775 1.44884 3.46473 1.36405 3.05103 1.36405 L1.80439 1.36405 L1.80439 1.36405 Z"/>
    <path style="fill:none; stroke:none;" d="M0.893885 2.9585 C0.893885 2.67095 0.943751 2.39998 1.04533 2.14561 C1.15245 1.8857 1.2965 1.65897 1.47749 1.46912 C1.66403 1.27741 1.88196 1.12626 2.13129 1.01382 C2.38615 0.901375 2.66319 0.846076 2.96238 0.846076 C3.25972 0.846076 3.53491 0.901375 3.78424 1.01382 C4.04095 1.12626 4.25888 1.27741 4.43987 1.46912 C4.62639 1.65897 4.77048 1.8857 4.87018 2.14561 C4.9773 2.39998 5.03086 2.67095 5.03086 2.9585 C5.03086 3.24606 4.9773 3.51887 4.87018 3.77877 C4.77048 4.03499 4.62639 4.25619 4.43987 4.44789 C4.25888 4.63961 4.04095 4.79073 3.78424 4.90319 C3.53491 5.01565 3.25972 5.0691 2.96238 5.0691 C2.66319 5.0691 2.38615 5.01565 2.13129 4.90319 C1.88196 4.79073 1.66403 4.63961 1.47749 4.44789 C1.2965 4.25619 1.15245 4.03499 1.04533 3.77877 C0.943751 3.51887 0.893885 3.24606 0.893885 2.9585 Z M0 2.9585 C0 3.36772 0.0775686 3.75297 0.230859 4.11426 C0.385996 4.47001 0.596539 4.78153 0.862487 5.04695 C1.13398 5.31242 1.44794 5.51884 1.80439 5.66631 C2.16638 5.81747 2.55237 5.89122 2.96238 5.89122 C3.37238 5.89122 3.75469 5.81747 4.11298 5.66631 C4.47312 5.51884 4.78707 5.31242 5.05486 5.04695 C5.32636 4.78153 5.53878 4.47001 5.6939 4.11426 C5.8472 3.75297 5.92476 3.36772 5.92476 2.9585 C5.92476 2.54929 5.8472 2.16588 5.6939 1.81197 C5.53878 1.44884 5.32636 1.13548 5.05486 0.870038 C4.78707 0.599073 4.47312 0.387094 4.11298 0.2341 C3.75469 0.0792621 3.37238 0 2.96238 0 C2.55237 0 2.16638 0.0792621 1.80439 0.2341 C1.44794 0.387094 1.13398 0.599073 0.862487 0.870038 C0.596539 1.13548 0.385996 1.44884 0.230859 1.81197 C0.0775686 2.16588 0 2.54929 0 2.9585 Z M2.50805 2.7115 L2.50805 1.92257 L2.96977 1.92257 C3.03441 1.92257 3.10089 1.9281 3.16923 1.93731 C3.24495 1.94469 3.31144 1.95943 3.36869 1.98524 C3.43333 2.01104 3.48319 2.05344 3.52198 2.10505 C3.55892 2.15298 3.57739 2.22302 3.57739 2.31151 C3.57739 2.48293 3.52567 2.59169 3.42594 2.63961 C3.32436 2.68754 3.19693 2.7115 3.04179 2.7115 L2.50805 2.7115 L2.50805 2.7115 Z M1.80439 1.36405 L1.80439 4.55296 L2.50805 4.55296 L2.50805 3.27002 L2.76292 3.27002 L3.51275 4.55296 L4.2792 4.55296 L3.48873 3.23868 C3.71221 3.21104 3.89874 3.12624 4.04834 2.98247 C4.20163 2.83316 4.2792 2.62302 4.2792 2.3539 C4.2792 2.03501 4.17946 1.78985 3.97631 1.61842 C3.775 1.44884 3.46473 1.36405 3.05103 1.36405 L1.80439 1.36405 L1.80439 1.36405 Z"/>
   </g>
  </g>
 </g>
</svg>
