<svg width="202" xmlns="http://www.w3.org/2000/svg" height="136pt" viewBox="0 0 151.5 136"><defs><clipPath id="a"><path d="M0 0h141.5v126H0V0z" transform="translate(5.25 5.32)"/></clipPath><clipPath id="b"><path d="M0 0h134.707v86.382H0V0z" transform="translate(8.734 5.32)"/></clipPath><clipPath id="c"><path d="M0 0h135.582v15.556H0V0z" transform="translate(5.25 97.329)"/></clipPath><clipPath id="d"><path d="M0 0h92.698v16.348H0V0z" transform="translate(21.936 114.971)"/></clipPath></defs><g clip-path="url(#a)"><g clip-path="url(#b)"><path d="M74.086 24.763c-1.9.236-3.773.488-5.594.767l.657 21.139 23.47 12.258c.678-.33 1.361-.664 2.048-1.003l-19.615-13.32-3.234 1.11 2.268-20.951z" fill-rule="evenodd"/><path d="M74.086 24.763c-1.9.236-3.773.488-5.594.767l.657 21.139 23.47 12.258c.678-.33 1.361-.664 2.048-1.003l-19.615-13.32-3.234 1.11 2.268-20.951z" fill="none"/><path d="M62.734 26.53c-1.9.377-3.706.794-5.394 1.257l-.248 24.04L81.445 64.24l2.792-1.314-21.122-13.873-3.363 1.504 2.982-24.027z" fill-rule="evenodd"/><path d="M62.734 26.53c-1.9.377-3.706.794-5.394 1.257l-.248 24.04L81.445 64.24l2.792-1.314-21.122-13.873-3.363 1.504 2.982-24.027z" fill="none"/><path d="M68.01 25.605c-1.65.256-3.259.533-4.808.833l-.087 22.616 24.151 12.442c.792-.376 1.596-.76 2.408-1.149L69.148 46.668l-3.372 1.187 2.235-22.25z" fill-rule="evenodd"/><path d="M68.01 25.605c-1.65.256-3.259.533-4.808.833l-.087 22.616 24.151 12.442c.792-.376 1.596-.76 2.408-1.149L69.148 46.668l-3.372 1.187 2.235-22.25z" fill="none"/><path d="M84.143 23.665c-1.483.145-2.97.298-4.451.455l1.056 18.669-3.235 1.041 1.682-19.657c-1.553.168-3.099.343-4.628.53l.484 19.9 22.81 11.723c.654-.332 1.31-.665 1.965-1.004l-18.97-12.535 21.484 11.22c.64-.339 1.28-.682 1.919-1.026l-17.92-12.037-3.27 1.111 1.074-18.39z" fill-rule="evenodd"/><path d="M84.143 23.665c-1.483.145-2.97.298-4.451.455l1.056 18.669-3.235 1.041 1.682-19.657c-1.553.168-3.099.343-4.628.53l.484 19.9 22.81 11.723c.654-.332 1.31-.665 1.965-1.004l-18.97-12.535 21.484 11.22c.64-.339 1.28-.682 1.919-1.026l-17.92-12.037-3.27 1.111 1.074-18.39z" fill="none"/><path d="M89.29 23.169c-1.528.145-3.07.293-4.618.444l1.666 17.33 20.19 10.788a190.97 190.97 0 001.72-.972l-17.062-11.5-2.81.993.913-17.084z" fill-rule="evenodd"/><path d="M89.29 23.169c-1.528.145-3.07.293-4.618.444l1.666 17.33 20.19 10.788a190.97 190.97 0 001.72-.972l-17.062-11.5-2.81.993.913-17.084z" fill="none"/><path d="M29.81 40.419a146.026 146.026 0 00-6.883 4.503l-.71 28.677s-5.525 3.955-7.6 5.7c-2.078 1.748-5.883 5.32-5.883 5.32l.002 7.082s4.6-6.346 7.822-9.36c3.14-2.938 7.193-6.252 7.193-6.252l-.744-1.071 25.629 11.565c.412-.399 1.41-1.357 2.848-2.662L29.26 69.391l-3.466 2.771L29.81 40.42z" fill-rule="evenodd"/><path d="M29.81 40.419a146.026 146.026 0 00-6.883 4.503l-.71 28.677s-5.525 3.955-7.6 5.7c-2.078 1.748-5.883 5.32-5.883 5.32l.002 7.082s4.6-6.346 7.822-9.36c3.14-2.938 7.193-6.252 7.193-6.252l-.744-1.071 25.629 11.565c.412-.399 1.41-1.357 2.848-2.662L29.26 69.391l-3.466 2.771L29.81 40.42z" fill="none"/><path d="M36.802 36.372a143.912 143.912 0 00-6.333 3.644l-1.21 29.375 25.99 11.222a148.33 148.33 0 012.988-2.477L36.445 64.018l-3.474 2.525 3.83-30.171z" fill-rule="evenodd"/><path d="M36.802 36.372a143.912 143.912 0 00-6.333 3.644l-1.21 29.375 25.99 11.222a148.33 148.33 0 012.988-2.477L36.445 64.018l-3.474 2.525 3.83-30.171z" fill="none"/><path d="M94.486 22.669c-1.546.15-3.12.302-4.714.453l1.415 16.136 19.254 10.227c.615-.365 1.228-.732 1.834-1.102L96.177 37.57l-3.021 1.07 1.33-15.971z" fill-rule="evenodd"/><path d="M94.486 22.669c-1.546.15-3.12.302-4.714.453l1.415 16.136 19.254 10.227c.615-.365 1.228-.732 1.834-1.102L96.177 37.57l-3.021 1.07 1.33-15.971z" fill="none"/><path d="M56.831 27.926c-.127.035-.258.07-.384.107a78.522 78.522 0 00-5.601 1.87l-.604 25.494 24.986 11.81c.951-.464 1.952-.947 3.009-1.45l-21.145-13.93-3.602 1.826 3.341-25.727z" fill-rule="evenodd"/><path d="M56.831 27.926c-.127.035-.258.07-.384.107a78.522 78.522 0 00-5.601 1.87l-.604 25.494 24.986 11.81c.951-.464 1.952-.947 3.009-1.45l-21.145-13.93-3.602 1.826 3.341-25.727z" fill="none"/><path d="M50.401 30.07c-2.197.835-4.355 1.75-6.44 2.712l-.626 26.678-3.516 2.247 3.66-28.702a124.872 124.872 0 00-6.192 3.108l-.842 27.905 25.278 11.41c.92-.689 1.86-1.37 2.814-2.035l-21.2-13.861 24.88 11.443a57.837 57.837 0 012.96-1.71l.184-.098-21.12-13.77-3.56 2.035 3.72-27.362z" fill-rule="evenodd"/><path d="M50.401 30.07c-2.197.835-4.355 1.75-6.44 2.712l-.626 26.678-3.516 2.247 3.66-28.702a124.872 124.872 0 00-6.192 3.108l-.842 27.905 25.278 11.41c.92-.689 1.86-1.37 2.814-2.035l-21.2-13.861 24.88 11.443a57.837 57.837 0 012.96-1.71l.184-.098-21.12-13.77-3.56 2.035 3.72-27.362z" fill="none"/><path d="M124.9 16.16a84.899 84.899 0 01-4.087 1.562l.037 9.235 11.944 2.577a68.7 68.7 0 001.896-3.01l-9.066-2.552-2.334 1.508 1.61-9.32z" fill-rule="evenodd"/><path d="M124.9 16.16a84.899 84.899 0 01-4.087 1.562l.037 9.235 11.944 2.577a68.7 68.7 0 001.896-3.01l-9.066-2.552-2.334 1.508 1.61-9.32z" fill="none"/><path d="M120.362 17.883c-1.39.483-2.842.944-4.348 1.377l-.092 10.249 13.805 4.245a64.129 64.129 0 001.633-2.155l-10.509-4.643-2.412 1.265 1.923-10.338z" fill-rule="evenodd"/><path d="M120.362 17.883c-1.39.483-2.842.944-4.348 1.377l-.092 10.249 13.805 4.245a64.129 64.129 0 001.633-2.155l-10.509-4.643-2.412 1.265 1.923-10.338z" fill="none"/><path d="M133.52 12.01a79.393 79.393 0 01-3.594 1.88l-.07 6.867-2.323 1.825 1.976-8.49a83.963 83.963 0 01-4.196 1.895l.31 7.985 10.188.6a74.016 74.016 0 001.59-3.022l-7.404-.866 8.322-1.038a84.62 84.62 0 001.237-2.785l-5.655.36-1.727 1.571 1.346-6.781z" fill-rule="evenodd"/><path d="M133.52 12.01a79.393 79.393 0 01-3.594 1.88l-.07 6.867-2.323 1.825 1.976-8.49a83.963 83.963 0 01-4.196 1.895l.31 7.985 10.188.6a74.016 74.016 0 001.59-3.022l-7.404-.866 8.322-1.038a84.62 84.62 0 001.237-2.785l-5.655.36-1.727 1.571 1.346-6.781z" fill="none"/><path d="M115.616 19.377c-.665.19-1.34.374-2.028.55-.796.206-1.653.4-2.564.582l-.039 11.262-.018.008 15.543 5.69a55.376 55.376 0 001.577-1.737l-12.165-6.223-2.414 1.136 2.108-11.268z" fill-rule="evenodd"/><path d="M115.616 19.377c-.665.19-1.34.374-2.028.55-.796.206-1.653.4-2.564.582l-.039 11.262-.018.008 15.543 5.69a55.376 55.376 0 001.577-1.737l-12.165-6.223-2.414 1.136 2.108-11.268z" fill="none"/><path d="M143.441 5.32s-.672.6-1.97 1.578l-.53 2.503-1.06 1.33.576-3.089a63.412 63.412 0 01-2.38 1.626l-.56 4.24-1.168 1.297 1.114-5.14a74.922 74.922 0 01-3.533 2.116l-.028 5.44 6.466-2.351a81 81 0 00.933-2.487l-3.338.655 3.89-2.247c1.117-3.34 1.588-5.471 1.588-5.471z" fill-rule="evenodd"/><path d="M143.441 5.32s-.672.6-1.97 1.578l-.53 2.503-1.06 1.33.576-3.089a63.412 63.412 0 01-2.38 1.626l-.56 4.24-1.168 1.297 1.114-5.14a74.922 74.922 0 01-3.533 2.116l-.028 5.44 6.466-2.351a81 81 0 00.933-2.487l-3.338.655 3.89-2.247c1.117-3.34 1.588-5.471 1.588-5.471z" fill="none"/><path d="M99.812 22.118c-1.555.172-3.163.336-4.803.5l1.169 14.953 18.526 9.286c.624-.4 1.24-.802 1.848-1.209l-15.18-10.016-2.982 1.139 1.422-14.653z" fill-rule="evenodd"/><path d="M99.812 22.118c-1.555.172-3.163.336-4.803.5l1.169 14.953 18.526 9.286c.624-.4 1.24-.802 1.848-1.209l-15.18-10.016-2.982 1.139 1.422-14.653z" fill="none"/><path d="M106.03 33.827l.005-.002-.031-.013.026.015z" fill-rule="evenodd"/><path d="M106.03 33.827l.005-.002-.031-.013.026.015z" fill="none"/><path d="M105.572 21.409c-1.679.234-3.456.451-5.308.658l1.11 13.564 17.26 8.592c.427-.302.852-.603 1.268-.907.227-.166.45-.333.672-.501l-14.544-8.988-2.586 1.006 2.128-13.424z" fill-rule="evenodd"/><path d="M105.572 21.409c-1.679.234-3.456.451-5.308.658l1.11 13.564 17.26 8.592c.427-.302.852-.603 1.268-.907.227-.166.45-.333.672-.501l-14.544-8.988-2.586 1.006 2.128-13.424z" fill="none"/><path d="M110.964 31.78h.003l-.018-.008.015.009z" fill-rule="evenodd"/><path d="M110.964 31.78h.003l-.018-.008.015.009z" fill="none"/><path d="M110.545 20.599c-1.38.265-2.872.51-4.46.737l.026 12.46-.074.029 16.797 7.159a46.96 46.96 0 001.666-1.504l-13.536-7.7-2.502 1.082 2.083-12.263z" fill-rule="evenodd"/><path d="M110.545 20.599c-1.38.265-2.872.51-4.46.737l.026 12.46-.074.029 16.797 7.159a46.96 46.96 0 001.666-1.504l-13.536-7.7-2.502 1.082 2.083-12.263z" fill="none"/></g><g clip-path="url(#c)"><path d="M108.769 102.966c0-3.332-1.17-5.511-6.674-5.511-5.36 0-6.818 1.735-6.818 7.653.02 5.471 1.129 7.652 6.84 7.652 5.604 0 6.652-2.585 6.652-5.776h-5.462v1.575c0 .727-.37 1.212-1.19 1.212-.822 0-1.192-.485-1.192-1.212v-6.904c0-.727.37-1.213 1.191-1.213.821 0 1.19.486 1.19 1.213v1.311h5.463z" fill-rule="evenodd"/><path d="M108.769 102.966c0-3.332-1.17-5.511-6.674-5.511-5.36 0-6.818 1.735-6.818 7.653.02 5.471 1.129 7.652 6.84 7.652 5.604 0 6.652-2.585 6.652-5.776h-5.462v1.575c0 .727-.37 1.212-1.19 1.212-.822 0-1.192-.485-1.192-1.212v-6.904c0-.727.37-1.213 1.191-1.213.821 0 1.19.486 1.19 1.213v1.311h5.463z" fill="none"/><path d="M52.238 112.316V99.794c-.033-.4-.22-.637-.464-.778a1.452 1.452 0 00-.403-.145 3.437 3.437 0 00-.264-.041v-.893h1.131l7.68-.04c4.149 0 5.402 1.213 5.402 3.495 0 2.363-1.417 3.21-3.533 3.573 2.26.304 3.82 1.172 3.82 3.635 0 1.817-1.047 3.716-4.682 3.716h-8.687zm5.38-5.897v2.908h1.109c.822 0 1.253-.766 1.253-1.655 0-.89-.472-1.253-1.15-1.253h-1.212zm0-5.533v2.665h1.109c.698 0 1.13-.604 1.13-1.331s-.432-1.334-1.13-1.334h-1.11z" fill-rule="evenodd"/><path d="M52.238 112.316V99.794c-.033-.4-.22-.637-.464-.778a1.452 1.452 0 00-.403-.145 3.437 3.437 0 00-.264-.041v-.893h1.131l7.68-.04c4.149 0 5.402 1.213 5.402 3.495 0 2.363-1.417 3.21-3.533 3.573 2.26.304 3.82 1.172 3.82 3.635 0 1.817-1.047 3.716-4.682 3.716h-8.687zm5.38-5.897v2.908h1.109c.822 0 1.253-.766 1.253-1.655 0-.89-.472-1.253-1.15-1.253h-1.212zm0-5.533v2.665h1.109c.698 0 1.13-.604 1.13-1.331s-.432-1.334-1.13-1.334h-1.11z" fill="none"/><path d="M67.837 112.316v-11.512l-.012-.897c-.005-.464-.204-.734-.469-.884a1.38 1.38 0 00-.402-.147 3.356 3.356 0 00-.265-.041l.002-.893h1.146l5.545-.044v10.985h4.767v3.433H67.837z" fill-rule="evenodd"/><path d="M67.837 112.316v-11.512l-.012-.897c-.005-.464-.204-.734-.469-.884a1.38 1.38 0 00-.402-.147 3.356 3.356 0 00-.265-.041l.002-.893h1.146l5.545-.044v10.985h4.767v3.433H67.837z" fill="none"/><path d="M22.194 112.316v-11.512l-.011-.897c-.005-.464-.204-.734-.469-.884a1.38 1.38 0 00-.402-.147 3.356 3.356 0 00-.265-.041l.002-.893h1.145l5.546-.044v10.985h4.767v3.433H22.194z" fill-rule="evenodd"/><path d="M22.194 112.316v-11.512l-.011-.897c-.005-.464-.204-.734-.469-.884a1.38 1.38 0 00-.402-.147 3.356 3.356 0 00-.265-.041l.002-.893h1.145l5.546-.044v10.985h4.767v3.433H22.194z" fill="none"/><path d="M34.137 112.316v-11.512l-.012-.897c-.005-.464-.203-.734-.468-.884a1.38 1.38 0 00-.402-.147 3.356 3.356 0 00-.265-.041v-.893h1.147l5.545-.044v10.985h4.767v3.433H34.137z" fill-rule="evenodd"/><path d="M34.137 112.316v-11.512l-.012-.897c-.005-.464-.203-.734-.468-.884a1.38 1.38 0 00-.402-.147 3.356 3.356 0 00-.265-.041v-.893h1.147l5.545-.044v10.985h4.767v3.433H34.137z" fill="none"/><path d="M140.477 101.803c0-2.402-1.19-4.474-6.535-4.474-4.257 0-6.512 1.518-6.512 5.049 0 5.356 7.808 3.243 7.808 6.486 0 .717-.544 1.272-1.296 1.272-.478 0-.751-.206-.917-.534-.167-.348-.209-.82-.23-1.396h-5.532c-.25 4.208 3.464 4.68 7.076 4.68 3.57 0 6.492-1.21 6.492-5.09 0-5.316-7.849-3.695-7.849-6.424 0-.554.397-1.087 1.003-1.087.584 0 .919.143 1.086.41.167.267.209.635.209 1.108h5.197z" fill-rule="evenodd"/><path d="M140.477 101.803c0-2.402-1.19-4.474-6.535-4.474-4.257 0-6.512 1.518-6.512 5.049 0 5.356 7.808 3.243 7.808 6.486 0 .717-.544 1.272-1.296 1.272-.478 0-.751-.206-.917-.534-.167-.348-.209-.82-.23-1.396h-5.532c-.25 4.208 3.464 4.68 7.076 4.68 3.57 0 6.492-1.21 6.492-5.09 0-5.316-7.849-3.695-7.849-6.424 0-.554.397-1.087 1.003-1.087.584 0 .919.143 1.086.41.167.267.209.635.209 1.108h5.197z" fill="none"/><path d="M87.083 100.877l-1.131 6.39h2.198l-1.067-6.39zm-7.7 11.439l3.341-12.485c.09-.445-.011-.734-.265-.877a.882.882 0 00-.32-.121 2.72 2.72 0 00-.262-.043v-.892h8.963l3.778 14.418H88.95l-.41-2.262H85.5l-.411 2.262h-5.708z" fill-rule="evenodd"/><path d="M87.083 100.877l-1.131 6.39h2.198l-1.067-6.39zm-7.7 11.439l3.341-12.485c.09-.445-.011-.734-.265-.877a.882.882 0 00-.32-.121 2.72 2.72 0 00-.262-.043v-.892h8.963l3.778 14.418H88.95l-.41-2.262H85.5l-.411 2.262h-5.708z" fill="none"/><path d="M12.95 100.877l-1.128 6.39h2.196l-1.068-6.39zm-7.7 11.439L8.592 99.83c.091-.445-.012-.734-.265-.877a.87.87 0 00-.32-.121 2.64 2.64 0 00-.262-.043v-.892h8.963l3.779 14.418h-5.668l-.41-2.262h-3.04l-.41 2.262H5.25z" fill-rule="evenodd"/><path d="M12.95 100.877l-1.128 6.39h2.196l-1.068-6.39zm-7.7 11.439L8.592 99.83c.091-.445-.012-.734-.265-.877a.87.87 0 00-.32-.121 2.64 2.64 0 00-.262-.043v-.892h8.963l3.779 14.418h-5.668l-.41-2.262h-3.04l-.41 2.262H5.25z" fill="none"/><path d="M109.69 97.83l6.694-.02v4.012l3.948-3.998h6.483l-5.606 5.492 5.363 8.915h-5.871l-3.112-5.35-1.199 1.183v4.162h-5.543v-11.524l-.023-.885c-.005-.465-.202-.734-.467-.884a1.376 1.376 0 00-.406-.146 2.64 2.64 0 00-.263-.043l.002-.915z" fill-rule="evenodd"/><path d="M109.69 97.83l6.694-.02v4.012l3.948-3.998h6.483l-5.606 5.492 5.363 8.915h-5.871l-3.112-5.35-1.199 1.183v4.162h-5.543v-11.524l-.023-.885c-.005-.465-.202-.734-.467-.884a1.376 1.376 0 00-.406-.146 2.64 2.64 0 00-.263-.043l.002-.915z" fill="none"/></g><g clip-path="url(#d)"><path d="M35.533 119.841c-.133-4.077-3.267-4.87-6.91-4.87-4.37 0-6.4 1.543-6.4 4.737 0 2.843 1.787 4.076 5.629 5.772 1.28.575 2.162.883 2.162 1.742 0 .728-.485.945-1.193.945-1.058 0-1.28-.702-1.324-1.782h-5.43c-.13 4.602 3.245 4.934 6.976 4.934 4.769 0 6.865-1.651 6.865-4.715 0-3.347-3.179-4.582-6.158-5.816-1.26-.529-1.81-.859-1.81-1.741 0-.572.442-.86.992-.86 1.038 0 1.26.707 1.26 1.654h5.34z" fill-rule="evenodd"/><path d="M35.533 119.841c-.133-4.077-3.267-4.87-6.91-4.87-4.37 0-6.4 1.543-6.4 4.737 0 2.843 1.787 4.076 5.629 5.772 1.28.575 2.162.883 2.162 1.742 0 .728-.485.945-1.193.945-1.058 0-1.28-.702-1.324-1.782h-5.43c-.13 4.602 3.245 4.934 6.976 4.934 4.769 0 6.865-1.651 6.865-4.715 0-3.347-3.179-4.582-6.158-5.816-1.26-.529-1.81-.859-1.81-1.741 0-.572.442-.86.992-.86 1.038 0 1.26.707 1.26 1.654h5.34z" fill="none"/><path d="M37.72 130.968h11.743v-3.702h-5.805v-2.203h5.077v-3.703h-5.077v-2.378h5.805v-3.701H36.529v1.012l.484.046c.508.044.707.374.707.77v13.858z" fill-rule="evenodd"/><path d="M37.72 130.968h11.743v-3.702h-5.805v-2.203h5.077v-3.703h-5.077v-2.378h5.805v-3.701H36.529v1.012l.484.046c.508.044.707.374.707.77v13.858z" fill="none"/><path d="M62.953 130.968l3.775-15.687h-6.29l-1.458 11.61h-.044l-1.568-11.61h-7.02v.992c.818.086 1.126.462 1.304 1.1l3.067 13.595h8.234z" fill-rule="evenodd"/><path d="M62.953 130.968l3.775-15.687h-6.29l-1.458 11.61h-.044l-1.568-11.61h-7.02v.992c.818.086 1.126.462 1.304 1.1l3.067 13.595h8.234z" fill="none"/><path d="M69.136 130.968H80.88v-3.702h-5.806v-2.203h5.077v-3.703h-5.077v-2.378h5.806v-3.701H67.943v1.012l.486.046c.507.044.707.374.707.77v13.858z" fill-rule="evenodd"/><path d="M69.136 130.968H80.88v-3.702h-5.806v-2.203h5.077v-3.703h-5.077v-2.378h5.806v-3.701H67.943v1.012l.486.046c.507.044.707.374.707.77v13.858z" fill="none"/><path d="M82.205 116.293l.486.046c.508.042.706.374.706.769v13.86h5.917v-6.854h.066l3.752 6.853h5.85V115.28h-5.915v7.734h-.089l-3.753-7.734h-7.02v1.014z" fill-rule="evenodd"/><path d="M82.205 116.293l.486.046c.508.042.706.374.706.769v13.86h5.917v-6.854h.066l3.752 6.853h5.85V115.28h-5.915v7.734h-.089l-3.753-7.734h-7.02v1.014z" fill="none"/><path d="M114.26 119.841c-.133-4.077-3.267-4.87-6.91-4.87-4.371 0-6.4 1.543-6.4 4.737 0 2.843 1.787 4.076 5.629 5.772 1.28.575 2.162.883 2.162 1.742 0 .728-.486.945-1.191.945-1.06 0-1.28-.702-1.326-1.782h-5.43c-.131 4.602 3.245 4.934 6.976 4.934 4.768 0 6.865-1.651 6.865-4.715 0-3.347-3.179-4.582-6.158-5.816-1.26-.529-1.81-.859-1.81-1.741 0-.572.442-.86.992-.86 1.038 0 1.26.707 1.26 1.654h5.34z" fill-rule="evenodd"/><path d="M114.26 119.841c-.133-4.077-3.267-4.87-6.91-4.87-4.371 0-6.4 1.543-6.4 4.737 0 2.843 1.787 4.076 5.629 5.772 1.28.575 2.162.883 2.162 1.742 0 .728-.486.945-1.191.945-1.06 0-1.28-.702-1.326-1.782h-5.43c-.131 4.602 3.245 4.934 6.976 4.934 4.768 0 6.865-1.651 6.865-4.715 0-3.347-3.179-4.582-6.158-5.816-1.26-.529-1.81-.859-1.81-1.741 0-.572.442-.86.992-.86 1.038 0 1.26.707 1.26 1.654h5.34z" fill="none"/></g><path d="M141.719 94.659c0-.288.05-.559.151-.813.107-.26.251-.487.432-.677.187-.191.405-.342.654-.455.255-.112.532-.168.831-.168.298 0 .573.056.822.168.257.113.475.264.656.455.186.19.33.417.43.677.107.254.16.525.16.813 0 .287-.053.56-.16.82-.1.256-.244.477-.43.67a1.981 1.981 0 01-.656.454 1.97 1.97 0 01-.822.166c-.299 0-.576-.053-.83-.166a2.115 2.115 0 01-.655-.455 2.197 2.197 0 01-.432-.669 2.23 2.23 0 01-.151-.82zm-.894 0a2.929 2.929 0 00.862 2.088 2.973 2.973 0 002.1.844c.41 0 .793-.073 1.151-.224a2.925 2.925 0 001.58-1.552c.154-.362.232-.747.232-1.156 0-.41-.078-.793-.231-1.147a2.885 2.885 0 00-.64-.942 2.909 2.909 0 00-.941-.636 2.866 2.866 0 00-1.15-.234c-.41 0-.797.08-1.159.234a2.955 2.955 0 00-1.804 2.724zm2.508-.247v-.79h.462c.064 0 .13.006.2.016a.633.633 0 01.199.048.355.355 0 01.153.12.335.335 0 01.055.206c0 .171-.051.28-.151.328a.898.898 0 01-.384.072h-.534zm-.704-1.348v3.19h.704V94.97h.255l.75 1.283h.766l-.79-1.314a.951.951 0 00.56-.256c.153-.15.23-.36.23-.629 0-.319-.1-.564-.303-.735-.201-.17-.511-.255-.925-.255h-1.247z" fill-rule="evenodd"/><path d="M141.719 94.659c0-.288.05-.559.151-.813.107-.26.251-.487.432-.677.187-.191.405-.342.654-.455.255-.112.532-.168.831-.168.298 0 .573.056.822.168.257.113.475.264.656.455.186.19.33.417.43.677.107.254.16.525.16.813 0 .287-.053.56-.16.82-.1.256-.244.477-.43.67a1.981 1.981 0 01-.656.454 1.97 1.97 0 01-.822.166c-.299 0-.576-.053-.83-.166a2.115 2.115 0 01-.655-.455 2.197 2.197 0 01-.432-.669 2.23 2.23 0 01-.151-.82zm-.894 0a2.929 2.929 0 00.862 2.088 2.973 2.973 0 002.1.844c.41 0 .793-.073 1.151-.224a2.925 2.925 0 001.58-1.552c.154-.362.232-.747.232-1.156 0-.41-.078-.793-.231-1.147a2.885 2.885 0 00-.64-.942 2.909 2.909 0 00-.941-.636 2.866 2.866 0 00-1.15-.234c-.41 0-.797.08-1.159.234a2.955 2.955 0 00-1.804 2.724zm2.508-.247v-.79h.462c.064 0 .13.006.2.016a.633.633 0 01.199.048.355.355 0 01.153.12.335.335 0 01.055.206c0 .171-.051.28-.151.328a.898.898 0 01-.384.072h-.534zm-.704-1.348v3.19h.704V94.97h.255l.75 1.283h.766l-.79-1.314a.951.951 0 00.56-.256c.153-.15.23-.36.23-.629 0-.319-.1-.564-.303-.735-.201-.17-.511-.255-.925-.255h-1.247z" fill="none"/></g></svg>