<svg xmlns="http://www.w3.org/2000/svg" width="1000" height="1000" viewBox="-60.155 0 1000 1000" overflow="visible"><path fill-rule="evenodd" clip-rule="evenodd" fill="#D59F0F" d="M186.252 62.338c66.955-2.052 129.035-16.928 174.447-31.556C405.846 16.671 439.967 0 439.967 0s39.769 18.471 90.824 33.859c51.563 15.394 120.315 30.021 190.095 28.479 86.705-1.795 158.805-26.422 158.805-26.422l-16.433 462.032c0 3.329-.257 30.787-6.154 69.522-6.411 40.782-19.234 94.402-45.409 144.435-85.432 162.906-256.281 245.767-364.808 286.291l-4.611 1.805s-68.754-22.057-146.229-66.448c-76.962-44.376-168.29-112.875-221.393-209.858-47.464-86.959-52.077-174.956-52.077-193.423C22.577 512.832 0 35.916 0 35.916l18.214 4.875c0-.001 90.559 24.115 168.038 21.547z"/><path fill-rule="evenodd" clip-rule="evenodd" fill="#FFF" d="M14.62 54.129s92.354 24.627 171.884 22.062c137.76-4.617 253.721-60.797 253.721-60.797s137.514 64.132 280.918 60.797c89.528-2.057 143.92-20.779 143.92-20.779l-15.655 442.276s.771 111.34-50.021 207.793c-82.859 158.29-249.36 239.624-357.367 279.891 0 0-252.692-81.065-355.311-268.337-45.924-84.145-50.542-169.581-50.542-186.763 0-17.44-21.547-476.143-21.547-476.143z"/><path fill-rule="evenodd" clip-rule="evenodd" fill="#005DAA" d="M608.835 455.224c-4.81-2.667-11.039-3.602-18.173-4.084-6.363-11.856-7.017-33.913-3.042-49.93 5.914 18.835 13.487 35.975 21.215 54.014zm-198.95 31.947H270.933c-.731-4.341-1.336-8.642-1.941-13.075-1.768-13.021-4.499-12.426-11.677-20.037-2.582-6.792.731-19.542 3.107-23.455 10.538-17.386 50.99-18.412 69.233-24.689 25.056-8.621 30.361-21.66 46.553-37.857 3.484-.153 5.064.543 5.823 1.224.607 24.906-35.466 29.721-17.188 49.41 22.187 23.908 34.573 37.925 45.042 68.479zm129.883 0h-55.489c-.021-14.344-.16-30.257-18.591-32.266-20.525-2.228-21.816 6.2-27.544-15.988-3.958-15.334-9.566-22.25 6.467-31.296 15.223-8.588 17.906-12.892 29.062-24.506 9.969 2.225 19.679 5.327 29.876 6.371 11.527 17.922 16.149 40.677 22.78 60.686 2.619 7.911 6.582 14.968 8.564 21.381 2.021 6.561 1.587 11.322 4.875 15.618zM820.36 109.868l-13.534 377.303H690.297c4.676-12.215-.824-26.357-11.328-29.925-.595-.204-9.411-1.532-18.2-5.029-15.271-20.086-6.385-65.519-5.988-89.48 5.072-7.616 8.822-17.228 10.664-26.542 1.001-5.062 2.271-21.76 3.24-35.994.713-10.554 1.028-19.753 2.11-21.85 1.494-.327 6.294 1.823 8.441 1.62 6.513.139 12.475-5.991 17.086-10.835 4.168-4.384 6.589-8.406 6.775-13.843.129-4.012-1.934-7.986-5.062-11.46 0-.069.327-.554.493-1.09 9.293-2.994 11.157-3.498 18.371-11.995.359-2.919.478-5.736 0-8.655l-.235-1.412c18.312-15.147-.686-28.083.713-44.132 1.21-2.863 3.09-5.423 4.579-8.144 10.975-17.287-4.767-26.858-12.427-21.291-5.65 4.119-11.633 5.268-18.018 7.785-5.351.391-11.451-1.176-16.684-2.172-21.913-4.17-21.297-1.762-38.806 1.952-6.519 1.382-15.753-16.968-32.223-13.262-7.622 1.714-14.033 13.407-14.649 17.924-.889 6.604 5.057 22.592 7.038 29.365-6.577 8.123-3.449 8.259-16.272 8.84-22.592 1.031-42.865 8.417-64.509 14.17-9.491 2.523-12.56 3.417-15.656 3.573-3.048.147-6.144-.431-15.484-.897-47.967-2.394-112.077-11.114-156.713 8.76-19.917 6.851-33.36 15.254-47.584 28.845-23.476 22.429-92.977 102.265-123.333 105.704-14.641 1.655-21.028-3.877-21.559-11.979 4.347-10.985 8.514-33.409-12.399-35.171-38.146-3.222-48.591 100.545 48.222 84.806 38.607-6.277 82.053-43.205 110.744-70.222-8.358 22.911-19.03 41.009-44.02 46.593-29.108 6.51-36.194 51.461-37.729 76.196-.265 4.216.461 8.53.024 12.638-1.253 11.768-6.532 16.588-2.365 26.606H77.458c-3.726-87.458-12.802-284.01-17.301-379.411l3.152.531c25.862 4.678 76.373 12.303 124.627 10.835 60.695-2.116 124.581-13.583 189.896-34.087 27.522-8.754 48.92-17.171 62.675-22.975 11.001 4.427 38.832 15.46 74.23 26.071 50.771 15.166 127.942 32.849 207.277 30.996 42.509-1.027 76.075-5.388 98.346-9.26zM441.449 939.754c124.42-48.703 218.157-113.084 279.743-191.942H158.614c88.519 112.012 233.429 173.453 282.835 191.942z"/><path fill="#1D1D1B" d="M670.903 248.97s-.991 5.769-1.784 7.161c-.792 1.393 2.19 3.575 3.381 3.575 1.199 0 9.148-.795 11.129-.594 1.993.198 6.6.417 7.151-.598.675-1.205 0-7.954-1.784-9.544-1.076 2.622-3.048 5.844-3.048 5.844s-.268-.431-1.253-.522c-.98-.083-6.915-.152-7.933-.104-1.022.057-1.875.75-1.875.75-.626-2.985-3.984-5.968-3.984-5.968zm22.041-87.442c4.654-2.1 9.726-3.071 12.603-4.365 2.876-1.288 6.54-3.656 7.633-4.448 1.087-.793 5.297-.338 6.342 2.884 1.028 3.195.632 4.77-1.849 9.328l-.729 1.21c-2.094 3.865-5.383 8.447-5.629 11.267-.316 3.709 2.356 11.468 3.583 15.769 1.538 5.356 4.51 9.901 3.589 15.766-.83 5.275-5.013 7.051-7.884 10.038-.054 3.631 1.227 5.937.712 10.035-2.817 3.318-4.682 5.394-8.603 7.169-3.926 1.773-8.425.723-10.025 5.731-2.24 7.021 3.92 5.733 4.3 12.903.214 4.274-2.432 7.724-6.464 11.467-2.438 2.279-6.775 6.61-10.027 7.169-4.854.838-6.68-2.084-12.186-1.43-5.929 6.347-4.579 16.596-5.019 25.803-.203 4.379-1.05 9.095-1.424 13.615-.783 8.947-.505 15.994-2.159 24.376-1.826 9.269-5.688 18.757-10.756 25.803-.203 33.318-9.913 73.079 7.456 95.331l.933 1.114c9.304 3.398 19.223 4.633 19.834 4.855 2.19.798 8.751 6.757 8.751 13.318 0 6.559-2.587 10.935-2.587 10.935h-3.776c-15.179.059-36.384-.045-53.903 0-5.49-8.083-2.18-8.007-8.812-27.354-2.881-8.388-7.401-16.243-10.749-24.373-6.797-16.527-12.191-32.968-17.35-50.892-11.467 15.833-13.17 56.199-1.44 73.114 9.743.659 16.657.742 21.505 5.731 5.887 6.061 4.113 16.529 5.014 23.773h-65.935c-6.047-3.369-5.383-10.782-7.177-16.604-1.981-6.449-7.269-20.466-9.909-28.42-7.171-21.673-9.213-39.15-23.78-57.594-13.188-.908-35.116-7.164-35.116-7.164-6.936 6.344-11.156 14.135-20.074 20.064-3.042 2.032-6.551 3.776-10.029 5.739-6.982 3.937-13.249 7.252-13.621 18.634-.193 5.939 2.437 12.137 4.301 19.352 1.516 5.865 3.225 13.634 6.449 16.489 8.273 7.309 25.739.471 33.688 6.452 6.004 4.512 5.526 13.272 5.726 23.053h-62.258c-8.527-26.928-23.128-48.243-40.95-66.06-3.16-3.16-9.199-8.235-9.314-11.47-.217-5.859 10.956-13.267 14.333-17.919 5.128-7.062 8.591-12.284 7.884-23.653-2.191-4.261-7.07-5.833-14.333-5.019-13.61 12.847-20.398 29.22-45.875 37.991-27.196 9.355-59.777 6.42-72.396 27.234-2.897 4.783-7.065 19.518-3.581 28.674 1.505 3.972 6.197 5.107 8.6 9.317 3.203 5.616 2.675 12.49 4.301 20.905h-59.445c-4.834-7.729-.222-16.851.665-25.203.447-4.191-.263-8.602 0-12.903.773-12.402 3.519-27.769 7.169-39.424 3.865-12.322 9.925-23.934 17.921-28.671 4.146-2.456 11.401-2.909 17.201-5.019 21.205-7.71 32.582-29.153 40.142-50.894 1.912-5.499 3.444-11.618 4.876-18.029.683-3.062-67.967 73.55-123.221 82.527-34.057 5.541-74.729-6.792-66.826-52.418 4.836-27.908 37.268-26.125 26.181 3.166-5.164 13.629 7.262 26.449 28.012 24.1 32.472-3.672 87.629-69.909 126.785-107.316 13.667-13.055 26.419-21.017 45.651-27.603 15.894-7.105 33.99-12.456 67.493-11.944 27.978.426 57.444 2.124 86.732 3.585 5.537.279 11.365 1.808 16.491 1.433 5.003-.367 10.76-2.78 16.485-4.301 5.266-1.403 10.584-2.909 15.77-4.301 10.937-2.938 22.077-7.129 32.254-8.602 10.578-1.529 20.916-.37 27.226-2.869 5.147-2.024 6.363-7.659 10.766-11.47-1.548-4.384-2.688-9.572-4.301-15.051-1.388-4.687-4.322-9.641-3.589-15.051.444-3.297 5.887-11.971 10.027-12.903 6.175-1.387 12.564 2.954 15.773 5.019 4.161 2.676 7.13 7.957 12.19 8.602 4.805.613 13.22-3.776 20.064-4.301 13.251-1.015 28.746 5 38.714 4.301l.916-.07.06-.033z"/><path fill="#FFD200" d="M600.448 240.413c2.224.424 1.056-4.764-.134-7.233-1.033-2.14-5.816-5.428-5.335-.334.301 3.17 4.58 5.516 5.469 7.567zM559.21 386.325c1.812 1.655 6.669 4.058 7.789.98 1.129-3.074-1.409-7.041-4.64-6.366-3.218.676-4.953 3.726-3.149 5.386zm-12.724 10.281c1.874 3.517 2.854 6.516 9.057 2.467 6.213-4.047.369-12.06-3.289-12.584-3.67-.52-7.633 6.604-5.768 10.117zm.042 25.758c-7.9 11.084 11.045 7.017 4.548 0-1.045-1.125-3.659-1.242-4.548 0zm83.48-83.548c.804-5.158-3.695-10.078-5.677-13.026-5.513.128-3.091 16.151 2.351 13.61.659-.257 2.742-.501 3.326-.584zm-5.876-42.728c3.938 10.999 1.961 16.022 6.203 20.125 0 0-1.623 5.177-1.071 7.786.579 2.748 5.87 1.976 7.542 5.201.514 1.001 2.629-17.491-2.287-17.212-5.153.291-.236-12.911-10.387-15.9zm-49.811-33.68c.686 4.146 3.873 1.749 4.269-1.433.595-4.711-7.777-8.969-9.619-5.351-1.121 2.191 4.862 3.86 5.35 6.784zm-15.587-8.146c-5.629.391-7.444 12.019 4.05 10.346.091-4.152-4.29-6.075-4.05-10.346zm43.026 67.655c6.717-3.117-1.768-10.024-2.913-6.451-1.109 3.417.037 6.366 2.913 6.451zm-40.61 26.243c-4.697-2.333-10.412 2.522-8.617 6.452.99 2.15 4.221 5.538 7.24 2.868 1.913-1.695 2.282-6.773 1.377-9.32zm51.279-75.987c2.25-2.349-2.287-3.835-1.596-5.496 1.843-4.379-1.563-9.467-6.62-8.797-.669 2.362.081 6.167 2.073 8.366-1.06 4.066 6.143 5.927 6.143 5.927zM237.066 406.521s2.083 7.14 4.488 7.641c2.402.498 9.288-5.273 9.288-6.894 0-1.62-2.491-4.236-6.762-4.236s-7.014 3.489-7.014 3.489zM551.6 417.233c7.172-7.656-5.731-14.705-11.468-7.884 2.587 3.524 4.612 9.343 11.468 7.884zm-272.274-26.111c6.036-7.245-13.653-10.87-13.419-3.257.251 8.257 8.97 8.589 13.419 3.257zm21.93-4.558c5.72-4.842 11.792-22.767-.715-22.94-6.261-.083-12.847 8.859-10.038 15.771 1.383 3.393 5.58 4.874 10.753 7.169zm238.898-19.082c-5.581-3.026-6.016-13.773-11.494-11.529-7.381 3.023.803 15.726 12.555 16.326 3.311.174 10.525-5.059 9.732-8.372-.52-2.137-4.917-6.596-5.827-3.594-.933 3.118-2.438 8.538-4.966 7.169zm-18.779-16.617c-4.697-2.333-10.413 2.522-8.618 6.451.99 2.156 4.23 5.544 7.241 2.868 1.913-1.692 2.277-6.772 1.377-9.319zm-184.219-.718c-4.93-3.929-12.281-2.686-12.9 2.868-.541 4.791 4.641 9.121 11.464 8.602.399-1.037 1.12-1.749 2.148-2.151 3.699-5.267-1.261-5.43-.712-9.319zm210.025 2.962c-1.033-6.746-9.266-14.041-14.333-10.032-.364 3.707 2.282 4.406 1.43 8.602 4.596.822 9.749 5.305 12.903 1.43zm-231.527-5.83c-4.75-8.375-17.49-6.203-15.056 7.169a6.453 6.453 0 012.868 2.868c4.483-2.11 8.002 1.636 5.731 4.301 3.415.648 6.505 1.62 10.038 2.15 5.174-4.518-1.004-8.498-5.019-10.038-.043-2.671.722-4.532 1.438-6.45zm33.684-7.884c-5.527-3.026-10.468 4.184-7.169 7.885 3.921 1.223 8.236-1.889 7.169-7.885zm216.391-9.874c-8.8.79-5.511 13.917 0 15.771 5.292-3.211 2.202-11.221 0-15.771zm-13.127-2.764c-9.256-2.035-6.888 14.392 1.436 11.47.712-.956 1.178-2.167 2.137-2.868.101-4.148-2.721-5.391-3.573-8.602zm29.346 14.997c5.779-3.883-2.25-18.639-6.449-17.206-4.852 1.666-.278 6.818.713 10.037 1.21 3.963 1.922 7.392 5.736 7.169zm-242.122-11.336c-3.843-3.388-6.253-1.896-12.183-1.43-.506 4.414-5.752 7.435-4.301 11.468 7.076 6.049 18.313 1.159 16.484-10.038zm183.333-1.328c-2.319 3.35-3.391 15.723 4.302 13.621 3.288-4.677.582-12.679-4.302-13.621zm-29.705-5.469c-3.429-1.585-7.424-6.534-11.494-3.578-1.805 1.31-1.328 4.901-4.312 5.014-2.438-.911-2.952-5.445-5.769-4.304-4.07 1.655-7.938 3.503-10.724 6.454-1.66 7.285 3.819 9.191 2.153 14.338 4.231 4.411 15.271 11.937 19.331 5.104-10.847-.978-7.488-8.345-9.294-11.553.922-3.856 3.338-6.219 6.449-7.89.847 4.981 10.011 6.526 14.333 3.589-.196-2.428 2.117-5.88-.673-7.174zm45.859 0c-1.35-.68-2.914-2.169-4.413-3.123-1.741-1.114-5.656-.584-4.248 6.006.959 4.532 3.192 10.71 7.928 12.172 4.814-1.953-3.401-13.09 1.436-12.9 3.229.128 4.45 1.658 5.678-.723 1.29-2.482.187-4.89-2.812-5.011-2.438-.047-1.352 4.704-3.569 3.579zm47.996-7.163c-1.188 7.6 2.561 15.937 10.038 17.201 1.815-7.635-4.606-13.016-8.598-17.201h-1.44zm-25.752-4.896c-3.733-.873-2.785 2.954-2.865 5.731 2.63 1.393 5.194 6.006 8.602 4.301 1.456-4.047-2.732-8.125-5.737-10.032zm-53.808 2.03c-8.301-.584-8.649 10.174-2.859 12.903 2.972-1.953 4.83-8.348 2.859-12.903zm41.532 2.434c6.716-3.112-1.762-10.019-2.914-6.452-1.109 3.421.038 6.372 2.914 6.452zm35.114-3.87c-.7-6.47-6.963-9.32-12.067-6.604-.701 6.023 1.27 16.671 5.33 13.61 2.699-2.033 4.757-4.483 6.737-7.006zm-219.285-8.602c-3.666.694-4.979.581-7.887-.712-6.224 5.696-15.712 18.559-8.602 28.666 2.53-.094 3.205-2.046 5.736-2.15-.658 5.198 4.312 4.767 8.603 5.019 4.459-7.648 22.919-12.42 12.183-24.37-2.654-.506-3.077 1.224-5.731.718-1.201-2.626-2.508-5.143-4.302-7.171zm230.207 7.339c2.238-.322.358-4.053-1.563-5.999-1.688-1.69-7.273-3.241-5.153 1.422 1.306 2.897 4.22 4.943 6.716 4.577zm-53.145-9.543c-5.666-11.315-14.819 12.397-5.023 14.338 5.276-2.496 1.895-9.459 5.023-14.338zm61.447 1.329c3.391-2.081-.738-11.832-2.137-12.188-7.45-1.883-4.977 13.54 2.137 12.188zm-115.699-1.042c-1.574-3.607-5.597-6.44-9.561-3.101-3.24 13.09 22.067 19.478 20.787 3.588-1.858-.289-2.206-1.607-4.269-2.15-3.566-.943-4.466 7.397-6.957 1.663zm77.692-2.456c-.477-4.55-2.897-7.15-6.454-8.602-1.039 2.349-6.588 4.097-7.161 7.887-.525 3.364 1.285 8.621 6.438 8.602.755-2.997-2.067-7.153.021-6.457 3.209 1.082 5.185.388 7.156-1.43zm9.522-7.927c-7.938.128-1.992 10.632 2.904 8.219 1.377-3.058-1.538-6.278-2.904-8.219zm42.283 32.372c9.352-10.198-.338-26.117-4.302-35.841h-2.143c-3.743 4.984 1.666 11.047 2.855 18.637 1.093 6.899-1.049 14.151 3.59 17.204zm-114.692-25.803c3.69-.646 3.353-7.432 2.164-10.752-4.511-1.923-6.363 4.483-7.178 8.602 1.656.739 2.32 2.467 5.014 2.15zm-10.739-11.47c-2.249-.332-3.208.624-2.876 2.868.953 0 1.548.942 2.876 0 1.307-.945 0-1.912 0-2.868zm-39.737 9.092c3.412-5.768-4.842-9.033-5.013-2.15.969 1.421 1.992 2.788 5.013 2.15zm135.971-9.542c-1.848 2.064.857 4.77-1.858 5.19-2.261.354-4.28-3.171-5.035-.729-.643 2.097 4.525 9.044 7.81 7.895 1.06-.372 2.554-16.207-.917-12.356zm-238.161 1.883c-3.455-2.092-5.214-4.866-8.602-5.016-6.698-.297-11.049 8.45-17.922 8.602-5.509 3.155-2.279 8.265-2.15 13.621.051 2.169-1.425 4.494-1.436 6.446-.017 3.586 3.329 6.54 1.436 9.32 5.327 4.651 14.662 3.987 19.354-.715 1.125-4.103 3.313-8.604 2.868-12.188 3.102-2.389 5.23-5.758 7.164-9.319-.412-3.405-1.036-6.611-.712-10.751zm83.922 26.526c-.439-2.909-2.536-4.221-2.214-7.89-7.863-4.558-9.775-15.07-13.615-23.653-6.604-4.309-11.96 2.078-16.486 4.301-2.207.536-1.379-1.971-3.583-1.436-3.17 2.555-6.722 5.276-5.019 10.75-4.242 4.62-5.246 15.083-2.863 22.222 1.837 2.887 4.531 1.639 7.164 3.586 2.646 1.958 3.749 6.569 7.169 7.164 2.879.506 7.119-4.003 13.808-7.147 5.316-2.506 16.299-3.519 15.639-7.897zm184.871-33.693c-.942 3.305.921 9.435 5.023 10.035 3.509-3.28.06-10.713-5.023-10.035zm-71.928 9.673c5.587.233 9.748-3.093 9.314-6.452-.793-6.184-11.725-3.275-10.755 5.013.804.157 1.12.799 1.441 1.439zm65.329-6.837c2.603-4.684-1.875-12.396-6.454-7.89-.236 3.345.557 5.654 1.43 7.89 2.624-.64 3.824 1.262 5.024 0zm-168.295-7.854c-5.179-4.92-11.293 3.929-13.621 8.602 2.442 4.965 3.969 10.846 8.6 13.621-.782 5.795 2.71 7.327 6.452 8.599.112 8.259 11.799 10.123 17.921 7.884 1.157-2.22.616-2.785 1.425-4.301 2.774.145 5.292.024 7.177-.718 1.378-7.328-7.492-10.024-5.73-20.067 3.766-2.565 4.146-13.337-1.446-14.338-3.128 4.039-2.919 11.406-3.578 17.922 3.235 3.409 2.052 10.677-1.436 13.618-2.742-2.03-5.569-3.982-10.738-3.581-1.612-5.128-6.824-6.154-7.896-11.47-.982-4.874 2.144-9.791 2.87-15.771zm129.977-.019c3.883-5.088-6.62-14.625-7.097-7.135 1.034 1.661 4.264 8.283 7.097 7.135zm-9.732-.391c-2.994 4.74-3.866 10.854.895 10.707 4.032-1.883.552-12.992-.895-10.707zm31.429-4.925c-1.691 2.552-2.137 9.561-.723 12.9 6.83-.321 7.344-11.77.723-12.9zm-65.923 3.35c-2.704-.08-3.856 1.401-4.301 3.586 2.528 2.453 6.433-1.374 4.301-3.586zm-26.984 9.154c4.022-1.981 2.876-9.06.724-12.188-8.726-2.922-10.611 12.337-.724 12.188zm43.016-7.887c-2.325-2.967-7.825-8.334-11.463-3.581.397 4.269 3.53 10.463.06 12.9-3.09 2.167-11.227 7.322-11.131 12.678 6.593 7.156 21.215-11.909 22.534-21.997zm-53.755-2.863c-4.687-7.558-13.754.688-16.491 5.731 2.57 4.574-1.585 8.187.718 13.621 3.909 2.204 8.549-.332 8.602-4.301-.38-2.973-3.621-3.072-2.865-7.169 5.28.599 8.547-2.799 10.036-7.882zm-116.844-2.15c-2.095.182-2.199-1.621-4.301-1.438-1.878 3.142-5.587 4.446-6.449 8.602-6.685 1.679-7.927 8.8-8.602 16.489 4.54-.812 6.044 4.727 10.013 5.771 5.204-1.888 1.982-8.79-.693-10.79.045-3.538-.11-7.273 2.15-8.602 2.992 1.545 8.136.948 11.47 2.15-2.423 2.483-.278 5.078-.718 9.32-1.403 2.662-6.248 11.417 1.483 15.994.056-1.323 2.547-4.331 3.535-6.679.533-1.277-1.001-3.007-.72-5.014.238-1.674 1.765-2.731 2.15-3.588 2.885-6.395-.975-11.093-5.731-12.183.312-4.856-3.85-5.231-3.587-10.032zm182.242 4.3c1.795-8.131-7.948-7.721-7.879-1.438 1.666 2.239 5.544 3.723 7.879 1.438zm-110.566 3.581c4.531-1.907 15.174-.316 15.056-5.731-.171-7.788-22.584-5.634-15.056 5.731zm78.136-11.47c-5.817-5.686-14.772 6.545-9.325 12.19-1.131 1.489-2.33 2.917-2.866 5.014 2.212 2.814 3.611 6.43 7.89 7.169 3.847-3.058.327-6.208-.723-10.035 1.901-4.553 5.837-7.073 5.024-14.338zm61.751-6.256c-3.626-1.061-3.316 4.628-3.546 7.874-.306 4.328-4.617 5.375-4.27 9.317.306 3.444 2.855 6.229 5.704 5.021 2.363-1.551-.996-6.502.686-6.412 1.763.094 2.706 1.511 3.547.683 3.122-3.082 3.507-14.834-2.121-16.483zm-226.614-2.344c-3.019-1.521-4.931 1.521-5.734 4.302.957.712 1.409 1.936 2.866 2.147 1.09-2.014 3.399-2.812 2.868-6.449zm222.029-10.128c-2.555 1.913-1.308 7.14 1.446 7.89 3.508-1.695 1.483-6.738-1.446-7.89zm-186.906 6.545c-2.429-3.353-8.438-.302-5.733 3.583 3.518.41 5.281-.931 5.733-3.583zm48.744 0c-4.946-5.49-9.044 4.791-10.04 10.032 1.205.953 2.405 1.898 5.019 1.433 2.771-2.718 5.363-5.626 5.021-11.465zm69.533-2.15c-5.217-2.309-13.877 2.319-14.344 9.32 6.059 4.557 14.72-.98 14.344-9.32zm33.47-5.434c-2.18 1.947-6.631 3.736-5.982 6.709.61 2.809.444 6.119-.847 10.107 7.682 7.024 10.515-16.331 6.829-16.816zm-54.975-1.018c-7.51-.096-8.018 6.8-10.037 12.185 2.727 10.335 18.479 3.142 9.314-5.019-.278-2.854 2.871-4.654.723-7.166zm-95.339-.718c-3.538-1.802-4.486 3.177-3.543 3.583 1.48.638 3.709-1.03 3.543-3.583zm-22.218 0c-4.282-3.615-10.404.903-11.47 5.019 1.977 1.368 5.999.691 7.164 2.865-2.59.945-7.777 14.352-15.767 16.489-9.63 2.571-12.875-9.668-4.298-12.188 6.033 1.966 12.469-4.242 10.75-10.035-5.484-.705-6.604 5.059-10.007 4.301-1.369-.308-3.444-2.627-7.239.04-6.09 4.28-7 16.25-4.255 24.331 11.4 1.621 21.641 2.161 23.653-10.038 10.192-1.287 11.751-10.8 11.469-20.784zm229.372-2.15c-.942 4.429.75 12.04 7.171 11.47.707-3.741-1.525-10.3-5.746-11.47h-1.425zm-31.88-1.732c-4.965.723-5.598 7.967-2.405 9.898 4.874-.962 6.24-7.713 2.405-9.898zm-66.972 1.689c-2.121-2.622-8.475-1.486-7.891 2.863 2.893 1.813 7.236-.15 7.891-2.863zm-38.769-2.107c-.075 1.784-1.345 2.22 0 3.583 2.888.699 2.888-4.28 0-3.583zm97.289-4.834c-2.533-.688-4.735 2.85-4.081 5.766-2.39.948-4.729 1.735-5.014 5.013-.278 3.281 5.109 6.007 7.172 4.301 2.041-1.697-.879-4.156-.723-6.449.161-2.29 7.761-7.239 2.646-8.631zm30.906 11.132c-2.604.962-5.223 13.728 2.538 13.262.702-4.344 1.816-8.719-2.538-13.262zm-66.556-9.167c-6.268-1.585-7.853 9.507-7.167 15.053 4.666 1.551 6.61 5.817 10.75 7.887 7.06-4.722-.792-11.54-3.583-15.054.691-1.884 1.387-6.142 0-7.886zm-112.535 1.439c-3.037-2.314-14.282-4.267-15.051 1.43 1.639 3.267 10.416-1.347 8.626 1.438-1.872 2.909-5.565 4.012-7.193 7.164 2.223 3.514.597 5.297-.715 8.602.938 1.452 3.79.986 4.301 2.869.287 5.305-2.814 7.223-3.586 11.47 1.743 1.358 3.54 2.665 7.169 2.15 5.656-6.703-.705-14.657-2.151-22.223 3.423-3.75 7.927-6.406 8.6-12.9zm23.653 7.881c1.784-11.711-10.295-12.025-15.032-5.736-6.256 8.307-7.743 22.038-4.32 30.827 4.984-2.855 10.892 2.63 12.903-3.589-.669-3.631-5.624-1.674-7.164-5.731-2.115-5.573.113-15.126 6.444-17.922 3.006.105 3.202 3.014 7.169 2.151zm140.504-13.481c-2.207-5.771-10.182.6-5.023 4.301 2.897-.212 5.163-1.056 5.023-4.301zm-26.694 6.299c1.874-2.622 1.467-5.951-.713-7.884-6.401-1.115-5.094 9.354.713 7.884zm-74.387-4.288c-2.474-2.159-12.779-6.505-14.338-.712 1.875 2.592 4.467 2.571 7.177 2.863 5.088 6.591-2.361 7.863-1.44 15.771-6.529 1.16-8.174 12.402 2.152 10.75 4.045-6.028 1.008-17.19 7.173-22.22-.617-1.785-.949-3.841-.724-6.452zm-17.204-2.15c-1.039-3.739-7.976-1.58-12.174-2.15-4.322-3.372-10.177.278-10.045 2.871.075 1.481 4.882 2.635 6.452 4.301 3.293 3.497 2.361 10.348 7.895 10.75-8.114 7.456.969 12.11 4.971 11.476 2.41-.383 3.225-2.558 3.62-5.024-3.54-3.241-5.206-8.948-2.865-14.333-2.576-1.492-8.275.147-8.602-3.588 1.428-5.056 10.422 1.85 10.748-4.303zm-62.171-2.968c-1.913-1.663-6.235-.554-6.451 2.866 2.431 1.055 6.183.286 6.451-2.866zm172.057-11.202c-1.055.715-3.529 1.253-3.46 3.524-3.411 2.158-3.497 7.263.375 7.777 1.237-.951 1.992-2.788 1.913-4.467.198-2.429 4.74-6.928 1.172-6.834zm-30.326 9.156c-5.437-2.641-8.966 2.365-10.026 6.452 2.693 1.733 5.013-.6 7.89.712-1.211 1.189-.578 4.212-.724 6.452 2.25.897 4.966 2.097 6.449 0-.97-3.806-.418-9.141-4.302-10.032 1.56.117.328-2.542.713-3.584zm41.194-5.316c-1.771 4.909 2.737 7.654 4.114 10.924-1.082 2.715-2.015 7.185.911 9.301 8.205-.892 2.34-21.227-3.487-19.765-.707.124-.932-.425-1.538-.46zm-25.205 5.594c4.13.07 4.327-3.789 5.013-7.164-2.903-1.992-7.723 3.477-5.013 7.164zm-15.828 153.114c2.158 2.919 5.243 2.022 6.062-.147.825-2.17-.98-5.472-3.524-5.694-2.538-.228-4.707 2.925-2.538 5.841zm49.79-160.309c-.959 2.533 2.48 7.265 4.333 6.323 1.317-.664 1.071-6.203.713-6.618-.653-.774-4.257-1.76-5.046.295zM455.859 335.691c-1.714-8.662-9.582-1.677-16.639-1.76-7.046-.081-2.997-5.677-2.997-5.677s.975-3.134-6.135-2.933c-4.786.128.223 13.856 6.144 16.141 5.921 2.285 16.263-3.358 19.627-5.771zm-1.982-7.809c.99-1.441 1.06-3.176.492-4.767-.552-1.593-1.74-3.047-3.277-3.929-1.538-.881-3.423-1.2-5.373-.514-16.25 5.696 7.087 8.358 8.158 9.21zm166.581 34.448c-10.953-1.039-3.599 7.343-20.861 11.486a80.418 80.418 0 01-5.678 1.05c4.359-4.469 15.58-23.901 19.71-24 1.446-2.392-1.227-7.078-1.227-7.078s2.731-4.896.257-9.627c.611-5.98.236-12.333-1.688-19.135-4.873.145-2.206 7.828-3.588 11.47-1.602 1.015-4.725.535-5.014 2.863 1.351 3.176 2.845 4.387.718 7.89-1.864 1.179-4.322-1.071-6.465.718-1.591 1.808 1.569 3.2 1.446 5.731-1.66 5.57-6.262 4.663-10.761 6.452.3 4.113.14 7.788-2.859 8.602-3.878.043-3.776-3.923-8.672-2.865-3.272.715-1.351-6.708-5.667-6.454-2.854 2.051-.455 11.647 2.147 12.9 1.693.814 3.417-.693 4.302.721 1.745 2.769 1.081 3.235-1.436 6.449-2.984-2.03-4.408-5.621-8.603-6.449-2.598.024-3.144 2.105-2.865 5.019-2.464 1.947-2.395-3.444-6.448-2.15-1.575 2.793 2.822 13.455 5.864 12.054 3.032-1.398.429-3.548 2.17-5.539 1.757-1.993 11.061.766 13.218 6.385.397 1.026-2.458 8.83-3.277 11.491-.814 2.66-3.508-1.433-6.979 1.431-3.487 2.868 3.706 7.193 4.123 8.012.397.822-1.467 5.761-3.31 7.193-1.842 1.433-5.115-1.432-7.61-2.046-2.476-.616-3.466 11.698-1.007 12.957 2.452 1.253 5.549-3.102 7.589-2.901 2.052.209 3.069 14.39 3.069 15.619l-.198.396-.038.892c-2.945.723-4.279 1.971-4.676 3.318.354 2.033 1.543 4.307 2.475 5.322l1.002.506c.444-.134.942-.71 1.409-1.382l.455-.715c.604-.994 1.039-1.96 1.039-1.96s4.221 13.669 5.291 16.577c.107 1.403-.129 2.7-.99 3.667-2.951 3.289-9.186 7.035-4.221 6.4 2.518-.321 8.125-.702 11.445-.916 3.535.024 11.612.244 16.658 1.615 4.526 1.234 6.46 8.695 1.66 12.006-3.375-.453-.514-5.38-4.703-5.014-2.238.38-4.333 2.67-4.616 5.014h-5.195c-2.893-.448-1.237-4.317-3.873-5.014-3.353.241-6.213 4.065-8.136 5.731-26.668 2.051-22.881-1.69-25.785-12.905-3.974-15.41-11.772-36.749-12.206-39.418-.686-3.083 3.52-1.259 3.583-3.583.733-4.236-4.027-5.455-5.736-7.887-2.812-3.993-3.776-9.151-5.726-14.333 3.927-.115 3.884 3.765 7.172 4.295 2.983.49 5.186-11.189 2.839-12.903-1.986-1.441-3.434 1.813-6.433 1.438-2.608-4.253 2.169-4.836 2.147-8.602-.466-6.021-8.462-10.916-12.897-6.452-.497 4.96 6.021 6.171 3.584 10.753-8.699-2.467-8.323-12.328-5.014-20.072-2.636-3.283-6.401 1.344-10.049 1.433-4.418-1.304-4.933-6.529-7.161-10.032.445-2.9 4.179-2.512 5.737-4.301-.478-2.156-2.759-2.501-2.154-5.733 2.47-1.353 5.523-2.119 7.88-3.586 2.495-25.937 11.622-32.814 10.862-36.494-.183-.844-7.927-3.206-12.604-16.283-.792-2.223-3.787-.421-3.32 2.196 2.656 15.021 4.771 33.457-4.254 44.129-3.288.185-2.961-3.24-6.448-2.863-5.806.707-2.41 9.116-2.153 10.752-4.221 2.997-5.201-1.355-7.884-3.588-1.783-.118-2.238 1.1-2.865 2.15-.547 3.182 2.367 2.884 3.589 4.301-2.015 11.944 6.122 8.05 8.944 19.986-4.371.838-9.502.718-15.142-.11-10.401-3.388-7.135-8.337-7.788-11.553-.852-4.151-13.615.793-17.381-1.323-3.765-2.11-6.657-8.032-9.197-7.292-2.533.736-2.843 3.586-1.483 4.791 2.588 2.314-1.167 2.991-8.374.736-2.442-.83-2.857-3.447-3.417-5.037-.555-1.596-1.743-3.048-3.286-3.929-1.535-.883-3.417-1.2-5.364-.517-3.256 1.141-9.116.233-11.941-1.104-20.051-9.512-35.648-17.396-37.392-14.721.129 2.022 6.773 4.826 6.232 7.518-7.477-.595-8.803 2.391-17.871 6.821-9.033 4.406-17.44 5.53-19.183 9.32 1.218 1.403 5.027.228 5.731 2.15-.048 6.754-4.424 10.865-8.602 15.053-2.239 2.245-5.458 5.514-7.882 5.014-.664-3.286 1.795-3.463 1.433-6.452-7.949-7.252-27.715 4.212-18.639 13.621 2.739-3.602 6.127-1.473 9.279-2.145 3.225-.688-7.536 8.768-11.43 9.314-2.774.386-5.385-1.537-7.881.712-.463.418-.53 2.225-1.433 2.868-3.701 2.646-8.556 2.866-12.188 5.021-5.011-5.688-11.883-1.259-14.333 3.581l-1.387.501c-3.921 1.299-4.422.42-8.975-.153-5.038-.634-8.436-2.972-12.892-.849-4.459 2.121 4.113 4.687 2.761 6.101-22.193 23.112-22.522 42.38-20.423 44.579 4.052 4.237-13.178 5.158-13.562 9.314 4.365 2.562 14.111.383 19.384.71 5.271.337 8.406 6.382 8.569 13.628-3.142.273-3.685-2.051-6.449-2.147-2.74-.354-2.247 2.53-3.583 3.58-4.78 0-5.375-4.186-8.607-5.731-2.625 1.674-5.311 3.289-6.449 6.449h-8.602c-3.136 0-6.436-6.891-6.393-13.624.021-3.508 1.478-7.279-.059-9.314.822-3.723 1.602-30.624 8.578-33.682 1.703-.747 8.498-14.454 1.459-16.494.868-8.923 6.974-12.619 14.335-15.051-2.64 11.505 13.099 10.918 15.903 3.195-.501-3.235-.624-6.197-2.962-7.938 6.535-2.783 13.254-6.781 18.262-11.332 3.131 1.171 4.995 4.347 9.711 3.929 1.031-.399 3.128.273 3.53-.758.761-4.587-4.789-11.84-3.712-12.886a47.256 47.256 0 004.291-4.794c1.037-1.151 3.026-1.194 4.791-.056 1.312.844.975-4.041 1.866-5.468s4.184-.919 4.457-2.826c.268-1.877-2.989-4.844-1.35-8.597l.396-.881a332.692 332.692 0 003.315-7.718c8.289.932 11.744 7.688 21.066.934-.707-2.862-.707-4.298 0-7.169-2.938-2.352-5.731-4.32-9.317-3.581-3.519.729-6.329 4.676-9.847 4.657.179-7.997 4.446-19.576 11.995-22.578-.094-4.602 1.27-6.535 2.871-10.75.035-3.384-3.029-3.663-4.301-5.733.653-4.127 1.125-8.433 4.301-10.037-.57 2.792-.744 3.714.718 5.736 7.946 1.81 13.902-3.482 17.196-8.599-1.302-7.751.819-14.599-4.296-18.64-3.487.1-5.345 1.824-6.454 4.302.49 4.052 4.196 4.884 5.736 7.887-2.027 2.991-1.591 8.441-6.451 8.602-1.891-3.128-.078-9.959-5.731-9.319.541-3.042 1.532-5.635 2.863-7.884a6.45 6.45 0 00-2.863-2.869c-6.976 1.626-8.695 9.775-13.417 13.656-9.443-1.631-13.69 16.052-17.957 21.729-.827-4.028 2.424-17.713-9.879-14.793 2.731-2.77 5.413-5.472 8.037-8.083.814 1.379 1.783 2.552 2.646 2.3 8.09-2.378 7.622-8.671 6.917-11.588l1.47-1.409c2.405-1.486 4.29-2.303 5.361-2.258 4.574.924 9.291-1.304 11.803-4.574.415-2.33-.49-3.334-.718-5.019 1.797-.828 2.396-2.855 5.019-2.866 3.206 1.811 5.29 4.743 8.599 6.452 6.155-1.063 13.106.651 15.771-5.019-1.65-6.441-1.917-13.12 5.731-13.621.26 3.602-.439 6.248-1.43 8.602 4.24 5.899 14.323.951 18.634-2.863-1.888-5.496-7.938 1.692-12.183-1.438.164-8.366 12.027-8.982 17.201-6.451 2.716 3.8-3.503 3.875-2.868 7.89 3.08 2.471 10.953-.745 11.47-5.019.525-4.36-2.568-4.282-5.021-7.884 4.288-.98 12.978-1.347 17.204 0-2.231 2.458-7.193 5.495-5.014 10.035.525 2.579 5.648.56 6.449 2.869-3.364 2.367-5.351 6.108-7.876 9.314-1.645 2.094 1.54 2.75 1.427 5.019-9.068 11.628 9.542 34.132 17.919 20.79-1.119-5.217-5.251-3.559-10.037-4.301-5.664-10-4.213-23.669 4.301-30.11-2.365-3.294-5.996-4.017-5.733-7.881.407-6.071 8.548-5.921 14.333-5.019.635 2.303-2.362.98-2.147 2.869-1.018 2.447 17.3 4.914 20.069 4.301 2.635-.586 3.963-2.935 5.019-4.301-5.533-2.383-13.629 2.19-16.489-2.869 25.6-.656 48.127 2.052 71.684 4.299 3.486.332 7.321-1.058 10.037 2.15 1.484 2.196-2.143 4.229-2.158 7.169 3.626-.198 4.772-2.874 7.884-3.586 4.066-.932 11.725 2.791 12.903-2.145.021-2.408-2.833-1.936-4.302-2.868 1.212-2.167 6.106-3.573 8.604-2.15 1.424 1.411.455 4.092 0 5.731 3.395 3.543 8.371-.287 10.749-2.15-.086-2.777-4.943-.788-5.014-3.581 5.817-2.786 10.948-6.253 18.64-7.169 3.589 1.733 8.58 4.676 12.191 2.868 2.555-1.283 1.402-3.696 2.859-6.451 3.481-1.57 8.045-3.112 12.598-3.894 2.357-.407 4.724-.608 6.915-.506l.841.056.733-.029c3.005.064 4.012 2.684 2.448 4.81 2.458.128 4.264-3.35 7.89-3.583 3.625-.236 8.382 2.611 9.828.932.98-1.133-.235-2.63.98-5.137.766-1.259 2.448-2.11 3.043-1.031 2.34 4.25 7.632 4.628 11.799 9.875 3.818-2.997-2.147-6.827-4.237-9.325-2.747-3.294-1.724-8.53.049-10.278 7.112-6.741 10.878-5.292 11.05-5.943.197-.729-3.878-1.843-4.788-2.793-1.623-1.685-2.33-3.723-2.614-4.891l-.188-.961c-.745-3.835-1.44-7.938-2.587-11.023 4.971.758 8.136 3.334 11.474 5.731 1.622-.52 2.142-2.156 2.864-3.581-2.143-9.336-11.327-11.625-12.913-21.508 7.648 1.687 12.544 14.258 23.663 15.056 5.383.38 12.052-2.478 17.917-2.868 7.756-.522 14.627.271 21.499 2.151 3.471.945 6.7 3.492 10.043 3.581 4.231.12 8.372-3.439 12.897-2.151 2.164-5.549 9.86-9.164 15.057-9.314-.928 4.812-5.432 6.039-7.167 10.032-.198 3.063 2.613 3.117 3.578 5.021 1.473 5.934 1.585 13.232 4.301 17.919-.733 1.882-2.833 2.413-3.578 4.301-.149 2.298 2.555 1.744 3.578 2.863-1.013 1.77-4.896 4.068-.712 5.019-5.405 3.444-6.744 11.679-4.302 19.354-2.458 3.511-6.86 5.088-13.614 4.299-2.121-2.188-1.303-7.306-1.441-11.468 3.958-2.504 8.136-4.772 9.324-10.035-3.101-3.085-7.149 1.333-11.473 1.433-5.966.145-12.404-5.072-17.203-1.433 3.053 5.554 11.098 6.106 14.338 11.47.289 3.394.15 5.712-.723 8.83-7.746 6.516-24.167 3.219-27.943-4.529-1.795-3.682-.155-7.263 2.143-8.602-5.661-7.217-24.092 2.26-30.107-5.019.578-2.258 1.795-4.103 3.825-4.698 0 0-1.028-1.312-6.915-1.663-.198-3.072 4.183-3.142 6.153-6.655-11.108-.718-22.602 12.876-15.607 15.592 6.444 2.499 9.685 6.109 10.862 12.547-3.519-2.284-7.435 1.535-4.928 5.875 3.647 4.606 9.545 10.038 17.891 12.049 10.047 14.595-.536 15.016 16.052 23.396-.439 1.58.434 3.875.632 7.244-.359 5.29-10.268-2.557-14.306-11.143-2.599-5.536-.312-9.384-4.698-13.773-2.479-2.478-10.09-3.131-5.452 2.041 11.596 12.946 16.074 29.668 16.095 34.319.012 2.429 1.811 2.175 3.921.688 1.061-.702 2.281-1.16 1.655.139l-.552 1.085c-.546 1.344-1.382 2.691-2.518 4.039-1.714 2.021-4.231 3.602-5.618 3.498-5.779-.416-2.587-17.523-15.773-20.785-.462-8.902-8.961-15.859-15.77-20.787-4.23 2.753.831 4.992 2.154 7.169 1.307 2.169 1.9 4.501 3.583 6.448 2.517 2.903 6.245 5.054 7.89 9.32.69 1.813.225 4.639.712 6.452 1.618 6.063 4.461 11.157 7.82 15.626 4.547 6.039 1.237 12.113 4.092 12.847 3.262.844 5.232-13.95 13.177-14.853 1.055 3.224-.81 10.482-2.159 12.9-1.012 1.379-3.476 1.299-5.014 2.15-.498 3.607.236 5.975 2.147 7.169-.723 7.775-3.626 6.837-5.575 14.21-.177.715-.771 2.833-1.992 5.752-3.81 7.439-17.307 22.663-20.923 22.321zm-4.943-128.09c-.252-2.616-.488-4.85-3.016-6.569l-.873-.508c-6.074-3.634-8.008-7.472-9.304-9.119-1.537-1.955-4.885 3.142-3.418 6.829l.515.935c1.901 3.128 5.918 7.051 7.253 12.523 1.725 5.667 7.659 3.487 16.63 16.403 3.605 5.177 6.637 11.152 14.189 19.438 1.842-8.061-4.677-13.958-8.603-18.639-2.716-3.163 3.192-2.566-2.796-6.411-2.892-1.859-5.924-4.837-7.927-6.634-4.499-3.991-12.582-11.564-5.982-9.909 1.013.255 2.132.826 3.332 1.661zm38.463-51.105c-2.545-.147-1.426 3.364-4.302 2.868-2.544.08-5.773-.52-5.736 2.151 3.46 4.871 13.406 9.378 20.782 5.733.096-7.265-6.738-7.587-10.744-10.752zm37.268 6.451c-.337 2.25 1.934 1.894 2.153 3.586 4.852-.158 7.601-2.437 10.037-5.019.89-11.37-11.146-2.426-12.19 1.433zm-331.155 120.42c2.424.926 2.681 4.014 7.169 2.868 3.503 5.514-.517 12.595-5.019 12.903-7.587.514-10.364-12.63-2.15-15.771zm3.072 10.39c1.104-1.357 1.27-1.553.678-3.578-3.704-.571-4.623 2.064-3.586 4.301 1.333.124 1.922.491 2.908-.723zm-18.843-25.441c.852 3.835-4.954 5.416-2.863 10.038-5.431 1.977-3.468 11.345-11.47 10.75-2.874-6.575 4.872-12.282-1.433-15.769.557-2.791.982-5.709 2.865-7.169 7.48.554 11.573-3.846 12.901 2.15zm72.396.717c2.338 7.089 7.6 15.016 2.868 21.502-6.912-.118-10.126-.653-16.483.718-1.01-3.473-5.461-8.68-5.736-12.9-.391-5.972 4.231-9.611 6.448-14.338 4.505 1.47 10.699 1.248 12.903 5.018zm-5.731 13.616c1.861-5.244-7.115-5.543-8.602-2.866 1.398 2.185 5.311 4.872 8.602 2.866zm267.969 167.696h-3.305s-5.421-5.52-5.796-3.87c-.873 3.747-3.723 4.623-3.723 4.623h-22.319c-9.908 0-11.811-5.423-12.908-8.824-.686-2.089-7.472-25.391-7.472-25.391s1.506-3.393 1.506-6.034-5.936-4.62-5.936-4.62l-1.885-7.258s4.146-1.894 3.866-5.747c-.337-4.617-9.147-5.469-9.147-5.469s-3.438-10.629-5.163-16.719c-.933-3.259.417-7.198 5.35-11.181 0 0 4.088 3.683 7.751 1.328 3.686-2.359-.396-8.398-.584-9.341-.171-.806 13.686-8.446 18.522-10.87.514-.257 2.078.373 2.1 1.058.036 2.897-.735 8.302-.735 8.302s-2.457-1.882-4.429-2.07c-1.982-.188-6.036 4.336-6.786 10.083-.755 5.752 9.71.188 9.71.188s-.38 9.146-1.51 15.841c-4.901 5.934-2.169 7.632 2.073 8.953-1.13 30.728 10.744 53.379 9.802 53.958-2.797 1.741-2.03 2.761-.06 2.574 8.64-.814 17.986-.621 23.433.87 7.777 2.13 7.645 9.616 7.645 9.616zm-64.553-70.959c1.896 2.07 8.521 3.795 10.76 1.725 2.25-2.073 3.976-5.769 1.388-8.527-2.582-2.761-5.763-4.221-8.698-4.221-6.637 0-5.351 8.953-3.45 11.023zm-417.627-52.399c5.158-2.903 16.599-1.451 10.79-8.771 6.661-5.592 11.318-10.003 18.243-16.658.822 3.222 6.16 7.25 9.716 10.204a321.916 321.916 0 01-5.56 4.012c-5.597-1.452-11.042-5.247-11.701-3.637-1.384 1.411 1.109 8.736 2.285 12.718-2.678 2.086-5.254 4.202-7.825 6.2 0 0-1.62 1.464-4.542 3.626-2.855-1.189-6.62-2.333-9.301-1.604-3.977 1.08-5.761 8.332-6.286 10.994-7.017 3.377-15.498 6.39-24.823 7.509-2.606-2.1-8.514-3.05-12.223 1.112-3.696.029-4.847-2.82-6.872-3.567-6.61-2.442-6.778-5.228-2.384-3.752 6.189 2.081 15.721.972 25.332-2.753 9.606 8.564 15.846-8.929 15.846-8.929l9.305-6.704zm46.176-42.38c1.02 2.793 5.471 10.814 10.315 13.202a414.142 414.142 0 01-10.38 8.364c2.488-9.938-7.362-10.929-10.696-10.811 3.583-3.527 7.18-7.129 10.761-10.755zm21.424 3.655c-.477-5.921-3.969-15.712-12.153-13.125l11.901-12.252c1.633 2.793-.868 16.949 10.958 15.645a570.773 570.773 0 01-10.706 9.732zm70.632-75.141c-.525 5.665-7.282 8.265-11.471 4.301.75-4.39 6.76-6.114 11.471-4.301zm78.48 145.272s-1.939 2.919 0 4.796c1.931 1.877 4.285 2.593 5.539 2.502 1.248-.089 11.912-3.667 11.912-5.959 0-2.29-2.651-3.929-4.796-4.553-2.141-.629-12.655 3.214-12.655 3.214zm-17.338 16.915s-4.199 2.745-4.199 4.261c0 1.521 4.885 5.064 6.495 6.044 1.604.988 5.241-.771 6.757-3.452 1.521-2.681 2.801-6.312-.147-7.565-2.949-1.249-8.906.712-8.906.712zm49.759 64.592c6.723-.147 14.58-.158 19.733 1.69 5.297 1.907 5.912 7.174 6.33 8.854.418 1.674-5.747.654-5.747.654s-3.825-5.94-6.54-4.261c-.605.367-.557 4.261-3.09 4.261-1.864 0-17.488.185-25.79.15-6.042 0-7.914-3.131-9.553-6.312-2.533-4.912-16.802-33.652-26.473-45.152 2.67-2.352 3.672-5.514 1.937-7.316-1.728-1.802-8.773-.555-8.773-.555-2.397-3.538-4.832-6.713-6.393-8.69-2.02-2.562-.164-3.497.546-4.183 8.468-8.213 11.464-14.555 11.85-14.491.418.069 2.186 5.035 4.615 4.687 2.426-.345 6.443-7.63 6.443-8.428 0-.803-.41-2.191-2.491-4.132-2.081-1.941-3.468-3.433-3.398-4.127.069-.694.903-1.457 1.457-3.744 1.376-5.683 4.601-6.403 5.626-4.237.423.881 4.871 8.64 9.692 7.804 4.821-.839 11.202-2.941 13.929-5.035 2.724-2.097 12.534 1.037 17.702 2.518 5.169 1.481 4.194 6.336 3.354 7.174-.842.835-5.287 4.448-6.337 4.448-1.044 0-5.286-4.494-7.798-2.354-2.517 2.139-.214 5.707-1.05 6.754-.838 1.05-6.963 6.336-8.433 6.545-1.467.207-11.366-.46-12.204 2.938-.841 3.398 3.776 4.863 3.776 5.91 0 1.05-4.196 5.916-3.567 8.434.629 2.515 3.355 10.364 2.938 11.623-.42 1.258-4.612 5.91-3.146 8.219 1.467 2.303 7.383 1.679 8.012 3.146.327.769 5.008 15.667 10.276 23.147 2.595 3.688-3.294 5.573.584 5.013a98.682 98.682 0 0110.107-.9c1.185-.047 1.876-.052 1.876-.052zm-1.877.051l1.877-.051s-.691.005-1.877.051z"/><path fill="#005DAA" d="M566.405 520.834h90.38c14.756 0 27.219 1.816 37.407 5.453 10.187 3.647 18.468 8.741 24.852 15.297 11.274 10.921 16.931 25.758 16.931 44.515v.536c0 14.745-3.545 26.952-10.658 36.593-7.087 9.662-16.657 17.022-28.677 22.115l45.618 66.641H681.09l-38.506-57.889h-23.208v57.889h-52.972v-191.15zm87.909 91.74c9.106 0 16.112-2.003 21.04-6.005 4.906-4.183 7.358-9.742 7.358-16.657v-.546c0-7.639-2.543-13.288-7.637-16.926-5.104-3.835-12.1-5.736-21.019-5.736h-34.681v45.87h34.939zm-197.823 24.038l-21.28-54.338-21.585 54.338h42.865zm-46.4-117.144h51.06l81.359 192.516h-56.785l-13.932-34.15h-73.716l-13.664 34.15h-55.704l81.382-192.516zM225.898 715.519c-13.661 0-25.937-1.734-36.877-5.179-10.905-3.471-20.201-8.741-27.847-15.838-7.648-7.289-13.548-16.39-17.75-27.306-3.99-11.104-6.001-24.119-6.001-39.052v-107.31h53.797v106.218c0 13.835 3.171 24.13 9.552 30.857 6.366 6.55 14.928 9.828 25.68 9.828 10.731 0 19.282-3.188 25.659-9.561 6.363-6.363 9.553-16.288 9.553-29.77V520.834h53.797v105.95c0 15.479-2.185 28.848-6.55 40.134-4.197 11.098-10.196 20.295-18.034 27.584-7.646 7.097-17.025 12.367-28.123 15.838-10.921 3.444-23.211 5.179-36.856 5.179z"/></svg>