<svg xmlns="http://www.w3.org/2000/svg" viewBox="0 0 442.31 186.09"><g data-name="Layer 2"><g data-name="Layer 1"><path d="M322.68 5.45c2.49-1 4.82-1.43 7-3 3-2.18 9.11 1.55 4.83 8.29a35.19 35.19 0 00-1.78 3.17c-.54 6.25 6.86 11.3-.28 17.2l.1.55a11.53 11.53 0 010 3.37c-2.81 3.31-3.53 3.51-7.15 4.68-.07.21-.19.39-.19.42a6.6 6.6 0 012 4.47 8 8 0 01-2.65 5.4c-1.8 1.89-4.12 4.27-6.66 4.22-.84.08-2.71-.75-3.29-.63-.42.82-.55 4.4-.83 8.52-.37 5.54-.87 12-1.26 14a29.64 29.64 0 01-4.15 10.33c-.15 9.34-3.62 27 2.33 34.87a41.39 41.39 0 007.09 2c4.7 1.59 6.82 8.6 3.35 13.69h-55.08c-4.09-2.28-3.3-4.49-4.41-8.11-.77-2.5-2.32-5.25-3.34-8.33-2.58-7.81-4.38-16.67-8.87-23.65-4-.41-7.76-1.62-11.64-2.49-4.35 4.53-5.4 6.21-11.33 9.56-6.25 3.52-4.06 6.21-2.52 12.19 2.23 8.64 2.74 5.36 10.73 6.23s7.14 8.59 7.26 14.6h-28.33c-4.23-13.35-9.1-18.89-18.22-28.71-7.12-7.67 6.93-9.55 6.69-19.25a3.08 3.08 0 00-2.26-.48c-6.31 6.31-8.38 11.39-18.14 14.75-7.11 2.45-22.88 2.84-27 9.62-.93 1.52-2.22 6.49-1.22 9.14 2.8 3 3.87 2.73 4.56 7.81.33 2.41.66 4.72 1.12 7.12h-27.87c-3.38-5.41-.71-7.09-.15-12.4.17-1.6-.11-3.28 0-4.92.6-9.64 3.36-27.15 14.7-29.69 9.74-2.18 13.9-9.23 17.16-18.16-11.18 10.53-28.11 24.92-43.16 27.36-37.72 6.14-33.65-34.3-18.79-33 8.15.69 6.53 9.42 4.84 13.7.2 3.16 2.69 5.32 8.39 4.67 11.83-1.33 38.92-32.45 48.07-41.18A46.73 46.73 0 01180.86 32c17.39-7.74 42.37-4.34 61.06-3.42 3.64.19 4.84.41 6 .36s2.4-.41 6.1-1.4c8.43-2.23 16.33-5.12 25.13-5.52 5-.22 3.78-.28 6.35-3.44-.78-2.64-3.09-8.87-2.75-11.44.24-1.76 2.75-6.32 5.71-7 6.42-1.45 10 5.71 12.56 5.17 6.82-1.45 6.58-2.38 15.12-.76a26.53 26.53 0 006.54.9zm-32.22 117a221.17 221.17 0 01-8.26-21c-1.55 6.24-1.29 14.83 1.18 19.45a17.33 17.33 0 017.08 1.57z" fill="#fff"/><path d="M323.24 8c1.81-.82 3.79-1.2 4.91-1.7a20 20 0 003-1.74 2 2 0 012.48 1.13c.4 1.24.24 1.86-.72 3.63l-.29.47c-.81 1.51-2.1 3.29-2.19 4.4-.13 1.44.92 4.46 1.4 6.14.6 2.09 1.75 3.86 1.39 6.14-.32 2.06-2 2.75-3.07 3.91 0 1.42.48 2.32.28 3.91a8.68 8.68 0 01-3.35 2.8c-1.53.68-3.29.28-3.91 2.23-.88 2.74 1.53 2.23 1.67 5 .09 1.66-.94 3-2.51 4.47-.95.89-2.64 2.57-3.91 2.79-1.89.33-2.61-.81-4.75-.56-2.31 2.48-1.78 6.47-2 10.06-.08 1.71-.4 3.54-.56 5.3-.29 3.49-.19 6.24-.83 9.5a26.65 26.65 0 01-4.19 10c-.09 13-3.87 28.48 2.9 37.15a5.37 5.37 0 00.37.44 47.82 47.82 0 007.73 1.89c.85.31 3.4 2.64 3.4 5.19a9.13 9.13 0 01-1 4.26H297c-2.14-3.15-.85-3.12-3.43-10.66-1.12-3.27-2.89-6.33-4.19-9.5a186.16 186.16 0 01-6.76-19.83c-4.47 6.17-5.13 21.9-.56 28.49 3.79.26 6.49.29 8.38 2.24 2.29 2.36 1.6 6.44 2 9.26h-25.73c-2.35-1.31-2.09-4.2-2.79-6.47-.77-2.51-2.84-8-3.86-11.07-2.79-8.44-3.59-15.26-9.27-22.45-5.14-.35-13.68-2.79-13.68-2.79-2.7 2.47-4.35 5.51-7.82 7.82-1.19.79-2.56 1.47-3.91 2.24-2.72 1.53-5.17 2.82-5.31 7.26-.07 2.31 1 4.73 1.68 7.54.59 2.29 1.26 5.31 2.51 6.42 3.22 2.85 10 .19 13.13 2.52 2.34 1.75 2.15 5.17 2.23 9h-24.26a62.58 62.58 0 00-16-25.74c-1.23-1.23-3.58-3.21-3.63-4.47-.08-2.28 4.27-5.17 5.59-7 2-2.76 3.35-4.79 3.07-9.22-.85-1.66-2.75-2.27-5.59-2-5.3 5-8 11.38-17.87 14.8-10.6 3.65-23.3 2.5-28.21 10.61-1.14 1.87-2.76 7.61-1.4 11.17.59 1.55 2.42 2 3.35 3.63 1.25 2.19 1 4.87 1.68 8.15h-23.12c-1.89-3-.1-6.57.26-9.82.17-1.63-.11-3.35 0-5a69.45 69.45 0 012.79-15.36c1.5-4.8 3.86-9.33 7-11.17 1.62-1 4.44-1.13 6.7-2 8.26-3 12.7-11.36 15.64-19.83a63.49 63.49 0 001.91-7c.26-1.2-26.49 28.66-48 32.15-13.27 2.16-29.12-2.64-26-20.42 1.88-10.87 14.52-10.18 10.2 1.23-2 5.32 2.83 10.31 10.92 9.39 12.65-1.43 34.14-27.24 49.4-41.82a44.7 44.7 0 0117.79-10.75c6.19-2.77 13.25-4.86 26.3-4.65 10.9.16 22.39.82 33.8 1.39 2.16.11 4.43.7 6.42.56s4.2-1.09 6.43-1.68c2-.54 4.12-1.13 6.14-1.67 4.27-1.14 8.61-2.78 12.57-3.35 4.12-.6 8.15-.14 10.61-1.12 2-.79 2.48-3 4.19-4.48-.6-1.7-1-3.72-1.67-5.85-.54-1.83-1.68-3.76-1.4-5.87.17-1.28 2.3-4.67 3.91-5 2.4-.54 4.9 1.15 6.15 2 1.62 1 2.77 3.1 4.74 3.35s5.15-1.47 7.83-1.67c5.08-.32 11.14 2.02 15 1.75h.35z" fill="#231f20"/><path d="M295 86.27c-4.26-.4-1.4 2.86-8.13 4.48-.71.16-1.44.3-2.21.41 1.7-1.74 6.07-9.31 7.68-9.35.56-.93-.48-2.76-.48-2.76a4.25 4.25 0 00.1-3.75 19.4 19.4 0 00-.66-7.45c-1.9 0-.85 3-1.39 4.46-.63.39-1.84.21-2 1.12.53 1.24 1.12 1.7.28 3.07-.72.46-1.68-.41-2.51.28-.63.71.61 1.24.56 2.23-.65 2.18-2.44 1.82-4.19 2.52.11 1.6.05 3-1.12 3.35-1.51 0-1.47-1.53-3.38-1.12-1.27.28-.52-2.61-2.21-2.51-1.11.79-.17 4.54.84 5 .66.32 1.33-.27 1.68.28.68 1.08.42 1.27-.56 2.52-1.17-.8-1.72-2.2-3.35-2.52-1 0-1.23.82-1.12 2-1 .76-.93-1.34-2.51-.83-.62 1.08 1.1 5.24 2.28 4.69s.17-1.38.85-2.16 4.31.3 5.15 2.49c.15.4-1 3.44-1.28 4.48s-1.36-.57-2.72.55 1.45 2.81 1.61 3.13a4.58 4.58 0 01-1.29 2.8c-.72.56-2-.56-3-.79s-1.36 4.55-.4 5 2.16-1.21 3-1.13 1.2 5.61 1.2 6.08c0 .1 0 .14-.09.16v.35c-1.16.29-1.68.77-1.83 1.29a4.74 4.74 0 001 2.08 1.17 1.17 0 00.39.19 1.33 1.33 0 00.54-.53.61.61 0 01.18-.28c.23-.39.41-.77.41-.77s1.65 5.33 2.06 6.46a1.84 1.84 0 01-.39 1.43c-1.15 1.28-3.58 2.75-1.64 2.49 1-.12 3.16-.27 4.46-.35a30.1 30.1 0 016.49.63 2.69 2.69 0 01.64 4.67c-1.31-.17-.2-2.09-1.83-2a2.39 2.39 0 00-1.8 2h-2c-1.13-.17-.48-1.68-1.51-2-1.3.1-2.42 1.59-3.17 2.24-10.39.79-8.92-.66-10.05-5-1.55-6-4.59-14.32-4.76-15.35-.27-1.21 1.38-.49 1.4-1.4.29-1.65-1.57-2.12-2.23-3.08-1.1-1.55-1.47-3.56-2.24-5.58 1.54 0 1.52 1.47 2.8 1.68s2-4.36 1.1-5c-.77-.56-1.33.71-2.5.56-1-1.66.84-1.89.84-3.36-.18-2.34-3.3-4.25-5-2.51-.19 1.93 2.35 2.4 1.4 4.19-3.39-1-3.24-4.8-2-7.82-1-1.28-2.49.52-3.91.56-1.72-.51-1.92-2.54-2.79-3.91.17-1.13 1.62-1 2.23-1.68-.18-.84-1.07-1-.83-2.23 1-.53 2.15-.83 3.07-1.39 1-10.11 4.52-12.79 4.23-14.23-.07-.33-3.09-1.25-4.91-6.34-.31-.87-1.48-.17-1.3.85 1 5.85 1.86 13-1.66 17.2-1.28.07-1.15-1.27-2.51-1.12-2.26.28-.94 3.56-.84 4.19-1.64 1.17-2-.52-3.07-1.4-.7 0-.87.43-1.12.85-.21 1.23.93 1.11 1.4 1.67-.78 4.65 2.39 3.14 3.49 7.79A18 18 0 01242 89c-4.05-1.31-2.78-3.25-3-4.5-.33-1.62-5.3.31-6.77-.51s-2.6-3.13-3.58-2.85A1.13 1.13 0 00228 83c1 .89-.46 1.16-3.26.28-1-.33-1.12-1.34-1.34-2a3 3 0 00-1.27-1.53 2.5 2.5 0 00-2.1-.2 7.52 7.52 0 01-4.65-.43c-7.81-3.7-13.89-6.78-14.57-5.73 0 .79 2.64 1.88 2.42 2.93-2.91-.23-3.43.92-7 2.65s-6.79 2.16-7.47 3.63c.47.55 2 .09 2.23.84 0 2.64-1.72 4.24-3.35 5.87-.87.87-2.13 2.15-3.07 2-.26-1.29.7-1.36.56-2.52-3.1-2.83-10.81 1.64-7.27 5.31 1.07-1.41 2.39-.58 3.62-.84s-2.94 3.42-4.45 3.63c-1.09.15-2.1-.6-3.08.28-.18.16-.2.86-.55 1.12-1.45 1-3.34 1.11-4.75 1.95-2-2.22-4.63-.49-5.59 1.4l-.54.19c-1.53.51-1.72.17-3.5-.06-2-.24-3.28-1.16-5-.33s1.6 1.83 1.08 2.38c-8.65 9-8.78 16.51-8 17.37 1.58 1.65-5.14 2-5.29 3.63 1.7 1 5.5.15 7.56.28s3.28 2.48 3.34 5.3c-1.22.11-1.44-.79-2.52-.83s-.87 1-1.39 1.4c-1.86 0-2.1-1.63-3.36-2.24a5.36 5.36 0 00-2.51 2.51h-3.35c-1.22 0-2.51-2.68-2.49-5.31 0-1.36.57-2.83 0-3.62.32-1.46.62-11.94 3.34-13.13.66-.29 3.31-5.63.57-6.42.34-3.49 2.71-4.92 5.58-5.87-1 4.48 5.11 4.25 6.2 1.25-.19-1.26-.24-2.42-1.15-3.1a26.41 26.41 0 007.11-4.41c1.22.45 1.94 1.69 3.78 1.53.41-.16 1.22.1 1.38-.3.3-1.79-1.87-4.61-1.45-5a18.55 18.55 0 001.71-1.86 1.43 1.43 0 011.84 0c.51.33.38-1.58.73-2.13s1.63-.36 1.74-1.1-1.17-1.89-.53-3.35l.16-.35c.44-1 .86-2 1.29-3 3.23.36 4.57 3 8.21.36a4.74 4.74 0 010-2.79c-1.15-.92-2.24-1.69-3.64-1.4S171.52 73 170.15 73c.07-3.11 1.73-7.62 4.68-8.79 0-1.79.49-2.54 1.11-4.19 0-1.32-1.18-1.42-1.67-2.23.25-1.61.43-3.29 1.67-3.92-.22 1.09-.29 1.45.28 2.24 3.1.7 5.42-1.36 6.7-3.35-.51-3 .32-5.69-1.67-7.26a2.61 2.61 0 00-2.52 1.67c.19 1.58 1.64 1.91 2.24 3.08-.79 1.16-.62 3.28-2.51 3.35-.74-1.22 0-3.89-2.24-3.64a8.76 8.76 0 011.12-3.06 2.53 2.53 0 00-1.12-1.12c-2.72.63-3.39 3.8-5.23 5.32-3.68-.64-5.33 6.25-7 8.46-.33-1.57.94-6.89-3.85-5.76 1.06-1.08 2.11-2.13 3.13-3.15.31.54.69 1 1 .89A3.48 3.48 0 00167 47l.57-.55a4.54 4.54 0 012.1-.87 4.86 4.86 0 004.6-1.79c.15-.91-.2-1.3-.29-2 .71-.33.94-1.12 2-1.12 1.25.71 2.06 1.85 3.35 2.51 2.4-.41 5.11.26 6.15-1.95-.65-2.52-.75-5.11 2.23-5.31a6.89 6.89 0 01-.56 3.35c1.66 2.3 5.58.37 7.26-1.12-.73-2.14-3.09.66-4.74-.55.06-3.27 4.69-3.51 6.7-2.52 1 1.48-1.37 1.51-1.12 3.07 1.2 1 4.27-.28 4.47-1.95s-1-1.67-2-3.07a16.44 16.44 0 016.7 0c-.87.95-2.8 2.14-2 3.91.21 1 2.2.22 2.52 1.11a16.34 16.34 0 00-3.07 3.64c-.64.81.6 1.07.55 2-3.53 4.53 3.72 13.3 7 8.1-.43-2-2-1.38-3.9-1.67-2.21-3.9-1.65-9.23 1.67-11.73-.92-1.29-2.33-1.58-2.23-3.08.16-2.36 3.33-2.31 5.58-2 .25.91-.92.39-.83 1.12-.4.95 6.74 1.91 7.82 1.68a3.59 3.59 0 001.95-1.68c-2.15-.92-5.31.86-6.42-1.12 10-.25 18.75.8 27.93 1.68 1.36.14 2.85-.41 3.91.84.58.85-.83 1.65-.84 2.79 1.41-.08 1.86-1.12 3.07-1.4 1.59-.36 4.57 1.09 5-.83 0-.94-1.1-.76-1.68-1.12a3 3 0 013.36-.84c.55.56.18 1.6 0 2.24 1.32 1.38 3.26-.11 4.19-.84 0-1.08-1.93-.31-2-1.4 2.27-1.08 4.27-2.44 7.26-2.79 1.41.68 3.35 1.83 4.75 1.12 1-.5.56-1.44 1.12-2.52a21.47 21.47 0 014.91-1.52 13.21 13.21 0 012.7-.19h.61a1.12 1.12 0 01.95 1.87c1 .06 1.67-1.3 3.08-1.39s3.26 1 3.82.36c.39-.44-.09-1 .39-2 .3-.49.95-.82 1.18-.4.91 1.65 3 1.8 4.6 3.85 1.49-1.17-.84-2.66-1.65-3.64a3.34 3.34 0 010-4 7.33 7.33 0 014.43-2.28c.07-.28-1.52-.72-1.87-1.09a4.19 4.19 0 01-1-1.9l-.07-.38a29.13 29.13 0 00-1-4.29 9.75 9.75 0 014.46 2.23c.64-.2.84-.84 1.13-1.39-.84-3.64-4.41-4.54-5-8.39 3 .67 4.88 5.56 9.21 5.87 2.1.15 4.7-1 7-1.12a24.84 24.84 0 018.38.84c1.35.36 2.61 1.36 3.91 1.4 1.64 0 3.26-1.35 5-.84.85-2.16 3.85-3.58 5.87-3.63-.36 1.87-2.12 2.35-2.79 3.91-.08 1.19 1 1.21 1.39 2 .57 2.3.62 5.15 1.68 7-.29.74-1.11.95-1.4 1.68-.06.9 1 .68 1.4 1.12-.4.69-1.91 1.58-.28 2-2.11 1.35-2.63 4.55-1.67 7.54-1 1.37-2.68 2-5.31 1.68-.82-.85-.51-2.84-.56-4.47 1.54-1 3.17-1.86 3.63-3.91-1.21-1.2-2.78.52-4.47.56-2.33.05-4.83-2-6.71-.56 1.19 2.16 4.33 2.38 5.59 4.47a8.58 8.58 0 01-.28 3.44c-3 2.55-9.42 1.26-10.88-1.76a2.55 2.55 0 01.83-3.35c-2.21-2.82-9.39.88-11.73-2a2.33 2.33 0 011.49-1.83s-.41-.51-2.69-.65c-.09-1.2 1.62-1.22 2.39-2.59-4.33-.28-8.81 5-6.08 6.07a6 6 0 014.23 4.89c-1.37-.88-2.9.6-1.92 2.29a12.92 12.92 0 007 4.7c3.92 5.69-.21 5.85 6.26 9.11-.18.62.17 1.51.24 2.83-.14 2.06-4-1-5.57-4.35-1-2.15-.12-3.65-1.83-5.36-1-1-3.93-1.22-2.13.79 4.52 5 6.27 11.56 6.27 13.38 0 .94.71.84 1.54.27.41-.28.88-.46.64 0l-.22.43a5.93 5.93 0 01-1 1.57 3.56 3.56 0 01-2.23 1.37c-2.25-.16-1-6.83-6.14-8.1-.18-3.47-3.49-6.18-6.15-8.1-1.65 1.07.33 1.94.84 2.79a16.33 16.33 0 001.4 2.52c1 1.13 2.43 2 3.07 3.63.27.7.09 1.8.28 2.51a17.7 17.7 0 003.05 6.09c1.76 2.35.48 4.72 1.59 5 1.27.33 2-5.44 5.13-5.79.42 1.25-.31 4.08-.83 5-.4.54-1.36.51-2 .84-.19 1.41.1 2.33.84 2.79-.28 3-1.42 2.67-2.17 5.55a18.62 18.62 0 01-.78 2.24c-1.47 2.93-6.73 8.86-8.13 8.72zm-1.92-49.91a3 3 0 00-1.18-2.56 1.85 1.85 0 00-.34-.2 10.68 10.68 0 01-3.62-3.55c-.6-.76-1.9 1.22-1.34 2.66l.2.37c.75 1.21 2.31 2.74 2.83 4.87.67 2.21 3 1.37 6.48 6.4a55 55 0 005.53 7.57c.72-3.15-1.82-5.44-3.35-7.26-1.06-1.23 1.25-1-1.09-2.5a25.82 25.82 0 01-3.09-2.58c-1.75-1.56-4.9-4.51-2.33-3.87a4.63 4.63 0 011.29.65zm15-19.92c-1-.05-.55 1.32-1.67 1.13-1 0-2.25-.2-2.24.83 1.35 1.9 5.23 3.66 8.1 2.24.01-2.83-2.66-2.96-4.22-4.2zm14.5 2.56c-.13.88.75.74.83 1.4a5.26 5.26 0 003.92-2c.34-4.4-4.33-.94-4.75.6zm-4.8 112h-1.28s-2.11-2.15-2.26-1.51a2.36 2.36 0 01-1.45 1.8h-8.69c-3.87 0-4.61-2.11-5-3.43-.27-.82-2.91-9.9-2.91-9.9a7.11 7.11 0 00.59-2.35c0-1-2.32-1.8-2.32-1.8l-.73-2.83a2.55 2.55 0 001.51-2.24c-.13-1.79-3.57-2.13-3.57-2.13s-1.34-4.14-2-6.51c-.36-1.27.17-2.81 2.09-4.36 0 0 1.59 1.44 3 .52s-.16-3.28-.23-3.64 5.33-3.29 7.21-4.23c.2-.11.82.14.82.41a27.82 27.82 0 01-.28 3.23 4.45 4.45 0 00-1.73-.81c-.77-.07-2.35 1.69-2.64 3.93s3.78.07 3.78.07a57.77 57.77 0 01-.59 6.18c-1.91 2.31-.84 3 .81 3.49-.44 12 4.19 20.8 3.82 21-1.09.68-.79 1.08 0 1a29.36 29.36 0 019.13.33 3.92 3.92 0 012.92 3.78zm-25.15-27.7c.74.8 3.33 1.48 4.2.67s1.54-2.25.54-3.32A4.82 4.82 0 00294 99c-2.61 0-2.11 3.49-1.37 4.3zM129.9 82.88c2-1.13 6.46-.56 4.2-3.41 2.6-2.19 4.41-3.9 7.11-6.49.32 1.25 2.4 2.82 3.79 4-.72.53-1.44 1.06-2.17 1.57-2.18-.58-4.31-2-4.56-1.42-.54.55.43 3.4.89 5-1 .82-2 1.64-3 2.42 0 0-.63.57-1.77 1.41a6.49 6.49 0 00-3.62-.63c-1.55.43-2.25 3.26-2.45 4.29a31.06 31.06 0 01-9.68 2.93 3.61 3.61 0 00-4.76.43c-1.44 0-1.89-1.1-2.68-1.39-2.57-1-2.64-2-.93-1.46 2.41.81 6.13.38 9.88-1.07 3.74 3.33 6.17-3.48 6.17-3.48zm18-16.51c.4 1.09 2.13 4.21 4 5.14q-1.95 1.63-4 3.26c1-3.87-2.86-4.26-4.16-4.21l4.15-4.19zm8.35 1.42c-.19-2.31-1.55-6.12-4.74-5.11l4.64-4.77c.64 1.08-.34 6.6 4.27 6.09-1.27 1.18-2.67 2.46-4.18 3.79zm27.52-29.27a2.65 2.65 0 01-4.47 1.67c.28-1.71 2.63-2.39 4.46-1.67zm30.58 56.6s-.75 1.14 0 1.87a3.23 3.23 0 002.16 1c.49 0 4.64-1.43 4.64-2.33s-1-1.53-1.86-1.77-4.95 1.23-4.95 1.23zm-6.76 6.6s-1.63 1.06-1.63 1.65 1.9 2 2.53 2.36 2-.3 2.64-1.35 1.08-2.46-.06-2.95-3.49.29-3.49.29zM227 126.89c2.61-.07 5.68-.07 7.68.65a4.14 4.14 0 012.47 3.45c.17.65-2.24.25-2.24.25s-1.49-2.31-2.55-1.65c-.23.14-.21 1.65-1.2 1.65-.73 0-6.81.08-10 .06a3.68 3.68 0 01-3.72-2.46c-1-1.91-6.55-13.11-10.32-17.59 1-.92 1.44-2.15.76-2.85s-3.42-.22-3.42-.22c-.94-1.38-1.88-2.61-2.49-3.38-.79-1-.07-1.37.21-1.64a35.29 35.29 0 004.62-5.64c.16 0 .85 2 1.79 1.83s2.52-3 2.52-3.29-.17-.85-1-1.61-1.35-1.34-1.32-1.61a14.17 14.17 0 00.57-1.46c.54-2.21 1.79-2.49 2.19-1.64.17.34 1.9 3.36 3.78 3a15.07 15.07 0 005.43-2c1.06-.82 4.88.41 6.89 1a1.86 1.86 0 011.31 2.79 9.64 9.64 0 01-2.47 1.73c-.4 0-2.06-1.75-3-.91s-.08 2.22-.4 2.62a14.45 14.45 0 01-3.29 2.55c-.57.09-4.43-.18-4.76 1.15s1.47 1.9 1.47 2.3-1.63 2.31-1.39 3.29 1.31 4 1.15 4.53-1.8 2.3-1.23 3.2 2.88.65 3.12 1.23c.13.3 2 6.1 4 9 1 1.44-1.29 2.17.23 2a39.42 39.42 0 013.94-.35zm-.73 0z" fill="#ffd600"/><path d="M314.65 42.1a15.72 15.72 0 01-.69 2.79c-.31.54.85 1.4 1.32 1.4s3.56-.31 4.33-.23 2.57.16 2.79-.24 0-3.09-.7-3.72a19.88 19.88 0 01-1.19 2.28s-.1-.17-.48-.2-2.7-.06-3.1 0a1.47 1.47 0 00-.73.29 5.41 5.41 0 00-1.55-2.37z" fill="#fff" fill-rule="evenodd"/><path d="M287.2 38.77c-.35-.8-2-1.72-2.14-3-.19-2 1.68-.71 2.08.13s.92 3.04.06 2.87zm-16.08 56.85c-.69-.64 0-1.83 1.24-2.1s2.24 1.29 1.8 2.49-2.33.26-3.04-.39zm-4.95 4c-.73-1.37.81-4.14 2.24-3.94s3.71 3.33 1.29 4.9-2.8.42-3.53-.95zm0 10a1.3 1.3 0 011.77 0c2.55 2.79-4.83 4.38-1.75.05zm32.52-32.56a9.25 9.25 0 00-1.29.23c-2.12 1-3.07-5.25-.92-5.31.79 1.2 2.52 3.12 2.23 5.13zm-2.28-16.65c3.95 1.16 2 6.31 4 6.2s1.1 7.1.89 6.7c-.65-1.25-2.71-1-2.94-2a8.58 8.58 0 01.42-3c-1.59-1.61-.78-3.56-2.35-7.85zM277 47.34c-.18-1.14-2.52-1.79-2.08-2.64.72-1.41 4 .24 3.75 2.08-.15 1.22-1.39 2.22-1.67.56zm-6.07-3.18c-.09 1.66 1.62 2.42 1.58 4-4.51.69-3.77-3.85-1.57-4zm16.77 26.37c-1.12 0-1.57-1.18-1.14-2.52s3.77 1.31 1.15 2.52zm-15.82 10.22c.35 1 .21 3-.53 3.64-1.18 1-2.44-.28-2.82-1.12-.7-1.53 1.52-3.43 3.35-2.52zm20-29.61s-2.8-.72-2.39-2.31a3.88 3.88 0 01-.81-3.26 2.47 2.47 0 012.57 3.43c-.25.65 1.5 1.23.61 2.14zM145.6 103.5a3.8 3.8 0 012.73-1.37c1.66 0 2.63 1 2.63 1.66s-2.68 2.87-3.61 2.68-1.75-2.97-1.75-2.97zm122.56 4.17c-2.68.57-3.46-1.7-4.46-3.07 2.23-2.66 7.3.09 4.46 3.07zm-106.1-10.18c-1.73 2.08-5.13 2-5.23-1.27-.09-2.96 7.59-1.55 5.23 1.27zm8.55-1.77c-2-.89-3.65-1.48-4.19-2.8-1.1-2.69 1.47-6.17 3.91-6.15 4.87.07 2.51 7.06.28 8.95zm93.09-7.44c1 .53 1.57-1.58 1.94-2.78s2.07.55 2.27 1.39c.3 1.29-2.5 3.33-3.8 3.26-4.58-.23-7.77-5.18-4.89-6.36 2.14-.87 2.31 3.31 4.48 4.49zm-7.32-6.47c.35 1 .21 3-.53 3.63-1.18 1-2.44-.28-2.82-1.12-.7-1.53 1.52-3.43 3.35-2.51zm-71.78-.28c-.22 1.52 1.72 1.58.28 3.63a1.4 1.4 0 00-.88.84c-2.66.2-4.68-1.49-4.47-3.36.28-2.16 3.15-2.64 5.07-1.11zm81.84 1.15c-1.23 1.51-3.23-.23-5-.56.33-1.63-.7-1.9-.55-3.35 1.94-1.56 5.11 1.28 5.55 3.91zm-90.22-2.27a6.25 6.25 0 00-.56 2.52c1.56.59 4 2.15 2 3.9-1.38-.2-2.58-.58-3.92-.83.89-1-.48-2.5-2.23-1.68a2.48 2.48 0 00-1.12-1.12c-.98-5.2 3.98-6.05 5.83-2.79zm13.13-3.07c.41 2.34-1.27 3.55-2.8 3.07-1.28-1.41.64-4.25 2.8-3.07zm84.32-3.85c.85 1.77 2.06 4.9 0 6.15-2.15-.73-3.43-5.84 0-6.15zm-5.12-1.08c.33 1.25 1.43 1.74 1.4 3.36a4.64 4.64 0 00-.84 1.11c-3.24 1.12-4.11-5.26-.56-4.47zM280 78.26c-1.49.08-1.76-1.25-2.24-2.79-.38-1.26-2.17-3.27-.27-3.92 1.62-.55 4.75 5.2 2.51 6.71zm-94.35-4.42c.71 4.36-3.67 6.27-6.43 3.91-.56-1.57 1.48-2.75 1.68-4.46 2.3-.19 3.24-.77 4.74.55zm71.44-.51c1.9.36 3 3.47 1.67 5.3-3 .81-2.58-4-1.68-5.3zm-11.59-2.14c1.1.5.19 1.85.26 2.8-1.68 1.14-5.25.54-5.58-1.4a4.6 4.6 0 00-2.51 3.07c.7 1.26-.61 4.13 3.62 4.51-1.58 2.65-5.88-.28-7.54-2 .66-2-1.48-2.76-.83-5.59a11.6 11.6 0 014.18-2.52c1.09-.44 1.3 1.33 2.24 1.68 1.17 0 1-1.45 1.69-2 1.58-1.09 3.14.84 4.47 1.45zm17.87 0c.86.44.44-1.41 1.39-1.4a1.24 1.24 0 011.1 2c-.48.93-.95.33-2.21.28-1.88-.08 1.31 4.27-.56 5-1.85-.57-2.72-3-3.1-4.75-.54-2.56 1-2.77 1.67-2.34s1.19.94 1.71 1.21zm18.71-2.79h.55c1.57 1.63 4.07 3.73 3.36 6.7-2.92-.49-4.38-3.74-3.91-6.7zm-10-1.91c1.17.75 2.81 2.34 2.24 3.91-1.33.67-2.33-1.14-3.36-1.67.04-1.09-.38-2.58 1.04-2.24zm-21 .79c.76 1.78 0 4.27-1.12 5-2.26-1.03-2.12-5.23 1.12-5zm16.18 1c-1.12 0-1.57-1.18-1.14-2.51s3.76 1.23 1.14 2.46zM281 66.73a14.74 14.74 0 01-2.64 2.72c-1.58 1.2-2.34-3-2.07-5.3a3.16 3.16 0 014.71 2.58zm-87.41-.84c-3.2 1.22-2.12 6.34.83 6.13 1.76-.11 3.33-2.87 2-5-1.84.43-1.94-.78-2.88-1.13zm2-2.52a11.26 11.26 0 011.68 2.79c1 .2 1.2-.47 2.23-.27 4.18 4.65-3 6.51-4.75 9.49-1.67-.1-3.6.07-3.35-1.95-1 0-1.25.8-2.23.84-2.77-3.94.92-9 3.35-11.17a4.13 4.13 0 002.97.27zm-.76 6.57c-.38.47-.61.33-1.13.28-.4-.87 0-1.9 1.4-1.68.13.79.06.87-.37 1.4zm90.47-3.71a2.8 2.8 0 01-2.62-1.79c-.83-1.81 1.35-1.2 2-.55s1.38 2.21.52 2.34zm-20.71-3.72c-1.22 1.9.1 4.62-2 5.59-3.88-.76-.31-10 1.9-5.59zm23.95.52c-2.78.53-3.74-5.48-.84-4.75.44.14 2.05 3.94.74 4.72zm-45.09-.4c1 2.23 1.32-1 2.71-.65.81.21.94.72 1.66.83.5 6.19-9.36 3.7-8.1-1.39 1.45-1.31 3.01-.2 3.63 1.21zm30.27-1a2.46 2.46 0 01-2.79.55c-.81-.26.29 1.35 0 2.52-2 0-2.72-2-2.52-3.35.23-1.47 2.39-2.16 2.79-3.07a3.76 3.76 0 012.42 3.39zm3.71-3.09c.53.75 1.67 2 1.13 3.2-2.01.98-4.32-3.11-1.23-3.16zm16.48 12.61c-1.81-1.19-1-4-1.39-6.7-.47-3-2.58-5.32-1.13-7.26h.84c1.45 3.81 5.22 10.03 1.58 14zm-44.69-10c-1.06.12-1.31-.55-2-.84.32-1.6 1-4.1 2.8-3.35.4 1.28.53 3.93-.9 4.18zm-4.19-4.47c0 .37.51.74 0 1.12s-.74 0-1.12 0c-.23-.88.14-1.26 1.02-1.13zm-15.48 3.54a1.59 1.59 0 01-1.95-.84c-.04-2.69 3.18-1.38 1.85.83zm53-3.72c1.34-1.5.76 4.67.35 4.82-1.28.45-3.3-2.26-3.05-3.08s1.09.42 2 .28c.92-.16-.14-1.22.59-2.03zM187.39 60c-.51-2.33-2.11-.62-5-.84-.74.58-.91 1.71-1.12 2.8 2.46 1.36-.57 3.58.56 6.14 3.11.23 2.35-3.42 4.46-4.19-.83-1.78 1.43-2.4 1.1-3.91zm2.24-2.79a18.5 18.5 0 00.28 4.19 11.11 11.11 0 01-2.8 3.63c.18 1.39-.67 3.15-1.12 4.74a5.87 5.87 0 01-7.54.29c.74-1.09-.56-2.23-.56-3.64 0-.76.58-1.66.56-2.51 0-2.08-1.31-4.08.84-5.31 2.68 0 4.37-3.46 7-3.35 1.3.08 1.99 1.16 3.34 1.98zm26 3.07c-.86-1.47-3.27-1.38-5-1.95-.86 1.83-2.66 3.25-2.51 5.58.11 1.64 1.84 3.68 2.23 5 2.48-.54 3.74-.32 6.43-.28 1.78-2.48-.27-5.56-1.18-8.33zm6.73 7.26c.26 1.71-4 2.1-6.1 3.08-2.6 1.22-4.26 3-5.38 2.79-1.33-.24-1.76-2-2.79-2.8s-2.07-.27-2.79-1.39c-.93-2.78-.54-6.86 1.11-8.66-.66-2.13.73-3.2 2-4.19.86-.21.54.77 1.4.56 1.76-.87 3.85-3.35 6.42-1.68 1.5 3.35 2.24 7.45 5.31 9.22-.2 1.45.62 1.96.79 3.09zm-9-2c-1.28.78-2.81-.27-3.35-1.12.58-.98 4.09-.86 3.36 1.19zm81-11.17c2-.27 3.32 2.63 1.95 3.91-1.58-.17-2.31-2.56-1.94-3.84zm-28 3.76c-.13-.25-.25-.5-.56-.55-.38-3.24 3.88-4.37 4.19-2 .15 1.42-1.47 2.71-3.65 2.62zm25.46-2.66c-.47.49-.94-.25-2 0a6.54 6.54 0 01-.56-3.07c1.81-1.69 3.55 1.32 2.54 3.14zm-65.58-3.06c-.28 2.33-1.5 4.24-1.12 6.14.42 2.07 2.45 2.48 3.07 4.48a5.58 5.58 0 014.19 1.39c1.36-1.14 1.82-4 .56-5.31.26-2.54.17-5.41 1.4-7 2.17.39 2 4.59.55 5.59-.68 3.91 2.78 5 2.24 7.82a7.09 7.09 0 01-2.79.28c-.32.59-.11.81-.57 1.67-2.38.87-6.93.14-7-3.07-1.46-.5-2.82-1.09-2.52-3.35-1.8-1.08-2.4-3.38-3.35-5.31.91-1.74 3.3-5.18 5.32-3.26zm50.65 0c-1.11.45-2.37-2.13-2.77-2.78.17-2.85 4.26.86 2.75 2.84zm-3.8-.15c.57-.89 1.92 3.44.35 4.17-1.87.12-1.53-2.26-.37-4.11zm12.25-1.92c2.58.44 2.38 4.9-.28 5a7.13 7.13 0 01.26-4.94zm-25.69 1.31c.83.86-.69 2.35-1.68 1.39a1.52 1.52 0 011.66-1.33zm-10.51 3.56c-3.86.06-3.13-5.89.28-4.75.82 1.28 1.27 4.04-.3 4.81zm16.76-3.07c-.51 3.93-6.21 11.36-8.78 8.57 0-2.09 3.13-4.1 4.33-4.94 1.36-.95.13-3.36 0-5 1.38-1.77 3.55.23 4.43 1.43zm-20.95-1.11c-.58 2-1.85 3.3-3.91 3.06-.3 1.6 1 1.64 1.11 2.8a2.17 2.17 0 01-3.34 1.67c-.9-2.11.72-3.52-.28-5.31 1.04-1.9 4.57-5.11 6.4-2.16zm-45.53-.84c-.1 1.86 1.52 2 1.4 3.9A3.23 3.23 0 01203 58.9c-.15.34-.74.75-.84 1.4s.49 1.46.28 2c-.38.92-1.35 2.1-1.37 2.61-3-1.79-1.13-5.2-.58-6.24.17-1.65-.67-2.66.28-3.62-1.3-.47-3.3-.24-4.47-.85-.88.52-.82 2-.84 3.36 1 .78 2.3 3.46.27 4.2-1.55-.41-2.13-2.56-3.9-2.25.26-3 .75-5.77 3.35-6.42.34-1.63 1.78-2.13 2.51-3.35.85-.13.89.58 1.71.51zm71 1.67c-.92.89-2.43.31-3.08-.56-.02-2.39 3.78-2.54 3.08.62zm-43.09 1.39c-2.93-4.42 5.8-5.26 5.87-2.22.04 2.16-4.1 1.54-5.87 2.28zm30.45-4.46c.32 2.83-1.22 3.81-2 5.59.41 1.48 1.78 2.72.28 3.91-1.67-.29-2.21-1.7-3.07-2.8a5.42 5.42 0 011.12-1.95c-2.11-2.14 1.4-6.9 3.67-4.69zm24.06-2.44c2.19.64 2.05 5.22.83 6.42-.33.33-.69-.23-1.39-.26s.66 1.89-.26 2.49c-1.11.47-2.1-.61-2.22-2-.14-1.54 1.54-1.94 1.66-3.64.09-1.15-.03-3.36 1.38-2.95zm-88.3-.91c.2 1.41-.7 1.73-1.12 2.51-.57-.08-.75-.56-1.12-.84.31-1.02 1.06-2.21 2.24-1.61zm86.52-4c1.13.45 1.92 2.41.56 3.07a1.92 1.92 0 01-.56-2.96zm-72.84 2.66c-.17 1-.86 1.56-2.23 1.4-1.05-1.5 1.29-2.7 2.23-1.4zm19 0a5.24 5.24 0 01-2 4.47 2.1 2.1 0 01-1.95-.56c.42-2.01 2.02-6.01 3.95-3.91zm27.09-.84c.15 3.25-3.23 5.41-5.59 3.64.19-2.73 3.56-4.54 5.59-3.64zm13.05-2.11c1.43.19.33 9.29-2.67 6.55a7.52 7.52 0 00.33-3.94c-.25-1.16 1.49-1.86 2.34-2.61zm-21.43-.4c.84 1-.39 1.68-.28 2.79 3.57 3.18-2.57 6-3.63 2 .79-2.14.98-4.83 3.91-4.79zm-37.15-.28c.07 1-.8 1.64-1.38 1.4-.4-.16 0-2.11 1.38-1.4zm-8.66 0c.11 3.89-.5 7.59-4.47 8.1-.78 4.75-4.77 4.54-9.21 3.91-1.07-3.15-.72-7.81 1.66-9.48 1.48-1 2.28-.14 2.82 0 1.32.3 1.76-1.95 3.89-1.67.68 2.25-1.83 4.67-4.18 3.91-3.35 1-2.08 5.75 1.67 4.74 3.12-.83 5.14-6.05 6.15-6.42-.46-.85-2-.58-2.8-1.12.42-1.62 2.81-3.38 4.47-1.97zm89.38-.84h.56c1.64.45 2.51 3 2.23 4.47-2.49.22-3.15-2.74-2.79-4.47zM276.08 39c1.5.85 1 3.48-.94 3.85-1.24-.79-1-3.61.94-3.85zm-26.1.65a2.18 2.18 0 01-3.07 1.12c-.23-1.77 2.25-2.18 3.09-1.16zm-15.11-.82c1.13-.27 1.13 1.67 0 1.4-.52-.57-.03-.74 0-1.44zm37.92-1.88c2 .54-1 2.47-1 3.36s1.07 1.85.28 2.52-2.91-.4-2.8-1.68 1-1.58 2-2c-.33-1.15.53-2.51 1.52-2.24zm12 4.33c1.69 1.77 1.26 3.48 1 5.18-2.99.14-1.98-4.84-.96-5.22zm-25.89-3.61c.53.68.26 2.34 0 3.08 1.08 1.37 4.14 4 1.39 5.86-1.61-.8-2.37-2.46-4.19-3.07-.26-2.16.36-6.49 2.8-5.87zm-43.9.56c-.26 2.54-2 3.57-3.34 5 .55 3 3 6.06.83 8.66a3.27 3.27 0 01-2.79-.83c.3-1.66 1.5-2.41 1.4-4.48-.21-.73-1.32-.55-1.68-1.11.51-1.29 1.14-2 .28-3.35.63-1.23 2.07-1.66 2.8-2.8s-2.72.72-3.36-.56c.34-2.19 4.72-1.42 5.86-.53zm9.22 3.08c-1.55.33-1.62-.8-2.79-.84-2.47 1.09-3.34 4.81-2.51 7 .59 1.59 2.53.82 2.79 2.24-.79 2.41-3.09.29-5 1.4a13.73 13.73 0 011.68-12c1.86-2.49 6.61-2.36 5.87 2.2zM279 36.05c.05 1.27-.83 1.59-2 1.68-2-1.44 1.15-3.92 2-1.68zm-10.4 2.46c-2.27.57-2.77-3.51-.28-3.07a2.28 2.28 0 01.29 3.07zm-29-1.67a6.19 6.19 0 00.28 2.51c-2.4 2-1.21 6.31-2.79 8.66-4 .65-3.38-3.74-.84-4.19-.36-3.08 2.55-3.58.56-6.15-1.05-.11-2.07-.1-2.79-1.11.62-2.26 4.63-.56 5.6.28zm-6.7-.84c-.13 2.4-3.63-.29-4.19 1.67.13 1.46 2.35.82 3.35 1.4a4.94 4.94 0 001.12 5.59c-.16 1-.48 1.81-1.41 2-1.56.25-5.1-1.56-1.94-4.46-2.16-.16-1.79-2.83-3.07-4.19-.62-.65-2.49-1.1-2.52-1.68 0-1 2.23-2.43 3.91-1.12 1.66.17 4.37-.67 4.77.79zm-24.23-1.16c-.1 1.23-1.56 1.53-2.51 1.12a1.6 1.6 0 012.53-1.12zm67.05-4.36c1.39 0-.38 1.71-.46 2.66a2.17 2.17 0 01-.74 1.74c-1.51-.2-1.48-2.18-.15-3-.01-.88.96-1.13 1.37-1.4zM263.92 34c-.15.41.33 1.44-.28 1.4 1.52.35 1.3 2.43 1.68 3.91-.58.82-1.64.35-2.52 0 .06-.87-.18-2.05.29-2.51-1.12-.51-2 .4-3.08-.28.42-1.52 1.79-3.52 3.91-2.52zM280 32c.24 0 .33.22.6.17 2.27-.56 4.56 7.36 1.36 7.7-1.14-.82-.77-2.56-.36-3.62-.6-1.25-2.32-2.36-1.6-4.25zm-9.82 2.17c-1.06-1.43.82-3.56 2-2.79-.34 1.3-.42 2.8-2.03 2.77zM264 93.82a1.35 1.35 0 011-2.28 1.78 1.78 0 011.37 2.22c-.37.84-1.55 1.24-2.37.06zm19.41-62.47c.3-.8 1.71-.42 2-.11s.24 2.31-.28 2.57c-.78.37-2.13-1.47-1.74-2.46zm-52.56 44.54c-1.3.94-5.34 3.14-7.64 2.26s-4.26-6.25-2.4-6.3c2.77-.08 2.39 1.15 2.39 1.15s-1.58 2.18 1.17 2.21 5.82-2.69 6.48.68zm-.77-3c-.42-.33-9.51-1.37-3.18-3.59a2.46 2.46 0 012.1.2 3 3 0 011.28 1.5 2 2 0 01-.2 1.85z" fill="#231f20"/><g fill="#231f20"><path d="M16.79 145.1H30l16.8 40.14H32.34l-2.11-5.35H16.28l-2.05 5.35H0zm10.14 25.33l-3.65-9.67-3.64 9.67z"/><path d="M46.39 145.38h19.47a26.58 26.58 0 018.8 1.23 14.69 14.69 0 015.55 3.32 12.47 12.47 0 012.73 4.1 14.4 14.4 0 01.91 5.36v.12a12.54 12.54 0 01-2.11 7.39 14.58 14.58 0 01-5.74 4.79l9.28 13.55H70.07l-7.51-11.39h-2.85v11.39H46.39zm19.07 19a6.15 6.15 0 003.76-1 3.37 3.37 0 001.37-2.85v-.11a3.27 3.27 0 00-1.37-2.88 6.5 6.5 0 00-3.7-.94h-5.81v7.8z"/><path d="M106.13 186.09a25.3 25.3 0 01-8.74-1.48 21.53 21.53 0 01-7.12-4.21 19.55 19.55 0 01-4.78-6.55 20 20 0 01-1.74-8.42v-.12a20.37 20.37 0 011.66-8.25 19.6 19.6 0 014.59-6.61 21.49 21.49 0 017-4.36 23.94 23.94 0 018.74-1.56 25.71 25.71 0 019.31 1.59 24.7 24.7 0 017.37 4.44l-7.45 9a17 17 0 00-4.17-2.56 11.86 11.86 0 00-4.67-.91 9.06 9.06 0 00-3.59.71 8.49 8.49 0 00-2.84 2 8.68 8.68 0 00-1.85 3 10.39 10.39 0 00-.66 3.76v.12a10.37 10.37 0 00.71 3.87 8.93 8.93 0 002 3 8.56 8.56 0 003 1.93 10.26 10.26 0 003.84.68 13.25 13.25 0 002.73-.22 6.75 6.75 0 001.83-.69v-4h-6.84v-8.49h19.3v18.41a26.19 26.19 0 01-7.68 4.31 28.3 28.3 0 01-9.95 1.61zm20.53-40.71h34v10.93h-20.9v4.05h19.48V170h-19.49v4.32h21.18v10.94h-34.27zm37.19 0h12.47L190.5 163v-17.6h13.2v39.86h-11.84l-14.8-18.39v18.39h-13.21zM218 156.66h-11.73v-11.28H243v11.28h-11.68v28.58H218zm27.66-11.28H259v39.86h-13.34zm15.95 0h12.46L288.25 163v-17.6h13.21v39.86h-11.84l-14.81-18.39v18.39h-13.2z"/><path d="M317.81 145.1H331l16.8 40.14h-14.44l-2.11-5.35H317.3l-2.05 5.35H301zM328 170.43l-3.65-9.67-3.64 9.67zm42.08-5.43l-12.92-19.59h15.14l5.75 9.51 5.81-9.51h14.86l-12.93 19.47 13.5 20.39h-15.15l-6.32-10.36-6.37 10.36h-14.86z"/><path d="M397.21 145.38h14.92l7.74 22.38 7.75-22.38h14.69l-16.17 40.14h-12.76z"/></g></g></g></svg>