<?xml version="1.0" encoding="utf-8"?>
<!-- Generator: Adobe Illustrator 15.1.0, SVG Export Plug-In  -->
<!DOCTYPE svg PUBLIC "-//W3C//DTD SVG 1.1//EN" "http://www.w3.org/Graphics/SVG/1.1/DTD/svg11.dtd" [
	<!ENTITY ns_flows "http://ns.adobe.com/Flows/1.0/">
]>
<svg version="1.1"
	 xmlns="http://www.w3.org/2000/svg" xmlns:xlink="http://www.w3.org/1999/xlink" xmlns:a="http://ns.adobe.com/AdobeSVGViewerExtensions/3.0/"
	 x="0px" y="0px" width="1000px" height="1000px" viewBox="-60.155 0 1000 1000"
	 overflow="visible" enable-background="new -60.155 0 1000 1000" xml:space="preserve">
<defs>
</defs>
<path fill-rule="evenodd" clip-rule="evenodd" fill="#D59F0F" d="M186.252,62.338c66.955-2.052,129.035-16.928,174.447-31.556
	C405.846,16.671,439.967,0,439.967,0s39.769,18.471,90.824,33.859c51.563,15.394,120.315,30.021,190.095,28.479
	c86.705-1.795,158.805-26.422,158.805-26.422l-16.433,462.032c0,3.329-0.257,30.787-6.154,69.522
	c-6.411,40.782-19.234,94.402-45.409,144.435c-85.432,162.906-256.281,245.767-364.808,286.291l-4.611,1.805
	c0,0-68.754-22.057-146.229-66.448c-76.962-44.376-168.29-112.875-221.393-209.858C27.19,636.736,22.577,548.739,22.577,530.272
	C22.577,512.832,0,35.916,0,35.916l18.214,4.875C18.214,40.79,108.773,64.906,186.252,62.338z"/>
<path fill-rule="evenodd" clip-rule="evenodd" fill="#FFFFFF" d="M14.62,54.129c0,0,92.354,24.627,171.884,22.062
	c137.76-4.617,253.721-60.797,253.721-60.797s137.514,64.132,280.918,60.797c89.528-2.057,143.92-20.779,143.92-20.779
	l-15.655,442.276c0,0,0.771,111.34-50.021,207.793c-82.859,158.29-249.36,239.624-357.367,279.891
	c0,0-252.692-81.065-355.311-268.337C40.785,632.89,36.167,547.454,36.167,530.272C36.167,512.832,14.62,54.129,14.62,54.129z"/>
<path fill-rule="evenodd" clip-rule="evenodd" fill="#005DAA" d="M608.835,455.224c-4.81-2.667-11.039-3.602-18.173-4.084
	c-6.363-11.856-7.017-33.913-3.042-49.93C593.534,420.045,601.107,437.185,608.835,455.224z M409.885,487.171H270.933
	c-0.731-4.341-1.336-8.642-1.941-13.075c-1.768-13.021-4.499-12.426-11.677-20.037c-2.582-6.792,0.731-19.542,3.107-23.455
	c10.538-17.386,50.99-18.412,69.233-24.689c25.056-8.621,30.361-21.66,46.553-37.857c3.484-0.153,5.064,0.543,5.823,1.224
	c0.607,24.906-35.466,29.721-17.188,49.41C387.03,442.6,399.416,456.617,409.885,487.171z M539.768,487.171h-55.489
	c-0.021-14.344-0.16-30.257-18.591-32.266c-20.525-2.228-21.816,6.2-27.544-15.988c-3.958-15.334-9.566-22.25,6.467-31.296
	c15.223-8.588,17.906-12.892,29.062-24.506c9.969,2.225,19.679,5.327,29.876,6.371c11.527,17.922,16.149,40.677,22.78,60.686
	c2.619,7.911,6.582,14.968,8.564,21.381C536.914,478.114,536.48,482.875,539.768,487.171z M820.36,109.868l-13.534,377.303H690.297
	c4.676-12.215-0.824-26.357-11.328-29.925c-0.595-0.204-9.411-1.532-18.2-5.029c-15.271-20.086-6.385-65.519-5.988-89.48
	c5.072-7.616,8.822-17.228,10.664-26.542c1.001-5.062,2.271-21.76,3.24-35.994c0.713-10.554,1.028-19.753,2.11-21.85
	c1.494-0.327,6.294,1.823,8.441,1.62c6.513,0.139,12.475-5.991,17.086-10.835c4.168-4.384,6.589-8.406,6.775-13.843
	c0.129-4.012-1.934-7.986-5.062-11.46c0-0.069,0.327-0.554,0.493-1.09c9.293-2.994,11.157-3.498,18.371-11.995
	c0.359-2.919,0.478-5.736,0-8.655l-0.235-1.412c18.312-15.147-0.686-28.083,0.713-44.132c1.21-2.863,3.09-5.423,4.579-8.144
	c10.975-17.287-4.767-26.858-12.427-21.291c-5.65,4.119-11.633,5.268-18.018,7.785c-5.351,0.391-11.451-1.176-16.684-2.172
	c-21.913-4.17-21.297-1.762-38.806,1.952c-6.519,1.382-15.753-16.968-32.223-13.262c-7.622,1.714-14.033,13.407-14.649,17.924
	c-0.889,6.604,5.057,22.592,7.038,29.365c-6.577,8.123-3.449,8.259-16.272,8.84c-22.592,1.031-42.865,8.417-64.509,14.17
	c-9.491,2.523-12.56,3.417-15.656,3.573c-3.048,0.147-6.144-0.431-15.484-0.897c-47.967-2.394-112.077-11.114-156.713,8.76
	c-19.917,6.851-33.36,15.254-47.584,28.845c-23.476,22.429-92.977,102.265-123.333,105.704
	c-14.641,1.655-21.028-3.877-21.559-11.979c4.347-10.985,8.514-33.409-12.399-35.171c-38.146-3.222-48.591,100.545,48.222,84.806
	c38.607-6.277,82.053-43.205,110.744-70.222c-8.358,22.911-19.03,41.009-44.02,46.593c-29.108,6.51-36.194,51.461-37.729,76.196
	c-0.265,4.216,0.461,8.53,0.024,12.638c-1.253,11.768-6.532,16.588-2.365,26.606H77.458c-3.726-87.458-12.802-284.01-17.301-379.411
	l3.152,0.531c25.862,4.678,76.373,12.303,124.627,10.835c60.695-2.116,124.581-13.583,189.896-34.087
	c27.522-8.754,48.92-17.171,62.675-22.975c11.001,4.427,38.832,15.46,74.23,26.071c50.771,15.166,127.942,32.849,207.277,30.996
	C764.523,118.101,798.089,113.74,820.36,109.868z"/>
<path fill-rule="evenodd" clip-rule="evenodd" fill="#005DAA" d="M441.449,939.754c124.42-48.703,218.157-113.084,279.743-191.942
	H158.614C247.133,859.824,392.043,921.265,441.449,939.754z"/>
<path fill="#1D1D1B" d="M670.903,248.97c0,0-0.991,5.769-1.784,7.161c-0.792,1.393,2.19,3.575,3.381,3.575
	c1.199,0,9.148-0.795,11.129-0.594c1.993,0.198,6.6,0.417,7.151-0.598c0.675-1.205,0-7.954-1.784-9.544
	c-1.076,2.622-3.048,5.844-3.048,5.844s-0.268-0.431-1.253-0.522c-0.98-0.083-6.915-0.152-7.933-0.104
	c-1.022,0.057-1.875,0.75-1.875,0.75C674.261,251.953,670.903,248.97,670.903,248.97z M692.944,161.528
	c4.654-2.1,9.726-3.071,12.603-4.365c2.876-1.288,6.54-3.656,7.633-4.448c1.087-0.793,5.297-0.338,6.342,2.884
	c1.028,3.195,0.632,4.77-1.849,9.328l-0.729,1.21c-2.094,3.865-5.383,8.447-5.629,11.267c-0.316,3.709,2.356,11.468,3.583,15.769
	c1.538,5.356,4.51,9.901,3.589,15.766c-0.83,5.275-5.013,7.051-7.884,10.038c-0.054,3.631,1.227,5.937,0.712,10.035
	c-2.817,3.318-4.682,5.394-8.603,7.169c-3.926,1.773-8.425,0.723-10.025,5.731c-2.24,7.021,3.92,5.733,4.3,12.903
	c0.214,4.274-2.432,7.724-6.464,11.467c-2.438,2.279-6.775,6.61-10.027,7.169c-4.854,0.838-6.68-2.084-12.186-1.43
	c-5.929,6.347-4.579,16.596-5.019,25.803c-0.203,4.379-1.05,9.095-1.424,13.615c-0.783,8.947-0.505,15.994-2.159,24.376
	c-1.826,9.269-5.688,18.757-10.756,25.803c-0.203,33.318-9.913,73.079,7.456,95.331l0.933,1.114
	c9.304,3.398,19.223,4.633,19.834,4.855c2.19,0.798,8.751,6.757,8.751,13.318c0,6.559-2.587,10.935-2.587,10.935h-3.112h-0.664
	c-15.179,0.059-36.384-0.045-53.903,0c-5.49-8.083-2.18-8.007-8.812-27.354c-2.881-8.388-7.401-16.243-10.749-24.373
	c-6.797-16.527-12.191-32.968-17.35-50.892c-11.467,15.833-13.17,56.199-1.44,73.114c9.743,0.659,16.657,0.742,21.505,5.731
	c5.887,6.061,4.113,16.529,5.014,23.773h-65.935c-6.047-3.369-5.383-10.782-7.177-16.604c-1.981-6.449-7.269-20.466-9.909-28.42
	c-7.171-21.673-9.213-39.15-23.78-57.594c-13.188-0.908-35.116-7.164-35.116-7.164c-6.936,6.344-11.156,14.135-20.074,20.064
	c-3.042,2.032-6.551,3.776-10.029,5.739c-6.982,3.937-13.249,7.252-13.621,18.634c-0.193,5.939,2.437,12.137,4.301,19.352
	c1.516,5.865,3.225,13.634,6.449,16.489c8.273,7.309,25.739,0.471,33.688,6.452c6.004,4.512,5.526,13.272,5.726,23.053h-62.258
	c-8.527-26.928-23.128-48.243-40.95-66.06c-3.16-3.16-9.199-8.235-9.314-11.47c-0.217-5.859,10.956-13.267,14.333-17.919
	c5.128-7.062,8.591-12.284,7.884-23.653c-2.191-4.261-7.07-5.833-14.333-5.019c-13.61,12.847-20.398,29.22-45.875,37.991
	c-27.196,9.355-59.777,6.42-72.396,27.234c-2.897,4.783-7.065,19.518-3.581,28.674c1.505,3.972,6.197,5.107,8.6,9.317
	c3.203,5.616,2.675,12.49,4.301,20.905h-59.445c-4.834-7.729-0.222-16.851,0.665-25.203c0.447-4.191-0.263-8.602,0-12.903
	c0.773-12.402,3.519-27.769,7.169-39.424c3.865-12.322,9.925-23.934,17.921-28.671c4.146-2.456,11.401-2.909,17.201-5.019
	c21.205-7.71,32.582-29.153,40.142-50.894c1.912-5.499,3.444-11.618,4.876-18.029c0.683-3.062-67.967,73.55-123.221,82.527
	c-34.057,5.541-74.729-6.792-66.826-52.418c4.836-27.908,37.268-26.125,26.181,3.166c-5.164,13.629,7.262,26.449,28.012,24.1
	c32.472-3.672,87.629-69.909,126.785-107.316c13.667-13.055,26.419-21.017,45.651-27.603c15.894-7.105,33.99-12.456,67.493-11.944
	c27.978,0.426,57.444,2.124,86.732,3.585c5.537,0.279,11.365,1.808,16.491,1.433c5.003-0.367,10.76-2.78,16.485-4.301
	c5.266-1.403,10.584-2.909,15.77-4.301c10.937-2.938,22.077-7.129,32.254-8.602c10.578-1.529,20.916-0.37,27.226-2.869
	c5.147-2.024,6.363-7.659,10.766-11.47c-1.548-4.384-2.688-9.572-4.301-15.051c-1.388-4.687-4.322-9.641-3.589-15.051
	c0.444-3.297,5.887-11.971,10.027-12.903c6.175-1.387,12.564,2.954,15.773,5.019c4.161,2.676,7.13,7.957,12.19,8.602
	c4.805,0.613,13.22-3.776,20.064-4.301c13.251-1.015,28.746,5,38.714,4.301l0.916-0.07L692.944,161.528z"/>
<path fill="#FFD200" d="M600.448,240.413c2.224,0.424,1.056-4.764-0.134-7.233c-1.033-2.14-5.816-5.428-5.335-0.334
	C595.28,236.016,599.559,238.362,600.448,240.413z M559.21,386.325c1.812,1.655,6.669,4.058,7.789,0.98
	c1.129-3.074-1.409-7.041-4.64-6.366C559.141,381.615,557.406,384.665,559.21,386.325z M546.486,396.606
	c1.874,3.517,2.854,6.516,9.057,2.467c6.213-4.047,0.369-12.06-3.289-12.584C548.584,385.969,544.621,393.093,546.486,396.606z
	 M546.528,422.364c-7.9,11.084,11.045,7.017,4.548,0C550.031,421.239,547.417,421.122,546.528,422.364z M630.008,338.816
	c0.804-5.158-3.695-10.078-5.677-13.026c-5.513,0.128-3.091,16.151,2.351,13.61C627.341,339.143,629.424,338.899,630.008,338.816z
	 M624.132,296.088c3.938,10.999,1.961,16.022,6.203,20.125c0,0-1.623,5.177-1.071,7.786c0.579,2.748,5.87,1.976,7.542,5.201
	c0.514,1.001,2.629-17.491-2.287-17.212C629.366,312.279,634.283,299.077,624.132,296.088z M574.321,262.408
	c0.686,4.146,3.873,1.749,4.269-1.433c0.595-4.711-7.777-8.969-9.619-5.351C567.85,257.815,573.833,259.484,574.321,262.408z
	 M558.734,254.262c-5.629,0.391-7.444,12.019,4.05,10.346C562.875,260.456,558.494,258.533,558.734,254.262z M601.76,321.917
	c6.717-3.117-1.768-10.024-2.913-6.451C597.738,318.883,598.884,321.832,601.76,321.917z M561.15,348.16
	c-4.697-2.333-10.412,2.522-8.617,6.452c0.99,2.15,4.221,5.538,7.24,2.868C561.686,355.785,562.055,350.707,561.15,348.16z
	 M612.429,272.173c2.25-2.349-2.287-3.835-1.596-5.496c1.843-4.379-1.563-9.467-6.62-8.797c-0.669,2.362,0.081,6.167,2.073,8.366
	C605.226,270.312,612.429,272.173,612.429,272.173z M237.066,406.521c0,0,2.083,7.14,4.488,7.641
	c2.402,0.498,9.288-5.273,9.288-6.894c0-1.62-2.491-4.236-6.762-4.236S237.066,406.521,237.066,406.521z M551.6,417.233
	c7.172-7.656-5.731-14.705-11.468-7.884C542.719,412.873,544.744,418.692,551.6,417.233z M279.326,391.122
	c6.036-7.245-13.653-10.87-13.419-3.257C266.158,396.122,274.877,396.454,279.326,391.122z M301.256,386.564
	c5.72-4.842,11.792-22.767-0.715-22.94c-6.261-0.083-12.847,8.859-10.038,15.771C291.886,382.788,296.083,384.269,301.256,386.564z
	 M540.154,367.482c-5.581-3.026-6.016-13.773-11.494-11.529c-7.381,3.023,0.803,15.726,12.555,16.326
	c3.311,0.174,10.525-5.059,9.732-8.372c-0.52-2.137-4.917-6.596-5.827-3.594C544.187,363.431,542.682,368.851,540.154,367.482z
	 M521.375,350.865c-4.697-2.333-10.413,2.522-8.618,6.451c0.99,2.156,4.23,5.544,7.241,2.868
	C521.911,358.492,522.275,353.412,521.375,350.865z M337.156,350.147c-4.93-3.929-12.281-2.686-12.9,2.868
	c-0.541,4.791,4.641,9.121,11.464,8.602c0.399-1.037,1.12-1.749,2.148-2.151C341.567,354.199,336.607,354.036,337.156,350.147z
	 M547.181,353.109c-1.033-6.746-9.266-14.041-14.333-10.032c-0.364,3.707,2.282,4.406,1.43,8.602
	C538.874,352.501,544.027,356.984,547.181,353.109z M315.654,347.279c-4.75-8.375-17.49-6.203-15.056,7.169
	c1.262,0.648,2.218,1.599,2.868,2.868c4.483-2.11,8.002,1.636,5.731,4.301c3.415,0.648,6.505,1.62,10.038,2.15
	c5.174-4.518-1.004-8.498-5.019-10.038C314.173,351.058,314.938,349.197,315.654,347.279z M349.338,339.395
	c-5.527-3.026-10.468,4.184-7.169,7.885C346.09,348.503,350.405,345.391,349.338,339.395z M565.729,329.521
	c-8.8,0.79-5.511,13.917,0,15.771C571.021,342.081,567.931,334.071,565.729,329.521z M552.602,326.757
	c-9.256-2.035-6.888,14.392,1.436,11.47c0.712-0.956,1.178-2.167,2.137-2.868C556.276,331.211,553.454,329.968,552.602,326.757z
	 M581.948,341.754c5.779-3.883-2.25-18.639-6.449-17.206c-4.852,1.666-0.278,6.818,0.713,10.037
	C577.422,338.548,578.134,341.977,581.948,341.754z M339.826,330.418c-3.843-3.388-6.253-1.896-12.183-1.43
	c-0.506,4.414-5.752,7.435-4.301,11.468C330.418,346.505,341.655,341.615,339.826,330.418z M523.159,329.09
	c-2.319,3.35-3.391,15.723,4.302,13.621C530.749,338.034,528.043,330.032,523.159,329.09z M493.454,323.621
	c-3.429-1.585-7.424-6.534-11.494-3.578c-1.805,1.31-1.328,4.901-4.312,5.014c-2.438-0.911-2.952-5.445-5.769-4.304
	c-4.07,1.655-7.938,3.503-10.724,6.454c-1.66,7.285,3.819,9.191,2.153,14.338c4.231,4.411,15.271,11.937,19.331,5.104
	c-10.847-0.978-7.488-8.345-9.294-11.553c0.922-3.856,3.338-6.219,6.449-7.89c0.847,4.981,10.011,6.526,14.333,3.589
	C493.931,328.367,496.244,324.915,493.454,323.621z M539.313,323.621c-1.35-0.68-2.914-2.169-4.413-3.123
	c-1.741-1.114-5.656-0.584-4.248,6.006c0.959,4.532,3.192,10.71,7.928,12.172c4.814-1.953-3.401-13.09,1.436-12.9
	c3.229,0.128,4.45,1.658,5.678-0.723c1.29-2.482,0.187-4.89-2.812-5.011C540.444,319.995,541.53,324.746,539.313,323.621z
	 M587.309,316.458c-1.188,7.6,2.561,15.937,10.038,17.201c1.815-7.635-4.606-13.016-8.598-17.201H587.309z M561.557,311.562
	c-3.733-0.873-2.785,2.954-2.865,5.731c2.63,1.393,5.194,6.006,8.602,4.301C568.75,317.547,564.562,313.469,561.557,311.562z
	 M507.749,313.592c-8.301-0.584-8.649,10.174-2.859,12.903C507.862,324.542,509.72,318.147,507.749,313.592z M549.281,316.026
	c6.716-3.112-1.762-10.019-2.914-6.452C545.258,312.995,546.405,315.946,549.281,316.026z M584.395,312.156
	c-0.7-6.47-6.963-9.32-12.067-6.604c-0.701,6.023,1.27,16.671,5.33,13.61C580.357,317.129,582.415,314.679,584.395,312.156z
	 M365.11,303.554c-3.666,0.694-4.979,0.581-7.887-0.712c-6.224,5.696-15.712,18.559-8.602,28.666c2.53-0.094,3.205-2.046,5.736-2.15
	c-0.658,5.198,4.312,4.767,8.603,5.019c4.459-7.648,22.919-12.42,12.183-24.37c-2.654-0.506-3.077,1.224-5.731,0.718
	C368.211,308.099,366.904,305.582,365.11,303.554z M595.317,310.893c2.238-0.322,0.358-4.053-1.563-5.999
	c-1.688-1.69-7.273-3.241-5.153,1.422C589.907,309.213,592.821,311.259,595.317,310.893z M542.172,301.35
	c-5.666-11.315-14.819,12.397-5.023,14.338C542.425,313.192,539.044,306.229,542.172,301.35z M603.619,302.679
	c3.391-2.081-0.738-11.832-2.137-12.188C594.032,288.608,596.505,304.031,603.619,302.679z M487.92,301.637
	c-1.574-3.607-5.597-6.44-9.561-3.101c-3.24,13.09,22.067,19.478,20.787,3.588c-1.858-0.289-2.206-1.607-4.269-2.15
	C491.311,299.031,490.411,307.371,487.92,301.637z M565.612,299.181c-0.477-4.55-2.897-7.15-6.454-8.602
	c-1.039,2.349-6.588,4.097-7.161,7.887c-0.525,3.364,1.285,8.621,6.438,8.602c0.755-2.997-2.067-7.153,0.021-6.457
	C561.665,301.693,563.641,300.999,565.612,299.181z M575.134,291.254c-7.938,0.128-1.992,10.632,2.904,8.219
	C579.415,296.415,576.5,293.195,575.134,291.254z M617.417,323.626c9.352-10.198-0.338-26.117-4.302-35.841h-2.143
	c-3.743,4.984,1.666,11.047,2.855,18.637C614.92,313.321,612.778,320.573,617.417,323.626z M502.725,297.823
	c3.69-0.646,3.353-7.432,2.164-10.752c-4.511-1.923-6.363,4.483-7.178,8.602C499.367,296.412,500.031,298.14,502.725,297.823z
	 M491.986,286.353c-2.249-0.332-3.208,0.624-2.876,2.868c0.953,0,1.548,0.942,2.876,0
	C493.293,288.276,491.986,287.309,491.986,286.353z M452.249,295.445c3.412-5.768-4.842-9.033-5.013-2.15
	C448.205,294.716,449.228,296.083,452.249,295.445z M588.22,285.903c-1.848,2.064,0.857,4.77-1.858,5.19
	c-2.261,0.354-4.28-3.171-5.035-0.729c-0.643,2.097,4.525,9.044,7.81,7.895C590.197,297.887,591.691,282.052,588.22,285.903z
	 M350.059,287.786c-3.455-2.092-5.214-4.866-8.602-5.016c-6.698-0.297-11.049,8.45-17.922,8.602
	c-5.509,3.155-2.279,8.265-2.15,13.621c0.051,2.169-1.425,4.494-1.436,6.446c-0.017,3.586,3.329,6.54,1.436,9.32
	c5.327,4.651,14.662,3.987,19.354-0.715c1.125-4.103,3.313-8.604,2.868-12.188c3.102-2.389,5.23-5.758,7.164-9.319
	C350.359,295.132,349.735,291.926,350.059,287.786z M433.981,314.312c-0.439-2.909-2.536-4.221-2.214-7.89
	c-7.863-4.558-9.775-15.07-13.615-23.653c-6.604-4.309-11.96,2.078-16.486,4.301c-2.207,0.536-1.379-1.971-3.583-1.436
	c-3.17,2.555-6.722,5.276-5.019,10.75c-4.242,4.62-5.246,15.083-2.863,22.222c1.837,2.887,4.531,1.639,7.164,3.586
	c2.646,1.958,3.749,6.569,7.169,7.164c2.879,0.506,7.119-4.003,13.808-7.147C423.658,319.703,434.641,318.69,433.981,314.312z
	 M618.852,280.619c-0.942,3.305,0.921,9.435,5.023,10.035C627.384,287.374,623.935,279.941,618.852,280.619z M546.924,290.292
	c5.587,0.233,9.748-3.093,9.314-6.452c-0.793-6.184-11.725-3.275-10.755,5.013C546.287,289.01,546.603,289.652,546.924,290.292z
	 M612.253,283.455c2.603-4.684-1.875-12.396-6.454-7.89c-0.236,3.345,0.557,5.654,1.43,7.89
	C609.853,282.815,611.053,284.717,612.253,283.455z M443.958,275.601c-5.179-4.92-11.293,3.929-13.621,8.602
	c2.442,4.965,3.969,10.846,8.6,13.621c-0.782,5.795,2.71,7.327,6.452,8.599c0.112,8.259,11.799,10.123,17.921,7.884
	c1.157-2.22,0.616-2.785,1.425-4.301c2.774,0.145,5.292,0.024,7.177-0.718c1.378-7.328-7.492-10.024-5.73-20.067
	c3.766-2.565,4.146-13.337-1.446-14.338c-3.128,4.039-2.919,11.406-3.578,17.922c3.235,3.409,2.052,10.677-1.436,13.618
	c-2.742-2.03-5.569-3.982-10.738-3.581c-1.612-5.128-6.824-6.154-7.896-11.47C440.106,286.498,443.232,281.581,443.958,275.601z
	 M573.935,275.582c3.883-5.088-6.62-14.625-7.097-7.135C567.872,270.108,571.102,276.73,573.935,275.582z M564.203,275.191
	c-2.994,4.74-3.866,10.854,0.895,10.707C569.13,284.015,565.65,272.906,564.203,275.191z M595.632,270.266
	c-1.691,2.552-2.137,9.561-0.723,12.9C601.739,282.845,602.253,271.396,595.632,270.266z M529.709,273.616
	c-2.704-0.08-3.856,1.401-4.301,3.586C527.936,279.655,531.841,275.828,529.709,273.616z M502.725,282.77
	c4.022-1.981,2.876-9.06,0.724-12.188C494.723,267.66,492.838,282.919,502.725,282.77z M545.741,274.883
	c-2.325-2.967-7.825-8.334-11.463-3.581c0.397,4.269,3.53,10.463,0.06,12.9c-3.09,2.167-11.227,7.322-11.131,12.678
	C529.8,304.036,544.422,284.971,545.741,274.883z M491.986,272.02c-4.687-7.558-13.754,0.688-16.491,5.731
	c2.57,4.574-1.585,8.187,0.718,13.621c3.909,2.204,8.549-0.332,8.602-4.301c-0.38-2.973-3.621-3.072-2.865-7.169
	C487.23,280.501,490.497,277.103,491.986,272.02z M375.142,269.87c-2.095,0.182-2.199-1.621-4.301-1.438
	c-1.878,3.142-5.587,4.446-6.449,8.602c-6.685,1.679-7.927,8.8-8.602,16.489c4.54-0.812,6.044,4.727,10.013,5.771
	c5.204-1.888,1.982-8.79-0.693-10.79c0.045-3.538-0.11-7.273,2.15-8.602c2.992,1.545,8.136,0.948,11.47,2.15
	c-2.423,2.483-0.278,5.078-0.718,9.32c-1.403,2.662-6.248,11.417,1.483,15.994c0.056-1.323,2.547-4.331,3.535-6.679
	c0.533-1.277-1.001-3.007-0.72-5.014c0.238-1.674,1.765-2.731,2.15-3.588c2.885-6.395-0.975-11.093-5.731-12.183
	C379.041,275.046,374.879,274.671,375.142,269.87z M557.384,274.17c1.795-8.131-7.948-7.721-7.879-1.438
	C551.171,274.971,555.049,276.455,557.384,274.17z M446.818,277.751c4.531-1.907,15.174-0.316,15.056-5.731
	C461.703,264.232,439.29,266.386,446.818,277.751z M524.954,266.281c-5.817-5.686-14.772,6.545-9.325,12.19
	c-1.131,1.489-2.33,2.917-2.866,5.014c2.212,2.814,3.611,6.43,7.89,7.169c3.847-3.058,0.327-6.208-0.723-10.035
	C521.831,276.066,525.767,273.546,524.954,266.281z M586.705,260.025c-3.626-1.061-3.316,4.628-3.546,7.874
	c-0.306,4.328-4.617,5.375-4.27,9.317c0.306,3.444,2.855,6.229,5.704,5.021c2.363-1.551-0.996-6.502,0.686-6.412
	c1.763,0.094,2.706,1.511,3.547,0.683C591.948,273.426,592.333,261.674,586.705,260.025z M360.091,257.681
	c-3.019-1.521-4.931,1.521-5.734,4.302c0.957,0.712,1.409,1.936,2.866,2.147C358.313,262.116,360.622,261.318,360.091,257.681z
	 M582.12,247.553c-2.555,1.913-1.308,7.14,1.446,7.89C587.074,253.748,585.049,248.705,582.12,247.553z M395.214,254.098
	c-2.429-3.353-8.438-0.302-5.733,3.583C392.999,258.091,394.762,256.75,395.214,254.098z M443.958,254.098
	c-4.946-5.49-9.044,4.791-10.04,10.032c1.205,0.953,2.405,1.898,5.019,1.433C441.708,262.845,444.3,259.937,443.958,254.098z
	 M513.491,251.948c-5.217-2.309-13.877,2.319-14.344,9.32C505.206,265.825,513.867,260.288,513.491,251.948z M546.961,246.514
	c-2.18,1.947-6.631,3.736-5.982,6.709c0.61,2.809,0.444,6.119-0.847,10.107C547.814,270.354,550.647,246.999,546.961,246.514z
	 M491.986,245.496c-7.51-0.096-8.018,6.8-10.037,12.185c2.727,10.335,18.479,3.142,9.314-5.019
	C490.985,249.808,494.134,248.008,491.986,245.496z M396.647,244.778c-3.538-1.802-4.486,3.177-3.543,3.583
	C394.584,248.999,396.813,247.331,396.647,244.778z M374.429,244.778c-4.282-3.615-10.404,0.903-11.47,5.019
	c1.977,1.368,5.999,0.691,7.164,2.865c-2.59,0.945-7.777,14.352-15.767,16.489c-9.63,2.571-12.875-9.668-4.298-12.188
	c6.033,1.966,12.469-4.242,10.75-10.035c-5.484-0.705-6.604,5.059-10.007,4.301c-1.369-0.308-3.444-2.627-7.239,0.04
	c-6.09,4.28-7,16.25-4.255,24.331c11.4,1.621,21.641,2.161,23.653-10.038C373.152,264.275,374.711,254.762,374.429,244.778z
	 M603.801,242.628c-0.942,4.429,0.75,12.04,7.171,11.47c0.707-3.741-1.525-10.3-5.746-11.47H603.801z M571.921,240.896
	c-4.965,0.723-5.598,7.967-2.405,9.898C574.39,249.832,575.756,243.081,571.921,240.896z M504.949,242.585
	c-2.121-2.622-8.475-1.486-7.891,2.863C499.951,247.261,504.294,245.298,504.949,242.585z M466.18,240.478
	c-0.075,1.784-1.345,2.22,0,3.583C469.068,244.76,469.068,239.781,466.18,240.478z M563.469,235.644
	c-2.533-0.688-4.735,2.85-4.081,5.766c-2.39,0.948-4.729,1.735-5.014,5.013c-0.278,3.281,5.109,6.007,7.172,4.301
	c2.041-1.697-0.879-4.156-0.723-6.449C560.984,241.985,568.584,237.036,563.469,235.644z M594.375,246.776
	c-2.604,0.962-5.223,13.728,2.538,13.262C597.615,255.694,598.729,251.319,594.375,246.776z M527.819,237.609
	c-6.268-1.585-7.853,9.507-7.167,15.053c4.666,1.551,6.61,5.817,10.75,7.887c7.06-4.722-0.792-11.54-3.583-15.054
	C528.51,243.611,529.206,239.353,527.819,237.609z M415.284,239.048c-3.037-2.314-14.282-4.267-15.051,1.43
	c1.639,3.267,10.416-1.347,8.626,1.438c-1.872,2.909-5.565,4.012-7.193,7.164c2.223,3.514,0.597,5.297-0.715,8.602
	c0.938,1.452,3.79,0.986,4.301,2.869c0.287,5.305-2.814,7.223-3.586,11.47c1.743,1.358,3.54,2.665,7.169,2.15
	c5.656-6.703-0.705-14.657-2.151-22.223C410.107,248.198,414.611,245.542,415.284,239.048z M438.937,246.929
	c1.784-11.711-10.295-12.025-15.032-5.736c-6.256,8.307-7.743,22.038-4.32,30.827c4.984-2.855,10.892,2.63,12.903-3.589
	c-0.669-3.631-5.624-1.674-7.164-5.731c-2.115-5.573,0.113-15.126,6.444-17.922C434.774,244.883,434.97,247.792,438.937,246.929z
	 M579.441,233.448c-2.207-5.771-10.182,0.6-5.023,4.301C577.315,237.537,579.581,236.693,579.441,233.448z M552.747,239.747
	c1.874-2.622,1.467-5.951-0.713-7.884C545.633,230.748,546.94,241.217,552.747,239.747z M478.36,235.459
	c-2.474-2.159-12.779-6.505-14.338-0.712c1.875,2.592,4.467,2.571,7.177,2.863c5.088,6.591-2.361,7.863-1.44,15.771
	c-6.529,1.16-8.174,12.402,2.152,10.75c4.045-6.028,1.008-17.19,7.173-22.22C478.467,240.126,478.135,238.07,478.36,235.459z
	 M461.156,233.309c-1.039-3.739-7.976-1.58-12.174-2.15c-4.322-3.372-10.177,0.278-10.045,2.871
	c0.075,1.481,4.882,2.635,6.452,4.301c3.293,3.497,2.361,10.348,7.895,10.75c-8.114,7.456,0.969,12.11,4.971,11.476
	c2.41-0.383,3.225-2.558,3.62-5.024c-3.54-3.241-5.206-8.948-2.865-14.333c-2.576-1.492-8.275,0.147-8.602-3.588
	C451.836,232.556,460.83,239.462,461.156,233.309z M398.985,230.341c-1.913-1.663-6.235-0.554-6.451,2.866
	C394.965,234.262,398.717,233.493,398.985,230.341z M571.042,219.139c-1.055,0.715-3.529,1.253-3.46,3.524
	c-3.411,2.158-3.497,7.263,0.375,7.777c1.237-0.951,1.992-2.788,1.913-4.467C570.068,223.544,574.61,219.045,571.042,219.139z
	 M540.716,228.295c-5.437-2.641-8.966,2.365-10.026,6.452c2.693,1.733,5.013-0.6,7.89,0.712c-1.211,1.189-0.578,4.212-0.724,6.452
	c2.25,0.897,4.966,2.097,6.449,0c-0.97-3.806-0.418-9.141-4.302-10.032C541.563,231.996,540.331,229.337,540.716,228.295z
	 M581.91,222.979c-1.771,4.909,2.737,7.654,4.114,10.924c-1.082,2.715-2.015,7.185,0.911,9.301
	c8.205-0.892,2.34-21.227-3.487-19.765C582.741,223.563,582.516,223.014,581.91,222.979z M556.705,228.573
	c4.13,0.07,4.327-3.789,5.013-7.164C558.815,219.417,553.995,224.886,556.705,228.573z M540.877,381.687
	c2.158,2.919,5.243,2.022,6.062-0.147c0.825-2.17-0.98-5.472-3.524-5.694C540.877,375.618,538.708,378.771,540.877,381.687z
	 M590.667,221.378c-0.959,2.533,2.48,7.265,4.333,6.323c1.317-0.664,1.071-6.203,0.713-6.618
	C595.06,220.309,591.456,219.323,590.667,221.378z M455.859,335.691c-1.714-8.662-9.582-1.677-16.639-1.76
	c-7.046-0.081-2.997-5.677-2.997-5.677s0.975-3.134-6.135-2.933c-4.786,0.128,0.223,13.856,6.144,16.141
	C442.153,343.747,452.495,338.104,455.859,335.691z M453.877,327.882c0.99-1.441,1.06-3.176,0.492-4.767
	c-0.552-1.593-1.74-3.047-3.277-3.929c-1.538-0.881-3.423-1.2-5.373-0.514C429.469,324.368,452.806,327.03,453.877,327.882z
	 M620.458,362.33c-10.953-1.039-3.599,7.343-20.861,11.486c-1.822,0.405-3.707,0.758-5.678,1.05c4.359-4.469,15.58-23.901,19.71-24
	c1.446-2.392-1.227-7.078-1.227-7.078s2.731-4.896,0.257-9.627c0.611-5.98,0.236-12.333-1.688-19.135
	c-4.873,0.145-2.206,7.828-3.588,11.47c-1.602,1.015-4.725,0.535-5.014,2.863c1.351,3.176,2.845,4.387,0.718,7.89
	c-1.864,1.179-4.322-1.071-6.465,0.718c-1.591,1.808,1.569,3.2,1.446,5.731c-1.66,5.57-6.262,4.663-10.761,6.452
	c0.3,4.113,0.14,7.788-2.859,8.602c-3.878,0.043-3.776-3.923-8.672-2.865c-3.272,0.715-1.351-6.708-5.667-6.454
	c-2.854,2.051-0.455,11.647,2.147,12.9c1.693,0.814,3.417-0.693,4.302,0.721c1.745,2.769,1.081,3.235-1.436,6.449
	c-2.984-2.03-4.408-5.621-8.603-6.449c-2.598,0.024-3.144,2.105-2.865,5.019c-2.464,1.947-2.395-3.444-6.448-2.15
	c-1.575,2.793,2.822,13.455,5.864,12.054c3.032-1.398,0.429-3.548,2.17-5.539c1.757-1.993,11.061,0.766,13.218,6.385
	c0.397,1.026-2.458,8.83-3.277,11.491c-0.814,2.66-3.508-1.433-6.979,1.431c-3.487,2.868,3.706,7.193,4.123,8.012
	c0.397,0.822-1.467,5.761-3.31,7.193c-1.842,1.433-5.115-1.432-7.61-2.046c-2.476-0.616-3.466,11.698-1.007,12.957
	c2.452,1.253,5.549-3.102,7.589-2.901c2.052,0.209,3.069,14.39,3.069,15.619l-0.198,0.396l-0.038,0.892
	c-2.945,0.723-4.279,1.971-4.676,3.318c0.354,2.033,1.543,4.307,2.475,5.322l1.002,0.506c0.444-0.134,0.942-0.71,1.409-1.382
	l0.455-0.715c0.604-0.994,1.039-1.96,1.039-1.96s4.221,13.669,5.291,16.577c0.107,1.403-0.129,2.7-0.99,3.667
	c-2.951,3.289-9.186,7.035-4.221,6.4c2.518-0.321,8.125-0.702,11.445-0.916c3.535,0.024,11.612,0.244,16.658,1.615
	c4.526,1.234,6.46,8.695,1.66,12.006c-3.375-0.453-0.514-5.38-4.703-5.014c-2.238,0.38-4.333,2.67-4.616,5.014h-5.195
	c-2.893-0.448-1.237-4.317-3.873-5.014c-3.353,0.241-6.213,4.065-8.136,5.731c-26.668,2.051-22.881-1.69-25.785-12.905
	c-3.974-15.41-11.772-36.749-12.206-39.418c-0.686-3.083,3.52-1.259,3.583-3.583c0.733-4.236-4.027-5.455-5.736-7.887
	c-2.812-3.993-3.776-9.151-5.726-14.333c3.927-0.115,3.884,3.765,7.172,4.295c2.983,0.49,5.186-11.189,2.839-12.903
	c-1.986-1.441-3.434,1.813-6.433,1.438c-2.608-4.253,2.169-4.836,2.147-8.602c-0.466-6.021-8.462-10.916-12.897-6.452
	c-0.497,4.96,6.021,6.171,3.584,10.753c-8.699-2.467-8.323-12.328-5.014-20.072c-2.636-3.283-6.401,1.344-10.049,1.433
	c-4.418-1.304-4.933-6.529-7.161-10.032c0.445-2.9,4.179-2.512,5.737-4.301c-0.478-2.156-2.759-2.501-2.154-5.733
	c2.47-1.353,5.523-2.119,7.88-3.586c2.495-25.937,11.622-32.814,10.862-36.494c-0.183-0.844-7.927-3.206-12.604-16.283
	c-0.792-2.223-3.787-0.421-3.32,2.196c2.656,15.021,4.771,33.457-4.254,44.129c-3.288,0.185-2.961-3.24-6.448-2.863
	c-5.806,0.707-2.41,9.116-2.153,10.752c-4.221,2.997-5.201-1.355-7.884-3.588c-1.783-0.118-2.238,1.1-2.865,2.15
	c-0.547,3.182,2.367,2.884,3.589,4.301c-2.015,11.944,6.122,8.05,8.944,19.986c-4.371,0.838-9.502,0.718-15.142-0.11
	c-10.401-3.388-7.135-8.337-7.788-11.553c-0.852-4.151-13.615,0.793-17.381-1.323c-3.765-2.11-6.657-8.032-9.197-7.292
	c-2.533,0.736-2.843,3.586-1.483,4.791c2.588,2.314-1.167,2.991-8.374,0.736c-2.442-0.83-2.857-3.447-3.417-5.037
	c-0.555-1.596-1.743-3.048-3.286-3.929c-1.535-0.883-3.417-1.2-5.364-0.517c-3.256,1.141-9.116,0.233-11.941-1.104
	c-20.051-9.512-35.648-17.396-37.392-14.721c0.129,2.022,6.773,4.826,6.232,7.518c-7.477-0.595-8.803,2.391-17.871,6.821
	c-9.033,4.406-17.44,5.53-19.183,9.32c1.218,1.403,5.027,0.228,5.731,2.15c-0.048,6.754-4.424,10.865-8.602,15.053
	c-2.239,2.245-5.458,5.514-7.882,5.014c-0.664-3.286,1.795-3.463,1.433-6.452c-7.949-7.252-27.715,4.212-18.639,13.621
	c2.739-3.602,6.127-1.473,9.279-2.145c3.225-0.688-7.536,8.768-11.43,9.314c-2.774,0.386-5.385-1.537-7.881,0.712
	c-0.463,0.418-0.53,2.225-1.433,2.868c-3.701,2.646-8.556,2.866-12.188,5.021c-5.011-5.688-11.883-1.259-14.333,3.581l-1.387,0.501
	c-3.921,1.299-4.422,0.42-8.975-0.153c-5.038-0.634-8.436-2.972-12.892-0.849c-4.459,2.121,4.113,4.687,2.761,6.101
	c-22.193,23.112-22.522,42.38-20.423,44.579c4.052,4.237-13.178,5.158-13.562,9.314c4.365,2.562,14.111,0.383,19.384,0.71
	c5.271,0.337,8.406,6.382,8.569,13.628c-3.142,0.273-3.685-2.051-6.449-2.147c-2.74-0.354-2.247,2.53-3.583,3.58
	c-4.78,0-5.375-4.186-8.607-5.731c-2.625,1.674-5.311,3.289-6.449,6.449h-8.602c-3.136,0-6.436-6.891-6.393-13.624
	c0.021-3.508,1.478-7.279-0.059-9.314c0.822-3.723,1.602-30.624,8.578-33.682c1.703-0.747,8.498-14.454,1.459-16.494
	c0.868-8.923,6.974-12.619,14.335-15.051c-2.64,11.505,13.099,10.918,15.903,3.195c-0.501-3.235-0.624-6.197-2.962-7.938
	c6.535-2.783,13.254-6.781,18.262-11.332c3.131,1.171,4.995,4.347,9.711,3.929c1.031-0.399,3.128,0.273,3.53-0.758
	c0.761-4.587-4.789-11.84-3.712-12.886c1.54-1.495,2.967-3.102,4.291-4.794c1.037-1.151,3.026-1.194,4.791-0.056
	c1.312,0.844,0.975-4.041,1.866-5.468s4.184-0.919,4.457-2.826c0.268-1.877-2.989-4.844-1.35-8.597l0.396-0.881
	c1.13-2.525,2.225-5.107,3.315-7.718c8.289,0.932,11.744,7.688,21.066,0.934c-0.707-2.862-0.707-4.298,0-7.169
	c-2.938-2.352-5.731-4.32-9.317-3.581c-3.519,0.729-6.329,4.676-9.847,4.657c0.179-7.997,4.446-19.576,11.995-22.578
	c-0.094-4.602,1.27-6.535,2.871-10.75c0.035-3.384-3.029-3.663-4.301-5.733c0.653-4.127,1.125-8.433,4.301-10.037
	c-0.57,2.792-0.744,3.714,0.718,5.736c7.946,1.81,13.902-3.482,17.196-8.599c-1.302-7.751,0.819-14.599-4.296-18.64
	c-3.487,0.1-5.345,1.824-6.454,4.302c0.49,4.052,4.196,4.884,5.736,7.887c-2.027,2.991-1.591,8.441-6.451,8.602
	c-1.891-3.128-0.078-9.959-5.731-9.319c0.541-3.042,1.532-5.635,2.863-7.884c-0.648-1.267-1.604-2.223-2.863-2.869
	c-6.976,1.626-8.695,9.775-13.417,13.656c-9.443-1.631-13.69,16.052-17.957,21.729c-0.827-4.028,2.424-17.713-9.879-14.793
	c2.731-2.77,5.413-5.472,8.037-8.083c0.814,1.379,1.783,2.552,2.646,2.3c8.09-2.378,7.622-8.671,6.917-11.588l1.47-1.409
	c2.405-1.486,4.29-2.303,5.361-2.258c4.574,0.924,9.291-1.304,11.803-4.574c0.415-2.33-0.49-3.334-0.718-5.019
	c1.797-0.828,2.396-2.855,5.019-2.866c3.206,1.811,5.29,4.743,8.599,6.452c6.155-1.063,13.106,0.651,15.771-5.019
	c-1.65-6.441-1.917-13.12,5.731-13.621c0.26,3.602-0.439,6.248-1.43,8.602c4.24,5.899,14.323,0.951,18.634-2.863
	c-1.888-5.496-7.938,1.692-12.183-1.438c0.164-8.366,12.027-8.982,17.201-6.451c2.716,3.8-3.503,3.875-2.868,7.89
	c3.08,2.471,10.953-0.745,11.47-5.019c0.525-4.36-2.568-4.282-5.021-7.884c4.288-0.98,12.978-1.347,17.204,0
	c-2.231,2.458-7.193,5.495-5.014,10.035c0.525,2.579,5.648,0.56,6.449,2.869c-3.364,2.367-5.351,6.108-7.876,9.314
	c-1.645,2.094,1.54,2.75,1.427,5.019c-9.068,11.628,9.542,34.132,17.919,20.79c-1.119-5.217-5.251-3.559-10.037-4.301
	c-5.664-10-4.213-23.669,4.301-30.11c-2.365-3.294-5.996-4.017-5.733-7.881c0.407-6.071,8.548-5.921,14.333-5.019
	c0.635,2.303-2.362,0.98-2.147,2.869c-1.018,2.447,17.3,4.914,20.069,4.301c2.635-0.586,3.963-2.935,5.019-4.301
	c-5.533-2.383-13.629,2.19-16.489-2.869c25.6-0.656,48.127,2.052,71.684,4.299c3.486,0.332,7.321-1.058,10.037,2.15
	c1.484,2.196-2.143,4.229-2.158,7.169c3.626-0.198,4.772-2.874,7.884-3.586c4.066-0.932,11.725,2.791,12.903-2.145
	c0.021-2.408-2.833-1.936-4.302-2.868c1.212-2.167,6.106-3.573,8.604-2.15c1.424,1.411,0.455,4.092,0,5.731
	c3.395,3.543,8.371-0.287,10.749-2.15c-0.086-2.777-4.943-0.788-5.014-3.581c5.817-2.786,10.948-6.253,18.64-7.169
	c3.589,1.733,8.58,4.676,12.191,2.868c2.555-1.283,1.402-3.696,2.859-6.451c3.481-1.57,8.045-3.112,12.598-3.894
	c2.357-0.407,4.724-0.608,6.915-0.506l0.841,0.056l0.733-0.029c3.005,0.064,4.012,2.684,2.448,4.81
	c2.458,0.128,4.264-3.35,7.89-3.583c3.625-0.236,8.382,2.611,9.828,0.932c0.98-1.133-0.235-2.63,0.98-5.137
	c0.766-1.259,2.448-2.11,3.043-1.031c2.34,4.25,7.632,4.628,11.799,9.875c3.818-2.997-2.147-6.827-4.237-9.325
	c-2.747-3.294-1.724-8.53,0.049-10.278c7.112-6.741,10.878-5.292,11.05-5.943c0.197-0.729-3.878-1.843-4.788-2.793
	c-1.623-1.685-2.33-3.723-2.614-4.891l-0.188-0.961c-0.745-3.835-1.44-7.938-2.587-11.023c4.971,0.758,8.136,3.334,11.474,5.731
	c1.622-0.52,2.142-2.156,2.864-3.581c-2.143-9.336-11.327-11.625-12.913-21.508c7.648,1.687,12.544,14.258,23.663,15.056
	c5.383,0.38,12.052-2.478,17.917-2.868c7.756-0.522,14.627,0.271,21.499,2.151c3.471,0.945,6.7,3.492,10.043,3.581
	c4.231,0.12,8.372-3.439,12.897-2.151c2.164-5.549,9.86-9.164,15.057-9.314c-0.928,4.812-5.432,6.039-7.167,10.032
	c-0.198,3.063,2.613,3.117,3.578,5.021c1.473,5.934,1.585,13.232,4.301,17.919c-0.733,1.882-2.833,2.413-3.578,4.301
	c-0.149,2.298,2.555,1.744,3.578,2.863c-1.013,1.77-4.896,4.068-0.712,5.019c-5.405,3.444-6.744,11.679-4.302,19.354
	c-2.458,3.511-6.86,5.088-13.614,4.299c-2.121-2.188-1.303-7.306-1.441-11.468c3.958-2.504,8.136-4.772,9.324-10.035
	c-3.101-3.085-7.149,1.333-11.473,1.433c-5.966,0.145-12.404-5.072-17.203-1.433c3.053,5.554,11.098,6.106,14.338,11.47
	c0.289,3.394,0.15,5.712-0.723,8.83c-7.746,6.516-24.167,3.219-27.943-4.529c-1.795-3.682-0.155-7.263,2.143-8.602
	c-5.661-7.217-24.092,2.26-30.107-5.019c0.578-2.258,1.795-4.103,3.825-4.698c0,0-1.028-1.312-6.915-1.663
	c-0.198-3.072,4.183-3.142,6.153-6.655c-11.108-0.718-22.602,12.876-15.607,15.592c6.444,2.499,9.685,6.109,10.862,12.547
	c-3.519-2.284-7.435,1.535-4.928,5.875c3.647,4.606,9.545,10.038,17.891,12.049c10.047,14.595-0.536,15.016,16.052,23.396
	c-0.439,1.58,0.434,3.875,0.632,7.244c-0.359,5.29-10.268-2.557-14.306-11.143c-2.599-5.536-0.312-9.384-4.698-13.773
	c-2.479-2.478-10.09-3.131-5.452,2.041c11.596,12.946,16.074,29.668,16.095,34.319c0.012,2.429,1.811,2.175,3.921,0.688
	c1.061-0.702,2.281-1.16,1.655,0.139l-0.552,1.085c-0.546,1.344-1.382,2.691-2.518,4.039c-1.714,2.021-4.231,3.602-5.618,3.498
	c-5.779-0.416-2.587-17.523-15.773-20.785c-0.462-8.902-8.961-15.859-15.77-20.787c-4.23,2.753,0.831,4.992,2.154,7.169
	c1.307,2.169,1.9,4.501,3.583,6.448c2.517,2.903,6.245,5.054,7.89,9.32c0.69,1.813,0.225,4.639,0.712,6.452
	c1.618,6.063,4.461,11.157,7.82,15.626c4.547,6.039,1.237,12.113,4.092,12.847c3.262,0.844,5.232-13.95,13.177-14.853
	c1.055,3.224-0.81,10.482-2.159,12.9c-1.012,1.379-3.476,1.299-5.014,2.15c-0.498,3.607,0.236,5.975,2.147,7.169
	c-0.723,7.775-3.626,6.837-5.575,14.21c-0.177,0.715-0.771,2.833-1.992,5.752C637.571,347.448,624.074,362.672,620.458,362.33z
	 M615.515,234.24c-0.252-2.616-0.488-4.85-3.016-6.569l-0.873-0.508c-6.074-3.634-8.008-7.472-9.304-9.119
	c-1.537-1.955-4.885,3.142-3.418,6.829l0.515,0.935c1.901,3.128,5.918,7.051,7.253,12.523c1.725,5.667,7.659,3.487,16.63,16.403
	c3.605,5.177,6.637,11.152,14.189,19.438c1.842-8.061-4.677-13.958-8.603-18.639c-2.716-3.163,3.192-2.566-2.796-6.411
	c-2.892-1.859-5.924-4.837-7.927-6.634c-4.499-3.991-12.582-11.564-5.982-9.909C613.196,232.834,614.315,233.405,615.515,234.24z
	 M653.978,183.135c-2.545-0.147-1.426,3.364-4.302,2.868c-2.544,0.08-5.773-0.52-5.736,2.151c3.46,4.871,13.406,9.378,20.782,5.733
	C664.818,186.622,657.984,186.3,653.978,183.135z M691.246,189.586c-0.337,2.25,1.934,1.894,2.153,3.586
	c4.852-0.158,7.601-2.437,10.037-5.019C704.326,176.783,692.29,185.727,691.246,189.586z M360.091,310.006
	c2.424,0.926,2.681,4.014,7.169,2.868c3.503,5.514-0.517,12.595-5.019,12.903C354.654,326.291,351.877,313.147,360.091,310.006z
	 M363.163,320.396c1.104-1.357,1.27-1.553,0.678-3.578c-3.704-0.571-4.623,2.064-3.586,4.301
	C361.588,321.243,362.177,321.61,363.163,320.396z M344.32,294.955c0.852,3.835-4.954,5.416-2.863,10.038
	c-5.431,1.977-3.468,11.345-11.47,10.75c-2.874-6.575,4.872-12.282-1.433-15.769c0.557-2.791,0.982-5.709,2.865-7.169
	C338.899,293.359,342.992,288.959,344.32,294.955z M416.716,295.672c2.338,7.089,7.6,15.016,2.868,21.502
	c-6.912-0.118-10.126-0.653-16.483,0.718c-1.01-3.473-5.461-8.68-5.736-12.9c-0.391-5.972,4.231-9.611,6.448-14.338
	C408.318,292.124,414.512,291.902,416.716,295.672z M410.985,309.288c1.861-5.244-7.115-5.543-8.602-2.866
	C403.781,308.607,407.694,311.294,410.985,309.288z M678.954,476.984h-3.305c0,0-5.421-5.52-5.796-3.87
	c-0.873,3.747-3.723,4.623-3.723,4.623h-22.319c-9.908,0-11.811-5.423-12.908-8.824c-0.686-2.089-7.472-25.391-7.472-25.391
	s1.506-3.393,1.506-6.034s-5.936-4.62-5.936-4.62l-1.885-7.258c0,0,4.146-1.894,3.866-5.747c-0.337-4.617-9.147-5.469-9.147-5.469
	s-3.438-10.629-5.163-16.719c-0.933-3.259,0.417-7.198,5.35-11.181c0,0,4.088,3.683,7.751,1.328
	c3.686-2.359-0.396-8.398-0.584-9.341c-0.171-0.806,13.686-8.446,18.522-10.87c0.514-0.257,2.078,0.373,2.1,1.058
	c0.036,2.897-0.735,8.302-0.735,8.302s-2.457-1.882-4.429-2.07c-1.982-0.188-6.036,4.336-6.786,10.083
	c-0.755,5.752,9.71,0.188,9.71,0.188s-0.38,9.146-1.51,15.841c-4.901,5.934-2.169,7.632,2.073,8.953
	c-1.13,30.728,10.744,53.379,9.802,53.958c-2.797,1.741-2.03,2.761-0.06,2.574c8.64-0.814,17.986-0.621,23.433,0.87
	C679.086,469.498,678.954,476.984,678.954,476.984z M614.401,406.025c1.896,2.07,8.521,3.795,10.76,1.725
	c2.25-2.073,3.976-5.769,1.388-8.527c-2.582-2.761-5.763-4.221-8.698-4.221C611.214,395.002,612.5,403.955,614.401,406.025z
	 M196.774,353.626c5.158-2.903,16.599-1.451,10.79-8.771c6.661-5.592,11.318-10.003,18.243-16.658
	c0.822,3.222,6.16,7.25,9.716,10.204c-1.832,1.353-3.685,2.688-5.56,4.012c-5.597-1.452-11.042-5.247-11.701-3.637
	c-1.384,1.411,1.109,8.736,2.285,12.718c-2.678,2.086-5.254,4.202-7.825,6.2c0,0-1.62,1.464-4.542,3.626
	c-2.855-1.189-6.62-2.333-9.301-1.604c-3.977,1.08-5.761,8.332-6.286,10.994c-7.017,3.377-15.498,6.39-24.823,7.509
	c-2.606-2.1-8.514-3.05-12.223,1.112c-3.696,0.029-4.847-2.82-6.872-3.567c-6.61-2.442-6.778-5.228-2.384-3.752
	c6.189,2.081,15.721,0.972,25.332-2.753c9.606,8.564,15.846-8.929,15.846-8.929L196.774,353.626z M242.95,311.246
	c1.02,2.793,5.471,10.814,10.315,13.202c-3.329,2.77-6.797,5.573-10.38,8.364c2.488-9.938-7.362-10.929-10.696-10.811
	C235.772,318.474,239.369,314.872,242.95,311.246z M264.374,314.901c-0.477-5.921-3.969-15.712-12.153-13.125l11.901-12.252
	c1.633,2.793-0.868,16.949,10.958,15.645C271.846,308.182,268.257,311.463,264.374,314.901z M335.006,239.76
	c-0.525,5.665-7.282,8.265-11.471,4.301C324.285,239.671,330.295,237.947,335.006,239.76z M413.486,385.032c0,0-1.939,2.919,0,4.796
	c1.931,1.877,4.285,2.593,5.539,2.502c1.248-0.089,11.912-3.667,11.912-5.959c0-2.29-2.651-3.929-4.796-4.553
	C424,381.189,413.486,385.032,413.486,385.032z M396.148,401.947c0,0-4.199,2.745-4.199,4.261c0,1.521,4.885,5.064,6.495,6.044
	c1.604,0.988,5.241-0.771,6.757-3.452c1.521-2.681,2.801-6.312-0.147-7.565C402.105,399.986,396.148,401.947,396.148,401.947z
	 M445.907,466.539c6.723-0.147,14.58-0.158,19.733,1.69c5.297,1.907,5.912,7.174,6.33,8.854c0.418,1.674-5.747,0.654-5.747,0.654
	s-3.825-5.94-6.54-4.261c-0.605,0.367-0.557,4.261-3.09,4.261c-1.864,0-17.488,0.185-25.79,0.15c-6.042,0-7.914-3.131-9.553-6.312
	c-2.533-4.912-16.802-33.652-26.473-45.152c2.67-2.352,3.672-5.514,1.937-7.316c-1.728-1.802-8.773-0.555-8.773-0.555
	c-2.397-3.538-4.832-6.713-6.393-8.69c-2.02-2.562-0.164-3.497,0.546-4.183c8.468-8.213,11.464-14.555,11.85-14.491
	c0.418,0.069,2.186,5.035,4.615,4.687c2.426-0.345,6.443-7.63,6.443-8.428c0-0.803-0.41-2.191-2.491-4.132
	c-2.081-1.941-3.468-3.433-3.398-4.127c0.069-0.694,0.903-1.457,1.457-3.744c1.376-5.683,4.601-6.403,5.626-4.237
	c0.423,0.881,4.871,8.64,9.692,7.804c4.821-0.839,11.202-2.941,13.929-5.035c2.724-2.097,12.534,1.037,17.702,2.518
	c5.169,1.481,4.194,6.336,3.354,7.174c-0.842,0.835-5.287,4.448-6.337,4.448c-1.044,0-5.286-4.494-7.798-2.354
	c-2.517,2.139-0.214,5.707-1.05,6.754c-0.838,1.05-6.963,6.336-8.433,6.545c-1.467,0.207-11.366-0.46-12.204,2.938
	c-0.841,3.398,3.776,4.863,3.776,5.91c0,1.05-4.196,5.916-3.567,8.434c0.629,2.515,3.355,10.364,2.938,11.623
	c-0.42,1.258-4.612,5.91-3.146,8.219c1.467,2.303,7.383,1.679,8.012,3.146c0.327,0.769,5.008,15.667,10.276,23.147
	c2.595,3.688-3.294,5.573,0.584,5.013c4.207-0.603,7.967-0.822,10.107-0.9C445.216,466.544,445.907,466.539,445.907,466.539z
	 M444.03,466.59l1.877-0.051C445.907,466.539,445.216,466.544,444.03,466.59z"/>
<path fill="#005DAA" d="M566.405,520.834h90.38c14.756,0,27.219,1.816,37.407,5.453c10.187,3.647,18.468,8.741,24.852,15.297
	c11.274,10.921,16.931,25.758,16.931,44.515v0.536c0,14.745-3.545,26.952-10.658,36.593c-7.087,9.662-16.657,17.022-28.677,22.115
	l45.618,66.641H681.09l-38.506-57.889h-0.557h-22.651v57.889h-52.972V520.834z M654.314,612.574c9.106,0,16.112-2.003,21.04-6.005
	c4.906-4.183,7.358-9.742,7.358-16.657v-0.546c0-7.639-2.543-13.288-7.637-16.926c-5.104-3.835-12.1-5.736-21.019-5.736h-34.681
	v45.87H654.314z M456.491,636.612l-21.28-54.338l-21.585,54.338H456.491z M410.091,519.468h51.06l81.359,192.516h-56.785
	l-13.932-34.15h-73.716l-13.664,34.15h-55.704L410.091,519.468z M225.898,715.519c-13.661,0-25.937-1.734-36.877-5.179
	c-10.905-3.471-20.201-8.741-27.847-15.838c-7.648-7.289-13.548-16.39-17.75-27.306c-3.99-11.104-6.001-24.119-6.001-39.052V520.834
	h53.797v106.218c0,13.835,3.171,24.13,9.552,30.857c6.366,6.55,14.928,9.828,25.68,9.828c10.731,0,19.282-3.188,25.659-9.561
	c6.363-6.363,9.553-16.288,9.553-29.77V520.834h53.797v105.95c0,15.479-2.185,28.848-6.55,40.134
	c-4.197,11.098-10.196,20.295-18.034,27.584c-7.646,7.097-17.025,12.367-28.123,15.838
	C251.833,713.784,239.543,715.519,225.898,715.519z"/>
</svg>
