<svg id="au7s" xmlns="http://www.w3.org/2000/svg" viewBox="0 0 512 281">
  <path id="_7-top" data-name="7-top" d="M252,0H450q-11.5,30.49-23,61H217c2.25-5.33,4.23-10.62,6-16,3-9.23,7.76-21.27,9-26,.2-.76,2.73-8.22,7-13a17.18,17.18,0,0,1,13-6Z" fill="#9f0" fill-rule="evenodd"/>
  <path id="_7-vertical" data-name="7-vertical" d="M344,75h77L343,281H266v-1Z" fill="#9f0" fill-rule="evenodd"/>
  <path id="s" d="M461,77a86.68,86.68,0,0,1,14-1,83.54,83.54,0,0,1,25,4,80.78,80.78,0,0,1,12,5l-10,25a83.44,83.44,0,0,0-16.3-8.62c-3.39-1.27-6.83-1.61-9.7-2.38a9.47,9.47,0,0,0-6,0,8.28,8.28,0,0,0-3,2,3.14,3.14,0,0,0-1.37,1.3c-.17.29-.1.72-.63,2.7v1c2,1.1,4,2.09,6,3,5.27,2.36,10.56,3.8,16.13,6.51,1,.49,2.07,1,2.87,1.49,6.49,3.7,10.85,8.69,12,11,2.06,4.15,2.84,9.63,1,17a31.13,31.13,0,0,1-8,14c-2.84,3-9.2,7.47-18,10a63.35,63.35,0,0,1-15,2c-8.34.21-16.11-.66-21-2a61,61,0,0,1-24-13q5.5-11,11-22c11.33,5.91,23.85,15.18,41,12a4.51,4.51,0,0,0-1-8c-4.37-1.64-8.66-3.28-13-5-13.5-5.34-21.25-9.07-24-17-2.38-6.85.16-14.64,3-20a36.68,36.68,0,0,1,11-12A42.12,42.12,0,0,1,461,77Z" fill="#9f0" fill-rule="evenodd"/>
  <path id="blue-block" d="M72,75H344q-31,81.5-62,163H0L58,85a22.71,22.71,0,0,1,3-4,20.22,20.22,0,0,1,5-4A18,18,0,0,1,72,75Z" fill="#161671" fill-rule="evenodd"/>
  <path id="blue-a" d="M95,106h33l37,99H150s-4.93-.13-6,0a12.16,12.16,0,0,1-5,0,10.67,10.67,0,0,1-5-3l-3-11H92a41,41,0,0,1-1,4,28.37,28.37,0,0,1-2,5,20,20,0,0,1-4,5H58Z" fill="#fff" fill-rule="evenodd"/>
  <path id="a" d="M95,106,57,205H71c1.7-.07,3.35-.07,5,0s3.24-.08,5,0a7.07,7.07,0,0,0,8-5,28.76,28.76,0,0,0,2-9h40a27,27,0,0,0,1,5,16.06,16.06,0,0,0,4,7,10.17,10.17,0,0,0,5,2h24l-37-99Z" fill="#fff" fill-rule="evenodd"/>
  <path id="blue-a-inner" d="M111,132,98,169h26Z" fill="#161671" fill-rule="evenodd"/>
  <path id="a-inner" d="M111,132l13,37H98l6-17Q107.5,142,111,132Z" fill="#161671" fill-rule="evenodd"/>
  <path id="blue-u-left" d="M169,106v11c0,9,0,21.8,0,27,0,3.5.06,8.51,0,10.33A122.24,122.24,0,0,0,169,168c.59,7.18,2.53,14,4,17a37.24,37.24,0,0,0,13,15,47.89,47.89,0,0,0,12,5,57.32,57.32,0,0,0,12,2V183a16.12,16.12,0,0,1-12-8c-2.21-3.9-2.07-7.56-2-11,.05-2.41-.07-4.59,0-7,.05-1.53,0-9,0-9V124c0-1,0-2,0-3,.07-2.2.17-5.84,0-9-.07-1.37-.27-3.65-2-5a5.07,5.07,0,0,0-3-1H169Z" fill="#fff" fill-rule="evenodd"/>
  <path id="u-left" d="M169,106c2.71,0,5.34,0,8,0,2.4,0,5.8.06,7,0,1.38-.07,2.61,0,4,0,2.83,0,4.53-.14,6,1,2.33,1.8,2.63,5.56,2,9,0,2.43,0,4.86,0,7.31,0,3.25,0,6.44,0,9.69,0,4.3.17,8.4.15,12.7s-.05,9.6-.15,12.3c-.05,1.37,0,3.28,0,5a26.25,26.25,0,0,0,1,9,17.58,17.58,0,0,0,5,8,14.47,14.47,0,0,0,8,3v24a42.07,42.07,0,0,1-9-1,39.86,39.86,0,0,1-30-27c-2.3-6.89-2.12-12.16-2-18,.11-5.11-.07-9.89,0-15,0-2.86,0-11.29,0-17V106Z" fill="#fff" fill-rule="evenodd"/>
  <path id="blue-u-right" d="M241,106h23v23c0,5.45-.1,13.27,0,16,.15,4.22.09,13.13,0,20a52.76,52.76,0,0,1-2,13,39.71,39.71,0,0,1-9,16,38.94,38.94,0,0,1-11,8,41.42,41.42,0,0,1-13,4,14.59,14.59,0,0,1-4,1,15,15,0,0,1-3,0V183a15.92,15.92,0,0,0,10-4c2.34-2.18,4.44-6.72,5-14a69,69,0,0,0,0-9c-.28-2.82,0-10.33,0-16V111a5.21,5.21,0,0,1,1-3A5.3,5.3,0,0,1,241,106Z" fill="#fff" fill-rule="evenodd"/>
  <path id="u-right" d="M222,207c9.3-.67,18.44-3.3,25.76-8.32A34.31,34.31,0,0,0,256,191a32.69,32.69,0,0,0,5-10c3.12-9.83,3.08-23.5,3-25-.36-7,.25-13,0-20-.34-9.75-.34-19.64,0-30H252c-2.05.07-4.33.08-6,0-.69,0-1.31,0-2,0-1.87,0-3.56-.12-5,1a5.09,5.09,0,0,0-1.14,1.28A5.65,5.65,0,0,0,237,111a25.72,25.72,0,0,0,0,5c.41,2.54,0,5.67,0,9,0,1.42.09,4,.14,6,.17,6.26-.32,11.72-.14,18,.14,4.9-.24,9.11,0,14,.08,1.72.33,7.78-3,13a15.06,15.06,0,0,1-5,5,14.44,14.44,0,0,1-7,2Z" fill="#fff" fill-rule="evenodd"/>
</svg>
