<svg xmlns="http://www.w3.org/2000/svg" width="1000" height="1000"><path fill-rule="evenodd" clip-rule="evenodd" fill="#007C66" d="M988.191 858.026c-3.003 0-5.635 1.07-7.715 3.154-2.147 2.143-3.34 4.96-3.34 7.903 0 2.906 1.13 5.635 3.214 7.748 2.114 2.143 4.9 3.336 7.841 3.336 2.88 0 5.663-1.134 7.84-3.248 2.114-2.051 3.247-4.774 3.247-7.836 0-2.973-1.104-5.667-3.154-7.748-2.144-2.176-4.901-3.309-7.933-3.309zm.03 1.621c2.603 0 4.901.981 6.74 2.817 1.777 1.811 2.692 4.108 2.692 6.771a9 9 0 01-2.755 6.522c-1.865 1.81-4.228 2.757-6.83 2.757-2.387 0-4.745-1.011-6.552-2.82-1.777-1.804-2.728-4.131-2.728-6.611 0-2.481 1.011-4.871 2.847-6.738 1.777-1.779 4.013-2.698 6.586-2.698zm-4.532 3.033v12.404h2.666v-5.175h1.928l2.45 5.175h2.97l-2.755-5.604c1.777-.396 2.755-1.622 2.755-3.429 0-2.177-1.744-3.372-5.238-3.372h-4.776zm2.666 1.687h1.621c2.024 0 3.002.581 3.002 1.988 0 1.352-.918 1.899-2.88 1.899h-1.743v-3.887z"/><path fill="#007C66" d="M.306 860.153h41.547l-.104 66.354h.306l30.083-66.354h34.242l1.722 66.354h.304l28.105-66.354h41.547l-54.905 108.66H80.999l-1.952-60.267h-.304L51.02 968.813H8.863L.306 860.153zm241.674 74.418c-3.04 14.304-17.872 17.501-30.656 17.501-9.436 0-13.377-3.652-12.147-9.436 1.131-5.327 4.965-7.609 12.096-8.217 13.802-1.219 24.801-2.13 31.484-3.501l-.777 3.653zm-32.694-23.742c3.541-8.065 12.506-9.433 21.18-9.433 10.806 0 17.104 2.587 15.94 8.065-.971 4.563-3.947 6.391-11.653 6.847l-32.434 1.522c-28.414 1.218-41.29 10.957-44.524 26.176-4.528 21.306 10.147 28.156 35.715 28.156 20.24 0 33.953-3.653 44.158-11.566-.495 3.041-.621 5.783-.378 8.217h38.959c-1.244-2.738-2.109-6.542-.75-12.937l8.539-40.177c5.274-24.806-8.253-33.481-47.061-33.481-20.088 0-34.26 1.522-44.45 5.783-10.374 4.415-16.58 11.414-21.287 22.827h38.046zm105.325-54.479h38.046L328.75 968.813h-38.046l23.907-112.463zm56.308 0h38.046l-23.907 112.464h-38.046l23.907-112.464zm116.078 78.221c-3.042 14.304-17.874 17.501-30.658 17.501-9.436 0-13.376-3.652-12.147-9.436 1.133-5.327 4.965-7.609 12.096-8.217 13.803-1.219 24.802-2.13 31.485-3.501l-.776 3.653zM454.3 910.829c3.541-8.065 12.505-9.433 21.181-9.433 10.805 0 17.103 2.587 15.938 8.065-.968 4.563-3.944 6.391-11.65 6.847l-32.436 1.522c-28.413 1.218-41.289 10.957-44.524 26.176-4.528 21.306 10.147 28.156 35.715 28.156 20.242 0 33.952-3.653 44.158-11.566-.496 3.041-.621 5.783-.376 8.217h38.959c-1.245-2.738-2.11-6.542-.75-12.937l8.538-40.177c5.274-24.806-8.254-33.481-47.062-33.481-20.088 0-34.26 1.522-44.449 5.783-10.373 4.415-16.581 11.414-21.289 22.827H454.3zm128.198 16.894c2.494-11.719 10.252-18.872 25.015-18.872 13.696 0 18.95 8.221 16.686 18.872-2.329 10.957-10.097 18.87-24.859 18.87-14.611 0-19.364-6.998-16.842-18.87zm-46.777 41.09h36.827l1.876-8.828h.305c5.168 7.917 14.762 12.178 31.654 12.178 24.655 0 50.211-13.545 56.776-44.44 6.565-30.894-13.23-44.438-37.885-44.438-15.522 0-27.29 3.805-35.513 11.718h-.308l8.217-38.653h-38.047l-23.902 112.463zm150.094-83.247h38.046l-17.696 83.247h-38.046l17.696-83.247zm6.209-29.216h38.046l-4.461 21.001h-38.047l4.462-21.001zm77.827 60.569c4.21-10.502 12.695-14.61 25.936-14.61 13.089 0 20.565 5.631 19.417 14.61h-45.353zm37.038 26.936c-5.207 5.175-11.443 7.305-21.334 7.305-16.741 0-21.041-9.131-19.779-15.066h83.701c9.442-41.547-15.026-53.875-51.857-53.875-37.436 0-62.78 16.133-68.894 44.896-6.47 30.438 13.25 45.049 53.275 45.049 17.504 0 31.174-2.742 41.947-7.61 10.776-4.871 18.688-12.024 23.422-20.697h-40.481zm82.068-8.064c-21.583-2.286-26.098-11.111-23.022-25.57 4.171-19.631 24.211-28.002 61.346-28.002 25.873 0 53.328 4.719 49.074 28.307H933.44c.453-2.131.08-3.956-1.792-5.172-1.873-1.219-5.18-2.134-10.811-2.134-11.414 0-14.092 2.589-14.772 5.786-.453 2.13 1.04 4.412 9.096 5.172l35.543 3.197c20.155 1.826 25.975 10.958 22.967 25.109-4.562 21.458-24.873 29.679-65.053 29.679-39.565 0-55.018-8.221-51.769-29.223h44.74c-.254 3.35.969 5.479 3.296 6.697 2.48 1.22 6.22 1.522 10.48 1.522 9.739 0 13.184-2.589 13.989-6.393.519-2.436-.215-4.717-4.072-5.173l-36.325-3.802z"/><path fill="#EEB310" d="M698.619 304.486c-191.097 16.629-218.826 270.068-235.028 307.002 169.716-89.334 231.667 125.292 17.312 157.941-3.114.043-5.41-2.004-5.41-4.802 0-1.972 1.189-3.788 3.064-4.518 129.345-55.538 110.585-172.213-17.253-116.666C427.077 659.42 319.58 857.353 6.846 800.934l-1.093-.185A7.514 7.514 0 010 793.443c0-4.151 3.504-7.514 7.656-7.514 305.807-22.953 366.668-125.662 405.808-260.287 9.875-33.978 27.613-76.424 40.477-108.643 12.91-32.337 29.397-62.949 53.529-89.75 48.359-53.703 111.698-91.542 251.947-98.301 1.757-.006 3.373.875 4.257 2.259 6.504 8.355 32.968 47.533-1.238 112.167 26.167-1.436 53.018-5.652 79.944-7.878a174.141 174.141 0 0119-8.228c60.907-22.168 125.338-6.453 136.673 24.693 11.334 31.145-27.917 84.598-88.824 106.768-60.907 22.167-125.335 6.451-136.67-24.692-5.981-16.43 2.276-38.946 19.552-59.472-15.948 2.828-32.068 5.744-47.888 9.509-18.534 4.411-36.567 9.971-53.358 17.868A4.839 4.839 0 01684 397.55c0-.51.075-1.304.448-2.091 4.265-8.471 17.68-27.461 27.182-44.756 4.736-8.613 8.253-16.6 9.329-22.388.602-5.019 2.444-13.323-.558-17.773-4.35-6.446-14.331-6.517-21.782-6.056z"/><path d="M847.516 365.706l4.947 8.915c2.444 4.411 1.736 8.893-.819 10.309-2.55 1.414-6.728-.36-9.175-4.77l-4.94-8.917c-2.448-4.411-1.737-8.891.812-10.306 2.555-1.416 6.73.359 9.175 4.769zm16.476-10.366l4.944 8.914c2.443 4.412 1.737 8.893-.815 10.309-2.554 1.415-6.731-.36-9.175-4.771l-4.944-8.915c-2.444-4.411-1.737-8.892.819-10.308 2.549-1.414 6.728.359 9.171 4.771zm16.481-10.369l4.944 8.917c2.443 4.411 1.733 8.892-.816 10.306-2.553 1.416-6.73-.357-9.175-4.769l-4.944-8.915c-2.443-4.411-1.737-8.893.816-10.309 2.553-1.415 6.727.361 9.175 4.77z" fill="#FFF"/><path fill="#EEB310" d="M797.181 175.746l-.479 7.489a3.118 3.118 0 01-3.117 2.985c-.479 0-.932-.118-1.338-.311-39.272-19.404-68.596-78.16-72.226-149.416 0-3.848 3.024-6.975 6.843-6.975.994 0 1.906.231 2.794.609a341.368 341.368 0 019.437 4.422c28.392 13.85 52.799 32.924 71.749 50.621 18.832-17.573 43.348-34.545 71.559-48.306 6.231-3.039 11.882-5.656 18.102-8.28a6.882 6.882 0 013.131-.748 6.91 6.91 0 016.658 5.053c3.131 13.568 1.341 33.657-5.875 54.615-3.997 11.602-9.433 22.113-15.024 30.55.283 22.971-5.938 52.32-18.673 82.323-12.613 29.706-29.196 54.373-45.755 70.149-1.308 1.408-3.144 2.332-5.198 2.35H803.67a3.048 3.048 0 01-3.062-3.045c0-1.098.578-2.059 1.446-2.6 10.757-7.039 18.053-14.164 18.789-28.441 1.98-30.668 12.887-57.598 32.102-80.657 8.012-8.1 9.921-24.715 9.921-38.682 0-2.37-.146-4.155-.434-5.72a5.634 5.634 0 00-5.564-4.688 5.617 5.617 0 00-3.339 1.094c-11.529 8.373-26.912 11.064-42.647 11.064-11.222 0-21.886-3.8-31.195-9.289a5.833 5.833 0 00-2.9-.783 5.632 5.632 0 00-5.634 5.621c.025.428.039.839.072 1.229 2.048 23.383 11.704 43.455 24.958 55.412.614.57.998 1.371.998 2.275v.08zM598.844 503.107c-16.866-5.453-29.485-20.766-29.485-39.429s12.474-34.433 29.61-39.441c6.318-1.737 13.564-2.693 21.418-2.733 102.11 2.031 280.248 160.29 39.295 305.067a4.971 4.971 0 01-2.299.579 4.837 4.837 0 01-4.836-4.836c0-1.182.42-2.391 1.302-3.325 90.812-107.296 72.229-146.621 53.235-169.897-29.932-36.677-68.483-35.763-108.24-45.985zm290.1 273.121c-29.646-1.22-229.398-14.73-317.73 56.028-17.121 12.616-32.271 9.76-39.741-.307-7.146-9.631-6.231-24.823 6.288-34.07 79.383-79.523 318.269-49.104 351.206-44.321 6.076.901 10.631 5.439 10.631 11.447 0 6.007-4.72 10.925-10.654 11.223z"/></svg>