<?xml version="1.0" encoding="utf-8"?>
<!-- Generator: Adobe Illustrator 16.0.4, SVG Export Plug-In . SVG Version: 6.00 Build 0)  -->
<!DOCTYPE svg PUBLIC "-//W3C//DTD SVG 1.1//EN" "http://www.w3.org/Graphics/SVG/1.1/DTD/svg11.dtd">
<svg version="1.1" id="Foreground" xmlns="http://www.w3.org/2000/svg" xmlns:xlink="http://www.w3.org/1999/xlink" x="0px" y="0px"
	 width="1000px" height="1000px" viewBox="0 0 1000 1000" enable-background="new 0 0 1000 1000" xml:space="preserve">
<g>
	<path fill-rule="evenodd" clip-rule="evenodd" fill="#007C66" d="M988.191,858.026c-3.003,0-5.635,1.07-7.715,3.154
		c-2.147,2.143-3.34,4.96-3.34,7.903c0,2.906,1.13,5.635,3.214,7.748c2.114,2.143,4.9,3.336,7.841,3.336
		c2.88,0,5.663-1.134,7.84-3.248c2.114-2.051,3.247-4.774,3.247-7.836c0-2.973-1.104-5.667-3.154-7.748
		C993.98,859.159,991.223,858.026,988.191,858.026z M988.221,859.647c2.603,0,4.901,0.981,6.74,2.817
		c1.777,1.811,2.692,4.108,2.692,6.771c0,2.479-0.978,4.808-2.755,6.522c-1.865,1.81-4.228,2.757-6.83,2.757
		c-2.387,0-4.745-1.011-6.552-2.82c-1.777-1.804-2.728-4.131-2.728-6.611c0-2.481,1.011-4.871,2.847-6.738
		C983.412,860.566,985.648,859.647,988.221,859.647z M983.689,862.68v12.404h2.666v-5.175h1.928l2.45,5.175h2.97l-2.755-5.604
		c1.777-0.396,2.755-1.622,2.755-3.429c0-2.177-1.744-3.372-5.238-3.372H983.689z M986.355,864.367h1.621
		c2.024,0,3.002,0.581,3.002,1.988c0,1.352-0.918,1.899-2.88,1.899h-1.743V864.367z"/>
	<path fill="#007C66" d="M0.306,860.153h41.547l-0.104,66.354h0.306l30.083-66.354h34.242l1.722,66.354h0.304l28.105-66.354h41.547
		l-54.905,108.66H80.999l-1.952-60.267h-0.304L51.02,968.813H8.863L0.306,860.153z"/>
	<path fill="#007C66" d="M241.98,934.571c-3.04,14.304-17.872,17.501-30.656,17.501c-9.436,0-13.377-3.652-12.147-9.436
		c1.131-5.327,4.965-7.609,12.096-8.217c13.802-1.219,24.801-2.13,31.484-3.501L241.98,934.571z M209.286,910.829
		c3.541-8.065,12.506-9.433,21.18-9.433c10.806,0,17.104,2.587,15.94,8.065c-0.971,4.563-3.947,6.391-11.653,6.847l-32.434,1.522
		c-28.414,1.218-41.29,10.957-44.524,26.176c-4.528,21.306,10.147,28.156,35.715,28.156c20.24,0,33.953-3.653,44.158-11.566
		c-0.495,3.041-0.621,5.783-0.378,8.217h38.959c-1.244-2.738-2.109-6.542-0.75-12.937l8.539-40.177
		c5.274-24.806-8.253-33.481-47.061-33.481c-20.088,0-34.26,1.522-44.45,5.783c-10.374,4.415-16.58,11.414-21.287,22.827H209.286z"
		/>
	<path fill="#007C66" d="M314.611,856.35h38.046L328.75,968.813h-38.046L314.611,856.35z"/>
	<path fill="#007C66" d="M370.919,856.35h38.046l-23.907,112.464h-38.046L370.919,856.35z"/>
	<path fill="#007C66" d="M486.997,934.571c-3.042,14.304-17.874,17.501-30.658,17.501c-9.436,0-13.376-3.652-12.147-9.436
		c1.133-5.327,4.965-7.609,12.096-8.217c13.803-1.219,24.802-2.13,31.485-3.501L486.997,934.571z M454.3,910.829
		c3.541-8.065,12.505-9.433,21.181-9.433c10.805,0,17.103,2.587,15.938,8.065c-0.968,4.563-3.944,6.391-11.65,6.847l-32.436,1.522
		c-28.413,1.218-41.289,10.957-44.524,26.176c-4.528,21.306,10.147,28.156,35.715,28.156c20.242,0,33.952-3.653,44.158-11.566
		c-0.496,3.041-0.621,5.783-0.376,8.217h38.959c-1.245-2.738-2.11-6.542-0.75-12.937l8.538-40.177
		c5.274-24.806-8.254-33.481-47.062-33.481c-20.088,0-34.26,1.522-44.449,5.783c-10.373,4.415-16.581,11.414-21.289,22.827H454.3z"
		/>
	<path fill="#007C66" d="M582.498,927.723c2.494-11.719,10.252-18.872,25.015-18.872c13.696,0,18.95,8.221,16.686,18.872
		c-2.329,10.957-10.097,18.87-24.859,18.87C584.729,946.593,579.976,939.595,582.498,927.723z M535.721,968.813h36.827l1.876-8.828
		h0.305c5.168,7.917,14.762,12.178,31.654,12.178c24.655,0,50.211-13.545,56.776-44.44c6.565-30.894-13.23-44.438-37.885-44.438
		c-15.522,0-27.29,3.805-35.513,11.718h-0.308l8.217-38.653h-38.047L535.721,968.813z"/>
	<path fill="#007C66" d="M685.815,885.566h38.046l-17.696,83.247h-38.046L685.815,885.566z M692.024,856.35h38.046l-4.461,21.001
		h-38.047L692.024,856.35z"/>
	<path fill="#007C66" d="M769.851,916.919c4.21-10.502,12.695-14.61,25.936-14.61c13.089,0,20.565,5.631,19.417,14.61H769.851z
		 M806.889,943.855c-5.207,5.175-11.443,7.305-21.334,7.305c-16.741,0-21.041-9.131-19.779-15.066h83.701
		c9.442-41.547-15.026-53.875-51.857-53.875c-37.436,0-62.78,16.133-68.894,44.896c-6.47,30.438,13.25,45.049,53.275,45.049
		c17.504,0,31.174-2.742,41.947-7.61c10.776-4.871,18.688-12.024,23.422-20.697H806.889z"/>
	<path fill="#007C66" d="M888.957,935.791c-21.583-2.286-26.098-11.111-23.022-25.57c4.171-19.631,24.211-28.002,61.346-28.002
		c25.873,0,53.328,4.719,49.074,28.307h-42.915c0.453-2.131,0.08-3.956-1.792-5.172c-1.873-1.219-5.18-2.134-10.811-2.134
		c-11.414,0-14.092,2.589-14.772,5.786c-0.453,2.13,1.04,4.412,9.096,5.172l35.543,3.197c20.155,1.826,25.975,10.958,22.967,25.109
		c-4.562,21.458-24.873,29.679-65.053,29.679c-39.565,0-55.018-8.221-51.769-29.223h44.74c-0.254,3.35,0.969,5.479,3.296,6.697
		c2.48,1.22,6.22,1.522,10.48,1.522c9.739,0,13.184-2.589,13.989-6.393c0.519-2.436-0.215-4.717-4.072-5.173L888.957,935.791z"/>
	<g>
		<path fill="#EEB310" d="M698.619,304.486c-191.097,16.629-218.826,270.068-235.028,307.002
			c169.716-89.334,231.667,125.292,17.312,157.941c-3.114,0.043-5.41-2.004-5.41-4.802c0-1.972,1.189-3.788,3.064-4.518
			c129.345-55.538,110.585-172.213-17.253-116.666C427.077,659.42,319.58,857.353,6.846,800.934l-1.093-0.185
			C2.451,799.956,0,796.987,0,793.443c0-4.151,3.504-7.514,7.656-7.514c305.807-22.953,366.668-125.662,405.808-260.287
			c9.875-33.978,27.613-76.424,40.477-108.643c12.91-32.337,29.397-62.949,53.529-89.75
			c48.359-53.703,111.698-91.542,251.947-98.301c1.757-0.006,3.373,0.875,4.257,2.259c6.504,8.355,32.968,47.533-1.238,112.167
			c26.167-1.436,53.018-5.652,79.944-7.878c6.034-3.052,12.375-5.815,19-8.228c60.907-22.168,125.338-6.453,136.673,24.693
			c11.334,31.145-27.917,84.598-88.824,106.768c-60.907,22.167-125.335,6.451-136.67-24.692
			c-5.981-16.43,2.276-38.946,19.552-59.472c-15.948,2.828-32.068,5.744-47.888,9.509c-18.534,4.411-36.567,9.971-53.358,17.868
			c-0.614,0.283-1.313,0.447-2.026,0.447c-2.673,0-4.839-2.167-4.839-4.839c0-0.51,0.075-1.304,0.448-2.091
			c4.265-8.471,17.68-27.461,27.182-44.756c4.736-8.613,8.253-16.6,9.329-22.388c0.602-5.019,2.444-13.323-0.558-17.773
			C716.051,304.096,706.07,304.025,698.619,304.486z"/>
		<g>
			<path fill="#FFFFFF" d="M847.516,365.706l4.947,8.915c2.444,4.411,1.736,8.893-0.819,10.309c-2.55,1.414-6.728-0.36-9.175-4.77
				l-4.94-8.917c-2.448-4.411-1.737-8.891,0.812-10.306C840.896,359.521,845.071,361.296,847.516,365.706z"/>
			<path fill="#FFFFFF" d="M863.992,355.34l4.944,8.914c2.443,4.412,1.737,8.893-0.815,10.309c-2.554,1.415-6.731-0.36-9.175-4.771
				l-4.944-8.915c-2.444-4.411-1.737-8.892,0.819-10.308C857.37,349.155,861.549,350.928,863.992,355.34z"/>
			<path fill="#FFFFFF" d="M880.473,344.971l4.944,8.917c2.443,4.411,1.733,8.892-0.816,10.306c-2.553,1.416-6.73-0.357-9.175-4.769
				l-4.944-8.915c-2.443-4.411-1.737-8.893,0.816-10.309C873.851,338.786,878.025,340.562,880.473,344.971z"/>
		</g>
		<g>
			<path fill="#EEB310" d="M797.181,175.746l-0.479,7.489c-0.069,1.661-1.439,2.985-3.117,2.985c-0.479,0-0.932-0.118-1.338-0.311
				c-39.272-19.404-68.596-78.16-72.226-149.416c0-3.848,3.024-6.975,6.843-6.975c0.994,0,1.906,0.231,2.794,0.609
				c3.145,1.414,6.288,2.889,9.437,4.422c28.392,13.85,52.799,32.924,71.749,50.621c18.832-17.573,43.348-34.545,71.559-48.306
				c6.231-3.039,11.882-5.656,18.102-8.28c0.941-0.479,2.005-0.748,3.131-0.748c3.174,0,5.85,2.139,6.658,5.053
				c3.131,13.568,1.341,33.657-5.875,54.615c-3.997,11.602-9.433,22.113-15.024,30.55c0.283,22.971-5.938,52.32-18.673,82.323
				c-12.613,29.706-29.196,54.373-45.755,70.149c-1.308,1.408-3.144,2.332-5.198,2.35H803.67c-1.691,0-3.062-1.354-3.062-3.045
				c0-1.098,0.578-2.059,1.446-2.6c10.757-7.039,18.053-14.164,18.789-28.441c1.98-30.668,12.887-57.598,32.102-80.657
				c8.012-8.1,9.921-24.715,9.921-38.682c0-2.37-0.146-4.155-0.434-5.72c-0.445-2.666-2.771-4.688-5.564-4.688
				c-1.248,0-2.404,0.406-3.339,1.094c-11.529,8.373-26.912,11.064-42.647,11.064c-11.222,0-21.886-3.8-31.195-9.289
				c-0.873-0.497-1.856-0.783-2.9-0.783c-3.11,0-5.627,2.515-5.634,5.621c0.025,0.428,0.039,0.839,0.072,1.229
				c2.048,23.383,11.704,43.455,24.958,55.412c0.614,0.57,0.998,1.371,0.998,2.275V175.746z"/>
		</g>
		<path fill="#EEB310" d="M598.844,503.107c-16.866-5.453-29.485-20.766-29.485-39.429s12.474-34.433,29.61-39.441
			c6.318-1.737,13.564-2.693,21.418-2.733c102.11,2.031,280.248,160.29,39.295,305.067c-0.677,0.36-1.486,0.579-2.299,0.579
			c-2.668,0-4.836-2.164-4.836-4.836c0-1.182,0.42-2.391,1.302-3.325c90.812-107.296,72.229-146.621,53.235-169.897
			C677.152,512.415,638.601,513.329,598.844,503.107z"/>
		<path fill="#EEB310" d="M888.944,776.228c-29.646-1.22-229.398-14.73-317.73,56.028c-17.121,12.616-32.271,9.76-39.741-0.307
			c-7.146-9.631-6.231-24.823,6.288-34.07c79.383-79.523,318.269-49.104,351.206-44.321c6.076,0.901,10.631,5.439,10.631,11.447
			C899.598,771.012,894.878,775.93,888.944,776.228z"/>
	</g>
</g>
</svg>
