<svg xmlns="http://www.w3.org/2000/svg" width="726.25" height="800"><path d="M426.225 496.924c-14.936 1.539-30.595 2.789-46.64 3.891.098-23.008.195-47.934.195-75.361 0-.528-.097-1.104-.097-1.821.576.043 1.2.19 1.68.24-.29 2.928-.382 6.245-.382 9.267-.385 18.203 6.388 38.666 22.334 54.179 6.388 6.436 14.459 9.561 22.72 9.605h.19c1.201 0 2.066-.093 3.072-.19h.195c1.104-.191 1.968-.24 3.072-.479 4.613-1.011 9.272-3.266 13.207-6.391 7.593-6.29 11.626-15.176 11.529-24.4 0-.093.097-.333 0-.479 6.87 8.023 12.006 16.524 15.274 25.504-12.872 1.875-26.27 3.989-40.059 5.717-1.104.239-1.968.288-3.071.479h-.192c-.96.146-1.826.239-3.027.239zM329.009 107.25l-44.473-1.055h-.386c-18.11.049-32.851 14.458-33.046 32.9.097 3.316.287 5.284.863 8.023l.195.816a46.668 46.668 0 011.583 5.282l-.19-.097c-9.273 1.489-18.491 3.94-27.28 6.342 5.234-15.658 14.262-29.203 26.269-40.732 19.692-18.633 47.07-30.546 77.666-30.546 7.974 0 15.756.912 23.345 2.738-8.599 4.947-16.954 10.42-24.546 16.33m-79.824 152.162c7.588-3.028 15.371-5.38 23.246-7.734 1.202 9.076 2.447 18.589 3.555 28.002-10.087-5.425-19.116-12.392-26.801-20.268m37.993 242.266c-25.313-1.729-46.832-5.044-64.653-9.795 5.331-15.371 16.044-29.444 31.509-41.695 9.272-7.153 20.077-13.398 32.28-18.105.669 21.181.956 41.977.956 61.191 0 2.979-.092 5.474-.092 8.404M424.59 242.315c-2.256 3.651-4.897 7.109-7.681 10.854-9.174.913-16.045 4.995-20.751 8.598-3.843 3.267-6.675 6.1-9.464 9.03v-31.46c13.257.433 25.796 1.488 37.896 2.978M135.205 426.611c-4.032-10.664-5.712-21.952-5.712-33.194.092-13.11 2.733-26.22 8.066-39.047.097 4.419.097 8.501.097 12.681 0 20.318-.863 40.536-2.451 59.56m590.059 50.958l-12.583-37.032c-2.256-6.533-6.963-11.528-13.208-14.17-6.007-2.592-13.115-2.446-19.214.195-30.884 14.84-67.149 29.537-110.615 42.364 1.685-12.827 5.331-24.835 11.001-35.591 4.511-8.409 3.266-18.926-3.027-26.035-29.347-34.82-64.17-57.446-97.07-74.209 19.017-19.019 34.34-41.782 44.667-67.53l2.354.963c.482 22.187 3.652 47.695 12.104 70.121 4.897 12.154 11.528 24.161 21.66 34.057 10.235 9.992 25.025 16.715 41.07 16.568 9.267-.093 18.202-1.005 27.04-6.773 8.838-5.233 14.648-16.473 14.937-25.692l.098-.963s.092-.287.092-1.25c-.19-8.978-3.456-15.223-6.386-19.452-1.392-1.729-2.74-3.599-3.843-5.665 10.326 8.404 19.693 16.475 28.149 24.492 5.522 5.382 13.209 7.3 20.65 6.104 7.592-1.489 13.784-6.582 17.006-13.642l16.231-36.07c3.75-8.072 2.55-17.245-2.832-24.258-22.236-28.34-47.549-51.729-75.889-70.556 7.974-14.024 17.242-26.944 25.313-36.695 7.11-7.973 7.685-19.79 1.293-28.725l-46.157-64.551c-6-7.924-16.137-11.768-25.889-8.789-1.196.381-13.876 3.506-31.312 3.457-6.773.19-25.313-3.027-45.773-6.626v-1.011c0-3.12-.385-8.451-3.266-14.17-2.836-5.761-7.88-10.229-12.104-12.441C450.864 15.996 389.047.19 334.2 0c-65.756 0-126.176 23.247-173.154 61.767l-63.589-2.88-1.108-.05c-6.578 0-14.55 1.778-21.563 7.638-7.011 5.907-10.615 16.186-10.327 23.871 0 5.763 1.392 8.691 2.066 11.045 1.104 2.74 2.065 4.278 3.071 6.245 18.012 29.493 32.949 63.594 44.286 101.011-36.888 23.58-71.376 54.42-103.745 91.74C3.94 307.684 0 315.996 0 327.09c0 9.99 3.364 18.154 8.647 25.166 9.844 12.92 15.03 29.78 15.03 49.663.195 10.473-4.322 31.172-10.034 43.232-3.653 6.436-5.62 13.448-5.62 21.47 0 10.229 3.555 19.931 9.556 27.661 23.73 30.068 53.745 53.267 88.666 71.04-9.654 27.28-21.279 52.255-34.824 74.878-3.07 4.902-4.707 10.186-4.805 16.426 0 3.604.963 7.974 3.027 12.441 2.163 4.61 5.718 9.127 10.426 11.817 6.288 4.272 11.527 4.419 15.658 4.467 5.137-.048 8.833-.722 13.013-2.592h.195l68.106-29.35c24.399 18.783 53.169 33.046 85.064 42.797-5.43 18.013-11.529 33.09-17.915 44.765-2.451 4.946-3.653 10.279-3.653 15.128-.097 11.289 6.1 22.48 17.05 28.291a32.82 32.82 0 0014.747 3.456c.962 0 1.777 0 3.168-.14 18.78-1.681 34.728-7.35 49.424-15.035 9.273 6.822 18.111 12.441 27.666 17.339 13.98 6.338 29.014 9.99 44.957 9.99h.484c7.202 0 14.55-.625 22.236-1.875l1.201-.239c14.555-3.027 24.399-15.083 24.59-29.825-.094-9.946-4.131-17.626-10.42-23.246-10.138-9.034-22.433-22.672-32.853-37.515 38.087-5.186 73.243-16.714 103.648-33.624 42.222-23.437 75.601-56.816 93.086-97.549 1.49-3.89 2.256-8.066 1.49-12.343 53.549-21.612 92.89-44.957 114.839-58.643 8.935-5.864 13.066-17.197 9.414-27.572"/><path d="M690.01 432.709a15.22 15.22 0 00-6.244 1.539c-31.75 14.986-69.836 30.16-114.602 43.129 0 1.539-.096 2.93-.096 4.13 0 3.76.196 7.465.569 11.112 41.553-11.56 82.141-26.654 121.002-45.379l12.99 38.42c-35.301 22.032-72.444 41.158-111.088 56.621-1.142.458-2.287.911-3.432 1.364a106.95 106.95 0 006.233 7.794c1.295 1.153 2.256 3.03 3.17 4.66 52.543-21.034 91.258-44.234 112.777-57.876 6.001-3.653 8.642-11.241 6.387-17.916l-12.778-37.221c-1.39-4.088-4.51-7.255-8.642-9.174a14.538 14.538 0 00-6.246-1.203zm-56.485-211.864c27.379 18.251 51.969 40.874 73.535 68.154a15.852 15.852 0 011.875 15.996l-16.332 36.216c-1.968 4.609-6.29 7.685-11.045 8.789-4.805 1.011-10.04-.527-13.497-3.985-12.011-11.191-25.697-23.105-41.45-34.726-4.995-13.451-7.881-29.106-7.782-42.51-.192-12.104 5.331-29.873 14.168-46.973.05-.482.338-.864.528-.961" fill="#fff"/><path d="M678.442 335.428c-18.192-17.234-37.733-33.066-58.534-47.048-1.293-7.77-1.905-15.681-1.489-23.554.868-10.67 4.33-20.93 8.397-30.765 25.996 17.773 49.177 39.6 68.722 64.278l-16.841 37.33-.255-.24z"/><path d="M205.958 351.919c0 9.272-.387 18.784-.674 28.199 13.11-11.388 28.627-21.33 45.966-29.395-17.534-8.935-32.856-20.654-46.542-34.727.477 11.909 1.25 23.917 1.25 35.923" fill="#fff"/><path d="M207.735 351.68c0 8.745-.289 17.675-.576 26.514 12.104-10.709 26.269-20.03 42.119-27.618-16.04-8.404-30.113-19.404-42.603-32.661.484 11.191 1.06 22.48 1.06 33.765z" fill="none"/><path d="M513.496 79.541c-.386 1.533-.963 2.686-1.49 3.31v.098a165.126 165.126 0 00-4.049 10.842c14.918 2.517 29.757 5.637 44.791 7.313 8.272.864 16.62.374 24.889-.372 6.943-.702 13.881-1.773 20.63-3.558.712-.393 1.37.3 1.628.908 15.23 21.204 30.462 42.408 45.693 63.611-13.214 15.75-24.69 32.964-33.96 51.317-6.854 13.697-12.476 28.182-14.898 43.36-1.153 7.265-1.199 14.653-.636 21.968 1.296 18.016 5.751 35.877 13.533 52.203a109.045 109.045 0 0010.537 17.545c1.946 3.28 1.527 7.68-.846 10.635-2.628 3.333-6.91 4.75-10.968 5.345-2.154.321-4.336.42-6.512.407-8.53-.006-16.954-3.335-23.299-9.016-7.55-6.606-12.648-15.52-16.441-24.697-5.752-14.056-8.677-29.094-10.397-44.13-2.259-20.21-1.846-40.679.785-60.833 2.191-17.203 5.628-34.256 10.381-50.936-.08-.588-1.034-.906-1.447-1.39-19.348-15.476-39.825-29.82-62.258-40.479a252.1 252.1 0 00-1.516 15.807c13.497 6.582 28.242 16.234 45.053 28.72 1.104.913 2.068 1.877 3.268 2.643-3.94 15.518-10.425 46.303-10.524 79.35v1.392h.051c0 3.028.098 5.859.195 9.028.67 20.703 3.935 43.662 11.524 63.642 4.706 11.621 10.711 22.72 19.695 31.123 8.931 8.838 21.563 14.796 35.446 14.6 8.26-.093 15.751-1.534 22.431-5.621 6.865-4.174 11.143-12.583 11.334-19.356l.098-.625v-1.103c0-6.533-2.544-11.283-4.805-14.838-13.207-17.388-20.846-45.439-20.846-69.072 0-14.214 5.811-32.9 15.034-50.528 9.175-17.866 21.037-34.77 31.125-46.494 4.516-5.332 4.993-13.013.77-18.828l-46.163-64.697c-3.837-5.138-10.609-7.3-17-5.473h-.289c-2.255.576-15.175 3.94-33.188 3.94-8.355.043-26.944-3.511-47.359-7.061zM240.775 262.63c-3.647 1.827-7.392 3.03-11.045 4.948-.962.452-1.915.913-2.867 1.375 13.86 16.448 31.922 29.163 51.793 37.307a1531.15 1531.15 0 00-1.713-17.067c-13.785-6.722-25.981-15.61-36.168-26.562zm-35.37 54.651c.631 15.703 1.427 31.423.865 47.14-.127 4.86-.301 9.72-.452 14.579l.393-.336c13.281-11.257 28.191-20.516 43.91-27.963-16.6-8.6-31.69-20.028-44.717-33.42zm-46.737 3.03c-5.112 6-9.595 12.132-13.375 18.308-.168.356-.09.235.002.07.475 9.44.385 19.117.385 28.41 0 114.986-25.7 207.59-67.63 277.233-2.162 3.653-3.46 7.732-3.552 12.488-.098 5.474 2.641 13.063 9.75 17.389 4.273 2.735 8.115 3.12 11.143 3.168 3.745-.049 6.674-.722 9.941-2.113l72.719-31.026c24.111 19.117 53.458 34.58 86.021 44.473a419.644 419.644 0 003.785-14.316c-30.68-9.639-59.952-24.513-84.61-45.295a203.278 203.278 0 01-2.554-2.194c-27.302 11.678-54.603 23.354-81.904 35.033-2.133.77-4.7.922-6.697-.293-2.435-1.726-2.961-5.166-2.059-7.86.844-2.49 2.579-4.532 3.76-6.848 29.727-51.002 48.102-108.053 57.832-166.11 6.757-40.444 9.507-81.51 8.982-122.506-.237-12.687-.975-25.36-1.939-38.011zm126.764 87.56c-23.285 8.06-45.145 21.05-61.938 39.24-12.96 14.002-22.638 31.375-26.264 50.202-3.527 17.995-1.43 37.014 5.788 53.88 8.39 19.815 23.1 36.476 40.459 48.995 10.784 7.796 22.634 14.086 35.011 18.933.467-3.322.908-6.676 1.291-10.092.48-1.68.67-3.507.768-4.898-11.719-4.995-22.237-11.045-31.41-18.3-24.787-19.02-38.76-44.235-38.76-71.036 0-26.851 13.973-51.875 38.76-71.133 10.517-7.832 23.007-14.94 36.888-20.176a2139.18 2139.18 0 00-.593-15.615z" fill="#fff"/><path d="M255.668 160.664c-92.7 17.769-170.555 65.321-239.578 145.004-4.995 5.62-8.067 12.682-8.262 21.422.097 7.974 2.738 14.65 6.967 20.078 11.191 14.649 16.812 33.618 16.812 54.799.093 12.202-4.376 33.96-11.148 47.021-2.93 5.143-4.42 11.192-4.42 17.725 0 8.55 2.887 16.333 7.686 22.672 22.671 28.676 51.3 51.348 85.064 68.638a494.671 494.671 0 004.684-14.722c-27.109-14.155-52.09-32.772-72.174-55.926-2.317-2.718-4.707-5.398-6.756-8.326-3.426-5.291-4.552-12.032-2.854-18.121.975-3.752 3.123-7.038 4.512-10.625 4.78-11.415 7.744-23.531 9.373-35.778 1.43-11.05.973-22.28-.822-33.267-2.684-16.154-8.931-31.898-19.156-44.78-3.34-4.889-3.656-11.542-1.06-16.828 1.78-3.844 5.018-6.7 7.698-9.892 29.9-33.534 63.943-63.703 102.502-86.95 30.605-18.507 63.942-32.464 98.578-41.369a402.392 402.392 0 0125.934-5.785 561.634 561.634 0 00-3.58-14.99zm13.49 67.932c-34.917 9.678-68.57 25.042-97.328 47.256-19.569 15.154-36.827 33.664-48.857 55.394-10.287 18.54-16.438 39.549-16.602 60.815-.242 19.181 3.87 38.558 12.89 55.578a108.627 108.627 0 0011.419 17.343 600.253 600.253 0 002.797-22.283c-8.93-15.85-12.006-32.611-12.104-49.281-.094-41.738 24.974-82.038 68.973-112.438 22.525-15.756 50.097-28.676 80.982-37.705a1043.18 1043.18 0 00-2.17-14.68zm112.976 186.965c-.674-.049-1.201-.287-2.065-.336.19-3.023.576-5.909 1.104-8.311.575 2.597 1.01 5.717.96 8.217v.43" fill="#fff"/><path d="M426.225 496.924c2.066 0 4.322-.288 6.388-.718-2.017.288-4.224.479-6.388.718" fill="#a7acb2"/><path d="M433.525 243.086a196.517 196.517 0 01-6.675 10.518c4.991.782 9.904 3.155 13.795 5.99 3.133-4.482 6.062-9.11 8.52-13.994-5.132-.9-10.341-1.74-15.64-2.514zm69.797 15.336c-11.502 27.185-29.741 51.45-52.467 70.262-.14.073-.265.206-.414.271a69.976 69.976 0 01-5.386 8.555c-.783.982-1.497 2.153-2.131 3.35.358.101.752.387 1.06.476 27.215 12.19 53.885 26.109 77.614 44.31 14.193 10.862 27.298 23.174 38.8 36.862-10.782 20.248-15.681 43.482-14.357 66.342 1.372 24.663 10.046 48.893 24.635 68.867a130.77 130.77 0 007.428 9.29c-10.796 25.55-28.984 47.503-50.465 64.833-29.394 23.691-64.739 39.316-101.381 47.816-12.184 2.82-24.548 4.846-36.988 6.117 2.425 4.53 5.173 9.218 8.04 13.602 90.347-11.289 165.321-59.028 194.575-126.318 2.157-5.43 1.293-11.867-2.74-16.237-17.627-20.176-28.24-46.396-28.24-75.312 0-18.686 4.515-36.265 12.581-51.729 2.838-5.668 2.066-12.537-1.966-17.097-31.655-37.18-69.743-60.328-105.094-77.38 22.045-20.077 39.53-44.38 51.058-72.193a354.765 354.765 0 00-14.162-4.687zM397.311 699.375c-.48-.527.287.435 0 0zm49.77-273.5a15.288 15.288 0 00-1.212 5.97c-.097 4.61 1.968 10.23 6.098 15.993.097.146.29.385.484.723 20.938 18.392 32.95 41.639 32.95 66.185 0 26.85-14.17 52.017-38.858 71.035-18.013 13.98-41.26 24.257-67.725 28.627-.03 6.054-.074 10.413-.115 15.192 27.359-4.347 54.036-14.645 76.172-31.467 16.988-12.905 31.21-29.96 38.908-49.975 6.636-17.109 8.069-36.213 3.873-54.105-4.011-17.304-13.052-33.25-24.992-46.35-7.553-8.332-16.23-15.603-25.584-21.828zM334.102 8.453c-64.937 0-124.4 23.343-170.46 62.006L96.83 67.051h-.672c-5.186-.049-11.002 1.251-16.236 5.67-5.045 4.511-7.779 11.717-7.588 17.767.097 4.038 1.011 6.148 1.777 8.262a36.471 36.471 0 002.256 4.994c17.915 29.301 33.143 63.404 44.574 100.436a416.156 416.156 0 0113.227-7.772c-11.297-35.06-26.03-69.095-45.074-100.67-1.256-2.134-2.181-4.653-1.656-7.152.364-2.715 2.357-5.161 5.023-5.898 3.194-1.008 6.578-.241 9.838-.245l66.498 3.073c31.146-27.427 69.201-46.972 109.695-56.108 25.815-5.87 52.549-7.488 78.908-5.166 28.082 2.388 55.831 8.463 82.426 17.768 17.205 6.057 33.951 13.542 49.621 22.906 2.634 1.825 3.407 5.718 1.852 8.484-1.395 2.784-2.385 5.748-3.512 8.643-8.369 22.713-12.416 46.884-13.285 71.021.033.164.024.368-.008.565 4.937.784 9.827 1.61 14.65 2.47.674-23.296 4.708-50.576 15.514-76.177.961-1.87 2.066-4.223 2.256-9.219 0-2.5-.287-6.245-2.353-10.277-2.017-4.419-5.664-7.399-9.028-9.274C448.561 23.775 387.37 8.551 334.102 8.453zm-5.758 56.988c-21.974.299-43.882 5.766-63.252 16.202-23.196 12.42-42.73 31.936-54.492 55.539a120.671 120.671 0 00-10.303 29.724 370.625 370.625 0 0116.705-5.236c5.234-18.394 15.757-35.108 30.02-48.799 21.083-19.931 50.528-32.66 83.189-32.66 49.375 0 91.308 28.818 108.744 68.877a493.34 493.34 0 0116.467 1.812c-8.51-24.65-25.342-46.135-46.664-61.015-20.763-14.575-45.704-22.963-71-24.254a139.725 139.725 0 00-9.414-.19z" fill="#fff"/><path d="M418.3 155.14c-1.103 1.056-2.163 2.16-3.364 3.264-3.162 3.102-6.3 6.825-9.395 11.08 42.32 2.463 84.632 8.319 125.355 20.348 1.4.412 2.795.838 4.19 1.266a426.135 426.135 0 011.707-7.715c-6.099-4.516-11.915-8.598-17.438-12.25-31.22-7.974-64.937-13.062-101.054-15.992zm-31.507 60.903v15.178c54.609 1.87 101.052 11.958 140.437 26.656.05-5.234.265-10.397.592-15.453-45.145-16.377-93-24.506-140.902-26.358-.049 0-.085-.015-.127-.023z" fill="#fff"/><path d="M365.176 93.756c-12.008 6.294-23.438 13.83-33.57 21.805l-47.026-1.25h-.38c-13.643.097-24.689 10.855-24.884 24.687 0 2.403.29 4.469.577 5.861l.195.625c21.47 76.225 31.412 186.454 34.244 283.768.723 22.335 1.01 43.847 1.01 64.023v8.887c4.804.123 9.75.278 14.869.379.164-62.032-2.052-124.09-7.393-185.896-3.642-41.67-8.693-83.256-16.59-124.342-3.303-17.13-7.193-34.146-11.867-50.955-.538-2.995.093-6.284 2.17-8.582 2.194-2.551 5.695-3.768 9.01-3.407l51.363 1.118c14.156-11.733 29.95-21.44 46.657-29.092a111.642 111.642 0 00-18.385-7.63zm51.465 34.357c-12.721 7.106-22.94 17.94-31.23 29.782-8.778 12.56-15.684 26.34-21.753 40.382.051 35.03.03 70.062.13 105.092.18 3.923 1.556 8.089 4.741 10.584 3.158 2.552 7.764 2.548 11.313.852 5.362-2.4 8.87-7.364 12.1-12.065 5.267-7.574 10.158-15.595 17.052-21.842 3.1-2.75 6.949-5.177 11.238-5.113 4.144.098 7.918 2.64 10.172 6.024 3.98 5.647 5.05 12.857 4.403 19.615-.675 7.302-3.036 14.493-7.041 20.65-1.918 2.736-3.974 5.39-5.48 8.387-3.446 6.397-5.694 13.793-4.667 21.086.687 4.725 3.037 9.146 6.387 12.55 6.157 7.05 9.726 16.341 9.646 25.72.016 8.935-2.876 17.632-7.02 25.464-3.85 7.953-4.819 17.228-2.81 25.801 1.636 7.372 5.152 14.215 9.385 20.438 2.036 3.634.86 8.74-2.709 10.968-3.362 2.283-8.251 1.402-10.902-1.58-7.616-7.43-13.006-17.195-14.813-27.71-1.35-7.47-.991-15.154.18-22.612 1.031-9.971-.825-20.222-5.258-29.23-2.857-5.7-7.085-11.056-13.033-13.702-6.015-2.612-13.604-1.607-18.436 2.996-4.567 4.23-6.935 10.246-8.517 16.145-3.045 11.605-3.086 23.684-3.026 35.617-.014 23.174-.087 46.348-.093 69.522 5.04-.2 10.045-.44 15.017-.733 0-22.959.092-48.222.092-75.79-.093-10.567 1.103-21.806 3.555-27.954 1.01-3.365 2.5-5.094 3.076-5.383.479-.527.19-.527 1.582-.625.674.098 1.01.099 1.875.768 1.586.724 4.033 3.941 5.713 8.219 1.972 4.37 2.933 9.842 2.836 14.789 0 1.727-.19 3.602-.287 4.902-.577 4.321-.963 8.644-.963 13.014-.19 16.473 5.62 34.296 19.884 48.32 4.853 4.707 10.859 7.206 17.055 7.348 4.995 0 10.322-1.777 14.74-5.284 5.528-4.516 8.46-11.143 8.46-18.013 0-4.322-1.49-9.029-4.04-12.68-4.462-6.772-7.393-14.312-7.3-20.937 0-3.555.864-7.158 2.93-11.674 5.14-10.04 7.876-20.27 7.876-30.26.098-14.219-5.522-27.182-14.453-36.934-1.586-1.972-1.776-2.788-1.875-4.994-.19-3.794 2.832-11.001 6.387-15.42 6.724-9.126 11.142-21.036 11.43-34.488 0-9.746-2.593-20.986-11.333-29.395l-.962-.912c-4.61-4.033-11.332-6.914-17.723-6.914-8.165.05-14.362 3.94-18.97 7.348-6.773 5.571-11.53 12.105-15.85 18.062-2.452 3.505-4.805 6.865-6.676 9.604l-.098-94.717c9.219-20.507 19.358-37.516 30.598-48.658 5.331-5.088 10.706-8.978 16.326-12.006a104.66 104.66 0 00-8.861-12.424zM288.52 607.252c-.19.82-.288 1.777-.385 2.5-7.686 58.789-20.938 105.71-36.793 135.252-1.968 3.555-2.733 7.109-2.733 11.094-.097 8.26 4.511 16.763 12.582 20.943 3.843 1.968 7.399 2.5 11.002 2.5.864 0 1.582 0 2.733-.195 19.502-1.344 35.353-7.686 50.865-16.524 10.234 8.36 19.887 14.942 30.404 19.694 12.78 6.244 26.564 9.125 41.451 9.125h.29c6.87 0 13.686-.43 21.181-1.49h.672c10.708-2.306 17.916-11.142 18.106-22.046-.24-7.2-3.358-13.11-8.022-17.142-12.772-11.192-28.433-29.64-40.342-48.274-11.816-18.25-19.312-37.802-19.117-47.021 0-9.703.19-22.622.29-39.867-4.822.634-9.836 1.08-14.92 1.324-.051 13.497-.17 27.006-.046 40.496.57 9.892 3.969 19.378 7.942 28.39 6.854 15.25 15.975 29.407 26.03 42.723 9.2 12.112 19.34 23.548 30.755 33.621 2.285 2.066 3.234 5.55 2.04 8.43-1.135 2.898-4.2 4.697-7.241 4.82-5.92.827-11.89 1.339-17.871 1.319-12.269.044-24.56-2.647-35.594-8.04-12.74-6.1-23.982-14.821-34.805-23.794-12.282 7.467-25.27 14.233-39.398 17.383-5.167 1.158-10.43 1.982-15.723 2.195-3.254-.128-6.582-2.01-7.76-5.156-1.174-2.838-.625-6.163.992-8.713 10.551-20.462 17.783-42.46 23.63-64.674 6.384-24.494 10.863-49.455 14.185-74.541a186.182 186.182 0 01-14.4-4.332z" fill="#fff"/><path d="M475.074 498.37c-46.255 7.392-98.13 12.148-156.197 12.148-40.348 0-72.91-3.985-98.51-10.905-1.201 5.094-1.875 9.85-1.875 15.084v.047c33.108 8.066 67.295 10.64 101.299 10.643 52.649-.048 105.34-3.759 157.322-12.164-.124-5.12-.861-10.046-2.039-14.854zm-39.549 85.55c-26.588 3.337-53.38 5.172-80.183 5.1-31.641-.053-63.297-1.504-94.756-4.95 11.403 7.573 24.778 13.814 39.603 18.235a1020.496 1020.496 0 0056.68 1.586c12.584 0 24.978-.483 37.125-1.3 15.597-4.365 29.552-10.684 41.531-18.671z" fill="#fff"/><path d="M215.962 359.103c.102-6.514.093-13.031-.136-19.543a173.075 173.075 0 0014.452 10.63c-4.862 2.848-9.61 5.888-14.317 8.983v-.07z"/></svg>