<svg xmlns="http://www.w3.org/2000/svg" width="1000" height="1000"><path fill="#A8ABB1" d="M952.557 596.858l-15.721-46.221c-2.84-8.144-8.752-14.374-16.604-17.721-7.462-3.188-16.294-3.014-24.046.261-38.499 18.518-83.975 36.947-138.15 52.944 2.036-15.997 6.607-31.021 13.649-44.555 5.6-10.418 4.114-23.604-3.717-32.485-36.666-43.469-80.235-71.824-121.408-92.791 23.844-23.733 42.933-52.249 55.843-84.372l2.876 1.188c.652 27.747 4.593 59.566 15.235 87.617 6.05 15.215 14.323 30.197 27.073 42.571 12.722 12.476 31.356 20.88 51.337 20.647 11.592-.101 22.712-1.217 33.725-8.375 11.048-6.65 18.314-20.604 18.734-32.138l.095-1.217c-.021 0 .072-.319.072-1.55-.167-11.187-4.304-19.098-7.978-24.372-1.767-2.145-3.353-4.506-4.816-7.114 12.888 10.52 24.603 20.59 35.216 30.631 6.854 6.722 16.525 9.157 25.843 7.636 9.497-1.84 17.206-8.201 21.19-17.041l20.344-45.091c4.607-10.098 3.107-21.618-3.615-30.312-27.74-35.455-59.37-64.681-94.812-88.212 9.903-17.503 21.56-33.601 31.695-45.786 8.874-9.969 9.556-24.835 1.572-35.906l-57.661-80.663c-7.491-9.911-20.191-14.721-32.349-10.954-1.55.435-17.409 4.391-39.136 4.304-8.547.304-31.732-3.724-57.363-8.274V88.29c0-3.999-.37-10.605-4.042-17.742-3.535-7.165-9.875-12.772-15.142-15.533C609.445 20.01 532.165.268 463.536 0 381.343 0 305.847 29.095 247.07 77.222l-79.497-3.579-1.377-.087c-8.143 0-18.148 2.231-26.951 9.592-8.766 7.418-13.229 20.242-12.903 29.863.051 7.201 1.71 10.78 2.558 13.822 1.398 3.391 2.579 5.318 3.832 7.752 22.539 36.876 41.187 79.49 55.466 126.292-46.2 29.442-89.255 67.941-129.775 114.625-7.738 9.144-12.642 19.532-12.642 33.327 0 12.533 4.18 22.705 10.787 31.543 12.346 16.083 18.771 37.209 18.771 62.044.217 13.156-5.383 38.977-12.606 54.046-4.47 8.07-6.933 16.865-6.933 26.892-.058 12.809 4.405 24.907 11.853 34.586 29.682 37.608 67.173 66.624 110.902 88.706-12.055 34.196-26.719 65.347-43.584 93.602-3.768 6.173-5.832 12.751-5.869 20.546 0 4.55 1.05 9.969 3.629 15.561 2.703 5.739 7.223 11.39 13.121 14.78 7.875 5.333 14.352 5.448 19.582 5.506 6.325-.059 10.969-.841 16.345-3.158h.065l85.19-36.775c30.45 23.474 66.457 41.383 106.324 53.524-6.738 22.488-14.388 41.354-22.335 55.93-3.057 6.172-4.637 12.867-4.637 18.952-.029 14.084 7.744 28.081 21.408 35.326 6.347 3.1 12.583 4.318 18.43 4.318 1.13 0 2.239 0 3.891-.174 23.502-2.115 43.468-9.186 61.871-18.749 11.548 8.462 22.56 15.59 34.601 21.705 17.417 7.912 36.224 12.46 56.162 12.46h.521c9.078 0 18.271-.753 27.799-2.346l1.557-.261c18.184-3.709 30.436-18.835 30.761-37.325-.13-12.403-5.158-22.023-13.134-29.037-12.635-11.272-28.03-28.341-40.969-46.917 47.626-6.521 91.559-20.864 129.623-42.02 52.771-29.355 94.472-70.998 116.2-121.916 2.021-4.896 2.817-10.142 2.021-15.475 66.92-27.037 115.996-56.11 143.373-73.323 11.534-7.396 16.613-21.524 12.056-34.522m-737.567-63.68c-5.035-13.271-7.1-27.443-7.1-41.526.043-16.432 3.397-32.761 10.005-48.801.13 5.506.167 10.649.167 15.808 0 25.516-1.066 50.741-3.072 74.519M576.743 302.81c-2.87 4.55-6.079 8.896-9.701 13.533-11.424 1.145-19.995 6.332-25.871 10.737-4.738 4.086-8.303 7.622-11.772 11.302v-39.426a594.951 594.951 0 0147.344 3.854M404.896 627.026c-31.616-2.188-58.393-6.345-80.721-12.272 6.63-19.155 20.017-36.79 39.433-52.104 11.527-8.926 25.039-16.765 40.281-22.618.79 26.443 1.116 52.452 1.116 76.519 0 3.695-.109 6.795-.109 10.475m-47.452-302.845c9.549-3.708 19.271-6.694 29.146-9.665 1.478 11.433 3.028 23.256 4.433 35.007-12.693-6.766-23.987-15.504-33.579-25.342m99.709-190.161l-55.4-1.347h-.528a41.313 41.313 0 00-41.289 41.062c.051 4.217.369 6.695 1.051 10.028l.247 1c.68 1.985 1.369 4.129 1.912 6.621l-.138-.087c-11.656 1.942-23.153 4.869-34.158 7.911 6.535-19.546 17.822-36.499 32.79-50.829 24.66-23.342 58.856-38.194 97.123-38.194 9.962 0 19.764 1.102 29.24 3.304-10.855 6.26-21.222 13.128-30.85 20.531m121.581 487.05c-18.626 1.928-38.208 3.436-58.269 4.854.108-28.761.151-59.87.151-94.226 0-.65-.043-1.419-.043-2.317.725.043 1.449.231 2.014.348-.247 3.607-.471 7.781-.471 11.548-.377 22.733 8.034 48.322 27.972 67.739 8.005 8.027 18.055 12.012 28.458 12.054h.246c1.414 0 2.485-.087 3.789-.274h.291c1.405-.188 2.471-.261 3.832-.609 5.753-1.304 11.628-4.028 16.555-7.939 9.382-7.839 14.446-18.967 14.359-30.53 0-.131.087-.392 0-.537 8.585 10.057 15.083 20.647 19.119 31.906-16.091 2.319-32.826 5.014-50.033 7.1-1.361.348-2.427.42-3.832.609h-.291a24.641 24.641 0 01-3.789.274h-.058z"/><path fill="#FFF" d="M757.412 596.656c0 1.913-.123 3.68-.123 5.172 0 33.609 12.272 63.95 32.819 87.402 1.73 1.449 2.796 3.767 4.071 5.825 65.615-26.35 113.989-55.328 140.802-72.317 7.549-4.637 10.882-14.17 8.005-22.401l-15.902-46.612c-1.746-5.115-5.614-9.056-10.751-11.461-5.021-2.188-10.628-2.015-15.648.435-39.759 18.718-87.307 37.73-143.273 53.957m80.461-320.725c34.282 22.85 64.935 51.12 91.936 85.213a19.932 19.932 0 012.348 19.951l-20.402 45.28c-2.478 5.766-7.809 9.621-13.902 10.983-5.977 1.23-12.482-.667-16.901-4.927-14.918-14.069-32.044-28.979-51.785-43.44-6.239-16.822-9.833-36.397-9.688-53.133-.238-15.113 6.694-37.354 17.642-58.624.237-.608.484-1.173.752-1.303"/><path fill="#00071A" d="M924.729 606.727l-15.765-46.873c-41.722 20.054-91.675 40.006-151.067 56.581 2.775 23.408 11.207 44.765 24.141 62.565 66.701-26.378 115.771-55.654 142.691-72.273m-10.134-233.803c-25.14-31.702-53.401-57.857-84.851-79.49-6.629 15.983-10.412 30.921-10.267 42.425-.058 7.897.552 16.127 1.993 24.111 28.841 19.503 52.93 39.773 72.7 58.422l20.425-45.468z"/><path fill="#FFF" d="M303.376 439.808c0 11.635-.485 23.487-.79 35.253 16.431-14.229 35.774-26.646 57.429-36.745-21.938-11.158-41.042-25.792-58.082-43.397.61 14.895 1.443 29.863 1.443 44.889"/><path fill="none" stroke="#130C15" stroke-width="1.741" stroke-linecap="round" stroke-linejoin="round" d="M303.376 439.808c0 11.635-.485 23.487-.79 35.253 16.431-14.229 35.774-26.646 57.429-36.745-21.938-11.158-41.042-25.792-58.082-43.397.61 14.895 1.443 29.863 1.443 44.889z"/><path fill="#FFF" d="M715.312 326.065c0 3.68.109 7.332.247 11.287.826 25.849 4.955 54.523 14.475 79.534 5.81 14.591 13.381 28.37 24.575 38.933 11.143 11.026 26.971 18.431 44.315 18.286 10.295-.087 19.728-1.971 27.993-7.086 8.601-5.201 13.99-15.706 14.272-24.212l.087-.811s.044-.29.044-1.333c-.044-8.144-3.188-14.113-6.05-18.533-16.445-21.763-26.088-56.798-26.088-86.271 0-17.807 7.382-41.12 18.821-63.174 11.498-22.343 26.219-43.482 38.919-58.117 5.688-6.694 6.165-16.272 1-23.502l-57.792-80.823c-4.737-6.462-13.191-9.156-21.104-6.853h-.449c-2.818.638-19.061 4.883-41.535 4.883-10.41.116-33.572-4.376-59.189-8.867a13.13 13.13 0 01-1.789 4.23v.072c-11.36 27.183-16.389 56.292-18.011 82.344 16.822 8.173 35.333 20.271 56.306 35.804 1.398 1.145 2.631 2.333 4.1 3.318-4.954 19.43-13.04 57.9-13.149 99.181v1.71M392.131 361.39c5.969 55.409 9.534 113.439 11.403 167.861-17.308 6.564-32.949 15.417-46.091 25.212-30.943 24.081-48.432 55.364-48.432 88.915 0 33.537 17.489 65.065 48.432 88.77 11.519 9.072 24.588 16.634 39.288 22.865-.182 1.768-.406 4.085-.87 6.085-1.688 14.46-4.036 28.313-6.245 41.412-3.948 21.153-8.433 40.512-13.454 58.218-40.672-12.403-77.352-31.674-107.49-55.61l-90.907 38.803c-4.021 1.738-7.658 2.579-12.331 2.607-3.789-.028-8.578-.522-14.076-3.971-8.81-5.359-12.294-14.922-12.092-21.762.08-5.854 1.71-11.012 4.426-15.59 52.343-87.083 84.604-202.839 84.604-346.546 0-11.635.138-23.864-.551-35.586.631-.942-.464.956 0 0 20.641-33.702 58.001-66.478 105.586-88.72 4.527-2.434 9.273-4.027 13.83-6.23 12.536 13.794 27.778 24.848 44.97 33.267"/><path fill="#FFF" d="M365.623 200.759c7.89 31.225 14.316 66.376 19.518 103.209-38.637 11.331-73.056 27.429-101.166 47.149-55.074 38.006-86.285 88.343-86.227 140.534.08 20.807 4.036 41.859 15.192 61.624-5.738 52.973-16.337 100.708-30.891 144.156-42.223-21.59-77.983-49.938-106.346-85.807-6.006-7.824-9.679-17.635-9.679-28.27 0-8.172 1.92-15.721 5.506-22.168 8.52-16.345 14.149-43.513 14.025-58.77 0-26.458-7.092-50.163-21.039-68.463-5.209-6.796-8.6-15.171-8.636-25.125.188-10.838 4.115-19.749 10.324-26.762C152.373 282.422 249.67 223 365.623 200.832m158.051 318.58c-.898-.115-1.651-.376-2.615-.448.24-3.738.681-7.36 1.42-10.389.71 3.26 1.333 7.186 1.152 10.302 0 .159.043.42.043.535"/><path fill="#A8ABB1" d="M542.547 874.173c.08.059.261.174 0 0m0 0c-.203-.289-.094-.143 0 0"/><path fill="#00071A" d="M289.749 643.378c0-59.791 46.316-111.331 112.975-134.296-1.572-41.208-4.397-83.822-8.187-125.537-25.857-10.563-48.177-26.661-65.479-47.105-35.1 16.851-63.688 38.774-84.191 63.029 1.616 19.619 2.624 39.194 2.624 59.189 0 146.734-32.812 265.839-87.38 356.37-2.224 3.767-2.13 9.07 1.536 11.534 2.209 1.391 6.158.985 8.542-.261l101.76-43.498c29.364 25.676 66.746 46.192 109.078 59.493 3.224-12.75 5.991-25.762 8.592-39.787 1.616-8.724 3.028-18.344 4.471-28.022-61.772-24.053-104.341-73.695-104.341-131.109m70.267-205.063c-21.655 10.099-40.998 22.517-57.429 36.745.305-11.766.79-23.618.79-35.253 0-15.025-.833-29.994-1.442-44.889 17.039 17.605 36.143 32.24 58.081 43.397"/><path fill="#00071A" d="M178.338 491.651c0-91.878 83.829-173.338 203.977-206.562a1053.73 1053.73 0 00-12.143-64.971c-112.142 21.14-204.939 77.069-289.653 174.498-3.224 3.795-5.469 9.013-5.469 14.214 0 5.129 1.92 9.954 4.94 13.301 16.721 22.387 24.683 50.265 24.683 80.287 0 19.068-5.926 47.438-16.091 67.738-2.014 3.811-3.347 8.447-3.347 13.199 0 6.115 2.021 11.65 5.506 16.476 25.878 32.477 58.545 58.298 97.13 78.532 9.215-29.884 16.308-62.304 21.249-96.573-22.639-27.965-30.782-60.002-30.782-90.139"/><path fill="#A8ABB1" d="M578.734 621.07c2.543 0 5.375-.332 7.969-.883-2.499.348-5.324.609-7.969.883"/><path fill="#FFF" d="M587.827 303.765c38.666 5.565 73.621 13.94 104.977 25.053-14.36 34.731-36.145 65.145-63.805 90.168 44.164 21.386 91.806 50.278 131.362 96.774 4.998 5.725 6.041 14.301 2.455 21.357-10.127 19.402-15.772 41.325-15.772 64.71 0 36.13 13.317 68.935 35.363 94.155 4.999 5.475 6.042 13.474 3.31 20.284-36.499 84.156-130.261 143.737-243.17 157.907-.507-.665.449.493 0 0-7.165-11.127-13.866-23.791-17.764-33.181-3.956-9.766-5.702-18.024-5.622-21.502 0-13.186.246-27.849.362-51.554 33.102-5.477 62.138-18.316 84.634-35.79 30.847-23.705 48.503-55.233 48.503-88.77 0-30.739-14.917-59.763-41.128-82.786-.268-.391-.435-.695-.602-.898-5.13-7.201-7.672-14.215-7.542-19.981 0-2.854.522-5.999 2.412-9.432 7.151-13.823 11.259-28.588 11.172-42.99.131-20.112-7.998-38.934-20.517-52.685.079-1.883 2.622-8.562 5.861-12.779 10.011-13.766 16.077-29.834 16.438-49.308.073-13.837-3.992-30.949-17.09-44.047l-1.862-1.71c-5.224-4.55-12.614-8.636-20.358-9.882 2.949-4.274 5.731-8.505 8.383-13.113m69.586-108.7c-20.191-3.609-41.165-6.854-62.732-8.825-21.85-50.018-74.214-85.995-135.919-85.995-40.838 0-77.642 15.852-104.02 40.76-17.836 17.068-30.87 37.977-37.543 60.972-23.835 6.839-46.844 15.533-69.266 25.849-17.424 7.955-34.355 17.2-50.743 27.327-14.402-46.396-33.333-89.008-55.676-125.595-1.123-2-2.086-4.014-2.897-6.23-.92-2.623-2.015-5.289-2.181-10.316-.195-7.593 3.109-16.562 9.534-22.184 6.521-5.535 13.823-7.172 20.228-7.144h.812l83.459 4.26c57.654-48.214 132.007-77.468 213.069-77.468 66.615.129 143.062 19.213 201.875 53.351 4.144 2.318 8.759 6.049 11.273 11.591 2.543 5.064 2.796 9.773 2.796 12.874-.202 6.23-1.586 9.229-2.702 11.577-13.477 31.978-18.577 66.028-19.367 95.196"/><path fill="#00071A" d="M597.318 324.673c.912.71 1.68 1.392 2.485 2.087l1.862 1.71c13.098 13.099 17.163 30.21 17.09 44.047-.29 14.07-3.491 26.661-9.31 37.644 28.168-23.487 50.598-53.278 65.087-87.314-20.785-6.317-42.795-11.924-66.543-15.707-3.065 6.043-6.745 12.013-10.671 17.533m61.594-232.179c.675-1.333 1.492-2.985 1.492-4.202 0-3.274-.869-5.752-4.396-7.549-55.285-32.5-129.631-51.169-192.472-51.169-79.244 0-151.38 29.522-206.367 77.889l-90.973-4.245c-5.991 0-10.403 2.883-10.403 9.795 0 1.984 1.261 4.738 2.188 6.36 22.56 37.296 41.607 80.069 56.328 125.798 11.005-6.23 22.053-11.896 33.624-17.344 15.438-7.042 31.485-13.75 47.736-19.155 14.714-72.606 81.93-127.58 163.093-127.58 73.302 0 135.535 45.02 157.19 107.469 7.715 1.014 15.141 2.275 22.437 3.462 1.042-30.327 6.288-65.652 20.523-99.529m108.99 616.268c-24.893-28.458-40.187-66.109-40.187-106.934 0-26.646 6.434-51.625 17.968-73.735-43.106-51.062-97.167-79.519-146.293-101.543-1.644 3.217-2.934 6.824-2.934 8.056 12.519 13.751 20.647 32.572 20.517 52.685.087 14.402-4.021 29.167-11.172 42.99-.391.463-.391 1.116-.535 1.419 40.744 27.168 66.485 67.159 66.485 111.679 0 71.093-65.376 130.384-152.343 144.236-.13 13.012-.246 22.69-.246 31.877-.08 3.478 1.666 11.736 5.622 21.502 1.796 4.607 4.593 9.911 7.477 15.591 111.278-11.39 202.49-70.015 235.641-147.823"/><path fill="#FFF" d="M695.202 213.829c6.89 4.535 14.112 9.636 21.69 15.345-4.717 20.618-11.534 55.524-11.853 93.038-49.271-18.33-107.294-30.906-175.641-33.283v-35.225c10.896-24.24 22.864-43.7 35.202-55.799 1.573-1.392 2.804-2.723 4.318-4.027 45.121 3.622 87.162 10.011 126.284 19.951"/><path fill="#00071A" d="M552.77 212.409c-8.288 10.998-16.018 24.936-23.371 41.294v15.635c68.064 2.607 126.37 14.836 176.293 32.862 1.688-24.343 5.557-46.569 8.999-62.87-48.403-14.793-102.363-23.53-161.921-26.921"/><path fill="#FFF" d="M415.17 627.605v-11.056c0-25.226-.391-52.133-1.239-80.025-3.667-121.653-15.967-259.463-42.86-354.717l-.21-.738c-.398-1.826-.746-4.362-.782-7.333.217-17.285 14.17-30.731 31.146-30.862h.441l58.792 1.565c12.664-9.983 26.856-19.401 41.939-27.27 32.413 10.215 59.038 31.471 75.331 58.522-6.999 3.71-13.707 8.564-20.314 15.012-14.098 13.881-26.733 35.181-38.252 60.77l.08 118.335c2.419-3.333 5.246-7.592 8.382-11.968 5.333-7.506 11.375-15.621 19.786-22.618 5.825-4.261 13.454-9.129 23.662-9.158 8.048-.044 16.395 3.492 22.183 8.52l1.182 1.173c10.831 10.52 14.221 24.604 14.185 36.76-.384 16.823-5.875 31.704-14.308 43.121-4.42 5.55-8.259 14.504-7.933 19.271.123 2.768.406 3.752 2.319 6.317 11.135 12.143 18.162 28.312 18.111 46.062 0 12.49-3.42 25.299-9.947 37.847-2.565 5.606-3.608 10.127-3.608 14.575-.152 8.288 3.521 17.75 9.122 26.154 3.217 4.606 5.084 10.477 5.084 15.852 0 8.563-3.666 16.895-10.598 22.545-5.5 4.361-12.157 6.579-18.315 6.579-7.795-.116-15.352-3.261-21.401-9.157-17.764-17.532-25.082-39.89-24.885-60.407 0-5.462.536-10.868 1.151-16.359.225-1.593.464-3.911.464-6.041.037-6.187-1.159-12.997-3.586-18.488-2.058-5.304-5.158-9.347-7.136-10.229-1.13-.87-1.493-.898-2.326-.942-1.746.072-1.405.072-1.984.725-.805.348-2.58 2.521-3.913 6.781-3.029 7.664-4.557 21.777-4.514 34.977 0 34.428-.043 65.928-.124 94.689-21.212 1.217-42.997 1.797-65.695 1.797-10.289 0-20.106-.348-29.43-.581m168.064 310.989c-15.83-14.084-35.463-37.093-50.279-60.334-14.844-22.808-24.241-47.207-23.995-58.769 0-12.084.203-28.226.362-49.814-9.215 1.159-18.728 1.883-28.458 1.883-26.776 0-51.865-4.81-74.317-12.576a21.16 21.16 0 00-.398 3.099c-9.644 73.463-26.212 132.145-45.983 169.123-2.485 4.434-3.391 8.896-3.391 13.91-.108 10.316 5.622 20.895 15.743 26.139 4.796 2.462 9.194 3.044 13.707 3.044 1.051 0 1.979 0 3.391-.205 24.357-1.708 44.143-9.591 63.5-20.603 12.831 10.433 24.886 18.634 37.934 24.632 16.077 7.795 33.268 11.389 51.945 11.389h.275c8.527 0 17.177-.521 26.494-1.855l.92-.028c13.251-2.869 22.322-13.911 22.567-27.559-.15-9.043-4.091-16.404-10.017-21.476"/><path fill="#00071A" d="M525.935 127.094c-21.93 9.94-42.012 22.777-58.639 36.602l-66.072-1.508c-6.608 0-11.882 5.217-11.882 11.548 0 1.146.116 2.03.275 2.971 33.826 120.48 44.751 302.933 44.751 439.843 0 4.058-.043 7.492-.058 11.549 3.347.087 6.65.087 10.288.087 15.771 0 31.312-.376 46.54-.811 0-29.11.159-61.204.159-95.676 0-28.326 4.941-62.058 29.53-62.058 22.531 0 35.507 33.645 31.762 58.291-3.202 21.197.398 42.338 18.264 60.203 3.571 3.913 9.859 4.695 13.852 1.16 3.731-2.913 4.593-8.867 1.898-12.853-11.389-16.59-18.228-37.904-6.854-59.726 12.708-25.066 8.948-47.076-5.368-62.609-14.207-15.895-4.825-37.687 4.456-49.916 9.715-12.707 16.446-40.237 1.97-54.9-19.706-16.794-38.584 23.907-50.198 37.296-13.403 15.547-30.378 9.823-30.5-8.767l-.022-130.203c17.119-40.02 37.782-72.014 66.333-87.952-10.984-12.966-24.756-24.166-40.485-32.571m264.036 208.765c0-45.541 35.151-101.933 62.232-133.882l-57.655-80.127s-19.358 5.621-47.504 5.621c-14.75 0-39.063-5.013-66.158-9.722-5.448 15.909-8.883 32.253-10.782 47.742 23.568 11.041 49.99 27.95 80.324 52.539 0 0-15.99 52.032-15.99 106.324 0 54.64 14.78 130.507 64.486 130.507 16.337 0 22.546-6.086 23.205-13.287.239-3.13-.971-6.101-2.58-7.839-19.516-26.659-29.578-64.752-29.578-97.876M570.816 953.083c-36.006-31.616-80.852-95.774-80.852-133.593 0-11.824 0-28.023.182-48.163-3.072.174-6.093.231-9.281.231-19.546 0-38.115-2.609-55.545-6.984-9.911 74.737-26.994 135.303-48.003 175.352-2.826 5.332-.943 11.765 4.027 14.084 2.066.956 4.203 1.362 6.253 1.072 25.61-2 44.917-11.07 67.173-24.574 40.122 33.5 66.043 44.918 112.164 38.05 3.882-.898 7.186-4.261 7.186-8.491 0-2.925-1.456-5.477-3.304-6.984"/><path fill="#FFF" d="M598.071 724.381c28.754-22.604 44.302-51.031 44.302-81.003 0-7.071-.92-13.853-2.515-20.467-57.82 9.309-122.71 15.221-195.26 15.221-50.423 0-91.088-5.042-123.205-13.626-1.449 6.354-2.239 12.352-2.239 18.872.058 29.972 15.547 58.399 44.454 81.003 15.859 12.055 35.427 21.879 57.582 28.457 22.742 1.248 46.446 2.029 70.955 2.029 15.692 0 31.124-.608 46.272-1.652 22.887-6.463 43.122-16.257 59.654-28.834"/><path fill="#00071A" d="M363.608 724.381a86.038 86.038 0 016.977 4.898c37.825 4.201 78.337 6.288 121.56 6.288 34.478 0 67.783-2.521 99.065-6.434a72.2 72.2 0 016.86-4.752c28.754-22.604 44.302-51.031 44.302-81.003v-1.218c-58.639 9.506-124.334 15.186-197.774 15.186-50.264 0-91.552-4.955-125.385-13.272.203 29.624 15.729 57.848 44.395 80.307"/><path fill="#A8ABB1" d="M314.823 439.808c0 3.651-.16 7.824-.16 11.446 6.875-4.563 14.076-9.258 21.582-13.518-7.636-4.926-14.852-10.171-21.829-16.025.248 6.085.407 12.17.407 18.097"/><path fill="#FFF" d="M321.437 438.75c.681-.435 1.449-.841 2.333-1.492-.884-.565-1.652-1.261-2.333-1.899v3.391z"/></svg>