<?xml version="1.0" encoding="UTF-8" standalone="no"?>
<!-- Created with Inkscape (http://www.inkscape.org/) -->

<svg
   xmlns:dc="http://purl.org/dc/elements/1.1/"
   xmlns:cc="http://creativecommons.org/ns#"
   xmlns:rdf="http://www.w3.org/1999/02/22-rdf-syntax-ns#"
   xmlns:svg="http://www.w3.org/2000/svg"
   xmlns="http://www.w3.org/2000/svg"
   xmlns:sodipodi="http://sodipodi.sourceforge.net/DTD/sodipodi-0.dtd"
   xmlns:inkscape="http://www.inkscape.org/namespaces/inkscape"
   id="svg2"
   version="1.1"
   inkscape:version="0.91 r13725"
   xml:space="preserve"
   width="726.25"
   height="800"
   viewBox="0 0 726.25 800"
   sodipodi:docname="barbarian_fc.svg"><metadata
     id="metadata8"><rdf:RDF><cc:Work
         rdf:about=""><dc:format>image/svg+xml</dc:format><dc:type
           rdf:resource="http://purl.org/dc/dcmitype/StillImage" /><dc:title></dc:title></cc:Work></rdf:RDF></metadata><defs
     id="defs6" /><sodipodi:namedview
     pagecolor="#ffffff"
     bordercolor="#666666"
     borderopacity="1"
     objecttolerance="10"
     gridtolerance="10"
     guidetolerance="10"
     inkscape:pageopacity="0"
     inkscape:pageshadow="2"
     inkscape:window-width="1920"
     inkscape:window-height="1018"
     id="namedview4"
     showgrid="false"
     inkscape:zoom="0.59"
     inkscape:cx="397.09532"
     inkscape:cy="192.34541"
     inkscape:window-x="1358"
     inkscape:window-y="-8"
     inkscape:window-maximized="1"
     inkscape:current-layer="g10" /><g
     id="g10"
     inkscape:groupmode="layer"
     inkscape:label="ink_ext_XXXXXX"
     transform="matrix(1.25,0,0,-1.25,0,800)"><g
       id="g12"
       transform="scale(0.1,0.1)"><path
         d="m 3409.8,2424.61 c -119.49,-12.31 -244.76,-22.31 -373.12,-31.13 0.78,184.06 1.56,383.47 1.56,602.89 0,4.22 -0.78,8.83 -0.78,14.57 4.61,-0.35 9.61,-1.53 13.44,-1.92 -2.31,-23.43 -3.05,-49.96 -3.05,-74.14 -3.08,-145.62 51.1,-309.33 178.67,-433.43 51.1,-51.49 115.67,-76.49 181.76,-76.84 l 1.52,0 c 9.61,0 16.53,0.74 24.58,1.52 l 1.56,0 c 8.83,1.53 15.74,1.92 24.57,3.83 36.91,8.09 74.18,26.13 105.66,51.13 60.74,50.32 93.01,121.41 92.23,195.2 0,0.74 0.78,2.66 0,3.83 54.96,-64.18 96.05,-132.19 122.19,-204.03 -102.97,-15 -210.16,-31.91 -320.47,-45.74 -8.83,-1.91 -15.74,-2.3 -24.57,-3.83 l -1.53,0 c -7.69,-1.17 -14.61,-1.91 -24.22,-1.91 l 0,0 z m -777.73,3117.38 -355.78,8.44 -3.09,0 c -144.88,-0.39 -262.81,-115.66 -264.37,-263.2 0.78,-26.53 2.3,-42.27 6.91,-64.18 l 1.56,-6.53 c 4.61,-12.69 8.83,-26.13 12.66,-42.26 l -1.52,0.78 c -74.18,-11.91 -147.93,-31.52 -218.24,-50.74 41.87,125.27 114.1,233.63 210.15,325.86 157.54,149.06 376.56,244.37 621.33,244.37 63.79,0 126.05,-7.3 186.76,-21.91 -68.79,-39.57 -135.63,-83.36 -196.37,-130.63 m -638.59,-1217.3 c 60.7,24.22 122.97,43.04 185.97,61.87 9.61,-72.61 19.57,-148.71 28.44,-224.02 -80.7,43.4 -152.93,99.14 -214.41,162.15 m 303.94,-1938.13 c -202.5,13.83 -374.65,40.35 -517.22,78.36 42.65,122.97 128.35,235.55 252.07,333.56 74.18,57.22 160.62,107.18 258.24,144.84 5.35,-169.45 7.65,-335.82 7.65,-489.53 0,-23.83 -0.74,-43.79 -0.74,-67.23 m 1099.3,2074.92 c -18.05,-29.21 -39.18,-56.87 -61.45,-86.83 -73.39,-7.31 -128.36,-39.96 -166.01,-68.79 -30.74,-26.13 -53.4,-48.79 -75.71,-72.23 l 0,251.68 c 106.06,-3.47 206.37,-11.91 303.17,-23.83 M 1081.64,2987.11 c -32.26,85.31 -45.7,175.62 -45.7,265.55 0.74,104.88 21.87,209.76 64.53,312.38 0.78,-35.35 0.78,-68.01 0.78,-101.45 0,-162.54 -6.91,-324.29 -19.61,-476.48 m 4720.47,-407.66 -100.66,296.25 c -18.05,52.27 -55.71,92.23 -105.67,113.36 -48.05,20.74 -104.92,19.57 -153.71,-1.56 -247.07,-118.71 -537.19,-236.29 -884.92,-338.91 13.48,102.62 42.65,198.68 88.01,284.73 36.09,67.27 26.13,151.41 -24.22,208.28 -234.77,278.56 -513.36,459.57 -776.56,593.67 152.14,152.15 274.72,334.26 357.34,540.24 l 18.83,-7.7 c 3.86,-177.5 29.22,-381.56 96.83,-560.97 39.18,-97.23 92.23,-193.29 173.28,-272.46 81.88,-79.93 200.2,-133.72 328.56,-132.54 74.14,0.74 145.62,8.04 216.33,54.18 70.7,41.87 117.18,131.79 119.49,205.54 l 0.78,7.7 c 0,0 0.74,2.3 0.74,10 -1.52,71.83 -27.65,121.79 -51.09,155.62 -11.13,13.83 -21.92,28.79 -30.74,45.32 82.61,-67.23 157.54,-131.8 225.19,-195.94 44.18,-43.05 105.67,-58.4 165.2,-48.83 60.74,11.91 110.27,52.66 136.05,109.14 l 129.85,288.56 c 30,64.57 20.39,137.96 -22.66,194.06 -177.89,226.72 -380.39,413.83 -607.11,564.45 63.79,112.19 137.93,215.55 202.5,293.56 56.88,63.78 61.48,158.32 10.35,229.8 l -369.26,516.41 c -48,63.39 -129.1,94.14 -207.11,70.31 -9.57,-3.05 -111.01,-28.05 -250.5,-27.66 -54.18,-1.52 -202.5,24.22 -366.18,53.01 l 0,8.09 c 0,24.96 -3.08,67.61 -26.13,113.36 -22.69,46.09 -63.04,81.83 -96.83,99.53 -391.18,223.98 -885.71,350.43 -1324.5,351.95 -526.05,0 -1009.41,-185.98 -1385.23,-494.14 l -508.712,23.05 -8.867,0.39 c -52.621,0 -116.402,-14.22 -172.5,-61.1 -56.09,-47.26 -84.922,-129.49 -82.621,-190.97 0,-46.1 11.141,-69.53 16.531,-88.36 8.829,-21.92 16.52,-34.22 24.571,-49.96 144.097,-235.94 263.59,-508.75 354.289,-808.09 C 615.941,4542.19 340.039,4295.47 81.0898,3996.91 31.5195,3938.52 0,3872.03 0,3783.28 0,3703.36 26.9102,3638.05 69.1797,3581.95 147.93,3478.59 189.41,3343.71 189.41,3184.65 c 1.57,-83.79 -34.57,-249.38 -80.269,-345.86 -29.2191,-51.49 -44.9613,-107.58 -44.9613,-171.76 0,-81.83 28.4414,-159.45 76.4493,-221.29 C 330.469,2205.2 570.59,2019.61 849.961,1877.42 772.73,1659.18 679.73,1459.38 571.371,1278.4 c -24.57,-39.22 -37.66,-81.49 -38.441,-131.41 0,-28.83 7.699,-63.79 24.218,-99.53 17.301,-36.87 45.743,-73.011 83.403,-94.53 50.308,-34.18 92.219,-35.352 125.269,-35.739 41.09,0.387 70.66,5.778 104.102,20.739 l 1.558,0 544.85,234.8 C 1611.52,1022.46 1841.68,908.359 2096.84,830.352 2053.4,686.25 2004.61,565.629 1953.52,472.23 1933.91,432.66 1924.3,390 1924.3,351.211 c -0.78,-90.313 48.79,-179.84 136.4,-226.332 40.35,-20 80.32,-27.6485 117.97,-27.6485 7.7,0 14.22,0 25.35,1.1289 150.24,13.4416 277.82,58.7886 395.39,120.2696 74.18,-54.57 144.89,-99.527 221.33,-138.7071 C 2932.58,29.2188 3052.85,0 3180.39,0 l 3.87,0 c 57.62,0 116.4,5 177.89,15 l 9.61,1.9102 c 116.44,24.2187 195.19,120.6678 196.72,238.6018 -0.75,79.566 -33.05,141.008 -83.36,185.968 -81.1,72.27 -179.46,181.372 -262.82,300.122 304.69,41.488 585.94,133.707 829.18,268.988 337.78,187.5 604.81,454.53 744.69,780.39 11.92,31.13 18.05,64.53 11.92,98.75 428.39,172.89 743.12,359.65 918.71,469.14 71.48,46.91 104.53,137.58 75.31,220.58"
         style="fill:#000000;fill-opacity:1;fill-rule:nonzero;stroke:none"
         id="path14"
         inkscape:connector-curvature="0" /><path
         style="fill:#ffffff;fill-opacity:1;fill-rule:nonzero;stroke:none"
         d="M 690.00977 432.70898 C 687.87227 432.76867 685.73562 433.28617 683.76562 434.24805 C 652.01688 449.2343 613.93031 464.4082 569.16406 477.37695 C 569.16406 478.9157 569.06836 480.30656 569.06836 481.50781 C 569.06836 485.26608 569.26403 488.97163 569.63672 492.61914 C 611.1897 481.05895 651.77798 465.96451 690.63867 447.24023 C 694.96833 460.04673 699.29917 472.85368 703.62891 485.66016 C 668.32783 507.69224 631.18519 526.81804 592.54102 542.28125 C 591.39905 542.7394 590.25372 543.19211 589.10938 543.64453 C 591.06342 546.33452 593.14026 548.93729 595.3418 551.43945 C 596.6368 552.59195 597.59797 554.46836 598.51172 556.09961 C 651.05547 535.06461 689.77031 511.86516 711.28906 498.22266 C 717.29031 494.57016 719.93078 486.98164 717.67578 480.30664 L 704.89844 443.08594 C 703.50719 438.99844 700.38711 435.83086 696.25586 433.91211 C 694.28586 433.04773 692.14727 432.6493 690.00977 432.70898 z "
         transform="matrix(8,0,0,-8,0,6400)"
         id="path16" /><path
         d="m 5068.2,4633.24 c 219.03,-146.01 415.75,-326.99 588.28,-545.23 27.66,-36.53 33.83,-85.31 15,-127.97 l -130.66,-289.73 c -15.74,-36.87 -50.31,-61.48 -88.36,-70.31 -38.44,-8.09 -80.31,4.22 -107.97,31.88 -96.09,89.53 -205.58,184.84 -331.6,277.81 -39.96,107.61 -63.05,232.85 -62.26,340.08 -1.53,96.83 42.65,238.98 113.35,375.78 0.4,3.86 2.7,6.91 4.22,7.69"
         style="fill:#ffffff;fill-opacity:1;fill-rule:nonzero;stroke:none"
         id="path18"
         inkscape:connector-curvature="0" /><path
         style="fill:#000000;fill-opacity:1;fill-rule:nonzero;stroke:none"
         d="m 5427.5352,3716.5742 c -145.5323,137.8706 -301.8659,264.531 -468.2676,376.3828 -10.3483,62.161 -15.2469,125.4528 -11.912,188.4363 6.9442,85.3603 34.6295,167.4435 67.1756,246.1184 207.9685,-142.1826 393.4092,-316.8046 549.7715,-514.2265 -44.9101,-99.545 -89.8174,-199.0913 -134.7265,-298.6368 -0.6804,0.642 -1.3607,1.2839 -2.041,1.9258 z"
         id="path22"
         inkscape:connector-curvature="0" /><path
         d="m 1647.66,3584.65 c 0,-74.18 -3.09,-150.27 -5.39,-225.59 104.88,91.1 229.02,170.63 367.73,235.16 -140.27,71.48 -262.85,165.23 -372.34,277.81 3.82,-95.27 10,-191.33 10,-287.38"
         style="fill:#ffffff;fill-opacity:1;fill-rule:nonzero;stroke:none"
         id="path24"
         inkscape:connector-curvature="0" /><path
         d="m 1661.88,3586.56 c 0,-69.96 -2.31,-141.4 -4.61,-212.11 96.83,85.67 210.15,160.24 336.95,220.94 -128.32,67.23 -240.9,155.23 -340.82,261.29 3.87,-89.53 8.48,-179.84 8.48,-270.12 z"
         style="fill:none;stroke:none;stroke-width:196.3500061;stroke-linecap:round;stroke-linejoin:round;stroke-miterlimit:4;stroke-dasharray:none;stroke-opacity:1"
         id="path26"
         inkscape:connector-curvature="0" /><path
         style="fill:#ffffff;fill-opacity:1;fill-rule:nonzero;stroke:none"
         d="M 513.49609 79.541016 C 513.10984 81.073516 512.53336 82.226562 512.00586 82.851562 L 512.00586 82.949219 C 510.51915 86.524556 509.18116 90.145734 507.95703 93.791016 C 522.87511 96.30813 537.71355 99.428143 552.74805 101.10352 C 561.02022 101.96784 569.36792 101.4781 577.63672 100.73242 C 584.58016 100.03045 591.51799 98.959178 598.26758 97.173828 C 598.9788 96.780978 599.63723 97.474431 599.89453 98.082031 C 615.12566 119.28568 630.35685 140.48966 645.58789 161.69336 C 632.37413 177.44373 620.89722 194.65713 611.62891 213.00977 C 604.77387 226.70717 599.15207 241.19163 596.73047 256.36914 C 595.57748 263.63537 595.53116 271.02285 596.09375 278.33789 C 597.39026 296.35425 601.845 314.21459 609.62695 330.54102 C 612.57245 336.70752 616.1192 342.58127 620.16406 348.08594 C 622.11034 351.36656 621.69065 355.76643 619.31836 358.7207 C 616.68966 362.05383 612.40743 363.47114 608.34961 364.06641 C 606.19585 364.38727 604.01357 364.48607 601.83789 364.47266 C 593.30729 364.46716 584.88417 361.13769 578.53906 355.45703 C 570.98955 348.85097 565.89051 339.93645 562.09766 330.75977 C 556.34643 316.70445 553.42132 301.66605 551.70117 286.63086 C 549.4423 266.4199 549.85465 245.95109 552.48633 225.79688 C 554.67707 208.59376 558.1137 191.54064 562.86719 174.86133 C 562.78614 174.27264 561.83343 173.95474 561.41992 173.4707 C 542.07167 157.99461 521.59541 143.6514 499.16211 132.99219 C 498.47198 138.37397 497.97792 143.66466 497.64648 148.79883 C 511.14273 155.38133 525.88797 165.03328 542.69922 177.51953 C 543.80297 178.43203 544.7668 179.39586 545.9668 180.16211 C 542.0268 195.67961 535.54211 226.46547 535.44336 259.51172 L 535.44336 260.9043 L 535.49414 260.9043 C 535.49414 263.9318 535.59195 266.76289 535.68945 269.93164 C 536.3582 290.63539 539.62414 313.59422 547.21289 333.57422 C 551.91914 345.19547 557.92445 356.29352 566.9082 364.69727 C 575.83945 373.53477 588.47102 379.49312 602.35352 379.29688 C 610.61477 379.20438 618.10516 377.76328 624.78516 373.67578 C 631.65016 369.50203 635.92789 361.09281 636.11914 354.32031 L 636.2168 353.69531 L 636.2168 352.5918 C 636.2168 346.0593 633.67336 341.30891 631.41211 337.75391 C 618.20461 320.36641 610.56641 292.31539 610.56641 268.68164 C 610.56641 254.46789 616.37711 235.7818 625.59961 218.1543 C 634.77461 200.28805 646.63711 183.38391 656.72461 171.66016 C 661.24086 166.32766 661.71789 158.64703 657.49414 152.83203 L 611.33203 88.134766 C 607.49453 82.997266 600.72328 80.835859 594.33203 82.662109 L 594.04297 82.662109 C 591.78797 83.238359 578.86797 86.601562 560.85547 86.601562 C 552.50047 86.645313 533.91109 83.091016 513.49609 79.541016 z "
         transform="matrix(8,0,0,-8,0,6400)"
         id="path28" /><path
         style="fill:#ffffff;fill-opacity:1;fill-rule:nonzero;stroke:none"
         d="M 240.77539 262.63086 C 237.12789 264.45711 233.38297 265.65937 229.73047 267.57812 C 228.76764 268.02974 227.81547 268.49101 226.86328 268.95312 C 240.72282 285.40136 258.78535 298.11634 278.65625 306.25977 C 278.11415 300.54377 277.54384 294.84969 276.94336 289.19336 C 263.15836 282.47086 250.96164 273.58336 240.77539 262.63086 z M 205.4043 317.28125 C 206.0364 332.98404 206.83158 348.70359 206.26953 364.42188 C 206.14298 369.28188 205.96856 374.14062 205.81836 379 L 206.21094 378.66406 C 219.49235 367.40701 234.40197 358.14816 250.12109 350.70117 C 233.52127 342.10127 218.4314 330.67347 205.4043 317.28125 z M 158.66797 320.31055 C 153.55611 326.31102 149.07296 332.44316 145.29297 338.61914 C 145.12463 338.9755 145.20239 338.85362 145.29492 338.68945 C 145.76969 348.12981 145.67969 357.80632 145.67969 367.09961 C 145.67969 482.08461 119.97953 574.68828 78.050781 644.33203 C 75.888156 647.98453 74.590422 652.06406 74.498047 656.82031 C 74.400422 662.29406 77.139172 669.88273 84.248047 674.20898 C 88.520547 676.94411 92.36325 677.32808 95.390625 677.37695 C 99.13575 677.32808 102.06453 676.6548 105.33203 675.26367 L 178.05078 644.23828 C 202.16203 663.35453 231.50852 678.81844 264.07227 688.71094 C 265.38923 684.08478 266.64542 679.3051 267.85742 674.39453 C 237.177 664.75634 207.90501 649.88166 183.24609 629.09961 C 182.38962 628.37587 181.53775 627.6441 180.69336 626.90625 C 153.3914 638.58405 126.08969 650.25952 98.789062 661.93945 C 96.655738 662.70852 94.088687 662.86093 92.091797 661.64648 C 89.657356 659.9203 89.130883 656.47999 90.033203 653.78516 C 90.876608 651.29546 92.611686 649.2539 93.792969 646.9375 C 123.52031 595.93637 141.89532 538.88525 151.625 480.82812 C 158.38176 440.3836 161.13231 399.31747 160.60742 358.32227 C 160.37004 345.63461 159.63161 332.96262 158.66797 320.31055 z M 285.43164 407.87109 C 262.14683 415.93181 240.28679 428.92134 223.49414 447.11133 C 210.53389 461.11267 200.85607 478.48589 197.23047 497.3125 C 193.70257 515.3084 195.79914 534.32668 203.01758 551.19336 C 211.4082 571.00783 226.11744 587.66946 243.47656 600.1875 C 254.26053 607.98407 266.11055 614.27364 278.48828 619.12109 C 278.95513 615.79911 279.39611 612.4448 279.7793 609.0293 C 280.25805 607.3493 280.44813 605.52211 280.54688 604.13086 C 268.82812 599.13586 258.31047 593.08633 249.13672 585.83008 C 224.35047 566.81133 210.37695 541.59617 210.37695 514.79492 C 210.37695 487.94367 224.35047 462.91961 249.13672 443.66211 C 259.65422 435.82961 272.14414 428.72133 286.02539 423.48633 C 285.84854 418.323 285.64864 413.11119 285.43164 407.87109 z "
         transform="matrix(8,0,0,-8,0,6400)"
         id="path30" /><path
         style="fill:#ffffff;fill-opacity:1;fill-rule:nonzero;stroke:none"
         d="M 255.66797 160.66406 C 162.96797 178.43281 85.113219 225.98547 16.089844 305.66797 C 11.094719 311.28797 8.02295 318.34984 7.828125 327.08984 C 7.9252875 335.06359 10.566459 341.73922 14.794922 347.16797 C 25.986422 361.81672 31.607422 380.78555 31.607422 401.9668 C 31.699672 414.1693 27.231484 435.92703 20.458984 448.98828 C 17.528734 454.13078 16.039062 460.18039 16.039062 466.71289 C 16.039062 475.26289 18.925734 483.04602 23.724609 489.38477 C 46.395984 518.06102 75.025312 540.73344 108.78906 558.02344 C 110.41434 553.18728 111.97237 548.27463 113.47266 543.30078 C 86.364062 529.14611 61.383523 510.52895 41.298828 487.375 C 38.981629 484.65701 36.592266 481.97749 34.542969 479.04883 C 31.117436 473.75755 29.990732 467.01688 31.689453 460.92773 C 32.664224 457.17571 34.811582 453.88996 36.201172 450.30273 C 40.980326 438.88801 43.944825 426.77152 45.574219 414.52539 C 47.00354 403.47523 46.546606 392.24435 44.751953 381.25781 C 42.068369 365.10436 35.820698 349.35952 25.595703 336.47852 C 22.255796 331.58937 21.939652 324.93557 24.535156 319.65039 C 26.316414 315.80594 29.554059 312.94967 32.234375 309.75781 C 62.134207 276.22405 96.177387 246.05464 134.73633 222.80859 C 165.34097 204.30059 198.67834 190.3436 233.31445 181.43945 C 241.89088 179.22041 250.5439 177.30244 259.24805 175.6543 C 258.09647 170.56078 256.9124 165.53951 255.66797 160.66406 z M 269.1582 228.5957 C 234.24131 238.27412 200.58709 253.63763 171.83008 275.85156 C 152.26104 291.00617 135.00336 309.51639 122.97266 331.24609 C 112.68601 349.78602 106.5347 370.79453 106.37109 392.06055 C 106.12886 411.24236 110.24062 430.61895 119.26172 447.63867 C 122.49824 453.77332 126.33706 459.57934 130.67969 464.98242 C 131.73443 457.68214 132.67153 450.25907 133.47656 442.69922 C 124.54669 426.84922 121.4708 410.08797 121.37305 393.41797 C 121.2793 351.68047 146.34695 311.38047 190.3457 280.98047 C 212.8707 265.22422 240.44313 252.30414 271.32812 243.27539 C 270.63673 238.33147 269.90728 233.44872 269.1582 228.5957 z "
         transform="matrix(8,0,0,-8,0,6400)"
         id="path32" /><path
         d="m 3057.07,3075.51 c -5.39,0.39 -9.61,2.3 -16.52,2.69 1.52,24.18 4.61,47.27 8.83,66.49 4.6,-20.78 8.08,-45.74 7.69,-65.74 l 0,-3.44"
         style="fill:#ffffff;fill-opacity:1;fill-rule:nonzero;stroke:none"
         id="path34"
         inkscape:connector-curvature="0" /><path
         d="m 3178.48,804.609 0,0"
         style="fill:#a7acb2;fill-opacity:1;fill-rule:nonzero;stroke:none"
         id="path36"
         inkscape:connector-curvature="0" /><path
         d="m 3178.48,804.609 0,0"
         style="fill:#a7acb2;fill-opacity:1;fill-rule:nonzero;stroke:none"
         id="path38"
         inkscape:connector-curvature="0" /><path
         d="m 3409.8,2424.61 c 16.53,0 34.58,2.3 51.1,5.74 -16.13,-2.3 -33.79,-3.83 -51.1,-5.74"
         style="fill:#a7acb2;fill-opacity:1;fill-rule:nonzero;stroke:none"
         id="path44"
         inkscape:connector-curvature="0" /><path
         style="fill:#ffffff;fill-opacity:1;fill-rule:nonzero;stroke:none"
         d="M 433.52539 243.08594 C 431.36289 246.73344 429.20336 250.14602 426.84961 253.60352 C 431.84133 254.38619 436.75409 256.75854 440.64453 259.59375 C 443.77775 255.11182 446.70677 250.48475 449.16406 245.59961 C 444.03322 244.7002 438.82395 243.85991 433.52539 243.08594 z M 503.32227 258.42188 C 491.82023 285.60699 473.58055 309.87214 450.85547 328.68359 C 450.71408 328.75739 450.59046 328.89031 450.44141 328.95508 C 448.86022 331.93045 447.05842 334.7782 445.05469 337.50977 C 444.27204 338.49205 443.55755 339.66325 442.92383 340.85938 C 443.2815 340.96107 443.67564 341.24721 443.98438 341.33594 C 471.19858 353.52635 497.86883 367.44487 521.59766 385.64648 C 535.79111 396.50753 548.89635 408.82019 560.39844 422.50781 C 549.61621 442.75648 544.71674 465.98967 546.04102 488.84961 C 547.4126 513.51256 556.08658 537.74338 570.67578 557.7168 C 573.00688 560.92401 575.48769 564.02234 578.10352 567.00781 C 567.30785 592.55781 549.12002 614.50989 527.63867 631.83984 C 498.24516 655.53134 462.90021 671.15637 426.25781 679.65625 C 414.07442 682.47592 401.70968 684.50195 389.26953 685.77344 C 391.69511 690.30394 394.44333 694.99061 397.31055 699.375 C 487.6568 688.08637 562.63102 640.34664 591.88477 573.05664 C 594.04227 567.62789 593.17828 561.19031 589.14453 556.82031 C 571.51828 536.64406 560.9043 510.42406 560.9043 481.50781 C 560.9043 462.82156 565.42008 445.24305 573.48633 429.7793 C 576.32383 424.11055 575.55203 417.24164 571.51953 412.68164 C 539.86453 375.50289 501.77703 352.35398 466.42578 335.30273 C 488.47078 315.22523 505.95687 290.92188 517.48438 263.10938 C 512.86698 261.4706 508.14461 259.90823 503.32227 258.42188 z M 397.31055 699.375 C 396.8318 698.84762 397.59805 699.81 397.31055 699.375 z M 447.08008 425.875 C 446.18663 427.99795 445.86914 430.02963 445.86914 431.8457 C 445.77164 436.45445 447.8368 442.07539 451.9668 447.83789 C 452.0643 447.98414 452.25617 448.22305 452.45117 448.56055 C 473.38867 466.95305 485.40039 490.19984 485.40039 514.74609 C 485.40039 541.59609 471.23047 566.7625 446.54297 585.78125 C 428.53047 599.76125 405.28336 610.0382 378.81836 614.4082 C 378.78717 620.46168 378.74417 624.82109 378.70312 629.59961 C 406.06203 625.25311 432.73878 614.95503 454.875 598.13281 C 471.86277 585.22826 486.08519 568.17215 493.7832 548.1582 C 500.41882 531.04943 501.85164 511.9451 497.65625 494.05273 C 493.64477 476.74898 484.60403 460.80244 472.66406 447.70312 C 465.1113 439.3714 456.43466 432.09992 447.08008 425.875 z "
         transform="matrix(8,0,0,-8,0,6400)"
         id="path46" /><path
         style="fill:#ffffff;fill-opacity:1;fill-rule:nonzero;stroke:none"
         d="M 334.10156 8.453125 C 269.16531 8.453125 209.70258 31.796484 163.64258 70.458984 L 96.830078 67.050781 L 96.158203 67.050781 C 90.971703 67.002031 85.15575 68.301953 79.921875 72.720703 C 74.877 77.231953 72.143484 84.438281 72.333984 90.488281 C 72.431109 94.525781 73.345203 96.63625 74.111328 98.75 C 74.785078 100.57625 75.502062 102.16164 76.367188 103.74414 C 94.282313 133.04539 109.51028 167.14844 120.94141 204.17969 C 125.30257 201.50468 129.71659 198.91757 134.16797 196.4082 C 122.87114 161.34768 108.13792 127.3128 89.09375 95.738281 C 87.837936 93.604269 86.912549 91.08505 87.4375 88.585938 C 87.802394 85.870887 89.795205 83.424787 92.460938 82.6875 C 95.65456 81.680438 99.038588 82.447009 102.29883 82.443359 L 168.79688 85.515625 C 199.94255 58.089412 237.99839 38.543503 278.49219 29.408203 C 304.30721 23.537778 331.04088 21.919875 357.40039 24.242188 C 385.48233 26.630112 413.23131 32.704853 439.82617 42.009766 C 457.03145 48.067228 473.77704 55.551891 489.44727 64.916016 C 492.08103 66.741478 492.85398 70.633991 491.29883 73.400391 C 489.90418 76.184291 488.91446 79.147781 487.78711 82.042969 C 479.41816 104.75558 475.37147 128.92727 474.50195 153.06445 C 474.53502 153.22833 474.52591 153.43153 474.49414 153.62891 C 479.43148 154.41324 484.32107 155.23841 489.14453 156.09961 C 489.81828 132.80336 493.85195 105.52313 504.6582 79.921875 C 505.61945 78.051875 506.72406 75.699375 506.91406 70.703125 C 506.91406 68.203125 506.6268 64.458281 504.56055 60.425781 C 502.5443 56.007031 498.89695 53.027344 495.5332 51.152344 C 448.5607 23.774844 387.36906 8.550625 334.10156 8.453125 z M 328.34375 65.441406 C 306.36985 65.739776 284.46175 71.207022 265.0918 81.642578 C 241.8964 94.062916 222.36186 113.57895 210.59961 137.18164 C 205.89081 146.58867 202.40906 156.6071 200.29688 166.90625 C 205.80915 165.04072 211.37051 163.2839 217.00195 161.66992 C 222.2357 143.27617 232.75898 126.56234 247.02148 112.87109 C 268.10523 92.939844 297.54969 80.210938 330.21094 80.210938 C 379.58594 80.210938 421.51883 109.02914 438.95508 149.08789 C 444.49328 149.59742 449.98049 150.21382 455.42188 150.90039 C 446.91265 126.25054 430.0801 104.76509 408.75781 89.884766 C 387.99518 75.310253 363.05421 66.922047 337.75781 65.630859 C 334.62319 65.461959 331.48288 65.398782 328.34375 65.441406 z "
         transform="matrix(8,0,0,-8,0,6400)"
         id="path48" /><path
         style="fill:#ffffff;fill-opacity:1;fill-rule:nonzero;stroke:none"
         d="M 418.30078 155.14062 C 417.19703 156.19563 416.1368 157.30055 414.93555 158.4043 C 411.77447 161.50557 408.63571 165.2285 405.54102 169.48438 C 447.86091 171.94729 490.17347 177.80292 530.89648 189.83203 C 532.29566 190.2445 533.69138 190.66971 535.08594 191.09766 C 535.67244 188.33479 536.25067 185.72023 536.79297 183.38281 C 530.69422 178.86656 524.87797 174.78531 519.35547 171.13281 C 488.13547 163.15906 454.41828 158.07062 418.30078 155.14062 z M 386.79297 216.04297 L 386.79297 231.2207 C 441.40172 233.0907 487.84547 243.17945 527.23047 257.87695 C 527.28081 252.64331 527.49511 247.48004 527.82227 242.42383 C 482.67734 226.0468 434.82267 217.91826 386.91992 216.06641 C 386.87102 216.06564 386.83535 216.0512 386.79297 216.04297 z "
         transform="matrix(8,0,0,-8,0,6400)"
         id="path56" /><path
         style="fill:#ffffff;fill-opacity:1;fill-rule:nonzero;stroke:none"
         d="M 365.17578 93.755859 C 353.16828 100.04961 341.73797 107.5868 331.60547 115.56055 L 284.58008 114.31055 L 284.19922 114.31055 C 270.55672 114.40805 259.51141 125.16555 259.31641 138.99805 C 259.31641 141.40055 259.60508 143.46687 259.89258 144.85938 L 260.08789 145.48438 C 281.55789 221.70937 291.49953 331.9382 294.33203 429.25195 C 295.05453 451.58695 295.3418 473.09914 295.3418 493.27539 L 295.3418 502.16211 C 300.14623 502.28477 305.0914 502.44041 310.21094 502.54102 C 310.3746 440.50903 308.15945 378.45084 302.81836 316.64453 C 299.17623 274.97497 294.12539 233.38933 286.22852 192.30273 C 282.92538 175.17385 279.03475 158.15702 274.36133 141.34766 C 273.82255 138.35349 274.45445 135.06445 276.53125 132.76562 C 278.72546 130.21491 282.22618 128.99799 285.54102 129.35938 L 336.9043 130.47656 C 351.05991 118.74406 366.85344 109.03728 383.56055 101.38477 C 377.75976 98.343611 371.61575 95.779018 365.17578 93.755859 z M 416.64062 128.11328 C 403.91987 135.21907 393.70057 146.0521 385.41016 157.89453 C 376.63289 170.45588 369.72707 184.23469 363.6582 198.27734 C 363.70947 233.30776 363.68817 268.33929 363.78711 303.36914 C 363.96838 307.29174 365.3444 311.45766 368.5293 313.95312 C 371.68666 316.50453 376.29288 316.50131 379.8418 314.80469 C 385.2042 312.40559 388.71112 307.44111 391.94141 302.74023 C 397.20934 295.16612 402.09958 287.14515 408.99414 280.89844 C 412.09422 278.14789 415.94286 275.72107 420.23242 275.78516 C 424.37625 275.88271 428.14995 278.42459 430.4043 281.80859 C 434.38405 287.45579 435.45447 294.66613 434.80664 301.42383 C 434.13222 308.72619 431.77134 315.91692 427.76562 322.07422 C 425.8479 324.80954 423.79199 327.46369 422.28516 330.46094 C 418.84008 336.85762 416.59223 344.25408 417.61914 351.54688 C 418.30592 356.27244 420.65623 360.69283 424.00586 364.09766 C 430.16318 371.14628 433.73222 380.43827 433.65234 389.81641 C 433.66809 398.75173 430.77602 407.44906 426.63281 415.28125 C 422.78241 423.23379 421.81328 432.50881 423.82227 441.08203 C 425.45755 448.45432 428.97381 455.29678 433.20703 461.51953 C 435.24338 465.15368 434.06698 470.26094 430.49805 472.48828 C 427.1362 474.77076 422.24685 473.88973 419.5957 470.9082 C 411.98033 463.47889 406.59017 453.71262 404.7832 443.19727 C 403.43227 435.72833 403.7919 428.04449 404.96289 420.58594 C 405.99447 410.61481 404.13779 400.36419 399.70508 391.35547 C 396.84805 385.65597 392.62038 380.29966 386.67188 377.6543 C 380.65713 375.04211 373.06752 376.0469 368.23633 380.65039 C 363.66897 384.88029 361.30126 390.89597 359.71875 396.79492 C 356.6738 408.4003 356.63322 420.47891 356.69336 432.41211 C 356.67945 455.58612 356.6056 478.75957 356.59961 501.93359 C 361.63946 501.73412 366.64502 501.49451 371.61719 501.20117 C 371.61719 478.24242 371.70898 452.97891 371.70898 425.41016 C 371.61648 414.84391 372.81242 403.60453 375.26367 397.45703 C 376.27492 394.09203 377.76359 392.36297 378.33984 392.07422 C 378.81859 391.54672 378.52938 391.54672 379.92188 391.44922 C 380.59562 391.54672 380.93187 391.54805 381.79688 392.2168 C 383.38313 392.94055 385.82977 396.15805 387.50977 400.43555 C 389.48227 404.80555 390.4432 410.27836 390.3457 415.22461 C 390.3457 416.95211 390.15609 418.82695 390.05859 420.12695 C 389.48234 424.4482 389.0957 428.77062 389.0957 433.14062 C 388.9057 449.61438 394.71672 467.43719 408.98047 481.46094 C 413.83297 486.16844 419.83891 488.66734 426.03516 488.80859 C 431.03016 488.80859 436.35664 487.03164 440.77539 483.52539 C 446.30289 479.00914 449.23438 472.38172 449.23438 465.51172 C 449.23438 461.19047 447.74406 456.48328 445.19531 452.83203 C 440.73281 446.05953 437.80203 438.51953 437.89453 431.89453 C 437.89453 428.33953 438.75922 424.73695 440.82422 420.2207 C 445.96547 410.18195 448.70117 399.95094 448.70117 389.96094 C 448.79867 375.74219 443.1793 362.77859 434.24805 353.02734 C 432.6618 351.05484 432.4718 350.23945 432.37305 348.0332 C 432.18305 344.23945 435.20477 337.03203 438.75977 332.61328 C 445.48352 323.48703 449.90195 311.5775 450.18945 298.125 C 450.18945 288.37875 447.59742 277.13922 438.85742 268.73047 L 437.89453 267.81836 C 433.28578 263.78461 426.56313 260.9043 420.17188 260.9043 C 412.00688 260.95305 405.80992 264.8432 401.20117 268.25195 C 394.42867 273.8232 389.67281 280.35695 385.35156 286.31445 C 382.90031 289.81945 380.54703 293.17922 378.67578 295.91797 L 378.57812 201.20117 C 387.79687 180.69367 397.93578 163.68547 409.17578 152.54297 C 414.50703 147.45547 419.88195 143.56461 425.50195 140.53711 C 422.86361 136.19426 419.89805 132.04515 416.64062 128.11328 z "
         transform="matrix(8,0,0,-8,0,6400)"
         id="path60" /><path
         style="fill:#ffffff;fill-opacity:1;fill-rule:nonzero;stroke:none"
         d="M 288.51953 607.25195 C 288.32953 608.07195 288.23227 609.02945 288.13477 609.75195 C 280.44852 668.5407 267.1968 715.46291 251.3418 745.00391 C 249.3743 748.55903 248.60938 752.11278 248.60938 756.09766 C 248.51188 764.35891 253.12016 772.86139 261.19141 777.04102 C 265.03391 779.00877 268.58961 779.54102 272.19336 779.54102 C 273.05711 779.54102 273.77453 779.54045 274.92578 779.3457 C 294.42828 778.00195 310.27852 771.66014 325.79102 762.82227 C 336.02477 771.18114 345.67781 777.76413 356.19531 782.51562 C 368.97406 788.76026 382.75898 791.64063 397.64648 791.64062 L 397.93555 791.64062 C 404.80555 791.64062 411.62219 791.21045 419.11719 790.15039 L 419.78906 790.15039 C 430.49656 787.84522 437.70453 779.00922 437.89453 768.10547 C 437.65578 760.90422 434.5368 754.99564 429.87305 750.96289 C 417.10055 739.77052 401.44 721.3232 389.53125 702.68945 C 377.715 684.43845 370.21906 664.88672 370.41406 655.66797 C 370.41406 645.96547 370.60438 633.04578 370.70312 615.80078 C 365.88177 616.43521 360.86773 616.88097 355.7832 617.125 C 355.73284 630.62226 355.61328 644.13148 355.73828 657.62109 C 356.30797 667.51326 359.70679 676.99885 363.67969 686.01172 C 370.53439 701.26114 379.65539 715.41824 389.71094 728.73438 C 398.90994 740.84578 409.05082 752.28182 420.46484 762.35547 C 422.75009 764.42085 423.69927 767.9043 422.50586 770.78516 C 421.36981 773.68338 418.30415 775.48213 415.26367 775.60547 C 409.34401 776.43189 403.37308 776.94371 397.39258 776.92383 C 385.12417 776.9676 372.83257 774.27744 361.79883 768.88477 C 349.05834 762.78395 337.81664 754.06262 326.99414 745.08984 C 314.71155 752.55704 301.72352 759.32338 287.5957 762.47266 C 282.42899 763.63066 277.16676 764.45483 271.87305 764.66797 C 268.61851 764.53951 265.29147 762.65728 264.11328 759.51172 C 262.93934 756.67442 263.48797 753.34862 265.10547 750.79883 C 275.65642 730.33705 282.88825 708.3388 288.73438 686.125 C 295.11882 661.63116 299.59764 636.67031 302.91992 611.58398 C 297.98469 610.31246 293.17751 608.863 288.51953 607.25195 z "
         transform="matrix(8,0,0,-8,0,6400)"
         id="path62" /><path
         style="fill:#ffffff;fill-opacity:1;fill-rule:nonzero;stroke:none"
         d="M 475.07422 498.36914 C 428.81922 505.76164 376.9432 510.51758 318.87695 510.51758 C 278.52945 510.51758 245.96719 506.53328 220.36719 499.61328 C 219.16594 504.70703 218.49219 509.46227 218.49219 514.69727 C 218.49225 514.71291 218.49211 514.7285 218.49219 514.74414 C 251.59973 522.80999 285.78709 525.38421 319.79102 525.38672 C 372.43965 525.33906 425.13043 521.62809 477.11328 513.22266 C 476.98875 508.10343 476.2515 503.17721 475.07422 498.36914 z M 435.52539 583.91992 C 408.93651 587.2573 382.14487 589.09221 355.3418 589.01953 C 323.70102 588.96673 292.04515 587.51644 260.58594 584.07031 C 271.98894 591.64277 285.36445 597.88386 300.18945 602.30469 C 318.3932 603.31469 337.22039 603.89063 356.86914 603.89062 C 369.45289 603.89062 381.84664 603.40805 393.99414 602.5918 C 409.59113 598.22613 423.54571 591.90739 435.52539 583.91992 z "
         transform="matrix(8,0,0,-8,0,6400)"
         id="path70" /><path
         style="fill:#000000;fill-opacity:1;fill-rule:nonzero;stroke:none"
         d="m 1727.6953,3527.1738 c 0.8174,52.1133 0.7466,104.2541 -1.084,156.3457 37.057,-30.2901 75.6179,-58.7524 115.6153,-85.0449 -38.9021,-22.7811 -76.8757,-47.1021 -114.5411,-71.8594 l 0.01,0.5586 z"
         id="path74"
         inkscape:connector-curvature="0" /></g></g></svg>