<?xml version="1.0" encoding="utf-8"?>
<!-- Generator: Adobe Illustrator 22.1.0, SVG Export Plug-In . SVG Version: 6.00 Build 0)  -->
<!DOCTYPE svg PUBLIC "-//W3C//DTD SVG 1.1//EN" "http://www.w3.org/Graphics/SVG/1.1/DTD/svg11.dtd">
<svg version="1.1"
	 id="svg7905" inkscape:version="0.91 r13725" sodipodi:docname="new zealand black ferns.svg" xmlns:cc="http://creativecommons.org/ns#" xmlns:dc="http://purl.org/dc/elements/1.1/" xmlns:inkscape="http://www.inkscape.org/namespaces/inkscape" xmlns:rdf="http://www.w3.org/1999/02/22-rdf-syntax-ns#" xmlns:sodipodi="http://sodipodi.sourceforge.net/DTD/sodipodi-0.dtd" xmlns:svg="http://www.w3.org/2000/svg"
	 xmlns="http://www.w3.org/2000/svg" xmlns:xlink="http://www.w3.org/1999/xlink" x="0px" y="0px" viewBox="0 0 302 234"
	 style="enable-background:new 0 0 302 234;" xml:space="preserve">
<style type="text/css">
	.st0{clip-path:url(#SVGID_2_);}
	.st1{clip-path:url(#SVGID_4_);}
	.st2{clip-path:url(#SVGID_6_);}
	.st3{clip-path:url(#SVGID_8_);}
	.st4{clip-path:url(#SVGID_10_);}
	.st5{clip-path:url(#SVGID_12_);}
	.st6{clip-path:url(#SVGID_14_);}
	.st7{clip-path:url(#SVGID_16_);}
	.st8{clip-path:url(#SVGID_18_);}
	.st9{clip-path:url(#SVGID_20_);}
	.st10{clip-path:url(#SVGID_22_);}
	.st11{clip-path:url(#SVGID_24_);}
	.st12{clip-path:url(#SVGID_26_);}
	.st13{clip-path:url(#SVGID_28_);}
	.st14{clip-path:url(#SVGID_30_);}
	.st15{clip-path:url(#SVGID_32_);}
	.st16{clip-path:url(#SVGID_34_);}
	.st17{clip-path:url(#SVGID_36_);}
	.st18{clip-path:url(#SVGID_38_);}
	.st19{clip-path:url(#SVGID_40_);}
	.st20{clip-path:url(#SVGID_42_);}
	.st21{clip-path:url(#SVGID_44_);}
	.st22{clip-path:url(#SVGID_46_);}
	.st23{clip-path:url(#SVGID_48_);}
	.st24{clip-path:url(#SVGID_50_);}
	.st25{clip-path:url(#SVGID_52_);}
	.st26{clip-path:url(#SVGID_54_);}
	.st27{clip-path:url(#SVGID_56_);}
	.st28{clip-path:url(#SVGID_58_);}
	.st29{clip-path:url(#SVGID_60_);}
	.st30{fill:none;stroke:#000000;stroke-width:0.9733;}
	.st31{fill:none;}
</style>
<sodipodi:namedview  bordercolor="#666666" borderopacity="1.0" id="base" inkscape:current-layer="layer1" inkscape:cx="22.142857" inkscape:cy="520" inkscape:document-units="px" inkscape:pageopacity="0.0" inkscape:pageshadow="2" inkscape:window-height="744" inkscape:window-maximized="1" inkscape:window-width="1280" inkscape:window-x="-4" inkscape:window-y="-4" inkscape:zoom="0.35" pagecolor="#ffffff" showgrid="false" units="px">
	</sodipodi:namedview>
<g id="Registered">
	<g>
		<g>
			<g>
				<defs>
					<rect id="SVGID_1_" x="1" y="4.1" width="291.9" height="225.5"/>
				</defs>
				<clipPath id="SVGID_2_">
					<use xlink:href="#SVGID_1_"  style="overflow:visible;"/>
				</clipPath>
				<path id="path6246" inkscape:connector-curvature="0" class="st0" d="M156.8,38.9c-3.4,0.4-6.7,0.9-10,1.4l1.2,37.8l41.9,21.9
					c1.2-0.6,2.4-1.2,3.7-1.8l-35-23.8l-5.8,2L156.8,38.9z"/>
			</g>
			<g>
				<defs>
					<rect id="SVGID_3_" x="1" y="4.1" width="291.9" height="225.5"/>
				</defs>
				<clipPath id="SVGID_4_">
					<use xlink:href="#SVGID_3_"  style="overflow:visible;"/>
				</clipPath>
				<path id="path6250" inkscape:connector-curvature="0" class="st1" d="M136.5,42.1c-3.4,0.7-6.6,1.4-9.6,2.2l-0.4,43l43.5,22.2
					c1.6-0.8,3.3-1.5,5-2.4l-37.7-24.8l-6,2.7L136.5,42.1z"/>
			</g>
			<g>
				<defs>
					<rect id="SVGID_5_" x="1" y="4.1" width="291.9" height="225.5"/>
				</defs>
				<clipPath id="SVGID_6_">
					<use xlink:href="#SVGID_5_"  style="overflow:visible;"/>
				</clipPath>
				<path id="path6254" inkscape:connector-curvature="0" class="st2" d="M146,40.4c-2.9,0.5-5.8,1-8.6,1.5l-0.2,40.5l43.1,22.3
					c1.4-0.7,2.9-1.4,4.3-2.1L148,78.1l-6,2.1L146,40.4z"/>
			</g>
			<g>
				<defs>
					<rect id="SVGID_7_" x="1" y="4.1" width="291.9" height="225.5"/>
				</defs>
				<clipPath id="SVGID_8_">
					<use xlink:href="#SVGID_7_"  style="overflow:visible;"/>
				</clipPath>
				<path id="path6258" inkscape:connector-curvature="0" class="st3" d="M174.8,37c-2.7,0.3-5.3,0.5-8,0.8l1.9,33.4l-5.8,1.9
					l3-35.2c-2.8,0.3-5.5,0.6-8.3,0.9l0.9,35.6l40.8,21c1.2-0.6,2.3-1.2,3.5-1.8l-33.9-22.4l38.4,20.1c1.1-0.6,2.3-1.2,3.4-1.8
					l-32-21.5l-5.8,2L174.8,37z"/>
			</g>
			<g>
				<defs>
					<rect id="SVGID_9_" x="1" y="4.1" width="291.9" height="225.5"/>
				</defs>
				<clipPath id="SVGID_10_">
					<use xlink:href="#SVGID_9_"  style="overflow:visible;"/>
				</clipPath>
				<path id="path6262" inkscape:connector-curvature="0" class="st4" d="M184,36.1c-2.7,0.3-5.5,0.5-8.2,0.8l3,31l36.1,19.3
					c1-0.6,2.1-1.2,3.1-1.7l-30.5-20.6l-5,1.8L184,36.1z"/>
			</g>
			<g>
				<defs>
					<rect id="SVGID_11_" x="1" y="4.1" width="291.9" height="225.5"/>
				</defs>
				<clipPath id="SVGID_12_">
					<use xlink:href="#SVGID_11_"  style="overflow:visible;"/>
				</clipPath>
				<path id="path6266" inkscape:connector-curvature="0" class="st5" d="M77.7,66.9c-5.1,3.2-9.3,6-12.3,8.1l-1.3,51.3
					c0,0-9.9,7.1-13.6,10.2C46.8,139.6,40,146,40,146v12.7c0,0,8.2-11.4,14-16.8c5.6-5.3,12.8-11.2,12.8-11.2l-1.3-1.9l45.8,20.7
					c0.7-0.7,2.5-2.4,5.1-4.8l-39.7-26l-6.2,5L77.7,66.9z"/>
			</g>
			<g>
				<defs>
					<rect id="SVGID_13_" x="1" y="4.1" width="291.9" height="225.5"/>
				</defs>
				<clipPath id="SVGID_14_">
					<use xlink:href="#SVGID_13_"  style="overflow:visible;"/>
				</clipPath>
				<path id="path6270" inkscape:connector-curvature="0" class="st6" d="M90.2,59.7c-4.1,2.2-7.9,4.4-11.3,6.5l-2.2,52.6l46.4,20.1
					c1.7-1.4,3.5-2.9,5.3-4.4l-38.9-25.3l-6.2,4.5L90.2,59.7z"/>
			</g>
			<g>
				<defs>
					<rect id="SVGID_15_" x="1" y="4.1" width="291.9" height="225.5"/>
				</defs>
				<clipPath id="SVGID_16_">
					<use xlink:href="#SVGID_15_"  style="overflow:visible;"/>
				</clipPath>
				<path id="path6274" inkscape:connector-curvature="0" class="st7" d="M193.2,35.2c-2.8,0.3-5.6,0.5-8.4,0.8l2.5,28.9l34.4,18.3
					c1.1-0.7,2.2-1.3,3.3-2l-28.8-19.3l-5.4,1.9L193.2,35.2z"/>
			</g>
			<g>
				<defs>
					<rect id="SVGID_17_" x="1" y="4.1" width="291.9" height="225.5"/>
				</defs>
				<clipPath id="SVGID_18_">
					<use xlink:href="#SVGID_17_"  style="overflow:visible;"/>
				</clipPath>
				<path id="path6278" inkscape:connector-curvature="0" class="st8" d="M126,44.6c-0.2,0.1-0.5,0.1-0.7,0.2c-3.4,1-6.7,2.1-10,3.3
					l-1.1,45.6l44.6,21.1c1.7-0.8,3.5-1.7,5.4-2.6l-37.8-24.9l-6.4,3.3L126,44.6z"/>
			</g>
			<g>
				<defs>
					<rect id="SVGID_19_" x="1" y="4.1" width="291.9" height="225.5"/>
				</defs>
				<clipPath id="SVGID_20_">
					<use xlink:href="#SVGID_19_"  style="overflow:visible;"/>
				</clipPath>
				<path id="path6282" inkscape:connector-curvature="0" class="st9" d="M114.5,48.4c-3.9,1.5-7.8,3.1-11.5,4.9l-1.1,47.8l-6.3,4
					l6.5-51.4c-3.9,1.8-7.6,3.7-11.1,5.6l-1.5,49.9l45.2,20.4c1.6-1.2,3.3-2.4,5-3.6l-37.9-24.8l44.4,20.5c1.8-1.1,3.5-2.1,5.3-3.1
					c0.1-0.1,0.2-0.1,0.3-0.2l-37.7-24.6l-6.4,3.6L114.5,48.4z"/>
			</g>
			<g>
				<defs>
					<rect id="SVGID_21_" x="1" y="4.1" width="291.9" height="225.5"/>
				</defs>
				<clipPath id="SVGID_22_">
					<use xlink:href="#SVGID_21_"  style="overflow:visible;"/>
				</clipPath>
				<path id="path6286" inkscape:connector-curvature="0" class="st10" d="M247.6,23.5c-2.3,1-4.8,1.9-7.3,2.8l0.1,16.5l21.3,4.6
					c1.2-1.8,2.3-3.6,3.4-5.4l-16.2-4.6l-4.2,2.7L247.6,23.5z"/>
			</g>
			<g>
				<defs>
					<rect id="SVGID_23_" x="1" y="4.1" width="291.9" height="225.5"/>
				</defs>
				<clipPath id="SVGID_24_">
					<use xlink:href="#SVGID_23_"  style="overflow:visible;"/>
				</clipPath>
				<path id="path6290" inkscape:connector-curvature="0" class="st11" d="M239.5,26.6c-2.5,0.9-5.1,1.7-7.8,2.5l-0.2,18.3l24.7,7.6
					c1-1.3,2-2.6,2.9-3.9l-18.8-8.3l-4.3,2.3L239.5,26.6z"/>
			</g>
			<g>
				<defs>
					<rect id="SVGID_25_" x="1" y="4.1" width="291.9" height="225.5"/>
				</defs>
				<clipPath id="SVGID_26_">
					<use xlink:href="#SVGID_25_"  style="overflow:visible;"/>
				</clipPath>
				<path id="path6294" inkscape:connector-curvature="0" class="st12" d="M263,16.1c-2,1.1-4.1,2.2-6.4,3.4l-0.1,12.3l-4.1,3.3
					l3.5-15.2c-2.3,1.1-4.8,2.3-7.5,3.4l0.6,14.3l18.2,1.1c1-1.8,2-3.6,2.8-5.4l-13.2-1.6l14.9-1.9c0.8-1.7,1.5-3.4,2.2-5l-10.1,0.6
					l-3.1,2.8L263,16.1z"/>
			</g>
			<g>
				<defs>
					<rect id="SVGID_27_" x="1" y="4.1" width="291.9" height="225.5"/>
				</defs>
				<clipPath id="SVGID_28_">
					<use xlink:href="#SVGID_27_"  style="overflow:visible;"/>
				</clipPath>
				<path id="path6298" inkscape:connector-curvature="0" class="st13" d="M231,29.3c-1.2,0.3-2.4,0.7-3.6,1c-1.4,0.4-3,0.7-4.6,1
					l-0.1,20.2l0,0l27.8,10.2c1-1,1.9-2.1,2.8-3.1l-21.7-11.1l-4.3,2L231,29.3z"/>
			</g>
			<g>
				<defs>
					<rect id="SVGID_29_" x="1" y="4.1" width="291.9" height="225.5"/>
				</defs>
				<clipPath id="SVGID_30_">
					<use xlink:href="#SVGID_29_"  style="overflow:visible;"/>
				</clipPath>
				<path id="path6302" inkscape:connector-curvature="0" class="st14" d="M280.7,4.1c0,0-1.2,1.1-3.5,2.8l-1,4.5l-1.9,2.4l1-5.5
					c-1.2,0.9-2.6,1.9-4.2,2.9l-1,7.6l-2.1,2.3l2-9.2c-1.9,1.2-4,2.5-6.3,3.8l-0.1,9.7l11.6-4.2c0.6-1.6,1.2-3,1.7-4.4l-6,1.2l6.9-4
					C279.9,7.9,280.7,4.1,280.7,4.1"/>
			</g>
			<g>
				<defs>
					<rect id="SVGID_31_" x="1" y="4.1" width="291.9" height="225.5"/>
				</defs>
				<clipPath id="SVGID_32_">
					<use xlink:href="#SVGID_31_"  style="overflow:visible;"/>
				</clipPath>
				<path id="path6306" inkscape:connector-curvature="0" class="st15" d="M202.8,34.2c-2.8,0.3-5.7,0.6-8.6,0.9l2.1,26.8l33.1,16.6
					c1.1-0.7,2.2-1.4,3.3-2.2l-27.1-17.9l-5.3,2L202.8,34.2z"/>
			</g>
			<g>
				<defs>
					<rect id="SVGID_33_" x="1" y="4.1" width="291.9" height="225.5"/>
				</defs>
				<clipPath id="SVGID_34_">
					<use xlink:href="#SVGID_33_"  style="overflow:visible;"/>
				</clipPath>
				<path id="path6310" inkscape:connector-curvature="0" class="st16" d="M213.9,55.1L213.9,55.1L213.9,55.1L213.9,55.1z"/>
			</g>
			<g>
				<defs>
					<rect id="SVGID_35_" x="1" y="4.1" width="291.9" height="225.5"/>
				</defs>
				<clipPath id="SVGID_36_">
					<use xlink:href="#SVGID_35_"  style="overflow:visible;"/>
				</clipPath>
				<path id="path6314" inkscape:connector-curvature="0" class="st17" d="M213,32.9c-3,0.4-6.2,0.8-9.5,1.2l2,24.3l30.8,15.4
					c0.8-0.5,1.5-1.1,2.3-1.6c0.4-0.3,0.8-0.6,1.2-0.9l-26-16.1l-4.6,1.8L213,32.9z"/>
			</g>
			<g>
				<defs>
					<rect id="SVGID_37_" x="1" y="4.1" width="291.9" height="225.5"/>
				</defs>
				<clipPath id="SVGID_38_">
					<use xlink:href="#SVGID_37_"  style="overflow:visible;"/>
				</clipPath>
				<path id="path6318" inkscape:connector-curvature="0" class="st18" d="M222.7,51.5L222.7,51.5L222.7,51.5L222.7,51.5z"/>
			</g>
			<g>
				<defs>
					<rect id="SVGID_39_" x="1" y="4.1" width="291.9" height="225.5"/>
				</defs>
				<clipPath id="SVGID_40_">
					<use xlink:href="#SVGID_39_"  style="overflow:visible;"/>
				</clipPath>
				<path id="path6322" inkscape:connector-curvature="0" class="st19" d="M221.9,31.5c-2.5,0.5-5.1,0.9-8,1.3v22.3l-0.1,0.1
					l30,12.8c1-0.9,2-1.8,3-2.7l-24.2-13.8l-4.5,1.9L221.9,31.5z"/>
			</g>
			<g>
				<defs>
					<rect id="SVGID_41_" x="1" y="4.1" width="291.9" height="225.5"/>
				</defs>
				<clipPath id="SVGID_42_">
					<use xlink:href="#SVGID_41_"  style="overflow:visible;"/>
				</clipPath>
				<path id="path6366" inkscape:connector-curvature="0" class="st20" d="M15.1,185.6c1.7,0,2.8,0.6,2.8,2.5c0,1.8-0.7,2.6-2.8,2.6
					h-1.7v-5.2L15.1,185.6L15.1,185.6z M15.4,174.8c1.3,0,2.2,1.1,2.2,2.4c0,1.2-0.7,2.6-2.2,2.6h-2.1v-5
					C13.4,174.8,15.4,174.8,15.4,174.8z M3.1,196.9h16.6c4.6,0,8.8-1.8,8.8-7.2c0-4.5-2.7-6.3-7.1-6.9v-0.2c4.1-0.5,6.2-2.4,6.2-6.5
					c0-6.2-4.7-7.3-9.8-7.3H1v1.8l0.9,0.1c0.9,0.1,1.3,0.7,1.3,1.4C3.1,172.1,3.1,196.9,3.1,196.9z"/>
			</g>
			<g>
				<defs>
					<rect id="SVGID_43_" x="1" y="4.1" width="291.9" height="225.5"/>
				</defs>
				<clipPath id="SVGID_44_">
					<use xlink:href="#SVGID_43_"  style="overflow:visible;"/>
				</clipPath>
				<path id="path6370" inkscape:connector-curvature="0" class="st21" d="M31.8,196.9h20v-6.7h-9.4v-21.4H29.7v1.8l0.9,0.1
					c0.9,0.1,1.3,0.7,1.3,1.4v24.8H31.8z"/>
			</g>
			<g>
				<defs>
					<rect id="SVGID_45_" x="1" y="4.1" width="291.9" height="225.5"/>
				</defs>
				<clipPath id="SVGID_46_">
					<use xlink:href="#SVGID_45_"  style="overflow:visible;"/>
				</clipPath>
				<path id="path6374" inkscape:connector-curvature="0" class="st22" d="M70.8,186.6h-4.3l2-12h0.2L70.8,186.6z M53.6,196.9h11.2
					l0.7-4.5h6l0.8,4.5h11.4l-7.8-28.1H58.7v1.8l0.9,0.1c0.9,0.1,1.3,0.9,1,1.9L53.6,196.9z"/>
			</g>
			<g>
				<defs>
					<rect id="SVGID_47_" x="1" y="4.1" width="291.9" height="225.5"/>
				</defs>
				<clipPath id="SVGID_48_">
					<use xlink:href="#SVGID_47_"  style="overflow:visible;"/>
				</clipPath>
				<path id="path6378" inkscape:connector-curvature="0" class="st23" d="M110.8,178.7c-0.3-7.5-3.5-10.4-12.4-10.4
					c-10.5,0-13.1,3.9-13.1,14.9c0,10.3,2.5,14.3,13.1,14.3c9.3,0,12.3-3.4,12.5-11h-10.6v1.7c0,1.6-0.5,2.8-2,2.8s-2.1-1.2-2.1-2.8
					v-10.6c0-1.6,0.6-2.8,2.1-2.8s2,1.2,2,2.8v1.1H110.8z"/>
			</g>
			<g>
				<defs>
					<rect id="SVGID_49_" x="1" y="4.1" width="291.9" height="225.5"/>
				</defs>
				<clipPath id="SVGID_50_">
					<use xlink:href="#SVGID_49_"  style="overflow:visible;"/>
				</clipPath>
				<path id="path6382" inkscape:connector-curvature="0" class="st24" d="M112.5,170.6l0.9,0.1c0.9,0.1,1.3,0.7,1.3,1.4v24.8h10.6
					v-13h0.2l6.5,13h12l-8.5-14.5l8-13.6h-12.1l-5.9,13.1h-0.2v-13.1h-12.7L112.5,170.6L112.5,170.6z"/>
			</g>
			<g>
				<defs>
					<rect id="SVGID_51_" x="1" y="4.1" width="291.9" height="225.5"/>
				</defs>
				<clipPath id="SVGID_52_">
					<use xlink:href="#SVGID_51_"  style="overflow:visible;"/>
				</clipPath>
				<path id="path6386" inkscape:connector-curvature="0" class="st25" d="M155.6,196.9h10.6v-10.6h9.1v-6.6h-9.1v-4.3h10.4v-6.6
					h-23.1v1.8l0.9,0.1c0.9,0.1,1.3,0.7,1.3,1.4L155.6,196.9L155.6,196.9z"/>
			</g>
			<g>
				<defs>
					<rect id="SVGID_53_" x="1" y="4.1" width="291.9" height="225.5"/>
				</defs>
				<clipPath id="SVGID_54_">
					<use xlink:href="#SVGID_53_"  style="overflow:visible;"/>
				</clipPath>
				<path id="path6390" inkscape:connector-curvature="0" class="st26" d="M180.9,196.9h21v-6.6h-10.4v-3.9h9.1v-6.6h-9.1v-4.3h10.4
					v-6.6h-23.1v1.8l0.9,0.1c0.9,0.1,1.3,0.7,1.3,1.4L180.9,196.9L180.9,196.9z"/>
			</g>
			<g>
				<defs>
					<rect id="SVGID_55_" x="1" y="4.1" width="291.9" height="225.5"/>
				</defs>
				<clipPath id="SVGID_56_">
					<use xlink:href="#SVGID_55_"  style="overflow:visible;"/>
				</clipPath>
				<path id="path6394" inkscape:connector-curvature="0" class="st27" d="M217,181v-6.2h1.5c2.2,0,3.4,0.9,3.4,3.2c0,1.9-1,3-3.1,3
					H217z M232.5,189.2c0-3.2-2-4.8-6-5.4v-0.2c4.2-0.9,6.2-3.2,6.2-7.3c0-5-3.4-7.6-9.2-7.6h-19.2v1.8l0.9,0.1
					c0.9,0.1,1.3,0.7,1.3,1.4v24.8H217v-9.3h1.8c2.1,0,3,1.2,3,3.7v2.8c0,1.5,0.7,2.8,2.4,2.8h10.4V195l-0.9-0.1
					c-0.9-0.1-1.3-0.7-1.3-1.4C232.5,193.6,232.5,189.2,232.5,189.2z"/>
			</g>
			<g>
				<defs>
					<rect id="SVGID_57_" x="1" y="4.1" width="291.9" height="225.5"/>
				</defs>
				<clipPath id="SVGID_58_">
					<use xlink:href="#SVGID_57_"  style="overflow:visible;"/>
				</clipPath>
				<path id="path6398" inkscape:connector-curvature="0" class="st28" d="M235,170.6l0.9,0.1c0.9,0.1,1.3,0.7,1.3,1.4v24.8h10.6
					v-12.3h0.1l6.7,12.3H265v-28.1h-10.6v13.8h-0.2l-6.7-13.8H235V170.6z"/>
			</g>
			<g>
				<defs>
					<rect id="SVGID_59_" x="1" y="4.1" width="291.9" height="225.5"/>
				</defs>
				<clipPath id="SVGID_60_">
					<use xlink:href="#SVGID_59_"  style="overflow:visible;"/>
				</clipPath>
				<path id="path6402" inkscape:connector-curvature="0" class="st29" d="M292.2,177c-0.2-7.3-5.8-8.7-12.3-8.7
					c-7.8,0-11.4,2.8-11.4,8.5c0,5.1,3.2,7.3,10.1,10.3c2.3,1,3.9,1.6,3.9,3.1c0,1.3-0.9,1.7-2.1,1.7c-1.9,0-2.3-1.3-2.4-3.2h-9.7
					c-0.2,8.2,5.8,8.8,12.5,8.8c8.5,0,12.3-3,12.3-8.4c0-6-5.7-8.2-11-10.4c-2.2-0.9-3.2-1.5-3.2-3.1c0-1,0.8-1.5,1.8-1.5
					c1.9,0,2.2,1.3,2.2,3h9.3V177z"/>
			</g>
		</g>
		<circle class="st30" cx="296.2" cy="166.3" r="4.3"/>
		<path d="M295.9,165.9c0.3,0,0.5-0.1,0.6-0.2c0.1-0.1,0.2-0.3,0.2-0.5s-0.1-0.4-0.2-0.5s-0.3-0.1-0.6-0.1h-0.5v1.3H295.9
			 M295.4,166.8v1.9h-1.3v-5h2c0.7,0,1.1,0.1,1.5,0.3c0.3,0.2,0.5,0.6,0.5,1.1c0,0.3-0.1,0.6-0.2,0.8c-0.2,0.2-0.4,0.4-0.7,0.5
			c0.2,0,0.3,0.1,0.5,0.3c0.1,0.1,0.3,0.4,0.4,0.6l0.7,1.4h-1.4l-0.6-1.2c-0.1-0.2-0.2-0.4-0.4-0.5c-0.1-0.1-0.3-0.1-0.5-0.1h-0.5"
			/>
	</g>
</g>
<g id="Sevens">
	<g transform="translate(21.9361, 114.971)">
		<path d="M69.6,94c-0.2-7.3-5.9-8.7-12.5-8.7c-7.9,0-11.6,2.8-11.6,8.5c0,5.1,3.2,7.3,10.2,10.4c2.3,1,3.9,1.6,3.9,3.1
			c0,1.3-0.9,1.7-2.2,1.7c-1.9,0-2.3-1.3-2.4-3.2h-9.8c-0.2,8.3,5.9,8.9,12.6,8.9c8.6,0,12.4-3,12.4-8.5c0-6-5.8-8.2-11.2-10.4
			c-2.3-0.9-3.3-1.5-3.3-3.1c0-1,0.8-1.5,1.8-1.5c1.9,0,2.3,1.3,2.3,3H69.6z"/>
		<path class="st31" d="M69.6,94c-0.2-7.3-5.9-8.7-12.5-8.7c-7.9,0-11.6,2.8-11.6,8.5c0,5.1,3.2,7.3,10.2,10.4
			c2.3,1,3.9,1.6,3.9,3.1c0,1.3-0.9,1.7-2.2,1.7c-1.9,0-2.3-1.3-2.4-3.2h-9.8c-0.2,8.3,5.9,8.9,12.6,8.9c8.6,0,12.4-3,12.4-8.5
			c0-6-5.8-8.2-11.2-10.4c-2.3-0.9-3.3-1.5-3.3-3.1c0-1,0.8-1.5,1.8-1.5c1.9,0,2.3,1.3,2.3,3H69.6z"/>
	</g>
	<g transform="translate(36.529, 115.281)">
		<path d="M59,113.7h21.3V107H69.7v-4h9.2v-6.6h-9.2v-4.3h10.5v-6.6H56.8v1.8l0.9,0.1c0.9,0.1,1.3,0.7,1.3,1.4V113.7z"/>
		<path class="st31" d="M59,113.7h21.3V107H69.7v-4h9.2v-6.6h-9.2v-4.3h10.5v-6.6H56.8v1.8l0.9,0.1c0.9,0.1,1.3,0.7,1.3,1.4V113.7z"
			/>
	</g>
	<g transform="translate(50.3478, 115.281)">
		<path d="M90.9,113.7l6.8-28.1H86.3l-2.6,20.8h-0.1l-2.8-20.8H68v1.8c1.5,0.2,2,0.8,2.4,2l5.6,24.4H90.9z"/>
		<path class="st31" d="M90.9,113.7l6.8-28.1H86.3l-2.6,20.8h-0.1l-2.8-20.8H68v1.8c1.5,0.2,2,0.8,2.4,2l5.6,24.4H90.9z"/>
	</g>
	<g transform="translate(67.9428, 115.281)">
		<path d="M84.5,113.7h21.3V107H95.2v-4h9.2v-6.6h-9.2v-4.3h10.5v-6.6H82.3v1.8l0.9,0.1c0.9,0.1,1.3,0.7,1.3,1.4V113.7z"/>
		<path class="st31" d="M84.5,113.7h21.3V107H95.2v-4h9.2v-6.6h-9.2v-4.3h10.5v-6.6H82.3v1.8l0.9,0.1c0.9,0.1,1.3,0.7,1.3,1.4V113.7
			z"/>
	</g>
	<g transform="translate(82.2054, 115.279)">
		<path d="M93.9,87.4l0.9,0.1c0.9,0.1,1.3,0.7,1.3,1.4v24.9h10.7v-12.3h0.1l6.8,12.3h10.6V85.5h-10.7v13.9h-0.2l-6.8-13.9H93.9V87.4
			z"/>
		<path class="st31" d="M93.9,87.4l0.9,0.1c0.9,0.1,1.3,0.7,1.3,1.4v24.9h10.7v-12.3h0.1l6.8,12.3h10.6V85.5h-10.7v13.9h-0.2
			l-6.8-13.9H93.9V87.4z"/>
	</g>
	<g transform="translate(100.663, 114.971)">
		<path d="M133.5,94c-0.2-7.3-5.9-8.7-12.5-8.7c-7.9,0-11.6,2.8-11.6,8.5c0,5.1,3.2,7.3,10.2,10.4c2.3,1,3.9,1.6,3.9,3.1
			c0,1.3-0.9,1.7-2.2,1.7c-1.9,0-2.3-1.3-2.4-3.2h-9.8c-0.2,8.3,5.9,8.9,12.6,8.9c8.6,0,12.4-3,12.4-8.5c0-6-5.8-8.2-11.2-10.4
			c-2.3-0.9-3.3-1.5-3.3-3.1c0-1,0.8-1.5,1.8-1.5c1.9,0,2.3,1.3,2.3,3H133.5z"/>
		<path class="st31" d="M133.5,94c-0.2-7.3-5.9-8.7-12.5-8.7c-7.9,0-11.6,2.8-11.6,8.5c0,5.1,3.2,7.3,10.2,10.4
			c2.3,1,3.9,1.6,3.9,3.1c0,1.3-0.9,1.7-2.2,1.7c-1.9,0-2.3-1.3-2.4-3.2h-9.8c-0.2,8.3,5.9,8.9,12.6,8.9c8.6,0,12.4-3,12.4-8.5
			c0-6-5.8-8.2-11.2-10.4c-2.3-0.9-3.3-1.5-3.3-3.1c0-1,0.8-1.5,1.8-1.5c1.9,0,2.3,1.3,2.3,3H133.5z"/>
	</g>
</g>
</svg>
