<svg version="1.1" id="svg7905" xmlns="http://www.w3.org/2000/svg" xmlns:xlink="http://www.w3.org/1999/xlink" x="0" y="0" viewBox="0 0 302 234" xml:space="preserve"><style>.st31{fill:none}</style><g id="Registered"><defs><path id="SVGID_1_" d="M1 4.1h291.9v225.5H1z"/></defs><clipPath id="SVGID_2_"><use xlink:href="#SVGID_1_" overflow="visible"/></clipPath><path id="path6246" d="M156.8 38.9c-3.4.4-6.7.9-10 1.4l1.2 37.8 41.9 21.9c1.2-.6 2.4-1.2 3.7-1.8l-35-23.8-5.8 2 4-37.5z" clip-path="url(#SVGID_2_)"/><defs><path id="SVGID_3_" d="M1 4.1h291.9v225.5H1z"/></defs><clipPath id="SVGID_4_"><use xlink:href="#SVGID_3_" overflow="visible"/></clipPath><path id="path6250" d="M136.5 42.1c-3.4.7-6.6 1.4-9.6 2.2l-.4 43 43.5 22.2c1.6-.8 3.3-1.5 5-2.4l-37.7-24.8-6 2.7 5.2-42.9z" clip-path="url(#SVGID_4_)"/><defs><path id="SVGID_5_" d="M1 4.1h291.9v225.5H1z"/></defs><clipPath id="SVGID_6_"><use xlink:href="#SVGID_5_" overflow="visible"/></clipPath><path id="path6254" d="M146 40.4c-2.9.5-5.8 1-8.6 1.5l-.2 40.5 43.1 22.3c1.4-.7 2.9-1.4 4.3-2.1L148 78.1l-6 2.1 4-39.8z" clip-path="url(#SVGID_6_)"/><defs><path id="SVGID_7_" d="M1 4.1h291.9v225.5H1z"/></defs><clipPath id="SVGID_8_"><use xlink:href="#SVGID_7_" overflow="visible"/></clipPath><path id="path6258" d="M174.8 37c-2.7.3-5.3.5-8 .8l1.9 33.4-5.8 1.9 3-35.2c-2.8.3-5.5.6-8.3.9l.9 35.6 40.8 21c1.2-.6 2.3-1.2 3.5-1.8l-33.9-22.4 38.4 20.1c1.1-.6 2.3-1.2 3.4-1.8l-32-21.5-5.8 2 1.9-33z" clip-path="url(#SVGID_8_)"/><defs><path id="SVGID_9_" d="M1 4.1h291.9v225.5H1z"/></defs><clipPath id="SVGID_10_"><use xlink:href="#SVGID_9_" overflow="visible"/></clipPath><path id="path6262" d="M184 36.1c-2.7.3-5.5.5-8.2.8l3 31 36.1 19.3c1-.6 2.1-1.2 3.1-1.7l-30.5-20.6-5 1.8 1.5-30.6z" clip-path="url(#SVGID_10_)"/><defs><path id="SVGID_11_" d="M1 4.1h291.9v225.5H1z"/></defs><clipPath id="SVGID_12_"><use xlink:href="#SVGID_11_" overflow="visible"/></clipPath><path id="path6266" d="M77.7 66.9c-5.1 3.2-9.3 6-12.3 8.1l-1.3 51.3s-9.9 7.1-13.6 10.2C46.8 139.6 40 146 40 146v12.7s8.2-11.4 14-16.8c5.6-5.3 12.8-11.2 12.8-11.2l-1.3-1.9 45.8 20.7c.7-.7 2.5-2.4 5.1-4.8l-39.7-26-6.2 5 7.2-56.8z" clip-path="url(#SVGID_12_)"/><defs><path id="SVGID_13_" d="M1 4.1h291.9v225.5H1z"/></defs><clipPath id="SVGID_14_"><use xlink:href="#SVGID_13_" overflow="visible"/></clipPath><path id="path6270" d="M90.2 59.7c-4.1 2.2-7.9 4.4-11.3 6.5l-2.2 52.6 46.4 20.1c1.7-1.4 3.5-2.9 5.3-4.4l-38.9-25.3-6.2 4.5 6.9-54z" clip-path="url(#SVGID_14_)"/><defs><path id="SVGID_15_" d="M1 4.1h291.9v225.5H1z"/></defs><clipPath id="SVGID_16_"><use xlink:href="#SVGID_15_" overflow="visible"/></clipPath><path id="path6274" d="M193.2 35.2c-2.8.3-5.6.5-8.4.8l2.5 28.9 34.4 18.3c1.1-.7 2.2-1.3 3.3-2l-28.8-19.3-5.4 1.9 2.4-28.6z" clip-path="url(#SVGID_16_)"/><defs><path id="SVGID_17_" d="M1 4.1h291.9v225.5H1z"/></defs><clipPath id="SVGID_18_"><use xlink:href="#SVGID_17_" overflow="visible"/></clipPath><path id="path6278" d="M126 44.6c-.2.1-.5.1-.7.2-3.4 1-6.7 2.1-10 3.3l-1.1 45.6 44.6 21.1c1.7-.8 3.5-1.7 5.4-2.6l-37.8-24.9-6.4 3.3 6-46z" clip-path="url(#SVGID_18_)"/><defs><path id="SVGID_19_" d="M1 4.1h291.9v225.5H1z"/></defs><clipPath id="SVGID_20_"><use xlink:href="#SVGID_19_" overflow="visible"/></clipPath><path id="path6282" d="M114.5 48.4c-3.9 1.5-7.8 3.1-11.5 4.9l-1.1 47.8-6.3 4 6.5-51.4c-3.9 1.8-7.6 3.7-11.1 5.6l-1.5 49.9 45.2 20.4c1.6-1.2 3.3-2.4 5-3.6l-37.9-24.8 44.4 20.5c1.8-1.1 3.5-2.1 5.3-3.1.1-.1.2-.1.3-.2l-37.7-24.6-6.4 3.6 6.8-49z" clip-path="url(#SVGID_20_)"/><defs><path id="SVGID_21_" d="M1 4.1h291.9v225.5H1z"/></defs><clipPath id="SVGID_22_"><use xlink:href="#SVGID_21_" overflow="visible"/></clipPath><path id="path6286" d="M247.6 23.5c-2.3 1-4.8 1.9-7.3 2.8l.1 16.5 21.3 4.6c1.2-1.8 2.3-3.6 3.4-5.4l-16.2-4.6-4.2 2.7 2.9-16.6z" clip-path="url(#SVGID_22_)"/><defs><path id="SVGID_23_" d="M1 4.1h291.9v225.5H1z"/></defs><clipPath id="SVGID_24_"><use xlink:href="#SVGID_23_" overflow="visible"/></clipPath><path id="path6290" d="M239.5 26.6c-2.5.9-5.1 1.7-7.8 2.5l-.2 18.3 24.7 7.6c1-1.3 2-2.6 2.9-3.9l-18.8-8.3-4.3 2.3 3.5-18.5z" clip-path="url(#SVGID_24_)"/><defs><path id="SVGID_25_" d="M1 4.1h291.9v225.5H1z"/></defs><clipPath id="SVGID_26_"><use xlink:href="#SVGID_25_" overflow="visible"/></clipPath><path id="path6294" d="M263 16.1c-2 1.1-4.1 2.2-6.4 3.4l-.1 12.3-4.1 3.3 3.5-15.2c-2.3 1.1-4.8 2.3-7.5 3.4l.6 14.3 18.2 1.1c1-1.8 2-3.6 2.8-5.4l-13.2-1.6 14.9-1.9c.8-1.7 1.5-3.4 2.2-5l-10.1.6-3.1 2.8 2.3-12.1z" clip-path="url(#SVGID_26_)"/><defs><path id="SVGID_27_" d="M1 4.1h291.9v225.5H1z"/></defs><clipPath id="SVGID_28_"><use xlink:href="#SVGID_27_" overflow="visible"/></clipPath><path id="path6298" d="M231 29.3c-1.2.3-2.4.7-3.6 1-1.4.4-3 .7-4.6 1l-.1 20.2 27.8 10.2c1-1 1.9-2.1 2.8-3.1l-21.7-11.1-4.3 2 3.7-20.2z" clip-path="url(#SVGID_28_)"/><defs><path id="SVGID_29_" d="M1 4.1h291.9v225.5H1z"/></defs><clipPath id="SVGID_30_"><use xlink:href="#SVGID_29_" overflow="visible"/></clipPath><path id="path6302" d="M280.7 4.1s-1.2 1.1-3.5 2.8l-1 4.5-1.9 2.4 1-5.5c-1.2.9-2.6 1.9-4.2 2.9l-1 7.6-2.1 2.3 2-9.2c-1.9 1.2-4 2.5-6.3 3.8l-.1 9.7 11.6-4.2c.6-1.6 1.2-3 1.7-4.4l-6 1.2 6.9-4c2.1-6.1 2.9-9.9 2.9-9.9" clip-path="url(#SVGID_30_)"/><defs><path id="SVGID_31_" d="M1 4.1h291.9v225.5H1z"/></defs><clipPath id="SVGID_32_"><use xlink:href="#SVGID_31_" overflow="visible"/></clipPath><path id="path6306" d="M202.8 34.2c-2.8.3-5.7.6-8.6.9l2.1 26.8 33.1 16.6c1.1-.7 2.2-1.4 3.3-2.2l-27.1-17.9-5.3 2 2.5-26.2z" clip-path="url(#SVGID_32_)"/><defs><path id="SVGID_33_" d="M1 4.1h291.9v225.5H1z"/></defs><clipPath id="SVGID_34_"><use xlink:href="#SVGID_33_" overflow="visible"/></clipPath><defs><path id="SVGID_35_" d="M1 4.1h291.9v225.5H1z"/></defs><clipPath id="SVGID_36_"><use xlink:href="#SVGID_35_" overflow="visible"/></clipPath><path id="path6314" d="M213 32.9c-3 .4-6.2.8-9.5 1.2l2 24.3 30.8 15.4c.8-.5 1.5-1.1 2.3-1.6l1.2-.9-26-16.1-4.6 1.8 3.8-24.1z" clip-path="url(#SVGID_36_)"/><defs><path id="SVGID_37_" d="M1 4.1h291.9v225.5H1z"/></defs><clipPath id="SVGID_38_"><use xlink:href="#SVGID_37_" overflow="visible"/></clipPath><defs><path id="SVGID_39_" d="M1 4.1h291.9v225.5H1z"/></defs><clipPath id="SVGID_40_"><use xlink:href="#SVGID_39_" overflow="visible"/></clipPath><path id="path6322" d="M221.9 31.5c-2.5.5-5.1.9-8 1.3v22.3l-.1.1 30 12.8 3-2.7-24.2-13.8-4.5 1.9 3.8-21.9z" clip-path="url(#SVGID_40_)"/><defs><path id="SVGID_41_" d="M1 4.1h291.9v225.5H1z"/></defs><clipPath id="SVGID_42_"><use xlink:href="#SVGID_41_" overflow="visible"/></clipPath><path id="path6366" d="M15.1 185.6c1.7 0 2.8.6 2.8 2.5 0 1.8-.7 2.6-2.8 2.6h-1.7v-5.2l1.7.1zm.3-10.8c1.3 0 2.2 1.1 2.2 2.4 0 1.2-.7 2.6-2.2 2.6h-2.1v-5h2.1zM3.1 196.9h16.6c4.6 0 8.8-1.8 8.8-7.2 0-4.5-2.7-6.3-7.1-6.9v-.2c4.1-.5 6.2-2.4 6.2-6.5 0-6.2-4.7-7.3-9.8-7.3H1v1.8l.9.1c.9.1 1.3.7 1.3 1.4-.1 0-.1 24.8-.1 24.8z" clip-path="url(#SVGID_42_)"/><defs><path id="SVGID_43_" d="M1 4.1h291.9v225.5H1z"/></defs><clipPath id="SVGID_44_"><use xlink:href="#SVGID_43_" overflow="visible"/></clipPath><path id="path6370" d="M31.8 196.9h20v-6.7h-9.4v-21.4H29.7v1.8l.9.1c.9.1 1.3.7 1.3 1.4v24.8h-.1z" clip-path="url(#SVGID_44_)"/><defs><path id="SVGID_45_" d="M1 4.1h291.9v225.5H1z"/></defs><clipPath id="SVGID_46_"><use xlink:href="#SVGID_45_" overflow="visible"/></clipPath><path id="path6374" d="M70.8 186.6h-4.3l2-12h.2l2.1 12zm-17.2 10.3h11.2l.7-4.5h6l.8 4.5h11.4l-7.8-28.1H58.7v1.8l.9.1c.9.1 1.3.9 1 1.9l-7 24.3z" clip-path="url(#SVGID_46_)"/><defs><path id="SVGID_47_" d="M1 4.1h291.9v225.5H1z"/></defs><clipPath id="SVGID_48_"><use xlink:href="#SVGID_47_" overflow="visible"/></clipPath><path id="path6378" d="M110.8 178.7c-.3-7.5-3.5-10.4-12.4-10.4-10.5 0-13.1 3.9-13.1 14.9 0 10.3 2.5 14.3 13.1 14.3 9.3 0 12.3-3.4 12.5-11h-10.6v1.7c0 1.6-.5 2.8-2 2.8s-2.1-1.2-2.1-2.8v-10.6c0-1.6.6-2.8 2.1-2.8s2 1.2 2 2.8v1.1h10.5z" clip-path="url(#SVGID_48_)"/><defs><path id="SVGID_49_" d="M1 4.1h291.9v225.5H1z"/></defs><clipPath id="SVGID_50_"><use xlink:href="#SVGID_49_" overflow="visible"/></clipPath><path id="path6382" d="M112.5 170.6l.9.1c.9.1 1.3.7 1.3 1.4v24.8h10.6v-13h.2l6.5 13h12l-8.5-14.5 8-13.6h-12.1l-5.9 13.1h-.2v-13.1h-12.7l-.1 1.8z" clip-path="url(#SVGID_50_)"/><defs><path id="SVGID_51_" d="M1 4.1h291.9v225.5H1z"/></defs><clipPath id="SVGID_52_"><use xlink:href="#SVGID_51_" overflow="visible"/></clipPath><path id="path6386" d="M155.6 196.9h10.6v-10.6h9.1v-6.6h-9.1v-4.3h10.4v-6.6h-23.1v1.8l.9.1c.9.1 1.3.7 1.3 1.4l-.1 24.8z" clip-path="url(#SVGID_52_)"/><defs><path id="SVGID_53_" d="M1 4.1h291.9v225.5H1z"/></defs><clipPath id="SVGID_54_"><use xlink:href="#SVGID_53_" overflow="visible"/></clipPath><path id="path6390" d="M180.9 196.9h21v-6.6h-10.4v-3.9h9.1v-6.6h-9.1v-4.3h10.4v-6.6h-23.1v1.8l.9.1c.9.1 1.3.7 1.3 1.4l-.1 24.7z" clip-path="url(#SVGID_54_)"/><defs><path id="SVGID_55_" d="M1 4.1h291.9v225.5H1z"/></defs><clipPath id="SVGID_56_"><use xlink:href="#SVGID_55_" overflow="visible"/></clipPath><path id="path6394" d="M217 181v-6.2h1.5c2.2 0 3.4.9 3.4 3.2 0 1.9-1 3-3.1 3H217zm15.5 8.2c0-3.2-2-4.8-6-5.4v-.2c4.2-.9 6.2-3.2 6.2-7.3 0-5-3.4-7.6-9.2-7.6h-19.2v1.8l.9.1c.9.1 1.3.7 1.3 1.4v24.8H217v-9.3h1.8c2.1 0 3 1.2 3 3.7v2.8c0 1.5.7 2.8 2.4 2.8h10.4V195l-.9-.1c-.9-.1-1.3-.7-1.3-1.4.1.1.1-4.3.1-4.3z" clip-path="url(#SVGID_56_)"/><defs><path id="SVGID_57_" d="M1 4.1h291.9v225.5H1z"/></defs><clipPath id="SVGID_58_"><use xlink:href="#SVGID_57_" overflow="visible"/></clipPath><path id="path6398" d="M235 170.6l.9.1c.9.1 1.3.7 1.3 1.4v24.8h10.6v-12.3h.1l6.7 12.3H265v-28.1h-10.6v13.8h-.2l-6.7-13.8H235v1.8z" clip-path="url(#SVGID_58_)"/><defs><path id="SVGID_59_" d="M1 4.1h291.9v225.5H1z"/></defs><clipPath id="SVGID_60_"><use xlink:href="#SVGID_59_" overflow="visible"/></clipPath><path id="path6402" d="M292.2 177c-.2-7.3-5.8-8.7-12.3-8.7-7.8 0-11.4 2.8-11.4 8.5 0 5.1 3.2 7.3 10.1 10.3 2.3 1 3.9 1.6 3.9 3.1 0 1.3-.9 1.7-2.1 1.7-1.9 0-2.3-1.3-2.4-3.2h-9.7c-.2 8.2 5.8 8.8 12.5 8.8 8.5 0 12.3-3 12.3-8.4 0-6-5.7-8.2-11-10.4-2.2-.9-3.2-1.5-3.2-3.1 0-1 .8-1.5 1.8-1.5 1.9 0 2.2 1.3 2.2 3h9.3v-.1z" clip-path="url(#SVGID_60_)"/><circle cx="296.2" cy="166.3" r="4.3" fill="none" stroke="#000" stroke-width=".973"/><path d="M295.9 165.9c.3 0 .5-.1.6-.2.1-.1.2-.3.2-.5s-.1-.4-.2-.5-.3-.1-.6-.1h-.5v1.3h.5m-.5.9v1.9h-1.3v-5h2c.7 0 1.1.1 1.5.3.3.2.5.6.5 1.1 0 .3-.1.6-.2.8-.2.2-.4.4-.7.5.2 0 .3.1.5.3.1.1.3.4.4.6l.7 1.4h-1.4l-.6-1.2c-.1-.2-.2-.4-.4-.5-.1-.1-.3-.1-.5-.1h-.5"/></g><g id="Sevens"><path d="M69.6 94c-.2-7.3-5.9-8.7-12.5-8.7-7.9 0-11.6 2.8-11.6 8.5 0 5.1 3.2 7.3 10.2 10.4 2.3 1 3.9 1.6 3.9 3.1 0 1.3-.9 1.7-2.2 1.7-1.9 0-2.3-1.3-2.4-3.2h-9.8c-.2 8.3 5.9 8.9 12.6 8.9 8.6 0 12.4-3 12.4-8.5 0-6-5.8-8.2-11.2-10.4-2.3-.9-3.3-1.5-3.3-3.1 0-1 .8-1.5 1.8-1.5 1.9 0 2.3 1.3 2.3 3h9.8z" transform="translate(21.936 114.971)"/><path class="st31" d="M69.6 94c-.2-7.3-5.9-8.7-12.5-8.7-7.9 0-11.6 2.8-11.6 8.5 0 5.1 3.2 7.3 10.2 10.4 2.3 1 3.9 1.6 3.9 3.1 0 1.3-.9 1.7-2.2 1.7-1.9 0-2.3-1.3-2.4-3.2h-9.8c-.2 8.3 5.9 8.9 12.6 8.9 8.6 0 12.4-3 12.4-8.5 0-6-5.8-8.2-11.2-10.4-2.3-.9-3.3-1.5-3.3-3.1 0-1 .8-1.5 1.8-1.5 1.9 0 2.3 1.3 2.3 3h9.8z" transform="translate(21.936 114.971)"/><path d="M59 113.7h21.3V107H69.7v-4h9.2v-6.6h-9.2v-4.3h10.5v-6.6H56.8v1.8l.9.1c.9.1 1.3.7 1.3 1.4v24.9z" transform="translate(36.529 115.281)"/><path class="st31" d="M59 113.7h21.3V107H69.7v-4h9.2v-6.6h-9.2v-4.3h10.5v-6.6H56.8v1.8l.9.1c.9.1 1.3.7 1.3 1.4v24.9z" transform="translate(36.529 115.281)"/><path d="M90.9 113.7l6.8-28.1H86.3l-2.6 20.8h-.1l-2.8-20.8H68v1.8c1.5.2 2 .8 2.4 2l5.6 24.4h14.9z" transform="translate(50.348 115.281)"/><path class="st31" d="M90.9 113.7l6.8-28.1H86.3l-2.6 20.8h-.1l-2.8-20.8H68v1.8c1.5.2 2 .8 2.4 2l5.6 24.4h14.9z" transform="translate(50.348 115.281)"/><path d="M84.5 113.7h21.3V107H95.2v-4h9.2v-6.6h-9.2v-4.3h10.5v-6.6H82.3v1.8l.9.1c.9.1 1.3.7 1.3 1.4v24.9z" transform="translate(67.943 115.281)"/><path class="st31" d="M84.5 113.7h21.3V107H95.2v-4h9.2v-6.6h-9.2v-4.3h10.5v-6.6H82.3v1.8l.9.1c.9.1 1.3.7 1.3 1.4v24.9z" transform="translate(67.943 115.281)"/><path d="M93.9 87.4l.9.1c.9.1 1.3.7 1.3 1.4v24.9h10.7v-12.3h.1l6.8 12.3h10.6V85.5h-10.7v13.9h-.2l-6.8-13.9H93.9v1.9z" transform="translate(82.205 115.279)"/><path class="st31" d="M93.9 87.4l.9.1c.9.1 1.3.7 1.3 1.4v24.9h10.7v-12.3h.1l6.8 12.3h10.6V85.5h-10.7v13.9h-.2l-6.8-13.9H93.9v1.9z" transform="translate(82.205 115.279)"/><path d="M133.5 94c-.2-7.3-5.9-8.7-12.5-8.7-7.9 0-11.6 2.8-11.6 8.5 0 5.1 3.2 7.3 10.2 10.4 2.3 1 3.9 1.6 3.9 3.1 0 1.3-.9 1.7-2.2 1.7-1.9 0-2.3-1.3-2.4-3.2h-9.8c-.2 8.3 5.9 8.9 12.6 8.9 8.6 0 12.4-3 12.4-8.5 0-6-5.8-8.2-11.2-10.4-2.3-.9-3.3-1.5-3.3-3.1 0-1 .8-1.5 1.8-1.5 1.9 0 2.3 1.3 2.3 3h9.8z" transform="translate(100.663 114.971)"/><path class="st31" d="M133.5 94c-.2-7.3-5.9-8.7-12.5-8.7-7.9 0-11.6 2.8-11.6 8.5 0 5.1 3.2 7.3 10.2 10.4 2.3 1 3.9 1.6 3.9 3.1 0 1.3-.9 1.7-2.2 1.7-1.9 0-2.3-1.3-2.4-3.2h-9.8c-.2 8.3 5.9 8.9 12.6 8.9 8.6 0 12.4-3 12.4-8.5 0-6-5.8-8.2-11.2-10.4-2.3-.9-3.3-1.5-3.3-3.1 0-1 .8-1.5 1.8-1.5 1.9 0 2.3 1.3 2.3 3h9.8z" transform="translate(100.663 114.971)"/></g></svg>