<?xml version="1.0" encoding="utf-8"?>
<!-- Generator: Adobe Illustrator 22.1.0, SVG Export Plug-In . SVG Version: 6.00 Build 0)  -->
<!DOCTYPE svg PUBLIC "-//W3C//DTD SVG 1.1//EN" "http://www.w3.org/Graphics/SVG/1.1/DTD/svg11.dtd">
<svg version="1.1"
	 id="svg7905" inkscape:version="0.91 r13725" sodipodi:docname="new zealand black ferns.svg" xmlns:cc="http://creativecommons.org/ns#" xmlns:dc="http://purl.org/dc/elements/1.1/" xmlns:inkscape="http://www.inkscape.org/namespaces/inkscape" xmlns:rdf="http://www.w3.org/1999/02/22-rdf-syntax-ns#" xmlns:sodipodi="http://sodipodi.sourceforge.net/DTD/sodipodi-0.dtd" xmlns:svg="http://www.w3.org/2000/svg"
	 xmlns="http://www.w3.org/2000/svg" xmlns:xlink="http://www.w3.org/1999/xlink" x="0px" y="0px" viewBox="0 0 302 234"
	 style="enable-background:new 0 0 302 234;" xml:space="preserve">
<style type="text/css">
	.st0{clip-path:url(#SVGID_2_);}
	.st1{fill:none;stroke:#000000;stroke-width:0.9733;}
</style>
<sodipodi:namedview  bordercolor="#666666" borderopacity="1.0" id="base" inkscape:current-layer="layer1" inkscape:cx="22.142857" inkscape:cy="520" inkscape:document-units="px" inkscape:pageopacity="0.0" inkscape:pageshadow="2" inkscape:window-height="744" inkscape:window-maximized="1" inkscape:window-width="1280" inkscape:window-x="-4" inkscape:window-y="-4" inkscape:zoom="0.35" pagecolor="#ffffff" showgrid="false" units="px">
	</sodipodi:namedview>
<g id="Registered">
	<g>
		<g>
			<defs>
				<rect id="SVGID_1_" x="1" y="4.1" width="291.9" height="225.5"/>
			</defs>
			<clipPath id="SVGID_2_">
				<use xlink:href="#SVGID_1_"  style="overflow:visible;"/>
			</clipPath>
			<path id="path6246" inkscape:connector-curvature="0" class="st0" d="M156.8,38.9c-3.4,0.4-6.7,0.9-10,1.4l1.2,37.8l41.9,21.9
				c1.2-0.6,2.4-1.2,3.7-1.8l-35-23.8l-5.8,2L156.8,38.9z"/>
			<path id="path6250" inkscape:connector-curvature="0" class="st0" d="M136.5,42.1c-3.4,0.7-6.6,1.4-9.6,2.2l-0.4,43l43.5,22.2
				c1.6-0.8,3.3-1.5,5-2.4l-37.7-24.8l-6,2.7L136.5,42.1z"/>
			<path id="path6254" inkscape:connector-curvature="0" class="st0" d="M146,40.4c-2.9,0.5-5.8,1-8.6,1.5l-0.2,40.5l43.1,22.3
				c1.4-0.7,2.9-1.4,4.3-2.1L148,78.1l-6,2.1L146,40.4z"/>
			<path id="path6258" inkscape:connector-curvature="0" class="st0" d="M174.8,37c-2.7,0.3-5.3,0.5-8,0.8l1.9,33.4l-5.8,1.9l3-35.2
				c-2.8,0.3-5.5,0.6-8.3,0.9l0.9,35.6l40.8,21c1.2-0.6,2.3-1.2,3.5-1.8l-33.9-22.4l38.4,20.1c1.1-0.6,2.3-1.2,3.4-1.8l-32-21.5
				l-5.8,2L174.8,37z"/>
			<path id="path6262" inkscape:connector-curvature="0" class="st0" d="M184,36.1c-2.7,0.3-5.5,0.5-8.2,0.8l3,31l36.1,19.3
				c1-0.6,2.1-1.2,3.1-1.7l-30.5-20.6l-5,1.8L184,36.1z"/>
			<path id="path6266" inkscape:connector-curvature="0" class="st0" d="M77.7,66.9c-5.1,3.2-9.3,6-12.3,8.1l-1.3,51.3
				c0,0-9.9,7.1-13.6,10.2c-3.7,3.1-10.5,9.5-10.5,9.5l0,12.7c0,0,8.2-11.4,14-16.8c5.6-5.3,12.8-11.2,12.8-11.2l-1.3-1.9l45.8,20.7
				c0.7-0.7,2.5-2.4,5.1-4.8l-39.7-26l-6.2,5L77.7,66.9z"/>
			<path id="path6270" inkscape:connector-curvature="0" class="st0" d="M90.2,59.7c-4.1,2.2-7.9,4.4-11.3,6.5l-2.2,52.6l46.4,20.1
				c1.7-1.4,3.5-2.9,5.3-4.4l-38.9-25.3l-6.2,4.5L90.2,59.7z"/>
			<path id="path6274" inkscape:connector-curvature="0" class="st0" d="M193.2,35.2c-2.8,0.3-5.6,0.5-8.4,0.8l2.5,28.9l34.4,18.3
				c1.1-0.7,2.2-1.3,3.3-2l-28.8-19.3l-5.4,1.9L193.2,35.2z"/>
			<path id="path6278" inkscape:connector-curvature="0" class="st0" d="M126,44.6c-0.2,0.1-0.5,0.1-0.7,0.2c-3.4,1-6.7,2.1-10,3.3
				l-1.1,45.6l44.6,21.1c1.7-0.8,3.5-1.7,5.4-2.6l-37.8-24.9l-6.4,3.3L126,44.6z"/>
			<path id="path6282" inkscape:connector-curvature="0" class="st0" d="M114.5,48.4c-3.9,1.5-7.8,3.1-11.5,4.9l-1.1,47.8l-6.3,4
				l6.5-51.4c-3.9,1.8-7.6,3.7-11.1,5.6l-1.5,49.9l45.2,20.4c1.6-1.2,3.3-2.4,5-3.6l-37.9-24.8l44.4,20.5c1.8-1.1,3.5-2.1,5.3-3.1
				c0.1-0.1,0.2-0.1,0.3-0.2l-37.7-24.6l-6.4,3.6L114.5,48.4z"/>
			<path id="path6286" inkscape:connector-curvature="0" class="st0" d="M247.6,23.5c-2.3,1-4.8,1.9-7.3,2.8l0.1,16.5l21.3,4.6
				c1.2-1.8,2.3-3.6,3.4-5.4l-16.2-4.6l-4.2,2.7L247.6,23.5z"/>
			<path id="path6290" inkscape:connector-curvature="0" class="st0" d="M239.5,26.6c-2.5,0.9-5.1,1.7-7.8,2.5l-0.2,18.3l24.7,7.6
				c1-1.3,2-2.6,2.9-3.9l-18.8-8.3l-4.3,2.3L239.5,26.6z"/>
			<path id="path6294" inkscape:connector-curvature="0" class="st0" d="M263,16.1c-2,1.1-4.1,2.2-6.4,3.4l-0.1,12.3l-4.1,3.3
				l3.5-15.2c-2.3,1.1-4.8,2.3-7.5,3.4l0.6,14.3l18.2,1.1c1-1.8,2-3.6,2.8-5.4l-13.2-1.6l14.9-1.9c0.8-1.7,1.5-3.4,2.2-5l-10.1,0.6
				l-3.1,2.8L263,16.1z"/>
			<path id="path6298" inkscape:connector-curvature="0" class="st0" d="M231,29.3c-1.2,0.3-2.4,0.7-3.6,1c-1.4,0.4-3,0.7-4.6,1
				l-0.1,20.2l0,0l27.8,10.2c1-1,1.9-2.1,2.8-3.1l-21.7-11.1l-4.3,2L231,29.3z"/>
			<path id="path6302" inkscape:connector-curvature="0" class="st0" d="M280.7,4.1c0,0-1.2,1.1-3.5,2.8l-1,4.5l-1.9,2.4l1-5.5
				c-1.2,0.9-2.6,1.9-4.2,2.9l-1,7.6l-2.1,2.3l2-9.2c-1.9,1.2-4,2.5-6.3,3.8l-0.1,9.7l11.6-4.2c0.6-1.6,1.2-3,1.7-4.4l-6,1.2l6.9-4
				C279.9,7.9,280.7,4.1,280.7,4.1"/>
			<path id="path6306" inkscape:connector-curvature="0" class="st0" d="M202.8,34.2c-2.8,0.3-5.7,0.6-8.6,0.9l2.1,26.8l33.1,16.6
				c1.1-0.7,2.2-1.4,3.3-2.2l-27.1-17.9l-5.3,2L202.8,34.2z"/>
			<path id="path6310" inkscape:connector-curvature="0" class="st0" d="M213.9,55.1L213.9,55.1L213.9,55.1L213.9,55.1z"/>
			<path id="path6314" inkscape:connector-curvature="0" class="st0" d="M213,32.9c-3,0.4-6.2,0.8-9.5,1.2l2,24.3l30.8,15.4
				c0.8-0.5,1.5-1.1,2.3-1.6c0.4-0.3,0.8-0.6,1.2-0.9l-26-16.1l-4.6,1.8L213,32.9z"/>
			<path id="path6318" inkscape:connector-curvature="0" class="st0" d="M222.7,51.5L222.7,51.5L222.7,51.5L222.7,51.5z"/>
			<path id="path6322" inkscape:connector-curvature="0" class="st0" d="M221.9,31.5c-2.5,0.5-5.1,0.9-8,1.3l0,22.3l-0.1,0.1
				l30,12.8c1-0.9,2-1.8,3-2.7l-24.2-13.8l-4.5,1.9L221.9,31.5z"/>
			<path id="path6366" inkscape:connector-curvature="0" class="st0" d="M15.1,185.6c1.7,0,2.8,0.6,2.8,2.5c0,1.8-0.7,2.6-2.8,2.6
				h-1.7v-5.2H15.1z M15.4,174.8c1.3,0,2.2,1.1,2.2,2.4c0,1.2-0.7,2.6-2.2,2.6h-2.1v-5C13.4,174.8,15.4,174.8,15.4,174.8z
				 M3.1,196.9h16.6c4.6,0,8.8-1.8,8.8-7.2c0-4.5-2.7-6.3-7.1-6.9v-0.2c4.1-0.5,6.2-2.4,6.2-6.5c0-6.2-4.7-7.3-9.8-7.3H1v1.8
				l0.9,0.1c0.9,0.1,1.3,0.7,1.3,1.4C3.1,172.1,3.1,196.9,3.1,196.9z"/>
			<path id="path6370" inkscape:connector-curvature="0" class="st0" d="M31.8,196.9h20v-6.7h-9.4v-21.4H29.7v1.8l0.9,0.1
				c0.9,0.1,1.3,0.7,1.3,1.4V196.9z"/>
			<path id="path6374" inkscape:connector-curvature="0" class="st0" d="M70.8,186.6h-4.3l2-12h0.2L70.8,186.6z M53.6,196.9h11.2
				l0.7-4.5h6l0.8,4.5h11.4l-7.8-28.1H58.7v1.8l0.9,0.1c0.9,0.1,1.3,0.9,1,1.9L53.6,196.9z"/>
			<path id="path6378" inkscape:connector-curvature="0" class="st0" d="M110.8,178.7c-0.3-7.5-3.5-10.4-12.4-10.4
				c-10.5,0-13.1,3.9-13.1,14.9c0,10.3,2.5,14.3,13.1,14.3c9.3,0,12.3-3.4,12.5-11h-10.6v1.7c0,1.6-0.5,2.8-2,2.8s-2.1-1.2-2.1-2.8
				v-10.6c0-1.6,0.6-2.8,2.1-2.8s2,1.2,2,2.8v1.1H110.8z"/>
			<path id="path6382" inkscape:connector-curvature="0" class="st0" d="M112.5,170.6l0.9,0.1c0.9,0.1,1.3,0.7,1.3,1.4v24.8h10.6
				v-13h0.2l6.5,13H144l-8.5-14.5l8-13.6h-12.1l-5.9,13.1h-0.2v-13.1h-12.7V170.6z"/>
			<path id="path6386" inkscape:connector-curvature="0" class="st0" d="M155.6,196.9h10.6v-10.6h9.1v-6.6h-9.1v-4.3h10.4v-6.6
				h-23.1v1.8l0.9,0.1c0.9,0.1,1.3,0.7,1.3,1.4V196.9z"/>
			<path id="path6390" inkscape:connector-curvature="0" class="st0" d="M180.9,196.9h21v-6.6h-10.4v-3.9h9.1v-6.6h-9.1v-4.3h10.4
				v-6.6h-23.1v1.8l0.9,0.1c0.9,0.1,1.3,0.7,1.3,1.4V196.9z"/>
			<path id="path6394" inkscape:connector-curvature="0" class="st0" d="M217,181v-6.2h1.5c2.2,0,3.4,0.9,3.4,3.2c0,1.9-1,3-3.1,3
				H217z M232.5,189.2c0-3.2-2-4.8-6-5.4v-0.2c4.2-0.9,6.2-3.2,6.2-7.3c0-5-3.4-7.6-9.2-7.6h-19.2v1.8l0.9,0.1
				c0.9,0.1,1.3,0.7,1.3,1.4v24.8H217v-9.3h1.8c2.1,0,3,1.2,3,3.7v2.8c0,1.5,0.7,2.8,2.4,2.8h10.4v-1.8l-0.9-0.1
				c-0.9-0.1-1.3-0.7-1.3-1.4C232.5,193.6,232.5,189.2,232.5,189.2z"/>
			<path id="path6398" inkscape:connector-curvature="0" class="st0" d="M235,170.6l0.9,0.1c0.9,0.1,1.3,0.7,1.3,1.4v24.8h10.6
				v-12.3h0.1l6.7,12.3H265v-28.1h-10.6v13.8h-0.2l-6.7-13.8H235V170.6z"/>
			<path id="path6402" inkscape:connector-curvature="0" class="st0" d="M292.2,177c-0.2-7.3-5.8-8.7-12.3-8.7
				c-7.8,0-11.4,2.8-11.4,8.5c0,5.1,3.2,7.3,10.1,10.3c2.3,1,3.9,1.6,3.9,3.1c0,1.3-0.9,1.7-2.1,1.7c-1.9,0-2.3-1.3-2.4-3.2h-9.7
				c-0.2,8.2,5.8,8.8,12.5,8.8c8.5,0,12.3-3,12.3-8.4c0-6-5.7-8.2-11-10.4c-2.2-0.9-3.2-1.5-3.2-3.1c0-1,0.8-1.5,1.8-1.5
				c1.9,0,2.2,1.3,2.2,3H292.2z"/>
		</g>
		<circle class="st1" cx="296.2" cy="166.3" r="4.3"/>
		<path d="M295.9,165.9c0.3,0,0.5-0.1,0.6-0.2c0.1-0.1,0.2-0.3,0.2-0.5c0-0.2-0.1-0.4-0.2-0.5c-0.1-0.1-0.3-0.1-0.6-0.1h-0.5v1.3
			H295.9 M295.4,166.8v1.9h-1.3v-5h2c0.7,0,1.1,0.1,1.5,0.3c0.3,0.2,0.5,0.6,0.5,1.1c0,0.3-0.1,0.6-0.2,0.8
			c-0.2,0.2-0.4,0.4-0.7,0.5c0.2,0,0.3,0.1,0.5,0.3c0.1,0.1,0.3,0.4,0.4,0.6l0.7,1.4h-1.4l-0.6-1.2c-0.1-0.2-0.2-0.4-0.4-0.5
			c-0.1-0.1-0.3-0.1-0.5-0.1H295.4"/>
	</g>
</g>
</svg>
