<svg version="1.1" id="Layer_1" xmlns="http://www.w3.org/2000/svg" height="243.1" viewBox="0 0 200 243.1" xml:space="preserve"><style>.st0{fill:#fad603}.st1{fill:#c7b04a}.st2{fill:#bfa330}.st4{fill:#faba00}.st5{fill:#244757}.st6{fill:#005221}</style><path class="st0" d="M100.6 11c1.3 30.9 1.8 48.6 2.3 92.9 0 3.7-1.9 8.6-1.9 11.8-3.5 1.1-8.5 3.3-11.8 4.8-8.3 3.8-12.1 6.8-15.7 9.6-10.6 8.3-18.9 21.1-23.3 33.8-9.2-21.5-14.9-47.3-14.9-70.5C35.3 69 22.4 29 45.9 21.8c12-3.6 36.9-5.1 54.7-10.8"/><path class="st1" d="M33.5 23.2c2-.6 6.4-.6 8.4 0-.1.3 0 .7-.3.7-1.4-1.6-5.7-.3-8.1-.7"/><path class="st2" d="M164.8 72.8c.8.7.1 2.9.3 4.2-.7-.7-.1-2.9-.3-4.2m27.3 5.2c.8 1.1.1 3.6.3 5.2-.8-1-.1-3.5-.3-5.2"/><path class="st1" d="M169.4 83.6c.6 3.4.6 9.2 0 12.6V83.6z"/><path class="st2" d="M116.3 111.6c2.9-.6 8.3-.6 11.2 0h-11.2z"/><path class="st1" d="M86.6 191.6h7c-1.6.5-5.5.5-7 0"/><path class="st2" d="M93.6 198.2c-1.2.6-4.8.6-5.9 0h5.9zm49.6 7.7c1.4-1.7 2.9-3.2 4.5-4.5-1.4 1.6-2.9 3.1-4.5 4.5m34.2-47.5c-.9 2.1-1.7 4.4-3.1 5.9 1-1.9 1.8-4.2 3.1-5.9"/><path d="M21.2 84.3c.7-20.1 4.3-40.3 11-59.3 1.7-4.9 11.6-8.4 9.4 0-2.1 7.7-4.5 15-6 22.9-8.1 41.4-4.2 85.4 13.7 123.8 16.3-57.7 73.9-74.9 116.7-43 3.1-19.1 4.1-38.5 2.6-57.7-.8-9.6-3.1-18.6-5.1-28-.9-4.2-3.2-13.7-4.4-17.8-1-3.7-.6-.7 4-3.4 9.2-5.4 14.4 35.2 15.3 40.6 11.9 68.7-16.2 133.8-77.9 173.2 2.9-4.9 9.7-9.5 13.9-13.1 6.1-5.3 12.3-11.7 17.2-18.1 10-13 18.4-27.3 24.7-42.4-2.3 3.1-11.9 14.3-16 17.4-8.1 6-19.3 11.9-29 14.5-18.9 5-47 1.1-55.2-9.9 5.6 10.3 12.9 19 20.9 28 3.6 4.1 8.2 8.5 11.9 12.7 1.4 1.6 11.1 9.3 11.5 11-34.6-22.8-48.5-39.2-61.9-65.6-14.7-29-19.5-63.1-16.9-95.2-.3 3.1-.4 6.3-.4 9.4.1-2.2.4-4.6.2-6.8.2 1.5-.2 8.1-.2 6.8.7-20.4 0 5.1 0 0" fill="#fff"/><path class="st2" d="M130.2 201.3c1.2-1.6 2-3.5 3.5-4.9-1.1 1.8-1.9 3.7-3.5 4.9"/><path class="st4" d="M148.4 174.1c-3.1 6.8-10.3 16.2-14.1 22.2-1.5 1.3-2.3 3.3-3.5 4.9-5.7 9.3-24.3 28.7-26.5 30.5-.7.5-3.3 2.9-3.9 3.8.2-18.8 1.2-10.4.3-38.1 0-.7 10.8-2.2 23.4-6.3 1.9-.6 13.7-7.9 17.4-11.7 1.4-1.5 6.3-6 6.9-5.3"/><path class="st0" d="M88.4 223.2c-9.7-10.5-16.7-18.9-24.1-31.7 6.1 3.4 15.2 4.2 24 6.5 1.3.3 10.2-.9 12.6-.7 2.1.2 0 27.7-.4 38.4-3.8-2.4-8.8-9.8-12.1-12.5"/><path class="st4" d="M165.3 72.3C164.2 53.6 160 38 155 23.2c-20-1.7-38.7-5.9-54.5-11.8l.4 104.4c4.7-1.4 30.7-8.1 61.8 8.4.8-6.2 2.5-11.1 2.6-18 .2-1.2.4-4.7.6-5.4 2.3-8.2-.3-15.3-.3-22.1.1-.8 0-5.1-.3-6.4"/><path class="st5" d="M73.3 133.9c7.6-6.4 16.3-11.9 27.2-15-18.9 9.4-35.5 21.1-43 41.9 2.9-2.5 7-7 11.5-9.1-6.2 6.3-11.6 13.5-16.8 21 2.1-13.2 8.4-25.1 16.1-33.9 1.9-1.5 3.5-3.1 5-4.9"/><path class="st6" d="M33.5 22.8c-13.6 36-16.4 76.3-6.8 113.7 7.9 30.9 25.2 57.7 48.6 79.2 3.8 3.5 7.7 6.8 11.7 10l5.7 4.5c2 1.5 9 6.3 7.3 5.8-34.4-11.8-60.6-43.5-76.3-76.6C6 121.8 4.9 77.7 14.8 37.8c1.1-4.6 2.4-9.1 3.9-13.5.5-1.5.9-2.8.9-2.8s10.8 1.3 13.8 1.7c-2-.3-4.7-.7.1-.4"/><path class="st5" d="M127.1 115.8c17 1.2 29.5 6.8 38.1 16.4-5.7 28.9-23.9 45.2-49.3 54.5 20.1-11.7 39-24.5 43-52.4-.9-1.8-3-2.3-4.9-3.1 1.2-.8 3.8-.1 5.6-.3-7-9.3-22.2-13.4-38.4-14.7 1.2-.9 4-.2 5.9-.4"/><path class="st5" d="M129.9 128.7c-23 3.4-38.8 10.1-51.7 21.7-1.7 1.4-3.2 2.9-4.5 4.5-3.5 3.6-7.8 9.3-11.2 14.7-1.4 2.2-3.9 5-2.4 6.6 1.1 1.4 2.4 2.7 3.8 3.8 7.7 6.1 10.7 8.2 30.7 10.5 1.2.1 5.3.2 4.2.7-1.6.7-9.9.3-12.2.3-15.1-1-25.8-6.3-33.5-14.7 4.5-8 10.3-14.7 16.1-21.3 1.5-1.3 2.9-2.6 4.2-4.2 13.7-12.1 28.8-22.9 53.5-24.1h3.8c4.1 0 4.4-.3 11.2 1 .3.1-.1.3-.3.3-.7 0-1.4.1-2.1 0-2.6-.1-7.2-.2-9.6.2"/><path class="st5" d="M169 103.9c-.5 8.3-1.8 16.6-3.1 24.8-43.5-32.5-102.9-8.1-116.7 43-16.3-32-16.2-53.5-17.7-81.3C30 62 42 22.6 42 22.6h4.9C33.5 66.4 32 119.5 50.2 162.9c15.7-46.2 71.8-65.2 112.5-38.8 4.4-33.7 3.9-69.1-9-101.1 5.7-.1 5.1-1.2 6.7 5.1 2.1 8.2 3.8 16.4 5.4 24.6 3.5 17.7 4.2 35.3 3.1 53.2 0-.5.1-1.7.1-2-.5 8.3.2-1.1 0 0"/><path class="st1" d="M159.4 13.8c5.4.3 10.8.2 16.2-.1 2.7-.2 5.5-.5 8.2-.9 1.4-.2 2.7-.4 4.1-.7.5 1.2.9 2.5 1.4 3.7 2.9 8.2 5.1 16.7 6.7 25.3 6.7 35.2 5.5 74.2-6.7 108.2-7.3 20.5-19.5 39.4-34.6 55-7.5 7.8-15.9 14.9-24.7 21.2-4.5 3.2-9.2 6.2-13.9 9-5 2.9-10.2 7-15.9 8.5-.1-2.8-.1-5.1-.1-6.9 0-1.6 15.8-6.6 45.8-34.5 14.8-13.7 24.5-30.1 33.7-49.3 4.1-8.5 6.8-17.7 8.8-26.9 1.1-4.8 1.9-9.7 2.5-14.6.6-4.9 1.2-9.9 1-14.7-.3-4.6.1-21.2-.9-30.1-1.3-10.4-3.1-20.7-5.7-30.8l-2.1-8.1c-.4-1.5-.8-3-1.3-4.6-1.3-.2-2.6 0-3.9.1-1.2.1-11.3.7-17.4.6-2.2 0-4.8 0-7-.2-7.8-.7-15.5-1.7-23.2-3.1-6.8-1.2-13.5-2.8-20.1-4.7-3.3-1-6.6-2.1-9.8-3.3-1.7-4.2 1-12-.3-12 23.4 7.8 38.8 12.9 59.2 13.9"/><path class="st5" d="M156.1 161.9c-12.3 35.2-34.2 55-55.6 73.6 2.6-3.8 2.4-3.2 22.9-24.8 2.9-3.1 17.2-23.4 23.9-35.8.6-1.1-6.4 5.4-7.3 6.1-3.6 2.7-7.1 5.5-11.2 7.5-6.4 3.7-13.7 6.1-20.9 7.8-13.9 3.4-30.2 3.1-43-4 2 3.5 33.9 42.9 35.3 43.1-22.3-19.9-34.8-34.5-44.4-51.5 30 19.2 73 10.7 94-15 1.9-2.3 3.6-5.6 6.3-7"/><path class="st6" d="M179.1 22.5c.9-.1 1.9-.2 2.8 0 .3 1.1.7 2.3 1 3.4 1.4 5 2.7 10.1 3.8 15.1 2.3 10.4 4 20.9 4.9 31.6 1.7 19.5.4 39.3-4.6 58.4-10.2 39.5-35.9 72.5-69.4 95.2-.9.6-17.1 9.6-17.2 9.3 0-.3 2.2-1.6 9.4-7 3.2-2.4 6.5-4.8 9.5-7.4 5.8-4.9 11.4-10.2 16.6-15.7 10.6-11.3 19.8-24 26.7-38 16.6-33.3 20.5-71.9 14.5-108.2-1-6.3-2.4-12.5-4.1-18.6-.8-2.9-1.7-5.8-2.6-8.7-.8-2.6-2.2-6.2-2.9-8.8 3-.2 9.3-.4 11.6-.6"/><path class="st2" d="M24.4 175.4c.1.1.1.2.2.3 0-.1-.1-.2-.2-.3m.4.6c.2.4.4.7.5.9-.1-.3-.3-.6-.5-.9m-.2-.3c.1.1.1.2.2.3-.1-.1-.1-.2-.2-.3m-12-20.6l.1.1-.1-.1m-.2-.3s.1.1.2.4c-.1-.3-.2-.4-.2-.4m.3.5c0 .1.1.1.1.2 0-.1 0-.2-.1-.2m13 22.2c0 .1 0 .1 0 0 0 .1 0 .1 0 0m-8.8-15c0 .1.1.1.1.2 0-.1 0-.1-.1-.2.1 0 .1 0 0 0m-3.5-6.1c-.2-.3-.3-.5-.4-.7.1.1.2.4.4.7m11.9 20.5c.1.1.2.3.2.4 0-.1-.1-.2-.2-.4"/><path class="st2" d="M100.1 236.1S69 220.4 45.3 192.5C17.3 159.6 6 116.8 9 74.1c.8-11.5 2.6-22.9 5.3-34.1 1.3-5.2 2.7-10.3 4.4-15.3 1.3-3.9 2.4-2.5 5.9-2.2 2.5.2 4.9.5 7.5.4 11.6-.5 22.6-.2 34.2-2.1C77 19 87.5 16.5 97.8 13.1c1.2-.4 2.2-.8 2.9-1.2V.1c-1-.4-3.2 1.2-8.8 3.8-10.2 4.8-21.8 6.2-33 8-12.7 2-24.6 2.8-37.4 1.3-2.8-.3-5.5-.7-8.2-1.1-.9 2.6-1.8 5.3-2.7 8C8.9 25.5 7.5 31 6.3 36.5c-9 40.2-10.5 81.5 10.6 126 0 .1.1.1.1.2 15.8 27.1 34.5 51.8 61.5 67 2.3 1.3 21.7 14.7 21.7 12.9 0-4.5-.1-6.5-.1-6.5m-83.2-73.7c0 .1 0 .1 0 0 0 .1 0 .1 0 0"/><path class="st2" d="M16.9 162.4c-1.4-2.5-2.7-4.7-3.5-6.1.7 1.3 1.8 3.2 3.5 6.1m8.7 14.9c0 .1.1.1.1.2-.1 0-.1-.1-.1-.2m-1.2-1.9c-1.3-2.3-3.6-6.3-7.4-12.7 2.6 4.4 5.7 9.7 7.4 12.7"/><path class="st6" d="M71.6 59.4H60.9v-9.9c0-2.9-.1-4.7-.3-5.4-.3-.7-.8-1.1-1.6-1.1-.9 0-1.4.4-1.7 1.3-.2.9-.3 2.7-.3 5.6v26.4c0 2.8.1 4.6.4 5.4.2.8.8 1.3 1.6 1.3s1.3-.4 1.6-1.3c.2-.8.4-2.8.4-6v-7.2h10.7v2.2c0 5.9-.3 10.1-.9 12.5-.6 2.5-1.9 4.6-4 6.5-2.1 1.9-4.6 2.8-7.6 2.8-3.1 0-5.7-.8-7.8-2.4-2-1.6-3.4-3.7-4.1-6.5-.7-2.8-1-7-1-12.5V54.6c0-4.1.1-7.2.3-9.2.2-2.1.8-4 1.8-5.9 1-1.9 2.4-3.4 4.2-4.5 1.8-1.1 3.9-1.6 6.2-1.6 3.2 0 5.8.8 7.8 2.5 2.1 1.7 3.4 3.8 4.1 6.3.6 2.5 1 6.4 1 11.7v5.5zm13.5 6.4v15.9c1.5-.1 2.5-.4 2.9-1 .4-.6.6-2 .6-4.3v-5.3c0-2.4-.2-3.9-.6-4.4-.3-.5-1.3-.8-2.9-.9m0-21.5V57h1.1c1.1 0 1.7-.4 2-1.1.3-.7.4-2.8.4-6.1 0-1.8-.1-3-.4-3.7-.2-.7-.5-1.2-.9-1.4-.3-.3-1.1-.4-2.2-.4m-10.7-9.7h10.7c3.4 0 6 .4 7.7 1.1 1.7.7 3.2 2.2 4.2 4.4 1.1 2.2 1.6 5.8 1.6 10.7 0 3.3-.4 5.6-1.1 7-.8 1.3-2.3 2.3-4.5 3 2.5.8 4.2 2.1 5.1 3.9.9 1.8 1.3 4.5 1.3 8.3v5.3c0 3.8-.3 6.7-1 8.6-.6 1.9-1.7 3.1-3.1 3.8-1.4.7-4.3 1-8.6 1H74.4V34.6zm37.4 9.7V57c1.2 0 2.1-.2 2.5-.7.5-.5.7-1.9.7-4.4v-3.1c0-1.8-.2-3-.7-3.6-.4-.6-1.2-.9-2.5-.9m-10.7-9.7h7.6c5.1 0 8.5.3 10.3.8 1.8.5 3.3 1.9 4.4 4.1 1.1 2.2 1.7 5.8 1.7 10.6 0 4.4-.4 7.4-1.2 8.9-.8 1.5-2.4 2.4-4.7 2.7 2.1.7 3.6 1.7 4.3 2.9.7 1.2 1.2 2.3 1.4 3.4.2 1 .3 3.8.3 8.4v15h-10V72.6c0-3-.2-4.9-.5-5.7-.3-.7-1.3-1.1-2.7-1.1v25.7h-10.7V34.6zm50.3 10.2v46.7h-10.5l.2-3.9c-.7 1.6-1.6 2.8-2.6 3.5-1 .8-2.3 1.2-3.6 1.2-1.5 0-2.8-.4-3.9-1.1-1-.8-1.8-1.7-2.3-3-.5-1.2-.8-2.5-.9-3.9-.1-1.3-.2-4-.2-8V44.8H138v31.8c0 3.6.1 5.8.2 6.5.2.7.6 1 1.3 1 .8 0 1.2-.4 1.4-1.1.1-.7.2-3 .2-6.8V44.8h10.3z"/></svg>