<?xml version="1.0" encoding="utf-8"?>
<!-- Generator: Adobe Illustrator 22.1.0, SVG Export Plug-In . SVG Version: 6.00 Build 0)  -->
<svg version="1.1" id="Layer_1" xmlns="http://www.w3.org/2000/svg" xmlns:xlink="http://www.w3.org/1999/xlink" wide="200px" height="243.1px"
	 viewBox="0 0 200 243.1" style="enable-background:new 0 0 200 243.1;" xml:space="preserve">
<style type="text/css">
	.st0{fill:#FAD603;}
	.st1{fill:#C7B04A;}
	.st2{fill:#BFA330;}
	.st3{fill:#FFFFFF;}
	.st4{fill:#FABA00;}
	.st5{fill:#244757;}
	.st6{fill:#005221;}
</style>
<g>
	<g>
		<path class="st0" d="M100.6,11c1.3,30.9,1.8,48.6,2.3,92.9c0,3.7-1.9,8.6-1.9,11.8c-3.5,1.1-8.5,3.3-11.8,4.8
			c-8.3,3.8-12.1,6.8-15.7,9.6c-10.6,8.3-18.9,21.1-23.3,33.8c-9.2-21.5-14.9-47.3-14.9-70.5c0-24.4-12.9-64.4,10.6-71.6
			C57.9,18.2,82.8,16.7,100.6,11"/>
		<path class="st1" d="M33.5,23.2c2-0.6,6.4-0.6,8.4,0c-0.1,0.3,0,0.7-0.3,0.7C40.2,22.3,35.9,23.6,33.5,23.2"/>
		<path class="st2" d="M164.8,72.8c0.8,0.7,0.1,2.9,0.3,4.2C164.4,76.3,165,74.1,164.8,72.8"/>
		<path class="st2" d="M192.1,78c0.8,1.1,0.1,3.6,0.3,5.2C191.6,82.2,192.3,79.7,192.1,78"/>
		<path class="st1" d="M169.4,83.6c0.6,3.4,0.6,9.2,0,12.6V83.6z"/>
		<path class="st2" d="M116.3,111.6c2.9-0.6,8.3-0.6,11.2,0H116.3z"/>
		<path class="st1" d="M86.6,191.6h7C92,192.1,88.1,192.1,86.6,191.6"/>
		<path class="st2" d="M93.6,198.2c-1.2,0.6-4.8,0.6-5.9,0H93.6z"/>
		<path class="st2" d="M143.2,205.9c1.4-1.7,2.9-3.2,4.5-4.5C146.3,203,144.8,204.5,143.2,205.9"/>
		<path class="st2" d="M177.4,158.4c-0.9,2.1-1.7,4.4-3.1,5.9C175.3,162.4,176.1,160.1,177.4,158.4"/>
		<path class="st3" d="M21.2,84.3C21.9,64.2,25.5,44,32.2,25c1.7-4.9,11.6-8.4,9.4,0c-2.1,7.7-4.5,15-6,22.9
			c-8.1,41.4-4.2,85.4,13.7,123.8c16.3-57.7,73.9-74.9,116.7-43c3.1-19.1,4.1-38.5,2.6-57.7c-0.8-9.6-3.1-18.6-5.1-28
			c-0.9-4.2-3.2-13.7-4.4-17.8c-1-3.7-0.6-0.7,4-3.4c9.2-5.4,14.4,35.2,15.3,40.6c11.9,68.7-16.2,133.8-77.9,173.2
			c2.9-4.9,9.7-9.5,13.9-13.1c6.1-5.3,12.3-11.7,17.2-18.1c10-13,18.4-27.3,24.7-42.4c-2.3,3.1-11.9,14.3-16,17.4
			c-8.1,6-19.3,11.9-29,14.5c-18.9,5-47,1.1-55.2-9.9C61.7,194.3,69,203,77,212c3.6,4.1,8.2,8.5,11.9,12.7c1.4,1.6,11.1,9.3,11.5,11
			c-34.6-22.8-48.5-39.2-61.9-65.6C23.8,141.1,19,107,21.6,74.9C21.3,78,21.2,81.2,21.2,84.3c0.1-2.2,0.4-4.6,0.2-6.8
			C21.6,79,21.2,85.6,21.2,84.3C21.9,63.9,21.2,89.4,21.2,84.3"/>
		<path class="st2" d="M130.2,201.3c1.2-1.6,2-3.5,3.5-4.9C132.6,198.2,131.8,200.1,130.2,201.3"/>
		<path class="st4" d="M148.4,174.1c-3.1,6.8-10.3,16.2-14.1,22.2c-1.5,1.3-2.3,3.3-3.5,4.9c-5.7,9.3-24.3,28.7-26.5,30.5
			c-0.7,0.5-3.3,2.9-3.9,3.8c0.2-18.8,1.2-10.4,0.3-38.1c0-0.7,10.8-2.2,23.4-6.3c1.9-0.6,13.7-7.9,17.4-11.7
			C142.9,177.9,147.8,173.4,148.4,174.1"/>
		<path class="st0" d="M88.4,223.2c-9.7-10.5-16.7-18.9-24.1-31.7c6.1,3.4,15.2,4.2,24,6.5c1.3,0.3,10.2-0.9,12.6-0.7
			c2.1,0.2,0,27.7-0.4,38.4C96.7,233.3,91.7,225.9,88.4,223.2"/>
		<path class="st4" d="M165.3,72.3c-1.1-18.7-5.3-34.3-10.3-49.1c-20-1.7-38.7-5.9-54.5-11.8l0.4,104.4c4.7-1.4,30.7-8.1,61.8,8.4
			c0.8-6.2,2.5-11.1,2.6-18c0.2-1.2,0.4-4.7,0.6-5.4c2.3-8.2-0.3-15.3-0.3-22.1C165.7,77.9,165.6,73.6,165.3,72.3"/>
		<path class="st5" d="M73.3,133.9c7.6-6.4,16.3-11.9,27.2-15c-18.9,9.4-35.5,21.1-43,41.9c2.9-2.5,7-7,11.5-9.1
			c-6.2,6.3-11.6,13.5-16.8,21c2.1-13.2,8.4-25.1,16.1-33.9C70.2,137.3,71.8,135.7,73.3,133.9"/>
		<path class="st6" d="M33.5,22.8c-13.6,36-16.4,76.3-6.8,113.7c7.9,30.9,25.2,57.7,48.6,79.2c3.8,3.5,7.7,6.8,11.7,10
			c1.9,1.5,3.8,3,5.7,4.5c2,1.5,9,6.3,7.3,5.8c-34.4-11.8-60.6-43.5-76.3-76.6C6,121.8,4.9,77.7,14.8,37.8c1.1-4.6,2.4-9.1,3.9-13.5
			c0.5-1.5,0.9-2.8,0.9-2.8s10.8,1.3,13.8,1.7C31.4,22.9,28.7,22.5,33.5,22.8"/>
		<path class="st5" d="M127.1,115.8c17,1.2,29.5,6.8,38.1,16.4c-5.7,28.9-23.9,45.2-49.3,54.5c20.1-11.7,39-24.5,43-52.4
			c-0.9-1.8-3-2.3-4.9-3.1c1.2-0.8,3.8-0.1,5.6-0.3c-7-9.3-22.2-13.4-38.4-14.7C122.4,115.3,125.2,116,127.1,115.8"/>
		<path class="st5" d="M129.9,128.7c-23,3.4-38.8,10.1-51.7,21.7c-1.7,1.4-3.2,2.9-4.5,4.5c-3.5,3.6-7.8,9.3-11.2,14.7
			c-1.4,2.2-3.9,5-2.4,6.6c1.1,1.4,2.4,2.7,3.8,3.8c7.7,6.1,10.7,8.2,30.7,10.5c1.2,0.1,5.3,0.2,4.2,0.7c-1.6,0.7-9.9,0.3-12.2,0.3
			c-15.1-1-25.8-6.3-33.5-14.7c4.5-8,10.3-14.7,16.1-21.3c1.5-1.3,2.9-2.6,4.2-4.2c13.7-12.1,28.8-22.9,53.5-24.1c1.3,0,2.6,0,3.8,0
			c4.1,0,4.4-0.3,11.2,1c0.3,0.1-0.1,0.3-0.3,0.3c-0.7,0-1.4,0.1-2.1,0C136.9,128.4,132.3,128.3,129.9,128.7"/>
		<path class="st5" d="M169,103.9c-0.5,8.3-1.8,16.6-3.1,24.8c-43.5-32.5-102.9-8.1-116.7,43c-16.3-32-16.2-53.5-17.7-81.3
			c-1.5-28.4,10.5-67.8,10.5-67.8s1.9,0,4.9,0C33.5,66.4,32,119.5,50.2,162.9c15.7-46.2,71.8-65.2,112.5-38.8
			c4.4-33.7,3.9-69.1-9-101.1c5.7-0.1,5.1-1.2,6.7,5.1c2.1,8.2,3.8,16.4,5.4,24.6c3.5,17.7,4.2,35.3,3.1,53.2
			C168.9,105.4,169,104.2,169,103.9C168.5,112.2,169.2,102.8,169,103.9"/>
		<path class="st1" d="M159.4,13.8c5.4,0.3,10.8,0.2,16.2-0.1c2.7-0.2,5.5-0.5,8.2-0.9c1.4-0.2,2.7-0.4,4.1-0.7
			c0.5,1.2,0.9,2.5,1.4,3.7c2.9,8.2,5.1,16.7,6.7,25.3c6.7,35.2,5.5,74.2-6.7,108.2c-7.3,20.5-19.5,39.4-34.6,55
			c-7.5,7.8-15.9,14.9-24.7,21.2c-4.5,3.2-9.2,6.2-13.9,9c-5,2.9-10.2,7-15.9,8.5c-0.1-2.8-0.1-5.1-0.1-6.9
			c0-1.6,15.8-6.6,45.8-34.5c14.8-13.7,24.5-30.1,33.7-49.3c4.1-8.5,6.8-17.7,8.8-26.9c1.1-4.8,1.9-9.7,2.5-14.6
			c0.6-4.9,1.2-9.9,1-14.7c-0.3-4.6,0.1-21.2-0.9-30.1c-1.3-10.4-3.1-20.7-5.7-30.8c-0.7-2.7-1.4-5.4-2.1-8.1
			c-0.4-1.5-0.8-3-1.3-4.6c-1.3-0.2-2.6,0-3.9,0.1c-1.2,0.1-11.3,0.7-17.4,0.6c-2.2,0-4.8,0-7-0.2c-7.8-0.7-15.5-1.7-23.2-3.1
			c-6.8-1.2-13.5-2.8-20.1-4.7c-3.3-1-6.6-2.1-9.8-3.3c-1.7-4.2,1-12-0.3-12C123.6,7.7,139,12.8,159.4,13.8"/>
		<path class="st5" d="M156.1,161.9c-12.3,35.2-34.2,55-55.6,73.6c2.6-3.8,2.4-3.2,22.9-24.8c2.9-3.1,17.2-23.4,23.9-35.8
			c0.6-1.1-6.4,5.4-7.3,6.1c-3.6,2.7-7.1,5.5-11.2,7.5c-6.4,3.7-13.7,6.1-20.9,7.8c-13.9,3.4-30.2,3.1-43-4
			c2,3.5,33.9,42.9,35.3,43.1c-22.3-19.9-34.8-34.5-44.4-51.5c30,19.2,73,10.7,94-15C151.7,166.6,153.4,163.3,156.1,161.9"/>
		<path class="st6" d="M179.1,22.5c0.9-0.1,1.9-0.2,2.8,0c0.3,1.1,0.7,2.3,1,3.4c1.4,5,2.7,10.1,3.8,15.1c2.3,10.4,4,20.9,4.9,31.6
			c1.7,19.5,0.4,39.3-4.6,58.4c-10.2,39.5-35.9,72.5-69.4,95.2c-0.9,0.6-17.1,9.6-17.2,9.3c0-0.3,2.2-1.6,9.4-7
			c3.2-2.4,6.5-4.8,9.5-7.4c5.8-4.9,11.4-10.2,16.6-15.7c10.6-11.3,19.8-24,26.7-38c16.6-33.3,20.5-71.9,14.5-108.2
			c-1-6.3-2.4-12.5-4.1-18.6c-0.8-2.9-1.7-5.8-2.6-8.7c-0.8-2.6-2.2-6.2-2.9-8.8C170.5,22.9,176.8,22.7,179.1,22.5"/>
		<path class="st2" d="M24.4,175.4c0.1,0.1,0.1,0.2,0.2,0.3C24.6,175.6,24.5,175.5,24.4,175.4"/>
		<path class="st2" d="M24.8,176c0.2,0.4,0.4,0.7,0.5,0.9C25.2,176.6,25,176.3,24.8,176"/>
		<path class="st2" d="M24.6,175.7c0.1,0.1,0.1,0.2,0.2,0.3C24.7,175.9,24.7,175.8,24.6,175.7"/>
		<path class="st2" d="M25.8,177.7C25.8,177.7,25.8,177.7,25.8,177.7"/>
		<path class="st2" d="M12.6,155.1c0,0,0.1,0.1,0.1,0.1C12.7,155.2,12.7,155.2,12.6,155.1"/>
		<path class="st2" d="M12.4,154.8c0,0,0.1,0.1,0.2,0.4C12.5,154.9,12.4,154.8,12.4,154.8"/>
		<path class="st2" d="M12.4,154.8C12.4,154.8,12.4,154.8,12.4,154.8"/>
		<path class="st2" d="M25.8,177.7C25.8,177.7,25.8,177.7,25.8,177.7C25.8,177.7,25.8,177.7,25.8,177.7"/>
		<path class="st2" d="M12.7,155.3c0,0.1,0.1,0.1,0.1,0.2C12.8,155.4,12.8,155.3,12.7,155.3"/>
		<path class="st2" d="M25.3,176.9C25.3,176.9,25.3,176.9,25.3,176.9C25.3,176.9,25.3,176.9,25.3,176.9"/>
		<path class="st2" d="M25.7,177.5C25.7,177.6,25.7,177.6,25.7,177.5C25.7,177.6,25.7,177.6,25.7,177.5"/>
		<path class="st2" d="M16.9,162.5c0,0.1,0.1,0.1,0.1,0.2C17,162.6,17,162.6,16.9,162.5C17,162.5,17,162.5,16.9,162.5"/>
		<path class="st2" d="M13.4,156.4c-0.2-0.3-0.3-0.5-0.4-0.7C13.1,155.8,13.2,156.1,13.4,156.4"/>
		<path class="st2" d="M25.3,176.9c0.1,0.1,0.2,0.3,0.2,0.4C25.5,177.2,25.4,177.1,25.3,176.9"/>
		<path class="st2" d="M100.1,236.1c0,0-31.1-15.7-54.8-43.6C17.3,159.6,6,116.8,9,74.1c0.8-11.5,2.6-22.9,5.3-34.1
			c1.3-5.2,2.7-10.3,4.4-15.3c1.3-3.9,2.4-2.5,5.9-2.2c2.5,0.2,4.9,0.5,7.5,0.4c11.6-0.5,22.6-0.2,34.2-2.1
			c10.7-1.8,21.2-4.3,31.5-7.7c1.2-0.4,2.2-0.8,2.9-1.2V0.1c-1-0.4-3.2,1.2-8.8,3.8c-10.2,4.8-21.8,6.2-33,8
			c-12.7,2-24.6,2.8-37.4,1.3c-2.8-0.3-5.5-0.7-8.2-1.1c-0.9,2.6-1.8,5.3-2.7,8c-1.7,5.4-3.1,10.9-4.3,16.4
			C-2.7,76.7-4.2,118,16.9,162.5c0,0,0,0,0,0c0,0.1,0.1,0.1,0.1,0.2c15.8,27.1,34.5,51.8,61.5,67c2.3,1.3,21.7,14.7,21.7,12.9
			C100.2,238.1,100.1,236.1,100.1,236.1"/>
		<path class="st2" d="M16.9,162.4C16.9,162.5,16.9,162.5,16.9,162.4L16.9,162.4C16.9,162.5,16.9,162.5,16.9,162.4"/>
		<path class="st2" d="M16.9,162.4c-1.4-2.5-2.7-4.7-3.5-6.1C14.1,157.6,15.2,159.5,16.9,162.4"/>
		<path class="st2" d="M25.6,177.3c0,0.1,0.1,0.1,0.1,0.2C25.6,177.5,25.6,177.4,25.6,177.3"/>
		<path class="st2" d="M25.6,177.3C25.6,177.3,25.6,177.3,25.6,177.3C25.6,177.3,25.6,177.3,25.6,177.3"/>
		<path class="st2" d="M24.4,175.4c-1.3-2.3-3.6-6.3-7.4-12.7c0,0,0,0,0,0C19.6,167.1,22.7,172.4,24.4,175.4"/>
		<path class="st6" d="M71.6,59.4H60.9v-9.9c0-2.9-0.1-4.7-0.3-5.4C60.3,43.4,59.8,43,59,43c-0.9,0-1.4,0.4-1.7,1.3
			C57.1,45.2,57,47,57,49.9v26.4c0,2.8,0.1,4.6,0.4,5.4c0.2,0.8,0.8,1.3,1.6,1.3c0.8,0,1.3-0.4,1.6-1.3c0.2-0.8,0.4-2.8,0.4-6v-7.2
			h10.7v2.2c0,5.9-0.3,10.1-0.9,12.5c-0.6,2.5-1.9,4.6-4,6.5c-2.1,1.9-4.6,2.8-7.6,2.8c-3.1,0-5.7-0.8-7.8-2.4
			c-2-1.6-3.4-3.7-4.1-6.5c-0.7-2.8-1-7-1-12.5V54.6c0-4.1,0.1-7.2,0.3-9.2c0.2-2.1,0.8-4,1.8-5.9c1-1.9,2.4-3.4,4.2-4.5
			c1.8-1.1,3.9-1.6,6.2-1.6c3.2,0,5.8,0.8,7.8,2.5c2.1,1.7,3.4,3.8,4.1,6.3c0.6,2.5,1,6.4,1,11.7V59.4z"/>
		<path class="st6" d="M85.1,65.8v15.9c1.5-0.1,2.5-0.4,2.9-1c0.4-0.6,0.6-2,0.6-4.3v-5.3c0-2.4-0.2-3.9-0.6-4.4
			C87.7,66.2,86.7,65.9,85.1,65.8 M85.1,44.3V57c0.5,0,0.8,0,1.1,0c1.1,0,1.7-0.4,2-1.1c0.3-0.7,0.4-2.8,0.4-6.1
			c0-1.8-0.1-3-0.4-3.7c-0.2-0.7-0.5-1.2-0.9-1.4C87,44.4,86.2,44.3,85.1,44.3 M74.4,34.6h10.7c3.4,0,6,0.4,7.7,1.1
			c1.7,0.7,3.2,2.2,4.2,4.4c1.1,2.2,1.6,5.8,1.6,10.7c0,3.3-0.4,5.6-1.1,7c-0.8,1.3-2.3,2.3-4.5,3c2.5,0.8,4.2,2.1,5.1,3.9
			c0.9,1.8,1.3,4.5,1.3,8.3v5.3c0,3.8-0.3,6.7-1,8.6c-0.6,1.9-1.7,3.1-3.1,3.8c-1.4,0.7-4.3,1-8.6,1H74.4V34.6z"/>
		<path class="st6" d="M111.8,44.3V57c1.2,0,2.1-0.2,2.5-0.7c0.5-0.5,0.7-1.9,0.7-4.4v-3.1c0-1.8-0.2-3-0.7-3.6
			C113.9,44.6,113.1,44.3,111.8,44.3 M101.1,34.6h7.6c5.1,0,8.5,0.3,10.3,0.8c1.8,0.5,3.3,1.9,4.4,4.1c1.1,2.2,1.7,5.8,1.7,10.6
			c0,4.4-0.4,7.4-1.2,8.9c-0.8,1.5-2.4,2.4-4.7,2.7c2.1,0.7,3.6,1.7,4.3,2.9c0.7,1.2,1.2,2.3,1.4,3.4c0.2,1,0.3,3.8,0.3,8.4v15h-10
			V72.6c0-3-0.2-4.9-0.5-5.7c-0.3-0.7-1.3-1.1-2.7-1.1v25.7h-10.7V34.6z"/>
		<path class="st6" d="M151.4,44.8v46.7h-10.5l0.2-3.9c-0.7,1.6-1.6,2.8-2.6,3.5c-1,0.8-2.3,1.2-3.6,1.2c-1.5,0-2.8-0.4-3.9-1.1
			c-1-0.8-1.8-1.7-2.3-3c-0.5-1.2-0.8-2.5-0.9-3.9c-0.1-1.3-0.2-4-0.2-8V44.8H138v31.8c0,3.6,0.1,5.8,0.2,6.5c0.2,0.7,0.6,1,1.3,1
			c0.8,0,1.2-0.4,1.4-1.1c0.1-0.7,0.2-3,0.2-6.8V44.8H151.4z"/>
	</g>
</g>
</svg>
