<svg xmlns="http://www.w3.org/2000/svg" width="1000" height="1000"><path fill="#FFF" d="M420.571 151.709c4.222-2.346 8.269-6.312 12.023-11.786 6.986-10.17 11.867-25.662 11.867-45.681 0-21.107-5.424-47.244-19.561-77.496-.126-.333-3.64-9.014-7.411-16.747 111.207 20.326 132.697 88.803 141.753 121.944 3.728 13.643 5.918 21.635 10.802 24.889 3.989 2.66 9.868 2.208 14.829.831 14.86-4.115 29.551-25.463 37.628-42.489 0 0 5.956-11.598 10.06-20.563 3.169 8.874 8.712 27.66 8.712 50.987 0 .528 0 1.053-.016 1.581-.398 36.591-11.024 68.917-20.402 97.438l-1.761 5.359-2.955 8.276c-4.372 11.847-7.694 21.539-7.694 28.108 0 3.219.788 5.688 2.656 7.296 1.6 1.389 3.2 1.47 4.264 1.294 3.897-.644 6.867-5.711 11.782-14.106 6.385-10.883 16.023-27.327 31.894-39.63 14.998-11.614 33.885-14.626 41.77-15.415-2.396 7.771-6.622 23.063-6.622 34.451 0 5.313.919 9.742 3.384 12.13 2.695 2.61 8.153 2.649 14.967.107 17.011-6.347 46.256-31.056 53.153-82.797 4.295 6.278 11.53 16.804 11.53 16.804 18.305 29.034 23.962 59.152 23.962 86.383 0 28.671-6.262 54.153-10.603 71.826l-.689 2.718c-1.47 5.818-3.062 12.085-3.062 17.122 0 3.525.789 6.446 2.932 8.184 5.558 4.517 13.903 3.499 17.233 2.855 16.199-3.143 33.792-19.894 43.782-34.167 0 .762.054 1.558.054 2.315 0 28.966-5.512 53.744-17.064 77.224-23.909 48.595-66.789 72.672-98.093 90.257l-8.827 4.992-7.61 4.279c-16.253 9.057-26.206 14.921-27.247 19.974l.038 1.286c3.246 11.759 36.342 14.148 75.371 5.458 0 0 15.312-3.261 24.1-5.122-2.741 4.448-6.262 10.312-14.071 21.367-29.038 41.157-92.933 48.89-126.648 43.913-.007 0-8.735-1.286-8.735-1.286l13.627 13.78c9.141 9.355 22.424 22.792 36.648 34.895-32.361-2.657-69.56-17.554-88.898-31.878l-.475-.359-25.456-5.352-7.801-1.784c-15.434-3.346-31.465-8.046-47.703-13.964l-3.361-1.232-.252 3.567c-1.569 22.263-4.8 55.864-11.315 89.633-18.569 96.248-33.433 101.63-39.033 103.651-10.619 3.835-17.532-4.271-22.894-12.708-2.186-3.454-3.583-5.482-4.708-6.377-6.324-4.065-13.734-11.821-13.734-26.068 0-4.004.597-8.33 1.78-12.885 1.956-7.533 7.273-16.866 13.432-27.668 7.625-13.367 16.261-28.525 20.403-43.178 4.995-17.669 9.826-38.417 13.585-58.405l.907-4.823-4.563 1.822c-4.551 1.83-28.755 9.854-50.493 13.543-27.419 4.67-46.926 5.344-56.79 5.918 13.428-11.346 16.349-14.515 16.349-16.414 0-.459-.119-.789-.222-1.08-.18-.528-.961-2.235-3.43-2.259-7.135-.076-39.867-2.817-58.386-10.182-18.439-7.35-45.039-5.673-66.67 3.636 8.379-34.022 28.567-41.961 45.069-48.154l6.978-2.71 4.379-1.784c6.783-2.725 13.792-5.542 16.942-8.659 1.291-1.133 2.002-2.618 2.002-4.218 0-.353-.031-.705-.1-1.057-1.397-7.25-18.056-14.431-48.292-25.156l-1.623-.574c-51.875-18.393-116.436-41.276-121.339-122.664-.26-4.39-.348-8.731-.348-12.433 0-2.431.042-4.467.08-6.194 37.904 26.676 61.64 32.725 66.092 30.16 5.206-2.989-1.347-17.148-9.045-29.88-33.972-56.178-42.057-121.722-12.739-152.908 22.917 49.544 41.356 60.718 58.138 55.611 8.437-2.564 34.883-15.839 24.548-62.8 8.219 7.059 22.811 20.096 22.811 20.096l4.329 3.79 1.673-2.691c5.868-9.409 13.355-18.098 22.244-25.838l2.044-1.776-8.792-10.014c-11.024-14.615-17.091-31.446-17.091-47.393 0-3.854.368-7.617 1.091-11.181 2.588-12.739 9.803-23.093 20.318-29.168 17.283-9.999 43.672-6.132 62.758 9.198 9.137 7.342 16.571 17.095 22.098 28.98l1.221 2.63 2.532-1.405z"/><path d="M513.339 797.08h-4.233v-16.56h-6.052v-3.544h16.326v3.544h-6.041v16.56zm27.822 0h-3.889v-16.812h-.084l-3.729 16.812h-4.134l-3.683-16.812h-.039v16.812h-3.927v-20.104h6.155l3.622 15.839h.053l3.575-15.839h6.079v20.104z"/><path fill="#C41230" d="M842.168 373.431c-21.842 23.231-66.298 31.282-65.9 2.021.329-22.925 37.927-101.393-7.61-173.602-5.061 23.205-15.977 42.145-37.428 59.007-17.662 13.876-59.7 30.565-41.839-35.802-22.661 4.28-40.262 23.749-66.016 65.242-6.27 10.09-28.112 6.393-22.914-18.944 6.255-30.554 39.067-98.319 28.64-159.431-14.109 32.702-40.438 49.349-58.643 45.777-32.2-6.316-5.864-107.792-136.402-145.229 44.74 95.765 7.342 153.854-24.766 151.641.138.414.302.812.429 1.232 1.715 5.532 2.671 10.925 3.013 16.058 25.156-3.369 53.785.501 81.28 12.689 59.78 26.458 90.717 81.859 71.578 124.237-1.523 3.376-3.422 6.519-5.474 9.554 10.213 14.649 18.213 41.012 20.357 71.39 1.516 21.589-1.187 44.009-5.206 59.141 8.261 10.932 32.422 47.963 47.389 78.188 12.693 25.593 22.714 49.938 29.604 70.77 25.134 3.713 86.188-.827 117.339-40.308-34.604 7.702-80.952 10.389-87.291-12.632-9.967-36.111 137.49-50.691 159.86-180.999z"/><path d="M367.241 223.076c4.31 12.674 21.019 21.467 21.019 21.467s1.052-9.665 14.102-11.243c-17.336-.279-29.727-7.77-35.121-10.224zm104.279 17.915c-1.106.857-2.189 2.404-2.688 1.171-.405-.95-.459-2.423-.777-3.308-.731-2.063-1.439-2.955-2.652-3.751.203 1.041.092 2.014-.494 3.066-.49.877-1.531 2.155-2.381-.789-.57.042-1.141 2.848-1.397 3.924-.107.513-1.053.819-1.451-.528-.394-1.343-1.118-6.216-1.665-7.078-.011 1.16-.796 2.714-1.615 2.875-1.455.268-2.071-3.989-8.265-3.759 3.583 3.227 2.404 6.025 2.159 6.351-.555.792-2.358.421-2.358.421.038.065.065.138.111.203 1.091 1.93 3.051 4.134 3.709 4.838.696.731.57 2.021-.969 1.47-.601-.214-4.046-1.4-4.046-1.4s1.007 1.592.31 2.075c-1.221.857-3.001.857-4.528-.536-.023.375.701 2.687 2.025 3.954 1.175 1.106 2.569 1.96 2.312 2.646-.256.692-2.013.509-2.97.271 1.428 1.991 3.051 2.676 5.527 3.005 1.236.176 3.793-.463 4.318.329.532.796-1.792 1.78-2.018 3.273.678-.337 1.034-.589 2.01-.716.857-.119 2.752-.517 3.369-.777.635-.249-.038.912-.038.912s1.914-1.072 2.787-1.849c.475-.425.854-.823 1.087-1.099.271.972.562 2.362.754 3.721.168 1.278-.241 2.821-.153 3.483.119.666.432.953.823 1.026.401.084.846.682 1.11.444.348-.314.134-2.201-.375-4.528-.417-1.853-1.052-3.698-1.385-4.586 0 0 1.393.039 2.943-.218.627-.111 1.818-.23 2.859-.62a4.33 4.33 0 00.865-.417c-.804-.142-.88-.521-.88-.521s3.774-1.095 4.49-3.74c-1.562.685-3.173 1.78-3.851.93-1.06-1.33 4.647-5.093 3.388-10.168z"/><path d="M162.86 833.514c-20.242-.805-37.528 3.835-48.66 13.084-13.979 11.537-15.866 27.529-15.866 41.646v49.824c-.023 15.609-.046 33.316 15.043 47.389 10.259 9.669 29.203 15.089 50.646 14.499 21.378-.612 40.835-6.89 53.387-17.271l4.107-3.392V916.47h-57.472v-6.921h57.472v-55.811l-5.061-3.36c-15.072-9.997-34.609-16.146-53.596-16.864zm86.613 4.103c-2.312 12.439-19.702 106.001-19.702 106.016a540.42 540.42 0 00-.659 3.047c-.368 1.846-.995 4.938-1.581 5.804l-3.151 2.909-1.267 5.956v35.875h136.108V952.95s-3.782-1.141-6.044-1.83c-.344-.788-.8-2.12-1.389-5.343-.035-.199-19.239-95.574-21.773-108.16h-80.542zm112.161-1.393v41.846s3.448 2.336 4.555 3.094c.038.834.118 3.139.118 3.139v64.828s-.08 2.297-.118 3.147c-1.107.742-4.23 2.84-4.23 2.84l-.325 6.231v35.875h128.677V884.332s.084-2.335.119-3.161c1.079-.743 4.188-2.864 4.188-2.864l.379-6.216-.191-35.913-133.172.046zm342.9 0h-50.765l-19.14-.046v43.14s3.476 1.607 5.367 2.473c.054.812.115 1.662.115 1.662v66.902c0-.145-.076.566-.138 1.264-1.523.666-5.198 2.028-6.293 2.435v-1.103l-6.063-1.83c-.344-.788-.796-2.12-1.378-5.343-.03-.199-19.844-97.014-22.377-109.6l-34.198.046h-31.335l-11.614-.046c-3.169 17.042-22.492 107.44-22.492 107.455-.031.115-.659 3.039-.659 3.039-.375 1.854-.999 4.954-1.592 5.819-.739.688-3.143 2.901-3.143 2.901l-1.26 5.956v35.875h209.384c14.661 0 30.057-1.026 42.979-13.245 14.676-13.811 14.676-29.535 14.676-42.152v-51.821c0-10.642 0-30.446-16.75-43.599-6.438-4.962-13.719-7.48-20.916-8.789l-22.408-1.393zM895.628 951.12c-.368-.818-.812-2.174-1.417-5.39l-22.025-109.507h-80.025s-19.943 107.395-19.943 107.409c-.03.131-.666 3.056-.666 3.056-.383 1.837-.995 4.93-1.593 5.787-.727.689-3.154 2.917-3.154 2.917l-1.263 5.956v35.875h136.126V952.95s-3.782-1.14-6.04-1.83z" fill="#FFF"/><path d="M168.563 890.005c0-5.649 1.125-15.327-7.912-15.327-9.03 0-7.912 9.678-7.912 15.327v53.437c0 5.643-1.118 15.327 7.912 15.327 9.038 0 7.912-9.685 7.912-15.327v-15.663h41.644v46.188c-11.135 9.202-29.057 14.192-46.497 14.691-17.268.475-34.056-3.415-42.619-11.461-11.943-11.14-11.446-25.677-11.446-40.867v-48.085c0-12.44 1.604-24.545 11.771-32.942 9.359-7.771 24.701-11.14 41.008-10.488 16.472.628 33.915 5.795 47.783 14.997v38.425h-41.644v-8.232zm125.432 32.766l-7.097-40.997h-.329l-6.771 40.997h14.197zm-11.943 63.137h-47.626v-24.56c4.693-3.216 5.164-10.312 6.462-15.648l18.243-98.169h61.35l20.18 100.267c.8 4.364 2.419 12.104 7.258 13.551v24.56h-54.406v-24.56c3.399-1.271 5.007-3.858 5.007-7.563 0-1.471-.326-2.748-.647-4.035h-20.835c-.31 1.287-.631 2.733-.631 4.035 0 3.873 1.933 6.614 5.646 7.563v24.559zm161.773-75.891h.311v-24.375c0-5.16.497-10.32-4.678-13.551v-24.56h44.227v24.56c-5.16 3.23-4.682 8.391-4.682 13.551v100.267h-41.8l-25.685-62.165h-.314v24.055c0 5.168-.479 10.335 4.682 13.551v24.56h-42.945v-24.56c5.164-3.216 4.67-8.383 4.67-13.551v-62.156c0-5.16.494-10.32-4.67-13.551v-24.56h46.822l24.062 62.485zm110.411 12.754l6.791-40.997h.306l7.127 40.997h-14.224zm2.274 38.578c-3.729-.949-5.666-3.69-5.666-7.563 0-1.302.322-2.748.658-4.035h20.824c.314 1.287.635 2.564.635 4.035 0 3.705-1.607 6.293-4.999 7.563v24.56h54.402v-24.56c-4.831-1.447-6.454-9.187-7.258-13.551l-20.173-100.267H533.58L515.338 945.7c-1.294 5.337-1.776 12.433-6.462 15.648v24.56h47.634v-24.559zm138.033-83.617h3.391c9.355 0 12.257 3.392 12.257 13.398v52.166c0 9.998-2.901 13.39-12.257 13.39h-3.391v-78.954zm-48.599-30.201v24.56c4.991 2.09 5.321 6.124 5.481 10.971v67.309c-.161 4.693-.65 8.881-5.481 10.979v24.56h61.008c13.076 0 25.34-.827 35.216-10.151 10.488-9.884 11.124-20.38 11.124-33.931v-51.821c0-13.229-1.133-25.846-12.425-34.703-9.86-7.603-23.411-7.771-35.201-7.771h-59.722zm237.159 100.267l-20.188-100.267H801.57L783.334 945.7c-1.31 5.337-1.776 12.433-6.477 15.648v24.56h47.634v-24.56c-3.713-.949-5.65-3.69-5.65-7.563 0-1.302.313-2.748.643-4.035h7.373c-.299-.413-.391-.979 0-1.876.589-1.286 1.141-1.913 2.396-3.958 1.822-3 2.503-7.854 3.024-12.096-.766.384-2.45 1.164-3.858 1.646-2.564.872-7.602 1.53-7.602 1.53s2.488-1.905.918-1.905c-1.577 0-5.933-.743-7.862-1.218-2.189-.544-3.192-.337-4.922-.184 1.845-2.947 7.686-3.077 7.28-5.198-.398-2.128-6.393-2.924-8.857-4.333-4.946-2.81-7.771-5.612-8.958-11.01 1.807 1.295 5.336 3.186 6.523 1.938 1.194-1.225-.988-4.203-2.473-7.541-1.662-3.797-1.064-9.286-.666-10.044 1.952 4.233 4.999 5.344 8.383 4.586 1.921-.429 1.347-4.854 1.347-4.854s6.837 6.025 7.893 6.982c2.794 2.45 4.211-.161 3.438-2.289-.589-1.585-2.006-5.742-2.871-9.86a36.539 36.539 0 01-.574-3.483c-.031-.169-.046-.345-.069-.513 0 0 3.499 2.312 5.413 1.133.788-.506 5.849-5.397 1.232-15.212 13.344 4.746 10.741 14.231 14.071 14.875 1.876.375 4.953-2.259 6.049-4.686.39 2.29-2.565 13.168-2.94 16.345-.406 3.17 1.753 3.002 2.35 1.938 1.692-2.963 5.581-7.097 6.807-6.676-.888 6.89 2.496 5.083 4.318 3.659 2.22-1.73 3.345-3.659 3.866-6.048 1.845 2.694 2.526 5.175 2.212 10.159-.145 2.128-1.385 5.298-1.424 7.641-.053 3.001 3.636.658 6.798-.215-1.975 11.782-17.523 14.859-16.498 18.565.658 2.357 5.076 1.416 9.003 1.309-3.943 4.954-12.923 4.073-12.923 4.073s-.191.881 1.378 1.846c-.705.129-1.462.16-2.212.152-.177-.023-.337-.023-.49-.038-2.427-.138-4.8-.781-6.163-1.079a39.575 39.575 0 01-6.446-2.037c-.383 7.886-1.585 14.53-2.795 17.976h9.363c.322 1.287.644 2.564.644 4.035 0 3.705-1.623 6.293-5.007 7.563v24.56h54.402v-24.56c-4.833-1.447-6.448-9.186-7.252-13.55z" fill="#C41230"/><path d="M520.375 292.824c-.184 1.068-.513 2.056-.743 3.093 5.106 3.307 9.501 6.901 13.061 10.652 11.063-30.99-12.196-71.439-44.051-92.749 18.542 12.717 35.568 55.015 31.733 79.004zm81.61 292.59c-65.579-79.432-97.867-162.588-84.581-207.236-22.232 20.314-25.608 65.177-9.608 112.145 0 0-50-43.412-72.4-104.187 10.882-.559 19.867-1.845 30.704-4.996 15.97-4.632 29.964-11.839 41.834-20.705 14.225-3.162 24.644-10.029 28.035-20.1 1.225-3.667 1.378-7.53.689-11.449-.145 1.478-.406 2.932-.888 4.356-6.293 18.745-38.535 25.65-71.986 15.376-33.433-10.27-59.053-33.18-52.733-51.94 4.559-13.585 26.343-21.486 48.736-20.609-32.717-5.543-61.055 2.347-67.091 20.307-7.082 21.096 19.219 48.036 58.788 60.182 6.737 2.063 9.604 2.986 16.1 3.955-53.67 12.44-112.562-18.133-131.598-65.912-12.288-30.837-1.466-59.267 20.284-81.576 15.53 9.788 32.805 12.265 45.544 5.497 2.768-1.474 5.171-3.357 7.292-5.512a28.27 28.27 0 01-5.933 3.265c-19.082 7.629-45.425-5.003-59.451-29.107-14.642-25.164-10.423-53.188 10.102-61.613 10.986-4.505 24.146-2.24 36.074 4.865-17.022-13.528-37.685-18.16-52.878-9.363-21.773 12.575-21.433 46.233-1.317 72.906a78.89 78.89 0 0016.858 16.544c-18.159 12.218-31.564 28.36-39.002 46.244-11.284-10.006-12.505-11.648-19.732-17.489 4.907 34.274-50.827 93.208-94.387 2.626-10.041 12.705-9.512 60.913 6.546 97.867 14.201 32.625 37.279 60.591 24.016 73.671-11.824 11.656-45.827-6.316-63.298-18.944 5.631 118.465 164.56 105.312 172.687 149.685 3.782 20.64-59.784 25.823-70.486 50.704 10.898-5.888 33.934-6.025 54.096 2.006 22.798 9.072 52.419 9.057 67.596 10.259 20 1.577-6.733 19.912-6.733 19.912s48.874-6.393 73.633-14.975a263.626 263.626 0 0032.288-13.719c-3.261 22.209-9.485 53.322-17.75 82.544-7.851 27.76-30.01 56.109-33.789 70.64-3.755 14.523.222 23.135 7.538 27.828 7.529 4.846 11.303 20.893 18.821 18.167 10.041-3.628 22.496-44.027 32.529-96.064 8.031-41.593 11.238-84.649 12.203-105.871 0 0 28.387 12.51 62.456 19.897 8.398 1.83 21.022 5.091 35.216 7.556 21.33 16.177 40.285 26.014 67.187 34.068-30.013-22.019-43.8-37.307-72.211-71.705z"/><path d="M466.551 291.339a142.086 142.086 0 00-6.144-.215c-3.078-4.536-7.621-7.238-9.792-6.947 1.975 1.715 4.038 4.149 5.906 7.043-14.06.368-26.049 3.085-33.547 7.622 9.394-2.875 21.761-4.295 35.603-3.974 1.906 3.66 3.196 7.189 3.602 10.033 1.435-1.271 1.925-5.42.298-9.899 2.132.096 4.28.226 6.469.406 1.994 3.759 3.319 7.403 3.744 10.324 1.432-1.282 1.941-5.432.298-9.91.992.104 1.972.176 2.975.298 1.267.165 2.5.368 3.751.547 2.216 3.985 3.602 7.87 4.062 10.967 1.481-1.306 1.963-5.688.126-10.354 2.48.425 4.918.881 7.296 1.386 2.109 3.901 3.472 7.69 3.912 10.703 1.401-1.248 1.895-5.306.349-9.704 12.552 3.016 23.446 7.177 31.461 11.958-6.752-6.672-18.887-12.586-33.834-16.356-3.066-4.341-7.415-6.909-9.524-6.637 1.611 1.42 3.288 3.36 4.88 5.615a126.168 126.168 0 00-7.139-1.328c-3.028-3.961-7.07-6.293-9.091-6.014 1.558 1.359 3.162 3.204 4.708 5.34-.18-.023-.352-.058-.524-.081-1.937-.234-3.824-.379-5.727-.532-3.058-4.341-7.403-6.928-9.546-6.641 1.811 1.576 3.683 3.762 5.428 6.35zm-41.038-44.829a3.936 3.936 0 01-3.928 3.928 3.938 3.938 0 01-3.935-3.928 3.934 3.934 0 013.935-3.927 3.933 3.933 0 013.928 3.927z"/><path d="M420.774 184.595c3.767 15.146.804 27.173-6.381 35.357-11.464 13.064-4.383 29.915 3.9 37.494-7.285-14.726-6.029-29.632 3.024-36.617 8.008-.613 14.37 2.458 14.37 2.458s1.915-19.239-14.913-38.692z"/></svg>