<svg xmlns="http://www.w3.org/2000/svg" viewBox="0 0 500 500"><path fill="#E82042" d="M465.8 153L250 26.1 34.2 153S30.3 365.3 250 471.9C469.7 365.3 465.8 153 465.8 153m-41.3 114.7c-14.6 36.3-35.3 69.9-61.1 99.3-31.9 35.8-70.4 65.2-113.4 86.6-43-21.4-81.5-50.8-113.4-86.6-50-57.1-80-129-85.6-204.7L250 45.1l199 117.1c-2.6 36.3-10.9 71.9-24.5 105.5M212.2 148.4l-22.3-9.9 9.8 79-48.2-28.8-1.4 21.5-47.6.4 16.4 53.5-17.7 11.9 90.4 52.3-6.9 28.2 57-10.4-1.4 55.2h18.6l-1.5-55.2 57 10.4-6.9-28.2L398 276l-17.8-11.9 16.4-53.5-47.6-.4-1.3-21.5-48 28.8 9.8-79-22.3 9.9-37.6-56.8-37.4 56.8zm52.6 108.3h-8.9v-4.5h-11.3v36.4h11.3V275h-5.4v-8.9h14.3v26.1l-6.2 5.4h-16.8l-6.1-5.4V249l6.2-5.5h16.7l6.2 5.5v7.7zm-89.2 8.5l2.5 23.9-9.2-2.5-2.8-24.2-3.7-1-6.2 21.8-8.6-2.4 14.5-52.3 22.5 6.2 4.5 6.9-5.2 19-8.3 4.6zm21.3 28.4l-5.4-6.2 6.8-48.3 8.9 1.2-6.3 44.9 11.5 1.6 6.4-44.9 8.9 1.2-6.8 48.3-7 4.5-17-2.3zm117.4-58.5l11.5 17.4 1.3 1.9 1.2-23.3 8.9-2.6-2.5 36.2 5.5 19.5-8.6 2.5-5.5-19.4-21.1-29.8 9.3-2.4zm-19 5l6.8 4.5 2.1 16.4-3.5 5.5 4.8 4.5 2.1 16.5-5.4 6.2-22.3 2.9-7-53.6 22.4-2.9zm-10.7 24.2l-1.7-13.6 10.9-1.7 1.7 13.6-10.9 1.7zm1.1 8.9l10.9-1.4 1.7 13.6-10.9 1.4-1.7-13.6zm-117.2-33.8l11.2 3.1-3.7 13.4-11.2-3.1 3.7-13.4z"/></svg>