<svg xmlns="http://www.w3.org/2000/svg" width="117" height="177" viewBox="-0.282 -0.504 117 177"><path fill-rule="evenodd" clip-rule="evenodd" fill="#25292A" d="M92.324 142.213c0-1.656 1.449-2.898 3.105-2.898s2.898 1.242 2.898 2.898-1.242 3.105-2.898 3.105-3.105-1.449-3.105-3.105zm.621 0c0 1.449 1.035 2.484 2.484 2.484 1.242 0 2.484-1.035 2.484-2.484s-1.242-2.484-2.484-2.484c-1.449 0-2.484 1.035-2.484 2.484zm3.313 1.656l-.828-1.449h-.621v1.449h-.621v-3.313h1.449c.621 0 1.242.207 1.242 1.035 0 .621-.621.828-1.035.828l.828 1.449h-.414v.001zm-1.449-1.863h.414c.414 0 1.035 0 1.035-.414s-.207-.414-.621-.414h-.828v.828zM14.49 159.395v-12.006h8.28v2.069c-.621-.621-2.484-.621-3.312-.621h-2.07v3.313h4.14v1.863c-.207-.414-2.07-.414-2.691-.414h-1.449v4.14h2.484c3.105 0 4.14-.828 4.14-.828l-.828 2.484H14.49zm19.666-1.864l-6.625-7.038v8.901h-2.898v-.207c1.035-.414 1.035-1.242 1.035-2.07v-9.729h2.897c0 .206.208.413.208.621l.414.206 6.832 7.453v-8.28h2.898v.206c-1.035.415-1.035 1.242-1.035 2.07v10.144c-1.656-.62-2.691-1.035-3.726-2.277zm5.382-4.139c0-3.727 3.312-6.21 7.866-6.21 1.449 0 3.105.413 4.14.62v2.07h-.207c-.621-.828-3.312-1.449-4.347-1.449-2.898 0-4.14 2.691-4.14 4.762 0 2.276 1.242 5.175 4.347 5.175.828 0 1.449 0 2.277-.207v-2.898c0-.827 0-1.655-.828-1.862h3.312v5.796c-1.656.207-3.105.414-4.761.414-4.76-.001-7.659-2.693-7.659-6.211zm14.49 6.003v-12.006h3.934v.206c-1.035.207-.828 1.656-.828 2.484v7.866h2.69c2.484 0 3.52-1.035 3.52-1.035h.207l-1.035 2.484h-8.488v.001zm19.666 0l-1.863-4.554H67.07l-1.035 2.483c-.414 1.035-.621 1.656.414 1.863v.207h-3.313l4.555-10.144c.413-.62.827-1.449-.207-1.656v-.206h4.347l4.141 9.314c.413 1.035.827 2.07 1.862 2.484v.207h-4.14v.002zm-6.21-5.796h3.933l-1.863-4.555-2.07 4.555zm20.287 3.932l-6.624-7.038v8.901h-2.898v-.207c1.035-.414 1.035-1.242 1.035-2.07v-9.729h2.898c0 .206.207.413.207.621l.414.206 6.831 7.453v-8.28h2.69v.206c-.827.415-.827 1.242-.827 2.07v10.144c-1.656-.62-2.691-1.035-3.726-2.277zm6.417 1.864v-12.006h4.969c4.554 0 7.659 2.276 7.659 6.003 0 3.519-3.313 6.003-7.866 6.003h-4.762zm4.761-10.558l-1.863.207v8.901h1.449c3.104 0 5.175-1.449 5.175-4.347 0-2.898-1.449-4.761-4.761-4.761zM38.71 175.541c-1.035 0-1.656-.207-2.277-1.035l-2.277-2.691-2.484-2.483v3.519c0 .828 0 2.277 1.035 2.484v.207h-3.933v-12.007h5.175c2.484 0 4.761 1.242 4.761 3.105s-1.656 2.691-3.105 3.105l2.691 3.104c.828 1.035 1.863 1.863 2.898 2.691H38.71v.001zm-7.038-6.417c1.656-.207 3.933-.828 3.933-2.484 0-1.242-1.242-1.863-2.484-1.863h-1.449v4.347zm10.557 5.382c-1.035-1.035-1.035-2.277-1.035-3.519v-7.453h2.898v7.453c0 2.276 1.035 3.519 3.105 3.519 1.035 0 2.07-.414 2.898-1.242.414-.621.414-1.035.414-1.655v-8.074h3.519l.207.207c-1.035.208-1.035 1.449-1.035 2.277v7.038c0 .828 0 2.07 1.035 2.277v.207h-3.726v-1.242c-1.035 1.035-2.484 1.449-3.726 1.449-1.656 0-3.312 0-4.554-1.242zm13.456-4.968c0-3.727 3.105-6.21 7.659-6.21 1.449 0 3.105.413 4.141.621v2.069c-.829-.828-3.313-1.449-4.555-1.449-2.897 0-4.14 2.691-4.14 4.762 0 2.277 1.448 5.175 4.347 5.175.828 0 1.449 0 2.277-.207V171.4c0-.827 0-1.655-.828-1.862v-.207h3.312v6.003c-1.448.207-3.104.414-4.554.414-4.968 0-7.659-2.691-7.659-6.21zm17.802 6.003h-3.105v-12.007h4.762c2.69 0 4.761.828 4.761 2.691 0 1.242-1.035 1.863-2.277 2.277 1.863.414 3.52 1.656 3.52 3.312 0 1.242-1.035 2.691-2.898 3.313-1.242.414-2.897.414-4.14.414h-.623zm-.207-1.449h1.656c1.655 0 3.104-.621 3.104-2.277 0-1.862-1.863-2.276-3.519-2.276H73.28v4.553zm0-9.316v3.52h.621c1.242 0 2.897-.207 2.897-1.863 0-1.242-1.035-1.656-2.276-1.656H73.28v-.001zm12.006 10.765v-5.175l-4.554-6.832h3.52l3.104 4.762 2.277-2.898c.207-.414.621-1.242-.414-1.656v-.207h3.933l-4.968 6.832v2.69c0 1.242 0 1.656 1.035 2.277v.207h-3.933z"/><path fill-rule="evenodd" clip-rule="evenodd" fill="#FFF" d="M39.745 146.146c-.414-1.242-1.035-2.898-1.863-3.727-1.449-1.863-2.691-3.519-2.898-4.14 0 0-.207.828-.414 1.034-.414.414-.414.828-1.035.208-.621-.414-3.105-3.105-3.52-7.039 0-.414 0-2.069-.207-1.862-.414.207-1.449 1.242-1.656.207-.414-1.035-1.035-4.348.207-7.245 1.035-2.07 1.449-2.898 1.863-4.141 0 0 .621-2.07-.828-2.277-1.035-.207-4.554 2.484-3.934 2.07-1.863 1.449-3.312 2.691-7.659 7.659-2.484 2.898-5.382.207-5.382.207s-2.484-2.484-4.968-4.14c-2.484-1.449-7.245-3.105-7.452-5.176 0-1.656 1.656-2.07 4.761-1.656 3.105.415 4.761.828 9.108-.621 3.105-1.034 4.761-1.862 5.175-3.312.207-1.035-.207-4.554 1.449-5.175 1.035-.414 1.656 0 2.484.827.621.414.828 1.035 1.656 1.449.414.414.621.828 1.656.621 1.035-.414 8.073-4.761 8.488-4.968 0 0 .621-.828-.828-1.035-2.484 0-6.21 1.449-11.386.414-2.07-.414-4.14-1.242-6.417-2.691-.621-.207-5.175-3.312-4.554-4.968.207-1.035 1.449-.828 1.035-1.449-1.449-1.449-2.691-3.313-2.898-5.796 0-.828.207-2.277 1.449-2.07 0 0-1.449-2.691-1.863-3.933-.207-.828 0-1.863.828-2.07 0 0-3.105-5.382-2.07-8.487.414-.828 2.484-.207 3.312.414-1.242-1.863-1.656-6.832.621-10.351s7.038-5.175 7.038-5.175-3.519.414-7.038-1.242c-4.968-2.277-4.761-8.901-4.347-11.385.414-2.691 1.863-5.175 4.347-8.074.621-.828 1.242-1.656 1.656-2.484.621-1.035-.414-3.519-1.449-5.175-1.242-1.863-2.484-4.554-1.863-7.866.621-4.347 4.761-7.452 9.936-8.487 5.175-1.035 12.627 2.277 12.627 2.277s-1.242-1.863-1.656-3.933c-.414-2.484 0-4.968 1.656-6.831 2.07-2.484 7.452-3.312 14.697-1.035 7.038 2.07 8.073.621 10.972-.828C60.859 1.449 63.551 0 66.655 0c4.348 0 6.211 2.484 7.246 4.761 1.242 3.726.207 9.729.207 9.729s.621-2.691 2.897-4.968c2.484-2.484 4.555-3.105 6.625-3.312 3.312 0 4.761 1.242 6.417 3.312 1.449 1.863 1.863 5.796 3.519 8.074 1.863 2.277 3.313 2.484 6.832 3.726 3.726 1.035 6.21 1.863 7.452 4.968 1.448 3.726-2.07 6.831-1.863 9.108.207 2.07 4.554 4.347 3.933 8.073-1.035 5.382-7.038 7.038-7.038 7.038s6.624-1.035 10.351 1.449c3.519 2.277 3.105 6.625 2.69 8.487-1.034 4.347-6.003 7.866-6.624 9.315-.828 1.656-1.241 2.898-.414 5.175.828 2.484.621 4.968-.621 6.831-1.241 1.863-5.382 2.898-7.038 4.348-1.448 1.035-2.069 4.761-3.312 6.003-.621.827-1.656 1.448-3.105 1.862 4.554 1.449 9.729 4.348 13.662 9.937.621.621 1.242 2.07-.207 2.691-.206 0-.827 0-1.862-.414 0 0 3.726 4.761 3.933 8.693 0 1.036-.621 1.863-1.449 1.863-.621 0-1.655-.621-1.655-.621s2.069 3.105 1.449 10.144c-.415 3.105-2.277 9.937-3.52 3.934-.414-1.449-.828-4.762-3.934-7.039-2.483-1.655-3.933-1.655-4.968-1.655 0 0 .828 2.07-.414 2.483-.621.208-3.313-.413-4.761-1.241-4.555-2.07-5.383-2.898-7.866-5.176 0 0-.414 1.449-1.242 1.656 0 0-2.07.828-3.52-3.105-1.035-2.897-2.483-10.764-5.589-13.248-4.141-3.519-7.866-3.519-10.558-3.104-2.07.413-2.484.413-5.175 1.241 0 0 4.554-.621 9.108 1.449 4.14 1.863 7.038 5.589 7.245 7.038.621 2.277-.414 1.863-1.449 2.07-1.035 0 .828.828 1.863 1.863 1.035 1.242 2.07 2.276 2.897 4.554.828 2.691 0 3.105-1.655 2.691-.621-.207 1.241 2.69 1.448 3.933.621 3.105.621 4.141.207 4.762-.621.621-1.655.207-2.069.828s.207 2.69.828 3.933c1.241 2.898 3.726 4.762 3.933 5.383.414 2.069-5.589.413-7.452-.414-3.726-1.863-5.175-2.898-7.866-6.418 0 0-.414 1.242-1.035 1.449s-1.656-.621-2.691-1.242c-.828-.828-1.448-1.655-2.276-2.897 0 0-.828.621-1.449.828-1.449.414-2.691-1.035-3.313-2.484l-1.035-2.484c.207 2.277 0 3.934-.207 4.762-.207.621-.621.621-1.035.413-.414-.413-.621 0-.621.829 0 .62-.828 7.865-4.14 10.971-.621.621-1.242 0-2.07-.621 0 0-2.484 4.761-3.519 5.176h-.414c-.414-.001-.414-.416-.621-1.244zm1.863-1.035c.414-1.035 2.898-5.797 2.898-5.797s.207 0 .207.208c.414.206.621.413.828.413h.622c0-.207.207-.207.207-.207 3.312-3.312 3.519-9.729 3.519-10.557v-.621h.208l.207.207h.415c.207 0 .414-.207.414-.621s.207-1.035.207-2.07c0-1.449-.207-3.726-1.449-6.003-2.277-5.176-6.21-5.796-11.385-6.003-5.796-.207-6.003-1.242-6.003-1.242 4.554-2.898 13.869-8.28 14.697-8.694s1.242-.621 2.691-.207c1.035.414 2.484 1.449 2.691 2.691.414 1.241.414 3.312-1.035 6.003-1.449 2.484-.828 5.382-.621 6.624.207.414.414.621.414.621.828.207 1.242.207 1.242.207-.414 4.141 2.898 8.28 3.519 8.694.414.621.828.414 1.449.207.414-.207.621-.414.621-.414.828 1.242 3.104 2.897 3.726 3.313.828.206.828.206 1.449-.208.414-.413.828-.621.828-.621 3.726 5.176 9.937 6.625 11.592 6.832.621.207.828-.207.621-.828v-.207h-.207c-.414-.828-1.448-1.863-1.862-3.934-.207-1.242-.414-2.069-.207-2.897 0-1.449.414-2.07.828-2.277s.621-.414.621-1.035v-.414c-.207-3.105-1.242-5.796-1.656-6.624-.414-.414-.207-.621 0-.621h1.035a.445.445 0 00.414-.414v-.621c-.621-2.897-3.52-5.796-4.555-6.624-.414-.414-.621-.621-.621-.828s.414-.207.828-.207c.621-.207 1.035-.207 1.035-.621 0-.207-.207-.414-.207-.828-.621-1.448-2.484-4.347-6.831-6.21-.207-.207-.621-.414-1.035-.621-1.863-.414-3.933-.621-5.796-.828h-1.242c-2.07 0-3.726.207-3.726.207 1.656-1.035 5.796-2.69 8.694-3.312 3.727-1.035 7.866 0 10.558 2.069 3.312 2.277 4.761 9.729 5.796 12.835 1.449 3.933 3.727 3.933 3.727 3.933.828-.207 1.035-1.242 1.035-1.242 3.104 3.313 8.901 5.176 10.971 5.59.828.207 1.242.207 1.242-.621 0-.621.207-.621.207-.621 1.035 0 2.691.207 5.796 1.656 3.105 1.655 4.348 3.933 4.762 5.175.207.621.414.828.621.621.414 0 .621-.414.621-.828.207-1.242.207-2.483.207-3.52 0-4.968-1.242-8.693-1.242-8.693s1.035.207 1.656.207c.62 0 .62-.207.62-.621v-.414c-.62-4.555-3.312-8.694-3.312-8.694h.828c.414 0 .414 0 .621-.207v-.207c0-.414-.414-1.242-.621-1.449-7.866-9.729-17.389-9.937-21.115-9.937-3.933 0-7.245.621-11.799 1.656-.828.207-1.449.207-2.07.414H69.35c-2.276 0-3.726-.414-4.968-1.242-2.484-1.449-3.313-4.968-3.313-4.968-5.382 6.21-11.799 4.347-11.799 4.347-3.105 4.555-9.315 8.901-9.315 8.901-.828-1.449-.621-4.14-.414-5.589s0-4.141-.621-6.417c-1.035-3.313-4.347-6.832-6.417-8.073-3.105-2.07-8.487-3.52-12.006-3.727-2.691-.207-4.347-.621-6.003-1.242-2.277-.828-3.312-1.863-3.933-2.484s-1.449-.207-1.449.414c.414 2.898 2.484 6.417 2.484 6.417-.621-.208-1.035.414-.828 1.035.621 3.105 1.863 4.554 1.863 4.554-1.242-.207-1.242.828-1.242 1.242 0 3.312 2.277 5.589 2.691 6.003.621.621.414.828 0 .828-1.242.621-1.035 1.242-.621 1.656.828 1.035 4.347 3.726 6.21 4.554 4.761 2.07 10.764 1.863 13.249 1.656 2.691-.207 4.554.828 4.554.828-.414.207-9.315 6.003-10.143 6.417-1.035.414-1.656.207-2.277 0-1.242-.828-2.691-2.277-3.312-2.897-.621-.621-1.035-.208-1.035.413 0 .828-.207 3.727-.207 4.555.207.828-.414 1.035-.621 1.242-9.522 4.761-14.491 2.898-15.939 2.898-1.449-.208-2.484-.208-2.898.62-.207.828.621 1.656 3.934 2.898 3.726 1.656 6.417 3.52 8.694 4.968 1.656 1.035 2.484.207 3.313-.621 4.968-4.968 10.35-8.28 11.799-9.107.414-.207.828 0 .828 0 1.242.413 1.656 1.655 1.656 1.655.621 1.656-.414 2.484-1.449 4.555-1.242 2.897-1.449 5.175-1.242 6.21.415 1.035 1.036.621 1.449.414.208-.207.414 0 .414.414.207 4.347 2.484 7.245 3.105 7.866.828.621.828.621 1.242.207.414-.414.828-1.242.828-1.242.207.621 1.242 2.898 2.484 4.554 1.449 1.449 2.07 3.313 2.484 4.969 0 .207.207.414.207.621.201.206.408.206.822-.415zm2.898-37.882c-1.449.828-4.347 2.484-8.901 5.59 0 0 1.242.828 4.347 1.035 5.382.207 7.866 1.449 9.729 4.347-.207-1.242-.207-2.691.207-3.933 1.242-2.691 2.484-4.348 2.277-5.59-.207-1.241-1.863-2.276-2.898-2.276-.414-.207-.828-.207-1.035-.207a7.141 7.141 0 00-3.726 1.034zM40.159 97.5c-.207 1.448-.207 2.277 0 3.726 0 0 4.14-2.483 6.21-7.452-2.07-.207-4.554-1.242-6.417-3.312.621 2.069.414 5.589.207 7.038zM11.385 73.28s0-.207 0 0z"/><path fill-rule="evenodd" clip-rule="evenodd" fill="#009E6A" d="M40.78 145.525c.207.207.414.207.828-.414-.208.414-.414.621-.621.621 0 0-.207 0-.207-.207zm-.207-.621c-.414-1.656-1.035-3.52-2.484-4.969-1.242-1.655-2.277-3.933-2.484-4.554 0 0-.414.828-.828 1.242-.415.414-.415.414-1.242-.207-.621-.621-2.898-3.52-3.105-7.866 0-.414-.207-.621-.414-.414-.414.207-1.035.621-1.449-.414-.207-1.035 0-3.313 1.242-6.21 1.035-2.07 2.07-2.898 1.449-4.555 0 0-.414-1.242-1.656-1.655 0 0-.415-.207-.828 0-1.449.827-6.832 4.14-11.799 9.107-.828.828-1.656 1.656-3.313.621-2.277-1.448-4.968-3.312-8.694-4.968-3.313-1.242-4.14-2.07-3.934-2.898.415-.828 1.449-.828 2.898-.62 1.449 0 6.417 1.862 15.939-2.898.207-.207.828-.414.621-1.242 0-.828.207-3.727.207-4.555 0-.621.414-1.034 1.035-.413.621.62 2.07 2.069 3.312 2.897.621.207 1.242.414 2.277 0 .828-.414 9.729-6.21 10.143-6.417 0 0-1.863-1.035-4.554-.828-2.484.207-8.487.414-13.249-1.656-1.863-.828-5.382-3.519-6.21-4.554-.414-.414-.621-1.035.621-1.656.414 0 .621-.207 0-.828-.414-.414-2.691-2.691-2.691-6.003 0-.414 0-1.449 1.242-1.242 0 0-1.242-1.449-1.863-4.554-.207-.621.207-1.242.828-1.035 0 0-2.07-3.52-2.484-6.417 0-.621.828-1.035 1.449-.414s1.656 1.656 3.933 2.484c1.656.621 3.312 1.035 6.003 1.242 3.519.207 8.901 1.656 12.006 3.727 2.07 1.242 5.382 4.761 6.417 8.073.621 2.276.828 4.968.621 6.417s-.414 4.14.414 5.589c0 0 6.21-4.347 9.315-8.901 0 0 6.417 1.863 11.799-4.347 0 0 .828 3.519 3.313 4.968 1.242.828 2.691 1.242 4.968 1.242h-.414s4.969 1.242 6.004 1.449c2.897.828 8.9 2.484 15.111 8.28 6.003 5.796 13.041 14.697 13.041 14.697 1.656 2.898 3.52 7.866 3.52 7.866-.207.207-.414 0-.621-.621-.414-1.242-1.656-3.52-4.762-5.175-3.104-1.449-4.761-1.656-5.796-1.656 0 0-.207 0-.207.621 0 .828-.414.828-1.242.621-2.069-.414-7.866-2.277-10.971-5.59 0 0-.207 1.035-1.035 1.242 0 0-2.277 0-3.727-3.933-1.035-3.105-2.484-10.558-5.796-12.835-2.691-2.069-6.831-3.104-10.558-2.069-2.897.621-7.038 2.276-8.694 3.312 0 0 1.656-.207 3.726-.207-2.07 0-3.726.207-3.726.207-.828.414-.414 1.449.207 2.07 0 0 3.105 3.105 4.762 7.659 1.035 2.898 2.484 11.593 6.003 16.146 3.313 4.347 6.003 5.796 6.003 5.796 3.105 3.52 6.21 4.762 6.21 4.762.207-.207.207-.414 0-.828.207.621 0 1.035-.621.828-1.655-.207-7.866-1.656-11.592-6.832 0 0-.414.208-.828.621-.621.414-.621.414-1.449.208-.621-.415-2.897-2.07-3.726-3.313 0 0-.207.207-.621.414-.621.207-1.035.414-1.449-.207-.621-.414-3.933-4.554-3.519-8.694 0 0-.414 0-1.242-.207 0 0-.207-.207-.414-.621-.207-1.242-.828-4.14.621-6.624 1.449-2.691 1.449-4.762 1.035-6.003-.207-1.242-1.656-2.277-2.691-2.691-1.449-.414-1.863-.207-2.691.207s-10.143 5.796-14.697 8.694c-.207 1.242.621 1.656.621 1.656s4.968 3.519 7.66 14.697c.828 3.312.828 10.764.828 10.764-.621 2.277-.828 5.59-.828 5.59.001-.206-.206-.413-.206-.62zm4.969-4.968h.207-.207zm.621 0h-.415.415zm-1.657-.622s.207 0 .207.208c0-.208-.207-.208-.207-.208zm31.879-2.276zm0-.207zm0 0zm-.207 0c-.414-.828-1.448-1.863-1.862-3.934-.207-1.242-.414-2.069-.207-2.897-.207.828 0 1.655.207 2.897.413 2.071 1.448 3.106 1.862 3.934zm-14.076-16.353c2.691 7.245 8.073 12.627 8.073 12.627s-5.382-5.175-8.073-12.627zm-20.908 5.588c-.207-.207-.207-.207-.207-.414.414 1.656.828 3.313.828 4.969 0-1.449-.414-2.898-.621-4.555zm9.315 2.692h.208-.208zm-.621-.207zm25.67-2.278c-.207-3.105-1.242-5.796-1.656-6.624-.414-.414-.207-.621 0-.621-.207 0-.414.207 0 .621.413.829 1.449 3.519 1.656 6.624zm-1.036-7.245zm-.414 0zm-40.987-4.553s1.863.207 3.934 2.69c-2.071-2.277-3.934-2.69-3.934-2.69zm20.286-10.972s4.969 2.691 7.659 13.662c-2.69-10.971-7.659-13.662-7.659-13.662zm18.424 5.382c-.621-1.448-2.484-4.347-6.831-6.21-.207-.207-.621-.414-1.035-.621.414.207.828.414 1.035.621 4.347 1.863 6.21 4.762 6.831 6.21 0 .414.207.621.207.828 0-.207-.207-.414-.207-.828zm33.328-3.933h.828-.828zm-48.025-3.726h1.035-1.035zm12.42-6.003zm.414 0zm.828 0h-.621.621z"/><path fill-rule="evenodd" clip-rule="evenodd" fill="#FFF" d="M90.048 104.952c-6.211-5.796-12.214-7.452-15.111-8.28 7.659 1.242 12.834 4.14 17.595 8.901 5.383 5.175 7.867 9.729 10.558 14.076-.001 0-7.039-8.901-13.042-14.697zm-49.268 24.22c-2.691-11.179-7.66-14.697-7.66-14.697s1.863.413 3.934 2.69c1.242 1.449 2.691 4.141 3.933 8.073v.414c0 .207 0 .207.207.414.207 1.656.621 3.105.621 4.555.621 5.175-.207 9.314-.207 9.314s0-7.452-.828-10.763zM11.592 77.213s3.726 6.831 9.936 11.385c6.21 4.347 1.656 1.449 9.937 7.245 5.382 3.52 6.831 4.968 6.831 4.968l-5.175-3.104s-5.175-3.105-10.557-7.038c-7.246-5.175-10.972-13.456-10.972-13.456zm52.58 50.096c-3.519-4.554-4.968-13.248-6.003-16.146-1.656-4.554-4.762-7.659-4.762-7.659s4.969 2.691 7.659 13.662c.207 1.035.621 2.07 1.035 3.313 2.691 7.452 8.073 12.627 8.073 12.627s-2.69-1.451-6.002-5.797z"/><path fill-rule="evenodd" clip-rule="evenodd" fill="#B5282F" d="M68.519 2.691c3.52 1.449 5.383 4.554 5.176 8.694 0 4.554-2.277 8.073-2.898 8.901-.828.828-1.863.828-3.104.207-1.449-.414-3.105-1.242-5.59-1.242-2.277 0-4.554 1.035-6.003 2.484 0 0-3.519-.207-6.003.829-2.484.828-3.313 1.449-3.933 1.863 0 0-2.484-.207-4.762-1.242-2.691-1.449-8.694-5.382-8.694-11.178 0-6.003 5.175-8.073 8.28-7.866 2.484 0 4.554.621 6.831 1.035 2.07.621 3.726.828 4.968.621 1.449-.208 3.519-.621 5.175-1.656 1.242-1.035 3.726-1.863 5.382-2.07 2.07-.208 3.932.206 5.175.62zm13.456 6.003c4.347 0 6.417 2.07 7.866 6.21.621 1.863 1.242 5.175 5.382 6.003 4.968 1.242 7.866 2.691 9.315 5.175 1.449 2.07 1.449 5.175.828 7.038-.621 1.863-1.035 3.105.621 4.762 1.242 1.449 2.276 3.933 1.035 7.038-1.035 3.312-4.348 6.003-10.351 6.417-2.898.207-7.038-.414-6.831-1.863 0-.414.414-.828 1.449-2.07.828-.828 1.241-2.277 1.449-3.519.206-2.07-.621-3.933-2.277-5.796-.828-.828-1.242-1.863-.621-3.519.621-1.656.621-2.691.621-4.761 0-2.484-1.656-5.796-4.348-6.624-3.519-1.035-7.245-.621-10.143 2.07 0 0-2.691-1.863-2.691-5.589s3.727-10.972 8.696-10.972z"/><path fill-rule="evenodd" clip-rule="evenodd" fill="#E52E33" d="M101.847 55.892c1.656 2.484 1.863 7.866-.828 12.006-3.726 6.21-9.521 5.796-9.521 5.796-.828 8.694-8.28 10.558-12.421 10.558-10.972 0-11.385-8.694-11.385-9.729 0-.829-.415-1.036-.828-.621-2.691 2.07-3.934 5.796-4.141 9.108a14.382 14.382 0 001.035 6.417c1.863 2.897 4.347 4.554 10.144 3.104 5.589-1.449 10.764-1.862 15.525-1.242 4.761.829 7.038-.62 7.866-3.104.621-2.277 2.484-4.14 4.968-5.589 6.624-3.519 5.59-8.901 4.969-11.178-.414-2.277 1.034-3.519 2.069-4.554 3.727-4.347 4.555-10.143 2.07-13.249-2.484-3.312-7.245-2.484-9.729-2.07-1.449.207-3.104.828-3.726 1.242 0 0 2.276.414 3.933 3.105zM62.516 75.557c-.207 2.898-1.449 11.799-6.21 14.491-2.07 1.241-6.625 1.862-11.179.207-4.347-1.656-6.624-4.761-7.659-6.003-2.277-2.484-5.175-5.589-12.627-6.624-6.831-1.035-13.042-3.934-11.799-11.593.828-6.417 7.245-8.073 10.764-7.866.414 0 1.449.415 1.656.828.828 1.449 2.898 4.14 5.175 5.589 3.105 1.863 6.831 2.484 10.351 2.484 0 0 1.656 7.245 7.245 9.729 4.761 2.07 9.936 1.242 14.283-1.242zm-38.71-61.894c4.554 0 11.178 2.691 12.213 9.315 0 0-4.554-2.07-7.038 1.035-2.07 2.898-.621 6.21-.207 8.073.621 1.863 1.035 3.519.621 4.968-.414 1.863-1.449 2.898-4.347 4.762-2.691 1.656-3.312 4.347-3.52 6.21-.207 3.312.828 6.831 3.52 8.694 0 0-3.933 1.449-8.073-.207-4.761-1.863-7.245-5.796-7.245-10.558 0-4.968 2.691-7.659 3.726-8.694.828-1.035 1.863-2.691 1.863-4.347 0-1.656-.828-2.898-1.242-3.727-.828-1.449-1.656-3.933-.828-7.452.62-2.484 3.726-8.072 10.557-8.072z"/><path fill-rule="evenodd" clip-rule="evenodd" fill="#E52E33" d="M31.672 27.946c-.828 2.277-.207 3.519.414 5.382.621 1.656 1.242 4.14-1.656 6.624-3.105 2.484-6.21 4.347-6.003 9.315.414 4.968 3.933 11.593 8.487 14.077 3.726 2.07 6.417 2.277 9.108 1.863 0 0 2.484 7.039 7.866 9.316 3.934 1.656 9.936 2.277 15.319-2.277 1.863-1.449 4.14-5.796 3.726-9.729 0 0-6.624.621-13.248-1.656-6.417-2.277-13.042-7.246-15.318-13.249-2.07-5.796-2.898-14.904 3.726-21.735 0 0-2.484-1.656-5.382-1.863-2.692-.208-6.004 1.034-7.039 3.932z"/><path fill-rule="evenodd" clip-rule="evenodd" fill="#B5282F" d="M74.315 28.774c-1.863-3.519-5.59-8.28-12.007-7.867-1.863 0-4.554 1.242-5.382 2.484 0 0-3.105 0-5.175.621-2.898.621-6.003 2.484-7.866 6.003-2.07 3.726-2.898 6.417-2.898 9.937 0 4.968 2.691 11.178 7.452 14.49.828.621 1.035-.207.828-1.449-.208-1.242-1.035-6.831 1.449-12.006 2.897-6.003 8.073-9.729 13.662-11.385 3.313-1.242 7.867-1.242 9.937-.828z"/><path fill-rule="evenodd" clip-rule="evenodd" fill="#E52E33" d="M63.137 31.672c-4.968 2.277-11.799 8.694-12.213 16.768-.414 7.245 2.691 11.592 12.42 12.006s19.252-6.21 19.666-6.417c.413-.415.207-.828-.828-.621-1.035.207-7.866 1.035-11.8.828-3.933 0-8.487-1.242-10.35-4.347-2.277-3.313-2.898-9.109 3.105-18.217z"/><path fill-rule="evenodd" clip-rule="evenodd" fill="#E52E33" d="M78.455 33.949c2.691 3.105 2.277 7.453-.414 12.006-2.69 4.761-6.417 6.003-8.694 5.796-2.483-.207-3.519-.621-4.554-1.035 0 0 4.347-.414 7.038-3.519 1.863-2.277 1.656-5.175.621-7.038-.828-1.242-1.863-2.07-2.691-2.691-1.863-1.035-5.382-1.656-7.452-.828 0 0 3.105-5.382 9.108-5.382 2.898 0 5.175.828 7.038 2.691z"/><path fill-rule="evenodd" clip-rule="evenodd" fill="#E52E33" d="M62.516 37.468c-1.449 1.242-2.277 3.313-2.483 4.969-.208 2.277.621 4.347 2.483 5.382 1.863 1.035 5.176.621 6.624-.828 1.656-1.449 1.656-3.312 1.449-3.933 0-1.035-.828-2.07-2.276-1.656-1.036.207-2.07.207-2.691 0-.829-.208-2.485-.829-3.106-3.934z"/><path fill-rule="evenodd" clip-rule="evenodd" fill="#B5282F" d="M86.114 24.841c2.691 1.449 3.105 4.347 2.277 7.452-.828 3.105-1.242 4.347.828 7.038 1.863 2.691 1.035 6.417 0 8.073-1.242 1.449-3.727 4.347-8.694 4.761s-5.796-.207-5.796-.207 3.519-2.277 6.003-6.625c1.656-2.691 2.484-6.003 1.656-9.108-1.242-4.347-5.797-5.589-7.866-5.589 0 0 1.035-3.933 3.933-5.382 2.899-1.241 6.003-1.241 7.659-.413z"/><path fill-rule="evenodd" clip-rule="evenodd" fill="#E52E33" d="M70.175 60.652c.621 1.657 1.449 3.934 0 7.453-1.449 2.898-1.862 7.866 1.863 11.385 3.52 3.519 9.315 2.691 11.799 1.449 2.898-1.449 3.934-4.14 4.555-7.246.207-1.449 1.035-2.07 2.898-2.07 1.862-.207 5.382-.621 7.866-4.554 1.862-3.105 2.69-7.452.621-10.557-2.07-3.52-7.866-4.347-10.351-4.14-1.449.207-2.484.621-3.52 1.449-.827.829-6.416 6.004-15.731 6.831z"/><path fill-rule="evenodd" clip-rule="evenodd" fill="#00643F" d="M103.089 119.649c-2.69-4.347-5.175-8.901-10.558-14.076-4.761-4.762-9.936-7.659-17.595-8.901-1.035-.207-6.004-1.449-6.004-1.449h2.07c.621-.207 1.242-.207 2.07-.414 4.554-1.035 7.866-1.656 11.799-1.656 3.727 0 13.249.207 21.115 9.937.207.207.828 1.449.621 1.656s-.621.207-1.449.207c0 0 2.691 4.14 3.312 8.694.208.621 0 1.035-.62 1.035-.621 0-1.656-.207-1.656-.207s1.863 5.589 1.035 12.213c0 .414-.207.828-.621.828 0 0-1.863-4.968-3.519-7.867zM40.78 145.525s.207-3.313.828-5.59c0 0 1.449-7.038-.621-14.697-2.898-10.143-7.867-10.764-7.867-10.764s-.828-.414-.621-1.656c0 0 0 1.035 6.003 1.242 5.175.207 9.108.827 11.385 6.003 1.863 3.933 1.242 7.038 1.242 8.073 0 .621-.414.828-.828.621-.414-.207-.414-.207-.414.414 0 .828-.207 7.245-3.519 10.557-.621.621-.828.414-1.863-.414 0 0-2.484 4.762-2.898 5.797-.208.414-.414.621-.621.621l-.206-.207zM9.522 74.522s.621-.415 1.035.207c.621.621 1.656 1.656 3.933 2.484 1.656.621 3.312 1.035 6.003 1.242 3.519.207 8.901 1.656 12.006 3.727 2.07 1.242 5.382 4.761 6.417 8.073.621 2.276.828 4.968.621 6.417s-.414 4.14.414 5.589l-1.656-1.449s-1.449-1.448-6.831-4.968c-7.452-5.175-4.761-3.52-9.937-7.245-1.242-1.035-6.003-4.554-9.936-11.385-.413-.415-1.448-2.278-2.069-2.692zm60.653 58.582s-7.038-7.038-9.108-15.939c-2.69-10.971-7.659-13.662-7.659-13.662-.621-.621-1.035-1.656-.207-2.07 0 0 7.453-.828 11.799 1.242 4.347 1.863 6.21 4.762 6.831 6.21.207 1.035.207 1.242-.828 1.449-1.035 0-1.242.207-.207 1.035s3.934 3.727 4.555 6.624c0 1.035 0 1.035-.828 1.035-.621-.207-1.035 0-.621.621.414.828 1.449 3.519 1.656 6.624 0 1.035 0 1.242-.621 1.449s-1.449 1.449-.621 5.175c.414 2.07 1.448 3.105 1.862 3.934.414.414.414.828.207 1.035 0 0-3.105-1.242-6.21-4.762z"/></svg>