<svg xmlns="http://www.w3.org/2000/svg" width="230" height="300" viewBox="0 0 230 300.002" shape-rendering="geometricPrecision" text-rendering="geometricPrecision" image-rendering="optimizeQuality" fill-rule="evenodd" clip-rule="evenodd"><defs><style>.fil4{fill:#304e35}.fil2{fill:#762432}.fil3{fill:#a71931}.fil1{fill:#fff}</style></defs><g id="Capa_x0020_1"><g id="_269166848"><path id="_196087736" d="M83.501 291.15c.41.411.822.411 1.644-.822-.413.822-.822 1.233-1.234 1.233 0 0-.41 0-.41-.411zm-.412-1.234c-.822-3.29-2.057-6.994-4.936-9.872-2.467-3.29-4.525-7.814-4.935-9.048 0 0-.822 1.645-1.645 2.467-.823.823-.823.823-2.467-.411-1.235-1.234-5.758-6.994-6.17-15.629 0-.823-.41-1.234-.821-.823-.824.412-2.057 1.234-2.88-.822-.412-2.056 0-6.582 2.469-12.339 2.056-4.113 4.112-5.758 2.878-9.05 0 0-.822-2.467-3.29-3.288 0 0-.825-.412-1.646 0-2.88 1.643-13.574 8.225-23.443 18.093-1.645 1.647-3.291 3.292-6.582 1.235-4.525-2.877-9.87-6.58-17.274-9.87-6.582-2.47-8.226-4.113-7.816-5.759.824-1.645 2.878-1.645 5.758-1.232 2.878 0 12.749 3.7 31.668-5.758.412-.412 1.646-.822 1.234-2.468 0-1.644.412-7.404.412-9.05 0-1.233.822-2.055 2.056-.82 1.232 1.231 4.113 4.11 6.58 5.755 1.233.412 2.468.823 4.525 0 1.644-.822 19.33-12.338 20.153-12.749 0 0-3.702-2.056-9.048-1.646-4.936.412-16.864.823-26.325-3.29-3.702-1.646-10.692-6.992-12.339-9.048-.822-.824-1.234-2.057 1.235-3.29.822 0 1.234-.413 0-1.647-.823-.822-5.347-5.346-5.347-11.927 0-.822 0-2.879 2.467-2.468 0 0-2.467-2.88-3.7-9.047-.413-1.234.41-2.468 1.644-2.056 0 0-4.113-6.994-4.935-12.75 0-1.235 1.645-2.057 2.88-.822 1.233 1.233 3.29 3.29 7.813 4.934 3.291 1.235 6.58 2.057 11.929 2.469 6.99.41 17.685 3.29 23.854 7.404 4.112 2.468 10.692 9.46 12.748 16.04 1.235 4.521 1.647 9.87 1.235 12.749-.413 2.88-.822 8.226.822 11.104 0 0 12.339-8.635 18.508-17.684 0 0 12.749 3.702 23.442-8.637 0 0 1.646 6.993 6.584 9.872 2.466 1.644 5.346 2.467 9.87 2.467h-.822s9.872 2.468 11.93 2.88c5.755 1.644 17.682 4.935 30.022 16.45 11.928 11.517 25.911 29.202 25.911 29.202 3.29 5.758 6.994 15.629 6.994 15.629-.412.41-.823 0-1.234-1.234-.823-2.468-3.292-6.994-9.462-10.282-6.168-2.88-9.459-3.29-11.515-3.29 0 0-.412 0-.412 1.234 0 1.644-.822 1.644-2.469 1.233-4.109-.822-15.627-4.525-21.797-11.106 0 0-.41 2.056-2.056 2.467 0 0-4.524 0-7.404-7.814-2.056-6.17-4.935-20.978-11.517-25.5-5.345-4.112-13.572-6.168-20.976-4.112-5.757 1.234-13.983 4.521-17.275 6.58 0 0 3.292-.41 7.403-.41-4.112 0-7.403.41-7.403.41-1.644.823-.822 2.88.412 4.113 0 0 6.17 6.17 9.46 15.217 2.057 5.758 4.936 23.034 11.929 32.08 6.582 8.637 11.927 11.517 11.927 11.517 6.169 6.992 12.339 9.46 12.339 9.46.41-.41.41-.822 0-1.644.41 1.234 0 2.056-1.234 1.644-3.289-.41-15.629-3.29-23.032-13.575 0 0-.822.414-1.645 1.235-1.235.823-1.235.823-2.88.413-1.234-.825-5.755-4.113-7.402-6.582 0 0-.412.41-1.234.822-1.234.41-2.057.822-2.88-.411-1.233-.822-7.813-9.049-6.99-17.275 0 0-.823 0-2.47-.411 0 0-.41-.411-.821-1.233-.413-2.469-1.647-8.227 1.234-13.162 2.878-5.346 2.878-9.46 2.056-11.928-.412-2.467-3.291-4.524-5.348-5.345-2.878-.823-3.7-.412-5.346.41-1.645.824-20.153 11.517-29.2 17.275-.412 2.468 1.234 3.291 1.234 3.291s9.87 6.992 15.218 29.2c1.646 6.58 1.646 21.387 1.646 21.387-1.234 4.525-1.646 11.106-1.646 11.106.002-.408-.41-.82-.41-1.23zm9.872-9.87h.412-.412zm1.234 0h-.825.825zm-3.292-1.236s.411 0 .411.413c0-.413-.411-.413-.411-.413zm63.34-4.522zm0-.412zm0 0zm-.413 0c-.822-1.645-2.877-3.701-3.699-7.816-.411-2.469-.822-4.11-.411-5.756-.412 1.645 0 3.287.411 5.756.82 4.115 2.877 6.172 3.7 7.816zm-27.967-32.49c5.347 14.393 16.04 25.088 16.04 25.088s-10.693-10.282-16.04-25.088zm-41.541 11.102c-.411-.411-.411-.411-.411-.822.822 3.29 1.644 6.582 1.644 9.871 0-2.878-.822-5.758-1.233-9.05zm18.508 5.348h.413-.413zm-1.233-.41zM152.6 252.9c-.413-6.17-2.469-11.517-3.291-13.161-.823-.822-.412-1.235 0-1.235-.412 0-.823.413 0 1.235.82 1.647 2.878 6.99 3.29 13.16v.001zm-2.06-14.396h.002zm-.822 0zm-81.434-9.047s3.7.412 7.815 5.346c-4.115-4.525-7.815-5.346-7.815-5.346zm40.304-21.799s9.873 5.347 15.217 27.145c-5.344-21.798-15.217-27.145-15.217-27.145zm36.606 10.693c-1.234-2.877-4.935-8.636-13.573-12.338-.411-.412-1.233-.823-2.057-1.234.824.41 1.647.822 2.057 1.234 8.637 3.702 12.339 9.46 13.573 12.338 0 .823.412 1.234.412 1.647-.001-.413-.412-.824-.412-1.647zm66.218-7.814h1.645-1.645zm-95.419-7.402h2.056-2.056zm24.676-11.928zm.825 0zm1.644 0h-1.235 1.235z" fill="#017c37"/><path id="_196086512" class="fil1" d="M181.389 210.538c-12.341-11.516-24.268-14.806-30.024-16.452 15.218 2.469 25.5 8.226 34.959 17.686 10.696 10.283 15.63 19.33 20.977 27.968-.002 0-13.985-17.685-25.912-29.202z"/><path id="_196087616" class="fil1" d="M83.501 258.66c-5.348-22.212-15.22-29.202-15.22-29.202s3.7.821 7.817 5.346c2.466 2.878 5.346 8.226 7.813 16.04v.821c0 .41 0 .411.41.823.413 3.291 1.235 6.168 1.235 9.05 1.234 10.282-.41 18.505-.41 18.505s0-14.805-1.646-21.383h.001z"/><path id="_194825568" class="fil1" d="M25.507 155.425s7.403 13.571 19.743 22.62c12.338 8.637 3.29 2.879 19.742 14.395 10.694 6.993 13.573 9.87 13.573 9.87l-10.281-6.167S58 189.973 47.308 182.159c-14.397-10.282-21.8-26.734-21.8-26.734z"/><path id="_196085480" class="fil1" d="M129.976 254.957c-6.992-9.047-9.873-26.322-11.93-32.08-3.289-9.047-9.459-15.218-9.459-15.218s9.872 5.349 15.218 27.146c.41 2.055 1.232 4.113 2.055 6.582 5.347 14.807 16.04 25.09 16.04 25.09s-5.344-2.886-11.924-11.52z"/><path id="_196085144" class="fil2" d="M138.614 7.358c6.993 2.88 10.695 9.049 10.283 17.275 0 9.048-4.524 16.04-5.758 17.685-1.644 1.645-3.7 1.645-6.166.411-2.88-.822-6.17-2.467-11.107-2.467-4.525 0-9.048 2.056-11.928 4.934 0 0-6.992-.41-11.927 1.648-4.936 1.645-6.582 2.88-7.814 3.702 0 0-4.935-.413-9.462-2.469-5.346-2.88-17.272-10.692-17.272-22.21 0-11.926 10.28-16.039 16.45-15.627 4.936 0 9.049 1.233 13.573 2.055 4.113 1.235 7.402 1.646 9.87 1.235 2.88-.414 6.993-1.235 10.284-3.291 2.467-2.056 7.402-3.702 10.692-4.113 4.112-.413 7.812.41 10.282 1.232z"/><path id="_196084808" class="fil2" d="M165.348 19.285c8.636 0 12.749 4.114 15.629 12.34 1.234 3.702 2.468 10.282 10.693 11.927 9.87 2.468 15.629 5.347 18.507 10.282 2.88 4.113 2.88 10.283 1.647 13.983-1.235 3.703-2.057 6.169 1.233 9.462 2.468 2.878 4.522 7.814 2.056 13.983-2.056 6.58-8.639 11.927-20.566 12.75-5.757.411-13.983-.823-13.573-3.703 0-.823.822-1.645 2.88-4.113 1.645-1.646 2.465-4.524 2.88-6.991.408-4.114-1.235-7.816-4.526-11.516-1.645-1.647-2.468-3.703-1.234-6.992 1.234-3.29 1.234-5.347 1.234-9.46 0-4.936-3.29-11.516-8.638-13.16-6.992-2.056-14.396-1.234-20.154 4.113 0 0-5.346-3.703-5.346-11.105 0-7.404 7.406-21.8 17.278-21.8z"/><path id="_196084448" class="fil3" d="M204.831 113.062c3.29 4.935 3.703 15.629-1.644 23.854-7.404 12.339-18.918 11.517-18.918 11.517-1.645 17.272-16.452 20.976-24.68 20.976-21.799 0-22.619-17.273-22.619-19.33 0-1.646-.824-2.057-1.645-1.234-5.347 4.114-7.816 11.517-8.228 18.097-.412 6.169 1.235 10.694 2.057 12.75 3.701 5.755 8.636 9.048 20.154 6.167 11.105-2.88 21.388-3.7 30.846-2.468 9.46 1.647 13.983-1.232 15.629-6.168 1.234-4.524 4.934-8.225 9.871-11.104 13.16-6.993 11.108-17.685 9.873-22.21-.822-4.525 2.054-6.991 4.11-9.047 7.405-8.637 9.05-20.154 4.113-26.325-4.934-6.58-14.394-4.935-19.33-4.113-2.878.412-6.168 1.646-7.403 2.468 0 .001 4.524.823 7.814 6.17z"/><path id="_196084112" class="fil3" d="M126.686 152.133c-.412 5.758-2.88 23.443-12.34 28.792-4.112 2.466-13.163 3.7-22.211.412-8.635-3.292-13.16-9.46-15.215-11.93-4.526-4.933-10.283-11.104-25.09-13.159-13.571-2.055-25.912-7.815-23.442-23.033 1.646-12.75 14.395-16.04 21.388-15.63.822 0 2.878.825 3.29 1.647 1.644 2.878 5.758 8.225 10.282 11.105 6.169 3.701 13.572 4.935 20.565 4.935 0 0 3.292 14.394 14.396 19.33 9.458 4.111 19.74 2.467 28.377-2.469z"/><path id="_196083776" class="fil3" d="M49.776 29.16c9.047 0 22.208 5.345 24.265 18.506 0 0-9.048-4.113-13.983 2.056-4.114 5.758-1.234 12.34-.41 16.04 1.232 3.702 2.055 6.992 1.232 9.872-.822 3.701-2.88 5.758-8.636 9.46-5.347 3.292-6.58 8.637-6.993 12.34-.413 6.58 1.644 13.572 6.993 17.273 0 0-7.814 2.88-16.04-.41-9.46-3.704-14.395-11.517-14.395-20.979 0-9.871 5.347-15.217 7.403-17.273 1.644-2.057 3.702-5.347 3.702-8.638 0-3.29-1.647-5.758-2.469-7.404-1.645-2.879-3.29-7.814-1.645-14.805 1.232-4.936 7.403-16.039 20.977-16.039h-.002z"/><path id="_196083440" class="fil3" d="M65.404 57.537c-1.645 4.526-.412 6.992.822 10.695 1.234 3.289 2.467 8.224-3.29 13.16-6.17 4.934-12.34 8.637-11.927 18.508.822 9.87 7.814 23.032 16.861 27.968 7.402 4.113 12.749 4.525 18.097 3.7 0 0 4.935 13.987 15.627 18.511 7.817 3.292 19.743 4.525 30.438-4.525 3.701-2.878 8.226-11.514 7.404-19.329 0 0-13.161 1.233-26.322-3.29-12.752-4.526-25.914-14.398-30.436-26.325-4.113-11.517-5.758-29.613 7.403-43.185 0 0-4.935-3.29-10.694-3.7-5.347-.414-11.928 2.054-13.984 7.812h.001z"/><path id="_196083104" class="fil2" d="M150.129 59.18c-3.7-6.99-11.106-16.45-23.856-15.629-3.7 0-9.047 2.469-10.693 4.935 0 0-6.169 0-10.282 1.234-5.758 1.234-11.927 4.935-15.628 11.927-4.114 7.403-5.758 12.749-5.758 19.743 0 9.872 5.346 22.21 14.806 28.791 1.645 1.234 2.056-.412 1.645-2.88-.414-2.467-2.056-13.573 2.88-23.854 5.755-11.927 16.039-19.33 27.144-22.621 6.582-2.467 15.63-2.467 19.743-1.644l-.001-.001z"/><path id="_196082768" class="fil3" d="M127.921 64.94c-9.873 4.525-23.444 17.275-24.266 33.314-.822 14.396 5.346 23.034 24.676 23.856 19.33.822 38.251-12.339 39.073-12.75.822-.824.413-1.645-1.645-1.234-2.055.412-15.627 2.056-23.445 1.645-7.814 0-16.863-2.467-20.563-8.636-4.525-6.582-5.758-18.1 6.169-36.196h.001z"/><path id="_196082432" class="fil3" d="M158.354 69.465c5.347 6.169 4.525 14.806-.822 23.853-5.343 9.46-12.749 11.927-17.274 11.516-4.933-.412-6.992-1.234-9.048-2.056 0 0 8.637-.822 13.983-6.991 3.703-4.526 3.29-10.283 1.234-13.983-1.645-2.469-3.701-4.114-5.345-5.348-3.703-2.057-10.695-3.29-14.808-1.645 0 0 6.169-10.693 18.096-10.693 5.759 0 10.284 1.644 13.984 5.347z"/><path id="_196082096" class="fil3" d="M126.686 76.456c-2.88 2.467-4.525 6.582-4.934 9.871-.412 4.525 1.235 8.638 4.934 10.695 3.702 2.055 10.284 1.232 13.161-1.646 3.29-2.88 3.29-6.58 2.878-7.814 0-2.057-1.644-4.113-4.52-3.29-2.06.411-4.113.411-5.348 0-1.647-.413-4.937-1.646-6.171-7.816z"/><path id="_196081760" class="fil2" d="M173.571 51.368c5.347 2.878 6.169 8.636 4.525 14.805-1.645 6.169-2.469 8.637 1.645 13.983 3.702 5.347 2.056 12.75 0 16.04-2.467 2.88-7.404 8.637-17.274 9.46-9.868.824-11.515-.412-11.515-.412s6.992-4.525 11.927-13.162c3.291-5.347 4.935-11.928 3.291-18.097-2.467-8.636-11.518-11.105-15.628-11.105 0 0 2.056-7.814 7.814-10.693 5.758-2.465 11.926-2.465 15.216-.82h-.001z"/><path id="_196081424" class="fil3" d="M141.903 122.52c1.234 3.29 2.878 7.815 0 14.808-2.88 5.758-3.7 15.627 3.702 22.619 6.993 6.992 18.506 5.346 23.442 2.88 5.758-2.88 7.817-8.227 9.05-14.398.412-2.88 2.056-4.113 5.758-4.113 3.701-.41 10.695-1.234 15.628-9.048 3.7-6.168 5.345-14.807 1.235-20.976-4.113-6.993-15.629-8.636-20.566-8.226-2.88.412-4.935 1.234-6.993 2.88-1.644 1.647-12.748 11.93-31.256 13.573v.001z"/><path id="_196081064" class="fil4" d="M207.299 239.738c-5.345-8.636-10.283-17.685-20.978-27.968-9.46-9.46-19.742-15.217-34.958-17.684-2.057-.413-11.93-2.88-11.93-2.88h4.114c1.232-.41 2.467-.41 4.113-.823 9.049-2.056 15.629-3.29 23.442-3.29 7.405 0 26.324.412 41.953 19.744.412.411 1.646 2.878 1.234 3.29-.412.412-1.234.412-2.88.412 0 0 5.347 8.226 6.58 17.273.414 1.235 0 2.057-1.232 2.057-1.233 0-3.29-.413-3.29-.413s3.703 11.106 2.056 24.267c0 .822-.411 1.646-1.233 1.646.001 0-3.702-9.872-6.991-15.631z"/><path id="_196080728" class="fil4" d="M83.501 291.15s.41-6.584 1.644-11.106c0 0 2.88-13.983-1.234-29.202-5.758-20.153-15.63-21.386-15.63-21.386s-1.646-.822-1.234-3.292c0 0 0 2.056 11.927 2.469 10.283.41 18.097 1.642 22.622 11.926 3.7 7.815 2.466 13.984 2.466 16.041 0 1.233-.822 1.644-1.644 1.233-.822-.41-.822-.41-.822.822 0 1.646-.413 14.396-6.992 20.976-1.235 1.234-1.647.822-3.703-.822 0 0-4.935 9.461-5.758 11.518-.414.822-.822 1.233-1.233 1.233l-.409-.41z"/><path id="_196080368" class="fil4" d="M21.396 150.077s1.233-.824 2.056.411c1.233 1.234 3.29 3.292 7.814 4.936 3.29 1.233 6.58 2.055 11.927 2.467 6.992.411 17.685 3.292 23.854 7.405 4.113 2.468 10.693 9.46 12.749 16.04 1.234 4.523 1.646 9.872 1.234 12.75-.41 2.879-.822 8.226.823 11.105l-3.29-2.88s-2.881-2.875-13.574-9.871c-14.806-10.28-9.46-6.993-19.743-14.394-2.468-2.057-11.928-9.048-19.742-22.62-.819-.824-2.875-4.527-4.108-5.349z"/><path id="_196080032" class="fil4" d="M141.903 266.472s-13.983-13.983-18.097-31.67c-5.343-21.797-15.216-27.143-15.216-27.143-1.233-1.233-2.057-3.291-.411-4.114 0 0 14.807-1.644 23.441 2.468 8.638 3.702 12.34 9.462 13.574 12.34.412 2.056.412 2.467-1.646 2.878-2.055 0-2.467.412-.41 2.056 2.054 1.644 7.815 7.406 9.049 13.161 0 2.056 0 2.056-1.645 2.056-1.233-.412-2.057 0-1.233 1.235.822 1.645 2.878 6.99 3.29 13.16 0 2.056 0 2.468-1.234 2.88-1.234.41-2.88 2.879-1.234 10.28.822 4.113 2.877 6.17 3.7 7.817.823.824.823 1.646.411 2.057 0 0-6.169-2.466-12.339-9.461z"/></g></g></svg>