<svg xmlns="http://www.w3.org/2000/svg" width="1000" height="1000" viewBox="-207.848 0 1000 1000" overflow="visible"><path fill="#FFF" d="M60.038 185.665c-12.121 14.636-19.862 27.06-22.241 41.397-2.011 12.152-2.308 45.63 22.282 57.295 17.516 8.369 35.303 5.733 35.303 5.733s-23.961 8.805-35.375 26c-11.606 17.611-9.749 42.847-3.162 52.088.437.636-.521-.763 0 0-3.76-3.031-14.843-5.875-16.443-1.742-5.844 15.131 10.227 42.255 10.227 42.255-4.013 1.305-5.316 6.141-3.941 10.972 1.668 6.023 8.705 19.214 8.705 19.214-5.54-.557-6.885 6.297-6.588 10.752.898 12.883 7.32 21.463 14.321 29.363 2.376 2.761-3.75 1.932-5.468 7.384-2.609 8.149 20.609 23.536 22.844 24.775 12.352 7.011 22.759 11.241 33.107 13.288 25.852 5.148 43.966-1.733 57.173-1.287 7.323.269 3.833 4.527 3.833 4.527-2.049.816-37.089 23.36-42.113 24.845-5.205 1.549-6.355-1.007-8.629-2.479-4.541-2.884-5.69-5.29-8.927-8.123-3.834-3.338-7.178-5.947-12.282-3.764-8.505 3.687-5.978 21.493-7.252 25.825-1.927 7.125-10.631 11.305-26.255 16.624-21.286 7.271-30.06 5.865-45.276 3.721-15.546-2.141-24.098-.339-23.876 8.212.301 10.16 25.106 18.827 36.892 26.443 12.58 8.058 24.999 19.845 24.999 19.845s14.478 13.963 27.453-.753c21.731-24.679 28.8-31.415 38.238-38.371-3.086 2.314 14.886-11.319 19.53-10.517 7.446 1.345 4.285 11.658 4.285 11.658-1.601 6.028-3.534 10.064-8.521 20.421-6.996 14.467-3.612 31.793-2.04 37.032 1.56 5.149 6.697-.343 8.327-1.541 1.527-1.078 1.153 7.214 1.337 9.183 2.122 20.625 14.689 33.457 17.858 36.239 3.229 2.77 3.201 1.077 4.983-1.102 1.27-1.525 2.122-5.394 2.122-5.394 1.157 2.817 7.628 11.418 14.875 20.477 3.758 4.76 7.147 12.351 9.194 18.565 1.519 4.701 1.633 7.584 4.98 6.604 5.506-1.68 18.567-26.354 18.567-26.354 3.416 3.479 7.251 6.763 10.005 3.993 16.591-16.592 20.714-52.359 20.714-55.948 0-3.548.823-5.54 3.207-4.392 2.378 1.23 4.388 1.533 5.061-1.178 1.077-4.437 2.591-13.062 1.366-24.562l4.878 12.532c3.011 7.448 9.033 14.979 16.406 12.84 3.68-1.053 7.548-4.409 7.548-4.409 4.205 6.408 7.812 10.951 12.129 14.454 4.207 3.396 10.19 6.954 13.133 6.122 3.42-.984 4.648-7.147 4.648-7.147 14.17 17.747 21.056 23.364 40.25 32.254 8.924 4.153 39.177 12.176 36.928 1.823-.587-2.883-13.045-12.139-19.483-26.149-2.906-6.438-6.097-17.259-4.163-20.588 1.632-2.805 6.92-.633 10.183-4.207 2.307-2.584 2.829-8.426-.478-23.288-1.455-6.713-10.381-21.045-7.254-20.097 7.591 2.227 12.462-.211 7.777-13.433-3.979-11.258-9.003-17.226-14.622-23.252-4.686-4.989-14.286-8.764-9.119-9.494 5.029-.703 10.906 1.219 7.772-10.486-1.811-6.965-15.65-25.346-37.228-34.936-23.097-10.254-45.015-7.291-45.015-7.291 13.089-3.87 15.218-4.573 25.975-6.133 13.195-1.952 31.616-2.381 52.674 14.984 15.692 12.992 22.648 52.109 28.159 67.138 7.25 19.941 18.002 15.336 18.002 15.336 3.566-1.2 6.067-8.289 6.067-8.289 12.663 11.546 16.27 15.645 38.993 26.367 7.995 3.754 21.059 6.738 24.479 5.694 6.315-1.968 1.562-12.167 1.562-12.167 5.879.555 12.755.03 25.004 8.699 15.696 11.11 18.441 27.835 20.19 35.665 6.591 29.226 15.814-5.169 17.401-20.174 3.688-35.345-6.5-51.369-6.5-51.369s4.985 3.327 8.406 3.161c4.014-.173 6.843-4.241 6.618-8.823-1.079-19.863-19.227-43.635-19.227-43.635 4.426 1.383 7.618 1.936 9.042 1.383 7.433-2.929 3.639-10.481 1.374-13.634-20.454-28.178-46.579-42.452-68.939-50.098 7.446-1.93 12.104-5.224 15.559-8.725 6.579-6.565 9.78-25.368 16.253-30.685 9.073-7.54 29.209-12.404 35.606-21.782 6.165-9.006 7.139-22.113 3.151-33.93-3.899-11.842-2.148-17.978 1.791-25.882 3.91-7.911 28.006-25.766 33.402-47.507 2.235-8.969 4.652-30.574-13.389-42.774-18.49-12.488-51.712-6.945-51.712-6.945s30.14-8.271 34.934-35.372c3.384-18.986-18.116-30.764-19.489-41.178-1.599-11.478 16.808-26.747 8.93-45.885-6.29-15.197-18.429-19.913-36.836-25.157-18.373-5.22-25.025-6.429-34.172-18.274-9.273-11.797-10.461-31.605-18.304-40.839-8.567-9.959-15.815-16.089-31.687-15.927-11.266.174-21.235 3.215-34.107 16.385-10.787 10.955-14.394 24.663-14.394 24.663s5.77-29.545-1.421-48.698C366.779 12.167 356.847.108 335.488 0c-16.243-.062-29.559 7.383-41.021 13.09-14.136 7.169-20.206 14.875-54.608 4.007-36.752-11.588-64.087-6.706-74.737 5.317-8.55 9.687-10.56 22.274-8.253 34.181 1.928 10.36 8.821 20.686 8.821 20.686s-37.658-16.938-63.957-11.68C75.435 70.876 55.02 85.81 51.631 107.937c-2.604 17.013 3.273 30.71 9.229 39.49 5.951 8.726 10.186 20.909 7.548 26.183-2.048 3.96-4.762 8.023-8.37 12.055zm173.308 286.307c-10.562 24.486-31.35 36.802-31.35 36.802-.941-7.141-.794-11.441.285-18.871 1.047-7.276 1.274-24.638-2.008-34.922 9.932 10.644 22.061 15.136 33.073 16.991zm-32.474 100.283c-15.324-.592-22.357-5.117-22.357-5.117 22.956-15.378 38.133-23.642 44.673-27.458 6.397-3.705 14.112-6.182 24.07-4.948 5.765.718 13.466 5.224 14.843 11.353 1.528 6.771-5.166 14.766-11.13 28.965-2.443 6.006-2.002 13.425-.808 19.85-9.781-14.522-22.211-21.52-49.291-22.645z"/><path fill="#00773A" d="M264.41 535.918c1.526 6.568 1.526 17.004-5.618 30.419-6.771 12.883-4.134 27.627-2.635 33.419.432 1.667 1.809 2.854 2.334 2.963 3.535.938 6.143 1.208 6.143 1.208-1.973 20.463 14.587 41.619 16.958 43.941 2.301 2.336 4.682 1.821 7.481.611 2.745-1.18 3.941-1.765 3.941-1.765 3.941 6.682 14.577 14.577 18.525 16.138 3.914 1.623 4.316 1.008 6.701-.537 2.332-1.614 4.717-3.58 4.717-3.58 18.931 26.026 49.743 33.692 57.545 35.095 4.357.78 5.545-2.378 2.798-5.916-2.798-3.53-7.71-9.227-9.646-19.456-3.685-18.527 0-25.163 3.09-26.005 3.25-.801 3.607-2.367 3.25-7.086-1.383-16.146-6.743-29.183-8.722-33.105-1.962-3.959 0-4.359 3.163-3.959 4.617.603 4.686.225 3.912-4.339-2.533-15.415-17.334-29.556-22.469-33.903-5.135-4.328-3.563-4.78 1.604-5.51 4.946-.742 5.087-1.604 3.277-6.957-2.309-6.75-12.177-22.146-33.485-31.62-22.769-10.129-60.036-5.34-60.036-5.34 8.409-5.287 28.905-13.604 43.558-17.2 19.349-4.855 39.759-.323 53.603 9.909 16.219 12.049 24.102 49.854 29.466 64.736 7.175 19.658 18.594 20.081 18.594 20.081 3.572-1.169 5.096-6.391 5.096-6.391 15.794 16.766 44.655 26.489 55.219 28.37 3.878.671 6.365.857 6.365-2.649 0-3.197.448-3.668.448-3.668 5.797.557 14.212 1.041 29.421 8.969 15.282 7.853 21.577 18.91 23.692 25.236 2.083 6.288 6.294 3.625 6.809-.555 4.284-34.003-5.39-61.238-5.39-61.238s5.39.687 8.56.687c3.124 0 3.676-2.003 3.124-5.14-3.757-22.719-17.301-44.21-17.301-44.21 4.421.203 6.699.651 7.509-.627 1.078-1.676-1.787-6.981-2.972-8.46-39.509-49.369-87.645-50.296-106.587-50.296-18.895 0-36.232 3.141-59.415 8.397-23.14 5.252-34.107 1.384-43.628-4.235-11.984-6.99-16.624-24.566-16.624-24.566-26.789 31.142-58.999 21.818-58.999 21.818-16.3 23.1-46.837 44.824-46.837 44.824-3.941-7.6-3.712-20.993-2.637-28.365 1.078-7.364-.12-20.631-3.201-32.044-4.543-17.341-21.914-34.2-31.843-40.961-15.772-10.606-43.003-17.182-60.153-18.61-14.215-1.201-22.02-3.206-30.571-6.25-11.203-3.931-16.219-9.395-19.421-12.528-3.119-3.179-7.886-1.024-7.329 2.629 2.233 14.545 12.352 31.543 12.352 31.543-3.125-1.206-5.506 2.332-4.726 5.466 3.754 15.164 9.446 22.875 9.446 22.875-5.51-1.155-6.29 4.359-6.29 6.336 0 16.582 11.429 28.426 14.218 30.759 2.71 2.339 1.555 3.156-.408 3.919-5.806 2.329-4.804 5.948-3.161 7.896 4.539 5.666 22.096 18.553 31.544 22.868 24.251 11.089 53.636 9.487 66.693 8.296 13.018-1.196 22.426 4.707 22.426 4.707-1.935.792-46.161 29.575-50.883 31.998-4.728 2.328-8.667.771-11.05-.411-6.919-3.464-13.346-10.678-16.556-13.798-3.159-3.147-5.911-1.578-5.911 1.94 0 3.54-.78 18.954-.375 22.864.375 3.973-2.381 5.551-3.987 6.287-46.967 23.552-72.535 14.65-79.587 13.823-7.194-.783-12.658-.783-14.218 3.569-1.557 4.328 2.563 8.061 18.964 14.689 19.459 7.921 32.336 17.603 43.718 24.722 8.852 5.563 13.422.828 16.554-2.345 25.667-25.641 52.403-41.71 60.107-46.131 1.421-.796 3.61-.739 4.28-.495 5.949 2.605 8.223 8.378 8.223 8.378 2.53 8.25-2.201 13.104-7.177 23.262-6.844 14.289-8.149 25.63-6.589 30.785 1.609 5.119 5.652 3.603 7.22 2.456 1.526-1.152 2.562-.437 2.605 1.542.181 22.893 12.64 37.355 15.772 40.132 3.158 2.764 3.567 2.764 5.542.762 1.964-1.967 3.939-5.896 3.939-5.896 1.155 2.777 6.249 14.587 13.358 22.494 7.132 7.882 10.084 17.451 11.826 24.86 1.299 5.281 2.375 5.899 5.174 1.155 2.745-4.738 14.769-28.872 14.769-28.872 5.501 3.929 6.501 4.805 9.213 2.056 16.412-16.349 17.603-49.204 17.603-52.758 0-3.532 0-3.933 2.378-2.733 2.354 1.18 4.136 0 4.279-2.741.405-5.137 3.196-20.904-6.243-41.012-11.977-25.37-31.589-28.386-57.586-29.592-30.359-1.394-29.76-6.817-29.76-6.817 22.463-14.19 69.78-41.367 74.094-43.382 4.354-1.938 5.584-3.675 13.027-.792 5.323 2.074 12.387 6.854 13.799 12.957z"/><path fill="#FFF" d="M377.158 485.918c38.312 6.319 64.557 21.519 88.544 44.871 26.826 26.016 39.438 48.703 52.494 70.78 0 0-34.924-44.278-65.688-73.414-31.239-29.678-61.108-37.521-75.35-42.237zM166.021 576.11s28.159 4.7 40.515 57.802c9.44 40.703 2.154 70.207 2.154 70.207s.51-37.396-3.653-54.634c-13.541-56.212-39.016-73.375-39.016-73.375zM57.884 388.379s18.858 34.021 50.546 57.009c30.962 22.548 7.896 7.132 50.07 36.287 26.42 18.224 33.775 25.623 33.775 25.623l-25.584-15.445s-26.79-15.688-53.9-35.52c-36.352-26.573-54.907-67.954-54.907-67.954zm210.287 131.78s25.03 13.604 38.613 68.743c11.457 46.315 46.111 80.933 46.111 80.933s-13.348-7.519-30.565-29.837c-17.224-22.23-24.624-66.03-29.723-80.66-8.296-23.642-24.436-39.179-24.436-39.179z"/><path fill="#7C1829" d="M344.043 13.144c18.498 7.401 27.272 23.237 26.826 44.17-.482 22.869-11.416 40.632-15.367 44.549-3.94 3.939-8.702 3.552-15.397 1.196-6.725-2.394-15.369-6.301-27.606-6.301-12.187 0-23.722 5.064-30.762 12.193 0 0-17.73-.824-29.939 3.931-12.236 4.762-16.596 7.534-19.71 9.491 0 0-12.877-.628-24.475-6.325-13.467-6.594-42.974-26.814-42.974-56.386s25.296-39.952 41.33-39.618c12.604.311 22.877 3.318 33.923 6.035 11.051 2.764 19.42 3.321 24.922 2.812 7.698-.701 18.496-2.737 26.788-8.632 6.552-4.666 18.229-9.384 27.189-10.309 9.929-.932 19.352.806 25.252 3.194zm68.223 30.744c21.343 0 32.495 10.069 39.87 31.181 3.127 9.043 5.838 25.392 26.403 29.955 25.448 5.58 39.618 13.625 47.731 26.032 6.5 9.92 6.322 25.596 3.494 35.044-2.716 9.484-4.722 15.399 3.156 24.082 6.812 7.48 11.505 19.721 5.544 35.878-5.872 16.166-21.764 30.305-52.441 31.957-14.585.781-35.522-2.147-34.29-9.466.402-2.34 1.771-4.273 7.318-10.544 3.83-4.447 6.436-11.103 7.291-17.464 1.337-10.136-3.577-20.292-11.648-29.088-4.39-4.733-5.694-9.135-2.938-17.805 2.787-8.678 3.506-13.838 3.506-24.089 0-12.618-8.305-28.93-22.437-33.41-17.356-5.51-36.327-2.469-51.323 10.558 0 0-13.391-9.47-13.391-27.996.002-18.559 19.309-54.825 44.155-54.825z"/><path fill="#B80D2F" d="M512.613 281.345c7.965 12.251 8.629 39.033-4.318 60.35-18.887 31.16-48.688 28.286-48.688 28.286-3.117 44.553-41.571 53.327-62.544 53.327-55.175 0-56.554-43.469-56.554-48.19s-2.786-5.54-4.716-3.982c-13.363 10.716-19.718 30.023-20.497 45.798-.816 15.769 2.745 27.586 5.542 32.303 8.555 14.729 21.647 23.264 50.434 16.195 28.761-7.14 54.243-9.628 78.297-6.039 24.106 3.59 35.438-3.794 39.649-16.447 3.719-11.382 12.238-20.544 24.591-27.155 34.299-18.112 28.235-45.008 25.885-56.853-2.386-11.556 4.907-17.242 9.824-22.838 19.26-22.264 23.287-50.917 10.603-67.047-12.612-16.21-36.16-12.301-48.843-10.253-7.516 1.184-15.361 4.721-18.56 6.287 0-.002 11.044 2.563 19.895 16.258zm-198.511 98.109c-.598 15.169-6.913 59.368-31.542 73.687-10.229 6.025-33.145 9.536-55.612.877-22.496-8.72-33.179-23.9-39.06-30.387-11.192-12.537-26.181-27.946-63.088-33.542-34.777-5.319-65.392-19.992-60.029-57.974 4.569-32.868 36.559-40.566 54.266-40.062 2.572.09 7.367 2.132 8.888 4.514 4.319 6.791 14.066 20.606 25.706 27.884 15.808 9.894 34.226 13.152 52.004 13.231 0 0 8.378 36.301 37.054 48.485 23.5 9.931 49.918 5.996 71.413-6.713zM119.305 68.727c22.794 0 56.018 13.412 61.515 46.503 0 0-22.696-10.112-35.111 5.522-11.013 13.859-3.61 31.193-.822 40.263 2.759 9.081 5.026 17.422 2.759 25.225-2.567 8.767-6.88 14.309-22.099 23.664-13.239 8.232-16.593 22.149-17.295 31.171-1.412 16.604 4.357 34.274 16.922 44.107 0 0-19.53 7.635-40.616-.734-23.325-9.27-36.275-29.225-36.275-54.01 0-24.888 14.178-38.282 18.941-43.416 4.722-5.13 9.862-13.372 9.862-21.668 0-8.254-4.513-14.539-6.701-18.955-3.758-7.376-8.072-19.592-4.177-36.943 3.096-13.427 19.167-40.729 53.097-40.729z"/><path fill="#B80D2F" d="M159.103 140.504c-4.02 10.729-1.528 17.335 2.007 26.43 3.53 9.079 6.692 20.854-8.705 33.501-15.399 12.608-30.583 22.155-29.385 47.035 1.185 24.826 18.822 58.271 42.776 71.204 18.375 10 31.587 10.664 45.378 9.479 0 0 12.06 34.673 40.022 46.638 19.534 8.353 49.62 11.432 76.713-11.107 9.485-7.87 20.674-29.867 18.71-49.175 0 0-33.114 2.744-66.249-8.71-33.111-11.422-66.628-36.246-77.263-66.229-10.636-29.962-14.396-75.774 18.305-110.115 0 0-12.842-7.482-27.191-8.7-13.588-1.026-29.582 5.172-35.118 19.749z"/><path fill="#7C1829" d="M373.654 144.058c-8.879-17.252-27.782-41.075-59.952-39.432-9.633.491-22.887 6.687-27.607 12.612 0 0-15.251-.363-26.446 2.773-14.364 4.039-29.313 12.694-39.622 30.817-10.227 18.136-13.987 32.269-13.987 50.011 0 24.921 12.91 55.728 37.461 72.963 3.952 2.74 4.958-.708 4.133-7.4-.78-6.726-5.36-34.03 7.521-60.352 14.766-30.289 40.246-48.898 68.177-57.944 16.773-5.462 39.66-5.646 50.322-4.048z"/><path fill="#B80D2F" d="M317.231 159.03c-24.847 11.458-59.296 43.749-61.524 84.802-1.937 36.236 14.213 58.324 62.712 60.298 48.51 1.94 96.651-31.941 98.58-33.111 1.965-1.186 1.605-3.969-3.95-2.759-5.492 1.198-38.977 5.543-59.178 4.754-20.083-.826-42.479-7.115-52.408-22.511-10.876-16.854-14.587-45.339 15.768-91.473z"/><path fill="#B80D2F" d="M394.234 170.84c13.688 15.698 11.785 36.908-1.601 60.582-13.39 23.651-32.218 29.178-44.409 28.384-12.254-.781-17.074-2.382-22.691-4.968 0 0 22.168-1.58 35.815-17.63 9.638-11.309 8.339-26.066 2.645-35.774-3.461-5.799-9.042-10.323-13.175-12.865-9.708-6.021-27.671-8.246-37.116-4.713 0 0 14.989-26.401 45.338-26.401 14.614-.001 26.492 3.56 35.194 13.385z"/><path fill="#B80D2F" d="M314.148 187.789c-7.111 6.355-11.653 16.605-12.28 25.684-.747 10.846 2.753 21.26 12.234 26.78 9.451 5.526 26.148 2.827 33.33-3.845 8.07-7.495 8.299-16.766 7.892-19.832-.676-5.168-4.392-10.25-11.685-8.774-5.688 1.185-10.259 1.001-13.577.2-3.824-.875-13.049-3.907-15.914-20.213z"/><path fill="#7C1829" d="M432.75 125.11c13.795 7.249 16.183 21.289 11.909 37.042-4.318 15.813-6.738 22.101 3.532 35.512 10.233 13.447 5.917 32.348 0 40.23-5.915 7.886-18.188 21.666-42.995 24.045-24.845 2.383-29.605-1.204-29.605-1.204s17.562-10.919 30.133-32.721c8.119-14.021 12.461-30.262 8.523-45.693-5.694-22.434-29.209-28.832-39.065-28.832 0 0 4.357-19.307 18.976-26.383 14.545-7.094 30.348-6.354 38.592-1.996z"/><path fill="#B80D2F" d="M352.758 305.334c2.82 7.85 7.178 19.457-.443 36.681-6.443 14.626-8.676 40.249 9.518 57.546 18.161 17.371 47.575 13.261 59.734 7.176 14.193-7.094 19.701-20.866 22.671-36.342 1.454-7.611 5.438-10.417 14.558-10.654 9.181-.221 27.819-3.151 39.647-22.406 9.48-15.351 13.429-37.819 3.762-53.285-10.832-17.349-39.889-21.812-52.085-20.531-7.474.803-13.013 2.751-17.743 7.124-4.704 4.312-33.124 30.357-79.619 34.691z"/><path fill="#0D402E" d="M357.297 478.397c3.011-.428 6.245-1.033 9.738-1.812 23.183-5.257 40.521-8.397 59.415-8.397 18.942 0 67.078.928 106.587 50.296 1.185 1.479 4.05 6.784 2.972 8.46-.81 1.278-3.088.83-7.509.627 0 0 13.544 21.491 17.301 44.21.552 3.137 0 5.14-3.124 5.14-3.17 0-8.56-.687-8.56-.687s9.674 27.235 5.39 61.238c-.25 2.252-1.602 4.053-3.084 4.238 0 0-9.569-25.533-18.228-40.143-13.131-22.014-25.668-44.765-52.494-70.78-23.987-23.352-50.231-38.552-88.544-44.871-5.69-1.25-30.953-6.869-30.953-6.869 3.357.071 6.991-.121 11.093-.65zM208.69 704.119s7.286-35.981-3.203-74.191c-13.838-50.617-39.467-53.817-39.467-53.817s-3.942-1.931-2.531-8.972c0 0-.599 5.424 29.76 6.817 25.997 1.206 45.61 4.222 57.586 29.592 9.439 20.107 6.647 35.875 6.243 41.012-.143 2.741-1.925 3.921-4.279 2.741-2.378-1.199-2.378-.799-2.378 2.733 0 3.554-1.191 36.409-17.603 52.758-2.712 2.749-3.712 1.873-9.213-2.056 0 0-12.024 24.134-14.769 28.872-1.898 3.295-2.975 3.996-3.953 2.42.002 0 1.383-16.15 3.807-27.909zM47.32 374.791s3.234-1.849 5.8.878c3.129 3.165 8.218 8.597 19.421 12.528 8.551 3.044 16.356 5.049 30.571 6.25 17.15 1.428 44.381 8.004 60.153 18.61 9.929 6.761 27.299 23.62 31.843 40.961 3.082 11.413 4.279 24.68 3.201 32.044-1.076 7.372-1.305 20.766 2.637 28.365l-8.672-7.129s-7.431-7.341-33.775-25.623c-37.607-26.175-24.697-17.224-50.07-36.287-6.728-5.027-30.766-22.987-50.546-57.009-1.53-2.629-7.551-12.107-10.563-13.588zm219.918 135.843s37.268-4.789 60.036 5.34c21.309 9.475 31.177 24.87 33.485 31.62 1.81 5.354 1.669 6.215-3.277 6.957-5.167.729-6.738 1.182-1.604 5.51 5.135 4.348 19.936 18.488 22.469 33.903.773 4.563.705 4.941-3.912 4.339-3.163-.4-5.125 0-3.163 3.959 1.979 3.923 7.339 16.959 8.722 33.105.357 4.719 0 6.285-3.25 7.086-3.09.842-6.774 7.478-3.09 26.005 1.937 10.229 6.849 15.926 9.646 19.456 1.737 2.312 1.887 4.397.63 5.398 0 0-15.251-6.423-31.035-23.479 0 0-35.209-36.082-46.111-80.933-13.358-55.14-38.613-68.743-38.613-68.743-3.059-3.019-5.024-7.576-.933-9.523z"/><path d="M61.131 841.105h10.192v-61.961H61.131v-13.723h66.719v25.539h-14.675v-11.953H86.677v23.915h27.042v13.045H86.677v25.275h26.635v-11.958h14.675v25.549H61.131zm98.539-36.281c5.708-5.572 12.095-10.6 20.79-10.6 7.063 0 12.228 2.854 15.355 7.611 2.038 3.259 3.126 7.336 3.126 12.23v28.533h8.832v12.233h-31.796v-12.233h8.15v-24.865c0-2.445-.408-4.619-1.221-6.115-1.357-2.579-3.803-3.938-7.34-3.938-5.16 0-10.598 2.987-15.352 6.925v27.994h8.153v12.233h-31.801v-12.233h8.834v-34.788h-8.834v-12.498h23.104v9.511zm111.414 50.142c0 7.334-1.905 13.451-5.572 17.935-4.891 5.983-12.634 9.107-22.285 9.107-10.326 0-19.16-3.264-23.373-7.478-2.31-2.307-3.261-4.889-3.261-7.745 0-4.21 3.125-8.29 8.017-8.29 4.623 0 8.291 3.264 8.291 7.746 0 .68-.136 1.77-.273 2.311 2.448.812 5.3 1.498 8.831 1.498 5.299 0 9.514-1.633 12.095-5.162 1.767-2.446 2.718-5.845 2.718-10.329v-8.564c-4.484 4.484-9.24 7.611-17.121 7.611-15.083 0-27.175-11.551-27.175-29.213 0-16.986 12.365-30.169 27.853-30.169 7.609 0 13.049 2.99 16.988 6.388v-5.299h23.1v12.498h-8.833v47.155zm-43.889-30.708c0 10.865 6.657 16.847 15.765 16.847 5.026 0 9.508-2.311 13.313-5.84v-23.646c-3.534-2.72-8.018-4.621-13.313-4.621-9.108 0-15.765 5.98-15.765 17.26z"/><path d="M278.808 842.599h9.237v-74.735h-9.237v-12.503h24.049v87.238h8.835v12.234h-32.884zm38.046-3.394c0-11.144 9.781-17.937 23.915-17.937 6.112 0 11.821.814 15.08 1.629v-4.756c0-3.536-.814-6.252-2.309-8.153-2.446-3.125-6.386-4.351-11.685-4.351-2.581 0-4.479.409-5.842.953.271.816.543 2.177.543 2.988 0 4.487-3.533 7.743-8.019 7.743-4.484 0-7.882-3.122-7.882-8.017 0-7.334 7.472-15.081 23.642-15.081 10.192 0 17.124 2.854 21.336 8.016 3.125 3.807 4.616 8.97 4.616 14.95v25.409h8.838v12.233h-22.965v-6.527c-4.76 4.082-11.957 7.611-19.974 7.611-10.189.002-19.294-5.572-19.294-16.71zm38.995.679v-9.374c-3.396-.816-7.607-1.362-12.222-1.362-7.207 0-11.558 3.259-11.558 8.696 0 4.755 3.536 7.336 8.836 7.336 5.3 0 10.459-2.042 14.944-5.296zm52.455-35.06c5.703-5.572 12.092-10.6 20.793-10.6 7.065 0 12.23 2.854 15.353 7.611 2.04 3.259 3.127 7.336 3.127 12.23v28.533h8.831v12.233h-31.795v-12.233h8.152v-24.865c0-2.445-.407-4.619-1.226-6.115-1.355-2.579-3.805-3.938-7.334-3.938-5.165 0-10.601 2.987-15.355 6.925v27.994h8.153v12.233h-31.798v-12.233h8.833v-34.788h-8.833v-12.498h23.099v9.511zm50.291 20.521c0-17.256 12.501-31.121 28.529-31.121 7.613 0 13.185 2.854 16.583 5.705v-32.065h-8.97v-12.503h23.781v87.238h8.835v12.233h-23.646v-6.527c-4.349 4.212-9.92 7.611-17.529 7.611-15.761.001-27.583-12.638-27.583-30.571zm45.113 11.82v-25.546c-3.938-2.72-8.56-4.621-14.131-4.621-8.29 0-15.763 6.389-15.763 18.209 0 11.414 7.061 17.932 15.763 17.932 5.571-.001 10.05-2.443 14.131-5.974zM114.231 959.097h10.188v-61.961h-10.188V883.41h34.649c20.519 0 35.194 8.835 35.194 27.044 0 11.545-7.065 20.381-16.848 24.319l13.722 24.324h10.194v13.725h-20.655l-17.938-33.971c-1.902.132-3.669.27-5.434.27-2.853 0-5.436 0-7.34-.138v20.114h11.146v13.725h-36.69v-13.725zM168.175 911c0-9.382-7.744-13.863-20.108-13.863h-8.292v28.668c1.633.139 3.806.268 8.698.268 11.55-.001 19.702-5.699 19.702-15.073zm35.623 55.025c-1.898-3.12-2.989-7.195-2.989-11.955v-28.266h-8.83v-12.497h23.641v37.094c0 2.584.406 4.482 1.221 6.113 1.358 2.583 3.804 3.943 7.34 3.943 5.165 0 10.599-2.993 15.353-6.928v-27.726h-9.239v-12.497h24.053v47.287h8.834v12.228h-23.103v-9.508c-5.707 5.571-12.093 10.603-20.791 10.603-7.202.001-12.501-2.993-15.49-7.891zm120.256 6.935c0 7.337-1.906 13.452-5.572 17.935-4.894 5.976-12.64 9.105-22.287 9.105-10.324 0-19.159-3.262-23.369-7.478-2.311-2.306-3.266-4.889-3.266-7.741 0-4.217 3.127-8.292 8.021-8.292 4.619 0 8.289 3.262 8.289 7.746 0 .678-.136 1.765-.272 2.309 2.447.816 5.299 1.494 8.832 1.494 5.302 0 9.509-1.626 12.095-5.16 1.769-2.444 2.715-5.843 2.715-10.327v-8.56c-4.482 4.482-9.237 7.609-17.117 7.609-15.087 0-27.178-11.551-27.178-29.219 0-16.983 12.367-30.164 27.854-30.164 7.609 0 13.044 2.986 16.987 6.386v-5.297h23.099v12.497h-8.83v47.157zm-43.891-30.711c0 10.87 6.658 16.849 15.764 16.849 5.025 0 9.51-2.311 13.312-5.835v-23.651c-3.531-2.718-8.014-4.621-13.312-4.621-9.106-.001-15.764 5.982-15.764 17.258zm73.937 24.863l-3.259 5.98h-10.059v-87.236h-8.965v-12.508h23.78v46.479c4.349-4.212 9.918-7.609 17.527-7.609 15.763 0 27.586 12.64 27.586 30.569 0 17.263-12.499 31.129-28.537 31.129-7.607.001-13.04-2.727-18.073-6.804zm31.395-24.186c0-11.409-7.068-17.937-15.767-17.937-5.571 0-10.057 2.447-14.13 5.983v25.541c3.941 2.72 8.559 4.621 14.13 4.621 8.292.001 15.767-6.384 15.767-18.208zm33.319 56.936c-7.878 0-12.77-4.624-12.77-9.379 0-5.023 3.397-7.604 7.334-7.604 3.536 0 5.573 2.172 6.522 4.482 1.498-.409 3.131-1.36 4.755-3.534.952-1.219 1.77-2.713 2.72-4.616l4.482-9.379-21.195-44.027h-7.341v-12.497h30.71v11.816h-8.694l13.72 31.391 13.863-31.391h-9.236v-11.816h30.568v12.497h-7.197l-27.854 59.109c-1.362 2.721-2.856 5.163-4.623 7.202-4.353 5.028-9.784 7.746-15.764 7.746zm-.781-341.53c0-12.729 10.135-22.847 22.895-22.847 12.836 0 22.873 10.118 22.873 22.847 0 12.681-10.037 22.797-22.873 22.797-12.761-.001-22.895-10.117-22.895-22.797zm3.718 0c0 10.757 8.719 19.08 19.176 19.08s19.157-8.323 19.157-19.08c0-10.784-8.7-19.162-19.157-19.162s-19.176 8.377-19.176 19.162z"/><path d="M431.522 665.578h2.696v-16.381h-2.696v-3.628h9.16c5.426 0 9.305 2.333 9.305 7.146 0 3.057-1.869 5.39-4.454 6.432l3.627 6.432h2.695v3.624h-5.46l-4.744-8.978c-.501.036-.969.072-1.433.072-.758 0-1.44 0-1.942-.036v5.317h2.946v3.624h-9.7v-3.624zm14.26-12.718c0-2.479-2.046-3.663-5.314-3.663h-2.191v7.579c.432.036 1.005.073 2.301.073 3.05 0 5.204-1.51 5.204-3.989z"/></svg>