<svg xmlns="http://www.w3.org/2000/svg" width="207.599" height="344.621" viewBox="0 0 770.357 1278.817"><g transform="translate(.066 -.065)"><path d="M206.14 1244.225c-12.749-18.595-23.24-33.81-23.315-33.81-.075 0-.174 7.57-.22 16.824l-.084 16.825 5.385 4.213 5.385 4.214-13.015.055c-7.158.03-18.98-.028-26.27-.132l-13.255-.185 8.764-6.836 8.763-6.835.143-28.664.144-28.665-8.734-6.972-8.734-6.972 31.354.04c25.947.035 32.01.16 35.17.721 6.126 1.091 11.076 3.463 15.119 7.243 4.308 4.029 6.373 9.03 6.341 15.358-.038 7.694-3.234 13.727-9.307 17.567-2.357 1.49-9.73 4.131-11.542 4.134-2.53.01-2.31.52 4.327 10.153 3.58 5.195 7.032 10.004 7.671 10.688 1.24 1.327 4.905 3.328 5.328 2.91.14-.139-2.73-4.563-6.379-9.832-3.648-5.268-6.7-9.744-6.78-9.945-.082-.2.164-.364.547-.362 3.152.015 10.093-4.189 13.391-8.112 4.588-5.457 6.09-9.931 5.77-17.177-.384-8.681-2.989-14.139-8.738-18.308l-2.424-1.758 1.694.01c1.494.01 2.088.395 5.019 3.265 5.32 5.21 6.859 9.303 6.805 18.092-.05 8.105-2.18 13.195-7.918 18.922-2.734 2.73-4.462 4.029-6.883 5.176l-3.233 1.532 5.21 7.632c2.865 4.198 6.535 9.045 8.157 10.772l2.948 3.141-2.072 1.398c-8.337 5.627-8.661 18.567-.919 36.738.185.434.163.78-.05.771-.21-.01-10.815-15.23-23.563-33.826zm-26.593-40.144c-.297-1.687-.374-3.803-.181-4.945.185-1.098.453-7.422.596-14.053l.259-12.057 8.18.19c7.392.171 8.359.286 10.017 1.183 1.665.9 4.927 4.086 4.558 4.45-.083.083-1.45-.5-3.037-1.298-2.818-1.414-3.056-1.453-9.981-1.643l-7.095-.195-.042 8.41c-.04 7.834.012 8.387.746 8.087 3.82-1.563 6.77-1.263 8.917.904 1.926 1.946 2.34 4.205 1.178 6.418-1.84 3.505-6.169 4.169-8.778 1.347-1.124-1.215-1.372-1.31-1.942-.746-1.075 1.064.159 5 2.242 7.154 1.675 1.733 4.037 3.07 4.54 2.571.237-.233-.057-1.344-.928-3.516-.239-.596.11-.789 1.87-1.033 2.939-.407 5.71-1.78 6.486-3.21 1.012-1.87.75-4.796-.615-6.882-1.285-1.962-1.183-2.088 1.048-1.298.99.351 1.66 1.002 2.08 2.019.884 2.147.763 5.95-.248 7.813-.9 1.657-3.993 3.58-5.745 3.572-1.32-.01-1.593.47-1.257 2.194.258 1.324.382 1.397 2.382 1.407 4.603.023 9.114-3.692 11.39-9.382.823-2.055 1.026-3.645 1.215-9.534.292-9.065-.427-11.985-3.897-15.82-4.168-4.607-9.201-6.18-20.36-6.364l-7.219-.12-.296 34.158-.297 34.156 2.14 1.896 2.138 1.896.227-17.39c.157-12.026.067-18.3-.291-20.339zm52.765 71.061c-3.695-5.681-5.427-11.634-5.414-18.601.011-6.03 1.67-10.556 5.029-13.717 2.044-1.924 1.807-.61-.766 4.262l-2.154 4.077.042 5.247c.051 6.608.952 10.986 3.157 15.355 1.521 3.013 2.667 6.327 2.188 6.325-.091 0-1.028-1.327-2.082-2.947zm41.5-13.965c-3.818-.61-8.706-2.352-11.65-4.153-2.844-1.74-6.868-5.25-8.224-7.176-.911-1.293-.913-1.329-.062-1.325.48.01 2.354 1.257 4.163 2.787 6.13 5.188 13.176 7.825 21.038 7.876 5.445.038 9.686-.8 15.184-2.994l3.716-1.482-.005 1.02c-.004.842-.576 1.254-3.278 2.363-7.31 3-14.63 4.081-20.882 3.084zm96.043.289c-3.477-.716-6.903-1.998-9.57-3.58-3.683-2.182-10.14-9.614-10.13-11.658.007-1.305.77-1.315 1.601-.02 3.692 5.748 9.49 10.225 16.314 12.596 3.107 1.079 12.495 1.255 15.954.298 2.801-.774 6.603-2.63 9.142-4.462 1.831-1.322 1.919-1.486 1.64-3.068-.16-.92-.361-1.751-.445-1.848-.084-.097-.963.549-1.954 1.435-4.013 3.59-9.177 5.202-16.542 5.165-5.679-.028-8.904-.745-13.385-2.974-11.295-5.62-19.18-19.89-20.217-36.59-1.463-23.57 8.811-42.643 25.58-47.485 2.405-.694 5.459-.785 27.809-.827l25.107-.047-.896 1.26c-.493.692-5.227 7.304-10.52 14.693-5.295 7.39-9.905 14.085-10.247 14.879-.817 1.895-.8 3.92.036 4.622.577.483.674.318.687-1.178.02-2.257.357-2.72 2.504-3.446 1.61-.544 2.601-1.738 10.44-12.577 4.764-6.586 8.836-11.971 9.049-11.967.213.01.623.377.91.828.451.707-.548 2.282-7.339 11.566-6.686 9.141-7.752 10.816-7.135 11.2 1.969 1.229 4.157 3.618 4.62 5.042.283.875.427 2.875.32 4.445-.165 2.397-.431 3.144-1.66 4.658l-1.465 1.803 9.83.17 9.83.17-8.614 6.731-8.614 6.73-.16 7.435-.16 7.434 1.577 1.216 1.578 1.216.04-8.076c.04-8.02.048-8.08 1.134-8.894.602-.45 3.243-2.693 5.868-4.984l4.774-4.167-.009 1.758c-.008 1.675-.223 1.937-4.513 5.516l-4.503 3.758-.053 8.814-.054 8.813 3.416 2.89 3.416 2.888-13.59.051-13.591.051-2.313 2.003c-2.98 2.58-7.52 4.926-11.16 5.765-3.47.8-10.325.775-14.337-.052zm15.388-11.253c3.284-1.532 5.818-3.803 7.283-6.528.896-1.665 1.031-2.673 1.192-8.845l.181-6.965-8.566-6.785-8.566-6.785 10.82-.066c6.701-.04 10.82-.234 10.822-.508a.444.444 0 00-.441-.443c-.244 0-.979-.82-1.633-1.82l-1.19-1.819-.141-15.526-.141-15.526-8.59.104c-8.377.1-8.64.132-10.64 1.294-2.37 1.378-4.116 4.185-4.912 7.897-.337 1.573-.552 10.657-.632 26.793-.133 26.518.071 29.594 2.3 34.703l1.113 2.55 4.431-.191c3.727-.16 4.89-.405 7.31-1.533zm-16.397-3.25c-.907-2.53-.925-3.266-.78-32.059l.146-29.47 1.367-2.639c1.494-2.886 4.124-5.203 6.89-6.068.925-.289 5.457-.596 10.105-.684l8.428-.159.01-1.98.01-1.98-7.79-.04c-8.983-.044-11.796.388-15.445 2.376-3.222 1.756-5.635 4.753-7.044 8.748-1.02 2.895-1.028 3.108-1.157 28.76-.138 27.619-.087 28.407 2.12 32.868 1.078 2.18 3.151 4.912 3.73 4.915.186 0-.079-1.164-.59-2.588zm39.84-35.11c2.899-2.679 3.166-7.12.586-9.727-1.363-1.376-1.74-1.126-1.23.818 1.199 4.585-3.556 7.75-8.498 5.655-1.507-.638-1.556-.627-1.56.354-.008 1.361 2.681 3.919 4.544 4.322 2.011.436 4.86-.222 6.158-1.422zm-265.645 45.345l-1.255-1.116 25.93.115 25.93.116 1.255 1.116 1.256 1.116-25.93-.116-25.93-.116zm160.537.773l-1.342-1.112 17.166.086 17.166.076 1.255 1.116 1.256 1.115-17.08-.085-17.078-.085zm99.24.525l-1.256-1.116 11.845.046 11.845.046 1.33 1.13 1.33 1.13-11.92-.058-11.92-.06-1.255-1.115zm32.84.211l-1.287-1.125 31.686-.023c29.918-.022 31.913-.074 35.742-.92 13.475-2.985 21.286-9.601 23.54-19.941 1.468-6.734-.046-13.176-4.751-20.213-1.788-2.673-1.692-3.064.472-1.93 7.565 3.96 9.843 21.773 3.958 30.947-4.129 6.436-11.806 11.037-22.338 13.387-3.828.854-5.736.904-34.892.923l-30.842.02zm122.752.566l-1.342-1.112 26.067.13 26.068.13 1.342 1.113 1.343 1.112-26.067-.13-26.068-.13zm-282.237-3.427c-19.752-2.352-31.607-15.97-31.506-36.192.054-10.861 3.957-20.752 11.332-28.715 2.054-2.218 2.583-3.04 2.083-3.234-1.458-.568-3.957.768-5.466 2.923-1.079 1.54-1.3 1.665-1.884 1.075-.557-.563-.57-.889-.08-2.053 1.245-2.965 4.9-4.795 8.566-4.29 1.994.275 2.28.182 4.114-1.325a118.352 118.352 0 002.197-1.834c.124-.117-2.404-.158-5.618-.09-5.493.113-5.958.194-7.76 1.352l-1.916 1.233.043-8.545.043-8.546 18.491.092 18.491.093-3.11 2.275c-8.452 6.184-13.926 13.242-16.41 21.157-2.976 9.482-3.786 36.847-1.402 47.364 1.307 5.767 4.643 10.441 8.815 12.353 2.024.927 3.02 1.074 7.288 1.073 6.673-.001 9.208-.959 13.325-5.035 3.277-3.245 4.693-6.115 5.442-11.026.226-1.482.488-17.408.583-35.391l.172-32.697 16.742.099c16.314.095 16.716.12 15.747.92-.547.452-4.254 3.598-8.238 6.992l-7.243 6.17-.127 28.795-.127 28.795 1.886 1.452 1.886 1.451.262-29.331.262-29.331 5.865-5.025 5.865-5.024-.008 1.579c-.007 1.437-.413 1.93-4.525 5.5l-4.518 3.923-.034 30.093-.035 30.094 4.253 3.34a830.688 830.688 0 005.372 4.194c1.103.841.87.852-16.296.78l-17.416-.072.016-3.195.016-3.194-2.752 2.522c-2.911 2.668-7.408 5.153-10.774 5.953-2.966.705-8.318.931-11.913.503zm157.885-2.727c.56-.427 4.557-3.487 8.884-6.8l7.867-6.025.17-28.83.171-28.831-8.712-6.943-8.712-6.944 28.41.013c35.18.017 38.13.284 45.918 4.154 7.708 3.83 11.328 9.712 10.831 17.601-.476 7.574-5.09 12.271-14.772 15.037-3.289.94-3.37.995-2.155 1.473 2.96 1.165 8.996.239 12.437-1.91.907-.566 2.591-2.067 3.743-3.335 5.97-6.573 5.734-17.25-.53-24.115-1.91-2.094-1.548-2.636.901-1.346 5.707 3.005 7.973 15.794 4.16 23.482-2.033 4.1-5.497 6.753-12.285 9.405-1.042.408-.984.484 1.413 1.853 3.92 2.238 7.258 5.831 9.134 9.834 1.46 3.112 1.644 3.933 1.805 8.022.273 6.903-1.186 11.464-5.07 15.856-2.196 2.483-7.418 5.63-11.597 6.988-6.97 2.265-10.475 2.45-43.14 2.286-28.46-.142-29.84-.188-28.871-.926zm38.48-12.442l.17-9.837 2.895 1.77c3.76 2.3 5.733 2.86 10.115 2.874 5.776.018 8.668-2 9.72-6.784.59-2.69.045-5.316-1.477-7.103l-1.004-1.179-.047 2.408c-.18 9.224-12.5 13.086-19.439 6.092-2.56-2.58-2.982-3.798-2.958-8.526.017-3.478.211-4.675 1.043-6.457 1.006-2.151 1.024-2.474 1.112-20.107l.09-17.92 8.693.043c8.203.04 8.804.102 10.669 1.089 1.216.643 2.27 1.633 2.74 2.574.422.84.716 1.577.656 1.637-.061.06-1.408-.542-2.994-1.339-2.822-1.417-3.036-1.452-9.981-1.627l-7.098-.179-.078 15.547-.077 15.547 1.079-.7c.593-.384 4.002-1.652 7.575-2.816 8.127-2.649 10.093-3.705 11.927-6.413 1.94-2.864 2.599-6.233 2.303-11.776-.498-9.343-2.748-12.666-9.581-14.15-1.309-.284-6.414-.537-11.346-.561l-8.966-.045-.193 38.576c-.106 21.218-.059 38.713.105 38.878.164.166 1.171.306 2.237.311l1.94.01.17-9.837zm13.888 9.45c10.46-1.145 14.196-5.162 15.215-16.36.776-8.513-.539-16.212-3.342-19.577-4.708-5.653-16.42-6.732-21.708-2.001-4.426 3.958-4.046 12.995.665 15.782 2.407 1.425 7.331 1.31 9.503-.22 3.285-2.314 2.89-8.612-.542-8.629-.963-.01-1.092.194-1.1 1.693-.012 2.463-1.042 3.69-3.09 3.68-4.88-.024-5.934-5.892-1.543-8.591 2.427-1.493 7.068-1.439 10.276.119 4.925 2.392 7.786 7.082 7.202 11.808-.609 4.93-3.442 8.171-8.377 9.579-3.864 1.102-7.855.54-13.642-1.925-.73-.31-.788.206-.824 7.354l-.038 7.689 3.708.01c2.04.01 5.476-.179 7.637-.416zm69.986 4.24c0-.09 3.96-3.239 8.8-6.995 7.788-6.047 8.799-6.98 8.805-8.123l.006-1.291-2.362.34c-1.298.188-4.391.317-6.873.288-4.736-.055-7.444-.879-8.462-2.574-.693-1.155-.276-1.247 2.414-.535 3.298.873 9.447.857 12.681-.036l2.618-.72.009-1.902.009-1.903-2.022 1.011c-2.611 1.306-7.806 2.15-10.746 1.746-4.684-.644-8.438-3.234-10.47-7.224-1.665-3.269-1.68-8.108-.036-11.288 2.816-5.445 10-7.168 14.376-3.447 4.818 4.095 3.408 12.311-2.108 12.284-2.553-.013-3.249-.333-4.024-1.85-1.415-2.77-.12-5.881 2.972-7.144 1.072-.438 1.26-.69.869-1.166-.808-.983-3.246-1.233-4.997-.513-5.372 2.214-5.92 10.493-.937 14.142 3.782 2.768 9.805 3.156 13.726.885 2.975-1.724 3.422-2.583 3.442-6.606l.018-3.455-11.28-17.954-11.28-17.954-9.599-6.574-9.6-6.573 14.293-.05c7.861-.022 20.593.038 28.294.141l14 .19-2.47 1.779c-1.358.979-5.249 3.815-8.646 6.302l-6.177 4.521 9.809 15.728c5.395 8.65 9.971 15.892 10.17 16.094.199.202.79-.351 1.314-1.23l.954-1.597-4.732-7.551a39358.51 39358.51 0 01-8.873-14.171l-4.143-6.62 3.917-2.793a569.094 569.094 0 005.383-3.878l1.467-1.084-.007 1.39c-.007 1.217-.479 1.742-3.808 4.227l-3.802 2.838 7.831 12.504c4.307 6.878 7.989 12.341 8.182 12.141.193-.2 3.535-6.102 7.426-13.116 5.614-10.118 6.959-12.862 6.51-13.283-.31-.292-3.955-3.202-8.098-6.467l-7.534-5.936 18.334.092c15.466.077 18.23.186 17.672.698-.364.334-4.215 3.427-8.558 6.874l-7.897 6.266-7.484 13.587-9.64 17.499-2.155 3.912 1.303.938 1.303.938 9.808-17.64 9.807-17.64 5.513-4.383c3.033-2.41 5.782-4.587 6.11-4.836.473-.358.565-.122.444 1.144-.136 1.429-.67 2.011-5.1 5.562l-4.948 3.966-9.608 17.256c-8.357 15.007-9.498 17.285-8.755 17.484.654.176.27.53-1.645 1.518-2.973 1.534-5.71 4.458-6.453 6.895-.296.969-.547 3.861-.558 6.428l-.02 4.667 8.727 6.962c4.8 3.83 8.726 7.034 8.726 7.123 0 .088-11.732.102-26.069.03s-26.067-.204-26.066-.295zm-283.463-6.31c-2.102-2.266-2.72-6.031-3.15-19.209-.413-12.602.222-29.3 1.308-34.428 1.477-6.975 4.87-12.983 9.866-17.471 3.591-3.227 4.376-3.665 4.37-2.439-.003.514-1.378 2.386-3.12 4.246-3.968 4.237-5.996 7.555-7.695 12.59-1.693 5.02-2.232 9.479-2.656 21.986-.505 14.901.598 30.058 2.544 34.957.438 1.103-.344.979-1.467-.232zm323.774-5.56c-.843-1.218-.934-10.317-.131-13.155.634-2.242 2.907-4.401 5.571-5.294 1.896-.636 2.045-.63 2.035.073-.016 1.153-.605 1.846-2.278 2.679-2.724 1.357-3.286 2.986-3.542 10.266-.124 3.54-.39 6.435-.593 6.434-.202 0-.68-.453-1.062-1.004zM148.832 1140.37c-1.527-.529-2.18-1.187-2.653-2.67-1.208-3.797.057-6.085 4.004-7.246.954-.281 1.028-2.56 1.205-37.003l.19-36.704 1.39 1.72c.766.945 3.232 6.176 5.479 11.625 4.638 11.245 6.667 14.59 11.771 19.408 6.883 6.498 7.797 6.679 3.227.636-6.07-8.024-9.58-15.838-11.145-24.798-.294-1.686-.216-1.839.692-1.347 1.273.688 1.99 2.152 3.59 7.326 1.54 4.982 4.6 11.32 7.157 14.822 4.324 5.923 13.98 14.378 18.125 15.87 1.355.489 5.055.756 10.503.759 7.435.01 8.929-.166 12.888-1.467 5.933-1.95 9.435-4.052 11.535-6.924 1.486-2.031 1.73-2.88 1.744-6.081.009-2.047-.245-4.217-.566-4.822-.876-1.656-7.36-6.122-11.89-8.19-2.204-1.006-13.56-5.097-25.234-9.09-11.675-3.994-22.837-8.083-24.803-9.087-4.044-2.065-8.01-5.525-10.468-9.133-2.59-3.801-1.964-4.236 1.372-.952 3.776 3.717 9.031 7.141 14.475 9.432 2.299.967 11.79 4.162 21.091 7.1 21.231 6.706 25.989 8.595 30.753 12.206 3.054 2.314 2.71 1.2-.603-1.959-5.792-5.522-14.077-9.697-39.501-19.909-22.478-9.027-26.657-11.094-29.984-14.828-3.774-4.237-5.138-8.206-5.416-15.76-.356-9.682 2.005-15.967 8.102-21.56 8.992-8.248 24.587-12.229 41.689-10.64 4.044.375 12.569 1.77 18.943 3.1l11.59 2.419 4.354-1.001c2.395-.551 5.727-1.466 7.405-2.034 1.677-.568 3.049-.902 3.048-.742 0 .16-5.157 7.44-11.458 16.177-9.633 13.357-11.5 16.275-11.735 18.33-.386 3.394.59 5.772 2.275 5.54 1.105-.151 1.351-.62 1.608-3.064.41-3.906 1.53-4.43 8.429-3.948 5.902.413 7.548 1.174 8.73 4.04 2.153 5.22.352 10.99-4.474 14.337-1.254.87-1.3 1.041-.464 1.703 1.947 1.54 6.999 7.864 8.912 11.157 1.098 1.888 2.675 5.419 3.506 7.846 1.282 3.747 1.504 5.376 1.467 10.793-.027 4.076-.403 7.74-1.04 10.146-4.301 16.23-18.197 26.507-37.857 27.999-6.056.459-11.465-.406-23.184-3.71-14.302-4.03-20.276-4.073-22.515-.16-.508.889-.853 5.344-1.097 14.184-.343 12.411-.405 12.937-1.672 14.192-.966.957-2.067 1.325-4.134 1.385-1.55.044-3.359.367-4.02.717-1.494.791-2.74.758-5.336-.14zm10.781-3.495c1.042-.754 1.157-1.8 1.478-13.479.313-11.402.47-12.892 1.575-14.976 2.777-5.237 7.349-5.74 20.254-2.224 17.072 4.65 16.932 4.624 25.21 4.702 5.806.055 8.805-.188 11.604-.94 11.995-3.228 21.408-11.543 25.152-22.222 1.15-3.28 1.358-4.987 1.352-11.125-.006-6.469-.18-7.72-1.615-11.608-.885-2.396-2.744-6.135-4.13-8.307-2.477-3.878-10.201-12.045-11.426-12.08-.343-.01.994-.792 2.971-1.74 4.441-2.13 6.004-4.341 6.023-8.526.014-3.157-.968-4.762-2.92-4.771-.912-.01-1.12.41-1.128 2.236-.013 2.723-1.586 4.882-4.702 6.454-3.977 2.006-8.059 1.309-11.404-1.948-2.87-2.793-3.216-4.633-2.702-14.339.514-9.688.28-10.618-3.499-13.968-4.437-3.931-10.991-5.854-20.103-5.896-9.923-.045-15.812 1.775-19.209 5.937-1.63 1.997-1.797 2.58-1.814 6.348-.016 3.485.235 4.587 1.567 6.876 3 5.158 4.926 6.189 22.128 11.849 30.709 10.103 42.164 17.649 46.603 30.698 1.682 4.946 1.783 14.774.205 20.012-2.692 8.934-8.6 15.919-16.846 19.913-6.793 3.29-11.067 4.237-18.994 4.205-7.308-.025-9.51-.465-23.47-4.65-11.7-3.509-15.314-4.137-17.792-3.095-5.849 2.46-7.498 8.581-7.128 26.453.11 5.264.302 9.898.427 10.297.297.945.94.92 2.333-.086zm8.06-117.795c-1.619-6.332-.805-9.78 3.222-13.652 3.431-3.298 7.513-4.885 14.872-5.78 8.437-1.026 17.578.526 27.115 4.604 1.009.431 1.02.36.204-1.238-3.034-5.933-10.096-8.964-21.005-9.014-13.03-.06-25.277 4.814-28.682 11.414-2.726 5.284-2.057 9.96 2.093 14.619 1.423 1.597 2.69 2.8 2.818 2.675.127-.126-.16-1.759-.637-3.628zm340.962 121.373c-3.507-.745-5.591-1.994-7.931-4.754-4.53-5.342-3.246-12.823 2.732-15.91 3.753-1.94 9.428-.368 11.904 3.295 1.675 2.479 1.62 4.771-.209 8.653-.948 2.014-1.278 3.337-.92 3.698.982.99 2.288-.036 2.929-2.305.419-1.482.713-21.698.898-61.703l.276-59.498-7.956-6.749a5414.49 5414.49 0 00-9.39-7.95l-1.432-1.204 33.588.135 33.588.134-9.696 7.214c-5.332 3.968-9.696 7.367-9.697 7.553 0 .254 48.327 72.22 49.349 73.485.107.134.196-1.563.197-3.769l.002-4.012-21.354-31.709c-11.744-17.44-21.464-31.889-21.599-32.11-.227-.37 6.711-5.856 10.4-8.222l1.6-1.027-.008 1.8c-.007 1.562-.55 2.191-4.086 4.738-2.503 1.803-3.924 3.199-3.682 3.615.41.702 38.236 56.927 38.588 57.356.11.133.258-12.543.33-28.169l.13-28.411-9.592-8.995-9.59-8.995 11.41-.105c6.277-.058 16.33-.012 22.34.102l10.928.208-10.423 8.942-10.424 8.943-.179 37.807-.179 37.806 2.515 2.08c1.384 1.145 2.685 2.082 2.891 2.083.206 0 .475-17.55.596-39.004l.221-39.005 6.407-5.481c9.024-7.718 8.65-7.501 8.639-5.008-.01 1.894-.484 2.452-6.085 7.148l-6.076 5.094-.2 39.73-.199 39.731 5.83 4.522 5.831 4.522-37.018-.17c-20.36-.093-36.768-.388-36.464-.655.304-.267 5.336-4.188 11.183-8.714 5.846-4.527 10.772-8.458 10.946-8.737.174-.278-8.577-13.68-19.446-29.782l-19.763-29.276-.518 49.913-.519 49.913-1.368 2.747c-1.7 3.41-5.247 6.484-8.766 7.595-3.567 1.126-8.505 1.5-11.479.867zm15.093-7.335c.513-.562 1.468-2.188 2.123-3.615 1.17-2.546 1.196-3.568 1.44-54.266l.25-51.671-2.337-3.295c-1.285-1.813-2.453-3.296-2.595-3.297-.142 0-.379 26.36-.526 58.58-.148 32.22-.048 58.582.222 58.583.27 0 .91-.457 1.423-1.019zm-152.911 3.717c-.538-.305-.975-1.107-.972-1.783.003-.677 3.678-11.414 8.167-23.86 18.446-51.144 25.317-77.67 26.46-102.154l.386-8.263-8.402-.04c-4.621-.02-9.892.254-11.714.611-4.574.897-8.983 3.646-10.489 6.538-1.608 3.09-1.685 8.385-.147 10.1 1.645 1.835 2.068 1.499 2.083-1.657.01-2.246.331-3.23 1.466-4.488.799-.887 2.177-2.471 3.061-3.52 2.082-2.472 4.37-2.964 13.648-2.939l7.396.02-.007 1.393c-.006 1.391-.02 1.394-7.72 1.56-6.298.136-8.014.362-9.355 1.233l-1.643 1.066 1.62 1.074c2.063 1.366 3.093 3.247 3.108 5.674.029 4.726-4.165 7.966-9.685 7.483-2.227-.195-3.089-.068-3.091.458-.006 1.201 2.734 4.109 4.615 4.898 3.956 1.66 9.831-.602 11.914-4.586 1.218-2.328 1.096-6.758-.268-9.802-1.365-3.045-1.08-3.585 1.056-2.004 4.993 3.696 4.748 11.475-.519 16.539-6.36 6.113-15.01 4.732-19.874-3.173-.954-1.549-1.76-2.816-1.792-2.814-.032 0-.098 3.59-.148 7.975-.077 6.875-.293 8.582-1.574 12.412-2.219 6.63-5.407 11.83-10.058 16.405-7.455 7.334-13.97 9.714-26.482 9.676-8.086-.023-10.21-.528-12.147-2.886-1.138-1.383-.637-1.47 3.177-.555 7.914 1.9 19.213.627 26.008-2.929 1.655-.866 5.11-3.662 7.677-6.212 7.135-7.09 10.002-13.8 10.644-24.912.812-14.062-4.533-24.348-17.202-33.1-4.45-3.075-4.604-3.251-2.829-3.243 5.425.025 16.321 9.46 19.736 17.089l.99 2.212.296-4.237c.707-10.116 6.761-14.724 21.119-16.071 3.457-.324 25.481-.39 54.416-.161l48.608.383-10.514 8.93-10.514 8.93-.17 36.94-.169 36.938 2.25 1.8c1.238.989 2.41 1.799 2.603 1.8.193 0 .429-16.898.523-37.554l.173-37.556 7.073-6.057c8.906-7.628 8.649-7.48 8.637-4.967-.008 1.84-.528 2.447-6.085 7.107l-6.076 5.094-.214 38.582-.214 38.583 7.074 5.53 7.075 5.53-16.96.077c-9.33.042-24.592-.028-33.918-.155l-16.957-.232 11.5-8.938 11.5-8.937-.118-8.411-.118-8.411-13.464-.217-13.464-.217-1.304 3.05c-2.95 6.895-13.011 26.15-17.617 33.716-6.27 10.3-18.997 28.343-20.747 29.413-.255.156-.797.075-1.204-.178-.542-.338.348-1.992 3.326-6.182 10.772-15.151 20.332-31.307 29.477-49.812l6.372-12.894 14.465.066 14.465.066.01-2.32.01-2.32-16.426-.075-16.426-.075-4.016 9.407c-7.77 18.203-18.66 38.423-26.525 49.254-4.453 6.132-12.018 15.137-13.041 15.524-.456.173-1.268.065-1.806-.24zm78.267-79.596c.002-.372-5.507-.605-15.368-.65-9.86-.045-15.37.137-15.372.51-.002.371 5.507.605 15.367.65 9.86.045 15.371-.138 15.373-.51zm-19.793-15.751c2.55-7.956 5.223-18.166 7.202-27.518l1.594-7.533 5.615-.14 5.616-.14.012-2.59.012-2.589-7.99-.036-7.99-.036-1.035 5.907c-1.58 9.006-3.797 18.275-7.016 29.327-1.606 5.514-3.072 10.417-3.258 10.895-.277.713.167.84 2.475.702l2.814-.167 1.95-6.08zm19.787-12.815l-.065-19.286-4.14-.188-4.141-.188-.688 3.936c-1.386 7.932-6.706 27.482-9.278 34.093-.274.704 1.13.84 9.026.876l9.35.043-.064-19.286zM629.5 1138.02c-.538-.304-.975-1.107-.972-1.783.003-.677 3.678-11.414 8.167-23.86 18.447-51.144 25.318-77.67 26.46-102.154l.386-8.263-8.402-.04c-4.62-.02-9.892.255-11.714.612-4.574.897-8.983 3.645-10.489 6.537-1.608 3.09-1.685 8.385-.147 10.1 1.645 1.835 2.068 1.5 2.083-1.657.01-2.246.331-3.23 1.466-4.488.8-.887 2.177-2.471 3.061-3.52 2.082-2.471 4.37-2.964 13.648-2.939l7.396.02-.007 1.394c-.007 1.39-.02 1.393-7.72 1.56-6.298.135-8.014.361-9.355 1.232l-1.643 1.067 1.621 1.073c2.062 1.367 3.092 3.247 3.107 5.674.03 4.726-4.165 7.967-9.685 7.483-2.227-.195-3.089-.068-3.091.458-.006 1.201 2.735 4.109 4.615 4.898 3.956 1.66 9.831-.602 11.915-4.586 1.217-2.327 1.095-6.758-.27-9.802-1.364-3.045-1.08-3.585 1.058-2.004 4.992 3.696 4.747 11.475-.52 16.539-6.618 6.362-15.803 4.51-20.45-4.121-3.219-5.98-4.021-16.282-1.62-20.804 2.977-5.604 8.843-8.427 19.61-9.438 3.458-.324 25.482-.39 54.417-.161l48.608.383-10.514 8.93-10.514 8.93-.17 36.94-.168 36.938 2.25 1.8c1.238.989 2.408 1.8 2.602 1.8.193 0 .429-16.898.523-37.554l.173-37.556 7.073-6.057c8.906-7.628 8.649-7.48 8.637-4.967-.008 1.84-.528 2.447-6.085 7.107l-6.075 5.094-.215 38.582-.215 38.583 7.075 5.53 7.075 5.53-16.961.077c-9.328.042-24.591-.028-33.918-.155l-16.956-.232 11.5-8.938 11.5-8.937-.118-8.411-.118-8.411-13.464-.217-13.464-.218-1.305 3.05c-2.95 6.896-13.01 26.152-17.616 33.716-6.27 10.3-18.998 28.344-20.747 29.414-.256.156-.797.076-1.204-.178-.542-.338.348-1.992 3.326-6.182 10.772-15.151 20.332-31.307 29.477-49.812l6.372-12.894 14.465.067 14.464.066.01-2.32.011-2.32-16.426-.075-16.426-.075-4.016 9.407c-7.77 18.203-18.66 38.423-26.526 49.254-4.453 6.132-12.017 15.137-13.04 15.524-.456.172-1.269.065-1.806-.24zm78.267-79.596c.002-.372-5.507-.605-15.367-.65-9.86-.045-15.372.138-15.373.51-.002.372 5.507.605 15.367.65 9.86.045 15.371-.138 15.373-.51zm-19.793-15.75c2.55-7.957 5.223-18.167 7.202-27.519l1.594-7.533 5.615-.14 5.616-.14.012-2.59.012-2.589-7.99-.036-7.99-.036-1.035 5.908c-1.58 9.005-3.797 18.275-7.015 29.326-1.606 5.514-3.073 10.417-3.259 10.895-.277.713.167.84 2.475.703l2.814-.167zm19.787-12.816l-.065-19.286-4.14-.188-4.141-.188-.688 3.936c-1.386 7.932-6.706 27.482-9.278 34.093-.273.704 1.13.84 9.026.876l9.35.043-.064-19.286zm-690.858 80.234l-1.621-1.44 60.756.26c33.416.143 60.756.151 60.757.018 0-.133-4.951-8.944-11.004-19.58l-11.006-19.34 1.798-1.487c2.935-2.426 3.91-6.626 2.135-9.186-1.334-1.923-1.99-1.58-2.002 1.048-.008 1.744-.393 2.726-1.501 3.824-1.313 1.3-1.8 1.43-4.07 1.079-2.052-.317-2.65-.213-2.932.51-.219.564 3.63 7.981 10.137 19.539 5.77 10.246 10.37 18.75 10.221 18.896-.147.146-26.01.078-57.47-.144l-57.201-.41 11.328-8.852 11.328-8.852.17-36.95.169-36.95-11.274-9.009-11.274-9.008 54.91.103c30.2.057 55.008.203 55.127.323.12.121-4.04 7.338-9.243 16.039-12.92 21.602-13.556 23.097-11.095 26.078l1.134 1.374.04-2.32c.02-1.276.23-2.606.467-2.956 1.151-1.707 6.007-2.677 6.813-1.36.195.32 1.088.584 1.983.589 3.729.017 6.319 4.562 5.525 9.696-1.337 8.645-13.414 10.529-18.857 2.942-.93-1.297-1.953-3.187-2.273-4.2-1.137-3.604-1.736-11.838-1.684-23.148l.052-11.47-14.5-.067-14.5-.067-.085 18.56c-.047 10.208.027 18.56.165 18.561.138 0 3.568-4.16 7.622-9.245 4.054-5.086 7.484-9.246 7.622-9.245.138 0 .207 9.658.153 21.461-.054 11.803-.294 21.447-.533 21.431-.24-.016-2.376-2.636-4.748-5.822l-4.313-5.793-3.056-.014-3.056-.014-.1 21.75-.099 21.751 15.95.073 15.95.073.094-20.329c.103-22.505.03-22.043 3.949-25.451 2.013-1.751 2.39-1.862 5.539-1.62 2.444.189 3.751.613 4.724 1.535.739.702 1.94 1.278 2.667 1.281 1.864.01 4.468 1.694 5.229 3.384 1.814 4.031 1.13 9.558-1.482 11.959l-1.304 1.2 11.425 20.062c6.284 11.035 11.43 20.259 11.434 20.498.005.24-27.775.308-61.73.153l-61.74-.283-1.62-1.439zm47.54-34.284l.107-23.173 3.489-.157 3.489-.156-1.556-2.204-1.556-2.204-4.678.145-4.678.145-.267 25.375-.267 25.375 2.906.013 2.906.013zm49.494-30.705c3.22-2.149 4.277-5.423 2.735-8.48-1.065-2.11-2.157-2.203-2.166-.182-.004.94-.528 2.365-1.164 3.166-1.537 1.936-5.506 3.473-7.698 2.981-1.589-.356-1.663-.3-1.067.826 1.574 2.975 6.186 3.807 9.36 1.69zm-49.251-22.104l.093-20.3 16.24.074 16.24.074.01-2.328.011-2.328-18.996.063-18.996.063-.254 22.475-.255 22.474 2.907.014 2.907.013zm191.76 88.19l-1.62-1.44 33.463.135 33.463.135 1.62 1.439 1.622 1.439-33.464-.135-33.463-.134zm172.376.752l-1.734-1.434 33.557.154 33.557.145 1.717 1.458 1.716 1.458-33.54-.175-33.54-.175-1.733-1.434zm123.542.602l-1.734-1.434 35.38.162 35.381.162 1.734 1.434 1.733 1.434-35.38-.162-35.38-.161zm135.142.583l-1.733-1.435 33.556.154 33.557.145 1.717 1.458 1.716 1.458-33.54-.175-33.54-.174-1.733-1.435zm-433.788-8.557c.305-.272 5.465-4.316 11.468-8.986l10.914-8.492.137-36.926.136-36.927-11.195-9.042-11.194-9.041 34.904-.01c22.953 0 36.592.22 39.832.655 16.891 2.263 30.07 12.695 33.208 26.289 1.08 4.678 1.067 11.262-.032 16.335-2.297 10.599-11.216 20.365-22.012 24.105-10.19 3.529-23.207 2.464-29.923-2.448l-2.408-1.761-.082 17.946-.082 17.946 6.182 4.851c3.4 2.669 6.586 5.172 7.08 5.562.708.561-6.307.682-33.294.573-19.088-.078-33.947-.357-33.638-.634zm50.387-55.913c.108-23.497.32-42.846.474-42.997.64-.634 11.38-1.25 15.397-.883 5.19.474 10.84 2.152 12.986 3.855 2.2 1.747 2.324 1.148.4-1.918-1.909-3.04-5.885-5.324-10.978-6.307-1.716-.331-7.784-.624-13.482-.65l-10.361-.047-.2 43.505-.198 43.504 1.3 1.118c2.135 1.837 4.18 3.5 4.328 3.521.077.011.227-19.204.334-42.7zm24.785 9.342c2.599-1.185 5.21-4.46 6.338-7.95 1.244-3.848 1.933-25.764.96-30.558-.906-4.47-4.044-8.072-8.565-9.832-3.548-1.38-13.774-2.263-17.767-1.533l-2.075.38-.068 14.746-.067 14.746 2.095-1.408c2.795-1.878 5.528-2.302 9.292-1.441 5.436 1.242 7.7 4.779 6.982 10.903-.449 3.821-2.488 5.684-6.204 5.667-3.782-.017-5.261-1.348-5.246-4.721.013-2.831 1.446-4.287 4.209-4.274 1.904.01 2.048-.716.461-2.318-1.43-1.443-4.698-1.551-6.96-.229-2.562 1.498-4.277 5.008-3.945 8.077.9 8.327 12.063 13.618 20.56 9.745zm-9.583-1.633c-.715-.523-1.3-1.167-1.298-1.43 0-.264 1.69-.58 3.754-.702 2.933-.173 4.071-.518 5.21-1.579 3.06-2.846 3.336-7.825.726-13.04-1.406-2.808-1.303-2.999 1.108-2.07 3.581 1.38 5.13 11.12 2.406 15.124-1.723 2.531-4.32 3.981-7.793 4.35-2.064.22-3.158.045-4.113-.653zm-230.06 17.734l-1.585-2.092.088-19.23c.049-10.578.284-19.216.523-19.197.24.019 1.022.785 1.74 1.704 1.305 1.67 1.305 1.676 1.063 21.288l-.243 19.619zm24.997-48.212c-.99-1.525-.988-1.528 5.858-12.834 6.214-10.264 6.92-11.212 7.642-10.25.437.582.801 1.407.81 1.834.008.426-2.986 5.725-6.653 11.775l-6.668 11zm116.118-3.543c-.954-1.47-.924-1.525 5.803-10.733 3.719-5.091 6.96-9.256 7.204-9.255.243 0 .769.621 1.17 1.377.677 1.28.28 1.98-5.832 10.269-3.608 4.891-6.745 9.102-6.973 9.357-.227.254-.845-.202-1.372-1.015zM569.77 984.76c-3.505-.952-7.106-2.015-8.002-2.363-3.215-1.247-5.606-.821-7.691 1.37l-1.924 2.022-5.84-.027c-3.21-.014-5.837-.267-5.836-.56.002-.293-.154-.946-.345-1.451-.302-.797.358-.916 4.957-.895l5.306.024 2.167-2.258c3.356-3.495 4.999-3.55 14.485-.488 12.772 4.124 18.411 3.49 24.96-2.806 1.348-1.297 3.237-3.596 4.197-5.11 1.738-2.74 1.745-2.744 1.748-.97.01 5.465-3.562 9.974-10.418 13.156-5.425 2.517-9.502 2.598-17.764.355zm3.515-7.536c-2.23-.629-6.777-2.086-10.105-3.238-7.745-2.682-9.402-2.703-11.978-.15-1.09 1.08-1.983 2.38-1.986 2.89-.003.786-.85.925-5.514.904-6.211-.03-6.022.166-4.554-4.701 2.072-6.87 6.31-12.715 10.999-15.171 1.811-.949 3.352-1.224 6.702-1.197 3.776.03 5.304.404 11.587 2.841 8.86 3.437 13.398 4.075 15.764 2.217.864-.678 1.902-2.137 2.307-3.242l.737-2.009 5.184.024 5.185.024-.37 3.003c-.492 3.998-3.753 10.61-6.716 13.616-4.862 4.933-10.095 6.204-17.242 4.19z" fill="#ffd42a" stroke="#002d4e" stroke-width="1.585"/><circle r="12.341" cx="713.987" cy="947.195" fill="#fff"/><path d="M386.006 946.36c.68-.09 1.034-.185 1.449-.383.176-.084.288-.168.478-.36.444-.448.63-.876.657-1.516.013-.31.008-.414-.05-.632a2.129 2.129 0 00-1.145-1.443c-.367-.183-.653-.264-1.188-.335-.298-.04-.784-.053-2.476-.064l-2.106-.014v4.824l2.013-.014c1.578-.01 2.09-.024 2.368-.062z" fill="#fff"/><path d="M202.605 899.787c-18.814 18.82-52.253 14.654-77.735 8.925-29.981-6.74-59.109-24.684-79.186-48.864-20.24-24.375-32.118-57.368-35.339-89.438-2.482-24.715-4.675-56.595 12.95-73.318 19.13-18.154 52.096-13.177 77.296-7.097 29.197 7.044 57.531 24.642 76.995 48.406 20.345 24.84 31.68 58.365 35.34 90.809 2.665 23.635 6.147 54.104-10.321 70.577z" fill="#ffd42a" stroke="#002d4e" stroke-width="6.503"/><path d="M34.027 690.887s.68 40.871 7.01 59.856c8.934 26.794 25.449 50.546 42.497 72.65 17.996 23.335 38.805 44.794 62.211 62.14 13.097 9.706 42.935 22.846 42.935 22.846" fill="none" stroke="#002d4e" stroke-width="6.503"/><path d="M202.83 125.426l-6.164 10.413-10.797 1.876-15.322-1.353-9.452-10.6zM585.112 885.23l174.76-8.808c12.113-8.39 2.877-28.016 5.948-41.164 5.005-17.37-5.605-26.304-19.205-33.623l-97.019-69.725-3.896-99.173-59.211-60.89c4.296-14.184 19.933-23.865 28.666-36.287 19.188-24.697 46.087-43.867 57.71-73.986 2.326-15.305 3.038-30.152-8.976-41.394L493.557 163.425l82.501-96.919c35.354 6.3 85.693-22.232 81.673-58.314-42.536-10.323-53.508 10.976-70.97 21.918-21.854 4.207-13.399 31.477-29.447 41.887l-78.727 91.727 169.712 264.483c4.605 18.061-16.056 23.612-25.428 34.753l-80.199 68.936c-17.669-12.471-34.075-28.763-52.517-38.895-32.098-1.855-65.454.093-96.778-4.1l-72.878-56.458 60.577-61.958L368.36 37.468c-12.817-10.768-23.903-26.18-37.767-34.135-42.481.777-85.39-.796-127.607 1.434-17.263 8.412-37.86 12.249-53.083 23.462-4.339 13.512-27.265 13.552-41.856 25.369-13.53 10.957-29.337 30.495-30.91 52.334 12.568 8.682 31.678 4.496 43.966 11.18 11.217 3.933-17.088 20.73-23.378 28.45-21.09 5.99-67.209 15.95-50.871 33.349 15.94-1.381 30.299-1.446 47.731-4.708 15.697-10.637 27.497-37.459 49.414-27.02 9.844 8.972 33.01 10.632 26.487 28.587-5.24 12.585-24.374 15.903-35.163 24.787l-92.1 53.869c-19.128 13.245 3.428 43.412-16.425 55.471-11.124 11.666-27.19 21.582-22.94 40.55l.394 74.382c11.653 9.724 22.006 20.158 20.759 36.935l28.78 193.439-48.354 51.754c2.712 34.73 27.354 1.246 36.363-10.063 23.733-5.214 49.738-6.645 73.3.566 11-13.174-18.929-23.685-1.638-40.833l15.611-45.088 118.854 79.612c29.482 3.784 43.056-32.938 69.908-41.564 26.551-19.987 57.532-32.691 90.813-30.215 24.006-1.918 13.405 7.876-4.467 4.72-15.851 1.268-34.04-3.817-44.563 11.935l-64.179 56.83.4 83.641L418.3 845.415c-4.228 16.894-14.424 23.87-30.954 20.32l-162.292 4.128c-17.116 12.802-43.772 20.873-43.67 47.014m-.075.799l385.793 2.608c8.057-12.361 23.343-22.277 18.137-39.126-.906-15.317 2.52-33.235-15.25-38.428l-52.073-35.158c12.099-12.901 25.683-22.982 43.192-25.617 19.263 3.365 38.1 15.669 57.201 22.419 17.435 7.46 34.869 14.922 52.303 22.383-6.208 17.607-24.765 11.064-38.902 13.166-16.796 2.355-35.941-4.044-47.907 11.807" fill="#002d4e" stroke="#ffd42a" stroke-width="6.503"/><path d="M511.498 810.324l-31.087-17.366 5.406-10.326 30.637-10.794 20.274-10.795 4.055-3.755.901-38.487M409.676 846.463l73.438 41.303 47.307-.47 7.659-10.794" fill="none" stroke="#ffd42a" stroke-width="6.503" stroke-linecap="round"/><path d="M584.486 575.651l2.703 169.434s-.45 4.693-.901 6.101c-.45 1.408-2.253 2.816-3.605 5.163-1.351 2.347-27.933 29.1-27.933 29.1" fill="none" stroke="#ffd42a" stroke-width="6.503"/><path d="M652.067 843.413c10.847-3.131 21.869-10.68 33.565-13.377 10.437-2.406 20.28-2.346 31.989-2.346M128.367 142.827l21.982-21.572 19.912.498" fill="none" stroke="#ffd42a" stroke-width="6.503" stroke-linecap="round"/><path d="M153.854 121.587s-7.646 8.297-7.965 9.624c-.318 1.328-1.593 8.297-1.593 8.297" fill="none" stroke="#ffd42a" stroke-width="6.503" stroke-linecap="round"/><path d="M175.232 159.271c6.09-2.994 13.371-3.394 18.909 1.249 6.344 3.573 13.624 3.895 20.416 1.729 13.503-7.378 26.617-15.837 39.97-23.629l.901-89.175-35.592-24.406c-7.809-.241-15.637-1.96-23.429-.939-6.564 6.77-16.576 4.78-24.892 6.805-11.217 1.661-21.221 7.82-31.846 11.675-9.551 4.507-19.39 8.942-28.339 14.453-4.842 7.267-11.397 14.14-10.579 23.74-.125 7.378-2.54 14.298-1.21 21.708" fill="none" stroke="#ffd42a" stroke-width="6.503"/><path d="M124.258 109.122l50.01 3.285 19.599-16.662s3.153-.938 5.406-.938c2.253 0 4.956 0 7.66.938 2.703.939 5.856 3.051 6.532 3.99.676.938 2.028 2.347 1.577 5.397-.45 3.051-.901 4.928-1.577 7.04-.676 2.113-1.802 6.806-1.802 6.806" fill="none" stroke="#ffd42a" stroke-width="6.503" stroke-linecap="round"/><path d="M254.24 138.221l-.451 19.478L37.754 295.452" fill="none" stroke="#ffd42a" stroke-width="6.503"/><path d="M15.452 427.338l37.395 14.08 2.478-89.88s.45-2.111 1.127-3.285c.675-1.173 2.027-3.52 3.153-4.459 1.127-.938 3.154-2.346 4.956-3.754 1.802-1.408 180.893-122.734 180.893-122.734" fill="none" stroke="#ffd42a" stroke-width="6.503" stroke-linecap="round"/><path d="M52.397 440.949l12.615 9.856 43.702-38.955.901-45.058c66.489-44.748 177.045-121.38 230.585-158.78 4.697-3.281 10.74-7.207 13.511-12.707 2.395-4.755 1.832-10.922 2-16.012 1.617-49.165 1.917-106.577 2.153-146.205l-25.23-29.569M87.539 688.294l-1.352-194.309 1.802-3.285 2.704-3.755 62.625-41.772-1.802-41.772" fill="none" stroke="#ffd42a" stroke-width="6.503"/><path d="M108.264 411.38l.45 16.897 205.447-130.01c9.154-5.282 21.58 1.068 17.199 12.979m-9.54 120.785l-35.593-30.976s-3.688-30.614-5.308-46.727c-.332-3.304-.076-7.639 2.481-9.626 15.332-11.91 30.085-24.324 48.263-33.573" fill="none" stroke="#ffd42a" stroke-width="6.503"/><path d="M289.832 404.34l40.098-30.038 1.733-70.217" fill="none" stroke="#ffd42a" stroke-width="6.503" stroke-linecap="round"/><path d="M106.011 476.15l6.758 116.398 15.319 15.019" fill="none" stroke="#ffd42a" stroke-width="6.503"/><path d="M188.415 62.436c3.12-2.106 6.572-5.038 10.157-6.285 4.08-1.55 2.626-1.965 6.776-3.356 2.902-1.132 13.38-2.43 16.8-2.822 3.307-.601 5.321 2.42 2.687 4.356-1.636 1.311-10.366 4.595-9.878 6.632-3.693 6.617-5.72 12.242-18.791 6.821-3.254 1.152.531-.225-3.96 1.398-2.954.356-4.382.119-7.306-.956.258-2.317 1.197-4.782 3.515-5.788z" fill="#ffd42a" fill-rule="evenodd"/><path d="M597.536 33.674s15.473-6.362 23.542-8.332c5.957-1.454 18.193-2.533 18.193-2.533" fill="none" stroke="#ffd42a" stroke-width="7.81" stroke-linecap="round"/><path d="M591.127 69.382c.658-1.37 5.354-10.245 9.334-14.217 3.59-3.584 12.662-8.218 12.662-8.218m23.681 11.641s2.312-7.764 4.35-11.179c1.112-1.862 4.201-4.913 4.201-4.913" fill="none" stroke="#ffd42a" stroke-width="9.112" stroke-linecap="round"/><circle r="15.52" cy="942.257" cx="695.909" fill="none" stroke="#002d4e" stroke-width="3.507"/><path d="M694.962 940.854c.964 0 1.666-.193 2.087-.561.42-.35.649-.947.649-1.789 0-.824-.228-1.403-.65-1.771-.42-.35-1.122-.526-2.086-.526h-1.964v4.647h1.964m-1.964 3.21v6.839h-4.665v-18.08h7.12c2.385 0 4.121.402 5.226 1.21 1.122.788 1.666 2.051 1.666 3.787 0 1.193-.28 2.175-.86 2.946-.578.754-1.437 1.333-2.612 1.684.649.158 1.21.491 1.718 1 .509.508 1.017 1.28 1.526 2.332l2.543 5.12h-4.963l-2.21-4.489c-.438-.894-.894-1.526-1.35-1.841-.456-.333-1.07-.509-1.824-.509h-1.315" fill="#002d4e"/></g></svg>