<?xml version="1.0" encoding="UTF-8" standalone="no"?>
<!-- Created with Inkscape (http://www.inkscape.org/) -->

<svg
   xmlns:dc="http://purl.org/dc/elements/1.1/"
   xmlns:cc="http://creativecommons.org/ns#"
   xmlns:rdf="http://www.w3.org/1999/02/22-rdf-syntax-ns#"
   xmlns:svg="http://www.w3.org/2000/svg"
   xmlns="http://www.w3.org/2000/svg"
   xmlns:sodipodi="http://sodipodi.sourceforge.net/DTD/sodipodi-0.dtd"
   xmlns:inkscape="http://www.inkscape.org/namespaces/inkscape"
   id="svg2"
   version="1.1"
   inkscape:version="0.92.2 5c3e80d, 2017-08-06"
   width="207.59908"
   height="344.62122"
   viewBox="0 0 770.35662 1278.8171"
   sodipodi:docname="Spain_Rugby_logo.svg">
  <metadata
     id="metadata8">
    <rdf:RDF>
      <cc:Work
         rdf:about="">
        <dc:format>image/svg+xml</dc:format>
        <dc:type
           rdf:resource="http://purl.org/dc/dcmitype/StillImage" />
        <dc:title></dc:title>
      </cc:Work>
    </rdf:RDF>
  </metadata>
  <defs
     id="defs6" />
  <sodipodi:namedview
     pagecolor="#ffffff"
     bordercolor="#666666"
     borderopacity="1"
     objecttolerance="10"
     gridtolerance="10"
     guidetolerance="10"
     inkscape:pageopacity="0"
     inkscape:pageshadow="2"
     inkscape:window-width="1440"
     inkscape:window-height="757"
     id="namedview4"
     showgrid="false"
     inkscape:zoom="1.1125147"
     inkscape:cx="96.44447"
     inkscape:cy="228.06023"
     inkscape:window-x="0"
     inkscape:window-y="1"
     inkscape:window-maximized="1"
     inkscape:current-layer="svg2"
     fit-margin-top="0"
     fit-margin-left="0"
     fit-margin-right="0"
     fit-margin-bottom="0"
     inkscape:snap-global="false" />
  <g
     id="g1952"
     transform="translate(0.06643854,-0.06516407)">
    <path
       inkscape:connector-curvature="0"
       id="path4216"
       d="m 206.13974,1244.2248 c -12.74846,-18.5952 -23.24013,-33.8098 -23.31484,-33.8101 -0.0746,-5e-4 -0.17361,7.5705 -0.21986,16.8244 l -0.0841,16.8252 5.38484,4.213 5.38484,4.2133 -13.01463,0.055 c -7.15807,0.03 -18.97949,-0.028 -26.2698,-0.1312 l -13.2551,-0.1853 8.76356,-6.8358 8.76345,-6.8356 0.14324,-28.6641 0.14326,-28.6641 -8.73363,-6.9724 -8.73362,-6.9724 31.35318,0.041 c 25.94756,0.034 32.01124,0.16 35.17009,0.7203 6.12595,1.0912 11.07668,3.463 15.11919,7.2432 4.30786,4.0286 6.37312,9.0302 6.3415,15.3575 -0.0385,7.6942 -3.23471,13.7273 -9.30702,17.5672 -2.35776,1.4909 -9.72968,4.1312 -11.54245,4.134 -2.53034,0.01 -2.31035,0.5199 4.32759,10.1529 3.57979,5.1949 7.03167,10.0047 7.6708,10.6884 1.24058,1.327 4.9052,3.3279 5.32813,2.9093 0.13974,-0.1383 -2.73082,-4.5623 -6.37901,-9.8311 -3.64821,-5.2687 -6.69972,-9.744 -6.78111,-9.9452 -0.0815,-0.2011 0.1652,-0.364 0.54794,-0.362 3.15188,0.015 10.09251,-4.1891 13.39099,-8.1125 4.58734,-5.4566 6.09023,-9.9308 5.76966,-17.1765 -0.38408,-8.6816 -2.98873,-14.139 -8.73777,-18.3079 l -2.424,-1.7578 1.69406,0.01 c 1.4935,0.01 2.08785,0.3941 5.01848,3.2643 5.32014,5.2104 6.85941,9.3029 6.8052,18.0927 -0.0496,8.1047 -2.17967,13.1943 -7.91743,18.9215 -2.73448,2.7295 -4.46251,4.0289 -6.88358,5.1762 l -3.23256,1.5318 5.20928,7.6321 c 2.86514,4.1978 6.53583,9.0453 8.15714,10.7724 l 2.94786,3.1405 -2.07164,1.3982 c -8.33725,5.6271 -8.66084,18.5673 -0.91876,36.738 0.18471,0.4334 0.16258,0.7806 -0.0492,0.7713 -0.21178,-0.01 -10.81564,-15.2314 -23.56415,-33.8267 z m -26.59294,-40.1437 c -0.29638,-1.6872 -0.37391,-3.8027 -0.18118,-4.9449 0.18527,-1.0978 0.4535,-7.4217 0.59608,-14.0529 l 0.25923,-12.0569 8.18072,0.1897 c 7.3909,0.1713 8.3579,0.2855 10.01607,1.1825 1.66494,0.9008 4.9274,4.0862 4.55874,4.4512 -0.0835,0.082 -1.45057,-0.5015 -3.03791,-1.2983 -2.81714,-1.4142 -3.05534,-1.4534 -9.98102,-1.6437 l -7.09498,-0.1949 -0.042,8.4098 c -0.0391,7.8341 0.012,8.3878 0.74612,8.0875 3.81982,-1.5627 6.77126,-1.2634 8.91707,0.9039 1.92624,1.9456 2.34108,4.2048 1.17844,6.4179 -1.84111,3.5048 -6.16878,4.1687 -8.77857,1.3469 -1.12389,-1.2152 -1.37132,-1.3104 -1.94153,-0.7459 -1.07466,1.0641 0.15857,4.9997 2.24179,7.1545 1.67471,1.7322 4.03707,3.0698 4.54094,2.5709 0.23586,-0.2335 -0.0575,-1.3444 -0.92866,-3.5162 -0.23905,-0.5961 0.11042,-0.7891 1.86935,-1.0328 2.9391,-0.4072 5.71142,-1.7796 6.48647,-3.2109 1.01221,-1.8693 0.75054,-4.795 -0.61533,-6.8819 -1.2844,-1.9619 -1.183,-2.0874 1.04812,-1.2971 0.99046,0.3509 1.6604,1.0012 2.0795,2.0185 0.8844,2.1468 0.76413,5.9504 -0.2471,7.8135 -0.89928,1.657 -3.99292,3.5798 -5.74514,3.5711 -1.31916,-0.01 -1.59274,0.4712 -1.25699,2.1949 0.2578,1.3235 0.38149,1.3964 2.38234,1.4064 4.60267,0.023 9.11321,-3.6921 11.39003,-9.3817 0.82266,-2.0555 1.02526,-3.6453 1.21497,-9.5344 0.29199,-9.0651 -0.42731,-11.985 -3.89724,-15.8199 -4.16833,-4.6069 -9.20115,-6.1799 -20.36031,-6.3639 l -7.2187,-0.1192 -0.29632,34.1569 -0.29636,34.1567 2.13871,1.8955 2.13868,1.8957 0.22706,-17.3898 c 0.15689,-12.0254 0.0671,-18.2994 -0.29106,-20.3387 z m 52.76544,71.0614 c -3.69486,-5.6815 -5.42749,-11.634 -5.41439,-18.6015 0.0112,-6.0306 1.67033,-10.5559 5.0288,-13.717 2.04404,-1.9241 1.80785,-0.6097 -0.76601,4.2624 l -2.15347,4.0763 0.0414,5.2478 c 0.0519,6.6078 0.95232,10.9855 3.15756,15.3542 1.52105,3.0133 2.66728,6.3276 2.1875,6.3253 -0.0908,5e-4 -1.02738,-1.3269 -2.08129,-2.9475 z m 41.50001,-13.9657 c -3.81844,-0.6095 -8.70578,-2.3518 -11.65016,-4.153 -2.84432,-1.74 -6.86815,-5.2506 -8.22429,-7.1754 -0.91116,-1.2933 -0.91284,-1.3291 -0.062,-1.3249 0.48094,0.01 2.3543,1.2566 4.163,2.7868 6.13089,5.1874 13.17587,7.8247 21.03861,7.8759 5.44501,0.038 9.68594,-0.8008 15.18394,-2.9939 l 3.71537,-1.4821 -0.005,1.02 c -0.004,0.8419 -0.57605,1.2543 -3.27793,2.3633 -7.30913,3 -14.63059,4.081 -20.88134,3.0833 z m 96.04271,0.2892 c -3.47665,-0.7164 -6.90338,-1.9978 -9.57079,-3.5791 -3.68236,-2.1828 -10.13911,-9.6148 -10.12889,-11.6588 0.007,-1.3049 0.7696,-1.3148 1.60068,-0.021 3.69196,5.7487 9.4902,10.2255 16.3145,12.5965 3.10665,1.0794 12.49422,1.2552 15.95399,0.2987 2.8006,-0.7742 6.6023,-2.6302 9.14115,-4.4628 1.8314,-1.3219 1.91896,-1.4856 1.64114,-3.0679 -0.1614,-0.9194 -0.36203,-1.7507 -0.4458,-1.8475 -0.0837,-0.097 -0.96306,0.5489 -1.95395,1.4351 -4.013,3.5893 -9.17698,5.2016 -16.54158,5.1649 -5.67935,-0.028 -8.90475,-0.7451 -13.38584,-2.9744 -11.2946,-5.619 -19.1796,-19.8898 -20.21644,-36.5892 -1.46343,-23.5705 8.81114,-42.6436 25.58056,-47.4856 2.40399,-0.6943 5.45809,-0.785 27.80787,-0.8268 l 25.10729,-0.047 -0.89587,1.259 c -0.49271,0.6925 -5.22708,7.3049 -10.52081,14.6943 -5.29373,7.3896 -9.90465,14.0849 -10.2465,14.8785 -0.81632,1.8955 -0.80023,3.9199 0.0365,4.6216 0.57697,0.4839 0.67355,0.3181 0.68695,-1.1774 0.0203,-2.2573 0.35676,-2.7204 2.50398,-3.4463 1.61029,-0.5443 2.60112,-1.738 10.44001,-12.5768 4.76346,-6.5862 8.83543,-11.9713 9.0488,-11.9666 0.21335,0.01 0.62299,0.3769 0.91027,0.8273 0.45118,0.7077 -0.54819,2.2827 -7.33887,11.5666 -6.68613,9.1411 -7.75263,10.8153 -7.135,11.2006 1.96831,1.2281 4.15698,3.6167 4.61922,5.0411 0.28385,0.8748 0.42785,2.8751 0.32001,4.4451 -0.16466,2.3969 -0.43081,3.1437 -1.66012,4.6578 l -1.46403,1.8035 9.82979,0.1701 9.82979,0.17 -8.61405,6.7305 -8.61404,6.7303 -0.1601,7.4344 -0.16011,7.4344 1.57759,1.2159 1.57759,1.2157 0.0403,-8.0754 c 0.04,-8.0206 0.0483,-8.0807 1.13429,-8.8938 0.60166,-0.4502 3.24215,-2.6934 5.86776,-4.9849 l 4.77385,-4.1664 -0.009,1.7583 c -0.008,1.6746 -0.22284,1.9368 -4.51257,5.516 l -4.5038,3.7577 -0.0531,8.8136 -0.0531,8.8136 3.41588,2.889 3.4159,2.8889 -13.59067,0.051 -13.59068,0.051 -2.3125,2.0026 c -2.98032,2.5809 -7.52098,4.9265 -11.16128,5.7653 -3.4696,0.7996 -10.32395,0.7747 -14.33581,-0.052 z m 15.38791,-11.2526 c 3.28453,-1.5319 5.8184,-3.8031 7.28327,-6.5281 0.89543,-1.6656 1.03119,-2.6732 1.19175,-8.8453 l 0.18119,-6.9655 -8.56605,-6.7847 -8.56603,-6.7846 10.81983,-0.066 c 6.70133,-0.041 10.82068,-0.2343 10.82206,-0.5078 0.001,-0.2427 -0.19718,-0.4425 -0.44087,-0.4437 -0.24367,0 -0.97861,-0.8203 -1.63317,-1.8203 l -1.1901,-1.8179 -0.14105,-15.5261 -0.14105,-15.5261 -8.58937,0.1033 c -8.37731,0.1006 -8.64,0.1322 -10.64047,1.2949 -2.36986,1.3772 -4.11631,4.185 -4.91205,7.8965 -0.33713,1.5726 -0.55143,10.6573 -0.63206,26.7928 -0.13252,26.5182 0.0714,29.5942 2.30043,34.7034 l 1.11259,2.55 4.43164,-0.1912 c 3.72667,-0.1607 4.88949,-0.4046 7.30946,-1.5334 z m -16.39646,-3.2503 c -0.90725,-2.5293 -0.92518,-3.2664 -0.78129,-32.0588 l 0.14727,-29.4699 1.36621,-2.6389 c 1.49447,-2.8868 4.12481,-5.203 6.89109,-6.0682 0.9248,-0.2893 5.45631,-0.5959 10.10472,-0.6838 l 8.428,-0.1594 0.01,-1.9805 0.01,-1.9801 -7.79023,-0.039 c -8.98273,-0.045 -11.79585,0.3879 -15.445,2.3759 -3.22233,1.7554 -5.63559,4.7526 -7.04373,8.748 -1.0202,2.8946 -1.02877,3.1078 -1.15696,28.7591 -0.13802,27.6195 -0.0873,28.4071 2.11962,32.8687 1.07823,2.1799 3.1511,4.9115 3.72936,4.9144 0.18681,0 -0.0782,-1.1633 -0.58885,-2.5874 z m 39.83956,-35.1102 c 2.89883,-2.6789 3.16628,-7.1207 0.58567,-9.7272 -1.36249,-1.3761 -1.7387,-1.1258 -1.23012,0.8186 1.19931,4.5849 -3.55534,7.749 -8.49781,5.6549 -1.50683,-0.6386 -1.55549,-0.6274 -1.5604,0.3535 -0.007,1.3613 2.68212,3.919 4.5442,4.3225 2.01162,0.4358 4.85959,-0.2218 6.15846,-1.4223 z m -265.64488,45.3447 -1.25543,-1.1157 25.93012,0.1156 25.93012,0.1156 1.25549,1.1158 1.25546,1.1156 -25.93012,-0.1156 -25.93012,-0.1156 z m 160.53737,0.7733 -1.34281,-1.1119 17.16599,0.086 17.16603,0.076 1.25549,1.1156 1.25549,1.1157 -17.0787,-0.085 -17.07869,-0.085 z m 99.23864,0.5249 -1.25547,-1.1156 11.84534,0.046 11.84534,0.046 1.32969,1.1303 1.32971,1.1302 -11.91956,-0.059 -11.91957,-0.059 -1.25549,-1.1158 z m 32.84112,0.2112 -1.28771,-1.1246 31.68639,-0.023 c 29.91772,-0.022 31.91274,-0.074 35.74176,-0.9213 13.47579,-2.9845 21.28605,-9.6002 23.54026,-19.9405 1.46792,-6.7335 -0.0461,-13.1756 -4.75131,-20.2124 -1.78759,-2.6737 -1.69201,-3.0639 0.47278,-1.9306 7.56485,3.9599 9.84281,21.7736 3.95748,30.9475 -4.12891,6.4361 -11.80604,11.037 -22.3374,13.3866 -3.82804,0.8542 -5.73667,0.9047 -34.89206,0.9233 l -30.8425,0.02 z m 122.7522,0.5664 -1.34278,-1.112 26.06748,0.1303 26.06749,0.1302 1.3428,1.112 1.34279,1.112 -26.06749,-0.1304 -26.06749,-0.1301 z m -282.23788,-3.4271 c -19.75179,-2.3527 -31.60645,-15.9707 -31.50541,-36.1919 0.0543,-10.8615 3.95731,-20.752 11.33173,-28.7152 2.05375,-2.2177 2.58317,-3.0394 2.08363,-3.234 -1.45873,-0.5681 -3.95761,0.7678 -5.46694,2.9227 -1.07851,1.5397 -1.29878,1.6655 -1.88339,1.075 -0.55703,-0.5626 -0.56983,-0.8884 -0.0807,-2.0529 1.24568,-2.9653 4.89969,-4.7952 8.56657,-4.2901 1.99411,0.2746 2.28054,0.1823 4.11425,-1.3253 1.08402,-0.8912 2.07253,-1.7161 2.19672,-1.8332 0.12418,-0.1169 -2.40376,-0.1581 -5.61769,-0.091 -5.49334,0.1134 -5.95824,0.1949 -7.75977,1.353 l -1.91632,1.2321 0.0427,-8.545 0.0427,-8.545 18.49137,0.092 18.49135,0.092 -3.1095,2.2752 c -8.45256,6.1843 -13.92704,13.2421 -16.41112,21.1573 -2.97574,9.4819 -3.78576,36.8469 -1.40203,47.3641 1.30709,5.7666 4.64283,10.441 8.81541,12.3528 2.02379,0.9272 3.01922,1.0738 7.28791,1.0729 6.67302,-8e-4 9.20757,-0.9588 13.32506,-5.0352 3.27683,-3.2444 4.69324,-6.1142 5.44162,-11.0256 0.22584,-1.482 0.48822,-17.4081 0.58307,-35.3913 l 0.17239,-32.6967 16.74156,0.099 c 16.31431,0.095 16.71613,0.1196 15.74706,0.9202 -0.54694,0.452 -4.25378,3.5982 -8.2374,6.9916 l -7.24294,6.1697 -0.1273,28.7956 -0.12731,28.7953 1.88606,1.4512 1.8861,1.4515 0.26214,-29.3313 0.26217,-29.3311 5.86478,-5.0243 5.86476,-5.0244 -0.008,1.5788 c -0.007,1.4372 -0.41244,1.9296 -4.52513,5.5005 l -4.51726,3.9223 -0.0349,30.0937 -0.0349,30.0938 4.25308,3.34 c 2.33921,1.8371 4.75681,3.7244 5.37245,4.1938 1.10331,0.8413 0.86956,0.8525 -16.29648,0.7807 l -17.41586,-0.073 0.016,-3.1944 0.016,-3.1945 -2.75215,2.5226 c -2.91088,2.6681 -7.40792,5.1531 -10.77372,5.9531 -2.96581,0.7051 -8.31814,0.9311 -11.91301,0.5029 z m 157.8853,-2.7276 c 0.55948,-0.4262 4.5573,-3.4863 8.88404,-6.7997 l 7.8668,-6.0248 0.17068,-28.8306 0.17067,-28.8306 -8.71219,-6.9434 -8.71217,-6.9434 28.41027,0.013 c 35.18087,0.017 38.12938,0.2836 45.91815,4.1541 7.70816,3.8306 11.32754,9.7122 10.83129,17.6009 -0.47643,7.574 -5.09104,12.2711 -14.77223,15.0367 -3.28867,0.9394 -3.37037,0.9952 -2.15548,1.4735 2.96096,1.165 8.99641,0.2385 12.4369,-1.9095 0.90717,-0.5664 2.59191,-2.0675 3.74389,-3.336 5.96882,-6.5724 5.73402,-17.2504 -0.53028,-24.1148 -1.91101,-2.0941 -1.54833,-2.636 0.90096,-1.346 5.70669,3.0054 7.97252,15.794 4.16042,23.4819 -2.03343,4.1007 -5.49764,6.7528 -12.28583,9.4055 -1.0418,0.4072 -0.98336,0.4837 1.41316,1.8521 3.92082,2.2386 7.25833,5.8317 9.13457,9.834 1.45881,3.112 1.64353,3.933 1.80491,8.022 0.27248,6.9034 -1.18608,11.4648 -5.0705,15.8569 -2.19604,2.483 -7.41779,5.6293 -11.59671,6.9873 -6.96958,2.265 -10.475,2.4507 -43.14084,2.286 -28.4598,-0.1422 -29.83911,-0.1881 -28.87046,-0.9254 z m 38.47949,-12.4414 0.17013,-9.8375 2.89545,1.7709 c 3.75921,2.2991 5.73285,2.8599 10.11541,2.8737 5.77591,0.018 8.66814,-2.0008 9.7191,-6.7845 0.5911,-2.6905 0.0454,-5.3156 -1.47647,-7.1029 l -1.00383,-1.1789 -0.0468,2.4079 c -0.17945,9.2244 -12.50018,13.0856 -19.43911,6.092 -2.56001,-2.5802 -2.98242,-3.7976 -2.95842,-8.5259 0.0177,-3.4776 0.21123,-4.6753 1.04353,-6.4566 1.00546,-2.1519 1.02328,-2.4742 1.1114,-20.1075 l 0.0895,-17.9203 8.69337,0.043 c 8.20362,0.04 8.80468,0.102 10.66901,1.0891 1.21654,0.6437 2.26976,1.6329 2.74113,2.5738 0.42104,0.8407 0.71575,1.5777 0.65496,1.6379 -0.0608,0.06 -1.40808,-0.5424 -2.99394,-1.3393 -2.82138,-1.4176 -3.036,-1.4526 -9.98109,-1.6275 l -7.09774,-0.1786 -0.0777,15.5468 -0.0777,15.547 1.07911,-0.6993 c 0.59351,-0.3847 4.00252,-1.6522 7.57558,-2.8166 8.12707,-2.6487 10.09243,-3.7054 11.92636,-6.4125 1.94045,-2.8646 2.59947,-6.2332 2.30382,-11.7763 -0.49836,-9.3436 -2.74809,-12.6661 -9.58137,-14.1502 -1.30855,-0.2842 -6.41417,-0.5368 -11.34583,-0.5614 l -8.96666,-0.045 -0.19279,38.5769 c -0.10603,21.2172 -0.0586,38.7124 0.10556,38.878 0.16396,0.1656 1.17066,0.3054 2.2371,0.3109 l 1.93897,0.01 0.17013,-9.8373 z m 13.88869,9.4502 c 10.4602,-1.1456 14.19551,-5.1622 15.21543,-16.3612 0.77523,-8.5124 -0.53917,-16.2113 -3.34211,-19.5765 -4.70815,-5.6524 -16.41945,-6.732 -21.70871,-2.0012 -4.42612,3.9587 -4.04513,12.9953 0.66541,15.7828 2.4067,1.4242 7.33095,1.31 9.50292,-0.2202 3.28494,-2.3145 2.88973,-8.6117 -0.54153,-8.6288 -0.96307,-0.01 -1.09248,0.1941 -1.09998,1.6922 -0.0124,2.4639 -1.04207,3.6903 -3.09002,3.6801 -4.8801,-0.024 -5.93454,-5.892 -1.54388,-8.5911 2.42766,-1.4924 7.06824,-1.4383 10.27598,0.1194 4.9255,2.3924 7.78651,7.0823 7.20289,11.8077 -0.60902,4.9311 -3.44281,8.1714 -8.37746,9.5792 -3.86444,1.1025 -7.85465,0.5396 -13.6422,-1.9249 -0.72975,-0.3108 -0.78756,0.2056 -0.82328,7.3543 l -0.0384,7.6886 3.70792,0.01 c 2.03934,0.01 5.47604,-0.1788 7.63709,-0.4155 z m 69.98641,4.2386 c 4.5e-4,-0.09 3.9601,-3.2379 8.79924,-6.9945 7.78864,-6.0468 8.79916,-6.9791 8.80488,-8.1224 l 0.006,-1.2916 -2.36132,0.3407 c -1.29872,0.1873 -4.3916,0.3171 -6.87304,0.2882 -4.73636,-0.055 -7.44408,-0.8791 -8.46234,-2.5749 -0.69297,-1.1543 -0.2757,-1.2466 2.41397,-0.5345 3.29843,0.8731 9.44723,0.8573 12.68145,-0.036 l 2.61743,-0.7203 0.009,-1.9021 0.009,-1.9022 -2.02153,1.0109 c -2.6112,1.3055 -7.80624,2.1493 -10.74663,1.7452 -4.68349,-0.6435 -8.43765,-3.2338 -10.47001,-7.2238 -1.66497,-3.2687 -1.68026,-8.108 -0.0358,-11.2878 2.81608,-5.4452 9.99987,-7.1677 14.3767,-3.4473 4.81754,4.095 3.40709,12.3114 -2.10868,12.2839 -2.55262,-0.013 -3.24851,-0.3328 -4.02356,-1.8501 -1.41503,-2.7701 -0.12105,-5.8805 2.97192,-7.1434 1.07228,-0.4379 1.25982,-0.6898 0.86867,-1.1658 -0.80799,-0.9836 -3.24627,-1.2337 -4.99633,-0.5128 -5.37235,2.2133 -5.92115,10.493 -0.9373,14.1416 3.78159,2.7682 9.80444,3.1564 13.72578,0.8846 2.97463,-1.7233 3.42237,-2.5824 3.44249,-6.6058 l 0.0173,-3.455 -11.27972,-17.954 -11.27971,-17.9541 -9.59922,-6.5735 -9.59924,-6.5734 14.29247,-0.05 c 7.86087,-0.022 20.59286,0.038 28.29335,0.1414 l 14.00086,0.1888 -2.46984,1.7798 c -1.35841,0.979 -5.24951,3.8148 -8.64689,6.3018 l -6.17707,4.5218 9.80902,15.7272 c 5.39498,8.6498 9.97155,15.8924 10.17019,16.0946 0.19863,0.2021 0.79008,-0.3513 1.31435,-1.2298 l 0.95323,-1.5973 -4.73138,-7.5516 c -2.60225,-4.1533 -6.59536,-10.5301 -8.87358,-14.1708 l -4.14222,-6.6192 3.91699,-2.794 c 2.15434,-1.5365 4.57676,-3.2814 5.38313,-3.8776 l 1.46613,-1.0837 -0.007,1.3898 c -0.007,1.2173 -0.4783,1.7417 -3.80803,4.2272 l -3.80109,2.8375 7.83059,12.5047 c 4.30686,6.8775 7.9886,12.3407 8.18164,12.1405 0.1931,-0.2002 3.535,-6.1024 7.42647,-13.1159 5.614,-10.1182 6.95862,-12.8617 6.51015,-13.2831 -0.31091,-0.2921 -3.95529,-3.2024 -8.09867,-6.4672 l -7.53349,-5.9362 18.33346,0.092 c 15.4668,0.077 18.23,0.1861 17.67225,0.6985 -0.36367,0.3339 -4.21468,3.4271 -8.55789,6.8738 l -7.89671,6.2666 -7.48383,13.5863 c -4.1161,7.4725 -8.45396,15.3471 -9.63966,17.4989 l -2.1558,3.9124 1.30317,0.9378 1.30313,0.938 9.80725,-17.6398 9.80725,-17.6396 5.51367,-4.3832 c 3.03249,-2.4109 5.78187,-4.587 6.10972,-4.8358 0.47278,-0.3589 0.56455,-0.1224 0.44375,1.1436 -0.1364,1.4289 -0.67008,2.011 -5.10006,5.5619 l -4.94776,3.9658 -9.60852,17.2559 c -8.35644,15.0072 -9.49729,17.2856 -8.75499,17.4848 0.65433,0.1755 0.27044,0.5297 -1.64434,1.5175 -2.97341,1.534 -5.71022,4.4578 -6.45366,6.8948 -0.29554,0.9689 -0.54641,3.8615 -0.55744,6.4283 l -0.0193,4.6671 8.72625,6.9618 c 4.79942,3.8291 8.72589,7.0342 8.72546,7.1226 -4.6e-4,0.088 -11.73118,0.102 -26.06829,0.03 -14.33712,-0.072 -26.06712,-0.2033 -26.06666,-0.2944 z m -283.46353,-6.3088 c -2.1014,-2.2658 -2.71896,-6.0317 -3.15012,-19.2089 -0.41234,-12.6026 0.22203,-29.3003 1.3081,-34.4286 1.47708,-6.975 4.86945,-12.9823 9.86581,-17.471 3.59128,-3.2264 4.37677,-3.6647 4.37065,-2.4384 -0.003,0.5138 -1.3783,2.3859 -3.12005,4.2456 -3.96838,4.2373 -5.99598,7.5547 -7.6949,12.5903 -1.6933,5.0191 -2.2321,9.4786 -2.65624,21.9856 -0.50535,14.9016 0.59776,30.0585 2.54421,34.9575 0.43797,1.1023 -0.34467,0.9785 -1.46746,-0.2321 z m 323.77416,-5.5609 c -0.84346,-1.2171 -0.93427,-10.3167 -0.13127,-13.1541 0.63445,-2.2418 2.90706,-4.4015 5.57131,-5.2945 1.89568,-0.6353 2.04524,-0.63 2.03534,0.073 -0.016,1.1536 -0.6051,1.8461 -2.27799,2.6791 -2.72465,1.3568 -3.28679,2.9859 -3.54222,10.2656 -0.12422,3.5402 -0.39114,6.4358 -0.59317,6.4348 -0.20206,0 -0.67995,-0.4529 -1.06201,-1.0043 z"
       style="fill:#ffd42a;fill-opacity:1;stroke:#002d4e;stroke-width:1.58450747;stroke-miterlimit:4;stroke-dasharray:none;stroke-opacity:1" />
    <path
       inkscape:connector-curvature="0"
       id="path4378"
       d="m 148.83247,1140.37 c -1.52738,-0.5288 -2.1812,-1.1866 -2.65316,-2.6699 -1.20797,-3.7967 0.0563,-6.0855 4.0036,-7.2464 0.95379,-0.2807 1.02803,-2.5596 1.2053,-37.0028 l 0.18886,-36.7036 1.39184,1.719 c 0.76553,0.9454 3.23068,6.1769 5.4781,11.6255 4.63823,11.2448 6.66742,14.5906 11.77096,19.4087 6.88277,6.498 7.79711,6.6781 3.22711,0.6359 -6.06955,-8.0248 -9.58085,-15.838 -11.14492,-24.7988 -0.29414,-1.6854 -0.21566,-1.8381 0.69204,-1.3469 1.27237,0.6885 1.98953,2.1524 3.58892,7.3259 1.54048,4.9827 4.60043,11.3195 7.15749,14.822 4.32413,5.923 13.98089,14.3786 18.12574,15.8711 1.35484,0.4879 5.05514,0.755 10.50217,0.7582 7.43515,0.01 8.92949,-0.1657 12.88806,-1.4669 5.93361,-1.9502 9.43507,-4.0518 11.53572,-6.9239 1.48575,-2.0313 1.72877,-2.8792 1.74343,-6.0815 0.009,-2.0467 -0.24513,-4.2166 -0.56554,-4.822 -0.87649,-1.6558 -7.36065,-6.122 -11.88973,-8.1896 -2.20405,-1.0062 -13.55972,-5.0969 -25.23473,-9.0905 -11.67507,-3.9936 -22.83643,-8.0826 -24.80304,-9.0868 -4.04386,-2.0646 -8.00957,-5.5244 -10.46783,-9.1327 -2.58992,-3.8014 -1.96342,-4.2362 1.37216,-0.9524 3.77563,3.7171 9.03131,7.1418 14.47476,9.4321 2.29883,0.9672 11.7899,4.1625 21.09119,7.1005 21.23107,6.7062 25.9887,8.5945 30.75305,12.2054 3.05361,2.3143 2.71081,1.2006 -0.60272,-1.9583 -5.79245,-5.522 -14.07692,-9.6974 -39.50177,-19.9089 -22.47764,-9.0278 -26.65681,-11.0947 -29.98307,-14.8284 -3.77419,-4.2366 -5.13827,-8.2057 -5.41643,-15.7596 -0.35653,-9.6828 2.00484,-15.967 8.10148,-21.5597 8.99236,-8.2492 24.58723,-12.2296 41.68943,-10.641 4.04451,0.3757 12.5689,1.7712 18.94305,3.1012 l 11.58936,2.4181 4.35474,-1.0014 c 2.3951,-0.5507 5.72717,-1.466 7.40458,-2.0338 1.67741,-0.5678 3.04924,-0.9017 3.0485,-0.7419 -8.4e-4,0.1599 -5.15679,7.4394 -11.45796,16.1768 -9.63305,13.3574 -11.50085,16.275 -11.73479,18.3301 -0.38634,3.3939 0.59002,5.7724 2.27459,5.5411 1.10547,-0.1519 1.35134,-0.6204 1.60817,-3.0645 0.41055,-3.9061 1.53059,-4.4308 8.42838,-3.9486 5.90226,0.4127 7.5483,1.1744 8.73031,4.0402 2.15288,5.2195 0.3523,10.9894 -4.47426,14.3372 -1.25363,0.8695 -1.30035,1.041 -0.4638,1.7027 1.94756,1.5405 6.99885,7.8638 8.91246,11.1568 1.09735,1.8883 2.67479,5.4192 3.50546,7.8464 1.28238,3.7471 1.50387,5.3756 1.46753,10.793 -0.0274,4.0761 -0.40317,7.7398 -1.04066,10.1456 -4.30103,16.23 -18.19662,26.5074 -37.85648,27.9989 -6.05624,0.4594 -11.4651,-0.4059 -23.18393,-3.709 -14.30204,-4.0314 -20.27653,-4.0739 -22.51505,-0.1605 -0.50834,0.8888 -0.85297,5.344 -1.09719,14.1843 -0.34283,12.4106 -0.40481,12.9368 -1.67233,14.192 -0.96565,0.9563 -2.06683,1.3251 -4.13376,1.3844 -1.54962,0.044 -3.35862,0.3674 -4.02,0.7175 -1.4941,0.7908 -2.74031,0.7581 -5.33543,-0.1402 z m 10.78056,-3.4951 c 1.04186,-0.7536 1.15662,-1.8005 1.47759,-13.4788 0.31338,-11.4025 0.47,-12.8919 1.57516,-14.9762 2.77693,-5.2371 7.34892,-5.7391 20.25437,-2.2238 17.07194,4.6502 16.93216,4.6242 25.2094,4.7024 5.80675,0.055 8.8053,-0.1883 11.60474,-0.9414 11.99482,-3.2268 21.40731,-11.5424 25.15185,-22.2211 1.15018,-3.28 1.35752,-4.9866 1.35186,-11.1247 -0.006,-6.4693 -0.17996,-7.7197 -1.61517,-11.6078 -0.88471,-2.3966 -2.74349,-6.1351 -4.13071,-8.3077 -2.47611,-3.8779 -10.20051,-12.0443 -11.4253,-12.0791 -0.34269,-0.01 0.99454,-0.7931 2.97165,-1.7409 4.44076,-2.1289 6.00343,-4.3411 6.02259,-8.5255 0.0144,-3.1576 -0.96767,-4.7626 -2.91968,-4.7716 -0.9119,-0.01 -1.1205,0.4094 -1.12888,2.2368 -0.0124,2.7223 -1.58549,4.8814 -4.70143,6.4531 -3.97693,2.0061 -8.05865,1.309 -11.40387,-1.9472 -2.87004,-2.7938 -3.21664,-4.6332 -2.70205,-14.339 0.51364,-9.6883 0.2805,-10.6188 -3.49879,-13.9679 -4.43726,-3.9319 -10.99146,-5.8543 -20.10352,-5.8961 -9.92256,-0.045 -15.81155,1.7745 -19.20859,5.9363 -1.63077,1.9977 -1.79712,2.5798 -1.81437,6.3488 -0.0159,3.4841 0.23525,4.5863 1.56682,6.8755 3.00046,5.158 4.92588,6.189 22.12834,11.8487 30.70852,10.1033 42.16379,17.6493 46.60264,30.6986 1.68233,4.9459 1.78305,14.774 0.20513,20.0117 -2.69148,8.9339 -8.60058,15.9188 -16.84576,19.9129 -6.79274,3.2904 -11.06707,4.2368 -18.99413,4.2054 -7.30757,-0.025 -9.51051,-0.4656 -23.46957,-4.6509 -11.70014,-3.5079 -15.31411,-4.1365 -17.79192,-3.0945 -5.84923,2.4594 -7.49876,8.5811 -7.12809,26.4531 0.10918,5.2642 0.30131,9.8981 0.4269,10.2973 0.29706,0.9443 0.94054,0.9205 2.33279,-0.086 z m 8.05949,-117.7947 c -1.61845,-6.3322 -0.80438,-9.7808 3.22256,-13.652 3.43107,-3.2985 7.51288,-4.8849 14.87147,-5.7802 8.43716,-1.0264 17.57879,0.5257 27.11499,4.6038 1.00924,0.4316 1.02117,0.3597 0.2045,-1.2374 -3.0339,-5.9334 -10.09629,-8.9641 -21.00499,-9.014 -13.03037,-0.06 -25.27669,4.8135 -28.68186,11.4134 -2.72664,5.2847 -2.05729,9.9604 2.09278,14.6191 1.4228,1.5971 2.69089,2.8008 2.81803,2.6748 0.12708,-0.126 -0.15976,-1.7583 -0.63748,-3.6275 z m 340.96209,121.3729 c -3.50632,-0.7449 -5.59065,-1.9943 -7.93106,-4.7539 -4.52992,-5.3417 -3.24517,-12.8227 2.73234,-15.9108 3.75314,-1.9388 9.42781,-0.3676 11.90416,3.2961 1.67505,2.4784 1.61973,4.7706 -0.20878,8.6522 -0.94876,2.0141 -1.27799,3.337 -0.92028,3.6979 0.98199,0.9911 2.28783,-0.036 2.92878,-2.3041 0.41888,-1.482 0.71329,-21.6981 0.8986,-61.703 l 0.27574,-59.4988 -7.95638,-6.7482 c -4.37599,-3.7114 -8.60103,-7.2895 -9.38894,-7.9511 l -1.43257,-1.203 33.58765,0.1344 33.58767,0.1344 -9.69543,7.2141 c -5.33247,3.9679 -9.69611,7.3665 -9.69697,7.5526 -8.4e-4,0.2537 48.32728,72.2199 49.34859,73.4854 0.10762,0.1333 0.19642,-1.5629 0.19729,-3.7693 l 0.002,-4.0119 -21.35366,-31.7088 c -11.74453,-17.44 -21.46422,-31.8893 -21.59931,-32.1098 -0.22704,-0.3703 6.7112,-5.856 10.40024,-8.2227 l 1.59976,-1.0264 -0.008,1.8003 c -0.007,1.5612 -0.54982,2.1903 -4.08561,4.7375 -2.5032,1.8031 -3.92493,3.1987 -3.68254,3.6147 0.40944,0.7026 38.23644,56.9269 38.58839,57.3561 0.10948,0.1334 0.25753,-12.5425 0.32906,-28.1688 l 0.13006,-28.4115 -9.59116,-8.995 -9.59116,-8.9949 11.41129,-0.1047 c 6.27625,-0.058 16.32896,-0.012 22.33943,0.1023 l 10.92817,0.2072 -10.42344,8.9427 -10.42343,8.9426 -0.17897,37.8068 -0.17898,37.8067 2.51531,2.0805 c 1.38339,1.1442 2.68414,2.0812 2.89057,2.0821 0.20637,-7e-4 0.47465,-17.5507 0.59616,-39.0037 l 0.22092,-39.0054 6.40707,-5.4809 c 9.02404,-7.7182 8.64986,-7.5012 8.63844,-5.0079 -0.009,1.8935 -0.48393,2.4518 -6.08512,7.148 l -6.07572,5.094 -0.19927,39.7306 -0.19926,39.7305 5.83038,4.5219 5.83044,4.5218 -37.01768,-0.1694 c -20.3597,-0.093 -36.76869,-0.388 -36.46441,-0.655 0.30428,-0.2671 5.33648,-4.1887 11.18269,-8.7149 5.84618,-4.5261 10.77185,-8.4573 10.94592,-8.7361 0.17408,-0.2788 -8.57653,-13.6811 -19.44576,-29.7827 l -19.76272,-29.2757 -0.51849,49.9126 -0.51849,49.9128 -1.36863,2.7473 c -1.69871,3.4099 -5.24681,6.4842 -8.76572,7.5951 -3.56636,1.1261 -8.50438,1.4992 -11.47846,0.8673 z m 15.09304,-7.3349 c 0.51298,-0.5617 1.46868,-2.1886 2.12377,-3.6154 1.16864,-2.5454 1.19577,-3.5677 1.44035,-54.2656 l 0.24927,-51.6713 -2.33693,-3.2953 c -1.2853,-1.8123 -2.45305,-3.2958 -2.59501,-3.2964 -0.14192,5e-4 -0.37874,26.3602 -0.52622,58.5797 -0.1475,32.2195 -0.0476,58.582 0.2219,58.5831 0.26956,-8e-4 0.90984,-0.4571 1.42284,-1.0188 z m -152.91093,3.7164 c -0.53755,-0.3041 -0.97494,-1.1064 -0.97183,-1.7829 0.003,-0.6766 3.67847,-11.4134 8.1675,-23.8597 18.44607,-51.1439 25.31703,-77.6705 26.45999,-102.1539 l 0.38577,-8.2634 -8.40206,-0.039 c -4.62111,-0.021 -9.89239,0.2537 -11.71393,0.6108 -4.57391,0.8968 -8.9834,3.6453 -10.4888,6.5378 -1.60823,3.09 -1.68576,8.3845 -0.14785,10.0996 1.64569,1.8352 2.06862,1.4989 2.08306,-1.6567 0.0103,-2.2463 0.33153,-3.2297 1.46626,-4.4886 0.79914,-0.8865 2.1767,-2.4708 3.06122,-3.5205 2.08196,-2.4707 4.36918,-2.9631 13.64833,-2.9379 l 7.39518,0.02 -0.007,1.3932 c -0.006,1.3908 -0.019,1.3933 -7.71921,1.5597 -6.29831,0.136 -8.01408,0.3621 -9.35542,1.233 l -1.64257,1.0664 1.62047,1.0736 c 2.0623,1.3663 3.09216,3.2472 3.10711,5.6743 0.0291,4.7259 -4.16487,7.9661 -9.68529,7.4829 -2.22678,-0.195 -3.08858,-0.068 -3.09099,0.4579 -0.006,1.2008 2.73473,4.1085 4.61566,4.8977 3.9554,1.6596 9.83074,-0.6019 11.91414,-4.586 1.21712,-2.3275 1.09563,-6.7576 -0.26878,-9.8018 -1.36482,-3.0451 -1.07992,-3.5853 1.05675,-2.0038 4.99232,3.6953 4.74799,11.4749 -0.51943,16.5384 -6.35906,6.113 -15.01063,4.732 -19.87412,-3.1722 -0.95343,-1.5494 -1.75972,-2.8161 -1.79174,-2.8146 -0.0319,-2e-4 -0.0986,3.5899 -0.14769,7.9746 -0.0773,6.8759 -0.29363,8.5826 -1.57491,12.4121 -2.21843,6.6304 -5.40619,11.8304 -10.05715,16.4055 -7.4549,7.3335 -13.97021,9.714 -26.48272,9.6764 -8.08562,-0.024 -10.20874,-0.5288 -12.14711,-2.8863 -1.13718,-1.383 -0.6361,-1.4706 3.17735,-0.5552 7.91399,1.8997 19.213,0.6273 26.00783,-2.9288 1.65498,-0.8661 5.10963,-3.6618 7.67699,-6.2127 7.13558,-7.0897 10.00236,-13.7991 10.64416,-24.9113 0.81219,-14.0621 -4.5333,-24.3482 -17.20191,-33.1008 -4.45047,-3.0747 -4.60376,-3.2504 -2.829,-3.2423 5.4246,0.025 16.32101,9.4597 19.73578,17.0885 l 0.99017,2.2122 0.29606,-4.2364 c 0.70707,-10.1168 6.76119,-14.724 21.11873,-16.0714 3.45755,-0.3245 25.4816,-0.3901 54.41628,-0.1614 l 48.60786,0.3834 -10.5141,8.9302 -10.5141,8.9302 -0.16909,36.9388 -0.1691,36.939 2.25031,1.799 c 1.23768,0.9895 2.40851,1.7998 2.60186,1.8007 0.19334,-7e-4 0.42902,-16.8984 0.5237,-37.554 l 0.17217,-37.5556 7.07343,-6.0578 c 8.90602,-7.6273 8.64862,-7.4793 8.63711,-4.9661 -0.008,1.8404 -0.52774,2.4468 -6.08493,7.1061 l -6.0757,5.0941 -0.21444,38.5826 -0.21443,38.5824 7.07468,5.5306 7.07469,5.5305 -16.96071,0.076 c -9.32839,0.042 -24.59127,-0.028 -33.9175,-0.1552 l -16.95681,-0.2315 11.50052,-8.9376 11.50051,-8.9377 -0.11846,-8.4108 -0.11845,-8.4109 -13.4638,-0.2173 -13.46381,-0.2172 -1.30475,3.0498 c -2.95034,6.8961 -13.01107,26.1516 -17.61634,33.7162 -6.27069,10.3002 -18.99765,28.3432 -20.74741,29.4136 -0.2552,0.1562 -0.79694,0.075 -1.20385,-0.1781 -0.54192,-0.3383 0.34802,-1.9922 3.32639,-6.1818 10.77151,-15.1516 20.3316,-31.3072 29.47671,-49.8121 l 6.37229,-12.8941 14.46458,0.066 14.46459,0.066 0.0106,-2.3201 0.0106,-2.32 -16.42635,-0.075 -16.42637,-0.075 -4.01568,9.407 c -7.77059,18.203 -18.65994,38.4228 -26.52571,49.2543 -4.45289,6.1316 -12.01742,15.1366 -13.04083,15.524 -0.45558,0.1724 -1.26818,0.065 -1.8058,-0.2396 z m 78.26729,-79.5955 c 0.002,-0.3721 -5.50744,-0.6052 -15.36759,-0.6503 -9.86015,-0.045 -15.3712,0.1376 -15.3729,0.5097 -0.002,0.372 5.50744,0.6052 15.36759,0.6503 9.86016,0.045 15.37119,-0.1376 15.3729,-0.5097 z m -19.79283,-15.7511 c 2.55045,-7.9561 5.22241,-18.1662 7.20145,-27.5181 l 1.59411,-7.533 5.61556,-0.1402 5.61555,-0.1403 0.0119,-2.5891 0.0119,-2.5891 -7.98953,-0.036 -7.98954,-0.036 -1.03588,5.9072 c -1.57919,9.0055 -3.79655,18.275 -7.01523,29.3262 -1.60602,5.5142 -3.07225,10.4171 -3.25827,10.8953 -0.2775,0.7133 0.16687,0.8396 2.47519,0.7024 l 2.81342,-0.1669 1.94947,-6.0813 z m 19.78642,-12.8149 -0.0646,-19.2861 -4.14054,-0.188 -4.14056,-0.1882 -0.68773,3.9362 c -1.3859,7.9319 -6.70611,27.4817 -9.27805,34.0933 -0.27369,0.7037 1.12954,0.8398 9.02594,0.8759 l 9.35004,0.043 -0.0646,-19.286 z m 180.42325,109.3457 c -0.53763,-0.3041 -0.97494,-1.1064 -0.97184,-1.7829 0.003,-0.6766 3.67848,-11.4134 8.16745,-23.8598 18.44607,-51.1438 25.31704,-77.6704 26.46006,-102.1538 l 0.38572,-8.2635 -8.40207,-0.039 c -4.62108,-0.021 -9.89236,0.2539 -11.71392,0.611 -4.57387,0.8968 -8.98337,3.6452 -10.48877,6.5377 -1.60828,3.0901 -1.68576,8.3844 -0.14785,10.0995 1.6457,1.8353 2.06863,1.4991 2.08307,-1.6567 0.0103,-2.2462 0.33153,-3.2296 1.46625,-4.4884 0.79915,-0.8866 2.17671,-2.4709 3.06123,-3.5206 2.08193,-2.4707 4.36912,-2.9632 13.64826,-2.938 l 7.39519,0.02 -0.007,1.3932 c -0.007,1.3907 -0.0191,1.3933 -7.71916,1.5597 -6.29837,0.136 -8.01405,0.3621 -9.35542,1.2329 l -1.64257,1.0665 1.62047,1.0736 c 2.06226,1.3663 3.09217,3.2472 3.10714,5.6742 0.0299,4.7259 -4.1649,7.9662 -9.6853,7.4829 -2.22685,-0.1949 -3.0886,-0.068 -3.091,0.458 -0.006,1.2008 2.73473,4.1084 4.61561,4.8976 3.95544,1.6596 9.83071,-0.6018 11.91419,-4.5859 1.21714,-2.3275 1.09554,-6.7576 -0.26875,-9.8018 -1.36489,-3.0452 -1.08002,-3.5854 1.05673,-2.0038 4.99231,3.6952 4.7479,11.4749 -0.51948,16.5384 -6.6178,6.3617 -15.80288,4.5106 -20.44982,-4.1212 -3.21918,-5.9797 -4.02123,-16.2818 -1.61972,-20.8037 2.97634,-5.6039 8.84284,-8.4273 19.61031,-9.4378 3.45754,-0.3245 25.48161,-0.3901 54.41628,-0.1614 l 48.60785,0.3835 -10.51404,8.93 -10.51413,8.9302 -0.16913,36.9388 -0.16905,36.939 2.25039,1.7992 c 1.23761,0.9894 2.40846,1.7997 2.60165,1.8006 0.19344,-7e-4 0.42907,-16.8984 0.52368,-37.554 l 0.17226,-37.5556 7.07347,-6.0578 c 8.90601,-7.6274 8.6486,-7.4794 8.63712,-4.9662 -0.008,1.8405 -0.52774,2.4469 -6.08501,7.1062 l -6.07563,5.0941 -0.21463,38.5825 -0.21462,38.5825 7.07465,5.5306 7.07474,5.5304 -16.96077,0.076 c -9.32833,0.042 -24.59124,-0.028 -33.91752,-0.1552 l -16.95678,-0.2314 11.5005,-8.9377 11.50054,-8.9377 -0.1184,-8.4109 -0.11848,-8.4108 -13.46385,-0.2173 -13.46374,-0.2173 -1.30476,3.0499 c -2.95042,6.8961 -13.01113,26.1516 -17.61637,33.7161 -6.27072,10.3003 -18.99768,28.3433 -20.74746,29.4137 -0.25515,0.1561 -0.79688,0.076 -1.20382,-0.1782 -0.54193,-0.3382 0.34802,-1.9921 3.32636,-6.1817 10.77156,-15.1517 20.33168,-31.3072 29.47677,-49.8121 l 6.37198,-12.8942 14.46464,0.067 14.46459,0.066 0.0106,-2.3201 0.0106,-2.32 -16.4264,-0.075 -16.42628,-0.075 -4.01572,9.4069 c -7.77062,18.2031 -18.65999,38.4228 -26.52574,49.2543 -4.45288,6.1317 -12.01739,15.1365 -13.04086,15.5239 -0.45552,0.1725 -1.2681,0.065 -1.80573,-0.2394 z m 78.26728,-79.5955 c 0.002,-0.3721 -5.50741,-0.6053 -15.3676,-0.6503 -9.86011,-0.045 -15.37118,0.1375 -15.37288,0.5096 -0.002,0.3721 5.50746,0.6053 15.36756,0.6503 9.86019,0.045 15.37122,-0.1375 15.37292,-0.5096 z m -19.7928,-15.7511 c 2.55041,-7.9562 5.22237,-18.1662 7.20137,-27.5182 l 1.59417,-7.5329 5.61553,-0.1403 5.61557,-0.1402 0.0119,-2.5891 0.0119,-2.5891 -7.98948,-0.036 -7.98962,-0.036 -1.03586,5.9074 c -1.57923,9.0055 -3.79653,18.2748 -7.01519,29.326 -1.60604,5.5143 -3.07229,10.4171 -3.2583,10.8953 -0.27747,0.7134 0.16689,0.8395 2.47515,0.7026 l 2.81345,-0.1671 z m 19.78642,-12.8149 -0.0646,-19.2861 -4.14049,-0.1881 -4.14064,-0.1881 -0.68771,3.9362 c -1.38585,7.9318 -6.70614,27.4816 -9.27806,34.0933 -0.27364,0.7036 1.12955,0.8398 9.02598,0.8759 l 9.35006,0.043 -0.0646,-19.2859 z m -690.858168,80.2338 -1.62084,-1.4392 60.75604,0.2595 c 33.415828,0.1429 60.756548,0.1509 60.757148,0.018 4.1e-4,-0.1333 -4.95128,-8.9447 -11.00425,-19.5811 l -11.00536,-19.3389 1.79814,-1.4869 c 2.93412,-2.4263 3.91038,-6.6268 2.13494,-9.1865 -1.33411,-1.9234 -1.98996,-1.5801 -2.00198,1.0482 -0.008,1.7439 -0.39361,2.7257 -1.5019,3.824 -1.31239,1.3004 -1.80026,1.4298 -4.06943,1.0788 -2.05171,-0.3173 -2.65042,-0.2132 -2.93167,0.51 -0.21929,0.5637 3.62902,7.9815 10.13656,19.5387 5.76954,10.2464 10.36911,18.7496 10.22135,18.8962 -0.14783,0.1465 -26.00947,0.078 -57.470298,-0.1434 l -57.20151,-0.4097 11.32844,-8.8526 11.32838,-8.8525 0.16914,-36.9498 0.16914,-36.95 -11.27387,-9.0086 -11.27388,-9.0085 54.90997,0.1034 c 30.20047,0.057 55.007888,0.2028 55.127638,0.3231 0.1198,0.1209 -4.03963,7.3382 -9.24304,16.0386 -12.91967,21.6019 -13.55596,23.0973 -11.09592,26.0779 l 1.13449,1.3745 0.0391,-2.3199 c 0.0215,-1.276 0.23182,-2.6063 0.4678,-2.9562 1.15139,-1.7074 6.00724,-2.6773 6.81261,-1.3607 0.19568,0.3199 1.08823,0.585 1.98341,0.5891 3.72911,0.017 6.31892,4.5625 5.52498,9.6967 -1.33685,8.6448 -13.41385,10.5285 -18.85725,2.9413 -0.93039,-1.2969 -1.953138,-3.1868 -2.272788,-4.1999 -1.13688,-3.6032 -1.73605,-11.8378 -1.68427,-23.1474 l 0.0525,-11.4706 -14.50024,-0.067 -14.50023,-0.067 -0.085,18.5604 c -0.0468,10.2081 0.0278,18.5607 0.16566,18.5613 0.13786,-5e-4 3.56773,-4.1598 7.62197,-9.2453 4.05421,-5.0858 7.48412,-9.2462 7.62199,-9.2455 0.13781,-5e-4 0.20642,9.6583 0.15239,21.4614 -0.054,11.8032 -0.29394,21.4473 -0.53313,21.4313 -0.23918,-0.016 -2.37571,-2.6359 -4.74779,-5.822 l -4.31297,-5.7929 -3.05571,-0.014 -3.05578,-0.014 -0.0996,21.7504 -0.0996,21.7504 15.95025,0.073 15.95025,0.073 0.0931,-20.3291 c 0.10303,-22.5054 0.0312,-22.0427 3.949008,-25.4511 2.01308,-1.7511 2.39061,-1.8615 5.53931,-1.6194 2.44421,0.1881 3.75097,0.6127 4.72357,1.5348 0.73945,0.7012 1.93994,1.2775 2.66769,1.2808 1.86425,0.01 4.46768,1.6935 5.22858,3.3839 1.81459,4.0313 1.12993,9.5584 -1.48147,11.9588 l -1.30444,1.1992 11.42529,20.0629 c 6.28395,11.0348 11.42903,20.2589 11.4335,20.4982 0.005,0.2392 -27.77421,0.3079 -61.730458,0.1527 l -61.73865,-0.2826 -1.62079,-1.4392 z m 47.54132,-34.2843 0.10607,-23.1726 3.48897,-0.1568 3.48897,-0.1567 -1.55621,-2.2039 -1.55614,-2.2039 -4.67773,0.1453 -4.67778,0.1452 -0.26725,25.3748 -0.26725,25.3746 2.90614,0.013 2.90613,0.013 z m 49.493118,-30.7046 c 3.22066,-2.149 4.2765,-5.4231 2.73463,-8.4796 -1.0651,-2.1112 -2.15646,-2.2032 -2.16571,-0.1824 -0.004,0.9407 -0.52797,2.3653 -1.16369,3.1659 -1.53699,1.9358 -5.50656,3.473 -7.69778,2.9812 -1.58918,-0.3566 -1.66311,-0.2994 -1.0673,0.8262 1.57431,2.9743 6.18619,3.8064 9.35985,1.6887 z m -49.251378,-22.104 0.0929,-20.3003 16.24026,0.074 16.24026,0.074 0.0106,-2.3279 0.0106,-2.328 -18.99601,0.063 -18.996,0.063 -0.25468,22.4747 -0.25472,22.4746 2.90689,0.014 2.90683,0.013 z m 191.760728,88.1894 -1.62084,-1.4391 33.46326,0.1346 33.46325,0.1346 1.62083,1.4392 1.62079,1.4391 -33.46326,-0.1346 -33.46331,-0.1346 z m 172.3755,0.7528 -1.7335,-1.4343 33.55681,0.1537 33.55686,0.1452 1.7166,1.4578 1.71662,1.4579 -33.53994,-0.1747 -33.53993,-0.1746 -1.73351,-1.4343 z m 123.54179,0.6018 -1.73348,-1.4342 35.38054,0.1619 35.38057,0.162 1.7335,1.4343 1.7335,1.4342 -35.38056,-0.1619 -35.38056,-0.1619 z m 135.14233,0.5824 -1.73349,-1.4344 33.55682,0.1537 33.55686,0.1452 1.71657,1.4578 1.71674,1.4579 -33.53999,-0.1746 -33.54002,-0.1746 -1.73348,-1.4343 z m -433.78778,-8.5562 c 0.3043,-0.2724 5.46465,-4.3166 11.46751,-8.9868 l 10.91428,-8.4912 0.13654,-36.9267 0.13654,-36.9267 -11.19473,-9.0416 -11.19479,-9.0416 34.90478,-0.01 c 22.95257,0 36.59202,0.2207 39.832,0.655 16.89106,2.263 30.06918,12.6954 33.2078,26.289 1.08011,4.6781 1.06708,11.262 -0.0324,16.3357 -2.29662,10.5984 -11.21554,20.365 -22.01212,24.1042 -10.19002,3.5293 -23.20651,2.4644 -29.92266,-2.4477 l -2.4076,-1.761 -0.0821,17.946 -0.0821,17.9458 6.1817,4.8516 c 3.39998,2.6683 6.5859,5.1713 7.07979,5.562 0.70883,0.561 -6.30702,0.6817 -33.29353,0.5728 -19.08843,-0.078 -33.94724,-0.3571 -33.63833,-0.6339 z m 50.38713,-55.9137 c 0.10722,-23.4966 0.32015,-42.8454 0.47321,-42.997 0.63995,-0.6341 11.38123,-1.2502 15.39718,-0.8831 5.18942,0.4743 10.84048,2.1523 12.98608,3.8559 2.19939,1.7464 2.32417,1.1471 0.39943,-1.9189 -1.90804,-3.0392 -5.88397,-5.3234 -10.97692,-6.3063 -1.7168,-0.3314 -7.78393,-0.6238 -13.48252,-0.65 l -10.36099,-0.047 -0.19915,43.5045 -0.19915,43.5045 1.29992,1.1182 c 2.13575,1.837 4.17985,3.4996 4.3286,3.5208 0.0767,0.011 0.22716,-19.2045 0.33431,-42.7012 z m 24.78489,9.342 c 2.59835,-1.1844 5.20974,-4.4598 6.33751,-7.949 1.24407,-3.8491 1.93318,-25.7651 0.96084,-30.5589 -0.90653,-4.4695 -4.04506,-8.0716 -8.56604,-9.8317 -3.54748,-1.3808 -13.77373,-2.2635 -17.76634,-1.5335 l -2.07533,0.3796 -0.0675,14.7464 -0.0675,14.7465 2.09487,-1.4077 c 2.79515,-1.8782 5.52823,-2.3024 9.29216,-1.4418 5.43602,1.2426 7.70042,4.779 6.98169,10.9033 -0.44845,3.8214 -2.48758,5.6843 -6.20335,5.6673 -3.78258,-0.017 -5.26174,-1.3484 -5.24631,-4.7212 0.0129,-2.8312 1.44618,-4.2865 4.20877,-4.274 1.90434,0.01 2.04872,-0.7161 0.46158,-2.3178 -1.43045,-1.4436 -4.69832,-1.5512 -6.96002,-0.2291 -2.56214,1.4977 -4.27703,5.0083 -3.94539,8.0768 0.90001,8.3271 12.0633,13.618 20.56036,9.7448 z m -9.58301,-1.6322 c -0.71539,-0.5231 -1.29972,-1.167 -1.2985,-1.4308 8.1e-4,-0.2637 1.6908,-0.5792 3.75461,-0.7012 2.93292,-0.1732 4.07087,-0.5181 5.21059,-1.579 3.05822,-2.8468 3.33488,-7.8257 0.72464,-13.0407 -1.40529,-2.8077 -1.30281,-2.9987 1.10885,-2.0693 3.58088,1.3804 5.12991,11.1203 2.4052,15.1238 -1.72266,2.5312 -4.31937,3.9807 -7.79226,4.3497 -2.06414,0.2193 -3.15848,0.045 -4.11313,-0.6525 z m -230.059588,17.7334 -1.58548,-2.0922 0.088,-19.2305 c 0.0485,-10.5768 0.28373,-19.2152 0.52289,-19.1965 0.23918,0.019 1.02217,0.7857 1.74004,1.7042 1.30477,1.6695 1.30509,1.6762 1.06259,21.2885 l -0.24258,19.6185 z M 114.245,1025.8857 c -0.98921,-1.5249 -0.98797,-1.5275 5.85768,-12.8341 6.2143,-10.264 6.92058,-11.2113 7.64208,-10.2504 0.43723,0.5824 0.80164,1.4078 0.80984,1.8345 0.008,0.4267 -2.98554,5.7256 -6.6527,11.7755 l -6.66752,10.9997 z m 116.11787,-3.5426 c -0.95355,-1.47 -0.92354,-1.5256 5.80312,-10.7336 3.71898,-5.0909 6.96065,-9.2552 7.20372,-9.2541 0.24308,-7e-4 0.76934,0.6206 1.1694,1.3765 0.67781,1.2804 0.28002,1.981 -5.83139,10.2686 -3.60733,4.8919 -6.74498,9.1026 -6.97251,9.3574 -0.22761,0.2545 -0.8451,-0.2022 -1.37234,-1.0148 z m 339.40736,-37.5834 c -3.50477,-0.9519 -7.10577,-2.015 -8.00224,-2.3627 -3.21537,-1.2468 -5.60563,-0.8211 -7.69136,1.3703 l -1.92386,2.0212 -5.83905,-0.027 c -3.21147,-0.014 -5.83794,-0.2663 -5.8366,-0.5592 0.002,-0.2929 -0.1541,-0.9462 -0.34542,-1.4517 -0.30158,-0.7967 0.358,-0.9158 4.95751,-0.8948 l 5.30537,0.024 2.16744,-2.2577 c 3.35556,-3.4953 4.99874,-3.5507 14.48461,-0.4877 12.7722,4.1239 18.41186,3.4899 24.95943,-2.8064 1.34887,-1.2971 3.2379,-3.5964 4.19781,-5.1097 1.73805,-2.7398 1.74538,-2.7439 1.74821,-0.9696 0.009,5.4648 -3.56168,9.9732 -10.41801,13.1549 -5.42463,2.5173 -9.50192,2.5989 -17.76385,0.3554 z m 3.51462,-7.5355 c -2.2302,-0.6288 -6.77724,-2.086 -10.10451,-3.2382 -7.7454,-2.6823 -9.40232,-2.7033 -11.97879,-0.1502 -1.08958,1.0796 -1.98296,2.3806 -1.9853,2.891 -0.003,0.7855 -0.85009,0.9241 -5.51433,0.9028 -6.21129,-0.029 -6.02239,0.1665 -4.55399,-4.7008 2.07249,-6.8696 6.31026,-12.7148 10.9991,-15.1709 1.81121,-0.9487 3.35174,-1.224 6.7018,-1.1973 3.77646,0.03 5.30426,0.4049 11.58742,2.8419 8.8592,3.4365 13.39768,4.0744 15.76424,2.2163 0.86324,-0.6779 1.90113,-2.1365 2.30644,-3.2416 l 0.73693,-2.0091 5.18436,0.024 5.18437,0.024 -0.36954,3.0025 c -0.49217,3.9986 -3.75354,10.6106 -6.71652,13.6166 -4.86165,4.9327 -10.09494,6.2042 -17.24167,4.1896 z"
       style="fill:#ffd42a;fill-opacity:1;stroke:#002d4e;stroke-width:1.58450747;stroke-miterlimit:4;stroke-dasharray:none;stroke-opacity:1" />
    <circle
       r="12.341379"
       id="path2181"
       style="fill:#ffffff;fill-opacity:1;fill-rule:nonzero;stroke:none;stroke-width:1.68795836;stroke-linecap:round;stroke-linejoin:round;stroke-miterlimit:4;stroke-dasharray:none;stroke-dashoffset:6.76940012;stroke-opacity:1"
       cx="713.98682"
       cy="947.19501" />
    <path
       inkscape:connector-curvature="0"
       id="path2170"
       d="m 386.00598,946.3607 c 0.67965,-0.091 1.03446,-0.1852 1.44885,-0.3832 0.17597,-0.084 0.28856,-0.1689 0.4782,-0.3603 0.44419,-0.448 0.62944,-0.8758 0.65662,-1.5162 0.0135,-0.3108 0.008,-0.4136 -0.0489,-0.6324 -0.16297,-0.6546 -0.55323,-1.1459 -1.14604,-1.4427 -0.36629,-0.1833 -0.65248,-0.2641 -1.18782,-0.3354 -0.2975,-0.04 -0.78372,-0.052 -2.47598,-0.063 l -2.10573,-0.014 v 2.4119 2.4117 l 2.01315,-0.014 c 1.57739,-0.011 2.09003,-0.024 2.36803,-0.062 z"
       style="fill:#ffffff;stroke-width:0.84397918" />
    <path
       inkscape:connector-curvature="0"
       d="m 202.60468,899.78711 c -18.81329,18.81925 -52.25221,14.65371 -77.73506,8.92461 C 94.8889,901.97141 65.761325,884.0276 45.684098,859.84805 25.444413,835.47282 13.565897,802.47956 10.345097,770.41034 7.8628431,745.6948 5.6695656,713.81548 23.294265,697.0915 c 19.131621,-18.15389 52.097194,-13.17694 77.296955,-7.09695 29.19652,7.0443 57.53099,24.64247 76.99496,48.40677 20.34435,24.83916 31.67928,58.36461 35.33901,90.80844 2.66605,23.6348 6.14739,54.10425 -10.32051,70.57735 z"
       id="path3808"
       style="fill:#ffd42a;fill-opacity:1;stroke:#002d4e;stroke-width:6.50322008;stroke-linejoin:miter;stroke-miterlimit:4;stroke-dasharray:none;stroke-opacity:1" />
    <path
       inkscape:connector-curvature="0"
       d="m 34.0271,690.88743 c 0,0 0.679578,40.87077 7.009762,59.85587 8.933706,26.79342 25.449126,50.54531 42.496682,72.64948 17.996616,23.33476 38.805306,44.79423 62.211646,62.14044 13.09686,9.70596 42.9348,22.84575 42.9348,22.84575"
       id="path3810"
       style="fill:none;stroke:#002d4e;stroke-width:6.50322008;stroke-linecap:butt;stroke-linejoin:miter;stroke-miterlimit:4;stroke-dasharray:none;stroke-opacity:1" />
    <path
       style="fill:#002d4e;fill-opacity:1;stroke:#ffd42a;stroke-width:6.50322056;stroke-linecap:butt;stroke-linejoin:miter;stroke-miterlimit:4;stroke-dasharray:none;stroke-opacity:1"
       id="path3836"
       d="m 202.83022,125.42551 -6.16451,10.41361 -10.79636,1.87574 -15.32201,-1.35312 -9.45278,-10.59904 z m 382.28151,759.80486 c 58.25317,-2.93596 116.50635,-5.87194 174.75953,-8.80791 12.11392,-8.38971 2.87733,-28.01609 5.94892,-41.16475 5.00483,-17.36977 -5.605,-26.304 -19.20567,-33.62248 -32.33936,-23.24179 -64.67867,-46.48358 -97.01802,-69.7254 -1.29874,-33.05775 -2.59751,-66.11549 -3.89625,-99.17325 -19.73722,-20.29622 -39.4744,-40.59245 -59.21161,-60.88869 4.29679,-14.18537 19.933,-23.86544 28.66686,-36.2879 19.18763,-24.69712 46.08625,-43.86659 57.70975,-73.98606 2.32618,-15.30496 3.03757,-30.15237 -8.97664,-41.39381 C 607.11136,334.59504 550.33418,249.00993 493.55696,163.42484 521.05745,131.11861 548.55795,98.812408 576.05846,66.506185 611.41175,72.806713 661.751,44.274191 657.73148,8.1919761 615.19514,-2.1310211 604.22308,19.168324 586.76154,30.110149 c -21.85501,4.207341 -13.39937,31.476845 -29.44787,41.886442 -26.24233,30.575939 -52.48465,61.151869 -78.727,91.727809 56.57086,88.16094 113.14174,176.32188 169.71261,264.48282 4.60453,18.06087 -16.05638,23.61206 -25.42825,34.7528 -26.73294,22.97851 -53.46586,45.95702 -80.19882,68.93552 -17.66905,-12.47102 -34.07508,-28.76231 -52.51727,-38.89476 -32.0977,-1.85508 -65.45381,0.0935 -96.77826,-4.09894 -24.29257,-18.81972 -48.58513,-37.63945 -72.87771,-56.45919 20.19241,-20.6526 40.38483,-41.3052 60.57727,-61.95782 C 376.83703,259.47915 372.59779,148.47344 368.35858,37.467734 355.54219,26.700046 344.45649,11.287071 330.59197,3.3326692 288.11089,4.1100774 245.2018,2.5370506 202.98522,4.7670663 185.7216,13.178854 165.12439,17.015665 149.9023,28.229199 145.56308,41.741047 122.6366,41.78141 108.04566,53.597905 94.515711,64.555154 78.709225,84.092955 77.135634,105.93219 c 12.56811,8.68222 31.678406,4.49572 43.966196,11.17923 11.21742,3.93406 -17.08796,20.73112 -23.378234,28.45055 -21.088759,5.99085 -67.208287,15.95035 -50.870737,33.34872 15.939573,-1.38084 30.299132,-1.44533 47.731158,-4.70778 15.697103,-10.63648 27.497393,-37.4589 49.413723,-27.01969 9.84468,8.97158 33.01048,10.63188 26.4868,28.58715 -5.23998,12.58506 -24.37386,15.90251 -35.16257,24.78641 -30.70017,17.95638 -61.400344,35.91274 -92.100512,53.8691 -19.127583,13.24526 3.428921,43.41208 -16.424696,55.47147 -11.12365,11.66556 -27.18997152,21.58194 -22.9392945,40.54947 0.1313117,24.79404 0.2626234,49.58805 0.3939352,74.38209 11.6523993,9.72392 22.0057953,20.15805 20.7584523,36.93468 9.59334,64.47966 19.186681,128.95927 28.780019,193.43892 -16.118098,17.25165 -32.236196,34.50329 -48.3542964,51.75494 2.7125567,34.72868 27.3542834,1.24517 36.3630784,-10.06352 23.732947,-5.21377 49.738017,-6.64471 73.299544,0.56648 11.00127,-13.17396 -18.92808,-23.68495 -1.63763,-40.83364 5.20388,-15.02915 10.40776,-30.05831 15.61164,-45.08747 39.61804,26.53731 79.23607,53.07463 118.85411,79.61194 29.48192,3.78327 43.05551,-32.9386 69.90738,-41.56399 26.55151,-19.98757 57.5326,-32.69157 90.81368,-30.21494 24.00516,-1.91841 13.40447,7.87586 -4.46746,4.71926 -15.85104,1.26868 -34.03941,-3.81659 -44.56259,11.93577 -21.39297,18.94291 -42.78592,37.88585 -64.17888,56.82874 0.13302,27.88063 0.26602,55.76124 0.39903,83.64188 40.82129,22.9725 81.64257,45.94498 122.46387,68.91749 -4.22813,16.89397 -14.42389,23.87022 -30.95424,20.31887 -54.09746,1.37614 -108.19492,2.75225 -162.29239,4.12837 -17.11607,12.80204 -43.77212,20.87368 -43.66948,47.01399 m -0.0749,0.79884 c 128.59749,0.8694 257.19498,1.73882 385.79249,2.60822 8.05753,-12.3612 23.34331,-22.27688 18.13734,-39.12551 -0.90653,-15.31677 2.52031,-33.2348 -15.25071,-38.428 -17.35745,-11.71932 -34.71491,-23.43864 -52.07237,-35.15797 12.0986,-12.90149 25.68334,-22.98269 43.19227,-25.61683 19.26284,3.36439 38.09968,15.66823 57.20114,22.41838 17.43417,7.46114 34.86833,14.92225 52.3025,22.38337 -6.20836,17.60726 -24.76542,11.06364 -38.90193,13.16543 -16.79624,2.3554 -35.94134,-4.0435 -47.90696,11.80761"
       inkscape:connector-curvature="0" />
    <path
       style="fill:none;stroke:#ffd42a;stroke-width:6.50322056;stroke-linecap:round;stroke-linejoin:miter;stroke-miterlimit:4;stroke-dasharray:none;stroke-opacity:1"
       id="path3778"
       d="m 511.498,810.32383 -31.08733,-17.3658 5.40649,-10.32558 30.63679,-10.79495 20.27434,-10.79494 4.05486,-3.75476 0.90109,-38.48634"
       inkscape:connector-curvature="0" />
    <path
       style="fill:none;stroke:#ffd42a;stroke-width:6.50322056;stroke-linecap:round;stroke-linejoin:miter;stroke-miterlimit:4;stroke-dasharray:none;stroke-opacity:1"
       id="path3780"
       d="m 409.67571,846.46343 73.43819,41.3024 47.30682,-0.46933 7.65919,-10.79496"
       inkscape:connector-curvature="0" />
    <path
       style="fill:none;stroke:#ffd42a;stroke-width:6.50322056;stroke-linecap:butt;stroke-linejoin:miter;stroke-miterlimit:4;stroke-dasharray:none;stroke-opacity:1"
       id="path3782"
       d="m 584.48563,575.65108 2.70325,169.43374 c 0,0 -0.45053,4.69344 -0.90109,6.10147 -0.45053,1.40805 -2.25269,2.81608 -3.60431,5.16281 -1.35163,2.34674 -27.93354,29.09942 -27.93354,29.09942"
       inkscape:connector-curvature="0" />
    <path
       style="fill:none;stroke:#ffd42a;stroke-width:6.50322056;stroke-linecap:round;stroke-linejoin:miter;stroke-miterlimit:4;stroke-dasharray:none;stroke-opacity:1"
       id="path3784"
       d="m 652.06679,843.41268 c 10.84696,-3.13095 21.86923,-10.67933 33.56531,-13.37634 10.43657,-2.40659 20.28057,-2.34673 31.98841,-2.34673"
       inkscape:connector-curvature="0" />
    <path
       style="fill:none;stroke:#ffd42a;stroke-width:6.50322056;stroke-linecap:round;stroke-linejoin:miter;stroke-miterlimit:4;stroke-dasharray:none;stroke-opacity:1"
       id="path3839"
       d="m 128.36732,142.82717 21.98206,-21.57203 19.91128,0.49782"
       inkscape:connector-curvature="0" />
    <path
       style="fill:none;stroke:#ffd42a;stroke-width:6.50322056;stroke-linecap:round;stroke-linejoin:miter;stroke-miterlimit:4;stroke-dasharray:none;stroke-opacity:1"
       id="path3841"
       d="m 153.85378,121.58702 c 0,0 -7.64594,8.29693 -7.96452,9.62444 -0.31859,1.32752 -1.5929,8.29693 -1.5929,8.29693"
       inkscape:connector-curvature="0" />
    <path
       style="display:inline;fill:none;stroke:#ffd42a;stroke-width:6.50322056;stroke-linecap:butt;stroke-linejoin:miter;stroke-miterlimit:4;stroke-dasharray:none;stroke-opacity:1"
       id="path3843"
       d="m 175.232,159.27145 c 6.08963,-2.99443 13.37134,-3.39493 18.90863,1.24855 6.34474,3.57347 13.62474,3.89493 20.41662,1.72855 13.50303,-7.37796 26.61629,-15.83631 39.96996,-23.62828 0.30036,-29.72522 0.60073,-59.450437 0.90108,-89.175653 -11.86425,-8.135322 -23.72849,-16.270643 -35.59274,-24.405965 -7.8084,-0.240754 -15.6369,-1.959134 -23.42814,-0.938689 -6.56449,6.769169 -16.57595,4.780128 -24.89237,6.805509 -11.21733,1.660593 -21.22129,7.818893 -31.84613,11.674345 -9.55088,4.507144 -19.3906,8.942173 -28.33882,14.452798 -4.84233,7.267252 -11.39699,14.139463 -10.57904,23.740813 -0.12532,7.377091 -2.539411,14.2976 -1.209944,21.707222"
       inkscape:connector-curvature="0" />
    <path
       style="fill:none;stroke:#ffd42a;stroke-width:6.50322056;stroke-linecap:round;stroke-linejoin:miter;stroke-miterlimit:4;stroke-dasharray:none;stroke-opacity:1"
       id="path3863"
       d="m 124.25799,109.12169 50.01006,3.28542 19.59853,-16.661762 c 0,0 3.15377,-0.93869 5.40649,-0.93869 2.25271,0 4.95596,0 7.6592,0.93869 2.70324,0.93869 5.85702,3.050746 6.53284,3.989436 0.67581,0.938696 2.02743,2.346726 1.5769,5.397476 -0.45056,3.05074 -0.90109,4.92813 -1.5769,7.04018 -0.67582,2.11206 -1.80217,6.80551 -1.80217,6.80551"
       inkscape:connector-curvature="0" />
    <path
       style="fill:none;stroke:#ffd42a;stroke-width:6.50322056;stroke-linecap:butt;stroke-linejoin:miter;stroke-miterlimit:4;stroke-dasharray:none;stroke-opacity:1"
       id="path3865"
       d="M 254.23907,138.22112 253.78853,157.69897 37.754116,295.45184"
       inkscape:connector-curvature="0" />
    <path
       style="fill:none;stroke:#ffd42a;stroke-width:6.50322056;stroke-linecap:round;stroke-linejoin:miter;stroke-miterlimit:4;stroke-dasharray:none;stroke-opacity:1"
       id="path3867"
       d="m 15.452335,427.33792 37.394905,14.08037 2.477976,-89.87966 c 0,0 0.450541,-2.11206 1.126351,-3.28542 0.675812,-1.17337 2.027436,-3.52009 3.153789,-4.45878 1.126352,-0.93869 3.153787,-2.34672 4.95595,-3.75477 C 66.36347,338.63164 245.45353,217.30582 245.45353,217.30582"
       inkscape:connector-curvature="0" />
    <path
       style="fill:none;stroke:#ffd42a;stroke-width:6.50322056;stroke-linecap:butt;stroke-linejoin:miter;stroke-miterlimit:4;stroke-dasharray:none;stroke-opacity:1"
       id="path3871"
       d="m 52.396699,440.94894 12.615149,9.85625 43.702482,-38.95567 0.90108,-45.05717 c 66.48816,-44.74857 177.04416,-121.38031 230.58435,-158.7805 4.69694,-3.28102 10.74088,-7.20729 13.51145,-12.70701 2.39513,-4.75445 1.83167,-10.92198 1.99912,-16.01191 1.61736,-49.1653 1.91763,-106.57724 2.15318,-146.205202 L 332.63321,3.5189634"
       inkscape:connector-curvature="0" />
    <path
       style="fill:none;stroke:#ffd42a;stroke-width:6.50322056;stroke-linecap:butt;stroke-linejoin:miter;stroke-miterlimit:4;stroke-dasharray:none;stroke-opacity:1"
       id="path3891"
       d="m 87.538897,688.29401 -1.351624,-194.30903 1.802166,-3.28542 2.703245,-3.75476 62.625196,-41.77174 -1.80216,-41.77175"
       inkscape:connector-curvature="0" />
    <path
       style="fill:none;stroke:#ffd42a;stroke-width:6.50322056;stroke-linecap:butt;stroke-linejoin:miter;stroke-miterlimit:4;stroke-dasharray:none;stroke-opacity:1"
       id="path3893"
       d="m 108.26378,411.38018 c 0.15018,5.63215 0.30037,11.26429 0.45055,16.89643 68.48223,-43.33621 136.96446,-86.67246 205.4467,-130.00869 9.15414,-5.28261 21.58085,1.06693 17.19887,12.97758 m -9.53968,120.78589 c -11.86425,-10.32561 -23.72849,-20.65121 -35.59273,-30.97682 0,0 -3.68868,-30.61375 -5.30816,-46.72646 -0.33208,-3.3041 -0.0768,-7.63913 2.48082,-9.62596 15.33211,-11.91034 30.08482,-24.32425 48.26317,-33.57345"
       inkscape:connector-curvature="0" />
    <path
       style="fill:none;stroke:#ffd42a;stroke-width:6.50322056;stroke-linecap:round;stroke-linejoin:miter;stroke-miterlimit:4;stroke-dasharray:none;stroke-opacity:1"
       id="path3897"
       d="m 289.8318,404.33999 40.09815,-30.03809 1.73336,-70.21658"
       inkscape:connector-curvature="0" />
    <path
       style="fill:none;stroke:#ffd42a;stroke-width:6.50322056;stroke-linecap:butt;stroke-linejoin:miter;stroke-miterlimit:4;stroke-dasharray:none;stroke-opacity:1"
       id="path3899"
       d="m 106.01108,476.14985 6.75811,116.39768 15.31839,15.01905"
       inkscape:connector-curvature="0" />
    <path
       style="fill:#ffd42a;fill-opacity:1;fill-rule:evenodd;stroke:none;stroke-width:1.30168521"
       id="path3901"
       d="m 188.41463,62.436067 c 3.12122,-2.1059 6.57231,-5.038031 10.1578,-6.285072 4.08048,-1.549065 2.62539,-1.964852 6.7755,-3.356241 2.9016,-1.131529 13.38035,-2.429928 16.80095,-2.821628 3.30661,-0.601237 5.3205,2.419984 2.68574,4.355768 -1.6354,1.311308 -10.3661,4.59528 -9.87802,6.63238 -3.69285,6.616696 -5.71928,12.242172 -18.79093,6.821202 -3.25367,1.151197 0.5314,-0.225899 -3.95931,1.397997 -2.95447,0.355774 -4.38216,0.118282 -7.30673,-0.956567 0.25884,-2.316938 1.197,-4.782379 3.515,-5.787839 z"
       inkscape:connector-curvature="0" />
    <path
       style="fill:none;stroke:#ffd42a;stroke-width:7.81011105;stroke-linecap:round;stroke-linejoin:miter;stroke-miterlimit:4;stroke-dasharray:none;stroke-opacity:1"
       id="path3002"
       d="m 597.53579,33.673715 c 0,0 15.47299,-6.361319 23.54266,-8.331229 5.95647,-1.454048 18.19208,-2.533459 18.19208,-2.533459"
       inkscape:connector-curvature="0" />
    <path
       style="fill:none;stroke:#ffd42a;stroke-width:9.11179638;stroke-linecap:round;stroke-linejoin:miter;stroke-miterlimit:4;stroke-dasharray:none;stroke-opacity:1"
       id="path3772"
       d="m 591.12715,69.382196 c 0.65779,-1.369546 5.35347,-10.244971 9.33364,-14.217642 3.5902,-3.583424 12.6625,-8.217278 12.6625,-8.217278"
       inkscape:connector-curvature="0" />
    <path
       style="fill:none;stroke:#ffd42a;stroke-width:9.11179638;stroke-linecap:round;stroke-linejoin:miter;stroke-miterlimit:4;stroke-dasharray:none;stroke-opacity:1"
       id="path3774"
       d="m 636.80381,58.588417 c 0,0 2.31204,-7.764555 4.35091,-11.179367 1.11172,-1.86195 4.2004,-4.9128 4.2004,-4.9128"
       inkscape:connector-curvature="0" />
    <circle
       id="circle1016"
       r="15.520154"
       cy="942.25696"
       cx="695.909"
       style="fill:none;stroke:#002d4e;stroke-width:3.50737953;stroke-opacity:1" />
    <path
       style="fill:#002d4e;fill-opacity:1;stroke-width:0.17536896"
       id="path1018"
       d="m 694.96197,940.85402 c 0.96453,0 1.66602,-0.19287 2.0869,-0.56113 0.42088,-0.35079 0.64886,-0.94709 0.64886,-1.78879 0,-0.82423 -0.22798,-1.40294 -0.64886,-1.77121 -0.42088,-0.35079 -1.12237,-0.52618 -2.0869,-0.52618 h -1.96413 v 4.64731 h 1.96413 m -1.96413,3.20921 v 6.83943 h -4.66481 v -18.08055 h 7.11998 c 2.38502,0 4.12117,0.40332 5.22599,1.21007 1.12237,0.78917 1.66601,2.05178 1.66601,3.78793 0,1.19249 -0.28059,2.17463 -0.85931,2.94622 -0.57872,0.75411 -1.43802,1.33282 -2.613,1.68351 0.64887,0.15792 1.21005,0.49112 1.71863,0.99962 0.50857,0.5086 1.01713,1.28019 1.5257,2.33245 l 2.54285,5.12075 h -4.96294 l -2.20965,-4.4894 c -0.43842,-0.89445 -0.89438,-1.5258 -1.35034,-1.84143 -0.45596,-0.3332 -1.06975,-0.5086 -1.82384,-0.5086 h -1.31527"
       inkscape:connector-curvature="0" />
  </g>
</svg>
