<?xml version="1.0" encoding="UTF-8"?>
<!-- Generator: Adobe Illustrator 15.1.0, SVG Export Plug-In  -->
<!DOCTYPE svg PUBLIC "-//W3C//DTD SVG 1.1//EN" "http://www.w3.org/Graphics/SVG/1.1/DTD/svg11.dtd">
<svg version="1.1" xmlns="http://www.w3.org/2000/svg" xmlns:xlink="http://www.w3.org/1999/xlink" xmlns:a="http://ns.adobe.com/AdobeSVGViewerExtensions/3.0/" x="0px" y="0px" width="1000px" height="1000px" viewBox="-160.814 0 1000 1000" overflow="visible" enable-background="new -160.814 0 1000 1000" xml:space="preserve">
<defs>
</defs>
<path fill-rule="evenodd" clip-rule="evenodd" d="M354.889,969.247c-22.051,1.844-27.569-18.383-27.569-18.383  s-5.518,20.227-27.558,18.383c-7.262-0.613-47.668-20.599-85.133-58.805h-40.97c55.425,60.561,116.844,88.674,126.104,89.439  c22.04,1.844,27.558-18.383,27.558-18.383s5.518,20.227,27.569,18.383c9.272-0.766,70.688-28.879,126.101-89.439h-40.986  C402.537,948.648,362.146,968.633,354.889,969.247z"/>
<path fill-rule="evenodd" clip-rule="evenodd" d="M283.796,864.179h3.138l12.53,18.874l12.111,18.253h24.299v-2.851  c-1.075-0.081-1.985-0.25-2.727-0.524c-0.725-0.306-1.43-0.934-2.086-1.86l-9.188-13.018l-14.705-20.782  c4.056-0.782,7.898-2.555,11.547-5.35c4.745-3.705,7.133-8.789,7.133-15.24c0-8.749-4.757-14.807-14.274-18.149  c-4.914-1.676-11.334-2.506-19.261-2.506h-38.207v3.005c4.056,0.354,6.667,1.008,7.818,1.926c1.756,1.385,2.618,4.39,2.618,8.989  v48.107v4.382c-0.008,4.407-0.745,7.282-2.203,8.596c-1.47,1.305-4.213,2.062-8.233,2.247v3.028h40.128v-3.028  c-4.181-0.146-6.956-0.942-8.354-2.36c-1.398-1.482-2.086-4.31-2.086-8.482v-4.382V864.179z M283.796,830.129  c0-1.812,0.479-3.109,1.446-3.892c1.007-0.797,3.098-1.199,6.259-1.199c5.836,0,9.868,2.255,12.079,6.774  c1.269,2.658,1.905,6.299,1.905,10.906c0,7.508-1.676,12.293-5.047,14.379c-3.319,2.047-8.873,3.142-16.643,3.246V830.129z"/>
<path fill-rule="evenodd" clip-rule="evenodd" d="M350.354,883.053h0.064c0.653,3.19,1.732,5.978,3.19,8.386  c5.034,8.168,14.387,12.244,28.041,12.244c10.432-0.016,18.076-2.763,22.966-8.249c2.844-3.206,4.857-7.25,6.042-12.22l0.048,0.008  c0.797-3.326,1.192-7.057,1.192-11.164v-37.981c0-3.827,0.612-6.26,1.812-7.314c1.248-1.08,3.753-1.99,7.532-2.731v-3.005h-26.084  v3.005c4.567,0.354,7.612,1.346,9.159,2.956c1.57,1.604,2.368,4.52,2.368,8.781v36.29c0,4.115-0.322,7.636-0.999,10.793h-0.04  c-0.419,1.821-0.95,3.432-1.627,4.818c-3.215,6.766-9.377,10.142-18.487,10.142c-7.354,0-12.325-3.045-14.911-9.151  c-0.717-1.635-1.256-3.625-1.619-5.606v-0.354c-0.346-2.328-0.523-5.011-0.523-8.015v-39.738c0-4.566,0.766-7.491,2.312-8.765  c1.554-1.272,4.632-1.98,9.223-2.15v-3.005H339.87v3.005c4.148,0.476,6.783,1.281,7.95,2.449c1.204,1.16,1.801,3.972,1.801,8.466  v39.738C349.621,877.616,349.854,880.331,350.354,883.053z"/>
<polygon fill-rule="evenodd" clip-rule="evenodd" points="446.737,800.678 460.085,784.479 420.058,795.144 437.409,773.79   401.184,780.459 413.179,757.799 381.175,771.131 385.178,744.452 357.153,769.802 347.812,743.115 338.48,767.127 326.256,743.115   320.928,765.798 295.573,733.778 302.251,761.803 264.902,751.122 275.56,764.461 250.016,763.132 264.902,780.459 232.676,775.135   250.016,792.478 212.654,785.817 222.003,797.811 84.179,810.031 559.006,810.031 "/>
<path fill-rule="evenodd" clip-rule="evenodd" d="M208.571,832.45c0-3.545,1.147-5.938,3.476-7.138  c1.397-0.685,3.955-1.111,7.665-1.281v-3.005h-41.525v3.005c3.544,0.17,6.029,0.612,7.423,1.346c2.276,1.2,3.419,3.553,3.419,7.073  v50.604v6.88c0,3.512-1.208,5.88-3.592,7.129c-1.471,0.732-3.899,1.144-7.25,1.216v3.028h41.525v-3.028  c-3.709,0-6.497-0.563-8.357-1.676c-1.861-1.119-2.783-3.359-2.783-6.669v-6.88V832.45z"/>
<path fill-rule="evenodd" clip-rule="evenodd" d="M72.559,824.031c3.556,0.17,6.042,0.612,7.431,1.346  c2.275,1.2,3.416,3.553,3.416,7.073v50.604v6.88c0,3.512-1.204,5.88-3.593,7.129c-1.47,0.732-3.891,1.144-7.254,1.216v3.028h41.534  v-3.028c-3.713,0-6.5-0.563-8.361-1.676c-1.849-1.119-2.783-3.359-2.783-6.669v-6.88V832.45c0-3.545,1.164-5.938,3.48-7.138  c1.397-0.685,3.951-1.111,7.665-1.281v-3.005H72.559V824.031z"/>
<path fill-rule="evenodd" clip-rule="evenodd" d="M173.763,821.026h-41.808v3.005c4.185,0.17,6.979,0.597,8.406,1.281  c2.348,1.168,3.548,3.544,3.548,7.138v50.604v6.033c0,3.238-0.338,5.551-0.999,6.96c-1.196,2.312-3.577,3.464-7.129,3.464  c-1.309,0-2.428-0.298-3.379-0.918c-0.878-0.588-1.317-1.458-1.317-2.618c0-0.314,0.456-1.337,1.402-3.061  c0.955-1.741,1.426-3.585,1.426-5.526c0-1.668-1.261-4.52-1.261-4.52l-0.991-1.281c-1.51-1.618-3.415-2.433-5.748-2.433  c-2.312,0-4.333,0.839-6.078,2.481l-1.087,1.378h-0.032c-0.958,1.498-1.43,3.343-1.43,5.542c0,3.633,1.776,7.04,5.333,10.206  c3.593,3.19,8.317,4.761,14.206,4.761c8.321,0,14.762-2.36,19.37-7.08c3.415-3.513,5.562-8.064,6.424-13.389l-0.016-0.298  c0.293-1.869,0.447-3.875,0.447-5.985v-41.824c0-4.566,0.717-7.435,2.187-8.643c1.479-1.192,4.326-1.942,8.527-2.272V821.026z"/>
<path fill-rule="evenodd" clip-rule="evenodd" d="M0,824.031c3.556,0.25,5.997,0.733,7.313,1.459  c2.163,1.216,3.259,3.528,3.259,6.96v50.604v6.88c0,3.391-1.116,5.719-3.315,6.951c-1.441,0.813-3.842,1.281-7.257,1.394v3.028  h42.757v-3.028c-4.422,0.081-7.708-0.362-9.859-1.329c-2.135-1.007-3.182-3.343-3.182-7.016v-6.88v-20.782  c6.368,0,10.774,1.457,13.215,4.397c2.461,2.948,4.125,7.629,4.93,14.041h3.009v-40.141h-3.009  c-1.164,6.187-2.884,10.697-5.16,13.517c-2.239,2.828-6.585,4.181-12.985,4.068v-27.501c0-2.167,0.447-3.633,1.377-4.415  c0.967-0.797,3.186-1.199,6.666-1.199c9.364,0,15.785,1.474,19.265,4.462c3.48,2.933,5.957,8.097,7.423,15.482h2.888v-23.957H0  V824.031z"/>
<path fill-rule="evenodd" clip-rule="evenodd" d="M472.644,870.277c4.357,0.073,7.266,0.468,8.699,1.145  c2.199,1.119,3.303,3.479,3.303,7.088v4.544v7.975c0,2.441-0.515,4.262-1.514,5.454c-1.74,2.118-5.132,3.197-10.206,3.197  c-9.361,0-15.685-3.866-18.971-11.615c-0.701-1.676-1.346-3.456-1.894-5.011v-0.233c-1.974-6.437-2.972-13.51-2.972-21.258  c0-12.06,1.764-21.404,5.283-28.058c3.513-6.662,9.095-9.973,16.74-9.973c7.057,0,13.371,3.206,18.913,9.61  c2.981,3.479,5.913,8.24,8.765,14.266h3.013v-27.782h-3.311c-0.483,1.828-1.128,3.181-1.909,4.075  c-0.772,0.895-1.779,1.338-3.061,1.338c-1.201,0-4.246-0.927-9.11-2.739c-4.883-1.853-9.764-2.779-14.678-2.779  c-12.269,0-22.33,4.165-30.208,12.479c-7.637,8.071-11.438,18.035-11.438,29.86c0,8.056,1.732,15.185,5.203,21.194v0.169  c1.58,2.803,3.536,5.438,5.817,7.854c7.894,8.321,18.438,12.486,31.616,12.486c7.274,0,13.84-0.813,19.72-2.44  c5.873-1.619,10.118-3.238,12.761-4.874v-13.194v-1.941c0-4.1,0.66-6.879,1.974-8.354c1.353-1.515,4.076-2.344,8.184-2.481v-3.028  h-40.72V870.277z"/>
<path fill-rule="evenodd" clip-rule="evenodd" d="M652.264,821.026v3.005c3.818,0.282,6.307,0.646,7.41,1.112  c1.684,0.701,2.505,2.086,2.505,4.181c0,1.337-0.668,3.447-2.029,6.267c-0.895,1.837-1.756,3.416-2.546,4.696l-13.759,20.872  l-14.846-28.524l-1.507-3.439l-0.289-1.788c0-1.233,0.563-2.055,1.74-2.434c1.168-0.378,3.793-0.692,7.901-0.942v-3.005H597.1v3.005  c1.426,0.041,2.852,0.403,4.236,1.047c2.087,1.056,3.844,2.876,5.285,5.454l21.677,39.447v13.074v4.382  c0,4.326-0.733,7.186-2.198,8.596c-1.435,1.385-4.351,2.135-8.757,2.247v3.028h41.243v-3.028c-4.253-0.112-7.16-0.813-8.708-2.094  c-1.546-1.306-2.312-4.214-2.312-8.749v-4.382v-17.488l22.692-36.942c0.951-1.498,2.151-2.626,3.585-3.359  c1.104-0.467,2.618-0.878,4.527-1.232v-3.005H652.264z"/>
<path fill-rule="evenodd" clip-rule="evenodd" d="M580.103,862.73c-3.246-2.006-7.08-3.448-11.487-5.397  c4.197-0.773,8.048-2.586,11.608-5.453c3.601-2.893,5.396-6.8,5.396-11.713c0-8.088-4.405-13.654-13.234-16.699  c-4.665-1.619-10.553-2.441-17.617-2.441h-36.725v3.005c3.447,0.21,5.824,0.677,7.146,1.41c2.215,1.2,3.294,3.52,3.294,7.009v50.604  v6.88c0,3.472-1.184,5.84-3.528,7.064c-1.409,0.749-3.689,1.168-6.911,1.28v3.028h38.239c10.077,0,18.165-2.037,24.23-6.089  c4.93-3.336,7.854-7.476,8.78-12.164v-0.282c0.226-1.151,0.322-2.344,0.322-3.576C589.616,872.154,586.459,866.668,580.103,862.73z   M547.454,830.363c0-2.159,0.491-3.649,1.458-4.455c0.95-0.861,2.674-1.28,5.163-1.28c4.664,0,7.806,1.546,9.441,4.623  c1.675,3.11,2.505,6.904,2.505,11.424c0,6.121-1.265,10.375-3.777,12.768c-2.521,2.392-7.428,3.608-14.79,3.608V830.363z   M569.034,882.884L569.034,882.884c-0.37,4.196-1.449,7.523-3.311,9.996c-2.247,3.062-6.163,4.584-11.769,4.584  c-2.747,0-4.608-0.846-5.566-2.554c-0.588-0.959-0.878-2.481-0.935-4.575v-7.282v-22.41c6.452-0.104,11.205,0.677,14.218,2.385  c4.986,2.779,7.475,8.378,7.475,16.812C569.146,880.838,569.115,881.796,569.034,882.884z"/>
<path fill-rule="evenodd" clip-rule="evenodd" d="M111.792,406.78l3.146,13.787l6.259-24.444l0.637,16.917l10.653-31.972  l1.257,21.315l9.4-31.344l1.889,18.802l5.635-26.958l3.762,17.565l5.646-26.958l3.766,18.793l5.635-25.701l3.125,18.185  l6.275-24.444l3.773,17.548l5.639-25.084l1.245,18.806l5.651-22.555l3.142,15.66l4.39-20.683l3.757,17.553l5.003-21.951l3.15,15.056  l5.002-18.81l2.514,15.06l5.639-18.817l3.137,13.787l5.022-13.787l3.126,11.91l5.651-15.675l1.256,11.277l5.643-14.419l2.497,11.29  l5.022-13.154l1.252,12.53c0,0,4.705-7.467,8.177-11.93c13.13-16.917,33.82-23.799,33.82-23.799s-44.168-10.529-124.416,28.169  c-55.792,26.893-68.725,73.699-71.416,99.714v0.415c-1.184,10.992-0.391,18.407-0.391,18.407L111.792,406.78z"/>
<path fill-rule="evenodd" clip-rule="evenodd" d="M28.459,460.168c-0.065,23.062,0.431,45.312,1.478,66.924h0.008  c3.343,66.885,12.236,125.97,26.99,177.984h0.097c9.763,34.139,22.072,65.056,37.015,92.855l42.167-1.845  c-16.47-27.099-32.101-57.243-45.703-90.27l0.29-0.686l-1.088-1.328c-21.057-51.732-37.175-110.649-43.865-176.712h-0.033  c-2.171-21.581-3.335-43.886-3.335-66.924v-11.032c-0.197-14.021,0.222-27.658,1.164-40.704v-0.237  c4.926-69.374,24.46-128.718,50.741-178.706h0.157C165.236,96.164,284.484,32.623,299.762,31.346  c22.04-1.836,27.558,18.382,27.558,18.382s5.518-20.219,27.569-18.382c15.249,1.277,134.261,64.689,204.986,197.825h0.049  c7.75,14.612,14.942,30.067,21.322,46.383c-5.429-9.417-17.568-28.295-36.611-46.383h-0.169  c-23.684-22.293-57.951-43.104-103.062-42.476c-52.642,0.733-84.599,22.793-102.731,42.476l-0.173,0.177  c-15.031,16.441-20.424,31.344-20.424,31.344l5.627,3.125l1.272-8.772l5.011,5.022l-0.226-8.273l7.741,3.879v-6.896l6.899,3.758  l0.625-8.148l5.014,3.762l3.142-5.655l6.268,2.513l1.257-6.259l7.516,3.125l1.877-7.523l6.275,4.398l2.513-5.646l5.632,3.766  l1.256-5.635l7.532,3.75l1.885-3.75l4.382,1.869l3.134-6.275l8.145,6.275l2.521-6.275l7.507,5.031l1.894-5.639l6.274,5.639  l3.118-6.908l8.16,6.908l2.521-6.908l7.499,6.283l-0.62-5.651l9.408,9.401l-0.62-9.401l15.032,10.654l-1.249-11.286l9.409,12.542  l1.248-11.274l6.912,13.779l0.612-10.037l10.036,13.807v-10.665l11.278,15.047v-10.657l12.542,16.932l-1.885-13.167l14.427,18.81  l1.249-11.918l10.666,16.308l-1.258-11.29l12.535,16.933v-9.349l10.665,13.731l-0.887-6.187c6.533,5.341,11.004,9.619,13.139,11.712  c14.54,38.288,24.747,81.215,28.074,128.424v0.415c0.91,13.078,1.312,26.502,1.111,40.289v11.032  c0,23.135-1.169,45.533-3.368,66.924v0.274c-6.767,66.464-23.15,125.93-44.546,177.71v0.354  c-12.881,31.399-27.598,60.157-43.121,86.161c10.843,0.531,31.489,1.127,41.864,1.805c14.073-26.729,25.479-55.801,34.525-88.03  l0.089,0.008c14.46-51.232,22.885-109.933,26.51-178.282v-0.234c1.145-21.254,1.82-43.455,2.062-66.69v-11.032  c0.177-13.851-0.266-27.437-1.24-40.704c-5.01-67.577-24.344-127.533-50.58-179.261v-0.081  C500.031,82.336,370.38,1.412,354.889,0.119c-22.051-1.84-27.569,18.362-27.569,18.362s-5.518-20.203-27.558-18.362  c-15.511,1.293-145.11,82.193-219.45,228.971h-0.044C54.043,280.874,34.694,340.854,29.7,408.432  c-0.982,13.267-1.422,26.853-1.24,40.704V460.168z"/>
<path fill-rule="evenodd" clip-rule="evenodd" d="M89.846,315.863l1.272,13.175l7.52-20.07l1.245,13.155l6.903-19.43l0.625,15.68  l6.907-20.07l2.485,16.3l6.924-20.062l-0.648,18.186l10.041-21.943L135,308.967l5.643-22.575l2.501,16.3l6.259-18.81l1.265,13.799  l8.792-17.548l-0.632,16.284l6.267-17.544l3.758,13.794l3.75-17.561l3.15,13.799l5.634-16.933v12.535l8.148-12.535v13.175  l9.413-15.047v12.526l8.772-13.159l1.265,11.282l6.263-13.167l1.261,10.033l7.52-13.799l2.505,10.666l6.899-12.535l-0.641,12.535  l6.916-13.159l1.876,11.29l4.39-9.421l1.877,9.421l5.643-10.666l0.62,11.27l6.275-11.894l0.621,10.649l4.382-11.281l2.525,11.281  l3.758-8.78l1.257,11.29l5.019-10.666l1.24,8.797l5.019-8.797l1.885,11.29l3.138-10.649l1.877,10.649l3.766-8.144l1.869,7.52  l3.138-7.52l1.261,7.52l5.115-4.878c0,0-38.42-40.925-109.602-30.675C85.516,254.94,81.706,332.787,81.706,332.787L89.846,315.863z"/>
<path fill-rule="evenodd" clip-rule="evenodd" d="M294.876,313.35l3.758,4.39l1.249-13.163l4.39,2.505l4.644-22.801  c0,0-60.875,26.905-65.567,77.585c-1.639,17.549,0.89,33.108,5.172,46.564h0.097c9.819,29.841,28.697,47.241,28.697,47.241  l-8.772-17.545l8.772,8.144l-13.163-18.189l9.401,5.639l-11.918-14.407l8.152,4.39l-5.55-15.273l-1.969-5.425l3.617,5.425  l3.903,5.86l-1.853-5.86l-5.667-17.959l7.52,9.401l-4.394-22.567l3.773,6.891l-1.88-17.557l4.39,5.643V354.11l4.382,7.528v-18.185  l3.77,8.14c0,0,1.869-11.91,1.869-16.3c0-4.37,5.651,5.639,5.651,5.639l-4.382-15.04l8.144,6.896l-0.625-15.047l3.138,6.899  L294.876,313.35z"/>
<path fill-rule="evenodd" clip-rule="evenodd" d="M458.514,428.083l3.126-14.416l1.24,15.04c0,0,4.971-7.334,7.846-20.259v-0.017  c5.181-23.224,3.666-64.467-45.312-113.469c-41.478-41.478-99.19-6.058-99.19-6.058l2.698,35.609l9.204,10.778l3.149-5.011  l1.881,15.04l2.502-6.884l2.513,16.292l3.754-12.53l-1.249,21.322l6.26-16.94l-0.629,20.691c0,0,6.268-18.186,6.268-13.163  c0,5.006-1.249,22.563-1.249,22.563s5.639-20.066,5.639-16.925c0,3.134-1.231,24.448-1.231,24.448l5.01-12.542v19.438l3.117-8.781  v13.179l3.15-8.164l0.628,16.937l3.762-6.896l-1.273,15.047l3.771-8.152l0.62,20.687l3.149-10.021l-0.637,18.793l4.39-8.14  l-2.094,11.205c0,0,7.757-9.9,9.216-28.101v-0.254c1.119-13.457-1.346-31.883-13.396-54.322  c-19.56-36.471-33.857-38.867-33.857-38.867l2.53-7.528l3.745,8.148l3.142-10.666l3.754,10.666l3.134-11.906l7.54,11.906  l2.505-12.53l2.488,13.154l4.392-10.665L387.03,319l3.77-8.785l3.126,11.906l5.026-10.017l2.498,12.534l4.397-6.899l3.117,15.668  l4.407-9.393l3.125,15.668l3.777-6.275l3.126,16.94l2.506-8.148l3.761,18.797l3.142-8.78l3.135,19.438l5.01-10.017l2.506,18.81  l5.026-8.792l-0.629,22.583l3.109-9.404v18.173c0,0,6.912-14.419,5.655-9.409c-0.741,3.017-1.272,9.84-1.57,14.834h-0.024  c-0.177,3.468-0.274,5.86-0.274,5.86l2.046-5.86l2.336-6.674l-0.145,6.674L458.514,428.083z"/>
<path fill-rule="evenodd" clip-rule="evenodd" d="M476.695,283.883l5.011,16.308l3.77-10.033l3.117,14.419l3.134-10.037  l4.406,15.052l3.134-8.152l3.754,15.047l2.505-11.91l3.77,15.672l0.621-10.033l5.638,17.557l1.878-10.033l3.77,16.933l2.529-7.524  l3.729,12.534l1.258-5.635l3.157,12.534l3.109-1.26l3.77,8.788c0,0-11.294-84.643-94.675-112.518  c-68.625-22.926-121.621,32.266-121.621,32.266l5.635,6.892l1.893-8.777l3.758,5.023l1.885-6.279l5.646,4.39l1.881-5.006  l5.015,4.382l2.505-5.635l5.631,5.635l1.257-6.9l4.382,5.031l2.514-5.651l4.39,5.651l1.894-6.283l6.268,6.283l1.256-7.536  l5.02,6.268l3.125-7.528l3.134,8.797l1.256-8.797l6.268,9.401l2.505-8.141l4.383,8.141l1.893-10.025l5.003,11.29l3.142-8.152  l6.282,10.037l1.241-8.785l5.646,8.152l3.763-7.528l4.39,10.033l2.497-9.393l4.391,9.393l3.762-7.523l5.647,11.286l1.876-9.389  l5.646,11.894l3.142-7.512l3.135,11.273l3.753-10.029l5.639,14.427L476.695,283.883z"/>
<path fill-rule="evenodd" clip-rule="evenodd" d="M310.254,310.981c0,0-14.681,15.994-9.336,69.575  c0.757,7.681,3.729,27.875,3.729,27.875c5.075,32.669,13.501,76.921,20.328,118.661h0.008c6.448,39.487,11.471,76.68,10.814,99.549  c-0.721,25.954-4.672,54.897-8.647,78.307h-0.024c-4.423,25.938-8.87,44.836-8.87,44.836l-2.135,5.341l3.517-0.459l5.772-24.536  l12.856,25.277l9.824-25.27l10.472,29.926l8.901-7.967c1.36-12.832,2.738-28.814,3.432-46.995  c1.168-30.788,0.402-67.859-5.735-106.493c-4.021-25.237-8.25-49.194-12.31-71.516c-8.849-48.707-16.863-89.548-19.969-118.661  v-0.016c-0.669-6.292-1.108-12.026-1.285-17.202c-1.333-40.02,2.663-53.351,2.663-53.351l-8.003-12.011l-11.994-54.897  L310.254,310.981z"/>
<path fill-rule="evenodd" clip-rule="evenodd" d="M192.653,172.025c-44.635,5.099-72.87,31.92-89.673,56.106  c0,0-7.306,10.842-9.844,15.378c-2.227,2.896-8.245,15.764-8.66,17.814c-1.116,2.719-1.639,4.29-0.266,3.133l4.713-8.039  c1.587-2.135,3.504-4.52,5.768-7.081l-0.443,7.596l10.025-16.316l-1.261,11.918l9.417-15.668l-0.637,10.657l10.042-16.292v10.641  l8.816-12.703l2.469-3.589l-0.427,3.589l-0.83,7.065l4.31-7.065l4.471-7.358l1.462,7.358l0.415,2.062l1.273-2.062l6.875-11.112  v10.024l8.792-12.53l0.616,8.772l6.892-11.918l0.624,10.665l10.666-11.914l-0.625,8.776l7.512-10.654l-0.612,11.286l6.896-10.665  l1.885,8.78l6.888-10.025l1.876,10.649l6.268-10.025l3.133,11.286l6.275-9.408l2.509,11.914l5.022-10.041l5.011,12.55l4.382-11.29  l3.758,13.171l3.149-10.666l3.368,12.373l0.39,1.414l0.455-1.414l3.303-10.488l3.5,10.488l1.514,4.567l1.74-4.567l3.282-8.604  l1.78,8.604l1.99,9.578l4.769-9.578l0.866-1.708l0.117,1.708l1.128,15.216l6.271-13.802l2.518,15.063l6.259-9.412l2.514,15.047  l4.394-10.666l3.133,15.056l5.007-10.666l2.505,16.316l3.778-11.918l2.489,16.304l4.27-8.104  c2.095-8.446,5.643-15.623,10.673-21.552l-5.236-6.883C303.673,211.159,258.731,164.445,192.653,172.025z"/>
<path fill-rule="evenodd" clip-rule="evenodd" d="M252.871,131.535c1.869,1.655,15.68,5.651,19.789,9.57l-7.878,0.455l13.662,5.171  l-10.524,0.475l16.11,5.22l1.986,2.106l-11.197-0.431l18.692,8.869l-11.177,0.536l17.223,7.112l-7.814,1.04l13.509,7.688  l-5.986,1.08l8.998,4.966l1.156,2.542l-5.147,1.281l7.262,3.633l1.542,3.786l-4.423,1.357l6.888,5.155l0.999,2.763l-4.749,0.862  l7.089,5.909l1.357,4.116l-2.795,0.632l3.891,2.831l0.85,2.788l-2.239,0.652l3.79,5.47l0.455,0.641l1.526,5.53  c1.619-2.042,3.287-4.044,4.97-6.086h0.064c8.704-10.102,18.008-18.636,26.756-22.612l11.342-7.391l-11.285,2.505l16.296-8.78  l-14.411,1.256l11.294-8.776l-8.168-0.624l9.425-8.785l-8.168,1.245l10.649-10.657l-6.26-0.609l8.152-7.528l-7.524-0.632  l12.551-10.033l-13.179,0.632l19.446-11.29h-12.534l21.298-9.401l-12.945-0.128l14.83-6.146l-5.703,0.25  c0,0-31.287-4.64-48.212,29.841c-12.469,25.418-5.65,60.814-5.65,60.814s-6.642-30.615-21.307-53.283  C302.771,136.453,252.871,131.535,252.871,131.535z"/>
</svg>