<svg version="1.0" xmlns="http://www.w3.org/2000/svg" width="393.333" height="533.333" viewBox="0 0 295 400"><path d="M135 18.4c-3 .6-6.4 1.7-7.5 2.3-2.4 1.4-1.9 1.6 7 3.1 21.4 3.6 48.4 22.6 62.5 43.9 25.1 38.2 34.6 90.8 24.9 137.8-5.7 27.9-19 55.2-33.4 68.3-17.1 15.7-29.2 5.4-35.9-30.3-3.7-20.2-5.1-42-5-81 .1-21.2.5-39.3 1.1-41l.9-2.9 4.4 5.4c6.3 8 12.7 22.1 15.2 33.7 2.9 13.6 2.8 13.4 5.1 8.3 1.8-3.7 2.2-6.4 2.2-15.5 0-10.8-.1-11.3-3.7-18.5-2-4.1-5.8-9.9-8.3-12.8-2.9-3.2-4.1-5.2-3.2-5.2 2.2 0 12 5.4 16.6 9.1 8.3 6.6 18.2 21.7 21.7 33.1 1.9 6.2 2.8 7.1 3.8 3.5 1.5-5.5.6-16.9-1.9-24.4-6.2-18.3-19.3-30.3-36.6-33.6l-6.2-1.1 3.4-1.2c5.9-2.1 16.7-1.7 23.1 1 6.8 2.8 14.1 8.3 18.3 13.6 3.8 4.9 4.9 5 4 .2-1.1-6.4-5.2-14-10.2-19-6.7-6.7-12.9-9.4-22.4-10-6.7-.4-8.4-.1-13.3 2.1l-5.7 2.6 2.2-3.1c1.2-1.7 4.2-4.3 6.7-5.9 4.5-2.9 14.3-5.5 16.2-4.4.5.3 1 .2 1-.4 0-1.7-6.6-5.1-11.3-5.7-6-.9-14.2 2.9-18 8.2l-2.5 3.7-1.3-4.4c-3.4-11.3-20.1-20.4-31.8-17.2-2 .5-1.3 1.1 5 4 8.9 4.1 13.1 8 17 15.5 4 7.9 3.7 9.7-.8 4.6-5.1-5.5-11.1-8.1-19.3-8.1-9.6-.1-17.4 4.4-23.3 13.3-1 1.3-1.7 2.7-1.7 3.1 0 .3 2.8-.8 6.2-2.5 5.5-2.8 7.2-3.1 14.8-3.1 9 .1 15.7 2.3 19.4 6.4 1.7 1.9 1.6 1.9-2.6.9-11-2.5-26.2 2.2-33.4 10.5-5.1 5.9-10.1 16.9-11.9 26.1-2.5 13-1.9 13.6 4.2 4.3 8.8-13.3 24.2-25.1 36.1-27.6 6.5-1.4 7.2-1.4 7.2-.1 0 .5-.8 1-1.8 1-2.7 0-10.2 5.1-14.6 10-9.6 10.7-13.3 30.6-7.9 43l1.6 3.5.9-3.5c5.9-21.6 9.7-30 16.6-36.9 4.8-4.7 9.8-7.9 10.8-6.9.3.4-.2 5.5-1 11.5-3.9 27.2-5.4 63.5-3.7 91.3 2.6 42.8 10.5 68.6 24 78.4 3.8 2.7 5.1 3.1 11 3.1 8.6 0 14.2-2.8 23.3-11.3 18.9-17.9 35.8-56 41.3-93.6 6.1-41.7-.1-85.7-17-120.1-21.7-44.1-52-65.8-82.5-59.1z"/><path d="M116.8 31.3c-5.1 2-12.8 7.8-18.8 14.4C80.2 65.1 66.5 96.8 60.5 132c-2.2 13-3.1 44.8-1.6 58 4.6 39.9 20.5 77 42.8 99.7 19.4 19.8 38.9 26.8 58.6 21.3 5.1-1.5 4.3-3.1-2.4-4.8-14.3-3.6-32-15-44.9-29-22.7-24.5-37.3-58.1-42-96.5-1.6-12.2-.8-40 1.4-51.7 7.5-40.6 28.4-74.9 52.1-85.5 6.1-2.7 17.9-5.5 23.5-5.5 5.8 0 4.8-1.9-2.6-4.9-7.3-3-22.7-3.9-28.6-1.8zM11.7 336.6c-.4.4-.7 9.7-.7 20.6V377h10.9l.3-6.8.3-6.7 5-.1 5-.1.3-5.1.3-5.2h-5.5c-5.6 0-5.6 0-5.6-3v-3h14.1l-.3-5.3-.3-5.2-11.6-.3c-6.3-.1-11.8.1-12.2.4zM41 356.5V377h11v-41H41v20.5zm16.4-19.1c-.3.7-.4 3.1-.2 5.2.3 3.4.6 3.9 2.8 3.9h2.5v12.7c0 11.9-.1 12.8-2.4 15.2-1.7 1.8-2.2 3.2-1.7 4.8 1.3 4.9 2.1 5.3 6.7 2.7 7.6-4.3 7.8-4.9 8.1-26.4l.3-19-7.8-.3c-6-.2-7.9 0-8.3 1.2zm24.3-.7c-.3.5-.5 9.7-.4 20.6l.1 19.7h11.4l-.1-20.3-.2-20.2-5.2-.3c-2.8-.2-5.3.1-5.6.5zm28.3 19.8V377h11v-6c0-5.2.2-6 1.9-6 1.4 0 2.5 1.6 4.1 6l2.2 6h6.4c3.5 0 6.4-.3 6.4-.8 0-.4-1.6-3.9-3.7-7.8l-3.7-7 2.4-3.2c1.5-2 2.5-5 2.8-8.5.4-4.6.1-5.7-2.3-8.5-3.3-4-7.7-5.2-18.7-5.2H110v20.5zm16.4-9.9c3.2 3.1 1.2 9.4-2.9 9.4-2.4 0-2.5-.3-2.5-5.5 0-4.8.3-5.5 1.9-5.5 1.1 0 2.7.7 3.5 1.6zM145 352c0 12.4.3 16.8 1.5 19 4.6 9 24.6 8.4 28.4-.8.6-1.5 1.2-9.6 1.4-18.2l.2-15.5h-11l-.3 14.7c-.2 13.1-.5 14.9-2.1 15.7-2.6 1.4-6 .2-6.6-2.3-.3-1.1-.6-7.9-.8-15.1l-.2-13-5.2-.3-5.3-.3V352zm47-14.9c-3.8 1.5-8.8 6.9-10.2 10.8-.6 2-1.1 6.6-1.1 10.3.1 8.1 3 14.2 8.2 17.2 3.9 2.3 12.3 2.6 18.9.7l4.2-1.2V358h-10v5c0 4.9-.1 5-2.9 5-4.3 0-6.1-3.1-6.1-10.8 0-5.4.4-6.6 2.6-8.9 2.6-2.6 4.8-2.7 12-.7 2 .5 2.3.1 2.9-4.6.5-4 .4-5.5-.6-6.1-1.9-1.2-14.8-1-17.9.2zm26.6-.3c-.2.4-.4 9.6-.3 20.5l.2 19.7h10c7.6 0 11-.5 14.2-1.9 4.9-2.3 6.3-4.5 6.3-10.1 0-3.3-.6-4.8-2.8-6.8l-2.8-2.5 2.3-2.3c5-5 1.9-14.3-5.5-16.4-4.3-1.2-20.9-1.4-21.6-.2zm15.8 8.8c.9.4 1.6 1.8 1.6 3.4 0 2.8-1.5 4-5.1 4-1.6 0-1.9-.7-1.9-4 0-4.1 1.3-5 5.4-3.4zm2.6 17.3c1.3 2.5 1.3 2.7-.6 4.5-.8.9-2.9 1.6-4.5 1.6-2.7 0-2.9-.2-2.9-4 0-3.9.1-4 3.5-4 2.4 0 3.7.6 4.5 1.9zm11-26.6c0 .2 2.7 6.8 6 14.6 5.1 12 6 15.1 6 20.2v5.9h10v-6c0-5.2.8-7.5 6.5-19.6 3.6-7.5 6.5-14.1 6.5-14.5 0-.5-2.4-.9-5.4-.9h-5.4l-3.3 8.1c-2.6 6.2-3.5 7.6-4.1 6.2-.4-1-1.7-4.5-3-7.8l-2.3-6-5.8-.3c-3.1-.2-5.7-.1-5.7.1z"/></svg>