<svg xmlns="http://www.w3.org/2000/svg" width="1000" height="1000" viewBox="-160.814 0 1000 1000" overflow="visible"><path fill-rule="evenodd" clip-rule="evenodd" d="M354.889 969.247c-22.051 1.844-27.569-18.383-27.569-18.383s-5.518 20.227-27.558 18.383c-7.262-.613-47.668-20.599-85.133-58.805h-40.97c55.425 60.561 116.844 88.674 126.104 89.439 22.04 1.844 27.558-18.383 27.558-18.383s5.518 20.227 27.569 18.383c9.272-.766 70.688-28.879 126.101-89.439h-40.986c-37.468 38.206-77.859 58.191-85.116 58.805zm-71.093-105.068h3.138l12.53 18.874 12.111 18.253h24.299v-2.851c-1.075-.081-1.985-.25-2.727-.524-.725-.306-1.43-.934-2.086-1.86l-9.188-13.018-14.705-20.782c4.056-.782 7.898-2.555 11.547-5.35 4.745-3.705 7.133-8.789 7.133-15.24 0-8.749-4.757-14.807-14.274-18.149-4.914-1.676-11.334-2.506-19.261-2.506h-38.207v3.005c4.056.354 6.667 1.008 7.818 1.926 1.756 1.385 2.618 4.39 2.618 8.989v52.489c-.008 4.407-.745 7.282-2.203 8.596-1.47 1.305-4.213 2.062-8.233 2.247v3.028h40.128v-3.028c-4.181-.146-6.956-.942-8.354-2.36-1.398-1.482-2.086-4.31-2.086-8.482v-23.257zm0-34.05c0-1.812.479-3.109 1.446-3.892 1.007-.797 3.098-1.199 6.259-1.199 5.836 0 9.868 2.255 12.079 6.774 1.269 2.658 1.905 6.299 1.905 10.906 0 7.508-1.676 12.293-5.047 14.379-3.319 2.047-8.873 3.142-16.643 3.246v-30.214zm66.558 52.924h.064c.653 3.19 1.732 5.978 3.19 8.386 5.034 8.168 14.387 12.244 28.041 12.244 10.432-.016 18.076-2.763 22.966-8.249 2.844-3.206 4.857-7.25 6.042-12.22l.048.008c.797-3.326 1.192-7.057 1.192-11.164v-37.981c0-3.827.612-6.26 1.812-7.314 1.248-1.08 3.753-1.99 7.532-2.731v-3.005h-26.084v3.005c4.567.354 7.612 1.346 9.159 2.956 1.57 1.604 2.368 4.52 2.368 8.781v36.29c0 4.115-.322 7.636-.999 10.793h-.04c-.419 1.821-.95 3.432-1.627 4.818-3.215 6.766-9.377 10.142-18.487 10.142-7.354 0-12.325-3.045-14.911-9.151-.717-1.635-1.256-3.625-1.619-5.606v-.354c-.346-2.328-.523-5.011-.523-8.015v-39.738c0-4.566.766-7.491 2.312-8.765 1.554-1.272 4.632-1.98 9.223-2.15v-3.005H339.87v3.005c4.148.476 6.783 1.281 7.95 2.449 1.204 1.16 1.801 3.972 1.801 8.466v39.738c0 2.93.233 5.645.733 8.367zm96.383-82.375l13.348-16.199-40.027 10.665 17.351-21.354-36.225 6.669 11.995-22.66-32.004 13.332 4.003-26.679-28.025 25.35-9.341-26.687-9.332 24.012-12.224-24.012-5.328 22.683-25.355-32.02 6.678 28.025-37.349-10.681 10.658 13.339-25.544-1.329 14.886 17.327-32.226-5.324 17.34 17.343-37.362-6.661 9.349 11.994-137.824 12.22h474.827zM208.571 832.45c0-3.545 1.147-5.938 3.476-7.138 1.397-.685 3.955-1.111 7.665-1.281v-3.005h-41.525v3.005c3.544.17 6.029.612 7.423 1.346 2.276 1.2 3.419 3.553 3.419 7.073v57.484c0 3.512-1.208 5.88-3.592 7.129-1.471.732-3.899 1.144-7.25 1.216v3.028h41.525v-3.028c-3.709 0-6.497-.563-8.357-1.676-1.861-1.119-2.783-3.359-2.783-6.669V832.45zm-136.012-8.419c3.556.17 6.042.612 7.431 1.346 2.275 1.2 3.416 3.553 3.416 7.073v57.484c0 3.512-1.204 5.88-3.593 7.129-1.47.732-3.891 1.144-7.254 1.216v3.028h41.534v-3.028c-3.713 0-6.5-.563-8.361-1.676-1.849-1.119-2.783-3.359-2.783-6.669V832.45c0-3.545 1.164-5.938 3.48-7.138 1.397-.685 3.951-1.111 7.665-1.281v-3.005H72.559v3.005zm101.204-3.005h-41.808v3.005c4.185.17 6.979.597 8.406 1.281 2.348 1.168 3.548 3.544 3.548 7.138v56.637c0 3.238-.338 5.551-.999 6.96-1.196 2.312-3.577 3.464-7.129 3.464-1.309 0-2.428-.298-3.379-.918-.878-.588-1.317-1.458-1.317-2.618 0-.314.456-1.337 1.402-3.061a11.321 11.321 0 001.426-5.526c0-1.668-1.261-4.52-1.261-4.52l-.991-1.281c-1.51-1.618-3.415-2.433-5.748-2.433-2.312 0-4.333.839-6.078 2.481l-1.087 1.378h-.032c-.958 1.498-1.43 3.343-1.43 5.542 0 3.633 1.776 7.04 5.333 10.206 3.593 3.19 8.317 4.761 14.206 4.761 8.321 0 14.762-2.36 19.37-7.08 3.415-3.513 5.562-8.064 6.424-13.389l-.016-.298c.293-1.869.447-3.875.447-5.985v-41.824c0-4.566.717-7.435 2.187-8.643 1.479-1.192 4.326-1.942 8.527-2.272v-3.005zM0 824.031c3.556.25 5.997.733 7.313 1.459 2.163 1.216 3.259 3.528 3.259 6.96v57.484c0 3.391-1.116 5.719-3.315 6.951-1.441.813-3.842 1.281-7.257 1.394v3.028h42.757v-3.028c-4.422.081-7.708-.362-9.859-1.329-2.135-1.007-3.182-3.343-3.182-7.016v-27.662c6.368 0 10.774 1.457 13.215 4.397 2.461 2.948 4.125 7.629 4.93 14.041h3.009v-40.141h-3.009c-1.164 6.187-2.884 10.697-5.16 13.517-2.239 2.828-6.585 4.181-12.985 4.068v-27.501c0-2.167.447-3.633 1.377-4.415.967-.797 3.186-1.199 6.666-1.199 9.364 0 15.785 1.474 19.265 4.462 3.48 2.933 5.957 8.097 7.423 15.482h2.888v-23.957H0v3.005zm472.644 46.246c4.357.073 7.266.468 8.699 1.145 2.199 1.119 3.303 3.479 3.303 7.088v12.519c0 2.441-.515 4.262-1.514 5.454-1.74 2.118-5.132 3.197-10.206 3.197-9.361 0-15.685-3.866-18.971-11.615-.701-1.676-1.346-3.456-1.894-5.011v-.233c-1.974-6.437-2.972-13.51-2.972-21.258 0-12.06 1.764-21.404 5.283-28.058 3.513-6.662 9.095-9.973 16.74-9.973 7.057 0 13.371 3.206 18.913 9.61 2.981 3.479 5.913 8.24 8.765 14.266h3.013v-27.782h-3.311c-.483 1.828-1.128 3.181-1.909 4.075-.772.895-1.779 1.338-3.061 1.338-1.201 0-4.246-.927-9.11-2.739-4.883-1.853-9.764-2.779-14.678-2.779-12.269 0-22.33 4.165-30.208 12.479-7.637 8.071-11.438 18.035-11.438 29.86 0 8.056 1.732 15.185 5.203 21.194v.169a40.266 40.266 0 005.817 7.854c7.894 8.321 18.438 12.486 31.616 12.486 7.274 0 13.84-.813 19.72-2.44 5.873-1.619 10.118-3.238 12.761-4.874v-15.135c0-4.1.66-6.879 1.974-8.354 1.353-1.515 4.076-2.344 8.184-2.481v-3.028h-40.72v3.026zm179.62-49.251v3.005c3.818.282 6.307.646 7.41 1.112 1.684.701 2.505 2.086 2.505 4.181 0 1.337-.668 3.447-2.029 6.267-.895 1.837-1.756 3.416-2.546 4.696l-13.759 20.872-14.846-28.524-1.507-3.439-.289-1.788c0-1.233.563-2.055 1.74-2.434 1.168-.378 3.793-.692 7.901-.942v-3.005H597.1v3.005c1.426.041 2.852.403 4.236 1.047 2.087 1.056 3.844 2.876 5.285 5.454l21.677 39.447v17.456c0 4.326-.733 7.186-2.198 8.596-1.435 1.385-4.351 2.135-8.757 2.247v3.028h41.243v-3.028c-4.253-.112-7.16-.813-8.708-2.094-1.546-1.306-2.312-4.214-2.312-8.749v-21.87l22.692-36.942c.951-1.498 2.151-2.626 3.585-3.359 1.104-.467 2.618-.878 4.527-1.232v-3.005h-26.106zm-72.161 41.704c-3.246-2.006-7.08-3.448-11.487-5.397 4.197-.773 8.048-2.586 11.608-5.453 3.601-2.893 5.396-6.8 5.396-11.713 0-8.088-4.405-13.654-13.234-16.699-4.665-1.619-10.553-2.441-17.617-2.441h-36.725v3.005c3.447.21 5.824.677 7.146 1.41 2.215 1.2 3.294 3.52 3.294 7.009v57.484c0 3.472-1.184 5.84-3.528 7.064-1.409.749-3.689 1.168-6.911 1.28v3.028h38.239c10.077 0 18.165-2.037 24.23-6.089 4.93-3.336 7.854-7.476 8.78-12.164v-.282c.226-1.151.322-2.344.322-3.576 0-7.042-3.157-12.528-9.513-16.466zm-32.649-32.367c0-2.159.491-3.649 1.458-4.455.95-.861 2.674-1.28 5.163-1.28 4.664 0 7.806 1.546 9.441 4.623 1.675 3.11 2.505 6.904 2.505 11.424 0 6.121-1.265 10.375-3.777 12.768-2.521 2.392-7.428 3.608-14.79 3.608v-26.688zm21.58 52.521c-.37 4.196-1.449 7.523-3.311 9.996-2.247 3.062-6.163 4.584-11.769 4.584-2.747 0-4.608-.846-5.566-2.554-.588-.959-.878-2.481-.935-4.575v-29.692c6.452-.104 11.205.677 14.218 2.385 4.986 2.779 7.475 8.378 7.475 16.812 0 .998-.031 1.956-.112 3.044zM111.792 406.78l3.146 13.787 6.259-24.444.637 16.917 10.653-31.972 1.257 21.315 9.4-31.344 1.889 18.802 5.635-26.958 3.762 17.565 5.646-26.958 3.766 18.793 5.635-25.701 3.125 18.185 6.275-24.444 3.773 17.548 5.639-25.084 1.245 18.806 5.651-22.555 3.142 15.66 4.39-20.683 3.757 17.553 5.003-21.951 3.15 15.056 5.002-18.81 2.514 15.06 5.639-18.817 3.137 13.787 5.022-13.787 3.126 11.91 5.651-15.675 1.256 11.277 5.643-14.419 2.497 11.29 5.022-13.154 1.252 12.53s4.705-7.467 8.177-11.93c13.13-16.917 33.82-23.799 33.82-23.799s-44.168-10.529-124.416 28.169c-55.792 26.893-68.725 73.699-71.416 99.714v.415c-1.184 10.992-.391 18.407-.391 18.407l5.63-20.061z"/><path fill-rule="evenodd" clip-rule="evenodd" d="M28.459 460.168c-.065 23.062.431 45.312 1.478 66.924h.008c3.343 66.885 12.236 125.97 26.99 177.984h.097c9.763 34.139 22.072 65.056 37.015 92.855l42.167-1.845c-16.47-27.099-32.101-57.243-45.703-90.27l.29-.686-1.088-1.328C68.656 652.07 52.538 593.153 45.848 527.09h-.033a668.169 668.169 0 01-3.335-66.924v-11.032a473.945 473.945 0 011.164-40.704v-.237c4.926-69.374 24.46-128.718 50.741-178.706h.157C165.236 96.164 284.484 32.623 299.762 31.346c22.04-1.836 27.558 18.382 27.558 18.382s5.518-20.219 27.569-18.382c15.249 1.277 134.261 64.689 204.986 197.825h.049c7.75 14.612 14.942 30.067 21.322 46.383-5.429-9.417-17.568-28.295-36.611-46.383h-.169c-23.684-22.293-57.951-43.104-103.062-42.476-52.642.733-84.599 22.793-102.731 42.476l-.173.177c-15.031 16.441-20.424 31.344-20.424 31.344l5.627 3.125 1.272-8.772 5.011 5.022-.226-8.273 7.741 3.879v-6.896l6.899 3.758.625-8.148 5.014 3.762 3.142-5.655 6.268 2.513 1.257-6.259 7.516 3.125 1.877-7.523 6.275 4.398 2.513-5.646 5.632 3.766 1.256-5.635 7.532 3.75 1.885-3.75 4.382 1.869 3.134-6.275 8.145 6.275 2.521-6.275 7.507 5.031 1.894-5.639 6.274 5.639 3.118-6.908 8.16 6.908 2.521-6.908 7.499 6.283-.62-5.651 9.408 9.401-.62-9.401 15.032 10.654-1.249-11.286 9.409 12.542 1.248-11.274 6.912 13.779.612-10.037 10.036 13.807v-10.665l11.278 15.047v-10.657l12.542 16.932-1.885-13.167 14.427 18.81 1.249-11.918 10.666 16.308-1.258-11.29 12.535 16.933v-9.349l10.665 13.731-.887-6.187c6.533 5.341 11.004 9.619 13.139 11.712 14.54 38.288 24.747 81.215 28.074 128.424v.415a479.27 479.27 0 011.111 40.289v11.032c0 23.135-1.169 45.533-3.368 66.924v.274c-6.767 66.464-23.15 125.93-44.546 177.71v.354c-12.881 31.399-27.598 60.157-43.121 86.161 10.843.531 31.489 1.127 41.864 1.805 14.073-26.729 25.479-55.801 34.525-88.03l.089.008c14.46-51.232 22.885-109.933 26.51-178.282v-.234c1.145-21.254 1.82-43.455 2.062-66.69v-11.032a473.344 473.344 0 00-1.24-40.704c-5.01-67.577-24.344-127.533-50.58-179.261v-.081C500.031 82.336 370.38 1.412 354.889.119c-22.051-1.84-27.569 18.362-27.569 18.362S321.802-1.722 299.762.119c-15.511 1.293-145.11 82.193-219.45 228.971h-.044C54.043 280.874 34.694 340.854 29.7 408.432a468.142 468.142 0 00-1.24 40.704v11.032z"/><path fill-rule="evenodd" clip-rule="evenodd" d="M89.846 315.863l1.272 13.175 7.52-20.07 1.245 13.155 6.903-19.43.625 15.68 6.907-20.07 2.485 16.3 6.924-20.062-.648 18.186 10.041-21.943 1.88 18.183 5.643-22.575 2.501 16.3 6.259-18.81 1.265 13.799 8.792-17.548-.632 16.284 6.267-17.544 3.758 13.794 3.75-17.561 3.15 13.799 5.634-16.933v12.535l8.148-12.535v13.175l9.413-15.047v12.526l8.772-13.159 1.265 11.282 6.263-13.167 1.261 10.033 7.52-13.799 2.505 10.666 6.899-12.535-.641 12.535 6.916-13.159 1.876 11.29 4.39-9.421 1.877 9.421 5.643-10.666.62 11.27 6.275-11.894.621 10.649 4.382-11.281 2.525 11.281 3.758-8.78 1.257 11.29 5.019-10.666 1.24 8.797 5.019-8.797 1.885 11.29 3.138-10.649 1.877 10.649 3.766-8.144 1.869 7.52 3.138-7.52 1.261 7.52 5.115-4.878s-38.42-40.925-109.602-30.675C85.516 254.94 81.706 332.787 81.706 332.787l8.14-16.924zm205.03-2.513l3.758 4.39 1.249-13.163 4.39 2.505 4.644-22.801s-60.875 26.905-65.567 77.585c-1.639 17.549.89 33.108 5.172 46.564h.097c9.819 29.841 28.697 47.241 28.697 47.241l-8.772-17.545 8.772 8.144-13.163-18.189 9.401 5.639-11.918-14.407 8.152 4.39-5.55-15.273-1.969-5.425 3.617 5.425 3.903 5.86-1.853-5.86-5.667-17.959 7.52 9.401-4.394-22.567 3.773 6.891-1.88-17.557 4.39 5.643V354.11l4.382 7.528v-18.185l3.77 8.14s1.869-11.91 1.869-16.3c0-4.37 5.651 5.639 5.651 5.639l-4.382-15.04 8.144 6.896-.625-15.047 3.138 6.899 1.251-11.29zm163.638 114.733l3.126-14.416 1.24 15.04s4.971-7.334 7.846-20.259v-.017c5.181-23.224 3.666-64.467-45.312-113.469-41.478-41.478-99.19-6.058-99.19-6.058l2.698 35.609 9.204 10.778 3.149-5.011 1.881 15.04 2.502-6.884 2.513 16.292 3.754-12.53-1.249 21.322 6.26-16.94-.629 20.691s6.268-18.186 6.268-13.163c0 5.006-1.249 22.563-1.249 22.563s5.639-20.066 5.639-16.925c0 3.134-1.231 24.448-1.231 24.448l5.01-12.542v19.438l3.117-8.781v13.179l3.15-8.164.628 16.937 3.762-6.896-1.273 15.047 3.771-8.152.62 20.687 3.149-10.021-.637 18.793 4.39-8.14-2.094 11.205s7.757-9.9 9.216-28.101v-.254c1.119-13.457-1.346-31.883-13.396-54.322-19.56-36.471-33.857-38.867-33.857-38.867l2.53-7.528 3.745 8.148 3.142-10.666 3.754 10.666 3.134-11.906 7.54 11.906 2.505-12.53 2.488 13.154 4.392-10.665L387.03 319l3.77-8.785 3.126 11.906 5.026-10.017 2.498 12.534 4.397-6.899 3.117 15.668 4.407-9.393 3.125 15.668 3.777-6.275 3.126 16.94 2.506-8.148 3.761 18.797 3.142-8.78 3.135 19.438 5.01-10.017 2.506 18.81 5.026-8.792-.629 22.583 3.109-9.404v18.173s6.912-14.419 5.655-9.409c-.741 3.017-1.272 9.84-1.57 14.834h-.024c-.177 3.468-.274 5.86-.274 5.86l2.046-5.86 2.336-6.674-.145 6.674-.475 19.651z"/><path fill-rule="evenodd" clip-rule="evenodd" d="M476.695 283.883l5.011 16.308 3.77-10.033 3.117 14.419 3.134-10.037 4.406 15.052 3.134-8.152 3.754 15.047 2.505-11.91 3.77 15.672.621-10.033 5.638 17.557 1.878-10.033 3.77 16.933 2.529-7.524 3.729 12.534 1.258-5.635 3.157 12.534 3.109-1.26 3.77 8.788s-11.294-84.643-94.675-112.518c-68.625-22.926-121.621 32.266-121.621 32.266l5.635 6.892 1.893-8.777 3.758 5.023 1.885-6.279 5.646 4.39 1.881-5.006 5.015 4.382 2.505-5.635 5.631 5.635 1.257-6.9 4.382 5.031 2.514-5.651 4.39 5.651 1.894-6.283 6.268 6.283 1.256-7.536 5.02 6.268 3.125-7.528 3.134 8.797 1.256-8.797 6.268 9.401 2.505-8.141 4.383 8.141 1.893-10.025 5.003 11.29 3.142-8.152 6.282 10.037 1.241-8.785 5.646 8.152 3.763-7.528 4.39 10.033 2.497-9.393 4.391 9.393 3.762-7.523 5.647 11.286 1.876-9.389 5.646 11.894 3.142-7.512 3.135 11.273 3.753-10.029 5.639 14.427 1.887-8.785zm-166.441 27.098s-14.681 15.994-9.336 69.575c.757 7.681 3.729 27.875 3.729 27.875 5.075 32.669 13.501 76.921 20.328 118.661h.008c6.448 39.487 11.471 76.68 10.814 99.549-.721 25.954-4.672 54.897-8.647 78.307h-.024c-4.423 25.938-8.87 44.836-8.87 44.836l-2.135 5.341 3.517-.459 5.772-24.536 12.856 25.277 9.824-25.27 10.472 29.926 8.901-7.967c1.36-12.832 2.738-28.814 3.432-46.995 1.168-30.788.402-67.859-5.735-106.493-4.021-25.237-8.25-49.194-12.31-71.516-8.849-48.707-16.863-89.548-19.969-118.661v-.016c-.669-6.292-1.108-12.026-1.285-17.202-1.333-40.02 2.663-53.351 2.663-53.351l-8.003-12.011-11.994-54.897-4.008 40.027zM192.653 172.025c-44.635 5.099-72.87 31.92-89.673 56.106 0 0-7.306 10.842-9.844 15.378-2.227 2.896-8.245 15.764-8.66 17.814-1.116 2.719-1.639 4.29-.266 3.133l4.713-8.039a108.298 108.298 0 015.768-7.081l-.443 7.596 10.025-16.316-1.261 11.918 9.417-15.668-.637 10.657 10.042-16.292v10.641l8.816-12.703 2.469-3.589-.427 3.589-.83 7.065 4.31-7.065 4.471-7.358 1.462 7.358.415 2.062 1.273-2.062 6.875-11.112v10.024l8.792-12.53.616 8.772 6.892-11.918.624 10.665 10.666-11.914-.625 8.776 7.512-10.654-.612 11.286 6.896-10.665 1.885 8.78 6.888-10.025 1.876 10.649 6.268-10.025 3.133 11.286 6.275-9.408 2.509 11.914 5.022-10.041 5.011 12.55 4.382-11.29 3.758 13.171 3.149-10.666 3.368 12.373.39 1.414.455-1.414 3.303-10.488 3.5 10.488 1.514 4.567 1.74-4.567 3.282-8.604 1.78 8.604 1.99 9.578 4.769-9.578.866-1.708.117 1.708 1.128 15.216 6.271-13.802 2.518 15.063 6.259-9.412 2.514 15.047 4.394-10.666 3.133 15.056 5.007-10.666 2.505 16.316 3.778-11.918 2.489 16.304 4.27-8.104c2.095-8.446 5.643-15.623 10.673-21.552l-5.236-6.883c-14.689-18.007-59.631-64.721-125.709-57.141zm60.218-40.49c1.869 1.655 15.68 5.651 19.789 9.57l-7.878.455 13.662 5.171-10.524.475 16.11 5.22 1.986 2.106-11.197-.431 18.692 8.869-11.177.536 17.223 7.112-7.814 1.04 13.509 7.688-5.986 1.08 8.998 4.966 1.156 2.542-5.147 1.281 7.262 3.633 1.542 3.786-4.423 1.357 6.888 5.155.999 2.763-4.749.862 7.089 5.909 1.357 4.116-2.795.632 3.891 2.831.85 2.788-2.239.652 3.79 5.47.455.641 1.526 5.53c1.619-2.042 3.287-4.044 4.97-6.086h.064c8.704-10.102 18.008-18.636 26.756-22.612l11.342-7.391-11.285 2.505 16.296-8.78-14.411 1.256 11.294-8.776-8.168-.624 9.425-8.785-8.168 1.245 10.649-10.657-6.26-.609 8.152-7.528-7.524-.632 12.551-10.033-13.179.632 19.446-11.29h-12.534l21.298-9.401-12.945-.128 14.83-6.146-5.703.25s-31.287-4.64-48.212 29.841c-12.469 25.418-5.65 60.814-5.65 60.814s-6.642-30.615-21.307-53.283c-14.672-22.669-64.572-27.587-64.572-27.587z"/></svg>