<?xml version="1.0" standalone="no"?>
<!DOCTYPE svg PUBLIC "-//W3C//DTD SVG 20010904//EN"
 "http://www.w3.org/TR/2001/REC-SVG-20010904/DTD/svg10.dtd">
<svg version="1.0" xmlns="http://www.w3.org/2000/svg"
 width="295.000000pt" height="400.000000pt" viewBox="0 0 295.000000 400.000000"
 preserveAspectRatio="xMidYMid meet">

<g transform="translate(0.000000,400.000000) scale(0.100000,-0.100000)"
fill="#000000" stroke="none">
<path d="M1350 3816 c-30 -6 -64 -17 -75 -23 -24 -14 -19 -16 70 -31 214 -36
484 -226 625 -439 251 -382 346 -908 249 -1378 -57 -279 -190 -552 -334 -683
-171 -157 -292 -54 -359 303 -37 202 -51 420 -50 810 1 212 5 393 11 410 l9
29 44 -54 c63 -80 127 -221 152 -337 29 -136 28 -134 51 -83 18 37 22 64 22
155 0 108 -1 113 -37 185 -20 41 -58 99 -83 128 -29 32 -41 52 -32 52 22 0
120 -54 166 -91 83 -66 182 -217 217 -331 19 -62 28 -71 38 -35 15 55 6 169
-19 244 -62 183 -193 303 -366 336 l-62 11 34 12 c59 21 167 17 231 -10 68
-28 141 -83 183 -136 38 -49 49 -50 40 -2 -11 64 -52 140 -102 190 -67 67
-129 94 -224 100 -67 4 -84 1 -133 -21 l-57 -26 22 31 c12 17 42 43 67 59 45
29 143 55 162 44 5 -3 10 -2 10 4 0 17 -66 51 -113 57 -60 9 -142 -29 -180
-82 l-25 -37 -13 44 c-34 113 -201 204 -318 172 -20 -5 -13 -11 50 -40 89 -41
131 -80 170 -155 40 -79 37 -97 -8 -46 -51 55 -111 81 -193 81 -96 1 -174 -44
-233 -133 -10 -13 -17 -27 -17 -31 0 -3 28 8 62 25 55 28 72 31 148 31 90 -1
157 -23 194 -64 17 -19 16 -19 -26 -9 -110 25 -262 -22 -334 -105 -51 -59
-101 -169 -119 -261 -25 -130 -19 -136 42 -43 88 133 242 251 361 276 65 14
72 14 72 1 0 -5 -8 -10 -18 -10 -27 0 -102 -51 -146 -100 -96 -107 -133 -306
-79 -430 l16 -35 9 35 c59 216 97 300 166 369 48 47 98 79 108 69 3 -4 -2 -55
-10 -115 -39 -272 -54 -635 -37 -913 26 -428 105 -686 240 -784 38 -27 51 -31
110 -31 86 0 142 28 233 113 189 179 358 560 413 936 61 417 -1 857 -170 1201
-217 441 -520 658 -825 591z"/>
<path d="M1168 3687 c-51 -20 -128 -78 -188 -144 -178 -194 -315 -511 -375
-863 -22 -130 -31 -448 -16 -580 46 -399 205 -770 428 -997 194 -198 389 -268
586 -213 51 15 43 31 -24 48 -143 36 -320 150 -449 290 -227 245 -373 581
-420 965 -16 122 -8 400 14 517 75 406 284 749 521 855 61 27 179 55 235 55
58 0 48 19 -26 49 -73 30 -227 39 -286 18z"/>
<path d="M117 634 c-4 -4 -7 -97 -7 -206 l0 -198 55 0 54 0 3 68 3 67 50 1 50
1 3 51 3 52 -55 0 c-56 0 -56 0 -56 30 l0 30 71 0 70 0 -3 53 -3 52 -116 3
c-63 1 -118 -1 -122 -4z"/>
<path d="M410 435 l0 -205 55 0 55 0 0 205 0 205 -55 0 -55 0 0 -205z"/>
<path d="M574 626 c-3 -7 -4 -31 -2 -52 3 -34 6 -39 28 -39 l25 0 0 -127 c0
-119 -1 -128 -24 -152 -17 -18 -22 -32 -17 -48 13 -49 21 -53 67 -27 76 43 78
49 81 264 l3 190 -78 3 c-60 2 -79 0 -83 -12z"/>
<path d="M817 633 c-3 -5 -5 -97 -4 -206 l1 -197 57 0 57 0 -1 203 -2 202 -52
3 c-28 2 -53 -1 -56 -5z"/>
<path d="M1100 435 l0 -205 55 0 55 0 0 60 c0 52 2 60 19 60 14 0 25 -16 41
-60 l22 -60 64 0 c35 0 64 3 64 8 0 4 -16 39 -37 78 l-37 70 24 32 c15 20 25
50 28 85 4 46 1 57 -23 85 -33 40 -77 52 -187 52 l-88 0 0 -205z m164 99 c32
-31 12 -94 -29 -94 -24 0 -25 3 -25 55 0 48 3 55 19 55 11 0 27 -7 35 -16z"/>
<path d="M1450 480 c0 -124 3 -168 15 -190 46 -90 246 -84 284 8 6 15 12 96
14 182 l2 155 -55 0 -55 0 -3 -147 c-2 -131 -5 -149 -21 -157 -26 -14 -60 -2
-66 23 -3 11 -6 79 -8 151 l-2 130 -52 3 -53 3 0 -161z"/>
<path d="M1920 629 c-38 -15 -88 -69 -102 -108 -6 -20 -11 -66 -11 -103 1 -81
30 -142 82 -172 39 -23 123 -26 189 -7 l42 12 0 84 0 85 -50 0 -50 0 0 -50 c0
-49 -1 -50 -29 -50 -43 0 -61 31 -61 108 0 54 4 66 26 89 26 26 48 27 120 7
20 -5 23 -1 29 46 5 40 4 55 -6 61 -19 12 -148 10 -179 -2z"/>
<path d="M2186 632 c-2 -4 -4 -96 -3 -205 l2 -197 100 0 c76 0 110 5 142 19
49 23 63 45 63 101 0 33 -6 48 -28 68 l-28 25 23 23 c50 50 19 143 -55 164
-43 12 -209 14 -216 2z m158 -88 c9 -4 16 -18 16 -34 0 -28 -15 -40 -51 -40
-16 0 -19 7 -19 40 0 41 13 50 54 34z m26 -173 c13 -25 13 -27 -6 -45 -8 -9
-29 -16 -45 -16 -27 0 -29 2 -29 40 0 39 1 40 35 40 24 0 37 -6 45 -19z"/>
<path d="M2480 637 c0 -2 27 -68 60 -146 51 -120 60 -151 60 -202 l0 -59 50 0
50 0 0 60 c0 52 8 75 65 196 36 75 65 141 65 145 0 5 -24 9 -54 9 l-54 0 -33
-81 c-26 -62 -35 -76 -41 -62 -4 10 -17 45 -30 78 l-23 60 -58 3 c-31 2 -57 1
-57 -1z"/>
</g>
</svg>
