<svg xmlns="http://www.w3.org/2000/svg" width="246.875" height="344.375" overflow="visible"><switch><g><path fill="#E21109" d="M123.438 344.375l85.313-53.125s42.5-23.75 38.125-78.125S233.125 40 233.125 40 153.438 27.5 123.438 0C93.438 27.5 13.75 40 13.75 40S4.375 158.75 0 213.125s38.125 78.125 38.125 78.125l85.313 53.125z"/><path fill="#F79910" d="M105.601 282.148H89.805v30.977h7.344v-13.398h7.371v-4.766h-7.371v-7.891h8.452v-4.922zm20.383 0h-15.795v30.977h7.344v-13.398h7.369v-4.766h-7.369v-7.891h8.451v-4.922zm19.043 17.207v-.088c2.038-.332 3.737-1.223 5.102-2.678 1.365-1.455 2.047-3.187 2.047-5.198 0-3.027-.992-5.384-2.972-7.063-2.1-1.74-5.19-2.609-9.272-2.609-3.721 0-6.828.601-9.318 1.799v29.607h7.188v-13.672l7.385 13.672h8.062l-8.222-13.77zm-5.65-1.582c-.69 0-1.218-.059-1.576-.181v-11.328a5.525 5.525 0 012.116-.405c1.895 0 3.218.474 3.97 1.416.75.945 1.125 2.437 1.125 4.473 0 4.019-1.877 6.025-5.635 6.025z"/><path fill="#F79910" stroke="#F79910" stroke-width="1.25" d="M101.042 218.125s2.917 31.665-2.083 37.915c0 0-15.417 2.085-21.25 11.045l18.125-3.75s-6.875 5.622-6.25 8.33c0 0 8.541-2.705 13.958-3.54 0 0-5.833 3.957-4.375 7.29 0 0 10-6.875 19.375-9.79 0 0 4.375 2.082 4.792 4.79 0 0 9.165-6.872-6.042-8.955 0 0 3.958-7.292 2.708-10l8.335-4.375-9.167-2.92-2.708-22.915s-2.292 30.832-6.25 36.04l-4.584.21s7.917-14.375 4.167-33.335l-8.751-6.04z"/><path fill="#F8DE3B" d="M100.591 53.229s-14.6 28.305-15.069 29.218c-30.219 23.364-37.519 45.337-38.291 59.685a51.945 51.945 0 00-.077 2.839c0 14.237 5.811 23.198 6.074 23.596l2.644 3.997s3.176-8.018 4.517-11.396c3.464 12.339 13.384 26.296 18.472 29.929l.625.447c6.38 4.546 12.98 9.248 17.858 22.449 5.311 14.367 15.04 32.663 15.451 33.435l4.69-1.46c-3.971-34.634 17.062-63.345 33.773-70.754 2.81-1.246 7.922-2.879 10.612.188 10.029 11.421 1.263 30.857 1.172 31.053l-2.412 5.241 5.474-1.821c2.441-.815 4.797-2.861 6.719-4.927-.962 12.905-9.614 29.312-9.717 29.502l-3.315 6.228 6.497-2.748c20.725-8.768 26.105-31.717 26.105-53.182 0-4.162-.205-8.271-.537-12.207 1.787 8.638 3.13 16.975 3.794 21.86l1.26 9.287 3.53-8.682c8.146-20.024 6.924-73.093-19.414-96.257-7.871-6.924-15.142-9.339-21.602-7.178-8.452 2.827-12.939 12.813-14.937 18.843-1.211-2.49-1.465-5.437-1.465-7.312 0-1.112.083-1.843.085-1.868l.857-7.339-5.137 5.305c-9.897 10.232-12.349 24.601-12.349 36.324 0 7.308.947 13.524 1.641 17.134-.049-.024-.091-.013-.14-.04-4.843-2.598-9.104-13.696-10.792-19.146 3.284-3.833 4.368-9.873 4.368-16.118 0-9.304-2.352-18.979-3.256-22.358 2.721-4.666 4.145-9.399 4.145-14.143 0-1.926-.226-3.855-.677-5.78-3.249-13.855-17.062-22.469-17.648-22.829l-2.295-1.408-1.233 2.393z"/><path fill="#F79910" d="M100.591 53.229s-14.6 28.305-15.069 29.218c-30.219 23.364-37.519 45.337-38.291 59.685a51.945 51.945 0 00-.077 2.839c0 14.237 5.811 23.198 6.074 23.596l2.644 3.997s3.176-8.018 4.517-11.396c3.464 12.339 13.384 26.296 18.472 29.929l.625.447c6.38 4.546 12.98 9.248 17.858 22.449 5.311 14.367 15.04 32.663 15.451 33.435l4.69-1.46c-3.971-34.634 17.062-63.345 33.773-70.754 2.81-1.246 7.922-2.879 10.612.188 10.029 11.421 1.263 30.857 1.172 31.053l-2.412 5.241 5.474-1.821c2.441-.815 4.797-2.861 6.719-4.927-.962 12.905-9.614 29.312-9.717 29.502l-3.315 6.228 6.497-2.748c20.725-8.768 26.105-31.717 26.105-53.182 0-4.162-.205-8.271-.537-12.207 1.787 8.638 3.13 16.975 3.794 21.86l1.26 9.287 3.53-8.682c8.146-20.024 6.924-73.093-19.414-96.257-7.871-6.924-15.142-9.339-21.602-7.178-8.452 2.827-12.939 12.813-14.937 18.843-1.211-2.49-1.465-5.437-1.465-7.312 0-1.112.083-1.843.085-1.868l.857-7.339-5.137 5.305c-9.897 10.232-12.349 24.601-12.349 36.324 0 7.308.947 13.524 1.641 17.134-.049-.024-.091-.013-.14-.04-4.843-2.598-9.104-13.696-10.792-19.146 3.284-3.833 4.368-9.873 4.368-16.118 0-9.304-2.352-18.979-3.256-22.358 2.721-4.666 4.145-9.399 4.145-14.143 0-1.926-.226-3.855-.677-5.78-3.249-13.855-17.062-22.469-17.648-22.829l-2.295-1.408-1.233 2.393zm-41.04 96.476l-4.492 11.338c-1.455-3.625-3.037-9.113-3.037-16.118 0-14.729 7.013-35.861 37.001-58.879l.443-.339 14.253-27.634c3.75 2.849 11.146 9.414 13.188 18.167.353 1.519.53 3.042.53 4.573 0 4.171-1.313 8.375-3.93 12.549l-.591.942.304 1.069c1.312 4.626 3.332 14.077 3.332 22.288 0 5.691-.971 10.789-3.818 13.269l-1.193 1.038.427 1.522c.548 1.953 5.585 19.208 13.647 23.535 2.08 1.117 4.297 1.349 6.401.669l2.236-.721-.581-2.278c-.044-.168-2.121-8.545-2.121-19.124 0-8.893 1.535-19.309 6.914-27.747.642 3.455 2.175 7.363 5.727 9.851l3.108 2.175.771-3.716c.036-.166 3.581-16.7 12.944-19.824 4.65-1.552 10.271.532 16.709 6.194 16.44 14.46 22.036 41.509 22.036 63.22 0 5.742-.391 11.108-1.077 15.771-2.441-14.009-7.023-35.503-13.076-42.229l-4.26 2.361c.112.395 5.906 21.135 5.906 43.108 0 17.24-3.587 35.222-16.266 44.743 3.025-6.992 6.917-17.764 6.917-26.868 0-1.73-.14-3.4-.454-4.975l-1.213-6.067-3.343 5.21c-.622.967-1.514 2.183-2.517 3.389.736-3.032 1.335-6.636 1.335-10.439 0-5.955-1.455-12.354-6.084-17.627-3.509-3.992-9.485-4.524-16.399-1.459-16.201 7.184-36.118 32.621-37.133 64.381-3.235-6.584-7.307-15.303-10.065-22.764-5.411-14.646-12.975-20.033-19.647-24.787l-.62-.441s-29.473-29.737-9.473-43.487c0 0 .625 18.124 6.875 24.79 0 0 3.958-23.749 22.5-36.04 0 0-15.21 3.124-22.292 19.79 0 0-1.875-14.374-.208-17.915.002-.002-12.356 2.948-19.614 15.536z"/><path fill="#E21109" stroke="#F79910" stroke-width="5" d="M112.5 75.938c3.281 12.23 24.375 16.875 28.125-9.375 0 0-23.125-1.875-5.938-17.188l-10.938 1.563-.313-9.688-6.25 2.813s-6.563-9.063-12.188-.938c0 0-9.063-10.313-12.5 4.063 0 0-12.813-1.563-10.313 7.188l-5.938 6.563s10-5 14.688.625S85.313 73.125 80 68.438c0 0 6.875 7.188 2.188 10.313s-16.25 7.188-2.813 17.188 16.875 0 17.813-16.25c0 0 10.313 4.375 6.875-7.188l-3.438-9.063s8.438-.313 11.875 12.5z"/></g></switch></svg>