<svg xmlns="http://www.w3.org/2000/svg" data-name="b797c7b6-59d2-4fe7-92cc-36dde4edfdf1" width="1000" height="1000"><path d="M206.93 385.08c-1.87-118.54 50-234.79 157.69-238.52 99.4-3.43 127.26 80.09 159.24 123.82 12.89 17.61 26.38 32.94 42.71 34.8 21.45 2.45 36.31-24.35 24.16-58.26-7.64-21.32-28.07-78.51-34.32-105.94-5.73-25.17-8.36-51.19-.18-71.16-21.74-22.36-26.54-46.16-26.85-59.5 0-1.64 0-3.12.06-4.42.38-6.91 3.81-6.47 6.82-5 19.5 9.43 43.33 10.37 78 21.21 4.47 1.41 6.23-1.12 7.08-6.91 1-6.76 5.91-5.93 8.1-4.7C654 24.33 678.2 45.24 678.92 62.83 690.07 66 706.79 72.05 720.54 83c1.08.87 1.34 2.34-.28 2.55-25.3 3.32-35.29 14.83-39 20.06a3.22 3.22 0 00-.1 3c5.63 12.25 24.9 26.88 24.37 37.11a24.53 24.53 0 01-2.9 10.35c9 16 17.55 22 36.6 47.63 6.91 9.28 12.13 16.76 15.39 24.38a48 48 0 013.66 24.31s34.46 39.19 35 85.78c.48 40.77-24.59 90.85-44.75 122.84-25 39.69-39.66 70.84-46.66 92.81-10.52 33.08-19.15 65.55-22.55 85.26q-3.86 22.35-1.52 33c1.64 7.33 20.15 18 44.5 27 4.11 1.51 5.38 10.12 5.38 10.24-16.53-3.93-62.32-15.28-77.6-13.75a59.77 59.77 0 00-13.44 2.69c-5.78 1.94-9.5 4.45-14.87 6.66-.06-.24-1.63-8.27.72-11.39 1-1.29 7.4-6.29 10.8-10.66 5-6.45 10-15.74 14.65-28.1-.52-10.14-7.7-19.59-6.79-27.36.84-7 4.76 5.67 14.08 4.22 6.34-23 10.18-50.68 11.71-63.16 4.33-35 9.74-60.69-2.26-61.73-43.38-3.77-61.36 63-70 97.69-8.07 32.57-11.48 51.07-11.13 62.31.24 7.46 2.13 11.73 5.38 14.78 7.59 7.1 14.92 11.13 17.05 13.6 1.52 1.76 3.56 8.64 3.86 12.49-.17-.1-10.65-6-28.16-7.52a170.06 170.06 0 00-41 1.73c-15.73 2.64-36.57 7.33-36.57 7.33s.5-8.54 3.24-9.89c11.17-5.49 22.82-10.51 32.66-18.36 10.66-8.5 15.75-19.6 18-24.08-.32-10.3-8.74-19.43-6.42-28.33.94-3.55 6.41 8.32 14.71 5.5 9.38-41.07 9.75-81.1-.92-112.51-6.89-20.2-13.4-29.84-21.5-34.93-5-3.15-11.32-5.8-20-1-7.82 4.3-21.61 20.18-23.54 22.31C472.1 538.79 421 548.26 395 529.62a140 140 0 0044.63 29.15S413 583 370.76 574.33c-9.4-1.93-30.89-7.58-56.65-22.39a75.55 75.55 0 0015.14 21.21c12 11.65 19 13.22 19 13.22-101.47 0-140.25-129.6-141.32-201.29z" fill="#e21f20"/><path d="M594.84 52.4C576.7 62.68 570.43 79.53 576.67 97a39.09 39.09 0 009.42 15.39c-19.32-14.85-36-47.46-11.57-64.78 10.83-7.65 21.62-9.57 34.31-10 24.35-.85 48.14 13.72 59.54 23-14.03-10.01-54.47-19.01-73.53-8.21z" fill="#b60718"/><path d="M622.72 74.54c-.73 4.83 3.22 9.39 8.84 10.21s10.73-2.41 11.45-7.24a7.63 7.63 0 00-.62-4.29 33.45 33.45 0 014.29 1.25l-1.77-3.3a41.77 41.77 0 00-12.86-4.61c-11.57-1.7-16 5.6-16 5.6a62.23 62.23 0 017.94-.78 7.53 7.53 0 00-1.27 3.16zM559.3 415.9c-46.61-7.68-64.33-21.49-108.64-21.7 27.43-3.21 46.14-1.48 69.34.3 39.23 3 80.42-3.1 107.59-19.16 25.38-15 38.26-39 33.95-65.09 49.05 55.37-7.17 121.31-102.24 105.65zm149.82-154.01c2-43-24.32-52-32.39-77 18.3 20.21 39.42 29.89 50.7 48.61 22.62 37.54 14.41 62.31 14.41 62.31-8-22.53-32.72-33.92-32.72-33.92zM596.58 160.85c3.41 20.74 10.38 29.78 41.69 59.43 26.34 25 30.18 50.3 24.29 66.39 14.6-35 7.51-65.49-17.55-100-20.67-28.47-25.46-48.45-24.85-65.95a48.72 48.72 0 01-22-1.24c-1.56 1.7-24.79 27.88-13.36 72.59a350.12 350.12 0 0012.2 38.31c16 41.91 11.47 62.84 2.36 73.52 40.82-12.69 37-58.07 16.39-91.08-17.75-28.54-18.99-36.89-19.17-51.97z" fill="#b60718"/><path d="M496.37 426.85s65.2 33.18 141 15c101.18-24.18 86.5-131.2 57.19-146.23C735.92 298 768.16 387.78 715 441c-52.94 53.06-143 32.78-185.8 6.48-20.89-12.81-32.83-20.63-32.83-20.63z" fill="#b60718"/><path d="M320.44 305.75C283.13 324.57 242 376 255.86 459.25a125.81 125.81 0 006.72 24c.29.65.54 1.32.81 2 0 0-35.36-45.79-26.24-139.73C245.47 260 286.57 189.43 367 184.92c78.79-4.41 115.15 75 115.15 75s-43.27-62.28-121.22-49c-49.08 8.33-75 55.53-85 94.07 20.38-31.71 50.38-51.71 84-54.65 70.06-6.12 105.7 41.47 139.91 65.29 44.48 30.95 89.69 19.95 107.28 4.74-3.39 11.13-30.7 42.74-76.26 50.46-14.51 2.46-34.13 2.84-61-.27-47.45-5.47-113.75-12.35-140.78 43.6S342.53 532.84 398 553c-64-8.45-111.82-66.19-105.16-134.85 9.48-97.4 106-95.64 157.43-76.25 24.41 9.19 59.52 13.76 74.3 6.45 0 0-36-.38-74.34-26.9-34.23-23.74-77.54-42.05-129.79-15.7z" fill="#b60718"/><path d="M525.87 472.7c-37.55-7.09-51.64-14.63-66.46-24.08a83.74 83.74 0 00-48.85-13.31c27.56-29.05 65.22-15 66.12-14.59-15.69-7.7-30.39-16.33-53.42-13.8-25.34 2.79-35.79 22.25-33.7 37.81 5.9 43.91 76.36 25.7 76.36 25.7s-25.08 32.68-64.38 26.26c-14.37-2.34-24.14-9.08-30.29-17.68C384 498.53 403 510.45 436 509.86c31.73-.55 44.73-13.7 66.95-29.15 6.75-4.71 15.56-8.42 22.92-8.01z" fill="#b60718"/><path d="M236.54 845.3v29h-23c-.63 0-.75-.12-.75-.74v-71.09l-6.37-8.36v-1.5c0-.63.12-.75.75-.75h76.92c.62 0 .75.12.75.75v18h-48.3v16h41.59c.62 0 .75.13.75.75v18zm90.8 28.97h-23c-.63 0-.76-.12-.76-.74v-71.06l-6.36-8.36v-1.5c0-.63.12-.75.75-.75h46.45c25.35 0 40.83 11.11 40.83 29.22 0 11-6.49 19-18.36 23.22l26.48 30h-26.69c-.5 0-.75-.12-1.38-.74l-28.34-32v-6.74c0-.63.12-.76.75-.76h.5c16 0 23.35-3.74 23.35-11.73s-7.37-11.74-23.35-11.74h-10.87zm91.42 0h-23l42.84-82.41h20l42.84 82.41H477.2a1.42 1.42 0 01-1.37-.74l-6.62-13h-42.46l-6.61 13a1.45 1.45 0 01-1.38.74zm41.58-31.21L448 818.83l-12.36 24.23zm74.82-17.24v48.45h-21.73c-.63 0-.75-.12-.75-.74v-71.06l-6.37-8.36v-1.5c0-.63.13-.75.75-.75h26.85l45.45 48.45v-48.45h21.73c.63 0 .75.12.75.75v81.66h-20.1a2.33 2.33 0 01-1.88-.74zm83.55 7.25c0-25.1 22.23-43.21 53.07-43.21 11.12 0 21.23 1.62 29.72 4.75v19.1a75.78 75.78 0 00-28.5-5.37c-17.73 0-30 10.12-30 24.73s12.24 24.72 30 24.72c10.37 0 19.11-1.75 29.72-5.87V871c-8.24 3.49-18.73 5.24-31 5.24-30.78.03-53.01-18.07-53.01-43.17zm168.84 8.74h-42.33v13.73h47.58c.62 0 .75.13.75.75v18h-71.3c-.63 0-.76-.12-.76-.74v-71.08l-6.36-8.36v-1.5c0-.63.12-.75.75-.75h76.92c.62 0 .75.12.75.75v18h-48.33v12.49h41.59c.62 0 .74.12.74.75zM242.39 997.67h-26.85c-.72 0-.87-.15-.87-.88v-83l-7.44-9.79v-1.75c0-.73.15-.88.88-.88h54.27c29.62 0 47.71 13 47.71 34.14 0 12.84-7.59 22.18-21.45 27.14l30.94 35h-31.23c-.58 0-.87-.15-1.6-.88l-33.12-37.35v-7.88c0-.73.14-.87.87-.87h.59c18.67 0 27.28-4.38 27.28-13.72s-8.61-13.71-27.28-13.71h-12.7zm113.38-96.3c.73 0 .87.15.87.88v46.39c0 19.7 8.61 29.77 25.54 29.77s25.53-10.51 25.53-31.23v-45.81h26.85c.73 0 .87.15.87.88v47.85c0 32.83-18.24 49.9-53.25 49.9s-53.26-17.07-53.26-49.9v-36.33l-7.44-9.77v-1.75c0-.73.15-.88.88-.88zM515 1000c-36 0-62-21.15-62-50.48S479 899 515 899c15 0 28.3 2.48 39.1 7.29v22.32c-13.57-5.69-23.93-8-37.64-8-20.72 0-35 11.82-35 28.89s14.3 28.89 35 28.89a84.89 84.89 0 0018.67-1.9v-16.8l-7.48-9.69v-1.74c0-.73.15-.88.88-.88h32.1v44.79Q540.49 1000 515 1000zm119.6-2.33h-49.75c-.73 0-.87-.15-.87-.88v-83l-7.44-9.79v-1.75c0-.73.14-.88.87-.88h56.47c24.65 0 39.68 9.48 39.68 25 0 8.61-4.67 15.47-13.42 19.84 12.55 4.23 19.26 12.26 19.26 23.2 0 18.04-16.05 28.26-44.8 28.26zm-23.49-59.53h18.39c11.67 0 17.07-2.63 17.07-8.17s-5.4-8.17-17.07-8.17h-18.39zm0 39.1h20.58c13.71 0 20-2.92 20-9.34s-6.28-9.33-20-9.33h-20.58zm138.77 20.43H723c-.73 0-.88-.15-.88-.88v-34.14l-42.74-61.28h29.76a2 2 0 011.61.88l26 38.37 26-38.37a2 2 0 011.6-.88h28.3l-42.74 61.28z" fill="#003576"/></svg>