<svg xmlns="http://www.w3.org/2000/svg" width="316.228" height="316.228" viewBox="0 0 656 656"><g fill="#eb1c22"><path d="M163.543 303.583l-1.364-2.727-1.435-3.875-1.65-5.383-1.22-5.166-.933-6.53-.861-8.181-.287-6.602.287-6.1.646-6.315 1.291-5.023 1.149-4.162 1.507-4.521 2.87-6.459 2.87-6.53 2.727-4.951 2.44-4.306 3.23-4.306 4.449-5.454 3.3-3.229 2.8-2.798 3.803-3.301 4.305-3.66 5.67-3.66 3.946-2.44 5.239-2.44 6.243-2.798 5.669-2.082 5.813-1.937 7.463-1.292 7.535-.717h6.96l8.612.789 8.037 1.076 7.965 2.153 8.11 2.799 6.817 2.727 5.597 2.727 5.74 3.66 6.029 4.52 5.167 4.593 5.382 5.67 4.162 5.094 3.516 4.808 3.23 5.167 2.654 5.167 2.656 6.171 2.224 6.1 2.01 7.176 1.291 7.176.503 5.67-.072 2.583-1.292-3.445-2.153-3.803-3.086-4.521-3.444-4.378-3.373-4.233-4.234-4.306-3.014-2.87-4.09-3.373-3.66-2.512-4.664-3.23-5.813-3.372-7.032-3.23-5.454-1.865-5.454-2.01-5.023-1.506-5.813-.861-5.526-.718-6.817-.144h-6.889l-6.171.646-5.454 1.005-6.028 1.076-5.239 1.364-5.238 1.579-4.593 1.65-6.315 3.301-5.669 3.158-5.526 3.803-5.31 4.019-4.736 4.233-4.09 4.45-3.517 4.09-3.229 4.593-3.373 5.669-3.157 5.238-2.01 4.736-2.583 6.172-1.866 5.813-1.363 5.166-1.148 5.454-.36 5.741-.214 5.167z"/><path d="M199.135 158.346l1.279-2.768 2.13-3.54 3.174-4.65 3.275-4.179 4.518-4.805 5.853-5.78 4.978-4.347 4.944-3.584 5.336-3.438 4.73-2.128 3.968-1.701 4.473-1.646 6.837-1.79 6.893-1.835 5.57-.961 4.887-.783 5.38-.165 7.038.07 4.583.562 3.934.44 4.953.91 5.547 1.078 6.398 2.143 4.37 1.56 5.177 2.568 6.084 3.13 5.165 3.129 5.143 3.33 5.669 5.024 5.265 5.438 4.345 5.437 4.76 7.22 4.178 6.95 3.291 7.566 2.877 8.082 2.126 7.028 1.365 6.075.725 6.77.232 7.53-.362 6.904-1.068 7.744-1.381 6.432-1.56 5.748-2.02 5.749-2.378 5.3-3.163 5.927-3.376 5.546-4.351 6.05-4.8 5.49-4.114 3.931-2.063 1.557 1.884-3.16 1.627-4.056 1.605-5.233 1.269-5.423 1.201-5.279.72-5.995.36-4.147.081-5.3-.323-4.427-.39-5.66-.994-6.647-1.868-7.51-1.948-5.424-1.835-5.515-1.96-4.865-2.956-5.078-2.89-4.764-4.143-5.415-4.302-5.381-4.357-4.418-4.19-3.633-4.605-4.037-4.335-3.24-4.504-3.107-4.157-2.557-6.521-2.872-6.006-2.457-6.421-1.941-6.455-1.64-6.264-1.056-6.03-.417-5.39-.193-5.603.345-6.535.905-6.063.804-4.954 1.388-6.434 1.835-5.705 2.171-4.888 2.161-4.977 2.508-4.708 3.304-4.17 3.058z"/><path d="M335.516 94.506l2.961-.725 4.097-.54 5.614-.415 5.309-.044 6.574.539 8.168.975 6.501 1.184 5.885 1.633 6.014 2.03 4.612 2.375 3.803 2.043 4.074 2.472 5.661 4.231 5.731 4.248 4.223 3.757 3.657 3.334 3.483 4.104 4.33 5.548 2.417 3.935 2.108 3.35 2.375 4.44 2.614 5.011 2.311 6.34 1.504 4.39 1.217 5.649 1.344 6.708.772 5.99.6 6.097-.396 7.564-.972 7.506-1.544 6.788-2.68 8.221-2.832 7.599-3.866 7.29-4.528 7.285-4.171 6.043-3.9 4.853-4.843 4.786-5.745 4.875-5.625 4.02-6.721 3.99-5.892 2.928-5.468 2.362-5.754 2.003-5.627 1.443-6.607 1.22-6.441.816-7.443.367-7.284-.332-5.64-.768-2.502-.643 3.645-.495 4.186-1.256 5.093-2.006 5.032-2.387 4.877-2.35 5.137-3.173 3.468-2.302 4.196-3.24 3.26-3.012 4.184-3.832 4.578-4.92 4.709-6.141 3.029-4.904 3.169-4.872 2.584-4.564 2.129-5.477 1.925-5.229 1.652-6.615 1.528-6.718.74-6.16.23-5.542.287-6.116-.167-5.41-.378-5.459-.59-4.844-1.818-6.89-1.822-6.228-2.482-6.232-2.741-6.07-3.078-5.557-3.43-4.975-3.21-4.336-3.761-4.168-4.78-4.546-4.408-4.24-4.172-3.01-5.445-3.888-5.254-3.11-4.736-2.475-5.063-2.329-5.518-1.623-4.99-1.356z"/><path d="M469.365 162.436l2.398 1.883 2.954 2.89 3.792 4.16 3.31 4.15 3.635 5.506 4.275 7.028 3.08 5.846 2.348 5.637 2.115 5.985.979 5.094.74 4.253.57 4.732.165 7.065.196 7.13-.35 5.643-.365 4.935-1.08 5.273-1.691 6.832-1.605 4.33-1.334 3.726-2.027 4.61-2.329 5.149-3.561 5.732-2.526 3.892-3.693 4.445-4.448 5.198-4.236 4.304-4.427 4.236-6.196 4.357-6.505 3.87-6.293 2.974-8.123 2.967-7.726 2.461-8.122 1.458-8.527.935-7.329.448-6.225-.073-6.755-.855-7.382-1.511-6.634-1.944-7.288-2.826-5.94-2.827-5.234-2.844-5.128-3.291-4.608-3.537-5.038-4.445-4.618-4.563-4.884-5.63-4.234-5.935-2.877-4.91-1.04-2.367 2.64 2.562 3.572 2.518 4.722 2.769 4.985 2.485 4.859 2.387 5.668 2.083 3.951 1.307 5.14 1.301 4.382.707 5.597.926 6.696.565 7.738-.086 5.728-.644 5.79-.514 5.185-.784 5.623-1.706 5.303-1.713 6.224-2.783 6.228-2.944 5.304-3.222 4.501-3.239 4.99-3.549 4.153-3.471 4.062-3.667 3.447-3.454 4.298-5.684 3.776-5.277 3.37-5.8 3.084-5.903 2.472-5.851 1.797-5.77 1.43-5.202.957-5.532.627-6.567.615-6.085-.207-5.14-.302-6.684-.797-6.053-.976-5.254-1.292-5.42-2.13-5.344-2.013-4.764z"/><path d="M499.193 310.225l-.012 3.049-.465 4.106-.952 5.548-1.24 5.162-2.11 6.25-2.918 7.691-2.719 6.023-3.005 5.316-3.423 5.346-3.416 3.902-2.901 3.198-3.383 3.357-5.473 4.472-5.505 4.536-4.666 3.191-4.118 2.744-4.823 2.389-6.43 2.863-4.402 1.395-3.76 1.237-4.883 1.233-5.493 1.327-6.71.712-4.623.4-5.775-.183-6.835-.316-5.999-.697-6.062-.89-7.244-2.21-7.05-2.755-6.214-3.137-7.331-4.585-6.69-4.583-6.14-5.512-5.978-6.152-4.857-5.507-3.768-4.957-3.475-5.854-3.344-6.752-2.543-6.429-2.25-7.486-1.419-6.424-.972-5.877-.554-6.067-.042-5.81.41-6.705.764-6.448 1.44-7.311 2.081-6.989 2.107-5.287 1.228-2.274-.4 3.657.208 4.366.718 5.426 1.102 5.46 1.103 5.3 1.839 5.752 1.397 3.92 2.131 4.854 2.135 3.892 2.71 4.985 3.668 5.63 4.823 6.052 4.027 4.123 3.964 4.252 3.805 3.61 4.8 3.387 4.61 3.131 6.02 3.2 6.15 3.105 5.801 2.205 5.321 1.56 5.867 1.756 5.29 1.144 5.388.951 4.844.597 7.125-.101 6.484-.264 6.646-.905 6.552-1.194 6.136-1.645 5.656-2.129 4.983-2.067 4.952-2.644 5.566-3.541 5.18-3.253 3.927-3.323 5.088-4.345 4.285-4.348 3.546-3.998 3.482-4.351 2.908-4.963 2.52-4.516z"/><path d="M404.155 424.018l-2.375 1.912-3.482 2.225-4.91 2.755-4.79 2.289-6.183 2.298-7.811 2.578-6.39 1.682-6.022 1.014-6.309.71-5.183-.196-4.31-.239-4.738-.513-6.921-1.434-6.99-1.419-5.418-1.613-4.726-1.47-4.893-2.242-6.274-3.19-3.856-2.54-3.329-2.141-4.033-3.016-4.49-3.43-4.78-4.764-3.222-3.339-3.497-4.601-4.06-5.507-3.237-5.098-3.127-5.269-2.847-7.019-2.3-7.21-1.478-6.803-1.057-8.582-.654-8.083.413-8.24 1.013-8.519 1.218-7.24 1.477-6.05 2.357-6.386 3.139-6.85 3.39-6.024 4.398-6.463 4.096-5.15 3.952-4.456 4.363-4.252 4.486-3.692 5.467-3.904 5.488-3.47 6.586-3.486 6.738-2.786 5.434-1.694 2.54-.478-3.092 1.993-3.26 2.911-3.763 3.976-3.546 4.295-3.422 4.194-3.308 5.052-2.166 3.554-2.427 4.714-1.678 4.11-2.165 5.243-2.062 6.396-1.663 7.558-.666 5.725-.805 5.756-.407 5.229.393 5.863.471 5.552 1.307 6.692 1.463 6.732 1.94 5.894 2.14 5.116 2.332 5.662 2.444 4.83 2.655 4.784 2.588 4.138 4.566 5.47 4.29 4.87 4.889 4.592 5.054 4.336 5.143 3.73 5.216 3.052 4.743 2.568 5.174 2.18 6.256 2.093 5.79 1.974 5.054.958 6.58 1.214 6.075.59 5.339.235 5.573-.035 5.686-.868 5.095-.887z"/><path d="M255.433 421.3l-2.98-.644-3.92-1.306-5.23-2.083-4.793-2.283-5.677-3.36-6.918-4.45-5.328-3.91-4.577-4.042-4.52-4.457-3.109-4.151-2.527-3.501-2.582-4.006-3.24-6.281-3.295-6.327-2.154-5.226-1.83-4.598-1.336-5.214-1.468-6.883-.451-4.596-.43-3.934-.194-5.033-.158-5.648.695-6.712.568-4.606 1.377-5.612 1.726-6.62 1.926-5.724 2.128-5.746 3.664-6.628 4.158-6.325 4.358-5.428 6.006-6.221 5.87-5.594 6.666-4.864 7.259-4.571 6.394-3.61 5.63-2.657 6.448-2.186 7.3-1.87 6.815-1.154 7.79-.648 6.58-.056 5.95.268 6.05.716 5.692 1.164 6.474 1.793 6.15 2.084 6.853 2.925 6.405 3.485 4.735 3.158 1.97 1.673-3.495-1.15-4.313-.701-5.458-.424-5.57-.055-5.412-.02-6.009.606-4.125.554-5.19 1.078-4.25 1.281-5.438 1.616-6.27 2.422-6.92 3.462-4.87 3.085-4.98 2.995-4.32 2.974-4.31 3.993-4.02 3.86-4.379 5.226-4.312 5.373-3.36 5.216-2.631 4.882-2.934 5.375-2.216 4.938-2.049 5.074-1.588 4.614-1.379 6.991-1.087 6.398-.493 6.69-.191 6.656.337 6.344.908 5.975.989 5.303 1.56 5.393 2.31 6.18 2.108 5.74 2.435 4.533 3.195 5.878 3.365 5.093 3.176 4.298 3.534 4.31 4.252 3.873 3.894 3.403z"/><ellipse cx="332.683" cy="267.702" rx="6.315" ry="6.387"/></g><g fill="#231f20"><path d="M59.13 319.657l39.254-36.813-.287 4.52.144 3.086.574 5.598.933 6.817 1.435 8.683 1.507 8.109 1.937 7.678 2.01 9.258 2.152 7.39 3.23 9.115 3.157 8.108 3.803 8.97 4.02 8.038 4.376 7.893 4.88 7.679 4.808 7.894 5.526 7.75 4.52 6.458 5.096 6.459 6.315 6.53 5.238 5.67 6.459 6.673 9.042 7.678 7.176 5.885 10.477 7.893 6.602 4.521 8.97 5.239 9.4 5.238 7.822 3.875 6.387 2.584-3.014 2.942-6.171-2.225-10.98-4.162-10.477-4.377-11.41-4.665-8.97-4.305-6.602-3.517-7.75-4.377-10.118-5.884-9.186-6.387-8.54-5.74-8.036-6.244-6.961-6.028-7.679-7.391-7.104-6.89-7.822-8.826-6.315-6.889-5.597-7.033-7.535-9.974-6.243-10.047-4.593-9.042-5.526-12.414-3.66-9.186-4.233-11.481-1.866-6.602z"/><path d="M18.115 372.298c.102-.203 23.443-32.729 23.443-32.729l.964 3.4 1.98 5.176 1.927 4.719 2.233 6.038 1.98 4.263 3.094 5.886 2.842 5.328 3.247 6.647 4.263 6.901 3.856 5.886 3.4 4.973 3.248 4.465 3.146 4.466 3.958 4.77 4.363 5.074 3.654 4.364 5.277 5.886 5.227 5.125 4.262 4.364 5.43 4.972 4.516 3.907L120.26 451l6.241 4.922 5.024 3.907 6.647 4.669 6.647 4.465 7.054 4.82 8.27 4.821 7.155 3.806 8.627 4.617 6.24 3.096 8.424 3.602 7.003 2.994 8.575 3.4 7.053 2.74 4.77 1.776 5.988 1.725-.203 2.943-5.48-1.32-6.039-1.978-8.525-2.385-9.844-2.943-8.524-2.537-6.901-2.385-8.018-2.79-7.357-3.198-6.09-2.588-9.488-4.668-10.504-4.719-7.916-4.415-6.952-3.602-7.966-4.82-7.916-4.568-5.785-3.755-6.85-4.465-7.155-5.277-7.104-5.379-6.19-5.226-5.531-4.82-6.343-5.633-9.032-8.982-7.003-7.357-6.089-7.307-7.053-8.17-6.14-8.778-4.364-6.952zm580.44-53.652l-39.505-36.543.318 4.519-.122 3.086-.536 5.601-.886 6.824-1.376 8.693-1.451 8.119-1.885 7.691-1.946 9.27-2.102 7.407-3.167 9.135-3.102 8.13-3.741 8.997-3.964 8.064-4.323 7.924-4.827 7.712-4.754 7.926-5.472 7.788-4.477 6.49-5.05 6.492-6.27 6.574-5.2 5.705-6.413 6.717-8.989 7.74-7.135 5.934-10.423 7.965-6.57 4.566-8.935 5.3-9.365 5.303-7.795 3.929-6.369 2.627 3.034 2.921 6.157-2.267 10.95-4.237 10.447-4.449 11.378-4.742 8.94-4.367 6.578-3.562 7.72-4.43 10.078-5.954 9.141-6.45 8.5-5.799 7.994-6.298 6.92-6.075 7.627-7.444 7.057-6.938 7.761-8.88 6.268-6.932 5.549-7.07 7.466-10.027 6.175-10.089 4.53-9.073 5.44-12.452 3.597-9.21 4.156-11.51 1.82-6.615z"/><path d="M639.66 371.892c-.1-.203-23.442-32.729-23.442-32.729l-.964 3.4-1.98 5.176-1.927 4.719-2.233 6.038-1.98 4.263-3.094 5.886-2.842 5.328-3.248 6.647-4.262 6.901-3.856 5.886-3.4 4.973-3.248 4.465-3.146 4.466-3.958 4.77-4.363 5.074-3.654 4.364-5.277 5.886-5.227 5.125-4.262 4.364-5.43 4.972-4.516 3.908-5.835 4.82-6.241 4.922-5.024 3.907-6.647 4.669-6.647 4.465-7.054 4.82-8.27 4.821-7.155 3.806-8.627 4.617-6.24 3.096-8.424 3.602-7.003 2.994-8.575 3.4-7.053 2.74-4.77 1.776-5.988 1.725.203 2.943 5.48-1.319 6.039-1.979 8.525-2.385 9.844-2.943 8.524-2.537 6.901-2.385 8.018-2.79 7.357-3.198 6.09-2.587 9.488-4.669 10.504-4.719 7.916-4.414 6.952-3.603 7.966-4.82 7.916-4.568 5.785-3.755 6.85-4.465 7.155-5.277 7.104-5.379 6.19-5.226 5.531-4.82 6.343-5.633 9.032-8.982 7.003-7.357 6.089-7.307 7.053-8.17 6.14-8.778 4.364-6.952z"/></g><g fill="#231f20" stroke="#000"><path d="M246.498 500.423l18.3-9.545 9.041-2.368.072 40.043 8.827 7.463 4.305-.215 3.23-1.938-.072-17.868 4.305-2.584h7.105l.215 17.223-1.722 1.794-2.225.646-12.414 6.602-5.239.143h-2.512l-2.87-1.507-10.764-7.606-.215-34.015-3.804.072-8.396 4.88-5.812.071z"/><path d="M308.356 495.615l-1.65-2.082-1.845-.569-3.298-1.167-2.385-1.573-2.334-1.42-1.522-1.98-1.32-2.13-.608-2.03-.254-2.132.203-2.435.71-1.878 1.167-1.776 1.827-1.979 2.994-2.08 2.994-1.37 3.298-1.32 3.704-1.065 4.922-.71 4.313-.254 4.161.101 5.125.71 4.922 1.117 3.501 1.471 3.096 1.573 4.668 2.487 4.668 1.928 3.4 1.472 3.552.811 2.994.254 3.197-.152 2.385-.558 2.384-.914 1.726-1.623 6.85-.051-1.32 1.218-2.536 1.573-3.299 1.471-3.805 1.167-3.958.863-3.755.558-4.263-.101-3.958-.559-4.11-1.014-3.095-.964-4.72-1.929-3.653-1.979-3.653-1.826-3.755-1.726-3.146-.964-3.501-.609-3.552-.406-2.943-.101-2.791.507-1.725.559-1.472.913-1.116 1.015-.863 1.167-.609 2.131-.05 2.74.507 2.892 1.015 2.842 1.725 2.486 3.755 3.045 3.045 1.269 3.349.862 4.566 1.066 9.844 3.755 3.552-.051 16.543-4.72 4.516-.05.152 56.02-4.567 3.045-5.835.05-.203-54.802-3.958-.101-4.516 1.471-.051 62.414-2.03.913-8.423.05-.05-61.043-5.887-2.74h-2.639l.051 51.098-4.973 2.588h-5.378z"/><path d="M363.47 533.05v-17.607l3.855-1.979h6.394l.102 18.42 4.668 2.638 4.262 1.776h1.573l8.018-4.567-.153-17.76-11.772-4.516 7.865-3.957.05-14.36-2.283-3.502 6.496-3.095 3.551-.05 2.842 2.993.05 16.288-5.429 2.334.153 3.147 9.488 2.638-.05 12.28 3.197.304 5.277-4.211 4.211-.254 3.45-.964.61 1.32-4.922 2.587-7.256 4.415-26.082 13.954-3.958.101z"/></g></svg>