<svg xmlns="http://www.w3.org/2000/svg" width="1000" height="1000" viewBox="0 -55.566 1000 1000" overflow="visible"><path fill-rule="evenodd" clip-rule="evenodd" fill="#ED1C24" d="M476.175 362.494a28.205 28.205 0 01-6.541-.815C439.78 436.566 336.05 608.454 598.691 638.936c-167.004 124.205-380.803-120.393-146.157-289.32a25.585 25.585 0 01-1.863-3.279c-76.579 24.954-275.351 55.062-130.726 276.572-202.303-48.937-151.005-369.774 129.003-297.371.264-.905.598-1.779.945-2.644-69.504-40.552-224.289-169.157-293.58 86.261-97.97-183.667 175.785-358.694 307.903-101.392a27.207 27.207 0 014.668-1.75c-9.93-79.875-1.576-280.85-246.602-181.04C308.841-64.3 613.969 47.105 489.643 308.162c1.582.805 3.064 1.786 4.454 2.858 58.113-55.756 224.011-169.23-2.491-305.879 203.452-43.81 296.682 267.291 13.262 323.865l.187 1.422c80.562 2.411 277.558 41.062 216.326-216.159 173.838 114.407 17.288 398.905-221.668 236.448a29.659 29.659 0 01-3.913 4.347c45.112 66.833 128.887 249.129 301.797 49.195 8.719 207.914-313.666 247.13-321.422-41.765z"/><path fill="#030202" d="M501.736 673.785c-65.755 0-126.012-44.444-146.531-108.086-11.084-34.349-9.592-71.188 4.313-106.537 15.815-40.254 46.678-77.19 91.743-109.779a32.996 32.996 0 01-1.078-1.906c-7.031 2.274-15.134 4.614-23.694 7.084-51.188 14.791-128.532 37.13-150.691 96.802-16.062 43.242-.938 100.781 44.938 171.033l1.292 1.983-2.3-.555c-42.502-10.296-76.509-33.227-98.351-66.339-19.785-30.028-28.275-66.761-23.905-103.439 4.504-37.827 22.376-72.362 50.297-97.249 31.404-27.988 74.155-42.785 123.611-42.785 24.115 0 49.993 3.496 76.933 10.393l.411-1.112c-6.394-3.749-13.552-8.256-21.11-13.018-36.749-23.15-87.079-54.848-135.994-54.848-28.353 0-53.393 10.897-74.433 32.412-24.786 25.334-44.955 66.226-59.963 121.558l-.627 2.28-1.105-2.083c-27.871-52.244-27.671-109.175.537-156.184 28.165-46.975 79.344-76.148 133.541-76.148 40.504 0 117 16.804 175.07 129.273a30.316 30.316 0 013.222-1.208c-.895-7.352-1.653-15.769-2.458-24.669-3.238-36.024-7.265-80.866-24.603-117.585-20.456-43.319-54.354-64.376-103.639-64.376-31.784 0-70.323 9.131-114.547 27.14l-2.177.898.981-2.15C248.701 64.917 301.669 29.3 363.084 29.3c53.412 0 103.986 27.581 132.021 71.972 34.481 54.601 32.966 127.908-4.227 206.491a30.201 30.201 0 013.145 2.033c5.355-5.105 11.646-10.734 18.276-16.687 39.67-35.564 99.6-89.283 93.63-152.645-4.341-45.914-42.962-91.172-114.811-134.508l-2.017-1.229 2.304-.494C504.447 1.429 517.461 0 530.034 0c40.92 0 77.639 14.607 106.184 42.238 26.596 25.731 43.256 60.38 46.929 97.546 4.06 41.076-8.447 81.531-35.21 113.916-30.575 37.003-79.32 63.201-141.019 75.848 7.098.257 15.117.765 23.558 1.295 15.197.972 32.418 2.067 50.141 2.067 39.082 0 94.685-4.624 126.275-44.605 28.024-35.48 32.592-93.96 13.574-173.818l-.547-2.304 1.977 1.305c74.151 48.795 83.633 122.727 67.788 175.654-9.295 31.053-28.278 59.001-53.438 78.706-27.344 21.417-61.031 32.732-97.416 32.746h-.033c-44.485 0-91.213-16.353-138.876-48.598a31.154 31.154 0 01-2.905 3.212c4.1 6.096 8.554 13.181 13.254 20.673 29.601 47.152 74.346 118.409 141.921 118.409 43.997 0 92.682-30.515 144.698-90.645l1.542-1.79.101 2.371c1.97 46.975-12.627 88.114-42.222 118.964-28.899 30.148-69.945 47.429-112.619 47.429-43.323 0-83.534-17.608-113.248-49.579-34.168-36.779-53.232-91.27-55.172-157.636a28.307 28.307 0 01-5.065-.638c-2.738 6.838-6.11 14.527-9.652 22.64-21.378 48.808-53.669 122.553-21.976 177.741 22.967 40.004 76.866 65.185 160.214 74.854l2.356.28-1.89 1.415c-30 22.297-63.714 34.089-97.522 34.089zm-50.594-328.589l.364.731a27.427 27.427 0 001.812 3.175l.494.751-.737.524c-45.156 32.515-76.052 69.341-91.811 109.458-13.745 34.963-15.221 71.368-4.29 105.282 20.286 62.881 79.804 106.798 144.762 106.798 32.686 0 65.304-11.185 94.484-32.318-82.626-9.956-136.211-35.351-159.269-75.508-32.165-56.023.354-130.289 21.879-179.427 3.683-8.407 7.154-16.349 9.936-23.327l.304-.761.795.2c2.036.494 4.163.761 6.323.788l.901.01.03.902c1.779 66.299 20.696 120.693 54.704 157.285 29.347 31.584 69.077 48.992 111.866 48.992 42.167 0 82.732-17.081 111.271-46.842 28.733-29.975 43.149-69.771 41.774-115.238-51.79 59.375-100.422 89.49-144.545 89.49-68.61 0-113.682-71.781-143.503-119.288-4.868-7.739-9.462-15.064-13.669-21.287l-.454-.675.595-.541a28.46 28.46 0 003.786-4.21l.54-.725.748.504c47.609 32.365 94.23 48.782 138.562 48.782h.033c35.964-.01 69.25-11.195 96.254-32.345 24.859-19.468 43.623-47.089 52.811-77.774 15.505-51.803 6.431-123.999-65.051-172.236 18.51 79.271 13.643 137.49-14.482 173.101-32.078 40.615-88.269 45.316-127.744 45.316-17.782 0-35.037-1.095-50.254-2.063-9.162-.581-17.815-1.135-25.334-1.362l-.814-.02-.094-.808-.174-1.369-.153-.895.888-.181c62.166-12.406 111.205-38.545 141.807-75.578 26.449-32.001 38.809-71.965 34.789-112.533-3.625-36.729-20.092-70.954-46.36-96.388C606.711 16.3 570.46 1.873 530.034 1.873c-11.698 0-23.771 1.249-35.91 3.709 71.08 43.292 109.321 88.605 113.668 134.715 6.057 64.29-54.293 118.399-94.237 154.207-6.864 6.153-13.348 11.966-18.803 17.194l-.587.561-.641-.494c-1.409-1.095-2.844-2.026-4.307-2.768l-.801-.417.387-.818c37.273-78.289 38.949-151.262 4.715-205.489-27.682-43.854-77.675-71.097-130.433-71.097-59.916 0-111.708 34.352-138.969 92.037 43.523-17.518 81.541-26.389 113.048-26.389 50.09 0 84.545 21.407 105.328 65.448 17.478 37.026 21.534 82.048 24.79 118.226.824 9.191 1.603 17.885 2.541 25.391l.09.808-.778.207a27.73 27.73 0 00-4.523 1.703l-.818.391-.411-.808c-57.659-112.286-133.64-129.057-173.811-129.057-53.543 0-104.107 28.826-131.945 75.241-27.491 45.807-28.018 101.168-1.589 152.237 15.038-54.471 35.156-94.872 59.809-120.085 21.411-21.882 46.909-32.97 75.775-32.97 49.456 0 100.053 31.854 136.989 55.128 7.829 4.931 15.224 9.589 21.755 13.401l.711.411-.314.748a23.83 23.83 0 00-.925 2.564l-.25.861-.875-.227c-27.1-7.001-53.118-10.56-77.33-10.56-48.992 0-91.296 14.63-122.359 42.311-27.587 24.586-45.232 58.707-49.686 96.081-4.324 36.237 4.056 72.522 23.604 102.184 21.174 32.111 53.963 54.547 94.932 64.97-45.209-69.885-59.956-127.297-43.834-170.713 22.486-60.566 100.388-83.066 151.923-97.95 8.858-2.558 17.231-4.975 24.403-7.312l.776-.257z"/><path fill-rule="evenodd" clip-rule="evenodd" d="M413.521 754.26c-54.878-6.276-227.25-50.087-295.816-254.567l-10.681-32.298-38.278-18.597c66.907 211.905 143.73 292.328 344.692 305.662l.083-.2z"/><path d="M476.292 820.566v.455l.153.307a91.97 91.97 0 00-7.562 7.552c-2.314 2.631-4.23 5.289-5.739 8.013-12.987-1.822-19.284-8.867-18.887-21.16v-51.222h-6.193c-2.11 0-3.529-.401-4.23-1.209-.701-.801-1.065-1.709-1.065-2.711h1.823c.207 1.296 1.409 2.003 3.626 2.097h11.035v56.364c-.304 7.96 3.269 13.055 10.717 15.258a369.717 369.717 0 018.02-7.171c2.71-2.352 5.481-4.562 8.302-6.573zm.604-27.951l.077.301.07.301a289.682 289.682 0 00-6.187 5.815c-1.812 1.77-2.73 4.007-2.73 6.718.1 2.932.988 4.921 2.647 5.982 1.669 1.056 2.344 2.645 2.036 4.755-.598 3.024-1.729 5.516-3.389 7.485a27.917 27.917 0 01-5.672 5.062c2.21-3.325 3.392-6.03 3.559-8.087.141-2.057-.134-3.846-.835-5.361a37.775 37.775 0 00-2.417-4.381c-.911-1.409-1.309-3.191-1.208-5.288.498-4.949 5.182-9.382 14.049-13.302z"/><path d="M463.652 837.908l-.638-.094c-13.482-1.876-20.112-9.328-19.695-22.129v-50.247h-5.255c-2.431 0-4.043-.487-4.932-1.529-.864-.954-1.289-2.083-1.289-3.318v-.948h3.545l.117.802c.057.3.19 1.202 2.737 1.328h11.933v57.278c-.277 7.398 2.858 12.04 9.556 14.203l1.753-1.596-1.112.741 2.598-3.894c2.113-3.165 3.252-5.742 3.392-7.625.137-1.896-.11-3.553-.738-4.908a34.796 34.796 0 00-2.364-4.253c-1.005-1.59-1.459-3.553-1.362-5.856.544-5.315 5.462-10.043 14.624-14.103l4.594-2.043-3.108 3.104.037.174.033.447-.374.454a240.704 240.704 0 00-6.2 5.81c-1.639 1.589-2.434 3.579-2.434 6.043.077 2.551.835 4.313 2.21 5.195 1.966 1.248 2.814 3.211 2.46 5.682-.521 2.611-1.416 4.861-2.688 6.731a108.6 108.6 0 014.5-3.412l.21-.154 6.888-4.928-5.35 5.937.057.848-.244.588-.307.014a89.556 89.556 0 00-7.218 7.251c-2.267 2.558-4.156 5.195-5.615 7.833l-.321.574zm-18.457-74.266v52.09c-.377 11.665 5.329 18.256 17.455 20.146 1.489-2.577 3.352-5.142 5.532-7.625l.21-.228a341.99 341.99 0 00-7.786 6.984l-.387.361-.514-.147c-7.882-2.351-11.715-7.799-11.398-16.199v-55.382h-3.112zm28.076 31.798c-5.923 3.251-9.111 6.79-9.495 10.569-.09 1.85.267 3.446 1.072 4.675a40.01 40.01 0 012.474 4.5c.765 1.656 1.085 3.612.918 5.837-.097 1.201-.487 2.584-1.195 4.133a25.517 25.517 0 001.652-1.796c1.556-1.823 2.635-4.207 3.205-7.059.234-1.696-.264-2.911-1.626-3.779-1.933-1.222-2.968-3.492-3.088-6.73 0-3.005 1.021-5.489 3.012-7.425.95-.936 1.979-1.897 3.071-2.925zm-39.417-33.928l.681 1.175c.314.354 1.042.762 2.725.868-2.037-.301-2.975-1.148-3.365-2.043h-.041z"/><path d="M509.688 803.747l.615.761a89.108 89.108 0 00-7.854 5.89 164.394 164.394 0 00-7.411 6.657l-.828-.228-.688-.38a41.185 41.185 0 001.823-1.896c.608-.635 1.202-1.329 1.816-2.03.901-1.208 1.456-3.225 1.669-6.05v-15.557c0-1.816-.487-3.526-1.442-5.142-.961-1.609-2.35-2.765-4.153-3.479-1.122.922-2.204 1.81-3.252 2.725a29.821 29.821 0 01-3.245 2.424c.394 1.209.701 2.464.901 3.779v9.055c0 1.322.127 2.063.374 2.264h.988c.5-.294 1.362-.741 2.564-1.355l.755.901c-1.81 1.028-3.553 2.15-5.208 3.412s-3.302 2.478-4.915 3.699v-18.576c-.701.494-1.409.968-2.11 1.429-.711.454-1.355.828-1.97 1.129l-.304-.748c1.709-1.108 3.071-2.124 4.087-3.025-.301-1.822-.862-3.425-1.67-4.834-.798-1.409-2.113-2.21-3.926-2.424a73.11 73.11 0 01-6.497 5.749v19.639c0 1.723.153 3.345.457 4.914.308 1.562.905 2.838 1.823 3.853h-3.181c-2.017-1.302-3.226-3.933-3.629-7.859v-17.221a30.8 30.8 0 01-2.861 1.957l-.16-1.517c1.005-.487 2.02-1.208 3.021-2.109v-10.57c.3-2.123.798-3.96 1.502-5.516a16.503 16.503 0 012.875-4.307c-1.512-1.816-2.264-3.934-2.264-6.344.611-5.135 2.621-8.42 6.046-9.829 3.419-1.409 7.205-1.909 11.332-1.522v.781c-3.933-.428-7.512.134-10.727 1.649-3.226 1.503-5.088 4.527-5.596 9.067 0 2.117.611 3.934 1.819 5.436 1.913-1.816 4.324-3.632 7.248-5.436a70.499 70.499 0 0112.384-6.043c4.347-1.615 7.412-4.733 9.221-9.368.308-.908.308-1.876 0-2.878-.287-1.008-.594-2.057-.901-3.165.901 1.202 1.529 2.311 1.89 3.319.354 1.001.521 2.41.521 4.227 0 2.523-1.436 5.062-4.301 7.632-2.871 2.564-6.717 4.921-11.558 7.024-2.217 1.016-4.28 2.137-6.19 3.412-1.92 1.249-3.532 2.645-4.838 4.146 1.906.915 4.177 1.51 6.791 1.823 13.912-1.115 21.411-8.213 22.513-21.313 0-3.927-1.609-7.346-4.828-10.271a12.204 12.204 0 014.301 3.779c1.168 1.597 1.843 3.819 2.043 6.645-.601 7.245-3.031 12.707-7.251 16.399-4.227 3.679-9.922 5.502-17.078 5.502-2.925-.094-5.288-.741-7.101-1.963-2.006 2.624-3.119 5.448-3.322 8.467v5.589a191.65 191.65 0 003.629-3.405 179.315 179.315 0 003.626-3.539c4.323 1.603 7.305 3.979 8.917 7.091a56.66 56.66 0 003.849-3.552c1.262-1.242 2.544-2.537 3.847-3.847 3.131 1.409 5.549 3.118 7.258 5.136 1.717 2.022 2.571 4.54 2.571 7.552v12.847c0 2.725.808 3.466 2.41 2.264a99.093 99.093 0 001.896-1.281 22.82 22.82 0 001.877-1.445z"/><path d="M495.419 817.996h-.38l-1.303-.367-.627-.354-1.155-.581.921-.908c.581-.602 1.188-1.209 1.783-1.856.601-.654 1.188-1.336 1.789-2.023.755-1.002 1.256-2.878 1.436-5.502v-15.491c0-1.636-.441-3.198-1.309-4.661a7.09 7.09 0 00-3.185-2.878c-.955.802-1.89 1.569-2.805 2.357a29.042 29.042 0 01-2.744 2.103 24.59 24.59 0 01.714 3.226l.014 9.215c0 .814.06 1.249.1 1.469.467-.354 1.315-.801 2.484-1.396l.842-.42.407.841.581.647.895.895-1.102.602a44.303 44.303 0 00-5.102 3.332c-1.66 1.255-3.292 2.497-4.918 3.699l-1.496 1.122V792.39l-.664.454c-.745.454-1.426.861-2.054 1.168l-1.352.682v-1.516l-.217-.334-.361-.755.694-.461c1.453-.921 2.654-1.796 3.573-2.577-.3-1.496-.778-2.838-1.453-4.02-.591-1.028-1.509-1.656-2.788-1.884a76.765 76.765 0 01-5.893 5.202v19.185c0 1.636.147 3.238.437 4.727.264 1.402.809 2.531 1.593 3.399l1.409 1.562h-5.559l-.234-.134c-2.253-1.469-3.616-4.34-4.046-8.561l-.013-15.471-1.446.928-1.416.842v-1.649l-.127-1.289-.18-.728.667-.327c.818-.414 1.666-.995 2.501-1.71V778.98c.334-2.324.861-4.267 1.599-5.903a17.171 17.171 0 012.514-3.959c-1.319-1.83-1.993-3.967-1.993-6.304.661-5.603 2.885-9.154 6.62-10.697 3.553-1.469 7.506-1.983 11.796-1.569l.848.074v2.65l-1.045-.113c-3.736-.374-7.178.153-10.229 1.582-2.938 1.369-4.591 4.087-5.064 8.313 0 1.456.347 2.765 1.042 3.934 1.816-1.609 4.033-3.226 6.597-4.828a71.695 71.695 0 0112.56-6.123c4.113-1.536 6.944-4.421 8.674-8.841.22-.668.22-1.436-.027-2.264a98.585 98.585 0 01-.834-2.925l-5.335-4.821 4.681 2.471-.714-2.638 2.824 3.753a13.4 13.4 0 014.447 3.96c1.248 1.749 1.983 4.146 2.21 7.131-.628 7.612-3.179 13.335-7.585 17.168-4.381 3.806-10.33 5.735-17.686 5.735-2.718-.093-5.008-.634-6.851-1.655-1.569 2.276-2.474 4.721-2.641 7.285l.007 3.392c.674-.642 1.362-1.282 2.037-1.943a137.269 137.269 0 003.619-3.539l.424-.421.564.201c4.06 1.535 7.024 3.719 8.834 6.53a65.851 65.851 0 002.945-2.744l4.307-4.327.594.273c3.232 1.463 5.782 3.266 7.572 5.382 1.863 2.184 2.798 4.935 2.798 8.16v12.847c0 1.383.233 1.816.287 1.896l.635-.387a47.259 47.259 0 001.916-1.309 24.496 24.496 0 001.816-1.369l.914-.768.528 1.055.427.514.814.814-.947.642a89.503 89.503 0 00-7.786 5.829 144.392 144.392 0 00-7.352 6.61l-.272.262zm-26.229-2.651h1.105c-.444-.795-.751-1.717-.945-2.725-.32-1.609-.474-3.325-.474-5.088v-27.197c.21-3.252 1.398-6.271 3.516-9.041l.537-.688.097.053h.006c1.349-1.576 3.045-3.038 5.025-4.34a49.014 49.014 0 016.324-3.466c4.734-2.063 8.533-4.367 11.318-6.857 2.651-2.384 4.006-4.721 4.006-6.944l-.014-.441c-1.949 4.494-5.128 7.572-9.461 9.168a69.972 69.972 0 00-12.223 5.983c-2.854 1.763-5.251 3.553-7.101 5.309l-.05.06.05.054-.554.614a15.15 15.15 0 00-2.711 4.047c-.668 1.462-1.142 3.238-1.439 5.262l.006 29.333c.362 3.371 1.356 5.735 2.982 6.904zm23.872-34.108l.514.2c1.997.768 3.56 2.077 4.614 3.847 1.042 1.769 1.562 3.665 1.562 5.629v15.558c-.214 3.105-.828 5.249-1.843 6.617l-.12.121a161.123 161.123 0 014.06-3.526 58.984 58.984 0 012.217-1.796c-.995-.341-1.503-1.562-1.503-3.68V791.36c0-2.765-.781-5.108-2.336-6.944-1.517-1.77-3.653-3.332-6.344-4.621l-3.393 3.393-1.355 1.315.234-.2c1.062-.902 2.15-1.823 3.258-2.725l.435-.341zm-9.932 7.558v18.517c1.132-.842 2.267-1.696 3.422-2.564l1.576-1.148-.708-.334c-.514-.4-.728-1.208-.728-2.991v-9.055a21.862 21.862 0 00-.852-3.479l-.077-.261-.083.073-.541-1.048c-1.419-2.751-4.06-4.915-7.846-6.438l-1.132 1.109.247.026c2.12.261 3.679 1.222 4.644 2.897.828 1.456 1.402 3.112 1.736 4.935l.342-.239zm-7.796-17.868c1.549.587 3.329.994 5.315 1.222 13.321-1.082 20.399-7.766 21.467-20.446 0-1.282-.187-2.497-.561-3.679l.021 1.028c0 2.791-1.569 5.589-4.621 8.34-2.938 2.61-6.911 5.035-11.815 7.185a44.37 44.37 0 00-6.046 3.325c-1.433.941-2.685 1.943-3.76 3.025z"/><path d="M515.432 771.294a331.44 331.44 0 015.575-2.424c1.93-.795 3.84-1.649 5.749-2.564v10.424c.107 6.049-5.535 10.336-16.913 12.847 2.41.301 4.794.562 7.171.755 2.364.2 4.761.4 7.172.601 2.925 0 5.262-.4 7.031-1.215a62.057 62.057 0 005.062-2.564c-1.516 2.932-4.828 4.734-9.963 5.436v35.215c1.102-.307 2.203-.634 3.312-.981a51.51 51.51 0 013.479-.981c-8.968 4.233-14.203 8.754-15.719 13.602-5.942-.601-10.623-2.196-14.049-4.761-3.419-2.577-5.282-6.43-5.589-11.565 0-1.909.02-3.819.073-5.735.047-1.91.327-3.886.821-5.89-.995.515-2.023.988-3.092 1.429a53.226 53.226 0 00-3.092 1.442c5.436-3.639 11.125-7.759 17.074-12.406-2.116 1.923-3.826 3.96-5.142 6.13s-1.863 4.507-1.662 7.031v7.999c-.301 3.833.507 6.831 2.424 8.988 1.909 2.163 4.527 3.859 7.853 5.068.407-1.522 1.836-3.019 4.3-4.527 2.471-1.516 3.766-3.072 3.853-4.694v-33.087c.614-1.422 1.016-2.463 1.216-3.164-3.019.086-5.589 0-7.713-.314a71.596 71.596 0 01-6.343-1.209c-.901.301-1.776.501-2.638.615-.855.093-1.689.2-2.491.293l.081-.527.066-.681c11.985-1.716 18.235-5.389 18.743-11.024v-8.613c-1.216.187-2.37.406-3.485.601a38.292 38.292 0 01-3.164.45z"/><path d="M518.056 840.452l-.762-.094c-6.083-.614-10.971-2.264-14.516-4.935-3.64-2.725-5.643-6.857-5.963-12.253-.007-1.963.02-3.893.067-5.815.04-1.369.187-2.778.447-4.2l-1.402.621c-1.042.454-2.05.928-3.045 1.408l-.941-1.608c5.402-3.606 11.117-7.753 17.021-12.347l1.195 1.436c-2.03 1.843-3.706 3.839-4.954 5.909-1.202 1.99-1.717 4.16-1.536 6.471l.007 8.072c-.287 3.633.447 6.411 2.184 8.381 1.622 1.843 3.846 3.345 6.61 4.467.721-1.422 2.149-2.777 4.36-4.12 2.177-1.342 3.325-2.671 3.405-3.939v-33.24l.066-.167a38.75 38.75 0 00.755-1.836c-2.497.027-4.674-.087-6.511-.341a77.761 77.761 0 01-6.183-1.161c-.875.267-1.743.454-2.578.554l-3.532.428v-1.056l.12-.827.027-.381v-.814l.814-.101c11.438-1.643 17.468-5.074 17.929-10.196l-.007-7.412c-.814.134-1.609.268-2.37.401a36.952 36.952 0 01-3.252.467l-5.77.567 5.309-2.363c1.81-.795 3.679-1.609 5.596-2.411a138.154 138.154 0 005.709-2.55l1.349-.628v11.893c.074 5.549-4.22 9.735-12.807 12.473.741.074 1.476.134 2.189.2 2.377.194 4.762.401 7.172.602 2.704 0 4.935-.381 6.563-1.129a61.355 61.355 0 004.995-2.53l2.73-1.529-1.436 2.777c-1.568 3.025-4.888 4.981-9.875 5.81v33.16a39.664 39.664 0 002.104-.642 54.371 54.371 0 013.545-.988l.621 1.763c-8.681 4.08-13.795 8.468-15.218 13.028l-.231.725zm-4.294-2.492c.969.188 1.95.341 2.991.461 1.275-3.325 4.127-6.424 8.635-9.388h-.021V791.86l-1.182.013-.868-.066-.04.146c-.221.722-.595 1.736-1.169 3.105v32.893c-.127 2.023-1.535 3.786-4.3 5.488-2.243 1.369-3.553 2.718-3.886 3.98l-.16.541zm-13.849-27.624l-.348 1.383c-.486 1.942-.761 3.853-.808 5.676a233.54 233.54 0 00-.073 5.722c.28 4.835 1.99 8.394 5.215 10.805 1.83 1.382 4.061 2.471 6.671 3.252-2.491-1.169-4.541-2.651-6.13-4.447-2.07-2.344-2.965-5.609-2.638-9.683v-7.926c-.214-2.598.367-5.121 1.729-7.425a231.88 231.88 0 01-3.618 2.643zm23.097-41.206v9.723c-.233 2.611-1.542 4.848-3.913 6.664 4.527-2.271 6.785-5.208 6.725-8.774v-8.954c-1.068.487-2.123.955-3.139 1.396l.327-.055z"/><path fill-rule="evenodd" clip-rule="evenodd" d="M566.052 834.95c78.914-100.167 4.121-191.687-108.152-123.511l-1.446 1.989 1.959-.227c108.988-39.697 158.233 27.537 104.748 118.943-.721 1.235-1.883 3.345-.814 4.053 1.796 1.163 2.763-.039 3.705-1.247z"/><path fill-rule="evenodd" clip-rule="evenodd" fill="#ED1C24" d="M413.278 874.125c37.951 13.829 78.008 2.097 120.342-14.844-32.792 26.095-67.842 35.417-126.195 23.598"/><path fill="#030202" d="M452.374 888.869c-13.699 0-28.596-1.716-45.136-5.067l.377-1.83c51.589 10.437 86.93 4.868 120.089-19.357-43.496 16.887-79.958 25.066-114.747 12.394l.648-1.77c35.871 13.087 73.795 3.525 119.662-14.838l5.93-2.356-4.988 3.973c-24.614 19.583-50.001 28.851-81.835 28.851z"/><path fill-rule="evenodd" clip-rule="evenodd" d="M58.964 571.488C177.64 766.774 370.229 760.417 412.166 753.359 207.285 787.807 113.599 727.317 0 532.639l41.43 9.702 17.534 29.147z"/><path fill-rule="evenodd" clip-rule="evenodd" fill="#ED1C24" d="M428.683 730.729c-8.026 3.052-68.78 67.041-39.443 136.792.751 1.79 5.609 2.338 8.647.328 3.028-1.983 4.764-4.167 6.58-6.371l-8.931.041c-5.412-7.065-6.297-13.408-6.601-22.557-.404-12.039.661-26.095 5.489-42.955 6.484-22.63 20.877-48.684 34.259-65.278z"/><path fill="#030202" d="M393.286 870.059c-1.92 0-4.22-.574-4.908-2.184-14.272-33.941-6.717-65.726 2.14-86.425 12.483-29.16 32.996-49.76 37.84-51.603l3.229-1.235-2.18 2.697c-14.343 17.782-28.048 43.891-34.078 64.957-4.156 14.49-5.936 28.446-5.462 42.669.311 9.488 1.318 15.211 6.143 21.635l10.437-.027-1.459 1.77c-1.736 2.13-3.56 4.327-6.604 6.317-1.389.928-3.201 1.429-5.098 1.429zm30.435-134.422c-8.053 7.565-22.179 24.819-31.477 46.555-8.717 20.346-16.166 51.622-2.127 84.962.207.494 1.479 1.035 3.169 1.035 1.512 0 3.001-.414 4.069-1.115 2.224-1.462 3.727-3.018 5.108-4.646l-7.385.026-.281-.367c-5.849-7.612-6.524-14.671-6.808-23.097-.474-14.41 1.333-28.56 5.522-43.236 5.514-19.198 17.306-42.536 30.21-60.117z"/><path fill-rule="evenodd" clip-rule="evenodd" d="M892.976 465.532l-10.684 32.285c-68.47 204.193-240.465 248.17-295.6 254.54l.053.247c200.842-13.374 277.618-93.83 344.498-305.686l-38.267 18.614z"/><path fill-rule="evenodd" clip-rule="evenodd" d="M941.025 569.605C822.349 764.897 629.768 758.547 587.834 751.49 792.702 785.938 886.378 725.427 1000 530.769l-41.433 9.702-17.542 29.134z"/></svg>