<svg xmlns="http://www.w3.org/2000/svg" width="380.609" height="86.694"><path fill="#231F20" d="M337.816 86.574h8.756c3.701 0 4.694-1.445 4.694-5.447 0-4.303-.993-5.446-4.649-5.446h-8.801v10.893zm11.976-4.86c0 3.265-1.234 3.656-3.023 3.656h-7.479v-8.486h7.718c1.807 0 2.784.572 2.784 3.717v1.113zm-29.503 4.86h1.474v-9.569l9.976 9.569h2.197V75.681h-1.476v9.569l-9.975-9.569h-2.196v10.893zm-6.484-3.506h-7.311l3.655-6.184 3.656 6.184zm-11.043 3.506h1.67l1.354-2.302h8.727l1.354 2.302h1.67l-6.47-10.893h-1.835l-6.47 10.893zm-15.179 0h9.448c1.806 0 3.16-.798 3.16-2.317v-1.294c0-1.655-1.023-2.092-2.183-2.152v-.06c1.324-.135 1.761-.933 1.761-1.715v-.933c0-1.249-.632-2.422-2.889-2.422h-9.298v10.893zm10.712-7.553c0 1.083-.827 1.339-1.625 1.339h-7.613v-3.476h7.688c.452 0 1.55.151 1.55 1.144v.993zm.421 4.89c0 .962-.496 1.459-1.865 1.459h-7.794v-3.807h7.568c1.339 0 2.091.211 2.091 1.565v.783zm-25.771-2.844v-4.183h6.71c2.167 0 2.692.392 2.692 1.61v.993c0 1.144-.691 1.58-2.331 1.58h-7.071zm-1.474 5.507h1.475v-4.303h7.191c1.339 0 2.166.21 2.166 1.91v2.393h1.385V83.79c0-.993-.361-1.775-1.865-2.046v-.03c1.128-.105 2.001-.527 2.001-2.061v-.888c0-2.046-.497-3.084-3.642-3.084h-8.711v10.893zm-14.081 0h10.759V85.37h-9.283v-3.807h8.86V80.36h-8.86v-3.476h9.222v-1.203H257.39v10.893zm-10.771 0h1.806l6.033-10.893h-1.655l-5.28 9.569-5.281-9.569h-1.655l6.032 10.893zm-23.931 0h1.475V81.97l6.243-6.289h-1.986l-4.995 5.055-4.995-5.055h-1.985l6.244 6.289v4.604zm-21.469 0h9.448c1.806 0 3.16-.798 3.16-2.317v-1.294c0-1.655-1.023-2.092-2.182-2.152v-.06c1.323-.135 1.76-.933 1.76-1.715v-.933c0-1.249-.632-2.422-2.889-2.422h-9.298v10.893zm10.712-7.553c0 1.083-.827 1.339-1.625 1.339h-7.612v-3.476h7.688c.452 0 1.55.151 1.55 1.144v.993zm.422 4.89c0 .962-.496 1.459-1.865 1.459h-7.794v-3.807h7.567c1.34 0 2.092.211 2.092 1.565v.783zm-14.91-2.739h-7.057v1.204h5.582v1.098c0 1.505-.902 2.016-2.377 2.016h-5.763c-1.414 0-2.557-.421-2.557-2.317v-4.092c0-1.896 1.143-2.317 2.557-2.317h3.822c3.641 0 4.258.151 4.258 2.182h1.384v-.392c0-2.512-2.092-2.994-4.047-2.994h-5.567c-2.948 0-3.882 1.324-3.882 4.078v2.979c0 2.753.934 4.077 3.882 4.077h6.078c2.724 0 3.687-1.053 3.687-4.017v-1.505zm-30.21 2.663c0 2.212 1.113 2.859 3.882 2.859h5.024c2.769 0 3.883-.647 3.883-2.859v-8.154h-1.476v8.139c0 1.053-.36 1.67-2.361 1.67h-5.115c-2.001 0-2.362-.617-2.362-1.67v-8.139h-1.475v8.154zm-14.637-2.768v-4.183h6.71c2.166 0 2.693.392 2.693 1.61v.993c0 1.144-.692 1.58-2.332 1.58h-7.071zm-1.475 5.507h1.475v-4.303h7.191c1.339 0 2.167.21 2.167 1.91v2.393h1.384V83.79c0-.993-.36-1.775-1.866-2.046v-.03c1.13-.105 2.001-.527 2.001-2.061v-.888c0-2.046-.495-3.084-3.641-3.084h-8.711v10.893zm-22.969-5.507v-4.183h6.71c2.167 0 2.692.392 2.692 1.61v.993c0 1.144-.691 1.58-2.332 1.58h-7.07zm-1.474 5.507h1.475v-4.303h7.191c1.339 0 2.166.21 2.166 1.91v2.393h1.385V83.79c0-.993-.361-1.775-1.865-2.046v-.03c1.128-.105 2.001-.527 2.001-2.061v-.888c0-2.046-.497-3.084-3.642-3.084h-8.711v10.893zm-14.081 0h10.758V85.37h-9.283v-3.807h8.861V80.36h-8.861v-3.476h9.223v-1.203h-10.697v10.893zm-16.85 0h1.475v-5.011h9.839v5.011h1.475V75.681h-1.475v4.679h-9.839v-4.679h-1.475v10.893zm-16.684-3.957c0 2.753.933 4.077 3.882 4.077h5.567c3.054 0 3.686-1.068 3.686-3.039v-.737h-1.384v.677c0 1.474-.572 1.895-2.558 1.895h-5.161c-1.414 0-2.557-.421-2.557-2.317v-4.092c0-1.896 1.143-2.317 2.557-2.317h5.116c1.354 0 2.497.09 2.497 1.941v.496h1.294v-.932c0-1.46-.737-2.709-3.415-2.709h-5.642c-2.949 0-3.882 1.324-3.882 4.078v2.979zm-16.007 1.324c0 2.377 1.896 2.753 4.048 2.753h4.092c2.181 0 4.378-.196 4.378-2.874v-.707c0-1.85-1.204-2.678-4.077-2.678h-4.363c-2.302 0-2.708-.436-2.708-1.73 0-1.79 1.008-1.941 3.851-1.941h1.565c3.866 0 4.047.316 4.077 2.046h1.384v-.376c0-1.941-.918-2.874-4.573-2.874h-3.175c-3.039 0-4.514.557-4.514 3.04 0 2.888 1.475 3.159 5.973 3.159h2.799c1.835 0 2.377.346 2.377 1.715 0 1.565-.632 2.016-2.768 2.016h-4.574c-1.836 0-2.407-.511-2.407-1.579v-.768h-1.385v.798zm-9.582 2.633h1.475v-9.69h5.506v-1.203H47.968v1.203h5.506v9.69zm-21.167-2.739c0 2.212 1.113 2.859 3.881 2.859h5.025c2.769 0 3.882-.647 3.882-2.859v-8.154h-1.474v8.139c0 1.053-.361 1.67-2.362 1.67h-5.116c-2.001 0-2.362-.617-2.362-1.67v-8.139h-1.474v8.154zm-14.171 2.739h10.757V85.37H19.61v-3.807h8.862V80.36H19.61v-3.476h9.223v-1.203H18.136v10.893zm-17.226 0h8.756c3.701 0 4.694-1.445 4.694-5.447 0-4.303-.993-5.446-4.649-5.446H.91v10.893zm11.976-4.86c0 3.265-1.234 3.656-3.024 3.656H2.384v-8.486h7.719c1.805 0 2.783.572 2.783 3.717v1.113z"/><path fill-rule="evenodd" clip-rule="evenodd" fill="#231F20" d="M7.526 28.104V6.757h34.247c11.057 0 13.745 1.997 13.745 8.216v5.069c0 5.835-3.532 8.062-11.902 8.062H7.526M0 56.208h7.526V34.247H44.23c6.835 0 11.057 1.075 11.057 9.753v12.208h7.065V42.003c0-5.069-1.842-9.061-9.522-10.443v-.154c5.759-.538 10.213-2.688 10.213-10.521v-4.53C63.043 5.911 60.51.613 44.461.613H0v55.595z"/><path fill="#231F20" d="M76.219 42.233c0 11.288 5.682 14.589 19.812 14.589h25.646c14.128 0 19.812-3.301 19.812-14.589V.614h-7.525v41.542c0 5.375-1.843 8.523-12.056 8.523H95.8c-10.213 0-12.056-3.148-12.056-8.523V.614h-7.525v41.619m148.194-13.591H188.4v6.142h28.487v5.607c0 7.678-4.606 10.288-12.133 10.288h-29.409c-7.218 0-13.054-2.15-13.054-11.824V17.968c0-9.675 5.836-11.825 13.054-11.825h19.504c18.583 0 21.731.768 21.731 11.134h7.064V15.28C223.646 2.457 212.972 0 202.99 0h-28.411c-15.051 0-19.813 6.757-19.813 20.809v15.204c0 14.052 4.763 20.809 19.813 20.809H205.6c13.899 0 18.813-5.374 18.813-20.502v-7.678"/><path fill-rule="evenodd" clip-rule="evenodd" fill="#231F20" d="M237.656 56.208h48.224c9.214 0 16.126-4.069 16.126-11.825v-6.604c0-8.447-5.223-10.673-11.135-10.98v-.307c6.757-.691 8.985-4.762 8.985-8.755v-4.76c0-6.373-3.227-12.363-14.744-12.363h-47.456v55.594m54.674-38.547c0 5.529-4.223 6.834-8.293 6.834h-38.855V6.757h39.239c2.305 0 7.909.768 7.909 5.837v5.067zm2.15 24.956c0 4.914-2.535 7.448-9.521 7.448h-39.777V30.639h38.625c6.833 0 10.674 1.074 10.674 7.985v3.993z"/><path fill="#231F20" d="M341.216 56.208h7.526V32.711L380.609.614h-10.137l-25.493 25.801L319.485.614h-10.134l31.865 32.097zM.001 63.988h117.443v5.316H.001z"/><path fill="#FFB400" d="M234.666 63.993h118.848v5.316H234.666z"/><path fill="#E20A16" d="M117.339 63.988h117.443v5.316H117.339z"/></svg>