<?xml version="1.0" encoding="utf-8"?>
<!-- Generator: Adobe Illustrator 14.0.0, SVG Export Plug-In . SVG Version: 6.00 Build 43363)  -->
<!DOCTYPE svg PUBLIC "-//W3C//DTD SVG 1.1//EN" "http://www.w3.org/Graphics/SVG/1.1/DTD/svg11.dtd">
<svg version="1.1" id="Layer_1" xmlns="http://www.w3.org/2000/svg" xmlns:xlink="http://www.w3.org/1999/xlink" x="0px" y="0px"
	 width="380.609px" height="86.694px" viewBox="0 0 380.609 86.694" enable-background="new 0 0 380.609 86.694"
	 xml:space="preserve">
<path fill="#231F20" d="M337.816,86.574h8.756c3.701,0,4.694-1.445,4.694-5.447c0-4.303-0.993-5.446-4.649-5.446h-8.801V86.574z
	 M349.792,81.714c0,3.265-1.234,3.656-3.023,3.656h-7.479v-8.486h7.718c1.807,0,2.784,0.572,2.784,3.717V81.714z M320.289,86.574
	h1.474v-9.569l9.976,9.569h2.197V75.681h-1.476v9.569l-9.975-9.569h-2.196V86.574z M313.805,83.068h-7.311l3.655-6.184
	L313.805,83.068z M302.762,86.574h1.67l1.354-2.302h8.727l1.354,2.302h1.67l-6.47-10.893h-1.835L302.762,86.574z M287.583,86.574
	h9.448c1.806,0,3.16-0.798,3.16-2.317v-1.294c0-1.655-1.023-2.092-2.183-2.152v-0.06c1.324-0.135,1.761-0.933,1.761-1.715v-0.933
	c0-1.249-0.632-2.422-2.889-2.422h-9.298V86.574z M298.295,79.021c0,1.083-0.827,1.339-1.625,1.339h-7.613v-3.476h7.688
	c0.452,0,1.55,0.151,1.55,1.144V79.021z M298.716,83.911c0,0.962-0.496,1.459-1.865,1.459h-7.794v-3.807h7.568
	c1.339,0,2.091,0.211,2.091,1.565V83.911z M272.945,81.067v-4.183h6.71c2.167,0,2.692,0.392,2.692,1.61v0.993
	c0,1.144-0.691,1.58-2.331,1.58H272.945z M271.471,86.574h1.475v-4.303h7.191c1.339,0,2.166,0.21,2.166,1.91v2.393h1.385V83.79
	c0-0.993-0.361-1.775-1.865-2.046v-0.03c1.128-0.105,2.001-0.527,2.001-2.061v-0.888c0-2.046-0.497-3.084-3.642-3.084h-8.711V86.574
	z M257.39,86.574h10.759V85.37h-9.283v-3.807h8.86V80.36h-8.86v-3.476h9.222v-1.203H257.39V86.574z M246.619,86.574h1.806
	l6.033-10.893h-1.655l-5.28,9.569l-5.281-9.569h-1.655L246.619,86.574z M222.688,86.574h1.475V81.97l6.243-6.289h-1.986
	l-4.995,5.055l-4.995-5.055h-1.985l6.244,6.289V86.574z M201.219,86.574h9.448c1.806,0,3.16-0.798,3.16-2.317v-1.294
	c0-1.655-1.023-2.092-2.182-2.152v-0.06c1.323-0.135,1.76-0.933,1.76-1.715v-0.933c0-1.249-0.632-2.422-2.889-2.422h-9.298V86.574z
	 M211.931,79.021c0,1.083-0.827,1.339-1.625,1.339h-7.612v-3.476h7.688c0.452,0,1.55,0.151,1.55,1.144V79.021z M212.353,83.911
	c0,0.962-0.496,1.459-1.865,1.459h-7.794v-3.807h7.567c1.34,0,2.092,0.211,2.092,1.565V83.911z M197.443,81.172h-7.057v1.204h5.582
	v1.098c0,1.505-0.902,2.016-2.377,2.016h-5.763c-1.414,0-2.557-0.421-2.557-2.317v-4.092c0-1.896,1.143-2.317,2.557-2.317h3.822
	c3.641,0,4.258,0.151,4.258,2.182h1.384v-0.392c0-2.512-2.092-2.994-4.047-2.994h-5.567c-2.948,0-3.882,1.324-3.882,4.078v2.979
	c0,2.753,0.934,4.077,3.882,4.077h6.078c2.724,0,3.687-1.053,3.687-4.017V81.172z M167.233,83.835c0,2.212,1.113,2.859,3.882,2.859
	h5.024c2.769,0,3.883-0.647,3.883-2.859v-8.154h-1.476v8.139c0,1.053-0.36,1.67-2.361,1.67h-5.115c-2.001,0-2.362-0.617-2.362-1.67
	v-8.139h-1.475V83.835z M152.596,81.067v-4.183h6.71c2.166,0,2.693,0.392,2.693,1.61v0.993c0,1.144-0.692,1.58-2.332,1.58H152.596z
	 M151.121,86.574h1.475v-4.303h7.191c1.339,0,2.167,0.21,2.167,1.91v2.393h1.384V83.79c0-0.993-0.36-1.775-1.866-2.046v-0.03
	c1.13-0.105,2.001-0.527,2.001-2.061v-0.888c0-2.046-0.495-3.084-3.641-3.084h-8.711V86.574z M128.152,81.067v-4.183h6.71
	c2.167,0,2.692,0.392,2.692,1.61v0.993c0,1.144-0.691,1.58-2.332,1.58H128.152z M126.678,86.574h1.475v-4.303h7.191
	c1.339,0,2.166,0.21,2.166,1.91v2.393h1.385V83.79c0-0.993-0.361-1.775-1.865-2.046v-0.03c1.128-0.105,2.001-0.527,2.001-2.061
	v-0.888c0-2.046-0.497-3.084-3.642-3.084h-8.711V86.574z M112.597,86.574h10.758V85.37h-9.283v-3.807h8.861V80.36h-8.861v-3.476
	h9.223v-1.203h-10.697V86.574z M95.747,86.574h1.475v-5.011h9.839v5.011h1.475V75.681h-1.475v4.679h-9.839v-4.679h-1.475V86.574z
	 M79.063,82.617c0,2.753,0.933,4.077,3.882,4.077h5.567c3.054,0,3.686-1.068,3.686-3.039v-0.737h-1.384v0.677
	c0,1.474-0.572,1.895-2.558,1.895h-5.161c-1.414,0-2.557-0.421-2.557-2.317v-4.092c0-1.896,1.143-2.317,2.557-2.317h5.116
	c1.354,0,2.497,0.09,2.497,1.941v0.496h1.294v-0.932c0-1.46-0.737-2.709-3.415-2.709h-5.642c-2.949,0-3.882,1.324-3.882,4.078
	V82.617z M63.056,83.941c0,2.377,1.896,2.753,4.048,2.753h4.092c2.181,0,4.378-0.196,4.378-2.874v-0.707
	c0-1.85-1.204-2.678-4.077-2.678h-4.363c-2.302,0-2.708-0.436-2.708-1.73c0-1.79,1.008-1.941,3.851-1.941h1.565
	c3.866,0,4.047,0.316,4.077,2.046h1.384v-0.376c0-1.941-0.918-2.874-4.573-2.874h-3.175c-3.039,0-4.514,0.557-4.514,3.04
	c0,2.888,1.475,3.159,5.973,3.159h2.799c1.835,0,2.377,0.346,2.377,1.715c0,1.565-0.632,2.016-2.768,2.016h-4.574
	c-1.836,0-2.407-0.511-2.407-1.579v-0.768h-1.385V83.941z M53.474,86.574h1.475v-9.69h5.506v-1.203H47.968v1.203h5.506V86.574z
	 M32.307,83.835c0,2.212,1.113,2.859,3.881,2.859h5.025c2.769,0,3.882-0.647,3.882-2.859v-8.154h-1.474v8.139
	c0,1.053-0.361,1.67-2.362,1.67h-5.116c-2.001,0-2.362-0.617-2.362-1.67v-8.139h-1.474V83.835z M18.136,86.574h10.757V85.37H19.61
	v-3.807h8.862V80.36H19.61v-3.476h9.223v-1.203H18.136V86.574z M0.91,86.574h8.756c3.701,0,4.694-1.445,4.694-5.447
	c0-4.303-0.993-5.446-4.649-5.446H0.91V86.574z M12.886,81.714c0,3.265-1.234,3.656-3.024,3.656H2.384v-8.486h7.719
	c1.805,0,2.783,0.572,2.783,3.717V81.714z"/>
<path fill-rule="evenodd" clip-rule="evenodd" fill="#231F20" d="M7.526,28.104V6.757h34.247c11.057,0,13.745,1.997,13.745,8.216
	v5.069c0,5.835-3.532,8.062-11.902,8.062H7.526 M0,56.208h7.526V34.247H44.23c6.835,0,11.057,1.075,11.057,9.753v12.208h7.065
	V42.003c0-5.069-1.842-9.061-9.522-10.443v-0.154c5.759-0.538,10.213-2.688,10.213-10.521v-4.53
	c0-10.444-2.533-15.742-18.582-15.742H0V56.208z"/>
<path fill="#231F20" d="M76.219,42.233c0,11.288,5.682,14.589,19.812,14.589h25.646c14.128,0,19.812-3.301,19.812-14.589V0.614
	h-7.525v41.542c0,5.375-1.843,8.523-12.056,8.523H95.8c-10.213,0-12.056-3.148-12.056-8.523V0.614h-7.525V42.233"/>
<path fill="#231F20" d="M224.413,28.642H188.4v6.142h28.487v5.607c0,7.678-4.606,10.288-12.133,10.288h-29.409
	c-7.218,0-13.054-2.15-13.054-11.824V17.968c0-9.675,5.836-11.825,13.054-11.825h19.504c18.583,0,21.731,0.768,21.731,11.134h7.064
	V15.28C223.646,2.457,212.972,0,202.99,0h-28.411c-15.051,0-19.813,6.757-19.813,20.809v15.204c0,14.052,4.763,20.809,19.813,20.809
	H205.6c13.899,0,18.813-5.374,18.813-20.502V28.642"/>
<path fill-rule="evenodd" clip-rule="evenodd" fill="#231F20" d="M237.656,56.208h48.224c9.214,0,16.126-4.069,16.126-11.825v-6.604
	c0-8.447-5.223-10.673-11.135-10.98v-0.307c6.757-0.691,8.985-4.762,8.985-8.755v-4.76c0-6.373-3.227-12.363-14.744-12.363h-47.456
	V56.208 M292.33,17.661c0,5.529-4.223,6.834-8.293,6.834h-38.855V6.757h39.239c2.305,0,7.909,0.768,7.909,5.837V17.661z
	 M294.48,42.617c0,4.914-2.535,7.448-9.521,7.448h-39.777V30.639h38.625c6.833,0,10.674,1.074,10.674,7.985V42.617z"/>
<polygon fill="#231F20" points="341.216,56.208 348.742,56.208 348.742,32.711 380.609,0.614 370.472,0.614 344.979,26.415 
	319.485,0.614 309.351,0.614 341.216,32.711 "/>
<rect x="0.001" y="63.988" fill="#231F20" width="117.443" height="5.316"/>
<rect x="234.666" y="63.993" fill="#FFB400" width="118.848" height="5.316"/>
<rect x="117.339" y="63.988" fill="#E20A16" width="117.443" height="5.316"/>
</svg>
