<svg xmlns="http://www.w3.org/2000/svg" width="1001" height="1000" viewBox="0 -217.344 1001 1000" overflow="visible"><path fill="#9FD6F6" d="M595.726 130.667c.134 6.271-2.771 11.599-7.532 12.866-5.961 1.583-12.549-3.77-14.73-11.958-2.175-8.188.895-16.109 6.849-17.693a8.245 8.245 0 011.306-.227 9.612 9.612 0 00-3.398.253c-6.842 1.818-10.361 10.921-7.863 20.326 2.505 9.405 10.076 15.556 16.925 13.734 6.097-1.62 9.54-9.041 8.443-17.301zm14.673 79.222c2.111 5.837 1.064 11.751-3.006 14.443-5.086 3.365-12.961.423-17.59-6.571-4.623-6.996-4.248-15.393.843-18.758a8.002 8.002 0 011.154-.626 9.498 9.498 0 00-3.113 1.311c-5.84 3.867-6.271 13.514-.964 21.551 5.313 8.033 14.362 11.414 20.209 7.549 5.213-3.45 6.113-11.496 2.467-18.899zm73.701 54.507c2.562 5.575 2.036 11.474-1.73 14.438-4.712 3.709-12.695 1.436-17.825-5.074-5.136-6.517-5.472-14.81-.767-18.522a7.952 7.952 0 011.071-.702c-1.053.338-2.048.833-2.936 1.533-5.415 4.263-5.016 13.788.888 21.278 5.897 7.479 15.065 10.089 20.475 5.824 4.819-3.798 5.015-11.781.824-18.775zm63.029-29.208c1.668 5.323.691 10.594-2.771 12.856-4.318 2.83-10.862-.111-14.616-6.564-3.748-6.457-3.298-13.983 1.027-16.813.316-.206.646-.372.982-.518a7.5 7.5 0 00-2.632 1.059c-4.958 3.251-5.49 11.897-1.179 19.314 4.318 7.416 11.832 10.794 16.791 7.542 4.427-2.899 5.315-10.093 2.398-16.876zm6.214-69.601c1.915 5.114 1.396 10.469-1.616 13.113-3.761 3.304-9.981 1.114-13.887-4.892-3.913-6.005-4.04-13.554-.273-16.857.273-.239.559-.44.862-.625a6.984 6.984 0 00-2.333 1.351c-4.331 3.793-4.191 12.466.305 19.365 4.495 6.897 11.636 9.415 15.96 5.618 3.855-3.384 4.153-10.646.982-17.073zm-42.408-65.283c1.3 5.177.108 10.222-3.271 12.295-4.229 2.595-10.247-.435-13.456-6.765-3.215-6.33-2.391-13.564 1.839-16.158.305-.187.622-.339.945-.469a7.087 7.087 0 00-2.53.942c-4.857 2.979-5.802 11.288-2.111 18.562 3.684 7.273 10.608 10.751 15.459 7.772 4.33-2.657 5.535-9.556 3.125-16.179zm-68.666-19.867c1.218 5.366-.374 10.477-4.293 12.438-4.901 2.449-11.56-.948-14.889-7.592-3.322-6.642-2.048-14.015 2.854-16.466a7.249 7.249 0 011.098-.431 8.558 8.558 0 00-2.911.838c-5.624 2.815-7.096 11.284-3.278 18.915s11.478 11.536 17.102 8.72c5.021-2.51 6.72-9.522 4.317-16.422z"/><path fill-rule="evenodd" clip-rule="evenodd" stroke="#000" stroke-width=".435" d="M249.481 382.521c-.477.133-1.096.37-1.85.713-.686.343-1.988 1.167-3.909 2.473-1.301 1.573-2.159 4.183-2.57 7.812l-.616 8.439v8.428c0 2.197.065 3.437.206 3.706v2.058c0 .479.033.856.102 1.129a.94.94 0 00-.102.412c0-.134.033.038.102.517 0 .137-.243.336-.72.612l-1.235-.406c-.616.275-1.507.406-2.676.406-.685 0-1.644-.07-2.877-.203-1.509-.203-2.402-.308-2.674-.308-.688.14-1.373.206-2.058.206h-2.058l-.103.102c-.208-.073-.926-.102-2.161-.102-6.239 0-10.112.27-11.621.821-1.439-.552-3.668-1.475-6.685-2.78a96.993 96.993 0 00-3.499-2.365l-.717-.2c-.277-.415-.826-.856-1.647-1.341-.754-.552-1.27-.989-1.544-1.335-1.507-.688-4.456-3.225-8.844-7.612-4.388-4.458-6.995-7.543-7.818-9.258-.615-1.16-1.334-3.082-2.157-5.755-.206-1.578-.311-3.534-.311-5.868 0-3.494.239-6.75.72-9.765-.068-.14-.102-.343-.102-.628 0-.539.173-1.569.515-3.075.341-1.51.512-2.499.512-2.987v-.202c.414-1.237.651-1.957.723-2.163.412-.754 1.061-1.544 1.953-2.364.687-.755 1.713-1.776 3.085-3.085.685-.618 1.713-1.513 3.086-2.68.889-.545 1.988-1.468 3.291-2.771l.308-.21c.07-.133.79-.652 2.163-1.54 1.37-.895 2.157-1.37 2.363-1.439 1.99-1.307 5.725-3.12 11.212-5.45 5.826-2.47 9.737-3.77 11.725-3.912a14.163 14.163 0 014.629-1.233c.685-.063 1.577-.172 2.673-.305l.103.102a.687.687 0 01.515-.206c.068 0 .239.066.515.206.339.069.579.102.72.102v.102c0 1.1 1.473 3.05 4.421 5.862.756 1.03 2.468 2.679 5.141 4.939.62.206 1.647.827 3.086 1.854a303.766 303.766 0 013.291 2.362c-4.044 2.945-6.308 4.974-6.785 6.064a804.319 804.319 0 01-4.117 4.318h-.41c-.344-.545-1.509-1.503-3.499-2.872-1.576-1.034-2.363-2.096-2.363-3.189-.688-.688-1.749-1.478-3.189-2.372a152.887 152.887 0 00-2.673-2.257v-.104c-.342-.07-1.167-.653-2.468-1.744-1.305-1.17-2.333-1.785-3.085-1.854a.696.696 0 00-.515-.206c-.893 0-2.54.72-4.938 2.159-2.125 1.232-3.464 2.162-4.011 2.773-2.33 1.037-5.212 3.77-8.641 8.228-3.633 4.733-5.448 8.335-5.448 10.799v.216c-.48.679-.722 1.604-.722 2.771 0 .892.344 2.952 1.027 6.17l.103.102c.685 2.33 1.82 4.769 3.396 7.305v.102c2.125 2.882 4.183 5.212 6.171 6.994l.102-.102c3.703 4.049 8.434 7.473 14.194 10.285.754.275 1.782.786 3.085 1.541.687 0 1.612.174 2.777.52 1.167.272 1.988.44 2.468.511.139-.346.206-.615.206-.821v-.104c0-.137.035-.34.103-.618v-1.027c0-2.124.102-3.431.309-3.906v-2.162c0-5.073.035-7.711.103-7.92-.208-3.497-.379-5.415-.515-5.758-.55-1.376-2.158-2.371-4.835-2.98h-.103c-.547-.139-.788-.215-.72-.215h-.102c-.617-.473-2.4-.85-5.349-1.126.07-.409.445-1.439 1.132-3.085.753-1.648 1.267-2.567 1.542-2.783h.205c2.47 0 4.527.247 6.173.723.821.14 4.114.206 9.873.206 3.223 0 5.038-.035 5.45-.099l.206.099c1.509-.13 3.703-.301 6.582-.511.825 1.093 1.716 2.462 2.675 4.114h0zm79.297 14.29c-.137 1.167-.617 2.606-1.437 4.321v.517c-.688 2.124-1.168 3.976-1.442 5.549 0 .275-.138.932-.411 1.956-.205.964-.309 1.613-.309 1.956v.305c-.342.758-.582 1.788-.72 3.088-.136 1.648-.276 2.714-.411 3.189v.405c0-.13-.138.762-.412 2.68l.102.104.205.926c-3.014.479-4.934.713-5.756.713l-.414-.206c0-.202-.135-.476-.411-.817-.272-.343-.409-.65-.409-.926v-.102a6.36 6.36 0 01-.823-2.159c-.826 0-2.093-.137-3.808-.409-.138.066-.41.102-.822.102-.344 0-.961-.069-1.85-.209-.825-.134-1.443-.2-1.853-.2-.339 0-.581.028-.72.099l-2.055-.206h-.721c-.893-.206-3.671-.305-8.332-.305-13.44 0-20.913.27-22.42.821-.07 0-.346.031-.826.095h-.409c-1.921 0-3.223.178-3.911.521h-.72a2.854 2.854 0 01-.72.102l-.102-.102c.48-2.67.722-3.773.722-3.291 0-.343-.037-.615-.104-.824v-1.027l.515-1.135c.753-.609 2.056-.926 3.908-.926 1.647-.609 2.674-.923 3.084-.923l.103-.104c.617-.203 1.509-.612 2.676-1.233.412-6.373.617-12.78.617-19.229 0-2.536-.07-6.347-.205-11.42-.139-5.072-.206-8.846-.206-11.312V363.8c0-7.886-.036-12.067-.104-12.549-.069-.203-.857-.622-2.367-1.233-1.438-.688-2.4-1.068-2.877-1.132-.482-.552-1.579-.923-3.292-1.135l-.104.107c-1.097-.412-1.644-.653-1.644-.723 0-.203.169-.482.512-.824.48-2.467 1.269-4.046 2.367-4.728h.822l.411.206c.069 0 .138-.038.206-.104h.204c.274 0 .687.133 1.235.412v-.104l12.444 1.03c4.458 0 7.921-.14 10.39-.415h.412a.898.898 0 00.411.104c3.771 0 6.823-.58 9.153-1.75.206 1.372.548 2.913 1.028 4.629.137.206.31.58.516 1.132v.102c.069.281.239.723.512 1.338-.066.062-.616.304-1.644.723-.961.063-2.812.304-5.555.717-2.947.481-4.732.855-5.349 1.135a4.6 4.6 0 00-1.646.311h-.102l-.617.095c-.482 4.807-.72 9.876-.72 15.225 0 .488.033.856.1 1.136 0 .476-.067 1.229-.206 2.254l.106.111v1.334c0 .549-.073.964-.206 1.228v.834c0 .066.035.206.1.402v.107c-.065.07-.1.137-.1.206 0 .067.035.206.1.416v.412c0 .199-.035.371-.1.51l.206.72c-.073.203-.106.479-.106.821v1.544c0 .349-.035.622-.1.821.065.137.1.378.1.72 0 .279-.035.444-.1.521l.1.919-.205.314c0 .339.035 1.949.104 4.835v8.02l-.104.102c.07 1.643.104 4.147.104 7.505l.1.313v.406c0 .136.033.412.106.824v1.233c0 .897.169 2.162.514 3.811h1.129c.48.066.824.099 1.03.099 1.713 0 4.8-.168 9.258-.517 5.485-.409 10.009-1.132 13.574-2.159.07-.063.274-.647.619-1.744l.206-.206c.481-1.512 1.371-3.741 2.674-6.689.135-1.024.65-1.984 1.542-2.876l3.083 1.027c.276.07.687.203 1.235.412.55.14.96.279 1.235.412l.107.304h0zm104.497 16.353v.107c0 .685-.856 2.429-2.571 5.244-.204.133-.582.203-1.132.203-.547 0-1.333-.102-2.363-.305-1.029-.206-1.681-.317-1.955-.317-7.819-.27-12.616-.405-14.399-.405-5.829 0-10.901.311-15.223.926-.274-1.51-.891-3.462-1.85-5.865l3.908-.926c3.771-.336 7.2-1.161 10.285-2.461-2.604-6.791-4.971-11.699-7.097-14.711-6.582-.209-12.377-.311-17.384-.311-6.651 0-10.695.272-12.136.824a222.346 222.346 0 00-3.185 7.096c-1.921 4.252-2.915 6.854-2.985 7.818 2.538 1.097 6.205 2.124 11.005 3.082l-1.338 3.189-1.027 2.264h-.309c-.549 0-3.736-.073-9.564-.203-5.827-.206-9.462-.317-10.903-.317h-.617v.111c-1.235-.14-2.161-.206-2.777-.206-1.783 0-4.113.241-6.991.717l2.467-5.967c2.123-.203 3.427-.343 3.908-.412 1.438-.273 2.4-.818 2.88-1.643 2.879-4.8 7.438-13.988 13.679-27.564 5.553-12.137 9.564-21.362 12.034-27.672a514.028 514.028 0 015.86-14.597c3.911-.143 7.2-.653 9.875-1.547.276 1.646 1.957 6.103 5.04 13.373l-.102.102c.067.82 2.501 6.483 7.303 16.965 4.867 10.501 7.99 16.978 9.358 19.444v.206a687.571 687.571 0 009.668 18.823c1.099 2.055 2.777 3.396 5.04 4.008 2.334.549 3.532.864 3.598.927h0zm-36.409-28.689c-.547-1.104-1.268-2.715-2.159-4.839-2.058-4.182-4.901-10.729-8.537-19.647-.272.21-.651.727-1.132 1.541-.412.831-.616 1.379-.616 1.648-.893 1.991-2.126 5.111-3.705 9.362-.341 1.031-.924 2.397-1.747 4.112-.821 1.922-1.888 4.557-3.19 7.917.961.212 4.288.313 9.978.313 6.79.001 10.491-.139 11.108-.407h0zm110.67-22.115l-.104.615a79.936 79.936 0 00-8.329 1.344h-.618v-.317c0-.342-.206-.786-.618-1.334v-.21c0-.339-.168-.929-.514-1.743-.07-.073-.957-2.882-2.673-8.437-1.854-.07-4.217-.479-7.099-1.23 0 0-2.194-.552-6.582-1.648-1.642-.412-2.708-.622-3.189-.622-.476 0-1.3.653-2.467 1.96-.206.479-.583 1.265-1.128 2.365v.102s-.209.408-.622 1.236v1.331c0 .755.038 1.205.102 1.342.07.345.241.855.52 1.544 0 .206.203.751.615 1.642.413.895.685 1.376.825 1.439.203.476.545 1.065 1.027 1.754.203.27.479.716.821 1.331.891.758 1.817 2.062 2.781 3.909l.304.311c.209 0 .618.479 1.236 1.439.686.964 1.098 1.472 1.233 1.548l-.104.095c.482.346 1.167 1.274 2.058 2.777.891 1.446 1.513 2.226 1.854 2.365 1.37 1.516 3.222 3.912 5.555 7.207.273.408.752 1.023 1.439 1.848v.102c.752.964 1.953 2.162 3.599 3.596.276.691.409 1.268.409 1.756v.305c-.133.279-.374.615-.717 1.033-.209.612-1.236 2.537-3.088 5.758-1.852 3.222-2.91 4.972-3.189 5.244-.755.961-1.572 2.333-2.467 4.115-.891 1.785-1.646 3.085-2.264 3.912-.133.748-.545 1.503-1.233 2.258a49.388 49.388 0 01-1.852 1.953c-.136 0-.377.034-.72.107-.342 0-.653.063-.926.203-.206.133-1.167.272-2.879.412-1.715.069-2.815.203-3.291.409-.825 0-1.75.174-2.781.517-.066 0-.133-.035-.206-.102h-.304c-.552 0-1.408.168-2.571.514-1.1.336-1.82.511-2.159.511-3.361.275-5.523.72-6.48 1.341h-.108c-.203 0-.476.133-.818.406-.272.272-.482.408-.618.408h-.104c-.273-.548-.444-.951-.514-1.233l-.615-.51.206-.206c-.073-.482-.345-1.098-.828-1.852-.339-.546-.748-1.367-1.23-2.467-.482-1.167-1.953-3.462-4.426-6.893-2.397-3.494-3.703-5.447-3.906-5.856-.548-.757-1.439-1.889-2.676-3.398 0-.206-.136-.447-.412-.723-.273-.336-.409-.65-.409-.929l-.206-.096c.342-.891 1.852-1.68 4.528-2.365h.101c.14 0 .273.165.412.511.136.275.308.409.514.409h.102l.412.412v.209c1.579 1.513 4.15 3.323 7.714 5.453 3.567 2.055 6.375 3.431 8.437 4.109.476.14 1.129.415 1.95.824v-.104c.964.409 2.163.688 3.602.821.07.209.308.349.72.412.412 0 .653.031.717.107 1.788.272 3.398.412 4.838.412 1.509 0 2.708-.209 3.599-.615.346-1.921.514-3.703.514-5.354v-1.027c0-3.218-1.202-6.376-3.599-9.458-.481-1.166-1.198-2.099-2.159-2.777-.618-.894-1.062-1.438-1.338-1.648-1.373-1.718-3.979-4.66-7.815-8.846-3.431-3.636-6.005-6.651-7.717-9.048-.685-.482-1.027-3.326-1.027-8.542 0-1.236.038-1.949.104-2.155a48.851 48.851 0 013.599-4.426c1.852-2.328 4.594-5.555 8.227-9.671.206-.476 1.271-1.331 3.187-2.567l3.088-.622c.479 0 2.983-.304 7.508-.919 4.527-.621 6.994-.996 7.406-1.135 0-.063.035-.241.102-.511v-.723c0-1.373-.137-2.296-.409-2.777 0-.27.066-.688.206-1.233.412-.07 1.062-.104 1.953-.104h1.648c.686.066 1.23.104 1.643.104.895 0 1.541-.038 1.953-.104l.206.517c.206 4.66 1.407 10.624 3.602 17.895l.821 1.648-.102.203c.412.82 1.062 2.054 1.953 3.703.342.887.621 1.438.824 1.642.475.753.954 1.682 1.436 2.782h0zm88.761 20.161c-.482.133-1.104.37-1.852.713-.685.343-1.991 1.167-3.906 2.473-1.306 1.573-2.162 4.183-2.574 7.812-.209 2.809-.412 5.624-.622 8.439v8.428c0 2.197.076 3.437.21 3.706v2.058c0 .479.038.856.102 1.129-.063.14-.102.278-.102.412 0-.134.038.038.102.517 0 .137-.235.336-.71.612l-1.237-.406c-.624.275-1.519.406-2.682.406-.686 0-1.636-.07-2.876-.203-1.509-.203-2.396-.308-2.679-.308a10.21 10.21 0 01-2.055.206h-2.058l-.104.102c-.203-.073-.92-.102-2.156-.102-6.239 0-10.114.27-11.623.821-1.437-.552-3.671-1.475-6.684-2.78-.96-.686-2.13-1.472-3.5-2.365l-.72-.2c-.272-.415-.821-.856-1.646-1.341-.758-.552-1.268-.989-1.544-1.335-1.506-.688-4.457-3.225-8.842-7.612-4.389-4.458-6.994-7.543-7.818-9.258-.622-1.16-1.339-3.082-2.163-5.755-.202-1.578-.304-3.534-.304-5.868 0-3.494.24-6.75.72-9.765-.067-.14-.104-.343-.104-.628 0-.539.171-1.569.513-3.075.346-1.51.514-2.499.514-2.987v-.202c.412-1.237.653-1.957.724-2.163.405-.754 1.062-1.544 1.956-2.364.682-.755 1.709-1.776 3.085-3.085a156.09 156.09 0 013.081-2.68c.895-.545 1.991-1.468 3.294-2.771l.308-.21c.07-.133.786-.652 2.163-1.54 1.369-.895 2.158-1.37 2.365-1.439 1.984-1.307 5.726-3.12 11.21-5.45 5.824-2.47 9.733-3.77 11.725-3.912a14.133 14.133 0 014.626-1.233c.688-.063 1.582-.172 2.679-.305l.096.102a.695.695 0 01.52-.206c.069 0 .241.066.511.206.349.069.586.102.723.102v.102c0 1.1 1.468 3.05 4.43 5.862.744 1.03 2.46 2.679 5.133 4.939.618.206 1.646.827 3.088 1.854a263.524 263.524 0 013.287 2.362c-4.045 2.945-6.306 4.974-6.784 6.064a617.732 617.732 0 01-4.115 4.318h-.412c-.343-.545-1.506-1.503-3.497-2.872-1.576-1.034-2.362-2.096-2.362-3.189-.688-.688-1.743-1.478-3.196-2.372-.538-.481-1.433-1.233-2.663-2.257v-.104c-.349-.07-1.173-.653-2.473-1.744-1.3-1.17-2.327-1.785-3.085-1.854a.686.686 0 00-.517-.206c-.894 0-2.536.72-4.934 2.159-2.127 1.232-3.465 2.162-4.014 2.773-2.33 1.037-5.212 3.77-8.636 8.228-3.634 4.733-5.453 8.335-5.453 10.799v.216c-.482.679-.721 1.604-.721 2.771 0 .892.34 2.952 1.027 6.17l.102.102c.688 2.33 1.82 4.769 3.396 7.305v.102c2.124 2.882 4.186 5.212 6.17 6.994l.102-.102c3.703 4.049 8.434 7.473 14.194 10.285.758.275 1.785.786 3.091 1.541.679 0 1.607.174 2.771.52 1.167.272 1.987.44 2.47.511.137-.346.212-.615.212-.821v-.104c0-.137.029-.34.102-.618v-1.027c0-2.124.096-3.431.312-3.906v-2.162c0-5.073.031-7.711.098-7.92-.206-3.497-.381-5.415-.511-5.758-.558-1.376-2.165-2.371-4.838-2.98h-.102c-.545-.139-.792-.215-.723-.215h-.102c-.618-.473-2.403-.85-5.352-1.126.069-.409.444-1.439 1.132-3.085.758-1.648 1.271-2.567 1.544-2.783h.203c2.473 0 4.533.247 6.176.723.824.14 4.115.206 9.88.206 3.215 0 5.034-.035 5.437-.099l.213.099c1.509-.13 3.703-.301 6.582-.511.82 1.093 1.714 2.462 2.672 4.114h0zm101.512-16.154v1.136c0 9.46-.96 18.104-2.878 25.918v.203c0 .343-.279 1.062-.824 2.162v.206c0 .203-.175.444-.514.717-.273.209-.412.381-.412.517-1.37 1.709-3.393 3.84-6.075 6.376-.608.552-1.433 1.439-2.46 2.673 0-.066-.076-.104-.206-.104-.07 0-.175.038-.314.104-.476.824-2.704 2.645-6.683 5.456-3.973 2.739-6.652 4.382-8.021 4.934-.892.343-2.023.894-3.399 1.646-.751.206-2.529.891-5.345 2.055l-.203.412h-.209c-.824 0-2.194-.244-4.109-.72a33.904 33.904 0 01-2.885-.622l-.099-.202h-.111c-.545 0-1.537-.2-2.977-.615-1.37-.479-2.19-.856-2.47-1.132-1.579-.066-4.598-1.373-9.049-3.909-4.458-2.537-7.305-4.524-8.535-5.967l-.209-.511c-.272-.343-.786-.758-1.544-1.233-4.458-3.982-7.505-7.647-9.15-11.008-.409-.824-.618-3.184-.618-7.096 0-8.979.482-15.256 1.439-18.819.482-.279.717-1.408.717-3.399.761-.545 3.469-3.805 8.129-9.771 1.236-1.366 3.189-3.151 5.862-5.345.206-.409 1.887-1.82 5.038-4.217 3.228-2.397 5.009-3.634 5.352-3.703 1.991-1.034 4.356-2.502 7.096-4.423.615-.276 1.509-.618 2.67-1.024 10.082 3.078 17.148 5.758 21.194 8.019 4.049 2.264 7.644 4.866 10.795 7.814a459.693 459.693 0 005.143 5.454c.482.688.929 1.097 1.338 1.229l-.101.102c.349.488.786 1.104 1.338 1.852.618.685 1.338 1.858 2.155 3.5.209.346.552.786 1.034 1.338h.1v-.003zm-11.528 20.774c-.061-1.709-.127-3.459-.196-5.237-.213-2.474-.755-4.775-1.646-6.896-.07-.069-.346-.611-.821-1.646-.482-1.027-.758-1.648-.824-1.852-.412-.278-1.373-1.677-2.879-4.217v.108c-.482-.622-1.173-1.51-2.061-2.683-.615-.343-1.402-1.094-2.365-2.261-.892-1.163-1.678-1.911-2.365-2.26-.758-.688-1.985-1.713-3.703-3.085-1.579-1.101-2.746-1.849-3.494-2.261-1.373-.758-2.717-1.274-4.018-1.544l-.199-.305c-.343-.079-1.408-.313-3.192-.726-1.304-.276-2.432-.416-3.396-.416h-.615c-.272 0-.717-.034-1.335-.098a12.807 12.807 0 00-1.442-.102c-.688 0-1.266.136-1.744.405l-.107-.095c-3.494.406-6.037 1.23-7.612 2.467h-.104c-.958.611-2.499 1.541-4.623 2.777l-.723.717c-.206.202-.583.517-1.129.929-.552.751-1.373 1.949-2.47 3.595-.412.622-1.03 2.166-1.854 4.626-.682 1.991-1.024 4.286-1.024 6.896 0 4.595 1.17 9.186 3.494 13.782a35.972 35.972 0 008.741 11.008c.758.615 2.229 1.674 4.429 3.189 2.258 1.434 3.703 2.261 4.315 2.467.754.482 2.403 1.135 4.939 1.95 2.536.821 4.35 1.233 5.453 1.233h.308c.545.14 1.303.212 2.261.212.481 0 2.162-.241 5.041-.723 4.039-1.303 7.264-3.015 9.67-5.14v-.107c3.701-2.736 6.13-7.641 7.29-14.707h0zm137.003-47.824c-.888 3.018-2.055 5.792-3.494 8.328-1.988 5.559-5.143 13.751-9.464 24.588h-.099c-.481 1.097-1.274 3.151-2.371 6.169-2.945 7.4-6.994 18.439-12.137 33.119l-.511 1.129v.311c0 .272-.174.72-.517 1.338-.272.545-.406.992-.406 1.332-.345.481-.52.926-.52 1.344 0 .343-.549.853-1.643 1.541v-.102l-.412.203-.203-.102c-.551.069-1.338.203-2.371.409h-.305c-.139-.066-.244-.104-.313-.104-.618 0-1.433.171-2.467.517-.479 0-1.201.136-2.159.412v-.206l.311-.618c0-.549-.136-1.367-.412-2.464-.206-.549-1.331-3.982-3.393-10.291v-.099c-1.712-5.212-5.481-15.874-11.312-31.993-.412.824-.895 2.127-1.446 3.906 0 0-.069.079-.206.216-.06.336-.346 1.128-.821 2.364-.136.14-.24.409-.311.818 0 .412-.066.755-.206 1.03-.063.206-.304.752-.716 1.646-.137.552-.409 1.167-.821 1.852 0 .209-.108.514-.312.926-.202.412-.307.755-.307 1.027-.276 1.101-.856 2.676-1.754 4.736v.096c0 .279-.133.59-.409.929-.202.343-.308.583-.308.72v.209c-.202 1.098-.754 2.701-1.639 4.832a4.34 4.34 0 01-.517 1.335v.206c-.552 1.307-1.236 3.357-2.061 6.173-.755 2.742-1.408 4.766-1.96 6.065-.27 1.1-.779 2.609-1.534 4.527-.279.275-.685.405-1.236.405 0 0-.378.111-1.136.317l-.304-.104a22.897 22.897 0 01-3.906.923c-.488.272-1.097.488-1.854.614v-.51c0-.688-.241-1.779-.72-3.288-.482-1.579-.717-2.574-.717-2.986 0-.203.038-.343.095-.412-.342-.134-.649-.92-.926-2.365l-1.642-5.244c-.958-3.019-1.548-4.698-1.75-5.038-.615-1.921-1.611-4.733-2.98-8.434l.102-.104c-.272-1.3-.996-3.091-2.156-5.346-.279-1.236-.999-3.056-2.156-5.453-1.103-2.403-1.791-4.255-2.061-5.555a294.627 294.627 0 00-2.983-8.439l-4.321-10.278c-.412-.961-.618-1.541-.618-1.744l-.723-1.037h.104l-.311-.922c-.063-.14-.818-1.611-2.258-4.427-.343 0-.926.07-1.753.203-.061-.057-.168-.095-.308-.095-.409 0-1.366.203-2.879.615-1.437.342-2.296.514-2.574.514v-.102c1.033-1.437 2.473-4.15 4.327-8.123h2.055c.143.196.821.308 2.052.308.481 0 1.097-.035 1.854-.111h1.129c7.066.213 13.648.317 19.755.317 2.673 0 6.269-.275 10.799-.827-.073.345-.279.827-.622 1.439 0-.27-.408.827-1.229 3.294l.099.514c0 .548-.131 1.436-.409 2.676.202.27.311.514.311.717 0 .206-.178.311-.521.311-.272 0-.748-.07-1.439-.206-.614-.137-.988-.206-1.131-.206h-.099l-.615.206h-1.236c-.21-.067-.546-.104-1.034-.104h-1.128c-.479.069-2.467.206-5.967.415a.703.703 0 00-.203.511c0 .278.755 2.916 2.261 7.923.415 1.227.96 2.809 1.648 4.727 0 .412.275 1.376.818 2.886.624 1.439.926 2.226.926 2.361l1.03 2.673c0 .21.069.479.202.821.213.346.314.621.314.827.751 1.579 1.646 4.078 2.676 7.512 1.163 1.914 1.816 3.699 1.949 5.349.279.336 1.104 2.428 2.474 6.271.679-1.369 2.844-8.332 6.48-20.881.888-3.703 1.987-7.682 3.284-11.927 0-.488.143-1.236.412-2.264.343-1.034.518-1.852.518-2.47l.104.104a739.393 739.393 0 002.361-8.538l.206-.206v-.311c0 .551.172-.206.514-2.261v-.102c0 .136.172-.311.514-1.338.412-.073.895-.171 1.446-.314h.611c.552 0 1.373-.095 2.47-.304 1.167-.203 1.988-.311 2.467-.311h.314c.066.481.855 3.804 2.365 9.98.275 1.027 2.02 6.303 5.243 15.84l-.098.095c.199.412.44 1.065.71 1.959 1.445 4.115 2.162 6.411 2.162 6.893.552 1.301.856 2.125.933 2.461.13.278.44 1.135.919 2.58.552 1.367.824 2.197.824 2.464l1.953 5.146.203.102v.099c.418 1.17.894 2.368 1.445 3.602.609-1.852 1.573-4.458 2.876-7.815.073-.542.412-1.439 1.03-2.676.615-1.3.926-2.261.926-2.872v-.108c.685-1.921 1.37-3.836 2.058-5.758 1.03-3.018 1.538-4.901 1.538-5.662v-.199c.275-1.031.723-2.565 1.344-4.626.682-2.061 1.37-4.356 2.055-6.896l.209-.199v-.111c0 .622.21-.304.609-2.773-.137-.07-.577-.276-1.332-.615-1.984-.824-4.146-1.236-6.48-1.236v.102c-.615 0-1.475-.07-2.571-.203h-.099a.306.306 0 01-.212.102c-.063-.067-.165-.102-.305-.102l.099-.412c.275-.273.517-.552.723-.824.552-1.367 1.475-3.361 2.777-5.964a.945.945 0 00.412-.102h.412c.343 0 .821.028 1.434.102.627.066 1.071.104 1.338.104h.517c2.33-.206 5.868-.583 10.599-1.132a39.81 39.81 0 001.643-.514c.891-.276 1.506-.415 1.852-.415h.209c.272-.067.679-.206 1.23-.412a591.55 591.55 0 017.2-1.445h0z"/><path d="M371.139 146.78s1.538-.815 3.762-.646c4.542 0 27.508 7.525 27.508 35.162l-18.685-7.527s2.855-16.737-12.585-26.989z"/><path fill="#9FD6F6" d="M428.637 207.197l-2.866-2.768-2.631 2.727a136.913 136.913 0 00-4.39-3.917l2.792-2.893-4.46-4.306-3.152 3.264c-25.925-20.163-53.228-25.695-65.473-12.508-9.593 10.331-9.104 30.763.103 52.712l-19.259-.951c-10.006-24.579-8.907-48.147 3.415-60.58 19.237-19.41 64.185-8.399 99.635 26.351m38.29 76.674c-.073 10.225-3.053 18.842-9.21 24.555-17.926 16.636-58.307 11.087-92.029-15.148l38.78-6.67c21.311 13.357 41.608 16.857 50.022 7.799 2.144-2.312 3.491-5.361 4.09-8.988"/><path d="M422.995 126.814c2.877 6.241 5.514 10.48 5.231 10.661l-3.343 16.856s-.989-10.884-2.226-14.596c-1.238-3.711-3.218-9.192-3.218-8.906 0 0-2.051-17.168-1.979-17.317 0 0 3.06 1.241 3.066 1.162.001 0-.406 5.899 2.469 12.14zm35.966 31.517s11.195.198 10.872 5.304c0 0-.717 4.752-2.949 2.292 0 0-2.562-2.072-8.288-1.815 0 0-5.596.44-11.16 3.256l-3.12-2.744c.001 0 7.375-6.425 14.645-6.293z"/><path d="M438.499 149.486c-.428 7.868 6.243 4.876 6.243 4.876s5.215-1.712 10.691-2.053c7.818-.488 19.704 2.158 19.704 2.158 1.376.196.98-2.228.98-2.228.066 0-.457-1.636-.457-1.636-.59-1.703-1.734-1.428-1.998-1.428-.26 0-3.722.482-9.422.567-5.701.089-18.884-3.243-21.8-3.637-3.245-.438-3.941 3.381-3.941 3.381zm-4.304.392s-.261-7.63 5.791-7.63c6.049 0 16.312 5.876 26.245 5.474l7.856-.655s4.401-.521 5.96 3.863c0 0 3.088 8.067-1.503 6.745 0 0-11.99-3.348-18.411-3.228-.459 0-6.667-.086-10.339 1.394 0 0-6.423 2.796-8.475 2.882.002.001-7.124.011-7.124-8.845zm60.291-31.055s3.735-3.21 3.662-3.21c0 0-.061 15.165.225 15.165 0 0-2.999 1.676-5.38 6.874-3.288 7.172-7.416 24.752-7.825 24.766 0 0 2.521-19.836 4.854-26.151 2.441-6.609 4.54-9.597 4.489-9.611.001-.002.001-7.728-.025-7.833z"/><path d="M481.405 202.149l-.736 1.549c-6.442 11.694-5.307 24.674 2.537 28.993 7.837 4.32 19.416-1.657 25.858-13.353 6.436-11.691 5.301-24.671-2.536-28.993-6.009-3.308-14.204-.575-20.608 6.143l-2.683.819 3.843-11.688s-12.523 15.028-37.563 21.372l.333 6.679s12.355-4.841 15.862-6.179c3.506-1.334 15.693-5.342 15.693-5.342zm-71.096-71.12l-.978-7.755s-1.71.014-1.812-2.297c0 0-4.835-4.757-6.132-14.217 0 0-.126-4.591 1.813-4.738v-1.58s-.349-2.841-3.026-2.841c-1.59 0-2.969 1.983-2.969 7.723 0 0 .14 5.888 3.484 10.481 0 0 3.416 4.724 3.625 7.326 0 0-.42 3.159 1.95 5.742 2.777 3.03 4.045 2.156 4.045 2.156zm97.044 3.277s1.262.874 4.039-2.151c2.371-2.587 1.953-5.747 1.953-5.747.202-2.6 3.62-7.322 3.62-7.322 3.342-4.596 3.481-10.483 3.481-10.483 0-5.74-1.376-7.723-2.961-7.723-2.676 0-3.031 2.841-3.031 2.841v1.58c1.94.149 1.813 4.738 1.813 4.738-1.294 9.459-6.132 14.217-6.132 14.217-.102 2.311-1.813 2.297-1.813 2.297l-.969 7.753zm-47.983 46.706c7.099 0 13.215 1.208 13.215 1.208 2.65.769 6.414 1.367 6.414 1.367 7.764 0 12.616-9.992 12.616-9.992l8.167-18.655c0-14.158 2.993-18.216 2.993-18.216.168-.258.85-1.71.85-1.71.26-4.875 2.482-6.216 2.482-16.505 0-10.292-7.866-20.781-7.866-20.781s-4.252.555-4.67 1.148l2.711 4.497-1.205-.049c-2.657 0-5.155.682-7.324 1.88 0 0 5.149 3.232 6.417 4.496.14.141-3.367.942-3.367.942-10.836-6.703-18.651 1.198-18.651 1.198l-3.798-12.615-.39-2.373 47.12-9.236 8.465 7.183 12.054.77s-33.093 41.05-2.308 122.122c0 0-14.108 10.005-28.734 10.775 0 0-.253 45.703-37.453 69.303 0 0 3.875-6.848 3.361-19.606 2.397-1.718 5.117-5.296 4.569-6.637-.625-1.53-2.825-6.173-2.825-6.173.625-1.957 1.931-4.716 1.931-4.716 0-2.746-1.598-6.876-1.598-6.876-1.813-2.873-2.181-6.856-2.181-6.856 2.324-6.507-3.741-10.91-3.741-10.91-5.418-3.692-5.608-7.792-5.608-7.792 0-3.909-3.424-4.973-5.301-5.299-1.068-.186-4.458.751-7.178 1.592a188.358 188.358 0 00-5.06-6.636c5.453-7.937 1.953-15.525 1.953-15.525 0-4.56-4.166-1.154-4.166-1.154l-5.003 4.887c-.493.417-1.076.85-1.729 1.292a255.717 255.717 0 00-6.772-7.189s-10.046-30.762-14.041-50.731c0 0-1.998-9.416-6.389-13.59 0 0-7.053-5.86-6.409-13.056 0 0-6.335-7.731-6.291-17.986 0 0 .385-7.311 3.592-12.956 0 0 2.437-3.337 6.03-4.234 0 0 17.188 8.852 45.279 11.417l-3.799 12.615s-7.815-7.899-18.65-1.197c0 0-3.507-.802-3.366-.943 1.264-1.262 6.416-4.494 6.416-4.494a15.092 15.092 0 00-7.324-1.88c-.406 0-.807.014-1.205.047l2.711-4.497c-.418-.595-4.67-1.147-4.67-1.147s-7.869 10.489-7.869 20.781 2.226 11.631 2.481 16.505c0 0 .685 1.452.854 1.71 0 0 2.995 4.06 2.995 18.214l8.167 18.657s4.851 9.993 12.614 9.993c0 0 3.765-.599 6.416-1.368 0 0 6.112-1.208 13.214-1.208l.854.189z"/><path d="M517.099 90.244s-8.237-85.37-58.35-90.231l-.02-.013c-50.301 5.56-57.899 90.005-57.899 90.005 25.795 9.751 46.035 10.566 46.035 10.566l-3.871 33.096s6.192 2.565 15.735 2.565l.02.012c9.543 0 15.738-2.565 15.738-2.565l-3.874-33.096s20.691-.589 46.486-10.339zm-56.638 41.892c-6.075 0-10.494-1.289-10.494-1.289l2.539-34.549s-22.409-1.885-44.077-9.324l2.064-12.059s15.145 4.126 19.275 4.897c0-26.683 13.687-68.454 29.558-74.082 40.566 10.393 49.51 81.806 49.51 81.806-21.572 8.774-42.199 8.625-42.199 8.625l3.333 34.806c-.001.001-3.435 1.169-9.509 1.169zm45.877 71.202c1.509 3.942 1.147 9.045-1.363 13.698-4.018 7.446-12.01 10.929-17.851 7.777 0 0-4.717-2.127-4.052-7.303.669-5.176 2.505-5.344 3.507-5.01 0 0 .837.501.837 1.669 0 0-.501 1.17 1.167 1.837 1.668.667 10.685 2.172 14.691-12.021 0 0 .502-2.671 1.332-2.837.837-.167 1.732 2.19 1.732 2.19zm32.637 26.623s-9.575 19.841-35.566 25.312c0 0 17.78 6.159 3.418 28.732-.001 0 38.996-19.153 32.148-54.044z"/><path d="M433.786 85.349c.838-2.032 3.045-3.048 4.932-2.271l.001.001a4.224 4.224 0 00-1.341-.905c-2.308-.951-5.009.293-6.038 2.782-1.024 2.487.015 5.277 2.322 6.227 1.495.619 3.15.301 4.414-.667-.774.244-1.609.244-2.394-.08-1.885-.778-2.733-3.055-1.896-5.087zm-16.976.55c-1.444 0-2.614-1.456-2.614-3.25 0-1.793 1.169-3.248 2.614-3.248.669 0 1.273.32 1.736.834-.601-1.274-1.684-2.132-2.929-2.132-1.896 0-3.431 1.962-3.431 4.383 0 2.422 1.535 4.386 3.431 4.386 1.002 0 1.897-.563 2.525-1.441-.391.291-.842.468-1.332.468zm86.313-.163c-1.442 0-2.612-1.455-2.612-3.25 0-1.793 1.17-3.247 2.612-3.247.669 0 1.274.32 1.737.832-.6-1.274-1.681-2.132-2.93-2.132-1.896 0-3.431 1.962-3.431 4.385 0 2.422 1.534 4.385 3.431 4.385 1.005 0 1.899-.562 2.523-1.441-.391.291-.842.468-1.33.468zm-22.149-.674c.834-2.034 3.044-3.052 4.934-2.273v.001a4.155 4.155 0 00-1.345-.903c-2.308-.953-5.009.293-6.036 2.78-1.027 2.489.013 5.276 2.32 6.227 1.497.618 3.151.301 4.414-.666-.774.239-1.607.241-2.391-.081-1.887-.778-2.736-3.056-1.896-5.085zM458.47 87.31c.979-2.375 3.513-3.583 5.663-2.695a4.692 4.692 0 00-1.522-1.038c-2.631-1.084-5.732.393-6.931 3.3s-.041 6.143 2.587 7.226c1.706.702 3.599.317 5.054-.823-.888.289-1.845.299-2.736-.068-2.147-.886-3.092-3.529-2.115-5.902zm262.205 86.419c1.553 19.343-5.739 37.034-20.685 45.392-22.301 12.466-53.144-.541-68.895-29.051-15.751-28.509-10.45-61.723 11.845-74.188 4.166-2.33 8.631-3.768 13.234-4.383-6.538.168-12.892 1.785-18.7 5.032-23.969 13.4-29.58 49.271-12.536 80.121 17.051 30.847 50.297 44.989 74.271 31.589 17.483-9.773 25.182-31.5 21.466-54.512zm-427.373 71.552c-2.53-1.688 8.281-21.265 27.003-21.265 12.563 0 24.639 10.632 24.639 10.632 9.958 2.362 55.358 2.532 55.358 2.532l.502-6.076c3.037-16.035 14.682-18.734 14.682-18.734 16.877-4.724 22.109-11.644 22.109-11.644 7.259-5.233 9.789 0 9.789 0 3.374 7.255-1.015 15.694-1.015 15.694-.336 1.351-6.074 8.101-6.074 8.101l8.439-1.855c4.052-1.856 9.112-1.351 9.112-1.351 3.376 1.351 5.063 6.919 5.063 6.919.339 3.375 1.69 5.569 1.69 5.569 3.544 1.688 5.399 3.544 5.399 3.544 2.19 2.869 1.689 7.257 1.689 7.257s-1.015 3.037-.171 5.063c.843 2.026 2.022 2.532 3.037 3.882 1.015 1.349 1.519 6.244 1.015 7.593-.507 1.353-1.687 4.22-1.687 4.22 0 .843 1.516 2.363 1.516 2.363 1.521 2.362 1.021 5.447 1.021 5.447-1.503 9.907-18.325 13.509-18.325 13.509-31.232 8.712-46.25-4.502-46.25-4.502 2.432-.031 4.778-.088 7.039-.165 40.416 1.588 51.788-3.947 51.788-3.947 2.191-1.626 4.911-5.205 4.363-6.545-.625-1.53-2.825-6.173-2.825-6.173.625-1.957 1.931-4.716 1.931-4.716 0-2.746-1.598-6.876-1.598-6.876-1.813-2.873-2.181-6.856-2.181-6.856 2.324-6.507-3.741-10.91-3.741-10.91-5.418-3.692-5.608-7.792-5.608-7.792 0-3.909-3.424-4.973-5.301-5.299-1.877-.325-10.907 2.806-10.907 2.806-4.064 2.279-7.793.935-7.793.935-2.188-2.606 3.117-4.986 3.117-4.986 10.003-9.121 5.298-19.325 5.298-19.325 0-4.56-4.166-1.154-4.166-1.154l-5.003 4.887c-5.003 4.233-19.384 10.098-19.384 10.098-9.69 5.212-9.066 13.027-9.066 13.027l.501 5.653-.366 2.287c0 3.305-3.605 4.206-3.605 4.206-14.113 0-62.17 2.403-62.17 2.403l-3.001 2.104c-4.507-3.604-10.515-8.411-24.629-8.411-14.116.002-21.234 7.851-21.234 7.851z"/><path d="M785.567 80.631l-92.07 90.336-5.58 8.113s-11.718 4.868-21.204-2.704c0 0-11.16-8.656-5.573-23.26h2.783s0 11.902 11.16 12.442l110.484-84.927zm-391.818 37.168s-24.536-7.01-37.777 12.465c0 0-23.091-12.809-51.411 10.517-19.865 16.356-18.306 46.346-18.306 46.346s-35.443 15.58-35.832 50.243c0 0-19.084 16.358-21.031 50.238 0 0 1.557 13.63 13.632 14.02l14.41.777s37 14.416 71.662-1.554c0 0 35.054-3.507 77.507-15.189 0 0 4.445-3.021 7.181-10.545 0 0-56.1 11.626-67.73 10.26 0 0 5.472-9.578 1.368-15.733 0 0-17.788 26.678-61.574 26.678 0 0-43.101 1.372-29.417-35.573 0 0-10.946 4.104-14.367 9.58 0 0 1.368-20.524 17.788-32.155l2.051 6.157s3.421-28.051 38.997-43.786c0 0-10.261-26.681 12.998-50.627 0 0 21.209-22.577 51.314-14.366-.002-.003 4.1-15.741 28.537-17.753z"/><path d="M734.022 288.602c46.511-31.483 50.601-106.672 9.124-167.934a186.49 186.49 0 00-3.607-5.14l4.901-3.76a175.681 175.681 0 013.431 4.897c44.45 65.659 40.284 147.88-13.278 184.136-53.562 36.261-133.008 12.426-177.464-53.229-44.444-65.661-37.063-148.283 16.492-184.541 51.254-34.696 123.262-14.004 168.327 45.37l-5.605 2.882c-42.129-54.271-108.449-74.357-152.506-44.528-46.511 31.488-50.601 106.679-9.125 167.94 41.47 61.263 112.8 85.4 159.31 53.907z"/><path stroke="#000" stroke-width=".621" d="M151.682 454.009c-1.211 4.094-2.796 7.859-4.752 11.303-2.701 7.533-6.988 18.649-12.856 33.344h-.139c-.653 1.49-1.725 4.28-3.215 8.377-4.008 10.05-9.505 25.034-16.493 44.951l-.697 1.534v.419c0 .374-.209.954-.628 1.746-.418.793-.628 1.421-.628 1.884-.466.653-.697 1.233-.697 1.747s-.745 1.233-2.235 2.162v-.14l-.558.279-.279-.14c-.745.082-1.816.241-3.211.481h-.837c-.837 0-1.953.226-3.348.676-.653 0-1.633.181-2.933.542v-.279l.418-.837c0-.745-.187-1.864-.558-3.354-.279-.741-1.817-5.399-4.607-13.966v-.14c-2.327-7.073-7.447-21.55-15.357-43.432-.558 1.115-1.211 2.885-1.953 5.304l-.279.279c-.095.466-.466 1.537-1.119 3.212-.187.187-.304.561-.349 1.119-.047.558-.14 1.002-.279 1.325-.14.326-.488 1.094-1.046 2.302-.187.745-.558 1.582-1.116 2.514 0 .279-.139.698-.418 1.256-.279.558-.418 1.024-.418 1.395-.374 1.49-1.167 3.634-2.375 6.424v.14c0 .374-.165.792-.488 1.255-.327.467-.488.793-.488.977v.279c-.279 1.49-1.024 3.678-2.235 6.563-.095.558-.326 1.163-.697 1.813v.278c-.745 1.77-1.652 4.54-2.724 8.311-1.071 3.77-1.979 6.537-2.72 8.303-.374 1.49-1.072 3.538-2.096 6.145-.374.374-.932.559-1.674.559l-1.535.418-.418-.14a32.969 32.969 0 01-5.304 1.186c-.653.353-1.493.615-2.514.793v-.697c0-.929-.327-2.438-.98-4.531-.653-2.092-.976-3.414-.976-3.972 0-.279.044-.463.139-.559-.466-.184-.884-1.256-1.255-3.208l-2.235-7.108c-1.303-4.09-2.092-6.366-2.372-6.833-.837-2.603-2.188-6.413-4.048-11.433l.139-.14c-.374-1.766-1.351-4.182-2.933-7.25-.374-1.671-1.328-4.135-2.863-7.388s-2.489-5.764-2.86-7.53c-1.116-3.345-2.466-7.155-4.045-11.433l-5.865-13.943c-.558-1.3-.837-2.09-.837-2.368l-.976-1.396h.139l-.418-1.255-3.072-6.005c-.466 0-1.258.095-2.375.278-.095-.092-.234-.14-.418-.14-.558 0-1.839.292-3.839.872-2.004.584-3.189.872-3.561.872v-.143c1.395-1.988 3.348-5.729 5.862-11.221h2.793c.184.273 1.116.406 2.793.406.65 0 1.487-.133 2.511-.406h1.538c9.584.457 18.519.686 26.803.686 3.627 0 8.513-.361 14.657-1.091-.095.466-.374 1.116-.837 1.949 0-.37-.558 1.116-1.674 4.458l.139.697c0 .745-.187 1.953-.558 3.624.279.371.418.694.418.974s-.235.418-.698.418c-.374 0-1.002-.057-1.886-.174-.885-.117-1.42-.178-1.604-.178h-5.586c-.653.095-3.351.279-8.098.558a.947.947 0 00-.279.698c0 .374 1.024 3.95 3.072 10.735.558 1.674 1.3 3.813 2.232 6.413 0 .559.393 1.839 1.186 3.837.793 1.997 1.189 3.091 1.189 3.274l1.395 3.628c0 .278.114.652.349 1.115.231.467.349.837.349 1.116 1.021 2.137 2.232 5.529 3.63 10.178 1.579 2.605 2.464 5.021 2.651 7.251.374.466 1.49 3.3 3.351 8.506.929-1.861 3.861-11.309 8.795-28.341 1.208-5.022 2.698-10.421 4.467-16.191 0-.653.209-1.678.627-3.072.418-1.396.628-2.515.628-3.352l.14.14a1231.05 1231.05 0 003.211-11.671l.279-.278v-.422c0 .748.231-.282.701-3.095v-.14c0 .188.231-.421.697-1.829a23.407 23.407 0 001.956-.422h.837c.742 0 1.883-.066 3.418-.202 1.535-.134 2.628-.203 3.281-.203h.419c.092.649 1.163 5.143 3.211 13.48.371 1.392 2.743 8.528 7.118 21.407l-.14.14c.279.558.603 1.437.977 2.638 1.953 5.562 2.933 8.668 2.933 9.314.742 1.764 1.186 2.851 1.326 3.266.139.419.561 1.576 1.258 3.476.698 1.902 1.046 3.037 1.046 3.404l2.654 6.95.279.14v.14a65.913 65.913 0 001.953 4.863c.837-2.511 2.14-6.05 3.909-10.608.092-.745.558-1.979 1.395-3.7s1.259-3.002 1.259-3.839v-.14c.929-2.606 1.861-5.213 2.793-7.818 1.395-4.094 2.093-6.652 2.093-7.68v-.278c.371-1.396.999-3.487 1.883-6.281.884-2.79 1.792-5.909 2.723-9.353l.279-.282v-.14c0 .84.279-.415.837-3.767-.187-.092-.792-.371-1.813-.84-2.701-1.116-5.631-1.674-8.795-1.674v.14c-.837 0-2-.093-3.491-.279h-.14c-.095.095-.187.14-.279.14-.095-.092-.234-.14-.418-.14l.139-.559c.371-.37.698-.744.98-1.119.742-1.857 2-4.559 3.773-8.097.184 0 .371-.045.558-.14h.558c.466 0 1.119.048 1.957.143.837.095 1.442.14 1.816.14h.701c3.164-.264 7.961-.748 14.391-1.452.374-.089 1.141-.308 2.305-.659 1.164-.353 1.979-.53 2.448-.53h.279c.371-.095.929-.291 1.677-.586a944.428 944.428 0 019.78-2.05zM286 554.219v.139c0 .933-1.164 3.304-3.487 7.118-.279.187-.792.279-1.535.279-.745 0-1.816-.14-3.212-.419-1.395-.279-2.279-.418-2.65-.418-10.605-.371-17.117-.559-19.533-.559-7.907 0-14.793.466-20.652 1.396-.374-2.055-1.211-4.718-2.511-7.99l5.304-1.259c5.117-.466 9.771-1.588 13.96-3.363-3.539-9.248-6.747-15.929-9.632-20.041-8.934-.279-16.8-.422-23.591-.422-9.029 0-14.521.374-16.474 1.123a301.026 301.026 0 00-4.328 9.67c-2.606 5.792-3.957 9.343-4.048 10.649 3.443 1.496 8.42 2.897 14.936 4.204l-1.813 4.347-1.398 3.082h-.418c-.745 0-5.073-.14-12.983-.419s-12.844-.418-14.797-.418h-.837v.139c-1.677-.184-2.933-.278-3.77-.278-2.422 0-5.586.326-9.492.977l3.351-8.095c2.885-.279 4.651-.463 5.304-.558 1.953-.371 3.256-1.116 3.909-2.235 3.906-6.513 10.095-18.979 18.566-37.402 7.539-16.468 12.983-28.984 16.334-37.545a671.472 671.472 0 017.955-19.818c5.304-.184 9.771-.882 13.401-2.093.374 2.235 2.654 8.285 6.842 18.145l-.14.14c.092 1.116 3.418 8.792 9.981 23.027 6.56 14.235 10.77 23.03 12.634 26.378v.279a913.106 913.106 0 0013.11 25.542c1.487 2.793 3.789 4.584 6.902 5.373 3.113.792 4.717 1.232 4.812 1.325zm-49.393-38.88c-.745-1.49-1.721-3.685-2.933-6.576-2.793-5.688-6.655-14.597-11.588-26.721-.374.279-.862.98-1.465 2.1-.605 1.119-.907 1.864-.907 2.238-1.211 2.704-2.888 6.946-5.025 12.729-.47 1.401-1.259 3.266-2.375 5.596-1.116 2.612-2.559 6.204-4.328 10.773 1.3.278 5.815.418 13.541.418 9.215 0 14.244-.183 15.08-.557zm179.55 36.502l-.14.139c-2.143.745-3.725 1.582-4.746 2.515h-.14c-.653.095-1.538.514-2.654 1.262-3.538 1.03-7.583 3.367-12.143 7.014-.095-.188-.514-.514-1.259-.977-.187-1.398-2.606-4.239-7.257-8.525-6.049-5.587-9.122-8.428-9.213-8.522-.932-1.211-2.467-2.467-4.606-3.773-.188-.652-2.327-2.701-6.424-6.147-3.538-2.98-5.443-4.474-5.723-4.474-3.63-3.164-7.073-5.82-10.329-7.964-.095 0-1.443-.929-4.049-2.793 0 1.211-.14 3.075-.418 5.586l-.282 3.631c.184.187.279 1.023.279 2.511 0 .932-.069 2.796-.209 5.586s-.209 4.839-.209 6.142c0 1.861.092 3.024.279 3.487-.095.374-.139 1.119-.139 2.235v.837c.837.279 1.953.419 3.351.419.463 0 1.208-.045 2.232-.14h2.235c1.395 0 2.466.187 3.211.558 1.021-.092 2.511-.279 4.467-.558l-1.956 3.211.14.14c-.466.279-1.024 1.072-1.674 2.372l.279.14c-.837 1.211-1.861 2.979-3.072 5.307l-.697.559c-.558-.374-1.072-.562-1.535-.562-1.306 0-2.235-.14-2.793-.422-2.514 0-4.654-.234-6.42-.703h-6.562c-.745 0-1.255-.181-1.535-.549-2.235.368-4.47.549-6.702.549h-2.232l-.139.117c-2.885 0-4.702.199-5.444.593h-.282c-.187 0-.444.048-.767.14-.327.095-.583.14-.767.14-.095 0-.279-.045-.558-.14 1.706-1.858 3.954-4.883 6.744-9.071.27-.745.72-1.816 1.351-3.212.178-.649.27-1.674.27-3.068.089-.185.177-.371.27-.559v-22.054l.44-.278c-.295-.742-.44-3.44-.44-8.095v-9.912l-.016-.14c0-.37.003-.976.016-1.813v-11.443l-.016-.977c0-.741.003-2.185.016-4.324v-7.261c0-1.674-.181-3.813-.536-6.42l.14-.697v-.279c0-1.766-1.233-3.278-3.7-4.533a384.074 384.074 0 00-7.469-3.7l.139-.279c.092-.279.279-.58.558-.906.279-.324.463-.581.558-.768v-.279c.748-2.048 1.636-3.535 2.667-4.467 3.272.821 7.717 1.229 13.329 1.229 1.496 0 3.741-.044 6.734-.139h9.232c1.3-.371 3.199-.559 5.704-.559h.834c2.131 0 3.754-.178 4.87-.532h8.619c.371 0 .929-.134 1.671-.406.742-.27 1.297-.405 1.668-.405.463 0 1.021.282 1.671.84.646.558 1.157.933 1.528 1.116.371.187.881.653 1.532 1.398a33.441 33.441 0 016.537 6.008l.694.418-.14.14c.457.466 1.101 1.304 1.928 2.515.092.095.412.561.964 1.397l.276.14a167.127 167.127 0 013.719 6.849c2.02 3.633 3.031 6.053 3.031 7.264v.84c0 .279-.165.628-.491 1.047-.33.418-.492.77-.492 1.049-.282.653-.891 1.582-1.826 2.793-.19.374-.447.933-.773 1.678-.33.745-.961 1.582-1.896 2.514-2.248 4.939-7.349 10.343-15.307 16.208-.748.561-2.013 1.445-3.792 2.656l1.398.837v.14c.929 1.864 2.603 3.542 5.025 5.032l.558.837c.279.278.745.7 1.398 1.259 2.511 3.259 4.464 5.263 5.862 6.008.371.466 1.696 1.747 3.979 3.843 2.28 2.096 3.7 3.284 4.258 3.563.463.653 2.93 2.653 7.397 6.008 5.025 3.634 7.911 5.821 8.655 6.566 1.211 1.027 3.072 2.33 5.586 3.912.458.272 1.016.786 1.67 1.531zm-41.099-66.308c-.377-1.592-1.598-4.22-3.665-7.879-1.034-1.312-2.818-3.139-5.355-5.484v-.14c-4.001-2.907-7.213-4.689-9.632-5.346-.745-.188-3.538-.422-8.376-.704l-.14 4.062.279.14c0 .095-.048.282-.14.562-.095.278-.14.514-.14.7v1.398c0 1.214-.139 2.102-.418 2.66l.279.143c0 .748-.14 2.333-.418 4.759-.188 1.963-.279 3.551-.279 4.762 0 .748.044 1.89.14 3.431.092 1.541.14 2.733.14 3.57 0 1.217-.048 2.104-.14 2.663l-.279.278c.279.375.419.796.419 1.259 0 .656-.07 1.684-.209 3.085-.139 1.401-.209 2.426-.209 3.079 0 .187.045.466.14.84a8.8 8.8 0 000 .84c0 .374-.047.91-.14 1.611-.095.7-.139 1.236-.139 1.61 0 .562.044 1.449.139 2.66a89.132 89.132 0 000 2.66c0 .095.07.234.209.421.14.188.209.327.209.419 5.016-2.511 9.983-5.771 14.907-9.771 5.945-4.746 9.845-9.166 11.702-13.262.184-.559.463-1.348.837-2.372l.139-2.514.14-.14zm169.528 66.308l-.14.139c-2.143.745-3.722 1.582-4.742 2.515h-.14c-.653.095-1.541.514-2.657 1.262-3.538 1.03-7.584 3.367-12.143 7.014-.096-.188-.514-.514-1.256-.977-.19-1.398-2.606-4.239-7.26-8.525a3709.73 3709.73 0 01-9.214-8.522c-.933-1.211-2.467-2.467-4.604-3.773-.19-.652-2.327-2.701-6.424-6.147-3.538-2.98-5.446-4.474-5.726-4.474-3.627-3.164-7.07-5.82-10.329-7.964-.095 0-1.439-.929-4.046-2.793 0 1.211-.14 3.075-.418 5.586l-.285 3.631c.184.187.279 1.023.279 2.511 0 .932-.07 2.796-.209 5.586-.14 2.79-.209 4.839-.209 6.142 0 1.861.095 3.024.279 3.487-.095.374-.139 1.119-.139 2.235v.837c.837.279 1.953.419 3.354.419.463 0 1.205-.045 2.232-.14h2.232c1.395 0 2.466.187 3.215.558 1.021-.092 2.511-.279 4.464-.558l-1.953 3.211.14.14c-.47.279-1.027 1.072-1.675 2.372l.279.14c-.837 1.211-1.864 2.979-3.075 5.307l-.697.559c-.559-.374-1.072-.562-1.535-.562-1.306 0-2.231-.14-2.79-.422-2.518 0-4.654-.234-6.423-.703h-6.562c-.742 0-1.255-.181-1.535-.549-2.232.368-4.47.549-6.702.549h-2.232l-.139.117c-2.885 0-4.699.199-5.441.593h-.285c-.184 0-.444.048-.767.14-.324.095-.583.14-.767.14-.095 0-.279-.045-.558-.14 1.706-1.858 3.957-4.883 6.747-9.071.267-.745.717-1.816 1.351-3.212.178-.649.267-1.674.267-3.068.089-.185.177-.371.272-.559v-22.054l.438-.278c-.292-.742-.438-3.44-.438-8.095v-9.912l-.019-.14c0-.37.006-.976.019-1.813v-11.443l-.019-.977c0-.741.006-2.185.019-4.324v-7.261c0-1.674-.184-3.813-.539-6.42l.14-.697v-.279c0-1.766-1.23-3.278-3.697-4.533a384.164 384.164 0 00-7.47-3.7l.14-.279c.088-.279.279-.58.558-.906.279-.324.463-.581.558-.768v-.279c.749-2.048 1.636-3.535 2.663-4.467 3.272.821 7.717 1.229 13.329 1.229 1.496 0 3.741-.044 6.734-.139h9.232c1.3-.371 3.202-.559 5.707-.559h.831c2.131 0 3.754-.178 4.87-.532h8.623c.368 0 .926-.134 1.668-.406.742-.27 1.3-.405 1.668-.405.463 0 1.021.282 1.674.84.646.558 1.154.933 1.528 1.116.367.187.881.653 1.528 1.398a33.328 33.328 0 016.537 6.008l.697.418-.14.14c.457.466 1.098 1.304 1.928 2.515.089.095.412.561.964 1.397l.273.14a168.392 168.392 0 013.722 6.849c2.017 3.633 3.031 6.053 3.031 7.264v.84c0 .279-.165.628-.495 1.047-.329.418-.488.77-.488 1.049-.285.653-.894 1.582-1.826 2.793-.19.374-.45.933-.773 1.678-.329.745-.964 1.582-1.896 2.514-2.251 4.939-7.35 10.343-15.308 16.208-.748.561-2.017 1.445-3.792 2.656l1.396.837v.14c.932 1.864 2.606 3.542 5.028 5.032l.558.837c.279.278.742.7 1.396 1.259 2.511 3.259 4.464 5.263 5.865 6.008.367.466 1.693 1.747 3.976 3.843s3.703 3.284 4.261 3.563c.463.653 2.93 2.653 7.395 6.008 5.028 3.634 7.913 5.821 8.655 6.566 1.211 1.027 3.075 2.33 5.586 3.912.46.272 1.018.786 1.671 1.531zm-41.096-66.308c-.38-1.592-1.598-4.22-3.665-7.879-1.033-1.312-2.821-3.139-5.357-5.484v-.14c-4.002-2.907-7.21-4.689-9.633-5.346-.741-.188-3.538-.422-8.376-.704l-.14 4.062.279.14c0 .095-.044.282-.14.562-.095.278-.14.514-.14.7v1.398c0 1.214-.139 2.102-.418 2.66l.279.143c0 .748-.14 2.333-.418 4.759-.184 1.963-.279 3.551-.279 4.762 0 .748.044 1.89.14 3.431s.14 2.733.14 3.57c0 1.217-.044 2.104-.14 2.663l-.279.278c.279.375.419.796.419 1.259 0 .656-.07 1.684-.209 3.085s-.209 2.426-.209 3.079c0 .187.045.466.14.84a8.8 8.8 0 000 .84c0 .374-.044.91-.14 1.611-.095.7-.139 1.236-.139 1.61 0 .562.044 1.449.139 2.66a89.132 89.132 0 000 2.66c0 .095.07.234.209.421.14.188.209.327.209.419 5.016-2.511 9.987-5.771 14.907-9.771 5.948-4.746 9.848-9.166 11.705-13.262.185-.559.463-1.348.838-2.372l.139-2.514.139-.14zm120.225 69.317v.278c0 .188-.234.605-.697 1.253v.14l-.558.837c0 .932-.19 1.629-.559 2.092a28.81 28.81 0 01-.977 2.508c-.469 0-1.236-.082-2.308-.24-1.072-.159-1.884-.241-2.441-.241h-.698c-5.307 0-11.077-.323-17.311-.977-.095.095-.234.14-.418.14-.096 0-.234-.045-.419-.14h-.558c-.19 0-.374.095-.559.279-.189-.092-.652-.14-1.395-.14h-1.959c-.838.095-1.301.14-1.396.14-.279 0-.697-.045-1.256-.14h-1.255c-.47 0-.837.048-1.116.14-1.396 0-2.422.047-3.069.14h-.843c-1.675 0-3.906.26-6.696.779l-.279.26h-3.633v-.408c1.109-3.64 2.175-6.142 3.189-7.508 2.124-.273 4.07-.727 5.827-1.363.089 0 .184-.045.279-.137h.133c1.021-.371 2.594-.881 4.718-1.534.552-2.79.83-5.536.83-8.237v-2.375c.025-.463.025-.789 0-.976v-20.384c0-.837.127-2.511.381-5.024.025-2.512.025-4.28 0-5.305 0-1.674-.063-2.653-.19-2.933 0-1.208-.063-2.093-.19-2.653v-29.737c.025-.279.025-.742 0-1.395v-1.815c-.38-1.115-.57-1.908-.57-2.374l-1.852-.559h-.14c-.285-.092-.425-.184-.425-.278-.666-.374-2.378-.724-5.13-1.053-2.752-.327-4.268-.584-4.553-.773-.855 0-2.042-.279-3.563-.841.184-.558.514-1.306.977-2.244.374-1.493.558-2.103.558-1.823l.286-.279c.088-.466.602-1.306 1.534-2.523a.705.705 0 000-.282c-.095 0-.146-.044-.146-.14 0-.374.418-.561 1.255-.561h2.518c.742 0 1.763.148 3.069.443 1.3.298 2.276.444 2.93.444l.278-.14c.463 0 1.186-.045 2.162-.14.977-.092 1.751-.14 2.309-.14 1.021 0 1.953.14 2.79.419.374-.093.932-.14 1.674-.14.748 0 1.307.047 1.681.14l.278-.14c.838.095 2.138.14 3.906.14 1.674 0 4.211-.083 7.609-.254 3.398-.168 5.979-.254 7.748-.254.463 0 1.116-.063 1.953-.19.838-.126 1.439-.189 1.814-.189h.558c.184.758.653 1.705 1.401 2.841.463.627 1.021 1.565 1.674 2.814-.095.358-.33.536-.697.536-.096 0-.14-.044-.14-.14h-.279c-.095 0-.234.096-.418.279-.933.653-2.474.977-4.61.977-.279.374-.881.653-1.813.837-1.306.47-3.259 1.398-5.865 2.793l-.14.559-.14.14c.096.187.14.418.14.697.025.095.025.329 0 .7-.095.279-.14.514-.14.697v.279c0 4.097-.196 7.165-.596 9.214.209.095.317.326.317.697 0 .374-.108.793-.317 1.256v6.841c0 .374-.089 3.002-.26 7.888-.172 4.889-.261 8.402-.261 10.539 0 1.769.172 2.749.521 2.933v3.77h-.521c.35.188.521.558.521 1.116 0 .095-.171.326-.521.697.35.279.521.694.521 1.252.025.375.025.838 0 1.396-.349.653-.521 1.116-.521 1.392 0 .466.172.793.521.977-.438 1.116-.659 2.045-.659 2.787 0 .558.107 1.442.329 2.65.223 1.208.33 2.137.33 2.787 0 .837-.171 1.486-.521 1.949l.521.279-.659 2.232c.095.278.139.837.139 1.671 0 1.674-.095 3.068-.278 4.182l.038.418c0 .188-.013.467-.038.837-.096.375-.14.606-.14.698 0 .374.044.605.14.694v2.371l-.14.14c.184.279.279.837.279 1.671v2.511c0 .742.069 1.208.209 1.392.14.188 1.046.514 2.727.977l.837.559c.646 0 1.439.234 2.372.697.932 0 2.562.419 4.889 1.252 3.166 1.025 4.885 1.583 5.163 1.676zm141.894-64.115v1.535c0 12.834-1.303 24.552-3.905 35.154v.278c0 .467-.375 1.443-1.119 2.93v.279c0 .279-.21.583-.628.907-.419.326-.628.583-.628.767-1.864 2.327-4.61 5.209-8.237 8.649-.837.745-1.956 1.953-3.351 3.627 0-.092-.096-.14-.279-.14-.096 0-.234.048-.419.14-.652 1.122-3.678 3.57-9.073 7.349-5.399 3.779-9.029 6.04-10.891 6.785-1.211.47-2.746 1.215-4.607 2.241-1.023.279-3.442 1.212-7.257 2.797l-.279.562h-.278c-1.119 0-2.98-.35-5.587-1.044-1.116-.196-2.419-.494-3.905-.891l-.14-.298h-.14c-.748 0-2.074-.305-3.982-.907-1.908-.602-3.047-1.09-3.418-1.464-2.143-.093-6.236-1.858-12.285-5.299-6.05-3.437-9.911-6.131-11.585-8.084l-.282-.697c-.374-.463-1.071-1.021-2.093-1.675-6.049-5.39-10.192-10.36-12.425-14.917-.559-1.116-.837-4.321-.837-9.619 0-12.175.649-20.681 1.953-25.516.653-.371.979-1.905.979-4.601 1.021-.742 4.698-5.158 11.027-13.246 1.674-1.858 4.327-4.274 7.957-7.248.279-.558 2.581-2.463 6.909-5.716 4.327-3.253 6.725-4.924 7.19-5.02 2.698-1.395 5.909-3.393 9.632-5.995.837-.371 2.048-.837 3.63-1.395 13.681 4.188 23.269 7.818 28.76 10.887 5.491 3.069 10.377 6.604 14.657 10.603a512.55 512.55 0 006.981 7.396c.649.933 1.255 1.49 1.813 1.674l-.14.14a49.51 49.51 0 001.883 2.441c.79.977 1.744 2.584 2.863 4.815.279.467.742 1.072 1.395 1.813h.141zm-15.633 28.161c-.095-2.323-.187-4.695-.278-7.117-.279-3.352-1.024-6.471-2.235-9.356-.096-.092-.466-.837-1.116-2.231-.653-1.396-1.024-2.235-1.116-2.515-.558-.371-1.86-2.279-3.909-5.723v.14a491.63 491.63 0 01-2.793-3.63c-.837-.463-1.887-1.487-3.142-3.069-1.256-1.582-2.35-2.606-3.278-3.072-1.024-.932-2.698-2.327-5.025-4.188-2.144-1.49-3.726-2.514-4.746-3.072-1.864-1.021-3.678-1.721-5.444-2.096l-.281-.418c-.467-.092-1.909-.419-4.325-.977-1.769-.371-3.307-.558-4.606-.558h-.84c-.374 0-.977-.045-1.813-.14-.837-.092-1.49-.14-1.956-.14-.933 0-1.722.187-2.372.558l-.14-.14c-4.749.559-8.192 1.678-10.329 3.352h-.14c-1.307.837-3.398 2.096-6.284 3.77l-.977.977c-.278.279-.792.697-1.534 1.256-.748 1.027-1.864 2.656-3.352 4.889-.558.837-1.397 2.933-2.514 6.28-.933 2.702-1.396 5.818-1.396 9.354 0 6.236 1.583 12.473 4.747 18.709a48.657 48.657 0 0011.866 14.936c1.021.838 3.047 2.258 6.072 4.259 3.024 2.003 4.955 3.142 5.792 3.421 1.024.652 3.26 1.537 6.702 2.653 3.443 1.116 5.91 1.674 7.4 1.674h.418c.742.188 1.767.279 3.069.279.653 0 2.933-.323 6.842-.977 5.491-1.77 9.863-4.097 13.123-6.981v-.14c5.025-3.724 8.328-10.38 9.91-19.967zm145.151 32.945l-.14.139c-2.144.745-3.723 1.582-4.743 2.515h-.14c-.652.095-1.541.514-2.656 1.262-3.539 1.03-7.584 3.367-12.144 7.014-.095-.188-.514-.514-1.255-.977-.19-1.398-2.606-4.239-7.261-8.525-6.05-5.587-9.118-8.428-9.214-8.522-.932-1.211-2.466-2.467-4.604-3.773-.189-.652-2.326-2.701-6.423-6.147-3.538-2.98-5.447-4.474-5.726-4.474-3.627-3.164-7.07-5.82-10.33-7.964-.095 0-1.439-.929-4.045-2.793 0 1.211-.14 3.075-.419 5.586l-.285 3.631c.184.187.279 1.023.279 2.511 0 .932-.07 2.796-.21 5.586-.139 2.79-.209 4.839-.209 6.142 0 1.861.096 3.024.279 3.487-.096.374-.14 1.119-.14 2.235v.837c.837.279 1.953.419 3.354.419.463 0 1.205-.045 2.231-.14h2.232c1.396 0 2.467.187 3.215.558 1.021-.092 2.511-.279 4.464-.558l-1.953 3.211.14.14c-.469.279-1.027 1.072-1.674 2.372l.279.14c-.837 1.211-1.864 2.979-3.075 5.307l-.698.559c-.558-.374-1.071-.562-1.534-.562-1.307 0-2.232-.14-2.79-.422-2.518 0-4.654-.234-6.424-.703h-6.563c-.742 0-1.256-.181-1.534-.549a41.176 41.176 0 01-6.703.549h-2.231l-.14.117c-2.885 0-4.702.199-5.443.593h-.282c-.188 0-.444.048-.768.14-.326.095-.583.14-.768.14-.095 0-.278-.045-.558-.14 1.706-1.858 3.953-4.883 6.743-9.071.27-.745.72-1.816 1.351-3.212.178-.649.27-1.674.27-3.068.089-.185.178-.371.27-.559v-22.054l.441-.278c-.295-.742-.441-3.44-.441-8.095v-9.912l-.016-.14c0-.37.003-.976.016-1.813v-11.443l-.016-.977c0-.741.003-2.185.016-4.324v-7.261c0-1.674-.181-3.813-.535-6.42l.139-.697v-.279c0-1.766-1.232-3.278-3.699-4.533a387.012 387.012 0 00-7.47-3.7l.14-.279c.092-.279.278-.58.558-.906.279-.324.463-.581.558-.768v-.279c.749-2.048 1.637-3.535 2.667-4.467 3.271.821 7.717 1.229 13.328 1.229 1.497 0 3.741-.044 6.734-.139h9.232c1.3-.371 3.202-.559 5.707-.559h.831c2.13 0 3.754-.178 4.869-.532h8.624c.368 0 .926-.134 1.668-.406.741-.27 1.3-.405 1.667-.405.463 0 1.021.282 1.674.84.647.558 1.154.933 1.528 1.116.368.187.882.653 1.528 1.398a33.333 33.333 0 016.538 6.008l.697.418-.14.14c.457.466 1.097 1.304 1.928 2.515.089.095.412.561.964 1.397l.272.14a169.645 169.645 0 013.723 6.849c2.016 3.633 3.03 6.053 3.03 7.264v.84c0 .279-.165.628-.494 1.047-.33.418-.488.77-.488 1.049-.285.653-.895 1.582-1.826 2.793-.19.374-.45.933-.773 1.678-.33.745-.964 1.582-1.896 2.514-2.251 4.939-7.349 10.343-15.307 16.208-.748.561-2.017 1.445-3.792 2.656l1.395.837v.14c.933 1.864 2.606 3.542 5.029 5.032l.558.837c.278.278.741.7 1.395 1.259 2.512 3.259 4.464 5.263 5.866 6.008.367.466 1.692 1.747 3.976 3.843 2.282 2.096 3.703 3.284 4.261 3.563.463.653 2.93 2.653 7.394 6.008 5.028 3.634 7.913 5.821 8.655 6.566 1.211 1.027 3.075 2.33 5.587 3.912.464.272 1.022.786 1.675 1.531zm-41.096-66.308c-.381-1.592-1.599-4.22-3.665-7.879-1.034-1.312-2.822-3.139-5.358-5.484v-.14c-4.001-2.907-7.21-4.689-9.632-5.346-.742-.188-3.538-.422-8.376-.704l-.14 4.062.278.14c0 .095-.044.282-.139.562-.096.278-.14.514-.14.7v1.398c0 1.214-.14 2.102-.419 2.66l.279.143c0 .748-.14 2.333-.419 4.759-.184 1.963-.278 3.551-.278 4.762 0 .748.044 1.89.14 3.431.095 1.541.139 2.733.139 3.57 0 1.217-.044 2.104-.139 2.663l-.279.278c.279.375.418.796.418 1.259 0 .656-.069 1.684-.209 3.085s-.209 2.426-.209 3.079c0 .187.044.466.14.84a8.8 8.8 0 000 .84c0 .374-.045.91-.14 1.611-.096.7-.14 1.236-.14 1.61 0 .562.044 1.449.14 2.66a89.132 89.132 0 000 2.66c0 .095.069.234.209.421.14.188.209.327.209.419 5.016-2.511 9.987-5.771 14.908-9.771 5.947-4.746 9.848-9.166 11.705-13.262.184-.559.463-1.348.837-2.372l.14-2.514.14-.14zm146.28-.269l-.14.834c-3.538.371-7.305.973-11.306 1.807h-.837v-.418c0-.463-.272-1.068-.806-1.817v-.278c0-.463-.234-1.256-.697-2.372-.095-.092-1.307-3.909-3.634-11.448-2.518-.092-5.732-.65-9.645-1.674l-8.947-2.235c-2.238-.558-3.678-.837-4.33-.837-.653 0-1.77.885-3.354 2.653-.279.653-.793 1.722-1.535 3.209v.14l-.932 1.677v1.813c0 1.027.044 1.633.14 1.816.095.467.33 1.164.703 2.093 0 .279.279 1.024.844 2.235s.938 1.861 1.129 1.953c.279.653.748 1.442 1.401 2.375.279.374.659.976 1.129 1.813 1.217 1.023 2.485 2.793 3.798 5.304l.419.419c.278 0 .868.652 1.756 1.956.888 1.303 1.427 2 1.617 2.092l-.14.14c.653.47 1.579 1.703 2.79 3.703 1.211 2.001 2.048 3.095 2.518 3.278 1.857 2.049 4.375 5.308 7.539 9.771.374.562 1.021 1.398 1.953 2.515v.14c1.027 1.303 2.67 2.933 4.921 4.886.374.932.558 1.721.558 2.374v.419c-.184.374-.514.837-.977 1.395-.278.837-1.681 3.443-4.191 7.818-2.517 4.376-3.956 6.747-4.331 7.121-1.027 1.303-2.143 3.164-3.354 5.583-1.212 2.423-2.232 4.188-3.069 5.305-.19 1.023-.723 2.025-1.61 3.002a73.564 73.564 0 01-2.581 2.721c-.19 0-.514.025-.983.072-.463.048-.862.165-1.186.35-.323.187-1.654.349-3.981.488s-3.817.349-4.471.627c-1.116 0-2.372.235-3.767.698-.095 0-.19-.045-.279-.14h-.425c-.741 0-1.883.229-3.417.685-1.541.453-2.543.682-3.006.682-4.565.364-7.495.958-8.802 1.778h-.14c-.278 0-.627.203-1.046.609-.419.405-.723.608-.907.608h-.139c-.375-.748-.609-1.306-.704-1.677l-.837-.698.279-.278c-.096-.653-.463-1.49-1.116-2.518-.463-.742-1.021-1.884-1.675-3.421-.652-1.538-2.631-4.661-5.935-9.365-3.304-4.705-5.092-7.337-5.371-7.895-.748-1.024-1.959-2.562-3.633-4.613 0-.279-.185-.628-.559-1.047-.374-.418-.558-.814-.558-1.188l-.279-.14c.463-1.211 2.512-2.282 6.145-3.215h.14c.184 0 .374.213.558.631.185.419.419.628.697.628h.14l.559.558v.279c2.144 2.048 5.631 4.492 10.469 7.33s8.655 4.721 11.452 5.653c.652.187 1.534.558 2.65 1.116v-.14c1.3.558 2.923.932 4.876 1.116.089.281.412.446.97.491.559.047.882.117.977.209 2.41.374 4.591.558 6.544.558 2.042 0 3.665-.278 4.87-.837.463-2.6.697-5.013.697-7.244v-1.396c0-4.362-1.623-8.636-4.876-12.817-.653-1.579-1.63-2.832-2.93-3.764-.837-1.205-1.439-1.95-1.813-2.229-1.857-2.321-5.39-6.316-10.589-11.984-4.648-4.921-8.136-9.011-10.457-12.264-.932-.647-1.395-4.502-1.395-11.566 0-1.671.044-2.647.14-2.926 1.395-1.95 3.024-3.947 4.889-5.992 2.511-3.158 6.233-7.523 11.166-13.098.279-.649 1.725-1.811 4.331-3.484l4.186-.834c.653 0 4.045-.418 10.189-1.255s9.499-1.348 10.057-1.535c0-.089.045-.32.14-.694a12.183 12.183 0 010-.977c0-1.857-.19-3.109-.558-3.763 0-.368.089-.926.278-1.671.559-.092 1.439-.14 2.65-.14h7.12l.279.694c.279 6.303 1.908 14.362 4.889 24.181l1.116 2.227-.14.275c.559 1.113 1.439 2.78 2.65 5.003.463 1.205.837 1.947 1.116 2.226.656 1.022 1.302 2.271 1.956 3.752z"/></svg>