<svg xmlns="http://www.w3.org/2000/svg" width="1000" height="1000" viewBox="-209.056 0 1000 1000" overflow="visible"><path d="M16.89 893.551h18.645v32.555h34.329v-32.555h18.649v84.835h-18.65V941.78H35.535v36.606H16.89v-84.835zm79.572 42.299c.954-15.792 15.095-20.562 28.867-20.562 12.248 0 26.979 2.739 26.979 17.46v31.964c0 5.586.584 11.172 2.123 13.675h-17.1c-.59-1.913-1.067-3.929-1.185-5.944-5.339 5.57-13.187 7.596-20.66 7.596-11.653 0-20.921-5.826-20.921-18.413 0-13.9 10.458-17.224 20.921-18.655 10.325-1.549 19.947-1.189 19.947-8.078 0-7.247-4.985-8.314-10.93-8.314-6.417 0-10.571 2.616-11.166 9.273H96.462zm38.971 12.48c-2.852 2.498-8.791 2.605-14.012 3.55-5.232 1.066-9.981 2.852-9.981 9.032 0 6.298 4.868 7.837 10.33 7.837 13.187 0 13.664-10.443 13.664-14.136v-6.283zm23.994-31.374h16.023v11.412h.246c3.093-7.72 9.083-13.08 17.285-13.08 1.185 0 .852.236 1.934.611v15.669c-1.544-.354-2.298-.59-4.319-.59-12.351 0-14.295 8.914-14.295 19.727v27.682h-16.875v-61.431zm40.74-23.405h16.869v84.835h-16.869v-84.835zm38.125 58.21c.482 10.699 5.709 15.562 15.085 15.562 6.786 0 12.243-4.145 13.31-7.966h14.849c-4.745 14.495-14.849 20.681-28.749 20.681-19.362 0-31.359-13.311-31.359-32.313 0-18.423 12.71-32.437 31.359-32.437 20.906 0 31.01 17.588 29.825 36.474h-44.32zm27.451-10.694c-1.544-8.555-5.231-13.063-13.428-13.063-10.699 0-13.777 8.319-14.023 13.063h27.451zM350.09 1000h-16.87v-29.344h-.24c-3.908 6.652-11.997 9.381-19.357 9.381-11.289 0-26.02-8.201-26.02-31.959 0-16.865 8.91-32.791 27.564-32.791 7.601 0 14.849 2.739 18.649 9.515h.241v-7.847h16.033V1000zm-31.01-32.677c10.936 0 14.736-9.264 14.736-19.367 0-9.607-3.801-19.952-14.377-19.952-10.925 0-14.962 9.739-14.962 19.721 0 9.867 3.56 19.598 14.603 19.598zm95.39 11.063h-16.044v-8.571h-.349c-4.272 6.894-11.638 10.223-18.762 10.223-17.937 0-22.461-10.094-22.461-25.307v-37.775h16.87v34.692c0 10.084 2.97 15.079 10.802 15.079 9.146 0 13.074-5.103 13.074-17.576v-32.195h16.869v61.43zm24.225-70.925h-16.869v-13.91h16.869v13.91zm-16.869 9.495h16.869v61.431h-16.869v-61.431zm24.229 0h16.038v8.545h.359c4.268-6.873 11.648-10.213 18.772-10.213 17.941 0 22.445 10.104 22.445 25.312v37.786h-16.864v-34.693c0-10.104-2.976-15.09-10.812-15.09-9.146 0-13.063 5.108-13.063 17.577v32.206h-16.875v-61.43zm77.572 41.458c.118 7.365 6.293 10.335 12.95 10.335 4.868 0 11.043-1.897 11.043-7.837 0-5.108-7.006-6.889-19.131-9.499-9.74-2.145-19.476-5.586-19.476-16.398 0-15.674 13.536-19.727 26.738-19.727 13.418 0 25.769 4.52 27.081 19.604h-16.043c-.478-6.523-5.473-8.314-11.525-8.314-3.796 0-9.381.724-9.381 5.704 0 6.067 9.499 6.889 19.116 9.14 9.862 2.272 19.49 5.838 19.49 17.239 0 16.156-14.013 21.378-28.03 21.378-14.264 0-28.164-5.345-28.887-21.624h16.055z"/><path fill="#FFF" d="M251.181 107.18c.092.195 1.057 1.118 1.282 2.564.903 5.647 2.113 19.183 5.734 27.374.8 1.821 1.847 3.595 2.616 5.534 5.027 12.769 17.265 27.11 31.595 26.135 29.431-2.011 34.134-42.61 34.134-62.306 0-16.551-38.391-22.537-38.391-22.537-15.448 2.473-34.457 18.127-36.97 23.236"/><path fill="#FFF" d="M281.602 853.534l-.01.006a7.799 7.799 0 01-1.6-4.766c.195-5.77 4.873-10.468 7.17-12.223 6.514-4.585 13.694-7.627 16.311-14.068 1.046-2.339.615-5.534 1.436-9.684.247-1.164.514-4.438.503-7.16.011-1.621-.103-3.149-.256-3.821-.482-2.227-.555-4.447-.555-6.597v-2.887c.011-2.113-.071-4.14-.461-5.971-.729-3.421-.359-6.785-1.036-9.499-2.093-9.217-2.247-18.47-5.067-25.999-4.247-11.484-10.808-21.66-17.521-31.195-1.938-2.795-4.359-5.586-6.478-8.674-2.846 2.949-4.754 8.238-7.062 12.812-3.98 7.643-7.047 15.301-9.371 24.769-.621 2.519-.744 5.406-.744 8.54 0 1.56.036 3.186.036 4.883 0 1.492-.016 2.975-.016 4.447 0 6.176.134 12.074 1.257 16.987.764 3.56.349 6.242 1.01 8.704 1.103 4.411 1.955 8.761 3.498 12.289.893 2.334 4.032 4.493 5.458 8.392.328.959.431 1.929.431 2.847-.01 2.59-.841 5-1.139 6.457l-.174.785-.662.456c-2.046 1.375-4.426 1.878-6.765 1.878-6.929-.057-14.254-4.078-17.793-6.201-7.032-4.334-14.233-8.566-18.926-16.096-1.441-2.339-2.395-5.129-3.072-7.766-.328-1.317-.405-2.584-.405-3.759 0-1.277.077-2.452.077-3.468 0-1.098-.108-1.97-.349-2.539-3.221-7.821-8.925-14.762-13.936-21.727-2.549-3.56-5.473-7.058-8.211-10.797-1.159-1.631-3.488-3.4-4.842-6.262-.708-1.57-1.251-3.673-1.262-5.92 0-.969.097-1.969.39-2.938 2.975-9.971 12.782-14.787 20.557-18.829 1.385-.482 2.77-.99 4.165-1.492 4.006-2.391 8.217-6.848 11.386-11.018.841-.718 1.693-1.492 2.288-1.984 2.975-3.944 6.288-7.182 9.211-11.022.923-.929 1.857-1.888 2.636-2.642 1.416-1.862 2.791-3.842 4.473-5.786.688-.697 1.795-1.811 2.329-2.437-.446-.477-1.251-1.128-2.174-2.215-2.493-3.345-5.396-6.545-7.986-10.053-6.657-9.033-13.782-17.654-20.583-26.764-2.164-2.919-5.16-5.622-7.714-8.997-3.365-4.555-9.961-8.313-14.177-13.915-3.18-4.313-4.903-9.406-6.242-15.156l-.057-.241v-4.35c0-8.627 2.462-14.895 4.186-21.378 1.277-4.596.513-10.488 1.774-16.397.082-.359.123-.944.123-1.59 0-.651-.03-1.37-.041-2.103.011-.575.021-1.149.144-1.775.175-8.17.349-16.336.508-24.507v-.194l.046-.205c.379-1.693.467-3.575.467-5.591 0-1.329-.046-2.724-.046-4.149 0-2.19.093-4.457.601-6.734.795-3.283.036-7.725 1.046-12.346.457-1.831.087-4.621.765-7.734 1.651-7.119 1.385-15.049 3.354-22.697 4.514-17.259 7.725-34.821 13.705-50.885 1.169-3.108 1.672-6.309 3.119-9.838 3.467-8.412 6.637-17.039 10.309-25.532 1.441-3.247 4.083-7.602 4.929-10.361a34.15 34.15 0 01-.21-1.446v-7.965c0-1.678.01-3.257.01-4.786 0-5.699-.154-10.351-1.472-15.264-2.19-8.083-3.062-15.449-5.853-22.163-5.231-12.736-10.699-25.025-15.951-37.827-2.473-6.104-2.503-12.479-3.965-18.854l-.057-.226v-9.109c-.271-.457-1.062-1.231-1.908-2.257-3.754-5.067-9.027-7.878-15.13-11.582-12.638-7.714-27.092-13.674-40.14-21.619-3.242-1.985-7.006-3.113-10.812-5.391-7.693-4.688-15.951-8.874-23.327-14.254-4.062-3.042-7.14-6.98-10.545-9.545-4.088-3.093-8.109-7.104-11.212-11.202-1.601-2.165-4.247-4.103-6.422-6.939-2.021-2.724-5.411-5.142-7.981-8.499-7.74-10.243-16.823-19.47-24.712-30.115-2.072-2.824-4.883-5.601-7.216-8.761-4.242-5.752-8.073-11.507-11.91-17.608-1.457-2.38-3.914-4.686-4.775-8.688-.226-.2-.59-.323-.872-1.144-2.677-2.8-3.513-4.762-3.908-5.083-2.698-2.034-5.19-4.347-7.201-7.214-1.139.608-2.441 1.262-3.991 1.633a8.599 8.599 0 01-1.99.229C7.509 90.946.446 87.199 0 80.901c0-.567.077-1.167.251-1.71 1.513-5.014 5.57-7.161 8.196-9.394-.379-1.057-.482-2.167-.503-3.234.021-1.657.272-3.203.97-4.521l.139-.261.185-.188c1.133-1.292 2.688-2.267 4.795-2.554.816-3.452 3.801-5.526 6.812-5.508.036 0 .174 0 .154.013.251.005.508.01.733.018.482-.838 1.113-2.139 3.078-3.462a7.862 7.862 0 013.067-.631c.923.005 1.713.146 2.359.282.523-.716 1.293-1.721 2.75-2.452l.154-.077.205-.054c.954-.239 1.826-.359 2.646-.359 2.514-.011 4.119 1.187 5.293 1.861 2.195 1.59 2.985 3.178 3.791 3.696 2.877-1.644 7.473-2.413 9.853-3.172 1.2-.162 2.4-.326 3.611-.487.667-.333 1.969-1.372 3.318-2.203 1.359-.59 2.744-1.197 3.985-1.733 2.651-1.372 5.673-3.126 8.611-4.434 7.181-3.17 14.531-5.839 21.66-8.771 2.821-1.144 30.795-10.188 43.007-13.217 21.476-5.296 36.791-8.335 54.281-11.343 12.454-2.133 37.638-5.031 56.913-5.96 7.047-.685 25.635-.882 38.263-1.033.57-.013 1.329-.013 2.267-.013 8.925 0 33.719.305 50.963 1.829 13.52 1.156 60.44 6.757 91.092 13.674 18.301 4.132 35.011 8.512 51.403 13.949 5.468 1.818 10.721 3.377 15.962 5.152 1.724.59 5.919 1.69 8.166 2.288.39-.384.831-.846.995-1.154l.164-.272.267-.218c1.2-.993 1.21-1.341 3.046-3.183 1.396-1.362 3.231-3.203 5.355-4.293 1.23-.62 2.564-.859 3.836-.859 1.129 0 2.227.185 3.242.631 1.99.818 3.385 1.982 4.452 3.75.349.598.595 1.233.759 1.882 1.221-.423 2.555-.595 3.898-.608 1.508 0 3.047.238 4.482.785l.205.075.226.144c1.478.91 2.257 2.306 2.637 3.785 2.195.154 4.493.867 5.826 3.372.175.478.503 1.131.708 2.034 4.523 1.195 6.504 5.508 6.34 9.373 0 2.683-.678 5.396-1.683 7.804-3.088 7.235-8.36 12.867-12.945 18.042-2.134 2.19-5.714 5.052-6.863 7.204l1.519 1.352-1.364 1.502c-.657.631-.975 2.124-2.083 4.075-1.928 3.149-3.446 6.896-5.683 10.548-4.996 8.214-8.873 17.847-14.146 26.51-1.785 2.888-2.771 6.353-4.904 9.784-11.499 18.5-26.578 33.593-39.196 50.329-10.433 13.782-26.373 22.599-43.053 29.461-4.329 1.754-8.617 2.103-12.484 3.4-5.663 1.872-10.925 4.293-15.121 7.422-1.385 1.021-2.954 3.016-4.226 4.739-2.083 2.801-4.35 5.509-6.073 8.345-4.124 6.724-6.288 15.797-8.75 24.46-.688 4.544-1.364 9.099-2.103 13.9a571.448 571.448 0 01-6.966 22.722c-1.539 4.616-1.99 9.602-3.898 14.741-3.733 10.115-6.894 20.855-9.16 32.211-.154.718-.226 1.241-.226 1.641 0 .431.051.744.236 1.452.431 2.995.861 6.006 1.292 9.176.175 2.821.339 5.652.513 8.479 1.416 4.334 5.591 10.269 8.217 14.521 4.914 8.042 8.771 16.967 12.475 25.737 4.38 10.351 6.493 21.953 9.611 32.918 1.088 3.918 1.098 7.252 2.062 10.556 3.959 13.977 6.749 27.6 10.555 41.176 1.58 5.684 1.621 11.556 2.903 16.757 1.344 10.807 2.729 21.614 4.113 32.544.175 2.585.349 5.154.473 7.432 2.144 9.895.267 21.696 2.318 30.626l.03.153.011.211c.082 2.093.164 4.19.256 6.277.749 3.822.257 7.556.985 10.607.276 1.257.789 3.544.8 5.832-.011.861-.082 1.733-.308 2.615-1.159 4.021-3.98 5.586-5.231 7.376-3.324 4.391-7.633 8.452-11.664 11.453-.595.661-1.189 1.37-2.103 2.318-3.56 2.683-7.017 5.816-10.863 8.556-13.767 9.719-28.087 18.695-42.562 27.584-7.129 4.38-14.525 8.438-21.696 12.402-1.59.8-5.385 2.528-6.482 3.508 1.005 2.601 1.189 4.826 1.949 6.602 1.897 4.667 3.446 9.406 5.385 13.838 1.693 3.836 4.094 8.012 5.93 12.094 3.446 7.781 6.78 15.321 10.945 22.163 2.421 4.021 3.775 8.104 6.031 11.361.042.046.093.097.145.144.789.723 1.969 1.811 3.56 3.303 2.421 2.4 4.523 4.96 6.708 7.227 3.919 4.032 8.443 9.936 11.141 15.111.574 1.123 1.621 3.312 1.651 5.754 0 .795-.133 1.652-.563 2.478-.79 1.867-2.093 2.514-2.268 2.924-2.318 3.139-4.77 6.047-6.955 9.001-4.893 6.647-9.355 13.295-13.808 20.45-1.303 2.103-2.872 4.241-3.724 6.19-.902 2.062-1.6 4.457-2.195 6.879-.789 2.959-.235 6.195-1.641 9.791-2.688 6.529-8.453 10.802-14.434 13.438-6.873 2.996-15.603 5.283-25.01 5.314-.923 0-2.041.025-3.189.025-3.267-.213-7.334.275-9.457-3.147zm-5.437-146.619c2.092 3.482 5.078 6.796 7.642 10.447 6.766 9.623 13.541 20.091 17.982 32.108 3.118 8.458 3.2 17.839 5.222 26.477.82 3.621.451 7.062 1.046 9.565.493 2.303.555 4.611.564 6.822 0 .969-.01 1.938-.01 2.887 0 2.062.082 3.991.472 5.745.256 1.262.338 2.878.349 4.673-.011 2.995-.246 6.211-.605 7.985-.738 3.272-.144 6.647-1.651 10.407-3.611 8.371-11.869 11.515-17.68 15.787-1.493.918-5.678 5.821-5.483 8.955 0 .872.205 1.58.774 2.334l.175.23.107.283c0 .01.277.425 1.508.687 1.165.272 2.831.349 4.483.349 1.098 0 2.205-.025 3.189-.025 8.74-.01 16.978-2.175 23.399-4.965 5.427-2.391 10.228-6.124 12.33-11.289.975-2.159.544-5.299 1.446-9.228.637-2.519 1.375-5.124 2.432-7.54 1.128-2.528 2.82-4.774 3.99-6.683 4.503-7.231 9.017-13.987 13.992-20.711 2.277-3.104 4.729-6.007 6.944-9.022 1.149-1.364 1.733-1.667 1.785-2.025l.062-.205.093-.154c.041-.057.112-.262.112-.621.041-1.092-.779-3.159-1.2-3.867-2.421-4.698-6.821-10.483-10.453-14.197-2.359-2.441-4.441-4.97-6.616-7.14-1.539-1.426-2.708-2.503-3.498-3.236-.913-.872-.913-.795-1.426-1.385 0-.011-.011-.025-.011-.036-.01-.016-.021-.03-.03-.046-.052-.036-.123-.062-.216-.354-.123-.261-.194-.522-.153-.743-1.97-3.375-3.222-6.837-5.047-9.812-4.34-7.141-7.745-14.854-11.182-22.609-1.703-3.816-4.124-7.996-5.939-12.115-2.052-4.678-3.611-9.457-5.427-13.945-1.118-2.837-1.231-5.232-2.277-7.371l-.246-.533.071-.584c.657-2.662 2.606-3.35 4.329-4.447 1.785-.97 3.734-1.801 4.422-2.19 7.181-3.975 14.535-8.007 21.542-12.3 14.464-8.883 28.712-17.828 42.346-27.45 3.59-2.55 7.026-5.652 10.483-8.228.585-.641 1.17-1.328 2.083-2.308 4.072-3.072 8.165-6.93 11.181-10.931 2.113-2.656 3.97-3.656 4.555-5.99.113-.416.175-.97.164-1.59.011-1.678-.431-3.77-.687-4.949-.883-4.062-.359-7.93-1.037-10.828l-.03-.164-.011-.174c-.082-2.083-.174-4.191-.246-6.264-2.144-10.012-.287-21.747-2.328-30.764-.175-2.58-.339-5.149-.513-7.611-1.364-10.812-2.739-21.609-4.062-32.2-1.354-5.611-1.405-11.418-2.821-16.408-3.847-13.761-6.646-27.369-10.556-41.166-1.098-3.955-1.107-7.288-2.052-10.545-3.169-11.212-5.293-22.675-9.447-32.447-3.693-8.76-7.499-17.5-12.207-25.214-2.534-4.185-6.955-10.253-8.688-15.613l-.082-.251-.011-.241-.513-8.597c-.421-2.995-.841-6.001-1.2-8.704a7.68 7.68 0 01-.349-2.313c0-.815.123-1.61.297-2.452 2.309-11.561 5.54-22.506 9.346-32.795 1.692-4.498 2.154-9.417 3.836-14.597a625.527 625.527 0 006.873-22.316c.688-4.544 1.364-9.099 2.104-13.895 2.503-8.791 4.637-18.162 9.232-25.712 1.938-3.185 4.287-5.97 6.268-8.653 1.333-1.754 2.985-3.99 5.067-5.555 4.688-3.498 10.319-6.047 16.249-8.006 4.473-1.452 8.657-1.826 12.218-3.303 16.423-6.745 31.687-15.331 41.36-28.179 12.874-17.029 27.841-32.021 39.012-50.034 1.774-2.788 2.78-6.252 4.894-9.75 5.047-8.271 8.924-17.89 14.146-26.509 2.011-3.28 3.528-7.006 5.662-10.538.391-.585.646-1.388 1.057-2.295l-.246-.069.195-1.721c.852-5.252 6.504-8.445 8.227-10.635 4.627-5.206 9.54-10.558 12.249-16.931.82-1.962 1.364-4.272 1.364-6.245-.185-3.377-.975-5.175-4.36-5.665l-1.148-.131-.472-1.046a1.97 1.97 0 01-.175-.849v-.027c-.01-.936-.185-1.034-.554-2.113-.123-.426-1.159-.99-3.19-.979-.175 0-.369 0-.595.01l-1.837.077-.226-1.821c-.39-2.1-.205-1.893-1.066-2.593a9.224 9.224 0 00-2.79-.426c-1.334-.018-2.605.315-3.231.618a3.51 3.51 0 01-.246.831c-.134.261-.554 1.297-2.042 1.395h-2.093l.093-2.09c.01-.241.021-.459.021-.677.052-1.167-.4-3.16-.513-3.17-1.047-1.472-.975-1.428-2.739-2.277-.339-.154-.943-.285-1.601-.285-.738 0-1.508.175-2.01.436-1.303.621-3.047 2.234-4.35 3.552-1.426 1.402-1.631 1.946-3.057 3.19-.975 1.416-2.34 2.482-2.391 2.564l-.82.674-1.026-.282c-1.456-.416-7.067-1.841-9.468-2.649-5.15-1.744-10.392-3.311-15.941-5.142-16.219-5.383-32.806-9.743-51.014-13.838-30.282-6.842-77.265-12.466-90.559-13.597-16.978-1.505-41.782-1.821-50.614-1.821-.929 0-1.677.01-2.221.023-12.571.131-31.303.349-38.017 1.013-19.147.916-44.326 3.824-56.528 5.916-17.434 3.006-32.6 6.004-53.999 11.287-11.776 2.9-40.207 12.094-42.438 13.022-7.227 2.972-14.556 5.642-21.562 8.737-2.662 1.167-5.626 2.888-8.504 4.38a190.64 190.64 0 01-3.877 1.667c-.831.469-2.221 1.788-3.918 2.485l-.236.074-.215.034c-1.292.174-2.57.349-3.56.459-2.508.674-8.319 2.133-9.058 2.952l-.687.577-.893-.121c-4.011-.805-4.965-4.237-5.857-4.38-1.539-.893-2.062-1.305-3.283-1.318-.379 0-.867.057-1.487.198-.508.31-.923 1.105-2.087 2.354l-.718.718-1.01-.164c-1.18-.195-2.031-.457-2.811-.446a4.56 4.56 0 00-1.169.141c-1.036.633-.872 1.274-2.411 3.236l-.246.285-.328.174c-.764.292-.903.272-1.067.262a.617.617 0 00-.287.01c-.416 0-.923-.021-1.523-.041v.008c-1.677.121-2.888.762-3.021 3.431l-.021 1.972-1.97.013c-2.564.153-2.288.123-3.513 1.246-.18.482-.375 1.449-.354 2.349-.031 1.121.303 2.19.523 2.395l1.118 1.385-1.252 1.274c-3.498 3.4-7.355 5.111-8.258 8.707a2.053 2.053 0 00-.087.577c-.057 1.1 1.021 2.79 2.939 4.108 1.856 1.318 4.349 2.167 6.062 2.146.4 0 .759-.044 1.067-.11 1.426-.326 2.964-1.274 4.708-2.157l1.651-.818.964 1.592c1.815 3.039 4.277 5.447 7.427 7.845 1.539 1.656 1.841 3.005 4.534 5.698l1.733 1.721-.343.229c.082.236.164.531.241.905a.965.965 0 010 .279c.616 2.403 2.344 4.19 4.145 6.955 3.816 6.058 7.591 11.725 11.746 17.38 2.062 2.811 4.873 5.601 7.211 8.748 7.663 10.353 16.736 19.57 24.691 30.084 2.016 2.713 5.406 5.142 7.976 8.499 1.667 2.244 4.293 4.162 6.417 6.937 2.857 3.775 6.668 7.576 10.443 10.433 3.97 3.026 7.017 6.95 10.499 9.499 7.006 5.129 15.167 9.273 23.035 14.054 3.211 1.964 6.996 3.108 10.812 5.396 12.679 7.745 27.138 13.705 40.15 21.629 5.904 3.616 11.797 6.642 16.244 12.592.395.636 1.893 1.626 2.626 3.693l.087.297v9.33c1.488 6.816 1.621 12.951 3.714 18.008 5.231 12.741 10.699 25.03 15.951 37.832 3.042 7.396 3.914 14.925 6.017 22.64 1.472 5.478 1.616 10.556 1.616 16.311v4.786c0 2.657 0 5.309-.036 7.657.087.493.174 1.005.262 1.56l.067.415-.108.416c-1.036 3.744-3.959 8.319-5.252 11.314-3.611 8.35-6.77 16.957-10.278 25.471-1.231 2.97-1.744 6.135-3.057 9.715-5.821 15.592-9.038 33.052-13.582 50.501-1.816 6.853-1.56 14.756-3.334 22.578-.534 2.18-.164 4.847-.759 7.714-.862 3.564-.092 7.93-1.046 12.356-.405 1.784-.502 3.77-.502 5.842 0 1.338.041 2.733.041 4.149 0 2.062-.072 4.165-.513 6.272-.164 8.182-.338 16.352-.508 24.518v.199l-.066.246c-.031.123-.072.534-.062 1.037-.01.59.031 1.317.031 2.103 0 .774-.021 1.601-.215 2.462-1.139 4.949-.328 10.854-1.826 16.562-1.815 6.802-4.042 12.51-4.042 20.342v3.919c1.282 5.416 2.872 9.863 5.519 13.443 3.405 4.693 9.955 8.432 14.161 13.89 2.21 2.975 5.206 5.667 7.714 9.012 6.725 9.001 13.849 17.618 20.594 26.784 2.431 3.277 5.329 6.478 7.965 10.021.349.652 2.18 1.473 3.124 3.878l-1.046.56 1.149-.134s.01.066.01.241c0 .005-.005.016-.005.021 0 .046-.005.097-.005.164l-.026-.005-1.4-.139-.585.308-.01 1.646c1.19-.062 1.693-.872 1.898-1.385-.713 2.642-2.842 3.56-3.452 4.555-1.482 1.708-2.811 3.616-4.457 5.76-.949.959-1.897 1.908-2.646 2.642-2.985 3.929-6.288 7.176-9.284 11.1-.852.754-1.713 1.538-2.308 2.005-3.16 4.195-7.622 9.002-12.433 11.854l-.175.103-.174.051c-1.426.514-2.893 1.047-4.108 1.452-7.637 3.888-16.141 8.529-18.295 16.29-.154.497-.226 1.133-.226 1.805-.01 1.529.431 3.258.903 4.263.708 1.677 2.734 3.334 4.411 5.544 2.647 3.606 5.581 7.114 8.248 10.833 4.883 6.821 10.833 13.967 14.382 22.532.569 1.385.656 2.765.656 4.072 0 1.2-.077 2.365-.077 3.468 0 .989.077 1.929.282 2.765.601 2.39 1.493 4.872 2.596 6.637 4.011 6.483 10.515 10.463 17.618 14.797 3.18 1.996 10.361 5.658 15.69 5.602 1.498 0 2.8-.257 3.882-.806.385-1.574.857-3.318.847-4.749 0-.61-.077-1.134-.231-1.57-.621-2.256-3.595-4.39-5.329-8.053-1.785-4.139-2.626-8.662-3.703-12.925-.841-3.462-.4-6.134-1.036-8.802-1.251-5.503-1.349-11.647-1.349-17.869 0-1.492.011-2.975.011-4.447 0-1.646-.036-3.268-.036-4.883 0-3.231.113-6.416.862-9.499 2.39-9.771 5.601-17.793 9.699-25.661 2.529-4.738 4.458-11.514 9.351-15.146.097-.098.154-.149.195-.205l1.805-2.006 1.398 2.314zm63.087 44.258c-.011-.016-.021-.016-.041-.016-.011.005-.011.005-.021.005a.322.322 0 01.062.011zm1.191-3.611c-.041-.036-.072-.066-.113-.092.01.005.01.015.01.021.031.021.062.046.104.066l-.001.005zm-.236-.179a.774.774 0 00-.318-.123c.062.02.113.046.175.071.061.021.102.037.143.052zm-29.082-64.488zM530.71 88.189l.021-.013-.021.013zm9.572-48.844l1.989-.262-1.989.262zM252.74 682.665l.026.005c0 .011-.031.185-.123.426.036-.139.072-.283.097-.431zm34.381-51.938c-1.149-1.979-1.626-3.026-2.498-4.236-2.046-2.955-4.816-5.821-7.483-8.479-6.134-6.263-15.459-11.253-19.028-21.911-.749-2.396-1.057-5.991-1.067-9.612.011-3.016.231-5.914.8-8.027 1.744-6.406 5.391-10.658 8.237-14.992 2.493-3.785 4.76-7.826 7.16-11.771.174.097-.133-.815.78-2.591 5.539-9.119 8.314-19.311 12.151-30.979 4.713-14.351 9.822-29.333 9.822-47.736 0-.692-.01-1.379-.021-2.077l-.062-5.108 3.529 3.693c2.729 3.406 1.979 9.52 3.118 11.72 2.924 7.16 5.509 15.008 8.012 22.512 1.497 4.533 2.195 8.575 3.806 12.479 6.35 15.49 12.74 29.831 20.978 43.223 3.088 5.021 5.868 10.232 8.986 15.167.985 1.59 2.801 3.549 3.97 5.826 1.057 2.277.985 5.006 1.098 7.694.021 2.595.298 5.2.637 5.59l.451.806-.298.861c-1.312 3.19-4.35 3.673-5.58 4.478-2.4 1.268-4.935 2.78-7.602 4.176-1.385.61-2.76 1.195-3.878 1.677-9.57 5.816-19.705 10.448-28.794 16.203-3.58 2.267-6.853 5.175-10.207 7.724-1.098 1.078-2.185 2.176-3.282 3.263v6.935l-3.735-6.508zm-10.443-76.957c-2.359 3.878-4.647 7.956-7.252 11.91-3.062 4.621-6.257 8.412-7.714 13.838-.405 1.447-.657 4.196-.657 6.971-.01 3.313.359 6.842.872 8.371 2.832 8.848 11.192 13.541 18.055 20.311 2.693 2.698 5.622 5.699 7.935 9.007.523.749.918 1.405 1.308 2.093.719-.718 1.468-1.462 2.268-2.252 3.405-2.595 6.771-5.601 10.709-8.099 9.396-5.95 19.562-10.581 29.093-16.366 1.364-.596 2.738-1.195 3.979-1.739 2.421-1.267 4.935-2.77 7.458-4.099 1.467-.687 2.749-1.303 3.334-1.779-.626-1.929-.554-4.083-.667-6.304-.03-2.616-.246-5.288-.688-6.017-.738-1.539-2.472-3.457-3.765-5.473-3.211-5.108-6.011-10.324-9.017-15.207-8.422-13.695-14.895-28.257-21.255-43.803-1.826-4.422-2.514-8.565-3.908-12.735-2.339-7.012-4.729-14.244-7.355-20.85-1.528 14.212-5.683 26.409-9.427 37.837-3.801 11.525-6.622 22.029-12.536 31.826l-.01-.006h-.005c-.14.001.096.791-.755 2.565zm19.849-84.106l1.468-1.375-1.468 1.375zm40.027-296.355c-3.508-.91-9.991-.013-14.248-2.277h-1.785l-.205-1.765c-.595-4.914-2.103-9.12-4.011-16.246-.195-.454-.164-.813-.175-.882.072-1.157.41-1.865.729-2.693.995-2.254 2.227-4.813 2.975-6.873.698-2.834 1.385-5.657 2.062-8.499l.062-.274.123-.218c1.005-1.698 2.462-2.865 2.903-3.67 1.754-2.857 2.984-7.727 3.046-12.356.021-1.408.236-2.649.226-3.565.011-.685-.092-1.133-.235-1.382.03-.057-1.651-1.396-2.473-1.885l-.861-.61v-1.036c0-.621.03-1.198.03-1.688.041-1.06-.123-1.801-.185-1.801l-.379-.543.021-.664c.021-.087-.031-.372.164-1.09.082-.051.062-.364.317-.702-.563-19.152-9.745-32.254-23.204-37.989-3.539-1.503-8.75-2.636-13.822-2.626-2.877-.01-5.719.359-8.201 1.154-3.734 1.188-7.606 2.78-10.602 4.665-6.97 4.401-12.269 11.766-15.125 20.55-.729 2.2-.862 5.121-1.487 8.062-.221.903-.308 2.026-.308 3.247 0 2.792.477 5.962.733 8.707h.559l.318 1.633c.338 1.788.687 3.596 1.036 5.394l.077.446-.098.436c-.461 1.298-1.123 2.049-1.046 2.07-.123.426-.195 1.177-.195 2.049-.01 2.723.749 6.58 1.2 7.888.893 2.757 2.216 6.017 3.637 8.304.292.631 1.913 1.644 2.939 3.542l.103.205.051.218c.174.774.338 1.549.416 1.995 1.513 3.813 4.703 11.243 6.878 12.846l.954.785-.272 1.208c-.708 3.139-1.729 5.547-2.877 9.166l-.271.839-.785.369c-2.462 1.156-5.221 2.224-8.334 3.019-2.046.251-4.098.513-5.904.718-2.575.688-5.437 1.626-7.955 2.311l-.262.077h-6.185c-2.359 0-5.149.164-7.868.174-2.051-.01-4.077-.097-5.939-.49-1.036-.218-2.19-.305-3.411-.305-2.662 0-5.647.403-8.586.413-1.257 0-2.508-.069-3.744-.315-3.708 0-7.412 0-11.29-.01-5.832-.546-12.627-.285-18.218-1.536-1.528-.087-3.067-.175-4.611-.251l-.185-.01-.164-.044c-4.786-1.113-10.602-1.297-15.536-2.539-1.79-.262-3.601-.513-5.406-.774l-.241-.034-.22-.087c-3.375-1.416-5.642-4.739-7.273-6.832-2.093-2.811-5.601-5.306-8.237-8.737-1.093-1.459-2.216-2.995-3.227-3.736-4.231-3.216-8.017-6.865-12.048-9.743-10.31-7.409-20.66-14.522-31.123-21.868-9.499-6.688-18.491-14.01-27.6-20.885-1.113-.885-2.519-2.496-4.042-4.119-1.072-1.2-2.333-2.38-2.888-2.836l-2.472.613.688-3.149c.718-3.27.913-7.681 1.795-11.812.133-.621.174-1.405.165-2.277 0-.564-.011-1.164-.011-1.775 0-.523.021-1.067.052-1.459 0-1.275.144-4.306.338-5.742l.056-.469.272-.402c1.841-1.908 3.262-1.375 5.262-1.58 3.139.01 6.935.511 9.022 1.121 2.616.828 4.349 2.549 5.755 3.236 1.364.777 1.472 1.023 2.021 1.054 3.452-.559 8.622-6.898 13.351-9.553 13.777-7.158 28.518-12.835 43.135-18.859 16.967-6.973 35.155-11.659 53.84-16.039 11.823-2.78 42.443-8.193 57.39-9.578 10.284-1.046 43.669-2.583 47.167-2.583 1.241-.077 3.231-.097 5.673-.097 7.652 0 19.521.262 22.804.349 4.062.098 25.061 1.285 41.617 2.593 10.258 1.111 16.987 1.982 25.276 3.096 7.693 1.033 12.053 1.677 18.115 2.844 16.772 3.224 29.041 5.632 45.085 9.281 10.729 2.431 21.604 5.047 32.108 8.542 3.682 1.231 7.775 2.311 11.816 3.596 2.647.841 6.053 1.918 8.012 2.572l.503.165.359.402c.021.033.062.077.071.087l.811.697-.133 1.057c-.195 1.503-.257 3.008-.257 4.534-.021 4.958.779 10.022.79 15.808-.011 1.832-.349 3.803-.339 5.306-.021 1.146.257 1.841.328 1.854l.77.859-.358 1.1c-1.99 5.722-7.54 8.686-9.817 11.91-2.688 3.532-5.898 6.168-8.679 8.968-4.688 4.675-9.335 9.622-14.874 13.815-2.247 1.656-4.257 4.665-7.212 6.942-4.298 3.247-8.452 7.419-11.95 11.974a110.49 110.49 0 01-2.575 2.298c-2.41 3.162-5.313 5.439-7.211 7.988-2.698 3.529-7.346 9.489-11.254 12.269-9.15 6.363-23.614 10.415-35.093 13.674-5.099 1.416-9.694 1.352-14.187 2.583-6.576 1.731-13.244 2.331-19.542 4.108-4.606 1.285-9.745 2.482-14.27 3.626a7.49 7.49 0 01-1.538.144c-3.367-.029-9.081-1.314-10.887-1.696zm.852-3.921c1.683.379 7.581 1.623 10.033 1.6.349 0 .604-.033.636-.043 4.493-1.134 9.602-2.332 14.095-3.585 6.76-1.885 13.448-2.482 19.582-4.119 5.171-1.362 9.756-1.318 14.137-2.57 11.427-3.205 25.706-7.345 33.872-13.086 2.995-2.07 7.816-8.009 10.351-11.407 2.369-3.095 5.262-5.362 7.457-8.25a79.298 79.298 0 012.596-2.308c3.478-4.598 7.868-9.001 12.484-12.487 2.236-1.646 4.236-4.655 7.19-6.942 5.19-3.911 9.735-8.717 14.464-13.457 2.985-2.964 6.021-5.491 8.32-8.542 2.984-3.79 7.375-6.552 8.894-9.886-.544-1.131-.605-2.316-.626-3.418.01-1.972.339-3.998.328-5.306.011-5.393-.779-10.427-.79-15.808 0-1.162.031-2.347.134-3.552-1.929-.628-4.555-1.459-6.688-2.136-3.919-1.244-8.032-2.334-11.879-3.608-10.289-3.432-21.029-6.014-31.718-8.442-15.993-3.639-28.2-6.027-44.951-9.25-5.98-1.157-10.218-1.777-17.901-2.813-8.278-1.111-14.945-1.973-25.111-3.083-16.393-1.285-37.494-2.472-41.351-2.559-3.242-.1-15.142-.349-22.701-.349-2.411 0-4.391.021-5.55.087-3.241 0-36.96 1.546-46.911 2.57-14.566 1.341-45.336 6.768-56.84 9.481-18.634 4.368-36.622 9.009-53.24 15.841-14.68 6.057-29.308 11.702-42.807 18.718-3.652 1.71-8.643 8.73-14.746 9.981l-.159.023h-.164c-2.298 0-3.565-1.341-4.021-1.505-2.082-1.144-3.652-2.583-5.057-2.962-1.375-.426-5.221-.97-7.858-.949-.667-.01-1.282.039-1.723.095-.103 1.385-.195 3.4-.195 4.231-.031.426-.041.861-.041 1.318 0 .567.01 1.167.01 1.775-.01.982-.031 2.016-.262 3.105-.703 3.195-.928 6.904-1.503 10.297 1.098.764 1.78 1.852 3.073 2.985 1.6 1.713 3.38 3.662 3.857 4.001 9.176 6.929 18.131 14.218 27.476 20.798 10.433 7.324 20.804 14.448 31.154 21.88 4.339 3.116 8.16 6.809 12.125 9.807 1.765 1.349 2.965 3.159 4.011 4.521 2.062 2.777 5.581 5.273 8.237 8.737 1.462 2.016 3.673 4.698 5.345 5.439 1.724.239 3.462.49 5.365.772 4.482 1.144 10.237 1.349 15.521 2.529 1.492.082 2.975.159 4.76.292 5.149 1.146 11.853.938 17.849 1.495h11.524l.21.043c.903.195 1.959.272 3.113.272 2.559 0 5.544-.416 8.586-.416 1.405 0 2.836.101 4.242.393 1.39.295 3.19.403 5.108.393 2.56.01 5.334-.164 7.868-.164h5.632c2.318-.639 5.119-1.552 8.006-2.308 2.067-.251 4.119-.523 5.924-.721 2.267-.59 4.519-1.426 6.585-2.354.923-2.831 1.698-4.832 2.257-6.911-3.216-3.524-5.565-9.974-7.201-13.823-.164-.695-.318-1.385-.472-2.088-.37-.5-1.652-1.541-2.636-2.967-1.693-2.747-3.072-6.201-4.042-9.174-.61-1.897-1.375-5.742-1.395-9.132 0-1.067.062-2.093.328-3.083.256-.864.641-1.408.877-1.79-.2-1.046-.405-2.095-.601-3.146h-1.041l-.077-1.929c-.087-2.603-.861-6.821-.872-10.786 0-1.405.097-2.811.4-4.142.559-2.429.656-5.458 1.595-8.412 3.103-9.522 8.889-17.692 16.788-22.696 3.446-2.167 7.575-3.844 11.53-5.098 2.985-.959 6.211-1.338 9.422-1.351 5.668.013 11.258 1.21 15.382 2.954 15.408 6.493 25.687 22.009 25.687 43.276v2.265l.031.941c0 .22 0 .436-.011.644.882.587 2.021 1.39 2.821 2.646.615 1.131.729 2.288.738 3.311-.01 1.418-.236 2.68-.236 3.608-.102 5.283-1.364 10.623-3.641 14.393-.944 1.477-2.217 2.618-2.678 3.313a582.632 582.632 0 01-2.052 8.432c-.923 2.529-2.206 5.155-3.139 7.312a6.595 6.595 0 00-.277.795c-.03.077-.062.133-.071.174 1.713 6.386 3.2 10.584 3.938 15.479 1.788 1.308 8.763 1.037 13.287 1.891zm-85.861-59.026l-1.975.372 1.975-.372v-.028.028z"/><path d="M200.172 504.264l17.542 9.243-19.08 10.053z"/><path fill="#C4014B" d="M257.075 534.25l-39.371 20.762-19.932-10.51.913-9.33-.061-11.622 19.08-10.053z"/><path fill="#BEBEBE" d="M278.565 545.569l-8.381 15.967-7.047 9.842-30.856-6.565-14.588-9.812 39.382-20.762z"/><path fill="#8FC4EB" d="M407.253 575.318l-32.497 20.034v5.252l8.648 36.57 27.461-28.353z"/><path fill="#BEBEBE" d="M374.818 599.435l-6.955-13.931-22.035-8.319 2.482 14.936-8.678 5.529 17.398 9.858z"/><path fill="#2D8E2D" d="M308.56 614.524l-6.185 7.355 45.946 9.499-13.828-32.128z"/><path d="M339.263 595.885c-.35-.195-5.181 1.293-4.422 4.504 2.318 9.816 16.875 37.596 16.875 37.596s37.801-4.668 36.539-5.037c-6.37-1.897-13.438-33.513-13.438-33.513s-28.466.276-35.554-3.55z"/><path fill="#8FC4EB" d="M303.318 618.73s14.146 40.191 18.455 44.5c3.528 3.529 11.242 4.965 11.242 4.965l24.261-15.079-8.996-21.819c0-.001-32.405-6.402-44.962-12.567z"/><path d="M290.557 627.377l-10.463 22.117-1.877 4.575s38.889 12.269 43.566 9.171c.995-.656-18.115-46.039-18.115-46.039l-13.111 10.176z"/><path fill="#C4014B" d="M348.269 631.296l7.868 22.312 15.736-9.838 16.382-10.822c-11.755 2.668-39.986-1.652-39.986-1.652z"/><path fill="#7E4806" d="M321.609 663.189l.256 12.382 10.34-5.735 8.35-4.431z"/><path fill="#C4014B" d="M278.062 654.018s9.232 22.527 17.244 35.155l30.99-16.064s-4.514-9.909-4.667-9.92c-10.801-.749-43.567-9.171-43.567-9.171zm-36.847 39.915L230.557 707.7s39.063 13.294 37.832 10.524c-4.791-10.771-12.587-39.863-12.587-39.863l-14.587 15.572z"/><path fill="#7E4806" d="M256.141 680.372s-3.785 26.682 11.674 39.166l5.17-10.423-2.79-9.52s-7.725-12.884-14.054-19.223z"/><path fill="#BEBEBE" d="M231.213 707.371s-24.65 10.771 23.502 38.786c2 1.17 1.949-6.709 1.949-6.709l11.92-20.413-37.371-11.664z"/><path fill="#2D8E2D" d="M263.137 571.378l-8.237 1.79-26.21 16.172.482 9.807 34.057 8.576s3.19-2.934 2.944-2.934-5.396-6.135-5.396-6.135l-2.206-16.915 4.566-10.361z"/><path fill="#C4014B" d="M195.372 581.493l34.282 13.859-17.141 29.779-9.119.442-10.227-11.223-1.724-14.228z"/><path d="M288.537 628.896l3.815 8.822-46.726-4.042 22.435-26.825z"/><path fill="#BEBEBE" d="M264.45 602.246c.39-.082 4.596 2.729 2.954 5.591-5.026 8.74-26.917 31.195-26.917 31.195s-38.406-13.459-37.093-13.459c6.637 0 25.984-30.088 25.984-30.088s27.194 8.412 35.072 6.761z"/><path fill="#2D8E2D" d="M292.352 634.436s-25.04 34.457-30.405 37.35c-4.391 2.369-15.223 5.98-15.223 5.98l-17.726-23.307 16.69-20.855s32.877 3.129 46.664.832z"/><path fill="#8FC4EB" d="M293.666 637.575l12.146 32.97.482 4.913s-40.766.646-44.356-3.662c-.77-.923 28.097-34.519 28.097-34.519l3.631.298z"/><path fill="#7E4806" d="M245.698 633.615l-17.029 23.471-10.504-16.741-13.131-14.443c10.505 5.907 40.664 7.713 40.664 7.713z"/><path fill="#BEBEBE" d="M262.111 671.795l-7.18 16.803-6.237-10.176-10.176-9.847z"/><path d="M306.467 675.458s-16.823 24.702-28.107 34.52l-26.681-26.538s10.269-11.685 10.422-11.653c10.556 2.368 44.366 3.671 44.366 3.671z"/><path fill="#C4014B" d="M313.689 696.477l8.945 17.233-46.531-4.441c4.104.667 30.272-33.739 30.272-33.739l7.314 20.947z"/><path fill="#7E4806" d="M326.501 727.005l8.863 14.443s-41.699 1.642-39.729-.657c7.673-8.944 21.009-34.795 21.009-34.795l9.857 21.009z"/><path fill="#8FC4EB" d="M319.926 706.981s-4.924 26.918-23.307 34.468l-3.939-8.863-15.756-23.307s35.124 1.97 43.002-2.298z"/><path fill="#C4014B" d="M335.693 740.463s-11.161 21.994-29.226 33.812c-1.938 1.271-3.938-10.833-3.938-10.833l-5.581-22.979h38.745z"/><path fill="#7E4806" d="M263.465 570.066s-22.65 14.453-33.811 25.286l-34.467-12.146.657-9.53 21.624-18.438s31.554 14.499 45.997 14.828z"/><path fill="#C4014B" d="M51.173 93.575l9.848 21.26 11.407-13.053s-8.483-6.626-12.402-11.407c-2.903-3.54-8.853 3.2-8.853 3.2z"/><path fill="#8FC4EB" d="M37.55 111.86l18.013 25.286 5.622-23.301-10.012-20.27s-11.468 8.37-13.623 18.285z"/><path fill="#2D8E2D" d="M71.936 156.975l28.753 32.062 9.879-23.876s-31.288-25.148-32.354-24.05c-5.622 5.785-6.278 15.864-6.278 15.864z"/><path fill="#BEBEBE" d="M59.862 112.85c-2.216 5.796 19.06 29.8 19.06 29.8l23.85-17.039s-18.875-10.299-29.359-24.158c0 0-9.746 1.487-13.551 11.397z"/><path fill="#7E4806" d="M53.419 135.161s26.609 30.241 21.491 23.63c-5.129-6.606 3.303-17.68 3.303-17.68-11.899-12.228-17.459-29.246-18.352-28.261-8.76 9.755-6.442 22.311-6.442 22.311z"/><path d="M78.213 141.111c1.61 6.729 31.236 26.112 31.236 26.112l24.291-20.988-30.58-21.814c-14.729 2.605-24.947 16.69-24.947 16.69z"/><path fill="#C4014B" d="M108.291 167.551l31.236 25.122 30.241-23.471s-13.94-.513-23.142-6.442c-7.919-5.108-11.202-15.767-12.228-15.7-10.998.703-26.107 20.491-26.107 20.491z"/><path fill="#8FC4EB" d="M99.858 188.375l37.35 27.769 6.001-29.543s-17.398-6.986-34.426-19.87c0 0-9.335 13.027-8.925 21.644z"/><path fill="#2D8E2D" d="M185.298 170.526c-2.308 8.088 33.021 11.705 33.021 11.705l20.793-10.694-48.521-.513s-4.8-2.221-5.293-.498z"/><path fill="#7E4806" d="M135.854 214.452s30.169 17.885 30.077 16.731c-1.19-14.023 15.151-26.876 15.151-26.876l-37.391-18.321c0-.001-9.694 14.104-7.837 28.466z"/><path fill="#BEBEBE" d="M237.02 373.166l-1.867 3.61-1.836 4.258 23.758-12.515-18.948-9.992-.307 8.35z"/><path fill="#2D8E2D" d="M232.445 339.447l3.446 17.07 2.596 2.205 18.588 9.807 39.381-20.752-39.381-20.753z"/><path fill="#7E4806" d="M231.296 330.913l1.477 5.087.82 3.283 23.441-12.269-34.273-18.095 5.252 13.13z"/><path fill="#BEBEBE" d="M219.807 305.144l2.626 4.76c.523-.123 5.632 1.856 5.632 1.856l28.958 15.264 39.371-20.752-39.371-20.752-37.216 19.624z"/><path fill="#C4014B" d="M209.333 269.035l2.103 14.772 6.565 15.1 3.283 5.416 35.75-18.782-39.371-20.752z"/><path fill="#8FC4EB" d="M186.201 241.656l15.716 9.294 6.421 9.633 7.17 3.128 2.175 1.149 39.381-20.752-39.381-20.752z"/><path fill="#7E4806" d="M217.642 264.798l39.381 20.753 39.381-20.753-39.381-20.752z"/><path fill="#C4014B" d="M214.011 221.335l43.053 22.783 39.381-20.752-39.381-20.742z"/><path d="M170.239 198.572l47.454 24.825c2.698-3.139 39.371-20.752 39.371-20.752l-39.381-20.752-47.444 16.679z"/><path fill="#8FC4EB" d="M237.84 171.275l-20.157 10.617 39.371 20.753 39.381-20.753-25.584-13.479-12.505.077z"/><path fill="#7E4806" d="M257.043 202.624l39.381 20.752v-41.504z"/><path fill="#BEBEBE" d="M257.013 244.057l39.381 20.741v-41.494z"/><path fill="#2D8E2D" d="M257.013 285.53l39.381 20.753v-41.505z"/><path d="M257.064 327.024l39.381 20.763v-41.504z"/><path fill="#8FC4EB" d="M257.064 368.508l39.381 20.742v-41.494z"/><path fill="#BEBEBE" d="M257.034 409.931l39.381 20.762v-41.504z"/><path fill="#2D8E2D" d="M257.023 451.405l39.381 20.752v-41.505zm-96.498-224.28l20.783 11.15s9.776 8.653 10.638 6.252c2.37-6.591 25.892-21.049 25.892-21.049l-36.755-19.173c-.001.001-15.747 11.88-20.558 22.82z"/><path fill="#BEBEBE" d="M143.25 186.642c13.531 8.453 37.832 17.665 37.832 17.665 15.829-12.002 18.783-14.73 37.237-22.075 0 0-14.177-2.616-45.741-14.182 0-.001-16.823 2.651-29.328 18.592z"/><path fill="#8FC4EB" d="M316.212 523.94l19.594 10.33-11.756 6.195z"/><path d="M299.656 473.788l36.119 19.029-25.564 13.459-1.784-4.883-4.74-13.9-3.877-9.305z"/><path fill="#7E4806" d="M383.496 435.083l-8.453-4.451 6.585-3.478z"/><path fill="#8FC4EB" d="M375.659 411.583l5.662 15.746-6.268 3.313-39.381-20.752 32.242-16.998 3.19 9.202z"/><path d="M209.138 260.254l8.545 4.606-8.35 4.175z"/><path fill="#2D8E2D" d="M361.01 381.751l3.539 6.556 2.79 4.903-31.667 16.69-39.391-20.752 39.391-20.752z"/><path fill="#BEBEBE" d="M395.057 482.6l-19.983-10.536 15.346-8.093z"/><path fill="#8FC4EB" d="M236.415 357.512l20.557 10.832-20.158 10.617.124-7.642z"/><path d="M296.333 389.086l-39.381 20.752-28.169-14.843 3.61-7.622 3.57-7.97 20.989-11.069z"/><path fill="#C4014B" d="M335.713 409.829l-39.391 20.762-39.381-20.762 39.381-20.743z"/><path d="M375.084 430.581l-39.371 20.742-39.401-20.742 39.401-20.763z"/><path fill="#C4014B" d="M383.527 435.022l3.765 19.768 2.708 9.417-14.926 7.868-39.371-20.752 39.371-20.753z"/><path fill="#8FC4EB" d="M296.342 430.56l-39.381 20.752-39.38-20.752 39.38-20.752z"/><path fill="#7E4806" d="M335.724 451.302l-39.391 20.752-39.381-20.752 39.381-20.752z"/><path fill="#8FC4EB" d="M375.084 472.054l-39.381 20.752-39.391-20.752 39.391-20.752z"/><path fill="#7E4806" d="M395.703 482.907l2.021 9.068 1.426 8.884-24.066 12.679-39.381-20.742 39.381-20.752z"/><path fill="#2D8E2D" d="M228.792 394.975l28.169 14.843-39.37 20.752-1.939-1.026 2.965-6.052 1.2-6.688zm174.246 133.294l-27.964-14.731 24.445-12.884z"/><path fill="#BEBEBE" d="M299.625 473.737l-2.759 10.145-2.811 17.849-3.047 8.966-33.974-17.901 39.381-20.752z"/><path fill="#C4014B" d="M375.176 513.538l-39.381 20.742-18.526-9.745-4.154-8.35-3.109-9.817 25.789-13.582z"/><path fill="#BEBEBE" d="M403.274 528.34l.738 5.899.513 5.324-29.369 15.469-39.37-20.752 39.37-20.752z"/><path d="M405.879 562.875l1.21 5.488.842 5.878-32.775-19.209 29.471-15.531.718 10.121z"/><path fill="#C4014B" d="M296.424 472.054l-39.381 20.752-39.38-20.752 39.38-20.752z"/><path fill="#7E4806" d="M375.176 555.022l-31.175 19.875-4.8-6.944-8.422-13.844-6.739-13.649 11.766-6.201z"/><path fill="#2D8E2D" d="M407.11 573.092l.38 3.293s4.821-1.939.092 5.836c-4.729 7.766-32.764 17.214-32.764 17.214s-24.866-15.347-28.303-20.712c-3.446-5.354-.688-1.538-.688-1.538l-2.318-2.616 31.657-19.557 31.944 18.08zm-129.683-28.077l-20.393-10.745 31.544-16.618z"/><path fill="#8FC4EB" d="M197.516 544.338l20.208 10.653-20.239 19.013z"/><path d="M257.043 451.323l-39.38 20.752-11.161-5.888 3.149-15.408 5.703-18.988 2.309-1.21z"/><path fill="#2D8E2D" d="M206.512 466.166l11.161 5.888-14.546 7.663z"/><path fill="#8FC4EB" d="M257.043 492.796l-39.37 20.742-17.367-9.14 1.99-13.233 1.477-11.797 13.9-7.324z"/><path fill="#7E4806" d="M291.008 510.686l-.769 3.488-1.108 3.201-32.097 16.916-39.371-20.753 39.371-20.752z"/><path d="M249.396 683.936l2.754-2.918c.031.025 12.484 11.838 22.958 23.901l-3.037 2.626c-10.186-11.74-22.398-23.337-22.675-23.609zm-.005-.005l.005.005-.005.006v-.011z"/><path fill="#FFF" d="M262.901 169.029l17.541 10.966 26.046-.821 16.998-7.13-5.293-19.731-50.358 2.462z"/><path fill-rule="evenodd" clip-rule="evenodd" fill="#BEBEBE" d="M85.209 62.595S244.805-38.602 506.613 45.474l4.534-5.539S256.889-54.707 57.511 53.024"/><path d="M90.359 60.267c-2.564-6.524-31.379-9.181-31.379-9.181-8.658.174-36.068 12.33-47.896 19.788-18.311 11.551-1.692 17.542 2.739 18.085 3.16.431 7.037-1.405 12.32-4.462 5.98-3.457 15.9-8.227 18.034-9.796 4.442-3.519 14.382-10.75 22.404-10.75 6.381 0 6.617 2.893 12.402 4.647.851.285 11.592-7.819 11.376-8.331"/><path fill="#FFF" d="M55.369 63.416l.564-5.837c-5.642-3.99-12.884-9.889-20.557-8.278-1.949.4-2.359 2.288-3.796 2.832 0 0-5.99-2.832-7.611 3.703-4.637 0-6.534.985-6.534 5.201-4.432 0-8.381 2.688-6.258 5.693 4.268 6.062 4.278 9.622 9.786 9.622 2.339 0 4.237-1.877 3.714-3.128 8.586 7.324 10.125.543 10.125-1.221 1.344 1.21 3.313.933 4.729.667 1.21-.236 2.011-.461 1.621.257-2.318 4.206-11.202 8.832-14.875 11.253-1.867 1.221-2.288 1.354-5.006 3.057l11.274 12.782c-.482 1.323 1.21 7.683 2.4 6.955 3.713-2.277 16.772-11.756 17.49-12.454.544-.554 5.57-4.473 5.57-4.473.297-1.528-3.17-2.605-3.067-2.841 3.262-7.55 2.944-19.87 2.944-20.978 0-.73-1.806-2.812-2.513-2.812m448.455-20.465l13.613.123c.071-.236-7.961-4.493-7.961-4.493l9.981-8.463c6.216-2.995 8.278 5.909 9.704 6.442 0 0 10.36-5.222 11.253 3.077 4.627 0 6.422 1.046 6.422 5.252 4.421 0 6.771 4.452 6.227 8.104-2.503 16.023-21.316 28.22-22.055 33.113-.195 1.21-25.215-10.228-26.281-11.305-2.853-2.8.522-4.186-1.837-24.178-.092-.697.216-7.672.934-7.672"/><path d="M513.231 50.88c2.902-.995 2.697-.626 4.298-2.175 2.667-2.605 1.262-6.955 4.227-6.001.811.267 2.359 3.529 1.99 4.329-.934 2.01-1.067 2.277-2.411 4.144-.328 1.21-2.811 1.477-2.811 1.477-1.601-.338-2.934.872-2.934 2.462 0 4.032 2.123 3.478 1.354 4.894-.77 1.395-3.046-.626-3.046-.626-.544-1.149-.801-2.257-1.057-3.795-.216-1.323-.432-3.272.112-4.35"/><path fill="#FFF" d="M219.325 717.988c1.128-.8 2.503-2.03 3.99-3.446 2.144 3.847 6.237 10.442 10.945 14.341 1.231.995 2.564 1.888 3.898 2.718-.082.021.523.432 1.446.873 2.831 1.59 5.601 2.77 7.745 3.59.811.359 1.559.697 2.062.902 0 0 4.391 1.385 7.375 2.38.616.195 1.149.298 1.672.38-1.683 5.14-2.411 10.114-2.903 15.623-.82 9.089.236 21.184.236 21.184-.041-.462-31.616-9.664-38.376-57.025l1.91-1.52"/><path d="M256.408 782.625a176.594 176.594 0 01-.615-6.093c-.041-.462-31.616-9.664-38.376-57.025-.051-.41-11.438 3.508-18.321 10.166-5.149 4.985-8.545 11.622-3.128 18.495 36.734 46.654 21.542 36.099 26.456 48.921 6.401 16.742 42.069 32.088 43.864 23.102 2.871-14.342-5.952-2.452-9.88-37.566"/><path d="M256.408 782.625l.185-.01c-.215-1.908-.42-3.909-.605-6.094v-.011c-.03-.133-.071-.133-.103-.153-.092-.082-.267-.153-.554-.276-4.216-1.847-31.482-12.987-37.719-56.605l-.133-.174-.123-.031c-.185 0-.431.082-.821.205-2.688.903-11.181 4.771-16.967 10.371-3.231 3.129-5.632 6.822-5.642 10.895 0 2.421.872 4.975 2.924 7.57 11.776 14.957 18.27 24.097 21.809 30.036 3.549 5.95 4.145 8.647 4.145 10.761 0 1.107-.175 2.072-.175 3.252 0 1.375.226 3.057 1.18 5.529 2.564 6.688 9.438 12.977 16.916 17.613 7.499 4.637 15.603 7.621 20.701 7.621 1.364 0 2.523-.215 3.396-.688.872-.461 1.467-1.21 1.672-2.215.379-1.949.554-3.416.554-4.606.01-1.867-.451-3.026-1.19-4.113-1.077-1.651-2.739-3.17-4.473-7.119-1.733-3.98-3.519-10.401-4.791-21.768l-.186.01-.205.031c1.703 15.182 4.329 21.604 6.534 25.163 1.108 1.785 2.093 2.842 2.801 3.888.697 1.057 1.118 2.083 1.118 3.908 0 1.149-.164 2.605-.554 4.544-.185.893-.677 1.498-1.477 1.949-.78.421-1.877.626-3.201.626-4.965.011-13.048-2.944-20.485-7.57-7.448-4.596-14.279-10.863-16.762-17.397-.944-2.473-1.159-4.062-1.159-5.406 0-1.139.164-2.104.164-3.252 0-2.205-.626-5.006-4.186-10.956-3.56-5.96-10.063-15.12-21.829-30.087-2.011-2.533-2.841-4.996-2.841-7.324-.011-3.898 2.328-7.509 5.519-10.617 3.262-3.17 7.437-5.796 10.884-7.602a52.745 52.745 0 014.473-2.113 16.796 16.796 0 011.446-.554c.369-.134.636-.185.708-.185l.01-.123-.062.103.051.021.01-.123-.062.103.092-.144-.174.031.082.112.092-.144-.174.031c3.385 23.717 12.997 37.914 21.768 46.213 4.391 4.144 8.566 6.832 11.643 8.504 1.549.83 2.821 1.415 3.703 1.826.431.184.79.338 1.016.43.113.052.205.104.267.124l.031.03.103-.123-.154.01c.031.124.072.104.051.113l.103-.123-.154.01.195-.02-.195.02c.195 2.186.39 4.207.605 6.104l.205-.031m50.777 34.991c.031-.195.052-.452.082-.667-.03.205-.06.43-.082.667"/><path d="M307.185 817.616l.195.02c.031-.205.052-.431.082-.677l-.39-.041c-.031.205-.062.441-.082.688l.39.03-.195-.02.195.01c.021-.226.041-.462.072-.656l-.186-.021-.194-.021c-.031.226-.052.451-.082.666l.195.022.195.01-.195-.01"/><path fill="#FFF" d="M339.14 748.732c.041-.113.738.481 1.795 1.487l-.77-.051s-1.826-4.422-5.703-11.623c-2.688 1.56-8.053 4.452-17.501 8.688-9.417 4.237-13.849 5.171-15.839 5.283 3.478 12.022 5.591 30.487 6.422 47.033.421 8.505.134 13.972-.277 17.398.954-5.394 8.053 2.382 31.873-68.215"/><path d="M340.935 750.219c-1.057-1.006-1.754-1.601-1.795-1.487-23.82 70.597-30.919 62.821-31.873 68.217-.03.215-.051.472-.082.667-.01.092-.02.174-.02.287-.083 1.518-.4 2.861-.811 4.134-4.534 14.095-27.441 14.648-22.476 30.005 1.6 4.914 41.577 2.123 47.977-14.607 4.925-12.854-6.021-8.791 30.733-55.425 4.116-5.243-15.56-26.107-21.653-31.791"/><path d="M340.935 750.219l.133-.144c-.481-.482-.902-.841-1.21-1.108-.154-.123-.287-.235-.4-.297l-.133-.093-.175-.051-.195.144c-11.899 35.288-19.634 50.993-24.496 58.533-2.421 3.754-4.124 5.478-5.293 6.596-1.17 1.118-1.847 1.703-2.093 3.118v.011c-.031.226-.052.451-.082.666a2.448 2.448 0 00-.021.309c-.082 1.477-.39 2.811-.801 4.072-2.021 6.288-7.755 9.879-13.037 13.314-2.647 1.724-5.181 3.427-7.058 5.417-1.877 2.011-3.087 4.339-3.087 7.272 0 1.252.226 2.616.718 4.124.277.841 1.354 1.364 2.954 1.754 1.61.38 3.775.564 6.31.564 6.329 0 14.915-1.21 22.516-3.938 7.602-2.698 14.219-6.914 16.557-12.998 1.231-3.211 1.478-5.396 1.714-7.55.379-3.241.718-6.421 4.432-13.191 3.703-6.781 10.781-17.132 24.558-34.622.421-.522.605-1.189.605-1.959-.011-1.867-1.067-4.298-2.719-7.067-4.975-8.258-15.408-19.142-19.562-23.02l-.135.144-.134.133c2.76 2.564 8.299 8.269 13.161 14.197 2.432 2.976 4.688 6.012 6.34 8.74 1.642 2.729 2.657 5.17 2.657 6.873 0 .708-.175 1.282-.523 1.734-18.383 23.316-24.846 33.975-27.338 40.416-1.241 3.222-1.487 5.417-1.733 7.581-.236 2.144-.473 4.278-1.693 7.468-2.236 5.898-8.76 10.074-16.311 12.762-7.55 2.708-16.115 3.908-22.393 3.908-2.514 0-4.658-.185-6.217-.554-1.57-.349-2.523-.913-2.678-1.487-.482-1.478-.708-2.812-.708-4.012 0-2.841 1.169-5.047 2.995-6.996 2.75-2.923 7.006-5.252 10.976-8.021 3.96-2.78 7.652-6.031 9.202-10.854.42-1.292.738-2.656.82-4.195 0-.103 0-.174.021-.287l-.195-.01.195.02c.031-.205.052-.431.082-.677l-.195-.01.186.021c.235-1.272.789-1.744 1.979-2.873 1.774-1.723 4.79-4.82 9.581-14.094 4.791-9.264 11.387-24.723 20.312-51.209l-.175-.062v.185l.175-.123-.175-.062v.185-.123l-.041.123h.041v-.123l-.041.123s.257.144.554.41c.287.236.677.585 1.139 1.025l.134-.132"/><path fill="#2D8E2D" d="M152.083 190.078l-.011.01"/><path d="M285.182 629.768l-.154.041.154-.041zm3.867-.759l-.031.256.185-.03z"/><path fill="#8FC4EB" d="M339.817 216.308l-.103-.041z"/><path fill="#E6E7E8" d="M348.72 591.782a19.93 19.93 0 01-.061-.604c.02.123.03.246.041.369.001.081.01.163.02.235"/><path fill="#EB5A99" d="M326.317 543.23a6.08 6.08 0 00-.175-.292c.123.041.257.092.38.123l-.205.169"/><path fill="#FFF" d="M353.008 655.906s-.041-.052-.062-.071h.123s-.029.04-.061.071m153.585-531.741h.257-.257m-153.841 230.7v-.061.061M532.229 86.661l-1.057-.451s.021-.051.021-.062l1.066.451s-.009.021-.03.062"/><path fill="#FDE3D2" d="M530.783 86.004s-.062-.01-.093-.01l-3.323-1.416s.041-.031.062-.052l3.396 1.457v.01l-.042.011"/><path fill="#FDE3D2" d="M531.172 86.209l-.482-.215c.031 0 .072.01.072.01l.062-.01v-.01l.369.164c0 .01-.011.041-.011.041"/><path fill="#EED2BE" d="M511.118 77.624l-4.206-1.806a62.945 62.945 0 01-.882-.451l5.118 2.185-.03.072"/><path fill="#EED2BE" d="M506.912 75.818l-2.523-1.087c-.052-.041-.082-.082-.123-.123l1.765.759c.255.133.552.287.881.451"/><path fill="#FDE3D2" d="M53.953 88.559l1.867-1.169s-.021.041-.031.072l-1.836 1.097"/><path fill="#3C3C3D" d="M218.853 727.302a115.07 115.07 0 01-1.436-7.827l-.021-.02c-.113 0-.256.03-.421.082.124-.093.247-.186.37-.268h.01l.123.031.072.103.062.071a110.1 110.1 0 001.385 7.715 4.819 4.819 0 00-.144.113m-19.573 3.129l-.123-.103s.185-.113.462-.277a6.428 6.428 0 00-.339.38"/><path fill="#FFF" d="M255.936 776.387l-.031-.03a.707.707 0 00-.123-.071c-.154-1.765-.975-12.587-.226-20.896-.277 8.103.031 15.797.38 20.997"/><path fill="#565759" d="M256.039 777.947h-.103c-.041-.503-.093-.923-.144-1.456 0-.134-3.375-1.252-8.125-4.258 0-.062.011-.123.011-.164 3.662 2.329 6.503 3.509 7.652 4.012.195.102.349.153.451.205.041.02.082.041.103.071l.052.03c.03.555.071 1.078.103 1.56"/><path fill="#FFF" d="M296.65 466.987l-.246-.072.062-.03.184.102m.503.369c-.051-.144-.092-.267-.133-.369 0-.164-.011-.4-.011-.718l.031.584v.031-.031s.092-.071.256-.194l-.246.185s.082.01.246.021c-.164-.011-.246-.011-.246-.011l-.01.031.113.471m-6.534 45.002c.103-.41.205-.83.308-1.23.062-.205.123-.41.175-.615-.165.624-.329 1.24-.483 1.845m-9.13 2.78h.123-.123m-15.828 91.867l.472-.093c-.154.032-.319.062-.472.093"/><path fill="#565759" d="M337.15 754.692c-.062-.082-.113-.164-.175-.236.646-1.877 1.303-3.795 1.979-5.785l.195-.144.175.051.133.093c.021.01.041.021.072.03.092.072.194.165.328.267.276.227.646.564 1.077.975.03.041.041.072.041.072l-.041.144c-.965-.882-1.621-1.446-1.734-1.446 0 0-.01 0-.02.021-.697 2.059-1.364 4.05-2.03 5.958"/><path fill="#009B40" d="M309.626 681.449c-.041-.123-.082-.246-.112-.38.062.195.093.308.093.308h.02c0 .031.011.041.011.041-.001.031-.012.031-.012.031"/><path fill="#565759" d="M289.018 629.265l.031-.256c.041.071.082.144.123.226-.041.01-.092.02-.154.03"/><path fill="#6AC5EC" d="M297.296 466.864c-.164-.011-.246-.011-.246-.011s.082-.071.246-.194v.205"/><path fill="#565759" d="M297.307 467.766c-.052-.154-.113-.287-.154-.41l-.112-.472v-.031s.092 0 .256.011l.01.902"/><path fill="#E6E7E8" d="M33.406 102.705c-.256-.39-.441-.657-.564-.852l.041-.021c.072.123.164.267.277.462l8.483.267-8.483-.267c.071.123.153.257.246.411M51.07 128.75a300.997 300.997 0 01-6.883-9.386c2.113 3.006 4.421 6.134 6.883 9.386m158.92 139.896c-.421-5.027-.123-7.602-.164-8.976.051 1.251-.206 3.529.082 7.817.02.379.05.759.082 1.159m-11.479 285.729v-.01.01m76.843 152.975c.041-.062.092-.112.154-.185-.061.073-.112.124-.154.185m32.283 105.126v-.134.093m-.257 3.467"/><path fill="#3C3C3D" d="M307.042 819.195l-.112-.021c.153-.852.318-1.918.451-3.272.359-.769.943-1.282 1.785-2.103 1.169-1.118 2.872-2.842 5.293-6.596a59.56 59.56 0 001.601-2.616c.01.144.021.267.021.4-5.889 9.96-8.248 9.026-8.771 11.961-.02.215-.051.472-.071.667-.011.092-.021.174-.03.287-.024.452-.106.862-.167 1.293"/><path fill="#2D8E2D" d="M335.703 202.521l-39.391 20.752v-41.504z"/><path d="M335.734 243.954l-39.392 20.742v-41.494z"/><path fill="#8FC4EB" d="M335.734 285.428l-39.392 20.752v-41.505z"/><path fill="#C4014B" d="M335.683 326.922l-39.391 20.763V306.18z"/><path fill="#7E4806" d="M335.683 368.406l-39.391 20.742v-41.494z"/><path fill="#BEBEBE" d="M335.713 409.829l-39.391 20.762v-41.505z"/><path fill="#2D8E2D" d="M335.724 451.302l-39.391 20.752V430.55z"/><path fill="#8FC4EB" d="M379.649 222.586l-43.966 21.43-39.391-20.753 39.391-20.742z"/><path fill="#7E4806" d="M391.671 232.014l-9.057 13.715-5.375 17.88-2.175 1.148-39.381-20.752 39.381-20.752z"/><path fill="#BEBEBE" d="M423.195 218.673l-22.804 5.227s-8.217 13.29-9.469 11.068c-1.989-3.539-16.013-11.591-16.013-11.591l36.755-19.173c.001 0 6.72 3.528 11.531 14.469z"/><path d="M354.907 171.172l20.157 10.618-39.371 20.752-39.392-20.752 25.584-13.479 16.013 3.897z"/><path fill="#C4014B" d="M425.318 197.341s-50.254 25.922-50.265 25.953c-2.698-3.139-39.37-20.752-39.37-20.752l39.37-20.752 50.265 15.551z"/><path fill="#8FC4EB" d="M531.551 84.558l-9.622 22.101-4.555-6.447s8.638-10.987 11.776-16.311c3.141-5.329 2.401.657 2.401.657z"/><path fill="#2D8E2D" d="M530.967 82.337l-13.52 18.049-29.882-8.171 17.808-18.408z"/><path fill="#BEBEBE" d="M517.816 100.284l-16.68 31.872-40.704-14.772s27.573-27.138 29.103-27.138c16.638 0 28.281 10.038 28.281 10.038z"/><path d="M522.586 106.223l-17.07 30.636-15.541-11.351s17.357-11.355 27.841-25.225l4.77 5.94z"/><path fill="#7E4806" d="M491.289 124.852l-31.175 24.394-19.818-10.417s19.069-21.994 20.383-21.773c20.967 3.477 30.61 7.796 30.61 7.796z"/><path fill="#2D8E2D" d="M507.044 134.889l-24.075 32.385-28.221-21.732s25.994-11.607 36.294-20.69c1.395-1.231 16.002 10.037 16.002 10.037z"/><path fill="#C4014B" d="M455.713 145.758l-35.493 20.04-6.843-7.93s9.171-2.693 15.973-7.442c7.14-4.985 10.72-10.884 11.058-10.884 5.047 0 15.305 6.216 15.305 6.216z"/><path fill="#BEBEBE" d="M484.272 166.905l-33.739 20.526-30.918-24.178s15.91-5.576 35.483-17.803c1.313-.821 29.174 21.455 29.174 21.455z"/><path d="M484.015 166.402l-29.328 34.355-5.149-14.259 32.641-21.439z"/><path fill="#8FC4EB" d="M421.369 162.515c2.309 8.088-46.941 19.614-46.941 19.614l-20.793-10.694 56.328-13.679c-.001-.001 10.913 3.036 11.406 4.759z"/><path fill="#2D8E2D" d="M455.395 199.008c-.913 7.032-33.749 20.486-33.646 19.332.349-3.929-10.084-14.136-10.084-14.136l37.381-18.321c-.001 0 7.006 8.093 6.349 13.125z"/><path fill="#7E4806" d="M449.487 186.539c-13.521 8.453-37.822 17.665-37.822 17.665-15.828-12.002-18.782-14.73-37.237-22.075 0 0 26.641-7.284 46.941-19.614 0 0 15.623 8.083 28.118 24.024z"/><path fill="#C4014B" d="M375.105 264.696l-39.381 20.752-39.391-20.752 39.391-20.752z"/><path fill="#BEBEBE" d="M376.654 265.517l-2.862 14.946-4.289 13.951-2.174 7.683-31.616-16.659 39.371-20.752z"/><path fill="#7E4806" d="M367.339 302.077l-.513 4.113c-.523-.123-2.145 5.468-2.145 5.468l-28.958 15.264-39.382-20.752 39.382-20.752 31.616 16.659z"/><path fill="#2D8E2D" d="M358.671 329.322l-1.477 4.822-1.251 3.426-20.23-10.658 28.959-15.265-2.523 9.52z"/><path d="M355.727 373.063l1.867 3.611 1.836 4.257-23.758-12.515 18.947-9.991.308 8.35z"/><path fill="#BEBEBE" d="M355.932 337.601l-3.949 13.653 2.277 7.366-18.588 9.806-39.391-20.752 39.391-20.752z"/><path d="M285.12 137.351c-1.416 2.401.082 3.534 1.036 3.796l3.56.23c1.066-2.318-5.909.898-1.58-6.104 2.082-3.364 1.692-8.381 1.774-12.566.031-.949.893-2.226.893-2.226-2.472 1.098-1.569 6.319-2.472 10.648-.8 3.75-2.072 4.145-3.211 6.222"/><path fill="#C4014B" d="M291.142 147.41c-1.58-2.626-11.746.584-11.746 1.938 0 .585 8.873 2.985 12.464 2.985 1.785 0 11.54-1.765 11.54-2.831 0-1.334-10.638-4.719-11.715-1.908-.328.872-.051.615-.543-.184"/><path d="M250.776 110.367c-4.996-33.277 15.203-50.285 39.258-50.234 20.947.041 37.135 19.552 37.135 43.638-7.868-4.975-16.085-13.879-36.991-13.879-20.947 0-30.764 13.438-38.652 20.526"/><path d="M251.709 110.254l.195-.021c-.472-3.149-.698-6.145-.698-8.996 0-27.01 20.045-40.756 38.766-40.766 10.34 0 19.562 4.903 26.199 12.782 6.638 7.889 10.699 18.762 10.699 30.682h.195l.103-.164c-7.775-4.914-16.218-14.105-37.053-14.095-20.916 0-30.733 13.438-38.54 20.444l.134.134.195-.021-.195.021.123.154c7.878-7.078 17.562-20.352 38.283-20.352 20.722.01 28.989 9.068 36.837 14.043l.309.185v-.349c0-12.012-4.094-22.968-10.792-30.928-6.698-7.96-16.023-12.915-26.497-12.915-9.448 0-19.234 3.478-26.671 10.36-7.427 6.873-12.484 17.183-12.484 30.785 0 2.872.226 5.888.698 9.058l.051.359.267-.247-.124-.153z"/><path d="M290.352 112.604c-9.581-3.693-13.141-6.319-24.876-6.319-7.109 0-14.936 6.319-12.095 13.366 1.908 4.729 12.638 9.868 17.788 9.868 5.693 0 20.075-7.765 20.27-7.765 7.447 0 13.295 7.817 23.43 5.98 7.838-1.395 14.393-7.273 13.151-15.838-.708-4.924-6.575-8.073-13.151-8.073-10.299 0-17.593 5.447-24.517 8.781m-24.015 44.063l1.816-1.59c8.524 9.802 16.198 13.076 22.793 13.076 12.638.085 22.353-12.428 25.902-17.572v.011l1.979 1.375c-3.683 5.196-13.592 18.511-27.882 18.595-7.451.01-15.826-3.77-24.608-13.895z"/><path d="M252.181 116.419c-.861 1.231-.697 4.042-.697 5.632 0 6.504 3.724 14.249 6.75 18.301 2.482-1.221-3.56-12.484-3.56-15.849 0-3.857.174-6.514-2.493-8.084m34.827 513.836h.01l3.678-1.575c.021.067 17.259 40.351 20.87 54.666l-3.898.965c-3.365-13.531-20.629-54.01-20.66-54.056zM502.388 42.61c4.831-2.203 6.626-2.388 10.802-2.572a41.078 41.078 0 011.929-.067c.789.013 1.18.057 2.185.121 2.575.054 6.134 1.444 6.216 5.201h-4.031c.031-.511-.317-.944-2.441-1.195-1.107-.064-1.385-.108-1.928-.108-.35 0-.852.021-1.724.064-4.35.261-4.545.121-9.366 2.226l-1.642-3.67z"/><path d="M507.978 41.15l1.17-3.831 10.401 3.137-1.179 3.834-10.392-3.14z"/><path fill="#FFF" d="M551.596 55.343c3.878 1.815 8.288 4.554 11.909 6.237 3.386 1.58 6.494 3.847 11.11 7.252-5.222-.595-12.546-2.575-15.911-3.693-4.175-1.375-6.441-1.856-10.535-3.447-.502-1.118-.174-2.247.062-2.923.615-1.344.892-2.083 1.846-2.801.668-.512 1.519-.625 1.519-.625z"/><path d="M574.379 70.822c-5.488-.631-12.812-2.621-16.311-3.775-4.072-1.347-6.411-1.847-10.638-3.488l-.77-.295-.328-.749a4.926 4.926 0 01-.451-2.1c0-1.021.257-1.836.523-2.488.543-1.208 1.046-2.513 2.441-3.557 1.221-.89 2.318-.977 2.482-1.021l.574-.077.533.251c4.031 1.89 8.453 4.631 11.91 6.24 3.631 1.695 6.832 4.054 11.448 7.447l6.093 4.48-7.506-.868zm-15.048-7.591c1.467.493 3.806 1.172 6.37 1.816a30.418 30.418 0 00-3.046-1.652c-3.56-1.654-7.663-4.172-11.233-5.914-.062.023-.112.051-.133.087-.503.39-.564.554-1.19 1.923a3.278 3.278 0 00-.194.713c3.363 1.247 5.517 1.75 9.426 3.027zm-298.84 105.831l.01.01 6.114-5.199c9.376 10.969 17.941 14.028 25.687 14.085 7.673.021 14.895-3.332 20.516-6.791 3.058-1.89 5.089-3.242 6.329-4.106 1.252-.864 1.621-1.167 1.632-1.167l5.016 6.257c-.174.142-2.431 1.934-8.771 5.857-6.217 3.796-14.721 7.956-24.722 7.976h-.175c-10.074.001-21.301-4.63-31.636-16.922z"/><path d="M293.255 227.218l-1.129-43.782a3.205 3.205 0 013.118-3.293 3.218 3.218 0 013.293 3.134l1.139 43.777a3.203 3.203 0 01-3.128 3.293h-.083a3.212 3.212 0 01-3.21-3.129z"/><path d="M281.602 853.534l-.01.006a7.799 7.799 0 01-1.6-4.766c.195-5.77 4.873-10.468 7.17-12.223 6.514-4.585 13.694-7.627 16.311-14.068 1.046-2.339.615-5.534 1.436-9.684.247-1.164.514-4.438.503-7.16.011-1.621-.103-3.149-.256-3.821-.482-2.227-.555-4.447-.555-6.597v-2.887c.011-2.113-.071-4.14-.461-5.971-.729-3.421-.359-6.785-1.036-9.499-2.093-9.217-2.247-18.47-5.067-25.999-4.247-11.484-10.808-21.66-17.521-31.195-1.938-2.795-4.359-5.586-6.478-8.674-2.846 2.949-4.754 8.238-7.062 12.812-3.98 7.643-7.047 15.301-9.371 24.769-.621 2.519-.744 5.406-.744 8.54 0 1.56.036 3.186.036 4.883 0 1.492-.016 2.975-.016 4.447 0 6.176.134 12.074 1.257 16.987.764 3.56.349 6.242 1.01 8.704 1.103 4.411 1.955 8.761 3.498 12.289.893 2.334 4.032 4.493 5.458 8.392.328.959.431 1.929.431 2.847-.01 2.59-.841 5-1.139 6.457l-.174.785-.662.456c-2.046 1.375-4.426 1.878-6.765 1.878-6.929-.057-14.254-4.078-17.793-6.201-7.032-4.334-14.233-8.566-18.926-16.096-1.441-2.339-2.395-5.129-3.072-7.766-.328-1.317-.405-2.584-.405-3.759 0-1.277.077-2.452.077-3.468 0-1.098-.108-1.97-.349-2.539-3.221-7.821-8.925-14.762-13.936-21.727-2.549-3.56-5.473-7.058-8.211-10.797-1.159-1.631-3.488-3.4-4.842-6.262-.708-1.57-1.251-3.673-1.262-5.92 0-.969.097-1.969.39-2.938 2.975-9.971 12.782-14.787 20.557-18.829 1.385-.482 2.77-.99 4.165-1.492 4.006-2.391 8.217-6.848 11.386-11.018.841-.718 1.693-1.492 2.288-1.984 2.975-3.944 6.288-7.182 9.211-11.022.923-.929 1.857-1.888 2.636-2.642 1.416-1.862 2.791-3.842 4.473-5.786.688-.697 1.795-1.811 2.329-2.437-.446-.477-1.251-1.128-2.174-2.215-2.493-3.345-5.396-6.545-7.986-10.053-6.657-9.033-13.782-17.654-20.583-26.764-2.164-2.919-5.16-5.622-7.714-8.997-3.365-4.555-9.961-8.313-14.177-13.915-3.18-4.313-4.903-9.406-6.242-15.156l-.057-.241v-4.35c0-8.627 2.462-14.895 4.186-21.378 1.277-4.596.513-10.488 1.774-16.397.082-.359.123-.944.123-1.59 0-.651-.03-1.37-.041-2.103.011-.575.021-1.149.144-1.775.175-8.17.349-16.336.508-24.507v-.194l.046-.205c.379-1.693.467-3.575.467-5.591 0-1.329-.046-2.724-.046-4.149 0-2.19.093-4.457.601-6.734.795-3.283.036-7.725 1.046-12.346.457-1.831.087-4.621.765-7.734 1.651-7.119 1.385-15.049 3.354-22.697 4.514-17.259 7.725-34.821 13.705-50.885 1.169-3.108 1.672-6.309 3.119-9.838 3.467-8.412 6.637-17.039 10.309-25.532 1.441-3.247 4.083-7.602 4.929-10.361a34.15 34.15 0 01-.21-1.446v-7.965c0-1.678.01-3.257.01-4.786 0-5.699-.154-10.351-1.472-15.264-2.19-8.083-3.062-15.449-5.853-22.163-5.231-12.736-10.699-25.025-15.951-37.827-2.473-6.104-2.503-12.479-3.965-18.854l-.057-.226v-9.109c-.271-.457-1.062-1.231-1.908-2.257-3.754-5.067-9.027-7.878-15.13-11.582-12.638-7.714-27.092-13.674-40.14-21.619-3.242-1.985-7.006-3.113-10.812-5.391-7.693-4.688-15.951-8.874-23.327-14.254-4.062-3.042-7.14-6.98-10.545-9.545-4.088-3.093-8.109-7.104-11.212-11.202-1.601-2.165-4.247-4.103-6.422-6.939-2.021-2.724-5.411-5.142-7.981-8.499-7.74-10.243-16.823-19.47-24.712-30.115-2.072-2.824-4.883-5.601-7.216-8.761-4.242-5.752-8.073-11.507-11.91-17.608-1.457-2.38-3.914-4.686-4.775-8.688-.226-.2-.59-.323-.872-1.144-2.677-2.8-3.513-4.762-3.908-5.083-2.698-2.034-5.19-4.347-7.201-7.214-1.139.608-2.441 1.262-3.991 1.633a8.599 8.599 0 01-1.99.229C7.509 90.946.446 87.199 0 80.901c0-.567.077-1.167.251-1.71 1.513-5.014 5.57-7.161 8.196-9.394-.379-1.057-.482-2.167-.503-3.234.021-1.657.272-3.203.97-4.521l.139-.261.185-.188c1.133-1.292 2.688-2.267 4.795-2.554.816-3.452 3.801-5.526 6.812-5.508.036 0 .174 0 .154.013.251.005.508.01.733.018.482-.838 1.113-2.139 3.078-3.462a7.862 7.862 0 013.067-.631c.923.005 1.713.146 2.359.282.523-.716 1.293-1.721 2.75-2.452l.154-.077.205-.054c.954-.239 1.826-.359 2.646-.359 2.514-.011 4.119 1.187 5.293 1.861 2.195 1.59 2.985 3.178 3.791 3.696 2.877-1.644 7.473-2.413 9.853-3.172 1.2-.162 2.4-.326 3.611-.487.667-.333 1.969-1.372 3.318-2.203 1.359-.59 2.744-1.197 3.985-1.733 2.651-1.372 5.673-3.126 8.611-4.434 7.181-3.17 14.531-5.839 21.66-8.771 2.821-1.144 30.795-10.188 43.007-13.217 21.476-5.296 36.791-8.335 54.281-11.343 12.454-2.133 37.638-5.031 56.913-5.96 7.047-.685 25.635-.882 38.263-1.033.57-.013 1.329-.013 2.267-.013 8.925 0 33.719.305 50.963 1.829 13.52 1.156 60.44 6.757 91.092 13.674 18.301 4.132 35.011 8.512 51.403 13.949 5.468 1.818 10.721 3.377 15.962 5.152 1.724.59 5.919 1.69 8.166 2.288.39-.384.831-.846.995-1.154l.164-.272.267-.218c1.2-.993 1.21-1.341 3.046-3.183 1.396-1.362 3.231-3.203 5.355-4.293 1.23-.62 2.564-.859 3.836-.859 1.129 0 2.227.185 3.242.631 1.99.818 3.385 1.982 4.452 3.75.349.598.595 1.233.759 1.882 1.221-.423 2.555-.595 3.898-.608 1.508 0 3.047.238 4.482.785l.205.075.226.144c1.478.91 2.257 2.306 2.637 3.785 2.195.154 4.493.867 5.826 3.372.175.478.503 1.131.708 2.034 4.523 1.195 6.504 5.508 6.34 9.373 0 2.683-.678 5.396-1.683 7.804-3.088 7.235-8.36 12.867-12.945 18.042-2.134 2.19-5.714 5.052-6.863 7.204l1.519 1.352-1.364 1.502c-.657.631-.975 2.124-2.083 4.075-1.928 3.149-3.446 6.896-5.683 10.548-4.996 8.214-8.873 17.847-14.146 26.51-1.785 2.888-2.771 6.353-4.904 9.784-11.499 18.5-26.578 33.593-39.196 50.329-10.433 13.782-26.373 22.599-43.053 29.461-4.329 1.754-8.617 2.103-12.484 3.4-5.663 1.872-10.925 4.293-15.121 7.422-1.385 1.021-2.954 3.016-4.226 4.739-2.083 2.801-4.35 5.509-6.073 8.345-4.124 6.724-6.288 15.797-8.75 24.46-.688 4.544-1.364 9.099-2.103 13.9a571.448 571.448 0 01-6.966 22.722c-1.539 4.616-1.99 9.602-3.898 14.741-3.733 10.115-6.894 20.855-9.16 32.211-.154.718-.226 1.241-.226 1.641 0 .431.051.744.236 1.452.431 2.995.861 6.006 1.292 9.176.175 2.821.339 5.652.513 8.479 1.416 4.334 5.591 10.269 8.217 14.521 4.914 8.042 8.771 16.967 12.475 25.737 4.38 10.351 6.493 21.953 9.611 32.918 1.088 3.918 1.098 7.252 2.062 10.556 3.959 13.977 6.749 27.6 10.555 41.176 1.58 5.684 1.621 11.556 2.903 16.757 1.344 10.807 2.729 21.614 4.113 32.544.175 2.585.349 5.154.473 7.432 2.144 9.895.267 21.696 2.318 30.626l.03.153.011.211c.082 2.093.164 4.19.256 6.277.749 3.822.257 7.556.985 10.607.276 1.257.789 3.544.8 5.832-.011.861-.082 1.733-.308 2.615-1.159 4.021-3.98 5.586-5.231 7.376-3.324 4.391-7.633 8.452-11.664 11.453-.595.661-1.189 1.37-2.103 2.318-3.56 2.683-7.017 5.816-10.863 8.556-13.767 9.719-28.087 18.695-42.562 27.584-7.129 4.38-14.525 8.438-21.696 12.402-1.59.8-5.385 2.528-6.482 3.508 1.005 2.601 1.189 4.826 1.949 6.602 1.897 4.667 3.446 9.406 5.385 13.838 1.693 3.836 4.094 8.012 5.93 12.094 3.446 7.781 6.78 15.321 10.945 22.163 2.421 4.021 3.775 8.104 6.031 11.361.042.046.093.097.145.144.789.723 1.969 1.811 3.56 3.303 2.421 2.4 4.523 4.96 6.708 7.227 3.919 4.032 8.443 9.936 11.141 15.111.574 1.123 1.621 3.312 1.651 5.754 0 .795-.133 1.652-.563 2.478-.79 1.867-2.093 2.514-2.268 2.924-2.318 3.139-4.77 6.047-6.955 9.001-4.893 6.647-9.355 13.295-13.808 20.45-1.303 2.103-2.872 4.241-3.724 6.19-.902 2.062-1.6 4.457-2.195 6.879-.789 2.959-.235 6.195-1.641 9.791-2.688 6.529-8.453 10.802-14.434 13.438-6.873 2.996-15.603 5.283-25.01 5.314-.923 0-2.041.025-3.189.025-3.267-.213-7.334.275-9.457-3.147zm-5.437-146.619c2.092 3.482 5.078 6.796 7.642 10.447 6.766 9.623 13.541 20.091 17.982 32.108 3.118 8.458 3.2 17.839 5.222 26.477.82 3.621.451 7.062 1.046 9.565.493 2.303.555 4.611.564 6.822 0 .969-.01 1.938-.01 2.887 0 2.062.082 3.991.472 5.745.256 1.262.338 2.878.349 4.673-.011 2.995-.246 6.211-.605 7.985-.738 3.272-.144 6.647-1.651 10.407-3.611 8.371-11.869 11.515-17.68 15.787-1.493.918-5.678 5.821-5.483 8.955 0 .872.205 1.58.774 2.334l.175.23.107.283c0 .01.277.425 1.508.687 1.165.272 2.831.349 4.483.349 1.098 0 2.205-.025 3.189-.025 8.74-.01 16.978-2.175 23.399-4.965 5.427-2.391 10.228-6.124 12.33-11.289.975-2.159.544-5.299 1.446-9.228.637-2.519 1.375-5.124 2.432-7.54 1.128-2.528 2.82-4.774 3.99-6.683 4.503-7.231 9.017-13.987 13.992-20.711 2.277-3.104 4.729-6.007 6.944-9.022 1.149-1.364 1.733-1.667 1.785-2.025l.062-.205.093-.154c.041-.057.112-.262.112-.621.041-1.092-.779-3.159-1.2-3.867-2.421-4.698-6.821-10.483-10.453-14.197-2.359-2.441-4.441-4.97-6.616-7.14-1.539-1.426-2.708-2.503-3.498-3.236-.913-.872-.913-.795-1.426-1.385 0-.011-.011-.025-.011-.036-.01-.016-.021-.03-.03-.046-.052-.036-.123-.062-.216-.354-.123-.261-.194-.522-.153-.743-1.97-3.375-3.222-6.837-5.047-9.812-4.34-7.141-7.745-14.854-11.182-22.609-1.703-3.816-4.124-7.996-5.939-12.115-2.052-4.678-3.611-9.457-5.427-13.945-1.118-2.837-1.231-5.232-2.277-7.371l-.246-.533.071-.584c.657-2.662 2.606-3.35 4.329-4.447 1.785-.97 3.734-1.801 4.422-2.19 7.181-3.975 14.535-8.007 21.542-12.3 14.464-8.883 28.712-17.828 42.346-27.45 3.59-2.55 7.026-5.652 10.483-8.228.585-.641 1.17-1.328 2.083-2.308 4.072-3.072 8.165-6.93 11.181-10.931 2.113-2.656 3.97-3.656 4.555-5.99.113-.416.175-.97.164-1.59.011-1.678-.431-3.77-.687-4.949-.883-4.062-.359-7.93-1.037-10.828l-.03-.164-.011-.174c-.082-2.083-.174-4.191-.246-6.264-2.144-10.012-.287-21.747-2.328-30.764-.175-2.58-.339-5.149-.513-7.611-1.364-10.812-2.739-21.609-4.062-32.2-1.354-5.611-1.405-11.418-2.821-16.408-3.847-13.761-6.646-27.369-10.556-41.166-1.098-3.955-1.107-7.288-2.052-10.545-3.169-11.212-5.293-22.675-9.447-32.447-3.693-8.76-7.499-17.5-12.207-25.214-2.534-4.185-6.955-10.253-8.688-15.613l-.082-.251-.011-.241-.513-8.597c-.421-2.995-.841-6.001-1.2-8.704a7.68 7.68 0 01-.349-2.313c0-.815.123-1.61.297-2.452 2.309-11.561 5.54-22.506 9.346-32.795 1.692-4.498 2.154-9.417 3.836-14.597a625.527 625.527 0 006.873-22.316c.688-4.544 1.364-9.099 2.104-13.895 2.503-8.791 4.637-18.162 9.232-25.712 1.938-3.185 4.287-5.97 6.268-8.653 1.333-1.754 2.985-3.99 5.067-5.555 4.688-3.498 10.319-6.047 16.249-8.006 4.473-1.452 8.657-1.826 12.218-3.303 16.423-6.745 31.687-15.331 41.36-28.179 12.874-17.029 27.841-32.021 39.012-50.034 1.774-2.788 2.78-6.252 4.894-9.75 5.047-8.271 8.924-17.89 14.146-26.509 2.011-3.28 3.528-7.006 5.662-10.538.391-.585.646-1.388 1.057-2.295l-.246-.069.195-1.721c.852-5.252 6.504-8.445 8.227-10.635 4.627-5.206 9.54-10.558 12.249-16.931.82-1.962 1.364-4.272 1.364-6.245-.185-3.377-.975-5.175-4.36-5.665l-1.148-.131-.472-1.046a1.97 1.97 0 01-.175-.849v-.027c-.01-.936-.185-1.034-.554-2.113-.123-.426-1.159-.99-3.19-.979-.175 0-.369 0-.595.01l-1.837.077-.226-1.821c-.39-2.1-.205-1.893-1.066-2.593a9.224 9.224 0 00-2.79-.426c-1.334-.018-2.605.315-3.231.618a3.51 3.51 0 01-.246.831c-.134.261-.554 1.297-2.042 1.395h-2.093l.093-2.09c.01-.241.021-.459.021-.677.052-1.167-.4-3.16-.513-3.17-1.047-1.472-.975-1.428-2.739-2.277-.339-.154-.943-.285-1.601-.285-.738 0-1.508.175-2.01.436-1.303.621-3.047 2.234-4.35 3.552-1.426 1.402-1.631 1.946-3.057 3.19-.975 1.416-2.34 2.482-2.391 2.564l-.82.674-1.026-.282c-1.456-.416-7.067-1.841-9.468-2.649-5.15-1.744-10.392-3.311-15.941-5.142-16.219-5.383-32.806-9.743-51.014-13.838-30.282-6.842-77.265-12.466-90.559-13.597-16.978-1.505-41.782-1.821-50.614-1.821-.929 0-1.677.01-2.221.023-12.571.131-31.303.349-38.017 1.013-19.147.916-44.326 3.824-56.528 5.916-17.434 3.006-32.6 6.004-53.999 11.287-11.776 2.9-40.207 12.094-42.438 13.022-7.227 2.972-14.556 5.642-21.562 8.737-2.662 1.167-5.626 2.888-8.504 4.38a190.64 190.64 0 01-3.877 1.667c-.831.469-2.221 1.788-3.918 2.485l-.236.074-.215.034c-1.292.174-2.57.349-3.56.459-2.508.674-8.319 2.133-9.058 2.952l-.687.577-.893-.121c-4.011-.805-4.965-4.237-5.857-4.38-1.539-.893-2.062-1.305-3.283-1.318-.379 0-.867.057-1.487.198-.508.31-.923 1.105-2.087 2.354l-.718.718-1.01-.164c-1.18-.195-2.031-.457-2.811-.446a4.56 4.56 0 00-1.169.141c-1.036.633-.872 1.274-2.411 3.236l-.246.285-.328.174c-.764.292-.903.272-1.067.262a.617.617 0 00-.287.01c-.416 0-.923-.021-1.523-.041v.008c-1.677.121-2.888.762-3.021 3.431l-.021 1.972-1.97.013c-2.564.153-2.288.123-3.513 1.246-.18.482-.375 1.449-.354 2.349-.031 1.121.303 2.19.523 2.395l1.118 1.385-1.252 1.274c-3.498 3.4-7.355 5.111-8.258 8.707a2.053 2.053 0 00-.087.577c-.057 1.1 1.021 2.79 2.939 4.108 1.856 1.318 4.349 2.167 6.062 2.146.4 0 .759-.044 1.067-.11 1.426-.326 2.964-1.274 4.708-2.157l1.651-.818.964 1.592c1.815 3.039 4.277 5.447 7.427 7.845 1.539 1.656 1.841 3.005 4.534 5.698l1.733 1.721-.343.229c.082.236.164.531.241.905a.965.965 0 010 .279c.616 2.403 2.344 4.19 4.145 6.955 3.816 6.058 7.591 11.725 11.746 17.38 2.062 2.811 4.873 5.601 7.211 8.748 7.663 10.353 16.736 19.57 24.691 30.084 2.016 2.713 5.406 5.142 7.976 8.499 1.667 2.244 4.293 4.162 6.417 6.937 2.857 3.775 6.668 7.576 10.443 10.433 3.97 3.026 7.017 6.95 10.499 9.499 7.006 5.129 15.167 9.273 23.035 14.054 3.211 1.964 6.996 3.108 10.812 5.396 12.679 7.745 27.138 13.705 40.15 21.629 5.904 3.616 11.797 6.642 16.244 12.592.395.636 1.893 1.626 2.626 3.693l.087.297v9.33c1.488 6.816 1.621 12.951 3.714 18.008 5.231 12.741 10.699 25.03 15.951 37.832 3.042 7.396 3.914 14.925 6.017 22.64 1.472 5.478 1.616 10.556 1.616 16.311v4.786c0 2.657 0 5.309-.036 7.657.087.493.174 1.005.262 1.56l.067.415-.108.416c-1.036 3.744-3.959 8.319-5.252 11.314-3.611 8.35-6.77 16.957-10.278 25.471-1.231 2.97-1.744 6.135-3.057 9.715-5.821 15.592-9.038 33.052-13.582 50.501-1.816 6.853-1.56 14.756-3.334 22.578-.534 2.18-.164 4.847-.759 7.714-.862 3.564-.092 7.93-1.046 12.356-.405 1.784-.502 3.77-.502 5.842 0 1.338.041 2.733.041 4.149 0 2.062-.072 4.165-.513 6.272-.164 8.182-.338 16.352-.508 24.518v.199l-.066.246c-.031.123-.072.534-.062 1.037-.01.59.031 1.317.031 2.103 0 .774-.021 1.601-.215 2.462-1.139 4.949-.328 10.854-1.826 16.562-1.815 6.802-4.042 12.51-4.042 20.342v3.919c1.282 5.416 2.872 9.863 5.519 13.443 3.405 4.693 9.955 8.432 14.161 13.89 2.21 2.975 5.206 5.667 7.714 9.012 6.725 9.001 13.849 17.618 20.594 26.784 2.431 3.277 5.329 6.478 7.965 10.021.349.652 2.18 1.473 3.124 3.878l-1.046.56 1.149-.134s.01.066.01.241c0 .005-.005.016-.005.021 0 .046-.005.097-.005.164l-.026-.005-1.4-.139-.585.308-.01 1.646c1.19-.062 1.693-.872 1.898-1.385-.713 2.642-2.842 3.56-3.452 4.555-1.482 1.708-2.811 3.616-4.457 5.76-.949.959-1.897 1.908-2.646 2.642-2.985 3.929-6.288 7.176-9.284 11.1-.852.754-1.713 1.538-2.308 2.005-3.16 4.195-7.622 9.002-12.433 11.854l-.175.103-.174.051c-1.426.514-2.893 1.047-4.108 1.452-7.637 3.888-16.141 8.529-18.295 16.29-.154.497-.226 1.133-.226 1.805-.01 1.529.431 3.258.903 4.263.708 1.677 2.734 3.334 4.411 5.544 2.647 3.606 5.581 7.114 8.248 10.833 4.883 6.821 10.833 13.967 14.382 22.532.569 1.385.656 2.765.656 4.072 0 1.2-.077 2.365-.077 3.468 0 .989.077 1.929.282 2.765.601 2.39 1.493 4.872 2.596 6.637 4.011 6.483 10.515 10.463 17.618 14.797 3.18 1.996 10.361 5.658 15.69 5.602 1.498 0 2.8-.257 3.882-.806.385-1.574.857-3.318.847-4.749 0-.61-.077-1.134-.231-1.57-.621-2.256-3.595-4.39-5.329-8.053-1.785-4.139-2.626-8.662-3.703-12.925-.841-3.462-.4-6.134-1.036-8.802-1.251-5.503-1.349-11.647-1.349-17.869 0-1.492.011-2.975.011-4.447 0-1.646-.036-3.268-.036-4.883 0-3.231.113-6.416.862-9.499 2.39-9.771 5.601-17.793 9.699-25.661 2.529-4.738 4.458-11.514 9.351-15.146.097-.098.154-.149.195-.205l1.805-2.006 1.398 2.314zm63.087 44.258c-.011-.016-.021-.016-.041-.016-.011.005-.011.005-.021.005a.322.322 0 01.062.011zm1.191-3.611c-.041-.036-.072-.066-.113-.092.01.005.01.015.01.021.031.021.062.046.104.066l-.001.005zm-.236-.179a.774.774 0 00-.318-.123c.062.02.113.046.175.071.061.021.102.037.143.052zm-29.082-64.488zM530.71 88.189l.021-.013-.021.013zm9.572-48.844l1.989-.262-1.989.262zM252.74 682.665l.026.005c0 .011-.031.185-.123.426.036-.139.072-.283.097-.431zm34.381-51.938c-1.149-1.979-1.626-3.026-2.498-4.236-2.046-2.955-4.816-5.821-7.483-8.479-6.134-6.263-15.459-11.253-19.028-21.911-.749-2.396-1.057-5.991-1.067-9.612.011-3.016.231-5.914.8-8.027 1.744-6.406 5.391-10.658 8.237-14.992 2.493-3.785 4.76-7.826 7.16-11.771.174.097-.133-.815.78-2.591 5.539-9.119 8.314-19.311 12.151-30.979 4.713-14.351 9.822-29.333 9.822-47.736 0-.692-.01-1.379-.021-2.077l-.062-5.108 3.529 3.693c2.729 3.406 1.979 9.52 3.118 11.72 2.924 7.16 5.509 15.008 8.012 22.512 1.497 4.533 2.195 8.575 3.806 12.479 6.35 15.49 12.74 29.831 20.978 43.223 3.088 5.021 5.868 10.232 8.986 15.167.985 1.59 2.801 3.549 3.97 5.826 1.057 2.277.985 5.006 1.098 7.694.021 2.595.298 5.2.637 5.59l.451.806-.298.861c-1.312 3.19-4.35 3.673-5.58 4.478-2.4 1.268-4.935 2.78-7.602 4.176-1.385.61-2.76 1.195-3.878 1.677-9.57 5.816-19.705 10.448-28.794 16.203-3.58 2.267-6.853 5.175-10.207 7.724-1.098 1.078-2.185 2.176-3.282 3.263v6.935l-3.735-6.508zm-10.443-76.957c-2.359 3.878-4.647 7.956-7.252 11.91-3.062 4.621-6.257 8.412-7.714 13.838-.405 1.447-.657 4.196-.657 6.971-.01 3.313.359 6.842.872 8.371 2.832 8.848 11.192 13.541 18.055 20.311 2.693 2.698 5.622 5.699 7.935 9.007.523.749.918 1.405 1.308 2.093.719-.718 1.468-1.462 2.268-2.252 3.405-2.595 6.771-5.601 10.709-8.099 9.396-5.95 19.562-10.581 29.093-16.366 1.364-.596 2.738-1.195 3.979-1.739 2.421-1.267 4.935-2.77 7.458-4.099 1.467-.687 2.749-1.303 3.334-1.779-.626-1.929-.554-4.083-.667-6.304-.03-2.616-.246-5.288-.688-6.017-.738-1.539-2.472-3.457-3.765-5.473-3.211-5.108-6.011-10.324-9.017-15.207-8.422-13.695-14.895-28.257-21.255-43.803-1.826-4.422-2.514-8.565-3.908-12.735-2.339-7.012-4.729-14.244-7.355-20.85-1.528 14.212-5.683 26.409-9.427 37.837-3.801 11.525-6.622 22.029-12.536 31.826l-.01-.006h-.005c-.14.001.096.791-.755 2.565zm19.849-84.106l1.468-1.375-1.468 1.375zm40.027-296.355c-3.508-.91-9.991-.013-14.248-2.277h-1.785l-.205-1.765c-.595-4.914-2.103-9.12-4.011-16.246-.195-.454-.164-.813-.175-.882.072-1.157.41-1.865.729-2.693.995-2.254 2.227-4.813 2.975-6.873.698-2.834 1.385-5.657 2.062-8.499l.062-.274.123-.218c1.005-1.698 2.462-2.865 2.903-3.67 1.754-2.857 2.984-7.727 3.046-12.356.021-1.408.236-2.649.226-3.565.011-.685-.092-1.133-.235-1.382.03-.057-1.651-1.396-2.473-1.885l-.861-.61v-1.036c0-.621.03-1.198.03-1.688.041-1.06-.123-1.801-.185-1.801l-.379-.543.021-.664c.021-.087-.031-.372.164-1.09.082-.051.062-.364.317-.702-.563-19.152-9.745-32.254-23.204-37.989-3.539-1.503-8.75-2.636-13.822-2.626-2.877-.01-5.719.359-8.201 1.154-3.734 1.188-7.606 2.78-10.602 4.665-6.97 4.401-12.269 11.766-15.125 20.55-.729 2.2-.862 5.121-1.487 8.062-.221.903-.308 2.026-.308 3.247 0 2.792.477 5.962.733 8.707h.559l.318 1.633c.338 1.788.687 3.596 1.036 5.394l.077.446-.098.436c-.461 1.298-1.123 2.049-1.046 2.07-.123.426-.195 1.177-.195 2.049-.01 2.723.749 6.58 1.2 7.888.893 2.757 2.216 6.017 3.637 8.304.292.631 1.913 1.644 2.939 3.542l.103.205.051.218c.174.774.338 1.549.416 1.995 1.513 3.813 4.703 11.243 6.878 12.846l.954.785-.272 1.208c-.708 3.139-1.729 5.547-2.877 9.166l-.271.839-.785.369c-2.462 1.156-5.221 2.224-8.334 3.019-2.046.251-4.098.513-5.904.718-2.575.688-5.437 1.626-7.955 2.311l-.262.077h-6.185c-2.359 0-5.149.164-7.868.174-2.051-.01-4.077-.097-5.939-.49-1.036-.218-2.19-.305-3.411-.305-2.662 0-5.647.403-8.586.413-1.257 0-2.508-.069-3.744-.315-3.708 0-7.412 0-11.29-.01-5.832-.546-12.627-.285-18.218-1.536-1.528-.087-3.067-.175-4.611-.251l-.185-.01-.164-.044c-4.786-1.113-10.602-1.297-15.536-2.539-1.79-.262-3.601-.513-5.406-.774l-.241-.034-.22-.087c-3.375-1.416-5.642-4.739-7.273-6.832-2.093-2.811-5.601-5.306-8.237-8.737-1.093-1.459-2.216-2.995-3.227-3.736-4.231-3.216-8.017-6.865-12.048-9.743-10.31-7.409-20.66-14.522-31.123-21.868-9.499-6.688-18.491-14.01-27.6-20.885-1.113-.885-2.519-2.496-4.042-4.119-1.072-1.2-2.333-2.38-2.888-2.836l-2.472.613.688-3.149c.718-3.27.913-7.681 1.795-11.812.133-.621.174-1.405.165-2.277 0-.564-.011-1.164-.011-1.775 0-.523.021-1.067.052-1.459 0-1.275.144-4.306.338-5.742l.056-.469.272-.402c1.841-1.908 3.262-1.375 5.262-1.58 3.139.01 6.935.511 9.022 1.121 2.616.828 4.349 2.549 5.755 3.236 1.364.777 1.472 1.023 2.021 1.054 3.452-.559 8.622-6.898 13.351-9.553 13.777-7.158 28.518-12.835 43.135-18.859 16.967-6.973 35.155-11.659 53.84-16.039 11.823-2.78 42.443-8.193 57.39-9.578 10.284-1.046 43.669-2.583 47.167-2.583 1.241-.077 3.231-.097 5.673-.097 7.652 0 19.521.262 22.804.349 4.062.098 25.061 1.285 41.617 2.593 10.258 1.111 16.987 1.982 25.276 3.096 7.693 1.033 12.053 1.677 18.115 2.844 16.772 3.224 29.041 5.632 45.085 9.281 10.729 2.431 21.604 5.047 32.108 8.542 3.682 1.231 7.775 2.311 11.816 3.596 2.647.841 6.053 1.918 8.012 2.572l.503.165.359.402c.021.033.062.077.071.087l.811.697-.133 1.057c-.195 1.503-.257 3.008-.257 4.534-.021 4.958.779 10.022.79 15.808-.011 1.832-.349 3.803-.339 5.306-.021 1.146.257 1.841.328 1.854l.77.859-.358 1.1c-1.99 5.722-7.54 8.686-9.817 11.91-2.688 3.532-5.898 6.168-8.679 8.968-4.688 4.675-9.335 9.622-14.874 13.815-2.247 1.656-4.257 4.665-7.212 6.942-4.298 3.247-8.452 7.419-11.95 11.974a110.49 110.49 0 01-2.575 2.298c-2.41 3.162-5.313 5.439-7.211 7.988-2.698 3.529-7.346 9.489-11.254 12.269-9.15 6.363-23.614 10.415-35.093 13.674-5.099 1.416-9.694 1.352-14.187 2.583-6.576 1.731-13.244 2.331-19.542 4.108-4.606 1.285-9.745 2.482-14.27 3.626a7.49 7.49 0 01-1.538.144c-3.367-.029-9.081-1.314-10.887-1.696zm.852-3.921c1.683.379 7.581 1.623 10.033 1.6.349 0 .604-.033.636-.043 4.493-1.134 9.602-2.332 14.095-3.585 6.76-1.885 13.448-2.482 19.582-4.119 5.171-1.362 9.756-1.318 14.137-2.57 11.427-3.205 25.706-7.345 33.872-13.086 2.995-2.07 7.816-8.009 10.351-11.407 2.369-3.095 5.262-5.362 7.457-8.25a79.298 79.298 0 012.596-2.308c3.478-4.598 7.868-9.001 12.484-12.487 2.236-1.646 4.236-4.655 7.19-6.942 5.19-3.911 9.735-8.717 14.464-13.457 2.985-2.964 6.021-5.491 8.32-8.542 2.984-3.79 7.375-6.552 8.894-9.886-.544-1.131-.605-2.316-.626-3.418.01-1.972.339-3.998.328-5.306.011-5.393-.779-10.427-.79-15.808 0-1.162.031-2.347.134-3.552-1.929-.628-4.555-1.459-6.688-2.136-3.919-1.244-8.032-2.334-11.879-3.608-10.289-3.432-21.029-6.014-31.718-8.442-15.993-3.639-28.2-6.027-44.951-9.25-5.98-1.157-10.218-1.777-17.901-2.813-8.278-1.111-14.945-1.973-25.111-3.083-16.393-1.285-37.494-2.472-41.351-2.559-3.242-.1-15.142-.349-22.701-.349-2.411 0-4.391.021-5.55.087-3.241 0-36.96 1.546-46.911 2.57-14.566 1.341-45.336 6.768-56.84 9.481-18.634 4.368-36.622 9.009-53.24 15.841-14.68 6.057-29.308 11.702-42.807 18.718-3.652 1.71-8.643 8.73-14.746 9.981l-.159.023h-.164c-2.298 0-3.565-1.341-4.021-1.505-2.082-1.144-3.652-2.583-5.057-2.962-1.375-.426-5.221-.97-7.858-.949-.667-.01-1.282.039-1.723.095-.103 1.385-.195 3.4-.195 4.231-.031.426-.041.861-.041 1.318 0 .567.01 1.167.01 1.775-.01.982-.031 2.016-.262 3.105-.703 3.195-.928 6.904-1.503 10.297 1.098.764 1.78 1.852 3.073 2.985 1.6 1.713 3.38 3.662 3.857 4.001 9.176 6.929 18.131 14.218 27.476 20.798 10.433 7.324 20.804 14.448 31.154 21.88 4.339 3.116 8.16 6.809 12.125 9.807 1.765 1.349 2.965 3.159 4.011 4.521 2.062 2.777 5.581 5.273 8.237 8.737 1.462 2.016 3.673 4.698 5.345 5.439 1.724.239 3.462.49 5.365.772 4.482 1.144 10.237 1.349 15.521 2.529 1.492.082 2.975.159 4.76.292 5.149 1.146 11.853.938 17.849 1.495h11.524l.21.043c.903.195 1.959.272 3.113.272 2.559 0 5.544-.416 8.586-.416 1.405 0 2.836.101 4.242.393 1.39.295 3.19.403 5.108.393 2.56.01 5.334-.164 7.868-.164h5.632c2.318-.639 5.119-1.552 8.006-2.308 2.067-.251 4.119-.523 5.924-.721 2.267-.59 4.519-1.426 6.585-2.354.923-2.831 1.698-4.832 2.257-6.911-3.216-3.524-5.565-9.974-7.201-13.823-.164-.695-.318-1.385-.472-2.088-.37-.5-1.652-1.541-2.636-2.967-1.693-2.747-3.072-6.201-4.042-9.174-.61-1.897-1.375-5.742-1.395-9.132 0-1.067.062-2.093.328-3.083.256-.864.641-1.408.877-1.79-.2-1.046-.405-2.095-.601-3.146h-1.041l-.077-1.929c-.087-2.603-.861-6.821-.872-10.786 0-1.405.097-2.811.4-4.142.559-2.429.656-5.458 1.595-8.412 3.103-9.522 8.889-17.692 16.788-22.696 3.446-2.167 7.575-3.844 11.53-5.098 2.985-.959 6.211-1.338 9.422-1.351 5.668.013 11.258 1.21 15.382 2.954 15.408 6.493 25.687 22.009 25.687 43.276v2.265l.031.941c0 .22 0 .436-.011.644.882.587 2.021 1.39 2.821 2.646.615 1.131.729 2.288.738 3.311-.01 1.418-.236 2.68-.236 3.608-.102 5.283-1.364 10.623-3.641 14.393-.944 1.477-2.217 2.618-2.678 3.313a582.632 582.632 0 01-2.052 8.432c-.923 2.529-2.206 5.155-3.139 7.312a6.595 6.595 0 00-.277.795c-.03.077-.062.133-.071.174 1.713 6.386 3.2 10.584 3.938 15.479 1.788 1.308 8.763 1.037 13.287 1.891zm-85.861-59.026l-1.975.372 1.975-.372v-.028.028z"/><path d="M542.312 66.232c-2.523-.531-4.308-2.268-5.601-3.731-.984.3-2.052.433-3.149.441-2.369.041-5.519-.785-6.903-3.267a9.585 9.585 0 01-1.888.182c-1.888-.033-3.621-.392-5.016-1.336-2.062-1.772-2.555-4.519-2.709-7.204.031-1.118.103-2.27.975-3.411a1.903 1.903 0 012.688-.272 1.91 1.91 0 01.277 2.682c.051.044-.144.285-.113 1-.021 1.228.462 3.054.913 3.803.144.249.175.282.185.282.236.218 1.621.661 2.801.631.913.021 1.733-.229 1.959-.436a1.917 1.917 0 011.98-.185 1.934 1.934 0 011.077 1.675c0 1.095 1.354 1.964 3.774 2.031 1.139.01 2.257-.282 2.76-.577a1.893 1.893 0 012.41.467c1.119 1.457 3.129 3.357 4.227 3.457a1.2 1.2 0 00.175.021c.369.141 1.333-.815 3.016-2.021h.011c.882-.554 2.072-.272 2.626.621.554.9.267 2.075-.616 2.629-.82.346-2.112 2.444-5.036 2.595-.289 0-.555-.034-.823-.077zm-504.485 9.17c-.344 0-.657-.021-.944-.021a2.045 2.045 0 01-2.021-2.083 2.054 2.054 0 012.082-2.018c.359.01.657.021.882.021 1.221-.043 1.503-.054 3.565-1.182 1.385-.718 1.687-2.18 2.964-4.414a2.048 2.048 0 012.816-.665 2.057 2.057 0 01.662 2.824c-.795 1.095-1.329 4.026-4.426 5.822-2.088 1.236-3.724 1.718-5.417 1.718-.05.001-.112.001-.163-.002zm199.552 303.324c58.441 3.672 118.687-4.78 118.851-6.196.235-1.785-1.56-19.347-2.657-19.019-30.016 9.694-116.696 5.97-116.748 7.468-.164 7.242-.021 17.706.554 17.747"/><path fill="#FFF" d="M286.526 380.5c7.263.708 22.722-.339 22.722-1.754 0 0 .144-19.655-.533-19.737-3.345-.39-22.712-.441-22.732 1.077-.196 7.191-.032 20.363.543 20.414"/><path d="M286.331 382.496l.195-2-.206 2c-1.493-.323-1.549-1.087-1.713-1.272-.113-.271-.149-.441-.195-.625a11.864 11.864 0 01-.159-1.139c-.087-.852-.148-1.964-.205-3.293-.108-2.646-.159-6.093-.159-9.422 0-2.421.031-4.775.082-6.678.185-1.677 1.21-1.944 1.569-2.159.472-.205.918-.313 1.437-.421 1.016-.195 2.287-.328 3.77-.431 2.949-.215 6.673-.297 10.038-.297 3.651 0 6.76.103 8.155.251 1.806.528 1.549 1.308 1.743 1.461.093.267.123.452.154.657.062.39.113.831.154 1.375.071 1.067.133 2.482.174 4.083.072 3.186.093 7.068.093 9.961 0 2.462-.011 4.206-.011 4.206-.205 1.723-1.189 1.938-1.569 2.2-.492.241-.984.375-1.56.518-1.148.272-2.605.487-4.298.667-3.396.37-7.684.585-11.54.585-2.195-.002-4.246-.063-5.949-.227zm5.95-3.781c5.508.057 12.586-.605 14.956-1.144v-3.026c.052-4.119-.093-10.986-.236-13.654-1.497-.072-3.774-.118-6.216-.113-4.698-.062-10.658.257-12.833.595a250.803 250.803 0 00-.046 5.37c-.01 4.59.108 9.545.292 11.869 1.216.073 2.616.103 4.083.103z"/><path d="M292.547 374.335c7.263.708 11.191.544 11.191-.862 0 0 .226-8.535-.872-8.812-1.99-.503-10.996-1.149-11.018.359-.183 7.202.146 9.264.699 9.315"/></svg>