<svg version="1.1" id="Layer_1" xmlns="http://www.w3.org/2000/svg" x="0" y="0" viewBox="0 0 150 150" xml:space="preserve"><style>.st0{fill:#fdfdfe}.st1{fill:#1f3362}.st2{fill:#1f3462}.st3{fill:#203463}.st5{fill:#1e3361}.st6{fill:#213664}.st7{fill:#203564}.st8{fill:#203563}.st9{fill:#1f3463}.st10{fill:#203664}.st11{fill:#223866}.st12{fill:#f8f8fa}.st13{fill:#f4f4f8}.st14{fill:#f6f6f9}.st15{fill:#fff}.st16{fill:#ebecf2}.st17{fill:#f0f0f5}</style><path class="st0" d="M17 149.6V.4h116.4v149.2H17zM91.9 33.9l-.3-3.3c-.2-1.8-1.1-3.2-2.9-3.9-.7-.3-1.5-.6-2.2-.9-.8-.4-1.4-.9-1.9-1.7-.9-1.5-1.8-3.1-2.9-4.5-1.7-2.3-4.5-2.4-6.4-.2-.6.7-1 1.5-1.4 2.3-.8 1.9-2.1 3.4-3.8 4.6-1.3.8-2.5 1.8-3.4 3.1-1.4 2.1-1.8 4.3-.5 6.5.5.9 1 1.7 1.5 2.6.8 1.3.9 2.7.5 4.2-.7 2.6-1.2 5.3-1.7 7.9-.5 2.2-.9 4.4-1.4 6.6-.3 1.3-.8 2.5-1.8 3.4-.9.8-1.8.8-2.7 0l-.2-.2c-.8-.7-1.7-.4-2.1.6-.5 1.4.2 3.1 1.4 3.8.4.2 1 .4 1.4.3.8-.2 1.7-.5 2.4-1 2.8-1.9 4.2-4.8 4.6-8 .4-2.6.4-5.2.7-7.7.1-1.1.4-2.2.8-3.3.6-1.7 2.4-1.7 3.5-.8 1.2 1 2.2 2.1 2.9 3.5.4.8.8 1 1.7.9l3.9-.3c.9 0 1.7-.3 2.4-.9.5-.4 1-.8 1.6-1.1.8-.4 1.3-.2 1.6.7 1.3 2.8 2 5.7 2.4 8.7.3 2 .7 4 1.7 5.8 1.1 2.1 2.6 3.7 5 4.2.6.1 1.3.1 2 0 .2 0 .6-.4.6-.7 0-.3-.2-.7-.5-.8-.4-.2-.9-.4-1.3-.5-1.4-.2-2.5-.8-3.2-2.1-.2-.4-.4-.9-.6-1.4-.8-2-1.2-4.1-1.6-6.3-.3-2.2-.7-4.5-1-6.7-.2-1.3-.4-2.5-.8-3.7-.6-1.8-.6-3.5.5-5.2 1.3-1.5 1.6-3 1.5-4.5zM25.8 85.6v.2c.4 0 .8.2 1.2.1 1.4-.2 2.7-.6 4.1-.9 2.4-.5 4.7-1.1 7.1-1.5 1.7-.3 2.8.8 2.6 2.4 0 .3-.2.7-.3 1-.1.3-.2.6-.2.8 0 .2.1.4.2.6l.6-.3c.1 0 .1-.2.1-.2.7-1.5 2-2.5 3.4-3.3 1.3-.8 2.9-1 4.4-1.3.5-.1.9-.2 1.3-.3-.2-.2-.4-.3-.6-.3-4-.9-7.6-2.5-10.9-5-.6-.4-1.1-1-1.3-1.8-.2-.9.2-1.4 1.2-1.3.8.1 1.7.3 2.5.5 2.6.8 5.2 1 7.8.3 1-.3 1.1-.5.5-1.4l-2.4-3.6c-.2-.3-.4-.9-.9-.7-.3.1-.6.6-.7 1-.3 1.6-1.4 2.3-2.9 2.6-1.1.2-1.7-.1-2.3-1.1-.8-1.2-.9-2.6-1.2-4-.3-1.2-.5-2.5-1.4-3.4-.2-.2-.5-.4-.9-.7 0 .4-.1.6-.1.8 0 1.8-.7 3.2-2.1 4.2-.6.4-1.3.6-2 .5-1.2-.2-2.3-.7-3.2-1.5-2.4-2.1-4.8-4.3-7.2-6.4-1.2-1-2.3-2.1-3.5-3.1-.3-.2-.7-.3-1.1-.5.1.4 0 .9.2 1.3.6 1.3 1.6 2.3 2.7 3.2 4.2 3.5 8.3 7 12.5 10.5.6.5 1.1 1.1 1.6 1.7.3.4.1.7-.3.9-.2.1-.4.1-.6.1h-5.3c-2.2 0-4.3-.1-6.5-.2-.2 0-.4.1-.6.1v.2c.2.1.4.3.6.3.7.1 1.3.1 2 .3 2.4.5 4.7 1 7.1 1.7 1.3.4 2.7.9 3.9 1.5.8.4.8.9.3 1.5-.4.4-.9.8-1.4 1-2.4 1-4.9 2-7.3 3-.3.3-.5.4-.7.5zm7.2 48.5c-.3-.6-.6-1.1-.9-1.6-.1-.3-.3-.4-.6-.4-.9.1-1.7.2-2.6.2l-9 .3h-.6c.2.7.5 1.4.6 2h5v.7h-7v2.1h4.4v.2c-1.6.6-3.2 1.2-4.9 1.7.2.4.4.8.7 1.2.4.7.4.7 1.2.5h.2v8.1h2.2v-.6h8.7c0 .2 0 .4.1.7h2.2v-8.4c.4.2.7.3 1.1.4l1.2-2.1c-1.4-.6-2.7-1.1-4-1.6v-.2h3.2v-2.1h-7v-.8c2 0 3.8-.1 5.8-.3zm63.3 8c.7-.1 1.3-.2 1.9-.2v1.3c-.6-.1-1.1-.2-1.7-.3-.3 1.4-.5 2.8-.8 4.2.6.2 1.1.3 1.7.5.3-1 .5-2 .7-3h.1v4.8h2v-5h.1c.2.8.3 1.5.5 2.3.6-.2 1.1-.3 1.8-.5-.3.7-.5 1.3-.7 1.9.6.3 1.3.6 1.9 1 .6-1.3.9-2.6 1-3.9 0-.1-.1-.4-.1-.4-.6-.2-1.1-.3-1.7-.4l-.3 1.5c-.4-1.1-.7-2.2-1-3.2-.5.1-1 .3-1.4.4v-1.3c.8-.2.8-.2 1.1.5.5-.2.9-.3 1.4-.6v1.9h4.8c-.2.2-.4.3-.6.4.5.7.9 1.4 1.4 2.2.6-.4 1.2-.7 1.9-1.1l-.9-1.5h3.3v-9.9h-4.4c.1-.4.2-.7.3-1-.8-.2-1.5-.3-2.2-.5-.1.3-.1.5-.2.7-.3.9-.3.9-1.2.9h-2.2v6.3h-.1c-.3-.8-.5-1.6-.8-2.4-.5.2-.8.4-1.3.6.6-1.1 1.1-2.1 1.7-3.1-.5-.2-1-.4-1.5-.7-.4-.2-.5-.1-.6.3-.3.6-.6 1.2-.9 1.9-.2-.2-.4-.3-.5-.4.6-1.1 1.2-2.1 1.7-3.1-.7-.3-1.3-.5-1.9-.8-.5.9-.9 1.8-1.4 2.7-.5-.1-1 .4-1.6 1.5.8.7 1.7 1.4 2.6 2.1-.3.5-.6.9-.8 1.3-.3.6-1 .2-1.4.6.1.2.2.9.3 1.5zm-5.5-23.5c.4-.3.9-.5 1.2-.9 1.2-1.3 1.6-2.8 1.2-4.5-.4-1.8-1.5-3-3.3-3.5-.7-.2-1.4-.2-2-.2h-8.3v17.2h3.5V120h4.1c1.2 0 1.8.5 1.9 1.7.1.8.1 1.6.1 2.5.1.8.2 1.7.3 2.5h4.2l-.3-.6c-.2-.4-.4-.8-.5-1.2-.1-.8-.1-1.5-.1-2.3 0-.7 0-1.3-.2-2-.1-.9-.8-1.6-1.8-2zm-40.7-9.1h-3.6v6.5h-6.7v-6.5h-3.6v17.2h3.6v-7.1c0-.5.1-.7.7-.7h6.1v7.7h3.6c-.1-5.6-.1-11.3-.1-17.1zM89 25.7c1.5 0 2.6-.6 3.2-1.8.5-.9.9-2 1-3 .3-1.8.8-3.6 1.8-5.1 1.1-1.6 1.3-3.3 1.2-5.2-.1-1.3.1-2.6.9-3.7.6-.9 1.1-1.8 1.4-2.8.8-2.3-.8-3.3-2.3-3.2-1.1 0-1.8.8-2.1 1.7-.5 1.3-.8 2.7-1.1 4.1-.2 1.2-.5 2.1-1.7 2.8-1.3.7-2.3 1.8-2.6 3.4-.1.6-.2 1.2-.3 1.9-.1 1-.4 2-1.1 2.8-.8 1-1.5 2.2-1.9 3.5-.5 2.1 1.1 4.7 3.6 4.6zM52.9 143.4c.6-.7 1.1-1.4 1.6-1.9-.8-.7-1.6-1.5-2.4-2.2 0-.1.1-.1.1-.2h2.2v-1.6c0-.4-.1-.6-.5-.5h-2.5v-.8c-.1-.4.1-.6.5-.5h1.7v-2.1h-2.2v-1.5h-2.1v1.5h-2.7v-1.5h-2.2v1.6h-2v2h2v1.4h-2.7v2.1h1.6c0 .1.1.1.1.2-.8.7-1.7 1.4-2.6 2.1.4.5.8 1.1 1.3 1.7.4-.3.7-.5 1.1-.7v4.8c0 1.2.7 1.9 1.9 1.9h6.6c1.7 0 2.1-.4 2.6-2 0-.1.1-.3.1-.4 0-.1-.1-.3-.1-.3-.6-.3-1.3-.6-1.9-1 0 .2 0 .4-.1.6-.1.6-.4 1-1.1 1-1.6 0-3.2.1-4.8.1-1.1 0-1.3-.3-1.1-1.5h6.5v-3.4c.4.4.8.7 1.1 1.1zm2-139.2c.1.3.1.8.3 1 .6.9 1.3 1.8 2 2.7.4.6.9 1.2 1.3 1.9.3.6.4 1.3.6 2 .4 1.8.9 3.5 2.3 4.8 1 1 1.6 2.2 2 3.5.5 1.6 1.2 3.1 2.4 4.4 1.3 1.3 2.7 1.5 4.2.7s2-2.2 1.5-3.9c-.5-1.7-1.5-3.1-2.7-4.3-.8-.8-1.4-1.7-1.7-2.8-.6-2-1.7-3.5-3.7-4.5-1-.5-1.6-1.2-2.1-2.2-.3-.7-.6-1.5-.9-2.2-.5-1.2-1-2.3-2-3.2-.8-.7-1.8-.7-2.5.1-.6.4-.9 1.1-1 2zm10.8 112.3c2.4-2.3 4.7-4.6 7.2-7h-4.4c-.2 0-.4.2-.6.3-1.4 1.5-2.8 3-4.3 4.5-.7.7-1.4 1.4-2.2 2.3v-7.1h-3.5v17.2h3.5v-5.3c0-.2 0-.5.1-.6.5-.6 1.1-1.1 1.6-1.6.1.1.2.2.3.4 1.6 2.3 3.2 4.5 4.8 6.8.1.2.3.4.4.4h4.5c-2.4-3.5-4.9-6.8-7.4-10.3zm34.6-7v9.7c0 1.1.1 2.2.2 3.2.3 2 1.3 3.5 3.3 4.2 1.9.7 3.8.7 5.8.4 1.7-.3 3-1.1 3.8-2.6.6-1.1.8-2.4.8-3.6v-11.3h-3.7V121c0 1.7-.7 2.6-1.9 2.9-.6.1-1.2.2-1.8.2-1.5-.1-2.3-.8-2.7-2.3-.1-.5-.1-1-.1-1.5v-10.9c-1.3.1-2.5.1-3.7.1zm32.6-77.3c-.6 0-1.1.1-1.7.1-1.6 0-2.6-1.2-2.1-2.8.3-.9.9-1.7 1.4-2.6.2-.3.3-.5.5-.8-.3 0-.7 0-1 .2-.8.3-1.5.7-2.3 1-.3.1-.7 0-.9-.2-.2-.2-.2-.7 0-.9.3-.6.8-1.1 1.2-1.7.2-.2.3-.5.5-.8-.3 0-.6 0-.8.1-.7.2-1.5.5-2.2.7-.8.2-1.5 0-2-.7s-.7-1.4-.2-2.2c.3-.6.8-1.1 1.2-1.7.1-.2.2-.3.4-.6-.9.1-1.7.1-2.4.1-1.1 0-2.2-.6-2.4-1.4-.3-1.2-.3-2.4.7-3.5.1-.2.2-.4.4-.6-.2 0-.2-.1-.3-.1-2.2 0-4.3 1.8-4 4.8.1 1.1.4 2.2.6 3.3.1.6.2 1.1.3 1.7.2 1.5-.5 2.6-1.7 3.4-.6.4-.8 1-.6 1.6.2.7.7 1.1 1.5 1 .6 0 1.3-.1 1.9-.4 1.3-.6 2.4-.2 3.5.6 1.7 1.2 3.4 2.3 5.2 3.3 1.5.8 3.1.9 4.7.1.2.2.6-.3.6-1zm0 103c-.1 0-.2-.1-.3-.1-.1 0-.2 0-.3-.1-2.9-.8-5.9-1.4-8.4-3.3-2.7 1.6-5.7 2.8-8.8 3.7.3.5.6.9.8 1.4.2.4.4.6.9.4v5.2h14.4v-5.5c.5.5.7.1.9-.3.2-.4.5-.8.8-1.4zm-9.2-68.1c-.4.3-1 .4-1.3.8-1.2 1.3-2.3 2.7-3.3 4.1-.3.3-.4.8-.4 1.2 0 .8-.2 1.3-.8 1.8-.7.6-1.1 1.4-.8 2.5.3 1.1.3 2.2-.2 3.3-.8 1.6-.9 3.3-.7 5.1.2 2.3 1.7 4.2 3.9 5 .2.1.3.1.5.1.5 0 .7-.3.4-.8-.2-.3-.4-.5-.6-.8-1-1.2-1.4-2.5-1.4-4.1.1-1.3.6-2.1 1.9-2.4.8-.2 1.7-.3 2.5-.5.5-.1 1-.5 1-1 .1-.6-.4-.7-.8-.9 0 0-.1 0-.1-.1-.5-.2-.8-.5-.8-1s.4-.8.9-.9c.5-.2 1.1-.3 1.6-.6.5-.2.8-.5.8-1.1 0-.6-.4-.9-.9-1.1-.4-.2-.8-.3-1.2-.5-.4-.2-.7-.4-.6-.9.1-.5.3-.9.8-1.1.2-.1.4-.1.6-.2h.2c1-.3 1.3-1.2.5-1.9-.6-.5-1.3-.9-1.9-1.3-.5-.3-.5-.6-.1-1 .3-.3.6-.6.8-.9.1-.2.2-.4.2-.6-.1 0-.4 0-.7-.2zm-47.6.5c-.1 3.3 2.6 5.8 5.6 5.9 3.3.1 5.9-2.8 5.9-5.8 0-2.8-2.2-5.8-5.8-5.9-3.1 0-5.7 2.6-5.7 5.8zm14.8 75.2c.9-1.6 1.7-3 2.6-4.4-.8-.4-1.4-.7-2-1.1-.6 1.1-1.2 2.1-1.7 3.1-1-1.2-.6-2.5-.7-3.8h4.4v-2.1h-1.8c.5-.3.9-.5 1.3-.8-.4-.6-.7-1.2-1.1-1.8-.6.4-1.2.8-1.8 1.1.3.5.6.9.9 1.4h-1.8v-2.5H87v2.5h-4v2.1h4v4.2c0 .3-.2.6-.4.7-1.1.8-2.3 1.6-3.4 2.4-.1.1-.3.3-.3.4.2.7.5 1.4.8 2.2 1.1-.8 2.2-1.6 3.2-2.4v2.6c0 .3-.2.5-.5.4-.6 0-1.2-.1-1.9-.1.1.7.3 1.4.4 2.2.8 0 1.4.1 2.1.1 1.4-.1 2-.5 2.1-1.8.1-1.2.1-2.4.1-3.6v-.7c1 1.7 2.1 3.2 3.6 4.4.4-.8.8-1.5 1.1-2-1.2-.9-2.1-1.8-3-2.7zM26.4 33.1c1.6-.1 4.4-.9 6.2-1.9 1.4-.7 2.5-1.7 3.2-3.1.3-.6.6-1.3.5-1.9-.2-1.1-.1-2 .3-3 0-.1.1-.2.1-.3.2-2.3-.4-4.4-1.6-6.4-.5-.8-1.1-1.5-2-1.8-.4-.1-.8-.2-1.1.2-.3.4-.3.7-.1 1.1.2.4.5.8.6 1.2.2.7.4 1.4.3 2.1-.1.9-.8 1.4-1.6 1.8-1.3.6-1.5 1.1-1 2.4 0 .1.1.2.1.3.3 1.1-.2 1.9-1.2 2.1h-.8c-.3 0-.6.1-.8.2.1.3.1.6.2.9.1.2.3.4.4.6.3.4.6.8.9 1.3.4.7.3 1.1-.3 1.6s-1.2.8-1.8 1.2c-.5.3-1 .4-1.6.2-.2-.1-.4.1-.6.1.1.2.1.6.3.7.5.2 1 .3 1.4.4zM62.6 99c-.4.1-.7.2-1.1.3-1.7.4-3.3 1-4.8 1.9-.3.2-.5.5-.7.7-.1.1-.1.4 0 .5.1.1.3.1.4 0 .3-.1.6-.3 1-.4.6-.3 1-.2 1.4.4.3.4.5.8.7 1.3.5.7 1.2.8 1.8.3.3-.3.5-.6.8-.9.6-.6 1.4-.5 1.7.4.1.2.1.4.2.6.1.6.4.9.9 1.1.6.1 1.2 0 1.6-.6.3-.4.5-.7.9-1 .5-.5 1.2-.3 1.5.3.1.1.1.3.2.4.4.8 1.1.9 1.6.3.3-.3.5-.8.7-1.2.3-.8.9-1.3 1.7-1.7 1.5-.6 4.3.3 5.4 1.7.2.3.5.7.9.4.4-.2.2-.6.2-1-.3-1.4-1.2-2.3-2.5-2.9-1.6-.6-3.3-1.2-5-.9-1.8.4-3.5.2-5.3-.4-.4-.1-1-.1-1.4.1-.9.3-1.8.7-2.8.3zm10.5-41.5c.1.2.1.6.3.8.4.2.7 0 1-.3.2-.3.5-.6.8-.8.8-.6 1.6-1.4 2.6-1.9.8-.5 1.8-.7 2.8-.2 1 .5 2 .6 2.9.1 1.2-.7 2.2-.6 3.3.3.4.3 1 .4 1.5 0s.3-.9.1-1.3c0-.1 0-.1-.1-.2-.6-1.2-1.2-2.5-1.7-3.7-.4-1-1.2-1.4-2.2-1.5-1.8-.1-3.6 0-5.4.2-1.4.2-2.5.7-3.4 1.7-1.6 1.9-2 4.3-2.5 6.8zm-2.5 89.4h2.2v-6.7h-9.6v6.7h1.9v.2c-1 .2-2 .4-3 .7.3.6.7 1.1 1 1.7.7-.2 1.5-.4 2.1-.6.9-.3 1.7-.7 2-1.8 0-.1.2-.2.3-.2h1v.8c0 .9.3 1.3 1.2 1.4 1 .1 2 .2 2.9.1 1.2 0 1.3-.1 1.6-1.4-.6-.3-1.1-.5-1.7-.8-.4.8-.6.9-1.4.8-.5-.1-.7-.4-.5-.9zm28-105c.2-.6.1-.9-.3-1.2-.3-.2-.6-.5-.8-.8-.4-.4-.5-.9-.3-1.4.2-.5.6-1 1-1.4.5-.5 1.1-.9 1.6-1.4.6-.6.4-1.3-.5-1.5-.7-.2-1.3-.2-1.9-.4-1.2-.3-1.6-1.2-1.1-2.2.4-.8.9-1.6 1.4-2.4.4-.7 1-1.3 1.4-2 .3-.6-.1-1.2-.7-1.1-1.1.2-2.1.6-2.8 1.4-.6.7-1.2 1.5-1.9 2.3-.4.5-.6.9-.6 1.6.2 2.3-.1 4.6-.7 6.9-.2.8-.5 1.6-1.4 2-.7.3-.5 1.3.2 1.6.3.1.6.2 1 .1.8 0 1.7-.1 2.5-.1h3.9zm19.1 107.5h1.9c.1 0 .2-.1.2-.1.1-.1.2-.2.3-.2 1.5 0 3-.1 4.4 0 1.4.1 2.8-.4 4.2.3.5.2 1.2 0 1.8 0v-6.5h-12.9c.1 2.3.1 4.4.1 6.5zM47.3 56.2c-.3-.5-.5-1-.9-1.5-.4-.6-.8-1-1.2-1.6-.2-.3-.5-.4-.9-.3-.8.2-1.7.3-2.6.5-1 .2-1.9.2-2.8.5-.8.2-1.1.8-1 1.7.1.4.1.8.2 1.1.6 1.8 1.3 3.5 2.9 4.6 1.2.9 2.6.8 3.6-.4.7-.9 1.4-1.9 2-2.8.3-.6.4-1.2.7-1.8zm29.2 91.9c2.1-.5 4.1-.9 6.2-1.4-.1-.7-.2-1.4-.2-2.1-.6.1-1.2.2-1.7.4v-4.2h1.8v-2.1h-1.8v-3.5h2v-2h-6.1v2.1h1.9v3.5h-1.8v2.1h1.9v4.3c0 .1-.2.3-.3.4-.5.1-1.1.2-1.6.3-.3 0-.4.1-.4.4-.1.5 0 1.1.1 1.8zm-8.7-10.5v-2.5c.3.3.6.5.9.7.2-.2.3-.4.5-.6 0 .3 0 .5.1.6h4.2v-1.2h-3.9c0-.5.2-.4.5-.4h4.1v-1.4h-3.8c-.2-.4-.2-.4-1.1-.6-.4-.1-.7-.1-.8.4-.1.4-.2.7-.4 1-.5.9-.7 1-1.7.8v-.7h1.3v-1.5h-5.4v7.5h5.4v-1.5h-1.2v-.7c.4.1.8.1 1.3.1zm-10.8-.5h1.6v.3c-.6 1.9-1.2 3.9-1.9 5.8 0 .1-.1.3 0 .4.3.5.7.9 1.1 1.4.3-.7.5-1.3.8-2h.1v6.4h2v-8h.1c.2.4.5.8.7 1.3.4-.5.7-1 1-1.4.2-.3.2-.4 0-.7-.5-.5-.9-1.2-1.4-1.7-.6-.5-.4-1.1-.4-1.8H62v-1.9h-1.4v-3.1h-2v3.1H57v1.9zm51.4-75.2c1.1 0 2.2-.1 3-1 .6-.7 1.1-1.5 1.5-2.3.6-1.1.3-1.8-1-2-1.2-.2-2.4-.4-3.6-.5-1.3-.1-2.6 0-3.9.6-1.2.5-2.1 1.3-2.5 2.5-.3.8-.1 1.2.7 1.5 1.9.7 3.8 1.1 5.8 1.2zM95.2 42.5s0 .1 0 0c-.6.1-1.2 0-1.9.1-.9 0-1.3.3-1.4 1.2-.2 1.3-.1 2.5.5 3.6.4.8 1.1 1.1 2 .7.3-.1.5-.3.7-.4.5-.4 1-.4 1.5 0 .6.4 1.1.8 1.7 1.2 1.2.7 2 .4 2.6-.9.3-.6.4-1.2.6-1.8.3-.8.2-1.4-.5-1.9-.9-.5-1.8-1.1-2.7-1.4-1-.3-2.1-.3-3.1-.4zm5-.1v.2c.3.2.7.3 1 .5.6.4 1.3.7 1.4 1.5.2 1.4-.1 2.6-1 3.7-.1.2-.2.4-.2.5.2.1.5.1.7.2h1.3c.2 0 .4.2.6.3.6.3 1.1.3 1.7-.2.6-.5 1.3-.9 1.9-1.4.6-.4 1.2-1 1.3-1.7.2-.9.3-1.8.4-2.7.1-.8-.3-1.4-1.1-1.6-.6-.2-1.3-.3-2-.2-1.6.2-3.1.4-4.7.6-.4.2-.8.3-1.3.3zm-58.7 4.7c.3-.1.7-.1 1-.2 1.2-.1 2.1-.6 2.4-1.8.1-.5.3-1 .3-1.5 0-1-.3-1.6-1.3-1.8-.8-.1-1.5-.4-2.2-.8-1-.6-2-1-3-1.5-.4-.2-.7-.1-.8.4-.4 1.3-.8 2.6-1.3 3.8-.5 1.4 0 2.4 1.4 2.8 1.2.4 2.3.5 3.5.6zm78.2 11.2h-.1c0-.3-.1-.6-.1-.9-.1-1.2-1-1.7-2.1-1.4-2.3.7-3.5 2.4-4.5 4.4-.4.8-.2 1.4.3 2 .8.9 1.9 1.3 3 1.5 1.7.4 2.4-.5 2.7-1.7.3-1.2.5-2.6.8-3.9zm-10.8 8.1c-.1 1 0 1.1.9 1.4.4.2.9.4 1.3.6.6.3 1.2.8 1.8 1.1 1.5.7 2.8.3 3.7-1.1.8-1.4.5-3-.8-3.6-1.4-.7-2.9-1.3-4.4-1.8-1.3-.5-2.3.2-2.4 1.6-.2.6-.1 1.2-.1 1.8zM49.3 39.9c-1.6 0-2.8.8-3.1 2-.3 1.3.3 2.5 1.8 3.1.6.3 1.3.4 1.9.5 1.1.1 2.1-.1 2.8-1.2.4-.7 1.1-1.1 1.9-1.4.2-.1.5-.2.7-.3.8-.5.9-1.6.3-2.3-.6-.6-1.3-.7-2.1-.4-.7.3-1.3.4-2.1.2-.8-.1-1.6-.1-2.1-.2zM43.9 41c1.2-.1 2.2-.5 2.8-1.6.3-.5.5-1 .8-1.5.3-.5.1-.8-.4-1-1.7-.6-3-1.7-4.1-3-.6-.7-1.1-.8-1.7-.1-1.2 1.2-1.9 2.7-2.4 4.4-.1.3 0 .6.4.7 1.1.1 1.9.7 2.7 1.4.5.5 1.1.7 1.9.7zm65.3-4c.4-.2 1-.3 1.3-.6 1.2-1.2 1.8-2.6 1.5-4.3-.2-.9-.7-1.7-1.8-1.9-.5-.1-1-.3-1.5-.5-.9-.3-1.7-.7-2.6-1-.8-.3-1.6 0-1.9.6-.4.6-.3 1.4.3 2 .3.3.6.6 1 .8 1.3.8 2.1 1.8 2.1 3.4 0 .8.6 1.4 1.6 1.5zm-58.4-5.2c-.2-1.4-.4-2.5-.6-3.7-.1-.7-.4-.9-1.1-.6-.6.3-1.2.7-1.8 1.1-1.3 1-2.5 2.1-3.8 3.2-.5.4-.6.9-.1 1.3.9.8 1.9 1.6 2.9 2.4.6.5 1.3.5 1.9.1.5-.3.8-.7 1.2-1.2.4-.5.7-1 1-1.5.1-.5.3-.9.4-1.1zm58.3 42.8c.5-.1.9-.1 1.4-.2 1-.2 2.1-.5 2.8-1.3.8-.9.7-2.4-.4-2.9-1.3-.7-2.7-1.2-4.1-1.8-.7-.3-1.4-.1-2 .3-.9.7-1.4 2.3-1.1 3.4.5 1.7 1.7 2.5 3.4 2.5zm-8.6-11.1c0 1.6.1 2.2 1.1 2.7 1.5.8 3.1 1.3 4.8 1.3.8 0 1.4-.4 1.6-1.2.1-.5.1-1.1.1-1.7.1-.4.1-.9.3-1.2.3-.5.3-.7-.3-.8-1.3-.3-2.5-.5-3.8-.8-.9-.2-1.9-.4-2.8-.5-.7-.1-1.1.4-1.1 1.1.1.4.1.8.1 1.1zM36.4 49.8v.7c.2 1.3.8 2.5 2.6 2.4 1.6-.1 3-.5 4.4-1.2 1.2-.6 1.5-1.5 1.4-2.7-.1-1-.8-1.6-1.8-1.4-1.5.3-2.9.3-4.4-.1-1.2-.3-2 .2-2.2 1.4v.9zm47.5 32.5c0 .6 0 1 .1 1.5 0 .8.5 1.1 1.3 1 1.3-.2 2.6-.7 3.7-1.3.9-.4 1.7-.8 2.6-1.3.3-.2.8-.4.5-.8-1.1-1.4-2.2-2.8-4.2-3-2-.2-3.1.4-3.6 2.1-.3.6-.3 1.3-.4 1.8zM35.6 45.7c0-1.1-.2-2-.7-2.8-.4-.8-1.1-1.2-1.9-1-1.9.4-3.7 1-5.3 2.1-1 .7-.9 1.2.1 1.7s2.1.9 3.2 1.3c.9.3 1.8.5 2.7.8.9.2 1.5-.1 1.7-1 .2-.4.2-.8.2-1.1zM33 63.4c1.1-.1 2.4-.2 3.6-.4.7-.1 1.3-.3 1.9-.6.6-.3.8-.8.7-1.5-.2-1.1-.9-2-1.6-2.8-.9-1-1.7-1.2-2.7-.2-1 .9-1.9 2-2.9 3-.4.4-.7.9-1 1.5-.3.5-.1.9.5 1 .4-.1.9 0 1.5 0zm.5-28.6c-.8 0-1.6 0-2.3.1-.7.1-1.4.2-2.1.5-.6.2-.7.7-.3 1.2.2.2.3.4.5.6 1.1.9 2.2 1.8 3.4 2.7.4.3.9.6 1.4.9 1.1.5 1.8.2 2.1-1 .2-.9.4-1.8.4-2.7.1-1.3-.8-2.1-2.1-2.1-.2-.2-.6-.2-1-.2zm72.4 33.8c-.5-.3-.8-.4-1.1-.6-1-.3-2-.7-3-.9-1.8-.5-2.2-.3-3 1.4-.2.5-.5 1-.8 1.4-.4.6-.5.8.1 1.1 1.3.7 2.7 1.4 4 2 0 0 .1 0 .2.1 1.7.4 2.7-.1 2.7-2v-.2c-.1-.9-.1-1.7.9-2.3zM36.4 53.9c0-.8-.4-2.3-.9-3.1-.7-1.1-1.5-1.4-2.6-.8-1.4.8-2.8 1.7-4.2 2.6-.2.1-.4.4-.5.6-.4.6-.4.9.3 1.2.2.1.5.2.7.3 1.7.3 3.4.7 5.1.9 1.4 0 2.1-.5 2.1-1.7zm67.3-25.5c0-.5-.4-1-1.1-1.2-.4-.1-.9-.2-1.3-.2-.8-.2-1 0-1.4.7-.5.8-1 1.5-1.5 2.2-.4.7-.8 1.4-1.1 2.1-.2.6 0 .9.6 1.1.5.1 1 .2 1.5.4.6.2 1.3.3 1.5 1.1.1.3.3.3.6.1.6-.5 1.1-1 1.7-1.5.3-.3.5-.6.4-1.1-.1-.4-.2-.8-.1-1.2 0-.9.1-1.6.2-2.5zM65.6 49.2h-.1V49c-.1-.3-.1-.8-.4-.9-.4-.2-.7.2-.9.5-.3.6-.6 1.1-.9 1.7-.4 1-1 2-1.9 2.7-1.8 1.4-1.8 3.4-1 5.3.3.7.8.9 1.5.7.9-.2 1.5-.8 1.8-1.6.4-1.1.7-2.3 1-3.5.3-1.6.6-3.2.9-4.7zM50 62.8c1.3 0 1.9-.6 2.3-1.8.1-.3.2-.7.5-.9.5-.5.6-1.1.6-1.8-.1-1.4-1.2-2.2-2.5-1.8-.4.1-.9.3-1.3.4-1 .4-2 1-2.7 1.9-.4.4-.6.9-.4 1.5.3 1.4 2 2.6 3.5 2.5zm63.1-6.8c.8-.1 1.6-.1 2.3-.2.9-.2 1.8-.4 2.7-.7.2-.1.4-.3.5-.5 0-.2-.2-.4-.4-.5-.1-.1-.2-.2-.3-.2-1.2-.2-2.2-.9-3.1-1.7-1-.8-2-.9-3.1-.4-1.2.6-2.5 1.2-3.7 1.8-.4.2-.6.5-.9.8.3.3.6.6 1 .7 1.5.7 3.3.8 5 .9zm-5.2-15.4c1 .4 1.9.2 2.7.1 1.8-.2 3.6-.8 5.1-1.7 1.2-.8 1.4-1.9.6-3-.8-1.2-1.9-1.4-3.3-.7-1.8 1-3.3 2.4-4.5 4-.3.4-.4.8-.6 1.3zm-54-14.3c-1.5-.1-2.7 1-2.9 2.2-.2 1.3.4 2.4 1.1 3.4.2.3.5.6.9.8.7.3 1.4.5 2 .7.2.1.5 0 .7 0-.1-.2-.1-.4-.2-.6-.6-1.1-.3-2.5.8-3.2.8-.5 1.1-1.3 1.4-2.2.1-.4 0-.6-.5-.6-.4 0-.8 0-1.2-.1-.8-.1-1.6-.3-2.1-.4zM78.4 79c.3 1.4-.5 2.2-1.2 3-.2.2-.3.4-.4.7 0 .2.1.5.2.6.9.6 1.8 1.2 2.8 1.8.8.5 1.7.6 2.5.1s1-1.2 1-2.1c0-1-.1-2 .4-2.9.2-.3 0-.6-.4-.6s-.7 0-1.1.1c-1.1.1-2.2.1-3.2-.5-.2-.1-.3-.1-.6-.2zM42.1 62.3v.2l.2.2c1.4 1.2 2.9 2.4 4.3 3.6.8.7 1.6 1.3 2.5 2 .4.3.8.3 1.1-.1.4-.8 1-1.3 1.6-1.8.6-.6.7-1.4.3-2.1-.2-.4-.6-.6-1-.4-.8.4-1.6.3-2.4 0-1.1-.4-2.2-.9-2.7-2.1-.2-.5-.6-.4-.9-.1-.4.4-.9.5-1.5.5s-1 0-1.5.1zm30.6 21c-.1-.6-.3-.8-.9-1-1-.3-2.1-.6-2.9-1.3-.4-.4-.9-.2-1.2.1-.6.8-1.2 1.5-1.7 2.4-.4.6-.3 1.2.2 1.8.7 1.1 1.9 1.6 3 2 .9.4 1.7 0 2.1-.9.3-.7.7-1.5 1.1-2.2.1-.2.2-.6.3-.9zm-10.4-4.8v-.2c-.3-.1-.5-.2-.8-.3-.7-.1-1.3-.4-1.8-.9-.7-.7-1.5-1.2-2.4-1.5-1.4-.4-2.2.1-2.3 1.6 0 .9.3 1.8.5 2.7.2 1.3 1.1 2 2.2 2.5.6.3 1.1.2 1.5-.4.3-.4.5-.9.7-1.3.3-.7.8-1.2 1.5-1.5.3-.3.6-.5.9-.7zm55.8-25.2c.4-.2.8-.4 1-.7.4-.6.7-1.4 1-2.1.2-.5.2-1 .4-1.5.2-.7.1-1.1-.6-1.2-1.5-.3-3-.5-4.6-.7-1.1-.1-1.7.7-1.5 1.7.2.8.6 1.5 1.2 2.1.6.6 1.3 1.2 1.9 1.7.4.3.8.5 1.2.7zM62.3 36.4c.6-.1 1.3-.2 1.9-.3.1 0 .3-.1.4-.2.3-.7.3-1.4 0-2.1-.2-.5-.7-.6-1.3-.6-1.2 0-2.3-.3-3.3-1.1-.7-.6-1.6-1-2.5-1.4-.8-.3-1.6.4-1.4 1.3.1.4.2.8.5 1.2 1.4 2 3.2 3.1 5.7 3.2zm45.2 16.3c.7-.1 1.3-.2 1.9-.4 1.3-.4 2.5-1.1 3.3-2.3.7-1.2.3-2.1-1-2.5-1.9-.6-4.8.7-5.8 2.7-.8 1.5-.3 2.4 1.6 2.5zM91.7 84.8h-.1c.2.7.4 1.5.7 2.2.7 1.7 2.2 2 3.5.7.4-.4.9-.7 1.4-1.1.2-.2.5-.3.7-.6.7-.7.7-1.3-.2-1.8-1-.6-2.1-1.1-3.2-1.7-.8-.4-1.4-.2-2.1.3-.5.6-.7 1.2-.7 2zm13.4-9.1c-.1-.2-.1-.4-.3-.6-.6-.5-1.2-1.1-1.9-1.4-1.2-.6-2.1-.2-2.6.9-.2.4-.4.7-.5 1.1-.4.9-.5 1.9.3 2.7.9.9 1.9 1.6 3.1 2 .7.2.9.1 1.1-.6.2-1.1.4-2.3.7-3.4 0-.2.1-.4.1-.7zM118.6 47c1.6-.1 2.3-.7 2.1-2-.1-.7-.2-1.4-.4-2.1-.4-1.1-.9-2.3-1.4-3.4-.2-.5-.7-.8-1.3-.7-.5.1-1 .8-1 1.4 0 .4 0 .7.1 1.1.1 1 .1 2-.2 2.9-.4 1.2 0 2 1.1 2.4.2.3.6.4 1 .4zm-3.1-4.6c0-1.2-.9-1.9-2-1.7-1 .2-2 .5-3.1.8-.4.1-.6.5-.4.8.4.8.3 1.6 0 2.4-.1.3-.1.6-.1.9.1.7 1.1 1.3 1.9 1.1.8-.2 1.5-.4 2.3-.6.5-.1.8-.4.9-.9.2-1 .4-1.9.5-2.8zM65 30.5c0-.9-.4-1.8-1.4-2.3-1.1-.6-2.2-1.1-3.3-1.5-.8-.3-1.5-.1-2 .6-.3.4-.4.8-.6 1.2-.2.8-.1 1 .7 1.4.6.2 1.2.5 1.8.8.9.4 1.7 1 2.6 1.3 1.3.6 2.2 0 2.2-1.5zm-6.4 10.6c-.4.3-.8.6-1.2 1-.5.6-1 1-1.7 1.3-1.2.4-1.5 1.6-.9 2.7.3.4.5.9.8 1.3.2.3.4.4.8.1.2-.2.6-.3.8-.5 1-.5 2-.9 2.6-2 .4-.7.8-1.3 1.5-1.8.2-.1.4-.5.4-.8 0-.2-.4-.4-.6-.5l-1.8-.6c-.2-.1-.4-.1-.7-.2zm-7.8-1.9c1.9 0 3.9-1.4 4.4-3.1.2-.7.1-1-.5-1.4-.5-.3-1.1-.6-1.7-.9-.6-.4-1.2-.4-1.7 0-1.1.7-1.9 1.6-2.3 2.9-.5 1.4.4 2.5 1.8 2.5zm58.4 107c0 .2-.1.4-.1.5 0 .5-.3.6-.7.6-1.2 0-1.2-.1-1.2-1.2v-.3c0-1.6 0-1.6-1.7-1.5h-.1c-.1.1-.3.2-.3.3 0 1.1 0 2.2.1 3.2.1.7.5 1.2 1.2 1.2 1.1.1 2.1.1 3.2.1.3 0 .7-.1 1-.3.2-.2.3-.6.5-.9l.3.9 2.1-.9c-.4-1.2-.9-2.2-1.3-3.4-.7.3-1.3.6-2 .9.2.5.4 1 .6 1.6-.6-.2-1.1-.5-1.6-.8zM55.4 65.6c.6-.1 1.3-.1 1.9-.3.5-.1.8-.5.6-.9-.4-1.3-.6-2.7-.6-4.1 0-.3-.1-.4-.4-.4-.5 0-.9-.1-1.4-.2-.3 0-.6-.1-.8 0-.7.5-1.4 1-1.8 1.8-.9 1.8-.2 3.5 1.7 4 .2.1.5.1.8.1zm40.5 15.1c.1.3.1.6.2.8.8 1.3 1.9 2.3 3.4 2.8 1.1.3 2-.3 2.2-1.4.1-.4.1-.7.1-1.1.2-.8-.1-1.4-.8-1.8-.7-.4-1.5-.8-2.2-1.1-1.5-.7-2.8.2-2.9 1.8zm3.7-6.7c0-.2 0-.5-.1-.7-.3-1.1-1.3-1.4-2.2-1.8-1.2-.4-3 .8-3.1 2.2 0 .2 0 .5.1.7.5 1.1 1.1 2.1 2.1 2.9.8.6 1.6.5 2.2-.3.6-.9.9-1.9 1-3zM86.8 88.1c.1 0 .1 0 0 0v-.7c.1-.6-.2-1-.7-1.2-1-.4-2-.4-2.9 0-1.2.5-1.5 2.5-1.2 3.6.4 1.5 2.8 2.4 4.1 1.5.8-.5 1-1.1.8-2.1-.1-.3 0-.7-.1-1.1zm20.8-50.5c-.1-1.1-.5-2.4-1.5-3.5-.2-.3-.5-.5-.8-.6-.7-.4-1.3-.2-1.6.6-.2.4-.2 1-.1 1.4.2.9.3 1.7.2 2.6-.1.6-.1 1.2 0 1.7.1.9.8 1.4 1.7 1.2 1.3-.4 2.1-1.5 2.1-3.4zM69.2 80.5s0-.1.1-.1.3 0 .4-.1c1.1-.5 1.9-1.3 2.5-2.4.1-.2 0-.5-.1-.7-.3-.4-.8-.4-1.3-.4s-.9-.1-1.4-.2c-.5-.1-1-.3-1.5-.4-.5-.1-1-.2-1.5-.2-.1 0-.3-.1-.4 0-.8.4-1.5.9-2 1.7-.3.6 0 1.2.7 1.2h.8c1 0 1.8.2 2.5 1 .4.3.9.4 1.2.6zm26.3-2.2c0-1-.8-2.6-1.6-3-.2-.1-.5-.2-.7-.1-.9.4-1.9.8-2.7 1.3-.6.4-.7 1.1-.3 1.7.2.4.5.7.9 1 .9.8 1.8 1.4 3 1.6.6.1.8 0 .9-.7 0-.3.1-.6.2-.8 0-.4.2-.8.3-1zm-20.4 4.5c.7 0 1.1-.2 1.4-.7.4-.6.7-1.2 1.1-1.8.6-.9.3-1.7-.8-1.8-.8-.1-1.6-.3-2.4-.4-.3 0-.6-.1-.8 0-1.1.6-1.9 1.6-2.4 2.8-.2.4.2.8.7.9.7.2 1.4.4 2.1.5.4.3.9.4 1.1.5zm-12.2-3.4c-.7 0-1.3.4-1.6.9-.3.5-.6.9-.8 1.4-.3.5-.3 1-.1 1.4.3.5.8.5 1.2.4.8-.1 1.5 0 2.2.2.6.2 1.2.1 1.5-.5.4-.7.9-1.3 1.3-2 .2-.4.4-.9.1-1.3-.3-.5-.8-.3-1.3-.3-.6 0-1.2-.1-1.8-.1-.2 0-.5-.1-.7-.1zm3 17.7c.2-.1.7-.1.9-.3.9-.7 1.9-1.4 2.7-2.2.4-.4.4-.9-.1-1.3-1.2-1-2-1.1-3.2-.5-.4.2-.7.5-1.1.7-.6.3-1.1.8-1.8 1-1 .3-.9 1.1-.4 1.6.8.8 1.8.8 3 1zM50.7 47.7c0-1-.3-1.4-1.1-1.6-.8-.2-1.5-.4-2.3-.6-1-.2-1.5.2-1.6 1.2 0 1.5.5 2.8 1.4 3.9.6.7 1.4.8 2.1.1.9-.8 1.4-1.8 1.5-3zM79 85.9c-1.7 0-2.6.6-3 2.3-.3 1.1-.2 2 1.4 2 .5 0 1 .2 1.5.4 1.1.4 1.8.2 2.1-1 .2-.8.3-1.6.5-2.3.1-.5-.1-.8-.6-1-.7-.2-1.3-.3-1.9-.4zm-5.5-34.6c-.1-.3-.2-.7-.4-1.1-.5-.8-1.3-1.3-2.2-1.8-.6-.3-1-.2-1 .5-.1 1.4-.3 2.7-.3 4.1 0 1.3.7 2.1 2 2.3.5.1.8-.1 1-.6.2-.8.5-1.5.7-2.3 0-.3.1-.7.2-1.1zm-19.3 19s0-.1 0 0c.4-.1.7-.1 1.1-.1 1.9 0 2.3-1.3 2.2-2.7-.1-.6-.4-.9-1-.9-.5 0-1 0-1.5.1-.6.1-1.3.2-1.9-.1-.6-.2-1.1.1-1.4.7l-.6.9c-.3.5-.3.9.1 1.3.3.2.6.4.9.5l2.1.3zM87.6 87c0 .5 0 1 .1 1.4.1.8.4 1.6 1.3 2 .7.3 1.3.2 1.8-.3.7-.5 1-1.3.9-2.1-.2-1.2-.6-2.4-.9-3.5-.2-.7-.4-.7-.9-.2-.5.4-1 .8-1.6 1.1-.4.2-.6.5-.7.9v.7zm-28.1.9c-.1.2-.2.4-.1.5.2.9.4 1.7.7 2.6.2.5.6.5.9 0 .3-.4.4-.9.7-1.3.7-.9 1.2-1 2.1-.2.4.4.9.8 1.4 1.1.6.4 1.4.2 1.7-.4.2-.4.6-.7.8-1.1.1-.3.3-.6.2-.9-.3-1-1.9-1.6-2.8-1-.6.3-1.1.8-1.7 1-.3.1-.8 0-1.2 0-.3 0-.7-.3-1-.1-.6.2-1.1.1-1.7-.2zM48.3 26c-.1-.3-.1-.5-.3-.7-.8-1.1-1.8-2.1-3-2.7-.8-.4-1.3-.2-1.4.7-.3 1.8.3 3.4 1.3 4.9.3.4.8.5 1.3.3.8-.3 1.4-.9 1.8-1.6l.3-.9zM74 136.3h-5.8v3.4H74v-3.4zM49 51.5l-1.8.3c-.6.1-.8.5-.5 1.1.3.7.7 1.4 1.2 2 1.3 1.6 3.4 1.5 4.8.5.2-.1.5-.5.4-.6 0-.2-.3-.5-.6-.6-.7-.2-1.1-.6-1.4-1.2-.3-1.1-1.1-1.5-2.1-1.5zm9-11.3c.8-.2 1.6-.4 2.4-.7.6-.2 1-.6 1-1.3 0-.6-.5-.9-1-1.1l-3.6-1.5c-.4-.2-.7 0-.8.3-.4.9-.5 1.9-.3 2.8.2 1 .9 1.4 2.3 1.5zm13.6 47.6c.2.4.3.7.6.9.4.3.8.5 1.3.6.6.2 1.3-.1 1.4-.7.3-1.1.9-1.9 1.7-2.7.2-.2.4-.7.3-1-.2-.9-2-1.9-2.9-.9-.5.6-1 1.1-1.4 1.7-.4.7-.7 1.4-1 2.1zm31.3-50.3c-.1-.3-.1-.5-.1-.7-.3-1.1-1-1.6-2-1-.7.3-1.3.9-1.8 1.4-.7.6-.7 1.4-.1 2.1.7.7 1.5 1.4 2.3 1.9.5.4 1 .1 1.2-.5.1-1.1.3-2.2.5-3.2zM59.1 56v-.7c0-.4-.2-.5-.5-.5-.4.1-.8.1-1.2.1-1 .2-2.1.3-3 .7-1.1.4-1.3 1.4-.4 2.2 1.1 1.1 2.4 1.1 3.7.7.8-.2 1.3-.8 1.4-1.7V56zm-6.4 25.3c.3 0 .6-.1.9-.1.8-.1 1.1-.5 1-1.4-.1-.6-.2-1.2-.2-1.8-.1-.7-.5-1.3-1.1-1.4-.7-.1-1.5-.1-2.2 0-.6.1-1 .6-.9 1.2.1.7.2 1.4.4 2.1.3 1.1.9 1.4 2.1 1.4zm-7.5 10.9v.3c.4.1.8.2 1.2.2 2.3.1 4.7 0 6.9-.6 1.6-.4 3.2-.9 4.6-1.8.7-.5.8-1.1.4-1.8-.1-.1-.2-.2-.4-.2-.1 0-.2.1-.3.2 0 .5-.4.6-.8.8-2.1.7-4.3 1.4-6.4 2-1.2.3-2.4.3-3.6.5-.3.1-.9.2-1.6.4zm-5.8 57.2c.6-2.3 1.2-4.6 1.8-6.8 0-.1-.1-.3-.2-.3-.6-.2-1.2-.4-1.7-.6-.7 2.2-1.4 4.4-2.1 6.5.6.4 1.3.8 2.2 1.2zm36-100.6v-.2c-.3-1.8-1.5-3-2.9-3.9-.2-.1-.6-.1-.9 0-.9.5-1.2 2.2-.4 2.8 1 .7 1.9 1.5 2.8 2.3.5.5 1 .2 1.3-.4 0-.1.1-.4.1-.6zm-9.3-21.5c0-1.1-.9-2.1-1.9-2.5-.7-.3-1.3-.6-2-1l-2.4-1.5c-.2-.1-.5 0-.7 0 0 .2 0 .5.1.7.1.2.2.4.4.6.6.6 1.1 1.3 1.7 1.8.7.6 1.5 1.1 2.3 1.5.6.3 1.1.6 1.4 1.1.3.4.6.4.9-.1.1-.2.2-.4.2-.6zm6 30.3c-.2-.4-.4-.8-.7-1.2-.7-.9-1.4-.9-2 0-.8 1.2-1.2 2.6-1.5 4-.1.6.3.9.9.7.3-.1.6-.2.8-.3.9-.6 1.6-1.4 2.1-2.4.2-.2.2-.4.4-.8zM51 49.8c0 .8.4 1.1 1.2.7.2-.1.3-.1.4-.2.8-.6 1.6-1.2 2.4-1.7.4-.3.4-.6.1-.9l-1.5-1.8c-.5-.5-.9-.5-1.3.1-.8 1.2-1.2 2.4-1.3 3.8zm35.7 8.5c-.1-.5-.1-1-.2-1.4-.1-.5-.4-.6-.7-.2-1.1 1-2.1 2.2-2.6 3.6-.1.2-.1.6.1.8.5.6 1.2.7 1.9.7.7-.1 1.2-.5 1.3-1.2.1-.8.1-1.5.2-2.3zm-9.3-.1c0 .6 0 1.2.1 1.8.1 1.2.8 1.9 1.8 1.7.4 0 .7-.2 1.1-.3.5-.3.7-.7.5-1.2-.4-.8-.9-1.6-1.5-2.3-.3-.4-.6-.8-1-1.1-.2-.1-.5-.3-.6-.2-.2.1-.3.4-.3.6-.1.3-.1.7-.1 1zm30.4 26.2c.1.5.2 1 .7 1.2.3.1.8 0 1.1-.1.4-.2.7-.5 1-.8.6-.7 1.2-1.4 1.7-2.2.2-.4.3-.9-.2-1.1-.3-.2-.7 0-1.1 0-.1 0-.2.1-.3.2-.5.2-1.1.4-1.6.6-.2.1-.4.2-.5.3-.3.6-.6 1.3-.8 1.9zM58 68.6c.1 0 .1 0 0 0 .2.3.2.6.4.8.3.5.9.7 1.3.3.7-.9 1.7-1.3 2.6-1.9.4-.3.9-.7 1.2-1.1.4-.5.1-1-.6-1-1.5 0-2.8.5-3.9 1.4-.5.3-.7 1-1 1.5zm-5.6-42.7c.1 0 .3 0 .5-.1l.9-.6c-.2-.2-.4-.4-.6-.7-.2-.3-.6-.6-.7-.9-.5-1.6-1.8-2.5-3.2-3.2-.3-.2-.6 0-.5.4.1.4.3.8.5 1.2.5.9 1 1.8 1.4 2.7.3.8.8 1.2 1.7 1.2zM105.8 80c.8-.7 1.4-1.2 2-1.8.4-.4.9-.8 1.3-1.2.5-.5.5-1-.1-1.3-.6-.4-1.4-.6-2.1-.8-.6-.2-.9 0-.9.7-.1 1.3-.2 2.5-.2 3.8-.1.1 0 .2 0 .6zM38.1 36.3c.5-.8 1-1.5 1.5-2.3.2-.4.5-.7.7-1.1.3-.7.1-1.1-.7-1.3-1.2-.3-2.5.3-2.8 1.4-.3 1.2.4 2.9 1.3 3.3zM59 90.4c-.5.2-.9.5-1.3.7-.8.4-1.7.7-2.5 1.1-.9.5-1.8.9-2.9 1-.6.1-1.2.3-1.8.5-.1 0-.2.2-.3.2.1.1.2.2.3.2.1 0 .2.1.3.1 2.8.2 5.3-.5 7.5-2.1.7-.4.9-.9.7-1.7zm2.5-49.1c1.1-.2 2.2-.6 3.1-1.4l1.8-1.8c.1-.1.2-.4.1-.5-.2-.2-.5-.5-.8-.5-1.3-.1-2.2.6-2.9 1.7-.5.7-1 1.4-1.9 1.6-.1 0-.4.2-.3.4 0 .2.2.4.3.4.1.1.3 0 .6.1zM48.7 81.1c1-.1 1.2-.3 1-1.3-.1-.3-.1-.6-.1-.9 0-.9-.4-1.4-1.2-1.5-.8-.1-1.5.3-1.7 1-.1.4-.3.9-.5 1.2-.2.4-.1.7.3.8.6.3 1.4.5 2.2.7zM39 29.3v-.6c-.1-.8-.8-1.3-1.5-1-1 .6-1.8 1.4-2 2.6-.1.7.4 1.3 1.1 1.3 1.4.1 2.4-.9 2.4-2.3zm33.4 65c.8 0 1.5-.3 2.2-.8l1.8-1.5c.3-.2.2-.4-.1-.6-1.4-.8-3.7-.1-4.4 1.3-.2.4-.2.9-.1 1.3-.1.1.4.2.6.3zm36.2-67.4v-.2c-.4 0-.8 0-1.2.1-.2.1-.6.3-.6.5s.2.5.4.6c.7.3 1.5.6 2.2.9.8.3 1.6.1 2.3-.4.4-.2.5-.5.1-.9-.3-.4-.6-.8-1-1.1-.1-.1-.5-.2-.7-.1-.4.2-.9.4-1.5.6zM105.5 82c-.3.1-.6.2-.9.4-.8.6-1 1.5-1 2.4 0 .2.2.5.4.6.7.4 1.4.5 2.2 0 .6-.4 1-1.4.9-2.1-.3-.8-.8-1.2-1.6-1.3zM96 24.2l-.2-.2c-.4.3-.8.5-1.1.8-.8.7-1.5 1.3-2.6 1.6-.8.2-1 .6-.6 1.3.2.5.4 1.1 1 1.2.7.1 1.1-.4 1.4-.9.7-1.2 1.4-2.5 2.1-3.8zM64.1 65.4c0 .6.3.8.7.7.3-.1.6-.3.9-.4.4-.2.8-.5 1.3-.6.4-.1.6-.3.7-.7.1-.6.2-1.1.7-1.5.2-.2.2-.6.1-.7-.1-.2-.5-.3-.8-.3-.9.1-1.5.7-2 1.4l-1.2 1.5c-.2.2-.3.5-.4.6zm13.8 7.1c.2 1.6 2.3 2.8 4.3 2.7 1.7-.1 3.5-1.4 3.5-2.6-1.1 1.2-2.4 1.5-3.8 1.5-1.5-.1-2.8-.4-4-1.6zM96.1 92c-.1-.8-.2-1.6-.4-2.4-.1-.5-.5-.7-1-.5-.5.2-1 .5-1.4.8-.5.4-.5.9 0 1.3s1 .9 1.5 1.2c.2.2.6.3.8.2.4 0 .4-.4.5-.6zM41 138.3c-.8-.7-1.6-1.4-2.3-2.1-.6.6-1.1 1.1-1.4 1.5.8.9 1.5 1.7 2.2 2.5.5-.7 1-1.2 1.5-1.9zm-.9-108.9c.1.5.4 1.2.9 1.7s1.2.5 1.6.1c.3-.3.6-.7.7-1.1.1-.3.1-.7-.3-.9-.7-.3-1.4-.6-2.1-.8-.4-.2-.8.1-.8 1zm5.9 48c-.1-.1-.2-.1-.4-.1-1-.1-2.1-.3-3.1-.4-.3 0-.7.1-.9.3-.3.3-.1.8.2 1 .6.4 1.2.8 1.8 1.1.5.2.9 0 1.2-.4.5-.5.8-1 1.2-1.5zm69.3 1.3c-.2.1-.6.2-.9.3-1.5.7-1.8 1.1-.8 2.8.4.6.8.7 1.2.1.5-.7.9-1.5 1.3-2.4.2-.3-.2-.8-.8-.8zm-30.4 58.8c-.7.4-1.3.8-1.9 1.2.6 1 1.2 2 1.7 2.9.6-.4 1.2-.7 1.9-1.1-.6-1.1-1.1-2-1.7-3zm6.3-45.4c-.7-.4-2.7-.4-3.1.1-.6.7-1.1 1.6-1.6 2.4-.1.1 0 .4.1.5.1.1.3 0 .5 0 .2-.1.4-.3.6-.4.9-.6 1.9-1.2 2.8-1.8.3-.2.5-.5.7-.8zm25.5-16.6c0-1-1.4-2.2-2.3-2-.7.1-1.1 1-.8 1.5.3.5.6.9 1 1.3s.9.4 1.3.2c.5-.2.8-.6.8-1zm7.8-11.2v-.2c-.1-.1-.1-.1-.2-.1-1.5-.3-2.9-.7-4.4-1-.7-.1-1.2.6-.9 1.3.2.4.5.7 1 .6 1.1-.1 2.1-.2 3.2-.3.5 0 .9-.2 1.3-.3zM40.1 132c-.6.6-1.1 1.1-1.6 1.7.8.7 1.5 1.4 2.3 2.1.5-.6 1-1.2 1.5-1.9-.8-.7-1.5-1.3-2.2-1.9zm73.3-104.7c1.2-.1 2.2-.6 3-1.4.1-.1 0-.5-.1-.5-.4-.1-.7-.2-1.1-.1-.7.1-1.5.2-2.2.4-.4.1-.8.2-1.1.4-.4.3-.4.6 0 1 .4.3 1 .3 1.5.2zm8.5 32c.7-.2 1.4-.4 2-.7.3-.1.5-.4.1-.6-.8-.5-1.7-.9-2.5-1.2-.4-.2-.8 0-.9.4-.4 1.3 0 2 1.3 2.1zm-7.5-27.5c.5-.2.8-.3 1.1-.4.4-.2.4-.7.1-1-.5-.4-1.1-.9-1.7-1.2-.5-.3-1.1 0-1.4.4-.3.4-.2 1 .3 1.3.4.4 1.1.7 1.6.9zM59.5 75.4c0 .1-.1.2-.1.3.8.5 1.5 1.1 2.3 1.5.7.3 1.5.4 2.2-.2.2-.2.4-.6.4-.8 0-.2-.4-.5-.7-.5-1.3-.1-2.7-.2-4.1-.3zm40.9 10.7c-.3 0-.6.1-1 .2-.5.1-.7.5-.6 1 .2.8.5 1.5.8 2.3.1.2.3.3.4.3.1 0 .3-.2.3-.4.2-.8.5-1.6.7-2.4.3-.5-.1-.9-.6-1zm-38.8 6.7c0 1 .4 1.2 1.2.8.6-.4 1.2-.8 1.8-1.3.1-.1.2-.4.2-.6-.3-.8-1.6-1.1-2.2-.6-.6.4-1 1-1 1.7zm51-17.3c-.7.1-1.1.4-1.2.9-.2.7-.1 1.5.1 2.2.2.5.3.5.6.1.2-.2.5-.4.8-.5.5-.2.8-.5.7-1-.1-.5-.3-1-.5-1.4 0-.1-.3-.2-.5-.3zM68.3 91.9c1.1 0 1.2-.1 1.5-1.2.1-.2.1-.5.2-.8.1-.5.1-.9-.5-1.1-.5-.2-1.1 0-1.3.5-.3.6-.5 1.3-.8 2-.1.3 0 .6.4.5.2.1.4.1.5.1zm15.3 0c-.8 0-1.4.4-1.2 1 .2.8.5 1.5.8 2.2.1.3.4.4.6 0 .3-.8.7-1.5 1-2.3.1-.4-.1-.7-.5-.8-.3-.1-.5-.1-.7-.1zm20.9-5.5c-.4 0-1.1-.1-1 .6.1.9.5 1.7.8 2.5.2.4.5.4.7 0 .3-.5.5-.9.7-1.4.5-1.5.3-1.7-1.2-1.7zM73.7 61c.1 1.1.5 2 1 2.8.5.8 1.1.7 1.6-.1.3-.4.2-1-.3-1.3-.6-.5-1.2-.9-1.9-1.3 0-.1-.2-.1-.4-.1zm16.2.2c-.9.4-1.8.9-2.5 1.7 0 .1-.1.1-.1.2-.2.5 0 .9.5 1.3.3.3.6.2.9-.1.8-.8 1.1-1.9 1.2-3.1zm16.9 19.5c0 .1.1.1.1.2h2.7c.4 0 .7-.4.6-.8-.1-.6-.2-1.1-.4-1.8-1.2.6-2 1.5-3 2.4zm1.9 9.9c.1-.2.2-.2.2-.3.2-.9.3-1.8.5-2.7 0-.2-.1-.6-.2-.6-.4-.1-.9-.2-1.3-.1s-.6.5-.5 1c.1.4.3.9.5 1.3s.5.8.8 1.4zM104 55.4c.6.3 1.3.1 1.9-.5.5-.6.6-1.2.2-1.9-.1-.2-.4-.5-.6-.5-.2 0-.5.3-.6.6-.4.7-.6 1.5-.9 2.3zm14.8 14.5c.2 0 .4-.1.6-.1.6-.1.7-.3.3-.7-.4-.4-.9-.8-1.4-1.2-.3-.2-.6-.2-.9.2-.6.8-.4 1.5.6 1.8.3-.1.6-.1.8 0zm5.1-15.9v-.2c-.9-.2-1.7-.4-2.6-.5-.5 0-.7.4-.4.8.2.3.6.5.9.5.7.1 1.4-.2 2.1-.6zM71.1 91.9c.5-.4.8-.6 1.2-.9 1-.6.9-.9-.1-1.5-.1 0-.2-.1-.2-.1-.3-.2-.6-.1-.7.3-.3.6-.3 1.3-.2 2.2zm1.8 5c.6-.2 1.1-.3 1.7-.6.2-.1.3-.4.3-.6 0-.1-.2-.3-.4-.4-.4-.2-1.7.2-2 .6-.1.2-.2.5-.1.7.1.1.4.2.5.3zm15.4-45c.1 0 .1-.1.2-.1-.2-.8-.3-1.6-.5-2.5 0-.2-.2-.4-.4-.4s-.4.2-.5.3c-.1.2-.2.5-.1.7.3.6.7 1.2 1 1.7l.3.3zm-1.8-3.2c.5 0 .8-.3.8-.8 0-.6-.3-1-.7-1-.5 0-.9.5-.9.9-.1.5.3.9.8.9zM68 97.2c2 .2 3.3-.8 3-1.9-.4.3-.8.7-1.3 1-.6.4-1.1.6-1.7.9zm9.1-3.1c0-.1 0-.1 0 0 .2-.1.4 0 .5-.1.4-.1.6-.3.5-.7-.1-.2-.3-.6-.4-.6-.3 0-.7.2-.9.4-.2.2-.2.5-.4.8.2 0 .5.1.7.2zm-38-17.9c.3.3.6.6.9.8.4.3.7.1.7-.3 0-.2-.1-.6-.2-.7-.5-.2-.9-.1-1.4.2z"/><path class="st1" d="M91.9 33.9c.1 1.6-.3 3.1-1.1 4.4-1.1 1.7-1.1 3.3-.5 5.2.4 1.2.6 2.5.8 3.7.4 2.2.7 4.5 1 6.7.3 2.1.8 4.3 1.6 6.3.2.5.4.9.6 1.4.7 1.3 1.8 1.9 3.2 2.1.5.1 1 .2 1.3.5.2.2.5.6.5.8 0 .2-.4.6-.6.7-.6.1-1.3.1-2 0-2.4-.5-3.9-2.1-5-4.2-1-1.8-1.4-3.8-1.7-5.8-.4-3-1.2-5.9-2.4-8.7-.4-.8-.8-1-1.6-.7-.6.3-1.1.7-1.6 1.1-.7.6-1.5.9-2.4.9l-3.9.3c-.9.1-1.3-.1-1.7-.9-.7-1.4-1.7-2.6-2.9-3.5-1.1-.9-2.9-.9-3.5.8-.4 1-.7 2.2-.8 3.3-.3 2.6-.4 5.2-.7 7.7-.5 3.3-1.9 6.1-4.6 8-.7.5-1.6.8-2.4 1-.4.1-1-.1-1.4-.3-1.3-.7-1.9-2.4-1.4-3.8.3-1 1.2-1.3 2.1-.6l.2.2c.9.8 1.8.8 2.7 0 1-.9 1.5-2.1 1.8-3.4.5-2.2.9-4.4 1.4-6.6.6-2.6 1-5.3 1.7-7.9.4-1.5.3-2.9-.5-4.2-.5-.9-1-1.7-1.5-2.6-1.3-2.3-1-4.5.5-6.5.9-1.3 2.1-2.3 3.4-3.1 1.8-1.1 3-2.6 3.8-4.6.3-.8.8-1.6 1.4-2.3 1.9-2.2 4.6-2.1 6.4.2 1.1 1.4 2 3 2.9 4.5.5.8 1.1 1.4 1.9 1.7.7.3 1.5.7 2.2.9 1.8.7 2.7 2.1 2.9 3.9-.2 1.1-.2 2.2-.1 3.4zm-14.6 1.4c-.2-.3-.3-.5-.4-.8-1.3-2.2-4.1-2.6-5.9-.8-1.2 1.3-1.4 3.5.8 4.4.7.3 1.6.4 2.4.5h.8c0 .1 0 .1.1.2-.1.2-.3.3-.4.5-.9 1.1-1.2 2.8-.5 3.9.8 1.2 1.8 2.1 3.2 2.7 2.4 1 6.2-.2 7.8-1.9.9-1 1.2-2 .8-3.3-.1-.4-.2-.8-.1-1.2.1-.8.8-1.1 1.5-1.4.6-.3 1.3-.6 1.9-.9.6-.3.8-.8.8-1.5 0-2.3-1.3-3.5-3.6-3.3h-.3c-1 .1-1.6.6-1.9 1.5-.1.3-.2.6-.3.8-.4.7-.7.8-1.5.5-.5-.2-.9-.5-1.4-.6-1.1-.4-2.1-.4-3 .3l-.8.4zm-2.1-6.1c3.6.6 7.2.6 10.8.3-3.6-.8-7.2-.9-10.8-.3z"/><path class="st2" d="M25.8 85.6l.6-.3c2.4-1 4.9-2 7.3-3 .5-.2 1-.6 1.4-1 .6-.6.5-1.2-.3-1.5-1.3-.6-2.6-1.2-3.9-1.5-2.3-.6-4.7-1.1-7.1-1.7-.7-.1-1.3-.2-2-.3-.2 0-.4-.2-.6-.3v-.2c.2 0 .4-.1.6-.1 2.2.1 4.3.1 6.5.2h5.3c.2 0 .4-.1.6-.1.4-.2.6-.5.3-.9-.5-.6-1-1.2-1.6-1.7-4.1-3.5-8.3-7-12.5-10.5-1.1-.9-2.1-1.9-2.7-3.2-.2-.4-.1-.9-.2-1.3.4.2.8.2 1.1.5 1.2 1 2.3 2.1 3.5 3.1 2.4 2.1 4.8 4.3 7.2 6.4.9.8 2 1.3 3.2 1.5.7.1 1.4 0 2-.5 1.4-1 2.2-2.4 2.1-4.2 0-.2 0-.4.1-.8.4.3.7.5.9.7.9 1 1.2 2.2 1.4 3.4.3 1.4.5 2.8 1.2 4 .6 1 1.2 1.2 2.3 1.1 1.5-.2 2.6-.9 2.9-2.6.1-.4.4-.9.7-1 .4-.2.6.4.9.7l2.4 3.6c.6.9.5 1.1-.5 1.4-2.6.7-5.2.5-7.8-.3-.8-.2-1.7-.4-2.5-.5-.9-.1-1.4.4-1.2 1.3.2.8.7 1.3 1.3 1.8 3.3 2.5 6.9 4.1 10.9 5 .2 0 .4.1.6.3-.4.1-.9.2-1.3.3-1.5.2-3 .5-4.4 1.3-1.4.8-2.7 1.8-3.4 3.3 0 .1-.1.2-.1.2l-.6.3c-.1-.2-.2-.4-.2-.6 0-.3.2-.6.2-.8.1-.3.2-.7.3-1 .2-1.6-1-2.7-2.6-2.4-2.4.4-4.7 1-7.1 1.5-1.4.3-2.7.6-4.1.9-.4.1-.8-.1-1.2-.1.1-.2.1-.3.1-.4z"/><path class="st3" d="M33 134.1c-2 .2-3.8.3-5.7.4v.8h7v2.1h-3.2v.2c1.3.5 2.6 1 4 1.6l-1.2 2.1c-.4-.2-.7-.3-1.1-.4v8.4h-2.2c0-.2 0-.4-.1-.7h-8.7v.6h-2.2v-8.1c-.1 0-.1-.1-.2 0-.8.3-.8.3-1.2-.5-.2-.4-.4-.8-.7-1.2 1.6-.6 3.3-1.2 4.9-1.7v-.2H18v-2.1h7v-.7h-5c-.2-.6-.4-1.2-.6-2h.6l9-.3c.9 0 1.7-.1 2.6-.2.3 0 .5.1.6.4.2.4.5.9.8 1.5zm-1.2 6.5c-1.5-1-3-1.9-4.6-2.9v2.4H25v-1.7c-1.3.7-2.6 1.4-3.9 2.2h10.7zm-10 6h8.7v-1h-8.7v1zm0-3h8.7v-1h-8.7v1z"/><path class="st2" d="M96.3 142.1c-.1-.7-.2-1.3-.4-1.9.4-.4 1.1.1 1.4-.6.2-.5.5-.9.8-1.3-.9-.7-1.7-1.4-2.6-2.1.6-1.1 1.1-1.6 1.6-1.5.5-.9.9-1.8 1.4-2.7.6.3 1.2.5 1.9.8-.6 1.1-1.2 2.1-1.7 3.1.1.1.3.2.5.4.3-.6.7-1.2.9-1.9.1-.3.3-.4.6-.3.5.2.9.4 1.5.7-.6 1-1.1 2-1.7 3.1.5-.2.9-.4 1.3-.6.3.8.5 1.6.8 2.4h.1v-6.3h2.2c.9 0 .9 0 1.2-.9.1-.2.1-.4.2-.7.7.2 1.5.3 2.2.5-.1.4-.2.7-.3 1h4.4v9.9h-3.3l.9 1.5c-.6.4-1.3.7-1.9 1.1-.5-.7-.9-1.4-1.4-2.2.2-.1.3-.2.6-.4h-4.8v-1.9c-.5.2-1 .4-1.4.6-.4-.8-.4-.8-1.1-.5v1.3c.5-.1.9-.3 1.4-.4.3 1.1.7 2.1 1 3.2l.3-1.5c.6.1 1.1.2 1.7.4.1 0 .1.2.1.4-.2 1.3-.5 2.7-1 3.9-.6-.3-1.3-.6-1.9-1 .2-.6.4-1.2.7-1.9-.6.2-1.2.4-1.8.5-.2-.8-.3-1.5-.5-2.3h-.1v5h-2v-4.8H98c-.2 1-.5 2-.7 3-.6-.2-1.1-.3-1.7-.5.3-1.4.5-2.8.8-4.2.6.1 1.1.2 1.7.3v-1.3c-.5.5-1.1.6-1.8.6zm12.9-2.6c.4.3.8.7 1.2 1-.3.4-.6.7-.9 1.1h1.2v-4.8c-.5.8-1 1.7-1.5 2.7zm-2.6.2c-.2-.2-.5-.3-.5-.3-.4.3-.6-.1-.9-.3-.1-.1-.2-.1-.3-.1v2.6h1.1c-.3-.4-.5-.7-.7-1 .4-.3.8-.6 1.3-.9zm4.1-4.2H108v.7h2.7v-.7zm-4.3-.1h-1.2c-.1 0-.3.2-.3.3v2c.1 0 .1 0 .2.1.4-.8.8-1.5 1.3-2.4zm.4 6.1h2c-.3-.3-.6-.6-.9-.8-.4.3-.7.6-1.1.8zm.2-3.7v.1l.9.6c.2-.3.3-.5.5-.7H107zm-6.4 1.8c-.1-.4-.2-.7-.4-1.1-.3.4-.5.8-.7 1.2.5 0 .8-.1 1.1-.1zm-9.8-21c1 .4 1.7 1.1 1.9 2.2.1.7.1 1.3.2 2 0 .8 0 1.5.1 2.3 0 .4.3.8.5 1.2.1.2.2.3.3.6h-4.2c-.1-.8-.2-1.7-.3-2.5-.1-.8 0-1.6-.1-2.5-.1-1.2-.7-1.7-1.9-1.7h-4.1v6.7h-3.5v-17.2H88c.7 0 1.4.1 2 .2 1.8.5 2.9 1.7 3.3 3.5.4 1.7.1 3.2-1.2 4.5-.4.2-.8.4-1.3.7zm-7.7-6v4.5h4.6c1 0 1.8-.6 1.9-1.5.1-.6 0-1.2-.1-1.7-.2-.7-.6-1.2-1.4-1.2-1.6-.1-3.3-.1-5-.1z"/><path d="M50.1 109.5v17.2h-3.6V119h-6.1c-.5 0-.7.1-.7.7v7.1h-3.6v-17.2h3.6v6.5h6.7v-6.5c1.3-.1 2.5-.1 3.7-.1z" fill="#213563"/><path class="st1" d="M89 25.7c-2.5.1-4.1-2.4-3.4-4.8.4-1.3 1.1-2.5 1.9-3.5.7-.8.9-1.8 1.1-2.8.1-.6.2-1.3.3-1.9.3-1.6 1.3-2.7 2.6-3.4 1.2-.7 1.5-1.6 1.7-2.8.2-1.4.6-2.7 1.1-4.1.3-.9 1-1.6 2.1-1.7 1.5-.1 3.1.9 2.3 3.2-.3 1-.8 1.9-1.4 2.8-.8 1.2-1 2.4-.9 3.7.2 1.9-.1 3.7-1.2 5.2-1.1 1.6-1.5 3.3-1.8 5.1-.2 1-.6 2.1-1 3-.8 1.4-1.9 2-3.4 2zM52.9 143.4c-.4-.4-.7-.8-1.1-1.2v3.4h-6.5c-.2 1.2 0 1.5 1.1 1.5 1.6 0 3.2-.1 4.8-.1.7 0 1-.4 1.1-1 0-.2 0-.3.1-.6.7.3 1.3.6 1.9 1 .1 0 .1.2.1.3 0 .1-.1.3-.1.4-.5 1.6-.9 1.9-2.6 2h-6.6c-1.2 0-1.9-.7-1.9-1.9v-4.8c-.4.3-.7.5-1.1.7-.4-.6-.9-1.2-1.3-1.7.9-.7 1.7-1.4 2.6-2.1 0-.1-.1-.1-.1-.2h-1.6V137h2.7v-1.4h-2v-2h2V132h2.2v1.5h2.7V132h2.1v1.5h2.2v2.1h-1.7c-.4 0-.6.1-.5.5v.8h2.5c.4 0 .6.1.5.5v1.6h-2.2c0 .1-.1.1-.1.2.8.7 1.6 1.5 2.4 2.2-.4.6-.9 1.3-1.6 2zm-2.3-2.9c-.2-.4-.4-.8-.7-1.1-.1-.1-.3-.2-.4-.2h-3.3c-.1 0-.3 0-.3.1-.3.4-.5.8-.8 1.2h5.5zm-.9 3.1v-1.1h-4.4v1.1h4.4zm-3-6.6h2.6v-1.3h-2.6v1.3zM54.9 4.2c0-.8.3-1.5.9-2.1.8-.8 1.7-.8 2.5-.1 1 .9 1.5 2 2 3.2.3.7.6 1.5.9 2.2.4 1 1.1 1.7 2.1 2.2 1.9.9 3.1 2.4 3.7 4.5.3 1.1.9 2 1.7 2.8 1.2 1.3 2.2 2.6 2.7 4.3.5 1.7-.1 3.1-1.5 3.9-1.4.8-2.9.7-4.2-.7-1.2-1.2-1.9-2.8-2.4-4.4-.4-1.3-1-2.5-2-3.5-1.3-1.3-1.8-3.1-2.3-4.8-.2-.7-.3-1.4-.6-2-.3-.7-.8-1.3-1.3-1.9-.6-.9-1.3-1.8-2-2.7-.1-.1-.1-.6-.2-.9z"/><path class="st5" d="M65.7 116.5c2.5 3.5 5 6.8 7.5 10.3h-4.5c-.1 0-.3-.2-.4-.4-1.6-2.2-3.2-4.5-4.8-6.8-.1-.1-.2-.2-.3-.4l-1.6 1.6c-.1.1-.1.4-.1.6v5.3H58v-17.2h3.5v7.1c.8-.8 1.5-1.6 2.2-2.3 1.4-1.5 2.8-3 4.3-4.5.1-.1.4-.3.6-.3H73c-2.6 2.4-5 4.7-7.3 7z"/><path class="st2" d="M100.3 109.5h3.7v10.9c0 .5 0 1 .1 1.5.3 1.5 1.1 2.2 2.7 2.3.6 0 1.2 0 1.8-.2 1.2-.3 1.8-1.2 1.9-2.9.1-3.6 0-7.3 0-10.9v-.6h3.7v11.3c0 1.3-.2 2.5-.8 3.6-.8 1.5-2.2 2.3-3.8 2.6-2 .4-3.9.4-5.8-.4-1.9-.7-3-2.2-3.3-4.2-.2-1.1-.2-2.2-.2-3.2v-9.8z"/><path class="st1" d="M132.9 32.2c-.1.7-.4 1.1-.9 1.4-1.6.8-3.2.7-4.7-.1-1.8-1-3.5-2.1-5.2-3.3-1.1-.8-2.2-1.1-3.5-.6-.6.2-1.3.3-1.9.4-.8 0-1.2-.4-1.5-1-.2-.7 0-1.2.6-1.6 1.2-.8 1.9-1.9 1.7-3.4-.1-.6-.2-1.1-.3-1.7-.2-1.1-.5-2.2-.6-3.3-.3-3 1.9-4.8 4-4.8.1 0 .1 0 .3.1-.1.2-.2.4-.4.6-.9 1-1 2.2-.7 3.5.2.8 1.3 1.4 2.4 1.4.8 0 1.5-.1 2.4-.1-.2.3-.3.4-.4.6-.4.6-.8 1.1-1.2 1.7-.4.8-.3 1.5.2 2.2.5.6 1.2.8 2 .7.8-.1 1.5-.4 2.2-.7.2-.1.5-.1.8-.1-.2.3-.3.5-.5.8-.4.6-.9 1.1-1.2 1.7-.1.2-.1.7 0 .9.2.2.6.3.9.2.8-.3 1.5-.7 2.3-1 .3-.1.6-.1 1-.2-.2.3-.3.5-.5.8-.5.9-1.1 1.7-1.4 2.6-.5 1.5.4 2.8 2.1 2.8.9-.3 1.4-.4 2-.5zm0 103c-.3.5-.6 1-.8 1.5-.2.4-.3.7-.9.3v5.5h-14.4v-5.2c-.5.2-.7 0-.9-.4-.2-.5-.5-.9-.8-1.4 3.1-.9 6.1-2.1 8.8-3.7 2.5 1.9 5.5 2.5 8.4 3.3.1 0 .2 0 .3.1h.3zm-15 1.6h12.5c-1-.4-1.8-.7-2.7-1v.6h-7.2c-.2 0-.3-.2-.5-.4-.7.3-1.3.5-2.1.8zm7 3.8h1.4c-.2-.2-.4-.3-.5-.4.2-.5.4-.9.7-1.4H125c-.1.6-.1 1.2-.1 1.8zm4.2 0v-1.8h-1.7c.4.2.7.3 1.1.4-.2.5-.4.9-.6 1.4h1.2zm-6.3-1.8h-1.3c.2.4.5.8.7 1.3-.3.2-.5.4-.8.6h1.5c-.1-.7-.1-1.3-.1-1.9zm-3.9 0v1.8h1.3c-.3-.4-.5-.8-.7-1.2.3-.2.6-.4 1-.6h-1.6zm3.8-4.1h2.4c-1.5-.8-.9-.8-2.4 0zm1-67.6c.3.1.6.2.7.3.1.1-.1.4-.2.6-.2.3-.5.6-.8.9-.4.4-.3.7.1 1 .6.4 1.3.8 1.9 1.3.8.7.5 1.6-.5 1.9h-.2c-.2.1-.4.1-.6.2-.5.2-.7.6-.8 1.1-.1.5.3.7.6.9.4.2.8.4 1.2.5.5.2.8.5.9 1.1 0 .6-.3.9-.8 1.1-.5.2-1.1.4-1.6.6-.4.2-.8.4-.9.9 0 .5.3.8.8 1 0 0 .1 0 .1.1.4.1.9.3.8.9-.1.6-.5.9-1 1-.8.2-1.7.3-2.5.5-1.3.3-1.9 1-1.9 2.4-.1 1.5.3 2.9 1.4 4.1.2.2.4.5.6.8.2.4.1.7-.4.8-.2 0-.3 0-.5-.1-2.2-.7-3.7-2.7-3.9-5-.2-1.8 0-3.5.7-5.1.5-1.1.4-2.2.2-3.3-.2-1 .1-1.8.8-2.5.6-.5.8-1.1.8-1.8 0-.4.2-.9.4-1.2 1.1-1.4 2.2-2.8 3.3-4.1.3-.4.9-.6 1.3-.9z"/><path class="st5" d="M76.1 67.6c0-3.2 2.6-5.8 5.7-5.8 3.6 0 5.8 3.1 5.8 5.9 0 3-2.6 5.9-5.9 5.8-3-.1-5.7-2.6-5.6-5.9z"/><path class="st2" d="M90.9 142.8c.8.9 1.8 1.8 2.8 2.9-.3.6-.7 1.3-1.1 2-1.5-1.2-2.6-2.6-3.6-4.4v.7c0 1.2 0 2.4-.1 3.6-.1 1.3-.7 1.7-2.1 1.8-.7 0-1.3-.1-2.1-.1-.1-.7-.3-1.4-.4-2.2.7 0 1.3.1 1.9.1.3 0 .5-.1.5-.4v-2.6c-1 .8-2.1 1.6-3.2 2.4-.3-.8-.6-1.5-.8-2.2 0-.1.2-.3.3-.4 1.1-.8 2.3-1.6 3.4-2.4.2-.1.4-.5.4-.7v-4.2h-4v-2.1h4v-2.5H89v2.5h1.8c-.3-.5-.6-.9-.9-1.4.6-.4 1.2-.7 1.8-1.1.4.6.7 1.2 1.1 1.8-.4.3-.8.5-1.3.8h1.8v2.1h-4.4c.1 1.3-.3 2.6.7 3.8.6-1 1.1-2 1.7-3.1.6.3 1.3.7 2 1.1-.7 1.2-1.5 2.6-2.4 4.2z"/><path class="st1" d="M26.4 33.1c-.5-.1-1-.2-1.4-.4-.2-.1-.2-.5-.3-.7.2 0 .5-.1.6-.1.6.2 1.1.1 1.6-.2l1.8-1.2c.6-.5.7-.9.3-1.6-.2-.5-.6-.9-.9-1.3-.1-.2-.3-.4-.4-.6-.1-.3-.1-.6-.2-.9.3-.1.6-.1.8-.2h.8c1-.2 1.5-1.1 1.2-2.1 0-.1-.1-.2-.1-.3-.5-1.3-.3-1.8 1-2.4.8-.4 1.5-.9 1.6-1.8.1-.7-.2-1.4-.3-2.1-.1-.4-.4-.8-.6-1.2-.2-.4-.3-.8.1-1.1.3-.4.7-.3 1.1-.2.9.3 1.6 1 2 1.8 1.2 1.9 1.8 4.1 1.6 6.4 0 .1 0 .2-.1.3-.3 1-.4 1.9-.3 3 .1.6-.2 1.3-.5 1.9-.7 1.3-1.9 2.4-3.2 3.1-1.7 1-4.6 1.8-6.2 1.9zM62.6 99c1 .4 1.9-.1 2.9-.5.4-.2 1-.2 1.4-.1 1.7.5 3.5.8 5.3.4 1.8-.4 3.4.2 5 .9 1.3.5 2.2 1.5 2.5 2.9.1.4.2.8-.2 1-.4.2-.7-.1-.9-.4-1.1-1.3-4-2.3-5.4-1.7-.8.4-1.4.9-1.7 1.7-.2.4-.4.9-.7 1.2-.6.6-1.3.5-1.6-.3-.1-.1-.1-.3-.2-.4-.3-.6-1-.8-1.5-.3-.3.3-.6.7-.9 1-.4.6-.9.7-1.6.6-.6-.1-.8-.5-.9-1.1 0-.2-.1-.4-.2-.6-.3-.8-1-1-1.7-.4-.3.3-.5.6-.8.9-.6.6-1.3.5-1.8-.3-.3-.4-.5-.9-.7-1.3-.4-.6-.8-.7-1.4-.4-.3.1-.6.3-1 .4h-.4c-.1-.1-.1-.4 0-.5.2-.3.4-.6.7-.7 1.5-1 3.1-1.5 4.8-1.9.2.1.6 0 1-.1zm10.5-41.5c.4-2.5.9-4.9 2.5-6.8.9-1.1 2.1-1.6 3.4-1.7 1.8-.2 3.6-.4 5.4-.2 1 .1 1.8.4 2.2 1.5.5 1.3 1.1 2.5 1.7 3.7 0 .1 0 .1.1.2.2.5.4 1-.1 1.3-.4.3-1 .3-1.5 0-1.1-.8-2.1-1-3.3-.3-.9.5-1.9.4-2.9-.1s-1.9-.3-2.8.2c-.9.5-1.7 1.2-2.6 1.9-.3.2-.5.5-.8.8-.3.3-.6.6-1 .3-.1-.2-.2-.6-.3-.8z"/><path class="st2" d="M70.6 146.9c-.1.6 0 .9.5 1 .8.2 1 0 1.4-.8.6.3 1.1.5 1.7.8-.3 1.2-.3 1.3-1.6 1.4-1 0-2 0-2.9-.1-.9-.1-1.2-.5-1.2-1.4v-.8h-1c-.1 0-.3.1-.3.2-.3 1-1.2 1.4-2 1.8-.7.3-1.4.4-2.1.6-.4-.6-.7-1.1-1-1.7 1-.2 2-.5 3-.7v-.2h-1.9v-6.7h9.6v6.7c-.8-.1-1.5-.1-2.2-.1zm.1-5.2l-.1-.1h-5.1c-.1 0-.2.1-.3.2.1.1.2.2.3.2h4.9c.1 0 .2-.2.3-.3zm-5.5 3.3c0 .1-.1.1-.1.2.1.1.3.2.4.2h4.8c.4 0 .4-.2.3-.4h-5.4zm2.7-1.4h2.4c.1 0 .2-.1.4-.2-.1-.1-.2-.2-.3-.2h-4.8c-.1 0-.2.1-.3.2.1.1.2.2.4.2.6.1 1.4 0 2.2 0z"/><path class="st1" d="M98.6 41.9h-3.9c-.8 0-1.7.1-2.5.1-.3 0-.7 0-1-.1-.7-.3-.8-1.3-.2-1.6.9-.4 1.2-1.2 1.4-2 .5-2.3.8-4.6.7-6.9 0-.6.2-1.1.6-1.6.6-.7 1.2-1.5 1.9-2.3.7-.8 1.7-1.3 2.8-1.4.6-.1 1 .5.7 1.1-.4.7-1 1.3-1.4 2-.5.8-1 1.6-1.4 2.4-.5 1.1 0 2 1.1 2.2.6.1 1.2.2 1.9.3.9.2 1.1.9.5 1.5-.5.5-1.1.9-1.6 1.4-.4.4-.7.9-1 1.4-.2.5-.1 1 .3 1.4l.8.8c.4.4.5.7.3 1.3z"/><path class="st6" d="M117.7 149.4v-6.5h12.9v6.5c-.6 0-1.3.2-1.8 0-1.4-.7-2.8-.2-4.2-.3-1.5-.1-3 0-4.4 0-.1 0-.2.1-.3.2-.1.1-.2.1-.2.1-.8.1-1.4 0-2 0zm2.1-2.2h8.4c.1 0 .2-.1.3-.2-.1-.1-.2-.2-.3-.2h-8.4v.4zm0-2.5v.5h8.3c.1 0 .2-.1.3-.2-.1-.1-.2-.3-.3-.3h-8.3z"/><path class="st1" d="M47.3 56.2c-.2.7-.3 1.3-.6 1.7-.6 1-1.3 1.9-2 2.8-1 1.2-2.3 1.3-3.6.4-1.6-1.2-2.4-2.8-2.9-4.6-.1-.4-.2-.8-.2-1.1-.2-.9.1-1.5 1-1.7.9-.2 1.9-.3 2.8-.5.9-.1 1.7-.3 2.6-.5.4-.1.6 0 .9.3.4.5.9 1 1.2 1.6.3.5.5 1.1.8 1.6zm29.2 91.9c-.1-.7-.2-1.3-.4-1.9-.1-.3.1-.4.4-.4.5-.1 1.1-.1 1.6-.3.1 0 .3-.2.3-.4v-4.3h-1.9v-2.1h1.8v-3.5h-1.9v-2.1h6.1v2h-2v3.5h1.8v2.1h-1.8v4.2c.6-.1 1.1-.2 1.7-.4.1.7.2 1.3.2 2.1-1.8.6-3.8 1-5.9 1.5z"/><path class="st7" d="M67.8 137.6h-1.4v.7h1.2v1.5h-5.4v-7.5h5.4v1.5h-1.3v.7c1.1.2 1.3.1 1.7-.8.2-.3.3-.7.4-1 .1-.5.3-.5.8-.4.9.2.9.2 1.1.6h3.8v1.4H70c-.3 0-.5 0-.5.4h3.9v1.2h-4.2c0-.2 0-.4-.1-.6-.2.2-.3.4-.5.6-.3-.2-.5-.5-.9-.7.1.7.1 1.5.1 2.4zm-3.7-1.7c0 .1-.1.1-.1.2.1.1.2.3.4.3h1.9c.1-.3.1-.5-.3-.5h-1.9zm.7 2.4v-.6H64v.6h.8zm-.8-3.8h.7v-.7H64v.7z"/><path class="st6" d="M57 137.1v-1.9h1.6v-3.1h2v3.1H62v1.9h-1.3c0 .7-.2 1.2.4 1.8.5.5.9 1.1 1.4 1.7.2.3.2.4 0 .7-.3.4-.6.9-1 1.4-.3-.5-.5-.9-.7-1.3h-.1v8h-2V143h-.1c-.2.6-.5 1.3-.8 2-.4-.5-.7-.9-1.1-1.4-.1-.1 0-.3 0-.4.6-1.9 1.2-3.9 1.9-5.8v-.3H57z"/><path class="st1" d="M108.4 61.9c-2-.1-3.9-.6-5.8-1.3-.8-.3-1-.6-.7-1.5.4-1.3 1.4-2 2.5-2.5 1.2-.5 2.6-.7 3.9-.6 1.2.1 2.4.3 3.6.5 1.3.2 1.6.9 1 2-.4.8-.9 1.6-1.5 2.3-.8 1.1-1.9 1.1-3 1.1zM95.2 42.5c1 .1 2 .1 3 .3 1 .3 1.9.8 2.7 1.4.8.5.8 1.1.5 1.9l-.6 1.8c-.6 1.2-1.4 1.5-2.6.9-.6-.3-1.2-.8-1.7-1.2-.5-.4-1-.4-1.5 0-.2.2-.5.3-.7.4-.8.4-1.6.2-2-.7-.5-1.2-.7-2.4-.5-3.6.2-.9.5-1.2 1.4-1.2.8.1 1.4.1 2 0 0 .1 0 0 0 0z"/><path class="st1" d="M100.2 42.4c.4-.1.8-.1 1.3-.2 1.6-.2 3.1-.5 4.7-.6.6-.1 1.3 0 2 .2.8.2 1.1.8 1.1 1.6-.1.9-.2 1.8-.4 2.7-.2.8-.7 1.3-1.3 1.7-.6.5-1.3.9-1.9 1.4-.6.5-1.1.5-1.7.2-.2-.1-.4-.3-.6-.3-.4-.1-.8 0-1.3 0-.3 0-.5-.1-.7-.2.1-.2.1-.4.2-.5.9-1.1 1.2-2.3 1-3.7-.1-.8-.8-1.2-1.4-1.5-.3-.2-.7-.3-1-.5v-.3zm-58.7 4.7c-1.2-.2-2.3-.3-3.5-.5-1.4-.3-1.9-1.4-1.4-2.8.4-1.3.9-2.6 1.3-3.8.1-.4.4-.5.8-.4 1 .5 2.1.9 3 1.5.7.4 1.4.7 2.2.8 1.1.1 1.4.8 1.3 1.8 0 .5-.2 1-.3 1.5-.3 1.3-1.2 1.7-2.4 1.8-.3 0-.7 0-1 .1zm78.2 11.2c-.3 1.3-.4 2.7-.8 4-.3 1.1-1 2-2.7 1.7-1.1-.3-2.2-.6-3-1.5-.5-.6-.7-1.3-.3-2 1-2 2.3-3.7 4.5-4.4 1.1-.3 2 .2 2.1 1.4 0 .3.1.6.1.9 0-.1 0-.1.1-.1zm-10.8 8.1c0-.6-.1-1.3 0-1.9.1-1.4 1.2-2.1 2.4-1.6 1.5.5 3 1.1 4.4 1.8 1.3.6 1.6 2.2.8 3.6s-2.2 1.8-3.7 1.1c-.6-.3-1.2-.7-1.8-1.1-.4-.2-.8-.4-1.3-.6-.8-.2-.9-.3-.8-1.3zM49.3 39.9c.6.1 1.4.1 2.1.2.7.2 1.4.1 2.1-.2.8-.3 1.5-.2 2.1.4.7.7.5 1.7-.3 2.3-.2.1-.5.3-.7.3-.8.2-1.5.7-1.9 1.4-.7 1-1.6 1.3-2.8 1.2-.7-.1-1.3-.2-1.9-.5-1.4-.6-2-1.7-1.8-3.1.2-1.2 1.4-2 3.1-2zM43.9 41c-.7 0-1.4-.3-1.9-.7-.8-.7-1.6-1.3-2.7-1.4-.4 0-.5-.3-.4-.7.5-1.6 1.2-3.1 2.4-4.4.7-.7 1.1-.7 1.7.1 1.1 1.3 2.4 2.4 4.1 3 .5.2.7.5.4 1-.3.5-.5 1-.8 1.5-.6 1.1-1.7 1.5-2.8 1.6z"/><path class="st2" d="M109.2 37c-1-.1-1.7-.7-1.7-1.6 0-1.6-.8-2.6-2.1-3.4-.4-.2-.7-.5-1-.8-.6-.6-.6-1.4-.3-2 .3-.5 1.1-.8 1.9-.6.9.3 1.8.7 2.6 1 .5.2 1 .4 1.5.5 1.1.2 1.6.9 1.8 1.9.4 1.7-.3 3.2-1.5 4.3-.2.4-.7.5-1.2.7z"/><path class="st1" d="M50.8 31.8c-.1.3-.3.7-.5 1.1-.3.5-.6 1-1 1.5-.3.4-.7.9-1.2 1.2-.6.4-1.3.4-1.9-.1-1-.8-1.9-1.6-2.9-2.4-.4-.4-.3-.9.1-1.3 1.3-1.1 2.5-2.1 3.8-3.2.5-.4 1.1-.8 1.8-1.1.7-.3 1-.1 1.1.6.3 1.1.5 2.3.7 3.7zm58.3 42.8c-1.8 0-2.9-.8-3.4-2.4-.3-1.1.2-2.8 1.1-3.4.6-.5 1.3-.6 2-.3 1.4.5 2.8 1.1 4.1 1.8 1.1.5 1.3 2 .4 2.9-.8.8-1.8 1.1-2.8 1.3-.5.1-.9.1-1.4.1zm-8.6-11.1v-1c0-.7.4-1.1 1.1-1.1.9.1 1.9.3 2.8.5 1.3.2 2.5.5 3.8.8.6.1.7.3.3.8-.2.3-.3.8-.3 1.2-.1.5 0 1.1-.1 1.7-.2.7-.8 1.1-1.6 1.2-1.7 0-3.3-.4-4.8-1.3-1.1-.6-1.3-1.1-1.2-2.8zM36.4 49.8c0-.3 0-.6.1-.9.3-1.2 1.1-1.7 2.2-1.4 1.5.4 2.9.4 4.4.1 1-.2 1.7.3 1.8 1.4.1 1.2-.1 2-1.4 2.7-1.4.7-2.9 1.1-4.4 1.2-1.8.2-2.4-1.1-2.6-2.4-.1-.2-.1-.4-.1-.7zm47.5 32.5c.1-.5.1-1.2.3-1.9.5-1.7 1.6-2.3 3.6-2.1 1.9.2 3.1 1.5 4.2 3 .3.5-.1.7-.5.8-.9.4-1.7.8-2.6 1.3-1.2.6-2.4 1.1-3.7 1.3-.8.1-1.2-.2-1.3-1 .1-.4 0-.8 0-1.4zM35.6 45.7c0 .3-.1.7-.2 1.1-.2.9-.8 1.3-1.7 1-.9-.2-1.8-.4-2.7-.8-1.1-.4-2.2-.8-3.2-1.3-1.1-.5-1.1-1-.1-1.7 1.6-1.1 3.4-1.8 5.3-2.1.8-.2 1.5.2 1.9 1 .5.8.7 1.7.7 2.8zM33 63.4c-.6-.1-1.1-.1-1.5-.2-.6-.1-.8-.5-.5-1 .3-.5.6-1 1-1.5.9-1 1.8-2.1 2.9-3 1-.9 1.9-.8 2.7.2.7.8 1.4 1.7 1.6 2.8.1.7-.1 1.2-.7 1.5-.6.3-1.3.5-1.9.6-1.2.4-2.5.5-3.6.6zm.5-28.6h1.1c1.3 0 2.1.8 2.1 2.1 0 .9-.2 1.8-.4 2.7-.3 1.2-1 1.5-2.1 1-.5-.2-1-.5-1.4-.9-1.1-.9-2.3-1.8-3.4-2.7-.2-.2-.4-.4-.5-.6-.4-.5-.3-1 .3-1.2.7-.2 1.4-.4 2.1-.5.6.2 1.4.2 2.2.1z"/><path class="st2" d="M105.9 68.6c-1 .6-1 1.4-1 2.3v.2c.1 2-1 2.4-2.7 2-.1 0-.1 0-.2-.1-1.3-.7-2.7-1.3-4-2-.6-.3-.6-.5-.1-1.1.3-.4.6-.9.8-1.4.8-1.7 1.2-1.9 3-1.4l3 .9c.5.2.7.4 1.2.6z"/><path class="st1" d="M36.4 53.9c0 1.3-.7 1.7-2.1 1.6-1.7-.2-3.4-.6-5.1-.9-.3 0-.5-.1-.7-.3-.7-.3-.8-.6-.3-1.2.2-.2.3-.4.5-.6 1.4-.9 2.7-1.8 4.2-2.6 1.1-.6 1.9-.3 2.6.8.4.9.9 2.4.9 3.2zm67.3-25.5c-.1.9-.3 1.6-.3 2.3 0 .4 0 .8.1 1.2.1.5-.1.8-.4 1.1-.6.5-1.1 1-1.7 1.5-.2.2-.4.3-.6-.1-.2-.8-.9-.9-1.5-1.1-.5-.2-1-.2-1.5-.4-.6-.2-.8-.5-.6-1.1.3-.7.7-1.4 1.1-2.1.5-.8 1-1.5 1.5-2.2.4-.7.6-.8 1.4-.7.4.1.9.1 1.3.2.9.4 1.2.9 1.2 1.4z"/><path class="st2" d="M65.6 49.2c-.3 1.5-.6 3-1 4.6-.3 1.2-.6 2.4-1 3.5-.3.8-.9 1.4-1.8 1.6-.8.2-1.3 0-1.5-.7-.7-1.8-.8-3.8 1-5.3.9-.7 1.5-1.7 1.9-2.7.2-.6.6-1.2.9-1.7.2-.3.5-.7.9-.5.2.1.3.6.4.9v.2c.1.1.1.1.2.1z"/><path class="st1" d="M50 62.8c-1.5 0-3.1-1.1-3.6-2.5-.2-.6 0-1.1.4-1.5.7-.9 1.7-1.4 2.7-1.9.4-.2.9-.3 1.3-.4 1.4-.3 2.4.4 2.5 1.8.1.7 0 1.3-.6 1.8-.2.2-.4.6-.5.9-.3 1.3-1 1.8-2.2 1.8zm63.1-6.8c-1.7-.1-3.4-.2-5.1-.7-.4-.1-.7-.5-1-.7.3-.3.6-.6.9-.8 1.2-.6 2.5-1.2 3.7-1.8 1.1-.6 2.1-.5 3.1.4.9.8 1.9 1.5 3.1 1.7.1 0 .3.1.3.2.2.2.4.4.4.5 0 .2-.3.4-.5.5-.9.3-1.8.5-2.7.7-.7-.1-1.4-.1-2.2 0zm-5.2-15.4c.2-.5.4-.9.6-1.3 1.2-1.6 2.7-3 4.5-4 1.4-.8 2.5-.5 3.3.7.8 1.1.6 2.2-.6 3-1.6 1-3.3 1.5-5.1 1.7-.9.1-1.7.2-2.7-.1z"/><path class="st2" d="M53.9 26.3c.5.1 1.3.3 2.1.5.4.1.8.1 1.2.1.5 0 .6.2.5.6-.3.9-.6 1.6-1.4 2.2-1 .7-1.4 2-.8 3.2.1.2.1.4.2.6-.2 0-.5.1-.7 0-.7-.2-1.4-.4-2-.7-.3-.2-.6-.5-.9-.8-.7-1-1.3-2.1-1.1-3.4.1-1.4 1.4-2.4 2.9-2.3z"/><path class="st1" d="M78.4 79c.3.1.4.1.5.2 1 .6 2.1.6 3.2.5.4 0 .7 0 1.1-.1.5 0 .6.3.4.6-.5.9-.4 1.9-.4 2.9 0 .9-.2 1.6-1 2.1-.9.5-1.7.4-2.5-.1-.9-.6-1.9-1.2-2.8-1.8-.2-.1-.2-.4-.2-.6 0-.2.2-.5.4-.7.8-.8 1.6-1.6 1.3-3z"/><path class="st2" d="M42.1 62.3c.5 0 .9-.1 1.4-.1.6 0 1.1-.1 1.5-.5.3-.3.7-.4.9.1.5 1.2 1.6 1.7 2.7 2.1.8.3 1.6.3 2.4 0 .5-.2.8 0 1 .4.4.7.3 1.5-.3 2.1-.6.6-1.2 1.1-1.6 1.8-.2.5-.7.4-1.1.1-.8-.6-1.6-1.3-2.5-2-1.4-1.2-2.9-2.4-4.3-3.6l-.2-.2c.1-.1.1-.2.1-.2z"/><path class="st1" d="M72.7 83.3l-.3.9c-.3.7-.7 1.5-1.1 2.2-.4.9-1.2 1.3-2.1.9-1.1-.5-2.3-.9-3-2-.4-.6-.5-1.2-.2-1.8.5-.8 1.1-1.6 1.7-2.4.3-.4.7-.5 1.2-.1.9.7 1.9 1 2.9 1.3.7.2.8.4.9 1zm-10.4-4.8l-.9.6c-.7.3-1.1.9-1.5 1.5-.2.4-.5.9-.7 1.3-.4.6-.9.7-1.5.4-1.1-.5-2-1.2-2.2-2.5-.2-.8-.5-1.7-.5-2.6 0-1.5.8-1.9 2.3-1.6 1 .3 1.8.8 2.4 1.5.5.5 1 .9 1.8.9.3 0 .5.2.8.3-.1.1 0 .2 0 .2z"/><path class="st2" d="M118.1 53.3c-.4-.2-.8-.4-1.1-.6-.7-.5-1.3-1.1-1.9-1.7-.6-.6-1.1-1.2-1.2-2.1-.2-1.1.4-1.9 1.5-1.7 1.5.2 3 .4 4.6.7.8.1.9.5.6 1.2-.2.5-.2 1-.4 1.5-.3.7-.6 1.4-1 2.1-.2.2-.7.4-1.1.6zM62.3 36.4c-2.4-.2-4.3-1.3-5.6-3.2-.2-.3-.4-.8-.5-1.2-.2-.9.6-1.7 1.4-1.3.9.3 1.7.8 2.5 1.4 1 .8 2.1 1.1 3.3 1.1.5 0 1.1.1 1.3.6.3.7.3 1.4 0 2.1 0 .1-.2.2-.4.2-.8.2-1.4.3-2 .3z"/><path class="st1" d="M107.5 52.7c-1.8-.1-2.4-1-1.6-2.6 1-1.9 3.9-3.3 5.8-2.7 1.3.4 1.7 1.3 1 2.5-.8 1.2-1.9 1.9-3.3 2.3-.6.2-1.3.3-1.9.5zM91.7 84.8c-.1-.8.2-1.4.8-1.9.6-.5 1.3-.7 2.1-.3 1 .6 2.1 1 3.2 1.7.9.5.9 1.1.2 1.8-.2.2-.5.4-.7.6-.5.4-1 .7-1.4 1.1-1.5 1.2-2.9.9-3.7-.8-.3-.7-.4-1.4-.7-2.2h.2zm13.4-9.1c-.1.3-.1.5-.1.7-.2 1.1-.4 2.3-.7 3.4-.1.7-.4.8-1.1.6-1.2-.4-2.2-1.1-3.1-2-.7-.8-.6-1.7-.3-2.7.2-.4.4-.7.5-1.1.5-1.1 1.4-1.4 2.6-.9.7.3 1.3.9 1.9 1.4.2.2.2.5.3.6zM118.6 47c-.4-.1-.8-.1-1.2-.3-1.1-.4-1.5-1.3-1.1-2.4.3-1 .3-1.9.2-2.9 0-.4-.1-.7-.1-1.1 0-.6.5-1.3 1-1.4.6-.2 1.1.2 1.3.7.5 1.1 1 2.2 1.4 3.4.2.7.3 1.4.4 2.1.4 1.2-.3 1.9-1.9 1.9z"/><path class="st2" d="M115.5 42.4c-.1.8-.3 1.8-.4 2.8-.1.5-.4.8-.9.9-.8.2-1.5.4-2.3.6-.8.2-1.7-.4-1.9-1.1-.1-.3 0-.6.1-.9.3-.8.4-1.6 0-2.4-.2-.4-.1-.7.4-.8 1-.3 2-.5 3.1-.8 1-.2 1.9.5 1.9 1.7zM65 30.5c0 1.4-.9 2.1-2.3 1.5-.9-.4-1.7-.9-2.6-1.3-.6-.3-1.2-.6-1.8-.8-.8-.3-.9-.5-.7-1.4.1-.4.3-.9.6-1.2.5-.7 1.2-.9 2-.6l3.3 1.5c1.1.6 1.5 1.4 1.5 2.3zm-6.4 10.6c.3.1.5.2.7.2l1.8.6c.3.1.6.3.6.5s-.2.6-.4.8c-.7.5-1.2 1.1-1.5 1.8-.5 1.1-1.6 1.5-2.6 2-.3.2-.6.3-.8.5-.3.3-.6.2-.8-.1-.3-.4-.6-.9-.8-1.3-.6-1.1-.3-2.3.9-2.7.7-.3 1.2-.7 1.7-1.3.4-.4.8-.7 1.2-1z"/><path class="st1" d="M50.8 39.2c-1.4 0-2.3-1.1-1.9-2.5.4-1.3 1.2-2.2 2.3-2.9.6-.3 1.1-.4 1.7 0 .5.3 1.1.6 1.7.9.7.4.8.7.5 1.4-.5 1.7-2.5 3.1-4.3 3.1z"/><path class="st6" d="M109.2 146.2c.5.3 1 .6 1.6.9-.2-.6-.4-1.1-.6-1.6.6-.3 1.2-.6 2-.9.4 1.1.8 2.2 1.3 3.4l-2.1.9-.3-.9c-.2.3-.3.7-.5.9-.3.2-.7.3-1 .3-1.1 0-2.1 0-3.2-.1-.7-.1-1.1-.6-1.2-1.2-.1-1.1-.1-2.2-.1-3.2 0-.1.2-.2.3-.3h.1c1.7-.1 1.7-.1 1.7 1.5v.3c0 1.2.1 1.2 1.2 1.2.4 0 .7-.1.7-.6 0-.2 0-.4.1-.6z"/><path class="st2" d="M55.4 65.6c-.3 0-.6 0-.9-.1-1.8-.4-2.6-2.2-1.7-4 .4-.8 1.1-1.3 1.8-1.8.2-.1.5 0 .8 0 .5 0 .9.2 1.4.2.3 0 .5.1.4.4 0 1.4.2 2.7.6 4.1.1.4-.1.8-.6.9-.6.2-1.2.3-1.8.3z"/><path class="st1" d="M95.9 80.7c.1-1.6 1.4-2.5 2.9-1.9.8.3 1.5.7 2.2 1.1.7.4 1 1 .8 1.8-.1.4-.1.7-.1 1.1-.2 1.1-1.1 1.8-2.2 1.4-1.5-.4-2.6-1.5-3.4-2.8-.1 0-.1-.4-.2-.7zm3.7-6.7c-.1 1.1-.4 2.1-1 3-.6.8-1.5.9-2.2.3-.9-.8-1.5-1.8-2.1-2.9-.1-.2-.1-.4-.1-.7.1-1.3 1.9-2.6 3.1-2.2.9.3 1.9.7 2.2 1.8.1.3.1.5.1.7z"/><path class="st2" d="M86.8 88.1c0 .4 0 .8.1 1.2.2 1 0 1.5-.8 2.1-1.3.9-3.7 0-4.1-1.5-.3-1.2.1-3.1 1.2-3.6 1-.4 2-.4 2.9 0 .5.2.7.6.7 1.2.1.1.1.3 0 .6.1 0 .1 0 0 0zm20.8-50.5c0 1.9-.8 3-2.1 3.3-.9.2-1.6-.3-1.7-1.2-.1-.6-.1-1.2 0-1.7.1-.9.1-1.7-.2-2.6-.1-.4-.1-1 .1-1.4.3-.7.9-.9 1.6-.6.3.2.6.4.8.6.9 1.2 1.4 2.6 1.5 3.6zM69.2 80.5c-.4-.2-.8-.3-1.1-.6-.7-.7-1.5-1-2.5-1h-.8c-.7 0-1.1-.6-.7-1.2.5-.8 1.2-1.3 2-1.7.1-.1.3 0 .4 0 .5.1 1 .1 1.5.2s1 .3 1.5.4c.5.1.9.2 1.4.2.5 0 1 0 1.3.4.1.2.2.5.1.7-.6 1-1.4 1.8-2.5 2.4-.1.1-.3 0-.4.1-.1.1-.2.1-.2.1zm26.3-2.2c-.1.2-.2.6-.4 1.1-.1.3-.2.6-.2.8 0 .6-.2.8-.9.7-1.2-.2-2.1-.8-3-1.6-.3-.3-.6-.6-.9-1-.4-.7-.3-1.3.3-1.7.9-.5 1.8-.9 2.7-1.3.2-.1.5 0 .7.1.9.3 1.7 1.8 1.7 2.9zm-20.4 4.5c-.3-.1-.7-.2-1.2-.3-.7-.2-1.4-.4-2.1-.5-.5-.1-.8-.5-.7-.9.5-1.2 1.3-2.1 2.4-2.8.2-.1.5-.1.8 0 .8.1 1.6.2 2.4.4 1 .2 1.4.9.8 1.8-.4.6-.8 1.2-1.1 1.8-.2.3-.6.5-1.3.5zm-12.2-3.4c.3.1.5.1.8.2.6.1 1.2.1 1.8.1.5 0 1-.1 1.3.3.3.4.1.9-.1 1.3-.4.7-.9 1.3-1.3 2-.4.6-.9.7-1.5.5-.7-.2-1.4-.3-2.2-.2-.5.1-1 .1-1.2-.4-.3-.5-.2-1 .1-1.4.3-.5.5-.9.8-1.4.2-.7.7-1 1.5-1zm3 17.7c-1.1-.2-2.2-.2-2.9-1.1-.5-.6-.5-1.3.4-1.6.6-.2 1.2-.6 1.8-1 .4-.2.7-.5 1.1-.7 1.2-.6 2-.5 3.2.5.5.4.6.9.1 1.3-.9.8-1.8 1.5-2.7 2.2-.3.3-.8.3-1 .4zM50.7 47.7c0 1.2-.5 2.3-1.4 3.1-.7.6-1.5.6-2.1-.1-.9-1.1-1.5-2.4-1.4-3.9 0-1 .6-1.4 1.6-1.2.8.2 1.5.4 2.3.6.7.1.9.5 1 1.5zM79 85.9l1.8.3c.5.1.7.4.6 1-.1.8-.3 1.6-.5 2.3-.3 1.1-.9 1.4-2.1 1-.5-.2-1-.4-1.5-.4-1.6.1-1.7-.9-1.4-2 .5-1.5 1.4-2.2 3.1-2.2zm-5.5-34.6c-.1.5-.2.8-.3 1.2-.2.8-.5 1.5-.7 2.3-.1.5-.4.7-1 .6-1.3-.2-2-.9-2-2.3s.2-2.7.3-4.1c.1-.7.4-.8 1-.5.9.4 1.7.9 2.2 1.8.3.2.4.6.5 1z"/><path class="st1" d="M54.2 70.3l-2.1-.3c-.3-.1-.6-.3-.9-.5-.5-.3-.5-.8-.1-1.3l.6-.9c.3-.6.8-.9 1.4-.7.7.3 1.3.2 1.9.1.5-.1 1-.1 1.5-.1.6 0 .9.2 1 .9.2 1.4-.3 2.7-2.2 2.7-.4 0-.7 0-1.1.1 0-.1 0 0 0 0z"/><path class="st3" d="M87.6 87v-.7c0-.5.2-.7.7-.9.6-.3 1.1-.7 1.6-1.1.6-.4.7-.5.9.2.3 1.2.7 2.3.9 3.5.1.8-.2 1.6-.9 2.1-.6.4-1.2.5-1.8.3-.8-.4-1.1-1.1-1.3-2-.1-.5-.1-1-.1-1.4z"/><path class="st8" d="M59.5 87.9c.6.3 1.1.4 1.7.1.2-.1.6.1 1 .1s.8.1 1.2 0c.6-.3 1.2-.7 1.7-1 .9-.6 2.5 0 2.8 1 .1.3-.1.6-.2.9-.2.4-.5.7-.8 1.1-.4.6-1.1.9-1.7.4-.5-.3-.9-.7-1.4-1.1-.9-.8-1.4-.7-2.1.2-.3.4-.5.8-.7 1.3-.3.5-.7.5-.9 0-.3-.8-.5-1.7-.7-2.6 0-.1.1-.2.1-.4z"/><path class="st2" d="M48.3 26c-.1.3-.1.6-.3.8-.4.7-1 1.3-1.8 1.6-.5.2-1 .1-1.3-.3-1-1.5-1.6-3.1-1.3-4.9.1-.9.6-1.1 1.4-.7 1.2.6 2.2 1.6 3 2.7.1.3.2.6.3.8zM74 136.3v3.4h-5.8v-3.4H74zm-3.1 1.1v.9c0 .1.2.1.3.2 0-.3.1-.5.1-.8 0 0-.2-.1-.4-.3zm1.5 1.3c.4-.5.4-1 0-1.1v1.1zM49 51.5c1 0 1.8.4 2.2 1.3.3.6.7 1.1 1.4 1.2.2.1.5.4.6.6 0 .2-.2.5-.4.6-1.4 1-3.6 1.1-4.8-.5-.5-.6-.9-1.3-1.2-2-.3-.6-.1-.9.5-1.1.5.1 1.1 0 1.7-.1zm9-11.3c-1.4-.1-2.1-.5-2.3-1.4-.2-1-.1-1.9.3-2.8.2-.3.4-.5.8-.3l3.6 1.5c.5.2 1 .5 1 1.1 0 .6-.4 1.1-1 1.3-.8.1-1.6.3-2.4.6z"/><path class="st9" d="M71.6 87.8c.4-.7.6-1.4 1-2 .4-.6.9-1.2 1.4-1.7.9-1 2.7 0 2.8.9 0 .3-.1.8-.3 1-.8.8-1.4 1.6-1.7 2.7-.2.6-.8.9-1.4.7-.5-.1-.9-.3-1.3-.6-.2-.3-.3-.7-.5-1zm31.3-50.3c-.2 1-.4 2.1-.6 3.2-.2.6-.7.9-1.2.5-.8-.6-1.6-1.2-2.3-1.9-.6-.7-.5-1.5.1-2.1.5-.5 1.1-1 1.8-1.4 1-.5 1.8-.1 2 1 .1.2.1.4.2.7z"/><path class="st2" d="M59.1 56v1c-.1.8-.6 1.4-1.4 1.7-1.4.4-2.7.4-3.7-.7-.8-.9-.7-1.8.4-2.2 1-.4 2-.5 3-.7.4-.1.8-.1 1.2-.1.4-.1.6 0 .5.5-.1 0 0 .2 0 .5z"/><path class="st9" d="M52.7 81.3c-1.2 0-1.8-.4-2.2-1.5-.2-.7-.3-1.4-.4-2.1-.1-.6.3-1.1.9-1.2.7-.1 1.5-.1 2.2 0 .7.1 1.1.7 1.1 1.4.1.6.1 1.2.2 1.8.1.8-.2 1.3-1 1.4-.3.1-.6.2-.8.2z"/><path class="st7" d="M45.2 92.2c.6-.1 1.2-.3 1.8-.4 1.2-.2 2.4-.2 3.6-.5 2.2-.6 4.3-1.3 6.4-2 .4-.1.7-.3.8-.8 0-.1.2-.2.3-.2.1 0 .3.1.4.2.5.7.3 1.3-.4 1.8-1.4.9-3 1.4-4.6 1.8-2.3.6-4.6.6-6.9.6-.4 0-.8-.1-1.2-.2-.2-.1-.2-.2-.2-.3z"/><path class="st2" d="M39.4 149.4c-.9-.5-1.6-.8-2.2-1.2.7-2.2 1.4-4.3 2.1-6.5.5.2 1.1.3 1.7.6.1 0 .2.2.2.3-.6 2.3-1.2 4.5-1.8 6.8z"/><path class="st8" d="M75.4 48.8c-.1.2-.1.5-.2.7-.3.6-.8.8-1.3.4-.9-.8-1.8-1.6-2.8-2.3-.8-.6-.5-2.3.4-2.8.2-.1.7-.2.9 0 1.5.9 2.6 2.1 2.9 3.9.1 0 .1 0 .1.1zm-9.3-21.5c0 .1-.1.4-.2.6-.3.5-.6.5-.9.1-.4-.5-.9-.8-1.4-1.1-.8-.4-1.6-.9-2.3-1.5-.6-.5-1.2-1.2-1.7-1.8-.2-.2-.3-.4-.4-.6-.1-.2 0-.5-.1-.7.2 0 .5-.1.7 0l2.4 1.5c.6.4 1.3.7 2 1 1.1.4 1.9 1.4 1.9 2.5z"/><path class="st9" d="M72.1 57.6c-.1.4-.2.7-.3.9-.5.9-1.2 1.8-2.1 2.4-.2.2-.5.3-.8.3-.6.1-1-.2-.9-.7.2-1.4.6-2.8 1.5-4 .6-.9 1.3-.9 2 0 .2.3.4.7.6 1.1z"/><path class="st3" d="M51 49.8c.1-1.4.5-2.7 1.3-3.8.4-.6.8-.6 1.3-.1l1.5 1.8c.2.3.2.6-.1.9-.8.6-1.6 1.2-2.4 1.7-.1.1-.3.2-.4.2-.7.4-1.2.1-1.2-.7z"/><path class="st8" d="M86.7 58.3c-.1.8-.1 1.5-.3 2.2-.1.7-.6 1.1-1.3 1.2-.7.1-1.4-.1-1.9-.7-.2-.2-.2-.6-.1-.8.5-1.4 1.5-2.6 2.6-3.6.3-.3.6-.2.7.2.2.5.2 1 .3 1.5zm-9.3-.1c0-.3 0-.7.1-1.1 0-.2.2-.5.3-.6.2-.1.5.1.6.2.4.3.7.7 1 1.1.5.8 1 1.5 1.5 2.3.3.5.1 1-.5 1.2-.3.2-.7.3-1.1.3-1.1.1-1.7-.5-1.8-1.7-.1-.4-.1-1-.1-1.7z"/><path class="st2" d="M107.8 84.4c.3-.7.5-1.4.8-2 .1-.1.3-.2.5-.3.5-.2 1.1-.4 1.6-.6.1 0 .2-.2.3-.2.4 0 .8-.1 1.1 0 .4.2.4.8.2 1.1-.5.8-1.1 1.5-1.7 2.2-.3.3-.6.6-1 .8-.3.2-.8.2-1.1.1-.5 0-.6-.5-.7-1.1z"/><path class="st8" d="M58 68.6c.3-.5.5-1.2.9-1.5 1.1-.9 2.5-1.4 3.9-1.4.7 0 1 .5.6 1-.3.4-.7.8-1.2 1.1-.9.6-1.9 1-2.6 1.9-.3.4-1 .2-1.3-.3 0-.2-.1-.5-.3-.8.1 0 .1 0 0 0zm-5.6-42.7c-.9 0-1.4-.4-1.8-1.2-.4-.9-1-1.8-1.4-2.7-.2-.4-.4-.8-.5-1.2-.1-.4.2-.6.5-.4 1.4.8 2.7 1.6 3.2 3.2.1.4.5.6.7.9.2.2.4.4.6.7l-.9.6c0 .1-.2.1-.4.1z"/><path class="st3" d="M105.8 80c0-.3-.1-.5-.1-.7.1-1.3.1-2.5.2-3.8 0-.6.3-.8.9-.7.7.2 1.4.5 2.1.8.6.3.6.8.1 1.3-.4.4-.8.8-1.3 1.2-.5.7-1.1 1.2-1.9 1.9zM38.1 36.3c-.9-.4-1.7-2.2-1.3-3.3.4-1.1 1.6-1.7 2.8-1.4.7.2 1 .6.7 1.3-.2.4-.4.7-.7 1.1-.4.8-1 1.6-1.5 2.3z"/><path class="st7" d="M59 90.4c.2.8 0 1.2-.6 1.7-2.2 1.7-4.7 2.3-7.5 2.1-.1 0-.2 0-.3-.1-.1-.1-.2-.2-.3-.2.1-.1.2-.2.3-.2.6-.2 1.2-.4 1.8-.5 1-.2 2-.5 2.9-1 .8-.5 1.7-.7 2.5-1.1.3-.2.7-.4 1.2-.7zm2.5-49.1c-.2 0-.5 0-.6-.1-.2-.1-.3-.3-.3-.4 0-.1.2-.3.3-.4.9-.2 1.4-.9 1.9-1.6.7-1 1.6-1.7 2.9-1.7.3 0 .6.3.8.5.1.1 0 .4-.1.5l-1.8 1.8c-.9.8-2 1.2-3.1 1.4z"/><path class="st9" d="M48.7 81.1c-.8-.2-1.5-.4-2.3-.7-.4-.1-.5-.4-.3-.8s.3-.8.5-1.2c.3-.8 1-1.2 1.7-1 .8.1 1.2.6 1.2 1.5 0 .3 0 .6.1.9.3 1 .1 1.2-.9 1.3z"/><path class="st8" d="M39 29.3c0 1.4-1 2.4-2.4 2.4-.6 0-1.2-.6-1.1-1.3.2-1.2.9-2 2-2.6.6-.3 1.4.1 1.5 1v.5zm33.4 65c-.2-.1-.7-.2-.7-.3 0-.4 0-1 .1-1.3.8-1.4 3-2.1 4.4-1.3.3.2.4.3.1.6l-1.8 1.5c-.5.5-1.3.8-2.1.8z"/><path class="st7" d="M108.6 26.9c.5-.2 1.1-.3 1.6-.4.2 0 .5 0 .7.1.4.3.7.8 1 1.1.3.4.2.6-.1.9-.7.5-1.5.7-2.3.4-.7-.3-1.5-.6-2.2-.9-.2-.1-.5-.4-.4-.6 0-.2.3-.5.6-.5.4-.1.8-.1 1.2-.1-.1-.1-.1-.1-.1 0z"/><path class="st3" d="M105.5 82c.8.1 1.3.5 1.5 1.3.1.7-.2 1.7-.9 2.1-.7.5-1.5.4-2.2 0-.2-.1-.4-.4-.4-.6.1-.9.3-1.8 1-2.4.3-.2.7-.3 1-.4z"/><path class="st10" d="M96 24.2l-2.1 3.9c-.3.5-.7 1-1.4.9-.6-.1-.8-.7-1-1.2-.3-.7-.1-1.1.6-1.3 1-.3 1.8-1 2.6-1.6.4-.3.7-.5 1.1-.8 0 0 .1 0 .2.1zM64.1 65.4c.1-.1.2-.4.4-.6.4-.5.9-1 1.2-1.5.5-.7 1.1-1.3 2-1.4.3 0 .6.1.8.3.1.1 0 .6-.1.7-.4.4-.6.9-.7 1.5-.1.4-.3.6-.7.7-.5.1-.9.4-1.3.6-.3.1-.6.3-.9.4-.4.1-.7-.1-.7-.7z"/><path class="st11" d="M77.9 72.5c1.2 1.2 2.5 1.5 4 1.5 1.4 0 2.8-.3 3.8-1.5 0 1.2-1.9 2.6-3.5 2.6-2 .1-4.1-1.1-4.3-2.6z"/><path class="st7" d="M96.1 92c-.1.2-.1.7-.3.7-.2.1-.6-.1-.8-.2l-1.5-1.2c-.5-.4-.5-.9 0-1.3.4-.3.9-.6 1.4-.8.5-.2.8 0 1 .5 0 .6.1 1.4.2 2.3zM41 138.3c-.6.7-1 1.3-1.5 1.9-.8-.8-1.5-1.6-2.2-2.5.4-.4.9-.9 1.4-1.5.8.7 1.6 1.4 2.3 2.1z"/><path class="st8" d="M40.1 29.4c0-.8.4-1.2 1-1 .7.2 1.4.5 2.1.8.4.2.4.6.3.9-.2.4-.4.8-.7 1.1-.5.5-1.2.4-1.6-.1-.7-.5-1.1-1.2-1.1-1.7z"/><path class="st6" d="M46 77.4c-.4.5-.7 1-1.1 1.4-.3.4-.7.6-1.2.4-.6-.3-1.3-.7-1.8-1.1-.3-.2-.5-.7-.2-1 .2-.2.6-.3.9-.3 1 .1 2.1.3 3.1.4.1.1.2.2.3.2z"/><path class="st7" d="M115.3 78.7c.6 0 1 .4.8.9-.4.8-.8 1.6-1.3 2.4-.4.6-.9.5-1.2-.1-1-1.7-.7-2.1.8-2.8.4-.2.7-.3.9-.4z"/><path class="st8" d="M84.9 137.5c.6 1 1.2 2 1.7 3-.7.4-1.3.8-1.9 1.1-.6-1-1.1-1.9-1.7-2.9.6-.4 1.2-.8 1.9-1.2z"/><path class="st6" d="M91.2 92.1c-.2.3-.4.6-.7.8-.9.6-1.9 1.2-2.8 1.8-.2.1-.4.3-.6.4-.1.1-.4.1-.5 0-.1-.1-.2-.4-.1-.5.5-.8.9-1.7 1.6-2.4.5-.5 2.4-.5 3.1-.1z"/><path class="st8" d="M116.7 75.5c0 .5-.2.9-.7 1.1-.5.2-1 .2-1.3-.2-.4-.4-.7-.8-1-1.3-.4-.6.1-1.4.8-1.5.8-.3 2.2.9 2.2 1.9z"/><path class="st6" d="M124.5 64.3c-.4.1-.8.2-1.3.3-1.1.1-2.1.2-3.2.3-.5 0-.8-.2-1-.6-.3-.7.1-1.4.9-1.3 1.5.3 2.9.6 4.4 1 .1 0 .1.1.2.1v.2zM40.1 132c.7.6 1.5 1.2 2.3 1.9-.5.7-1 1.3-1.5 1.9-.8-.7-1.5-1.4-2.3-2.1.4-.6.9-1.1 1.5-1.7z"/><path class="st8" d="M113.4 27.3c-.5.1-1.1 0-1.6-.4-.4-.3-.4-.7 0-1 .3-.2.7-.3 1.1-.4.7-.1 1.5-.3 2.2-.4.4 0 .7 0 1.1.1.1 0 .1.4.1.5-.6 1.1-1.7 1.6-2.9 1.6z"/><path class="st10" d="M121.9 59.3c-1.3-.1-1.7-.9-1.3-2.1.1-.4.5-.6.9-.4.9.4 1.7.8 2.5 1.2.4.2.2.5-.1.6-.6.3-1.3.5-2 .7zm-7.5-27.5c-.5-.3-1.1-.5-1.6-.9-.5-.3-.5-.9-.3-1.3.3-.5.8-.7 1.4-.4.6.3 1.2.7 1.7 1.2.3.3.3.8-.1 1-.3.2-.7.2-1.1.4z"/><path class="st6" d="M59.5 75.4c1.4.1 2.7.2 4.1.3.3 0 .6.3.7.5.1.2-.2.6-.4.8-.7.6-1.5.5-2.2.2-.8-.4-1.6-1-2.3-1.5 0-.1.1-.2.1-.3zm40.9 10.7c.5 0 .9.4.7 1-.2.8-.4 1.6-.7 2.4 0 .2-.2.4-.3.4-.2 0-.4-.2-.4-.3-.3-.8-.6-1.5-.8-2.3-.1-.5.1-.8.6-1 .2-.1.6-.1.9-.2z"/><path class="st8" d="M61.6 92.8c0-.7.4-1.3 1-1.7.6-.5 1.9-.1 2.2.6.1.1-.1.4-.2.6-.6.5-1.2.9-1.8 1.3-.8.5-1.2.2-1.2-.8z"/><path class="st10" d="M112.6 75.5c.1.1.4.2.5.3.2.4.5.9.5 1.4.1.5-.2.8-.7 1-.3.1-.6.3-.8.5-.4.3-.5.3-.6-.1-.3-.7-.4-1.4-.1-2.2.1-.5.6-.7 1.2-.9z"/><path class="st8" d="M68.3 91.9h-.4c-.4 0-.5-.2-.4-.5.2-.7.5-1.3.8-2 .2-.5.8-.7 1.3-.5.6.2.6.7.5 1.1 0 .3-.1.5-.2.8-.3 1-.4 1.1-1.6 1.1z"/><path class="st6" d="M83.6 91.9c.2 0 .4 0 .6.1.4.1.6.4.5.8-.3.8-.6 1.5-1 2.3-.2.4-.5.3-.6 0-.3-.7-.6-1.5-.8-2.2-.1-.6.5-1 1.3-1z"/><path class="st8" d="M104.5 86.4c1.5 0 1.7.3 1.2 1.7-.2.5-.4 1-.7 1.4-.2.4-.6.4-.7 0-.3-.8-.6-1.7-.8-2.5 0-.7.6-.6 1-.6z"/><path class="st10" d="M73.7 61c.2.1.4.1.5.1.6.4 1.3.8 1.9 1.3.5.4.5.9.3 1.3-.4.8-1.1.8-1.6.1-.6-.9-.9-1.8-1.1-2.8z"/><path class="st7" d="M89.9 61.2c-.1 1.2-.4 2.3-1.2 3.1-.2.3-.6.3-.9.1-.5-.4-.7-.9-.5-1.3 0-.1.1-.1.1-.2.7-.7 1.6-1.2 2.5-1.7z"/><path class="st8" d="M106.8 80.7c1-.8 1.8-1.8 3.1-2.4.1.6.3 1.2.4 1.8.1.5-.2.8-.6.8-.9.1-1.8 0-2.7 0l-.2-.2z"/><path class="st6" d="M108.7 90.6c-.3-.6-.6-1-.8-1.5-.2-.4-.3-.8-.5-1.3-.1-.5.1-.9.5-1 .4-.1.9 0 1.3.1.1 0 .2.4.2.6-.1.9-.3 1.8-.5 2.7-.1.1-.1.2-.2.4z"/><path class="st10" d="M104 55.4l.9-2.4c.1-.2.4-.5.6-.6.2 0 .5.2.6.5.4.7.4 1.3-.2 1.9-.6.7-1.3.9-1.9.6z"/><path class="st6" d="M118.8 69.9c-.3 0-.5-.1-.8-.1-1-.2-1.3-.9-.6-1.8.3-.4.6-.4.9-.2.5.4 1 .8 1.4 1.2.4.4.3.6-.3.7-.2.1-.4.1-.6.2z"/><path class="st11" d="M123.9 54c-.6.4-1.3.8-2.1.7-.3 0-.7-.3-.9-.5-.3-.4 0-.9.4-.8.9.1 1.7.3 2.6.5v.1zM71.1 91.9c-.1-.9-.1-1.6.2-2.2.1-.3.4-.5.7-.3.1 0 .2.1.2.1.9.6 1 .9.1 1.5-.4.2-.7.5-1.2.9z"/><path class="st6" d="M72.9 96.9c-.2-.1-.4-.2-.5-.3-.1-.2 0-.5.1-.7.3-.4 1.6-.8 2-.6.2.1.4.3.4.4 0 .2-.2.5-.3.6-.5.3-1.1.4-1.7.6z"/><path class="st11" d="M88.3 51.9c-.1-.1-.2-.1-.3-.2-.3-.6-.7-1.1-1-1.7-.1-.2 0-.5.1-.7.1-.2.4-.3.5-.3.2 0 .4.3.4.4.2.8.3 1.6.5 2.5-.1-.1-.1 0-.2 0zm-1.8-3.2c-.5 0-.9-.4-.9-.9s.5-.9.9-.9.7.4.7 1c.1.4-.2.8-.7.8zM68 97.2c.6-.3 1.2-.6 1.7-.9.5-.3 1-.7 1.3-1 .3 1.1-1 2.1-3 1.9z"/><path class="st8" d="M77.1 94.1c-.2-.1-.5-.1-.7-.2.1-.3.2-.6.4-.8.3-.2.6-.4.9-.4.1 0 .4.4.4.6.1.4-.1.6-.5.7-.1 0-.3 0-.5.1 0-.1 0-.1 0 0z"/><path class="st11" d="M39.1 76.2c.5-.4.9-.4 1.3-.2.2.1.2.4.2.7 0 .4-.3.6-.7.3-.2-.2-.5-.4-.8-.8z"/><path class="st12" d="M77.3 35.3c.2-.1.4-.2.5-.3.9-.8 2-.8 3-.3.5.2.9.4 1.4.6.7.3 1.1.2 1.5-.5.1-.3.2-.5.3-.8.3-.9.9-1.4 1.9-1.5h.3c2.3-.2 3.6 1 3.6 3.3 0 .7-.3 1.2-.8 1.5-.6.3-1.3.6-1.9.9-.7.3-1.3.6-1.5 1.4-.1.4 0 .8.1 1.2.6 1.2.3 2.2-.6 3.2-1.6 1.7-5.4 2.9-7.8 1.9-1.4-.5-2.4-1.5-3.2-2.7-.7-1.1-.5-2.8.5-3.9.1-.2.3-.3.4-.5 0-.1 0-.1-.1-.2h-.8c-.8-.1-1.6-.2-2.4-.5-2.2-.9-2-3.1-.8-4.4 1.8-1.8 4.6-1.4 5.9.8.2.3.4.5.5.8zm1.7 9.6c2 0 3.5-.3 4.8-1.2.8-.6 1.3-1.4 1.1-2.3-.4-1.4-.9-2.7-1.6-4-1.1-2-4-2.6-5.8-.6-1.2 1.3-2 2.8-2.4 4.4-.4 1.5.1 2.5 1.5 3.1.8.4 1.8.6 2.4.6zm-5.3-11.4c-1.1 0-1.8.1-2.2.8-.2.3-.1.8-.1 1.1.3 0 .6.1.9.1.1 0 .1-.1.2-.1 1-.3 1.5.1 1.6 1.1 0 .2.2.6.4.7.2.1.6-.1.8-.2.2-.2.4-.5.4-.8.3-1.4-.8-2.7-2-2.7zm12.8-.5c-.2.1-.5.1-.7.2-.7.3-1.5 1.6-1.4 2.4 0 .2.1.4.2.5.4.4.7.3 1.1-.1.8-.8 1.1-.9 2-.3.4.2.6.1.7-.3.1-1.3-.8-2.4-1.9-2.4z"/><path class="st13" d="M75.2 29.2c3.6-.6 7.2-.4 10.8.3-3.6.2-7.2.3-10.8-.3z"/><path class="st14" d="M31.8 140.6H21.1c1.3-.7 2.6-1.4 3.9-2.2v1.7h2.2v-2.4c1.6 1 3.1 1.9 4.6 2.9z"/><path class="st15" d="M21.8 146.6v-1h8.7v1h-8.7zm0-3v-1h8.7v1h-8.7z"/><path class="st14" d="M109.2 139.5c.5-.9 1-1.8 1.4-2.7v4.8h-1.2c.3-.4.6-.7.9-1.1-.3-.4-.7-.7-1.1-1z"/><path class="st16" d="M106.6 139.7c-.5.3-.9.6-1.3.8.2.3.5.7.7 1h-1.1v-2.6c.1.1.2.1.3.1.3.1.4.6.9.3 0 0 .2.2.5.4z"/><path class="st13" d="M110.7 135.5v.7H108v-.7h2.7z"/><path class="st16" d="M106.4 135.4c-.5.9-.9 1.6-1.4 2.4-.1 0-.1 0-.2-.1v-2c0-.1.2-.3.3-.3h1.3z"/><path class="st17" d="M106.8 141.5c.4-.3.7-.5 1.1-.8.3.2.6.5.9.8h-2z"/><path class="st16" d="M107 137.8h1.3c-.2.2-.3.4-.5.7l-.9-.6c.1 0 .1 0 .1-.1z"/><path class="st13" d="M100.6 139.6c-.4 0-.7.1-1.1.1.2-.4.4-.7.7-1.2.2.5.3.7.4 1.1z"/><path class="st0" d="M83.1 112.6h5.1c.7 0 1.2.5 1.4 1.2.1.6.2 1.2.1 1.7-.1.9-.9 1.5-1.9 1.5h-4.6c-.1-1.4-.1-2.9-.1-4.4zm-32.5 27.9h-5.5c.3-.4.5-.8.8-1.2.1-.1.2-.1.3-.1h3.3c.1 0 .3.1.4.2.2.3.4.6.7 1.1z"/><path class="st17" d="M49.7 143.6h-4.4v-1.1h4.4v1.1zm-3-6.6v-1.3h2.6v1.3h-2.6z"/><path class="st12" d="M117.9 136.8c.8-.3 1.4-.6 2-.8.2.1.4.4.5.4h7.2v-.6c.9.3 1.7.6 2.7 1h-12.4z"/><path class="st16" d="M124.9 140.6v-1.8h1.5c-.2.5-.4.9-.7 1.4.1.1.3.2.5.4h-1.3z"/><path class="st17" d="M129.1 140.6h-1.3c.2-.5.4-.9.6-1.4-.3-.1-.6-.2-1.1-.4h1.7c.1.6.1 1.2.1 1.8zm-6.3-1.8v1.8h-1.5c.3-.2.6-.4.8-.6-.2-.4-.5-.8-.7-1.3.5.1 1 .1 1.4.1zm-3.9 0h1.5c-.4.2-.6.4-1 .6.2.4.5.7.7 1.2h-1.3c.1-.6.1-1.2.1-1.8z"/><path class="st16" d="M122.7 134.7c1.5-.9.9-.8 2.4 0h-2.4z"/><path d="M70.7 141.7c-.1.1-.2.3-.4.3h-4.9c-.1 0-.2-.1-.3-.2.1-.1.2-.2.3-.2h5.1c.1 0 .2.1.2.1z" fill="#e1e2eb"/><path class="st13" d="M65.2 145h5.4c.1.3.1.4-.3.4h-4.8c-.1 0-.3-.2-.4-.2 0-.1.1-.2.1-.2z"/><path class="st0" d="M67.9 143.6h-2.3c-.1 0-.2-.1-.4-.2.1-.1.2-.2.3-.2h4.8c.1 0 .2.1.3.2-.1.1-.2.2-.4.2h-2.3z"/><path d="M119.8 147.2v-.5h8.4c.1 0 .2.2.3.2-.1.1-.2.2-.3.2-2.8.1-5.6.1-8.4.1z" fill="#dbdce6"/><path class="st17" d="M119.8 144.7h8.3c.1 0 .2.2.3.3-.1.1-.2.2-.3.2h-8.3v-.5z"/><path class="st0" d="M64.1 135.9h1.8c.4 0 .4.1.3.5h-1.9c-.1 0-.2-.2-.4-.3.1-.1.1-.2.2-.2z"/><path class="st13" d="M64.8 138.3H64v-.6h.8v.6z"/><path class="st15" d="M64 134.5v-.7h.7v.7H64z"/><path d="M70.9 137.4c.2.2.4.2.4.3 0 .3-.1.5-.1.8-.1-.1-.3-.1-.3-.2-.1-.2 0-.4 0-.9zm1.5 1.3v-1.1c.4.1.4.6 0 1.1z" fill="#cfd2e0"/><path class="st1" d="M79 44.9c-.6 0-1.6-.2-2.5-.6-1.4-.7-1.9-1.6-1.5-3.1.4-1.7 1.3-3.2 2.4-4.4 1.8-2 4.7-1.4 5.8.6.7 1.2 1.2 2.6 1.6 4 .3 1-.2 1.8-1.1 2.3-1.2.8-2.8 1.1-4.7 1.2z"/><path class="st8" d="M73.7 33.5c1.2 0 2.3 1.3 1.9 2.8-.1.3-.2.6-.4.8-.2.2-.6.3-.8.2-.2-.1-.4-.4-.4-.7-.1-1-.6-1.5-1.6-1.1-.1 0-.1.1-.2.1-.3 0-.6 0-.9-.1 0-.4-.1-.8.1-1.1.5-.8 1.3-.9 2.3-.9z"/><path class="st3" d="M86.5 33c1.1 0 2 1.2 1.9 2.2-.1.4-.3.5-.7.3-.9-.5-1.2-.5-2 .3-.5.5-.8.5-1.1.1-.1-.1-.2-.3-.2-.5-.1-.8.7-2.1 1.4-2.4.2.1.4.1.7 0z"/></svg>