<?xml version="1.0" encoding="UTF-8"?>
<!-- Generator: Adobe Illustrator 20.1.0, SVG Export Plug-In . SVG Version: 6.00 Build 0)  -->
<svg version="1.1" id="Layer_1" xmlns="http://www.w3.org/2000/svg" xmlns:xlink="http://www.w3.org/1999/xlink" x="0px" y="0px" viewBox="0 0 150 150" style="enable-background:new 0 0 150 150;" xml:space="preserve">
<style type="text/css">
	.st0{fill:#FDFDFE;}
	.st1{fill:#1F3362;}
	.st2{fill:#1F3462;}
	.st3{fill:#203463;}
	.st4{fill:#213563;}
	.st5{fill:#1E3361;}
	.st6{fill:#213664;}
	.st7{fill:#203564;}
	.st8{fill:#203563;}
	.st9{fill:#1F3463;}
	.st10{fill:#203664;}
	.st11{fill:#223866;}
	.st12{fill:#F8F8FA;}
	.st13{fill:#F4F4F8;}
	.st14{fill:#F6F6F9;}
	.st15{fill:#FFFFFF;}
	.st16{fill:#EBECF2;}
	.st17{fill:#F0F0F5;}
	.st18{fill:#E1E2EB;}
	.st19{fill:#DBDCE6;}
	.st20{fill:#CFD2E0;}
</style>
<g>
	<g>
		<path class="st0" d="M17,149.6c0-49.7,0-99.5,0-149.2c38.8,0,77.6,0,116.4,0c0,49.7,0,99.5,0,149.2    C94.6,149.6,55.8,149.6,17,149.6z M91.9,33.9c-0.1-1.1-0.2-2.2-0.3-3.3c-0.2-1.8-1.1-3.2-2.9-3.9c-0.7-0.3-1.5-0.6-2.2-0.9    c-0.8-0.4-1.4-0.9-1.9-1.7c-0.9-1.5-1.8-3.1-2.9-4.5c-1.7-2.3-4.5-2.4-6.4-0.2c-0.6,0.7-1,1.5-1.4,2.3c-0.8,1.9-2.1,3.4-3.8,4.6    c-1.3,0.8-2.5,1.8-3.4,3.1c-1.4,2.1-1.8,4.3-0.5,6.5c0.5,0.9,1,1.7,1.5,2.6c0.8,1.3,0.9,2.7,0.5,4.2c-0.7,2.6-1.2,5.3-1.7,7.9    c-0.5,2.2-0.9,4.4-1.4,6.6c-0.3,1.3-0.8,2.5-1.8,3.4c-0.9,0.8-1.8,0.8-2.7,0c-0.1-0.1-0.2-0.2-0.2-0.2c-0.8-0.7-1.7-0.4-2.1,0.6    c-0.5,1.4,0.2,3.1,1.4,3.8c0.4,0.2,1,0.4,1.4,0.3c0.8-0.2,1.7-0.5,2.4-1c2.8-1.9,4.2-4.8,4.6-8c0.4-2.6,0.4-5.2,0.7-7.7    c0.1-1.1,0.4-2.2,0.8-3.3c0.6-1.7,2.4-1.7,3.5-0.8c1.2,1,2.2,2.1,2.9,3.5c0.4,0.8,0.8,1,1.7,0.9c1.3-0.1,2.6-0.2,3.9-0.3    c0.9,0,1.7-0.3,2.4-0.9c0.5-0.4,1-0.8,1.6-1.1c0.8-0.4,1.3-0.2,1.6,0.7c1.3,2.8,2,5.7,2.4,8.7c0.3,2,0.7,4,1.7,5.8    c1.1,2.1,2.6,3.7,5,4.2c0.6,0.1,1.3,0.1,2,0c0.2,0,0.6-0.4,0.6-0.7c0-0.3-0.2-0.7-0.5-0.8c-0.4-0.2-0.9-0.4-1.3-0.5    c-1.4-0.2-2.5-0.8-3.2-2.1c-0.2-0.4-0.4-0.9-0.6-1.4c-0.8-2-1.2-4.1-1.6-6.3c-0.3-2.2-0.7-4.5-1-6.7c-0.2-1.3-0.4-2.5-0.8-3.7    c-0.6-1.8-0.6-3.5,0.5-5.2C91.7,36.9,92,35.4,91.9,33.9z M25.8,85.6c0,0.1,0,0.2,0,0.2c0.4,0,0.8,0.2,1.2,0.1    c1.4-0.2,2.7-0.6,4.1-0.9c2.4-0.5,4.7-1.1,7.1-1.5c1.7-0.3,2.8,0.8,2.6,2.4c0,0.3-0.2,0.7-0.3,1c-0.1,0.3-0.2,0.6-0.2,0.8    c0,0.2,0.1,0.4,0.2,0.6c0.2-0.1,0.4-0.2,0.6-0.3c0.1,0,0.1-0.2,0.1-0.2c0.7-1.5,2-2.5,3.4-3.3c1.3-0.8,2.9-1,4.4-1.3    c0.5-0.1,0.9-0.2,1.3-0.3c-0.2-0.2-0.4-0.3-0.6-0.3c-4-0.9-7.6-2.5-10.9-5c-0.6-0.4-1.1-1-1.3-1.8c-0.2-0.9,0.2-1.4,1.2-1.3    c0.8,0.1,1.7,0.3,2.5,0.5c2.6,0.8,5.2,1,7.8,0.3c1-0.3,1.1-0.5,0.5-1.4c-0.8-1.2-1.6-2.4-2.4-3.6c-0.2-0.3-0.4-0.9-0.9-0.7    c-0.3,0.1-0.6,0.6-0.7,1c-0.3,1.6-1.4,2.3-2.9,2.6c-1.1,0.2-1.7-0.1-2.3-1.1c-0.8-1.2-0.9-2.6-1.2-4c-0.3-1.2-0.5-2.5-1.4-3.4    c-0.2-0.2-0.5-0.4-0.9-0.7c0,0.4-0.1,0.6-0.1,0.8c0,1.8-0.7,3.2-2.1,4.2c-0.6,0.4-1.3,0.6-2,0.5c-1.2-0.2-2.3-0.7-3.2-1.5    c-2.4-2.1-4.8-4.3-7.2-6.4c-1.2-1-2.3-2.1-3.5-3.1c-0.3-0.2-0.7-0.3-1.1-0.5c0.1,0.4,0,0.9,0.2,1.3c0.6,1.3,1.6,2.3,2.7,3.2    c4.2,3.5,8.3,7,12.5,10.5c0.6,0.5,1.1,1.1,1.6,1.7c0.3,0.4,0.1,0.7-0.3,0.9c-0.2,0.1-0.4,0.1-0.6,0.1c-1.8,0-3.5,0-5.3,0    c-2.2,0-4.3-0.1-6.5-0.2c-0.2,0-0.4,0.1-0.6,0.1c0,0.1,0,0.1,0,0.2c0.2,0.1,0.4,0.3,0.6,0.3c0.7,0.1,1.3,0.1,2,0.3    c2.4,0.5,4.7,1,7.1,1.7c1.3,0.4,2.7,0.9,3.9,1.5c0.8,0.4,0.8,0.9,0.3,1.5c-0.4,0.4-0.9,0.8-1.4,1c-2.4,1-4.9,2-7.3,3    C26.2,85.4,26,85.5,25.8,85.6z M33,134.1c-0.3-0.6-0.6-1.1-0.9-1.6c-0.1-0.3-0.3-0.4-0.6-0.4c-0.9,0.1-1.7,0.2-2.6,0.2    c-3,0.1-6,0.2-9,0.3c-0.2,0-0.4,0-0.6,0c0.2,0.7,0.5,1.4,0.6,2c1.7,0,3.4,0,5,0c0,0.2,0,0.4,0,0.7c-2.4,0-4.7,0-7,0    c0,0.7,0,1.4,0,2.1c1.5,0,2.9,0,4.4,0c0,0.1,0,0.1,0,0.2c-1.6,0.6-3.2,1.2-4.9,1.7c0,0,0,0,0,0c0.2,0.4,0.4,0.8,0.7,1.2    c0.4,0.7,0.4,0.7,1.2,0.5c0,0,0.1,0,0.2,0c0,2.7,0,5.4,0,8.1c0.8,0,1.5,0,2.2,0c0-0.2,0-0.4,0-0.6c2.9,0,5.8,0,8.7,0    c0,0.2,0,0.4,0.1,0.7c0.7,0,1.4,0,2.2,0c0-2.8,0-5.6,0-8.4c0.4,0.2,0.7,0.3,1.1,0.4c0.4-0.7,0.8-1.4,1.2-2.1    c-1.4-0.6-2.7-1.1-4-1.6c0-0.1,0-0.1,0-0.2c1.1,0,2.2,0,3.2,0c0-0.7,0-1.4,0-2.1c-2.4,0-4.7,0-7,0c0-0.3,0-0.5,0-0.8    C29.2,134.4,31,134.3,33,134.1z M96.3,142.1c0.7-0.1,1.3-0.2,1.9-0.2c0,0.4,0,0.8,0,1.3c-0.6-0.1-1.1-0.2-1.7-0.3    c-0.3,1.4-0.5,2.8-0.8,4.2c0.6,0.2,1.1,0.3,1.7,0.5c0.3-1,0.5-2,0.7-3c0,0,0,0,0.1,0c0,1.6,0,3.2,0,4.8c0.7,0,1.3,0,2,0    c0-1.7,0-3.4,0-5c0,0,0.1,0,0.1,0c0.2,0.8,0.3,1.5,0.5,2.3c0.6-0.2,1.1-0.3,1.8-0.5c-0.3,0.7-0.5,1.3-0.7,1.9    c0.6,0.3,1.3,0.6,1.9,1c0.6-1.3,0.9-2.6,1-3.9c0-0.1-0.1-0.4-0.1-0.4c-0.6-0.2-1.1-0.3-1.7-0.4c-0.1,0.5-0.2,1-0.3,1.5    c-0.4-1.1-0.7-2.2-1-3.2c-0.5,0.1-1,0.3-1.4,0.4c0-0.4,0-0.9,0-1.3c0.8-0.2,0.8-0.2,1.1,0.5c0.5-0.2,0.9-0.3,1.4-0.6    c0,0.7,0,1.3,0,1.9c1.6,0,3.1,0,4.8,0c-0.2,0.2-0.4,0.3-0.6,0.4c0.5,0.7,0.9,1.4,1.4,2.2c0.6-0.4,1.2-0.7,1.9-1.1    c-0.3-0.5-0.6-1-0.9-1.5c1.2,0,2.2,0,3.3,0c0-3.3,0-6.6,0-9.9c-1.5,0-2.9,0-4.4,0c0.1-0.4,0.2-0.7,0.3-1c-0.8-0.2-1.5-0.3-2.2-0.5    c-0.1,0.3-0.1,0.5-0.2,0.7c-0.3,0.9-0.3,0.9-1.2,0.9c-0.7,0-1.4,0-2.2,0c0,2.2,0,4.2,0,6.3c0,0,0,0-0.1,0    c-0.3-0.8-0.5-1.6-0.8-2.4c-0.5,0.2-0.8,0.4-1.3,0.6c0.6-1.1,1.1-2.1,1.7-3.1c-0.5-0.2-1-0.4-1.5-0.7c-0.4-0.2-0.5-0.1-0.6,0.3    c-0.3,0.6-0.6,1.2-0.9,1.9c-0.2-0.2-0.4-0.3-0.5-0.4c0.6-1.1,1.2-2.1,1.7-3.1c-0.7-0.3-1.3-0.5-1.9-0.8c-0.5,0.9-0.9,1.8-1.4,2.7    c-0.5-0.1-1,0.4-1.6,1.5c0.8,0.7,1.7,1.4,2.6,2.1c-0.3,0.5-0.6,0.9-0.8,1.3c-0.3,0.6-1,0.2-1.4,0.6    C96.1,140.8,96.2,141.5,96.3,142.1z M90.8,118.6c0.4-0.3,0.9-0.5,1.2-0.9c1.2-1.3,1.6-2.8,1.2-4.5c-0.4-1.8-1.5-3-3.3-3.5    c-0.7-0.2-1.4-0.2-2-0.2c-2.6,0-5.2,0-7.9,0c-0.1,0-0.3,0-0.4,0c0,5.8,0,11.5,0,17.2c1.2,0,2.3,0,3.5,0c0-2.3,0-4.5,0-6.7    c1.4,0,2.8,0,4.1,0c1.2,0,1.8,0.5,1.9,1.7c0.1,0.8,0.1,1.6,0.1,2.5c0.1,0.8,0.2,1.7,0.3,2.5c1.4,0,2.7,0,4.2,0    c-0.1-0.2-0.2-0.4-0.3-0.6c-0.2-0.4-0.4-0.8-0.5-1.2c-0.1-0.8-0.1-1.5-0.1-2.3c0-0.7,0-1.3-0.2-2C92.5,119.7,91.8,119,90.8,118.6z     M50.1,109.5c-1.2,0-2.4,0-3.6,0c0,2.2,0,4.4,0,6.5c-2.3,0-4.5,0-6.7,0c0-2.2,0-4.4,0-6.5c-1.2,0-2.4,0-3.6,0c0,5.8,0,11.5,0,17.2    c1.2,0,2.3,0,3.6,0c0-0.2,0-0.4,0-0.6c0-2.2,0-4.3,0-6.5c0-0.5,0.1-0.7,0.7-0.7c1.4,0,2.8,0,4.2,0c0.6,0,1.3,0,1.9,0    c0,2.6,0,5.1,0,7.7c1.2,0,2.4,0,3.6,0C50.1,121,50.1,115.3,50.1,109.5z M89,25.7c1.5,0,2.6-0.6,3.2-1.8c0.5-0.9,0.9-2,1-3    c0.3-1.8,0.8-3.6,1.8-5.1c1.1-1.6,1.3-3.3,1.2-5.2c-0.1-1.3,0.1-2.6,0.9-3.7c0.6-0.9,1.1-1.8,1.4-2.8c0.8-2.3-0.8-3.3-2.3-3.2    c-1.1,0-1.8,0.8-2.1,1.7c-0.5,1.3-0.8,2.7-1.1,4.1c-0.2,1.2-0.5,2.1-1.7,2.8c-1.3,0.7-2.3,1.8-2.6,3.4c-0.1,0.6-0.2,1.2-0.3,1.9    c-0.1,1-0.4,2-1.1,2.8c-0.8,1-1.5,2.2-1.9,3.5C84.9,23.2,86.5,25.8,89,25.7z M52.9,143.4c0.6-0.7,1.1-1.4,1.6-1.9    c-0.8-0.7-1.6-1.5-2.4-2.2c0-0.1,0.1-0.1,0.1-0.2c0.7,0,1.4,0,2.2,0c0-0.6,0-1.1,0-1.6c0-0.4-0.1-0.6-0.5-0.5c-0.8,0-1.6,0-2.5,0    c0-0.3,0-0.6,0-0.8c-0.1-0.4,0.1-0.6,0.5-0.5c0.6,0,1.1,0,1.7,0c0-0.7,0-1.4,0-2.1c-0.7,0-1.5,0-2.2,0c0-0.5,0-1,0-1.5    c-0.7,0-1.4,0-2.1,0c0,0.5,0,1,0,1.5c-0.9,0-1.8,0-2.7,0c0-0.5,0-1,0-1.5c-0.7,0-1.4,0-2.2,0c0,0.5,0,1,0,1.6c-0.7,0-1.3,0-2,0    c0,0.7,0,1.3,0,2c0.7,0,1.3,0,2,0c0,0.5,0,0.9,0,1.4c-0.9,0-1.8,0-2.7,0c0,0.7,0,1.4,0,2.1c0.6,0,1.1,0,1.6,0    c0,0.1,0.1,0.1,0.1,0.2c-0.8,0.7-1.7,1.4-2.6,2.1c0.4,0.5,0.8,1.1,1.3,1.7c0.4-0.3,0.7-0.5,1.1-0.7c0,0.3,0,0.5,0,0.6    c0,1.4,0,2.8,0,4.2c0,1.2,0.7,1.9,1.9,1.9c2.2,0,4.4,0,6.6,0c1.7,0,2.1-0.4,2.6-2c0-0.1,0.1-0.3,0.1-0.4c0-0.1-0.1-0.3-0.1-0.3    c-0.6-0.3-1.3-0.6-1.9-1c0,0.2,0,0.4-0.1,0.6c-0.1,0.6-0.4,1-1.1,1c-1.6,0-3.2,0.1-4.8,0.1c-1.1,0-1.3-0.3-1.1-1.5    c2.1,0,4.3,0,6.5,0c0-1.1,0-2.2,0-3.4C52.2,142.7,52.6,143,52.9,143.4z M54.9,4.2C55,4.5,55,5,55.2,5.2c0.6,0.9,1.3,1.8,2,2.7    c0.4,0.6,0.9,1.2,1.3,1.9c0.3,0.6,0.4,1.3,0.6,2c0.4,1.8,0.9,3.5,2.3,4.8c1,1,1.6,2.2,2,3.5c0.5,1.6,1.2,3.1,2.4,4.4    c1.3,1.3,2.7,1.5,4.2,0.7c1.5-0.8,2-2.2,1.5-3.9c-0.5-1.7-1.5-3.1-2.7-4.3c-0.8-0.8-1.4-1.7-1.7-2.8c-0.6-2-1.7-3.5-3.7-4.5    c-1-0.5-1.6-1.2-2.1-2.2c-0.3-0.7-0.6-1.5-0.9-2.2c-0.5-1.2-1-2.3-2-3.2c-0.8-0.7-1.8-0.7-2.5,0.1C55.3,2.6,55,3.3,54.9,4.2z     M65.7,116.5c2.4-2.3,4.7-4.6,7.2-7c-1.6,0-3,0-4.4,0c-0.2,0-0.4,0.2-0.6,0.3c-1.4,1.5-2.8,3-4.3,4.5c-0.7,0.7-1.4,1.4-2.2,2.3    c0-2.5,0-4.8,0-7.1c-1.2,0-2.4,0-3.5,0c0,5.8,0,11.5,0,17.2c1.2,0,2.3,0,3.5,0c0-1.8,0-3.5,0-5.3c0-0.2,0-0.5,0.1-0.6    c0.5-0.6,1.1-1.1,1.6-1.6c0.1,0.1,0.2,0.2,0.3,0.4c1.6,2.3,3.2,4.5,4.8,6.8c0.1,0.2,0.3,0.4,0.4,0.4c1.4,0,2.9,0,4.5,0    C70.7,123.3,68.2,120,65.7,116.5z M100.3,109.5c0,0.3,0,0.5,0,0.8c0,3,0,5.9,0,8.9c0,1.1,0.1,2.2,0.2,3.2c0.3,2,1.3,3.5,3.3,4.2    c1.9,0.7,3.8,0.7,5.8,0.4c1.7-0.3,3-1.1,3.8-2.6c0.6-1.1,0.8-2.4,0.8-3.6c0-3.6,0-7.3,0-10.9c0-0.1,0-0.2,0-0.4    c-1.2,0-2.4,0-3.7,0c0,0.2,0,0.4,0,0.6c0,3.6,0,7.3,0,10.9c0,1.7-0.7,2.6-1.9,2.9c-0.6,0.1-1.2,0.2-1.8,0.2    c-1.5-0.1-2.3-0.8-2.7-2.3c-0.1-0.5-0.1-1-0.1-1.5c0-3.4,0-6.8,0-10.3c0-0.2,0-0.4,0-0.6C102.7,109.5,101.5,109.5,100.3,109.5z     M132.9,32.2c-0.6,0-1.1,0.1-1.7,0.1c-1.6,0-2.6-1.2-2.1-2.8c0.3-0.9,0.9-1.7,1.4-2.6c0.2-0.3,0.3-0.5,0.5-0.8c-0.3,0-0.7,0-1,0.2    c-0.8,0.3-1.5,0.7-2.3,1c-0.3,0.1-0.7,0-0.9-0.2c-0.2-0.2-0.2-0.7,0-0.9c0.3-0.6,0.8-1.1,1.2-1.7c0.2-0.2,0.3-0.5,0.5-0.8    c-0.3,0-0.6,0-0.8,0.1c-0.7,0.2-1.5,0.5-2.2,0.7c-0.8,0.2-1.5,0-2-0.7c-0.5-0.7-0.7-1.4-0.2-2.2c0.3-0.6,0.8-1.1,1.2-1.7    c0.1-0.2,0.2-0.3,0.4-0.6c-0.9,0.1-1.7,0.1-2.4,0.1c-1.1,0-2.2-0.6-2.4-1.4c-0.3-1.2-0.3-2.4,0.7-3.5c0.1-0.2,0.2-0.4,0.4-0.6    c-0.2,0-0.2-0.1-0.3-0.1c-2.2,0-4.3,1.8-4,4.8c0.1,1.1,0.4,2.2,0.6,3.3c0.1,0.6,0.2,1.1,0.3,1.7c0.2,1.5-0.5,2.6-1.7,3.4    c-0.6,0.4-0.8,1-0.6,1.6c0.2,0.7,0.7,1.1,1.5,1c0.6,0,1.3-0.1,1.9-0.4c1.3-0.6,2.4-0.2,3.5,0.6c1.7,1.2,3.4,2.3,5.2,3.3    c1.5,0.8,3.1,0.9,4.7,0.1C132.5,33.4,132.9,32.9,132.9,32.2z M132.9,135.2c-0.1,0-0.2-0.1-0.3-0.1c-0.1,0-0.2,0-0.3-0.1    c-2.9-0.8-5.9-1.4-8.4-3.3c-2.7,1.6-5.7,2.8-8.8,3.7c0.3,0.5,0.6,0.9,0.8,1.4c0.2,0.4,0.4,0.6,0.9,0.4c0,1.8,0,3.5,0,5.2    c4.8,0,9.6,0,14.4,0c0-1.8,0-3.6,0-5.5c0.5,0.5,0.7,0.1,0.9-0.3C132.3,136.2,132.6,135.8,132.9,135.2z M123.7,67.1    c-0.4,0.3-1,0.4-1.3,0.8c-1.2,1.3-2.3,2.7-3.3,4.1c-0.3,0.3-0.4,0.8-0.4,1.2c0,0.8-0.2,1.3-0.8,1.8c-0.7,0.6-1.1,1.4-0.8,2.5    c0.3,1.1,0.3,2.2-0.2,3.3c-0.8,1.6-0.9,3.3-0.7,5.1c0.2,2.3,1.7,4.2,3.9,5c0.2,0.1,0.3,0.1,0.5,0.1c0.5,0,0.7-0.3,0.4-0.8    c-0.2-0.3-0.4-0.5-0.6-0.8c-1-1.2-1.4-2.5-1.4-4.1c0.1-1.3,0.6-2.1,1.9-2.4c0.8-0.2,1.7-0.3,2.5-0.5c0.5-0.1,1-0.5,1-1    c0.1-0.6-0.4-0.7-0.8-0.9c0,0-0.1,0-0.1-0.1c-0.5-0.2-0.8-0.5-0.8-1c0-0.5,0.4-0.8,0.9-0.9c0.5-0.2,1.1-0.3,1.6-0.6    c0.5-0.2,0.8-0.5,0.8-1.1c0-0.6-0.4-0.9-0.9-1.1c-0.4-0.2-0.8-0.3-1.2-0.5c-0.4-0.2-0.7-0.4-0.6-0.9c0.1-0.5,0.3-0.9,0.8-1.1    c0.2-0.1,0.4-0.1,0.6-0.2c0.1,0,0.2,0,0.2,0c1-0.3,1.3-1.2,0.5-1.9c-0.6-0.5-1.3-0.9-1.9-1.3c-0.5-0.3-0.5-0.6-0.1-1    c0.3-0.3,0.6-0.6,0.8-0.9c0.1-0.2,0.2-0.4,0.2-0.6C124.3,67.3,124,67.3,123.7,67.1z M76.1,67.6c-0.1,3.3,2.6,5.8,5.6,5.9    c3.3,0.1,5.9-2.8,5.9-5.8c0-2.8-2.2-5.8-5.8-5.9C78.7,61.8,76.1,64.4,76.1,67.6z M90.9,142.8c0.9-1.6,1.7-3,2.6-4.4    c-0.8-0.4-1.4-0.7-2-1.1c-0.6,1.1-1.2,2.1-1.7,3.1c-1-1.2-0.6-2.5-0.7-3.8c1.5,0,2.9,0,4.4,0c0-0.7,0-1.4,0-2.1    c-0.6,0-1.1,0-1.8,0c0.5-0.3,0.9-0.5,1.3-0.8c-0.4-0.6-0.7-1.2-1.1-1.8c-0.6,0.4-1.2,0.8-1.8,1.1c0.3,0.5,0.6,0.9,0.9,1.4    c-0.7,0-1.2,0-1.8,0c0-0.9,0-1.7,0-2.5c-0.7,0-1.4,0-2.2,0c0,0.9,0,1.7,0,2.5c-1.3,0-2.6,0-4,0c0,0.7,0,1.4,0,2.1c1.3,0,2.6,0,4,0    c0,1.4,0,2.8,0,4.2c0,0.3-0.2,0.6-0.4,0.7c-1.1,0.8-2.3,1.6-3.4,2.4c-0.1,0.1-0.3,0.3-0.3,0.4c0.2,0.7,0.5,1.4,0.8,2.2    c1.1-0.8,2.2-1.6,3.2-2.4c0,0.9,0,1.7,0,2.6c0,0.3-0.2,0.5-0.5,0.4c-0.6,0-1.2-0.1-1.9-0.1c0.1,0.7,0.3,1.4,0.4,2.2    c0.8,0,1.4,0.1,2.1,0.1c1.4-0.1,2-0.5,2.1-1.8c0.1-1.2,0.1-2.4,0.1-3.6c0-0.2,0-0.4,0-0.7c1,1.7,2.1,3.2,3.6,4.4    c0.4-0.8,0.8-1.5,1.1-2C92.7,144.6,91.8,143.7,90.9,142.8z M26.4,33.1c1.6-0.1,4.4-0.9,6.2-1.9c1.4-0.7,2.5-1.7,3.2-3.1    c0.3-0.6,0.6-1.3,0.5-1.9c-0.2-1.1-0.1-2,0.3-3c0-0.1,0.1-0.2,0.1-0.3c0.2-2.3-0.4-4.4-1.6-6.4c-0.5-0.8-1.1-1.5-2-1.8    c-0.4-0.1-0.8-0.2-1.1,0.2c-0.3,0.4-0.3,0.7-0.1,1.1c0.2,0.4,0.5,0.8,0.6,1.2c0.2,0.7,0.4,1.4,0.3,2.1c-0.1,0.9-0.8,1.4-1.6,1.8    c-1.3,0.6-1.5,1.1-1,2.4c0,0.1,0.1,0.2,0.1,0.3c0.3,1.1-0.2,1.9-1.2,2.1c-0.3,0-0.5,0-0.8,0c-0.3,0-0.6,0.1-0.8,0.2    c0.1,0.3,0.1,0.6,0.2,0.9c0.1,0.2,0.3,0.4,0.4,0.6c0.3,0.4,0.6,0.8,0.9,1.3c0.4,0.7,0.3,1.1-0.3,1.6c-0.6,0.5-1.2,0.8-1.8,1.2    c-0.5,0.3-1,0.4-1.6,0.2c-0.2-0.1-0.4,0.1-0.6,0.1c0.1,0.2,0.1,0.6,0.3,0.7C25.5,32.9,26,33,26.4,33.1z M62.6,99    c-0.4,0.1-0.7,0.2-1.1,0.3c-1.7,0.4-3.3,1-4.8,1.9c-0.3,0.2-0.5,0.5-0.7,0.7c-0.1,0.1-0.1,0.4,0,0.5c0.1,0.1,0.3,0.1,0.4,0    c0.3-0.1,0.6-0.3,1-0.4c0.6-0.3,1-0.2,1.4,0.4c0.3,0.4,0.5,0.8,0.7,1.3c0.5,0.7,1.2,0.8,1.8,0.3c0.3-0.3,0.5-0.6,0.8-0.9    c0.6-0.6,1.4-0.5,1.7,0.4c0.1,0.2,0.1,0.4,0.2,0.6c0.1,0.6,0.4,0.9,0.9,1.1c0.6,0.1,1.2,0,1.6-0.6c0.3-0.4,0.5-0.7,0.9-1    c0.5-0.5,1.2-0.3,1.5,0.3c0.1,0.1,0.1,0.3,0.2,0.4c0.4,0.8,1.1,0.9,1.6,0.3c0.3-0.3,0.5-0.8,0.7-1.2c0.3-0.8,0.9-1.3,1.7-1.7    c1.5-0.6,4.3,0.3,5.4,1.7c0.2,0.3,0.5,0.7,0.9,0.4c0.4-0.2,0.2-0.6,0.2-1c-0.3-1.4-1.2-2.3-2.5-2.9c-1.6-0.6-3.3-1.2-5-0.9    c-1.8,0.4-3.5,0.2-5.3-0.4c-0.4-0.1-1-0.1-1.4,0.1C64.5,99,63.6,99.4,62.6,99z M73.1,57.5c0.1,0.2,0.1,0.6,0.3,0.8    c0.4,0.2,0.7,0,1-0.3c0.2-0.3,0.5-0.6,0.8-0.8c0.8-0.6,1.6-1.4,2.6-1.9c0.8-0.5,1.8-0.7,2.8-0.2c1,0.5,2,0.6,2.9,0.1    c1.2-0.7,2.2-0.6,3.3,0.3c0.4,0.3,1,0.4,1.5,0c0.5-0.4,0.3-0.9,0.1-1.3c0-0.1,0-0.1-0.1-0.2c-0.6-1.2-1.2-2.5-1.7-3.7    c-0.4-1-1.2-1.4-2.2-1.5c-1.8-0.1-3.6,0-5.4,0.2c-1.4,0.2-2.5,0.7-3.4,1.7C74,52.6,73.6,55,73.1,57.5z M70.6,146.9    c0.7,0,1.5,0,2.2,0c0-2.3,0-4.5,0-6.7c-3.2,0-6.4,0-9.6,0c0,2.2,0,4.4,0,6.7c0.6,0,1.3,0,1.9,0c0,0.1,0,0.1,0,0.2    c-1,0.2-2,0.4-3,0.7c0.3,0.6,0.7,1.1,1,1.7c0.7-0.2,1.5-0.4,2.1-0.6c0.9-0.3,1.7-0.7,2-1.8c0-0.1,0.2-0.2,0.3-0.2c0.3,0,0.6,0,1,0    c0,0.3,0,0.6,0,0.8c0,0.9,0.3,1.3,1.2,1.4c1,0.1,2,0.2,2.9,0.1c1.2,0,1.3-0.1,1.6-1.4c-0.6-0.3-1.1-0.5-1.7-0.8    c-0.4,0.8-0.6,0.9-1.4,0.8C70.6,147.7,70.4,147.4,70.6,146.9z M98.6,41.9c0.2-0.6,0.1-0.9-0.3-1.2c-0.3-0.2-0.6-0.5-0.8-0.8    c-0.4-0.4-0.5-0.9-0.3-1.4c0.2-0.5,0.6-1,1-1.4c0.5-0.5,1.1-0.9,1.6-1.4c0.6-0.6,0.4-1.3-0.5-1.5C98.6,34,98,34,97.4,33.8    c-1.2-0.3-1.6-1.2-1.1-2.2c0.4-0.8,0.9-1.6,1.4-2.4c0.4-0.7,1-1.3,1.4-2c0.3-0.6-0.1-1.2-0.7-1.1c-1.1,0.2-2.1,0.6-2.8,1.4    c-0.6,0.7-1.2,1.5-1.9,2.3c-0.4,0.5-0.6,0.9-0.6,1.6c0.2,2.3-0.1,4.6-0.7,6.9c-0.2,0.8-0.5,1.6-1.4,2c-0.7,0.3-0.5,1.3,0.2,1.6    c0.3,0.1,0.6,0.2,1,0.1c0.8,0,1.7-0.1,2.5-0.1C96,41.9,97.3,41.9,98.6,41.9z M117.7,149.4c0.6,0,1.2,0,1.9,0    c0.1,0,0.2-0.1,0.2-0.1c0.1-0.1,0.2-0.2,0.3-0.2c1.5,0,3-0.1,4.4,0c1.4,0.1,2.8-0.4,4.2,0.3c0.5,0.2,1.2,0,1.8,0    c0-2.2,0-4.3,0-6.5c-4.3,0-8.6,0-12.9,0C117.7,145.2,117.7,147.3,117.7,149.4z M47.3,56.2c-0.3-0.5-0.5-1-0.9-1.5    c-0.4-0.6-0.8-1-1.2-1.6c-0.2-0.3-0.5-0.4-0.9-0.3c-0.8,0.2-1.7,0.3-2.6,0.5c-1,0.2-1.9,0.2-2.8,0.5c-0.8,0.2-1.1,0.8-1,1.7    c0.1,0.4,0.1,0.8,0.2,1.1c0.6,1.8,1.3,3.5,2.9,4.6c1.2,0.9,2.6,0.8,3.6-0.4c0.7-0.9,1.4-1.9,2-2.8C46.9,57.4,47,56.8,47.3,56.2z     M76.5,148.1c2.1-0.5,4.1-0.9,6.2-1.4c-0.1-0.7-0.2-1.4-0.2-2.1c-0.6,0.1-1.2,0.2-1.7,0.4c0-1.5,0-2.8,0-4.2c0.6,0,1.2,0,1.8,0    c0-0.7,0-1.4,0-2.1c-0.6,0-1.3,0-1.8,0c0-1.2,0-2.4,0-3.5c0.7,0,1.3,0,2,0c0-0.7,0-1.3,0-2c-2.1,0-4.1,0-6.1,0c0,0.7,0,1.3,0,2.1    c0.7,0,1.3,0,1.9,0c0,1.2,0,2.4,0,3.5c-0.6,0-1.2,0-1.8,0c0,0.7,0,1.4,0,2.1c0.6,0,1.2,0,1.9,0c0,1.5,0,2.9,0,4.3    c0,0.1-0.2,0.3-0.3,0.4c-0.5,0.1-1.1,0.2-1.6,0.3c-0.3,0-0.4,0.1-0.4,0.4C76.3,146.8,76.4,147.4,76.5,148.1z M67.8,137.6    c0-0.9,0-1.7,0-2.5c0.3,0.3,0.6,0.5,0.9,0.7c0.2-0.2,0.3-0.4,0.5-0.6c0,0.3,0,0.5,0.1,0.6c1.4,0,2.8,0,4.2,0c0-0.4,0-0.8,0-1.2    c-1.3,0-2.6,0-3.9,0c0-0.5,0.2-0.4,0.5-0.4c1.4,0,2.7,0,4.1,0c0-0.5,0-1,0-1.4c-1.3,0-2.6,0-3.8,0c-0.2-0.4-0.2-0.4-1.1-0.6    c-0.4-0.1-0.7-0.1-0.8,0.4c-0.1,0.4-0.2,0.7-0.4,1c-0.5,0.9-0.7,1-1.7,0.8c0-0.2,0-0.5,0-0.7c0.5,0,0.9,0,1.3,0c0-0.5,0-1,0-1.5    c-1.8,0-3.6,0-5.4,0c0,2.5,0,5,0,7.5c1.8,0,3.6,0,5.4,0c0-0.5,0-0.9,0-1.5c-0.4,0-0.8,0-1.2,0c0-0.3,0-0.5,0-0.7    C66.9,137.6,67.3,137.6,67.8,137.6z M57,137.1c0.6,0,1.1,0,1.6,0c0,0.1,0,0.2,0,0.3c-0.6,1.9-1.2,3.9-1.9,5.8c0,0.1-0.1,0.3,0,0.4    c0.3,0.5,0.7,0.9,1.1,1.4c0.3-0.7,0.5-1.3,0.8-2c0,0,0.1,0,0.1,0c0,2.1,0,4.3,0,6.4c0.7,0,1.3,0,2,0c0-2.7,0-5.4,0-8    c0,0,0.1,0,0.1,0c0.2,0.4,0.5,0.8,0.7,1.3c0.4-0.5,0.7-1,1-1.4c0.2-0.3,0.2-0.4,0-0.7c-0.5-0.5-0.9-1.2-1.4-1.7    c-0.6-0.5-0.4-1.1-0.4-1.8c0.4,0,0.9,0,1.3,0c0-0.6,0-1.2,0-1.9c-0.5,0-0.9,0-1.4,0c0-1.1,0-2.1,0-3.1c-0.7,0-1.3,0-2,0    c0,1,0,2.1,0,3.1c-0.6,0-1.1,0-1.6,0C57,135.9,57,136.4,57,137.1z M108.4,61.9c1.1,0,2.2-0.1,3-1c0.6-0.7,1.1-1.5,1.5-2.3    c0.6-1.1,0.3-1.8-1-2c-1.2-0.2-2.4-0.4-3.6-0.5c-1.3-0.1-2.6,0-3.9,0.6c-1.2,0.5-2.1,1.3-2.5,2.5c-0.3,0.8-0.1,1.2,0.7,1.5    C104.5,61.4,106.4,61.8,108.4,61.9z M95.2,42.5C95.2,42.5,95.2,42.6,95.2,42.5c-0.6,0.1-1.2,0-1.9,0.1c-0.9,0-1.3,0.3-1.4,1.2    c-0.2,1.3-0.1,2.5,0.5,3.6c0.4,0.8,1.1,1.1,2,0.7c0.3-0.1,0.5-0.3,0.7-0.4c0.5-0.4,1-0.4,1.5,0c0.6,0.4,1.1,0.8,1.7,1.2    c1.2,0.7,2,0.4,2.6-0.9c0.3-0.6,0.4-1.2,0.6-1.8c0.3-0.8,0.2-1.4-0.5-1.9c-0.9-0.5-1.8-1.1-2.7-1.4C97.3,42.6,96.2,42.6,95.2,42.5    z M100.2,42.4c0,0.1,0,0.1,0,0.2c0.3,0.2,0.7,0.3,1,0.5c0.6,0.4,1.3,0.7,1.4,1.5c0.2,1.4-0.1,2.6-1,3.7c-0.1,0.2-0.2,0.4-0.2,0.5    c0.2,0.1,0.5,0.1,0.7,0.2c0.4,0,0.9,0,1.3,0c0.2,0,0.4,0.2,0.6,0.3c0.6,0.3,1.1,0.3,1.7-0.2c0.6-0.5,1.3-0.9,1.9-1.4    c0.6-0.4,1.2-1,1.3-1.7c0.2-0.9,0.3-1.8,0.4-2.7c0.1-0.8-0.3-1.4-1.1-1.6c-0.6-0.2-1.3-0.3-2-0.2c-1.6,0.2-3.1,0.4-4.7,0.6    C101.1,42.3,100.7,42.4,100.2,42.4z M41.5,47.1C41.5,47.1,41.5,47.1,41.5,47.1c0.3-0.1,0.7-0.1,1-0.2c1.2-0.1,2.1-0.6,2.4-1.8    c0.1-0.5,0.3-1,0.3-1.5c0-1-0.3-1.6-1.3-1.8c-0.8-0.1-1.5-0.4-2.2-0.8c-1-0.6-2-1-3-1.5c-0.4-0.2-0.7-0.1-0.8,0.4    c-0.4,1.3-0.8,2.6-1.3,3.8c-0.5,1.4,0,2.4,1.4,2.8C39.2,46.9,40.3,47,41.5,47.1z M119.7,58.3c0,0-0.1,0-0.1,0    c0-0.3-0.1-0.6-0.1-0.9c-0.1-1.2-1-1.7-2.1-1.4c-2.3,0.7-3.5,2.4-4.5,4.4c-0.4,0.8-0.2,1.4,0.3,2c0.8,0.9,1.9,1.3,3,1.5    c1.7,0.4,2.4-0.5,2.7-1.7C119.2,61,119.4,59.6,119.7,58.3z M108.9,66.4c-0.1,1,0,1.1,0.9,1.4c0.4,0.2,0.9,0.4,1.3,0.6    c0.6,0.3,1.2,0.8,1.8,1.1c1.5,0.7,2.8,0.3,3.7-1.1c0.8-1.4,0.5-3-0.8-3.6c-1.4-0.7-2.9-1.3-4.4-1.8c-1.3-0.5-2.3,0.2-2.4,1.6    C108.8,65.2,108.9,65.8,108.9,66.4z M49.3,39.9c-1.6,0-2.8,0.8-3.1,2c-0.3,1.3,0.3,2.5,1.8,3.1c0.6,0.3,1.3,0.4,1.9,0.5    c1.1,0.1,2.1-0.1,2.8-1.2c0.4-0.7,1.1-1.1,1.9-1.4c0.2-0.1,0.5-0.2,0.7-0.3c0.8-0.5,0.9-1.6,0.3-2.3c-0.6-0.6-1.3-0.7-2.1-0.4    c-0.7,0.3-1.3,0.4-2.1,0.2C50.6,40,49.8,40,49.3,39.9z M43.9,41c1.2-0.1,2.2-0.5,2.8-1.6c0.3-0.5,0.5-1,0.8-1.5    c0.3-0.5,0.1-0.8-0.4-1c-1.7-0.6-3-1.7-4.1-3c-0.6-0.7-1.1-0.8-1.7-0.1c-1.2,1.2-1.9,2.7-2.4,4.4c-0.1,0.3,0,0.6,0.4,0.7    c1.1,0.1,1.9,0.7,2.7,1.4C42.5,40.8,43.1,41,43.9,41z M109.2,37c0.4-0.2,1-0.3,1.3-0.6c1.2-1.2,1.8-2.6,1.5-4.3    c-0.2-0.9-0.7-1.7-1.8-1.9c-0.5-0.1-1-0.3-1.5-0.5c-0.9-0.3-1.7-0.7-2.6-1c-0.8-0.3-1.6,0-1.9,0.6c-0.4,0.6-0.3,1.4,0.3,2    c0.3,0.3,0.6,0.6,1,0.8c1.3,0.8,2.1,1.8,2.1,3.4C107.6,36.3,108.2,36.9,109.2,37z M50.8,31.8c-0.2-1.4-0.4-2.5-0.6-3.7    c-0.1-0.7-0.4-0.9-1.1-0.6c-0.6,0.3-1.2,0.7-1.8,1.1c-1.3,1-2.5,2.1-3.8,3.2c-0.5,0.4-0.6,0.9-0.1,1.3c0.9,0.8,1.9,1.6,2.9,2.4    c0.6,0.5,1.3,0.5,1.9,0.1c0.5-0.3,0.8-0.7,1.2-1.2c0.4-0.5,0.7-1,1-1.5C50.5,32.4,50.7,32,50.8,31.8z M109.1,74.6    c0.5-0.1,0.9-0.1,1.4-0.2c1-0.2,2.1-0.5,2.8-1.3c0.8-0.9,0.7-2.4-0.4-2.9c-1.3-0.7-2.7-1.2-4.1-1.8c-0.7-0.3-1.4-0.1-2,0.3    c-0.9,0.7-1.4,2.3-1.1,3.4C106.2,73.8,107.4,74.6,109.1,74.6z M100.5,63.5c0,1.6,0.1,2.2,1.1,2.7c1.5,0.8,3.1,1.3,4.8,1.3    c0.8,0,1.4-0.4,1.6-1.2c0.1-0.5,0.1-1.1,0.1-1.7c0.1-0.4,0.1-0.9,0.3-1.2c0.3-0.5,0.3-0.7-0.3-0.8c-1.3-0.3-2.5-0.5-3.8-0.8    c-0.9-0.2-1.9-0.4-2.8-0.5c-0.7-0.1-1.1,0.4-1.1,1.1C100.5,62.8,100.5,63.2,100.5,63.5z M36.4,49.8C36.4,49.8,36.4,49.8,36.4,49.8    c0,0.2,0,0.5,0,0.7c0.2,1.3,0.8,2.5,2.6,2.4c1.6-0.1,3-0.5,4.4-1.2c1.2-0.6,1.5-1.5,1.4-2.7c-0.1-1-0.8-1.6-1.8-1.4    c-1.5,0.3-2.9,0.3-4.4-0.1c-1.2-0.3-2,0.2-2.2,1.4C36.4,49.2,36.4,49.5,36.4,49.8z M83.9,82.3c0,0.6,0,1,0.1,1.5    c0,0.8,0.5,1.1,1.3,1c1.3-0.2,2.6-0.7,3.7-1.3c0.9-0.4,1.7-0.8,2.6-1.3c0.3-0.2,0.8-0.4,0.5-0.8c-1.1-1.4-2.2-2.8-4.2-3    c-2-0.2-3.1,0.4-3.6,2.1C84,81.1,84,81.8,83.9,82.3z M35.6,45.7c0-1.1-0.2-2-0.7-2.8c-0.4-0.8-1.1-1.2-1.9-1    c-1.9,0.4-3.7,1-5.3,2.1c-1,0.7-0.9,1.2,0.1,1.7c1,0.5,2.1,0.9,3.2,1.3c0.9,0.3,1.8,0.5,2.7,0.8c0.9,0.2,1.5-0.1,1.7-1    C35.6,46.4,35.6,46,35.6,45.7z M33,63.4c1.1-0.1,2.4-0.2,3.6-0.4c0.7-0.1,1.3-0.3,1.9-0.6c0.6-0.3,0.8-0.8,0.7-1.5    c-0.2-1.1-0.9-2-1.6-2.8c-0.9-1-1.7-1.2-2.7-0.2c-1,0.9-1.9,2-2.9,3c-0.4,0.4-0.7,0.9-1,1.5c-0.3,0.5-0.1,0.9,0.5,1    C31.9,63.3,32.4,63.4,33,63.4z M33.5,34.8C33.5,34.8,33.5,34.8,33.5,34.8c-0.8,0-1.6,0-2.3,0.1c-0.7,0.1-1.4,0.2-2.1,0.5    c-0.6,0.2-0.7,0.7-0.3,1.2c0.2,0.2,0.3,0.4,0.5,0.6c1.1,0.9,2.2,1.8,3.4,2.7c0.4,0.3,0.9,0.6,1.4,0.9c1.1,0.5,1.8,0.2,2.1-1    c0.2-0.9,0.4-1.8,0.4-2.7c0.1-1.3-0.8-2.1-2.1-2.1C34.3,34.8,33.9,34.8,33.5,34.8z M105.9,68.6c-0.5-0.3-0.8-0.4-1.1-0.6    c-1-0.3-2-0.7-3-0.9c-1.8-0.5-2.2-0.3-3,1.4c-0.2,0.5-0.5,1-0.8,1.4c-0.4,0.6-0.5,0.8,0.1,1.1c1.3,0.7,2.7,1.4,4,2    c0,0,0.1,0,0.2,0.1c1.7,0.4,2.7-0.1,2.7-2c0-0.1,0-0.1,0-0.2C104.9,70,104.9,69.2,105.9,68.6z M36.4,53.9c0-0.8-0.4-2.3-0.9-3.1    c-0.7-1.1-1.5-1.4-2.6-0.8c-1.4,0.8-2.8,1.7-4.2,2.6c-0.2,0.1-0.4,0.4-0.5,0.6c-0.4,0.6-0.4,0.9,0.3,1.2c0.2,0.1,0.5,0.2,0.7,0.3    c1.7,0.3,3.4,0.7,5.1,0.9C35.7,55.6,36.4,55.1,36.4,53.9z M103.7,28.4c0-0.5-0.4-1-1.1-1.2c-0.4-0.1-0.9-0.2-1.3-0.2    c-0.8-0.2-1,0-1.4,0.7c-0.5,0.8-1,1.5-1.5,2.2c-0.4,0.7-0.8,1.4-1.1,2.1c-0.2,0.6,0,0.9,0.6,1.1c0.5,0.1,1,0.2,1.5,0.4    c0.6,0.2,1.3,0.3,1.5,1.1c0.1,0.3,0.3,0.3,0.6,0.1c0.6-0.5,1.1-1,1.7-1.5c0.3-0.3,0.5-0.6,0.4-1.1c-0.1-0.4-0.2-0.8-0.1-1.2    C103.5,30,103.6,29.3,103.7,28.4z M65.6,49.2c0,0-0.1,0-0.1,0c0-0.1,0-0.2,0-0.2c-0.1-0.3-0.1-0.8-0.4-0.9    c-0.4-0.2-0.7,0.2-0.9,0.5c-0.3,0.6-0.6,1.1-0.9,1.7c-0.4,1-1,2-1.9,2.7c-1.8,1.4-1.8,3.4-1,5.3c0.3,0.7,0.8,0.9,1.5,0.7    c0.9-0.2,1.5-0.8,1.8-1.6c0.4-1.1,0.7-2.3,1-3.5C65,52.3,65.3,50.7,65.6,49.2z M50,62.8c1.3,0,1.9-0.6,2.3-1.8    c0.1-0.3,0.2-0.7,0.5-0.9c0.5-0.5,0.6-1.1,0.6-1.8c-0.1-1.4-1.2-2.2-2.5-1.8c-0.4,0.1-0.9,0.3-1.3,0.4c-1,0.4-2,1-2.7,1.9    c-0.4,0.4-0.6,0.9-0.4,1.5C46.8,61.7,48.5,62.9,50,62.8z M113.1,56c0.8-0.1,1.6-0.1,2.3-0.2c0.9-0.2,1.8-0.4,2.7-0.7    c0.2-0.1,0.4-0.3,0.5-0.5c0-0.2-0.2-0.4-0.4-0.5c-0.1-0.1-0.2-0.2-0.3-0.2c-1.2-0.2-2.2-0.9-3.1-1.7c-1-0.8-2-0.9-3.1-0.4    c-1.2,0.6-2.5,1.2-3.7,1.8c-0.4,0.2-0.6,0.5-0.9,0.8c0.3,0.3,0.6,0.6,1,0.7C109.6,55.8,111.4,55.9,113.1,56z M107.9,40.6    c1,0.4,1.9,0.2,2.7,0.1c1.8-0.2,3.6-0.8,5.1-1.7c1.2-0.8,1.4-1.9,0.6-3c-0.8-1.2-1.9-1.4-3.3-0.7c-1.8,1-3.3,2.4-4.5,4    C108.2,39.7,108.1,40.1,107.9,40.6z M53.9,26.3c-1.5-0.1-2.7,1-2.9,2.2c-0.2,1.3,0.4,2.4,1.1,3.4c0.2,0.3,0.5,0.6,0.9,0.8    c0.7,0.3,1.4,0.5,2,0.7c0.2,0.1,0.5,0,0.7,0c-0.1-0.2-0.1-0.4-0.2-0.6c-0.6-1.1-0.3-2.5,0.8-3.2c0.8-0.5,1.1-1.3,1.4-2.2    c0.1-0.4,0-0.6-0.5-0.6c-0.4,0-0.8,0-1.2-0.1C55.2,26.6,54.4,26.4,53.9,26.3z M78.4,79c0.3,1.4-0.5,2.2-1.2,3    c-0.2,0.2-0.3,0.4-0.4,0.7c0,0.2,0.1,0.5,0.2,0.6c0.9,0.6,1.8,1.2,2.8,1.8c0.8,0.5,1.7,0.6,2.5,0.1c0.8-0.5,1-1.2,1-2.1    c0-1-0.1-2,0.4-2.9c0.2-0.3,0-0.6-0.4-0.6c-0.4,0-0.7,0-1.1,0.1c-1.1,0.1-2.2,0.1-3.2-0.5C78.8,79.1,78.7,79.1,78.4,79z     M42.1,62.3c0,0.1,0,0.1,0,0.2c0.1,0.1,0.1,0.1,0.2,0.2c1.4,1.2,2.9,2.4,4.3,3.6c0.8,0.7,1.6,1.3,2.5,2c0.4,0.3,0.8,0.3,1.1-0.1    c0.4-0.8,1-1.3,1.6-1.8c0.6-0.6,0.7-1.4,0.3-2.1c-0.2-0.4-0.6-0.6-1-0.4c-0.8,0.4-1.6,0.3-2.4,0c-1.1-0.4-2.2-0.9-2.7-2.1    c-0.2-0.5-0.6-0.4-0.9-0.1c-0.4,0.4-0.9,0.5-1.5,0.5C43,62.2,42.6,62.2,42.1,62.3z M72.7,83.3c-0.1-0.6-0.3-0.8-0.9-1    c-1-0.3-2.1-0.6-2.9-1.3c-0.4-0.4-0.9-0.2-1.2,0.1c-0.6,0.8-1.2,1.5-1.7,2.4c-0.4,0.6-0.3,1.2,0.2,1.8c0.7,1.1,1.9,1.6,3,2    c0.9,0.4,1.7,0,2.1-0.9c0.3-0.7,0.7-1.5,1.1-2.2C72.5,84,72.6,83.6,72.7,83.3z M62.3,78.5c0-0.1,0-0.1,0-0.2    c-0.3-0.1-0.5-0.2-0.8-0.3c-0.7-0.1-1.3-0.4-1.8-0.9c-0.7-0.7-1.5-1.2-2.4-1.5c-1.4-0.4-2.2,0.1-2.3,1.6c0,0.9,0.3,1.8,0.5,2.7    c0.2,1.3,1.1,2,2.2,2.5c0.6,0.3,1.1,0.2,1.5-0.4c0.3-0.4,0.5-0.9,0.7-1.3c0.3-0.7,0.8-1.2,1.5-1.5C61.7,78.9,62,78.7,62.3,78.5z     M118.1,53.3c0.4-0.2,0.8-0.4,1-0.7c0.4-0.6,0.7-1.4,1-2.1c0.2-0.5,0.2-1,0.4-1.5c0.2-0.7,0.1-1.1-0.6-1.2c-1.5-0.3-3-0.5-4.6-0.7    c-1.1-0.1-1.7,0.7-1.5,1.7c0.2,0.8,0.6,1.5,1.2,2.1c0.6,0.6,1.3,1.2,1.9,1.7C117.3,52.9,117.7,53.1,118.1,53.3z M62.3,36.4    c0.6-0.1,1.3-0.2,1.9-0.3c0.1,0,0.3-0.1,0.4-0.2c0.3-0.7,0.3-1.4,0-2.1c-0.2-0.5-0.7-0.6-1.3-0.6c-1.2,0-2.3-0.3-3.3-1.1    c-0.7-0.6-1.6-1-2.5-1.4c-0.8-0.3-1.6,0.4-1.4,1.3c0.1,0.4,0.2,0.8,0.5,1.2C58,35.2,59.8,36.3,62.3,36.4z M107.5,52.7    c0.7-0.1,1.3-0.2,1.9-0.4c1.3-0.4,2.5-1.1,3.3-2.3c0.7-1.2,0.3-2.1-1-2.5c-1.9-0.6-4.8,0.7-5.8,2.7    C105.1,51.7,105.6,52.6,107.5,52.7z M91.7,84.8c0,0-0.1,0-0.1,0c0.2,0.7,0.4,1.5,0.7,2.2c0.7,1.7,2.2,2,3.5,0.7    c0.4-0.4,0.9-0.7,1.4-1.1c0.2-0.2,0.5-0.3,0.7-0.6c0.7-0.7,0.7-1.3-0.2-1.8c-1-0.6-2.1-1.1-3.2-1.7c-0.8-0.4-1.4-0.2-2.1,0.3    C91.9,83.4,91.7,84,91.7,84.8z M105.1,75.7c-0.1-0.2-0.1-0.4-0.3-0.6c-0.6-0.5-1.2-1.1-1.9-1.4c-1.2-0.6-2.1-0.2-2.6,0.9    c-0.2,0.4-0.4,0.7-0.5,1.1c-0.4,0.9-0.5,1.9,0.3,2.7c0.9,0.9,1.9,1.6,3.1,2c0.7,0.2,0.9,0.1,1.1-0.6c0.2-1.1,0.4-2.3,0.7-3.4    C105,76.2,105.1,76,105.1,75.7z M118.6,47c1.6-0.1,2.3-0.7,2.1-2c-0.1-0.7-0.2-1.4-0.4-2.1c-0.4-1.1-0.9-2.3-1.4-3.4    c-0.2-0.5-0.7-0.8-1.3-0.7c-0.5,0.1-1,0.8-1,1.4c0,0.4,0,0.7,0.1,1.1c0.1,1,0.1,2-0.2,2.9c-0.4,1.2,0,2,1.1,2.4    C117.8,46.9,118.2,47,118.6,47z M115.5,42.4c0-1.2-0.9-1.9-2-1.7c-1,0.2-2,0.5-3.1,0.8c-0.4,0.1-0.6,0.5-0.4,0.8    c0.4,0.8,0.3,1.6,0,2.4c-0.1,0.3-0.1,0.6-0.1,0.9c0.1,0.7,1.1,1.3,1.9,1.1c0.8-0.2,1.5-0.4,2.3-0.6c0.5-0.1,0.8-0.4,0.9-0.9    C115.2,44.2,115.4,43.3,115.5,42.4z M65,30.5c0-0.9-0.4-1.8-1.4-2.3c-1.1-0.6-2.2-1.1-3.3-1.5c-0.8-0.3-1.5-0.1-2,0.6    c-0.3,0.4-0.4,0.8-0.6,1.2c-0.2,0.8-0.1,1,0.7,1.4c0.6,0.2,1.2,0.5,1.8,0.8c0.9,0.4,1.7,1,2.6,1.3C64.1,32.6,65,32,65,30.5z     M58.6,41.1c-0.4,0.3-0.8,0.6-1.2,1c-0.5,0.6-1,1-1.7,1.3c-1.2,0.4-1.5,1.6-0.9,2.7c0.3,0.4,0.5,0.9,0.8,1.3    c0.2,0.3,0.4,0.4,0.8,0.1c0.2-0.2,0.6-0.3,0.8-0.5c1-0.5,2-0.9,2.6-2c0.4-0.7,0.8-1.3,1.5-1.8c0.2-0.1,0.4-0.5,0.4-0.8    c0-0.2-0.4-0.4-0.6-0.5c-0.6-0.2-1.2-0.4-1.8-0.6C59.1,41.2,58.9,41.2,58.6,41.1z M50.8,39.2c1.9,0,3.9-1.4,4.4-3.1    c0.2-0.7,0.1-1-0.5-1.4c-0.5-0.3-1.1-0.6-1.7-0.9c-0.6-0.4-1.2-0.4-1.7,0c-1.1,0.7-1.9,1.6-2.3,2.9C48.5,38.1,49.4,39.2,50.8,39.2    z M109.2,146.2c0,0.2-0.1,0.4-0.1,0.5c0,0.5-0.3,0.6-0.7,0.6c-1.2,0-1.2-0.1-1.2-1.2c0-0.1,0-0.2,0-0.3c0-1.6,0-1.6-1.7-1.5    c0,0,0,0-0.1,0c-0.1,0.1-0.3,0.2-0.3,0.3c0,1.1,0,2.2,0.1,3.2c0.1,0.7,0.5,1.2,1.2,1.2c1.1,0.1,2.1,0.1,3.2,0.1    c0.3,0,0.7-0.1,1-0.3c0.2-0.2,0.3-0.6,0.5-0.9c0.1,0.3,0.2,0.6,0.3,0.9c0.7-0.3,1.4-0.6,2.1-0.9c-0.4-1.2-0.9-2.2-1.3-3.4    c-0.7,0.3-1.3,0.6-2,0.9c0.2,0.5,0.4,1,0.6,1.6C110.2,146.8,109.7,146.5,109.2,146.2z M55.4,65.6C55.4,65.6,55.4,65.6,55.4,65.6    c0.6-0.1,1.3-0.1,1.9-0.3c0.5-0.1,0.8-0.5,0.6-0.9c-0.4-1.3-0.6-2.7-0.6-4.1c0-0.3-0.1-0.4-0.4-0.4c-0.5,0-0.9-0.1-1.4-0.2    c-0.3,0-0.6-0.1-0.8,0c-0.7,0.5-1.4,1-1.8,1.8c-0.9,1.8-0.2,3.5,1.7,4C54.8,65.6,55.1,65.6,55.4,65.6z M95.9,80.7    c0.1,0.3,0.1,0.6,0.2,0.8c0.8,1.3,1.9,2.3,3.4,2.8c1.1,0.3,2-0.3,2.2-1.4c0.1-0.4,0.1-0.7,0.1-1.1c0.2-0.8-0.1-1.4-0.8-1.8    c-0.7-0.4-1.5-0.8-2.2-1.1C97.3,78.2,96,79.1,95.9,80.7z M99.6,74c0-0.2,0-0.5-0.1-0.7c-0.3-1.1-1.3-1.4-2.2-1.8    c-1.2-0.4-3,0.8-3.1,2.2c0,0.2,0,0.5,0.1,0.7c0.5,1.1,1.1,2.1,2.1,2.9c0.8,0.6,1.6,0.5,2.2-0.3C99.2,76.1,99.5,75.1,99.6,74z     M86.8,88.1C86.9,88.1,86.9,88.1,86.8,88.1c0-0.2,0-0.5,0-0.7c0.1-0.6-0.2-1-0.7-1.2c-1-0.4-2-0.4-2.9,0c-1.2,0.5-1.5,2.5-1.2,3.6    c0.4,1.5,2.8,2.4,4.1,1.5c0.8-0.5,1-1.1,0.8-2.1C86.8,88.9,86.9,88.5,86.8,88.1z M107.6,37.6c-0.1-1.1-0.5-2.4-1.5-3.5    c-0.2-0.3-0.5-0.5-0.8-0.6c-0.7-0.4-1.3-0.2-1.6,0.6c-0.2,0.4-0.2,1-0.1,1.4c0.2,0.9,0.3,1.7,0.2,2.6c-0.1,0.6-0.1,1.2,0,1.7    c0.1,0.9,0.8,1.4,1.7,1.2C106.8,40.6,107.6,39.5,107.6,37.6z M69.2,80.5c0,0,0-0.1,0.1-0.1c0.1,0,0.3,0,0.4-0.1    c1.1-0.5,1.9-1.3,2.5-2.4c0.1-0.2,0-0.5-0.1-0.7c-0.3-0.4-0.8-0.4-1.3-0.4c-0.5,0-0.9-0.1-1.4-0.2c-0.5-0.1-1-0.3-1.5-0.4    c-0.5-0.1-1-0.2-1.5-0.2c-0.1,0-0.3-0.1-0.4,0c-0.8,0.4-1.5,0.9-2,1.7c-0.3,0.6,0,1.2,0.7,1.2c0.3,0,0.6,0,0.8,0    c1,0,1.8,0.2,2.5,1C68.4,80.2,68.9,80.3,69.2,80.5z M95.5,78.3c0-1-0.8-2.6-1.6-3c-0.2-0.1-0.5-0.2-0.7-0.1    c-0.9,0.4-1.9,0.8-2.7,1.3c-0.6,0.4-0.7,1.1-0.3,1.7c0.2,0.4,0.5,0.7,0.9,1c0.9,0.8,1.8,1.4,3,1.6c0.6,0.1,0.8,0,0.9-0.7    c0-0.3,0.1-0.6,0.2-0.8C95.2,78.9,95.4,78.5,95.5,78.3z M75.1,82.8c0.7,0,1.1-0.2,1.4-0.7c0.4-0.6,0.7-1.2,1.1-1.8    c0.6-0.9,0.3-1.7-0.8-1.8c-0.8-0.1-1.6-0.3-2.4-0.4c-0.3,0-0.6-0.1-0.8,0c-1.1,0.6-1.9,1.6-2.4,2.8c-0.2,0.4,0.2,0.8,0.7,0.9    c0.7,0.2,1.4,0.4,2.1,0.5C74.4,82.6,74.9,82.7,75.1,82.8z M62.9,79.4c-0.7,0-1.3,0.4-1.6,0.9c-0.3,0.5-0.6,0.9-0.8,1.4    c-0.3,0.5-0.3,1-0.1,1.4c0.3,0.5,0.8,0.5,1.2,0.4c0.8-0.1,1.5,0,2.2,0.2c0.6,0.2,1.2,0.1,1.5-0.5c0.4-0.7,0.9-1.3,1.3-2    c0.2-0.4,0.4-0.9,0.1-1.3c-0.3-0.5-0.8-0.3-1.3-0.3c-0.6,0-1.2-0.1-1.8-0.1C63.4,79.5,63.1,79.4,62.9,79.4z M65.9,97.1    c0.2-0.1,0.7-0.1,0.9-0.3c0.9-0.7,1.9-1.4,2.7-2.2c0.4-0.4,0.4-0.9-0.1-1.3c-1.2-1-2-1.1-3.2-0.5c-0.4,0.2-0.7,0.5-1.1,0.7    c-0.6,0.3-1.1,0.8-1.8,1c-1,0.3-0.9,1.1-0.4,1.6C63.7,96.9,64.7,96.9,65.9,97.1z M50.7,47.7c0-1-0.3-1.4-1.1-1.6    c-0.8-0.2-1.5-0.4-2.3-0.6c-1-0.2-1.5,0.2-1.6,1.2c0,1.5,0.5,2.8,1.4,3.9c0.6,0.7,1.4,0.8,2.1,0.1C50.1,49.9,50.6,48.9,50.7,47.7z     M79,85.9c-1.7,0-2.6,0.6-3,2.3c-0.3,1.1-0.2,2,1.4,2c0.5,0,1,0.2,1.5,0.4c1.1,0.4,1.8,0.2,2.1-1c0.2-0.8,0.3-1.6,0.5-2.3    c0.1-0.5-0.1-0.8-0.6-1C80.2,86.1,79.6,86,79,85.9z M73.5,51.3c-0.1-0.3-0.2-0.7-0.4-1.1c-0.5-0.8-1.3-1.3-2.2-1.8    c-0.6-0.3-1-0.2-1,0.5c-0.1,1.4-0.3,2.7-0.3,4.1c0,1.3,0.7,2.1,2,2.3c0.5,0.1,0.8-0.1,1-0.6c0.2-0.8,0.5-1.5,0.7-2.3    C73.3,52.1,73.4,51.7,73.5,51.3z M54.2,70.3C54.2,70.3,54.2,70.2,54.2,70.3c0.4-0.1,0.7-0.1,1.1-0.1c1.9,0,2.3-1.3,2.2-2.7    c-0.1-0.6-0.4-0.9-1-0.9c-0.5,0-1,0-1.5,0.1c-0.6,0.1-1.3,0.2-1.9-0.1c-0.6-0.2-1.1,0.1-1.4,0.7c-0.2,0.3-0.4,0.6-0.6,0.9    c-0.3,0.5-0.3,0.9,0.1,1.3c0.3,0.2,0.6,0.4,0.9,0.5C52.8,70.1,53.5,70.2,54.2,70.3z M87.6,87C87.6,87,87.6,87,87.6,87    c0,0.5,0,1,0.1,1.4c0.1,0.8,0.4,1.6,1.3,2c0.7,0.3,1.3,0.2,1.8-0.3c0.7-0.5,1-1.3,0.9-2.1c-0.2-1.2-0.6-2.4-0.9-3.5    c-0.2-0.7-0.4-0.7-0.9-0.2c-0.5,0.4-1,0.8-1.6,1.1c-0.4,0.2-0.6,0.5-0.7,0.9C87.6,86.5,87.6,86.7,87.6,87z M59.5,87.9    c-0.1,0.2-0.2,0.4-0.1,0.5c0.2,0.9,0.4,1.7,0.7,2.6c0.2,0.5,0.6,0.5,0.9,0c0.3-0.4,0.4-0.9,0.7-1.3c0.7-0.9,1.2-1,2.1-0.2    c0.4,0.4,0.9,0.8,1.4,1.1c0.6,0.4,1.4,0.2,1.7-0.4c0.2-0.4,0.6-0.7,0.8-1.1c0.1-0.3,0.3-0.6,0.2-0.9c-0.3-1-1.9-1.6-2.8-1    c-0.6,0.3-1.1,0.8-1.7,1c-0.3,0.1-0.8,0-1.2,0c-0.3,0-0.7-0.3-1-0.1C60.6,88.3,60.1,88.2,59.5,87.9z M48.3,26    c-0.1-0.3-0.1-0.5-0.3-0.7c-0.8-1.1-1.8-2.1-3-2.7c-0.8-0.4-1.3-0.2-1.4,0.7c-0.3,1.8,0.3,3.4,1.3,4.9c0.3,0.4,0.8,0.5,1.3,0.3    c0.8-0.3,1.4-0.9,1.8-1.6C48.1,26.6,48.2,26.3,48.3,26z M74,136.3c-2,0-3.9,0-5.8,0c0,1.2,0,2.3,0,3.4c1.9,0,3.9,0,5.8,0    c0-1,0-2,0-3C74,136.6,74,136.5,74,136.3z M49,51.5c-0.6,0.1-1.2,0.2-1.8,0.3c-0.6,0.1-0.8,0.5-0.5,1.1c0.3,0.7,0.7,1.4,1.2,2    c1.3,1.6,3.4,1.5,4.8,0.5c0.2-0.1,0.5-0.5,0.4-0.6c0-0.2-0.3-0.5-0.6-0.6c-0.7-0.2-1.1-0.6-1.4-1.2C50.8,51.9,50,51.5,49,51.5z     M58,40.2c0.8-0.2,1.6-0.4,2.4-0.7c0.6-0.2,1-0.6,1-1.3c0-0.6-0.5-0.9-1-1.1c-1.2-0.5-2.4-1-3.6-1.5c-0.4-0.2-0.7,0-0.8,0.3    c-0.4,0.9-0.5,1.9-0.3,2.8C55.9,39.7,56.6,40.1,58,40.2z M71.6,87.8c0.2,0.4,0.3,0.7,0.6,0.9c0.4,0.3,0.8,0.5,1.3,0.6    c0.6,0.2,1.3-0.1,1.4-0.7c0.3-1.1,0.9-1.9,1.7-2.7c0.2-0.2,0.4-0.7,0.3-1C76.7,84,74.9,83,74,84c-0.5,0.6-1,1.1-1.4,1.7    C72.2,86.4,71.9,87.1,71.6,87.8z M102.9,37.5c-0.1-0.3-0.1-0.5-0.1-0.7c-0.3-1.1-1-1.6-2-1c-0.7,0.3-1.3,0.9-1.8,1.4    c-0.7,0.6-0.7,1.4-0.1,2.1c0.7,0.7,1.5,1.4,2.3,1.9c0.5,0.4,1,0.1,1.2-0.5C102.5,39.6,102.7,38.5,102.9,37.5z M59.1,56    C59.1,56,59.1,56,59.1,56c0-0.2,0-0.5,0-0.7c0-0.4-0.2-0.5-0.5-0.5c-0.4,0.1-0.8,0.1-1.2,0.1c-1,0.2-2.1,0.3-3,0.7    c-1.1,0.4-1.3,1.4-0.4,2.2c1.1,1.1,2.4,1.1,3.7,0.7c0.8-0.2,1.3-0.8,1.4-1.7C59.1,56.6,59.1,56.3,59.1,56z M52.7,81.3    c0.3,0,0.6-0.1,0.9-0.1c0.8-0.1,1.1-0.5,1-1.4c-0.1-0.6-0.2-1.2-0.2-1.8c-0.1-0.7-0.5-1.3-1.1-1.4c-0.7-0.1-1.5-0.1-2.2,0    c-0.6,0.1-1,0.6-0.9,1.2c0.1,0.7,0.2,1.4,0.4,2.1C50.9,81,51.5,81.3,52.7,81.3z M45.2,92.2c0,0.1,0,0.2,0,0.3    c0.4,0.1,0.8,0.2,1.2,0.2c2.3,0.1,4.7,0,6.9-0.6c1.6-0.4,3.2-0.9,4.6-1.8c0.7-0.5,0.8-1.1,0.4-1.8c-0.1-0.1-0.2-0.2-0.4-0.2    c-0.1,0-0.2,0.1-0.3,0.2c0,0.5-0.4,0.6-0.8,0.8c-2.1,0.7-4.3,1.4-6.4,2c-1.2,0.3-2.4,0.3-3.6,0.5C46.5,91.9,45.9,92,45.2,92.2z     M39.4,149.4c0.6-2.3,1.2-4.6,1.8-6.8c0-0.1-0.1-0.3-0.2-0.3c-0.6-0.2-1.2-0.4-1.7-0.6c-0.7,2.2-1.4,4.4-2.1,6.5    C37.8,148.6,38.5,149,39.4,149.4z M75.4,48.8c0-0.1,0-0.1,0-0.2c-0.3-1.8-1.5-3-2.9-3.9c-0.2-0.1-0.6-0.1-0.9,0    c-0.9,0.5-1.2,2.2-0.4,2.8c1,0.7,1.9,1.5,2.8,2.3c0.5,0.5,1,0.2,1.3-0.4C75.3,49.3,75.4,49,75.4,48.8z M66.1,27.3    c0-1.1-0.9-2.1-1.9-2.5c-0.7-0.3-1.3-0.6-2-1c-0.8-0.5-1.6-1-2.4-1.5c-0.2-0.1-0.5,0-0.7,0c0,0.2,0,0.5,0.1,0.7    c0.1,0.2,0.2,0.4,0.4,0.6c0.6,0.6,1.1,1.3,1.7,1.8c0.7,0.6,1.5,1.1,2.3,1.5c0.6,0.3,1.1,0.6,1.4,1.1c0.3,0.4,0.6,0.4,0.9-0.1    C66,27.7,66.1,27.5,66.1,27.3z M72.1,57.6c-0.2-0.4-0.4-0.8-0.7-1.2c-0.7-0.9-1.4-0.9-2,0c-0.8,1.2-1.2,2.6-1.5,4    c-0.1,0.6,0.3,0.9,0.9,0.7c0.3-0.1,0.6-0.2,0.8-0.3c0.9-0.6,1.6-1.4,2.1-2.4C71.9,58.2,71.9,58,72.1,57.6z M51,49.8    c0,0.8,0.4,1.1,1.2,0.7c0.2-0.1,0.3-0.1,0.4-0.2c0.8-0.6,1.6-1.2,2.4-1.7c0.4-0.3,0.4-0.6,0.1-0.9c-0.5-0.6-1-1.2-1.5-1.8    c-0.5-0.5-0.9-0.5-1.3,0.1C51.5,47.2,51.1,48.4,51,49.8z M86.7,58.3c-0.1-0.5-0.1-1-0.2-1.4c-0.1-0.5-0.4-0.6-0.7-0.2    c-1.1,1-2.1,2.2-2.6,3.6c-0.1,0.2-0.1,0.6,0.1,0.8c0.5,0.6,1.2,0.7,1.9,0.7c0.7-0.1,1.2-0.5,1.3-1.2    C86.6,59.8,86.6,59.1,86.7,58.3z M77.4,58.2c0,0.6,0,1.2,0.1,1.8c0.1,1.2,0.8,1.9,1.8,1.7c0.4,0,0.7-0.2,1.1-0.3    c0.5-0.3,0.7-0.7,0.5-1.2c-0.4-0.8-0.9-1.6-1.5-2.3c-0.3-0.4-0.6-0.8-1-1.1c-0.2-0.1-0.5-0.3-0.6-0.2c-0.2,0.1-0.3,0.4-0.3,0.6    C77.4,57.5,77.4,57.9,77.4,58.2z M107.8,84.4c0.1,0.5,0.2,1,0.7,1.2c0.3,0.1,0.8,0,1.1-0.1c0.4-0.2,0.7-0.5,1-0.8    c0.6-0.7,1.2-1.4,1.7-2.2c0.2-0.4,0.3-0.9-0.2-1.1c-0.3-0.2-0.7,0-1.1,0c-0.1,0-0.2,0.1-0.3,0.2c-0.5,0.2-1.1,0.4-1.6,0.6    c-0.2,0.1-0.4,0.2-0.5,0.3C108.3,83.1,108,83.8,107.8,84.4z M58,68.6C58.1,68.6,58.1,68.6,58,68.6c0.2,0.3,0.2,0.6,0.4,0.8    c0.3,0.5,0.9,0.7,1.3,0.3c0.7-0.9,1.7-1.3,2.6-1.9c0.4-0.3,0.9-0.7,1.2-1.1c0.4-0.5,0.1-1-0.6-1c-1.5,0-2.8,0.5-3.9,1.4    C58.5,67.4,58.3,68.1,58,68.6z M52.4,25.9c0.1,0,0.3,0,0.5-0.1c0.3-0.2,0.6-0.4,0.9-0.6c-0.2-0.2-0.4-0.4-0.6-0.7    c-0.2-0.3-0.6-0.6-0.7-0.9c-0.5-1.6-1.8-2.5-3.2-3.2c-0.3-0.2-0.6,0-0.5,0.4c0.1,0.4,0.3,0.8,0.5,1.2c0.5,0.9,1,1.8,1.4,2.7    C51,25.5,51.5,25.9,52.4,25.9z M105.8,80c0.8-0.7,1.4-1.2,2-1.8c0.4-0.4,0.9-0.8,1.3-1.2c0.5-0.5,0.5-1-0.1-1.3    c-0.6-0.4-1.4-0.6-2.1-0.8c-0.6-0.2-0.9,0-0.9,0.7c-0.1,1.3-0.2,2.5-0.2,3.8C105.7,79.5,105.8,79.6,105.8,80z M38.1,36.3    c0.5-0.8,1-1.5,1.5-2.3c0.2-0.4,0.5-0.7,0.7-1.1c0.3-0.7,0.1-1.1-0.7-1.3c-1.2-0.3-2.5,0.3-2.8,1.4C36.5,34.2,37.2,35.9,38.1,36.3    z M59,90.4c-0.5,0.2-0.9,0.5-1.3,0.7c-0.8,0.4-1.7,0.7-2.5,1.1c-0.9,0.5-1.8,0.9-2.9,1c-0.6,0.1-1.2,0.3-1.8,0.5    c-0.1,0-0.2,0.2-0.3,0.2c0.1,0.1,0.2,0.2,0.3,0.2c0.1,0,0.2,0.1,0.3,0.1c2.8,0.2,5.3-0.5,7.5-2.1C59,91.7,59.2,91.2,59,90.4z     M61.5,41.3c1.1-0.2,2.2-0.6,3.1-1.4c0.6-0.6,1.2-1.2,1.8-1.8c0.1-0.1,0.2-0.4,0.1-0.5c-0.2-0.2-0.5-0.5-0.8-0.5    c-1.3-0.1-2.2,0.6-2.9,1.7c-0.5,0.7-1,1.4-1.9,1.6c-0.1,0-0.4,0.2-0.3,0.4c0,0.2,0.2,0.4,0.3,0.4C61,41.3,61.2,41.2,61.5,41.3z     M48.7,81.1c1-0.1,1.2-0.3,1-1.3c-0.1-0.3-0.1-0.6-0.1-0.9c0-0.9-0.4-1.4-1.2-1.5c-0.8-0.1-1.5,0.3-1.7,1    c-0.1,0.4-0.3,0.9-0.5,1.2c-0.2,0.4-0.1,0.7,0.3,0.8C47.1,80.7,47.9,80.9,48.7,81.1z M39,29.3c0-0.2,0-0.4,0-0.6    c-0.1-0.8-0.8-1.3-1.5-1c-1,0.6-1.8,1.4-2,2.6c-0.1,0.7,0.4,1.3,1.1,1.3C38,31.7,39,30.7,39,29.3z M72.4,94.3    c0.8,0,1.5-0.3,2.2-0.8c0.6-0.5,1.2-1,1.8-1.5c0.3-0.2,0.2-0.4-0.1-0.6c-1.4-0.8-3.7-0.1-4.4,1.3c-0.2,0.4-0.2,0.9-0.1,1.3    C71.7,94.1,72.2,94.2,72.4,94.3z M108.6,26.9c0-0.1,0-0.1,0-0.2c-0.4,0-0.8,0-1.2,0.1c-0.2,0.1-0.6,0.3-0.6,0.5    c0,0.2,0.2,0.5,0.4,0.6c0.7,0.3,1.5,0.6,2.2,0.9c0.8,0.3,1.6,0.1,2.3-0.4c0.4-0.2,0.5-0.5,0.1-0.9c-0.3-0.4-0.6-0.8-1-1.1    c-0.1-0.1-0.5-0.2-0.7-0.1C109.7,26.5,109.2,26.7,108.6,26.9z M105.5,82c-0.3,0.1-0.6,0.2-0.9,0.4c-0.8,0.6-1,1.5-1,2.4    c0,0.2,0.2,0.5,0.4,0.6c0.7,0.4,1.4,0.5,2.2,0c0.6-0.4,1-1.4,0.9-2.1C106.8,82.5,106.3,82.1,105.5,82z M96,24.2    c-0.1-0.1-0.1-0.1-0.2-0.2c-0.4,0.3-0.8,0.5-1.1,0.8c-0.8,0.7-1.5,1.3-2.6,1.6c-0.8,0.2-1,0.6-0.6,1.3c0.2,0.5,0.4,1.1,1,1.2    c0.7,0.1,1.1-0.4,1.4-0.9C94.6,26.8,95.3,25.5,96,24.2z M64.1,65.4c0,0.6,0.3,0.8,0.7,0.7c0.3-0.1,0.6-0.3,0.9-0.4    c0.4-0.2,0.8-0.5,1.3-0.6c0.4-0.1,0.6-0.3,0.7-0.7c0.1-0.6,0.2-1.1,0.7-1.5c0.2-0.2,0.2-0.6,0.1-0.7c-0.1-0.2-0.5-0.3-0.8-0.3    c-0.9,0.1-1.5,0.7-2,1.4c-0.4,0.5-0.8,1-1.2,1.5C64.3,65,64.2,65.3,64.1,65.4z M77.9,72.5c0.2,1.6,2.3,2.8,4.3,2.7    c1.7-0.1,3.5-1.4,3.5-2.6c-1.1,1.2-2.4,1.5-3.8,1.5C80.4,74,79.1,73.7,77.9,72.5z M96.1,92c-0.1-0.8-0.2-1.6-0.4-2.4    c-0.1-0.5-0.5-0.7-1-0.5c-0.5,0.2-1,0.5-1.4,0.8c-0.5,0.4-0.5,0.9,0,1.3c0.5,0.4,1,0.9,1.5,1.2c0.2,0.2,0.6,0.3,0.8,0.2    C96,92.6,96,92.2,96.1,92z M41,138.3c-0.8-0.7-1.6-1.4-2.3-2.1c-0.6,0.6-1.1,1.1-1.4,1.5c0.8,0.9,1.5,1.7,2.2,2.5    C40,139.5,40.5,139,41,138.3z M40.1,29.4c0.1,0.5,0.4,1.2,0.9,1.7c0.5,0.5,1.2,0.5,1.6,0.1c0.3-0.3,0.6-0.7,0.7-1.1    c0.1-0.3,0.1-0.7-0.3-0.9c-0.7-0.3-1.4-0.6-2.1-0.8C40.5,28.2,40.1,28.5,40.1,29.4z M46,77.4c-0.1-0.1-0.2-0.1-0.4-0.1    c-1-0.1-2.1-0.3-3.1-0.4c-0.3,0-0.7,0.1-0.9,0.3c-0.3,0.3-0.1,0.8,0.2,1c0.6,0.4,1.2,0.8,1.8,1.1c0.5,0.2,0.9,0,1.2-0.4    C45.3,78.4,45.6,77.9,46,77.4z M115.3,78.7c-0.2,0.1-0.6,0.2-0.9,0.3c-1.5,0.7-1.8,1.1-0.8,2.8c0.4,0.6,0.8,0.7,1.2,0.1    c0.5-0.7,0.9-1.5,1.3-2.4C116.3,79.2,115.9,78.7,115.3,78.7z M84.9,137.5c-0.7,0.4-1.3,0.8-1.9,1.2c0.6,1,1.2,2,1.7,2.9    c0.6-0.4,1.2-0.7,1.9-1.1C86,139.4,85.5,138.5,84.9,137.5z M91.2,92.1c-0.7-0.4-2.7-0.4-3.1,0.1c-0.6,0.7-1.1,1.6-1.6,2.4    c-0.1,0.1,0,0.4,0.1,0.5c0.1,0.1,0.3,0,0.5,0c0.2-0.1,0.4-0.3,0.6-0.4c0.9-0.6,1.9-1.2,2.8-1.8C90.8,92.7,91,92.4,91.2,92.1z     M116.7,75.5c0-1-1.4-2.2-2.3-2c-0.7,0.1-1.1,1-0.8,1.5c0.3,0.5,0.6,0.9,1,1.3c0.4,0.4,0.9,0.4,1.3,0.2    C116.4,76.3,116.7,75.9,116.7,75.5z M124.5,64.3c0-0.1,0-0.1,0-0.2c-0.1-0.1-0.1-0.1-0.2-0.1c-1.5-0.3-2.9-0.7-4.4-1    c-0.7-0.1-1.2,0.6-0.9,1.3c0.2,0.4,0.5,0.7,1,0.6c1.1-0.1,2.1-0.2,3.2-0.3C123.7,64.6,124.1,64.4,124.5,64.3z M40.1,132    c-0.6,0.6-1.1,1.1-1.6,1.7c0.8,0.7,1.5,1.4,2.3,2.1c0.5-0.6,1-1.2,1.5-1.9C41.5,133.2,40.8,132.6,40.1,132z M113.4,27.3    c1.2-0.1,2.2-0.6,3-1.4c0.1-0.1,0-0.5-0.1-0.5c-0.4-0.1-0.7-0.2-1.1-0.1c-0.7,0.1-1.5,0.2-2.2,0.4c-0.4,0.1-0.8,0.2-1.1,0.4    c-0.4,0.3-0.4,0.6,0,1C112.3,27.4,112.9,27.4,113.4,27.3z M121.9,59.3c0.7-0.2,1.4-0.4,2-0.7c0.3-0.1,0.5-0.4,0.1-0.6    c-0.8-0.5-1.7-0.9-2.5-1.2c-0.4-0.2-0.8,0-0.9,0.4C120.2,58.5,120.6,59.2,121.9,59.3z M114.4,31.8c0.5-0.2,0.8-0.3,1.1-0.4    c0.4-0.2,0.4-0.7,0.1-1c-0.5-0.4-1.1-0.9-1.7-1.2c-0.5-0.3-1.1,0-1.4,0.4c-0.3,0.4-0.2,1,0.3,1.3    C113.2,31.3,113.9,31.6,114.4,31.8z M59.5,75.4c0,0.1-0.1,0.2-0.1,0.3c0.8,0.5,1.5,1.1,2.3,1.5c0.7,0.3,1.5,0.4,2.2-0.2    c0.2-0.2,0.4-0.6,0.4-0.8c0-0.2-0.4-0.5-0.7-0.5C62.3,75.6,60.9,75.5,59.5,75.4z M100.4,86.1c-0.3,0-0.6,0.1-1,0.2    c-0.5,0.1-0.7,0.5-0.6,1c0.2,0.8,0.5,1.5,0.8,2.3c0.1,0.2,0.3,0.3,0.4,0.3c0.1,0,0.3-0.2,0.3-0.4c0.2-0.8,0.5-1.6,0.7-2.4    C101.3,86.6,100.9,86.2,100.4,86.1z M61.6,92.8c0,1,0.4,1.2,1.2,0.8c0.6-0.4,1.2-0.8,1.8-1.3c0.1-0.1,0.2-0.4,0.2-0.6    c-0.3-0.8-1.6-1.1-2.2-0.6C62,91.5,61.6,92.1,61.6,92.8z M112.6,75.5c-0.7,0.1-1.1,0.4-1.2,0.9c-0.2,0.7-0.1,1.5,0.1,2.2    c0.2,0.5,0.3,0.5,0.6,0.1c0.2-0.2,0.5-0.4,0.8-0.5c0.5-0.2,0.8-0.5,0.7-1c-0.1-0.5-0.3-1-0.5-1.4    C113.1,75.7,112.8,75.6,112.6,75.5z M68.3,91.9c1.1,0,1.2-0.1,1.5-1.2c0.1-0.2,0.1-0.5,0.2-0.8c0.1-0.5,0.1-0.9-0.5-1.1    c-0.5-0.2-1.1,0-1.3,0.5c-0.3,0.6-0.5,1.3-0.8,2c-0.1,0.3,0,0.6,0.4,0.5C68,91.9,68.2,91.9,68.3,91.9z M83.6,91.9    c-0.8,0-1.4,0.4-1.2,1c0.2,0.8,0.5,1.5,0.8,2.2c0.1,0.3,0.4,0.4,0.6,0c0.3-0.8,0.7-1.5,1-2.3c0.1-0.4-0.1-0.7-0.5-0.8    C84,91.9,83.8,91.9,83.6,91.9z M104.5,86.4c-0.4,0-1.1-0.1-1,0.6c0.1,0.9,0.5,1.7,0.8,2.5c0.2,0.4,0.5,0.4,0.7,0    c0.3-0.5,0.5-0.9,0.7-1.4C106.2,86.6,106,86.4,104.5,86.4z M73.7,61c0.1,1.1,0.5,2,1,2.8c0.5,0.8,1.1,0.7,1.6-0.1    c0.3-0.4,0.2-1-0.3-1.3c-0.6-0.5-1.2-0.9-1.9-1.3C74.1,61,73.9,61,73.7,61z M89.9,61.2c-0.9,0.4-1.8,0.9-2.5,1.7    c0,0.1-0.1,0.1-0.1,0.2c-0.2,0.5,0,0.9,0.5,1.3c0.3,0.3,0.6,0.2,0.9-0.1C89.5,63.5,89.8,62.4,89.9,61.2z M106.8,80.7    c0,0.1,0.1,0.1,0.1,0.2c0.9,0,1.8,0,2.7,0c0.4,0,0.7-0.4,0.6-0.8c-0.1-0.6-0.2-1.1-0.4-1.8C108.6,78.9,107.8,79.8,106.8,80.7z     M108.7,90.6c0.1-0.2,0.2-0.2,0.2-0.3c0.2-0.9,0.3-1.8,0.5-2.7c0-0.2-0.1-0.6-0.2-0.6c-0.4-0.1-0.9-0.2-1.3-0.1    c-0.4,0.1-0.6,0.5-0.5,1c0.1,0.4,0.3,0.9,0.5,1.3C108.1,89.6,108.4,90,108.7,90.6z M104,55.4c0.6,0.3,1.3,0.1,1.9-0.5    c0.5-0.6,0.6-1.2,0.2-1.9c-0.1-0.2-0.4-0.5-0.6-0.5c-0.2,0-0.5,0.3-0.6,0.6C104.5,53.8,104.3,54.6,104,55.4z M118.8,69.9    c0.2,0,0.4-0.1,0.6-0.1c0.6-0.1,0.7-0.3,0.3-0.7c-0.4-0.4-0.9-0.8-1.4-1.2c-0.3-0.2-0.6-0.2-0.9,0.2c-0.6,0.8-0.4,1.5,0.6,1.8    C118.3,69.8,118.6,69.8,118.8,69.9z M123.9,54c0-0.1,0-0.2,0-0.2c-0.9-0.2-1.7-0.4-2.6-0.5c-0.5,0-0.7,0.4-0.4,0.8    c0.2,0.3,0.6,0.5,0.9,0.5C122.5,54.7,123.2,54.4,123.9,54z M71.1,91.9c0.5-0.4,0.8-0.6,1.2-0.9c1-0.6,0.9-0.9-0.1-1.5    c-0.1,0-0.2-0.1-0.2-0.1c-0.3-0.2-0.6-0.1-0.7,0.3C71,90.3,71,91,71.1,91.9z M72.9,96.9c0.6-0.2,1.1-0.3,1.7-0.6    c0.2-0.1,0.3-0.4,0.3-0.6c0-0.1-0.2-0.3-0.4-0.4c-0.4-0.2-1.7,0.2-2,0.6c-0.1,0.2-0.2,0.5-0.1,0.7C72.5,96.7,72.8,96.8,72.9,96.9z     M88.3,51.9c0.1,0,0.1-0.1,0.2-0.1c-0.2-0.8-0.3-1.6-0.5-2.5c0-0.2-0.2-0.4-0.4-0.4c-0.2,0-0.4,0.2-0.5,0.3    c-0.1,0.2-0.2,0.5-0.1,0.7c0.3,0.6,0.7,1.2,1,1.7C88.1,51.7,88.2,51.8,88.3,51.9z M86.5,48.7c0.5,0,0.8-0.3,0.8-0.8    c0-0.6-0.3-1-0.7-1c-0.5,0-0.9,0.5-0.9,0.9C85.6,48.3,86,48.7,86.5,48.7z M68,97.2c2,0.2,3.3-0.8,3-1.9c-0.4,0.3-0.8,0.7-1.3,1    C69.1,96.7,68.6,96.9,68,97.2z M77.1,94.1C77.1,94,77.1,94,77.1,94.1c0.2-0.1,0.4,0,0.5-0.1c0.4-0.1,0.6-0.3,0.5-0.7    c-0.1-0.2-0.3-0.6-0.4-0.6c-0.3,0-0.7,0.2-0.9,0.4c-0.2,0.2-0.2,0.5-0.4,0.8C76.6,93.9,76.9,94,77.1,94.1z M39.1,76.2    c0.3,0.3,0.6,0.6,0.9,0.8c0.4,0.3,0.7,0.1,0.7-0.3c0-0.2-0.1-0.6-0.2-0.7C40,75.8,39.6,75.9,39.1,76.2z"/>
		<path class="st1" d="M91.9,33.9c0.1,1.6-0.3,3.1-1.1,4.4c-1.1,1.7-1.1,3.3-0.5,5.2c0.4,1.2,0.6,2.5,0.8,3.7c0.4,2.2,0.7,4.5,1,6.7    c0.3,2.1,0.8,4.3,1.6,6.3c0.2,0.5,0.4,0.9,0.6,1.4c0.7,1.3,1.8,1.9,3.2,2.1c0.5,0.1,1,0.2,1.3,0.5c0.2,0.2,0.5,0.6,0.5,0.8    c0,0.2-0.4,0.6-0.6,0.7c-0.6,0.1-1.3,0.1-2,0c-2.4-0.5-3.9-2.1-5-4.2c-1-1.8-1.4-3.8-1.7-5.8c-0.4-3-1.2-5.9-2.4-8.7    c-0.4-0.8-0.8-1-1.6-0.7c-0.6,0.3-1.1,0.7-1.6,1.1c-0.7,0.6-1.5,0.9-2.4,0.9c-1.3,0.1-2.6,0.2-3.9,0.3c-0.9,0.1-1.3-0.1-1.7-0.9    c-0.7-1.4-1.7-2.6-2.9-3.5c-1.1-0.9-2.9-0.9-3.5,0.8c-0.4,1-0.7,2.2-0.8,3.3c-0.3,2.6-0.4,5.2-0.7,7.7c-0.5,3.3-1.9,6.1-4.6,8    c-0.7,0.5-1.6,0.8-2.4,1c-0.4,0.1-1-0.1-1.4-0.3c-1.3-0.7-1.9-2.4-1.4-3.8c0.3-1,1.2-1.3,2.1-0.6c0.1,0.1,0.2,0.2,0.2,0.2    c0.9,0.8,1.8,0.8,2.7,0c1-0.9,1.5-2.1,1.8-3.4c0.5-2.2,0.9-4.4,1.4-6.6c0.6-2.6,1-5.3,1.7-7.9c0.4-1.5,0.3-2.9-0.5-4.2    c-0.5-0.9-1-1.7-1.5-2.6c-1.3-2.3-1-4.5,0.5-6.5c0.9-1.3,2.1-2.3,3.4-3.1c1.8-1.1,3-2.6,3.8-4.6c0.3-0.8,0.8-1.6,1.4-2.3    c1.9-2.2,4.6-2.1,6.4,0.2c1.1,1.4,2,3,2.9,4.5c0.5,0.8,1.1,1.4,1.9,1.7c0.7,0.3,1.5,0.7,2.2,0.9c1.8,0.7,2.7,2.1,2.9,3.9    C91.8,31.6,91.8,32.7,91.9,33.9z M77.3,35.3c-0.2-0.3-0.3-0.5-0.4-0.8c-1.3-2.2-4.1-2.6-5.9-0.8c-1.2,1.3-1.4,3.5,0.8,4.4    c0.7,0.3,1.6,0.4,2.4,0.5c0.3,0,0.6,0,0.8,0c0,0.1,0,0.1,0.1,0.2c-0.1,0.2-0.3,0.3-0.4,0.5c-0.9,1.1-1.2,2.8-0.5,3.9    c0.8,1.2,1.8,2.1,3.2,2.7c2.4,1,6.2-0.2,7.8-1.9c0.9-1,1.2-2,0.8-3.3c-0.1-0.4-0.2-0.8-0.1-1.2c0.1-0.8,0.8-1.1,1.5-1.4    c0.6-0.3,1.3-0.6,1.9-0.9c0.6-0.3,0.8-0.8,0.8-1.5c0-2.3-1.3-3.5-3.6-3.3c-0.1,0-0.2,0-0.3,0c-1,0.1-1.6,0.6-1.9,1.5    c-0.1,0.3-0.2,0.6-0.3,0.8c-0.4,0.7-0.7,0.8-1.5,0.5c-0.5-0.2-0.9-0.5-1.4-0.6c-1.1-0.4-2.1-0.4-3,0.3    C77.7,35.1,77.5,35.2,77.3,35.3z M75.2,29.2c3.6,0.6,7.2,0.6,10.8,0.3C82.4,28.7,78.8,28.6,75.2,29.2z"/>
		<path class="st2" d="M25.8,85.6c0.2-0.1,0.4-0.2,0.6-0.3c2.4-1,4.9-2,7.3-3c0.5-0.2,1-0.6,1.4-1c0.6-0.6,0.5-1.2-0.3-1.5    c-1.3-0.6-2.6-1.2-3.9-1.5c-2.3-0.6-4.7-1.1-7.1-1.7c-0.7-0.1-1.3-0.2-2-0.3c-0.2,0-0.4-0.2-0.6-0.3c0-0.1,0-0.1,0-0.2    c0.2,0,0.4-0.1,0.6-0.1c2.2,0.1,4.3,0.1,6.5,0.2c1.8,0,3.5,0,5.3,0c0.2,0,0.4-0.1,0.6-0.1c0.4-0.2,0.6-0.5,0.3-0.9    c-0.5-0.6-1-1.2-1.6-1.7c-4.1-3.5-8.3-7-12.5-10.5c-1.1-0.9-2.1-1.9-2.7-3.2c-0.2-0.4-0.1-0.9-0.2-1.3c0.4,0.2,0.8,0.2,1.1,0.5    c1.2,1,2.3,2.1,3.5,3.1c2.4,2.1,4.8,4.3,7.2,6.4c0.9,0.8,2,1.3,3.2,1.5c0.7,0.1,1.4,0,2-0.5c1.4-1,2.2-2.4,2.1-4.2    c0-0.2,0-0.4,0.1-0.8c0.4,0.3,0.7,0.5,0.9,0.7c0.9,1,1.2,2.2,1.4,3.4c0.3,1.4,0.5,2.8,1.2,4c0.6,1,1.2,1.2,2.3,1.1    c1.5-0.2,2.6-0.9,2.9-2.6c0.1-0.4,0.4-0.9,0.7-1c0.4-0.2,0.6,0.4,0.9,0.7c0.8,1.2,1.6,2.4,2.4,3.6c0.6,0.9,0.5,1.1-0.5,1.4    c-2.6,0.7-5.2,0.5-7.8-0.3c-0.8-0.2-1.7-0.4-2.5-0.5c-0.9-0.1-1.4,0.4-1.2,1.3c0.2,0.8,0.7,1.3,1.3,1.8c3.3,2.5,6.9,4.1,10.9,5    c0.2,0,0.4,0.1,0.6,0.3c-0.4,0.1-0.9,0.2-1.3,0.3c-1.5,0.2-3,0.5-4.4,1.3c-1.4,0.8-2.7,1.8-3.4,3.3c0,0.1-0.1,0.2-0.1,0.2    c-0.2,0.1-0.4,0.2-0.6,0.3c-0.1-0.2-0.2-0.4-0.2-0.6c0-0.3,0.2-0.6,0.2-0.8c0.1-0.3,0.2-0.7,0.3-1c0.2-1.6-1-2.7-2.6-2.4    c-2.4,0.4-4.7,1-7.1,1.5c-1.4,0.3-2.7,0.6-4.1,0.9c-0.4,0.1-0.8-0.1-1.2-0.1C25.8,85.8,25.8,85.7,25.8,85.6z"/>
		<path class="st3" d="M33,134.1c-2,0.2-3.8,0.3-5.7,0.4c0,0.3,0,0.5,0,0.8c2.3,0,4.7,0,7,0c0,0.7,0,1.4,0,2.1c-1.1,0-2.2,0-3.2,0    c0,0.1,0,0.1,0,0.2c1.3,0.5,2.6,1,4,1.6c-0.4,0.7-0.8,1.4-1.2,2.1c-0.4-0.2-0.7-0.3-1.1-0.4c0,2.8,0,5.6,0,8.4c-0.7,0-1.4,0-2.2,0    c0-0.2,0-0.4-0.1-0.7c-2.9,0-5.8,0-8.7,0c0,0.2,0,0.4,0,0.6c-0.7,0-1.4,0-2.2,0c0-2.7,0-5.4,0-8.1c-0.1,0-0.1-0.1-0.2,0    c-0.8,0.3-0.8,0.3-1.2-0.5c-0.2-0.4-0.4-0.8-0.7-1.2c0,0,0,0,0,0c1.6-0.6,3.3-1.2,4.9-1.7c0-0.1,0-0.1,0-0.2c-1.5,0-2.9,0-4.4,0    c0-0.7,0-1.4,0-2.1c2.3,0,4.7,0,7,0c0-0.3,0-0.5,0-0.7c-1.7,0-3.3,0-5,0c-0.2-0.6-0.4-1.2-0.6-2c0.2,0,0.4,0,0.6,0    c3-0.1,6-0.2,9-0.3c0.9,0,1.7-0.1,2.6-0.2c0.3,0,0.5,0.1,0.6,0.4C32.4,133,32.7,133.5,33,134.1z M31.8,140.6c-1.5-1-3-1.9-4.6-2.9    c0,0.8,0,1.6,0,2.4c-0.8,0-1.5,0-2.2,0c0-0.6,0-1.2,0-1.7c-1.3,0.7-2.6,1.4-3.9,2.2C24.7,140.6,28.3,140.6,31.8,140.6z     M21.8,146.6c2.9,0,5.8,0,8.7,0c0-0.3,0-0.6,0-1c-2.9,0-5.8,0-8.7,0C21.8,146,21.8,146.3,21.8,146.6z M21.8,143.6    c2.9,0,5.8,0,8.7,0c0-0.4,0-0.7,0-1c-2.9,0-5.8,0-8.7,0C21.8,143,21.8,143.3,21.8,143.6z"/>
		<path class="st2" d="M96.3,142.1c-0.1-0.7-0.2-1.3-0.4-1.9c0.4-0.4,1.1,0.1,1.4-0.6c0.2-0.5,0.5-0.9,0.8-1.3    c-0.9-0.7-1.7-1.4-2.6-2.1c0.6-1.1,1.1-1.6,1.6-1.5c0.5-0.9,0.9-1.8,1.4-2.7c0.6,0.3,1.2,0.5,1.9,0.8c-0.6,1.1-1.2,2.1-1.7,3.1    c0.1,0.1,0.3,0.2,0.5,0.4c0.3-0.6,0.7-1.2,0.9-1.9c0.1-0.3,0.3-0.4,0.6-0.3c0.5,0.2,0.9,0.4,1.5,0.7c-0.6,1-1.1,2-1.7,3.1    c0.5-0.2,0.9-0.4,1.3-0.6c0.3,0.8,0.5,1.6,0.8,2.4c0,0,0,0,0.1,0c0-2.1,0-4.1,0-6.3c0.8,0,1.5,0,2.2,0c0.9,0,0.9,0,1.2-0.9    c0.1-0.2,0.1-0.4,0.2-0.7c0.7,0.2,1.5,0.3,2.2,0.5c-0.1,0.4-0.2,0.7-0.3,1c1.5,0,2.9,0,4.4,0c0,3.3,0,6.6,0,9.9c-1,0-2.1,0-3.3,0    c0.3,0.5,0.6,1,0.9,1.5c-0.6,0.4-1.3,0.7-1.9,1.1c-0.5-0.7-0.9-1.4-1.4-2.2c0.2-0.1,0.3-0.2,0.6-0.4c-1.6,0-3.2,0-4.8,0    c0-0.6,0-1.2,0-1.9c-0.5,0.2-1,0.4-1.4,0.6c-0.4-0.8-0.4-0.8-1.1-0.5c0,0.4,0,0.8,0,1.3c0.5-0.1,0.9-0.3,1.4-0.4    c0.3,1.1,0.7,2.1,1,3.2c0.1-0.5,0.2-1,0.3-1.5c0.6,0.1,1.1,0.2,1.7,0.4c0.1,0,0.1,0.2,0.1,0.4c-0.2,1.3-0.5,2.7-1,3.9    c-0.6-0.3-1.3-0.6-1.9-1c0.2-0.6,0.4-1.2,0.7-1.9c-0.6,0.2-1.2,0.4-1.8,0.5c-0.2-0.8-0.3-1.5-0.5-2.3c0,0-0.1,0-0.1,0    c0,1.7,0,3.3,0,5c-0.7,0-1.3,0-2,0c0-1.6,0-3.2,0-4.8c0,0,0,0-0.1,0c-0.2,1-0.5,2-0.7,3c-0.6-0.2-1.1-0.3-1.7-0.5    c0.3-1.4,0.5-2.8,0.8-4.2c0.6,0.1,1.1,0.2,1.7,0.3c0-0.5,0-0.8,0-1.3C97.6,142,97,142.1,96.3,142.1z M109.2,139.5    c0.4,0.3,0.8,0.7,1.2,1c-0.3,0.4-0.6,0.7-0.9,1.1c0.4,0,0.8,0,1.2,0c0-1.6,0-3.2,0-4.8C110.2,137.6,109.7,138.5,109.2,139.5z     M106.6,139.7c-0.2-0.2-0.5-0.3-0.5-0.3c-0.4,0.3-0.6-0.1-0.9-0.3c-0.1-0.1-0.2-0.1-0.3-0.1c0,0.9,0,1.7,0,2.6c0.3,0,0.7,0,1.1,0    c-0.3-0.4-0.5-0.7-0.7-1C105.7,140.3,106.1,140,106.6,139.7z M110.7,135.5c-0.9,0-1.8,0-2.7,0c0,0.2,0,0.5,0,0.7    c0.9,0,1.8,0,2.7,0C110.7,135.9,110.7,135.7,110.7,135.5z M106.4,135.4c-0.5,0-0.9,0-1.2,0c-0.1,0-0.3,0.2-0.3,0.3    c0,0.7,0,1.3,0,2c0.1,0,0.1,0,0.2,0.1C105.5,137,105.9,136.3,106.4,135.4z M106.8,141.5c0.7,0,1.3,0,2,0c-0.3-0.3-0.6-0.6-0.9-0.8    C107.5,141,107.2,141.3,106.8,141.5z M107,137.8c0,0,0,0.1,0,0.1c0.3,0.2,0.6,0.4,0.9,0.6c0.2-0.3,0.3-0.5,0.5-0.7    C107.9,137.8,107.5,137.8,107,137.8z M100.6,139.6c-0.1-0.4-0.2-0.7-0.4-1.1c-0.3,0.4-0.5,0.8-0.7,1.2    C100,139.7,100.3,139.6,100.6,139.6z"/>
		<path class="st2" d="M90.8,118.6c1,0.4,1.7,1.1,1.9,2.2c0.1,0.7,0.1,1.3,0.2,2c0,0.8,0,1.5,0.1,2.3c0,0.4,0.3,0.8,0.5,1.2    c0.1,0.2,0.2,0.3,0.3,0.6c-1.4,0-2.7,0-4.2,0c-0.1-0.8-0.2-1.7-0.3-2.5c-0.1-0.8,0-1.6-0.1-2.5c-0.1-1.2-0.7-1.7-1.9-1.7    c-1.4,0-2.7,0-4.1,0c0,2.2,0,4.4,0,6.7c-1.2,0-2.3,0-3.5,0c0-5.7,0-11.5,0-17.2c0.1,0,0.3,0,0.4,0c2.6,0,5.2,0,7.9,0    c0.7,0,1.4,0.1,2,0.2c1.8,0.5,2.9,1.7,3.3,3.5c0.4,1.7,0.1,3.2-1.2,4.5C91.7,118.1,91.3,118.3,90.8,118.6z M83.1,112.6    c0,1.5,0,3,0,4.5c1.6,0,3.1,0,4.6,0c1,0,1.8-0.6,1.9-1.5c0.1-0.6,0-1.2-0.1-1.7c-0.2-0.7-0.6-1.2-1.4-1.2    C86.5,112.6,84.8,112.6,83.1,112.6z"/>
		<path class="st4" d="M50.1,109.5c0,5.7,0,11.5,0,17.2c-1.2,0-2.4,0-3.6,0c0-2.6,0-5.1,0-7.7c-0.7,0-1.3,0-1.9,0    c-1.4,0-2.8,0-4.2,0c-0.5,0-0.7,0.1-0.7,0.7c0,2.2,0,4.3,0,6.5c0,0.2,0,0.4,0,0.6c-1.2,0-2.4,0-3.6,0c0-5.7,0-11.5,0-17.2    c1.2,0,2.3,0,3.6,0c0,2.2,0,4.3,0,6.5c2.3,0,4.5,0,6.7,0c0-2.2,0-4.3,0-6.5C47.7,109.5,48.9,109.5,50.1,109.5z"/>
		<path class="st1" d="M89,25.7c-2.5,0.1-4.1-2.4-3.4-4.8c0.4-1.3,1.1-2.5,1.9-3.5c0.7-0.8,0.9-1.8,1.1-2.8c0.1-0.6,0.2-1.3,0.3-1.9    c0.3-1.6,1.3-2.7,2.6-3.4c1.2-0.7,1.5-1.6,1.7-2.8c0.2-1.4,0.6-2.7,1.1-4.1c0.3-0.9,1-1.6,2.1-1.7c1.5-0.1,3.1,0.9,2.3,3.2    c-0.3,1-0.8,1.9-1.4,2.8c-0.8,1.2-1,2.4-0.9,3.7c0.2,1.9-0.1,3.7-1.2,5.2c-1.1,1.6-1.5,3.3-1.8,5.1c-0.2,1-0.6,2.1-1,3    C91.6,25.1,90.5,25.7,89,25.7z"/>
		<path class="st1" d="M52.9,143.4c-0.4-0.4-0.7-0.8-1.1-1.2c0,1.1,0,2.2,0,3.4c-2.2,0-4.4,0-6.5,0c-0.2,1.2,0,1.5,1.1,1.5    c1.6,0,3.2-0.1,4.8-0.1c0.7,0,1-0.4,1.1-1c0-0.2,0-0.3,0.1-0.6c0.7,0.3,1.3,0.6,1.9,1c0.1,0,0.1,0.2,0.1,0.3    c0,0.1-0.1,0.3-0.1,0.4c-0.5,1.6-0.9,1.9-2.6,2c-2.2,0-4.4,0-6.6,0c-1.2,0-1.9-0.7-1.9-1.9c0-1.4,0-2.8,0-4.2c0-0.2,0-0.4,0-0.6    c-0.4,0.3-0.7,0.5-1.1,0.7c-0.4-0.6-0.9-1.2-1.3-1.7c0.9-0.7,1.7-1.4,2.6-2.1c0-0.1-0.1-0.1-0.1-0.2c-0.5,0-1.1,0-1.6,0    c0-0.7,0-1.4,0-2.1c0.9,0,1.8,0,2.7,0c0-0.5,0-0.9,0-1.4c-0.7,0-1.3,0-2,0c0-0.7,0-1.3,0-2c0.6,0,1.3,0,2,0c0-0.5,0-1,0-1.6    c0.7,0,1.4,0,2.2,0c0,0.5,0,1,0,1.5c0.9,0,1.8,0,2.7,0c0-0.5,0-1,0-1.5c0.7,0,1.4,0,2.1,0c0,0.5,0,1,0,1.5c0.8,0,1.5,0,2.2,0    c0,0.7,0,1.4,0,2.1c-0.6,0-1.1,0-1.7,0c-0.4,0-0.6,0.1-0.5,0.5c0,0.3,0,0.5,0,0.8c0.9,0,1.7,0,2.5,0c0.4,0,0.6,0.1,0.5,0.5    c0,0.5,0,1,0,1.6c-0.8,0-1.5,0-2.2,0c0,0.1-0.1,0.1-0.1,0.2c0.8,0.7,1.6,1.5,2.4,2.2C54.1,142,53.6,142.7,52.9,143.4z M50.6,140.5    c-0.2-0.4-0.4-0.8-0.7-1.1c-0.1-0.1-0.3-0.2-0.4-0.2c-1.1,0-2.2,0-3.3,0c-0.1,0-0.3,0-0.3,0.1c-0.3,0.4-0.5,0.8-0.8,1.2    C46.9,140.5,48.7,140.5,50.6,140.5z M49.7,143.6c0-0.4,0-0.7,0-1.1c-1.5,0-2.9,0-4.4,0c0,0.4,0,0.7,0,1.1    C46.8,143.6,48.2,143.6,49.7,143.6z M46.7,137c0.9,0,1.7,0,2.6,0c0-0.5,0-0.9,0-1.3c-0.9,0-1.7,0-2.6,0    C46.7,136.1,46.7,136.5,46.7,137z"/>
		<path class="st1" d="M54.9,4.2c0-0.8,0.3-1.5,0.9-2.1c0.8-0.8,1.7-0.8,2.5-0.1c1,0.9,1.5,2,2,3.2c0.3,0.7,0.6,1.5,0.9,2.2    c0.4,1,1.1,1.7,2.1,2.2c1.9,0.9,3.1,2.4,3.7,4.5c0.3,1.1,0.9,2,1.7,2.8c1.2,1.3,2.2,2.6,2.7,4.3c0.5,1.7-0.1,3.1-1.5,3.9    c-1.4,0.8-2.9,0.7-4.2-0.7c-1.2-1.2-1.9-2.8-2.4-4.4c-0.4-1.3-1-2.5-2-3.5c-1.3-1.3-1.8-3.1-2.3-4.8c-0.2-0.7-0.3-1.4-0.6-2    c-0.3-0.7-0.8-1.3-1.3-1.9c-0.6-0.9-1.3-1.8-2-2.7C55,5,55,4.5,54.9,4.2z"/>
		<path class="st5" d="M65.7,116.5c2.5,3.5,5,6.8,7.5,10.3c-1.6,0-3,0-4.5,0c-0.1,0-0.3-0.2-0.4-0.4c-1.6-2.2-3.2-4.5-4.8-6.8    c-0.1-0.1-0.2-0.2-0.3-0.4c-0.6,0.6-1.1,1.1-1.6,1.6c-0.1,0.1-0.1,0.4-0.1,0.6c0,1.7,0,3.5,0,5.3c-1.2,0-2.3,0-3.5,0    c0-5.7,0-11.5,0-17.2c1.1,0,2.3,0,3.5,0c0,2.3,0,4.6,0,7.1c0.8-0.8,1.5-1.6,2.2-2.3c1.4-1.5,2.8-3,4.3-4.5    c0.1-0.1,0.4-0.3,0.6-0.3c1.4,0,2.8,0,4.4,0C70.4,111.9,68,114.2,65.7,116.5z"/>
		<path class="st2" d="M100.3,109.5c1.2,0,2.4,0,3.7,0c0,0.2,0,0.4,0,0.6c0,3.4,0,6.8,0,10.3c0,0.5,0,1,0.1,1.5    c0.3,1.5,1.1,2.2,2.7,2.3c0.6,0,1.2,0,1.8-0.2c1.2-0.3,1.8-1.2,1.9-2.9c0.1-3.6,0-7.3,0-10.9c0-0.2,0-0.4,0-0.6c1.2,0,2.4,0,3.7,0    c0,0.1,0,0.3,0,0.4c0,3.6,0,7.3,0,10.9c0,1.3-0.2,2.5-0.8,3.6c-0.8,1.5-2.2,2.3-3.8,2.6c-2,0.4-3.9,0.4-5.8-0.4    c-1.9-0.7-3-2.2-3.3-4.2c-0.2-1.1-0.2-2.2-0.2-3.2c0-3,0-5.9,0-8.9C100.3,110.1,100.3,109.8,100.3,109.5z"/>
		<path class="st1" d="M132.9,32.2c-0.1,0.7-0.4,1.1-0.9,1.4c-1.6,0.8-3.2,0.7-4.7-0.1c-1.8-1-3.5-2.1-5.2-3.3    c-1.1-0.8-2.2-1.1-3.5-0.6c-0.6,0.2-1.3,0.3-1.9,0.4c-0.8,0-1.2-0.4-1.5-1c-0.2-0.7,0-1.2,0.6-1.6c1.2-0.8,1.9-1.9,1.7-3.4    c-0.1-0.6-0.2-1.1-0.3-1.7c-0.2-1.1-0.5-2.2-0.6-3.3c-0.3-3,1.9-4.8,4-4.8c0.1,0,0.1,0,0.3,0.1c-0.1,0.2-0.2,0.4-0.4,0.6    c-0.9,1-1,2.2-0.7,3.5c0.2,0.8,1.3,1.4,2.4,1.4c0.8,0,1.5-0.1,2.4-0.1c-0.2,0.3-0.3,0.4-0.4,0.6c-0.4,0.6-0.8,1.1-1.2,1.7    c-0.4,0.8-0.3,1.5,0.2,2.2c0.5,0.6,1.2,0.8,2,0.7c0.8-0.1,1.5-0.4,2.2-0.7c0.2-0.1,0.5-0.1,0.8-0.1c-0.2,0.3-0.3,0.5-0.5,0.8    c-0.4,0.6-0.9,1.1-1.2,1.7c-0.1,0.2-0.1,0.7,0,0.9c0.2,0.2,0.6,0.3,0.9,0.2c0.8-0.3,1.5-0.7,2.3-1c0.3-0.1,0.6-0.1,1-0.2    c-0.2,0.3-0.3,0.5-0.5,0.8c-0.5,0.9-1.1,1.7-1.4,2.6c-0.5,1.5,0.4,2.8,2.1,2.8C131.8,32.4,132.3,32.3,132.9,32.2z"/>
		<path class="st1" d="M132.9,135.2c-0.3,0.5-0.6,1-0.8,1.5c-0.2,0.4-0.3,0.7-0.9,0.3c0,1.9,0,3.7,0,5.5c-4.8,0-9.6,0-14.4,0    c0-1.7,0-3.4,0-5.2c-0.5,0.2-0.7,0-0.9-0.4c-0.2-0.5-0.5-0.9-0.8-1.4c3.1-0.9,6.1-2.1,8.8-3.7c2.5,1.9,5.5,2.5,8.4,3.3    c0.1,0,0.2,0,0.3,0.1C132.7,135.2,132.8,135.2,132.9,135.2z M117.9,136.8c4.2,0,8.3,0,12.5,0c-1-0.4-1.8-0.7-2.7-1    c0,0.2,0,0.4,0,0.6c-2.4,0-4.8,0-7.2,0c-0.2,0-0.3-0.2-0.5-0.4C119.3,136.3,118.7,136.5,117.9,136.8z M124.9,140.6    c0.5,0,0.9,0,1.4,0c-0.2-0.2-0.4-0.3-0.5-0.4c0.2-0.5,0.4-0.9,0.7-1.4c-0.6,0-1,0-1.5,0C124.9,139.4,124.9,140,124.9,140.6z     M129.1,140.6c0-0.6,0-1.2,0-1.8c-0.6,0-1.1,0-1.7,0c0.4,0.2,0.7,0.3,1.1,0.4c-0.2,0.5-0.4,0.9-0.6,1.4    C128.2,140.6,128.6,140.6,129.1,140.6z M122.8,138.8c-0.4,0-0.9,0-1.3,0c0.2,0.4,0.5,0.8,0.7,1.3c-0.3,0.2-0.5,0.4-0.8,0.6    c0.6,0,1,0,1.5,0C122.8,140,122.8,139.4,122.8,138.8z M118.9,138.8c0,0.7,0,1.3,0,1.8c0.4,0,0.8,0,1.3,0c-0.3-0.4-0.5-0.8-0.7-1.2    c0.3-0.2,0.6-0.4,1-0.6C119.9,138.8,119.4,138.8,118.9,138.8z M122.7,134.7c0.8,0,1.6,0,2.4,0    C123.6,133.9,124.2,133.9,122.7,134.7z"/>
		<path class="st1" d="M123.7,67.1c0.3,0.1,0.6,0.2,0.7,0.3c0.1,0.1-0.1,0.4-0.2,0.6c-0.2,0.3-0.5,0.6-0.8,0.9    c-0.4,0.4-0.3,0.7,0.1,1c0.6,0.4,1.3,0.8,1.9,1.3c0.8,0.7,0.5,1.6-0.5,1.9c-0.1,0-0.2,0-0.2,0c-0.2,0.1-0.4,0.1-0.6,0.2    c-0.5,0.2-0.7,0.6-0.8,1.1c-0.1,0.5,0.3,0.7,0.6,0.9c0.4,0.2,0.8,0.4,1.2,0.5c0.5,0.2,0.8,0.5,0.9,1.1c0,0.6-0.3,0.9-0.8,1.1    c-0.5,0.2-1.1,0.4-1.6,0.6c-0.4,0.2-0.8,0.4-0.9,0.9c0,0.5,0.3,0.8,0.8,1c0,0,0.1,0,0.1,0.1c0.4,0.1,0.9,0.3,0.8,0.9    c-0.1,0.6-0.5,0.9-1,1c-0.8,0.2-1.7,0.3-2.5,0.5c-1.3,0.3-1.9,1-1.9,2.4c-0.1,1.5,0.3,2.9,1.4,4.1c0.2,0.2,0.4,0.5,0.6,0.8    c0.2,0.4,0.1,0.7-0.4,0.8c-0.2,0-0.3,0-0.5-0.1c-2.2-0.7-3.7-2.7-3.9-5c-0.2-1.8,0-3.5,0.7-5.1c0.5-1.1,0.4-2.2,0.2-3.3    c-0.2-1,0.1-1.8,0.8-2.5c0.6-0.5,0.8-1.1,0.8-1.8c0-0.4,0.2-0.9,0.4-1.2c1.1-1.4,2.2-2.8,3.3-4.1    C122.7,67.6,123.3,67.4,123.7,67.1z"/>
		<path class="st5" d="M76.1,67.6c0-3.2,2.6-5.8,5.7-5.8c3.6,0,5.8,3.1,5.8,5.9c0,3-2.6,5.9-5.9,5.8C78.7,73.4,76,70.9,76.1,67.6z"/>
		<path class="st2" d="M90.9,142.8c0.8,0.9,1.8,1.8,2.8,2.9c-0.3,0.6-0.7,1.3-1.1,2c-1.5-1.2-2.6-2.6-3.6-4.4c0,0.3,0,0.5,0,0.7    c0,1.2,0,2.4-0.1,3.6c-0.1,1.3-0.7,1.7-2.1,1.8c-0.7,0-1.3-0.1-2.1-0.1c-0.1-0.7-0.3-1.4-0.4-2.2c0.7,0,1.3,0.1,1.9,0.1    c0.3,0,0.5-0.1,0.5-0.4c0-0.9,0-1.7,0-2.6c-1,0.8-2.1,1.6-3.2,2.4c-0.3-0.8-0.6-1.5-0.8-2.2c0-0.1,0.2-0.3,0.3-0.4    c1.1-0.8,2.3-1.6,3.4-2.4c0.2-0.1,0.4-0.5,0.4-0.7c0-1.4,0-2.8,0-4.2c-1.3,0-2.6,0-4,0c0-0.7,0-1.4,0-2.1c1.3,0,2.6,0,4,0    c0-0.9,0-1.7,0-2.5c0.7,0,1.4,0,2.2,0c0,0.8,0,1.6,0,2.5c0.6,0,1.1,0,1.8,0c-0.3-0.5-0.6-0.9-0.9-1.4c0.6-0.4,1.2-0.7,1.8-1.1    c0.4,0.6,0.7,1.2,1.1,1.8c-0.4,0.3-0.8,0.5-1.3,0.8c0.7,0,1.3,0,1.8,0c0,0.7,0,1.4,0,2.1c-1.4,0-2.9,0-4.4,0    c0.1,1.3-0.3,2.6,0.7,3.8c0.6-1,1.1-2,1.7-3.1c0.6,0.3,1.3,0.7,2,1.1C92.6,139.8,91.8,141.2,90.9,142.8z"/>
		<path class="st1" d="M26.4,33.1c-0.5-0.1-1-0.2-1.4-0.4c-0.2-0.1-0.2-0.5-0.3-0.7c0.2,0,0.5-0.1,0.6-0.1c0.6,0.2,1.1,0.1,1.6-0.2    c0.6-0.4,1.2-0.8,1.8-1.2c0.6-0.5,0.7-0.9,0.3-1.6c-0.2-0.5-0.6-0.9-0.9-1.3c-0.1-0.2-0.3-0.4-0.4-0.6c-0.1-0.3-0.1-0.6-0.2-0.9    c0.3-0.1,0.6-0.1,0.8-0.2c0.3,0,0.5,0,0.8,0c1-0.2,1.5-1.1,1.2-2.1c0-0.1-0.1-0.2-0.1-0.3c-0.5-1.3-0.3-1.8,1-2.4    c0.8-0.4,1.5-0.9,1.6-1.8c0.1-0.7-0.2-1.4-0.3-2.1c-0.1-0.4-0.4-0.8-0.6-1.2c-0.2-0.4-0.3-0.8,0.1-1.1c0.3-0.4,0.7-0.3,1.1-0.2    c0.9,0.3,1.6,1,2,1.8c1.2,1.9,1.8,4.1,1.6,6.4c0,0.1,0,0.2-0.1,0.3c-0.3,1-0.4,1.9-0.3,3c0.1,0.6-0.2,1.3-0.5,1.9    c-0.7,1.3-1.9,2.4-3.2,3.1C30.9,32.2,28,33,26.4,33.1z"/>
		<path class="st1" d="M62.6,99c1,0.4,1.9-0.1,2.9-0.5c0.4-0.2,1-0.2,1.4-0.1c1.7,0.5,3.5,0.8,5.3,0.4c1.8-0.4,3.4,0.2,5,0.9    c1.3,0.5,2.2,1.5,2.5,2.9c0.1,0.4,0.2,0.8-0.2,1c-0.4,0.2-0.7-0.1-0.9-0.4c-1.1-1.3-4-2.3-5.4-1.7c-0.8,0.4-1.4,0.9-1.7,1.7    c-0.2,0.4-0.4,0.9-0.7,1.2c-0.6,0.6-1.3,0.5-1.6-0.3c-0.1-0.1-0.1-0.3-0.2-0.4c-0.3-0.6-1-0.8-1.5-0.3c-0.3,0.3-0.6,0.7-0.9,1    c-0.4,0.6-0.9,0.7-1.6,0.6c-0.6-0.1-0.8-0.5-0.9-1.1c0-0.2-0.1-0.4-0.2-0.6c-0.3-0.8-1-1-1.7-0.4c-0.3,0.3-0.5,0.6-0.8,0.9    c-0.6,0.6-1.3,0.5-1.8-0.3c-0.3-0.4-0.5-0.9-0.7-1.3c-0.4-0.6-0.8-0.7-1.4-0.4c-0.3,0.1-0.6,0.3-1,0.4c-0.1,0-0.4,0-0.4,0    c-0.1-0.1-0.1-0.4,0-0.5c0.2-0.3,0.4-0.6,0.7-0.7c1.5-1,3.1-1.5,4.8-1.9C61.8,99.2,62.2,99.1,62.6,99z"/>
		<path class="st1" d="M73.1,57.5c0.4-2.5,0.9-4.9,2.5-6.8c0.9-1.1,2.1-1.6,3.4-1.7c1.8-0.2,3.6-0.4,5.4-0.2c1,0.1,1.8,0.4,2.2,1.5    c0.5,1.3,1.1,2.5,1.7,3.7c0,0.1,0,0.1,0.1,0.2c0.2,0.5,0.4,1-0.1,1.3c-0.4,0.3-1,0.3-1.5,0c-1.1-0.8-2.1-1-3.3-0.3    c-0.9,0.5-1.9,0.4-2.9-0.1c-1-0.5-1.9-0.3-2.8,0.2c-0.9,0.5-1.7,1.2-2.6,1.9c-0.3,0.2-0.5,0.5-0.8,0.8c-0.3,0.3-0.6,0.6-1,0.3    C73.3,58.1,73.2,57.7,73.1,57.5z"/>
		<path class="st2" d="M70.6,146.9c-0.1,0.6,0,0.9,0.5,1c0.8,0.2,1,0,1.4-0.8c0.6,0.3,1.1,0.5,1.7,0.8c-0.3,1.2-0.3,1.3-1.6,1.4    c-1,0-2,0-2.9-0.1c-0.9-0.1-1.2-0.5-1.2-1.4c0-0.3,0-0.5,0-0.8c-0.4,0-0.7,0-1,0c-0.1,0-0.3,0.1-0.3,0.2c-0.3,1-1.2,1.4-2,1.8    c-0.7,0.3-1.4,0.4-2.1,0.6c-0.4-0.6-0.7-1.1-1-1.7c1-0.2,2-0.5,3-0.7c0-0.1,0-0.1,0-0.2c-0.6,0-1.2,0-1.9,0c0-2.3,0-4.5,0-6.7    c3.2,0,6.4,0,9.6,0c0,2.2,0,4.4,0,6.7C72,146.9,71.3,146.9,70.6,146.9z M70.7,141.7c0,0-0.1-0.1-0.1-0.1c-1.7,0-3.4,0-5.1,0    c-0.1,0-0.2,0.1-0.3,0.2c0.1,0.1,0.2,0.2,0.3,0.2c1.6,0,3.3,0,4.9,0C70.5,142,70.6,141.8,70.7,141.7z M65.2,145    c0,0.1-0.1,0.1-0.1,0.2c0.1,0.1,0.3,0.2,0.4,0.2c1.6,0,3.2,0,4.8,0c0.4,0,0.4-0.2,0.3-0.4C68.8,145,67,145,65.2,145z M67.9,143.6    c0.8,0,1.6,0,2.4,0c0.1,0,0.2-0.1,0.4-0.2c-0.1-0.1-0.2-0.2-0.3-0.2c-1.6,0-3.2,0-4.8,0c-0.1,0-0.2,0.1-0.3,0.2    c0.1,0.1,0.2,0.2,0.4,0.2C66.3,143.7,67.1,143.6,67.9,143.6z"/>
		<path class="st1" d="M98.6,41.9c-1.3,0-2.6,0-3.9,0c-0.8,0-1.7,0.1-2.5,0.1c-0.3,0-0.7,0-1-0.1c-0.7-0.3-0.8-1.3-0.2-1.6    c0.9-0.4,1.2-1.2,1.4-2c0.5-2.3,0.8-4.6,0.7-6.9c0-0.6,0.2-1.1,0.6-1.6c0.6-0.7,1.2-1.5,1.9-2.3c0.7-0.8,1.7-1.3,2.8-1.4    c0.6-0.1,1,0.5,0.7,1.1c-0.4,0.7-1,1.3-1.4,2c-0.5,0.8-1,1.6-1.4,2.4c-0.5,1.1,0,2,1.1,2.2c0.6,0.1,1.2,0.2,1.9,0.3    c0.9,0.2,1.1,0.9,0.5,1.5c-0.5,0.5-1.1,0.9-1.6,1.4c-0.4,0.4-0.7,0.9-1,1.4c-0.2,0.5-0.1,1,0.3,1.4c0.3,0.3,0.5,0.5,0.8,0.8    C98.7,41,98.8,41.3,98.6,41.9z"/>
		<path class="st6" d="M117.7,149.4c0-2.2,0-4.3,0-6.5c4.3,0,8.5,0,12.9,0c0,2.1,0,4.3,0,6.5c-0.6,0-1.3,0.2-1.8,0    c-1.4-0.7-2.8-0.2-4.2-0.3c-1.5-0.1-3,0-4.4,0c-0.1,0-0.2,0.1-0.3,0.2c-0.1,0.1-0.2,0.1-0.2,0.1    C118.9,149.5,118.3,149.4,117.7,149.4z M119.8,147.2c2.9,0,5.6,0,8.4,0c0.1,0,0.2-0.1,0.3-0.2c-0.1-0.1-0.2-0.2-0.3-0.2    c-2.8,0-5.6,0-8.4,0C119.8,146.9,119.8,147.1,119.8,147.2z M119.8,144.7c0,0.2,0,0.3,0,0.5c0.2,0,0.4,0,0.5,0c2.6,0,5.2,0,7.8,0    c0.1,0,0.2-0.1,0.3-0.2c-0.1-0.1-0.2-0.3-0.3-0.3c-0.6,0-1.2,0-1.7,0C124.3,144.7,122.1,144.7,119.8,144.7z"/>
		<path class="st1" d="M47.3,56.2c-0.2,0.7-0.3,1.3-0.6,1.7c-0.6,1-1.3,1.9-2,2.8c-1,1.2-2.3,1.3-3.6,0.4c-1.6-1.2-2.4-2.8-2.9-4.6    c-0.1-0.4-0.2-0.8-0.2-1.1c-0.2-0.9,0.1-1.5,1-1.7c0.9-0.2,1.9-0.3,2.8-0.5c0.9-0.1,1.7-0.3,2.6-0.5c0.4-0.1,0.6,0,0.9,0.3    c0.4,0.5,0.9,1,1.2,1.6C46.8,55.1,47,55.7,47.3,56.2z"/>
		<path class="st1" d="M76.5,148.1c-0.1-0.7-0.2-1.3-0.4-1.9c-0.1-0.3,0.1-0.4,0.4-0.4c0.5-0.1,1.1-0.1,1.6-0.3    c0.1,0,0.3-0.2,0.3-0.4c0-1.4,0-2.8,0-4.3c-0.6,0-1.2,0-1.9,0c0-0.7,0-1.4,0-2.1c0.6,0,1.2,0,1.8,0c0-1.2,0-2.3,0-3.5    c-0.6,0-1.3,0-1.9,0c0-0.7,0-1.4,0-2.1c2,0,4.1,0,6.1,0c0,0.7,0,1.3,0,2c-0.6,0-1.3,0-2,0c0,1.2,0,2.3,0,3.5c0.6,0,1.2,0,1.8,0    c0,0.7,0,1.4,0,2.1c-0.6,0-1.2,0-1.8,0c0,1.4,0,2.8,0,4.2c0.6-0.1,1.1-0.2,1.7-0.4c0.1,0.7,0.2,1.3,0.2,2.1    C80.6,147.2,78.6,147.6,76.5,148.1z"/>
		<path class="st7" d="M67.8,137.6c-0.5,0-0.9,0-1.4,0c0,0.2,0,0.4,0,0.7c0.4,0,0.8,0,1.2,0c0,0.5,0,1,0,1.5c-1.8,0-3.6,0-5.4,0    c0-2.5,0-5,0-7.5c1.8,0,3.6,0,5.4,0c0,0.5,0,1,0,1.5c-0.4,0-0.9,0-1.3,0c0,0.3,0,0.5,0,0.7c1.1,0.2,1.3,0.1,1.7-0.8    c0.2-0.3,0.3-0.7,0.4-1c0.1-0.5,0.3-0.5,0.8-0.4c0.9,0.2,0.9,0.2,1.1,0.6c1.3,0,2.5,0,3.8,0c0,0.5,0,0.9,0,1.4c-1.4,0-2.7,0-4.1,0    c-0.3,0-0.5,0-0.5,0.4c1.3,0,2.6,0,3.9,0c0,0.4,0,0.8,0,1.2c-1.4,0-2.8,0-4.2,0c0-0.2,0-0.4-0.1-0.6c-0.2,0.2-0.3,0.4-0.5,0.6    c-0.3-0.2-0.5-0.5-0.9-0.7C67.8,135.9,67.8,136.7,67.8,137.6z M64.1,135.9c0,0.1-0.1,0.1-0.1,0.2c0.1,0.1,0.2,0.3,0.4,0.3    c0.6,0,1.3,0,1.9,0c0.1-0.3,0.1-0.5-0.3-0.5C65.3,135.9,64.7,135.9,64.1,135.9z M64.8,138.3c0-0.2,0-0.4,0-0.6c-0.3,0-0.5,0-0.8,0    c0,0.2,0,0.4,0,0.6C64.3,138.3,64.5,138.3,64.8,138.3z M64,134.5c0.2,0,0.4,0,0.7,0c0-0.3,0-0.5,0-0.7c-0.2,0-0.4,0-0.7,0    C64,134,64,134.2,64,134.5z"/>
		<path class="st6" d="M57,137.1c0-0.7,0-1.3,0-1.9c0.5,0,1.1,0,1.6,0c0-1.1,0-2.1,0-3.1c0.7,0,1.3,0,2,0c0,1,0,2,0,3.1    c0.5,0,0.9,0,1.4,0c0,0.7,0,1.3,0,1.9c-0.4,0-0.8,0-1.3,0c0,0.7-0.2,1.2,0.4,1.8c0.5,0.5,0.9,1.1,1.4,1.7c0.2,0.3,0.2,0.4,0,0.7    c-0.3,0.4-0.6,0.9-1,1.4c-0.3-0.5-0.5-0.9-0.7-1.3c0,0-0.1,0-0.1,0c0,2.7,0,5.3,0,8c-0.7,0-1.3,0-2,0c0-2.1,0-4.3,0-6.4    c0,0-0.1,0-0.1,0c-0.2,0.6-0.5,1.3-0.8,2c-0.4-0.5-0.7-0.9-1.1-1.4c-0.1-0.1,0-0.3,0-0.4c0.6-1.9,1.2-3.9,1.9-5.8    c0-0.1,0-0.2,0-0.3C58.1,137.1,57.5,137.1,57,137.1z"/>
		<path class="st1" d="M108.4,61.9c-2-0.1-3.9-0.6-5.8-1.3c-0.8-0.3-1-0.6-0.7-1.5c0.4-1.3,1.4-2,2.5-2.5c1.2-0.5,2.6-0.7,3.9-0.6    c1.2,0.1,2.4,0.3,3.6,0.5c1.3,0.2,1.6,0.9,1,2c-0.4,0.8-0.9,1.6-1.5,2.3C110.6,61.9,109.5,61.9,108.4,61.9z"/>
		<path class="st1" d="M95.2,42.5c1,0.1,2,0.1,3,0.3c1,0.3,1.9,0.8,2.7,1.4c0.8,0.5,0.8,1.1,0.5,1.9c-0.2,0.6-0.4,1.2-0.6,1.8    c-0.6,1.2-1.4,1.5-2.6,0.9c-0.6-0.3-1.2-0.8-1.7-1.2c-0.5-0.4-1-0.4-1.5,0c-0.2,0.2-0.5,0.3-0.7,0.4c-0.8,0.4-1.6,0.2-2-0.7    c-0.5-1.2-0.7-2.4-0.5-3.6c0.2-0.9,0.5-1.2,1.4-1.2C94,42.6,94.6,42.6,95.2,42.5C95.2,42.6,95.2,42.5,95.2,42.5z"/>
		<path class="st1" d="M100.2,42.4c0.4-0.1,0.8-0.1,1.3-0.2c1.6-0.2,3.1-0.5,4.7-0.6c0.6-0.1,1.3,0,2,0.2c0.8,0.2,1.1,0.8,1.1,1.6    c-0.1,0.9-0.2,1.8-0.4,2.7c-0.2,0.8-0.7,1.3-1.3,1.7c-0.6,0.5-1.3,0.9-1.9,1.4c-0.6,0.5-1.1,0.5-1.7,0.2c-0.2-0.1-0.4-0.3-0.6-0.3    c-0.4-0.1-0.8,0-1.3,0c-0.3,0-0.5-0.1-0.7-0.2c0.1-0.2,0.1-0.4,0.2-0.5c0.9-1.1,1.2-2.3,1-3.7c-0.1-0.8-0.8-1.2-1.4-1.5    c-0.3-0.2-0.7-0.3-1-0.5C100.2,42.5,100.2,42.5,100.2,42.4z"/>
		<path class="st1" d="M41.5,47.1c-1.2-0.2-2.3-0.3-3.5-0.5c-1.4-0.3-1.9-1.4-1.4-2.8c0.4-1.3,0.9-2.6,1.3-3.8    c0.1-0.4,0.4-0.5,0.8-0.4c1,0.5,2.1,0.9,3,1.5c0.7,0.4,1.4,0.7,2.2,0.8c1.1,0.1,1.4,0.8,1.3,1.8c0,0.5-0.2,1-0.3,1.5    c-0.3,1.3-1.2,1.7-2.4,1.8C42.2,47,41.8,47,41.5,47.1C41.5,47.1,41.5,47.1,41.5,47.1z"/>
		<path class="st1" d="M119.7,58.3c-0.3,1.3-0.4,2.7-0.8,4c-0.3,1.1-1,2-2.7,1.7c-1.1-0.3-2.2-0.6-3-1.5c-0.5-0.6-0.7-1.3-0.3-2    c1-2,2.3-3.7,4.5-4.4c1.1-0.3,2,0.2,2.1,1.4c0,0.3,0.1,0.6,0.1,0.9C119.6,58.3,119.6,58.3,119.7,58.3z"/>
		<path class="st1" d="M108.9,66.4c0-0.6-0.1-1.3,0-1.9c0.1-1.4,1.2-2.1,2.4-1.6c1.5,0.5,3,1.1,4.4,1.8c1.3,0.6,1.6,2.2,0.8,3.6    c-0.8,1.4-2.2,1.8-3.7,1.1c-0.6-0.3-1.2-0.7-1.8-1.1c-0.4-0.2-0.8-0.4-1.3-0.6C108.9,67.5,108.8,67.4,108.9,66.4z"/>
		<path class="st1" d="M49.3,39.9c0.6,0.1,1.4,0.1,2.1,0.2c0.7,0.2,1.4,0.1,2.1-0.2c0.8-0.3,1.5-0.2,2.1,0.4    c0.7,0.7,0.5,1.7-0.3,2.3c-0.2,0.1-0.5,0.3-0.7,0.3c-0.8,0.2-1.5,0.7-1.9,1.4c-0.7,1-1.6,1.3-2.8,1.2c-0.7-0.1-1.3-0.2-1.9-0.5    c-1.4-0.6-2-1.7-1.8-3.1C46.4,40.7,47.6,39.9,49.3,39.9z"/>
		<path class="st1" d="M43.9,41c-0.7,0-1.4-0.3-1.9-0.7c-0.8-0.7-1.6-1.3-2.7-1.4c-0.4,0-0.5-0.3-0.4-0.7c0.5-1.6,1.2-3.1,2.4-4.4    c0.7-0.7,1.1-0.7,1.7,0.1c1.1,1.3,2.4,2.4,4.1,3c0.5,0.2,0.7,0.5,0.4,1c-0.3,0.5-0.5,1-0.8,1.5C46.1,40.5,45,40.9,43.9,41z"/>
		<path class="st2" d="M109.2,37c-1-0.1-1.7-0.7-1.7-1.6c0-1.6-0.8-2.6-2.1-3.4c-0.4-0.2-0.7-0.5-1-0.8c-0.6-0.6-0.6-1.4-0.3-2    c0.3-0.5,1.1-0.8,1.9-0.6c0.9,0.3,1.8,0.7,2.6,1c0.5,0.2,1,0.4,1.5,0.5c1.1,0.2,1.6,0.9,1.8,1.9c0.4,1.7-0.3,3.2-1.5,4.3    C110.2,36.7,109.7,36.8,109.2,37z"/>
		<path class="st1" d="M50.8,31.8c-0.1,0.3-0.3,0.7-0.5,1.1c-0.3,0.5-0.6,1-1,1.5c-0.3,0.4-0.7,0.9-1.2,1.2    c-0.6,0.4-1.3,0.4-1.9-0.1c-1-0.8-1.9-1.6-2.9-2.4c-0.4-0.4-0.3-0.9,0.1-1.3c1.3-1.1,2.5-2.1,3.8-3.2c0.5-0.4,1.1-0.8,1.8-1.1    c0.7-0.3,1-0.1,1.1,0.6C50.4,29.2,50.6,30.4,50.8,31.8z"/>
		<path class="st1" d="M109.1,74.6c-1.8,0-2.9-0.8-3.4-2.4c-0.3-1.1,0.2-2.8,1.1-3.4c0.6-0.5,1.3-0.6,2-0.3c1.4,0.5,2.8,1.1,4.1,1.8    c1.1,0.5,1.3,2,0.4,2.9c-0.8,0.8-1.8,1.1-2.8,1.3C110,74.6,109.6,74.6,109.1,74.6z"/>
		<path class="st1" d="M100.5,63.5c0-0.3,0-0.7,0-1c0-0.7,0.4-1.1,1.1-1.1c0.9,0.1,1.9,0.3,2.8,0.5c1.3,0.2,2.5,0.5,3.8,0.8    c0.6,0.1,0.7,0.3,0.3,0.8c-0.2,0.3-0.3,0.8-0.3,1.2c-0.1,0.5,0,1.1-0.1,1.7c-0.2,0.7-0.8,1.1-1.6,1.2c-1.7,0-3.3-0.4-4.8-1.3    C100.6,65.7,100.4,65.2,100.5,63.5z"/>
		<path class="st1" d="M36.4,49.8c0-0.3,0-0.6,0.1-0.9c0.3-1.2,1.1-1.7,2.2-1.4c1.5,0.4,2.9,0.4,4.4,0.1c1-0.2,1.7,0.3,1.8,1.4    c0.1,1.2-0.1,2-1.4,2.7c-1.4,0.7-2.9,1.1-4.4,1.2c-1.8,0.2-2.4-1.1-2.6-2.4C36.4,50.3,36.4,50.1,36.4,49.8    C36.4,49.8,36.4,49.8,36.4,49.8z"/>
		<path class="st1" d="M83.9,82.3c0.1-0.5,0.1-1.2,0.3-1.9c0.5-1.7,1.6-2.3,3.6-2.1c1.9,0.2,3.1,1.5,4.2,3c0.3,0.5-0.1,0.7-0.5,0.8    c-0.9,0.4-1.7,0.8-2.6,1.3c-1.2,0.6-2.4,1.1-3.7,1.3c-0.8,0.1-1.2-0.2-1.3-1C84,83.3,83.9,82.9,83.9,82.3z"/>
		<path class="st1" d="M35.6,45.7c0,0.3-0.1,0.7-0.2,1.1c-0.2,0.9-0.8,1.3-1.7,1c-0.9-0.2-1.8-0.4-2.7-0.8c-1.1-0.4-2.2-0.8-3.2-1.3    c-1.1-0.5-1.1-1-0.1-1.7c1.6-1.1,3.4-1.8,5.3-2.1c0.8-0.2,1.5,0.2,1.9,1C35.4,43.7,35.6,44.6,35.6,45.7z"/>
		<path class="st1" d="M33,63.4c-0.6-0.1-1.1-0.1-1.5-0.2c-0.6-0.1-0.8-0.5-0.5-1c0.3-0.5,0.6-1,1-1.5c0.9-1,1.8-2.1,2.9-3    c1-0.9,1.9-0.8,2.7,0.2c0.7,0.8,1.4,1.7,1.6,2.8c0.1,0.7-0.1,1.2-0.7,1.5c-0.6,0.3-1.3,0.5-1.9,0.6C35.4,63.2,34.1,63.3,33,63.4z"/>
		<path class="st1" d="M33.5,34.8c0.4,0,0.7,0,1.1,0c1.3,0,2.1,0.8,2.1,2.1c0,0.9-0.2,1.8-0.4,2.7c-0.3,1.2-1,1.5-2.1,1    c-0.5-0.2-1-0.5-1.4-0.9c-1.1-0.9-2.3-1.8-3.4-2.7c-0.2-0.2-0.4-0.4-0.5-0.6c-0.4-0.5-0.3-1,0.3-1.2c0.7-0.2,1.4-0.4,2.1-0.5    C31.9,34.9,32.7,34.9,33.5,34.8C33.5,34.8,33.5,34.8,33.5,34.8z"/>
		<path class="st2" d="M105.9,68.6c-1,0.6-1,1.4-1,2.3c0,0.1,0,0.1,0,0.2c0.1,2-1,2.4-2.7,2c-0.1,0-0.1,0-0.2-0.1    c-1.3-0.7-2.7-1.3-4-2c-0.6-0.3-0.6-0.5-0.1-1.1c0.3-0.4,0.6-0.9,0.8-1.4c0.8-1.7,1.2-1.9,3-1.4c1,0.3,2,0.6,3,0.9    C105.2,68.2,105.4,68.4,105.9,68.6z"/>
		<path class="st1" d="M36.4,53.9c0,1.3-0.7,1.7-2.1,1.6c-1.7-0.2-3.4-0.6-5.1-0.9c-0.3,0-0.5-0.1-0.7-0.3c-0.7-0.3-0.8-0.6-0.3-1.2    c0.2-0.2,0.3-0.4,0.5-0.6c1.4-0.9,2.7-1.8,4.2-2.6c1.1-0.6,1.9-0.3,2.6,0.8C35.9,51.6,36.4,53.1,36.4,53.9z"/>
		<path class="st1" d="M103.7,28.4c-0.1,0.9-0.3,1.6-0.3,2.3c0,0.4,0,0.8,0.1,1.2c0.1,0.5-0.1,0.8-0.4,1.1c-0.6,0.5-1.1,1-1.7,1.5    c-0.2,0.2-0.4,0.3-0.6-0.1c-0.2-0.8-0.9-0.9-1.5-1.1c-0.5-0.2-1-0.2-1.5-0.4c-0.6-0.2-0.8-0.5-0.6-1.1c0.3-0.7,0.7-1.4,1.1-2.1    c0.5-0.8,1-1.5,1.5-2.2c0.4-0.7,0.6-0.8,1.4-0.7c0.4,0.1,0.9,0.1,1.3,0.2C103.4,27.4,103.7,27.9,103.7,28.4z"/>
		<path class="st2" d="M65.6,49.2c-0.3,1.5-0.6,3-1,4.6c-0.3,1.2-0.6,2.4-1,3.5c-0.3,0.8-0.9,1.4-1.8,1.6c-0.8,0.2-1.3,0-1.5-0.7    c-0.7-1.8-0.8-3.8,1-5.3c0.9-0.7,1.5-1.7,1.9-2.7c0.2-0.6,0.6-1.2,0.9-1.7c0.2-0.3,0.5-0.7,0.9-0.5c0.2,0.1,0.3,0.6,0.4,0.9    c0,0.1,0,0.1,0,0.2C65.5,49.2,65.5,49.2,65.6,49.2z"/>
		<path class="st1" d="M50,62.8c-1.5,0-3.1-1.1-3.6-2.5c-0.2-0.6,0-1.1,0.4-1.5c0.7-0.9,1.7-1.4,2.7-1.9c0.4-0.2,0.9-0.3,1.3-0.4    c1.4-0.3,2.4,0.4,2.5,1.8c0.1,0.7,0,1.3-0.6,1.8c-0.2,0.2-0.4,0.6-0.5,0.9C51.9,62.3,51.2,62.8,50,62.8z"/>
		<path class="st1" d="M113.1,56c-1.7-0.1-3.4-0.2-5.1-0.7c-0.4-0.1-0.7-0.5-1-0.7c0.3-0.3,0.6-0.6,0.9-0.8c1.2-0.6,2.5-1.2,3.7-1.8    c1.1-0.6,2.1-0.5,3.1,0.4c0.9,0.8,1.9,1.5,3.1,1.7c0.1,0,0.3,0.1,0.3,0.2c0.2,0.2,0.4,0.4,0.4,0.5c0,0.2-0.3,0.4-0.5,0.5    c-0.9,0.3-1.8,0.5-2.7,0.7C114.6,55.9,113.9,55.9,113.1,56z"/>
		<path class="st1" d="M107.9,40.6c0.2-0.5,0.4-0.9,0.6-1.3c1.2-1.6,2.7-3,4.5-4c1.4-0.8,2.5-0.5,3.3,0.7c0.8,1.1,0.6,2.2-0.6,3    c-1.6,1-3.3,1.5-5.1,1.7C109.7,40.8,108.9,40.9,107.9,40.6z"/>
		<path class="st2" d="M53.9,26.3c0.5,0.1,1.3,0.3,2.1,0.5c0.4,0.1,0.8,0.1,1.2,0.1c0.5,0,0.6,0.2,0.5,0.6c-0.3,0.9-0.6,1.6-1.4,2.2    c-1,0.7-1.4,2-0.8,3.2c0.1,0.2,0.1,0.4,0.2,0.6c-0.2,0-0.5,0.1-0.7,0c-0.7-0.2-1.4-0.4-2-0.7c-0.3-0.2-0.6-0.5-0.9-0.8    c-0.7-1-1.3-2.1-1.1-3.4C51.1,27.2,52.4,26.2,53.9,26.3z"/>
		<path class="st1" d="M78.4,79c0.3,0.1,0.4,0.1,0.5,0.2c1,0.6,2.1,0.6,3.2,0.5c0.4,0,0.7,0,1.1-0.1c0.5,0,0.6,0.3,0.4,0.6    c-0.5,0.9-0.4,1.9-0.4,2.9c0,0.9-0.2,1.6-1,2.1c-0.9,0.5-1.7,0.4-2.5-0.1c-0.9-0.6-1.9-1.2-2.8-1.8c-0.2-0.1-0.2-0.4-0.2-0.6    c0-0.2,0.2-0.5,0.4-0.7C77.9,81.2,78.7,80.4,78.4,79z"/>
		<path class="st2" d="M42.1,62.3c0.5,0,0.9-0.1,1.4-0.1c0.6,0,1.1-0.1,1.5-0.5c0.3-0.3,0.7-0.4,0.9,0.1c0.5,1.2,1.6,1.7,2.7,2.1    c0.8,0.3,1.6,0.3,2.4,0c0.5-0.2,0.8,0,1,0.4c0.4,0.7,0.3,1.5-0.3,2.1c-0.6,0.6-1.2,1.1-1.6,1.8c-0.2,0.5-0.7,0.4-1.1,0.1    c-0.8-0.6-1.6-1.3-2.5-2c-1.4-1.2-2.9-2.4-4.3-3.6c-0.1-0.1-0.1-0.1-0.2-0.2C42.1,62.4,42.1,62.3,42.1,62.3z"/>
		<path class="st1" d="M72.7,83.3c-0.1,0.3-0.2,0.6-0.3,0.9c-0.3,0.7-0.7,1.5-1.1,2.2c-0.4,0.9-1.2,1.3-2.1,0.9    c-1.1-0.5-2.3-0.9-3-2c-0.4-0.6-0.5-1.2-0.2-1.8c0.5-0.8,1.1-1.6,1.7-2.4c0.3-0.4,0.7-0.5,1.2-0.1c0.9,0.7,1.9,1,2.9,1.3    C72.5,82.5,72.6,82.7,72.7,83.3z"/>
		<path class="st1" d="M62.3,78.5c-0.3,0.2-0.6,0.4-0.9,0.6c-0.7,0.3-1.1,0.9-1.5,1.5c-0.2,0.4-0.5,0.9-0.7,1.3    c-0.4,0.6-0.9,0.7-1.5,0.4c-1.1-0.5-2-1.2-2.2-2.5C55.3,79,55,78.1,55,77.2c0-1.5,0.8-1.9,2.3-1.6c1,0.3,1.8,0.8,2.4,1.5    c0.5,0.5,1,0.9,1.8,0.9c0.3,0,0.5,0.2,0.8,0.3C62.2,78.4,62.3,78.5,62.3,78.5z"/>
		<path class="st2" d="M118.1,53.3c-0.4-0.2-0.8-0.4-1.1-0.6c-0.7-0.5-1.3-1.1-1.9-1.7c-0.6-0.6-1.1-1.2-1.2-2.1    c-0.2-1.1,0.4-1.9,1.5-1.7c1.5,0.2,3,0.4,4.6,0.7c0.8,0.1,0.9,0.5,0.6,1.2c-0.2,0.5-0.2,1-0.4,1.5c-0.3,0.7-0.6,1.4-1,2.1    C119,52.9,118.5,53.1,118.1,53.3z"/>
		<path class="st2" d="M62.3,36.4c-2.4-0.2-4.3-1.3-5.6-3.2c-0.2-0.3-0.4-0.8-0.5-1.2c-0.2-0.9,0.6-1.7,1.4-1.3    c0.9,0.3,1.7,0.8,2.5,1.4c1,0.8,2.1,1.1,3.3,1.1c0.5,0,1.1,0.1,1.3,0.6c0.3,0.7,0.3,1.4,0,2.1c0,0.1-0.2,0.2-0.4,0.2    C63.5,36.3,62.9,36.4,62.3,36.4z"/>
		<path class="st1" d="M107.5,52.7c-1.8-0.1-2.4-1-1.6-2.6c1-1.9,3.9-3.3,5.8-2.7c1.3,0.4,1.7,1.3,1,2.5c-0.8,1.2-1.9,1.9-3.3,2.3    C108.8,52.4,108.1,52.5,107.5,52.7z"/>
		<path class="st1" d="M91.7,84.8c-0.1-0.8,0.2-1.4,0.8-1.9c0.6-0.5,1.3-0.7,2.1-0.3c1,0.6,2.1,1,3.2,1.7c0.9,0.5,0.9,1.1,0.2,1.8    c-0.2,0.2-0.5,0.4-0.7,0.6c-0.5,0.4-1,0.7-1.4,1.1C94.4,89,93,88.7,92.2,87c-0.3-0.7-0.4-1.4-0.7-2.2    C91.6,84.8,91.7,84.8,91.7,84.8z"/>
		<path class="st1" d="M105.1,75.7c-0.1,0.3-0.1,0.5-0.1,0.7c-0.2,1.1-0.4,2.3-0.7,3.4c-0.1,0.7-0.4,0.8-1.1,0.6    c-1.2-0.4-2.2-1.1-3.1-2c-0.7-0.8-0.6-1.7-0.3-2.7c0.2-0.4,0.4-0.7,0.5-1.1c0.5-1.1,1.4-1.4,2.6-0.9c0.7,0.3,1.3,0.9,1.9,1.4    C105,75.3,105,75.6,105.1,75.7z"/>
		<path class="st1" d="M118.6,47c-0.4-0.1-0.8-0.1-1.2-0.3c-1.1-0.4-1.5-1.3-1.1-2.4c0.3-1,0.3-1.9,0.2-2.9c0-0.4-0.1-0.7-0.1-1.1    c0-0.6,0.5-1.3,1-1.4c0.6-0.2,1.1,0.2,1.3,0.7c0.5,1.1,1,2.2,1.4,3.4c0.2,0.7,0.3,1.4,0.4,2.1C120.9,46.3,120.2,47,118.6,47z"/>
		<path class="st2" d="M115.5,42.4c-0.1,0.8-0.3,1.8-0.4,2.8c-0.1,0.5-0.4,0.8-0.9,0.9c-0.8,0.2-1.5,0.4-2.3,0.6    c-0.8,0.2-1.7-0.4-1.9-1.1c-0.1-0.3,0-0.6,0.1-0.9c0.3-0.8,0.4-1.6,0-2.4c-0.2-0.4-0.1-0.7,0.4-0.8c1-0.3,2-0.5,3.1-0.8    C114.6,40.5,115.5,41.2,115.5,42.4z"/>
		<path class="st2" d="M65,30.5c0,1.4-0.9,2.1-2.3,1.5c-0.9-0.4-1.7-0.9-2.6-1.3c-0.6-0.3-1.2-0.6-1.8-0.8c-0.8-0.3-0.9-0.5-0.7-1.4    c0.1-0.4,0.3-0.9,0.6-1.2c0.5-0.7,1.2-0.9,2-0.6c1.1,0.5,2.2,1,3.3,1.5C64.6,28.8,65,29.6,65,30.5z"/>
		<path class="st2" d="M58.6,41.1c0.3,0.1,0.5,0.2,0.7,0.2c0.6,0.2,1.2,0.4,1.8,0.6c0.3,0.1,0.6,0.3,0.6,0.5c0,0.2-0.2,0.6-0.4,0.8    c-0.7,0.5-1.2,1.1-1.5,1.8c-0.5,1.1-1.6,1.5-2.6,2c-0.3,0.2-0.6,0.3-0.8,0.5c-0.3,0.3-0.6,0.2-0.8-0.1c-0.3-0.4-0.6-0.9-0.8-1.3    c-0.6-1.1-0.3-2.3,0.9-2.7c0.7-0.3,1.2-0.7,1.7-1.3C57.8,41.7,58.2,41.4,58.6,41.1z"/>
		<path class="st1" d="M50.8,39.2c-1.4,0-2.3-1.1-1.9-2.5c0.4-1.3,1.2-2.2,2.3-2.9c0.6-0.3,1.1-0.4,1.7,0c0.5,0.3,1.1,0.6,1.7,0.9    c0.7,0.4,0.8,0.7,0.5,1.4C54.6,37.8,52.6,39.2,50.8,39.2z"/>
		<path class="st6" d="M109.2,146.2c0.5,0.3,1,0.6,1.6,0.9c-0.2-0.6-0.4-1.1-0.6-1.6c0.6-0.3,1.2-0.6,2-0.9c0.4,1.1,0.8,2.2,1.3,3.4    c-0.7,0.3-1.4,0.6-2.1,0.9c-0.1-0.3-0.2-0.6-0.3-0.9c-0.2,0.3-0.3,0.7-0.5,0.9c-0.3,0.2-0.7,0.3-1,0.3c-1.1,0-2.1,0-3.2-0.1    c-0.7-0.1-1.1-0.6-1.2-1.2c-0.1-1.1-0.1-2.2-0.1-3.2c0-0.1,0.2-0.2,0.3-0.3c0,0,0,0,0.1,0c1.7-0.1,1.7-0.1,1.7,1.5    c0,0.1,0,0.2,0,0.3c0,1.2,0.1,1.2,1.2,1.2c0.4,0,0.7-0.1,0.7-0.6C109.1,146.6,109.1,146.4,109.2,146.2z"/>
		<path class="st2" d="M55.4,65.6c-0.3,0-0.6,0-0.9-0.1c-1.8-0.4-2.6-2.2-1.7-4c0.4-0.8,1.1-1.3,1.8-1.8c0.2-0.1,0.5,0,0.8,0    c0.5,0,0.9,0.2,1.4,0.2c0.3,0,0.5,0.1,0.4,0.4c0,1.4,0.2,2.7,0.6,4.1c0.1,0.4-0.1,0.8-0.6,0.9C56.6,65.5,56,65.6,55.4,65.6    C55.4,65.6,55.4,65.6,55.4,65.6z"/>
		<path class="st1" d="M95.9,80.7c0.1-1.6,1.4-2.5,2.9-1.9c0.8,0.3,1.5,0.7,2.2,1.1c0.7,0.4,1,1,0.8,1.8c-0.1,0.4-0.1,0.7-0.1,1.1    c-0.2,1.1-1.1,1.8-2.2,1.4c-1.5-0.4-2.6-1.5-3.4-2.8C96,81.4,96,81,95.9,80.7z"/>
		<path class="st1" d="M99.6,74c-0.1,1.1-0.4,2.1-1,3c-0.6,0.8-1.5,0.9-2.2,0.3c-0.9-0.8-1.5-1.8-2.1-2.9c-0.1-0.2-0.1-0.4-0.1-0.7    c0.1-1.3,1.9-2.6,3.1-2.2c0.9,0.3,1.9,0.7,2.2,1.8C99.6,73.6,99.6,73.8,99.6,74z"/>
		<path class="st2" d="M86.8,88.1c0,0.4,0,0.8,0.1,1.2c0.2,1,0,1.5-0.8,2.1c-1.3,0.9-3.7,0-4.1-1.5c-0.3-1.2,0.1-3.1,1.2-3.6    c1-0.4,2-0.4,2.9,0c0.5,0.2,0.7,0.6,0.7,1.2C86.9,87.6,86.9,87.8,86.8,88.1C86.9,88.1,86.9,88.1,86.8,88.1z"/>
		<path class="st2" d="M107.6,37.6c0,1.9-0.8,3-2.1,3.3c-0.9,0.2-1.6-0.3-1.7-1.2c-0.1-0.6-0.1-1.2,0-1.7c0.1-0.9,0.1-1.7-0.2-2.6    c-0.1-0.4-0.1-1,0.1-1.4c0.3-0.7,0.9-0.9,1.6-0.6c0.3,0.2,0.6,0.4,0.8,0.6C107,35.2,107.5,36.6,107.6,37.6z"/>
		<path class="st2" d="M69.2,80.5c-0.4-0.2-0.8-0.3-1.1-0.6c-0.7-0.7-1.5-1-2.5-1c-0.3,0-0.6,0-0.8,0c-0.7,0-1.1-0.6-0.7-1.2    c0.5-0.8,1.2-1.3,2-1.7c0.1-0.1,0.3,0,0.4,0c0.5,0.1,1,0.1,1.5,0.2c0.5,0.1,1,0.3,1.5,0.4c0.5,0.1,0.9,0.2,1.4,0.2    c0.5,0,1,0,1.3,0.4c0.1,0.2,0.2,0.5,0.1,0.7c-0.6,1-1.4,1.8-2.5,2.4c-0.1,0.1-0.3,0-0.4,0.1C69.3,80.5,69.2,80.5,69.2,80.5z"/>
		<path class="st2" d="M95.5,78.3c-0.1,0.2-0.2,0.6-0.4,1.1c-0.1,0.3-0.2,0.6-0.2,0.8c0,0.6-0.2,0.8-0.9,0.7c-1.2-0.2-2.1-0.8-3-1.6    c-0.3-0.3-0.6-0.6-0.9-1c-0.4-0.7-0.3-1.3,0.3-1.7c0.9-0.5,1.8-0.9,2.7-1.3c0.2-0.1,0.5,0,0.7,0.1C94.7,75.7,95.5,77.2,95.5,78.3z    "/>
		<path class="st2" d="M75.1,82.8c-0.3-0.1-0.7-0.2-1.2-0.3c-0.7-0.2-1.4-0.4-2.1-0.5c-0.5-0.1-0.8-0.5-0.7-0.9    c0.5-1.2,1.3-2.1,2.4-2.8c0.2-0.1,0.5-0.1,0.8,0c0.8,0.1,1.6,0.2,2.4,0.4c1,0.2,1.4,0.9,0.8,1.8c-0.4,0.6-0.8,1.2-1.1,1.8    C76.2,82.6,75.8,82.8,75.1,82.8z"/>
		<path class="st2" d="M62.9,79.4c0.3,0.1,0.5,0.1,0.8,0.2c0.6,0.1,1.2,0.1,1.8,0.1c0.5,0,1-0.1,1.3,0.3c0.3,0.4,0.1,0.9-0.1,1.3    c-0.4,0.7-0.9,1.3-1.3,2c-0.4,0.6-0.9,0.7-1.5,0.5c-0.7-0.2-1.4-0.3-2.2-0.2c-0.5,0.1-1,0.1-1.2-0.4c-0.3-0.5-0.2-1,0.1-1.4    c0.3-0.5,0.5-0.9,0.8-1.4C61.6,79.7,62.1,79.4,62.9,79.4z"/>
		<path class="st2" d="M65.9,97.1c-1.1-0.2-2.2-0.2-2.9-1.1c-0.5-0.6-0.5-1.3,0.4-1.6c0.6-0.2,1.2-0.6,1.8-1    c0.4-0.2,0.7-0.5,1.1-0.7c1.2-0.6,2-0.5,3.2,0.5c0.5,0.4,0.6,0.9,0.1,1.3c-0.9,0.8-1.8,1.5-2.7,2.2C66.6,97,66.1,97,65.9,97.1z"/>
		<path class="st2" d="M50.7,47.7c0,1.2-0.5,2.3-1.4,3.1c-0.7,0.6-1.5,0.6-2.1-0.1c-0.9-1.1-1.5-2.4-1.4-3.9c0-1,0.6-1.4,1.6-1.2    c0.8,0.2,1.5,0.4,2.3,0.6C50.4,46.3,50.6,46.7,50.7,47.7z"/>
		<path class="st2" d="M79,85.9c0.6,0.1,1.2,0.2,1.8,0.3c0.5,0.1,0.7,0.4,0.6,1c-0.1,0.8-0.3,1.6-0.5,2.3c-0.3,1.1-0.9,1.4-2.1,1    c-0.5-0.2-1-0.4-1.5-0.4c-1.6,0.1-1.7-0.9-1.4-2C76.4,86.6,77.3,85.9,79,85.9z"/>
		<path class="st2" d="M73.5,51.3c-0.1,0.5-0.2,0.8-0.3,1.2c-0.2,0.8-0.5,1.5-0.7,2.3c-0.1,0.5-0.4,0.7-1,0.6c-1.3-0.2-2-0.9-2-2.3    c0-1.4,0.2-2.7,0.3-4.1c0.1-0.7,0.4-0.8,1-0.5c0.9,0.4,1.7,0.9,2.2,1.8C73.3,50.5,73.4,50.9,73.5,51.3z"/>
		<path class="st1" d="M54.2,70.3c-0.7-0.1-1.4-0.2-2.1-0.3c-0.3-0.1-0.6-0.3-0.9-0.5c-0.5-0.3-0.5-0.8-0.1-1.3    c0.2-0.3,0.4-0.6,0.6-0.9c0.3-0.6,0.8-0.9,1.4-0.7c0.7,0.3,1.3,0.2,1.9,0.1c0.5-0.1,1-0.1,1.5-0.1c0.6,0,0.9,0.2,1,0.9    c0.2,1.4-0.3,2.7-2.2,2.7C54.9,70.2,54.6,70.2,54.2,70.3C54.2,70.2,54.2,70.3,54.2,70.3z"/>
		<path class="st3" d="M87.6,87c0-0.2,0-0.5,0-0.7c0-0.5,0.2-0.7,0.7-0.9c0.6-0.3,1.1-0.7,1.6-1.1c0.6-0.4,0.7-0.5,0.9,0.2    c0.3,1.2,0.7,2.3,0.9,3.5c0.1,0.8-0.2,1.6-0.9,2.1c-0.6,0.4-1.2,0.5-1.8,0.3c-0.8-0.4-1.1-1.1-1.3-2C87.6,87.9,87.6,87.4,87.6,87    C87.6,87,87.6,87,87.6,87z"/>
		<path class="st8" d="M59.5,87.9c0.6,0.3,1.1,0.4,1.7,0.1c0.2-0.1,0.6,0.1,1,0.1c0.4,0,0.8,0.1,1.2,0c0.6-0.3,1.2-0.7,1.7-1    c0.9-0.6,2.5,0,2.8,1c0.1,0.3-0.1,0.6-0.2,0.9c-0.2,0.4-0.5,0.7-0.8,1.1c-0.4,0.6-1.1,0.9-1.7,0.4c-0.5-0.3-0.9-0.7-1.4-1.1    c-0.9-0.8-1.4-0.7-2.1,0.2c-0.3,0.4-0.5,0.8-0.7,1.3c-0.3,0.5-0.7,0.5-0.9,0c-0.3-0.8-0.5-1.7-0.7-2.6    C59.4,88.2,59.5,88.1,59.5,87.9z"/>
		<path class="st2" d="M48.3,26c-0.1,0.3-0.1,0.6-0.3,0.8c-0.4,0.7-1,1.3-1.8,1.6c-0.5,0.2-1,0.1-1.3-0.3c-1-1.5-1.6-3.1-1.3-4.9    c0.1-0.9,0.6-1.1,1.4-0.7c1.2,0.6,2.2,1.6,3,2.7C48.1,25.5,48.2,25.8,48.3,26z"/>
		<path class="st2" d="M74,136.3c0,0.2,0,0.3,0,0.4c0,1,0,2,0,3c-1.9,0-3.9,0-5.8,0c0-1.1,0-2.3,0-3.4C70.1,136.3,72,136.3,74,136.3    z M70.9,137.4c0,0.4,0,0.7,0,0.9c0,0.1,0.2,0.1,0.3,0.2c0-0.3,0.1-0.5,0.1-0.8C71.3,137.7,71.1,137.6,70.9,137.4z M72.4,138.7    c0.4-0.5,0.4-1,0-1.1C72.4,137.9,72.4,138.2,72.4,138.7z"/>
		<path class="st2" d="M49,51.5c1,0,1.8,0.4,2.2,1.3c0.3,0.6,0.7,1.1,1.4,1.2c0.2,0.1,0.5,0.4,0.6,0.6c0,0.2-0.2,0.5-0.4,0.6    c-1.4,1-3.6,1.1-4.8-0.5c-0.5-0.6-0.9-1.3-1.2-2c-0.3-0.6-0.1-0.9,0.5-1.1C47.8,51.7,48.4,51.6,49,51.5z"/>
		<path class="st2" d="M58,40.2c-1.4-0.1-2.1-0.5-2.3-1.4c-0.2-1-0.1-1.9,0.3-2.8c0.2-0.3,0.4-0.5,0.8-0.3c1.2,0.5,2.4,1,3.6,1.5    c0.5,0.2,1,0.5,1,1.1c0,0.6-0.4,1.1-1,1.3C59.6,39.7,58.8,39.9,58,40.2z"/>
		<path class="st9" d="M71.6,87.8c0.4-0.7,0.6-1.4,1-2c0.4-0.6,0.9-1.2,1.4-1.7c0.9-1,2.7,0,2.8,0.9c0,0.3-0.1,0.8-0.3,1    c-0.8,0.8-1.4,1.6-1.7,2.7c-0.2,0.6-0.8,0.9-1.4,0.7c-0.5-0.1-0.9-0.3-1.3-0.6C71.9,88.5,71.8,88.1,71.6,87.8z"/>
		<path class="st9" d="M102.9,37.5c-0.2,1-0.4,2.1-0.6,3.2c-0.2,0.6-0.7,0.9-1.2,0.5c-0.8-0.6-1.6-1.2-2.3-1.9    c-0.6-0.7-0.5-1.5,0.1-2.1c0.5-0.5,1.1-1,1.8-1.4c1-0.5,1.8-0.1,2,1C102.8,37,102.8,37.2,102.9,37.5z"/>
		<path class="st2" d="M59.1,56c0,0.3,0,0.6,0,1c-0.1,0.8-0.6,1.4-1.4,1.7c-1.4,0.4-2.7,0.4-3.7-0.7c-0.8-0.9-0.7-1.8,0.4-2.2    c1-0.4,2-0.5,3-0.7c0.4-0.1,0.8-0.1,1.2-0.1c0.4-0.1,0.6,0,0.5,0.5C59,55.5,59.1,55.7,59.1,56C59.1,56,59.1,56,59.1,56z"/>
		<path class="st9" d="M52.7,81.3c-1.2,0-1.8-0.4-2.2-1.5c-0.2-0.7-0.3-1.4-0.4-2.1c-0.1-0.6,0.3-1.1,0.9-1.2c0.7-0.1,1.5-0.1,2.2,0    c0.7,0.1,1.1,0.7,1.1,1.4c0.1,0.6,0.1,1.2,0.2,1.8c0.1,0.8-0.2,1.3-1,1.4C53.2,81.2,52.9,81.3,52.7,81.3z"/>
		<path class="st7" d="M45.2,92.2c0.6-0.1,1.2-0.3,1.8-0.4c1.2-0.2,2.4-0.2,3.6-0.5c2.2-0.6,4.3-1.3,6.4-2c0.4-0.1,0.7-0.3,0.8-0.8    c0-0.1,0.2-0.2,0.3-0.2c0.1,0,0.3,0.1,0.4,0.2c0.5,0.7,0.3,1.3-0.4,1.8c-1.4,0.9-3,1.4-4.6,1.8c-2.3,0.6-4.6,0.6-6.9,0.6    c-0.4,0-0.8-0.1-1.2-0.2C45.2,92.4,45.2,92.3,45.2,92.2z"/>
		<path class="st2" d="M39.4,149.4c-0.9-0.5-1.6-0.8-2.2-1.2c0.7-2.2,1.4-4.3,2.1-6.5c0.5,0.2,1.1,0.3,1.7,0.6    c0.1,0,0.2,0.2,0.2,0.3C40.6,144.9,40,147.1,39.4,149.4z"/>
		<path class="st8" d="M75.4,48.8c-0.1,0.2-0.1,0.5-0.2,0.7c-0.3,0.6-0.8,0.8-1.3,0.4c-0.9-0.8-1.8-1.6-2.8-2.3    c-0.8-0.6-0.5-2.3,0.4-2.8c0.2-0.1,0.7-0.2,0.9,0c1.5,0.9,2.6,2.1,2.9,3.9C75.4,48.7,75.4,48.7,75.4,48.8z"/>
		<path class="st8" d="M66.1,27.3c0,0.1-0.1,0.4-0.2,0.6c-0.3,0.5-0.6,0.5-0.9,0.1c-0.4-0.5-0.9-0.8-1.4-1.1    c-0.8-0.4-1.6-0.9-2.3-1.5c-0.6-0.5-1.2-1.2-1.7-1.8c-0.2-0.2-0.3-0.4-0.4-0.6c-0.1-0.2,0-0.5-0.1-0.7c0.2,0,0.5-0.1,0.7,0    c0.8,0.5,1.6,1,2.4,1.5c0.6,0.4,1.3,0.7,2,1C65.3,25.2,66.1,26.2,66.1,27.3z"/>
		<path class="st9" d="M72.1,57.6c-0.1,0.4-0.2,0.7-0.3,0.9c-0.5,0.9-1.2,1.8-2.1,2.4c-0.2,0.2-0.5,0.3-0.8,0.3    c-0.6,0.1-1-0.2-0.9-0.7c0.2-1.4,0.6-2.8,1.5-4c0.6-0.9,1.3-0.9,2,0C71.7,56.8,71.9,57.2,72.1,57.6z"/>
		<path class="st3" d="M51,49.8c0.1-1.4,0.5-2.7,1.3-3.8c0.4-0.6,0.8-0.6,1.3-0.1c0.5,0.6,1,1.2,1.5,1.8c0.2,0.3,0.2,0.6-0.1,0.9    c-0.8,0.6-1.6,1.2-2.4,1.7c-0.1,0.1-0.3,0.2-0.4,0.2C51.5,50.9,51,50.6,51,49.8z"/>
		<path class="st8" d="M86.7,58.3c-0.1,0.8-0.1,1.5-0.3,2.2c-0.1,0.7-0.6,1.1-1.3,1.2c-0.7,0.1-1.4-0.1-1.9-0.7    c-0.2-0.2-0.2-0.6-0.1-0.8c0.5-1.4,1.5-2.6,2.6-3.6c0.3-0.3,0.6-0.2,0.7,0.2C86.6,57.3,86.6,57.8,86.7,58.3z"/>
		<path class="st8" d="M77.4,58.2c0-0.3,0-0.7,0.1-1.1c0-0.2,0.2-0.5,0.3-0.6c0.2-0.1,0.5,0.1,0.6,0.2c0.4,0.3,0.7,0.7,1,1.1    c0.5,0.8,1,1.5,1.5,2.3c0.3,0.5,0.1,1-0.5,1.2c-0.3,0.2-0.7,0.3-1.1,0.3c-1.1,0.1-1.7-0.5-1.8-1.7C77.4,59.5,77.4,58.9,77.4,58.2z    "/>
		<path class="st2" d="M107.8,84.4c0.3-0.7,0.5-1.4,0.8-2c0.1-0.1,0.3-0.2,0.5-0.3c0.5-0.2,1.1-0.4,1.6-0.6c0.1,0,0.2-0.2,0.3-0.2    c0.4,0,0.8-0.1,1.1,0c0.4,0.2,0.4,0.8,0.2,1.1c-0.5,0.8-1.1,1.5-1.7,2.2c-0.3,0.3-0.6,0.6-1,0.8c-0.3,0.2-0.8,0.2-1.1,0.1    C108,85.5,107.9,85,107.8,84.4z"/>
		<path class="st8" d="M58,68.6c0.3-0.5,0.5-1.2,0.9-1.5c1.1-0.9,2.5-1.4,3.9-1.4c0.7,0,1,0.5,0.6,1c-0.3,0.4-0.7,0.8-1.2,1.1    c-0.9,0.6-1.9,1-2.6,1.9c-0.3,0.4-1,0.2-1.3-0.3C58.3,69.2,58.2,68.9,58,68.6C58.1,68.6,58.1,68.6,58,68.6z"/>
		<path class="st8" d="M52.4,25.9c-0.9,0-1.4-0.4-1.8-1.2c-0.4-0.9-1-1.8-1.4-2.7c-0.2-0.4-0.4-0.8-0.5-1.2    c-0.1-0.4,0.2-0.6,0.5-0.4c1.4,0.8,2.7,1.6,3.2,3.2c0.1,0.4,0.5,0.6,0.7,0.9c0.2,0.2,0.4,0.4,0.6,0.7c-0.3,0.2-0.6,0.4-0.9,0.6    C52.8,25.9,52.6,25.9,52.4,25.9z"/>
		<path class="st3" d="M105.8,80c0-0.3-0.1-0.5-0.1-0.7c0.1-1.3,0.1-2.5,0.2-3.8c0-0.6,0.3-0.8,0.9-0.7c0.7,0.2,1.4,0.5,2.1,0.8    c0.6,0.3,0.6,0.8,0.1,1.3c-0.4,0.4-0.8,0.8-1.3,1.2C107.2,78.8,106.6,79.3,105.8,80z"/>
		<path class="st3" d="M38.1,36.3c-0.9-0.4-1.7-2.2-1.3-3.3c0.4-1.1,1.6-1.7,2.8-1.4c0.7,0.2,1,0.6,0.7,1.3    c-0.2,0.4-0.4,0.7-0.7,1.1C39.2,34.8,38.6,35.6,38.1,36.3z"/>
		<path class="st7" d="M59,90.4c0.2,0.8,0,1.2-0.6,1.7c-2.2,1.7-4.7,2.3-7.5,2.1c-0.1,0-0.2,0-0.3-0.1c-0.1-0.1-0.2-0.2-0.3-0.2    c0.1-0.1,0.2-0.2,0.3-0.2c0.6-0.2,1.2-0.4,1.8-0.5c1-0.2,2-0.5,2.9-1c0.8-0.5,1.7-0.7,2.5-1.1C58.1,90.9,58.5,90.7,59,90.4z"/>
		<path class="st7" d="M61.5,41.3c-0.2,0-0.5,0-0.6-0.1c-0.2-0.1-0.3-0.3-0.3-0.4c0-0.1,0.2-0.3,0.3-0.4c0.9-0.2,1.4-0.9,1.9-1.6    c0.7-1,1.6-1.7,2.9-1.7c0.3,0,0.6,0.3,0.8,0.5c0.1,0.1,0,0.4-0.1,0.5c-0.6,0.6-1.2,1.2-1.8,1.8C63.7,40.7,62.6,41.1,61.5,41.3z"/>
		<path class="st9" d="M48.7,81.1c-0.8-0.2-1.5-0.4-2.3-0.7c-0.4-0.1-0.5-0.4-0.3-0.8c0.2-0.4,0.3-0.8,0.5-1.2c0.3-0.8,1-1.2,1.7-1    c0.8,0.1,1.2,0.6,1.2,1.5c0,0.3,0,0.6,0.1,0.9C49.9,80.8,49.7,81,48.7,81.1z"/>
		<path class="st8" d="M39,29.3c0,1.4-1,2.4-2.4,2.4c-0.6,0-1.2-0.6-1.1-1.3c0.2-1.2,0.9-2,2-2.6c0.6-0.3,1.4,0.1,1.5,1    C39,28.9,39,29.1,39,29.3z"/>
		<path class="st8" d="M72.4,94.3c-0.2-0.1-0.7-0.2-0.7-0.3c0-0.4,0-1,0.1-1.3c0.8-1.4,3-2.1,4.4-1.3c0.3,0.2,0.4,0.3,0.1,0.6    c-0.6,0.5-1.2,1-1.8,1.5C74,94,73.2,94.3,72.4,94.3z"/>
		<path class="st7" d="M108.6,26.9c0.5-0.2,1.1-0.3,1.6-0.4c0.2,0,0.5,0,0.7,0.1c0.4,0.3,0.7,0.8,1,1.1c0.3,0.4,0.2,0.6-0.1,0.9    c-0.7,0.5-1.5,0.7-2.3,0.4c-0.7-0.3-1.5-0.6-2.2-0.9c-0.2-0.1-0.5-0.4-0.4-0.6c0-0.2,0.3-0.5,0.6-0.5c0.4-0.1,0.8-0.1,1.2-0.1    C108.6,26.8,108.6,26.8,108.6,26.9z"/>
		<path class="st3" d="M105.5,82c0.8,0.1,1.3,0.5,1.5,1.3c0.1,0.7-0.2,1.7-0.9,2.1c-0.7,0.5-1.5,0.4-2.2,0c-0.2-0.1-0.4-0.4-0.4-0.6    c0.1-0.9,0.3-1.8,1-2.4C104.8,82.2,105.2,82.1,105.5,82z"/>
		<path class="st10" d="M96,24.2c-0.7,1.3-1.4,2.6-2.1,3.9c-0.3,0.5-0.7,1-1.4,0.9c-0.6-0.1-0.8-0.7-1-1.2c-0.3-0.7-0.1-1.1,0.6-1.3    c1-0.3,1.8-1,2.6-1.6c0.4-0.3,0.7-0.5,1.1-0.8C95.8,24.1,95.9,24.1,96,24.2z"/>
		<path class="st10" d="M64.1,65.4c0.1-0.1,0.2-0.4,0.4-0.6c0.4-0.5,0.9-1,1.2-1.5c0.5-0.7,1.1-1.3,2-1.4c0.3,0,0.6,0.1,0.8,0.3    c0.1,0.1,0,0.6-0.1,0.7c-0.4,0.4-0.6,0.9-0.7,1.5c-0.1,0.4-0.3,0.6-0.7,0.7c-0.5,0.1-0.9,0.4-1.3,0.6c-0.3,0.1-0.6,0.3-0.9,0.4    C64.4,66.2,64.1,66,64.1,65.4z"/>
		<path class="st11" d="M77.9,72.5c1.2,1.2,2.5,1.5,4,1.5c1.4,0,2.8-0.3,3.8-1.5c0,1.2-1.9,2.6-3.5,2.6C80.2,75.2,78.1,74,77.9,72.5    z"/>
		<path class="st7" d="M96.1,92c-0.1,0.2-0.1,0.7-0.3,0.7c-0.2,0.1-0.6-0.1-0.8-0.2c-0.5-0.4-1-0.8-1.5-1.2c-0.5-0.4-0.5-0.9,0-1.3    c0.4-0.3,0.9-0.6,1.4-0.8c0.5-0.2,0.8,0,1,0.5C95.9,90.3,96,91.1,96.1,92z"/>
		<path class="st7" d="M41,138.3c-0.6,0.7-1,1.3-1.5,1.9c-0.8-0.8-1.5-1.6-2.2-2.5c0.4-0.4,0.9-0.9,1.4-1.5    C39.5,136.9,40.3,137.6,41,138.3z"/>
		<path class="st8" d="M40.1,29.4c0-0.8,0.4-1.2,1-1c0.7,0.2,1.4,0.5,2.1,0.8c0.4,0.2,0.4,0.6,0.3,0.9c-0.2,0.4-0.4,0.8-0.7,1.1    c-0.5,0.5-1.2,0.4-1.6-0.1C40.5,30.6,40.1,29.9,40.1,29.4z"/>
		<path class="st6" d="M46,77.4c-0.4,0.5-0.7,1-1.1,1.4c-0.3,0.4-0.7,0.6-1.2,0.4c-0.6-0.3-1.3-0.7-1.8-1.1c-0.3-0.2-0.5-0.7-0.2-1    c0.2-0.2,0.6-0.3,0.9-0.3c1,0.1,2.1,0.3,3.1,0.4C45.8,77.3,45.9,77.4,46,77.4z"/>
		<path class="st7" d="M115.3,78.7c0.6,0,1,0.4,0.8,0.9c-0.4,0.8-0.8,1.6-1.3,2.4c-0.4,0.6-0.9,0.5-1.2-0.1c-1-1.7-0.7-2.1,0.8-2.8    C114.8,78.9,115.1,78.8,115.3,78.7z"/>
		<path class="st8" d="M84.9,137.5c0.6,1,1.2,2,1.7,3c-0.7,0.4-1.3,0.8-1.9,1.1c-0.6-1-1.1-1.9-1.7-2.9    C83.6,138.3,84.2,137.9,84.9,137.5z"/>
		<path class="st6" d="M91.2,92.1c-0.2,0.3-0.4,0.6-0.7,0.8c-0.9,0.6-1.9,1.2-2.8,1.8c-0.2,0.1-0.4,0.3-0.6,0.4    c-0.1,0.1-0.4,0.1-0.5,0c-0.1-0.1-0.2-0.4-0.1-0.5c0.5-0.8,0.9-1.7,1.6-2.4C88.6,91.7,90.5,91.7,91.2,92.1z"/>
		<path class="st8" d="M116.7,75.5c0,0.5-0.2,0.9-0.7,1.1c-0.5,0.2-1,0.2-1.3-0.2c-0.4-0.4-0.7-0.8-1-1.3c-0.4-0.6,0.1-1.4,0.8-1.5    C115.3,73.3,116.7,74.5,116.7,75.5z"/>
		<path class="st6" d="M124.5,64.3c-0.4,0.1-0.8,0.2-1.3,0.3c-1.1,0.1-2.1,0.2-3.2,0.3c-0.5,0-0.8-0.2-1-0.6    c-0.3-0.7,0.1-1.4,0.9-1.3c1.5,0.3,2.9,0.6,4.4,1c0.1,0,0.1,0.1,0.2,0.1C124.5,64.2,124.5,64.3,124.5,64.3z"/>
		<path class="st6" d="M40.1,132c0.7,0.6,1.5,1.2,2.3,1.9c-0.5,0.7-1,1.3-1.5,1.9c-0.8-0.7-1.5-1.4-2.3-2.1    C39,133.1,39.5,132.6,40.1,132z"/>
		<path class="st8" d="M113.4,27.3c-0.5,0.1-1.1,0-1.6-0.4c-0.4-0.3-0.4-0.7,0-1c0.3-0.2,0.7-0.3,1.1-0.4c0.7-0.1,1.5-0.3,2.2-0.4    c0.4,0,0.7,0,1.1,0.1c0.1,0,0.1,0.4,0.1,0.5C115.7,26.8,114.6,27.3,113.4,27.3z"/>
		<path class="st10" d="M121.9,59.3c-1.3-0.1-1.7-0.9-1.3-2.1c0.1-0.4,0.5-0.6,0.9-0.4c0.9,0.4,1.7,0.8,2.5,1.2    c0.4,0.2,0.2,0.5-0.1,0.6C123.3,58.9,122.6,59.1,121.9,59.3z"/>
		<path class="st10" d="M114.4,31.8c-0.5-0.3-1.1-0.5-1.6-0.9c-0.5-0.3-0.5-0.9-0.3-1.3c0.3-0.5,0.8-0.7,1.4-0.4    c0.6,0.3,1.2,0.7,1.7,1.2c0.3,0.3,0.3,0.8-0.1,1C115.2,31.6,114.8,31.6,114.4,31.8z"/>
		<path class="st6" d="M59.5,75.4c1.4,0.1,2.7,0.2,4.1,0.3c0.3,0,0.6,0.3,0.7,0.5c0.1,0.2-0.2,0.6-0.4,0.8c-0.7,0.6-1.5,0.5-2.2,0.2    c-0.8-0.4-1.6-1-2.3-1.5C59.4,75.6,59.5,75.5,59.5,75.4z"/>
		<path class="st6" d="M100.4,86.1c0.5,0,0.9,0.4,0.7,1c-0.2,0.8-0.4,1.6-0.7,2.4c0,0.2-0.2,0.4-0.3,0.4c-0.2,0-0.4-0.2-0.4-0.3    c-0.3-0.8-0.6-1.5-0.8-2.3c-0.1-0.5,0.1-0.8,0.6-1C99.7,86.2,100.1,86.2,100.4,86.1z"/>
		<path class="st8" d="M61.6,92.8c0-0.7,0.4-1.3,1-1.7c0.6-0.5,1.9-0.1,2.2,0.6c0.1,0.1-0.1,0.4-0.2,0.6c-0.6,0.5-1.2,0.9-1.8,1.3    C62,94.1,61.6,93.8,61.6,92.8z"/>
		<path class="st10" d="M112.6,75.5c0.1,0.1,0.4,0.2,0.5,0.3c0.2,0.4,0.5,0.9,0.5,1.4c0.1,0.5-0.2,0.8-0.7,1    c-0.3,0.1-0.6,0.3-0.8,0.5c-0.4,0.3-0.5,0.3-0.6-0.1c-0.3-0.7-0.4-1.4-0.1-2.2C111.5,75.9,112,75.7,112.6,75.5z"/>
		<path class="st8" d="M68.3,91.9c-0.1,0-0.3,0-0.4,0c-0.4,0-0.5-0.2-0.4-0.5c0.2-0.7,0.5-1.3,0.8-2c0.2-0.5,0.8-0.7,1.3-0.5    c0.6,0.2,0.6,0.7,0.5,1.1c0,0.3-0.1,0.5-0.2,0.8C69.6,91.8,69.5,91.9,68.3,91.9z"/>
		<path class="st6" d="M83.6,91.9c0.2,0,0.4,0,0.6,0.1c0.4,0.1,0.6,0.4,0.5,0.8c-0.3,0.8-0.6,1.5-1,2.3c-0.2,0.4-0.5,0.3-0.6,0    c-0.3-0.7-0.6-1.5-0.8-2.2C82.2,92.3,82.8,91.9,83.6,91.9z"/>
		<path class="st8" d="M104.5,86.4c1.5,0,1.7,0.3,1.2,1.7c-0.2,0.5-0.4,1-0.7,1.4c-0.2,0.4-0.6,0.4-0.7,0c-0.3-0.8-0.6-1.7-0.8-2.5    C103.5,86.3,104.1,86.4,104.5,86.4z"/>
		<path class="st10" d="M73.7,61c0.2,0.1,0.4,0.1,0.5,0.1c0.6,0.4,1.3,0.8,1.9,1.3c0.5,0.4,0.5,0.9,0.3,1.3    c-0.4,0.8-1.1,0.8-1.6,0.1C74.2,62.9,73.9,62,73.7,61z"/>
		<path class="st7" d="M89.9,61.2c-0.1,1.2-0.4,2.3-1.2,3.1c-0.2,0.3-0.6,0.3-0.9,0.1c-0.5-0.4-0.7-0.9-0.5-1.3    c0-0.1,0.1-0.1,0.1-0.2C88.1,62.2,89,61.7,89.9,61.2z"/>
		<path class="st8" d="M106.8,80.7c1-0.8,1.8-1.8,3.1-2.4c0.1,0.6,0.3,1.2,0.4,1.8c0.1,0.5-0.2,0.8-0.6,0.8c-0.9,0.1-1.8,0-2.7,0    C106.9,80.8,106.8,80.7,106.8,80.7z"/>
		<path class="st6" d="M108.7,90.6c-0.3-0.6-0.6-1-0.8-1.5c-0.2-0.4-0.3-0.8-0.5-1.3c-0.1-0.5,0.1-0.9,0.5-1c0.4-0.1,0.9,0,1.3,0.1    c0.1,0,0.2,0.4,0.2,0.6c-0.1,0.9-0.3,1.8-0.5,2.7C108.8,90.3,108.8,90.4,108.7,90.6z"/>
		<path class="st10" d="M104,55.4c0.3-0.8,0.6-1.6,0.9-2.4c0.1-0.2,0.4-0.5,0.6-0.6c0.2,0,0.5,0.2,0.6,0.5c0.4,0.7,0.4,1.3-0.2,1.9    C105.3,55.5,104.6,55.7,104,55.4z"/>
		<path class="st6" d="M118.8,69.9c-0.3,0-0.5-0.1-0.8-0.1c-1-0.2-1.3-0.9-0.6-1.8c0.3-0.4,0.6-0.4,0.9-0.2c0.5,0.4,1,0.8,1.4,1.2    c0.4,0.4,0.3,0.6-0.3,0.7C119.2,69.8,119,69.8,118.8,69.9z"/>
		<path class="st11" d="M123.9,54c-0.6,0.4-1.3,0.8-2.1,0.7c-0.3,0-0.7-0.3-0.9-0.5c-0.3-0.4,0-0.9,0.4-0.8c0.9,0.1,1.7,0.3,2.6,0.5    C123.9,53.8,123.9,53.9,123.9,54z"/>
		<path class="st11" d="M71.1,91.9C71,91,71,90.3,71.3,89.7c0.1-0.3,0.4-0.5,0.7-0.3c0.1,0,0.2,0.1,0.2,0.1c0.9,0.6,1,0.9,0.1,1.5    C71.9,91.2,71.6,91.5,71.1,91.9z"/>
		<path class="st6" d="M72.9,96.9c-0.2-0.1-0.4-0.2-0.5-0.3c-0.1-0.2,0-0.5,0.1-0.7c0.3-0.4,1.6-0.8,2-0.6c0.2,0.1,0.4,0.3,0.4,0.4    c0,0.2-0.2,0.5-0.3,0.6C74.1,96.6,73.5,96.7,72.9,96.9z"/>
		<path class="st11" d="M88.3,51.9c-0.1-0.1-0.2-0.1-0.3-0.2c-0.3-0.6-0.7-1.1-1-1.7c-0.1-0.2,0-0.5,0.1-0.7    c0.1-0.2,0.4-0.3,0.5-0.3c0.2,0,0.4,0.3,0.4,0.4c0.2,0.8,0.3,1.6,0.5,2.5C88.4,51.8,88.4,51.9,88.3,51.9z"/>
		<path class="st11" d="M86.5,48.7c-0.5,0-0.9-0.4-0.9-0.9c0-0.5,0.5-0.9,0.9-0.9c0.4,0,0.7,0.4,0.7,1C87.3,48.3,87,48.7,86.5,48.7z    "/>
		<path class="st11" d="M68,97.2c0.6-0.3,1.2-0.6,1.7-0.9c0.5-0.3,1-0.7,1.3-1C71.3,96.4,70,97.4,68,97.2z"/>
		<path class="st8" d="M77.1,94.1c-0.2-0.1-0.5-0.1-0.7-0.2c0.1-0.3,0.2-0.6,0.4-0.8c0.3-0.2,0.6-0.4,0.9-0.4c0.1,0,0.4,0.4,0.4,0.6    c0.1,0.4-0.1,0.6-0.5,0.7C77.5,94,77.3,94,77.1,94.1C77.1,94,77.1,94,77.1,94.1z"/>
		<path class="st11" d="M39.1,76.2c0.5-0.4,0.9-0.4,1.3-0.2c0.2,0.1,0.2,0.4,0.2,0.7c0,0.4-0.3,0.6-0.7,0.3    C39.7,76.8,39.4,76.6,39.1,76.2z"/>
		<path class="st12" d="M77.3,35.3c0.2-0.1,0.4-0.2,0.5-0.3c0.9-0.8,2-0.8,3-0.3c0.5,0.2,0.9,0.4,1.4,0.6c0.7,0.3,1.1,0.2,1.5-0.5    c0.1-0.3,0.2-0.5,0.3-0.8c0.3-0.9,0.9-1.4,1.9-1.5c0.1,0,0.2,0,0.3,0c2.3-0.2,3.6,1,3.6,3.3c0,0.7-0.3,1.2-0.8,1.5    c-0.6,0.3-1.3,0.6-1.9,0.9c-0.7,0.3-1.3,0.6-1.5,1.4c-0.1,0.4,0,0.8,0.1,1.2C86.3,42,86,43,85.1,44c-1.6,1.7-5.4,2.9-7.8,1.9    c-1.4-0.5-2.4-1.5-3.2-2.7c-0.7-1.1-0.5-2.8,0.5-3.9c0.1-0.2,0.3-0.3,0.4-0.5c0-0.1,0-0.1-0.1-0.2c-0.3,0-0.6,0-0.8,0    c-0.8-0.1-1.6-0.2-2.4-0.5c-2.2-0.9-2-3.1-0.8-4.4c1.8-1.8,4.6-1.4,5.9,0.8C77,34.8,77.2,35,77.3,35.3z M79,44.9    c2,0,3.5-0.3,4.8-1.2c0.8-0.6,1.3-1.4,1.1-2.3c-0.4-1.4-0.9-2.7-1.6-4c-1.1-2-4-2.6-5.8-0.6c-1.2,1.3-2,2.8-2.4,4.4    c-0.4,1.5,0.1,2.5,1.5,3.1C77.4,44.7,78.4,44.9,79,44.9z M73.7,33.5c-1.1,0-1.8,0.1-2.2,0.8c-0.2,0.3-0.1,0.8-0.1,1.1    c0.3,0,0.6,0.1,0.9,0.1c0.1,0,0.1-0.1,0.2-0.1c1-0.3,1.5,0.1,1.6,1.1c0,0.2,0.2,0.6,0.4,0.7c0.2,0.1,0.6-0.1,0.8-0.2    c0.2-0.2,0.4-0.5,0.4-0.8C76,34.8,74.9,33.5,73.7,33.5z M86.5,33c-0.2,0.1-0.5,0.1-0.7,0.2c-0.7,0.3-1.5,1.6-1.4,2.4    c0,0.2,0.1,0.4,0.2,0.5c0.4,0.4,0.7,0.3,1.1-0.1c0.8-0.8,1.1-0.9,2-0.3c0.4,0.2,0.6,0.1,0.7-0.3C88.5,34.1,87.6,33,86.5,33z"/>
		<path class="st13" d="M75.2,29.2c3.6-0.6,7.2-0.4,10.8,0.3C82.4,29.7,78.8,29.8,75.2,29.2z"/>
		<path class="st14" d="M31.8,140.6c-3.6,0-7.1,0-10.7,0c1.3-0.7,2.6-1.4,3.9-2.2c0,0.5,0,1.1,0,1.7c0.8,0,1.5,0,2.2,0    c0-0.8,0-1.6,0-2.4C28.8,138.7,30.3,139.6,31.8,140.6z"/>
		<path class="st15" d="M21.8,146.6c0-0.3,0-0.6,0-1c2.9,0,5.8,0,8.7,0c0,0.3,0,0.6,0,1C27.6,146.6,24.7,146.6,21.8,146.6z"/>
		<path class="st15" d="M21.8,143.6c0-0.3,0-0.7,0-1c2.9,0,5.8,0,8.7,0c0,0.3,0,0.6,0,1C27.6,143.6,24.7,143.6,21.8,143.6z"/>
		<path class="st14" d="M109.2,139.5c0.5-0.9,1-1.8,1.4-2.7c0,1.6,0,3.2,0,4.8c-0.4,0-0.7,0-1.2,0c0.3-0.4,0.6-0.7,0.9-1.1    C110,140.1,109.6,139.8,109.2,139.5z"/>
		<path class="st16" d="M106.6,139.7c-0.5,0.3-0.9,0.6-1.3,0.8c0.2,0.3,0.5,0.7,0.7,1c-0.4,0-0.7,0-1.1,0c0-0.9,0-1.7,0-2.6    c0.1,0.1,0.2,0.1,0.3,0.1c0.3,0.1,0.4,0.6,0.9,0.3C106.1,139.3,106.3,139.5,106.6,139.7z"/>
		<path class="st13" d="M110.7,135.5c0,0.3,0,0.5,0,0.7c-0.9,0-1.8,0-2.7,0c0-0.2,0-0.5,0-0.7C108.8,135.5,109.7,135.5,110.7,135.5z    "/>
		<path class="st16" d="M106.4,135.4c-0.5,0.9-0.9,1.6-1.4,2.4c-0.1,0-0.1,0-0.2-0.1c0-0.7,0-1.3,0-2c0-0.1,0.2-0.3,0.3-0.3    C105.5,135.4,105.9,135.4,106.4,135.4z"/>
		<path class="st17" d="M106.8,141.5c0.4-0.3,0.7-0.5,1.1-0.8c0.3,0.2,0.6,0.5,0.9,0.8C108.1,141.5,107.5,141.5,106.8,141.5z"/>
		<path class="st16" d="M107,137.8c0.4,0,0.8,0,1.3,0c-0.2,0.2-0.3,0.4-0.5,0.7c-0.3-0.2-0.6-0.4-0.9-0.6    C107,137.9,107,137.9,107,137.8z"/>
		<path class="st13" d="M100.6,139.6c-0.4,0-0.7,0.1-1.1,0.1c0.2-0.4,0.4-0.7,0.7-1.2C100.4,139,100.5,139.2,100.6,139.6z"/>
		<path class="st0" d="M83.1,112.6c1.7,0,3.4,0,5.1,0c0.7,0,1.2,0.5,1.4,1.2c0.1,0.6,0.2,1.2,0.1,1.7c-0.1,0.9-0.9,1.5-1.9,1.5    c-1.5,0-3.1,0-4.6,0C83.1,115.6,83.1,114.1,83.1,112.6z"/>
		<path class="st0" d="M50.6,140.5c-1.9,0-3.6,0-5.5,0c0.3-0.4,0.5-0.8,0.8-1.2c0.1-0.1,0.2-0.1,0.3-0.1c1.1,0,2.2,0,3.3,0    c0.1,0,0.3,0.1,0.4,0.2C50.1,139.7,50.3,140,50.6,140.5z"/>
		<path class="st17" d="M49.7,143.6c-1.5,0-2.9,0-4.4,0c0-0.4,0-0.7,0-1.1c1.4,0,2.9,0,4.4,0C49.7,142.9,49.7,143.2,49.7,143.6z"/>
		<path class="st17" d="M46.7,137c0-0.4,0-0.9,0-1.3c0.9,0,1.7,0,2.6,0c0,0.4,0,0.8,0,1.3C48.4,137,47.6,137,46.7,137z"/>
		<path class="st12" d="M117.9,136.8c0.8-0.3,1.4-0.6,2-0.8c0.2,0.1,0.4,0.4,0.5,0.4c2.4,0,4.8,0,7.2,0c0-0.2,0-0.3,0-0.6    c0.9,0.3,1.7,0.6,2.7,1C126.2,136.8,122.1,136.8,117.9,136.8z"/>
		<path class="st16" d="M124.9,140.6c0-0.6,0-1.2,0-1.8c0.5,0,0.9,0,1.5,0c-0.2,0.5-0.4,0.9-0.7,1.4c0.1,0.1,0.3,0.2,0.5,0.4    C125.7,140.6,125.4,140.6,124.9,140.6z"/>
		<path class="st17" d="M129.1,140.6c-0.5,0-0.9,0-1.3,0c0.2-0.5,0.4-0.9,0.6-1.4c-0.3-0.1-0.6-0.2-1.1-0.4c0.7,0,1.2,0,1.7,0    C129.1,139.4,129.1,140,129.1,140.6z"/>
		<path class="st17" d="M122.8,138.8c0,0.6,0,1.2,0,1.8c-0.5,0-0.9,0-1.5,0c0.3-0.2,0.6-0.4,0.8-0.6c-0.2-0.4-0.5-0.8-0.7-1.3    C121.9,138.8,122.4,138.8,122.8,138.8z"/>
		<path class="st17" d="M118.9,138.8c0.5,0,0.9,0,1.5,0c-0.4,0.2-0.6,0.4-1,0.6c0.2,0.4,0.5,0.7,0.7,1.2c-0.5,0-0.9,0-1.3,0    C118.9,140,118.9,139.4,118.9,138.8z"/>
		<path class="st16" d="M122.7,134.7c1.5-0.9,0.9-0.8,2.4,0C124.3,134.7,123.5,134.7,122.7,134.7z"/>
		<path class="st18" d="M70.7,141.7c-0.1,0.1-0.2,0.3-0.4,0.3c-1.6,0-3.3,0-4.9,0c-0.1,0-0.2-0.1-0.3-0.2c0.1-0.1,0.2-0.2,0.3-0.2    c1.7,0,3.4,0,5.1,0C70.6,141.6,70.7,141.7,70.7,141.7z"/>
		<path class="st13" d="M65.2,145c1.8,0,3.6,0,5.4,0c0.1,0.3,0.1,0.4-0.3,0.4c-1.6,0-3.2,0-4.8,0c-0.1,0-0.3-0.2-0.4-0.2    C65.1,145.1,65.2,145,65.2,145z"/>
		<path class="st0" d="M67.9,143.6c-0.8,0-1.6,0-2.3,0c-0.1,0-0.2-0.1-0.4-0.2c0.1-0.1,0.2-0.2,0.3-0.2c1.6,0,3.2,0,4.8,0    c0.1,0,0.2,0.1,0.3,0.2c-0.1,0.1-0.2,0.2-0.4,0.2C69.5,143.6,68.7,143.6,67.9,143.6z"/>
		<path class="st19" d="M119.8,147.2c0-0.2,0-0.3,0-0.5c2.8,0,5.6,0,8.4,0c0.1,0,0.2,0.2,0.3,0.2c-0.1,0.1-0.2,0.2-0.3,0.2    C125.4,147.2,122.6,147.2,119.8,147.2z"/>
		<path class="st17" d="M119.8,144.7c2.2,0,4.4,0,6.6,0c0.6,0,1.2,0,1.7,0c0.1,0,0.2,0.2,0.3,0.3c-0.1,0.1-0.2,0.2-0.3,0.2    c-2.6,0-5.2,0-7.8,0c-0.2,0-0.3,0-0.5,0C119.8,145,119.8,144.9,119.8,144.7z"/>
		<path class="st0" d="M64.1,135.9c0.6,0,1.2,0,1.8,0c0.4,0,0.4,0.1,0.3,0.5c-0.6,0-1.3,0-1.9,0c-0.1,0-0.2-0.2-0.4-0.3    C64,136,64,135.9,64.1,135.9z"/>
		<path class="st13" d="M64.8,138.3c-0.3,0-0.5,0-0.8,0c0-0.2,0-0.4,0-0.6c0.3,0,0.5,0,0.8,0C64.8,137.9,64.8,138.1,64.8,138.3z"/>
		<path class="st15" d="M64,134.5c0-0.3,0-0.5,0-0.7c0.2,0,0.4,0,0.7,0c0,0.2,0,0.5,0,0.7C64.4,134.5,64.2,134.5,64,134.5z"/>
		<path class="st20" d="M70.9,137.4c0.2,0.2,0.4,0.2,0.4,0.3c0,0.3-0.1,0.5-0.1,0.8c-0.1-0.1-0.3-0.1-0.3-0.2    C70.8,138.1,70.9,137.9,70.9,137.4z"/>
		<path class="st20" d="M72.4,138.7c0-0.4,0-0.8,0-1.1C72.8,137.7,72.8,138.2,72.4,138.7z"/>
		<path class="st1" d="M79,44.9c-0.6,0-1.6-0.2-2.5-0.6c-1.4-0.7-1.9-1.6-1.5-3.1c0.4-1.7,1.3-3.2,2.4-4.4c1.8-2,4.7-1.4,5.8,0.6    c0.7,1.2,1.2,2.6,1.6,4c0.3,1-0.2,1.8-1.1,2.3C82.5,44.5,80.9,44.8,79,44.9z"/>
		<path class="st8" d="M73.7,33.5c1.2,0,2.3,1.3,1.9,2.8c-0.1,0.3-0.2,0.6-0.4,0.8c-0.2,0.2-0.6,0.3-0.8,0.2    c-0.2-0.1-0.4-0.4-0.4-0.7c-0.1-1-0.6-1.5-1.6-1.1c-0.1,0-0.1,0.1-0.2,0.1c-0.3,0-0.6,0-0.9-0.1c0-0.4-0.1-0.8,0.1-1.1    C71.9,33.6,72.7,33.5,73.7,33.5z"/>
		<path class="st3" d="M86.5,33c1.1,0,2,1.2,1.9,2.2c-0.1,0.4-0.3,0.5-0.7,0.3c-0.9-0.5-1.2-0.5-2,0.3c-0.5,0.5-0.8,0.5-1.1,0.1    c-0.1-0.1-0.2-0.3-0.2-0.5c-0.1-0.8,0.7-2.1,1.4-2.4C86,33.1,86.2,33.1,86.5,33z"/>
	</g>
</g>
</svg>