<svg xmlns="http://www.w3.org/2000/svg" width="300" height="300" viewBox="0 0 57.5 78.5" version="1.0"><g fill="#006946"><path d="M28.137 73.976c-8.805-3.757-16.035-9.333-21.489-16.574-4.351-5.776-7.576-12.608-9.585-20.304-3.405-13.04-2.152-23.943-2.097-24.4l.242-2.017 1.989.415a41.5 41.5 0 008.463.883c13.274 0 21.988-6.56 22.075-6.626l1.133-.868 1.134.868c.019.015 2.232 1.683 6.057 3.326 3.505 1.506 9.13 3.3 16.017 3.3 2.809 0 5.657-.297 8.464-.883l1.988-.415.243 2.017c.055.457 1.307 11.36-2.097 24.4-2.01 7.697-5.235 14.528-9.586 20.305-5.454 7.24-12.684 12.816-21.489 16.573l-.73.312-.732-.312z"/><path d="M28.868 6.832s9.148 7.01 23.208 7.01c2.768 0 5.728-.272 8.844-.922 0 0 5.218 43.44-32.052 59.342C-8.402 56.36-3.184 12.92-3.184 12.92c3.118.65 6.076.922 8.845.922 14.058 0 23.207-7.01 23.207-7.01m-.022-4.74l-2.24 1.779c-.142.105-2.24 1.638-5.782 3.145-3.322 1.414-8.65 3.1-15.164 3.1-2.68 0-5.4-.285-8.083-.845l-3.977-.83-.485 4.034c-.056.472-1.348 11.716 2.145 25.094 2.07 7.932 5.401 14.982 9.9 20.954 5.652 7.505 13.137 13.28 22.245 17.167l1.463.624 1.463-.624c9.108-3.886 16.593-9.662 22.245-17.166 4.499-5.972 7.83-13.022 9.9-20.955 3.493-13.378 2.201-24.621 2.145-25.094l-.485-4.034-3.977.83c-2.683.56-5.402.844-8.083.844-6.515 0-11.842-1.685-15.165-3.098-3.557-1.514-5.657-3.054-5.782-3.147l-2.283-1.778z"/></g><path d="M28.502 73.119c-8.653-3.692-15.755-9.168-21.11-16.277-4.277-5.68-7.45-12.401-9.428-19.979-3.36-12.87-2.127-23.604-2.073-24.054l.121-1.009.994.208c2.87.599 5.782.903 8.655.903 7.073 0 12.847-1.85 16.445-3.403 3.912-1.687 6.174-3.399 6.196-3.416l.567-.432.566.433c.022.016 2.283 1.728 6.195 3.416C39.227 11.06 45 12.91 52.076 12.91a42.44 42.44 0 008.654-.903l.994-.208.121 1.009c.055.45 1.287 11.183-2.073 24.054-1.978 7.578-5.15 14.3-9.428 19.979-5.355 7.109-12.457 12.585-21.11 16.277l-.366.156-.366-.156z" fill="#006946"/><path d="M28.868 6.832s9.148 7.01 23.208 7.01c2.768 0 5.728-.272 8.844-.922 0 0 5.218 43.44-32.052 59.342C-8.402 56.36-3.184 12.92-3.184 12.92c3.118.65 6.076.922 8.844.922 14.059 0 23.208-7.01 23.208-7.01m0-2.347l-1.13.866c-.022.017-2.236 1.685-6.06 3.328-3.507 1.505-9.131 3.3-16.018 3.3-2.808 0-5.656-.297-8.463-.883l-1.99-.415-.241 2.017c-.014.116-.341 2.896-.246 7.298.087 4.042.564 10.29 2.343 17.102 2.009 7.696 5.234 14.528 9.585 20.304 5.454 7.241 12.684 12.817 21.489 16.574l.731.312.731-.312c8.805-3.757 16.035-9.333 21.49-16.574 4.35-5.776 7.575-12.608 9.585-20.304 1.778-6.811 2.255-13.06 2.342-17.102.095-4.402-.232-7.182-.246-7.298l-.242-2.017-1.989.415a41.505 41.505 0 01-8.463.883C38.8 11.979 30.088 5.419 30 5.353l-1.133-.868z" fill="#fff"/><path d="M46.66 30.013c-.554-.797-1.305-1.06-1.493-1.329-.188-.268-.17-1.063-.723-1.862-1.047-1.506-1.995-.978-2.793-.424-.847.588-1.61 1.84-2.028 2.975-.2.521-.22.783-.318.773-.068-.008-.093-.084-.113-.324a8.597 8.597 0 00-.024-.422l-.002-.018c-.093-1.065-.376-2.189-.864-2.89-.555-.796-1.259-1.621-2.766-.577-.797.556-1.057 1.306-1.328 1.493a.078.078 0 01-.024.013 12.708 12.708 0 00-.364-.253c-1.61-1.078-2.978-1.49-3.037-1.508a16.28 16.28 0 00-2.32-.52c-.112-.566-.209-1.235-.209-1.821a3.035 3.035 0 01.1-.862c.073-.205.126-.222.232-.102.078.103.17.237.234.355.622 1.146 2.669 2.767 4.31 2.937.963.1 2.047.106 2.236-1.719.103-.965-.296-1.654-.262-1.98.033-.326.565-.917.666-1.883v-.001l.003-.003c.19-1.823-.874-2.042-1.838-2.142-.416-.042-.893.007-1.384.116l-.013.002c-.091.02-.182.046-.274.07l-.06.015a4.294 4.294 0 00-.197.059c-.031.01-.062.018-.091.029-.07.021-.14.044-.209.07-.054.017-.104.037-.157.055l-.057.022c-.181.07-.359.142-.53.222v-.001c-.544.25-.715.341-.77.261-.026-.04.014-.093.098-.181.148-.14.3-.297.448-.468l.013-.013c.57-.654 1.108-1.493 1.41-2.297l.008-.025c.033-.084.06-.168.086-.252l.002-.005c.013-.041.023-.08.034-.118a.889.889 0 01.015-.053c.014-.06.029-.118.04-.177l.014-.065.017-.098.01-.077c.003-.024.008-.048.01-.07.102-.966.105-2.05-1.72-2.24-.965-.1-1.654.299-1.982.264-.325-.032-.915-.565-1.882-.666-1.825-.189-2.043.875-2.144 1.839l-.004.068-.009.154v.115l.002.124c.001.041.005.083.007.125l.01.12c.01.086.02.173.035.263l.013.087.03.165.018.083c.013.06.025.12.04.179l.014.051a8.36 8.36 0 00.81 2.003l.08.143h.001c.202.344.327.487.266.545-.05.046-.124.015-.317-.124a16.807 16.807 0 00-.338-.257l-.007-.006-.006-.005h-.002l-.011-.007c-.864-.624-1.898-1.137-2.746-1.227-.965-.099-2.048-.104-2.241 1.722-.1.963.298 1.651.264 1.978-.031.326-.566.919-.666 1.883-.099.971.153 1.488.557 1.773.358.255.833.328 1.287.376l.004-.003c1.67.167 4.227-.902 4.934-1.755.275-.333.383-.47.49-.47.21 0 .174.258.174.434 0 .629.08 1.557.166 2.364a12.591 12.591 0 00-1.011-.042c-1.848 0-2.974.415-3.214.513a14.67 14.67 0 00-1.177.477.617.617 0 01-.152-.024c-.312-.104-.774-.751-1.693-1.059-1.74-.58-2.184.41-2.491 1.331-.276.823-.226 1.992-.002 3.042h-.002c.128.584.18.774.088.808-.042.018-.088-.033-.155-.134a6.56 6.56 0 00-.358-.54c-.004-.005-.006-.01-.011-.015v.001c-.722-.98-1.814-1.981-2.803-2.31-.922-.309-1.978-.547-2.56 1.192-.306.921-.067 1.68-.17 1.99-.104.313-.752.774-1.059 1.695-.579 1.74.41 2.184 1.331 2.491.978.327 2.432.19 3.59-.154.543-.153.766-.295.817-.209.035.058-.012.125-.19.283a8.039 8.039 0 00-.331.279c-.003.002-.004.005-.008.007-.798.71-1.528 1.612-1.797 2.421-.31.922-.547 1.98 1.193 2.561.919.306 1.677.066 1.99.17.311.104.773.752 1.694 1.06 1.739.58 2.184-.41 2.492-1.332.469-1.408-.022-3.805-.706-4.886.97.795 1.23.968 1.71 1.268.082.05 1.367.868 1.367.868s7.292 5.235 1.57 14.377c-.009.014-.017.029-.027.043-.011.027-.014.053-.003.073.01.021.036.034.067.038h6.153s.094-.007.066-.115c-.026-.107-2.728-10.162 1.533-12.29 1.91-.339 2.998-1.182 3.215-1.367.52-.39.875-.778 1.106-1.163l.012-.02c-.086 1.284.183 2.994.848 3.951.554.797 1.26 1.62 2.764.576.8-.554 1.06-1.307 1.327-1.492.271-.188 1.067-.17 1.863-.724 1.508-1.048.98-1.996.426-2.793-.495-.711-1.462-1.373-2.437-1.822-.01-.004-.019-.01-.027-.012l-.02-.01c-.507-.231-.678-.3-.652-.391.01-.046.08-.051.203-.042.202.02.417.032.64.034h.023c1.216.008 2.671-.27 3.526-.864.8-.553 1.623-1.258.577-2.764m-18.23 18.05c-.12.196-.132.252-.175.24-.034-.007-.002-.056.027-.24-.09.564 1.271-6.722-1.727-9.937 0 0-.09-.136.087-.108.032.004.072.027.123.044 1.284.464 2.52.698 2.584.71 0 0 .514.348.554 2.128.094 4.17-1.052 6.477-1.474 7.163m6.877-11.471c-1.078.716-2.632 1.306-5.062 1.049-2.546-.271-5.624-1.268-8.609-3.883-.594-.52-1.644-2.032-1.132-3.824.173-.605 1.185-.867 1.942-.89 1.67-.05 3 .19 4.225.49.012.232.068.43.066.584 0 .015 0 .026-.002.04v.018l.002.004v.006a.213.213 0 00.18.192l.005.002.004.002h.023a.2.2 0 00.034-.002h.001l.003-.002h.008l.005-.001h.004l.003-.002h.004a.22.22 0 00.156-.199v-.009a1.643 1.643 0 01.124-.498c.239.053.481.113.728.175-.009.056-.013.11-.013.16.004.258.072.474.07.642 0 .01 0 .025-.002.04v.001a.215.215 0 00.205.222h.009c.114 0 .21-.09.215-.205 0-.007 0-.014.002-.022a1.65 1.65 0 01.202-.648c.212.062.424.126.638.196a.913.913 0 00-.04.274c.003.256.07.474.067.641v.04a.214.214 0 00.019.1h.001l.002.003.002.001.001.003.001.005a.249.249 0 00.062.07l.004.002v.002a.21.21 0 00.116.037h.007a.219.219 0 00.096-.022l.004-.002.002-.003h.002l.003-.002h.002v-.002h.004l.001-.002a.269.269 0 00.06-.056l.004-.004v-.002l.002-.003h.001l.001-.004.002-.001.001-.003v-.001l.003-.004a.23.23 0 00.027-.095v-.011c.006-.146.052-.302.109-.465a1.16 1.16 0 01.136-.255c2.1.744 4.176 1.876 5.91 3.602.719.778.362 1.847-.65 2.519m1.397-2.54c-.12.006-.343-.093-.776-.52-1.663-1.628-3.62-2.717-5.533-3.443a.354.354 0 00.058-.291.247.247 0 00-.211-.195.224.224 0 00-.093-.004s-.255.061-.287.097a1.066 1.066 0 00-.222.123 31.51 31.51 0 00-.577-.184l.029-.037a.368.368 0 00.064-.299.251.251 0 00-.206-.192.203.203 0 00-.098-.007s-.258.06-.289.096a.98.98 0 00-.32.209 24.522 24.522 0 00-.673-.165l.07-.055c.035-.029.077-.062.115-.116a.356.356 0 00.064-.298.25.25 0 00-.206-.193.22.22 0 00-.098-.006s-.258.062-.288.097a.905.905 0 00-.447.37l-.014.032c-1.993-.383-3.262-.446-3.97-.447-.247 0-.37.02-.65.04-.14.01-.404.058-.544.058-.222 0-.351-.07-.431-.137-.04-.031-.1-.074-.1-.175-.006-.176.147-.397.407-.611.386-.323.98-.629 1.473-.85.496-.221.89-.361.89-.361h.004l.004-.002s.056-.025.174-.065c.355-.123 1.237-.37 2.572-.37.983 0 2.215.135 3.66.555 0 0 .298.087.772.29 1.43.609 4.436 2.262 5.61 5.69 0 0 .055.166.112.384.056.218.11.486.11.675 0 .175-.075.306-.155.308m-18.708 24.76c0 1.265.022 1.776.055 2.036.075.557.207.689.926.797.12.021.174.118.174.216 0 .088-.044.175-.141.175h-3.114c-.1 0-.143-.087-.143-.175 0-.098.055-.195.175-.216.762-.108.87-.251.915-.797.021-.26.054-.76.054-2.045V57.29c0-1.274-.033-1.884-.054-2.145-.045-.546-.099-.676-.86-.784-.12-.022-.175-.12-.175-.219 0-.087.042-.174.142-.174h2.928c.099 0 .142.087.142.174 0 .099-.054.197-.173.219-.721.108-.721.229-.796.784-.033.261-.055.871-.055 2.122v1.546zm5.053-.238c-.11-.164-.186-.296-.186-.37 0-.088.067-.13.208-.13.947 0 1.95-.535 1.95-1.852 0-1.122-.796-1.733-2.09-1.733-.166 0-.46.022-.558.067v4.126c0 1.764.033 1.993.077 2.33.055.393.173.525.894.633.119.021.172.118.172.216 0 .088-.042.175-.14.175H20.27c-.097 0-.141-.087-.141-.175 0-.098.053-.195.173-.216.763-.108.871-.252.916-.797.02-.26.054-.76.054-2.045v-1.558c0-1.274-.033-1.84-.054-2.101-.045-.546-.1-.676-.86-.784-.121-.022-.176-.12-.176-.219 0-.087.045-.174.142-.174h2.93c1.491 0 2.952.611 2.952 2.179 0 1.306-1.091 2.026-2.059 2.188l1.775 2.461c.49.674.772.914 1.348 1.208.056.023.088.066.088.12 0 .12-.239.153-.631.153-.828 0-1.318-.141-1.58-.534l-2.1-3.168zm6.751-1.035c.261.033.49.054.783.054 1.079 0 1.46-.032 1.622-.893.023-.12.121-.174.219-.174.087 0 .175.044.175.142 0 .316-.067.664-.067 1.23 0 .62.067.84.067 1.069 0 .096-.088.141-.175.141a.215.215 0 01-.22-.176c-.107-.793-.553-.816-1.588-.816-.305 0-.534 0-.816.044v.685c0 1.264.021 1.744.054 2.003.075.557.457.698 1.362.796.118.01.172.119.172.218 0 .087-.04.174-.14.174h-3.55c-.099 0-.141-.087-.141-.174 0-.1.056-.196.174-.218.76-.107.871-.25.914-.796.023-.26.056-.728.056-2.013v-1.59c0-1.274-.033-1.84-.056-2.102-.043-.545-.097-.675-.86-.783-.12-.022-.172-.12-.172-.219 0-.087.041-.174.139-.174h5.196c.238 0 .402.087.402.317v1.589c0 .12-.098.184-.197.184a.215.215 0 01-.218-.206c-.086-.86-.489-1.328-1.187-1.328h-1.393c-.164 0-.457.02-.555.065v2.95zm6.043 1.85c0 1.418.915 2.134 2.091 2.134 1.426 0 2.221-.706 2.221-1.73v-2.548c0-1.274-.032-1.84-.055-2.101-.043-.546-.099-.676-.86-.784-.12-.022-.174-.12-.174-.219 0-.087.043-.174.142-.174h2.635c.097 0 .142.087.142.174 0 .099-.055.197-.175.219-.718.108-.718.228-.795.784-.032.261-.032.827-.054 2.078l-.033 2.42c-.022 1.708-1.273 2.502-3.2 2.502-1.624 0-2.996-.74-2.996-2.699v-2.2c0-1.274-.033-1.84-.055-2.101-.042-.546-.097-.676-.86-.784-.12-.022-.175-.12-.175-.219 0-.087.045-.174.144-.174h2.928c.098 0 .141.087.141.174 0 .099-.053.197-.174.219-.718.108-.718.228-.795.784-.033.261-.043.827-.043 2.078v2.167z" fill="#fff"/></svg>