<svg xmlns="http://www.w3.org/2000/svg" viewBox="0 0 198.62 234.54"><defs><clipPath id="a" transform="translate(-14.27 -4.48)"><path d="M200.36 9.78H31c-4.65 0-6.86.93-8.72 2.79a9.07 9.07 0 00-2.79 6.62v112.9a67.54 67.54 0 004.92 25.06 93.47 93.47 0 0012.21 22A135.79 135.79 0 0054 198a204.71 204.71 0 0018.6 15.14q8.52 6 17.79 11.39t13.16 7.28q3.89 1.91 6.24 2.94a8.42 8.42 0 003.83.88 8.54 8.54 0 003.82-.88c1.56-.69 3.65-1.67 6.24-2.94s7-3.71 13.16-7.28 12.11-7.38 17.79-11.39A204.71 204.71 0 00173.2 198a136.37 136.37 0 0017.34-18.75 93.82 93.82 0 0012.21-22 67.54 67.54 0 004.92-25.06V19.18a9.06 9.06 0 00-2.79-6.61 10.36 10.36 0 00-4.52-2.79z" fill="#fff"/></clipPath></defs><path d="M186.09 5.3H16.73c-4.65 0-6.86.93-8.72 2.79a9.07 9.07 0 00-2.79 6.62v112.9a67.54 67.54 0 004.92 25.06 93.47 93.47 0 0012.21 22 135.79 135.79 0 0017.38 18.85 204.71 204.71 0 0018.6 15.14q8.52 6 17.79 11.39t13.16 7.28q3.89 1.91 6.24 2.94a8.42 8.42 0 003.83.88 8.54 8.54 0 003.82-.88c1.56-.69 3.65-1.67 6.24-2.94s7-3.71 13.16-7.28 12.11-7.38 17.79-11.39a204.71 204.71 0 0018.57-15.14 136.37 136.37 0 0017.34-18.75 93.82 93.82 0 0012.21-22 67.54 67.54 0 004.92-25.06V14.7a9.06 9.06 0 00-2.79-6.61 10.36 10.36 0 00-4.52-2.79z" fill="#fff"/><g clip-path="url(#a)"><path d="M122.89 99.31l73.77-73.79a6.69 6.69 0 000-9.47l-14.1-14.09a6.7 6.7 0 00-9.47 0L99.31 75.74 25.54 1.96a6.7 6.7 0 00-9.47 0L1.97 16.07a6.69 6.69 0 000 9.47l73.76 73.77-73.75 73.76a6.7 6.7 0 000 9.48l14.1 14.1a6.7 6.7 0 009.47 0l73.76-73.76 73.77 73.76a6.7 6.7 0 009.47 0l14.1-14.1a6.7 6.7 0 000-9.48z" fill="#a63132"/></g><path d="M186.25 7.43a4.38 4.38 0 013.3 1.42 4.43 4.43 0 011.44 3.34v116a64.79 64.79 0 01-4.71 23.95 91.5 91.5 0 01-11.87 21.51 134.87 134.87 0 01-17.17 18.58 202.31 202.31 0 01-18.61 15.19c-5.66 4-11.67 7.87-17.87 11.47s-10.62 6-13.19 7.31-4.7 2.27-6.23 2.94l-.11.05h-.1a4 4 0 01-3.46 0h-.1l-.11-.05c-1.51-.67-3.55-1.63-6.22-2.93s-7-3.72-13.2-7.32-12.22-7.47-17.87-11.47a202.31 202.31 0 01-18.61-15.19 135 135 0 01-17.17-18.58 91.89 91.89 0 01-11.88-21.51 64.9 64.9 0 01-4.7-23.95v-116a4.42 4.42 0 011.43-3.33 4.39 4.39 0 013.31-1.43h173.7m0-4.91H12.55a9.26 9.26 0 00-6.82 2.87 9.28 9.28 0 00-2.87 6.8v116a69.43 69.43 0 005 25.76 96.14 96.14 0 0012.61 22.67 138.67 138.67 0 0017.79 19.26 207.24 207.24 0 0019.07 15.56q8.75 6.18 18.25 11.7t13.49 7.48c2.67 1.3 4.8 2.31 6.41 3a8.55 8.55 0 003.92.9 8.68 8.68 0 003.92-.9c1.61-.71 3.74-1.71 6.41-3s7.16-3.81 13.49-7.48 12.42-7.58 18.25-11.7a210 210 0 0019.07-15.56 140.44 140.44 0 0017.79-19.26 96.14 96.14 0 0012.52-22.66 69.43 69.43 0 005-25.76v-116a9.32 9.32 0 00-2.87-6.8 9.23 9.23 0 00-6.73-2.88z" fill="#2f603a"/><path d="M71.83 43.52l2.7-4.14a23.53 23.53 0 016.26-4.24 19.81 19.81 0 017.7-1.9 12.6 12.6 0 016.74 1.9c1.69 1.29 2.38 2.87 3.85 2.85 1.07 0 1.65-.85 2.89-1.9a11.75 11.75 0 019.63-2.85 18.8 18.8 0 0114.67 10.53 17.73 17.73 0 011.7 7.55 18.84 18.84 0 01-1 5.71c-.6 2-1.22 3.81-1.93 5.71-.77 2.06-1 3.72-1.92 5.71-3 6.25-9.56 11-13.48 13.32a11.78 11.78 0 00-4.78 4.75 10.53 10.53 0 00-1 5.71 17.35 17.35 0 008.67-7.62 33.24 33.24 0 016.74-6.66 34.8 34.8 0 0112.51-5.71c7.51-1.87 14.19-.93 16.37 0a17.66 17.66 0 018.67 7.61 17.36 17.36 0 011.97 7.67c.17 4.41-1 7.63-1.93 8.56-.46.48-2.93 1.83-2.89 2.86 0 .8 1.06 1.21 1.93 1.9 1 .82 2.54 3.51 2.89 7.61a15.18 15.18 0 01-1 6.66c-1 1.61-2 3.21-2.89 4.76a13.61 13.61 0 01-3.85 4.76 14.62 14.62 0 01-3.85 1.9 19.46 19.46 0 01-4.81 1 39.39 39.39 0 01-13.45-2.01c-1-.3-2.15-.65-2.89-.95a33.47 33.47 0 01-8.67-5.71 33 33 0 01-3.85-3.81c-.6-.81-2.34-4.74-4.82-6.66a11.15 11.15 0 00-3.98-1.87l-.87.69v18.31s.08 8.68 0 10.47a37.24 37.24 0 000 3.81 39 39 0 001 6.66c.9 4 1.86 8.23 2.89 10.47a32.83 32.83 0 005.78 8.59H85.6a55 55 0 003.86-4.76 54.6 54.6 0 001.92-2.85 72.64 72.64 0 002.89-11.39 75.24 75.24 0 001-9.52c.23-5.31.17-10.13 0-15.22-.16-4.78-.16-9.55 0-14.47l-1-.92a13 13 0 00-3.82 1.11 8.79 8.79 0 00-4.82 4.76 22.65 22.65 0 01-1.9 2.82 35 35 0 01-4.82 4.76 33.45 33.45 0 01-3.85 2.86 28.8 28.8 0 01-3.85 1.9 36.41 36.41 0 01-5.78 1.9 32.75 32.75 0 01-7.7 1 21.13 21.13 0 01-6.74-1 13.94 13.94 0 01-3.85-1.9 13.24 13.24 0 01-2.89-2.85 17.56 17.56 0 01-3.85-5.71c-1.19-2.87-2.54-8.14 0-12.37a11.15 11.15 0 013.85-3.81L40.4 95.1a25 25 0 01-1-7.61 19.59 19.59 0 011-5.71 19.2 19.2 0 014.81-6.66 22.76 22.76 0 013.85-2.86 44.42 44.42 0 0118.3 0 35.31 35.31 0 019.63 4.76 35.69 35.69 0 018.66 8.56 18 18 0 004.82 4.76 15.28 15.28 0 004.81 1.91 11 11 0 00-1-5.71 10.83 10.83 0 00-1.93-2.86 29.85 29.85 0 00-2.88-1.9c-1.31-.76-2.59-1.3-3.86-1.91-1.82-.86-5.59-4.12-8.66-8.56-5.36-7.74-6.83-14.9-6.74-19a27.39 27.39 0 011.62-8.79z" fill="#71b444" fill-rule="evenodd"/></svg>