<svg xmlns="http://www.w3.org/2000/svg" width="1000" height="1000" viewBox="-134.292 0 1000 1000" overflow="visible"><path fill="#006643" d="M721.556 354.74c-11.081-15.94-26.099-21.186-29.855-26.591-3.756-5.39-3.392-21.273-14.466-37.226-20.944-30.13-39.906-19.577-55.853-8.497-16.943 11.786-32.182 36.777-40.565 59.508-3.988 10.435-4.377 15.648-6.371 15.432-1.316-.144-1.837-1.665-2.238-6.468a169.24 169.24 0 00-.508-8.406c0-.135-.013-.257-.013-.395h-.013c-1.831-21.308-7.531-43.753-17.263-57.787-11.105-15.95-25.171-32.448-55.313-11.529-15.928 11.083-21.17 26.092-26.575 29.836-.138.104-.326.191-.477.285a252.21 252.21 0 00-7.306-5.095c-32.188-21.546-59.527-29.764-60.719-30.143-16.68-4.991-32.193-8.302-46.44-10.372-2.213-11.331-4.151-24.697-4.145-36.442-.05-6.572.643-12.491 2.01-17.248 1.436-4.107 2.483-4.415 4.659-2.041 1.518 2.057 3.386 4.734 4.662 7.089 12.428 22.941 53.364 55.351 86.159 58.766 19.302 2.003 40.979 2.104 44.761-34.373 2.057-19.336-5.945-33.084-5.268-39.609.677-6.537 11.318-18.364 13.331-37.668v-.047l.069-.009c3.781-36.495-17.477-40.863-36.79-42.857-8.29-.859-17.834.106-27.673 2.32-.081.019-.156.034-.244.053-1.818.414-3.649.868-5.493 1.364-.389.104-.777.219-1.166.326-1.323.37-2.646.759-3.976 1.167-.603.185-1.204.363-1.807.558-1.404.449-2.803.922-4.201 1.411-1.041.367-2.069.746-3.11 1.129-.389.144-.771.292-1.153.439a175.24 175.24 0 00-10.592 4.415l-.006-.016c-10.849 5.001-14.304 6.829-15.388 5.224-.515-.768.263-1.85 1.956-3.612a137.014 137.014 0 008.974-9.347c.081-.097.169-.185.257-.282h-.013c11.4-13.075 22.154-29.864 28.181-45.939l.182-.486a94.973 94.973 0 001.712-5.035c.013-.05.037-.104.05-.153a71.48 71.48 0 00.671-2.324c.095-.351.183-.699.282-1.05.308-1.191.583-2.376.828-3.549.094-.439.188-.881.275-1.317.113-.646.227-1.283.326-1.919.082-.527.15-1.044.214-1.564.062-.47.15-.95.2-1.417 2.032-19.323 2.088-40.991-34.382-44.775-19.313-1.997-33.091 5.97-39.634 5.292-6.528-.674-18.338-11.309-37.643-13.325-36.511-3.784-40.882 17.473-42.885 36.777-.047.436-.047.903-.082 1.345a66.929 66.929 0 00-.182 3.085 62.294 62.294 0 00-.01 2.289 74.3 74.3 0 00.05 2.483c.031.825.069 1.652.128 2.493.057.799.138 1.611.22 2.42.166 1.728.389 3.477.662 5.249.087.577.16 1.151.26 1.734.188 1.101.407 2.21.63 3.32.11.558.223 1.116.342 1.674.254 1.182.524 2.364.812 3.556.088.345.179.689.27 1.038 3.511 13.883 9.418 28.08 16.194 40.044a133.693 133.693 0 001.615 2.834c.006.009.012.022.019.031 4.042 6.882 6.531 9.735 5.286 10.901-.965.903-2.458.311-6.33-2.505-.104-.079-.21-.154-.311-.232a175.326 175.326 0 00-6.415-4.875c-.05-.038-.097-.072-.145-.11-.062-.05-.116-.088-.179-.135l-.006.003c-.065-.05-.138-.097-.204-.147-17.301-12.469-37.966-22.734-54.906-24.509-19.333-1.997-41.004-2.098-44.829 34.398-1.994 19.307 5.967 33.059 5.28 39.599-.64 6.528-11.309 18.354-13.319 37.668-2.013 19.404 3.054 29.726 11.149 35.441 7.133 5.092 16.646 6.562 25.735 7.513l.069-.057c33.366 3.364 84.557-18.028 98.675-35.106 5.497-6.644 7.657-9.365 9.801-9.365 4.189 0 3.486 5.126 3.486 8.632 0 12.579 1.621 31.162 3.32 47.281a259.72 259.72 0 00-20.216-.806c-36.972 0-59.493 8.284-64.284 10.24-2.515.884-12.168 4.352-23.568 9.56-1.151-.075-2.167-.223-3.01-.505-6.236-2.076-15.473-15.024-33.884-21.169-34.805-11.613-43.681 8.199-49.814 26.606-5.496 16.457-4.493 39.862-.028 60.863l-.022.009c2.524 11.667 3.559 15.442 1.759 16.15-.862.332-1.75-.649-3.101-2.684-2.094-3.524-4.502-7.152-7.177-10.798a9.642 9.642 0 00-.223-.308v.006c-14.438-19.602-36.292-39.593-56.063-46.189-18.426-6.17-39.564-10.933-51.171 23.844-6.142 18.42-1.352 33.589-3.437 39.834-2.072 6.227-15.009 15.445-21.167 33.855-11.595 34.827 8.205 43.7 26.622 49.842 19.542 6.515 48.607 3.778 71.814-3.082 10.861-3.06 15.291-5.897 16.313-4.164.674 1.138-.229 2.464-3.816 5.641a174.83 174.83 0 00-6.587 5.568c-.06.05-.109.094-.169.141l.003.006c-15.981 14.212-30.551 32.219-35.962 48.419-6.142 18.442-10.936 39.581 23.866 51.225 18.417 6.12 33.567 1.329 39.803 3.411 6.233 2.051 15.47 15.024 33.89 21.17 34.79 11.601 43.672-8.189 49.833-26.612 9.387-28.181-.43-76.117-14.1-97.741 19.376 15.924 24.568 19.37 34.213 25.362 1.611 1.003 27.305 17.351 27.305 17.351s145.853 104.71 31.404 287.563c-.172.276-.345.559-.521.841-.254.558-.304 1.078-.079 1.485.232.421.721.665 1.361.747h123.056s1.881-.113 1.329-2.308c-.539-2.126-54.593-203.238 30.664-245.804 38.125-6.747 59.928-23.628 64.273-27.315 10.403-7.81 17.495-15.573 22.13-23.28.081-.135.15-.272.231-.407-1.693 25.719 3.662 59.881 16.975 79.044 11.08 15.928 25.151 32.413 55.257 11.494 15.99-11.067 21.183-26.104 26.575-29.842 5.405-3.75 21.302-3.398 37.235-14.473 30.144-20.932 19.583-39.913 8.51-55.828-9.896-14.256-29.24-27.478-48.742-36.47l-.521-.241c-.145-.063-.282-.128-.42-.191-10.115-4.612-13.551-6.017-13.05-7.829.251-.894 1.605-1.007 4.095-.866 4.026.423 8.309.662 12.773.706.15 0 .302.006.464.006l-.012-.006c24.349.166 53.444-5.38 70.557-17.27 15.986-11.071 32.453-25.151 11.534-55.269zM356.958 715.713c-2.408 3.926-2.63 5.042-3.493 4.848-.702-.157-.06-1.173.523-4.848C352.201 727 379.41 581.29 319.456 516.984c0 0-1.793-2.678 1.724-2.157.64.094 1.468.514 2.48.878 25.672 9.287 50.426 13.952 51.667 14.209 0 0 10.271 6.954 11.074 42.56 1.894 83.399-21.044 129.544-29.443 143.239zm137.538-229.408c-21.571 14.31-52.668 26.133-101.259 20.959-50.934-5.418-112.471-25.34-172.174-77.637-11.864-10.394-32.874-40.65-22.646-76.483 3.455-12.109 23.712-17.348 38.837-17.799 33.417-1.003 60.023 3.8 84.513 9.842.226 4.612 1.367 8.572 1.311 11.654 0 .254-.006.521-.019.793a3.366 3.366 0 000 .348v.038l.006.056.006.082v.013a4.292 4.292 0 003.594 3.894c.031.003.063.009.091.013.013.003.028.003.041.006a.496.496 0 00.062.006.536.536 0 00.069.006c.013.003.025.006.038.006.034.003.065.006.094.006h.013c.041.006.075.006.113.006.06.006.116.006.172.006.213 0 .423-.016.63-.047 0 0 .009-.003.016-.003a.606.606 0 00.082-.013l.031-.006c.022-.003.044-.006.066-.012.016-.003.028-.003.047-.009a2.205 2.205 0 00.103-.023l.041-.009a.296.296 0 00.062-.016c.013-.003.022-.006.031-.006l.075-.025h.01a4.301 4.301 0 003.11-4.119c.125-2.938 1.044-6.051 2.208-9.344.069-.219.185-.442.273-.658a489.702 489.702 0 0114.588 3.534c-.175 1.097-.282 2.182-.279 3.208.062 5.11 1.43 9.465 1.364 12.805 0 .257-.003.52-.016.796h.003c0 .013-.003.028-.003.044a4.296 4.296 0 004.135 4.434c.057.006.11.006.163.006a4.31 4.31 0 004.295-4.12c.006-.138.009-.276.013-.414.15-2.841 1.063-5.882 2.185-9.114.433-1.257 1.085-2.518 1.9-3.854a447.077 447.077 0 0112.748 3.922 18.862 18.862 0 00-.815 5.477c.062 5.114 1.43 9.479 1.361 12.827 0 .286-.007.542-.007.791-.024.693.113 1.37.396 1.978 0 .006 0 .006.006.006.013.028.025.057.038.082 0 .013.013.019.013.031a.238.238 0 01.024.053l.038.063c.006.009.006.013.013.022a4.322 4.322 0 001.241 1.411l.057.038c.006.006.019.013.024.019a4.27 4.27 0 002.289.755c.051.003.106.003.163.003.665 0 1.311-.154 1.9-.445l.081-.041.013-.006.062-.035.038-.019c.013-.01.024-.019.037-.025.025-.013.038-.022.051-.031a.037.037 0 00.024-.016c.025-.013.051-.025.075-.041v-.003c.471-.298.878-.68 1.204-1.129v-.003a.474.474 0 00.051-.075s.013-.009.013-.013l.037-.062c.006-.01.013-.016.019-.025.013-.019.02-.038.031-.056a.095.095 0 00.025-.035c.013-.019.025-.034.031-.053l.019-.035a4.233 4.233 0 00.577-1.987v-.201c.138-2.928 1.041-6.039 2.183-9.309.552-1.63 1.53-3.286 2.709-5.104 42.007 14.871 83.537 37.524 118.214 72.056 14.393 15.543 7.237 36.952-12.978 50.365zm27.928-50.764c-2.42.088-6.897-1.884-15.538-10.428-33.247-32.576-72.401-54.335-110.652-68.868.74-1.035 1.373-2.552 1.354-4.182a7.44 7.44 0 00-.188-1.652c-.188-1.191-1.216-2.671-2.383-3.261a5.153 5.153 0 00-1.831-.608 4.185 4.185 0 00-1.855-.097s-5.13 1.22-5.757 1.931c-1.511.643-3.022 1.446-4.439 2.483a425.172 425.172 0 00-11.563-3.693c.207-.223.408-.467.615-.74.777-1.035 1.467-2.624 1.441-4.327 0-.574-.068-1.128-.182-1.649-.238-1.279-1.298-2.722-2.445-3.28a5.332 5.332 0 00-1.662-.567 4.25 4.25 0 00-1.962-.132s-5.145 1.217-5.778 1.932c-2.239.95-4.474 2.248-6.402 4.16a461.033 461.033 0 00-13.473-3.292c.395-.323.865-.684 1.43-1.113.693-.562 1.511-1.229 2.295-2.289.784-1.031 1.474-2.624 1.455-4.33 0-.571-.066-1.113-.179-1.63-.213-1.217-1.235-2.678-2.398-3.264a5.302 5.302 0 00-1.74-.599 4.273 4.273 0 00-1.938-.119s-5.155 1.22-5.788 1.938c-3.308 1.408-6.634 3.546-8.907 7.381-.125.213-.201.436-.313.652-39.834-7.638-65.228-8.942-79.384-8.958-4.944 0-7.399.401-13.005.815-2.8.204-8.073 1.164-10.864 1.164-4.458-.013-7.048-1.408-8.622-2.719-.787-.661-2.05-1.499-2.05-3.515-.069-3.537 3.003-7.948 8.189-12.234 7.707-6.446 19.577-12.56 29.462-16.987 9.895-4.439 17.774-7.211 17.79-7.217l.078-.028.066-.028c.006-.003 1.138-.514 3.499-1.323 7.086-2.439 24.741-7.383 51.404-7.383 19.703 0 44.321 2.699 73.235 11.115.013.003 5.944 1.73 15.464 5.791 28.601 12.193 88.667 45.228 112.169 113.797 0-.003 1.116 3.33 2.245 7.688 1.129 4.339 2.22 9.723 2.22 13.476-.002 3.52-1.557 6.135-3.113 6.189zM156.569 930.747c0 25.271.436 35.505 1.088 40.729 1.527 11.105 4.139 13.727 18.511 15.896 2.395.439 3.486 2.396 3.486 4.358 0 1.737-.872 3.48-2.831 3.48H114.54c-1.962 0-2.831-1.743-2.831-3.48 0-1.963 1.085-3.919 3.48-4.358 15.247-2.169 17.423-5.004 18.294-15.896.439-5.224 1.088-15.244 1.088-40.941v-30.274c0-25.478-.649-37.675-1.088-42.904-.872-10.886-1.959-13.494-17.204-15.677-2.396-.433-3.486-2.396-3.486-4.352 0-1.743.875-3.486 2.834-3.486h58.58c1.96 0 2.832 1.743 2.832 3.486 0 1.956-1.088 3.919-3.483 4.352-14.373 2.183-14.373 4.578-15.899 15.677-.652 5.229-1.088 17.427-1.088 42.472v30.918zm101.046-4.79c-2.176-3.261-3.7-5.876-3.7-7.399 0-1.743 1.308-2.615 4.136-2.615 18.947 0 38.984-10.666 38.984-37.022 0-22.43-15.899-34.626-41.812-34.626-3.267 0-9.149.433-11.109 1.311v82.534c0 35.279.652 39.856 1.524 46.604 1.091 7.839 3.487 10.46 17.859 12.629 2.396.439 3.483 2.396 3.483 4.358 0 1.737-.869 3.48-2.831 3.48h-62.064c-1.963 0-2.831-1.743-2.831-3.48 0-1.963 1.088-3.919 3.48-4.358 15.247-2.169 17.423-5.004 18.295-15.896.438-5.224 1.088-15.244 1.088-40.941v-31.14c0-25.484-.649-36.81-1.088-42.039-.872-10.886-1.96-13.494-17.204-15.677-2.396-.433-3.483-2.396-3.483-4.352 0-1.743.872-3.486 2.831-3.486h58.581c29.836 0 59.016 12.196 59.016 43.556 0 26.137-21.775 40.509-41.157 43.77l35.498 49.225c9.798 13.494 15.46 18.285 27.001 24.167 1.091.438 1.743 1.305 1.743 2.396 0 2.396-4.791 3.048-12.629 3.048-16.551 0-26.353-2.822-31.579-10.673l-42.032-63.374zm135.019-20.681c5.23.651 9.802 1.084 15.677 1.084 21.559 0 29.184-.658 32.457-17.858.433-2.396 2.396-3.48 4.352-3.48 1.743 0 3.487.865 3.487 2.828 0 6.314-1.305 13.288-1.305 24.606 0 12.416 1.305 16.773 1.305 21.345 0 1.963-1.744 2.828-3.487 2.828-1.956 0-3.919-1.091-4.352-3.486-2.182-15.89-11.111-16.328-31.799-16.328-6.101 0-10.672 0-16.335.871v13.721c0 25.258.439 34.846 1.092 40.069 1.518 11.105 9.143 13.939 27.221 15.896 2.396.22 3.48 2.396 3.48 4.358 0 1.737-.866 3.48-2.828 3.48h-70.997c-1.96 0-2.832-1.743-2.832-3.48 0-1.963 1.091-3.919 3.487-4.358 15.244-2.169 17.422-5.004 18.289-15.896.438-5.224 1.091-14.592 1.091-40.289v-31.792c0-25.484-.652-36.81-1.091-42.039-.866-10.886-1.957-13.494-17.201-15.677-2.396-.433-3.483-2.396-3.483-4.352 0-1.743.872-3.486 2.831-3.486h103.879c4.791 0 8.059 1.743 8.059 6.314v31.799c0 2.395-1.957 3.699-3.92 3.699-1.962 0-4.139-1.305-4.357-4.139-1.743-17.207-9.795-26.568-23.734-26.568h-27.873c-3.273 0-9.149.433-11.112 1.311v59.019zm120.862 37.021c0 28.306 18.298 42.678 41.812 42.678 28.531 0 44.434-14.152 44.434-34.626v-50.955c0-25.484-.652-36.81-1.091-42.039-.872-10.886-1.963-13.494-17.207-15.677-2.396-.433-3.486-2.396-3.486-4.352 0-1.743.878-3.486 2.834-3.486h52.699c1.963 0 2.834 1.743 2.834 3.486 0 1.956-1.091 3.919-3.486 4.352-14.372 2.183-14.372 4.578-15.896 15.677-.651 5.229-.651 16.555-1.084 41.6l-.659 48.347c-.433 34.188-25.478 50.09-64.023 50.09-32.45 0-59.891-14.811-59.891-54.009v-43.988c0-25.484-.652-36.81-1.091-42.039-.865-10.886-1.957-13.494-17.207-15.677-2.396-.433-3.48-2.396-3.48-4.352 0-1.743.872-3.486 2.835-3.486h58.58c1.963 0 2.828 1.743 2.828 3.486 0 1.956-1.085 3.919-3.486 4.352-14.372 2.183-14.372 4.578-15.89 15.677-.659 5.229-.878 16.555-.878 41.6v43.341z"/></svg>