<svg id="irish-students" xmlns="http://www.w3.org/2000/svg" xmlns:xlink="http://www.w3.org/1999/xlink" viewBox="0 0 198.62 234.54">
  <defs>
    <clipPath id="clip-path" transform="translate(-14.27 -4.48)">
      <path d="M200.36,9.78H31c-4.65,0-6.86.93-8.72,2.79a9.07,9.07,0,0,0-2.79,6.62v112.9a67.54,67.54,0,0,0,4.92,25.06,93.47,93.47,0,0,0,12.21,22A135.79,135.79,0,0,0,54,198a204.71,204.71,0,0,0,18.6,15.14q8.52,6,17.79,11.39t13.16,7.28q3.89,1.91,6.24,2.94a8.42,8.42,0,0,0,3.83.88,8.54,8.54,0,0,0,3.82-.88c1.56-.69,3.65-1.67,6.24-2.94s7-3.71,13.16-7.28,12.11-7.38,17.79-11.39A204.71,204.71,0,0,0,173.2,198a136.37,136.37,0,0,0,17.34-18.75,93.82,93.82,0,0,0,12.21-22,67.54,67.54,0,0,0,4.92-25.06V19.18a9.06,9.06,0,0,0-2.79-6.61A10.36,10.36,0,0,0,200.36,9.78Z" fill="#fff"/>
    </clipPath>
  </defs>
  <g id="logo">
    <g id="shield">
      <g id="shield-inner">
        <path d="M200.36,9.78H31c-4.65,0-6.86.93-8.72,2.79a9.07,9.07,0,0,0-2.79,6.62v112.9a67.54,67.54,0,0,0,4.92,25.06,93.47,93.47,0,0,0,12.21,22A135.79,135.79,0,0,0,54,198a204.71,204.71,0,0,0,18.6,15.14q8.52,6,17.79,11.39t13.16,7.28q3.89,1.91,6.24,2.94a8.42,8.42,0,0,0,3.83.88,8.54,8.54,0,0,0,3.82-.88c1.56-.69,3.65-1.67,6.24-2.94s7-3.71,13.16-7.28,12.11-7.38,17.79-11.39A204.71,204.71,0,0,0,173.2,198a136.37,136.37,0,0,0,17.34-18.75,93.82,93.82,0,0,0,12.21-22,67.54,67.54,0,0,0,4.92-25.06V19.18a9.06,9.06,0,0,0-2.79-6.61A10.36,10.36,0,0,0,200.36,9.78Z" transform="translate(-14.27 -4.48)" fill="#fff"/>
        <g clip-path="url(#clip-path)">
          <path id="red-cross" d="M137.16,103.79,210.93,30a6.69,6.69,0,0,0,0-9.47L196.83,6.44a6.7,6.7,0,0,0-9.47,0L113.58,80.22,39.81,6.44a6.7,6.7,0,0,0-9.47,0L16.24,20.55a6.69,6.69,0,0,0,0,9.47L90,103.79,16.25,177.55a6.7,6.7,0,0,0,0,9.48l14.1,14.1a6.7,6.7,0,0,0,9.47,0l73.76-73.76,73.77,73.76a6.7,6.7,0,0,0,9.47,0l14.1-14.1a6.7,6.7,0,0,0,0-9.48Z" transform="translate(-14.27 -4.48)" fill="#a63132"/>
        </g>
      </g>
      <g id="shield-outer-border">
        <path d="M200.52,11.91a4.38,4.38,0,0,1,3.3,1.42,4.43,4.43,0,0,1,1.44,3.34v116a64.79,64.79,0,0,1-4.71,23.95,91.5,91.5,0,0,1-11.87,21.51,134.87,134.87,0,0,1-17.17,18.58,202.31,202.31,0,0,1-18.61,15.19c-5.66,4-11.67,7.87-17.87,11.47s-10.62,6-13.19,7.31-4.7,2.27-6.23,2.94l-.11.05-.1,0a4,4,0,0,1-3.46,0l-.1,0-.11-.05c-1.51-.67-3.55-1.63-6.22-2.93s-7-3.72-13.2-7.32-12.22-7.47-17.87-11.47a202.31,202.31,0,0,1-18.61-15.19,135,135,0,0,1-17.17-18.58,91.89,91.89,0,0,1-11.88-21.51,64.9,64.9,0,0,1-4.7-23.95v-116a4.42,4.42,0,0,1,1.43-3.33,4.39,4.39,0,0,1,3.31-1.43h173.7m0-4.91H26.82A9.26,9.26,0,0,0,20,9.87a9.28,9.28,0,0,0-2.87,6.8v116a69.43,69.43,0,0,0,5,25.76A96.14,96.14,0,0,0,34.74,181.1a138.67,138.67,0,0,0,17.79,19.26A207.24,207.24,0,0,0,71.6,215.92q8.75,6.18,18.25,11.7t13.49,7.48c2.67,1.3,4.8,2.31,6.41,3a8.55,8.55,0,0,0,3.92.9,8.68,8.68,0,0,0,3.92-.9c1.61-.71,3.74-1.71,6.41-3s7.16-3.81,13.49-7.48,12.42-7.58,18.25-11.7a210,210,0,0,0,19.07-15.56A140.44,140.44,0,0,0,192.6,181.1a96.14,96.14,0,0,0,12.52-22.66,69.43,69.43,0,0,0,5-25.76v-116a9.32,9.32,0,0,0-2.87-6.8A9.23,9.23,0,0,0,200.52,7Z" transform="translate(-14.27 -4.48)" fill="#2f603a"/>
      </g>
    </g>
    <path id="green-clover" d="M86.1,48l2.7-4.14a23.53,23.53,0,0,1,6.26-4.24,19.81,19.81,0,0,1,7.7-1.9,12.6,12.6,0,0,1,6.74,1.9c1.69,1.29,2.38,2.87,3.85,2.85,1.07,0,1.65-.85,2.89-1.9a11.75,11.75,0,0,1,9.63-2.85,18.8,18.8,0,0,1,14.67,10.53,17.73,17.73,0,0,1,1.7,7.55,18.84,18.84,0,0,1-1,5.71c-.6,2-1.22,3.81-1.93,5.71-.77,2.06-1,3.72-1.92,5.71-3,6.25-9.56,11-13.48,13.32A11.78,11.78,0,0,0,119.13,91a10.53,10.53,0,0,0-1,5.71,17.35,17.35,0,0,0,8.67-7.62,33.24,33.24,0,0,1,6.74-6.66,34.8,34.8,0,0,1,12.51-5.71c7.51-1.87,14.19-.93,16.37,0a17.66,17.66,0,0,1,8.67,7.61A17.36,17.36,0,0,1,173.06,92c.17,4.41-1,7.63-1.93,8.56-.46.48-2.93,1.83-2.89,2.86,0,.8,1.06,1.21,1.93,1.9,1,.82,2.54,3.51,2.89,7.61a15.18,15.18,0,0,1-1,6.66c-1,1.61-2,3.21-2.89,4.76a13.61,13.61,0,0,1-3.85,4.76,14.62,14.62,0,0,1-3.85,1.9,19.46,19.46,0,0,1-4.81,1A39.39,39.39,0,0,1,143.21,130c-1-.3-2.15-.65-2.89-.95a33.47,33.47,0,0,1-8.67-5.71,33,33,0,0,1-3.85-3.81c-.6-.81-2.34-4.74-4.82-6.66A11.15,11.15,0,0,0,119,111l-.87.69V130s.08,8.68,0,10.47a37.24,37.24,0,0,0,0,3.81,39,39,0,0,0,1,6.66c.9,4,1.86,8.23,2.89,10.47A32.83,32.83,0,0,0,127.8,170H99.87a55,55,0,0,0,3.86-4.76c.67-.94,1.31-1.87,1.92-2.85A72.64,72.64,0,0,0,108.54,151a75.24,75.24,0,0,0,1-9.52c.23-5.31.17-10.13,0-15.22-.16-4.78-.16-9.55,0-14.47l-1-.92a13,13,0,0,0-3.82,1.11,8.79,8.79,0,0,0-4.82,4.76A22.65,22.65,0,0,1,98,119.56a35,35,0,0,1-4.82,4.76,33.45,33.45,0,0,1-3.85,2.86,28.8,28.8,0,0,1-3.85,1.9,36.41,36.41,0,0,1-5.78,1.9,32.75,32.75,0,0,1-7.7,1,21.13,21.13,0,0,1-6.74-1,13.94,13.94,0,0,1-3.85-1.9,13.24,13.24,0,0,1-2.89-2.85,17.56,17.56,0,0,1-3.85-5.71c-1.19-2.87-2.54-8.14,0-12.37a11.15,11.15,0,0,1,3.85-3.81l-3.85-4.76a25,25,0,0,1-1-7.61,19.59,19.59,0,0,1,1-5.71,19.2,19.2,0,0,1,4.81-6.66,22.76,22.76,0,0,1,3.85-2.86,44.42,44.42,0,0,1,18.3,0,35.31,35.31,0,0,1,9.63,4.76,35.69,35.69,0,0,1,8.66,8.56,18,18,0,0,0,4.82,4.76,15.28,15.28,0,0,0,4.81,1.91,11,11,0,0,0-1-5.71,10.83,10.83,0,0,0-1.93-2.86,29.85,29.85,0,0,0-2.88-1.9c-1.31-.76-2.59-1.3-3.86-1.91-1.82-.86-5.59-4.12-8.66-8.56-5.36-7.74-6.83-14.9-6.74-19A27.39,27.39,0,0,1,86.1,48Z" transform="translate(-14.27 -4.48)" fill="#71b444" fill-rule="evenodd"/>
  </g>
</svg>
