<svg xmlns="http://www.w3.org/2000/svg" width="1000" height="1000" viewBox="-63.658 0 1000 1000" overflow="visible"><path fill="#FFF" d="M752.587 54.373V23.754h13.669c3.404 0 5.917.268 7.463.829 1.561.557 2.794 1.538 3.716 2.939.937 1.416 1.397 3.028 1.397 4.838 0 2.308-.714 4.195-2.134 5.693-1.404 1.501-3.515 2.438-6.31 2.824 1.383.784 2.527 1.654 3.456 2.572.914.937 2.118 2.59 3.664 4.965l3.924 5.957h-7.744l-4.683-6.637c-1.65-2.382-2.795-3.879-3.39-4.504-.624-.617-1.285-1.037-1.977-1.264-.685-.23-1.755-.349-3.255-.349h-1.294v12.754h-6.502zm6.504-17.626h4.771c3.137 0 5.039-.123 5.827-.372a3.505 3.505 0 001.828-1.305c.446-.613.655-1.39.655-2.319 0-1.044-.298-1.88-.877-2.512-.581-.639-1.398-1.06-2.438-1.234-.521-.052-2.096-.067-4.712-.067h-5.055v7.809z"/><path fill="#FFF" d="M766.077 11.417c-15.251 0-27.634 12.397-27.634 27.641 0 15.245 12.383 27.657 27.634 27.657 15.267 0 27.649-12.413 27.649-27.657.001-15.244-12.382-27.641-27.649-27.641m0 50.466c-12.591 0-22.817-10.261-22.817-22.826 0-12.586 10.227-22.81 22.817-22.81s22.833 10.224 22.833 22.81c0 12.566-10.242 22.826-22.833 22.826"/><path fill="#86743A" d="M66.276 447.933s14.118 20.696 15.411 28.601c1.278 7.923 4.508 11.045 4.508 11.045s11.583-16.85 15.434-21.402c3.857-4.538 12.825-15.679 15.801-18.273 2.951-2.605 10.372-5.002 10.372-5.002s.792 6.578-.624 15.802-1.531 15.861-2.282 20.153c-.68 3.791-2.557 14.3-3.333 17.689-.762 3.4-.115 4.3-.115 4.3s4.619-2.353 7.837-9.774c3.229-7.384 5.162-11.417 6.054-14.386.903-3.007 7.633-6.348 7.633-6.348s3.174 7.492 2.668 18.671c-.524 11.164.505 22.216-2.319 31.447-2.839 9.217-3.471 11.135-1.167 19.191 2.323 8.057 4.125 8.845 3.876 14.716-.26 5.843-.26 14.465.13 15.044 1.962 2.929.792.327 10.124 5.85 0 0 0 22.462-.61 34.8-.16 3.493 5.533 6.361 7.73 7.625 2.178 1.309 2.824 2.854 2.824 2.854s-.138 11.832-.138 16.901c0 5.055-.126 10.644 1.807 16.872 1.925 6.244 13.769 21.719 18.904 25.851 5.144 4.177 9.652 11.03 17.511 15.713 7.864 4.668 35.004 10.896 42.076 14.672 7.076 3.775 16.72 11.543 23.654 20.759 6.964 9.217 11.866 16.627 13.654 17.407 1.813.773 38.75 30.014 38.75 30.014s-44.7 38.708-56.886 57.156c-8.744 13.237-20.696 31.076-50.965 12.947-5.942-3.56-29.712-20.127-32.284-20.648-2.579-.489-16.979-8.948-23.921-9.959-6.964-1.056-13.137-2.765-20.982-9.646-7.856-6.898-13.137-10.124-18.931-11.172-5.79-1.019-8.469-3.248-9.513-6.103-1.019-2.868-2.832-2.46-8.484-2.988-5.664-.505-9.083-3.359-9.083-3.359s3.928-1.561 5.102-5.871c1.141-4.251-3.479-5.56-9.027-10.777-5.526-5.188-14.285-15.312-19.819-21.034-5.526-5.693-10.458-9.038-10.458-9.038s2.494-.417 3.902-2.632c1.416-2.215 1.806-1.68-4.894-13.512-6.697-11.811-20.009-32.027-30.563-51.07-10.056-18.18-12.583-26.43-15.541-33.446-2.961-7.017-5.251-21.153-5.251-21.153s8.225 3.435 12.472 6.69c4.255 3.24 9.157 4.83 9.157 4.83s.274-9.722-2.564-22.55c-2.839-12.873-5.396-29.642-5.147-39.356.253-9.767 6.819-10.42 7.194-15.986.394-5.582-.505-22.32-1.278-30.757-.769-8.466-2.308-12.077-2.576-14.791-1.222-12.977-.014-11.836.079-15.801 0 0 8.213 2.107 12.476 11.866 2.821 6.456 6.102 12.342 7.38 13.234 1.293.951 3.099-1.16 3.869-5.426.772-4.264 6.124-20.8 8.231-27.672 2.409-7.834 4.683-18.626 5.452-22.119.77-3.51 6.683-10.649 6.683-10.649"/><path fill="#9F8946" d="M66.276 447.933l-3.145 2.144c.004.004.855 1.256 2.182 3.29 1.984 3.051 5.006 7.826 7.604 12.494 2.605 4.597 4.768 9.41 5.014 11.287 1.401 8.771 5.128 12.713 5.619 13.167l3.233 3.125 2.549-3.705c.004-.007 2.884-4.196 6.243-8.953 3.341-4.734 7.247-10.134 8.96-12.148 1.966-2.312 5.158-6.217 8.235-9.871a249.15 249.15 0 014.319-5.017c1.263-1.423 2.371-2.571 2.842-2.973l.026-.022-.007.007c.75-.717 3.185-1.996 5.232-2.817 1.037-.431 2-.792 2.694-1.041.699-.249 1.093-.375 1.097-.379l-1.171-3.62-3.779.454.026.238c.052.558.167 2.048.167 4.229 0 2.598-.167 6.173-.799 10.306-1.442 9.432-1.594 16.322-2.271 20.075l-.003.022.007-.041c-.673 3.761-2.572 14.356-3.296 17.511l-.007.026.003-.008c-.331 1.479-.464 2.665-.464 3.665-.007 1.679.409 2.914.974 3.69l1.906 2.65 2.91-1.483c.543-.261 5.965-3.244 9.6-11.65 3.207-7.347 5.139-11.309 6.209-14.802l-.531-.16.494.257.037-.097-.531-.16.494.257c-.015-.179 1.509-1.65 2.965-2.535a31.487 31.487 0 011.955-1.174l.605-.328.19-.096-1.691-3.408-3.504 1.483.003.015c.179.427 2.423 6.206 2.419 14.761 0 .724-.019 1.475-.052 2.241-.495 11.499.401 22.351-2.156 30.504-1.631 5.344-2.717 8.584-2.739 12.509.004 2.734.564 5.389 1.553 8.845 1.145 3.976 2.226 6.422 2.865 8.108.628 1.725.858 2.475.884 4.52l-.018.885-.004.036.004-.052a209.785 209.785 0 00-.186 8.748c0 1.731.022 3.308.078 4.557l.119 1.657.119.796c.108.326.041.587.646 1.583l-.037-.053.03.045c.539.78.963 1.457 1.854 2.208l1.862 1.04c.699.261 1.186.408 2.319.914 1.111.505 2.78 1.346 5.311 2.848l1.94-3.278h-3.806c0 .015 0 5.597-.074 12.731-.079 7.136-.23 15.816-.532 21.882l-.007.327c.004 1.918.773 3.5 1.631 4.683 1.315 1.776 2.928 2.966 4.411 3.962 1.472.974 2.88 1.724 3.597 2.14l1.899-3.3-1.958 3.264 1.201 1.011.145.208 1.238-.706-1.312.55.074.156 1.238-.706-1.312.55 3.512-1.472-3.806-.044c0 .006-.137 11.824-.137 16.945l-.004 1.777c.004 4.623.086 10.122 1.981 16.226.676 2.14 1.888 4.392 3.43 6.941 2.315 3.79 5.385 8.042 8.41 11.811 3.055 3.783 5.931 6.993 8.313 8.934l-.041-.037.026.022c4.485 3.53 9.28 10.799 17.965 16.032 2.453 1.441 5.73 2.712 9.603 4.058 5.779 1.992 12.773 4.029 18.964 5.916 6.143 1.852 11.673 3.688 13.665 4.787 6.477 3.427 15.898 11 22.405 19.688 3.453 4.563 6.399 8.696 8.759 11.855 1.186 1.583 2.215 2.922 3.148 3.999l1.386 1.464c.494.438.955.862 1.876 1.286l.026.015h.003l1.07-2.505-1.349 2.364.279.141 1.07-2.505-1.349 2.364.004.007c.249.156 1.233.854 2.501 1.807 4.526 3.381 13.468 10.36 21.243 16.463 7.782 6.109 14.396 11.35 14.412 11.357l2.364-2.98-2.49-2.877c-.026.022-11.23 9.722-23.996 21.77-12.788 12.094-27.025 26.305-33.573 36.167-3.029 4.602-6.321 9.478-10.302 13.045-4.01 3.574-8.439 5.864-14.526 5.894-5.333.008-12.189-1.88-21.008-7.157-2.75-1.643-10.257-6.719-17.255-11.372-3.516-2.333-6.931-4.578-9.67-6.295a99.055 99.055 0 00-3.568-2.148l-1.39-.729c-.465-.208-.803-.394-1.602-.572h-.019l-.026-.007-.174.913.268-.891-.093-.022-.174.913.268-.891c-.22-.046-1.747-.715-3.512-1.584-2.72-1.315-6.388-3.182-10.067-4.823-3.713-1.644-7.313-3.1-10.599-3.605l.022.008c-6.704-1.078-11.654-2.356-19.042-8.748-7.99-7.017-13.925-10.814-20.763-12.056l-.044-.008.026.008c-2.535-.446-4.129-1.122-5.047-1.762-.921-.646-1.264-1.166-1.549-1.902l.007.021.003.016c-.375-1.062-.966-2.2-1.955-3.122-1.539-1.405-3.304-1.762-4.723-1.947-1.483-.186-3.007-.245-5.04-.438h-.015a14.987 14.987 0 01-5.311-1.486l-1.36-.788-.297-.208-.045-.03-1.011 1.271 1.041-1.248-.03-.023-1.011 1.271 1.041-1.248-2.438 2.92 1.405 3.538c.249-.104 1.561-.64 3.125-1.918 1.55-1.271 3.4-3.389 4.244-6.487l.004-.016a8.583 8.583 0 00.305-2.223c.019-1.65-.598-3.255-1.412-4.4-1.238-1.738-2.687-2.794-4.181-3.961-1.505-1.16-3.122-2.371-4.809-3.954-5.263-4.928-14.044-15.066-19.689-20.908-5.801-5.968-10.914-9.439-11.056-9.543l-2.137 3.151.628 3.753c.238-.044 1.182-.208 2.431-.803 1.237-.587 2.85-1.649 4.054-3.537l.777-1.271c.342-.624.684-1.68.669-2.69-.063-1.97-.71-3.204-1.631-5.113-.959-1.903-2.401-4.46-4.608-8.354-6.819-12.026-20.083-32.161-30.544-51.039-9.963-18.032-12.301-25.807-15.363-33.083-1.291-3.025-2.613-8.229-3.523-12.524a186.68 186.68 0 01-1.089-5.515c-.257-1.404-.391-2.245-.391-2.245l-3.757.609-1.467 3.509c.003.008.468.2 1.271.558 2.386 1.04 7.756 3.619 10.354 5.641l.011.008c4.895 3.701 10.075 5.337 10.287 5.426l4.835 1.568.145-5.084.007-.848c-.004-2.69-.204-11.513-2.661-22.632-2.671-12.063-5.091-27.872-5.076-37.171l.019-1.263c.181-4.028 1.211-5.367 2.679-7.24.747-.921 1.691-1.888 2.616-3.24.925-1.346 1.761-3.203 1.892-5.352.074-1.077.104-2.386.104-3.909-.004-7.529-.736-20.276-1.39-27.448-.795-8.734-2.482-13.119-2.579-14.817l.004.056-.004-.037c-.397-4.237-.527-6.886-.523-8.6.003-1.747.107-2.449.234-3.248.134-.792.353-1.917.386-3.508l-3.805-.089-.944 3.687.198-.769-.223.762.025.007.198-.769-.223.762c.156.044 1.858.572 3.879 2.025 2.025 1.464 4.378 3.805 6.08 7.685 1.457 3.334 3.021 6.508 4.43 9.035.706 1.264 1.371 2.363 1.999 3.285.688.944 1.082 1.62 2.26 2.513l2.178-3.122-2.256 3.062c.758.58 1.844.981 2.906.967 1.427 0 2.553-.609 3.315-1.227 1.152-.966 1.81-2.059 2.386-3.301.558-1.24.974-2.652 1.264-4.251.283-1.635 1.825-6.972 3.508-12.416 1.691-5.504 3.549-11.343 4.616-14.817 2.482-8.091 4.761-18.938 5.53-22.417.019-.174.386-1.1.958-2.077.855-1.505 2.115-3.296 3.141-4.66l1.293-1.676.505-.624-2.933-2.435-3.145 2.144 3.145-2.144-2.933-2.427c-.037.045-1.561 1.884-3.226 4.236-.836 1.178-1.706 2.482-2.46 3.81-.755 1.345-1.416 2.631-1.78 4.214-.77 3.504-3.04 14.241-5.374 21.814-1.041 3.4-2.91 9.265-4.616 14.817-1.713 5.604-3.233 10.673-3.723 13.297-.253 1.449-.673 2.49-.93 2.898l-.119.179.792.646-.524-.854-.268.208.792.646-.524-.854 1.308 2.125v-2.475l-1.308.35 1.308 2.125v-2.475 2.698l1.605-2.186-1.605-.513v2.698l1.605-2.186-.041-.021-.038-.03-1.007 1.442 1.241-1.257-.234-.186-1.007 1.442 1.241-1.257-.242-.297c-.557-.729-1.576-2.394-2.657-4.438a106.321 106.321 0 01-3.408-7.087c-2.449-5.623-6.128-9.165-9.19-11.224-3.074-2.069-5.522-2.724-5.827-2.805l-4.634-1.189-.115 4.787c-.03 1.059-.119 1.442-.286 2.453-.167 1.003-.342 2.401-.335 4.482 0 2.081.149 4.935.562 9.313v.015c.438 3.73 1.828 6.57 2.571 14.761.632 6.875 1.364 19.674 1.36 26.758 0 1.42-.029 2.608-.088 3.39l-.603 1.612c-.605.966-2.137 2.364-3.683 4.667-1.549 2.305-2.832 5.59-2.917 9.879l-.019 1.456c.019 10.428 2.508 26.304 5.255 38.813 2.3 10.376 2.482 18.693 2.482 20.989l-.007.64 3.806.104 1.174-3.619-.138-.045c-.788-.268-4.728-1.769-7.89-4.191l.012.007c-2.535-1.933-5.772-3.635-8.474-4.965-2.69-1.315-4.801-2.2-4.846-2.223L0 610.271l1.093 6.757c.007.036.587 3.619 1.549 8.131.977 4.526 2.278 9.9 3.954 13.892 2.851 6.757 5.567 15.482 15.716 33.811 10.647 19.206 24.007 39.504 30.582 51.106 2.196 3.872 3.627 6.423 4.437 8.027.405.803.651 1.367.758 1.665l.071.23.992-.208h-1.007l.015.208.992-.208h-1.007 1.732l-1.554-.803-.179.803h1.732l-1.554-.803-.086.142-.345.527-.91.765-.428.164.034.111-.019-.111h-.015l.034.111-.019-.111-9.376 1.569 7.868 5.335.167.112c.888.624 5.095 3.687 9.696 8.429 5.418 5.589 14.156 15.705 19.946 21.152 2.72 2.558 5.202 4.237 6.648 5.441.725.587 1.156 1.056 1.29 1.256l.074.119.134-.045h-.145l.011.045.134-.045h-.145l-.045.245.007-.029-.003.015c-.331 1.212-1.029 2.029-1.739 2.617l-.899.616-.227.119-.022.008.81 1.895-.758-1.917-.052.022.81 1.895-.758-1.917-5.942 2.363 4.909 4.096c.346.274 4.363 3.598 11.182 4.229h-.015c2.933.253 4.895.35 5.408.521l.119.029.138-.386-.215.342.078.044.138-.386-.215.342.535-.848-.822.587.287.261.535-.848-.822.587h-.003l.093.223.011.038c.758 2.118 2.278 4.14 4.404 5.574 2.129 1.449 4.771 2.393 8.027 2.966l-.049-.008.03.008c4.749.854 9.376 3.508 17.095 10.286 8.306 7.374 15.701 9.515 22.926 10.547l.019.008c2.479.305 7.849 2.563 12.498 4.839 2.36 1.13 4.604 2.259 6.474 3.159a58.3 58.3 0 002.52 1.166c.776.32 1.334.572 2.271.766l.709-3.739-.754 3.732.383-1.903-.703 1.813.32.09.383-1.903-.703 1.813c.037.008.776.372 1.672.899 3.248 1.888 9.454 5.991 15.382 9.944 5.968 3.984 11.628 7.798 14.349 9.425 9.596 5.746 17.768 8.235 24.918 8.243 8.194.03 14.724-3.397 19.622-7.849 4.932-4.452 8.5-9.894 11.554-14.509 5.637-8.585 19.845-22.951 32.451-34.821a851.792 851.792 0 0116.623-15.259c4.363-3.902 7.121-6.289 7.128-6.296l3.475-3.01-3.601-2.848c-.003-.007-9.242-7.32-18.711-14.73-4.738-3.709-9.529-7.44-13.268-10.31a389.153 389.153 0 00-4.69-3.545l-1.542-1.107-.595-.401-.817-.438.026.007.007.007-.732 1.673 1.085-1.479-.354-.193-.732 1.673 1.085-1.479-.09-.081c-.616-.528-2.371-2.713-4.481-5.597-2.155-2.914-4.831-6.638-7.923-10.733-7.358-9.736-17.229-17.696-24.899-21.821-2.241-1.182-5.318-2.267-9.067-3.486-5.593-1.813-12.521-3.798-18.756-5.76-6.192-1.926-11.837-3.962-14.1-5.337-7.031-4.133-11.253-10.569-17.054-15.394l-.015-.014c-2.003-1.576-6.303-6.452-9.989-11.439-1.866-2.504-3.631-5.076-5.01-7.336-1.378-2.236-2.371-4.259-2.653-5.232-1.527-4.921-1.643-9.439-1.643-13.973l.004-1.777c0-5.017.138-16.842.138-16.857l.007-.787-.301-.729c-.208-.506-1.327-2.81-4.378-4.646l-.03-.015-.03-.022c-1.193-.677-2.932-1.605-4.251-2.632l-1.401-1.345-.186-.312-.286.104h.297l-.011-.104-.286.104h.297-.817l.817.045v-.045h-.817l.817.045c.617-12.517.613-34.956.613-34.985v-2.171l-1.866-1.107c-4.783-2.839-7.261-3.768-8.466-4.199l-.409-.148-.587 1.278 1.022-.966-.435-.312-.587 1.278 1.022-.966-.004-.008-.457-.646.033.052-.041-.059-2.627 1.768 3.122-.646c-.059-.104.056-.208-.495-1.121l-2.627 1.768 3.122-.646-.554.119.562-.089-.008-.03-.554.119.562-.089c-.023-.119-.09-.914-.116-1.888-.033-.996-.048-2.245-.048-3.605 0-2.705.063-5.856.178-8.406l.004-.074-.004.06.026-1.196c.026-2.914-.602-5.218-1.379-7.21-.766-2.021-1.635-3.939-2.668-7.521-.922-3.204-1.256-5.113-1.256-6.741-.019-2.268.706-4.817 2.404-10.272 3.092-10.315 1.929-21.569 2.483-32.391.041-.892.059-1.75.059-2.59-.007-10.54-2.895-17.426-3.025-17.742l-1.576-3.724-3.62 1.799c-.093.044-1.884.933-3.914 2.3-1.021.688-2.103 1.494-3.106 2.464-.985.993-1.988 2.092-2.568 3.895-.718 2.445-2.646 6.548-5.894 13.958-1.409 3.244-3.059 5.262-4.296 6.466l-1.457 1.223-.338.223.104.175-.093-.182-.011.007.104.175-.093-.182 1.729 3.394 3.088-2.223-2.282 1.643 2.728-.77-.446-.874-2.282 1.643 2.728-.77-.662.189.688-.089-.026-.101-.662.189.688-.089-.011-.219c0-.309.044-.956.278-2l-.011.048.007-.03c.829-3.624 2.683-14.048 3.371-17.868l.003-.019c.822-4.834.903-11.216 2.293-20.231a76 76 0 00.889-11.458c0-3.27-.23-5.247-.246-5.374l-.554-4.59-4.396 1.424c-.063.018-1.996.643-4.37 1.631-2.401 1.026-5.151 2.249-7.351 4.137l.015-.011.004-.004c-1.015.896-2.148 2.111-3.523 3.65-4.058 4.552-9.837 11.688-12.676 15.028-2.145 2.546-5.957 7.849-9.369 12.676-3.393 4.805-6.295 9.027-6.303 9.034l3.137 2.156 2.646-2.735-1.583 1.635 1.635-1.583-.052-.052-1.583 1.635 1.635-1.583-.075-.085c-.416-.505-2.43-3.077-3.375-8.882-.479-2.761-1.724-5.652-3.296-8.882-4.719-9.54-12.683-21.179-12.728-21.257l-2.85-4.177-3.226 3.895 2.93 2.424z"/><path fill="#86743A" d="M806.392 447.933s-14.114 20.696-15.4 28.601c-1.293 7.923-4.504 11.045-4.504 11.045s-11.58-16.85-15.445-21.402c-3.85-4.538-12.828-15.679-15.786-18.273-2.958-2.605-10.376-5.002-10.376-5.002s-.788 6.578.624 15.802c1.413 9.224 1.517 15.861 2.274 20.153.685 3.791 2.557 14.3 3.329 17.689.759 3.4.12 4.3.12 4.3s-4.624-2.353-7.85-9.774c-3.21-7.384-5.143-11.417-6.035-14.386-.907-3.007-7.641-6.348-7.641-6.348s-3.181 7.492-2.66 18.671c.505 11.164-.521 22.216 2.318 31.447 2.839 9.217 3.464 11.135 1.159 19.191-2.318 8.057-4.117 8.845-3.864 14.716.253 5.843.253 14.465-.134 15.044-1.962 2.929-.788.327-10.123 5.85 0 0 0 22.462.594 34.8.164 3.493-5.529 6.361-7.714 7.625-2.186 1.309-2.825 2.854-2.825 2.854s.134 11.832.134 16.901c0 5.055.134 10.644-1.813 16.872-1.933 6.244-13.765 21.719-18.894 25.851-5.158 4.177-9.67 11.03-17.512 15.713-7.863 4.668-35.007 10.896-42.083 14.672-7.076 3.775-16.724 11.543-23.666 20.759-6.964 9.217-11.848 16.627-13.646 17.407-1.799.773-38.739 30.014-38.739 30.014s44.7 38.708 56.89 57.156c8.741 13.237 20.692 31.076 50.942 12.947 5.961-3.56 29.731-20.127 32.302-20.648 2.572-.489 16.977-8.948 23.919-9.959 6.949-1.056 13.141-2.765 20.975-9.646 7.856-6.898 13.142-10.124 18.938-11.172 5.783-1.019 8.474-3.248 9.514-6.103 1.025-2.868 2.824-2.46 8.473-2.988 5.679-.505 9.098-3.359 9.098-3.359s-3.938-1.561-5.099-5.871c-1.145-4.251 3.479-5.56 9.008-10.777 5.546-5.188 14.301-15.312 19.831-21.034 5.53-5.693 10.465-9.038 10.465-9.038s-2.497-.417-3.909-2.632c-1.413-2.215-1.814-1.68 4.891-13.512 6.689-11.811 20.009-32.027 30.562-51.07 10.064-18.18 12.591-26.43 15.549-33.446 2.951-7.017 5.247-21.153 5.247-21.153s-8.22 3.435-12.472 6.69c-4.251 3.24-9.157 4.83-9.157 4.83s-.268-9.722 2.572-22.55c2.824-12.873 5.396-29.642 5.144-39.356-.252-9.767-6.823-10.42-7.21-15.986-.386-5.582.521-22.32 1.278-30.757.788-8.466 2.319-12.077 2.572-14.791 1.233-12.977.029-11.836-.074-15.801 0 0-8.206 2.107-12.473 11.866-2.824 6.456-6.109 12.342-7.373 13.234-1.293.951-3.092-1.16-3.864-5.426-.773-4.264-6.125-20.8-8.236-27.672-2.407-7.834-4.682-18.626-5.455-22.119-.773-3.51-6.69-10.649-6.69-10.649"/><path fill="#9F8946" d="M806.392 447.933l-3.144-2.144c-.022.037-3.583 5.254-7.336 11.524-1.881 3.14-3.812 6.537-5.389 9.733-1.568 3.229-2.817 6.125-3.285 8.878-.58 3.542-1.562 5.879-2.327 7.284a10.87 10.87 0 01-.914 1.435l-.2.249-.016.011 1.636 1.576-1.583-1.628-.053.052 1.636 1.576-1.583-1.628 2.653 2.728 3.136-2.156c-.006-.007-2.905-4.229-6.302-9.034-3.419-4.831-7.225-10.134-9.381-12.676-1.88-2.219-5.099-6.15-8.213-9.852-1.56-1.854-3.1-3.654-4.459-5.177-1.367-1.535-2.497-2.75-3.501-3.642-2.2-1.88-4.95-3.104-7.351-4.129a59.003 59.003 0 00-4.37-1.631l-4.393-1.424-.551 4.59c-.015.126-.252 2.104-.252 5.366 0 2.921.186 6.879.892 11.465 1.383 9.012 1.457 15.393 2.289 20.239l.007.063-.007-.048c.691 3.813 2.542 14.241 3.367 17.86l-.015-.048.008.03c.237 1.047.281 1.698.281 2.01l-.007.223 1.107.138-1.04-.379-.067.242 1.107.138-1.04-.379 2.913 1.067-2.527-1.788-.386.721 2.913 1.067-2.527-1.788 3.107 2.201 1.724-3.394-.089.179.104-.175-.016-.004-.089.179.104-.175c-.417-.256-3.635-2.26-6.096-7.901-3.233-7.414-5.165-11.521-5.886-13.966-.58-1.806-1.584-2.906-2.572-3.895-2.973-2.828-6.86-4.656-7.017-4.764l-3.619-1.795-1.576 3.717c-.134.319-3.018 7.179-3.024 17.685 0 .859.022 1.744.066 2.65.527 10.821-.631 22.082 2.482 32.383 1.694 5.456 2.415 8.006 2.394 10.265 0 1.636-.334 3.546-1.256 6.765-1.033 3.574-1.896 5.492-2.661 7.506-.78 1.993-1.404 4.296-1.375 7.202l.029 1.227c.104 2.534.171 5.664.171 8.362 0 1.672-.029 3.182-.074 4.252l-.073 1.174-.016.111 1.048.155-1.025-.26-.022.104 1.048.155-1.025-.26 3.226.811-2.765-1.836c-.432.699-.409.892-.461 1.025l3.226.811-2.765-1.836.021-.029-.007.015-.438.624-.03.037 1.026.952-.796-1.145-.23.192 1.026.952-.796-1.145.788 1.122-.579-1.249-.209.127.788 1.122-.579-1.249-.617.23c-1.315.468-3.738 1.442-8.258 4.117l-1.866 1.107v2.171c0 .029 0 22.469.603 34.985l-.007-.022.334-.016h-.334v.016l.334-.016h-.334.305l-.291-.11-.014.11h.305l-.291-.11c.016.134-.831 1.188-2.096 2.036-1.248.885-2.683 1.657-3.73 2.26l-.016.007-.036.022c-3.062 1.829-4.178 4.147-4.386 4.66l-.298.722.008.779c0 .016.134 11.833.134 16.857v1.858c0 4.504-.111 8.994-1.643 13.877-.289.988-1.278 3.011-2.661 5.247-2.065 3.39-5.002 7.47-7.842 11.008-2.816 3.53-5.678 6.607-7.142 7.768-5.827 4.838-10.057 11.274-17.08 15.407-1.472.892-4.534 2.155-8.184 3.404-5.508 1.902-12.449 3.925-18.701 5.827-6.302 1.933-11.721 3.62-15.035 5.352-7.671 4.125-17.549 12.085-24.914 21.829-3.516 4.653-6.496 8.83-8.771 11.878-1.13 1.523-2.096 2.757-2.803 3.575l-.803.854-.104.089 1.085 1.486-.728-1.68-.357.193 1.085 1.486-.728-1.68-.061.03.074-.03-.811.438c-.697.446-1.627 1.13-2.979 2.141-9.29 6.95-35.788 27.932-35.811 27.946l-3.604 2.848 3.478 3.01c.008.007 2.766 2.394 7.128 6.296 6.541 5.849 16.649 15.065 26.223 24.505 9.559 9.402 18.641 19.168 22.855 25.575 3.055 4.615 6.622 10.057 11.55 14.509 4.898 4.451 11.424 7.879 19.615 7.849 7.15-.008 15.318-2.497 24.906-8.243 3.203-1.917 10.555-6.904 17.57-11.558 3.493-2.319 6.876-4.534 9.507-6.184a86.094 86.094 0 013.248-1.962l.937-.491.156-.074-.698-1.813.378 1.903.32-.09-.698-1.813.378 1.903-.751-3.732.715 3.739c.929-.193 1.494-.445 2.267-.766 2.557-1.106 6.563-3.211 10.77-5.173 4.133-1.963 8.57-3.724 10.718-3.991l.022-.008c7.202-1.032 14.62-3.173 22.914-10.547 7.716-6.771 12.354-9.432 17.104-10.286h-.015c3.247-.573 5.886-1.517 8.02-2.966 2.125-1.435 3.648-3.449 4.407-5.582l.007-.015v-.008l.111-.252-.765-.461.438.758.326-.297-.765-.461.438.758-.209-.349.149.378.06-.029-.209-.349.149.378c.06-.118 2.155-.282 5.522-.55h-.06.037c6.83-.631 10.852-3.954 11.201-4.229l4.912-4.104-5.945-2.355-.758 1.902.81-1.88-.052-.022-.758 1.902.81-1.88-1.285-.855c-.662-.587-1.294-1.36-1.599-2.49l-.045-.245h-.148l.141.045.008-.045h-.148l.141.045.35-.453c.915-1.086 4.088-3.048 7.648-6.37l.022-.015-.029.029c5.812-5.455 14.546-15.571 19.963-21.167a76.046 76.046 0 019.121-8.006l.579-.408.164-.12 7.878-5.343-9.388-1.562-.015.104.03-.11-.016.007-.015.104.03-.11-1.338-.914-.35-.535-.09-.148-1.099.616 1.196-.364-.098-.252-1.099.616 1.196-.364-1.813.558h1.896l-.082-.558-1.813.558h1.896-.997l.981.208.022-.208h-1.004l.981.208c-.015-.022.305-.943 1.16-2.542.847-1.628 2.185-3.991 4.103-7.388 6.57-11.596 19.935-31.894 30.585-51.1 10.16-18.328 12.873-27.054 15.728-33.811 1.664-3.991 2.966-9.365 3.946-13.892.959-4.504 1.539-8.095 1.546-8.131l1.101-6.765-6.318 2.646c-.052.015-2.163.899-4.854 2.215-2.698 1.33-5.931 3.032-8.465 4.958-1.8 1.375-3.858 2.475-5.441 3.195-.796.357-1.464.633-1.925.803l-.521.193-.134.045 1.174 3.619 3.807-.11-.008-.596c0-2.259.178-10.599 2.49-21.019 2.734-12.518 5.231-28.378 5.247-38.806l-.016-1.472c-.074-5.738-2.452-9.611-4.429-11.9-.974-1.158-1.763-2.014-2.179-2.652l-.609-1.599c-.06-.773-.089-1.933-.081-3.314-.008-7.062.729-19.935 1.353-26.84.758-8.19 2.148-11.03 2.571-14.779.416-4.4.565-7.262.565-9.347.008-2.066-.171-3.456-.335-4.456-.171-1.011-.26-1.393-.29-2.453l-.126-4.775-4.623 1.189c-.305.082-2.757.736-5.82 2.805-3.062 2.059-6.741 5.601-9.193 11.224-1.368 3.118-2.854 6.12-4.11 8.373-.624 1.13-1.196 2.066-1.636 2.705l-.498.677-.066.081 1.241 1.249-1.011-1.435-.23.186 1.241 1.249-1.011-1.435-.03.016-.029.021 1.605 2.186v-2.698l-1.605.513 1.605 2.186v-2.698 2.305l1.486-1.829c-.148-.118-.653-.468-1.486-.476v2.305l1.486-1.829-.506.617.596-.527-.09-.09-.506.617.596-.527c-.038 0-.743-1.183-1.049-3.085-.49-2.624-2.007-7.692-3.723-13.301-1.71-5.548-3.575-11.413-4.624-14.813-2.326-7.578-4.601-18.31-5.373-21.822-.365-1.579-1.034-2.861-1.784-4.207-2.252-3.928-5.627-7.957-5.693-8.046l-3.226-3.895-2.847 4.177 3.154 2.15-2.928 2.427c0 .004.326.401.869 1.089.803 1.029 2.044 2.676 3.106 4.3 1.063 1.568 1.903 3.341 1.925 3.649.773 3.479 3.048 14.327 5.538 22.421 1.062 3.471 2.929 9.309 4.615 14.813 1.681 5.444 3.227 10.781 3.508 12.416.395 2.134.989 3.925 1.881 5.441.454.757.989 1.464 1.762 2.103.766.625 1.888 1.234 3.322 1.234 1.055.015 2.148-.394 2.898-.959l-2.252-3.069 2.193 3.106c1.167-.892 1.553-1.561 2.244-2.505 1.836-2.713 4.214-7.291 6.422-12.312 1.813-4.136 4.37-6.529 6.481-7.963a15.244 15.244 0 012.623-1.435l.714-.268.141-.044-.222-.77.192.777.029-.007-.222-.77.192.777-.943-3.687-3.806.1c.037 1.583.26 2.706.387 3.49.126.795.229 1.49.237 3.218 0 1.713-.126 4.37-.535 8.633-.082 1.684-1.754 6.068-2.572 14.803-.646 7.202-1.382 20.015-1.382 27.53 0 1.486.021 2.772.097 3.835.134 2.147.974 4.006 1.902 5.344 1.413 2.029 2.766 3.219 3.635 4.593.877 1.376 1.562 2.854 1.665 5.888l.015 1.278c.016 9.298-2.408 25.1-5.069 37.163-2.467 11.163-2.668 20.008-2.668 22.661l.008.817.148 5.077 4.831-1.568c.216-.089 5.396-1.725 10.287-5.426 1.725-1.33 4.727-2.973 7.202-4.169a78.144 78.144 0 013.166-1.479c.803-.357 1.263-.55 1.263-.558l-1.464-3.509-3.753-.609s-.142.841-.394 2.245c-.743 4.177-2.654 13.461-4.608 18.039-3.062 7.276-5.404 15.051-15.371 33.083-10.465 18.878-23.731 39.013-30.548 51.039-2.199 3.895-3.642 6.451-4.608 8.347-.914 1.91-1.561 3.151-1.627 5.121-.015 1.011.327 2.066.669 2.69l.78 1.271c1.211 1.888 2.824 2.95 4.058 3.537 1.256.595 2.192.759 2.438.803l.624-3.753-2.133-3.151c-.142.104-5.263 3.567-11.061 9.535-5.648 5.857-14.426 15.988-19.703 20.908l-.038.037.03-.021c-2.245 2.117-4.354 3.537-6.266 5.105-.951.796-1.888 1.636-2.705 2.795-.811 1.145-1.428 2.75-1.412 4.407 0 .759.118 1.509.312 2.223.832 3.114 2.683 5.232 4.236 6.503 1.567 1.278 2.884 1.813 3.129 1.918l1.404-3.538-2.438-2.92 1.048 1.248-1.019-1.271-.029.023 1.048 1.248-1.019-1.271c-.044.045-2.779 2.148-7.023 2.513h-.022c-2.713.275-4.482.237-6.54.713-1.019.253-2.223.751-3.204 1.681-.988.914-1.583 2.044-1.955 3.106l.008-.022c-.282.722-.624 1.249-1.546 1.896-.922.64-2.52 1.315-5.055 1.762l-.052.007.037-.007c-6.846 1.241-12.776 5.031-20.773 12.056-7.373 6.392-12.339 7.67-19.035 8.748l.021-.008c-4.466.707-9.766 3.182-14.693 5.515-2.431 1.168-4.705 2.312-6.481 3.167-.885.424-1.65.78-2.207 1.018l-.654.268-.134.046.268.898-.179-.921-.089.022.268.898-.179-.921-.022.007h-.021c-.796.179-1.138.364-1.599.572-1.575.758-3.753 2.104-6.57 3.895-4.17 2.669-9.491 6.229-14.293 9.432-4.787 3.196-9.119 6.073-11.037 7.21-8.815 5.285-15.668 7.173-20.997 7.165-6.088-.029-10.51-2.319-14.523-5.894-3.976-3.567-7.27-8.443-10.295-13.045-6.547-9.862-20.788-24.073-33.58-36.167-12.761-12.048-23.962-21.747-23.992-21.77l-2.49 2.877 2.364 2.98c.015-.016 9.224-7.3 18.678-14.702 4.72-3.701 9.507-7.418 13.2-10.257a314.47 314.47 0 014.579-3.464l1.36-.981.334-.223.008-.007-1.353-2.364 1.07 2.498.282-.134-1.353-2.364 1.07 2.498h.015c.921-.424 1.39-.855 1.888-1.294 1.598-1.509 3.219-3.701 5.44-6.689 2.192-2.973 4.823-6.637 7.834-10.621 6.525-8.696 15.943-16.27 22.424-19.696 1.293-.706 4.267-1.821 7.834-2.966 5.396-1.754 12.339-3.738 18.693-5.737 6.398-2.029 12.07-3.933 15.705-6.058 8.674-5.233 13.468-12.502 17.965-16.024 3.121-2.558 7.306-7.478 11.305-12.821 1.977-2.661 3.857-5.39 5.396-7.916 1.545-2.542 2.758-4.802 3.434-6.949 1.895-6.058 1.984-11.528 1.984-16.137v-1.858c0-5.121-.134-16.939-.134-16.945l-3.806.044 3.516 1.456-1.338-.557 1.264.721.074-.164-1.338-.557 1.264.721c.029-.052.349-.617 1.338-1.211l-1.954-3.264 1.901 3.293c.967-.564 3.092-1.657 5.092-3.203 1.011-.788 2.029-1.703 2.899-2.892.854-1.175 1.628-2.757 1.628-4.676v-.312l-.008-.037v.015c-.29-6.065-.439-14.746-.514-21.882-.074-7.135-.074-12.717-.074-12.731h-3.805l1.939 3.278c4.549-2.685 6.154-3.22 7.187-3.598.499-.193 1.368-.453 2.305-1.212.893-.751 1.316-1.42 1.852-2.2l-.016.022.022-.037c.603-.996.535-1.249.639-1.576.172-.951.201-1.739.253-2.943.038-1.167.06-2.571.06-4.095 0-2.81-.067-6.014-.186-8.696l-.016-.893c.022-2.036.254-2.794.885-4.511.632-1.688 1.718-4.126 2.854-8.095.988-3.463 1.554-6.124 1.554-8.867-.022-3.917-1.101-7.149-2.736-12.501-2.563-8.153-1.68-18.998-2.155-30.496a50.483 50.483 0 01-.052-2.301c0-4.545.632-8.302 1.257-10.884.312-1.29.616-2.286.84-2.944l.252-.717.067-.152v-.015l-3.501-1.486-1.694 3.408.223.115c.55.286 2.073 1.119 3.404 2.081l1.665 1.394.394.472.045.074.558-.278-.595.182.037.096.558-.278-.595.182c1.062 3.49 2.995 7.447 6.184 14.802 3.649 8.406 9.075 11.386 9.618 11.65l2.929 1.486 1.902-2.68c.55-.776.958-1.995.951-3.66 0-.996-.134-2.185-.461-3.668l-.008-.019c-.721-3.159-2.616-13.753-3.292-17.518l.007.063-.007-.048c-.685-3.739-.818-10.632-2.26-20.068a68.998 68.998 0 01-.802-10.313c0-1.453.052-2.597.104-3.367l.066-.858.022-.234-3.775-.454-1.167 3.62s.394.13 1.093.379c1.04.372 2.69 1 4.273 1.732 1.568.709 3.106 1.609 3.664 2.125.476.413 1.584 1.561 2.847 2.988 3.851 4.33 9.618 11.432 12.554 14.892 1.71 2.014 5.627 7.41 8.964 12.145 3.359 4.757 6.236 8.945 6.244 8.953l2.557 3.716 3.232-3.144c.49-.453 4.191-4.389 5.604-13.159.172-1.201 1.175-3.861 2.61-6.734 2.147-4.366 5.217-9.499 7.722-13.49a265.024 265.024 0 013.182-4.932c.803-1.215 1.278-1.914 1.278-1.914l-3.141-2.146-2.928 2.427 2.928-2.427zm-687.976 50.612c-4.144 5.467-8.276 10.956-11.58 15.884-3.3 4.979-5.812 9.135-6.726 13.052l.011-.046-.007.03c-1.297 5.864-4.096 14.494-6.56 21.555a501.195 501.195 0 01-3.218 8.964c-.84 2.267-1.364 3.635-1.364 3.643l3.552 1.359-2.397-2.958c-.029.029-5.727 4.652-11.617 9.945-2.947 2.652-5.935 5.47-8.339 8.02-1.204 1.286-2.26 2.497-3.122 3.664-.855 1.204-1.576 2.2-1.992 3.872-.535 2.438-1.561 8.214-2.486 14.486-.914 6.28-1.724 12.836-1.735 17.058.003.869.033 1.658.141 2.445.736 5.366 3.88 33.566 4.649 39.192.205 1.36.651 2.497 1.234 3.851 4.081 9.038 16.705 26.979 23.224 33.899 1.208 1.249 3.002 2.697 5.552 4.652 17.679 13.454 69.413 47.465 87.716 56.941 20.324 10.524 43.135 22.826 52.467 27.561l.015.007c4.62 2.312 17.73 8.92 29.682 14.954a33484.169 33484.169 0 0122.74 11.477l3.434-6.793c-.004 0-43.168-21.8-52.448-26.445l.018.007c-9.131-4.631-32.03-16.976-52.411-27.53-9.855-5.076-31.254-18.507-50.832-31.455-9.803-6.48-19.188-12.858-26.523-18.046-3.664-2.586-6.823-4.883-9.242-6.734-2.401-1.82-4.147-3.292-4.664-3.85-3.118-3.248-8.804-10.763-13.605-17.935-2.408-3.598-4.626-7.135-6.247-10.041-.807-1.45-1.469-2.743-1.914-3.754-.454-.989-.666-1.784-.65-1.799-.74-5.382-3.884-33.58-4.657-39.206l-.067-1.398c-.008-3.3.754-9.87 1.658-15.95.892-6.095 1.933-11.914 2.386-13.959l-.788-.178.75.312.038-.134-.788-.178.75.312c.023-.088.446-.816 1.138-1.672 2.456-3.1 7.901-8.183 12.598-12.285a333.429 333.429 0 016.143-5.255c1.598-1.338 2.59-2.141 2.59-2.141l.792-.647.364-.951c.026-.097 8.588-22.335 11.468-35.231l.004-.014c.309-1.718 2.468-5.828 5.604-10.429 3.133-4.667 7.199-10.086 11.327-15.534l-6.066-4.594z"/><path fill="#9F8946" d="M82.553 486.482c-.974 3.226-1.2 3.854-1.509 5.173-.283 1.234-.561 2.747-1.747 8.113-.959 4.407-3.627 11.205-6.34 17.834-2.717 6.683-5.463 13.179-6.715 17.994-.257.967-.732 1.673-1.713 2.632-1.438 1.42-4.002 2.921-6.492 5.44-2.508 2.497-4.653 6.459-4.589 11.625.003 2.49.427 5.247 1.323 8.406 2.553 8.972 4.129 21.524 5.01 31.715.445 5.099.724 9.625.892 12.873.167 3.241.223 5.173.223 5.181l7.611-.224c-.003-.044-.234-8.063-1.141-18.491-.917-10.443-2.475-23.234-5.273-33.135-.75-2.639-1.033-4.712-1.033-6.325.015-2.237.486-3.553 1.167-4.698 1.003-1.701 2.88-3.099 5.203-4.875 1.145-.893 2.383-1.888 3.523-3.211 1.133-1.315 2.156-3.003 2.665-5.024.962-3.806 3.665-10.346 6.392-17.014 2.728-6.719 5.497-13.586 6.723-19.061 1.189-5.381 1.513-7.098 1.732-8.042.193-.858.372-1.36 1.375-4.686l-7.287-2.2z"/><path fill="#9F8946" d="M62.542 447.208c-.004.008-2.925 15.051-5.958 31.883-3.036 16.894-6.165 35.316-6.634 42.912a63.352 63.352 0 00-.115 4.007c.019 14.693 4.002 33.558 4.018 33.691l7.447-1.562s-.234-1.122-.598-3.076c-1.092-5.842-3.267-19.006-3.255-29.054 0-1.242.03-2.431.1-3.546.375-6.585 3.508-25.308 6.526-42.024a2647.353 2647.353 0 014.103-22.183c1.107-5.849 1.836-9.588 1.836-9.599l-7.47-1.449zM15.961 567.697c.015.015 6.607 7.292 13.765 15.252 7.135 7.945 14.906 16.664 16.954 19.184l.033.038-.041-.053c2.539 3.122 6.377 6.556 9.681 9.364a177.97 177.97 0 006.031 4.892l4.631-6.036s-.632-.489-1.68-1.322c-3.111-2.46-9.93-8.153-12.747-11.685l-.008-.014c-2.352-2.878-10.004-11.446-17.195-19.452-7.169-7.975-13.784-15.281-13.784-15.281l-5.64 5.113zm137.811 4.699c-1.182 1.085-1.884 2.207-2.813 3.709-3.077 5.128-7.229 14.389-10.934 23.041a799.9 799.9 0 00-7.592 18.447c-.435 1.138-.628 2.215-.922 3.783-.94 5.329-2.043 15.147-3.058 24.23-.506 4.525-.981 8.852-1.39 12.257a229.942 229.942 0 01-.554 4.311c-.156 1.114-.312 1.977-.357 2.125-.06.253-.416 1.376-.921 2.817-1.799 5.158-5.642 15.386-9.016 24.268a3619.854 3619.854 0 01-6.296 16.47l7.105 2.736c0-.008 3.817-9.923 7.779-20.389a1588.35 1588.35 0 005.589-14.954c.795-2.17 1.49-4.088 2.021-5.618.539-1.554.899-2.624 1.115-3.457.223-.898.379-1.955.591-3.471.713-5.203 1.735-15.028 2.779-24.066.517-4.512 1.041-8.823 1.52-12.189.242-1.688.468-3.137.676-4.229l.279-1.33.1-.388.03-.104c.851-2.155 4.824-12.1 9.104-21.933 2.141-4.921 4.363-9.812 6.289-13.647.958-1.917 1.847-3.567 2.579-4.786l.944-1.449.305-.387.074-.081-.052-.052.048.059.004-.007-.052-.052.048.059-5.022-5.723zm-13.683-35.469c-.06.045-6.366 4.438-13.899 10.777-7.544 6.362-16.296 14.538-21.432 22.722-5.147 8.302-8.031 19.703-9.896 29.879-1.836 10.146-2.535 19.057-2.769 21.852a25.74 25.74 0 00-.052 1.903c.004 5.462.732 19.771 1.46 33.521.364 6.868.729 13.557 1.003 18.834.271 5.255.454 9.231.45 10.25l-.003.126.003-.029v.015c-.067 1.896-.279 4.646-.476 6.883-.193 2.245-.372 3.983-.372 3.983l3.787.387-3.241-1.999c-.049.082-1.736 2.824-3.512 6.585-1.758 3.806-3.671 8.503-3.965 13.178l.004-.015a109.29 109.29 0 00-.197 6.414c0 3.479.197 5.352.212 5.485l7.566-.832-.022-.223c-.044-.543-.145-2.037-.145-4.431 0-1.598.044-3.589.182-5.968v-.016c.111-2.727 1.654-7.017 3.256-10.354a71.352 71.352 0 012.162-4.207l.699-1.219.241-.401.458-.743.089-.87c0-.044.721-7.075.877-11.371v-.015l.008-.364c-.004-1.509-.186-5.307-.461-10.644-.821-15.839-2.46-44.439-2.453-51.961l.03-1.278c.227-2.765.907-11.387 2.668-21.124 1.732-9.707 4.668-20.544 8.863-27.203 4.229-6.83 12.617-14.851 19.875-20.931a231.32 231.32 0 019.424-7.484 168.192 168.192 0 012.891-2.125l1.041-.743-4.354-6.244z"/><path fill="#9F8946" d="M63.065 616.79c1.019.476 2.602 1.041 5.047 1.843 7.228 2.342 20.64 6.058 32.247 6.772h.044-.026c1.862.104 3.794.147 5.756.147 14.152-.007 30.106-2.267 30.199-2.274l-1.062-7.536s-.952.134-2.631.342c-5.032.617-16.471 1.857-26.505 1.857-1.851 0-3.649-.044-5.34-.134h.019c-6.894-.408-15.084-2.125-21.763-3.895a163.689 163.689 0 01-8.581-2.512c-2.229-.721-3.917-1.367-4.132-1.479l-3.272 6.869zm-23.613 83.252c.007.008 1.94.625 5.024 1.703 4.624 1.612 11.785 4.243 18.515 7.201 6.701 2.907 13.1 6.377 15.59 8.823 3.809 3.598 9.893 12.338 15.683 21.108 5.86 8.823 11.509 17.697 15.579 22.588 4.441 5.27 10.885 8.927 16.92 11.685 6.028 2.727 11.725 4.474 14.498 5.343h.011c2.193.661 5.687 2.431 8.496 4.542 2.873 2.059 4.928 4.697 5.099 5.834.635 2.58 2.327 10.688 3.824 18.024 1.505 7.351 2.839 14.011 2.843 14.025l7.462-1.501c-.011-.045-5.333-26.616-6.742-32.37-1.189-4.37-4.445-7.425-7.934-10.115-3.553-2.631-7.466-4.66-10.803-5.708h.011c-2.753-.854-8.105-2.512-13.627-5.01-5.515-2.476-11.123-5.871-14.215-9.625-3.46-4.117-9.224-13.081-15.077-21.919-5.924-8.896-11.852-17.652-16.768-22.401-2.731-2.579-6.563-4.839-10.945-7.076-13.07-6.607-31.02-12.354-31.109-12.39l-2.335 7.239z"/><path fill="#9F8946" d="M165.085 655.736s-.085.469-.271 1.397c-.561 2.787-2.014 9.484-4.489 17.69-1.472 4.941-5.946 12.599-10.287 19.592-2.174 3.517-4.311 6.912-6.061 9.916-1.747 3.046-3.107 5.521-3.791 7.938-.483 1.932-.524 4.058-.55 7.046.011 13.713 2.739 42.173 3.4 48.356.84 7.752 2.482 11.55 2.646 11.907l6.935-3.137-1.431.646 1.442-.617-.011-.029-1.431.646 1.442-.617c-.022-.06-1.315-3.092-2.025-9.617-.646-5.932-3.363-34.637-3.356-47.539-.022-2.668.183-4.816.286-5.062.212-.893 1.379-3.308 3.021-6.095 2.471-4.244 6.002-9.692 9.261-15.186 3.263-5.522 6.276-11.021 7.793-15.942 3.426-11.356 4.95-19.853 4.969-19.957l-7.492-1.336zm-140.922-24.78c.019 0 .799.714 1.731 1.665 3.389 3.427 10.12 10.718 16.504 17.511 3.2 3.397 6.317 6.683 8.938 9.336 2.661 2.684 4.634 4.623 6.199 5.775l.045.03-.03-.022c2.702 1.932 7.02 4.541 10.758 6.749 3.724 2.192 6.816 3.931 6.827 3.938l3.738-6.629c-.007-.008-3.043-1.718-6.704-3.873-3.642-2.141-7.946-4.765-10.19-6.369l-.044-.038.056.045c-.309-.216-1.219-1.004-2.323-2.066-3.943-3.769-10.918-11.216-17.181-17.913a1368.838 1368.838 0 00-8.48-9.03 214.257 214.257 0 00-3.077-3.174c-.874-.862-1.453-1.441-2.129-1.969l-4.638 6.034zm185.491 67.533c-.011.037-1.891 6.035-3.779 13.297-1.884 7.328-3.816 15.66-3.854 21.347l.079 1.724c.401 4.162.921 12.22 1.337 19.17.413 6.956.725 12.828.725 12.843l7.604-.401c-.004-.038-1.249-23.562-2.092-32.347l-.041-.988c-.034-3.999 1.762-12.421 3.608-19.43a311 311 0 013.676-12.94l-7.263-2.275zm25.398 9.722c.003.008.672 4.14 1.349 9.395.676 5.24 1.337 11.64 1.334 15.772.018 1.687-.157 3.07-.25 3.284l-.007.023.015-.037c-.328 1.122-.417 2.11-.509 3.389a68.586 68.586 0 00-.116 4.363c.008 13.706 2.331 40.806 2.334 40.864l7.581-.654c0-.015-.576-6.756-1.152-15.192-.58-8.413-1.152-18.529-1.152-25.018 0-1.539.033-2.861.097-3.865l.115-1.227.059-.35.019-.096-.004.021.011-.037c.487-1.717.55-3.411.568-5.47-.019-9.588-2.776-26.282-2.78-26.386l-7.512 1.221z"/><path fill="#9F8946" d="M204.422 765.271c-.044.223-6.827 17.087-6.886 31.893 0 1.175.044 2.349.145 3.501l.019.224.044.222c.851 4.097 1.673 7.055 2.234 9.321.572 2.274.851 3.753.847 5.15 0 1.888-.495 4.155-2.304 8.569-2.263 5.501-3.415 8.526-4.024 10.25a27.107 27.107 0 00-.587 1.807c-.104.438-.193.616-.215 1.36h7.611-3.397l3.341.639.056-.639h-3.397l3.341.639-1.616-.312 1.602.38.015-.067-1.616-.312 1.602.38c-.015-.008.666-2.363 4.33-11.231 1.936-4.733 2.869-8.087 2.873-11.461-.003-2.43-.476-4.593-1.074-6.994-.602-2.416-1.36-5.158-2.163-9.023l-3.727.773 3.79-.327a33.565 33.565 0 01-.115-2.847c-.011-6.243 1.561-13.632 3.17-19.354a123.838 123.838 0 012.208-7.054c.301-.861.55-1.546.721-2.014l.26-.677-7.088-2.796zm-21.365-85.773c-.003.016-1.456 8.221-3.043 17.133-1.583 8.904-3.312 18.545-3.835 21.265l.004-.015c-.242 1.293-.283 2.631-.29 4.318.011 10.005 2.471 31.262 2.475 31.344l7.559-.862c0-.015-.605-5.314-1.215-11.804-.609-6.481-1.211-14.203-1.208-18.678-.008-1.435.085-2.586.149-2.847l.007-.045-.003.03c1.084-5.664 6.89-38.494 6.894-38.516l-7.494-1.323zm-53.191 87.081c-.008 0-2.312.052-5.794.052-3.835 0-9.083-.06-14.096-.312-4.995-.237-9.852-.706-12.49-1.36l.115.03-.123-.03c-3.794-.893-8.451-3.486-11.978-5.901a72.773 72.773 0 01-4.34-3.174l-1.223-.988-.397-.342-5.002 5.738c.078.066 2.765 2.407 6.693 5.068 3.946 2.653 9.064 5.679 14.464 7.001l-.112-.029.104.029c3.672.877 8.682 1.294 13.914 1.562 5.21.252 10.555.319 14.471.319 3.553 0 5.931-.053 5.95-.053l-.156-7.61z"/><path fill="#9F8946" d="M132.114 620.454c0 .008 3.649 14.301 7.6 28.913 1.977 7.306 4.028 14.694 5.749 20.447.862 2.876 1.639 5.344 2.301 7.231.334.944.635 1.747.933 2.438l.483.996.903 1.24.056-.044-.056.044.007.008.048-.052-.056.044c.178.187.892 1.36 1.538 2.758 1.011 2.134 2.115 4.913 2.944 7.121a129.482 129.482 0 011.389 3.843l.012.036.015.03c.007.021 4.679 12.88 9.536 26.407a3299.092 3299.092 0 016.849 19.244c1.94 5.507 3.408 9.825 3.664 10.799l7.344-1.991c-.45-1.636-1.854-5.708-3.828-11.335-5.876-16.73-16.412-45.718-16.416-45.726l-3.575 1.301 3.601-1.234c-.015-.036-1.122-3.27-2.557-6.867-.717-1.807-1.516-3.694-2.33-5.366-.866-1.702-1.527-3.062-2.813-4.408l-1.527 1.539 1.921-1.056-.39-.476-1.531 1.531 1.921-1.056c-.107-.156-.698-1.605-1.315-3.493-2.26-6.778-6.05-20.551-9.239-32.525-3.192-11.98-5.801-22.208-5.809-22.23l-7.372 1.889z"/><path fill="#9F8946" d="M82.598 488.823c.003.007.921 2.664 2.308 6.801 2.078 6.199 5.199 15.697 7.786 24.341 1.293 4.319 2.453 8.429 3.274 11.773.833 3.286 1.29 6.028 1.26 6.749.015 1.167.245 2.073.546 3.107 1.145 3.738 3.761 9.067 7.158 15.734 5.077 9.923 11.844 22.477 17.348 34.16 2.753 5.835 5.188 11.454 6.923 16.352 1.747 4.884 2.75 9.112 2.798 11.767l7.611-.193c-.19-5.843-2.59-12.963-5.927-21.05-5.028-12.062-12.35-25.954-18.4-37.579-3.021-5.812-5.727-11.053-7.637-15.125-.956-2.036-1.713-3.783-2.197-5.1l-.509-1.59-.093-.432-.011-.089-.382.037h.382v-.037l-.382.037h.382c-.011-1.546-.293-3.188-.717-5.263-1.498-7.112-5.058-18.707-8.269-28.682-3.207-9.956-6.054-18.188-6.058-18.207l-7.194 2.49v-.001zm124.139 274.24s-9.904 3.366-20.399 6.979a2751.653 2751.653 0 00-15.033 5.203c-4.411 1.546-7.711 2.72-9.086 3.27l.048-.015-.03.015c-.78.319-4.318 1.42-8.755 2.721-6.73 1.984-15.924 4.623-23.681 6.949-3.88 1.159-7.395 2.245-10.101 3.145a68.19 68.19 0 00-3.434 1.212l-1.271.535-1.341.802 4.764 5.932-1.129-1.404.84 1.604.29-.2-1.129-1.404.84 1.604c.148-.089 1.226-.527 2.627-1.003 5.017-1.74 15.077-4.698 24.297-7.381 4.616-1.346 9.034-2.632 12.568-3.679 3.568-1.07 6.087-1.836 7.44-2.371l.018-.008c.981-.394 4.397-1.62 8.737-3.137 6.548-2.296 15.393-5.336 22.599-7.804a3487.124 3487.124 0 0112.772-4.356l-2.451-7.209zm377.695 48.989c.022-.015 10.785-5.448 22.729-11.477a13613.121 13613.121 0 0129.671-14.954l.045-.021-.03.015c9.35-4.734 32.154-17.036 52.475-27.561 10.51-5.433 31.797-18.827 51.545-31.871 9.855-6.511 19.287-12.925 26.721-18.18 3.709-2.624 6.927-4.957 9.461-6.891 2.549-1.955 4.341-3.403 5.545-4.646 3.761-3.961 9.417-11.498 14.427-18.96 2.498-3.724 4.801-7.396 6.57-10.569.885-1.591 1.643-3.055 2.229-4.385.579-1.346 1.026-2.482 1.227-3.851.766-5.618 3.917-33.811 4.646-39.199.104-.772.134-1.546.134-2.416-.008-4.214-.811-10.77-1.725-17.058-.922-6.272-1.947-12.062-2.49-14.508v.015c-.415-1.68-1.137-2.676-1.991-3.88-2.974-3.984-8.592-9.149-13.661-13.631-5.032-4.431-9.403-7.976-9.425-7.998l-2.401 2.958 3.554-1.359s-.521-1.368-1.36-3.643c-2.505-6.779-7.812-21.688-9.751-30.519-.915-3.901-3.435-8.057-6.727-13.036-3.308-4.921-7.44-10.414-11.588-15.884l-6.064 4.601c4.132 5.448 8.197 10.859 11.326 15.526 3.145 4.601 5.3 8.711 5.619 10.437 2.876 12.895 11.41 35.141 11.438 35.237l.365.951.787.647c.008 0 1.39 1.122 3.509 2.905 3.181 2.676 7.989 6.809 12.033 10.674 2.014 1.924 3.843 3.791 5.136 5.299.646.751 1.16 1.42 1.472 1.896l.305.52.029.06.989-.363-1.025.223.036.141.989-.363-1.025.223.007.06-.007-.045c.46 2.037 1.494 7.864 2.385 13.966.907 6.08 1.666 12.658 1.65 15.95l-.059 1.39c-.759 5.612-3.91 33.812-4.646 39.2.014.015-.201.81-.655 1.799-3.166 7.351-16.247 26.044-21.762 31.729-.521.558-2.26 2.029-4.66 3.85-16.999 12.985-69.279 47.324-86.604 56.235-20.381 10.555-43.273 22.899-52.415 27.53l-.022.015.037-.021c-9.283 4.646-52.422 26.445-52.43 26.445l3.432 6.792z"/><path fill="#9F8946" d="M811.787 613.468c0-.008.053-1.939.224-5.181.483-9.699 2.044-31.098 5.901-44.588.892-3.151 1.316-5.909 1.316-8.392.015-3.435-.862-6.37-2.268-8.659-2.118-3.441-5.017-5.329-7.039-6.935-1.033-.795-1.857-1.509-2.415-2.163-.565-.661-.877-1.219-1.07-1.955-1.249-4.815-4.007-11.312-6.719-17.994-2.713-6.629-5.382-13.427-6.333-17.827-1.189-5.374-1.472-6.894-1.754-8.124-.312-1.312-.535-1.933-1.502-5.158l-7.283 2.185c.995 3.326 1.174 3.832 1.367 4.693.223.948.551 2.657 1.739 8.042 1.219 5.471 3.984 12.338 6.719 19.057 2.729 6.668 5.427 13.208 6.392 17.014.685 2.713 2.269 4.764 3.836 6.25 2.386 2.23 4.771 3.635 6.28 5.233 1.479 1.627 2.371 3.003 2.438 6.34 0 1.613-.275 3.687-1.026 6.318-2.802 9.893-4.362 22.684-5.276 33.127-.907 10.428-1.138 18.447-1.138 18.491l7.611.226z"/><path fill="#9F8946" d="M818.827 559.7c.015-.126 4.005-19.05 4.021-33.744 0-1.359-.037-2.684-.111-3.962-.468-7.596-3.605-26.01-6.646-42.9-3.039-16.832-5.968-31.875-5.968-31.886l-7.478 1.457c.008.007.736 3.746 1.844 9.596 1.665 8.774 4.177 22.272 6.354 34.881 2.178 12.569 4.014 24.423 4.297 29.314.066 1.101.096 2.275.096 3.501.008 6.689-.951 14.812-1.925 21.19a244.21 244.21 0 01-1.338 7.916c-.356 1.954-.595 3.084-.595 3.092l7.449 1.545zm-8.526 56.674c.03-.022 2.736-2.104 6.028-4.892 3.308-2.809 7.143-6.242 9.685-9.364l-.008.015c2.052-2.52 9.818-11.238 16.954-19.184 7.158-7.96 13.75-15.237 13.758-15.252l-5.634-5.113a5025.5 5025.5 0 00-13.787 15.281c-7.188 8.006-14.843 16.574-17.191 19.452l-.008.014c-1.857 2.319-5.56 5.701-8.688 8.348a185.415 185.415 0 01-5.746 4.659l4.637 6.036zm-47.539 91.48c-.007-.021-3.812-9.899-7.766-20.343a1815.693 1815.693 0 01-5.568-14.88 396.453 396.453 0 01-1.983-5.515c-.506-1.449-.87-2.564-.929-2.824l.007.015c-.06-.178-.246-1.256-.424-2.639-.676-4.949-1.71-14.828-2.757-23.903-.521-4.548-1.049-8.896-1.547-12.397-.253-1.747-.49-3.285-.729-4.556-.26-1.302-.438-2.215-.832-3.233l.015.021c-.877-2.222-4.854-12.203-9.202-22.178-2.17-4.995-4.43-9.975-6.458-14.019-1.019-2.029-1.97-3.82-2.861-5.299-.937-1.502-1.636-2.624-2.817-3.709l-5.024 5.723.044-.059-.052.052.008.007.044-.059-.052.052c.149.126.841 1.055 1.568 2.333 2.684 4.563 6.831 13.743 10.384 22.09a786.795 786.795 0 017.328 17.846l.016.022v.015c.088.238.342 1.338.579 2.758.869 5.062 1.978 14.828 2.958 23.695.491 4.444.959 8.681 1.368 12.063.2 1.687.386 3.166.558 4.362.178 1.219.312 2.081.497 2.868l.008.016c.216.825.58 1.896 1.115 3.449 3.724 10.636 15.393 40.938 15.4 40.961l7.104-2.735zm22.722 19.808c.015-.126.208-1.991.208-5.471 0-1.731-.052-3.872-.193-6.399-.298-4.667-2.208-9.372-3.969-13.17-1.77-3.769-3.449-6.504-3.501-6.585l-3.24 1.991 3.783-.379c0-.008-.172-1.739-.365-3.984-.2-2.244-.408-5.002-.476-6.897l-.007-.119c0-1.039.178-5.016.453-10.264.817-15.869 2.453-44.105 2.46-52.288 0-.78-.015-1.376-.06-1.94-.223-2.795-.922-11.706-2.765-21.852-1.865-10.176-4.757-21.577-9.907-29.879-5.121-8.177-13.877-16.352-21.414-22.722-7.536-6.333-13.84-10.732-13.899-10.777l-4.354 6.244 1.041.743a215.718 215.718 0 0115.08 11.98c6.519 5.686 13.401 12.591 17.088 18.56 4.206 6.659 7.143 17.496 8.882 27.203 1.762 9.737 2.438 18.359 2.668 21.124l.03 1.315c0 5.01-.721 19.443-1.45 33.097-.363 6.838-.729 13.513-1.003 18.805-.268 5.321-.453 9.128-.461 10.65l.008.401c.163 4.289.877 11.32.884 11.357l.082.87.461.743.237.408a67.23 67.23 0 013.449 6.728c1.375 3.069 2.557 6.674 2.668 9.067.135 2.379.179 4.378.179 5.968 0 1.599-.044 2.795-.09 3.583l-.052.854-.022.23 7.567.805z"/><path fill="#9F8946" d="M736.354 623.278c.089.008 16.032 2.268 30.191 2.274 1.962 0 3.895-.044 5.761-.147h.021c7.744-.469 16.263-2.29 23.241-4.134a163.462 163.462 0 008.994-2.639c2.445-.795 4.036-1.367 5.047-1.836l-3.256-6.882c-.23.119-1.917.766-4.146 1.486-6.787 2.223-19.979 5.805-30.341 6.406h.045-.022c-1.694.09-3.493.134-5.344.134-6.689 0-14.011-.549-19.629-1.099a273.283 273.283 0 01-6.876-.759c-1.672-.208-2.623-.342-2.631-.342l-1.055 7.538zM711.15 820.919c0-.015 1.338-6.675 2.84-14.025 1.501-7.336 3.195-15.444 3.827-18.032.171-1.129 2.223-3.768 5.099-5.826 2.803-2.119 6.296-3.881 8.488-4.542l-.066.022.074-.022c2.78-.869 8.473-2.616 14.508-5.343 6.036-2.758 12.479-6.415 16.924-11.685 4.066-4.891 9.715-13.765 15.572-22.588 5.79-8.771 11.87-17.511 15.683-21.108 1.643-1.598 5.069-3.754 9.12-5.782 6.087-3.093 13.638-6.103 19.613-8.318a357.139 357.139 0 017.448-2.645c1.851-.633 2.928-.975 2.936-.982l-2.333-7.238c-.045.015-8.064 2.594-17.252 6.25-4.601 1.829-9.483 3.925-13.854 6.14-4.378 2.237-8.213 4.497-10.941 7.076-4.913 4.749-10.845 13.505-16.768 22.401-5.85 8.838-11.609 17.802-15.066 21.919-3.092 3.754-8.703 7.149-14.219 9.625-5.522 2.498-10.881 4.155-13.631 5.01h.007c-3.337 1.041-7.246 3.077-10.799 5.708-3.486 2.69-6.749 5.745-7.931 10.115-1.412 5.754-6.734 32.325-6.741 32.37l7.462 1.5z"/><path fill="#9F8946" d="M726.982 779.586c.163-.356 1.821-4.162 2.652-11.922.669-6.169 3.39-34.554 3.405-48.289-.03-3.025-.067-5.166-.558-7.105-.685-2.416-2.045-4.898-3.791-7.938-2.624-4.498-6.132-9.908-9.291-15.237-3.159-5.3-5.945-10.592-7.046-14.278a207.755 207.755 0 01-3.627-13.684 141.643 141.643 0 01-1.144-5.411l-7.492 1.353c.022.098 1.561 8.601 4.979 19.949 2.015 6.533 6.697 14.234 11.082 21.384 2.193 3.553 4.311 6.928 5.961 9.752 1.644 2.787 2.81 5.202 3.025 6.102.104.245.312 2.423.29 5.114.008 12.925-2.705 41.562-3.359 47.472-.372 3.493-.922 5.976-1.353 7.544a20.104 20.104 0 01-.521 1.672l-.133.35-.022.045 1.464.64-1.449-.662-.015.022 1.464.64-1.449-.662 6.928 3.149zm70.565-103.648c.008-.008 3.092-1.746 6.816-3.938 3.738-2.208 8.057-4.817 10.762-6.742l.045-.037-.022.022c.93-.677 1.895-1.561 3.129-2.734 4.252-4.074 11.194-11.499 17.481-18.226 3.137-3.353 6.103-6.526 8.429-8.972 1.167-1.218 2.17-2.267 2.95-3.039.751-.758 1.368-1.316 1.376-1.309l-4.623-6.05c-.766.602-1.45 1.293-2.513 2.356-3.59 3.627-10.265 10.873-16.634 17.645-3.182 3.382-6.273 6.63-8.815 9.209-2.497 2.549-4.63 4.534-5.239 4.95l.021-.015c-2.259 1.612-6.562 4.236-10.205 6.377-3.656 2.155-6.696 3.865-6.704 3.873l3.746 6.63zM668.51 766.869c0-.015.312-5.887.729-12.843.416-6.95.937-15.008 1.345-19.185l.074-1.717c-.036-5.687-1.97-14.018-3.857-21.339-1.888-7.262-3.769-13.26-3.775-13.297l-7.27 2.274c.008.007.462 1.449 1.152 3.806 1.033 3.53 2.595 9.074 3.88 14.568 1.293 5.463 2.282 11.021 2.26 13.987l-.045.988c-.848 8.801-2.088 32.316-2.088 32.354l7.595.404zm-35.031 18.389c0-.06 2.319-27.182 2.327-40.872 0-1.644-.038-3.1-.112-4.356-.096-1.271-.186-2.259-.505-3.373-.089-.216-.268-1.599-.246-3.301-.007-4.133.655-10.524 1.331-15.757.677-5.255 1.346-9.372 1.346-9.388l-7.508-1.219c-.007.104-2.765 16.775-2.779 26.363.015 2.074.082 3.775.572 5.492l.022.104c.142.632.275 2.779.268 5.434 0 6.481-.572 16.604-1.145 25.025-.58 8.436-1.152 15.192-1.152 15.207l7.581.641z"/><path fill="#9F8946" d="M678.982 837.568c-.022-.744-.111-.922-.216-1.36-.327-1.174-1.219-3.791-4.623-12.063-1.799-4.407-2.289-6.667-2.289-8.562-.008-1.397.274-2.876.84-5.158.564-2.259 1.375-5.225 2.223-9.313l.044-.222.022-.224c.097-1.16.149-2.326.149-3.508-.061-14.799-6.831-31.663-6.883-31.879l-7.076 2.779.253.685c1.219 3.196 6.132 17.444 6.095 28.415 0 .987-.045 1.939-.119 2.854l3.79.327-3.724-.773c-.803 3.865-1.56 6.615-2.162 9.023-.588 2.401-1.063 4.564-1.063 6.994 0 3.382.93 6.734 2.862 11.453 2.244 5.441 3.359 8.385 3.901 9.9.268.759.387 1.16.424 1.294l.015.045 2.944-.706h-3.019l.074.706 2.944-.706h-3.019 7.613zm15.334-84.025c0-.082 2.459-21.347 2.467-31.352-.008-1.688-.044-3.018-.29-4.304l.008.008c-.528-2.72-2.252-12.36-3.836-21.265-1.582-8.912-3.032-17.117-3.04-17.133l-7.491 1.324c0 .021 5.805 32.852 6.89 38.516l-.008-.067.016.075c.059.268.148 1.412.141 2.846.008 4.475-.594 12.197-1.204 18.679-.609 6.496-1.219 11.796-1.219 11.811l7.566.862zm98.83 1.011l-.401.342a73.98 73.98 0 01-6.941 5.076c-3.293 2.134-7.292 4.207-10.599 4.987l-.008.007c-2.631.647-7.47 1.116-12.442 1.354-4.994.252-10.228.312-14.07.312-3.522 0-5.856-.052-5.864-.052l-.163 7.61c.022 0 2.431.053 6.027.053 3.925 0 9.254-.06 14.442-.319 5.217-.268 10.204-.685 13.869-1.569l-.008.008c5.396-1.322 10.51-4.34 14.464-7.001 3.925-2.661 6.615-5.002 6.689-5.068l-4.995-5.74z"/><path fill="#9F8946" d="M733.195 618.566c-.007.03-3.642 14.263-7.573 28.816-1.97 7.269-4.015 14.612-5.694 20.246-.847 2.817-1.598 5.203-2.192 6.897-.297.848-.55 1.517-.728 1.933l-.172.364 1.918 1.048-1.538-1.523-.38.476 1.918 1.048-1.538-1.523.021-.023c-1.292 1.354-1.955 2.714-2.824 4.416-2.415 4.973-4.854 12.167-4.891 12.233l3.604 1.234-3.574-1.301s-4.683 12.896-9.552 26.438a2882.662 2882.662 0 00-6.859 19.287c-1.978 5.627-3.383 9.699-3.828 11.335l7.344 1.991c.26-.974 1.724-5.299 3.664-10.799 2.921-8.325 7.023-19.749 10.383-29.077 3.367-9.335 5.991-16.56 5.998-16.574l.016-.037.007-.029c.008-.008.261-.766.699-1.97.661-1.813 1.701-4.602 2.771-7.076.535-1.241 1.078-2.4 1.554-3.285l.617-1.056.193-.282.045-.053-.224-.2.209.216.015-.016-.224-.2.209.216.029-.029-.007.007.898-1.241c.647-1.219 1.145-2.653 1.858-4.75 4.742-14.285 15.185-55.217 15.199-55.269l-7.371-1.888z"/><path fill="#9F8946" d="M782.89 486.336c-.007.019-3.724 10.77-7.447 22.555-1.865 5.9-3.731 12.048-5.144 17.28-.713 2.623-1.308 5.01-1.731 7.053-.424 2.075-.706 3.717-.721 5.263h.156l-.156-.015v.015h.156l-.156-.015c0 .305-.527 2.074-1.486 4.259-3.367 7.879-11.544 22.64-18.894 37.386-3.68 7.396-7.165 14.821-9.797 21.548-2.616 6.756-4.438 12.702-4.594 17.749l7.611.193c.045-3.813 2.111-10.651 5.345-18.314 4.815-11.572 12.062-25.36 18.12-36.999 3.033-5.82 5.76-11.112 7.774-15.4 1.011-2.155 1.836-4.051 2.445-5.708.595-1.695 1.048-2.988 1.085-4.698-.015-.445.171-1.896.559-3.701 1.345-6.444 4.883-18.062 8.057-27.909a979.508 979.508 0 016.013-18.054l-7.195-2.483v-.005zM663.485 770.272c.022.008 9.9 3.367 20.38 6.965 5.24 1.807 10.629 3.665 14.991 5.195 4.342 1.517 7.76 2.743 8.741 3.137l.015.008c1.568.624 4.861 1.604 9.425 2.958 6.779 1.999 15.957 4.63 23.65 6.941 3.843 1.146 7.321 2.223 9.893 3.077 1.278.424 2.342.796 3.078 1.078l.787.334.097.045 1.063-1.888-1.354 1.688.29.2 1.063-1.888-1.354 1.688 4.772-5.932c-.788-.594-1.175-.714-1.739-.981-1.97-.847-5.381-1.947-9.782-3.308-6.556-2.021-15.08-4.488-22.379-6.614a1241.986 1241.986 0 01-9.603-2.832c-2.588-.78-4.571-1.419-5.085-1.628l-.044-.022.06.022c-1.375-.55-4.675-1.724-9.083-3.27-13.156-4.602-35.424-12.176-35.432-12.183l-2.45 7.21z"/><path fill="#0053A1" d="M438.445 861.895s27.132 0 57.739 1.13c30.533 1.13 70.691 4.979 70.691 4.979s1.108 35.134 3.807 48.097c2.683 13.008 30.956 23.323 52.748 22.922 21.793-.371 43.964 2.312 78.325 8.429 34.398 6.11 68.781 34.814 68.781 34.814l-25.984-73.404 87.08-9.187s-19.414-14.137-47.346-27.062c-27.887-13.008-64.552-19.147-87.481-20.292-22.951-1.145-64.218 2.676-64.218 2.676s-.356-25.583-1.13-35.914c-.787-10.331-2.289-44.358-2.289-44.358s-30.221-9.543-78.741-15.638c-48.505-6.132-113.871-6.511-113.871-6.511h-.387s-65.347.379-113.875 6.511c-48.546 6.095-78.722 15.638-78.722 15.638s-1.531 34.027-2.289 44.358c-.77 10.331-1.152 35.914-1.152 35.914s-41.281-3.82-64.195-2.676c-22.918 1.145-59.624 7.284-87.511 20.292-27.902 12.925-47.387 27.062-47.387 27.062l87.122 9.187-25.984 73.404s34.394-28.704 68.789-34.814c34.394-6.117 56.573-8.8 78.339-8.429 21.77.401 50.059-9.914 52.738-22.922 2.672-12.963 3.828-48.097 3.828-48.097s40.095-3.85 70.676-4.979c30.596-1.13 57.722-1.13 57.722-1.13h4.177z"/><path fill="#9F8946" d="M438.445 861.895v5.708c.018 0 6.737 0 17.313.142 10.577.142 24.974.424 40.218.98 15.118.565 32.741 1.807 46.551 2.906 13.81 1.101 23.777 2.052 23.807 2.052l.542-5.679-5.708.179c.008.03.283 8.853.9 19.347.639 10.54 1.546 22.521 3.024 29.731 1.062 4.994 4.191 8.926 8.034 12.174 5.82 4.869 13.684 8.525 22.306 11.172 8.621 2.615 17.986 4.133 26.758 4.133l1.337-.008c1.294-.022 2.58-.038 3.872-.038 20.024 0 41.185 2.646 73.353 8.377 16.024 2.817 32.764 11.201 45.302 18.938a216.131 216.131 0 0115.178 10.264 163.61 163.61 0 014.222 3.227l1.085.869.342.282 15.988 13.35-30.519-86.219 94.64-9.988-11.996-8.734c-.201-.142-19.86-14.456-48.306-27.626l.016.007c-29.002-13.475-66.002-19.606-89.614-20.818-3.115-.156-6.505-.224-10.057-.224-23.651.008-54.883 2.914-54.973 2.914l.528 5.686 5.709-.082c-.008-.066-.35-25.53-1.145-36.256-.388-5.018-.959-16.137-1.436-25.902-.468-9.789-.847-18.262-.847-18.284l-.171-3.991-3.813-1.197c-.253-.082-30.785-9.707-79.744-15.86-49.048-6.191-114.436-6.548-114.551-6.556h-.472.018c-.115.008-65.488.364-114.559 6.556-48.98 6.153-79.473 15.778-79.726 15.86l-3.802 1.197-.179 3.983c-.003.022-.382 8.503-.862 18.285-.476 9.772-1.048 20.892-1.42 25.917-.791 10.711-1.163 36.175-1.167 36.241l5.708.089.528-5.686c-.089 0-31.332-2.906-54.964-2.914-3.549 0-6.931.067-10.045.224-23.599 1.212-60.643 7.344-89.637 20.818l.011-.007c-28.415 13.17-48.145 27.484-48.338 27.618l-12.041 8.742 94.717 9.988-30.518 86.211 15.988-13.342.338-.282c1.806-1.464 10.655-8.51 22.896-15.816 12.223-7.313 27.879-14.835 42.897-17.481 32.202-5.73 53.37-8.377 73.375-8.377 1.293 0 2.579.016 3.865.038l1.337.008c11.684-.016 24.438-2.677 35.071-7.121 5.318-2.244 10.104-4.928 13.984-8.184 3.839-3.248 6.972-7.18 8.035-12.182 1.468-7.194 2.382-19.176 3.025-29.724.628-10.486.918-19.302.918-19.34l-5.705-.186.546 5.679c.007 0 2.482-.238 6.704-.609 12.658-1.137 40.905-3.508 63.638-4.349 15.236-.557 29.626-.839 40.199-.98 10.573-.142 17.292-.142 17.311-.142h4.178v-11.416h-4.178c-.041 0-27.214 0-57.934 1.13-30.845 1.145-70.955 5.002-71.011 5.009l-4.995.476-.164 5.018c0 .008-.07 2.163-.219 5.634-.227 5.211-.625 13.334-1.211 21.317-.58 7.953-1.386 15.884-2.282 20.179-.253 1.383-1.516 3.509-4.207 5.754-3.973 3.373-10.703 6.696-18.273 8.978-7.574 2.305-16.002 3.649-23.431 3.643l-1.133-.008c-1.36-.021-2.713-.037-4.069-.037-21.064.008-42.957 2.787-75.374 8.556-18.373 3.292-36.03 12.315-49.285 20.454-13.238 8.153-22.016 15.475-22.161 15.594l3.657 4.385 5.381 1.902 28.4-80.228-94.32-9.944-.598 5.679 3.353 4.623.817-.579c3.921-2.758 21.651-14.829 45.618-25.926l.011-.007c26.78-12.539 63.147-18.687 85.386-19.764 2.858-.142 6.069-.209 9.473-.209 11.375 0 24.903.715 35.539 1.436 5.318.356 9.918.714 13.189.988 3.267.268 5.177.446 5.18.446l6.144.564.093-6.169c0-.008.093-6.369.286-14.025.19-7.633.479-16.619.852-21.547.773-10.547 2.296-44.484 2.296-44.529l-5.701-.253 1.721 5.441c.004 0 .409-.127 1.293-.387 6.202-1.843 34.327-9.744 76.418-15.029 23.978-3.032 52.337-4.659 74.646-5.515 11.156-.431 20.804-.669 27.661-.795a854.758 854.758 0 0110.892-.156h.354-.052.019c.011 0 4.039.022 10.896.156 20.551.387 66.336 1.762 102.295 6.31 24.044 3.019 43.54 6.891 56.993 10.005 6.727 1.554 11.943 2.914 15.467 3.888 1.754.483 3.092.869 3.977 1.137.893.26 1.301.387 1.301.387l1.717-5.441-5.7.253c0 .045 1.494 33.968 2.296 44.536.372 4.913.662 13.899.84 21.54.186 7.656.275 14.011.275 14.025l.089 6.169 6.147-.564s1.917-.179 5.181-.446c9.788-.811 31.64-2.424 48.735-2.424 3.411 0 6.622.067 9.491.209 22.246 1.077 58.568 7.225 85.349 19.764l.014.007c13.707 6.341 25.361 13 33.552 18.055a272.479 272.479 0 019.528 6.146c1.093.743 1.933 1.324 2.498 1.718l.81.579 3.359-4.615-.602-5.679-94.275 9.944 28.4 80.228 5.381-1.902 3.657-4.385c-.142-.112-8.92-7.44-22.156-15.594-13.254-8.139-30.905-17.162-49.286-20.454-32.385-5.769-54.273-8.548-75.353-8.556-1.359 0-2.712.016-4.064.037l-1.145.008c-9.916.022-21.6-2.4-30.66-6.229-4.534-1.903-8.406-4.155-11.053-6.392-2.69-2.245-3.953-4.371-4.206-5.754-1.219-5.76-2.215-17.83-2.803-28.095a852.562 852.562 0 01-.677-13.394 634.845 634.845 0 01-.208-5.634l-.163-5.025-5.002-.476c-.052-.007-40.226-3.864-71.025-5.009-30.727-1.13-57.907-1.13-57.948-1.13v5.706z"/><path fill="#9F8946" d="M305.49 862.312c-.015 0-7.979.52-17.317 1.271-9.376.751-19.979 1.688-25.814 2.624l.026-.008h.008c-5.14.818-11.494 1.925-17.203 4.615-2.847 1.368-5.608 3.166-7.804 5.843-2.2 2.646-3.631 6.287-3.598 10.175-.019 3.738.94 7.307 2.992 10.115 1.52 2.104 3.538 3.665 5.656 4.743 6.399 3.128 13.624 3.092 21.306 3.166 2.348 0 4.731-.022 7.105-.022 8.172 0 16.456.111 22.684.223 6.232.111 10.391.224 10.402.224l.304-11.417c-.03 0-16.846-.445-33.391-.445-2.453 0-4.838.021-7.105.021-6.552.045-12.215-.327-15.136-1.493-1.487-.565-2.167-1.138-2.583-1.702-.397-.573-.799-1.412-.817-3.412.034-1.375.331-2.044 1.029-2.958 1.03-1.338 3.568-2.877 6.942-3.977 3.345-1.115 7.343-1.858 10.963-2.416l.033-.007c4.991-.804 15.687-1.784 24.907-2.512 9.253-.744 17.143-1.257 17.162-1.264l-.751-11.387z"/><path fill="#9F8946" d="M234.428 854.774c0 .045-.721 18.678-.725 28.482 0 1.345.015 2.526.048 3.529l11.409-.386a101.39 101.39 0 01-.041-3.144c0-4.661.179-11.707.357-17.55.182-5.841.36-10.479.36-10.486l-11.408-.445zm332.069 18.924c.022.007 7.908.513 17.162 1.24 9.224.721 19.927 1.68 24.937 2.482h.015c4.816.729 10.339 1.859 14.018 3.65 1.852.877 3.159 1.865 3.865 2.749.699.915.996 1.592 1.026 2.966-.016 1.993-.417 2.832-.811 3.405-.32.43-.751.831-1.591 1.263-2.452 1.412-8.636 1.992-15.973 1.917-2.312 0-4.749-.029-7.254-.029-16.537 0-33.41.513-33.439.513l.342 11.417c.015 0 4.185-.134 10.421-.26 6.235-.127 14.522-.254 22.677-.254 2.423 0 4.86.03 7.254.03 6.801-.044 13.223-.097 19.05-2.229 2.892-1.078 5.745-2.876 7.774-5.693 2.037-2.803 2.98-6.354 2.966-10.079.03-3.887-1.39-7.521-3.59-10.168-3.314-4.005-7.768-6.094-12.16-7.596-4.422-1.472-8.971-2.281-12.821-2.884h.015c-5.842-.914-16.448-1.844-25.82-2.579a1344.624 1344.624 0 00-17.317-1.248l-.746 11.387z"/><path fill="#9F8946" d="M626.887 855.228c0 .008.186 4.615.372 10.429.179 5.805.364 12.828.364 17.496 0 1.285-.016 2.394-.045 3.203l11.416.401c.03-1.018.046-2.229.046-3.604 0-9.834-.751-28.341-.751-28.385l-11.402.46zm-362.443-69.072l19.34-1.59 5.526 66.418-19.332 1.59zm35.223-3.686l58.725-4.266 1.19 16.381-19.683 1.427 3.662 50.081-19.37 1.412-3.646-50.096-19.681 1.457zm110.207 49.457l-22.094.579-2.724 11.075-19.863.527 21.818-67.272 21.257-.565 25.345 66.002-20.291.551-3.448-10.897zm-4.489-14.301l-7.503-23.77-6.236 24.127 13.739-.357zm42.994-42.276l19.384.504-1.309 50.245 30.266.802-.431 16.382-49.669-1.293zm66.64 2.75l19.37 1.085-3.664 66.551-19.363-1.085zm75.189 61.363l-22.002-2.215-4.116 10.644-19.741-1.992 30.161-63.965 21.168 2.141 16.753 68.678-20.172-2.021-2.051-11.27zm-2.646-14.731l-4.43-24.559-9.231 23.19 13.661 1.369z"/><path fill="#00795D" d="M169.99 182.976v268.127c0 38.308 9.559 130.591 108.862 196.786 25.39 16.916 46.989 29.225 64.79 38.382V182.976H169.99z"/><path fill="#DD052B" d="M529.021 182.976v503.295c17.81-9.157 39.394-21.466 64.798-38.382 99.3-66.195 108.872-158.479 108.872-196.786V182.976h-173.67z"/><path fill="#FFF" d="M343.646 182.976v503.279c25.766 13.216 43.529 19.815 52.731 23.77 16.842 7.225 39.894 15.46 39.894 15.46h.123s23.06-8.235 39.887-15.46c9.217-3.954 26.98-10.554 52.741-23.77V182.976H343.646z"/><path fill="#0053A1" d="M169.987 11.417h532.691v171.551H169.987z"/><path fill="#9F8946" d="M230.737 47.211h80.06v22.581h-47.676v18.243h40.835v21.205h-40.835v42.667h-32.384zm105.747 79.83h26.471v24.866h-26.471zm56.038-79.83h32.395v104.696h-32.395zm64.018 79.83H483v24.866h-26.46zm55.135 24.87v-104.7h53.871c9.99 0 17.646.862 22.937 2.575 5.263 1.717 9.515 4.883 12.74 9.544 3.24 4.649 4.86 10.297 4.86 16.972 0 5.816-1.248 10.836-3.716 15.062-2.498 4.214-5.901 7.633-10.271 10.234-2.78 1.684-6.556 3.069-11.41 4.151 3.858 1.301 6.623 2.594 8.392 3.88 1.189.866 2.898 2.702 5.144 5.534s3.731 5.017 4.504 6.537l15.803 30.209H578.02l-17.311-31.953c-2.179-4.132-4.141-6.819-5.85-8.053-2.349-1.62-4.98-2.442-7.938-2.442h-2.869v42.448h-32.377zm32.376-62.274h13.706c1.472 0 4.34-.472 8.636-1.416 2.111-.427 3.91-1.516 5.263-3.274 1.353-1.765 2.066-3.78 2.066-6.058 0-3.363-1.1-5.957-3.255-7.763-2.156-1.803-6.199-2.702-12.146-2.702H544.05v21.213zm89.354 37.404h26.46v24.866h-26.46zm-463.422 67.343h532.695v-22.833H169.983"/><path fill="#9F8946" d="M436.408 725.478l3.843 10.747c.111-.037 23.186-8.272 40.541-15.713 7.321-3.151 21.733-8.555 41.771-18.269 20.098-9.729 46.074-23.866 77.581-44.863 51.59-34.339 80.391-76.051 95.903-114.023 15.556-37.981 18.038-72.156 18.046-92.261V0H158.578v451.095c.003 20.105 2.494 54.28 18.046 92.261 15.512 37.973 44.317 79.685 95.896 114.023 31.503 20.997 57.48 35.134 77.585 44.863 20.046 9.714 34.461 15.117 41.768 18.269 17.381 7.44 40.463 15.676 40.571 15.713l1.866.669h4.08l1.862-.669-3.844-10.746v-11.417h-.123v11.417l3.839-10.748c-.005-.008-1.395-.505-3.791-1.375-7.173-2.617-23.223-8.585-35.461-13.832-8.239-3.531-21.521-8.488-40.816-17.823-19.24-9.32-44.247-22.915-74.876-43.317-47.71-31.849-73.337-69.376-87.429-103.678-14.052-34.294-16.345-65.417-16.341-83.609V22.833h509.85v428.262c.008 18.191-2.289 49.315-16.336 83.609-14.093 34.302-39.72 71.829-87.438 103.678-30.638 20.402-55.642 33.997-74.876 43.317-19.295 9.335-32.569 14.3-40.812 17.823-8.146 3.493-18.01 7.32-25.784 10.25a1198.458 1198.458 0 01-9.658 3.582c-2.394.87-3.787 1.367-3.791 1.375l3.843 10.749v-11.417 11.417z"/></svg>