<svg xmlns="http://www.w3.org/2000/svg" width="1000" height="1000.001"><path fill="#00AC97" d="M404.488 684.398c30.954 84.817 105.889 149.011 105.889 149.011l1.781-28.753s-39.032-17.065-96.94-113.964c-12.193-20.491-10.73-6.294-10.73-6.294"/><path fill="#00AC97" d="M596.974 700.561c-45.736 80.784-86.145 91.554-86.145 91.554s5.328 32.606 1.328 28.715c-1.328-1.354 70.021-52.517 96.905-118.498l-12.088-1.771"/><path fill="#00AC97" d="M517.511 553.844c-12.091 355.4-63.205 445.583-63.205 445.583s42.752 1.289 43.064 0c44.402-181.51 36.327-445.583 36.327-445.583h-16.186"/><path fill="#EA8A8B" d="M725.74 728.74s43.933 38.13 125.406 48.426c1.803.245 6.312-39.098 6.312-39.098s41.146-1.722 40.982-5.147c-3.836-82.785-22.294-123.947-22.294-123.947s47.309-29.491 84.03-102.587c.437-.853-33.523-16.717-33.523-16.717s11.908-38.666 8.983-40.101c-61.008-30.04-131.498-20.183-131.498-20.183s-19.344-70.08-72.349-111.882c-4.164-3.278-28.14 25.183-28.14 25.183s-27.54-25.041-31.285-21.311c-47.949 47.602-59.205 119.403-59.205 119.403s-71.185-1.742-128.347 34.978c-2.746 1.763 13.435 38.768 13.435 38.768s-31.893 19.671-31.393 20.436c44.777 68.539 95.081 92.433 95.081 92.433s-13.665 42.989-8.075 125.675c.285 3.417 41.353.443 41.353.443s8.957 38.604 10.734 38.113c79.755-19.376 119.81-62.923 119.81-62.923l-.017.038"/><path fill="#F0D9E2" d="M722.586 701.922s45.022 44.113 114.626 52.867c1.557.18 4.771-37.484 4.771-37.484s35.818.55 35.704-2.351c-3.262-70.801-27.835-114.062-27.835-114.062s51.949-25.179 83.342-87.784c.328-.688-28.688-13.58-28.688-13.58s10.967-35.984 8.317-36.927c-55.486-20.963-120.445-10.574-120.445-10.574s-15.901-69.322-61.228-105.079c-3.59-2.787-26.065 26.27-26.065 26.27s-26.595-24.548-28.769-22.294c-36.966 38.666-45.917 110.857-45.917 110.857s-68.276-5.574-121.17 23.176c-2.459 1.331 14.839 35.904 14.839 35.904s-30.656 18.088-30.226 18.787c41.822 56.818 92.788 79.669 92.788 79.669s-20.432 45.506-15.639 116.209c.204 2.885 41.35-1.666 41.35-1.666s4.977 33.665 6.535 33.255c68.162-16.589 105.102-63.825 105.102-63.825l-1.392-1.368"/><path fill="none" stroke="#343536" stroke-width="1.938" d="M722.829 702.118h0"/><path fill="#EA8A8B" d="M715.452 584.565c10.534 0 19.016-8.59 19.016-19.059 0-10.531-8.481-19.055-19.016-19.055-10.531 0-19.055 8.524-19.055 19.055 0 10.469 8.524 19.059 19.055 19.059m59.221-70.817c5.262 0 9.491-4.246 9.491-9.524 0-5.213-4.229-9.472-9.491-9.472s-9.492 4.259-9.492 9.472c.001 5.277 4.23 9.524 9.492 9.524m-40.696-21.229c5.206 0 9.468-4.262 9.468-9.488 0-5.266-4.262-9.527-9.468-9.527-5.246 0-9.508 4.262-9.508 9.527 0 5.225 4.261 9.488 9.508 9.488m-45.104 0c5.229 0 9.508-4.262 9.508-9.488 0-5.266-4.279-9.527-9.508-9.527a9.521 9.521 0 00-9.524 9.527c0 5.225 4.261 9.488 9.524 9.488m-38.743 23.868c5.285 0 9.547-4.213 9.547-9.482 0-5.223-4.263-9.452-9.547-9.452-5.246 0-9.469 4.229-9.469 9.452a9.445 9.445 0 009.469 9.482m-19.141 42.07c5.246 0 9.508-4.203 9.508-9.481 0-5.187-4.262-9.475-9.508-9.475-5.246 0-9.524 4.289-9.524 9.475 0 5.278 4.278 9.481 9.524 9.481m2.007 42.435c5.246 0 9.485-4.262 9.485-9.458a9.464 9.464 0 00-9.485-9.508 9.459 9.459 0 00-9.508 9.508c0 5.196 4.223 9.458 9.508 9.458m24.533 35.311a9.474 9.474 0 009.508-9.492c0-5.196-4.246-9.458-9.508-9.458-5.213 0-9.492 4.262-9.492 9.458.001 5.272 4.279 9.492 9.492 9.492m38.704 19.245c5.246 0 9.524-4.262 9.524-9.531 0-5.272-4.278-9.452-9.524-9.452-5.206 0-9.468 4.18-9.468 9.452 0 5.269 4.262 9.531 9.468 9.531m43.769-2.731a9.47 9.47 0 009.492-9.481c0-5.272-4.207-9.475-9.492-9.475a9.437 9.437 0 00-9.469 9.475c.001 5.219 4.223 9.481 9.469 9.481m36.025-23.891c5.203 0 9.508-4.246 9.508-9.508 0-5.203-4.305-9.492-9.508-9.492-5.246 0-9.508 4.289-9.508 9.492a9.506 9.506 0 009.508 9.508m20.531-35.999c5.246 0 9.491-4.207 9.491-9.531 0-5.207-4.246-9.453-9.491-9.453-5.262 0-9.508 4.246-9.508 9.453a9.474 9.474 0 009.508 9.531m-.695-43.737c5.285 0 9.508-4.262 9.508-9.485 0-5.285-4.223-9.531-9.508-9.531-5.206 0-9.469 4.246-9.469 9.531 0 5.224 4.263 9.485 9.469 9.485"/><path fill="none" stroke="#EA8A8B" stroke-width="1.938" d="M649.825 507.288l125.832 112.4m-87.824-136.986l51.842 160.179m-6.05-160.179L695.25 646.268m79.096-143.029L656.523 626.383m139.707-87.161l-163.562 51.857m164.218-9.399l-166.88-33.016"/><path fill="#EA8A8B" d="M524.966 411.475s45.206 36.66 126.924 44.304c1.803.164 5.082-39.261 5.082-39.261s41.064-3.033 40.776-6.436c-6.472-82.66-26.285-123.172-26.285-123.172s46.343-31.003 80.709-105.303c.328-.863-34.097-15.595-34.097-15.595s10.655-39.015 7.682-40.367c-61.9-28.032-132.078-15.983-132.078-15.983S572.099 40.319 517.73.238c-4.239-3.156-27.248 26.106-27.248 26.106S462.109 2.206 458.486 6.038c-46.351 49.097-55.359 121.205-55.359 121.205s-71.153.574-127.135 39.138c-2.648 1.823 14.712 38.34 14.712 38.34s-31.294 20.573-30.72 21.393c46.936 67.047 98.071 89.381 98.071 89.381s-12.295 43.381-4.025 125.796c.32 3.402 41.27-.861 41.27-.861s10.224 38.237 11.988 37.765c79.014-22.027 117.679-66.78 117.679-66.78v.06"/><path fill="#F0D9E2" d="M520.977 384.776s46.408 42.581 116.258 49.138c1.623.102 3.551-37.622 3.551-37.622s35.842-.615 35.651-3.544c-5.574-70.634-31.514-113.072-31.514-113.072s51.08-26.842 80.407-90.386c.344-.779-29.098-12.644-29.098-12.644s9.796-36.372 7.174-37.294c-56.189-19.138-120.776-6.64-120.776-6.64s-18.072-68.726-64.588-103.029c-3.606-2.684-25.205 27.07-25.205 27.07s-27.368-23.647-29.466-21.27c-35.695 39.815-42.326 112.168-42.326 112.168s-68.334-3.3-120.333 27.109c-2.438 1.415 16.032 35.389 16.032 35.389s-30.108 19.118-29.63 19.773c43.629 55.429 95.325 76.658 95.325 76.658s-18.991 46.167-11.915 116.657c.289 2.889 41.271-3.013 41.271-3.013s6.065 33.523 7.61 33.094c67.572-18.833 102.98-67.314 102.98-67.314l-1.408-1.228"/><path fill="none" stroke="#343536" stroke-width="1.938" d="M521.222 384.961h0"/><path fill="#EA8A8B" d="M510.048 267.669c10.492-.371 18.731-9.18 18.403-19.671-.37-10.534-9.114-18.77-19.655-18.422-10.508.39-18.737 9.139-18.396 19.671.348 10.511 9.118 18.729 19.648 18.422m56.885-72.663c5.288-.184 9.344-4.61 9.222-9.814-.207-5.225-4.547-9.323-9.836-9.202-5.246.186-9.344 4.571-9.137 9.797.164 5.246 4.547 9.363 9.751 9.219m-41.35-19.875c5.229-.164 9.344-4.57 9.18-9.796-.164-5.266-4.59-9.383-9.796-9.241-5.246.186-9.383 4.59-9.203 9.814a9.586 9.586 0 009.819 9.223m-45.073 1.394c5.205-.125 9.344-4.529 9.172-9.754-.164-5.267-4.571-9.344-9.795-9.16-5.267.123-9.344 4.528-9.188 9.734.139 5.285 4.566 9.383 9.811 9.18m-37.938 25.183c5.289-.226 9.344-4.57 9.193-9.855-.123-5.206-4.508-9.344-9.778-9.141-5.262.186-9.372 4.59-9.188 9.797.163 5.284 4.549 9.322 9.773 9.199m-17.806 42.621c5.246-.144 9.352-4.527 9.172-9.773-.136-5.226-4.52-9.386-9.765-9.201-5.268.205-9.374 4.611-9.193 9.836.155 5.245 4.56 9.322 9.786 9.138m3.393 42.335c5.262-.186 9.36-4.549 9.188-9.795-.205-5.226-4.549-9.324-9.814-9.139-5.227.104-9.316 4.508-9.127 9.775.122 5.203 4.508 9.364 9.753 9.159m25.685 34.548a9.475 9.475 0 009.191-9.794c-.189-5.267-4.549-9.365-9.82-9.18-5.221.143-9.303 4.529-9.168 9.795.186 5.225 4.551 9.302 9.797 9.179m39.301 17.909c5.242-.164 9.363-4.529 9.2-9.857-.203-5.203-4.588-9.262-9.793-9.077-5.238.104-9.376 4.508-9.2 9.732.163 5.269 4.589 9.366 9.793 9.202m43.65-4.098c5.219-.186 9.361-4.549 9.154-9.795-.121-5.226-4.547-9.344-9.75-9.18-5.289.145-9.344 4.508-9.223 9.794.18 5.247 4.574 9.346 9.819 9.181m35.262-25.081c5.18-.123 9.301-4.549 9.137-9.753-.121-5.268-4.547-9.344-9.793-9.201-5.203.206-9.36 4.589-9.164 9.815a9.476 9.476 0 009.82 9.139m19.301-36.617c5.245-.186 9.344-4.57 9.157-9.796-.18-5.224-4.482-9.344-9.728-9.219-5.289.203-9.387 4.59-9.223 9.814.207 5.286 4.59 9.385 9.794 9.201m-2.046-43.709c5.22-.185 9.302-4.589 9.138-9.794-.121-5.266-4.469-9.344-9.793-9.199-5.207.183-9.305 4.589-9.141 9.855.164 5.164 4.524 9.281 9.796 9.138"/><path fill="none" stroke="#EA8A8B" stroke-width="1.938" d="M441.971 192.569l129.43 108.275m-92.252-134.073l56.991 158.458m-11.213-159.934l-33.114 164.707m74.463-145.507L452.544 311.417m136.768-91.636l-161.8 57.088m163.846-14.753l-167.911-27.56"/><path fill="#EA8A8B" d="M302.196 726.242s44.655 37.317 126.259 46.104c1.844.246 5.664-39.196 5.664-39.196s41.064-2.525 40.83-5.901c-5.285-82.67-24.547-123.504-24.547-123.504s46.78-30.344 82.148-104.095c.41-.902-33.812-16.127-33.812-16.127s11.19-38.891 8.223-40.264c-61.531-28.872-131.803-17.806-131.803-17.806s-20.644-69.65-74.445-110.488c-4.201-3.197-27.63 25.655-27.63 25.655s-28.016-24.468-31.691-20.698c-47.09 48.441-57.048 120.427-57.048 120.427s-71.133-.388-127.619 37.335c-2.735 1.804 14.137 38.566 14.137 38.566s-31.576 20.202-31.035 20.957c46.015 67.729 96.825 90.702 96.825 90.702s-12.909 43.254-5.779 125.816c.295 3.394 41.278-.354 41.278-.354s9.691 38.401 11.434 37.976c79.333-20.927 118.652-65.146 118.652-65.146l-.041.041"/><path fill="#F0D9E2" d="M298.573 699.521s45.827 43.192 115.57 50.71c1.573.164 4.098-37.54 4.098-37.54s35.859-.099 35.603-3.033c-4.53-70.735-29.835-113.472-29.835-113.472s51.379-26.196 81.614-89.283c.371-.764-28.883-13.116-28.883-13.116s10.279-36.168 7.677-37.13c-55.9-19.918-120.652-8.339-120.652-8.339s-17.185-68.975-63.175-103.931c-3.557-2.727-25.499 26.74-25.499 26.74s-27.048-24.035-29.212-21.68c-36.237 39.283-43.893 111.636-43.893 111.636s-68.317-4.323-120.734 25.368c-2.418 1.374 15.582 35.638 15.582 35.638s-30.397 18.688-29.893 19.344c42.827 56.014 94.194 77.964 94.194 77.964s-19.598 45.917-13.511 116.406c.246 3 41.33-2.351 41.33-2.351s5.606 33.563 7.069 33.137c67.867-17.835 103.931-65.801 103.931-65.801l-1.381-1.267"/><path fill="none" stroke="#343536" stroke-width="1.938" d="M298.849 699.708h0"/><path fill="#EA8A8B" d="M289.238 582.253c10.552-.19 18.925-8.901 18.709-19.393-.164-10.524-8.852-18.852-19.344-18.688-10.554.187-18.906 8.853-18.701 19.367.197 10.534 8.865 18.895 19.336 18.714m57.99-71.883a9.404 9.404 0 009.254-9.695c-.065-5.206-4.385-9.367-9.631-9.263-5.229.082-9.396 4.401-9.315 9.647.082 5.295 4.405 9.475 9.692 9.311m-41.146-20.433c5.265-.123 9.425-4.447 9.335-9.693-.065-5.224-4.426-9.404-9.656-9.323-5.262.083-9.393 4.448-9.333 9.672.104 5.267 4.427 9.426 9.654 9.344m-45.048.819c5.245-.082 9.425-4.426 9.291-9.65-.082-5.246-4.426-9.469-9.632-9.324-5.266.102-9.413 4.407-9.331 9.61a9.49 9.49 0 009.672 9.364m-38.319 24.588c5.295-.079 9.442-4.426 9.344-9.672-.107-5.269-4.385-9.424-9.656-9.342a9.52 9.52 0 00-9.344 9.67c.136 5.305 4.426 9.429 9.656 9.344m-18.384 42.402c5.27-.108 9.384-4.41 9.344-9.672-.099-5.19-4.442-9.394-9.647-9.288-5.287.059-9.451 4.426-9.368 9.649.08 5.269 4.424 9.409 9.671 9.311m2.819 42.392c5.226-.099 9.393-4.426 9.311-9.672-.099-5.262-4.442-9.465-9.688-9.36-5.23.082-9.41 4.443-9.295 9.688.063 5.246 4.406 9.426 9.672 9.344m25.196 34.901c5.246-.131 9.426-4.452 9.303-9.698-.136-5.22-4.409-9.423-9.63-9.344-5.271.107-9.451 4.468-9.344 9.698.089 5.245 4.401 9.426 9.671 9.344m39.031 18.419c5.287-.06 9.439-4.426 9.335-9.672-.082-5.223-4.404-9.387-9.672-9.305-5.267.098-9.426 4.442-9.295 9.672a9.483 9.483 0 009.632 9.305m43.712-3.502c5.246-.082 9.394-4.41 9.333-9.639-.103-5.246-4.426-9.426-9.714-9.344-5.203.105-9.383 4.41-9.273 9.672a9.492 9.492 0 009.654 9.311m35.561-24.491c5.224-.125 9.426-4.442 9.314-9.688-.041-5.246-4.426-9.426-9.631-9.345-5.27.083-9.437 4.443-9.335 9.672.082 5.263 4.426 9.443 9.652 9.361m19.875-36.408c5.246-.083 9.439-4.449 9.316-9.656-.106-5.285-4.385-9.468-9.656-9.304-5.262.085-9.401 4.402-9.36 9.671.132 5.223 4.454 9.387 9.7 9.289m-1.454-43.753c5.224-.082 9.404-4.41 9.323-9.672-.11-5.207-4.454-9.442-9.7-9.278-5.246.082-9.398 4.4-9.336 9.672.102 5.261 4.446 9.376 9.713 9.278"/><path fill="none" stroke="#EA8A8B" stroke-width="1.938" d="M222.231 506.207l127.955 110.062m-90.333-135.308l54.704 159.192m-8.96-160.052l-35.354 164.255m76.46-144.5L231.157 625.203m138.07-89.752l-162.618 54.894m164.041-12.436l-167.483-29.982"/><path fill="#00AC97" d="M709.905 935.373c-130.592 3.378-193.667-68.564-193.667-68.564s57.31-75.299 189.87-80.545c136.744-5.492 193.765 70.44 193.765 70.44s-67.562 75.513-189.968 78.669"/><path fill="#7AC5C2" d="M712.298 915.932c-110.98 2.928-171.346-49.392-171.346-49.392s51.475-58.048 164.094-62.556c116.265-4.672 168.723 53.178 168.723 53.178s-57.415 56.038-161.471 58.77"/><path fill="#00AC97" d="M295.253 935.373c-127.242 3.295-188.273-70.555-188.273-70.555s70.015-73.867 188.486-78.555C422.45 781.159 487.94 867.49 487.94 867.49s-70.255 64.727-192.687 67.883"/><path fill="#7AC5C2" d="M297.713 915.932c-111.005 2.928-165.979-49.392-165.979-49.392s57.719-59.588 165.393-63.907c97.353-3.878 168.786 64.012 168.786 64.012s-64.171 46.555-168.2 49.287"/><path fill="#00AC97" d="M505.419 866.113c242.655-46.294 379.621-7.377 379.621-7.377s-226.183-24.408-381.627 24.901c-.863.279 2.006-17.524 2.006-17.524"/><path fill="#00AC97" d="M502.55 867.49c-238.416-57.211-387.919 2.683-387.919 2.683s239.924-45.714 389.952 14.831c.836.306-2.033-17.514-2.033-17.514"/><path fill="none" stroke="#00AC97" stroke-width="3.875" d="M377.021 849.491c-16.988 22.934-52.408 59.283-73.022 72.768m-43.088-73.62c-15.598 21.064-45.45 47.376-69.096 62.818m60.243-61.776c-9.109-14.648-38.741-35.353-42.327-36.942m157.078 38.581c-9.09-14.59-51.622-53.276-55.203-54.794m312.744 59.735c16.763 16.312 88.85 56.064 104.112 65.998m-2.705-74.053c10.515 11.39 63.015 40.546 87.522 56.514m-89.325-56.902c10.655-10.622 59.201-43.359 62.851-44.916M620.498 853.9c9.081-14.655 63.998-56.621 67.555-58.194"/></svg>