<?xml version="1.0" encoding="utf-8"?>
<!-- Generator: Adobe Illustrator 16.0.4, SVG Export Plug-In . SVG Version: 6.00 Build 0)  -->
<!DOCTYPE svg PUBLIC "-//W3C//DTD SVG 1.1//EN" "http://www.w3.org/Graphics/SVG/1.1/DTD/svg11.dtd" [
	<!ENTITY ns_extend "http://ns.adobe.com/Extensibility/1.0/">
	<!ENTITY ns_ai "http://ns.adobe.com/AdobeIllustrator/10.0/">
	<!ENTITY ns_graphs "http://ns.adobe.com/Graphs/1.0/">
	<!ENTITY ns_vars "http://ns.adobe.com/Variables/1.0/">
	<!ENTITY ns_imrep "http://ns.adobe.com/ImageReplacement/1.0/">
	<!ENTITY ns_sfw "http://ns.adobe.com/SaveForWeb/1.0/">
	<!ENTITY ns_custom "http://ns.adobe.com/GenericCustomNamespace/1.0/">
	<!ENTITY ns_adobe_xpath "http://ns.adobe.com/XPath/1.0/">
]>
<svg version="1.1" id="Layer_1" xmlns:x="&ns_extend;" xmlns:i="&ns_ai;" xmlns:graph="&ns_graphs;"
	 xmlns="http://www.w3.org/2000/svg" xmlns:xlink="http://www.w3.org/1999/xlink" x="0px" y="0px" width="1000px"
	 height="1000.001px" viewBox="0 0 1000 1000.001" enable-background="new 0 0 1000 1000.001" xml:space="preserve">
<metadata>
	<sfw  xmlns="&ns_sfw;">
		<slices></slices>
		<sliceSourceBounds  height="1000" width="920.36" y="95.445" x="-460.18" bottomLeftOrigin="true"></sliceSourceBounds>
	</sfw>
</metadata>
<path fill="#00AC97" d="M404.488,684.398c30.954,84.817,105.889,149.011,105.889,149.011l1.781-28.753
	c0,0-39.032-17.065-96.94-113.964C403.025,670.201,404.488,684.398,404.488,684.398"/>
<path fill="#00AC97" d="M596.974,700.561c-45.736,80.784-86.145,91.554-86.145,91.554s5.328,32.606,1.328,28.715
	c-1.328-1.354,70.021-52.517,96.905-118.498L596.974,700.561"/>
<path fill="#00AC97" d="M517.511,553.844c-12.091,355.4-63.205,445.583-63.205,445.583s42.752,1.289,43.064,0
	c44.402-181.51,36.327-445.583,36.327-445.583H517.511"/>
<path fill="#EA8A8B" d="M725.74,728.74c0,0,43.933,38.13,125.406,48.426c1.803,0.245,6.312-39.098,6.312-39.098
	s41.146-1.722,40.982-5.147c-3.836-82.785-22.294-123.947-22.294-123.947s47.309-29.491,84.03-102.587
	c0.437-0.853-33.523-16.717-33.523-16.717s11.908-38.666,8.983-40.101c-61.008-30.04-131.498-20.183-131.498-20.183
	s-19.344-70.08-72.349-111.882c-4.164-3.278-28.14,25.183-28.14,25.183s-27.54-25.041-31.285-21.311
	c-47.949,47.602-59.205,119.403-59.205,119.403s-71.185-1.742-128.347,34.978c-2.746,1.763,13.435,38.768,13.435,38.768
	s-31.893,19.671-31.393,20.436c44.777,68.539,95.081,92.433,95.081,92.433s-13.665,42.989-8.075,125.675
	c0.285,3.417,41.353,0.443,41.353,0.443s8.957,38.604,10.734,38.113c79.755-19.376,119.81-62.923,119.81-62.923L725.74,728.74"/>
<path fill="#F0D9E2" d="M722.586,701.922c0,0,45.022,44.113,114.626,52.867c1.557,0.18,4.771-37.484,4.771-37.484
	s35.818,0.55,35.704-2.351c-3.262-70.801-27.835-114.062-27.835-114.062s51.949-25.179,83.342-87.784
	c0.328-0.688-28.688-13.58-28.688-13.58s10.967-35.984,8.317-36.927c-55.486-20.963-120.445-10.574-120.445-10.574
	s-15.901-69.322-61.228-105.079c-3.59-2.787-26.065,26.27-26.065,26.27s-26.595-24.548-28.769-22.294
	c-36.966,38.666-45.917,110.857-45.917,110.857s-68.276-5.574-121.17,23.176c-2.459,1.331,14.839,35.904,14.839,35.904
	s-30.656,18.088-30.226,18.787c41.822,56.818,92.788,79.669,92.788,79.669s-20.432,45.506-15.639,116.209
	c0.204,2.885,41.35-1.666,41.35-1.666s4.977,33.665,6.535,33.255c68.162-16.589,105.102-63.825,105.102-63.825L722.586,701.922"/>
<line fill="none" stroke="#343536" stroke-width="1.9375" x1="722.829" y1="702.118" x2="722.829" y2="702.118"/>
<path fill="#EA8A8B" d="M715.452,584.565c10.534,0,19.016-8.59,19.016-19.059c0-10.531-8.481-19.055-19.016-19.055
	c-10.531,0-19.055,8.524-19.055,19.055C696.397,575.975,704.921,584.565,715.452,584.565"/>
<path fill="#EA8A8B" d="M774.673,513.748c5.262,0,9.491-4.246,9.491-9.524c0-5.213-4.229-9.472-9.491-9.472
	s-9.492,4.259-9.492,9.472C765.182,509.501,769.411,513.748,774.673,513.748"/>
<path fill="#EA8A8B" d="M733.977,492.519c5.206,0,9.468-4.262,9.468-9.488c0-5.266-4.262-9.527-9.468-9.527
	c-5.246,0-9.508,4.262-9.508,9.527C724.469,488.256,728.73,492.519,733.977,492.519"/>
<path fill="#EA8A8B" d="M688.873,492.519c5.229,0,9.508-4.262,9.508-9.488c0-5.266-4.279-9.527-9.508-9.527
	c-5.263,0-9.524,4.262-9.524,9.527C679.349,488.256,683.61,492.519,688.873,492.519"/>
<path fill="#EA8A8B" d="M650.13,516.387c5.285,0,9.547-4.213,9.547-9.482c0-5.223-4.263-9.452-9.547-9.452
	c-5.246,0-9.469,4.229-9.469,9.452C640.661,512.174,644.884,516.387,650.13,516.387"/>
<path fill="#EA8A8B" d="M630.989,558.457c5.246,0,9.508-4.203,9.508-9.481c0-5.187-4.262-9.475-9.508-9.475
	c-5.246,0-9.524,4.289-9.524,9.475C621.465,554.254,625.743,558.457,630.989,558.457"/>
<path fill="#EA8A8B" d="M632.996,600.892c5.246,0,9.485-4.262,9.485-9.458c0-5.295-4.239-9.508-9.485-9.508
	c-5.285,0-9.508,4.213-9.508,9.508C623.488,596.63,627.711,600.892,632.996,600.892"/>
<path fill="#EA8A8B" d="M657.529,636.203c5.262,0,9.508-4.219,9.508-9.492c0-5.196-4.246-9.458-9.508-9.458
	c-5.213,0-9.492,4.262-9.492,9.458C648.038,631.983,652.316,636.203,657.529,636.203"/>
<path fill="#EA8A8B" d="M696.233,655.448c5.246,0,9.524-4.262,9.524-9.531c0-5.272-4.278-9.452-9.524-9.452
	c-5.206,0-9.468,4.18-9.468,9.452C686.765,651.186,691.027,655.448,696.233,655.448"/>
<path fill="#EA8A8B" d="M740.002,652.717c5.285,0,9.492-4.262,9.492-9.481c0-5.272-4.207-9.475-9.492-9.475
	c-5.246,0-9.469,4.203-9.469,9.475C730.534,648.455,734.756,652.717,740.002,652.717"/>
<path fill="#EA8A8B" d="M776.027,628.826c5.203,0,9.508-4.246,9.508-9.508c0-5.203-4.305-9.492-9.508-9.492
	c-5.246,0-9.508,4.289-9.508,9.492C766.52,624.58,770.782,628.826,776.027,628.826"/>
<path fill="#EA8A8B" d="M796.558,592.827c5.246,0,9.491-4.207,9.491-9.531c0-5.207-4.246-9.453-9.491-9.453
	c-5.262,0-9.508,4.246-9.508,9.453C787.05,588.621,791.296,592.827,796.558,592.827"/>
<path fill="#EA8A8B" d="M795.863,549.09c5.285,0,9.508-4.262,9.508-9.485c0-5.285-4.223-9.531-9.508-9.531
	c-5.206,0-9.469,4.246-9.469,9.531C786.394,544.829,790.657,549.09,795.863,549.09"/>
<line fill="none" stroke="#EA8A8B" stroke-width="1.9375" x1="649.825" y1="507.288" x2="775.657" y2="619.688"/>
<line fill="none" stroke="#EA8A8B" stroke-width="1.9375" x1="687.833" y1="482.702" x2="739.675" y2="642.881"/>
<line fill="none" stroke="#EA8A8B" stroke-width="1.9375" x1="733.625" y1="482.702" x2="695.25" y2="646.268"/>
<line fill="none" stroke="#EA8A8B" stroke-width="1.9375" x1="774.346" y1="503.239" x2="656.523" y2="626.383"/>
<line fill="none" stroke="#EA8A8B" stroke-width="1.9375" x1="796.23" y1="539.222" x2="632.668" y2="591.079"/>
<line fill="none" stroke="#EA8A8B" stroke-width="1.9375" x1="796.886" y1="581.68" x2="630.006" y2="548.664"/>
<path fill="#EA8A8B" d="M524.966,411.475c0,0,45.206,36.66,126.924,44.304c1.803,0.164,5.082-39.261,5.082-39.261
	s41.064-3.033,40.776-6.436c-6.472-82.66-26.285-123.172-26.285-123.172s46.343-31.003,80.709-105.303
	c0.328-0.863-34.097-15.595-34.097-15.595s10.655-39.015,7.682-40.367c-61.9-28.032-132.078-15.983-132.078-15.983
	S572.099,40.319,517.73,0.238c-4.239-3.156-27.248,26.106-27.248,26.106S462.109,2.206,458.486,6.038
	c-46.351,49.097-55.359,121.205-55.359,121.205s-71.153,0.574-127.135,39.138c-2.648,1.823,14.712,38.34,14.712,38.34
	s-31.294,20.573-30.72,21.393c46.936,67.047,98.071,89.381,98.071,89.381s-12.295,43.381-4.025,125.796
	c0.32,3.402,41.27-0.861,41.27-0.861s10.224,38.237,11.988,37.765c79.014-22.027,117.679-66.78,117.679-66.78V411.475"/>
<path fill="#F0D9E2" d="M520.977,384.776c0,0,46.408,42.581,116.258,49.138c1.623,0.102,3.551-37.622,3.551-37.622
	s35.842-0.615,35.651-3.544c-5.574-70.634-31.514-113.072-31.514-113.072s51.08-26.842,80.407-90.386
	c0.344-0.779-29.098-12.644-29.098-12.644s9.796-36.372,7.174-37.294c-56.189-19.138-120.776-6.64-120.776-6.64
	s-18.072-68.726-64.588-103.029c-3.606-2.684-25.205,27.07-25.205,27.07s-27.368-23.647-29.466-21.27
	c-35.695,39.815-42.326,112.168-42.326,112.168s-68.334-3.3-120.333,27.109c-2.438,1.415,16.032,35.389,16.032,35.389
	s-30.108,19.118-29.63,19.773c43.629,55.429,95.325,76.658,95.325,76.658s-18.991,46.167-11.915,116.657
	c0.289,2.889,41.271-3.013,41.271-3.013s6.065,33.523,7.61,33.094c67.572-18.833,102.98-67.314,102.98-67.314L520.977,384.776"/>
<line fill="none" stroke="#343536" stroke-width="1.9375" x1="521.222" y1="384.961" x2="521.222" y2="384.961"/>
<path fill="#EA8A8B" d="M510.048,267.669c10.492-0.371,18.731-9.18,18.403-19.671c-0.37-10.534-9.114-18.77-19.655-18.422
	c-10.508,0.39-18.737,9.139-18.396,19.671C490.748,259.758,499.518,267.976,510.048,267.669"/>
<path fill="#EA8A8B" d="M566.933,195.006c5.288-0.184,9.344-4.61,9.222-9.814c-0.207-5.225-4.547-9.323-9.836-9.202
	c-5.246,0.186-9.344,4.571-9.137,9.797C557.346,191.033,561.729,195.15,566.933,195.006"/>
<path fill="#EA8A8B" d="M525.583,175.131c5.229-0.164,9.344-4.57,9.18-9.796c-0.164-5.266-4.59-9.383-9.796-9.241
	c-5.246,0.186-9.383,4.59-9.203,9.814C515.977,171.176,520.337,175.253,525.583,175.131"/>
<path fill="#EA8A8B" d="M480.51,176.525c5.205-0.125,9.344-4.529,9.172-9.754c-0.164-5.267-4.571-9.344-9.795-9.16
	c-5.267,0.123-9.344,4.528-9.188,9.734C470.838,172.63,475.265,176.728,480.51,176.525"/>
<path fill="#EA8A8B" d="M442.572,201.708c5.289-0.226,9.344-4.57,9.193-9.855c-0.123-5.206-4.508-9.344-9.778-9.141
	c-5.262,0.186-9.372,4.59-9.188,9.797C432.962,197.793,437.348,201.831,442.572,201.708"/>
<path fill="#EA8A8B" d="M424.766,244.329c5.246-0.144,9.352-4.527,9.172-9.773c-0.136-5.226-4.52-9.386-9.765-9.201
	c-5.268,0.205-9.374,4.611-9.193,9.836C415.135,240.436,419.54,244.513,424.766,244.329"/>
<path fill="#EA8A8B" d="M428.159,286.664c5.262-0.186,9.36-4.549,9.188-9.795c-0.205-5.226-4.549-9.324-9.814-9.139
	c-5.227,0.104-9.316,4.508-9.127,9.775C418.528,282.708,422.914,286.869,428.159,286.664"/>
<path fill="#EA8A8B" d="M453.844,321.212c5.245-0.164,9.363-4.527,9.191-9.794c-0.189-5.267-4.549-9.365-9.82-9.18
	c-5.221,0.143-9.303,4.529-9.168,9.795C444.233,317.258,448.598,321.335,453.844,321.212"/>
<path fill="#EA8A8B" d="M493.145,339.121c5.242-0.164,9.363-4.529,9.2-9.857c-0.203-5.203-4.588-9.262-9.793-9.077
	c-5.238,0.104-9.376,4.508-9.2,9.732C483.515,335.188,487.941,339.285,493.145,339.121"/>
<path fill="#EA8A8B" d="M536.795,335.023c5.219-0.186,9.361-4.549,9.154-9.795c-0.121-5.226-4.547-9.344-9.75-9.18
	c-5.289,0.145-9.344,4.508-9.223,9.794C527.156,331.089,531.55,335.188,536.795,335.023"/>
<path fill="#EA8A8B" d="M572.057,309.942c5.18-0.123,9.301-4.549,9.137-9.753c-0.121-5.268-4.547-9.344-9.793-9.201
	c-5.203,0.206-9.36,4.589-9.164,9.815C562.427,306.008,566.769,310.127,572.057,309.942"/>
<path fill="#EA8A8B" d="M591.358,273.325c5.245-0.186,9.344-4.57,9.157-9.796c-0.18-5.224-4.482-9.344-9.728-9.219
	c-5.289,0.203-9.387,4.59-9.223,9.814C581.771,269.41,586.154,273.509,591.358,273.325"/>
<path fill="#EA8A8B" d="M589.312,229.616c5.22-0.185,9.302-4.589,9.138-9.794c-0.121-5.266-4.469-9.344-9.793-9.199
	c-5.207,0.183-9.305,4.589-9.141,9.855C579.68,225.642,584.04,229.759,589.312,229.616"/>
<line fill="none" stroke="#EA8A8B" stroke-width="1.9375" x1="441.971" y1="192.569" x2="571.401" y2="300.844"/>
<line fill="none" stroke="#EA8A8B" stroke-width="1.9375" x1="479.149" y1="166.771" x2="536.14" y2="325.229"/>
<line fill="none" stroke="#EA8A8B" stroke-width="1.9375" x1="524.927" y1="165.295" x2="491.813" y2="330.002"/>
<line fill="none" stroke="#EA8A8B" stroke-width="1.9375" x1="566.276" y1="184.495" x2="452.544" y2="311.417"/>
<line fill="none" stroke="#EA8A8B" stroke-width="1.9375" x1="589.312" y1="219.781" x2="427.512" y2="276.869"/>
<line fill="none" stroke="#EA8A8B" stroke-width="1.9375" x1="591.358" y1="262.116" x2="423.447" y2="234.556"/>
<path fill="#EA8A8B" d="M302.196,726.242c0,0,44.655,37.317,126.259,46.104c1.844,0.246,5.664-39.196,5.664-39.196
	s41.064-2.525,40.83-5.901c-5.285-82.67-24.547-123.504-24.547-123.504s46.78-30.344,82.148-104.095
	c0.41-0.902-33.812-16.127-33.812-16.127s11.19-38.891,8.223-40.264c-61.531-28.872-131.803-17.806-131.803-17.806
	s-20.644-69.65-74.445-110.488c-4.201-3.197-27.63,25.655-27.63,25.655s-28.016-24.468-31.691-20.698
	c-47.09,48.441-57.048,120.427-57.048,120.427s-71.133-0.388-127.619,37.335c-2.735,1.804,14.137,38.566,14.137,38.566
	s-31.576,20.202-31.035,20.957c46.015,67.729,96.825,90.702,96.825,90.702s-12.909,43.254-5.779,125.816
	c0.295,3.394,41.278-0.354,41.278-0.354s9.691,38.401,11.434,37.976c79.333-20.927,118.652-65.146,118.652-65.146L302.196,726.242"
	/>
<path fill="#F0D9E2" d="M298.573,699.521c0,0,45.827,43.192,115.57,50.71c1.573,0.164,4.098-37.54,4.098-37.54
	s35.859-0.099,35.603-3.033c-4.53-70.735-29.835-113.472-29.835-113.472s51.379-26.196,81.614-89.283
	c0.371-0.764-28.883-13.116-28.883-13.116s10.279-36.168,7.677-37.13c-55.9-19.918-120.652-8.339-120.652-8.339
	s-17.185-68.975-63.175-103.931c-3.557-2.727-25.499,26.74-25.499,26.74s-27.048-24.035-29.212-21.68
	c-36.237,39.283-43.893,111.636-43.893,111.636s-68.317-4.323-120.734,25.368c-2.418,1.374,15.582,35.638,15.582,35.638
	s-30.397,18.688-29.893,19.344c42.827,56.014,94.194,77.964,94.194,77.964s-19.598,45.917-13.511,116.406
	c0.246,3,41.33-2.351,41.33-2.351s5.606,33.563,7.069,33.137c67.867-17.835,103.931-65.801,103.931-65.801L298.573,699.521"/>
<line fill="none" stroke="#343536" stroke-width="1.9375" x1="298.849" y1="699.708" x2="298.849" y2="699.708"/>
<path fill="#EA8A8B" d="M289.238,582.253c10.552-0.19,18.925-8.901,18.709-19.393c-0.164-10.524-8.852-18.852-19.344-18.688
	c-10.554,0.187-18.906,8.853-18.701,19.367C270.099,574.073,278.767,582.434,289.238,582.253"/>
<path fill="#EA8A8B" d="M347.228,510.37c5.226-0.082,9.406-4.409,9.254-9.695c-0.065-5.206-4.385-9.367-9.631-9.263
	c-5.229,0.082-9.396,4.401-9.315,9.647C337.618,506.354,341.941,510.534,347.228,510.37"/>
<path fill="#EA8A8B" d="M306.082,489.937c5.265-0.123,9.425-4.447,9.335-9.693c-0.065-5.224-4.426-9.404-9.656-9.323
	c-5.262,0.083-9.393,4.448-9.333,9.672C296.532,485.86,300.855,490.019,306.082,489.937"/>
<path fill="#EA8A8B" d="M261.034,490.756c5.245-0.082,9.425-4.426,9.291-9.65c-0.082-5.246-4.426-9.469-9.632-9.324
	c-5.266,0.102-9.413,4.407-9.331,9.61C251.443,486.679,255.763,490.838,261.034,490.756"/>
<path fill="#EA8A8B" d="M222.715,515.344c5.295-0.079,9.442-4.426,9.344-9.672c-0.107-5.269-4.385-9.424-9.656-9.342
	c-5.287,0.106-9.426,4.451-9.344,9.67C213.195,511.305,217.485,515.429,222.715,515.344"/>
<path fill="#EA8A8B" d="M204.331,557.746c5.27-0.108,9.384-4.41,9.344-9.672c-0.099-5.19-4.442-9.394-9.647-9.288
	c-5.287,0.059-9.451,4.426-9.368,9.649C194.74,553.704,199.084,557.844,204.331,557.746"/>
<path fill="#EA8A8B" d="M207.15,600.138c5.226-0.099,9.393-4.426,9.311-9.672c-0.099-5.262-4.442-9.465-9.688-9.36
	c-5.23,0.082-9.41,4.443-9.295,9.688C197.541,596.04,201.884,600.22,207.15,600.138"/>
<path fill="#EA8A8B" d="M232.346,635.039c5.246-0.131,9.426-4.452,9.303-9.698c-0.136-5.22-4.409-9.423-9.63-9.344
	c-5.271,0.107-9.451,4.468-9.344,9.698C222.764,630.94,227.076,635.121,232.346,635.039"/>
<path fill="#EA8A8B" d="M271.377,653.458c5.287-0.06,9.439-4.426,9.335-9.672c-0.082-5.223-4.404-9.387-9.672-9.305
	c-5.267,0.098-9.426,4.442-9.295,9.672C261.853,649.399,266.156,653.537,271.377,653.458"/>
<path fill="#EA8A8B" d="M315.089,649.956c5.246-0.082,9.394-4.41,9.333-9.639c-0.103-5.246-4.426-9.426-9.714-9.344
	c-5.203,0.105-9.383,4.41-9.273,9.672C305.557,645.917,309.86,650.038,315.089,649.956"/>
<path fill="#EA8A8B" d="M350.65,625.465c5.224-0.125,9.426-4.442,9.314-9.688c-0.041-5.246-4.426-9.426-9.631-9.345
	c-5.27,0.083-9.437,4.443-9.335,9.672C341.08,621.367,345.424,625.547,350.65,625.465"/>
<path fill="#EA8A8B" d="M370.525,589.057c5.246-0.083,9.439-4.449,9.316-9.656c-0.106-5.285-4.385-9.468-9.656-9.304
	c-5.262,0.085-9.401,4.402-9.36,9.671C360.957,584.991,365.279,589.155,370.525,589.057"/>
<path fill="#EA8A8B" d="M369.071,545.304c5.224-0.082,9.404-4.41,9.323-9.672c-0.11-5.207-4.454-9.442-9.7-9.278
	c-5.246,0.082-9.398,4.4-9.336,9.672C359.46,541.287,363.804,545.402,369.071,545.304"/>
<line fill="none" stroke="#EA8A8B" stroke-width="1.9375" x1="222.231" y1="506.207" x2="350.186" y2="616.269"/>
<line fill="none" stroke="#EA8A8B" stroke-width="1.9375" x1="259.853" y1="480.961" x2="314.557" y2="640.153"/>
<line fill="none" stroke="#EA8A8B" stroke-width="1.9375" x1="305.597" y1="480.101" x2="270.243" y2="644.356"/>
<line fill="none" stroke="#EA8A8B" stroke-width="1.9375" x1="346.703" y1="499.856" x2="231.157" y2="625.203"/>
<line fill="none" stroke="#EA8A8B" stroke-width="1.9375" x1="369.227" y1="535.451" x2="206.609" y2="590.345"/>
<line fill="none" stroke="#EA8A8B" stroke-width="1.9375" x1="370.65" y1="577.909" x2="203.167" y2="547.927"/>
<path fill="#00AC97" d="M709.905,935.373c-130.592,3.378-193.667-68.564-193.667-68.564s57.31-75.299,189.87-80.545
	c136.744-5.492,193.765,70.44,193.765,70.44S832.311,932.217,709.905,935.373"/>
<path fill="#7AC5C2" d="M712.298,915.932c-110.98,2.928-171.346-49.392-171.346-49.392s51.475-58.048,164.094-62.556
	c116.265-4.672,168.723,53.178,168.723,53.178S816.354,913.2,712.298,915.932"/>
<path fill="#00AC97" d="M295.253,935.373c-127.242,3.295-188.273-70.555-188.273-70.555s70.015-73.867,188.486-78.555
	c126.984-5.104,192.474,81.227,192.474,81.227S417.685,932.217,295.253,935.373"/>
<path fill="#7AC5C2" d="M297.713,915.932c-111.005,2.928-165.979-49.392-165.979-49.392s57.719-59.588,165.393-63.907
	c97.353-3.878,168.786,64.012,168.786,64.012S401.742,913.2,297.713,915.932"/>
<path fill="#00AC97" d="M505.419,866.113c242.655-46.294,379.621-7.377,379.621-7.377s-226.183-24.408-381.627,24.901
	C502.55,883.916,505.419,866.113,505.419,866.113"/>
<path fill="#00AC97" d="M502.55,867.49c-238.416-57.211-387.919,2.683-387.919,2.683s239.924-45.714,389.952,14.831
	C505.419,885.31,502.55,867.49,502.55,867.49"/>
<path fill="none" stroke="#00AC97" stroke-width="3.875" d="M377.021,849.491c-16.988,22.934-52.408,59.283-73.022,72.768"/>
<path fill="none" stroke="#00AC97" stroke-width="3.875" d="M260.911,848.639c-15.598,21.064-45.45,47.376-69.096,62.818"/>
<path fill="none" stroke="#00AC97" stroke-width="3.875" d="M252.058,849.681c-9.109-14.648-38.741-35.353-42.327-36.942"/>
<path fill="none" stroke="#00AC97" stroke-width="3.875" d="M366.809,851.32c-9.09-14.59-51.622-53.276-55.203-54.794"/>
<path fill="none" stroke="#00AC97" stroke-width="3.875" d="M624.35,856.261c16.763,16.312,88.85,56.064,104.112,65.998"/>
<path fill="none" stroke="#00AC97" stroke-width="3.875" d="M725.757,848.206c10.515,11.39,63.015,40.546,87.522,56.514"/>
<path fill="none" stroke="#00AC97" stroke-width="3.875" d="M723.954,847.818c10.655-10.622,59.201-43.359,62.851-44.916"/>
<path fill="none" stroke="#00AC97" stroke-width="3.875" d="M620.498,853.9c9.081-14.655,63.998-56.621,67.555-58.194"/>
<g>
</g>
<g>
</g>
<g>
</g>
<g>
</g>
<g>
</g>
<g>
</g>
<g>
</g>
<g>
</g>
<g>
</g>
<g>
</g>
<g>
</g>
<g>
</g>
</svg>
