<svg xmlns="http://www.w3.org/2000/svg" width="1000" height="1000" viewBox="0 -50.417 1000 1000" overflow="visible"><path fill="#005DAA" d="M458.415 873.671l-5.344 23.979h-22.293l16.492-74.216h22.902c7.176 0 11.758.459 15.576 1.683 10.536 3.209 15.424 10.378 15.424 18.776 0 12.363-7.331 19.854-18.324 23.36v.307c1.831 2.142 6.87 12.666 14.657 30.09h-24.127c-7.938-19.248-9.772-23.979-11.452-23.979h-3.511zm13.895-33.133h-6.412l-3.664 16.039h5.951c6.873 0 11.912-3.521 11.912-9.328 0-2.898-1.678-6.711-7.787-6.711zm109.634 27.178c-2.287 9.769-5.496 16.645-10.685 21.522-8.247 7.637-19.85 9.929-33.285 9.929-10.236 0-18.327-2.906-23.365-8.091-4.126-4.126-6.11-9.466-6.11-15.889 0-2.741.307-5.643 1.072-8.695l9.617-43.059h22.6l-9.773 43.059a14.68 14.68 0 00-.453 3.511c0 3.054.912 5.35 2.136 7.023 1.834 2.599 5.189 3.667 9.008 3.667 4.575 0 8.247-1.224 10.988-3.512 2.75-2.447 5.047-5.954 6.11-10.689l9.622-43.059h22.6l-10.082 44.283zm77.414 26.258c-9.918 3.676-20.608 5.193-30.229 5.193-23.975 0-35.889-14.962-35.889-34.504 0-26.423 20.156-42.458 47.798-42.458 9.773 0 18.32 1.989 25.957 4.74l-4.119 17.405c-7.179-3.511-14.208-5.198-20.921-5.198-18.327 0-25.043 12.523-25.043 23.828 0 10.992 5.345 18.63 17.254 18.63a29.82 29.82 0 005.955-.605l5.193-23.218h22.293l-8.249 36.187zm71.005-35.87v.293c5.954 2.287 9.468 6.716 9.468 12.831 0 13.894-13.282 26.422-35.579 26.422h-32.831l16.498-74.216h29.011c15.721 0 24.272 6.564 24.272 17.25 0 7.637-3.514 13.899-10.839 17.42zm-21.376 8.998h-8.402l-3.209 14.353h8.096c7.944 0 11.458-4.584 11.458-8.549 0-3.204-1.988-5.804-7.943-5.804zm3.512-27.481h-5.647l-3.211 13.738h5.806c5.643 0 9.163-4.428 9.163-8.397-.001-3.366-2.444-5.341-6.111-5.341zm73.13 30.841l-6.106 27.188h-23.667l6.262-27.948-17.406-46.268h22.443l5.341 15.577c1.524 4.423 2.755 8.695 4.126 13.89h.305c3.512-6.262 6.413-10.837 8.4-13.748l10.383-15.719h23.512l-33.593 47.028zM254.081 618.206l-6.319 152.296h41.896l6.319-152.296zm276.591 22.397c16.879 0 34.055 9.348 39.703 12.409l5.437 2.962 6.179-35.99-5.927-.715c-8.082-.967-23.127-2.787-46.891-2.787-38.007 0-63.309 17.575-64.438 44.782-1.334 32.203 23.826 42.333 37.333 47.771l10.209 3.96c14.939 5.657 27.848 10.571 27.531 18.189-.577 13.881-16.851 16.92-23.062 16.92-22.848 0-36.592-10.475-43.201-15.512l-7.669-5.795-.865 7.468-3.969 32.52 8.937 1.562c11.035 1.958 26.162 4.635 44.334 4.635 31.029 0 67.803-12.23 69.233-46.685 1.402-34.004-25.245-43.851-38.058-48.586l-9.36-3.062c-16.113-5.023-28.425-9.571-28.051-18.46.56-13.564 14.399-15.586 22.595-15.586zm197.466-22.397H591.517l-2.998 27.275s39.624-2.081 47.869-2.517c-.396 9.576-5.297 127.538-5.297 127.538h42.306s4.96-119.548 5.3-127.584c7.183.371 48.313 2.484 48.313 2.484l1.128-27.196zM46.391 746.752c.41-9.787 5.34-128.547 5.34-128.547L0 618.214l8.777 25.575-5.261 126.713h104.058l1.192-28.531s-53.479 4.103-62.375 4.781zm372.711-128.546s.849 90.517.931 99.938c-14.797-24.053-61.473-99.938-61.473-99.938l-49.499.009 8.852 25.79-5.249 126.498h31.348l.996-91.819c14.436 22.93 57.82 91.819 57.82 91.819h42.013l6.313-152.297h-32.052zm-183.623 25.992l1.072-25.992-120.742.009 8.837 25.763-5.248 126.525H232.49l1.18-28.472s-62.353 4.185-71.397 4.776c.322-7.798 1.538-36.971 1.795-43.168h47.392l.981-23.347h-47.407c.299-7.146 1.344-32.336 1.604-38.589 7.507.285 68.841 2.495 68.841 2.495zm617.735 0l1.077-25.992-120.674.009 8.783 25.584-5.258 126.704H850.22l1.189-28.472s-62.351 4.185-71.404 4.776c.321-7.798 1.536-36.971 1.804-43.168h47.396l.976-23.347h-47.408c.298-7.146 1.341-32.336 1.604-38.589 7.495.285 68.837 2.495 68.837 2.495zm136.488 102.958c-2.897 0-9.273-13.037-12.331-19.295-2.829-5.799-5.77-11.795-8.967-16.704-4.165-6.464-10.104-12.68-16.498-17.447l4.281-1.356c13.566-4.222 29.737-16.438 30.58-36.925.056-1.247.056-2.43-.016-3.612-.396-7.531-3.087-13.927-8.033-19.079-9.425-9.777-26.368-14.531-51.779-14.531l-67.049.009 8.734 25.474-5.256 126.814h41.895s2.406-57.934 2.741-66.172c3.342.679 7.474 1.88 10.227 4.03 5.453 4.281 9.187 13.555 13.124 23.364 6.954 17.277 15.582 38.777 39.15 38.777h28.516l.979-23.347h-10.298zm-70.879-66.864h-9.819c.296-7.184 1.357-32.671 1.604-38.745h13.328c7.282 0 13.986 2.476 17.956 6.592 2.397 2.494 3.697 5.479 3.88 8.921.027.495.027 1.009.01 1.531-.628 14.908-14.412 21.701-26.959 21.701zM507.061 201.796c96.191-4.357 162.004 10.444 176.031 39.586 10.134 31.559-12.464 80.363-69.113 149.146-44.388 53.904-104.489 114.29-173.035 181.368h172.673c54.715-68.573 99.465-131.984 130.604-191.994 39.256-75.649 59.382-143.494 44.869-173.874-44.282-79.36-271.969-89.31-510.436 16.095-14.307 6.314-83.104 35.543-106.5 47.382l.365.802c111.494-38.964 233.43-63.937 334.542-68.511z"/><path fill="#005DAA" d="M666.821 249.766c-10.319-17.735-64.45-34.819-158.973-30.539-105.684 4.783-196.068 19.764-302.218 50.092l.174.492c89.303-18.155 139.641-27.048 200.757-31.94 9.326 22.714 94.832 230.944 100.082 243.735 2.74-2.796 5.458-5.574 8.131-8.327-12.871-31.346-83.739-203.939-97.004-236.25 15.677-1.111 32.231-1.987 50.423-2.72 9.277 22.749 76.565 187.69 82.231 201.586 2.709-2.911 5.386-5.801 8.013-8.666a3926092.43 3926092.43 0 01-78.873-193.349c2.102-.071 4.221-.148 6.372-.219 13-.432 27.986.055 43.246 1.087 11.883 27.524 60.409 139.975 65.383 151.487 1.943-2.326 3.883-4.644 5.776-6.94.637-.768 1.261-1.531 1.875-2.29l-60.991-141.331a818.818 818.818 0 0145.089 5.122c11.909 26.883 39.391 88.956 44.016 99.399 2.513-3.58 4.878-7.04 7.085-10.389a533075.5 533075.5 0 00-38.572-87.103 440.01 440.01 0 0112.399 2.177c12.341 2.37 42.439 9.597 55.371 25.414l.434.452.094-.393c2.313-9.483.338-18.153-.32-20.587z"/><path fill="#005DAA" d="M877.58 69.721c-37.979-26.988-84.25-46.524-137.535-58.054C630.508-12.039 503.407.636 382.149 47.366 231.815 105.303 111.654 208.749 60.724 324.094c-31.176 70.603-34.178 140.432-8.673 201.932 11.097 26.757 27.358 51.286 48.331 72.903l.691-.545c-13.09-18.221-23.392-38.006-30.625-58.799-14.588-41.967-16.556-86.732-5.848-133.061 10.348-44.759 32.03-89.087 64.446-131.747 66.692-87.768 171.281-158.692 294.508-199.704 54.583-18.168 110.217-29.583 165.358-33.926 53.281-4.2 104.78-1.72 153.085 7.371 96.979 18.253 175.123 62.62 220.04 124.923l.779-.412c-17.241-40.61-45.92-75.367-85.236-103.308z"/><path fill="#005DAA" d="M958.801 224.353c-7.771-56.589-67.959-101.299-121.685-124.271l-.453.735c43.445 33.022 66.354 60.155 76.595 90.708 19.73 58.875 4.686 127.345-43.527 198.015-44.692 65.531-116.75 130.16-202.882 181.994l-.614.362h107.542C841.164 524.384 893.891 463.538 926.29 395.9c28.101-58.666 39.642-119.59 32.511-171.547z"/></svg>