<svg xmlns="http://www.w3.org/2000/svg" width="1000" height="1000" viewBox="0 -73.592 1000 1000" overflow="visible"><path d="M467.367 124.243c-12.126 1.509-24.037 3.126-35.678 4.887l4.204 135.022 149.609 78.271c4.33-2.083 8.678-4.239 13.061-6.395l-125.052-85.062-20.605 7.096 14.461-133.819z"/><path d="M395.005 135.525c-12.126 2.408-23.624 5.084-34.402 8.048l-1.581 153.543 155.25 79.26c5.784-2.73 11.731-5.533 17.803-8.407l-134.663-88.565-21.432 9.593 19.025-153.472z"/><path d="M428.635 129.615a867.122 867.122 0 00-30.666 5.317l-.557 144.472 153.957 79.439c5.049-2.407 10.186-4.851 15.378-7.33L435.893 264.17l-21.503 7.563 14.245-142.118z"/><path d="M531.482 117.219c-9.467.934-18.935 1.886-28.366 2.91l6.719 119.231-20.623 6.665 10.725-125.555c-9.898 1.078-19.761 2.192-29.498 3.396l3.072 127.082 145.423 74.876c4.15-2.12 8.336-4.258 12.504-6.414L510.5 239.343l136.98 71.679c4.096-2.174 8.155-4.366 12.215-6.575l-114.236-76.871-20.82 7.096 6.843-117.453z"/><path d="M564.285 114.04c-9.736.934-19.562 1.886-29.426 2.838l10.617 110.698 128.699 68.895a1352.83 1352.83 0 0010.977-6.216l-108.776-73.439-17.929 6.359 5.838-109.135zM185.107 224.271c-18.324 11.299-33.342 21.396-43.87 28.761l-4.545 183.167s-35.229 25.259-48.451 36.433c-13.24 11.138-37.51 33.953-37.51 33.953l.018 45.253s29.318-40.546 49.852-59.805c20.03-18.772 45.863-39.935 45.863-39.935l-4.743-6.827 163.388 73.816c2.605-2.532 9-8.641 18.162-16.994l-141.669-92.787-22.096 17.713 25.601-202.748z"/><path d="M229.677 198.401c-14.587 7.922-28.133 15.827-40.367 23.3l-7.707 187.623 165.67 71.643a886.313 886.313 0 0119.042-15.827l-138.92-90.146-22.15 16.132 24.432-192.725zm367.735-87.559c-9.862.988-19.887 1.94-30.036 2.91l9 103.063 122.734 65.301a735.65 735.65 0 0011.694-7.042l-102.613-69.038-19.258 6.827 8.479-102.021zM357.37 144.454l-2.443.683c-12.018 3.485-23.947 7.545-35.696 11.928l-3.88 162.867 159.274 75.397a2124.856 2124.856 0 0119.186-9.251l-134.806-88.979-22.959 11.677 21.324-164.322z"/><path d="M316.374 158.143c-14.012 5.335-27.755 11.192-41.049 17.336l-3.988 170.394-22.438 14.354 23.354-183.329c-13.725 6.414-26.947 13.132-39.486 19.869l-5.372 178.209 161.143 72.864a679.814 679.814 0 0117.947-12.988l-135.148-88.53 158.609 73.08c6.288-3.898 12.593-7.563 18.863-10.922l1.186-.629-134.645-87.919-22.707 12.971 23.731-174.76zm474.931-88.889c-8.281 3.431-16.977 6.754-26.066 9.97l.251 58.978 76.152 16.474a475.65 475.65 0 0012.072-19.222l-57.811-16.312-14.856 9.647 10.258-59.535z"/><path d="M762.382 80.266a537.892 537.892 0 01-27.737 8.803l-.575 65.463 88.009 27.091a404.455 404.455 0 0010.401-13.761l-66.99-29.642-15.378 8.066 12.27-66.02zm83.876-37.51a539.26 539.26 0 01-22.904 12l-.449 43.87-14.803 11.659 12.594-54.235a538.435 538.435 0 01-26.75 12.108l1.977 50.984 64.941 3.826a480.684 480.684 0 0010.133-19.294l-47.211-5.533 53.049-6.629a508.845 508.845 0 007.904-17.785l-36.037 2.281-11.012 10.06 8.568-43.312z"/><path d="M732.111 89.805a480.069 480.069 0 01-12.916 3.521c-5.084 1.33-10.546 2.551-16.349 3.719l-.251 71.93-.107.054 99.074 36.324c3.432-3.647 6.809-7.348 10.042-11.102l-77.535-39.72-15.396 7.258 13.438-71.984zM909.512 0s-4.293 3.845-12.575 10.096l-3.378 15.971-6.754 8.515 3.683-19.743a419.323 419.323 0 01-15.162 10.384l-3.593 27.09-7.438 8.3 7.096-32.839a509.477 509.477 0 01-22.527 13.509l-.18 34.744 41.229-15.019c2.191-5.569 4.15-10.886 5.946-15.88l-21.288 4.186 24.791-14.354C906.512 13.617 909.512 0 909.512 0M631.365 107.339c-9.898 1.096-20.156 2.138-30.629 3.18l7.455 95.5 118.1 59.319c3.97-2.569 7.922-5.138 11.785-7.725l-96.758-63.99-19.007 7.294 9.054-93.578z"/><path d="M671.014 182.107l.035-.018-.215-.071z"/><path d="M668.086 102.793c-10.707 1.491-22.025 2.893-33.828 4.204l7.061 86.625 110.033 54.882a583.071 583.071 0 008.084-5.802l4.293-3.198-92.715-57.397-16.492 6.431 13.564-85.745z"/><path d="M702.451 169.047l.019-.018-.109-.036z"/><path d="M699.793 97.62c-8.803 1.689-18.307 3.252-28.438 4.707l.161 79.583-.468.18 107.07 45.72a300.093 300.093 0 0010.635-9.611L702.45 169.03l-15.934 6.916 13.277-78.326z"/><path fill-rule="evenodd" clip-rule="evenodd" d="M992.975 722.896c0 9.468-6.809 15.881-14.945 15.881-8.301 0-14.93-6.413-14.93-15.881 0-9.484 6.629-15.898 14.93-15.898 8.136-.001 14.945 6.413 14.945 15.898m-14.946 21.109c11.317 0 21.971-7.689 21.971-21.109 0-13.438-10.653-21.126-21.971-21.126-11.372 0-21.953 7.688-21.953 21.126 0 13.419 10.581 21.109 21.953 21.109m-3.396-23.336v-5.192h3.234c1.67 0 4.186.108 4.186 2.335 0 2.354-1.078 2.857-3 2.857h-4.42zm0 4.113h1.941l5.191 9.539h5.246l-5.803-9.916c3.97-.18 6.413-1.742 6.413-6.019 0-5.407-3.629-7.024-9.647-7.024h-8.587v22.959h5.245v-9.539z"/><path d="M731.447 782.61c0-23.588-8.282-39.02-47.158-39.02-37.869 0-48.162 12.288-48.162 54.164.125 38.731 7.957 54.181 48.307 54.181 39.629 0 47.014-18.306 47.014-40.888h-38.589v11.139c0 5.156-2.622 8.568-8.425 8.568s-8.408-3.412-8.408-8.568v-48.882c0-5.138 2.605-8.587 8.408-8.587s8.425 3.449 8.425 8.587v9.306h38.588zm-361.43-14.73v18.862h7.833c4.958 0 7.994-4.294 7.994-9.432s-3.036-9.431-7.994-9.431h-7.833zm0 39.162v20.588h7.833c5.82 0 8.875-5.426 8.875-11.713 0-6.288-3.341-8.875-8.138-8.875h-8.57zm-37.996 41.75v-88.655c-.251-2.82-1.563-4.509-3.288-5.497l-2.838-1.042-1.868-.288v-6.305h7.994l54.253-.287c29.318 0 38.175 8.586 38.175 24.736 0 16.725-10.024 22.707-24.953 25.295 15.935 2.155 26.983 8.299 26.983 25.725 0 12.881-7.401 26.318-33.091 26.318h-61.367zm110.213 0v-81.506l-.072-6.342c-.036-3.287-1.438-5.209-3.324-6.27l-2.838-1.04-1.886-.287.018-6.307h8.102l39.181-.322v77.768h33.684v24.307h-72.865zm-322.501 0v-81.506l-.072-6.342c-.036-3.287-1.455-5.209-3.305-6.27l-2.856-1.041-1.868-.287v-6.307h8.102l39.181-.322v77.768h33.684v24.307h-72.866zm84.38 0v-81.506l-.072-6.342c-.036-3.287-1.437-5.209-3.306-6.27l-2.856-1.041-1.851-.287v-6.307h8.084l39.181-.322v77.768h33.684v24.307h-72.864zm751.37-74.428c0-16.994-8.39-31.672-46.169-31.672-30.073 0-46.008 10.762-46.008 35.732 0 37.941 55.151 22.959 55.151 45.918 0 5.102-3.826 9.018-9.144 9.018-3.377 0-5.3-1.455-6.468-3.772-1.204-2.479-1.491-5.839-1.635-9.898h-39.073c-1.796 29.804 24.486 33.126 49.996 33.126 25.223 0 45.863-8.568 45.863-36.037 0-37.617-55.457-26.156-55.457-45.468 0-3.916 2.803-7.688 7.078-7.688 4.133 0 6.486 1.006 7.672 2.91 1.167 1.868 1.49 4.49 1.49 7.832h36.704zm-431.69 74.41l23.624-88.387c.647-3.144-.071-5.191-1.868-6.197l-2.246-.862-1.886-.306v-6.305h63.361l26.695 102.057H591.43l-2.91-15.988h-21.484l-2.893 15.988h-40.35zm54.416-80.966l-7.977 45.234h15.521l-7.544-45.234zM0 848.774l23.623-88.387c.646-3.144-.071-5.191-1.868-6.197l-2.245-.862-1.887-.306.018-6.305h63.343l26.695 102.057H67.618l-2.892-15.988H43.258l-2.91 15.988H0zm54.415-80.966l-7.977 45.234h15.521l-7.544-45.234zm683.534-21.577l47.319-.143v28.42l27.881-28.312h45.81l-39.611 38.893 37.905 63.092h-41.499l-21.971-37.869-8.479 8.39v29.444h-39.163v-81.578l-.18-6.27c-.036-3.287-1.437-5.191-3.306-6.27l-2.855-1.023-1.852-.287v-6.487zm-516.122-144.74h53.427l16.617 45.684h.287l15.037-45.684h45.81v101.967h-38.66v-51.971h-.27l-12.611 37.078H281.99l-13.617-36.791h-.27v51.684h-38.552v-90.074c0-2.568-1.275-4.725-4.563-5.012l-3.162-.288v-6.593zm194.916 21.055h-.575l-7.15 43.689h15.593l-7.868-43.689zm-29.372-7.15c1.024-3.862-.414-6.736-3.719-7.042l-3.162-.27v-6.593h62.732l28.51 101.984h-41.534l-2.875-16.041h-21.611L403 703.476h-40.833l25.204-88.08zm127.1 18.037v38.533c0 5.731 2.73 10.007 8.316 10.007 5.588 0 8.301-4.275 8.301-10.007v-38.533c0-5.73-2.713-10.024-8.301-10.024-5.586-.001-8.316 4.293-8.316 10.024m-39.092 20.191c0-40.097 9.306-54.127 47.408-54.127 38.104 0 47.409 14.03 47.409 54.127 0 37.528-9.162 51.99-47.409 51.99-38.246 0-47.408-14.462-47.408-51.99m152.843-7.742c7.438 0 11.175-4.006 11.175-10.869 0-8.317-4.15-11.748-12.181-11.748h-5.587v22.617h6.593zm49.546 45.701c0 2.57 1.294 4.726 4.582 4.994l3.144.307v6.574H647.84c-6.307 0-8.731-4.725-8.731-10.168v-10.15c0-8.892-3.288-13.329-10.887-13.329h-6.593v33.647h-38.516v-90.074c0-2.587-1.294-4.725-4.582-5.012l-3.161-.288v-6.593h69.612c21.055 0 33.217 9.306 33.217 27.647 0 14.749-7.006 22.905-22.33 26.354v.557c14.605 2.156 21.898 8.174 21.898 19.635v15.899zm16.744 11.875v-90.074c0-2.568-1.275-4.725-4.582-5.012l-3.143-.288v-6.593h46.258v101.967h-38.533z"/></svg>