<svg xmlns="http://www.w3.org/2000/svg" width="1000" height="1000" viewBox="0 -89.401 1000 1000" overflow="visible"><path fill="#FFE834" d="M686.695 664.233c-193.507 149.258-456.936 183.68-588.329 76.854-131.387-106.793-81.051-314.363 112.46-463.639C404.337 128.196 667.751 93.79 799.18 200.592c131.364 106.796 81.008 314.383-112.485 463.641z"/><path fill="#060D3C" d="M669.338 677.184C486.64 810.083 243.853 836.444 127.062 736 10.269 635.562 63.691 446.397 246.388 313.46c182.681-132.937 425.457-159.28 542.259-58.837 116.786 100.442 63.372 289.622-119.309 422.561z"/><path fill="#FFE834" d="M107.616 739.525C-13.872 635.118 41.98 438.126 232.371 299.534c190.372-138.607 443.196-166.328 564.674-61.911 84.42 72.555 83.143 189.788 10.667 301.092 93.252-126.354 100.269-264.708 2.676-348.878-131.836-113.641-404.336-85.547-608.69 62.781C-2.652 400.948-61.455 613.292 70.327 726.93c33.602 28.988 76.402 48.694 124.844 59.595-33.411-10.489-63.165-26.03-87.555-47z"/><path fill="#060D3C" d="M722.06 668.059h-6.26v-2.258h15.24v2.258h-6.291v18.332h-2.689zm28.567 9.29c-.154-2.875-.336-6.356-.336-8.891h-.056a158.252 158.252 0 01-2.604 7.82l-3.633 9.988h-2.021l-3.36-9.807c-.975-2.934-1.767-5.557-2.348-8.002h-.062c-.059 2.565-.217 5.988-.399 9.101l-.544 8.832h-2.537l1.435-20.59h3.396l3.512 9.957a98.495 98.495 0 012.076 6.935h.055c.551-2.072 1.285-4.338 2.204-6.935l3.664-9.957h3.395l1.284 20.59h-2.634l-.487-9.041z"/><path fill="#FFE834" d="M248.313 476.156s-2.458 5.206-7.069 4.277c-3.924-.788-3.361-4.932-3.361-4.932l-.164-42.956-15.483 40.78s-2.169 5.206-6.773 4.896c-3.357-.241-4.574-4.934-4.574-4.934l-6.308-46.152-7.515 45.812s-.928 3.666-4.303 4.6c-4.757 1.26-6.434-4.944-6.434-4.944l-13.981-40.278-.761 42.048s-.628 4.6-4.314 4.89c-4.936.409-7.341-5.247-7.341-5.247l-16.884-35.307 7.804 50.091-2.223 38.558 109.061.351-1.988-37.947 7.726-50.363-15.115 36.757z"/><path fill="#060D3C" d="M150.434 498.451a6.257 6.257 0 100 12.513h105.605a6.256 6.256 0 100-12.513H150.434z"/><path fill="#FFE834" d="M392.977 476.156s-2.469 5.206-7.062 4.277c-3.934-.788-3.359-4.932-3.359-4.932l-.184-42.956-15.482 40.78s-2.152 5.206-6.766 4.896c-3.347-.241-4.572-4.934-4.572-4.934l-6.301-46.152-7.515 45.812s-.928 3.666-4.3 4.6c-4.758 1.26-6.438-4.944-6.438-4.944l-13.979-40.278-.752 42.048s-.654 4.6-4.332 4.89c-4.929.409-7.333-5.247-7.333-5.247l-16.894-35.307 7.797 50.091-2.208 38.558 109.061.351-1.986-37.947 7.723-50.363-15.118 36.757zm-77.729 123.071s-2.47 5.213-7.062 4.28c-3.931-.793-3.359-4.945-3.359-4.945l-.183-42.953-15.484 40.788s-2.152 5.209-6.771 4.889c-3.342-.237-4.567-4.928-4.567-4.928l-6.299-46.155-7.525 45.812s-.916 3.667-4.293 4.601c-4.755 1.26-6.444-4.952-6.444-4.952l-13.969-40.271-.76 42.048s-.648 4.615-4.322 4.894c-4.931.406-7.344-5.243-7.344-5.243l-16.882-35.317 7.795 50.108-2.205 38.551 109.059.344-1.995-37.951 7.734-50.36-15.124 36.76z"/><path fill="#060D3C" d="M787.305 29.8l45.288 9.313-2.865-32.531s1.866-9.461 9.021-.432l35.258 64.641 43.873-54.038s2.875-3.297 5.438-1.286l4.018 3.874s1.859 1.429-1.718 6.586c0 0-13.9 23.801-4.008 44.999 0 0 15.329-9.309 51.892 2.579 0 0 26.365 8.751 26.499 15.195 0 0 .151 5.158-7.018 2.434 0 0-36.824-9.601-61.336 30.39 0 0-17.764 26.077-6.146 35.825 0 0 7.726 8.312 30.075 12.612 0 0 3.585-.148 3.306 4.298 0 0 .854 4.16-3.009 4.726 0 0-19.644.145-31.532 8.177 0 0-16.765 9.021-25.366 28.799 0 0 18.482 12.184 20.487 15.194 0 0 3.873 3.154-.995 5.733 0 0-44.17 4.865-45.735 5.872 0 0-18.501 4.299-5.606 23.069l96.461-24.359s1.325-1.438 4.899 2.292l3.003 3.013s2.021 3.293-1.285 5.011l-3.298 1.723-91.299 48.155s-39.563 2.585-50.877 6.308c0 0-9.031 1.72-9.892 11.612 0 0 10.025 4.728 55.32-3.441 0 0 2.573-.866 4.728 3.15 0 0 5.454 5.025 1.998 7.458L768.821 363.45s3.292-7.742-8.748-10.033c0 0-15.873-4.444-46.966 8.886 0 0-3.729.284-6.012-5.161l9.455-26.8s70.788-32.421 112.626-94.865c0 0 71.738-89.76-21.216-179.221 0 0-13.939-13.361-23.673-19.963 0 0-2.826-2.836-.646-5.454.001 0 1.38-1.644 3.664-1.039zM512.422 304.516s42.278 34.186 56.961 46.209c5.364.468 12.367 1.728 21.007 4.488 2.154-2.915 3.026-8.515.98-18.655l11.824.905-3.306-9.369s-70.788-32.421-112.616-94.87c0 0-71.746-89.751 21.2-179.212 0 0 13.945-13.361 23.675-19.972 0 0 2.834-2.836.654-5.446 0 0-1.381-1.652-3.664-1.046l-45.294 9.313 2.869-32.531s-1.863-9.455-9.032-.427L442.427 68.54 398.56 14.511s-2.867-3.298-5.446-1.292l-4.009 3.872s-1.863 1.438 1.718 6.595c0 0 13.903 23.792 4.011 45 0 0-15.344-9.318-51.886 2.575 0 0-26.374 8.746-26.516 15.189 0 0-.14 5.167 7.029 2.443 0 0 36.827-9.601 61.335 30.381 0 0 17.758 26.077 6.156 35.825 0 0-7.74 8.312-30.097 12.612 0 0-3.583-.141-3.297 4.299 0 0-.854 4.16 3.013 4.728 0 0 19.633.151 31.527 8.176 0 0 16.772 9.021 25.373 28.799 0 0-18.481 12.184-20.494 15.202 0 0-3.867 3.147 1.002 5.729 0 0 44.157 4.871 45.732 5.869 0 0 18.494 4.308 5.595 23.075l-78.067-18.113s-.105-1.11-3.689 2.618l-2.617 3.211s-4.339 2.619-1.04 4.347c3.3 1.713 2.823 1.365 2.823 1.365l74.116 42.405s39.557 2.583 50.882 6.312c0 0 9.027 1.713 9.893 11.61 0 0-10.031 4.731-55.326-3.442 0 0-2.577-.871-4.724 3.154 0 0-5.447 5.019-2.011 7.449l72.676 24.679c-5.003-12.709-6.318-27.699.2-44.667z"/><path fill="#FFE834" d="M552.669 410.029c0 3.073.393 75.435 34.607 91.92l3.381-7.01c-29.827-14.372-30.206-84.208-30.206-84.913l-7.782.003zm158.634 143.193s1.071 121.214-92.507 233.943l5.319 34.032s119.079-158.455 87.188-267.975zm-223.744-33.44l12.186-11.745s64.074 166.942 8.291 241.853c-.001 0 53.409-88.342-20.477-230.108z"/><path fill="#FFE834" d="M487.169 519.375l-.303.293.193.372c72.875 139.827 21.028 228.675 20.495 229.561l.933.626.034-.055c16.845-22.652 22.715-53.858 22.715-86.345 0-74.087-30.52-154.829-30.969-155.993l-.911-.203-12.187 11.744zm12.348-10.339c2.852 7.671 30.621 84.251 30.621 154.795 0 28.983-4.772 56.863-17.837 78.521 5.413-12.352 14.751-39.152 14.751-78.088 0-37.789-8.869-86.775-38.808-144.362.53-.509 10.189-9.82 11.273-10.866zM600.082 408.4s17.767 8.903 26.994 18.12c0 0-38.187 1.071-26.994-18.12z"/><path fill="#FFE834" d="M599.568 408.101c-2.438 4.18-2.792 7.79-1.046 10.73 5.24 8.834 27.62 8.311 28.57 8.283l1.382-.038-.978-.977c-9.19-9.179-26.971-18.142-27.15-18.231l-.499-.25-.279.483zm-.023 10.125a6.595 6.595 0 01-.916-3.413c0-1.677.62-3.563 1.732-5.6 2.513 1.292 16.657 8.771 25.166 16.713-5.034-.035-21.819-.682-25.982-7.7zm-89.882 78.022l.024 3.364c7.52 0 34.742-43.309 46.098-61.93l-2.872-1.749c-17.818 29.219-38.869 59.767-43.25 60.315zm173.912-.259l-.554.39 11.765 16.943 1.116-.771s-10.271-14.796-10.995-15.836c1.037-.72 15.392-10.711 15.392-10.711l-.778-1.116-15.946 11.101z"/><path fill="#FFE834" d="M580.573 392.19c.596.168 59.677 17.45 81.95 70.177l1.253-.53c-22.535-53.335-82.232-70.783-82.832-70.952l-.371 1.305zM474.588 526.379s1.81 9.052.797 12.337c-1.014 3.288-5.22 15.029-16.358 24.884-17.416 15.397-41.914 21.455-41.914 21.455v-14.39s17.625-3.973 33.075-14.396c11.616-7.827 17.583-15.002 24.4-29.89zm159.764-3.381l76.752 12.361s11.89 2.74 15.257-2.597l29.608-30.934s-59.244-47.055-25.566-96.144c0 0 3.791 6.684.878 10.165 0 0-31.371 34.276 31.371 79.885 0 0 2.324 6.673-.871 11.321l-36.019 37.18s-1.739 4.648-13.643 2.038l-78.143-12.199.376-11.076zm-126.014-201.65c-3.374 2.57-11.214 5.501-29.335 3.724l29.491 9.88a58.298 58.298 0 01-.156-13.604zM799.762 39.844l35.173 7.076s6.042 1.663 4.373-6.038l-1.667-18.74L869.08 79.39s2.293 4.998 6.459.208c4.152-4.782 33.09-41.008 33.09-41.008s-6.029 24.769 8.125 40.178c0 0 1.671.415 6.87-1.876 5.195-2.284 22.689-5.621 49.126 4.159 0 0-42.677 1.05-61.622 57.67 0 0-6.459 20.613 23.313 32.681 0 0-32.06 6.036-46.214 39.965 0 0-2.913 5.001 2.913 7.294l13.317 8.949s-28.87 2.875-40.584 5.821c0 0-24.15 8.744-2.507 36.226 0 0 2.493 4.583 5.206 3.121l70.999-18.107-67.245 36.224s-38.51 1.035-53.095 7.074c0 0-14.358 4.368-11.651 22.484 0 0 2.093 9.782 31.866 6.871L757.3 354.176s-17.484-1.461-45.591 10.407c0 0-26.499-16.436-26.65-16.448 0 0 27.49-25.908 28.526-76.397 0 0 21.799 21.226 1.367 67.144.001-.001 263.89-131.742 84.81-299.038zM601.496 336.629S337.591 204.888 516.684 37.592l-35.179 7.076s-6.042 1.668-4.379-6.032l1.669-18.743-31.436 57.251s-2.293 4.998-6.454.21c-4.163-4.79-33.098-41.015-33.098-41.015s6.034 24.775-8.123 40.182c0 0-1.668.412-6.869-1.876-5.203-2.288-22.69-5.621-49.127 4.165 0 0 42.684 1.045 61.626 57.661 0 0 6.447 20.612-23.319 32.681 0 0 32.059 6.035 46.218 39.965 0 0 2.913 5.006-2.92 7.294l-13.322 8.951s28.88 2.882 40.595 5.828c0 0 24.149 8.742 2.496 36.217 0 0-2.488 4.588-5.195 3.122l-70.993-18.108 67.24 36.232s38.514 1.03 53.082 7.066c0 0 9.449 2.883 11.573 13.638a67.883 67.883 0 011.652-4.839s47.867 38.713 59.412 48.225c4.613.68 10.377 1.87 17.144 3.898 3.113-2.304 4.827-7.945 2.393-20.081l8.081.614"/><path fill="#FFE834" d="M621.398 338.85c27.325-51.6 2.796-76.13 2.796-76.13-1.653 37.849-14.579 60.944-26.437 74.326l23.641 1.804z"/><path fill="#FFE834" d="M511.269 304.074c-21.926 57.083 43.532 92.78 44.197 93.133l1.163-2.18c-.554-.296-47.357-25.843-47.357-67.818 0-6.463 1.264-13.353 3.818-20.561 21.134 17.09 59.082 47.831 60.362 49.063.647.444 10.192 6.177 16.101 2.042 2.796-1.959 4.2-5.728 4.2-11.25 0-2.486-.348-5.402-.916-8.593l48.997 3.738c2.042 2.396 16.365 18.086 37.527 13.101 21.006-4.929 30.937 14.212 31.347 15.03l.502.993 1.043-.395c.428-.164 42.124-15.838 54.193-6.019-3.464 5.516-22.677 35.258-35.104 36.408l.227 2.462c14.857-1.375 36.66-37.022 37.583-38.541l.502-.827-.685-.687c-11.438-11.479-50.377 2.231-56.605 4.528-2.438-4.09-13.411-20.089-33.568-15.36-21.199 4.996-35.244-12.475-35.386-12.652l-.333-.425-53.238-4.063.319 1.601c2.021 10.037 1.323 16.579-2.021 18.922-4.572 3.206-13.005-1.837-13.14-1.918-3.15-2.795-43.925-35.797-61.798-50.251l-1.322-1.069-.608 1.588z"/><path fill="#060D3C" d="M72.744 497.818l-6.938 14.502-40.489-19.375 10.997-22.979 30.389 1.798.24-.511-20.709-22.025 11.273-23.562 40.491 19.372-6.938 14.502-30.349-16.304-.241.506 24.45 28.627-6.002 12.544-37.702-.934-.206.434zm27.19-127.862l23.741 18.214c9.496 7.286 7.556 15.321-3.208 29.35-14.679 19.131-19.852 18.399-28.398 11.845l-23.741-18.216 9.784-12.753 23.553 18.069c4.036 3.098 6.431.072 10.542-5.285 4.158-5.419 5.242-7.523 1.065-10.729L90.15 382.709l9.784-12.753zm53.428 8.645l-11.388 11.345-31.679-31.794 19.244-19.175 36.57 12.222.454-.453-25.013-23.737 11.387-11.346 31.681 31.795-19.413 19.344-36.401-12.392-.457.454zm42.784-76.16c14.353-10.646 18.825-12.177 25.394-4.25 4.732 5.714 9.699 11.082-10.724 28.001-11.82 9.794-19.834 16.121-29.227 4.785l11.884-9.846c2.977 3.596 5.015 2.527 11.082-2.497 5.819-4.82 7.506-6.685 5.101-9.589-2.481-2.996-3.123-2.384-9.171 2.159l-2.837 2.117c-11.946 8.887-18.593 14.469-26.802 4.562-8.207-9.908-1.253-16.758 10.877-26.807 10.15-8.41 18.929-15.45 26.833-5.911l1.183 1.429-11.882 9.844c-2.94-3.548-4.92-1.907-9.872 2.193-6.685 5.539-6.401 7.014-4.798 8.949 2.292 2.765 4.163 1.372 7.596-1.164l5.363-3.975zm63.037-14.001l-13.027 9.414-20.191-27.94-12.507 9.038-6.1-8.439 38.695-27.962 6.099 8.441-13.158 9.508zm18.065-43.705l22.184-13.009 4.211 7.175-22.186 13.012 4.421 7.537 24.126-14.15 4.964 8.467-37.99 22.279-22.708-38.715 37.506-21.997 4.965 8.465-23.641 13.865zm27.899-36.557l28.183-12.97c12.705-5.649 19.838-6.496 24.516 3.673 3.128 6.793 4.955 10.762-4.588 17.328l.202.434c6.062-2.591 11.056-1.926 13.184 2.696l3.777 8.208-14.603 6.719-2.627-5.707c-1.255-3.111-3.958-4.371-8.339-2.355l-11.316 5.208 4.979 10.818-14.601 6.721-18.767-40.773zm35.352 8.566c6.279-2.889 5.26-4.527 3.133-9.148-1.676-3.643-3.393-4.104-8.212-1.887l-11.317 5.208 5.08 11.037 11.316-5.21zM500.895 145l30.826-3.473c13.835-1.379 20.87.059 22.122 11.179.841 7.434 1.326 11.776-9.792 15.016l.059.475c6.565-.56 11.101 1.64 11.669 6.693l1.013 8.981-15.974 1.801-.702-6.246c-.213-3.349-2.386-5.392-7.183-4.854l-12.375 1.396 1.329 11.834-15.973 1.797L500.895 145zm30.875 19.226c6.868-.771 6.414-2.648 5.846-7.704-.45-3.984-1.935-4.96-7.203-4.368l-12.381 1.396 1.36 12.072 12.378-1.396zm85.79-25.616l-.104 29.925c-.042 11.969-7.609 15.293-25.287 15.232-24.112-.081-26.667-4.638-26.636-15.41l.104-29.923 16.072.055-.093 29.684c-.024 5.085 3.839 5.159 10.584 5.182 6.835.022 9.166-.387 9.184-5.654l.096-29.145 16.08.054zm50.125 20.074c.335-4.546-4.848-5.233-9.62-5.922-11.452-1.654-12.144.906-13.342 8.05l-1.04 7.226c-1.14 7.878 2.396 9.236 10.677 10.43 8.112 1.17 10.45.12 11.347-6.04l-10.98-1.585 1.19-8.234 27.122 3.915-1.115 7.761c-2.166 14.985-7.65 16.975-28.968 13.899-18.771-2.711-27.979-6.458-25.902-20.852l1.663-11.488c2.113-14.692 13.252-15.321 30.754-12.795 15.433 2.228 26.396 3.87 24.367 17.968l-16.153-2.333zm32.896-8.023l30.06 9.964c11.362 3.769 17.55 7.585 14.461 16.901-1.79 5.397-4.407 8.439-12.258 6.845l-.151.453c8.336 3.205 8.521 7.49 6.755 12.831-3.464 10.454-10.497 9.698-22.628 5.676l-30.361-10.066 14.122-42.604zm4.222 38.347l11.514 3.818c4.958 1.644 7.307 1.476 8.457-1.99 1.167-3.521-.425-4.615-5.382-6.26l-11.824-3.92-2.765 8.352zm5.382-16.247l10.987 3.641c5.34 1.771 6.865 1.518 7.991-1.889.847-2.557.64-3.698-3.599-5.23l-12.814-4.249-2.565 7.727zm66.126 42.603l-8.278 13.386-13.67-8.452 8.278-13.387-2.858-36.032 15.65 9.679.064 20.374.48.296 18.531-8.879 15.855 9.806zM295.422 498.369a6.256 6.256 0 100 12.512H401.03a6.256 6.256 0 100-12.512H295.422zM217 621.331a6.257 6.257 0 100 12.513h105.606a6.257 6.257 0 100-12.513H217z"/></svg>