<?xml version="1.0" encoding="utf-8"?>
<!-- Generator: Adobe Illustrator 15.1.0, SVG Export Plug-In  -->
<!DOCTYPE svg PUBLIC "-//W3C//DTD SVG 1.1//EN" "http://www.w3.org/Graphics/SVG/1.1/DTD/svg11.dtd" [
	<!ENTITY ns_flows "http://ns.adobe.com/Flows/1.0/">
]>
<svg version="1.1"
	 xmlns="http://www.w3.org/2000/svg" xmlns:xlink="http://www.w3.org/1999/xlink" xmlns:a="http://ns.adobe.com/AdobeSVGViewerExtensions/3.0/"
	 x="0px" y="0px" width="1000px" height="1000px" viewBox="-21.874 0 1000 1000"
	 overflow="visible" enable-background="new -21.874 0 1000 1000" xml:space="preserve">
<defs>
</defs>
<path fill-rule="evenodd" clip-rule="evenodd" fill="#034EA2" d="M74.396,135.968l4.004-7.941C25.478,97.113,8.94,64.35,8.94,30.743
	C27.119,61.553,45.294,80.37,63.486,87.36C42.254,58.204,28.86,29.156,20.835,0l55.582,64.524l9.908,1.951
	c-7.249-22.146-12.91-43.311-14.897-65.456c12.254,13.189,25.151,32.07,34.73,50.609c7.628-9.27,19.211-14.568,32.763-15.896
	l-0.984,7.958c2.417,33.812,15.761,65.402,55.548,90.274c5.645,10.91-1.624,17.85-12.877,14.881
	c-27.808-15.52-46.295-37.683-55.582-66.458l2.969,27.552c-0.656,2.276-2.814,3.349-4.989,2.451
	c-7.578-3.402-14.517-8.112-20.801-14.154c7.114,24.802,22.167,46.329,45.139,60.534c2.969,4.297,1.349,8.372-3.971,7.941h-13.394
	c19.853,18.885,44.5,39.719,78.883,46.659l-19.331,3.436c11.081,9.972,45.468,19.883,74.933,22.371
	c-5.645,3.12-13.431,4.936-20.354,5.467c7.975,13.395,50.249,27.031,81.872,42.618c19.454,8.217,31.745,26.398,41.132,51.096h6.475
	c-1.332-45.791-41.481-86.821-87.81-113.597c-59.569-37.627-82.663-69.338-85.322-97.751c7.766-17.331,11.047-3.433,12.876,0
	c10.341,38.754,80.316,72.308,123.058,105.228c54.441,47.607,84.148,107.021,74.396,180.603l12.409,1.95l41.188,58.534
	c2.313,21.51,3.124,29.256,20.848,25.807l-7.453,22.316l-76.867-101.184l-7.958,5.938l77.368,98.75l-8.909,25.807l-85.339-118.102
	l-6.939-14.894l-2.969-21.84l-42.671-8.903c-11.582-5.938-0.326-11.928,9.908-11.928l-28.789-3.974
	c-5.766-4.142-5.594-10.234,1.019-12.406l17.382-0.954l-1.486-6.469c-53.114,5.298-71.807-13.724-57.064-15.365l63.001-5.474
	c-33.694-18.868-77.794,5.474-106.207-24.805l63.54-2.965c-37.302-0.948-72.896-4.713-102.206-18.868l44.654-3.019
	c-29.465,0-50.955-5.252-64.504-15.849l61.518-1.963l-3.987-6.939c-50.023-0.33-83.906-4.989-94.265-15.902l76.433-3.933
	c-64.85-8.271-105.861-17.537-123.055-33.762l73.414,9.908c-63.677-16.158-103.655-32.434-109.146-48.609l67.493,16.864
	C55.77,151.917,10.305,122.661,0,91.33C24.806,109.885,49.628,125.317,74.396,135.968"/>
<path fill-rule="evenodd" clip-rule="evenodd" fill="#034EA2" d="M259.991,476.342l35.711,43.619l-28.772-7.954
	c-15.035-5.562-19.352-4.229-21.837,7.006l-6.956,34.717c-25.443-13.879-37.042-31.106-34.713-51.581l12.876-0.531
	c0.347,7.854,2.814,18.761,11.428,21.854l7.44-22.324l17.866-2.017L259.991,476.342z"/>
<path fill-rule="evenodd" clip-rule="evenodd" fill="#034EA2" d="M237.637,491.168l-30.258-3.429l23.819-38.219l53.598,2.003
	l58.567,91.293l-40.705-14.895l-33.245-63.038C258.316,458.254,248.271,482.44,237.637,491.168"/>
<polygon fill-rule="evenodd" clip-rule="evenodd" fill="#034EA2" points="356.239,549.755 287.765,445.532 305.63,440.61 
	385.98,557.644 "/>
<polygon fill-rule="evenodd" clip-rule="evenodd" fill="#034EA2" points="317.522,440.61 333.401,433.603 423.732,563.634 
	401.896,563.634 "/>
<polygon fill-rule="evenodd" clip-rule="evenodd" fill="#034EA2" points="344.348,430.651 365.179,427.687 454.475,558.712 
	436.609,565.604 "/>
<polygon fill-rule="evenodd" clip-rule="evenodd" fill="#034EA2" points="433.641,414.789 451.47,413.787 479.779,443.044 
	462.396,462.396 "/>
<path fill-rule="evenodd" clip-rule="evenodd" fill="#034EA2" d="M392.953,278.357c1.796,16.051,47.281,77.765,84.341,155.246
	c5.591-5.708,11.253-11.545,16.848-17.328C448.034,364.849,440.113,305.005,392.953,278.357"/>
<path fill-rule="evenodd" clip-rule="evenodd" fill="#034EA2" d="M473.323,487.201c-3.641-7.578-6.267-17.173,1.002-25.753
	c44.654-71.773,101.218-127.697,136.916-191.529c26.534-37.319,71.377-59.005,115.117-63.489
	c-47.937,23.474-82.7,53.524-104.19,90.258c-27.771,57.564-96.249,112.164-94.278,170.698
	C512.335,481.957,494.141,488.579,473.323,487.201"/>
<path fill-rule="evenodd" clip-rule="evenodd" fill="#034EA2" d="M539.811,451.523c13.898,11.875,42.671-18.868,56.569-32.747
	l-18.888-4.989c27.152-6.939,54.236-21.14,81.409-38.697c-20.18,1.688-43.344,10.288-63.543,3.987
	c30.521-8.116,78.402-13.899,88.313-45.657c-23.446,11.619-48.958,14.584-72.432,12.89c44.084-12.197,76.332-28.739,91.313-51.574
	c-19.507,6.556-39.047,9.219-58.587,7.941c30.466-11.875,60.88-24.906,91.313-44.641c-20.543-3.638-42.013,1.606-62.521,3.94
	c78.072-32.074,80.729-51.268,118.102-59.535c37.958-12.722,71.188-34.885,101.225-63.505
	c-28.449,37.369-72.452,71.46-122.056,82.319v7.955c29.103-4.452,58.203-18.018,87.306-35.678
	c-34.798,24.287-70.684,46.437-108.144,65.472l0.988,6.939l44.654-15.848c-36.081,18.182-48.319,29.748-36.733,34.716l-34.75,22.801
	l1.002,5.938l24.839-2.966l-78.403,47.654c-2.831,5.615,1.332,12.238,8.425,11.929c17.745,2.38,108.474,10.496,111.647-11.929
	c-27.482,2.004-50.936-1.324-70.441-9.925c77.018-5.83,137.555-12.978,140.883-37.729c-30.305,7.834-61.809,11.391-94.776,9.958
	c69.077-19.715,132.479-38.219,136.466-56.617c-34.474,14.208-71.376,22.371-111.129,23.333
	c83.284-29.223,128.39-47.809,123.037-54.539c-33.499,11.236-65.438,22.472-99.233,20.347c79.728-36.371,151.5-50.834,133.95-81.368
	c-16.938,14.31-41.743,22.731-66.475,28.793c50.713-19.887,92.69-53.752,63.503-66.528c-14.329,14.033-29.708,25.323-46.639,32.746
	c34.589-29.155,51.319-58.516,32.262-66.475c-54.425,36.63-106.349,71.773-164.727,98.495c2.589-5.731,4.162-11.444,3.47-17.123
	c-46.471,40.18-71.114,41.666-99.254,65.469C613.467,312.381,563.702,378.318,539.811,451.523"/>
<path fill-rule="evenodd" clip-rule="evenodd" fill="#034EA2" d="M672.76,373.14l-25.787,16.844
	c38.354,16.864,70.441,14.901,98.252,0C717.657,390.468,691.042,385.842,672.76,373.14"/>
<path fill-rule="evenodd" clip-rule="evenodd" fill="#034EA2" d="M641.036,393.958l-12.91,9.925
	c27.461,22.835,75.74,25.289,87.803,4.969C684.635,409.591,658.122,407.951,641.036,393.958"/>
<path fill-rule="evenodd" clip-rule="evenodd" fill="#034EA2" d="M611.241,411.824l-18.848,20.831
	c46.947,12.359,82.559,13.461,101.736-2.004C665.25,431.808,637.458,426.563,611.241,411.824"/>
<path fill-rule="evenodd" clip-rule="evenodd" fill="#034EA2" d="M583.484,441.564l-20.348,14.41
	c59.845,27.623,98.059,25.135,115.581-5.453C657.57,456.613,598.504,450.211,583.484,441.564"/>
<path fill-rule="evenodd" clip-rule="evenodd" fill="#034EA2" d="M440.58,573.559h-23.857
	c-0.605,37.991-6.247,76.104-22.785,114.115l72.462-1.002l9.908-13.879l-52.576,2.004l-0.538-5.991
	c18.955-2.326,36.976-2.118,60.053-1.95l3.987-10.927l-51.126,2.973c18.159-5.783,37.077-9.912,56.58-10.443l2.435-5.938
	l-52.041,3.02l59.497-9.958l3.491-6.96l-64.508,4.505v-4.021c12.567-6.422,44-7.094,76.417-8.909l5.938-9.905
	c-27.428,0.639-54.927,2.966-82.354,8.91c11.912-11.243,57.568-18.196,85.338-15.869l19.85-21.833
	c-50.935-2.643-87.322,7.954-109.158,31.758C441.215,600.005,442.254,586.799,440.58,573.559"/>
<polygon fill-rule="evenodd" clip-rule="evenodd" fill="#034EA2" points="355.238,692.662 330.432,714.449 330.432,737.304 
	361.192,702.574 "/>
<polygon fill-rule="evenodd" clip-rule="evenodd" fill="#034EA2" points="402.861,697.599 369.133,700.57 338.374,739.254 
	337.372,755.17 356.239,764.073 354.236,737.304 373.104,708.512 405.867,706.488 "/>
<path fill-rule="evenodd" clip-rule="evenodd" fill="#034EA2" d="M412.769,700.57l-2.969,14.894
	c19.177,3.975,31.761,15.849,37.735,35.712l12.894-4.915C464.383,727.702,439.578,708.195,412.769,700.57"/>
<path fill-rule="evenodd" clip-rule="evenodd" fill="#034EA2" d="M404.848,715.464l-28.776-1.015l-14.88,20.831l-0.965,35.731
	l19.815,1.002c0-14.847,2.969-29.795,11.912-44.642l3.967,32.714l12.914,1.021L404.848,715.464z"/>
<path fill-rule="evenodd" clip-rule="evenodd" fill="#034EA2" d="M634.063,488.27l25.82-7.006
	c-1.09,24.341,4.054,46.658,22.835,63.039c5.938,13.186,4.612,25.114-4.001,35.711l-66.494,46.659
	c-10.927,3.436-23.111,2.797-24.786-3.504c-5.54-10.98-19.298-13.777-36.7-12.877c-8.109-2.333-9.286-11.619-2.017-12.93
	c17.228-1.655,30.446,0.692,39.732,6.992c7.74,11.082,17.51,16.173,31.731,3.968l38.718-33.762c3.953-7.578,3.953-15.209,0-22.835
	C649.75,531.203,637.411,510.109,634.063,488.27"/>
<path fill-rule="evenodd" clip-rule="evenodd" fill="#034EA2" d="M609.721,634.614l14.43-7.478L635.065,644
	c5.365,7.687,14.375,4.613,9.938-3.967l-10.698-17.604l10.181-7.215l19.332,30.811c4.007,22.472-20.818,32.053-35.691,19.816
	L609.721,634.614z"/>
<path fill-rule="evenodd" clip-rule="evenodd" fill="#034EA2" d="M670.79,597.362l-7.935,4.969l13.879,19.836
	c6.777,11.929,2.655,15.412-4.976,5.938l-14.841-17.812l-9.944,4.922l22.834,35.726c18.505,14.591,40.977,0.384,28.76-21.833
	L670.79,597.362z"/>
<path fill-rule="evenodd" clip-rule="evenodd" fill="#034EA2" d="M681.683,593.375l-8.923,5.473
	c58.862,54.855,159.791,28.342,19.85-23.285l-4.949,9.925C726.976,601.699,723.264,614.26,681.683,593.375"/>
<path fill-rule="evenodd" clip-rule="evenodd" fill="#034EA2" d="M694.6,543.817l87.837,26.776
	c29.915,8.902,7.2,32.175-6.469,29.773l-85.343-24.805l1.984-12.184l32.767,10.698c8.316,1.708,11.941-4.916,1.983-7.68
	l-34.246-10.705L694.6,543.817z"/>
<path fill-rule="evenodd" clip-rule="evenodd" fill="#034EA2" d="M904.922,308.098C927.368,359.504,939,415.065,939,471.151
	c0,230.852-190.81,413.303-420.021,413.303c-229.231,0-420.037-182.451-420.037-413.303c0-67.598,16.915-134.28,49.056-193.815
	l5.335-9.851l19.712,10.651l-5.315,9.871c-30.346,56.234-46.366,119.259-46.366,183.145c0,218.439,180.797,390.878,397.615,390.878
	c216.84,0,397.617-172.439,397.617-390.878c0-53.013-10.994-105.501-32.209-154.11l-4.491-10.275l20.562-8.957L904.922,308.098z"/>
<path fill-rule="evenodd" clip-rule="evenodd" fill="#034EA2" d="M864.154,338.457c16.556,42.141,25.148,87.104,25.148,132.31
	c0,202.597-166.501,363.956-368.151,363.956c-201.608,0-368.13-161.358-368.13-363.956c0-56.032,13.085-111.371,38.183-161.513
	l2.367-4.613l9.215,4.613l-2.33,4.66c-24.354,48.663-37.11,102.415-37.11,156.853c0,196.935,161.893,353.621,357.805,353.621
	c195.921,0,357.816-156.686,357.816-353.621c0-43.948-8.391-87.615-24.441-128.491l-1.902-4.814l9.614-3.766L864.154,338.457z"/>
<path fill="#034EA2" d="M752.992,157.233l3.624-29.327l-22.734,18.764L752.992,157.233z M764.833,197.194l-15.364-8.529
	l2.003-18.071l-27.979-15.482l-13.898,11.495l-14.994-8.322l63.085-49.503l14.947,8.268L764.833,197.194z M672.915,150.707
	l26.479-68.956l15.089,5.763l-26.479,68.976L672.915,150.707z M618.268,101.41l-4.438,19.248l14.571,3.332
	c5.662,1.382,9.286,2.021,10.906,2.071c2.381,0.154,4.539-0.313,6.368-1.537c1.795-1.173,3.025-3.073,3.61-5.628
	c0.518-2.122,0.363-4.075-0.43-5.884c-0.781-1.744-2.179-3.23-4.143-4.387c-1.99-1.224-6.576-2.605-13.724-4.246L618.268,101.41z
	 M624.897,72.792l-3.852,16.639l10.287,2.384c6.146,1.432,9.958,2.226,11.531,2.38c2.73,0.329,5.057,0,6.939-1.052
	c1.863-1.124,3.053-2.814,3.604-5.144c0.539-2.226,0.264-4.196-0.739-5.887c-1.034-1.691-2.81-2.968-5.352-3.917
	c-1.533-0.483-5.991-1.586-13.408-3.298L624.897,72.792z M611.9,57.206l31.153,7.144c6.166,1.432,10.718,2.764,13.636,3.937
	c2.919,1.157,5.42,2.744,7.477,4.815c2.052,2.071,3.538,4.559,4.553,7.423c1.021,2.865,1.177,5.887,0.471,8.96
	c-0.779,3.398-2.467,6.246-5.076,8.576c-2.643,2.4-5.763,3.883-9.475,4.521c4.451,2.384,7.626,5.403,9.421,9.064
	c1.869,3.641,2.279,7.578,1.352,11.704c-0.76,3.298-2.334,6.317-4.681,9.01c-2.367,2.709-5.197,4.676-8.458,5.833
	c-3.282,1.173-7.074,1.537-11.378,1.019c-2.676-0.38-9.023-1.657-19.069-3.937l-26.533-6.142L611.9,57.206z M563.856,126.803
	l5.164-73.69l16.124,1.124L580,127.906L563.856,126.803z M471.01,133.584L462,60.275l24.012-2.965l20.542,48.246l8.076-51.752
	l24.079-2.969l9.01,73.31l-14.894,1.866l-7.081-57.723l-8.7,59.619l-15.446,1.917l-22.801-55.77l7.108,57.736L471.01,133.584z
	 M423.955,119.484l-20.505-21.302l0.242,29.465L423.955,119.484z M462.484,135.45l-16.313,6.559l-12.79-12.93l-29.64,11.979
	l0.155,18.024L388,165.5l1.244-80.144l15.829-6.418L462.484,135.45z M327.76,205.515l-39.185-62.661l13.344-8.371l53.907,24.496
	l-26.133-41.824l12.738-7.958l39.148,62.659l-13.757,8.596l-52.872-23.752l25.528,40.875L327.76,205.515z"/>
<path fill="#034EA2" d="M360.573,998.723v-73.877h31.382c7.921,0,13.616,0.619,17.224,2.004c3.574,1.277,6.442,3.658,8.614,7.061
	c2.125,3.382,3.194,7.315,3.194,11.646c0,5.527-1.604,10.133-4.868,13.744c-3.261,3.604-8.163,5.883-14.635,6.831
	c3.244,1.849,5.92,3.92,7.992,6.199c2.104,2.226,4.952,6.2,8.476,11.982l9.044,14.409h-17.85l-10.751-16.104
	c-3.867-5.729-6.476-9.34-7.874-10.826c-1.432-1.479-2.915-2.535-4.485-3.073c-1.59-0.563-4.108-0.84-7.494-0.84h-3.053v30.843
	H360.573z M375.487,956.126h11.028c7.164,0,11.652-0.329,13.431-0.968c1.778-0.592,3.157-1.641,4.159-3.073
	c1.019-1.539,1.52-3.335,1.52-5.561c0-2.502-0.655-4.506-1.987-6.038c-1.361-1.554-3.211-2.502-5.642-2.918
	c-1.193-0.155-4.834-0.229-10.842-0.229h-11.667V956.126z"/>
<path fill="#034EA2" d="M434.969,924.846h14.914v40.008c0,6.375,0.189,10.45,0.535,12.359c0.656,3.026,2.142,5.461,4.576,7.256
	c2.397,1.861,5.662,2.756,9.838,2.756c4.246,0,7.457-0.84,9.598-2.588c2.122-1.709,3.45-3.813,3.85-6.368
	c0.447-2.534,0.689-6.73,0.689-12.566v-40.856h14.897v38.805c0,8.836-0.383,15.156-1.211,18.814c-0.792,3.656-2.292,6.73-4.45,9.265
	c-2.179,2.509-5.06,4.505-8.718,5.992c-3.607,1.485-8.371,2.278-14.171,2.278c-7.076,0-12.413-0.847-16.037-2.487
	c-3.658-1.586-6.576-3.712-8.698-6.367c-2.091-2.534-3.507-5.299-4.162-8.164c-0.981-4.229-1.449-10.495-1.449-18.767V924.846z"/>
<path fill="#034EA2" d="M543.973,971.538v-12.393h32.12v29.411c-3.105,3.019-7.611,5.682-13.549,7.954
	c-5.917,2.333-11.941,3.489-18.021,3.489c-7.732,0-14.463-1.641-20.213-4.867c-5.762-3.248-10.078-7.908-12.963-13.892
	c-2.879-6.046-4.311-12.622-4.311-19.716c0-7.679,1.587-14.53,4.848-20.521c3.194-5.991,7.888-10.551,14.168-13.778
	c4.7-2.434,10.584-3.657,17.679-3.657c9.15,0,16.312,1.896,21.489,5.783c5.144,3.866,8.459,9.164,9.925,15.949l-14.827,2.764
	c-1.002-3.611-2.985-6.477-5.85-8.601c-2.884-2.124-6.442-3.12-10.737-3.12c-6.544,0-11.701,2.071-15.587,6.193
	c-3.813,4.095-5.763,10.24-5.763,18.404c0,8.747,1.949,15.311,5.85,19.708c3.899,4.403,9.011,6.575,15.345,6.575
	c3.105,0,6.233-0.584,9.394-1.843c3.141-1.229,5.85-2.708,8.109-4.457v-9.387H543.973z"/>
<path fill="#034EA2" d="M589.939,924.846h29.519c5.851,0,10.2,0.256,13.065,0.739c2.864,0.471,5.493,1.487,7.732,3.026
	c2.266,1.587,4.142,3.591,5.682,6.192c1.486,2.536,2.246,5.454,2.246,8.647c0,3.436-0.955,6.61-2.798,9.481
	c-1.868,2.912-4.404,5.09-7.61,6.522c4.505,1.331,7.974,3.557,10.408,6.677c2.414,3.181,3.604,6.893,3.604,11.188
	c0,3.329-0.759,6.631-2.292,9.804c-1.588,3.174-3.746,5.682-6.441,7.577c-2.711,1.916-6.06,3.074-9.992,3.504
	c-2.469,0.263-8.492,0.417-17.968,0.518h-25.154V924.846z M604.82,937.138v17.072h9.79c5.829,0,9.44-0.054,10.873-0.208
	c2.502-0.33,4.559-1.225,5.99-2.663c1.48-1.479,2.172-3.383,2.172-5.782c0-2.327-0.618-4.177-1.861-5.608
	c-1.278-1.433-3.127-2.279-5.629-2.608c-1.485-0.155-5.716-0.202-12.775-0.202H604.82z M604.82,966.495v19.781h13.812
	c5.385,0,8.781-0.155,10.233-0.483c2.212-0.362,4.021-1.379,5.406-2.965c1.412-1.54,2.118-3.611,2.118-6.2
	c0-2.226-0.531-4.142-1.601-5.675c-1.076-1.594-2.629-2.696-4.7-3.389c-2.018-0.686-6.421-1.069-13.205-1.069H604.82z"/>
<polygon fill="#034EA2" points="683.841,998.723 683.841,967.618 656.743,924.846 674.246,924.846 691.627,954.049 708.646,924.846 
	725.839,924.846 698.688,967.726 698.688,998.723 "/>
</svg>
