<svg xmlns="http://www.w3.org/2000/svg" width="300" height="247.066"><path d="M57.196 153.851h-4.437l-4.097 15.673-7.78-15.673h-2.07l-6.824 25.283h4.457l4.172-15.996 7.908 16.34h1.747l6.924-25.627zm20.001 0H60.92l-6.837 25.283H70.17l1.08-3.932H59.786l2.095-7.834h8.355l1.03-3.77h-8.355l1.556-5.811h11.646l1.084-3.936zm33.084 0h-4.867l-8.703 15.226-1.03-15.226h-1.954l-9.295 15.33-.596-15.33h-4.573l1.361 25.626h1.813l9.531-15.428 1.411 15.428h1.813l15.09-25.626zm29.277 1.436l.124-1.436h-16.02l-1.06 3.936h10.388l-15.404 19.923-.12 1.424h16.372l1.085-3.932h-10.306l14.94-19.915zm20.432-1.436h-16.277l-6.841 25.283h16.086l1.08-3.932h-11.463l2.098-7.834h8.352l1.034-3.77h-8.355l1.556-5.811h11.65l1.08-3.936zm17.3 25.283l-2.989-25.626h-1.606l-17.568 25.626h4.677l3.41-5.136h9.047l.352 5.136h4.676zm-5.24-8.505h-6.626l6.005-9.444.62 9.444zm24.997 4.573h-11.43l5.76-21.35h-4.52l-6.824 25.282h15.95l1.064-3.932zm22.381 3.932l-2.984-25.626h-1.605l-17.569 25.626h4.673l3.414-5.136h9.043l.352 5.136h4.676zm-5.235-8.505h-6.63l6.005-9.444.625 9.444zm32.161-16.778h-4.437l-4.093 15.673-7.78-15.673h-2.074l-6.82 25.283h4.449l4.176-15.996 7.913 16.34h1.742l6.924-25.627zm14.882 21.103c3.026-2.79 4.747-6.53 5.149-11.212.29-3.34-.55-5.885-2.504-7.644-1.954-1.767-4.855-2.644-8.708-2.644-1.481 0-3.066.145-4.771.447l-6.788 25.233h6.113c4.652 0 8.488-1.395 11.51-4.18m-5.72-17.58c1.974 0 3.538.558 4.693 1.692 1.155 1.121 1.655 2.624 1.494 4.486-.294 3.406-1.444 6.196-3.452 8.372-2.003 2.173-4.548 3.253-7.631 3.253-.414 0-.878-.012-1.37-.062l4.581-17.568a8.498 8.498 0 011.685-.174m-131.463 64.442c0-18.169 14.278-33.159 36.647-33.159 10.475 0 19.439 4.524 23.246 9.205l-11.584 11.898c-3.17-2.938-7.933-5.004-12.846-5.004-10.553 0-16.819 7.222-16.819 16.186 0 6.904 4.995 10.314 10.785 10.314 1.987 0 3.572-.319 4.838-.873l1.83-5.952h-9.122l3.009-11.898h26.74l-7.934 28.324c-5.476 3.253-13.327 5.707-21.343 5.707-13.806 0-27.447-7.292-27.447-24.748m90.066-10.157h-8.566l2.06-7.772h7.694c3.973 0 5.716.952 5.716 3.253 0 2.375-2.144 4.52-6.903 4.52m-4.917 19.674h-8.964l2.218-8.244h8.012c3.97 0 5.952 1.105 5.952 3.485 0 2.777-2.699 4.759-7.218 4.759m16.898-13.798c8.484-2.222 13.011-7.86 13.011-14.597 0-6.824-4.13-13.094-21.185-13.094h-29.214s3.571 3.53 2.475 7.983l-12.768 47.544h30.224c19.042 0 26.5-7.536 26.5-16.894 0-5.707-3.808-9.597-9.043-10.942M33.08 216.261h-6.746l2.938-10.867h6.58c2.624 0 4.45.554 5.476 1.585.799.794 1.196 1.82 1.196 2.938 0 3.493-3.257 6.344-9.444 6.344m28.32-8.88c0-4.367-1.266-8.497-4.362-11.589-3.729-3.725-10.235-5.951-20.465-5.951h-26.28s3.53 3.493 2.495 7.913L0 245.372h18.566l4.283-15.863h4.598l6.191 15.863h19.99l-7.694-18.483C56.877 223.48 61.4 216.021 61.4 207.38"/><path d="M278.024 189.842l-14.431 18.565-4.524-18.565h-22.903s3.27.335 5.811 7.66l8.447 26.694-5.637 21.177h18.566l5.078-18.88L300 189.842h-21.976zM151.52 32.106c-3.128.398-6.216.807-9.22 1.27l1.084 34.906 38.68 20.242a361.592 361.592 0 003.372-1.66l-32.322-21.992-5.327 1.829 3.733-34.595"/><path d="M132.812 35.029a128.47 128.47 0 00-8.886 2.069l-.414 39.701 40.136 20.495a793.97 793.97 0 004.603-2.169l-34.814-22.907-5.542 2.483 4.917-39.672"/><path d="M141.512 33.497c-2.728.43-5.372.881-7.93 1.374l-.145 37.346 39.805 20.548a473.666 473.666 0 003.969-1.9l-33.829-22.584-5.558 1.958 3.688-36.742"/><path d="M168.095 30.292c-2.442.248-4.896.496-7.334.761l1.739 30.82-5.33 1.722 2.772-32.46a536.91 536.91 0 00-7.627.878l.798 32.857 37.595 19.356a342.159 342.159 0 003.232-1.656l-31.267-20.7 35.418 18.528a339.331 339.331 0 003.158-1.696l-29.537-19.87-5.384 1.83 1.767-30.37"/><path d="M176.576 29.48c-2.516.24-5.057.48-7.61.736l2.747 28.614 33.275 17.813c.951-.526 1.9-1.068 2.834-1.61l-28.117-18.988-4.631 1.639 1.502-28.205M78.554 57.96a241.436 241.436 0 00-11.344 7.438l-1.171 47.35s-9.105 6.53-12.528 9.419c-3.427 2.884-9.692 8.782-9.692 8.782l-3.721 14.423s11.302-13.207 16.608-18.185c5.182-4.85 11.857-10.33 11.857-10.33l-1.225-1.763 42.243 19.095c.678-.658 2.326-2.239 4.693-4.4l-36.627-23.986-5.715 4.577 6.622-52.42"/><path d="M90.074 51.275a232.413 232.413 0 00-10.433 6.022l-1.995 48.504 42.83 18.529a243.06 243.06 0 014.93-4.09l-35.92-23.312-5.723 4.168 6.311-49.82m95.064-22.626c-2.54.253-5.136.501-7.764.75l2.33 26.644 31.735 16.89c1.014-.6 2.024-1.213 3.017-1.826l-26.528-17.845-4.979 1.763 2.19-26.375m-62.053 8.681c-.211.058-.427.116-.633.178a127.646 127.646 0 00-9.23 3.083l-.997 42.102 41.179 19.501c1.564-.765 3.22-1.56 4.958-2.396l-34.847-23.002-5.939 3.017 5.509-42.483"/><path d="M112.49 40.873a165.823 165.823 0 00-10.615 4.474l-1.03 44.059-5.798 3.704 6.034-47.391a205.8 205.8 0 00-10.21 5.128L89.489 96.93l41.659 18.839a176.88 176.88 0 014.635-3.357l-34.934-22.89 40.997 18.897a90.23 90.23 0 014.883-2.827c.096-.05.203-.112.303-.157L112.23 82.693l-5.872 3.36 6.133-45.18m122.777-22.969a141.333 141.333 0 01-6.737 2.579l.062 15.246 19.687 4.255a115.35 115.35 0 003.12-4.967L236.46 30.8l-3.849 2.496 2.657-15.392"/><path d="M227.785 20.75c-2.288.794-4.68 1.56-7.164 2.272l-.149 16.927 22.746 7.002a86.18 86.18 0 002.69-3.555l-17.316-7.669-3.973 2.09 3.166-17.067m21.691-9.7a126.754 126.754 0 01-5.93 3.104l-.112 11.343-3.828 3.01 3.257-14.014a138.6 138.6 0 01-6.916 3.12l.514 13.19 16.786.99a130.406 130.406 0 002.624-4.988l-12.205-1.432 13.715-1.709c.733-1.58 1.411-3.12 2.036-4.602l-9.316.588-2.847 2.603 2.222-11.203"/><path d="M219.965 23.215c-1.097.31-2.21.617-3.34.915a84.333 84.333 0 01-4.23.956l-.062 18.594-.029.017 25.618 9.399a94.17 94.17 0 002.6-2.877l-20.048-10.272-3.982 1.875 3.473-18.607M265.825 0s-1.11.997-3.253 2.611l-.87 4.135-1.746 2.19.952-5.095a115.297 115.297 0 01-3.923 2.681l-.927 6.999-1.929 2.144 1.842-8.489a126.281 126.281 0 01-5.823 3.497l-.046 8.977 10.653-3.874c.571-1.44 1.076-2.814 1.54-4.11l-5.5 1.08 6.414-3.707C265.047 3.526 265.825 0 265.825 0m-71.906 27.741c-2.562.286-5.21.555-7.917.824l1.924 24.7 30.535 15.324c1.03-.658 2.044-1.32 3.046-1.995l-25.014-16.537-4.917 1.874 2.343-24.19"/><path d="M204.168 47.076l.013-.004-.054-.02.041.024z"/><path d="M203.412 26.57c-2.764.388-5.69.748-8.749 1.096l1.83 22.39 28.448 14.187c.704-.5 1.403-1.002 2.09-1.502.369-.27.741-.547 1.105-.824l-23.966-14.84-4.263 1.663 3.505-22.17"/><path d="M212.3 43.702l.004-.004-.033-.013.029.017z"/><path d="M211.605 25.232c-2.268.434-4.73.844-7.346 1.22l.041 20.574-.116.045 27.675 11.824a78.85 78.85 0 002.748-2.491L212.3 43.702l-4.126 1.788 3.43-20.258M108.04 189.316c.343.161.686.34 1.013.55 6.572 4.23 7.185 17.196 1.366 28.913-3.41 6.874-8.422 12.01-13.401 14.08-.004-.005-.012-.01-.012-.017.252-.133.505-.265.753-.41.029-.017.066-.033.1-.054 4.038-2.355 7.95-6.692 10.776-12.585 5.686-11.845 5.198-24.877-1.088-29.066-1.32-.881-2.815-1.324-4.441-1.324-4.813 0-10.268 3.861-14.593 10.326l-.248.364.008.004c-3.07 4.768-5.616 11.998-3.009 17.266.948 1.912 2.815 2.703 4.983 2.09 1.738-.492 3.61-1.933 5.124-3.948 1.2-1.602 2.582-4.288 2.855-7.01.145-1.4.025-2.645-.335-3.572-.016-.046-.033-.1-.054-.15-.405-1.017-1.22-1.605-2.239-1.605l-.153.004c-1.916.108-3.935 2.198-4.59 4.768-.38 1.494-.215 2.851.468 3.729.158.202.344.376.55.513.03.016.059.033.084.05a1.107 1.107 0 00.318.136c.973.26 2.235-.526 2.417-1.97.079-.63-.165-1.262-.252-1.362.641.766.774 1.974-.232 3.477-1.49 2.226-4.023 3.513-5.422 2.665a1.764 1.764 0 01-.546-.505c-.012-.016-.025-.029-.033-.05-.054-.062-.091-.136-.132-.21-.017-.034-.038-.063-.054-.096-2.36-4.76 1.473-10.926 2.694-12.693 3.452-4.842 7.3-7.735 10.305-7.735.844 0 1.606.228 2.285.675 4.254 2.818 3.906 13.07-.779 22.849-3.737 7.814-9.357 12.577-13.657 12.577l-.248-.004c-.435 0-.815-.046-1.163-.14-.025-.01-.054-.017-.083-.03-.079-.02-.153-.054-.232-.078a8.74 8.74 0 01-1.647-.853l-.36-.26c-1.887-1.395-3.282-3.552-4.126-6.209 0-.004-.004-.008-.004-.016-.066-.207-.124-.418-.186-.637a25.805 25.805 0 01-.692-4.16 21.398 21.398 0 01-.033-.53l-.012-.223c-.03-.75-.025-1.515.012-2.289.004-.103.004-.194.013-.293 0-.042.004-.104.008-.15.095-1.092.281-2.18.505-3.207l.05-.207c.016-.074.033-.136.045-.207.36-1.498.82-3.008 1.39-4.523 3.063-8.161 8.46-14.287 13.99-16.687H71.122l-7.607 28.246c-.807 3.075-1.212 6.228-1.212 9.138 0 12.788 8.579 20.395 24.517 20.395 8.984 0 18.482-2.103 23.825-7.445 3.965-3.965 6.879-9.465 8.898-16.994l8.977-33.311h-20.482z"/></svg>