<svg xmlns="http://www.w3.org/2000/svg" width="400" height="315"><path fill="#fff" d="M0 0h400v315H0z"/><path d="M214.722 55.517a520.7 520.7 0 00-13.064 1.793l1.533 49.504 54.837 28.697c1.598-.781 3.19-1.562 4.789-2.35l-45.834-31.183-7.553 2.593 5.292-49.054z"/><path d="M188.207 59.66c-4.446.882-8.666 1.858-12.614 2.941l-.58 56.282 56.914 29.064c2.12-.994 4.292-2.018 6.53-3.078l-49.368-32.48-7.861 3.523 6.979-56.252z"/><path d="M200.535 57.493c-3.86.604-7.624 1.25-11.24 1.948l-.208 52.948 56.43 29.136a774.07 774.07 0 005.635-2.688l-47.96-32.024-7.884 2.77 5.227-52.09z"/><path d="M238.23 52.952c-3.468.343-6.937.692-10.4 1.065l2.456 43.709-7.547 2.433 3.925-46.012c-3.629.391-7.24.794-10.815 1.238l1.137 46.597 53.298 27.436c1.527-.77 3.06-1.556 4.593-2.35L230.541 97.72l50.214 26.276a550.52 550.52 0 004.475-2.409l-41.88-28.182-7.624 2.61 2.504-43.063z"/><path d="M250.25 51.788c-3.569.343-7.168.687-10.784 1.036l3.889 40.583 47.183 25.252c1.344-.746 2.687-1.515 4.013-2.267L254.684 89.46l-6.564 2.332 2.13-40.003zM111.262 92.181c-6.713 4.144-12.224 7.843-16.077 10.543l-1.664 67.143s-12.91 9.252-17.758 13.343c-4.86 4.09-13.745 12.454-13.745 12.454l.007 16.58s10.75-14.857 18.273-21.913c7.334-6.879 16.805-14.639 16.805-14.639l-1.735-2.51 59.898 27.081c.953-.935 3.292-3.178 6.648-6.239l-51.937-34.006-8.091 6.481 9.376-74.318z"/><path d="M127.607 82.705a331.753 331.753 0 00-14.804 8.53l-2.824 68.777 60.727 26.265c2.179-1.86 4.517-3.8 6.985-5.79l-50.924-33.054-8.11 5.902 8.95-70.63zm134.79-32.087c-3.611.355-7.287.71-11.016 1.06l3.309 37.783 44.987 23.944a305.08 305.08 0 004.291-2.587l-37.617-25.311-7.068 2.51 3.114-37.4zm-87.983 12.307c-.296.083-.616.166-.9.255-4.404 1.278-8.779 2.758-13.094 4.374l-1.415 59.691 58.39 27.656a765.352 765.352 0 017.037-3.404l-49.415-32.61-8.417 4.274 7.814-60.236z"/><path d="M159.379 67.95a232.448 232.448 0 00-15.047 6.346l-1.462 62.461-8.21 5.257 8.547-67.197a296.875 296.875 0 00-14.473 7.275l-1.97 65.338 59.074 26.714a227.73 227.73 0 016.577-4.765l-49.545-32.45 58.134 26.785c2.314-1.42 4.635-2.77 6.926-4.001.136-.077.296-.154.426-.225l-49.35-32.243-8.317 4.77 8.69-64.065zm174.09-32.57a202.585 202.585 0 01-9.554 3.658l.089 21.617 27.915 6.038a168.183 168.183 0 004.428-7.05l-21.191-5.967-5.452 3.528 3.765-21.825z"/><path d="M322.864 39.41a194.087 194.087 0 01-10.164 3.232l-.207 23.991 32.255 9.939a163.45 163.45 0 003.818-5.038l-24.56-10.88-5.635 2.96 4.493-24.204zm30.748-13.745a189.388 189.388 0 01-8.4 4.404l-.165 16.077-5.422 4.268 4.611-19.871a182.514 182.514 0 01-9.802 4.421l.722 18.712 23.813 1.397a190.974 190.974 0 003.712-7.068l-17.302-2.036 19.439-2.433a177.249 177.249 0 002.894-6.518l-13.212.841-4.037 3.682 3.15-15.876z"/><path d="M311.776 42.914a177.86 177.86 0 01-4.736 1.285c-1.865.48-3.871.929-6.002 1.367l-.083 26.365-.042.018 36.322 13.318a130.737 130.737 0 003.676-4.06l-28.42-14.574-5.652 2.658 4.936-26.377zM376.792 10s-1.563 1.409-4.6 3.694l-1.237 5.86-2.474 3.114 1.343-7.228a176.377 176.377 0 01-5.564 3.806l-1.314 9.921-2.723 3.037 2.605-12.034a183.973 183.973 0 01-8.258 4.96l-.065 12.733 15.1-5.505a200.847 200.847 0 002.19-5.825l-7.801 1.527 9.092-5.245C375.696 14.99 376.792 10 376.792 10M274.838 49.335c-3.623.397-7.387.775-11.217 1.154l2.729 35.02 43.294 21.741a420.155 420.155 0 004.321-2.823l-35.469-23.459-6.979 2.664 3.321-34.297z"/><path d="M289.374 76.74h.011l-.065-.036.054.036z"/><path d="M288.302 47.667a433.29 433.29 0 01-12.4 1.539l2.598 31.763 40.323 20.114c1.006-.71 1.994-1.408 2.965-2.125a98.493 98.493 0 001.575-1.172l-33.99-21.049-6.043 2.368 4.972-31.438z"/><path d="M300.897 71.953l.012-.006-.048-.018.036.024z"/><path d="M299.924 45.774c-3.22.622-6.707 1.196-10.424 1.723l.065 29.17-.178.072 39.252 16.758a110.87 110.87 0 003.889-3.522L300.895 71.95l-5.837 2.54 4.866-28.716zM59.948 232.439l.859.077c.887.07 1.237.657 1.237 1.361v24.37h10.388v-12.051h.113l6.588 12.051h10.264v-27.596H79.02v13.603h-.16l-6.588-13.603H59.948v1.788zm42.328 12.637c0-1.864 0-3.57 1.977-3.57 1.788 0 1.859 1.706 1.859 3.57h-3.836zm3.877 6.044c-.154 1.67-.462 2.557-1.823 2.557-1.936 0-2.096-.935-2.096-4.883h12.952c0-8.057-1.557-12.242-10.78-12.242-9.103 0-11.542 4.41-11.542 11.152 0 6.743 1.658 11.164 11.158 11.164 6.399 0 10.892-1.432 11.164-7.748h-9.033zm15.706 7.126h13.555l1.983-15.42h.077l2.09 15.42h13.449l5.043-21.073h-10.158l-1.858 15.337h-.083l-1.859-15.337h-13.1l-1.592 15.337h-.07l-2.126-15.337h-11.442v1.776l.846.077c.9.077 1.096.693 1.244 1.356l4.001 17.864zm61.287-6.511l11.004-15.456v-5.629H172.1v6.553h9.105l-9.572 15.42v5.623h22.831v-8.607h-1.787l-.083.865c-.071.888-.651 1.23-1.35 1.23h-8.098zm22.884-6.659c0-1.864 0-3.57 1.984-3.57 1.781 0 1.858 1.706 1.858 3.57h-3.841zm3.878 6.044c-.154 1.67-.456 2.557-1.823 2.557-1.93 0-2.09-.935-2.09-4.883h12.946c0-8.057-1.557-12.242-10.78-12.242-9.103 0-11.542 4.41-11.542 11.152 0 6.743 1.657 11.164 11.158 11.164 6.393 0 10.897-1.432 11.164-7.748h-9.033zm34.14-7.361c0-4.96-4.227-7.204-10.927-7.204-6.86 0-10.276 2.166-10.584 7.553h8.69c0-1.48.455-2.255 1.586-2.255 1.237 0 1.663.887 1.663 2.178v1.35l-3.717.272c-5.7.349-9.157 1.858-9.157 6.902 0 3.871 2.065 6.316 6.677 6.316 3.095 0 5.345-1.32 6.245-4.262h.07c0 1.308.154 2.746.545 3.64h10.998v-1.782l-.846-.076c-.894-.077-1.243-.663-1.243-1.362v-11.27zm-9.453 5.072c0 3.215-.663 4.5-2.256 4.5-1.272 0-1.622-.93-1.622-1.984 0-1.468.805-2.285 2.327-2.403l1.55-.113zm14.52 9.415h10.004V230.65h-12.1v1.788l.853.077c.894.07 1.243.663 1.243 1.361v24.37zm35.27-14.487c0-4.96-4.22-7.204-10.927-7.204-6.855 0-10.276 2.166-10.584 7.553h8.684c0-1.48.467-2.255 1.592-2.255 1.237 0 1.657.887 1.657 2.178v1.35l-3.711.272c-5.7.349-9.146 1.858-9.146 6.902 0 3.871 2.054 6.316 6.666 6.316 3.095 0 5.345-1.32 6.239-4.262h.082c0 1.308.148 2.746.533 3.64h11.01v-1.782l-.852-.076c-.894-.077-1.243-.663-1.243-1.362v-11.27zm-9.448 5.072c0 3.215-.657 4.5-2.255 4.5-1.278 0-1.622-.93-1.622-1.984 0-1.468.805-2.285 2.32-2.403l1.557-.113zm14.571 9.415h10.004v-11.98c0-1.889.544-2.824 1.853-2.824 1.243 0 1.71.935 1.71 2.557v12.247h9.992v-14.532c0-4.303-2.16-7.162-6.618-7.162-3.688 0-5.665 1.278-7.014 4.22h-.089v-3.599h-11.933v1.776l.852.077c.894.077 1.243.663 1.243 1.356v17.864zm36.769-12.791c0-1.622.615-2.782 1.9-2.782.965 0 1.823.693 1.823 2.403v4.34c0 1.55-.704 2.48-1.906 2.48-1.35 0-1.817-1.238-1.817-2.872v-3.569zm3.646-6.008c-1.012-2.244-3.45-2.895-5.777-2.895-5.351 0-8.293 3.333-8.293 11.23 0 8.683 2.942 11.086 7.671 11.086 3.025 0 5.351-1.272 6.624-4.03h.083l.385 3.409h9.376V230.65h-12.087v1.787l.852.077c.894.071 1.243.657 1.243 1.362v5.57h-.077zM46.884 294.168c0-4.126-2.635-6.286-7.89-7.056v-.213c5.516-1.243 8.05-4.185 8.05-9.489 0-6.606-4.387-9.962-11.97-9.962H10v2.38l1.137.094c1.19.113 1.645.882 1.645 1.812v32.45h13.881V292.06h2.368c2.74 0 3.93 1.586 3.93 4.789v3.664c0 1.959.87 3.67 3.143 3.67h13.562v-2.374l-1.13-.112c-1.185-.101-1.652-.876-1.652-1.806v-5.724zm-20.221-10.732v-8.145h2.013c2.888 0 4.386 1.237 4.386 4.227 0 2.48-1.344 3.918-4.031 3.918h-2.368zm59.275-15.986H72.063v25.387c0 2.06-.722 3.6-2.735 3.6-2.012 0-2.735-1.54-2.735-3.6V267.45H49.924v2.374l1.143.1c1.184.113 1.657.882 1.657 1.812v17.995c0 11.04 3.35 15.218 16.604 15.218s16.61-4.179 16.61-15.112V267.45zm38.535 17.69h-16.142v2.374l1.13.107c1.184.106 1.652.876 1.652 1.8v3.415c0 2.628-1.237 3.605-3.25 3.605-2.427 0-3.202-1.545-3.202-3.605v-13.887c0-2.066.775-3.605 2.794-3.605 2.006 0 2.782 1.539 2.782 3.605v1.444h13.822c-.415-9.844-4.694-13.668-16.409-13.668-13.715 0-17.065 5.055-17.065 19.499 0 13.514 4.12 18.776 14.697 18.776 4.955 0 8.258-1.805 9.235-6.085h.207l1.136 5.268h8.613V285.14zm5.622 19.044h21.67c5.99 0 11.502-2.327 11.502-9.442 0-5.89-3.558-8.257-9.335-9.027v-.213c5.41-.669 8.098-3.196 8.098-8.459 0-8.092-6.086-9.595-12.851-9.595h-21.867v2.38l1.137.094c1.19.113 1.646.882 1.646 1.812v32.45zm16.1-28.893c1.752 0 2.836 1.444 2.836 3.197 0 1.55-.93 3.41-2.836 3.41h-2.687v-6.607h2.687zm-.414 14.13c2.166 0 3.658.828 3.658 3.303 0 2.32-.923 3.457-3.61 3.457h-2.268v-6.76h2.22zm28.379 3.359v11.406h14.278V292.78l11.815-25.329h-14.597l-4.126 15.32h-.2l-3.819-15.32H162.24v2.327c1.906.195 2.427 1.184 3.043 2.569l8.879 20.433zm71.654-25.33h-13.87v25.387c0 2.06-.728 3.6-2.74 3.6-2.013 0-2.729-1.54-2.729-3.6V267.45h-16.669v2.374l1.137.1c1.183.113 1.645.882 1.645 1.812v17.995c0 11.04 3.35 15.218 16.616 15.218 13.26 0 16.61-4.179 16.61-15.112V267.45zm4.128 2.375l1.143.1c1.184.113 1.64.883 1.64 1.806v32.45h13.827v-16.047h.154l8.778 16.047h13.662v-36.73h-13.821v18.102h-.208l-8.766-18.101h-16.409v2.373zm60.257 34.359v-36.736h-16.663v2.38l1.136.094c1.184.113 1.652.882 1.652 1.812v32.45h13.875zm21.461.763c13.774 0 17.083-5.209 17.083-18.723 0-14.443-3.362-19.498-17.083-19.498-13.715 0-17.072 5.055-17.072 19.498 0 13.514 3.297 18.723 17.072 18.723m0-29.608c2.012 0 2.983 1.544 2.983 3.61v13.887c0 2.06-.97 3.605-2.983 3.605s-2.995-1.545-2.995-3.605V278.95c0-2.066.982-3.61 2.995-3.61m19.142-5.515l1.136.1c1.184.113 1.652.883 1.652 1.806v32.45h13.822v-16.047h.148l8.778 16.047H390v-36.73h-13.816v18.102h-.207l-8.772-18.101h-16.403v2.373zm-20.116-54.39v7.465h1.646v-3.001h.603l1.747 3h1.793l-1.852-3.077c.526-.071.953-.26 1.314-.592.355-.361.538-.847.538-1.474 0-.752-.23-1.326-.71-1.723-.468-.396-1.196-.598-2.167-.598h-2.912zm1.646 3.15v-1.847h1.083c.154 0 .302.012.468.035.165.012.331.06.461.119a.697.697 0 01.35.284c.1.112.142.272.142.473 0 .409-.119.67-.356.77-.242.112-.544.166-.9.166h-1.248zm-5.86.58c0 .965.183 1.864.55 2.705a6.79 6.79 0 001.468 2.184 6.99 6.99 0 002.196 1.462c.847.35 1.752.515 2.711.515.953 0 1.853-.166 2.688-.515a6.757 6.757 0 002.202-1.462 6.966 6.966 0 001.497-2.184 6.87 6.87 0 00.533-2.705c0-.953-.178-1.853-.533-2.688a7.02 7.02 0 00-1.497-2.196 6.851 6.851 0 00-4.89-2.042 6.95 6.95 0 00-2.71.545 7.093 7.093 0 00-2.197 1.497 6.842 6.842 0 00-1.468 2.196 6.615 6.615 0 00-.55 2.688m2.09 0c0-.67.112-1.303.36-1.9.243-.61.58-1.143 1.006-1.587a4.822 4.822 0 011.528-1.065 4.724 4.724 0 011.941-.391c.693 0 1.338.124 1.924.39a4.757 4.757 0 012.533 2.653c.255.597.373 1.23.373 1.9 0 .68-.118 1.32-.373 1.923a4.723 4.723 0 01-1.006 1.57 4.867 4.867 0 01-1.527 1.07 4.694 4.694 0 01-1.924.385 4.818 4.818 0 01-1.941-.384 4.935 4.935 0 01-1.528-1.072 4.918 4.918 0 01-1.006-1.569 4.988 4.988 0 01-.36-1.923"/></svg>