<svg xmlns="http://www.w3.org/2000/svg" width="700" height="600"><path clip-rule="evenodd" d="M352.145 222.668l-3.043 2.118-2.754 2.343-7.484 5.016-7.204 4.461-7.484 3.953-7.195 3.68-7.492 3.175-7.477 2.356-7.203 2.105-7.199 1.575 4.414.261h4.445l4.414-.261 4.723-.5 4.703-.801 4.723-1.317 4.98-1.332 4.984-1.843 5.004-2.078 4.981-2.106 4.976-2.648 4.985-2.883 4.722-3.18 4.981-3.418 4.703-3.418 4.715-3.941 4.414-4.231 4.164-4.183 4.172-4.219 3.594-4.484 3.32-4.188 3.313-4.492 2.789-4.723 2.477-4.492 2.227-4.48 1.934-4.461 1.664-4.481 1.406-4.453 1.109-4.215.551-4.496.535-4.183v-3.957l-1.375 4.218-1.66 4.199-1.941 4.481-1.949 4.215-.273.5v.277l-3.32 5.797-3.609 6.055-3.875 5.797-4.414 5.757-4.723 5.801-5.266 5.524-5.539 5.527-5.824 5.281-2.754 2.356-3.065 2.636zm0 0" fill="#1f1a17" fill-rule="evenodd"/><path clip-rule="evenodd" d="M292.313 205.297l-2.473-2.117-2.23-2.078-2.223-2.375-1.937-2.105-1.653-2.383-1.66-2.375-3.891 5.793-3.605 5.785-3.313 6.074-2.789 5.777-2.476 6.075-1.938 5.761-1.402 5.528-1.098 5.785 1.371 1.851 1.661 1.84 2.511 2.383 2.75 2.098 2.793 1.843 3.024 1.313 3.32 1.34 3.359 1.039 3.586.801 3.61.5 7.199-1.575 7.203-2.105 7.477-2.356 7.492-3.175 7.195-3.68 7.484-3.953 7.204-4.461 7.484-5.016-5.828-.507-5.817-1.067-6.113-1.308-5.812-1.84-3.606-1.313-3.32-1.34-3.317-1.566-3.32-1.574-3.043-1.582-3.062-1.836-3.047-1.844-2.774-1.836-2.48-2.117-2.496-2.102zm0 0" fill="#d92827" fill-rule="evenodd"/><path clip-rule="evenodd" d="M369.325 206.868l5.266-5.524 4.723-5.801 4.414-5.757 3.875-5.797 3.609-6.055 3.32-5.797-.289-.277v-.262l-2.758 1.063-3.035.781-3.07.801-3.023.535-3.043.261-3.352.512h-10.234l-3.313-.273-3.613-.239-3.594-.796-3.605-.539-3.598-.77-3.605-1.074-3.879-1.035-3.594-1.305-3.605-1.602-3.594-1.574-3.328-1.582-3.344-1.836-3.043-1.844-3.031-2.113-2.789-2.105-4.157 3.445-4.14 3.418-3.602 3.156-3.597 3.414-3.61 3.68-3.34 3.418-3.043 3.418-3.043 3.68-2.769 3.679-2.754 3.692 1.66 2.375 1.653 2.383 1.937 2.105 2.223 2.375 2.23 2.078 2.473 2.117 2.496 2.102 2.48 2.117 2.774 1.836 3.047 1.844 3.062 1.836 3.043 1.582 3.32 1.574 3.317 1.566 3.32 1.34 3.606 1.313 5.812 1.84 6.113 1.308 5.817 1.067 5.828.507 2.754-2.343 3.043-2.118 3.063-2.636 2.754-2.356 5.824-5.281 5.538-5.527zm0 0" fill="#2691d0" fill-rule="evenodd"/><path clip-rule="evenodd" d="M348.004 172.934l3.598.77 3.605.539 3.594.796 3.613.239 3.313.273h10.234l3.352-.512 3.043-.261 3.023-.535 3.07-.801 3.035-.781 2.758-1.063h.289l.273-.238 1.949-4.215 1.941-4.481 1.66-4.199 1.375-4.218-.281-3.415-.531-3.453-.84-3.41-.82-3.152-1.41-2.883-1.66-2.91-1.945-2.879-2.184-2.383-1.66-1.836-2.23-1.582-4.152.539-4.449.504-4.699.801-4.449.773-4.691 1.34-4.695 1.305-4.727 1.836-4.703 1.844-4.723 1.851-4.699 2.379-4.727 2.344-4.699 2.637-4.687 2.882-4.723 2.914-4.703 3.157-4.449 3.414 2.789 2.105 3.031 2.113 3.043 1.844 3.344 1.836 3.328 1.582 3.594 1.574 3.605 1.602 3.594 1.305 3.879 1.035 3.604 1.074zm0 0" fill="#fff" fill-rule="evenodd"/><path clip-rule="evenodd" d="M521.7 223.204l-5.004 2.617-4.98 2.906-4.426 2.617-4.152 2.918-3.883 2.883-3.594 3.148-3.32 2.903-3.605 3.156-3.32 3.68-3.594 3.957-3.352 4.215-3.594 4.46-3.047 4.758-3.317 4.985-3.063 4.992-3.039 5.258-2.754 5.293-2.52 5.515-2.5 5.539-1.934 5.254-1.949 5.524-1.66 5.526-1.367 5.263-1.387 5.258-1.094 5-1.121 4.75-1.387 8.937-.84 7.898-.531 6.575v8.937l.258-1.043.84-2.879 1.383-4.754 1.93-6.054 2.5-7.375 3.316-8.138 4.172-8.94 4.695-9.211 2.789-4.754 2.754-4.724 2.781-4.754 3.32-4.461 3.043-4.48 3.32-4.453 3.605-4.231 3.34-3.941 6.926-7.91 6.914-6.844 6.637-6.317 6.102-4.996 6.113-5.254 7.203-5.523 8.012-5.793 9.141-5.535 4.715-2.637 4.703-2.625 4.977-2.637 5.02-2.375 5.246-2.359 5.27-2.098 5.254-1.843 5.266-1.836 10.52-3.156 9.703-2.383 9.141-2.098 8.051-1.32 6.637-1.063 4.973-.773 3.352-.262 1.094-.273h-1.094l-3.352-.266-5.246-.535-6.641-.508-8.336-.262h-9.387l-5.266.262-5.543.266-5.535.515-5.824.528-5.832.8-6.094 1.036-5.824 1.054-6.074 1.602-6.113 1.574-5.813 2.106-6.086 2.078-5.543 2.113-5.543 2.379-5.536 2.638zm-127.168 54.195l-4.98 1.074-5.535 1.043-5.543 1.063-5.543.773-5.543.801-5.828.261-11.363.52h-11.332l-11.086-.277-10.52-.504-9.426-.539-8.605-.532-4.418-.503-4.723-.262h-5.265l-5.536.262-5.824.503-6.066.809-6.399 1.043-6.347 1.336-6.672 1.562-6.356 1.844-6.386 2.11-6.356 2.351-6.113 2.91-5.82 2.879-5.536 3.417-5.253 3.692-4.993 3.683-4.156 3.685-4.141 3.948-3.339 3.957-3.043 3.681-2.754 3.683-2.504 3.688-1.938 3.418-3.043 6.319-1.941 5-1.402 3.418-.258 1.595.82-1.332 2.223-2.888 3.601-3.68 4.973-4.75 2.789-2.359 3.043-2.637 3.594-2.375 3.609-2.625 4.156-2.371 4.161-2.104 4.703-2.114 4.968-1.566 5.02-1.582 5.254-1.573 5.543-1.063 5.543-1.051 5.535-.8 5.543-.504 5.266-.263 5.543-.276h5.531l4.988.276 4.973.263 4.73.504 9.137.8 9.398.809 4.723.242h4.98l5.266-.242 5.543-.269 5.813-.54 5.824-.8 6.105-.767 6.074-1.069 6.387-1.313 6.352-1.574 6.395-1.573 6.066-2.106 6.113-2.108 6.105-2.384 5.813-2.617 5.801-2.637 5.539-2.886 5.008-3.153 4.695-3.176 4.156-3.14 4.141-3.418 3.352-3.184 3.043-3.152 2.754-3.145 4.441-5.535 2.781-4.48 1.66-2.879.25-1.07-.523 1.07-2.508 2.105-4.164 3.157-5.543 3.418-3.594 2.097-3.609 1.844-4.137 1.844-4.152 1.847-4.703 1.571-5.005 1.572zm-290.606-66.32l3.883-5.782 4.164-5.535 3.891-5.262 4.125-4.714 3.601-4.493 3.883-4.218 3.594-4.196 3.883-4.218 4.449-4.481 4.414-4.715 5.012-4.758 5.253-4.996 5.539-4.718 5.833-4.762 6.074-4.715 6.383-4.754 6.355-4.461 6.672-4.219 6.637-4.218 6.925-3.692 7.204-3.679 6.914-3.157 8.605-3.679 8.578-3.153 8.043-2.906 8.02-2.375 7.203-1.844 6.945-1.574 6.363-1.043 5.536-1.074-1.375 3.953-.848 3.957-.813 3.68-.57 3.953-.84 7.906v7.91l.274 7.098.566 6.832.844 6.324 1.101 5.531 1.098 5.258 1.121 4.453-4.441 5.02-3.875 5.262-3.61 5.254-3.027 5.257-2.789 5.27-2.481 5.523-1.933 5.258-1.383 5.02-1.129 5.254-.531 4.996v4.757l.254 4.723.84 4.211 1.097 4.461.852 1.848 1.094 2.105 1.129 1.844 1.093 1.836 1.098-5.785 1.402-5.528 1.938-5.761 2.476-6.075 2.789-5.777 3.313-6.074 3.605-5.785 3.891-5.793 2.754-3.692 2.769-3.679 3.043-3.68 3.043-3.418 3.34-3.418 3.61-3.68 3.597-3.414 3.602-3.156 4.14-3.418 4.157-3.445 4.449-3.414 4.703-3.157 4.723-2.914 4.687-2.882 4.699-2.637 4.727-2.344 4.699-2.379 4.723-1.851 4.703-1.844 4.727-1.836 4.695-1.305 4.691-1.34 4.449-.773 4.699-.801 4.449-.504 4.152-.539-3.063-2.097-3.602-1.856-3.883-1.562-3.852-1.317-4.445-.801-4.441-.539h-4.414l-4.73.278-4.977.523-4.98.781-4.973 1.075-5.266 1.562-5.293 1.856-5.254 2.097-5.261 2.383-4.977 2.617-1.66 3.141-1.129 2.914-.531 2.879v2.644l.277 2.379.543 2.078.84 1.852.531 1.324.289.277v.243l-.547-.52-.836-1.062-1.386-1.844-1.371-2.348-1.129-2.906-.532-1.578-.285-1.574-.277-1.844-.289-1.574-1.371.773-1.403 1.063-1.382 3.156-.817 2.883-.281 2.914.281 2.617.285 2.375.817 2.105.84 1.575.82 1.343.277.5h-.277l-.289-.265-1.094-1.035-1.379-1.856-1.41-2.105-1.656-2.875-.531-1.344-.567-1.574-.273-1.844-.289-1.574-1.371 1.043-1.11 1.07-1.402 2.879-.817 3.183-.273 2.618.273 2.64.286 2.375.82 1.844.836 1.836.82 1.32v.524-.262h-.289l-1.094-1.063-1.093-1.582-1.407-2.113-1.382-2.617-1.372-2.902-.562-3.157-1.387 1.313-1.093 1.066-1.129 3.157-.274 2.636v2.617l.274 2.383.289 1.836.84 1.844.531 1.297.851 1.078.278.504h-.278l-.289-.262-.84-.781-1.093-1.301-1.383-1.84-1.379-2.375-.84-2.656-.82-2.883v-1.062l-.274-.774v-5.015l.274-4.739.258-5.257.289-5.516.84-5.801 1.093-5.789 1.379-6.062 1.656-6.297 2.227-5.532 2.496-5.519 3.047-5.262 3.316-5.019 1.688-2.352 1.906-2.101 2.227-2.118 2.222-2.113 2.223-1.844 2.223-1.836 2.191-1.578 2.5-1.308 4.992-2.637 5.246-2.379 5.02-1.574 5.254-1.574 4.976-1.043 4.985-.801 4.722-.539 4.692-.524 4.445-.511 4.703-.27 5.254-.273h17.473l12.754.812 13.289 1.305 13.559 1.574 13.313 2.106 13.016 2.648 9.68 1.844 9.426 2.078 8.605 2.105 8.016 1.852 7.207 1.844 6.109 1.574 5.246 1.324 3.883 1.043-2.223 3.418-1.66 3.176-1.652 3.152-1.098 2.879-1.691 4.219-.242 1.582.531-.774 2.223-2.382 3.313-2.907 4.16-3.418 4.703-3.679 4.727-3.153 2.227-1.574 2.184-1.305 1.941-.8 1.941-.801 3.605-1.574 3.887-1.582 1.656-.262h1.66l.84.523.84.278.543.765.551.801 1.109 2.113.566 2.379.273 2.082v6.055l.559-1.039 1.371-2.641.82-2.113.84-2.344.289-2.918.281-3.14v-1.078l-.281-1.036-.566-.8-.273-1.043-1.387-1.575-1.652-1.578-1.949-1.328-2.207-1.047-2.227-.808h-6.085l-1.66.277-1.684.531-3.031.805-2.48 1.043-1.934.801-1.699 1.304-1.91 1.313-1.684 1.305-3.043 3.437-2.758 3.938-3.883-1.844-4.715-2.356-5.824-2.914-6.652-3.14-7.469-3.153-8.297-3.687-8.863-3.68-9.426-3.695-6.383-2.371-6.355-2.383-6.668-2.098-6.922-2.121-6.637-1.836-6.922-1.843-6.945-1.575-6.918-1.566-6.922-1.313-6.645-1.062-6.656-.781-6.641-.536-6.106-.539h-6.074l-5.824.278-5.547.535-5.254.527-5.828 1.043-6.106 1.309-6.347 1.844-3.36 1.339-3.035 1.036-3.32 1.582-3.32 1.558-3.063 1.613-3.32 2.083-3.043 1.843-3.313 2.371-3.886 3.418-3.872 3.446-3.324 3.914-3.32 3.961-2.781 4.218-2.504 4.489-2.192 4.461-1.66 4.742h-12.496l-7.195.515-8.024.801-8.605 1.035-8.859 1.844-9.426 2.113-9.949 2.645-7.766 2.34-8.024 2.648-7.765 3.145-8.043 3.457-7.477 3.679-7.765 3.922-7.196 4.219-7.211 4.492-6.918 4.715-6.355 4.754-6.391 4.723-5.816 4.722-5.266 4.758-5.254 4.727-4.449 4.742-3.844 4.738-4.171 4.481-3.883 4.992-4.156 5.519-3.887 6.071-4.137 6.3-3.594 6.594-3.882 6.832-3.321 7.367-3.351 7.368-3.321 7.632-2.746 7.645-2.797 7.633-2.222 7.898L61 260.551l-1.656 7.906-1.406 7.633-1.375 7.367-.821 7.372-.839 7.097-.282 6.867-.566 12.621v10.79l.277 9.214.289 6.563.555 4.491v1.306l.289-1.306.277-4.491.821-6.563 1.375-8.953 1.66-10.531 2.5-12.098 1.66-6.57 1.656-6.598 2.227-6.836 2.223-7.097 2.48-7.129 2.773-7.098 2.77-7.105 3.336-7.094 3.32-6.836 3.883-6.867 3.606-6.567 3.886-6.589 3.848-6.297 4.16-6.074zm491.727-84.735l-.816.539-.84.504-.82.539-1.129 1.035-.281.266 15.805 8.434-1.363-3.418-1.414-2.637-1.371-2.106-1.387-1.312-1.371-1.063-1.414-.781-1.371-.262h-1.098l-1.13.262zm0 0" fill="#1f1a17" fill-rule="evenodd"/><path clip-rule="evenodd" d="M652.731 149.493l-9.711-7.098-9.684-6.297-8.598-5.293-.531-2.34-1.41-2.918-1.66-2.617-1.66-2.637-2.223-2.617-2.48-2.383-2.5-2.375-3.043-2.105-2.781-1.848-3.027-1.57-3.32-1.578-3.043-1.313-3.063-1.062-3.32-1.043-3.043-.801-4.449-1.035-4.406-1.078-4.164-.504-3.609-.539v-2.375l-.273-2.106-.84-1.836-.82-1.578-1.129-1.039-1.363-1.074-1.387-.262-1.656-.242h-1.387l-1.656.504-1.688.539-1.383 1.035-1.379 1.336-1.094 1.582-.848 1.836-.84 2.106 13.59 3.156 4.152 1.297 4.43 1.582 5.004 1.844 4.977 2.113 5.539 2.91 4.977 3.148 2.512 1.575 2.48 1.843 2.211 1.836 1.945 2.121 1.938 1.836 1.375 2.118 1.406 2.097 1.094 1.844 1.098 2.113.563 1.844.57 1.836.281 1.043.242.262v.539l.289.273-.531-.812.531.812 2.789 3.68 4.125 2.082 4.742 2.637 4.973 2.656 5.543 2.879 5.816 2.879 5.543 2.918 5.543 2.878 5.543 3.176 1.383.781 1.66 1.063 1.113 1.836 1.109 1.844.551 1.836.289 1.855v3.418l-.289 1.836-.273 1.582-.277 1.836.277 1.305v.539l.563.261.258.278h1.657l1.398-1.078 1.66-1.578 1.66-2.375 1.383-1.844.551-1.574.289-1.567v-1.574l-.289-1.582-.84-1.301-.82-1.336-.84-1.043-1.934-2.113-1.941-2.106-2.191-1.835-2.5-2.118-9.429-7.636zm-171.477-5.262l-2.223 2.922-1.383 2.879-.84 1.574-.531 1.566-.566 1.614-.563 1.843-.273 3.914v3.957l.551 4.219 1.105 3.942.84 1.855.82 1.836.84 1.844 1.098 1.574 4.156 5.523 3.602 4.493 2.504 2.605 1.09 1.074-.523-1.336-1.41-3.418-1.949-5-1.652-6.054-.813-3.414-.281-3.418v-3.145l.563-2.918.531-2.879.848-2.636.805-2.118 1.137-2.113.813-2.105 1.133-2.356 1.66-2.367 1.934-2.649 4.418-5.261 5.008-4.992 4.973-4.723 3.883-3.438 3.043-2.617 1.098-.801-1.098.54-3.883 1.035-5.266 2.371-6.633 2.91-3.344 1.844-3.324 2.078-3.328 2.113-3.027 2.379-3.059 2.375-2.484 2.879zm0 0" fill="#1f1a17" fill-rule="evenodd"/><path clip-rule="evenodd" d="M126.7 498.59v2.742l-.481 2.301-.25.903-.469.94-.468.669-.481.469-.691.69-.731.442-.937.238-.965.469-2.598.229-2.84.23h-1.902V478.84h4.742l2.598.457.965.239.937.457.731.453.691.465.481.695.468.672.469.937.25.903.481 2.511v11.961zm23.937-32.129l-2.355-2.07-2.606-1.602-2.855-1.371-3.305-1.14-3.559-.938-4.043-.668-4.511-.233-4.746-.234H77.844v17.906h.938l.964.469.704.906.468.926.485 1.371.246 1.608.218 1.841v50.93L81.649 536l-.246 1.61-.485 1.371-.468.926-.704.675-.964.469-.938.231v17.672h41.5v-17.672l-1.434-.231-1.171-.469-.938-.675-.73-.926-.473-1.371-.465-1.61-.238-1.839v-6.418l2.844 1.132 3.324.696 3.562.468 3.086.208 4.5-.208 4.028-.468 3.558-.696 3.324-1.132 2.844-1.379 2.606-1.599 2.386-1.848 2.141-2.07 1.637-2.508 1.445-2.535 1.18-2.979.937-2.981.719-3.207.465-3.457.238-3.647.246-3.918-.246-5.056-.238-4.59-.699-4.133-.969-3.668-1.172-3.441-1.422-2.979-1.668-2.77-1.914-2.517zm53.895 65.56l-.239 3.288-.242 2.609-.25 1.879-.711 1.407-.73.929-1.203.72-1.192.477-1.441.234-1.442-.234-1.218-.477-.957-.72-.731-.929-.711-1.407-.476-1.879-.254-2.609v-33.401l.254-2.599.476-2.094.711-1.199.731-.934.957-.707 1.218-.479 1.442-.22 1.441.22 1.192.479 1.203.707.73.934.711 1.199.25 2.094.242 2.599.239 3.297v26.816zm21.191-50.125l-2.422-1.396-2.394-1.441-2.899-1.163-3.351-.691-3.372-.715-3.867-.481-4.324-.233h-9.137l-4.105.233-3.836.481-3.371.715-3.375.691-2.641 1.163-2.664 1.441-2.148 1.396-2.168 1.891-1.684 2.093-1.203 2.371-1.219 2.817-.949 2.815-.492 3.543-.473 3.524v35.32l.473 3.53.492 3.539.949 2.821 1.219 2.812 1.203 2.367 1.684 2.117 2.168 1.657 2.148 1.64 2.664 1.41 2.641.934 3.375.949 3.371.453 3.836.481 4.105.226 4.575.247 4.562-.247 4.324-.226 3.867-.481 3.372-.453 3.351-.949 2.899-.934 2.394-1.41 2.422-1.64 1.91-1.892 1.68-2.12 1.219-2.359 1.203-2.575.699-3.058.742-3.302.238-3.772.25-4.012v-26.817l-.25-4.25-.238-3.527-.742-3.543-.699-2.815-1.203-2.817-1.219-2.367-1.68-2.094-1.91-1.897zm85.203 49.276l.234 3.774.247 3.772.695 3.297.949 3.063.957 2.574 1.422 2.358 1.668 2.129 1.906 1.888 2.117 1.401 2.387 1.41 2.848 1.176 3.094.953 3.328.692 3.566.468 4.031.246h9.735l4.992-.472 4.516-.724 3.785-1.164 3.809-1.176 3.563-1.647 3.336-2.121 3.086-2.129v-25.399h-25.902v11.293l-.246 1.649-.449 1.405-.727 1.16-.73.724-.938.476-1.421.45h-2.606l-1.203-.45-.941-.714-.938-.93-.484-1.406-.485-1.883-.234-2.841-.246-3.305v-26.82l.246-3.522.234-2.606.485-2.094.484-1.445.938-.926.941-.715 1.203-.457h2.606l1.183.457.961.481.945.715.727 1.164.449 1.172.246 1.879v9.652h25.902v-23.313l-3.574-2.32-3.566-1.894-3.785-1.883-3.57-1.41-4.055-.957-4.27-.93-4.75-.481h-9.015l-4.047.246-3.551.708-3.328.699-3.074.949-2.852 1.176-2.391 1.401-2.125 1.649-1.906 1.652-1.66 2.125-1.422 2.578-1.203 2.594-.949 3.062-.695 3.06-.247 3.534-.234 3.767v27.056zm103.867-39.164l.449-.229.707-.239.691-.21v-14.375h-35.023v15.054h.918l.723.481.707.479.449.938.477.929.23 1.196.242 1.644v40.478l-.242 1.647-.23 1.426-.477.931-.449.929-.707.481-.723.479h-.918v15.071h35.023v-14.371l-.922-.219-.707-.25-.461-.474-.23-.719-.477-1.859-.234-2.358.234-1.168.23-.961.938-1.41 1.629-2.129 9.348-11.767v17.669l-.234 1.655v1.399l-.457.929-.234.719-.477.474-.691.25-.949.219v14.371h35.059v-15.071h-.957l-.684-.479-.715-.481-.477-.929-.441-.931-.238-1.426-.242-1.647v-40.478l.242-1.644.238-1.196.441-.929.477-.938.715-.479.684-.481h.957v-15.054h-35.059v14.375l.949.21h.691l.477.469.234.25.457 1.414.234 1.879-.234 1.892-.215 1.394-.953 1.664-1.641 1.879-9.336 10.817v-17.41l.234-1.403.23-.957.246-.69.474-.73zm0 0" fill="#ec221c" fill-rule="evenodd"/><path d="M306.364 358.2c-134.055 0-246.02 41.519-272.852 96.886 46.141-36.761 143.031-62.093 255.113-62.093 156.766 0 283.836 49.535 283.836 110.632 0 6.743-1.559 13.332-4.523 19.747 11.23-13.286 17.398-27.637 17.398-42.637 0-67.672-124.902-122.535-278.972-122.535zm0 0" fill="#04aeec"/><path clip-rule="evenodd" d="M244.582 552.899l1.907 1.887 2.117 1.402 2.39 1.409 2.844 1.181 3.094.949 3.328.69 3.566.469 4.032.246h9.734l4.992-.472 4.516-.723 3.785-1.16 3.809-1.181 3.562-1.647 3.336-2.118 3.086-2.132V526.3h-25.898v11.293l-.25 1.649-.45 1.406-.726 1.159-.731.724-.937.476-1.422.449h-2.606l-1.203-.449-.937-.715-.942-.929-.484-1.407-.48-1.882-.239-2.84-.246-3.306V505.11l.246-3.524.239-2.604.48-2.095.484-1.44.942-.931.937-.715 1.203-.457h2.606l1.184.457.964.481.942.715.726 1.164.45 1.171.25 1.879v9.657h25.898v-23.313l-3.574-2.323-3.567-1.896-3.785-1.882-3.57-1.411-4.055-.953-4.265-.933-4.754-.481h-9.016l-4.047.246-3.547.707-3.332.7-3.074.949-2.852 1.176-2.39 1.402-2.125 1.647-1.906 1.653-1.661 2.125-1.421 2.582-1.204 2.59-.949 3.062-.691 3.06-.25 3.535-.235 3.765v27.055l.235 3.774.25 3.773.691 3.297.949 3.062.957 2.575 1.422 2.359 1.668 2.129zm0 0" fill="#ec221c" fill-rule="evenodd"/><path d="M535.16 477.069v15.964c-1.804.642-2.826 1.539-3.07 2.692-.242 1.154-.328 2.501-.261 4.039v35.679c0 2.244.141 4.168.417 5.77.277 1.604 1.249 2.918 2.914 3.943v14.425h-34.449v-14.329c1.11-.255 1.891-.913 2.342-1.972.451-1.058.712-2.195.78-3.413.069-.513.104-1.01.104-1.491v-11.3c-.276.064-.572.13-.884.192-.313.064-.607.13-.885.192a15.334 15.334 0 00-4.944 1.972c-1.491.93-2.237 2.645-2.237 5.145v7.693a262.541 262.541 0 01-.208 9.137 90.954 90.954 0 01-.521 4.52c-.208 1.476-.521 2.692-.937 3.654h-30.286v-14.329c1.526-.704 2.445-1.698 2.758-2.981.313-1.281.469-2.628.469-4.039v-6.539c0-3.013.676-5.722 2.029-8.126 1.353-2.404 4.493-3.991 9.419-4.761-3.677-1.153-6.781-3.029-9.315-5.625-2.531-2.597-3.799-7.293-3.799-14.089 0-6.539 1.701-11.331 5.1-14.377 3.4-3.045 7.147-5.081 11.24-6.106 2.568-.641 5.014-1.042 7.338-1.202 2.325-.16 4.285-.272 5.88-.337h41.006v-.001zm-31.223 17.503c-3.677 0-6.261.433-7.753 1.298-1.491.865-2.446 3.19-2.862 6.972-.276 3.271.296 5.434 1.717 6.492 1.423 1.058 3.036 1.651 4.84 1.778.557.064 1.093.097 1.613.097h1.978c.174 0 .33-.032.468-.097v-16.637.097h-.001z" fill="#ec221c"/></svg>