<svg xmlns="http://www.w3.org/2000/svg" xmlns:xlink="http://www.w3.org/1999/xlink" width="237.191" height="256.367" overflow="visible"><switch><g><defs><path id="a" d="M0 256.367h237.191V0H0v256.367z"/></defs><clipPath id="b"><use xlink:href="#a"/></clipPath><path clip-path="url(#b)" fill="#FFF" d="M78.727 169.582l1.572 1.223c2.082 1.664 9.23 3.934 14.451 5.59 4.627 1.469 8.994 2.852 12.113 4.305 4.35 2.027 8.117 5.969 10.801 9.383 2.684-3.414 6.449-7.355 10.805-9.383 3.113-1.453 7.484-2.836 12.109-4.305 5.219-1.656 12.363-3.926 14.449-5.59l1.57-1.223c4.828-3.676 12.773-9.727 12.773-20.887 0-.449-.016-.918-.039-1.391-.582-9.996-2.18-16.65-3.461-21.992-.734-3.074-1.375-5.725-1.648-8.336-.148-1.359-.52-3.268-.922-5.293-.824-4.295-1.773-9.154-1.773-13.785 0-3.971.695-7.768 2.75-10.898 1.75-2.674 4.383-6.543 6.809-9.537-3.09-3.389-7.316-8.016-10.699-11.719-.766.609-1.57 1.143-2.34 1.477l-.348.148c-2.313 1.012-7.742 3.383-13.258 2.508-2.039-.32-4.469-1.008-7.035-1.734-3.395-.967-7.242-2.061-9.918-2.176a236.662 236.662 0 00-8.891-.229h-1.869c-.035 0-3.703.006-8.887.229-2.676.115-6.529 1.209-9.926 2.178-2.566.725-4.988 1.412-7.031 1.732-5.518.875-10.943-1.5-13.26-2.51l-.346-.146c-.771-.33-1.572-.867-2.342-1.477-3.379 3.703-7.602 8.33-10.697 11.719 2.426 2.994 5.063 6.863 6.814 9.537 2.049 3.131 2.742 6.928 2.742 10.898 0 4.631-.943 9.484-1.775 13.781-.393 2.023-.762 3.934-.906 5.293-.281 2.615-.92 5.266-1.658 8.34-1.279 5.342-2.879 11.996-3.457 21.988-.025.477-.043.945-.043 1.395.001 11.16 7.948 17.215 12.771 20.887"/><path clip-path="url(#b)" fill="#5279A9" d="M106.445 215.629l-1.67-.211a100.84 100.84 0 01-4.74-.711c.537-6.313-4.623-21.398-18.016-22.742 0 0-.111 12.414 8.457 20.602a99.918 99.918 0 01-10.018-3.336c2.201-4.949-.254-22.836-14.354-26.23 0 0-1.967 13.465 6.678 22.848a100.92 100.92 0 01-15.586-9.492c3.457-4.258 5.943-21.992-6.607-29.109 0 0-5.645 12.473.174 23.918A98.172 98.172 0 0140.687 180.9c-.221-.266-.436-.531-.656-.801 4.117-1.793 11.061-20.645-.93-30.348 0 0-8.104 12.125-3.338 24.797a95.386 95.386 0 01-7.773-13.012c4.963-3.219 13.451-17.914 5.027-29.068 0 0-8.523 7.744-9.324 18.904a94.207 94.207 0 01-4.152-15.984c5.668-1.723 17.873-13.471 12.896-26.516 0 0-10.123 4.961-14.092 15.242a86.893 86.893 0 01-.09-4.055c0-2.213.082-4.418.234-6.609 5.436-.297 20.236-10.551 16.914-24.637 0 0-9.582 3.201-15.102 11.73a92.985 92.985 0 013.697-12.777c4.049 1.713 22.379-7.082 20.451-22.486 0 0-6.801 1.486-12.773 6.51a95.463 95.463 0 013.07-4.771c5.178.025 20.51-10.447 17.027-24.764 0 0-16.057 5.486-18.426 20.893l-.063.084a99.33 99.33 0 00-5.117 7.875c1.09-6.402.107-14.17-6.264-19.365 0 0-10.477 15.555-.787 29.889.393.578.906.729 1.49.514a97.896 97.896 0 00-3.602 9.916c-.824-5.18-3.357-10.367-8.797-13.57 0 0-8.006 16.957 3.742 29.664.498.539 1.066.58 1.639.229a97.355 97.355 0 00-.686 9.889c-2.264-5.754-6.758-11.43-14.326-12.842 0 0-1.77 18.666 13.594 26.627.572.297 1.059.213 1.455-.156a97.198 97.198 0 002.682 13.582c-3.9-5.164-10.197-9.746-18.311-8.688 0 0 4.09 18.305 21.162 21.117.574.094.994-.09 1.262-.484a97.165 97.165 0 004.92 10.102c-5.016-3.133-11.549-4.883-18.205-1.965 0 0 9.066 16.426 26.24 14.332.049-.012.092-.023.137-.031a104.369 104.369 0 002.602 3.207 100.238 100.238 0 003.623 4.043c-4.936-1.742-10.691-2-16.102 1.223 0 0 11.041 15.16 27.824 10.941.514-.129.818-.414.938-.813a106.148 106.148 0 008.67 5.895c-5.684-.746-12.064.336-16.854 5.438 0 0 14.787 11.535 29.758 2.863.574-.332.766-.805.643-1.363a103.393 103.393 0 008.52 3.184c-6.746.266-14.754 3.031-18.408 10.973 0 0 17.678 6.262 29.133-6.703.402-.449.461-.918.252-1.355.01 0 .023.008.029.008 2.697.555 5.457 1.012 8.213 1.355l.357.043c-2.266 1.75-6.949 5.285-11.129 8.078l7.213 3.852 11.066-11.066-5.688-1.898.273-2.143m109.59-57.719c17.07-2.813 21.156-21.117 21.156-21.117-8.109-1.059-14.41 3.531-18.313 8.688a96.496 96.496 0 002.688-13.582c.395.369.883.453 1.453.156 15.363-7.961 13.598-26.627 13.598-26.627-7.566 1.412-12.066 7.088-14.332 12.842a98.988 98.988 0 00-.68-9.889c.574.352 1.137.311 1.633-.229 11.75-12.707 3.75-29.664 3.75-29.664-5.449 3.203-7.977 8.391-8.805 13.57a95.783 95.783 0 00-3.605-9.916c.59.215 1.105.064 1.496-.514 9.695-14.334-.785-29.889-.785-29.889-6.371 5.195-7.355 12.963-6.27 19.365a100.364 100.364 0 00-5.109-7.875l-.066-.084c-2.371-15.406-18.426-20.893-18.426-20.893-3.477 14.316 11.844 24.789 17.023 24.764a87.389 87.389 0 013.07 4.771c-5.969-5.023-12.766-6.51-12.766-6.51-1.938 15.404 16.398 24.199 20.445 22.486a91.908 91.908 0 013.695 12.777c-5.52-8.529-15.094-11.73-15.094-11.73-3.32 14.086 11.477 24.34 16.906 24.637a90.755 90.755 0 01.144 10.658c-3.973-10.275-14.082-15.236-14.082-15.236-4.984 13.045 7.227 24.793 12.891 26.516a93.554 93.554 0 01-4.152 15.984c-.797-11.164-9.316-18.904-9.316-18.904-8.43 11.154.059 25.85 5.02 29.068a95.413 95.413 0 01-7.777 13.012c4.766-12.672-3.336-24.797-3.336-24.797-11.988 9.703-5.043 28.555-.93 30.348-.219.27-.43.535-.656.801a97.365 97.365 0 01-10.074 10.266c5.816-11.445.184-23.918.184-23.918-12.563 7.117-10.078 24.852-6.617 29.109a101.014 101.014 0 01-15.586 9.492c8.648-9.383 6.68-22.848 6.68-22.848-14.098 3.395-16.559 21.281-14.352 26.23a100.606 100.606 0 01-10.023 3.336c8.563-8.188 8.461-20.602 8.461-20.602-13.398 1.344-18.555 16.43-18.016 22.742-1.574.27-3.156.516-4.742.711l-1.672.211.273 2.137-5.688 1.898 11.066 11.066 7.215-3.852c-4.18-2.793-8.867-6.328-11.133-8.078l.359-.043c2.754-.344 5.516-.801 8.211-1.355.008 0 .023-.008.031-.008-.211.438-.148.906.25 1.355 11.453 12.965 29.129 6.703 29.129 6.703-3.645-7.941-11.652-10.707-18.402-10.973 2.891-.938 5.734-2 8.523-3.184-.129.559.063 1.031.637 1.363 14.969 8.672 29.754-2.863 29.754-2.863-4.781-5.102-11.164-6.184-16.848-5.438a106.205 106.205 0 008.668-5.895c.117.398.422.684.938.813 16.781 4.219 27.824-10.941 27.824-10.941-5.41-3.223-11.16-2.965-16.098-1.223a95.731 95.731 0 003.617-4.043 96.147 96.147 0 002.602-3.207c.047.008.086.02.145.031 17.168 2.094 26.238-14.332 26.238-14.332-6.664-2.918-13.191-1.168-18.203 1.965a99.388 99.388 0 004.914-10.102c.267.4.689.584 1.267.49"/><path clip-path="url(#b)" fill="#F20017" d="M126.152 9.93l.234-.016s.906-.059 1.031-.111c0 0 7.375-5.947 8.41-6.846V.203l-1.344-.098-.104-.005-.07.072s-8.094 8.281-8.156 8.432V9.93m58.523 223.988l-3.551-8.98-3.461 1.367 3.738 9.461c.531 1.355.867 2.348 1 2.973.117.617.02 1.234-.328 1.836-.344.59-1.008 1.086-1.992 1.48-.977.383-1.828.465-2.555.27a2.977 2.977 0 01-1.727-1.266c-.258-.402-.68-1.34-1.258-2.805l-3.66-9.273-3.461 1.375 3.605 9.117c.75 1.918 1.438 3.32 2.055 4.215.406.59.984 1.098 1.719 1.508.73.406 1.594.629 2.59.676 1 .039 2.316-.266 3.957-.914 1.359-.539 2.398-1.141 3.109-1.828.699-.68 1.195-1.406 1.465-2.191.273-.777.34-1.637.191-2.559-.147-.915-.628-2.407-1.436-4.462M126.426 5.666s.961-.227 1.07-.283c0 0 3.57-3.742 3.633-3.873l.133-1.418h-2.133c-.461.654-3.043 4.283-3.078 4.424l.133 1.207.242-.057m-16.979-.283c.105.057 1.063.283 1.063.283l.246.057.133-1.207c-.037-.141-2.615-3.77-3.082-4.424h-2.131l.135 1.418c.056.131 3.636 3.873 3.636 3.873m3.59 42.691h10.303V24.283h12.266V13.984H123.34V0h-10.303v13.984H100.77v10.299h12.268v23.791m-2.489-38.16l.24.016V8.604c-.064-.15-8.156-8.432-8.156-8.432L102.557.1l-.1.006-1.35.098v2.754c1.039.898 8.414 6.846 8.414 6.846.124.051 1.028.11 1.028.11m24.119-3.117s-4.359 2.795-4.441 2.891l-.504 1.123.234.072s.926.289 1.086.279l4.785-2.17V6.867c-.379-.039-1.066-.096-1.16-.07m47.07 124.146a64.455 64.455 0 00-3.062-40.531l-2.336 1.334c3.004 7.285 4.695 15.242 4.695 23.59 0 5.041-.656 9.918-1.797 14.607l2.5 1m-80.631-92.992l1.35.092.1.01.076-.078s8.092-8.275 8.156-8.428v-1.324l-.24.016s-.904.063-1.027.109c0 0-7.375 5.949-8.414 6.85v2.753m5.605-9.484l.504-1.125-.238-.076s-.928-.285-1.082-.277l-4.789 2.172v2.129c.379.029 1.066.092 1.168.064-.001 0 4.351-2.791 4.437-2.887m92.142 86.869c0 40.441-30.242 74.535-70.359 79.363a1.084 1.084 0 01-.242.223s-.332 2.02-.43 2.629a82.479 82.479 0 0073.813-82.215c0-37.471-26.031-70.805-62.191-80.109v2.871c35.066 9.32 59.409 40.783 59.409 77.238m-88.345-82.85s-.957.223-1.063.283c0 0-3.58 3.736-3.637 3.871l-.135 1.42h2.131c.467-.656 3.045-4.283 3.082-4.422l-.133-1.211-.245.059m18.619 5.575h2.133l-.133-1.42c-.063-.135-3.633-3.871-3.633-3.871-.109-.061-1.07-.283-1.07-.283l-.242-.059-.133 1.211c.035.138 2.617 3.765 3.078 4.422M91.061 58.643c1.193-.295 2.555-.674 3.912-1.061 1.295-.367 2.648-.754 4.021-1.105a61.833 61.833 0 0119.891-3.289 61.84 61.84 0 0125.291 5.4c.777.201 1.496.365 2.066.453.121.025.254.02.379.025l.75-1.873a64.352 64.352 0 00-28.486-6.639 64.274 64.274 0 00-28.391 6.584l.567 1.505m44.767-27.354V29.16l-4.785-2.172c-.16-.008-1.086.277-1.086.277l-.234.076.504 1.125c.082.096 4.441 2.887 4.441 2.887.094.028.781-.035 1.16-.064m-9.441-3.051l-.234-.016v1.324c.063.152 8.156 8.428 8.156 8.428l.07.078.105-.01 1.344-.092v-2.754c-1.035-.9-8.41-6.85-8.41-6.85-.125-.045-1.031-.108-1.031-.108M106.906 197.18c-.084-.598-.361-2.523-.406-2.84-38.547-6.023-67.586-39.941-67.586-79.004 0-35.578 23.576-66.816 57.58-76.742v-2.895c-35.652 10.012-60.365 42.422-60.365 79.637 0 40.855 30.4 75.961 70.777 81.844m17.559 48.996l.063 3.117 4.281-.098.055 2.332c-.551.453-1.219.836-1.996 1.16s-1.559.496-2.34.512c-1.582.035-2.867-.484-3.867-1.555s-1.523-2.695-1.574-4.891c-.051-2.027.398-3.57 1.34-4.625.938-1.047 2.227-1.594 3.859-1.633 1.07-.023 1.984.211 2.711.719.734.504 1.242 1.203 1.52 2.094l3.684-.77c-.406-1.68-1.27-2.98-2.578-3.906-1.32-.922-3.121-1.363-5.418-1.309-1.77.047-3.238.383-4.41 1.023-1.539.828-2.693 2-3.465 3.508-.779 1.508-1.139 3.219-1.098 5.141.043 1.762.441 3.391 1.197 4.875.76 1.484 1.865 2.625 3.322 3.398s3.156 1.137 5.086 1.094c1.523-.027 3.02-.352 4.488-.961 1.477-.605 2.594-1.293 3.359-2.063l-.168-7.352-8.051.19m71.609-29.449l9.906 15.453 3.145-2.012-9.918-15.453-3.133 2.012m-125.91 12.488l-12.65 15.098 3.785 1.277 2.777-3.461 6.99 2.367.164 4.461 3.846 1.301-1.104-19.754-3.808-1.289m-4.014 10.328l4.521-5.641.244 7.25-4.765-1.609m29.83-3.18c-.814-.484-2.195-.922-4.133-1.297l-7.707-1.488-3.479 18.023 3.658.703 1.453-7.52.74.148c.85.156 1.451.34 1.816.555.363.211.684.527.961.961.279.43.756 1.438 1.426 3.012l1.877 4.441 4.385.844-1.539-3.941c-.6-1.57-1.109-2.676-1.518-3.324-.406-.656-.963-1.281-1.662-1.891 1.629.082 2.93-.25 3.896-.98.971-.723 1.584-1.766 1.846-3.113.203-1.07.123-2.066-.242-3-.365-.926-.961-1.641-1.778-2.133M94.168 241c-.1.543-.314.965-.635 1.277-.313.313-.705.5-1.172.566-.461.063-1.572-.078-3.328-.414l-2.705-.527.879-4.563 2.855.551c1.484.293 2.369.48 2.654.578.58.215.992.539 1.244.973.257.438.323.954.208 1.559m15.676 6.605c-.123 1.445-.264 2.48-.428 3.098-.16.613-.529 1.113-1.104 1.496s-1.389.531-2.447.445c-1.039-.09-1.84-.391-2.402-.895a2.976 2.976 0 01-.986-1.906c-.051-.477-.012-1.496.123-3.074l.85-9.922-3.715-.32-.832 9.773c-.174 2.055-.188 3.609-.031 4.68.105.727.395 1.43.869 2.125.471.688 1.146 1.277 2.02 1.758.873.477 2.189.793 3.951.938 1.457.129 2.652.047 3.588-.25.936-.289 1.701-.727 2.295-1.305.594-.582 1.029-1.313 1.309-2.203.275-.895.514-2.438.699-4.641l.82-9.621-3.713-.316-.866 10.14m49.609-14.98l-2.426 8.043-5.906-6.047-4.289 1.031 9.066 8.758 1.805 7.516 3.621-.867-1.797-7.496 4.102-11.941-4.176 1.003m32.606-13.457l5.801 10.836-12.504-7.242-3.195 1.711 8.68 16.184 3.047-1.637-5.672-10.586 12.27 7.051 3.293-1.77-8.672-16.18-3.048 1.633m-43.282 26.461c-.703-.695-1.633-1.133-2.797-1.305a4.42 4.42 0 001.676-1.852 4.25 4.25 0 00.387-2.441 4.094 4.094 0 00-.848-2.047 4.673 4.673 0 00-1.605-1.34 4.824 4.824 0 00-2.016-.492c-.73-.023-1.816.059-3.27.25l-7.324.977 2.422 18.195 6.23-.828c2.359-.328 3.84-.566 4.449-.719.965-.234 1.75-.633 2.359-1.188a4.838 4.838 0 001.336-2.094 5.364 5.364 0 00.266-2.492c-.14-1.054-.562-1.925-1.265-2.624m-11.707-5.703l2.129-.281c1.742-.234 2.797-.352 3.172-.359.625-.008 1.117.141 1.477.449s.578.742.652 1.301c.074.586-.043 1.078-.355 1.484-.32.406-.781.699-1.41.852-.34.09-1.234.227-2.676.422l-2.426.316-.563-4.184m8.809 10.265c-.297.43-.711.734-1.246.898-.348.125-1.191.273-2.523.453l-3.434.445-.641-4.836 2.992-.398c1.68-.223 2.789-.281 3.313-.18.531.105.953.332 1.27.676s.512.789.582 1.332c.085.646-.016 1.181-.313 1.61M12.09 208.387c.867-.789 1.428-1.625 1.682-2.516.26-.891.27-1.813.023-2.766-.242-.949-.816-2.25-1.713-3.875-.898-1.633-1.357-2.758-1.379-3.367-.02-.477.133-.871.457-1.164.359-.316.77-.43 1.25-.324.736.16 1.475.637 2.199 1.438.703.781 1.076 1.5 1.117 2.168.047.672-.23 1.379-.824 2.133l2.594 2.68c1.217-1.184 1.814-2.555 1.785-4.102-.031-1.551-.82-3.184-2.379-4.906-.947-1.051-1.918-1.809-2.906-2.266-.992-.461-1.965-.609-2.926-.461-.969.156-1.797.539-2.494 1.168-1.08.98-1.617 2.23-1.607 3.75.004 1.082.496 2.531 1.469 4.344.754 1.41 1.221 2.328 1.404 2.754.26.625.361 1.137.309 1.531-.055.391-.248.734-.568 1.027-.498.449-1.141.621-1.922.508-.783-.113-1.58-.617-2.387-1.508-.758-.836-1.15-1.699-1.178-2.574-.025-.875.336-1.797 1.086-2.77l-2.701-2.473c-1.361 1.559-2.025 3.16-1.98 4.82.041 1.641.844 3.332 2.412 5.07 1.072 1.188 2.141 2.031 3.195 2.531 1.055.496 2.115.656 3.197.477a5.392 5.392 0 002.785-1.327m32.043 8.437l-9.609 8.688 4.031-12.313-4.703-3.063-10.004 15.391 2.9 1.891 7.891-12.109-4.822 14.105 3.023 1.957 10.945-10.117-7.869 12.121 2.904 1.887 10.002-15.391-4.689-3.047m-18.174-13.523l-17.393 9.258 3.031 2.605L15.473 213l5.596 4.809-1.523 4.195 3.078 2.656 6.383-18.73-3.048-2.629m-3.779 11.351l-3.811-3.281 6.301-3.531-2.49 6.812M58.705 91.438a64.284 64.284 0 00-4.6 23.898c0 3.9.387 7.701 1.055 11.41l2.496-.936a61.52 61.52 0 01-.916-10.475 61.676 61.676 0 014.256-22.523l-2.291-1.374m154.416 115.691c-2.32-.336-4.559.328-6.719 1.992-1.191.918-2.094 1.922-2.711 3.008-.469.816-.758 1.742-.875 2.781a8.353 8.353 0 00.18 3.051c.328 1.348 1.07 2.77 2.215 4.258 1.793 2.316 3.84 3.645 6.145 3.977s4.539-.348 6.723-2.023c2.148-1.66 3.355-3.645 3.613-5.973.266-2.32-.516-4.656-2.336-7.008-1.829-2.376-3.907-3.735-6.235-4.063m4.938 11.035c-.105 1.426-.742 2.59-1.922 3.504-1.176.906-2.477 1.234-3.906.965-1.414-.262-2.766-1.219-4.039-2.875-1.297-1.676-1.898-3.223-1.797-4.629s.762-2.586 1.984-3.523c1.211-.941 2.516-1.277 3.875-1.027 1.375.254 2.703 1.223 3.992 2.898 1.313 1.687 1.914 3.253 1.813 4.687m18.953-11.887l-13.082-12.871-2.422 2.465 8.75 8.617-14.09-3.195-2.539 2.578 13.078 12.875 2.434-2.469-8.559-8.422 13.805 3.086 2.625-2.664M61.109 235.895c1.285-2.711 1.553-5.172.797-7.391-.752-2.227-2.354-3.922-4.818-5.094-1.359-.641-2.666-1-3.91-1.055-.941-.047-1.896.113-2.875.473a8.682 8.682 0 00-2.637 1.539c-1.055.918-1.988 2.207-2.791 3.902-1.258 2.648-1.516 5.074-.768 7.281.746 2.203 2.365 3.902 4.844 5.086 2.455 1.164 4.773 1.336 6.963.516 2.186-.816 3.918-2.574 5.195-5.257m-3.445-1.735c-.92 1.93-2.039 3.172-3.359 3.73-1.32.551-2.652.52-3.996-.129-1.342-.633-2.221-1.648-2.629-3.039-.41-1.383-.168-3.023.732-4.906.908-1.918 2.018-3.148 3.32-3.695 1.301-.543 2.646-.492 4.035.172 1.387.66 2.281 1.66 2.67 3 .393 1.336.133 2.961-.773 4.867m49.315-223.277l.238-.072-.504-1.123c-.086-.096-4.438-2.891-4.438-2.891-.102-.025-.789.031-1.168.07v2.125l4.789 2.17c.155.01 1.083-.279 1.083-.279"/><path clip-path="url(#b)" fill="#0D3692" d="M124.41 209.801c-1.746 0-3.344.484-4.602 1.293l-1.729.273-1.73-.273c-1.258-.809-2.859-1.293-4.602-1.293-4.035 0-7.314 2.59-7.314 5.773s3.279 5.773 7.314 5.773a8.67 8.67 0 003.246-.613l-.725 2.777-5.043 6.25 5.549-2.883 2.014 3.852 1.291-3.078 1.287 3.078 2.012-3.852 5.555 2.883-5.047-6.25-.719-2.777c.977.395 2.07.613 3.242.613 4.031 0 7.313-2.59 7.313-5.773s-3.281-5.773-7.312-5.773m-12.662 8.172c-2.049 0-3.779-1.102-3.779-2.398 0-1.305 1.73-2.414 3.779-2.414 2.051 0 3.779 1.109 3.779 2.414 0 1.296-1.728 2.398-3.779 2.398m12.662 0c-2.055 0-3.781-1.102-3.781-2.398 0-1.305 1.727-2.414 3.781-2.414 2.051 0 3.781 1.109 3.781 2.414 0 1.296-1.73 2.398-3.781 2.398m55.336-142.369l-19.074-20.912-1.949 2.268c-1.258 1.461-2.906 3.018-3.477 3.266l-.391.174c-1.73.756-5.77 2.521-9.141 1.984-1.609-.25-3.828-.883-6.18-1.551-3.797-1.074-8.102-2.299-11.648-2.449-5.375-.232-9.082-.238-9.236-.238h-1.865c-.16 0-3.867.006-9.234.238-3.555.15-7.859 1.375-11.656 2.453-2.35.666-4.57 1.297-6.176 1.547-3.377.537-7.412-1.229-9.137-1.984l-.396-.174c-.568-.248-2.225-1.805-3.473-3.264l-1.951-2.27-2.012 2.211L53.58 77.91s2.52 1.631 2.633 1.707c.672.496 3.766 4.059 8.561 11.377 1.119 1.703 1.518 4.111 1.518 6.799 0 4.012-.895 8.633-1.627 12.418-.428 2.188-.83 4.26-1.01 5.938-.227 2.135-.816 4.578-1.49 7.398-1.285 5.346-3.045 12.67-3.662 23.348a30.234 30.234 0 00-.053 1.863c0 14.84 10.555 22.879 15.73 26.824l1.439 1.109c3.166 2.543 9.83 4.656 16.883 6.891 4.398 1.398 8.551 2.711 11.238 3.969 6.152 2.875 11.621 12.375 11.676 12.469l2.299 4.031 2.297-4.031c.059-.094 5.527-9.594 11.68-12.469 2.688-1.258 6.84-2.57 11.238-3.969 7.051-2.234 13.715-4.348 16.879-6.883.008-.008 1.445-1.117 1.445-1.117 5.172-3.945 15.734-11.988 15.734-26.824 0-.609-.023-1.23-.055-1.863-.621-10.678-2.383-18.002-3.66-23.348-.684-2.82-1.27-5.264-1.496-7.398-.18-1.678-.586-3.746-1.004-5.928-.738-3.795-1.629-8.416-1.629-12.428 0-2.688.398-5.096 1.516-6.799 4.797-7.318 7.883-10.881 8.563-11.381.109-.074 2.547-1.658 2.547-1.658l-2.024-2.351M166.23 88.09c-1.781 2.725-2.391 6.125-2.391 9.738 0 4.441.922 9.203 1.738 13.393.398 2.08.781 4.037.934 5.49.27 2.48.891 5.072 1.617 8.072 1.305 5.438 2.922 12.213 3.52 22.416.027.535.043 1.063.043 1.574 0 12.199-8.484 18.672-13.648 22.613l-1.539 1.184c-2.398 1.91-9.18 4.07-15.172 5.973-4.57 1.445-8.883 2.813-11.875 4.215-4.961 2.309-9.25 7.535-11.742 11.09-2.496-3.555-6.777-8.781-11.736-11.09-2.998-1.402-7.311-2.77-11.877-4.215-5.992-1.902-12.775-4.063-15.174-5.977l-1.543-1.18c-5.152-3.941-13.643-10.414-13.643-22.609 0-.516.014-1.039.045-1.578.59-10.203 2.217-16.979 3.523-22.416.717-3 1.34-5.592 1.604-8.076.156-1.449.539-3.412.943-5.49.813-4.189 1.736-8.947 1.736-13.389 0-3.613-.613-7.014-2.393-9.734-.951-1.451-4.908-7.41-7.895-10.805l13.428-14.715c1.043 1.012 2.279 2.053 3.367 2.518l.361.154c2.146.943 7.178 3.137 12.08 2.363 1.92-.303 4.289-.971 6.797-1.684 3.516-.996 7.508-2.133 10.438-2.256 5.252-.232 8.965-.236 9.008-.236h1.865c.035 0 3.752.004 9.006.236 2.926.123 6.918 1.26 10.434 2.256 2.508.713 4.875 1.381 6.797 1.684 4.902.773 9.934-1.418 12.078-2.363l.367-.154c1.082-.465 2.324-1.506 3.367-2.518 2.68 2.941 10.992 12.055 13.426 14.715-2.983 3.395-6.944 9.354-7.894 10.801"/><path clip-path="url(#b)" fill="#FFF" d="M166.23 88.09c-1.781 2.725-2.391 6.125-2.391 9.738 0 4.441.922 9.203 1.738 13.393.398 2.08.781 4.037.934 5.49.27 2.48.891 5.072 1.617 8.072 1.305 5.438 2.922 12.213 3.52 22.416.027.535.043 1.063.043 1.574 0 12.199-8.484 18.672-13.648 22.613l-1.539 1.184c-2.398 1.91-9.18 4.07-15.172 5.973-4.57 1.445-8.883 2.813-11.875 4.215-4.961 2.309-9.25 7.535-11.742 11.09-2.496-3.555-6.777-8.781-11.736-11.09-2.998-1.402-7.311-2.77-11.877-4.215-5.992-1.902-12.775-4.063-15.174-5.977l-1.543-1.18c-5.152-3.941-13.643-10.414-13.643-22.609 0-.516.014-1.039.045-1.578.59-10.203 2.217-16.979 3.523-22.416.717-3 1.34-5.592 1.604-8.076.156-1.449.539-3.412.943-5.49.813-4.189 1.736-8.947 1.736-13.389 0-3.613-.613-7.014-2.393-9.734-.951-1.451-4.908-7.41-7.895-10.805l13.428-14.715c1.043 1.012 2.279 2.053 3.367 2.518l.361.154c2.146.943 7.178 3.137 12.08 2.363 1.92-.303 4.289-.971 6.797-1.684 3.516-.996 7.508-2.133 10.438-2.256 5.252-.232 8.965-.236 9.008-.236h1.865c.035 0 3.752.004 9.006.236 2.926.123 6.918 1.26 10.434 2.256 2.508.713 4.875 1.381 6.797 1.684 4.902.773 9.934-1.418 12.078-2.363l.367-.154c1.082-.465 2.324-1.506 3.367-2.518 2.68 2.941 10.992 12.055 13.426 14.715-2.983 3.395-6.944 9.354-7.894 10.801"/><path clip-path="url(#b)" fill="#0D3692" d="M132.066 102.684h-26.939c-13.793 8.98-29.826 2-29.826 2l-1.938-1.168c-.355 2.793-.885 5.559-1.377 8.111-.4 2.029-.771 3.953-.92 5.311-.277 2.619-.916 5.275-1.654 8.352-1.285 5.359-2.889 12.02-3.465 22.043-.029.473-.043.941-.043 1.398 0 11.18 7.961 17.246 12.795 20.922l1.58 1.227c2.084 1.668 9.246 3.938 14.477 5.598 4.635 1.469 9.016 2.863 12.139 4.32 4.357 2.031 8.131 5.98 10.82 9.395 2.688-3.414 6.469-7.363 10.824-9.395 3.125-1.457 7.504-2.852 12.133-4.32 5.234-1.66 12.398-3.93 14.477-5.598l1.586-1.227c4.836-3.676 12.785-9.742 12.785-20.922 0-.461-.004-.926-.039-1.398-.57-10.023-2.172-16.684-3.461-22.043-.734-3.076-1.375-5.732-1.656-8.348-.141-1.361-.52-3.277-.914-5.305-.441-2.285-.914-4.729-1.262-7.211l-.293.258s-16.04 6.98-29.829-2"/><path clip-path="url(#b)" fill="#AB4800" d="M116.969 100.852h3.055V84.529h-3.055v16.323z"/><path clip-path="url(#b)" fill="#138F34" d="M95.18 102.201l-1.592-1.992-1.592 1.992c-.4 0-1.594-.924-1.594-.924-.27 1.723 1.193 3.184 1.193 3.184h3.984s1.461-1.461 1.195-3.184c.001 0-1.194.924-1.594.924m-5.45-10.627s1.461-1.461 1.201-3.189c0 0-1.201.936-1.596.936l-1.598-1.994-1.592 1.994c-.396 0-1.592-.936-1.592-.936-.268 1.729 1.195 3.189 1.195 3.189h3.982m-6.251 3.727s1.465-1.469 1.199-3.195c0 0-1.199.936-1.598.936l-1.596-1.998-1.592 1.998c-.393 0-1.588-.936-1.588-.936-.27 1.727 1.195 3.195 1.195 3.195h3.98m.144 6.9l-1.598-1.992-1.588 1.992c-.402 0-1.598-.924-1.598-.924-.266 1.723 1.195 3.184 1.195 3.184h3.986s1.463-1.461 1.195-3.184c.002 0-1.194.924-1.592.924m7.309-5.578s-1.201.93-1.596.93l-1.598-1.992-1.592 1.992c-.396 0-1.592-.93-1.592-.93-.268 1.732 1.195 3.189 1.195 3.189h3.98c.001.001 1.462-1.457 1.203-3.189m.664-1.322h3.984s1.461-1.469 1.195-3.195c0 0-1.195.936-1.596.936l-1.592-1.998-1.592 1.998c-.4 0-1.594-.936-1.594-.936-.268 1.726 1.195 3.195 1.195 3.195m9.695-3.727s1.465-1.461 1.195-3.189c0 0-1.195.936-1.594.936L99.3 87.327l-1.596 1.994c-.398 0-1.592-.936-1.592-.936-.27 1.729 1.193 3.189 1.193 3.189h3.986m49.932 0s1.469-1.461 1.203-3.189c0 0-1.203.936-1.594.936l-1.594-1.994-1.594 1.994c-.402 0-1.598-.936-1.598-.936-.27 1.729 1.195 3.189 1.195 3.189h3.982m1.644 3.727h3.98s1.469-1.469 1.195-3.195c0 0-1.195.936-1.586.936l-1.598-1.998-1.598 1.998c-.395 0-1.586-.936-1.586-.936-.268 1.726 1.193 3.195 1.193 3.195m-12.121 0h3.988s1.457-1.469 1.191-3.195c0 0-1.191.936-1.586.936l-1.602-1.998-1.59 1.998c-.402 0-1.598-.936-1.598-.936-.264 1.726 1.197 3.195 1.197 3.195m-1.398-3.727s1.461-1.461 1.203-3.189c0 0-1.203.936-1.602.936l-1.59-1.994-1.594 1.994c-.402 0-1.59-.936-1.59-.936-.27 1.729 1.188 3.189 1.188 3.189h3.985m12.754 5.049s-1.195.93-1.59.93l-1.594-1.992-1.59 1.992c-.402 0-1.598-.93-1.598-.93-.27 1.732 1.195 3.189 1.195 3.189h3.98c.001.001 1.466-1.457 1.197-3.189m-17.731-4.518s-1.199.936-1.594.936l-1.594-1.998-1.594 1.998c-.398 0-1.598-.936-1.598-.936-.266 1.727 1.199 3.195 1.199 3.195h3.98c.002.001 1.463-1.468 1.201-3.195m-6.98 5.448l-1.586-1.992-1.598 1.992c-.398 0-1.594-.93-1.594-.93-.266 1.732 1.195 3.189 1.195 3.189h3.988s1.457-1.457 1.195-3.189c.001 0-1.194.93-1.6.93m13.16-.93s-1.203.93-1.602.93l-1.59-1.992-1.594 1.992c-.402 0-1.59-.93-1.59-.93-.27 1.732 1.188 3.189 1.188 3.189h3.984c.001.001 1.462-1.457 1.204-3.189m15.344 5.578l-1.594-1.992-1.598 1.992c-.395 0-1.59-.93-1.59-.93-.273 1.729 1.195 3.189 1.195 3.189h3.977s1.469-1.461 1.199-3.189c0 0-1.199.93-1.589.93m-11.555 0l-1.602-1.992-1.59 1.992c-.402 0-1.598-.93-1.598-.93-.266 1.729 1.195 3.189 1.195 3.189h3.988s1.457-1.461 1.191-3.189c.002 0-1.19.93-1.584.93M112.455 89.32l-1.6-1.994-1.59 1.994c-.402 0-1.596-.936-1.596-.936-.264 1.729 1.193 3.189 1.193 3.189h3.988s1.459-1.461 1.191-3.189c.002.001-1.189.936-1.586.936m13.35-1.994l-1.598 1.994c-.398 0-1.594-.936-1.594-.936-.266 1.729 1.195 3.189 1.195 3.189h3.988s1.457-1.461 1.195-3.189c0 0-1.195.936-1.602.936l-1.584-1.994m-13.35 10.227l-1.6-1.992-1.59 1.992c-.402 0-1.596-.93-1.596-.93-.264 1.732 1.193 3.189 1.193 3.189h3.988s1.459-1.457 1.191-3.189c.002 0-1.189.93-1.586.93m-4.119-5.448s-1.195.936-1.598.936l-1.592-1.998-1.598 1.998c-.396 0-1.59-.936-1.59-.936-.268 1.727 1.193 3.195 1.193 3.195h3.988c.002.001 1.461-1.468 1.197-3.195m-7.443 5.448l-1.592-1.992-1.596 1.992c-.398 0-1.592-.93-1.592-.93-.27 1.732 1.193 3.189 1.193 3.189h3.984s1.465-1.457 1.195-3.189c.001 0-1.194.93-1.592.93m21.732-14.389s2.379.266 2.379.922l.664-.922s-.133-1.188-.926-1.982l-.793-.797s3.434 0 4.492 1.326l1.449-.398s-1.449-2.25-1.973-2.645l-.535-.395s5.023 1.057 5.547 1.719l.402-.797s-3.039-2.51-4.359-2.77l-1.328-.266s4.367-1.457 5.285-.926v-.926s-4.887-.797-6.602-.264c0 0 .395-1.848 2.246-2.512v-.791s-5.422-.264-8.195 2.508c0 0-.133-4.227-1.188-4.889-1.063-.662-1.453 0-1.453 0s.924 2.904.529 3.703c0 0-1.988-.666-2.91-1.063-.924-.393-1.982-.789-1.982-.789h-.529l-.4.396s1.455 1.316 1.855 1.715c.395.4 1.453 2.252 1.453 2.252s-5.418-2.645-11.234 1.184l.266 1.061s1.85-.529 3.305-.27c1.449.27 1.85.27 1.85.27s-4.758 2.242-5.682 4.891l.924.527s2.113-2.244 4.891-2.775l2.773-.531s-6.211 3.701-6.211 5.154l1.057.527 2.381-1.98-.398 2.912.529.26s2.904-3.039 3.566-3.172c.664-.133 1.455-.133 1.455-.133s0 3.305.529 4.627c.525 1.324.924-.133.924-.133s.529-1.852.793-2.381c.268-.527 2.256-.383 2.646 0 .527.529.66-.131.66-.131v3.041l1.055.139c0 .002 1.195-3.441.793-4.496"/><path clip-path="url(#b)" fill="#FFF" d="M118.275 108.787l3.143 8.248 8.813.443-6.875 5.537 2.313 8.52-7.393-4.824-7.391 4.824 2.307-8.52-6.875-5.537 8.814-.443m31.697 2.305l3.141 8.254 8.824.439-6.883 5.541 2.313 8.516-7.395-4.828-7.387 4.828 2.305-8.516-6.875-5.541 8.816-.439M92.33 121l3.139 8.242 8.816.445-6.875 5.535 2.307 8.523-7.387-4.828-7.391 4.828 2.305-8.523-6.875-5.535 8.816-.445m29.092 30.949l2.594 6.797 7.273.367-5.672 4.57 1.902 7.031-6.098-3.98-6.1 3.98 1.904-7.031-5.676-4.57 7.275-.367m13.594-22.383l1.016 4.395 4.426.844-3.867 2.309.57 4.477-3.398-2.957-4.07 1.922 1.754-4.152-3.09-3.281 4.496.398"/></g></switch></svg>