<svg xmlns="http://www.w3.org/2000/svg" width="36.282" height="31.855"><defs><clipPath clipPathUnits="userSpaceOnUse" id="a"><path d="M58.291 462.701l-.681-.054.008-.006c.014-.006.023-.012.023-.012s.613-.134 1.179-1.006c0 0 .67-1.169 1.809-1.226 0 0-.851-.101-1.728.557-1.652-.757-5.419-3.538-3.311-8.539.02.001.017 0 .04.003-.172 1.203.09 1.949.09 1.949.108-.47.305-.889.435-1.038-1.157 5.297 3.029 6.775 3.029 6.775-3.303-3.204-1.027-8.592-1.027-8.592s.013-.003.025.003c-.069.748.038 1.217.038 1.217l.023-.004c.717-2.676 3.664-4.524 3.664-4.524l.027.024c-3.313 5.044-.892 9.546 2.585 8.724-.002-.026-.002-.007-.002-.047-3.943-.587-5.156-9.364 1.561-10.558-2.417-.329-4.539 1.2-6.496 2.73-1.953 1.525-3.743 3.051-5.498 2.732 3.15-.391 6.535-5.768 10.931-6.101 2.304-.177 2.282.917 1.829 1.093a.753.753 0 01-.157.043c.006.022.01.057.013.109.024.412.041.384-.067 1.414l-.018-.001s-.363-.41-.773-.823c-.044.537-.039.568-.056 1.25-.011.002-.241-.385-.834-.625.019.285.118.939.039 1.018-.016.003-.351-.27-.776-.328.364-.689.905-1.377 1.687-1.883-3.742 2.137-3.24 7.009-1.191 7.258 1.884.227 1.67-2.348 4.3-3.437-1.172.481-1.551.78-2.204 1.448a2.507 2.507 0 00-.388-.952c.683.207.812.28.822.278-.008-.585-.369-1.29-.369-1.29 1.061.285 1.36.655 1.367.655-.23-.587-.315-.778-.315-.778s-.252-.523-.248-.534c.937.095 1.584.642 1.815.99.679-.131 1.197.266 1.271.704.112 1.199-1.108 1.981-.416 2.172.238.067.258-.489.862-.695.219-.073.593.088.471.446-.311.969-1.547 1.573-2.771 2.708-.431.401-.877 2.604-3.532 4.145-1.016.588-2.299 1.122-3.907 1.243-.418.58-1.317 1.365-3.165 1.365h-.013m6.345-3.263l-.008-.051c-5.643.4-5.57-6.691-4.595-8.754l-.023-.02c-3.408 4.778-.818 10.951 4.626 8.825m-1.578-1.218c-.009.029-.003.013-.012.046 3.516 1.225 4.635-2.053 5.198-2.497-.011-.015-.001-.002-.018-.02-.227-.112-.72-.061-1.006.155-.04-.128-.13-.328-.292-.419-.095-.161.028-.503.028-.503s0-.007-.004-.023c-.619 0-.869.925-1.534 1.052.007.064.006.048.008.097.165-.01.31.084.495.177.181.09.4.181.717.178l.129-.59s.23.051.185.223l-.302.367-.017.02.001-.003c-.654.715-1.557 1.677-3.576 1.74m1.187-2.67l.028-.041c-2.525-2.144-1.632-5.981-1.151-6.769l-.022-.023c-1.118.704-2.489 5.789 1.145 6.833m3.019-1.26c.005.009.004.007.007.02 1.398-.502 1.541-2.313 3.208-2.924a1.435 1.435 0 00-.131-.006c-1.561 0-2.776 2.716-3.084 2.91m-.81-.2c1.203-.371 2.097-2.749 3.722-2.895a1.265 1.265 0 00-.378-.057c-1.573 0-3.127 2.79-3.344 2.952"/></clipPath><clipPath clipPathUnits="userSpaceOnUse" id="b"><path d="M-1.136-.534H.157V.678h-1.293V-.534z"/></clipPath><clipPath clipPathUnits="userSpaceOnUse" id="d"><path d="M209.572 410.85c-.512-.461-1-.947-1.461-1.457v-25.542h29.722v25.542c-.462.51-.949.996-1.461 1.457h-26.8z"/></clipPath><radialGradient fx="0" fy="0" cx="0" cy="0" r="1" gradientUnits="userSpaceOnUse" gradientTransform="matrix(14.16496 0 0 -14.16495 69.573 455.14)" spreadMethod="pad" id="c"><stop offset="0" stop-color="#fff"/><stop offset="1" stop-color="#91b7b1"/></radialGradient></defs><g clip-path="url(#a)" transform="matrix(1.25 0 0 -1.25 -260.769 511.909)"><g clip-path="url(#b)"><path d="M58.291 462.701l-.681-.054.008-.006c.014-.006.023-.012.023-.012s.613-.134 1.179-1.006c0 0 .67-1.169 1.809-1.226 0 0-.851-.101-1.728.557-1.652-.757-5.419-3.538-3.311-8.539.02.001.017 0 .04.003-.172 1.203.09 1.949.09 1.949.108-.47.305-.889.435-1.038-1.157 5.297 3.029 6.775 3.029 6.775-3.303-3.204-1.027-8.592-1.027-8.592s.013-.003.025.003c-.069.748.038 1.217.038 1.217l.023-.004c.717-2.676 3.664-4.524 3.664-4.524l.027.024c-3.313 5.044-.892 9.546 2.585 8.724-.002-.026-.002-.007-.002-.047-3.943-.587-5.156-9.364 1.561-10.558-2.417-.329-4.539 1.2-6.496 2.73-1.953 1.525-3.743 3.051-5.498 2.732 3.15-.391 6.535-5.768 10.931-6.101 2.304-.177 2.282.917 1.829 1.093a.753.753 0 01-.157.043c.006.022.01.057.013.109.024.412.041.384-.067 1.414l-.018-.001s-.363-.41-.773-.823c-.044.537-.039.568-.056 1.25-.011.002-.241-.385-.834-.625.019.285.118.939.039 1.018-.016.003-.351-.27-.776-.328.364-.689.905-1.377 1.687-1.883-3.742 2.137-3.24 7.009-1.191 7.258 1.884.227 1.67-2.348 4.3-3.437-1.172.481-1.551.78-2.204 1.448a2.507 2.507 0 00-.388-.952c.683.207.812.28.822.278-.008-.585-.369-1.29-.369-1.29 1.061.285 1.36.655 1.367.655-.23-.587-.315-.778-.315-.778s-.252-.523-.248-.534c.937.095 1.584.642 1.815.99.679-.131 1.197.266 1.271.704.112 1.199-1.108 1.981-.416 2.172.238.067.258-.489.862-.695.219-.073.593.088.471.446-.311.969-1.547 1.573-2.771 2.708-.431.401-.877 2.604-3.532 4.145-1.016.588-2.299 1.122-3.907 1.243-.418.58-1.317 1.365-3.165 1.365h-.013m6.345-3.263l-.008-.051c-5.643.4-5.57-6.691-4.595-8.754l-.023-.02c-3.408 4.778-.818 10.951 4.626 8.825m-1.578-1.218c-.009.029-.003.013-.012.046 3.516 1.225 4.635-2.053 5.198-2.497-.011-.015-.001-.002-.018-.02-.227-.112-.72-.061-1.006.155-.04-.128-.13-.328-.292-.419-.095-.161.028-.503.028-.503s0-.007-.004-.023c-.619 0-.869.925-1.534 1.052.007.064.006.048.008.097.165-.01.31.084.495.177.181.09.4.181.717.178l.129-.59s.23.051.185.223l-.302.367-.017.02.001-.003c-.654.715-1.557 1.677-3.576 1.74m1.187-2.67l.028-.041c-2.525-2.144-1.632-5.981-1.151-6.769l-.022-.023c-1.118.704-2.489 5.789 1.145 6.833m3.019-1.26c.005.009.004.007.007.02 1.398-.502 1.541-2.313 3.208-2.924a1.435 1.435 0 00-.131-.006c-1.561 0-2.776 2.716-3.084 2.91m-.81-.2c1.203-.371 2.097-2.749 3.722-2.895a1.265 1.265 0 00-.378-.057c-1.573 0-3.127 2.79-3.344 2.952" fill="url(#c)"/></g></g><g clip-path="url(#d)" transform="matrix(1.25 0 0 -1.25 -260.769 511.909)"><path d="M211.36 388.772c-.613.281-1.193.546-1.193 1.061 0 .55.557.743 1.034.743.415 0 .85-.162 1.148-.418v.713a3.764 3.764 0 01-1.087.156c-.668 0-1.235-.184-1.555-.504a1.058 1.058 0 01-.311-.774c0-.839.729-1.165 1.433-1.48.613-.274 1.192-.533 1.192-1.114a.672.672 0 00-.212-.489c-.244-.245-.643-.354-.93-.354-.552 0-1.136.207-1.59.557l.183-.79a3.908 3.908 0 011.324-.218c1.233 0 1.996.794 1.996 1.53 0 .727-.728 1.06-1.431 1.381"/><path d="M211.36 388.772c-.613.281-1.193.546-1.193 1.061 0 .55.557.743 1.034.743.415 0 .85-.162 1.148-.418v.713a3.764 3.764 0 01-1.087.156c-.668 0-1.235-.184-1.555-.504a1.058 1.058 0 01-.311-.774c0-.839.729-1.165 1.433-1.48.613-.274 1.192-.533 1.192-1.114a.672.672 0 00-.212-.489c-.244-.245-.643-.354-.93-.354-.552 0-1.136.207-1.59.557l.183-.79a3.908 3.908 0 011.324-.218c1.233 0 1.996.794 1.996 1.53 0 .727-.728 1.06-1.431 1.381z" fill="none" stroke="#fff" stroke-width="1.347"/><path d="M225.358 395.084c6.546 1.754 10.882 6.799 10.092 9.749-.79 2.948-7.067 5.15-13.614 3.397-6.547-1.754-10.882-6.801-10.092-9.75.79-2.95 7.068-5.15 13.614-3.396"/><path d="M225.358 395.084c6.546 1.754 10.882 6.799 10.092 9.749-.79 2.948-7.067 5.15-13.614 3.397-6.547-1.754-10.882-6.801-10.092-9.75.79-2.95 7.068-5.15 13.614-3.396z" fill="none" stroke="#fff" stroke-width="1.347"/><path d="M225.282 407.328c-1.327-.456-2.461-.917-3.805-1.764-2.79-1.65-4.815-3.858-4.902-5.828-.287-1.908 1.72-3.61 4.274-3.646-3.221-.754-5.736.382-6.758 1.98-.666 1.27-.222 3.145 1.442 4.882 1.853 2.05 5.26 3.763 8.14 4.23.565.086 1.124.156 1.609.146" fill="#ef3e33"/><path d="M225.282 407.328c-1.327-.456-2.461-.917-3.805-1.764-2.79-1.65-4.815-3.858-4.902-5.828-.287-1.908 1.72-3.61 4.274-3.646-3.221-.754-5.736.382-6.758 1.98-.666 1.27-.222 3.145 1.442 4.882 1.853 2.05 5.26 3.763 8.14 4.23.565.086 1.124.156 1.609.146z" fill="none" stroke="#fff" stroke-width="1.347"/><path d="M226.76 406.31c-.01-.88.162-1.685.299-2.511l4.077.482c-1.245-.738-2.727-1.383-3.988-2.158-.005-.933.16-1.808.18-2.737-1.04.377-1.907.935-2.914 1.335-1.474-.626-2.922-1.496-4.36-2.153.708 1.004 1.722 2.029 2.462 3.055-.755.467-1.635.812-2.425 1.257 1.263.23 2.579.344 3.898.529l.237.153 2.438 2.876.097-.128z" fill="#ef3e33"/><path d="M226.76 406.31c-.01-.88.162-1.685.299-2.511l4.077.482c-1.245-.738-2.727-1.383-3.988-2.158-.005-.933.16-1.808.18-2.737-1.04.377-1.907.935-2.914 1.335-1.474-.626-2.922-1.496-4.36-2.153.708 1.004 1.722 2.029 2.462 3.055-.755.467-1.635.812-2.425 1.257 1.263.23 2.579.344 3.898.529l.237.153 2.438 2.876.097-.128z" fill="none" stroke="#fff" stroke-width="1.347"/><path d="M214.772 389.212l-.566-1.442h1.127l-.56 1.442zm-.715-1.865l-.298-.807c-.12-.32-.16-.486.115-.589v-.017h-1.053v.017c.332.166.43.486.555.813l.955 2.385c.081.206.19.446-.085.532v.017h.904l1.19-2.934c.131-.327.234-.647.56-.813v-.017h-1.173v.017c.281.126.235.19.08.59l-.308.806h-1.442z"/><path d="M214.772 389.212l-.566-1.442h1.127l-.56 1.442zm-.715-1.865l-.298-.807c-.12-.32-.16-.486.115-.589v-.017h-1.053v.017c.332.166.43.486.555.813l.955 2.385c.081.206.19.446-.085.532v.017h.904l1.19-2.934c.131-.327.234-.647.56-.813v-.017h-1.173v.017c.281.126.235.19.08.59l-.308.806h-1.442z" fill="none" stroke="#fff" stroke-width="1.347"/><path d="M218.497 389.698c.767 0 1.184-.4 1.184-.92 0-.505-.44-.899-.91-1.008l.824-1.035a4.02 4.02 0 01.927-.8h-.526c-.303 0-.492.073-.664.285l-.698.864-.526.806c.458.07.99.281.99.818 0 .412-.355.652-.738.635a3.01 3.01 0 01-.39-.045v-2.563c0-.264-.034-.68.258-.784v-.017h-1.093v.017c.292.103.252.526.252.784v2.156c0 .264.04.681-.252.79v.017h1.362z"/><path d="M218.497 389.698c.767 0 1.184-.4 1.184-.92 0-.505-.44-.899-.91-1.008l.824-1.035a4.02 4.02 0 01.927-.8h-.526c-.303 0-.492.073-.664.285l-.698.864-.526.806c.458.07.99.281.99.818 0 .412-.355.652-.738.635a3.01 3.01 0 01-.39-.045v-2.563c0-.264-.034-.68.258-.784v-.017h-1.093v.017c.292.103.252.526.252.784v2.156c0 .264.04.681-.252.79v.017h1.362z" fill="none" stroke="#fff" stroke-width="1.347"/><path d="M221.98 389.212l-.566-1.442h1.127l-.561 1.442zm-.715-1.865l-.298-.807c-.12-.32-.16-.486.115-.589v-.017h-1.053v.017c.332.166.429.486.555.813l.955 2.385c.08.206.189.446-.085.532v.017h.904l1.189-2.934c.132-.327.235-.647.56-.813v-.017h-1.172v.017c.28.126.235.19.08.59l-.308.806h-1.442z"/><path d="M221.98 389.212l-.566-1.442h1.127l-.561 1.442zm-.715-1.865l-.298-.807c-.12-.32-.16-.486.115-.589v-.017h-1.053v.017c.332.166.429.486.555.813l.955 2.385c.08.206.189.446-.085.532v.017h.904l1.189-2.934c.132-.327.235-.647.56-.813v-.017h-1.172v.017c.28.126.235.19.08.59l-.308.806h-1.442z" fill="none" stroke="#fff" stroke-width="1.347"/><path d="M226.826 388.989a1.99 1.99 0 01-1.058.326c-.79 0-1.34-.578-1.34-1.407 0-.841.573-1.591 1.454-1.591.429 0 .858.155 1.219.361h.017l-.292-.664a2.025 2.025 0 00-.864-.171c-1.35 0-2.185.755-2.185 1.979 0 1.184.835 1.968 2.008 1.968.349 0 .704-.063 1.04-.143v-.658z"/><path d="M226.826 388.989a1.99 1.99 0 01-1.058.326c-.79 0-1.34-.578-1.34-1.407 0-.841.573-1.591 1.454-1.591.429 0 .858.155 1.219.361h.017l-.292-.664a2.025 2.025 0 00-.864-.171c-1.35 0-2.185.755-2.185 1.979 0 1.184.835 1.968 2.008 1.968.349 0 .704-.063 1.04-.143v-.658z" fill="none" stroke="#fff" stroke-width="1.347"/><path d="M228.175 386.415l.727-.07c.377-.033.772.087 1.058.339h.017l-.257-.75h-2.386v.018c.292.103.258.526.258.783v2.157c0 .263.034.68-.258.79v.017h1.831c.097 0 .194-.012.27.028h.016v-.67h-.017c-.178.207-.412.23-.675.23-.2 0-.4-.006-.584-.04v-1.064h.681c.091 0 .183 0 .251.034h.018v-.606h-.018c-.09.166-.33.16-.509.16h-.423v-1.356z"/><path d="M228.175 386.415l.727-.07c.377-.033.772.087 1.058.339h.017l-.257-.75h-2.386v.018c.292.103.258.526.258.783v2.157c0 .263.034.68-.258.79v.017h1.831c.097 0 .194-.012.27.028h.016v-.67h-.017c-.178.207-.412.23-.675.23-.2 0-.4-.006-.584-.04v-1.064h.681c.091 0 .183 0 .251.034h.018v-.606h-.018c-.09.166-.33.16-.509.16h-.423v-1.356z" fill="none" stroke="#fff" stroke-width="1.347"/><path d="M230.972 386.678c0-.32-.006-.55.298-.727v-.017h-1.013v.017c.303.178.303.407.303.727v2.283c0 .32 0 .549-.297.72v.018h.835v-.006a.355.355 0 01.086-.143l.08-.115 2.094-2.643v2.169c0 .32.005.549-.298.72v.018h1.007v-.018c-.297-.171-.297-.4-.297-.72v-3.21c-.407.137-.584.326-.836.652l-1.962 2.489v-2.214z"/><path d="M230.972 386.678c0-.32-.006-.55.298-.727v-.017h-1.013v.017c.303.178.303.407.303.727v2.283c0 .32 0 .549-.297.72v.018h.835v-.006a.355.355 0 01.086-.143l.08-.115 2.094-2.643v2.169c0 .32.005.549-.298.72v.018h1.007v-.018c-.297-.171-.297-.4-.297-.72v-3.21c-.407.137-.584.326-.836.652l-1.962 2.489v-2.214z" fill="none" stroke="#fff" stroke-width="1.347"/><path d="M236.636 389.018c-.223.229-.578.36-.898.36-.326 0-.738-.125-.738-.52 0-.784 1.968-.772 1.968-1.831 0-.612-.641-1.184-1.533-1.184-.35 0-.698.05-1.024.172l-.166.715a1.977 1.977 0 011.253-.475c.326 0 .818.194.818.595 0 .892-1.968.732-1.968 1.945 0 .72.738.995 1.436.995.286 0 .577-.04.852-.126v-.646z"/><path d="M236.636 389.018c-.223.229-.578.36-.898.36-.326 0-.738-.125-.738-.52 0-.784 1.968-.772 1.968-1.831 0-.612-.641-1.184-1.533-1.184-.35 0-.698.05-1.024.172l-.166.715a1.977 1.977 0 011.253-.475c.326 0 .818.194.818.595 0 .892-1.968.732-1.968 1.945 0 .72.738.995 1.436.995.286 0 .577-.04.852-.126v-.646z" fill="none" stroke="#fff" stroke-width="1.347"/><path d="M214.138 390.564h22.62a.12.12 0 01.12.12.12.12 0 01-.12.12h-22.62a.12.12 0 010-.24"/><path d="M214.138 390.564h22.62a.12.12 0 01.12.12.12.12 0 01-.12.12h-22.62a.12.12 0 010-.24z" fill="none" stroke="#fff" stroke-width="1.347"/><path d="M209.577 384.716h27.18a.12.12 0 110 .241h-27.18a.12.12 0 010-.24"/><path d="M209.577 384.716h27.18a.12.12 0 110 .241h-27.18a.12.12 0 010-.24z" fill="none" stroke="#fff" stroke-width="1.347"/><path d="M211.36 388.772c-.613.281-1.193.546-1.193 1.061 0 .55.557.743 1.034.743.415 0 .85-.162 1.148-.418v.713a3.764 3.764 0 01-1.087.156c-.668 0-1.235-.184-1.555-.504a1.058 1.058 0 01-.311-.774c0-.839.729-1.165 1.433-1.48.613-.274 1.192-.533 1.192-1.114a.672.672 0 00-.212-.489c-.244-.245-.643-.354-.93-.354-.552 0-1.136.207-1.59.557l.183-.79a3.908 3.908 0 011.324-.218c1.233 0 1.996.794 1.996 1.53 0 .727-.728 1.06-1.431 1.381m13.997 6.312c6.546 1.754 10.882 6.799 10.092 9.749-.79 2.948-7.067 5.15-13.614 3.397-6.547-1.754-10.882-6.801-10.092-9.75.79-2.95 7.068-5.15 13.614-3.396"/><path d="M225.282 407.328c-1.327-.456-2.461-.917-3.805-1.764-2.79-1.65-4.815-3.858-4.902-5.828-.287-1.908 1.72-3.61 4.274-3.646-3.221-.754-5.736.382-6.758 1.98-.666 1.27-.222 3.145 1.442 4.882 1.853 2.05 5.26 3.763 8.14 4.23.565.086 1.124.156 1.609.146" fill="#ef3e33"/><path d="M226.76 406.31c-.01-.88.162-1.685.299-2.511l4.077.482c-1.245-.738-2.727-1.383-3.988-2.158-.005-.933.16-1.808.18-2.737-1.04.377-1.907.935-2.914 1.335-1.474-.626-2.922-1.496-4.36-2.153.708 1.004 1.722 2.029 2.462 3.055-.755.467-1.635.812-2.425 1.257 1.263.23 2.579.344 3.898.529l.237.153 2.438 2.876.097-.128z" fill="#ef3e33"/><path d="M214.772 389.212l-.566-1.442h1.127l-.56 1.442zm-.715-1.865l-.298-.807c-.12-.32-.16-.486.115-.589v-.017h-1.053v.017c.332.166.43.486.555.813l.955 2.385c.081.206.19.446-.085.532v.017h.904l1.19-2.934c.131-.327.234-.647.56-.813v-.017h-1.173v.017c.281.126.235.19.08.59l-.308.806h-1.442zm4.44 2.351c.767 0 1.184-.4 1.184-.92 0-.505-.44-.899-.91-1.008l.824-1.035a4.02 4.02 0 01.927-.8h-.526c-.303 0-.492.073-.664.285l-.698.864-.526.806c.458.07.99.281.99.818 0 .412-.355.652-.738.635a3.01 3.01 0 01-.39-.045v-2.563c0-.264-.034-.68.258-.784v-.017h-1.093v.017c.292.103.252.526.252.784v2.156c0 .264.04.681-.252.79v.017h1.362z"/><path d="M221.98 389.212l-.566-1.442h1.127l-.561 1.442zm-.715-1.865l-.298-.807c-.12-.32-.16-.486.115-.589v-.017h-1.053v.017c.332.166.429.486.555.813l.955 2.385c.08.206.189.446-.085.532v.017h.904l1.189-2.934c.132-.327.235-.647.56-.813v-.017h-1.172v.017c.28.126.235.19.08.59l-.308.806h-1.442zm5.561 1.642a1.99 1.99 0 01-1.058.326c-.79 0-1.34-.578-1.34-1.407 0-.841.573-1.591 1.454-1.591.429 0 .858.155 1.219.361h.017l-.292-.664a2.025 2.025 0 00-.864-.171c-1.35 0-2.185.755-2.185 1.979 0 1.184.835 1.968 2.008 1.968.349 0 .704-.063 1.04-.143v-.658zm1.349-2.574l.727-.07c.377-.033.772.087 1.058.339h.017l-.257-.75h-2.386v.018c.292.103.258.526.258.783v2.157c0 .263.034.68-.258.79v.017h1.831c.097 0 .194-.012.27.028h.016v-.67h-.017c-.178.207-.412.23-.675.23-.2 0-.4-.006-.584-.04v-1.064h.681c.091 0 .183 0 .251.034h.018v-.606h-.018c-.09.166-.33.16-.509.16h-.423v-1.356zm2.797.263c0-.32-.006-.55.298-.727v-.017h-1.013v.017c.303.178.303.407.303.727v2.283c0 .32 0 .549-.297.72v.018h.835v-.006a.355.355 0 01.086-.143l.08-.115 2.094-2.643v2.169c0 .32.005.549-.298.72v.018h1.007v-.018c-.297-.171-.297-.4-.297-.72v-3.21c-.407.137-.584.326-.836.652l-1.962 2.489v-2.214zm5.664 2.34c-.223.229-.578.36-.898.36-.326 0-.738-.125-.738-.52 0-.784 1.968-.772 1.968-1.831 0-.612-.641-1.184-1.533-1.184-.35 0-.698.05-1.024.172l-.166.715a1.977 1.977 0 011.253-.475c.326 0 .818.194.818.595 0 .892-1.968.732-1.968 1.945 0 .72.738.995 1.436.995.286 0 .577-.04.852-.126v-.646zm-22.498 1.546h22.62a.12.12 0 01.12.12.12.12 0 01-.12.12h-22.62a.12.12 0 010-.24m-4.561-5.848h27.18a.12.12 0 110 .241h-27.18a.12.12 0 010-.24"/></g></svg>