<svg xmlns="http://www.w3.org/2000/svg" width="295.804" height="338.062" viewBox="0 0 350 400"><g fill="#004b84"><g fill-rule="evenodd"><path d="M307.552 25.805c-1.031-1.12-1.628-1.263-5.685-1.363l-4.533-.111-.116 15.757 1.203-.094c1.127-.087 1.206-.309 1.23-3.449.028-3.273.06-3.353 1.336-3.244 1.004.084 1.784.887 3.367 3.465 1.74 2.83 2.261 3.333 3.356 3.22l1.298-.132-3.984-6.366 1.686-1.068c2.158-1.365 2.609-4.692.842-6.615zm-2.326 1.367c-1.505-.944-3.752-.638-5.454-.638l-.093 4.805 2.912-.233c2.726-.218 2.936-.331 3.281-1.765.294-1.217.16-1.663-.646-2.17z"/><path d="M307.561 19.73c-5.081-1.823-11.153-.906-15.002 3.149-6.072 6.395-4.215 17.235 3.552 21.262 7.704 3.995 17.487-.248 19.517-8.86 1.482-6.292-1.886-13.334-8.067-15.551zm-.64 2.445c-1.272-.521-2.35-.957-3.712-1.084-2.999-.28-6.558 1.274-8.56 3.456-5.285 5.766-2.977 15.59 4.403 18.16 5.385 1.878 11.28-1.008 13.319-6.372 1.973-5.193-.084-11.958-5.45-14.16zm-121.764 58.68l-7.065-.527c-3.844 0-7.528.576-11.344 1.126-20.68 2.984-40.985 14.15-54.526 30.277-10.244 12.202-17.816 29.122-13.284 45.269 2.73 9.734 9.532 17.386 18.285 22.103 16.391 8.834 36.813 7.26 53.857 1.333 18.446-6.416 36.029-18.913 46.153-36.03 7.494-12.67 11.006-28.775 3.918-42.426-6.947-13.38-21.651-20.057-35.994-21.125z"/><path d="M76.996 176.578l-2.387-11.4-2.053-14.464-5.064 10.378c-7.027 14.402-12.86 30.297-10.887 46.604 2.058 17.025 12.793 30.909 26.03 41.006 23.394 17.842 54.782 16.823 82.053 10.696 11.527-2.59 22.63-6.492 33.782-10.355l7.21-3.41 1.123-8.527c1.707-12.983.783-26.048-1.786-38.852-1.65-8.224-3.757-16.303-6.052-24.362-6.269 3.474-12.538 6.948-18.807 10.42l2.725 7.182c3.47 9.145 5.268 18.818 4.563 28.609-.44 6.133-1.993 11.789-3.756 17.626-6.176.028-12.16-.025-18.243-1.33-14.157-3.038-26.844-11.183-37.338-21.048-6.598-6.205-12.223-13.409-17.584-20.709l-.665 5.635c-.654 5.538-2.193 11.412-5.957 15.69-1.606 1.826-3.42 3.074-5.543 4.156l-3.386-2.843c-6.345-5.327-9.903-13.701-12.685-21.332-2.13-5.844-3.542-11.007-5.293-19.37zM171.531 21.91c1.38-4.556 2.393-8.325 2.252-8.375l-.256-.092-10.978.99c-26.29 2.371-51.865 11.541-73.57 26.777-7.183 5.043-13.64 10.92-20.07 16.877l-5.724 6.551 5.783 1.713c12.155 3.6 22.47 11.648 30.57 21.331 3.36 4.018 6.049 8.374 8.574 12.944l10.16-6.54c11.983-7.71 24.735-14.623 38.135-19.47 4.833-1.747 9.674-3.38 14.65-4.644-1.739-5.727-3.311-11.27-3.707-17.296-.682-10.381 1.181-20.862 4.181-30.767zm77.351 60.316a76.52 76.52 0 00-13.003-4.23l4.464 3.793c9.668 8.214 15.11 20.03 17.714 32.313 2.815 13.27 1.707 26.865.205 40.234l-1.756.294c-1.264.212-3.148-.213-6.728-1.514-5.386-1.959-10.351-4.846-15.33-7.656l1.554 7.397c3.716 17.687 1.558 36.125-3.277 53.372-2.604 9.296-6.206 18.2-9.857 27.11l-3.229 6.113 8.891-6.22c20.764-14.529 39.58-33.758 49.876-57.331 8.083-18.508 13.37-40.249 5.878-59.849-6.139-16.064-20.05-27.265-35.402-33.826z"/><path d="M206.503 14.888c-4.071-1.165-8.125-2.114-12.32-2.612l-1.078.417c3.085 3.635 5.782 7.348 7.877 11.687 2.6 5.382 4.496 11.027 6.37 16.694l-6.373 4.142c-6.046 3.929-12.511 8.892-15.944 15.469l-1.758 3.365-.464 2.794 11.486-1.147c23.57-2.355 48.544-.092 69.44 12.071 7.99 4.65 14.743 10.835 20.637 17.932l2.423-6.572c3.069-8.322 4.666-17.092 3.744-25.95-.763-7.319-2.734-14.42-6.528-20.744-4.775-7.957-11.742-13.692-19.188-18.922l.92 4.164c2.048 9.28-1.65 18.255-4.903 26.782l-3.157 5.492c-1.895-5.15-3.795-10.25-6.802-14.876-4.533-6.975-10.794-12.757-17.567-17.458-8.11-5.63-17.35-10.017-26.815-12.728zm111.166 42.451l-1.66-3.194h-.584c-1.02 5.592-2.064 10.919-4.544 16.09-5.525 11.523-14.469 20.486-23.372 29.353l-.027.249c-.015.136 1.397 3.147 3.137 6.688 6.514 13.256 8.132 27.904 5.79 42.433-2.808 17.427-10.51 34.064-20.514 48.441-2.997 4.307-5.594 8.123-5.77 8.48l-.322.648 9.671-5.494c16.174-9.19 31.574-20.841 42.64-36.072 8.775-12.077 14.69-26.28 15.634-41.308.383-6.087-.158-11.87-.989-17.872l-6.332 5.448c-5.48 4.715-11.055 9.307-16.65 13.88l2.947-10.06c3.364-11.483 5.704-23.352 5.482-35.367-.139-7.479-1.032-15.596-4.537-22.343zm19.013 141.801c-3.549-1.42-5.5-1.837-10.621-2.268-20.267-1.713-40.51 6.502-57.52 17.023-3.457 2.14-11.886 8.25-18.73 13.583-13.824 10.768-28.287 20.242-44.028 27.843 5.706 2.162 11.255 4.125 17.34 4.952 9.45 1.284 18.86.37 27.882-2.74 11.398-3.928 23.196-7.162 35.305-5.03 4.217.743 8.251 1.904 12.28 3.321l.737-7.004c1.593-15.135 7.92-30.264 20.552-39.271 5.291-3.772 11.676-6.529 17.998-7.957l3.154-.713zM50.945 86.409l-.532-6.804c.026-.19.05-.382.075-.572l-5.11 7.646c-6.175 9.238-11.196 19.3-14.155 30.063-3.915 14.232-3.78 29.296 1.51 43.158 3.549 9.302 9.146 17.09 15.779 24.346 1.193-6.401 2.452-12.6 4.99-18.638 4.438-10.562 11.001-20.254 18.04-29.201 7.063-8.975 15.079-17.102 23.006-25.282l2.897-2.63 2.898-2.631-4.41-1.12c-7.602-1.93-15.823-1.171-23.4.486a77.502 77.502 0 00-13.2 4.156c-2.589-3.593-4.89-7.082-6.288-11.362-1.183-3.63-1.7-6.484-2.1-11.615zM15.299 166.79l-4.273-5.912-.026.039-.028.038-.1 9.218c-.162 14.988 2.847 30.401 11.032 43.136 3.032 4.717 6.85 8.617 10.824 12.495-2.82.344-5.638.072-8.477-.037-4.831-.19-9.527-.848-14.251-1.816l5.751 7.223c8.606 10.808 19.374 20.997 32.722 25.284 6.736 2.164 14.06 2.768 20.973 1.068l4.446-1.093 1.57-1.069c-4.423-2.778-8.712-5.546-12.308-9.423-9.638-10.392-13.644-25.057-15.074-38.878-.655-6.335-.897-12.637-.843-18.996-4.97-1.173-9.792-2.32-14.308-4.846-7.063-3.954-12.902-9.888-17.63-16.43z"/></g><path d="M53.887 286.177h-18.29c-2.405 0-4.117.095-5.132.28-1.02.185-2.016.602-2.989 1.248-2.361 1.465-4.126 3.71-5.298 6.725-1.171 3.022-1.755 6.034-1.755 9.036 0 2.889 2.177 5.114 6.532 6.67l4.06 1.636c2.168.91 3.557 1.608 4.175 2.101.616.489.924 1.124.924 1.902 0 1.689-.636 2.828-1.917 3.42-1.275.593-2.978.887-5.098.887h-6.726c-1.276 0-2.262-.071-2.955-.218-.674-.152-1.148-.398-1.433-.754-.256-.351-.422-.877-.483-1.585H15.68l-1.85 7.287c-.175.887-.261 1.498-.261 1.835 0 1.13.522 1.85 1.56 2.168 1.04.35 2.34.526 3.9.526h14.458c2.053 0 3.609-.071 4.662-.209 1.049-.137 2.158-.422 3.33-.849 1.427-.612 2.727-1.508 3.894-2.694a11.661 11.661 0 002.666-4.112c.692-1.689 1.309-3.615 1.855-5.782.54-2.168.81-3.838.81-5.004 0-2.965-2.158-5.27-6.465-6.92l-5.07-2.169c-1.21-.517-2.045-.906-2.5-1.166-.48-.28-.802-.575-.977-.892-.152-.294-.228-.731-.228-1.304 0-1.576.589-2.604 1.755-3.083 1.172-.484 2.775-.727 4.81-.727h6.27c1.343 0 2.306-.184 2.89-.554.587-.37 1.043-1.059 1.366-2.054zm42.366 0l-1.523 5.63c-.28 1.149-.773 1.921-1.475 2.33-.702.407-1.79.612-3.26.612H84.68c-1.835 0-3.107.06-3.809.194a4.125 4.125 0 00-1.897.887c-1.144 1.077-2.064 2.837-2.756 5.288-.17.593-.645 2.055-1.423 4.393-.778 2.333-1.348 4.269-1.703 5.796a20.161 20.161 0 00-.536 4.577c0 1.69.55 2.79 1.655 3.311 1.1.517 2.69.778 4.763.778h4.6c2.163 0 3.62-.147 4.38-.445.753-.295 1.393-.964 1.91-2.003h2.14l-2.14 7.177c-.498 1.969-1.66 3.278-3.486 3.937-1.827.66-4.16.987-6.991.987l-3.601-.058-7.1-.108c-4.336-.114-7.32-.688-8.947-1.727-2.428-1.404-3.642-3.918-3.642-7.532 0-2.704.27-5.521.811-8.448a67.204 67.204 0 012.239-8.742 81.9 81.9 0 013.249-8.358c1.883-3.998 4.373-6.502 7.465-7.503 1.927-.65 4.72-.973 8.377-.973zm29.079-.569c-5.588 0-9.898.507-12.944 1.527-3.04 1.02-5.507 2.804-7.39 5.36-2.144 2.614-3.961 6.446-5.455 11.498a59.247 59.247 0 00-2.21 7.945c-.565 2.742-.844 5-.844 6.778 0 4.497 1.906 7.537 5.715 9.107 2.6 1.077 6.792 1.613 12.574 1.613 2.923 0 5.494-.147 7.713-.446 2.22-.294 4.24-.74 6.057-1.333 1.646-.63 3.116-1.475 4.402-2.542 1.29-1.063 2.457-2.43 3.51-4.094 1.049-1.67 2.072-3.761 3.07-6.28 1.712-4.572 2.954-8.988 3.736-13.248.214-2.5.323-3.998.323-4.496 0-4.24-1.394-7.277-4.188-9.113-1.408-.816-3.207-1.399-5.394-1.75-2.167-.35-5.056-.526-8.675-.526zm-1.977 9.06c2.855 0 4.287 1.38 4.287 4.136 0 2.538-1.052 6.787-3.154 12.755-1.081 3.296-2.22 5.61-3.41 6.943-1.191 1.333-2.695 1.998-4.516 1.998-2.685 0-4.027-1.295-4.027-3.89 0-1.276.293-3.116.877-5.525.607-2.392 1.461-5.114 2.566-8.169.626-1.83 1.172-3.244 1.623-4.235.455-.992 1.162-1.908 2.115-2.752.949-.84 2.163-1.261 3.639-1.261zm50.765.081l-7.702 29.28c-.129.465-.194.863-.194 1.195 0 1.115.815 1.807 2.437 2.087l-.323 1.556h-15.173c-2.168 0-3.25-.74-3.25-2.225 0-.408.11-.982.323-1.726l8.125-30.167h-4.193c-1.536 0-2.57.118-3.102.36-.531.242-1.057.825-1.574 1.75h-2.177l1.916-7.38c.26-1.016.55-1.746.877-2.192.323-.446.792-.74 1.4-.887.602-.147 1.536-.223 2.794-.223h27.126c.864 0 1.527-.057 1.983-.166.45-.113.82-.309 1.105-.583.28-.28.602-.736.972-1.361h2.144l-1.85 7.266c-.394 1.537-.83 2.49-1.318 2.86-.489.37-1.49.556-3.003.556zm42.195 0l-7.703 29.28c-.128.465-.194.863-.194 1.195 0 1.115.816 1.807 2.438 2.087l-.323 1.556h-15.174c-2.167 0-3.249-.74-3.249-2.225 0-.408.11-.982.323-1.726l8.125-30.167h-4.193c-1.537 0-2.57.118-3.102.36-.531.242-1.057.825-1.575 1.75h-2.177l1.916-7.38c.261-1.016.55-1.746.878-2.192.323-.446.792-.74 1.399-.887.602-.147 1.537-.223 2.794-.223h27.126c.864 0 1.528-.057 1.984-.166.45-.113.82-.309 1.104-.583.28-.28.603-.736.973-1.361h2.144l-1.85 7.266c-.394 1.537-.83 2.49-1.319 2.86-.488.37-1.49.556-3.003.556zm24.73 29.28c-.17.687-.256 1.142-.256 1.36 0 .893.702 1.533 2.11 1.922l-.422 1.556H228.32c-2.296 0-3.444-.759-3.444-2.277 0-.54.128-1.205.39-2.002l8.375-32.16c.285-.886.427-1.626.427-2.22 0-1.337-.74-2.152-2.21-2.447l.455-1.584h14.027c2.575 0 3.866.797 3.866 2.39 0 .447-.087.897-.262 1.362zm45.823-37.852h-18.29c-2.405 0-4.117.095-5.132.28-1.02.185-2.016.602-2.989 1.248-2.361 1.465-4.126 3.71-5.298 6.725-1.171 3.022-1.755 6.034-1.755 9.036 0 2.889 2.177 5.114 6.532 6.67l4.06 1.636c2.168.91 3.557 1.608 4.175 2.101.616.489.924 1.124.924 1.902 0 1.689-.636 2.828-1.917 3.42-1.275.593-2.978.887-5.098.887h-6.726c-1.276 0-2.262-.071-2.955-.218-.673-.152-1.149-.398-1.433-.754-.256-.351-.422-.877-.483-1.585h-1.822l-1.85 7.287c-.175.887-.26 1.498-.26 1.835 0 1.13.521 1.85 1.56 2.168 1.039.35 2.339.526 3.899.526h14.458c2.053 0 3.61-.071 4.662-.209 1.048-.137 2.158-.422 3.33-.849 1.427-.612 2.727-1.508 3.894-2.694a11.658 11.658 0 002.666-4.112c.692-1.689 1.308-3.615 1.855-5.782.54-2.168.81-3.838.81-5.004 0-2.965-2.158-5.27-6.465-6.92l-5.07-2.169c-1.21-.517-2.045-.906-2.5-1.166-.479-.28-.802-.575-.977-.892-.152-.294-.228-.731-.228-1.304 0-1.576.588-2.604 1.755-3.083 1.172-.484 2.775-.727 4.81-.727h6.27c1.343 0 2.306-.184 2.89-.554.587-.37 1.043-1.059 1.366-2.054zm28.017 23.242h-8.989l-4.188 15.634c0 .986.778 1.736 2.334 2.258l-.55 1.556h-14.965c-1.75 0-2.628-.759-2.628-2.277 0-.63.085-1.224.26-1.778l8.506-32.383c.28-.963.422-1.741.422-2.334 0-1.262-.693-2.04-2.078-2.334l.323-1.584h14.836c2.035 0 3.05.778 3.05 2.334 0 .242-.042.602-.132 1.081l-3.178 12.11h8.96l3.017-11.555c0-1.295-.736-2.091-2.206-2.386l.65-1.584h14.344c2.272 0 3.41.778 3.41 2.334 0 .522-.086 1.029-.261 1.527l-8.955 33.99a3.266 3.266 0 00-.228 1.196c0 1.077.754 1.77 2.272 2.087l-.555 1.556H313.88c-1.257 0-2.13-.186-2.628-.555-.498-.375-.749-.93-.749-1.67 0-.502.109-1.153.327-1.95zM94.161 366.936l3.41 7.618c.498 1 .935 1.636 1.314 1.916.38.28 1.043.417 1.997.417h1.816l-1.816 6.086c-.261 1.058-.654 1.788-1.186 2.196-.531.408-1.39.612-2.58.612h-8.31c-.845 0-1.461-.118-1.855-.36a1.596 1.596 0 01-.665-.683 7.433 7.433 0 01-.422-.958 12.171 12.171 0 01-.274-.863l-5.716-15.981H78.35l-3.538 14.007c-.133.465-.195.863-.195 1.195 0 1.077.778 1.77 2.334 2.088l-.517 1.555h-14.97c-1.883 0-2.822-.759-2.822-2.277 0-.502.085-.977.26-1.418l8.928-34.967c0-1.338-.759-2.15-2.272-2.448l.422-1.58h30.451c3.354 0 5.726.437 7.111 1.305 1.688 1.219 2.533 3.23 2.533 6.028 0 2.392-.432 4.782-1.3 7.172-.863 2.39-2.187 4.45-3.96 6.171-1.798 1.703-4.013 2.76-6.655 3.169zM82.54 351.217l-2.144 8.604h3.666c2.016 0 3.672-.546 4.971-1.641 1.295-1.096 1.945-2.528 1.945-4.293 0-.944-.384-1.627-1.153-2.044-.768-.417-1.712-.626-2.841-.626zm57.33-1.869c.218-.835.322-1.575.322-2.225 0-1.351-.754-2.167-2.271-2.448l.422-1.583h14.742c2.187 0 3.277.796 3.277 2.39l-7.603 28.85c-1.495 6.023-5.199 9.727-11.113 11.117a61.867 61.867 0 01-11.702 1.139c-4.331 0-8.16-.498-11.47-1.5-4.226-1.237-6.37-3.822-6.436-7.76 0-1.19.151-2.328.455-3.424l6.54-24.556c.328-1.205.49-1.964.49-2.281 0-1.295-.759-2.092-2.277-2.392l.455-1.583h14.994c1.907 0 2.865.835 2.865 2.504 0 .536-.024.953-.067 1.252l-6.531 24.305c-.498 1.556-.75 2.7-.75 3.42 0 1.835 1.139 2.756 3.41 2.756 1.756 0 3.065-.319 3.933-.95.863-.63 1.546-1.759 2.045-3.39zm60.95-6.256l-1.398 5.379c-.219 1.205-.632 2.034-1.234 2.5-.607.46-1.636.692-3.088.692h-12.19c-1.926.018-3.316.332-4.16.943-.844.613-1.58 1.836-2.21 3.672a539.243 539.243 0 00-2.358 6.57c-.508 1.465-.968 3.115-1.38 4.951a24.545 24.545 0 00-.617 5.398c0 1.11.54 2.04 1.627 2.78 1.063.726 2.257 1.086 3.582 1.086 1.517 0 2.722-.437 3.609-1.31.48-.479.991-1.621 1.532-3.42l1.465-5.871h-1.73c-1.243 0-2.135-.237-2.68-.707-.545-.474-.816-1.347-.816-2.623l1.267-4.388h15.187c1.171 0 2.082.204 2.732.612.673.427 1.006 1.016 1.006 1.774 0 .484-.095.916-.29 1.304l-4.71 17.593c-.37 1.333-.715 2.372-1.038 3.112-.351.726-.755 1.276-1.219 1.656-.465.379-1.134.706-1.998.986-2.537.517-5.686.773-9.458.773-.734 0-2.49-.033-5.26-.108-2.77-.077-4.634-.11-5.587-.11-3.164-.038-5.583-.261-7.263-.67-1.678-.407-3.001-1.076-3.979-2-1.688-1.67-2.532-4.19-2.532-7.56 0-2.999 1.07-8.032 3.215-15.09.37-1.243.92-3.04 1.655-5.393.76-2.352 1.608-4.33 2.552-5.933.944-1.604 2.22-2.975 3.833-4.113 1.613-1.138 3.61-1.855 5.995-2.154 1.3-.222 3.648-.331 7.05-.331zm36.566 18.318c3.6.446 5.397 2.557 5.397 6.337 0 2.02-.64 4.881-1.917 8.586-.777 2.243-1.645 4.03-2.599 5.364-.953 1.314-2.087 2.334-3.41 3.055a6.74 6.74 0 01-2.4.849c-.825.118-2.396.18-4.71.18H201.99c-1.732 0-2.6-.664-2.6-1.996 0-.523.067-1.049.195-1.585l9.03-34.522a5.02 5.02 0 00.035-.64c0-1.337-.741-2.125-2.211-2.363l.422-1.583h27.606c6.863 0 10.293 2.139 10.293 6.422 0 2.684-.593 5.17-1.784 7.452-1.195 2.276-3.055 3.76-5.591 4.444zm-13.908-10.075l-1.883 7.41h3.538c1.864 0 3.282-.447 4.255-1.338.996-.892 1.494-2.173 1.494-3.843 0-.815-.237-1.394-.716-1.726-.475-.332-1.267-.503-2.372-.503zm-3.857 14.8l-2.855 10.871h4.572c2.23 0 3.862-.807 4.9-2.428 1.038-1.623 1.556-3.548 1.556-5.773 0-1-.304-1.693-.906-2.083-.607-.393-1.698-.587-3.278-.587zm53.769 3.025l-3.056 11.783a3.988 3.988 0 00-.194 1.195c0 1.077.74 1.77 2.21 2.088l-.55 1.555h-14.358c-2.362 0-3.539-.593-3.539-1.779 0-.203.162-.962.484-2.276l3.378-12.565-6.3-20.316c-.498-1.447-1.057-2.462-1.674-3.045-.617-.584-1.55-.958-2.808-1.125l.422-1.583h13.709c1.232 0 2.091.151 2.58.46.488.303.858.948 1.119 1.93l3.671 13.144 7.177-10.587c.588-.854.878-1.556.878-2.11 0-.746-.508-1.163-1.528-1.254l.394-1.583h13.381c1.664 0 2.5.436 2.5 1.304 0 .336-.176.768-.523 1.309z"/></g></svg>