<svg xmlns="http://www.w3.org/2000/svg" width="1006.47" height="984.348"><g fill="#004b84"><path fill-rule="evenodd" d="M904.679 41.135c-3.134-3.407-4.947-3.843-17.282-4.146l-13.781-.337-.356 47.907 3.66-.284c3.424-.264 3.665-.939 3.74-10.487.081-9.951.181-10.192 4.059-9.864 3.054.259 5.426 2.699 10.238 10.535 5.286 8.609 6.876 10.136 10.204 9.793l3.947-.404-12.115-19.355 5.128-3.245c6.56-4.151 7.931-14.265 2.558-20.113zm-7.071 4.153c-4.573-2.867-11.409-1.936-16.581-1.936l-.286 14.609 8.856-.71c8.29-.664 8.926-1.007 9.976-5.367.892-3.699.487-5.057-1.965-6.596z"/><path fill-rule="evenodd" d="M904.709 22.661c-15.45-5.541-33.91-2.752-45.614 9.576-18.46 19.443-12.816 52.403 10.8 64.647 23.425 12.145 53.17-.755 59.337-26.937 4.51-19.131-5.729-40.546-24.523-47.286zm-1.946 7.436c-3.868-1.586-7.147-2.91-11.287-3.297-9.119-.853-19.94 3.876-26.024 10.509-16.071 17.532-9.052 47.399 13.384 55.216 16.375 5.707 34.3-3.069 40.495-19.376 6-15.788-.254-36.357-16.568-43.052zM532.549 208.509l-21.48-1.601c-11.686 0-22.889 1.751-34.492 3.424-62.874 9.072-124.609 43.023-165.778 92.056-31.147 37.099-54.171 88.543-40.392 137.635 8.305 29.597 28.982 52.864 55.596 67.205 49.836 26.859 111.926 22.072 163.748 4.051 56.081-19.507 109.542-57.502 140.322-109.546 22.784-38.525 33.464-87.49 11.912-128.994-21.122-40.682-65.828-60.982-109.436-64.23z"/><path fill-rule="evenodd" d="M203.696 499.552l-7.259-34.664a664202.3 664202.3 0 00-6.241-43.976l-15.397 31.555c-21.363 43.785-39.098 92.117-33.102 141.697 6.26 51.764 38.898 93.975 79.146 124.673 71.126 54.249 166.558 51.149 249.47 32.519 35.05-7.871 68.808-19.736 102.712-31.477l21.924-10.372 3.412-25.927c5.192-39.472 2.382-79.197-5.428-118.124-5.016-25.007-11.424-49.571-18.401-74.071l-57.179 31.68 8.284 21.836c10.551 27.806 16.014 57.214 13.875 86.984-1.341 18.648-6.063 35.842-11.424 53.591-18.775.084-36.973-.073-55.464-4.043-43.044-9.237-81.619-34.002-113.523-63.997-20.061-18.864-37.164-40.767-53.464-62.961l-2.022 17.13c-1.987 16.838-6.666 34.699-18.11 47.708-4.882 5.55-10.4 9.343-16.853 12.635l-10.295-8.645c-19.292-16.198-30.109-41.659-38.569-64.859-6.479-17.771-10.768-33.465-16.092-58.892zM491.121 29.288c4.196-13.849 7.276-25.307 6.847-25.463l-.78-.278-33.375 3.012c-79.932 7.21-157.689 35.089-223.684 81.413-21.841 15.332-41.469 33.203-61.02 51.315l-17.406 19.917 17.586 5.207c36.956 10.946 68.316 35.417 92.943 64.857 10.219 12.217 18.393 25.459 26.069 39.355l30.895-19.884c36.428-23.446 75.201-44.46 115.944-59.198 14.689-5.313 29.413-10.28 44.54-14.12-5.284-17.414-10.068-34.266-11.269-52.586-2.075-31.563 3.592-63.43 12.71-93.547zm235.18 183.389c-12.898-5.514-25.922-9.722-39.534-12.861l13.573 11.533c29.392 24.975 45.937 60.899 53.857 98.248 8.559 40.347 5.187 81.682.62 122.327l-5.338.893c-3.843.646-9.57-.645-20.455-4.602-16.375-5.956-31.475-14.734-46.609-23.278l4.724 22.491c11.298 53.777 4.736 109.835-9.963 162.273-7.92 28.263-18.872 55.338-29.971 82.426-3.272 6.196-6.542 12.39-9.816 18.586l27.032-18.912c63.131-44.173 120.338-102.637 151.644-174.312 24.576-56.27 40.652-122.372 17.874-181.966-18.668-48.84-60.963-82.894-107.638-102.846z"/><path fill-rule="evenodd" d="M597.449 7.941C585.073 4.397 572.747 1.513 559.992 0l-3.277 1.268c9.378 11.052 17.58 22.339 23.95 35.533 7.903 16.366 13.668 33.526 19.367 50.758l-19.38 12.592c-18.38 11.945-38.036 27.034-48.475 47.033l-5.342 10.232c-.471 2.831-.942 5.664-1.411 8.496l34.921-3.489c71.666-7.162 147.594-.28 211.126 36.7 24.292 14.141 44.825 32.945 62.746 54.521l7.367-19.98c9.331-25.301 14.187-51.967 11.381-78.903-2.317-22.249-8.31-43.838-19.846-63.066-14.518-24.195-35.699-41.631-58.34-57.535l2.794 12.663c6.228 28.214-5.013 55.504-14.904 81.429l-9.6 16.697c-5.76-15.661-11.536-31.162-20.681-45.232-13.78-21.205-32.819-38.784-53.408-53.077-24.657-17.119-52.752-30.455-81.531-38.699zm337.993 129.07l-5.049-9.711h-1.777c-3.101 17-6.275 33.197-13.813 48.921-16.8 35.036-43.994 62.283-71.062 89.247l-.081.755c-.044.416 4.248 9.568 9.539 20.336 19.804 40.304 24.724 84.838 17.604 129.014-8.538 52.986-31.955 103.568-62.371 147.283-9.115 13.096-17.009 24.699-17.547 25.784l-.974 1.969 29.404-16.706c49.17-27.939 95.994-63.367 129.637-109.675 26.68-36.719 44.67-79.9 47.54-125.595 1.16-18.505-.48-36.089-3.01-54.338l-19.25 16.565c-16.66 14.337-33.61 28.299-50.628 42.203l8.958-30.587c10.23-34.913 17.35-71.001 16.67-107.531-.42-22.738-3.13-47.422-13.79-67.934zm57.81 431.137c-10.79-4.315-16.73-5.583-32.3-6.896-61.616-5.207-123.163 19.768-174.879 51.757-10.512 6.504-36.141 25.087-56.95 41.299-42.027 32.74-86.002 61.545-133.862 84.653 17.35 6.575 34.219 12.545 52.723 15.055 28.732 3.91 57.34 1.13 84.768-8.327 34.656-11.942 70.529-21.773 107.344-15.29 12.82 2.254 25.088 5.784 37.336 10.094l2.243-21.296c4.842-46.017 24.078-92.016 62.487-119.4 16.08-11.47 35.5-19.85 54.72-24.196l9.59-2.166zM124.491 225.395l-1.618-20.686c.078-.58.152-1.16.23-1.74l-15.542 23.25c-18.77 28.085-34.034 58.681-43.034 91.404-11.903 43.27-11.491 89.072 4.59 131.221 10.79 28.28 27.81 51.959 47.975 74.02 3.629-19.461 7.456-38.312 15.171-56.668 13.496-32.113 33.452-61.58 54.853-88.784 21.469-27.289 45.841-51.997 69.945-76.869l8.808-7.996 8.811-7.998-13.409-3.405c-23.111-5.867-48.107-3.563-71.143 1.477-13.856 3.03-27.059 7.223-40.132 12.635-7.872-10.924-14.875-21.532-19.119-34.545-3.598-11.038-5.168-19.714-6.386-35.316zM16.11 469.792L3.12 451.817l-.08.115-.081.116-.307 28.029c-.492 45.57 8.657 92.432 33.543 131.152 9.217 14.34 20.825 26.199 32.908 37.988-8.578 1.047-17.143.222-25.772-.113-14.692-.573-28.968-2.575-43.331-5.52l17.488 21.964c26.164 32.859 58.903 63.839 99.485 76.873 20.48 6.575 42.751 8.415 63.766 3.248l13.521-3.325c1.591-1.085 3.18-2.168 4.772-3.249-13.445-8.448-26.488-16.863-37.423-28.652-29.302-31.595-41.481-76.184-45.829-118.204-1.993-19.263-2.728-38.422-2.565-57.758-15.111-3.566-29.771-7.052-43.498-14.732-21.478-12.021-39.23-30.064-53.606-49.957z"/><path d="M124.22 829.323H73.075c-6.725 0-11.513.265-14.352.782-2.852.518-5.637 1.686-8.356 3.488-6.605 4.099-11.54 10.374-14.816 18.808-3.276 8.45-4.906 16.872-4.906 25.268 0 8.078 6.088 14.298 18.264 18.648l11.353 4.576c6.061 2.547 9.948 4.498 11.672 5.876 1.724 1.367 2.587 3.144 2.587 5.319 0 4.723-1.778 7.905-5.36 9.564-3.567 1.657-8.328 2.48-14.258 2.48H36.095c-3.568 0-6.326-.199-8.262-.61-1.884-.425-3.211-1.114-4.006-2.11-.717-.981-1.181-2.453-1.353-4.43H17.38l-5.174 20.374c-.49 2.48-.73 4.19-.73 5.132 0 3.157 1.46 5.173 4.365 6.063 2.905.981 6.539 1.472 10.903 1.472h40.428c5.742 0 10.093-.199 13.037-.584 2.932-.384 6.036-1.18 9.312-2.375 3.992-1.71 7.627-4.217 10.89-7.533 3.342-3.37 5.822-7.203 7.454-11.5 1.936-4.722 3.66-10.107 5.185-16.168 1.512-6.062 2.268-10.731 2.268-13.994 0-8.289-6.034-14.736-18.078-19.352l-14.18-6.061c-3.38-1.445-5.715-2.533-6.988-3.263-1.34-.782-2.242-1.604-2.732-2.493-.426-.823-.638-2.043-.638-3.648 0-4.403 1.646-7.281 4.908-8.621 3.276-1.352 7.759-2.03 13.45-2.03h17.534c3.754 0 6.446-.517 8.078-1.552 1.644-1.033 2.917-2.957 3.82-5.742zm118.45 0l-4.257 15.744c-.783 3.21-2.163 5.372-4.125 6.513-1.963 1.14-5.002 1.71-9.112 1.71h-14.87c-5.133 0-8.688.173-10.65.545-1.963.357-3.727 1.193-5.306 2.48-3.196 3.01-5.77 7.932-7.706 14.789-.478 1.657-1.803 5.743-3.98 12.281-2.174 6.527-3.766 11.938-4.76 16.208-.995 4.286-1.5 8.543-1.5 12.8 0 4.722 1.54 7.799 4.63 9.259 3.076 1.445 7.52 2.175 13.316 2.175h12.866c6.049 0 10.12-.411 12.242-1.247 2.11-.823 3.9-2.693 5.346-5.597h5.982l-5.982 20.068c-1.392 5.504-4.643 9.165-9.748 11.009-5.107 1.843-11.634 2.759-19.551 2.759l-10.068-.16-19.856-.306c-12.123-.317-20.465-1.922-25.015-4.828-6.79-3.925-10.186-10.954-10.186-21.062 0-7.56.756-15.439 2.268-23.622 1.512-8.197 3.608-16.341 6.26-24.445 2.666-8.117 5.69-15.904 9.086-23.37 5.266-11.182 12.23-18.185 20.876-20.983 5.386-1.818 13.198-2.72 23.424-2.72zm81.3-1.591c-15.625 0-27.681 1.419-36.197 4.271-8.501 2.85-15.4 7.838-20.664 14.988-5.996 7.308-11.076 18.025-15.253 32.15-2.547 7.15-4.603 14.551-6.182 22.216-1.578 7.667-2.361 13.98-2.361 18.955 0 12.573 5.332 21.076 15.983 25.465 7.269 3.012 18.993 4.511 35.162 4.511 8.17 0 15.359-.412 21.567-1.247 6.207-.822 11.857-2.069 16.937-3.728 4.603-1.764 8.715-4.124 12.31-7.109 3.606-2.97 6.87-6.79 9.814-11.447 2.93-4.668 5.796-10.517 8.582-17.56 4.788-12.786 8.264-25.134 10.452-37.045.597-6.99.9-11.181.9-12.575 0-11.857-3.898-20.346-11.71-25.48-3.94-2.281-8.966-3.912-15.081-4.893-6.061-.981-14.14-1.472-24.26-1.472zm-5.532 25.333c7.986 0 11.99 3.86 11.99 11.566 0 7.096-2.943 18.98-8.82 35.666-3.023 9.218-6.207 15.691-9.536 19.418-3.328 3.726-7.534 5.584-12.627 5.584-7.507 0-11.261-3.622-11.261-10.876 0-3.568.822-8.715 2.454-15.452 1.698-6.686 4.086-14.299 7.176-22.84 1.75-5.12 3.276-9.072 4.536-11.844 1.274-2.774 3.25-5.332 5.915-7.694 2.653-2.348 6.049-3.528 10.173-3.528zm141.94.225l-21.54 81.877c-.358 1.3-.544 2.414-.544 3.342 0 3.118 2.282 5.054 6.818 5.836l-.902 4.351h-42.43c-6.062 0-9.086-2.07-9.086-6.22 0-1.141.304-2.747.902-4.828l22.72-84.357h-11.724c-4.298 0-7.19.332-8.675 1.008-1.485.676-2.957 2.308-4.404 4.894h-6.088l5.359-20.638c.729-2.839 1.538-4.882 2.454-6.128.902-1.247 2.215-2.07 3.912-2.48 1.684-.412 4.298-.624 7.812-.624h75.856c2.414 0 4.27-.159 5.544-.464 1.26-.319 2.295-.863 3.09-1.631.782-.783 1.685-2.056 2.72-3.807h5.994l-5.172 20.319c-1.101 4.299-2.321 6.964-3.688 7.999-1.366 1.034-4.164 1.552-8.396 1.552zm71.934 70.537h24.048c4.788 0 8.05-.451 9.814-1.327 1.684-.928 3.078-2.877 4.166-5.823h6.538l-6.538 22.774c-.903 3.781-2.23 6.261-3.994 7.454-1.75 1.194-4.96 1.791-9.616 1.791h-62.816c-6.406 0-9.616-2.175-9.616-6.525 0-.518.119-1.526.358-3.038l24.153-92.329c.783-2.692 1.18-4.815 1.18-6.367 0-3.633-2.068-5.861-6.18-6.684l1.273-4.43h39.207c3.276 0 5.863.597 7.76 1.79 1.909 1.194 2.864 2.971 2.864 5.359 0 .981-.185 2.096-.543 3.343zm133.916-3.303h-35.971l-6.804 12.64c-1.393 3.436-2.096 5.624-2.096 6.552 0 2.401 1.883 3.927 5.637 4.603l-1.181 4.377h-37.06c-4.176 0-6.272-1.445-6.272-4.35 0-1.818.849-3.913 2.547-6.3l54.95-93.337c1.579-2.693 2.362-4.868 2.362-6.526 0-2.387-1.791-3.859-5.36-4.43l1.089-4.43h54.143c3.394 0 5.809.238 7.268.702 1.512.466 2.546 1.38 3.09 2.76.544 1.366.875 3.714.995 7.03l5.265 94.344c.186 3.369.89 5.757 2.096 7.149 1.207 1.407 3.356 2.415 6.447 3.037l-1.273 4.351h-39.514c-3.992 0-6.658-.544-7.997-1.645-1.327-1.087-1.99-3.223-1.99-6.392zm-.716-20.904l-1.552-42.947-22.708 42.947zm175.496 49.076H813.67c-3.633 0-6.021-.279-7.136-.85-1.126-.569-2.228-2.16-3.316-4.747l-23.436-54.712-12.534 46.78c-.358 1.3-.544 2.414-.544 3.342 0 2.852 2.122 4.802 6.366 5.836l-1.458 4.351h-32.788c-6.486 0-9.723-2.228-9.723-6.685 0-1.711.359-3.568 1.088-5.598l23.529-89.609c.85-3.368 1.274-5.597 1.274-6.684 0-3.409-2.003-5.544-5.995-6.367l1.539-4.43h42.417c2.785 0 4.76.345 5.903 1.048 1.153.702 2.188 2.136 3.089 4.31l20.08 47.179 10.627-41.581c0-3.528-2.056-5.703-6.182-6.526l1.459-4.43h33.332c6.42 0 9.629 2.281 9.629 6.844 0 .517-.12 1.525-.358 3.024zm47.397-108.271c0-3.568-2.03-5.797-6.088-6.685l.915-4.417h79.489c6.605 0 11.645.305 15.16.929 3.515.623 6.473 1.737 8.9 3.341 5.876 4.139 8.82 11.182 8.82 21.13 0 4.31-.543 9.682-1.631 16.129-1.088 6.459-2.56 13.17-4.404 20.133a262.329 262.329 0 01-6.353 20.559c-2.387 6.739-4.855 12.441-7.401 17.097-3.567 7.15-8.595 12.283-15.067 15.386-6.473 3.117-14.34 4.669-23.596 4.669h-64.37c-3.262 0-5.887-.305-7.891-.928-1.936-.624-2.904-2.083-2.904-4.35 0-.32.49-2.335 1.458-6.062zm40.705 13.091l-18.37 70.31h9.869c4.456 0 7.985-1.007 10.584-2.997 2.587-2.002 4.364-4.085 5.332-6.261 1.035-2.228 2.573-6.247 4.616-12.056a234.145 234.145 0 004.709-15.704c1.326-5.093 2.414-9.881 3.263-14.392.835-4.51 1.26-7.759 1.26-9.721 0-6.115-4.14-9.179-12.401-9.179z"/></g></svg>