<svg xmlns="http://www.w3.org/2000/svg" xmlns:xlink="http://www.w3.org/1999/xlink" version="1.1" width="1006.47" height="984.348">
	<g id="dp_group001" transform="matrix(1,0,0,1,-68.048,-253.444)">
		<path id="dp_path002" fill="#004b84" fill-rule="evenodd" d="M 972.727,294.579 C 969.593,291.172 967.78,290.736 955.445,290.433 L 941.664,290.096 C 941.545,306.065 941.427,322.035 941.308,338.003 L 944.968,337.719 C 948.392,337.455 948.633,336.78 948.708,327.232 C 948.789,317.281 948.889,317.04 952.767,317.368 C 955.821,317.627 958.193,320.067 963.005,327.903 C 968.291,336.512 969.881,338.039 973.209,337.696 L 977.156,337.292 C 973.117,330.841 969.08,324.391 965.041,317.937 L 970.169,314.692 C 976.729,310.541 978.1,300.427 972.727,294.579 Z M 965.656,298.732 C 961.083,295.865 954.247,296.796 949.075,296.796 C 948.979,301.667 948.885,306.535 948.789,311.405 L 957.645,310.695 C 965.935,310.031 966.571,309.688 967.621,305.328 C 968.513,301.629 968.108,300.271 965.656,298.732 Z "/>
		<path id="dp_path003" fill="#004b84" fill-rule="evenodd" d="M 972.757,276.105 C 957.307,270.564 938.847,273.353 927.143,285.681 C 908.683,305.124 914.327,338.084 937.943,350.328 C 961.368,362.473 991.113,349.573 997.28,323.391 C 1001.79,304.26 991.551,282.845 972.757,276.105 Z M 970.811,283.541 C 966.943,281.955 963.664,280.631 959.524,280.244 C 950.405,279.391 939.584,284.12 933.5,290.753 C 917.429,308.285 924.448,338.152 946.884,345.969 C 963.259,351.676 981.184,342.9 987.379,326.593 C 993.379,310.805 987.125,290.236 970.811,283.541 Z "/>
		<path id="dp_path004" fill="#004b84" fill-rule="evenodd" d="M 600.597,461.953 L 579.117,460.352 C 567.431,460.352 556.228,462.103 544.625,463.776 C 481.751,472.848 420.016,506.799 378.847,555.832 C 347.7,592.931 324.676,644.375 338.455,693.467 C 346.76,723.064 367.437,746.331 394.051,760.672 C 443.887,787.531 505.977,782.744 557.799,764.723 C 613.88,745.216 667.341,707.221 698.121,655.177 C 720.905,616.652 731.585,567.687 710.033,526.183 C 688.911,485.501 644.205,465.201 600.597,461.953 Z "/>
		<path id="dp_path005" fill="#004b84" fill-rule="evenodd" d="M 271.744,752.996 L 264.485,718.332 C 262.405,703.673 260.325,689.015 258.244,674.356 L 242.847,705.911 C 221.484,749.696 203.749,798.028 209.745,847.608 C 216.005,899.372 248.643,941.583 288.891,972.281 C 360.017,1026.53 455.449,1023.43 538.361,1004.8 C 573.411,996.929 607.169,985.064 641.073,973.323 C 648.383,969.864 655.691,966.407 662.997,962.951 L 666.409,937.024 C 671.601,897.552 668.791,857.827 660.981,818.9 C 655.965,793.893 649.557,769.329 642.58,744.829 C 623.521,755.389 604.46,765.949 585.401,776.509 L 593.685,798.345 C 604.236,826.151 609.699,855.559 607.56,885.329 C 606.219,903.977 601.497,921.171 596.136,938.92 C 577.361,939.004 559.163,938.847 540.672,934.877 C 497.628,925.64 459.053,900.875 427.149,870.88 C 407.088,852.016 389.985,830.113 373.685,807.919 L 371.663,825.049 C 369.676,841.887 364.997,859.748 353.553,872.757 C 348.671,878.307 343.153,882.1 336.7,885.392 L 326.405,876.747 C 307.113,860.549 296.296,835.088 287.836,811.888 C 281.357,794.117 277.068,778.423 271.744,752.996 Z "/>
		<path id="dp_path006" fill="#004b84" fill-rule="evenodd" d="M 559.169,282.732 C 563.365,268.883 566.445,257.425 566.016,257.269 L 565.236,256.991 L 531.861,260.003 C 451.929,267.213 374.172,295.092 308.177,341.416 C 286.336,356.748 266.708,374.619 247.157,392.731 C 241.356,399.368 235.553,406.008 229.751,412.648 L 247.337,417.855 C 284.293,428.801 315.653,453.272 340.28,482.712 C 350.499,494.929 358.673,508.171 366.349,522.067 L 397.244,502.183 C 433.672,478.737 472.445,457.723 513.188,442.985 C 527.877,437.672 542.601,432.705 557.728,428.865 C 552.444,411.451 547.66,394.599 546.459,376.279 C 544.384,344.716 550.051,312.849 559.169,282.732 Z "/>
		<path id="dp_path007" fill="#004b84" fill-rule="evenodd" d="M 794.349,466.121 C 781.451,460.607 768.427,456.399 754.815,453.26 L 768.388,464.793 C 797.78,489.768 814.325,525.692 822.245,563.041 C 830.804,603.388 827.432,644.723 822.865,685.368 L 817.527,686.261 C 813.684,686.907 807.957,685.616 797.072,681.659 C 780.697,675.703 765.597,666.925 750.463,658.381 L 755.187,680.872 C 766.485,734.649 759.923,790.707 745.224,843.145 C 737.304,871.408 726.352,898.483 715.253,925.571 C 711.981,931.767 708.711,937.961 705.437,944.157 L 732.469,925.245 C 795.6,881.072 852.807,822.608 884.113,750.933 C 908.689,694.663 924.765,628.561 901.987,568.967 C 883.319,520.127 841.024,486.073 794.349,466.121 Z "/>
		<path id="dp_path008" fill="#004b84" fill-rule="evenodd" d="M 665.497,261.385 C 653.121,257.841 640.795,254.957 628.04,253.444 C 626.948,253.867 625.856,254.289 624.763,254.712 C 634.141,265.764 642.343,277.051 648.713,290.245 C 656.616,306.611 662.381,323.771 668.08,341.003 L 648.7,353.595 C 630.32,365.54 610.664,380.629 600.225,400.628 L 594.883,410.86 C 594.412,413.691 593.941,416.524 593.472,419.356 L 628.393,415.867 C 700.059,408.705 775.987,415.587 839.519,452.567 C 863.811,466.708 884.344,485.512 902.265,507.088 L 909.632,487.108 C 918.963,461.807 923.819,435.141 921.013,408.205 C 918.696,385.956 912.703,364.367 901.167,345.139 C 886.649,320.944 865.468,303.508 842.827,287.604 L 845.621,300.267 C 851.849,328.481 840.608,355.771 830.717,381.696 C 827.517,387.261 824.317,392.828 821.117,398.393 C 815.357,382.732 809.581,367.231 800.436,353.161 C 786.656,331.956 767.617,314.377 747.028,300.084 C 722.371,282.965 694.276,269.629 665.497,261.385 Z "/>
		<path id="dp_path009" fill="#004b84" fill-rule="evenodd" d="M 1003.49,390.455 L 998.441,380.744 C 997.848,380.744 997.257,380.744 996.664,380.744 C 993.563,397.744 990.389,413.941 982.851,429.665 C 966.051,464.701 938.857,491.948 911.789,518.912 L 911.708,519.667 C 911.664,520.083 915.956,529.235 921.247,540.003 C 941.051,580.307 945.971,624.841 938.851,669.017 C 930.313,722.003 906.896,772.585 876.48,816.3 C 867.365,829.396 859.471,840.999 858.933,842.084 L 857.959,844.053 L 887.363,827.347 C 936.533,799.408 983.357,763.98 1017,717.672 C 1043.68,680.953 1061.67,637.772 1064.54,592.077 C 1065.7,573.572 1064.06,555.988 1061.53,537.739 L 1042.28,554.304 C 1025.62,568.641 1008.67,582.603 991.652,596.507 L 1000.61,565.92 C 1010.84,531.007 1017.96,494.919 1017.28,458.389 C 1016.86,435.651 1014.15,410.967 1003.49,390.455 Z "/>
		<path id="dp_path010" fill="#004b84" fill-rule="evenodd" d="M 1061.3,821.592 C 1050.51,817.277 1044.57,816.009 1029,814.696 C 967.384,809.489 905.837,834.464 854.121,866.453 C 843.609,872.957 817.98,891.54 797.171,907.752 C 755.144,940.492 711.169,969.297 663.309,992.405 C 680.659,998.98 697.528,1004.95 716.032,1007.46 C 744.764,1011.37 773.372,1008.59 800.8,999.133 C 835.456,987.191 871.329,977.36 908.144,983.843 C 920.964,986.097 933.232,989.627 945.48,993.937 L 947.723,972.641 C 952.565,926.624 971.801,880.625 1010.21,853.241 C 1026.29,841.771 1045.71,833.391 1064.93,829.045 L 1074.52,826.879 Z "/>
		<path id="dp_path011" fill="#004b84" fill-rule="evenodd" d="M 192.539,478.839 L 190.921,458.153 C 190.999,457.573 191.073,456.993 191.151,456.413 L 175.609,479.663 C 156.839,507.748 141.575,538.344 132.575,571.067 C 120.672,614.337 121.084,660.139 137.165,702.288 C 147.955,730.568 164.975,754.247 185.14,776.308 C 188.769,756.847 192.596,737.996 200.311,719.64 C 213.807,687.527 233.763,658.06 255.164,630.856 C 276.633,603.567 301.005,578.859 325.109,553.987 L 333.917,545.991 L 342.728,537.993 L 329.319,534.588 C 306.208,528.721 281.212,531.025 258.176,536.065 C 244.32,539.095 231.117,543.288 218.044,548.7 C 210.172,537.776 203.169,527.168 198.925,514.155 C 195.327,503.117 193.757,494.441 192.539,478.839 Z "/>
		<path id="dp_path012" fill="#004b84" fill-rule="evenodd" d="M 84.1587,723.236 L 71.168,705.261 L 71.088,705.376 L 71.0067,705.492 L 70.7,733.521 C 70.208,779.091 79.3573,825.953 104.243,864.673 C 113.46,879.013 125.068,890.872 137.151,902.661 C 128.573,903.708 120.008,902.883 111.379,902.548 C 96.6867,901.975 82.4107,899.973 68.048,897.028 L 85.536,918.992 C 111.7,951.851 144.439,982.831 185.021,995.865 C 205.501,1002.44 227.772,1004.28 248.787,999.113 L 262.308,995.788 C 263.899,994.703 265.488,993.62 267.08,992.539 C 253.635,984.091 240.592,975.676 229.657,963.887 C 200.355,932.292 188.176,887.703 183.828,845.683 C 181.835,826.42 181.1,807.261 181.263,787.925 C 166.152,784.359 151.492,780.873 137.765,773.193 C 116.287,761.172 98.5347,743.129 84.1587,723.236 Z "/>
		<g id="dp_dp013" transform="matrix(1,0,0,1,86.6886,1202.14)">
			<path id="dp_path014" fill="#004b84" d="M 105.579,-119.373 L 54.4347,-119.373 C 47.7093,-119.373 42.9213,-119.108 40.0827,-118.591 C 37.2307,-118.073 34.4453,-116.905 31.7267,-115.103 C 25.1213,-111.004 20.1867,-104.729 16.9107,-96.2947 C 13.6347,-87.8453 12.004,-79.4227 12.004,-71.0267 C 12.004,-62.9493 18.092,-56.7293 30.268,-52.3787 L 41.6213,-47.8027 C 47.6827,-45.256 51.5693,-43.3053 53.2933,-41.9267 C 55.0173,-40.56 55.88,-38.7827 55.88,-36.608 C 55.88,-31.8853 54.1027,-28.7027 50.5213,-27.044 C 46.9533,-25.3867 42.192,-24.564 36.2627,-24.564 L 17.4547,-24.564 C 13.8867,-24.564 11.128,-24.7627 9.192,-25.1747 C 7.308,-25.5987 5.98133,-26.288 5.18667,-27.284 C 4.46933,-28.2653 4.00533,-29.7373 3.83333,-31.7133 L -1.26,-31.7133 L -6.43333,-11.34 C -6.924,-8.86 -7.16267,-7.14933 -7.16267,-6.208 C -7.16267,-3.05067 -5.704,-1.03467 -2.79867,-0.145333 C 0.106667,0.836 3.74,1.32667 8.104,1.32667 L 48.532,1.32667 C 54.2747,1.32667 58.6253,1.128 61.5693,0.742667 C 64.5013,0.358667 67.6053,-0.437333 70.8813,-1.632 C 74.8733,-3.34267 78.508,-5.84933 81.7707,-9.16533 C 85.1133,-12.5347 87.5933,-16.368 89.2253,-20.6653 C 91.1613,-25.3867 92.8853,-30.772 94.4107,-36.8333 C 95.9227,-42.8947 96.6787,-47.564 96.6787,-50.8267 C 96.6787,-59.116 90.644,-65.5627 78.6,-70.1787 L 64.4213,-76.24 C 61.04,-77.6853 58.7053,-78.7733 57.432,-79.5027 C 56.092,-80.2853 55.1907,-81.1067 54.7,-81.996 C 54.2747,-82.8187 54.0627,-84.0387 54.0627,-85.644 C 54.0627,-90.0467 55.708,-92.9253 58.9707,-94.2653 C 62.2467,-95.6173 66.7293,-96.2947 72.42,-96.2947 L 89.9547,-96.2947 C 93.708,-96.2947 96.4,-96.812 98.032,-97.8467 C 99.676,-98.88 100.949,-100.804 101.852,-103.589 Z "/>
			<path id="dp_path015" fill="#004b84" d="M 224.029,-119.373 L 219.772,-103.629 C 218.989,-100.419 217.609,-98.2573 215.647,-97.116 C 213.684,-95.976 210.645,-95.4053 206.535,-95.4053 L 191.665,-95.4053 C 186.532,-95.4053 182.977,-95.2333 181.015,-94.8613 C 179.052,-94.504 177.288,-93.668 175.709,-92.3813 C 172.513,-89.3707 169.94,-84.4493 168.003,-77.592 C 167.525,-75.9347 166.2,-71.8493 164.024,-65.3107 C 161.849,-58.784 160.257,-53.3733 159.263,-49.1027 C 158.268,-44.8173 157.764,-40.56 157.764,-36.3027 C 157.764,-31.5813 159.303,-28.504 162.393,-27.044 C 165.469,-25.5987 169.913,-24.8693 175.709,-24.8693 L 188.575,-24.8693 C 194.624,-24.8693 198.696,-25.28 200.817,-26.116 C 202.927,-26.9387 204.717,-28.8093 206.163,-31.7133 L 212.145,-31.7133 L 206.163,-11.6453 C 204.771,-6.14133 201.52,-2.48 196.415,-0.636 C 191.308,1.20667 184.781,2.12267 176.864,2.12267 L 166.796,1.96267 L 146.94,1.65733 C 134.817,1.34 126.475,-0.265333 121.925,-3.17067 C 115.135,-7.096 111.739,-14.1253 111.739,-24.2333 C 111.739,-31.7933 112.495,-39.672 114.007,-47.8547 C 115.519,-56.052 117.615,-64.196 120.268,-72.3 C 122.933,-80.4173 125.957,-88.204 129.353,-95.6707 C 134.619,-106.852 141.583,-113.855 150.229,-116.653 C 155.615,-118.471 163.427,-119.373 173.653,-119.373 Z "/>
			<path id="dp_path016" fill="#004b84" d="M 305.329,-120.964 C 289.704,-120.964 277.648,-119.545 269.132,-116.693 C 260.631,-113.843 253.733,-108.855 248.468,-101.705 C 242.472,-94.3973 237.392,-83.68 233.215,-69.5547 C 230.668,-62.4053 228.612,-55.004 227.033,-47.3387 C 225.455,-39.672 224.672,-33.3587 224.672,-28.384 C 224.672,-15.8107 230.004,-7.308 240.655,-2.91867 C 247.924,0.0933333 259.648,1.592 275.817,1.592 C 283.988,1.592 291.176,1.18 297.384,0.345333 C 303.591,-0.477333 309.241,-1.724 314.321,-3.38267 C 318.924,-5.14667 323.036,-7.50667 326.631,-10.492 C 330.237,-13.4627 333.501,-17.2827 336.445,-21.9387 C 339.376,-26.6067 342.241,-32.456 345.027,-39.4987 C 349.815,-52.2853 353.291,-64.6333 355.479,-76.544 C 356.076,-83.5347 356.38,-87.7253 356.38,-89.1187 C 356.38,-100.976 352.481,-109.465 344.669,-114.599 C 340.729,-116.88 335.703,-118.511 329.588,-119.492 C 323.527,-120.473 315.449,-120.964 305.329,-120.964 Z M 299.797,-95.6307 C 307.783,-95.6307 311.788,-91.7707 311.788,-84.0653 C 311.788,-76.9693 308.844,-65.0853 302.968,-48.3987 C 299.944,-39.1813 296.76,-32.708 293.431,-28.9813 C 290.103,-25.2547 285.897,-23.3973 280.804,-23.3973 C 273.297,-23.3973 269.543,-27.0187 269.543,-34.2733 C 269.543,-37.8413 270.365,-42.988 271.997,-49.7253 C 273.695,-56.4107 276.083,-64.024 279.173,-72.5653 C 280.924,-77.6853 282.449,-81.6373 283.709,-84.4093 C 284.983,-87.1827 286.959,-89.7413 289.624,-92.1027 C 292.277,-94.4507 295.673,-95.6307 299.797,-95.6307 Z "/>
			<path id="dp_path017" fill="#004b84" d="M 441.737,-95.4053 L 420.197,-13.5293 C 419.839,-12.2293 419.653,-11.1147 419.653,-10.1867 C 419.653,-7.06933 421.935,-5.13333 426.471,-4.35067 L 425.569,0 L 383.139,0 C 377.077,0 374.053,-2.06933 374.053,-6.22 C 374.053,-7.36133 374.357,-8.96667 374.955,-11.048 L 397.676,-95.4053 L 385.951,-95.4053 C 381.653,-95.4053 378.761,-95.0733 377.276,-94.3973 C 375.791,-93.7213 374.319,-92.0893 372.872,-89.5027 L 366.784,-89.5027 L 372.143,-110.141 C 372.872,-112.98 373.681,-115.023 374.597,-116.269 C 375.499,-117.516 376.812,-118.339 378.509,-118.749 C 380.193,-119.161 382.807,-119.373 386.321,-119.373 L 462.177,-119.373 C 464.591,-119.373 466.448,-119.532 467.721,-119.837 C 468.981,-120.156 470.016,-120.7 470.812,-121.468 C 471.593,-122.251 472.496,-123.524 473.531,-125.275 L 479.525,-125.275 L 474.353,-104.956 C 473.252,-100.657 472.032,-97.992 470.665,-96.9573 C 469.299,-95.9227 466.501,-95.4053 462.269,-95.4053 Z "/>
			<path id="dp_path018" fill="#004b84" d="M 513.671,-24.8693 L 537.719,-24.8693 C 542.507,-24.8693 545.769,-25.32 547.533,-26.196 C 549.217,-27.124 550.611,-29.0733 551.699,-32.0187 L 558.237,-32.0187 L 551.699,-9.24533 C 550.796,-5.464 549.469,-2.984 547.705,-1.79067 C 545.955,-0.597333 542.745,0 538.089,0 L 475.273,0 C 468.867,0 465.657,-2.17467 465.657,-6.52533 C 465.657,-7.04267 465.776,-8.05067 466.015,-9.56267 L 490.168,-101.892 C 490.951,-104.584 491.348,-106.707 491.348,-108.259 C 491.348,-111.892 489.28,-114.12 485.168,-114.943 L 486.441,-119.373 L 525.648,-119.373 C 528.924,-119.373 531.511,-118.776 533.408,-117.583 C 535.317,-116.389 536.272,-114.612 536.272,-112.224 C 536.272,-111.243 536.087,-110.128 535.729,-108.881 Z "/>
			<path id="dp_path019" fill="#004b84" d="M 647.587,-28.172 L 611.616,-28.172 L 604.812,-15.532 C 603.419,-12.096 602.716,-9.908 602.716,-8.98 C 602.716,-6.57867 604.599,-5.05333 608.353,-4.37733 L 607.172,0 L 570.113,0 C 565.936,0 563.84,-1.44533 563.84,-4.35067 C 563.84,-6.168 564.689,-8.26267 566.387,-10.6507 L 621.337,-103.987 C 622.916,-106.68 623.699,-108.855 623.699,-110.513 C 623.699,-112.9 621.908,-114.372 618.34,-114.943 L 619.428,-119.373 L 673.571,-119.373 C 676.965,-119.373 679.38,-119.135 680.839,-118.671 C 682.351,-118.205 683.385,-117.291 683.929,-115.911 C 684.473,-114.545 684.804,-112.197 684.924,-108.881 L 690.189,-14.5373 C 690.375,-11.168 691.079,-8.78 692.285,-7.388 C 693.492,-5.98133 695.641,-4.97333 698.732,-4.35067 L 697.459,0 L 657.945,0 C 653.953,0 651.287,-0.544 649.948,-1.64533 C 648.621,-2.732 647.959,-4.868 647.959,-8.03733 Z M 646.871,-49.076 L 645.319,-92.0227 L 622.611,-49.076 Z "/>
			<path id="dp_path020" fill="#004b84" d="M 822.367,0 L 795.029,0 C 791.396,0 789.008,-0.278667 787.893,-0.849333 C 786.767,-1.41867 785.665,-3.01067 784.577,-5.59733 L 761.141,-60.3093 L 748.607,-13.5293 C 748.249,-12.2293 748.063,-11.1147 748.063,-10.1867 C 748.063,-7.33467 750.185,-5.38533 754.429,-4.35067 L 752.971,0 L 720.183,0 C 713.697,0 710.46,-2.228 710.46,-6.68533 C 710.46,-8.396 710.819,-10.2533 711.548,-12.2827 L 735.077,-101.892 C 735.927,-105.26 736.351,-107.489 736.351,-108.576 C 736.351,-111.985 734.348,-114.12 730.356,-114.943 L 731.895,-119.373 L 774.312,-119.373 C 777.097,-119.373 779.073,-119.028 780.215,-118.325 C 781.368,-117.623 782.403,-116.189 783.304,-114.015 L 803.385,-66.836 L 814.011,-108.417 C 814.011,-111.945 811.955,-114.12 807.829,-114.943 L 809.288,-119.373 L 842.62,-119.373 C 849.04,-119.373 852.249,-117.092 852.249,-112.529 C 852.249,-112.012 852.129,-111.004 851.891,-109.505 Z "/>
			<path id="dp_path021" fill="#004b84" d="M 869.764,-108.271 C 869.764,-111.839 867.735,-114.068 863.676,-114.956 L 864.591,-119.373 L 944.08,-119.373 C 950.685,-119.373 955.725,-119.068 959.24,-118.444 C 962.755,-117.821 965.713,-116.707 968.14,-115.103 C 974.016,-110.964 976.961,-103.921 976.961,-93.9733 C 976.961,-89.6627 976.417,-84.2907 975.329,-77.844 C 974.241,-71.3853 972.769,-64.6733 970.925,-57.7107 C 969.083,-50.7467 966.96,-43.8893 964.572,-37.152 C 962.185,-30.4133 959.717,-24.7107 957.171,-20.0547 C 953.604,-12.9053 948.576,-7.772 942.104,-4.66933 C 935.631,-1.552 927.765,0 918.508,0 L 854.139,0 C 850.876,0 848.251,-0.305333 846.247,-0.928 C 844.311,-1.552 843.343,-3.01067 843.343,-5.27867 C 843.343,-5.59733 843.833,-7.61333 844.801,-11.34 Z M 910.469,-95.18 L 892.1,-24.8693 L 901.968,-24.8693 C 906.424,-24.8693 909.953,-25.8773 912.552,-27.8667 C 915.139,-29.8693 916.916,-31.952 917.884,-34.128 C 918.919,-36.356 920.457,-40.3747 922.5,-46.184 C 924.317,-51.5693 925.883,-56.808 927.209,-61.888 C 928.535,-66.9813 929.623,-71.7693 930.472,-76.28 C 931.307,-80.7893 931.732,-84.0387 931.732,-86.0013 C 931.732,-92.116 927.593,-95.18 919.331,-95.18 Z "/>
		</g>
	</g>
</svg>