<svg xmlns="http://www.w3.org/2000/svg" width="1000" height="1000"><path d="M962.104 229.375c-19.355-12.896-34.177-29.119-40.358-32.854-6.173-3.752-14.918-9.153-36.656-9.153 0 0-11.524-17.478-18.945-25.372-7.412-7.902-18.951-17.467-35.834-24.122-16.886-6.656-40.777-18.298-54.771-31.194-14.001-12.892-22.656-25.787-57.663-26.207 0 0 12.354 8.321 19.767 18.302 7.408 9.979 16.063 27.034 24.714 37.014 8.651 9.988 20.591 20.799 32.534 29.12 11.943 8.317 21.425 17.882 18.944 22.045 0 0-39.946-5.825-76.192 2.493 0 0 16.471 49.498 65.491 64.472 0 0 1.639.411-1.649 5.824-3.293 5.402-44.07 64.049-98.438 99.41-54.371 35.34-94.736 57.385-181.634 76.109 0 0-90.197 13.719-110.372 19.132-20.19 5.409-35.015 11.643-58.495 38.27 0 0-7.004 1.661-21.417-2.505-14.413-4.155-21.825-3.735-39.946-.831-18.133 2.908-30.057 6.659-56.433 2.081-26.353-4.57-43.995-12.892-48.186-15.393-3.293-2.493 5.358 20.802 11.54 29.535 6.173 8.733 19.763 26.615 43.238 28.692 23.483 2.089 38.301-6.647 47.778-9.137 9.474-2.505 17.713-5.413 30.064-1.255 9.807 3.297 12.363 3.328 10.293 7.902-2.058 4.578-6.992 24.538-9.051 47.833-2.069 23.291-3.712 39.1-28.426 52.815-24.715 13.73-59.302 24.126-84.016 17.065 0 0-18.121 32.44-35.827 46.579-17.722 14.135-48.189 36.18-69.611 45.328-21.421 9.16-26.355 11.653-31.307 10.403l-8.239 11.646-18.525-.415L0 826.648s19.352 7.486 44.058-.835c24.715-8.317 103.799-58.235 136.737-79.857 32.961-21.633 72.232-46.908 109.356-56.001 40.347-6.645 100.338-25.091 129.164-36.74 28.838-11.646 91.895-48.26 120.631-68.643 0 0 4.899-3.857 12.774-2.078 11.531 1.254 27.59 4.579 33.771 3.748 6.233.227 60.953-23.295 74.954-30.367 14.006-7.074 78.255-42.839 89.379-48.24 11.12-5.413 18.12-8.745 15.239-4.162-2.889 4.57-27.191 30.358-39.542 39.507-12.355 9.148-22.236 19.552-27.6 15.389-5.35-4.155-3.015-7.2-17.302 1.247-11.112 6.663-62.59 35.775-62.59 35.775s41.185 17.055 70.011 13.73c28.834-3.331 42.991-12.504 59.874-24.146 16.882-11.649 45.562-37.003 52.979-46.154 7.409-9.149 22.963-29.164 33.256-43.714 9.697-14.848 37.029-65.95 39.092-71.363 0 0-.584-.152-64.245-.152 0 0 33.495-46.986 43.783-66.53 10.313-19.548 29.666-61.137 30.896-65.719 1.242-4.566 2.062-2.904 14.425-2.077 12.343.835 41.185-1.247 51.478-3.32 12.45-2.05 30.327-6.898 38.715-8.745 0 0 7.677-5.304 10.706-11.226v-17.467c.001 0-18.523-6.244-37.895-19.133"/><path fill="#FFC425" d="M782.634 210.891s51.403 2.21 53.144 3.535c1.757 1.325 14.434 23.645 14.434 23.645s-38.483.638-67.578-27.18m95.97 4.072s.032-.004.091-.008c-4.932-5.684-29.316-34.458-29.316-34.458-7.706-11.442-23.797-28.364-26.392-31.069a85.53 85.53 0 00-5.44-2.817c-19.355-9.148-35.008-20.387-40.369-24.546-4.661-3.618-26.714-22.935-32.671-29.284 5.871 8.419 28.728 42.792 56.146 60.901 32.135 21.205 37.065 39.088 38.316 50.322 0 0-37.484-13.308-81.555-4.16 0 0-.42 23.292 65.072 51.162 0 0-35.016 60.312-80.316 98.154-45.305 37.853-90.601 66.13-163.097 87.767-72.712 18.18-125.201 22.46-145.388 27.03-20.183 4.567-51.486 10.396-72.073 42.839 0 0-7.832 1.247-27.191-3.323-18.556-4.383-29.19-7.216-51.811-.851-.589.325-10.529 5.828-22.837 11.692-11.916 6.049-21.849 6.671-22.308 6.699 5.981 1.665 18.208 3.786 32.711-.902 20.595-6.659 18.944-9.151 33.364-9.151 14.405 0 16.887-.831 45.708 12.476 0 0-9.881 20.383-13.169 47.002-3.301 26.615-1.251 53.234-34.189 73.201-32.945 19.964-76.611 22.464-86.904 21.21 0 0-12.359 32.024-67.13 64.473-54.778 32.443-65.902 31.193-69.203 33.271-3.293 2.09-6.174 11.227-8.643 13.315l-20.184-1.246s-26.356 34.933-25.532 37.425c.819 2.498 19.763 4.575 63.421-21.617 43.666-26.215 82.374-55.327 107.499-69.885 25.122-14.55 54.779-30.778 72.896-37.426 18.121-6.66 67.115-15.93 85.04-22.049.02-.012 21.088-9.886 40.949-43.164l-.012.027s19.242-48.351 28.943-71.046c9.694-22.699 16.361-23.636 38.179-22.425 21.821 1.211 55.758-4.241 96.363-13.335 40.608-9.09 85.152-38.331 92.122-43.027 6.969-4.7 11.971-5.433 14.244-5.433s10.908 1.944 10.908 1.944l71.019 15.001-5.448.442c.944-.047 1.882-.09 2.85-.141l48.852-1.818-.184.069c.16-.039.325-.069.486-.105 0 0-13.583 55.731-90.605 97.735 0 0-7.425-6.318-10.302-7.546-2.893.42-42.008 21.692-39.131 23.362 2.881 1.662 35.831 11.642 65.483-2.085 29.657-13.731 69.604-43.255 95.137-83.602 25.545-40.346 32.275-50.818 40.934-69.947 0 0-38.785.913-65.628.493-6.864.322-11.528.511-15.014.507.663-.553 1.843-1.568 3.435-3.007-2.18 1.948-3.398 2.92-3.398 2.92h-2.427.004s-26.666-1.521-27.606-16.977c-.94-15.451 17.321-26.588 40.789-52.729 23.464-26.133 65.068-85.493 65.068-85.493s-2.403 4.178-6.437 11.011c13.351-22.002 19.398-36.576 19.398-36.576 6.361-16.06 14.021-17.929 19.466-18.536 4.942-.553 13.241-.497 14.734-.482l-17.717-22.184z"/><path fill="#FFF" d="M259.771 514.314c12.692-6.041 22.896-11.721 22.896-11.721l-10.972 1.666s-32.239 6.848-67.407-9.51c0 0 1.775 8.118 11.47 15.871 4.902 3.924 12.072 7.648 21.668 10.396-.001.001 10.147-.505 22.345-6.702m532.349-36.175l-48.855 1.819c-.965.046-1.901.093-2.846.137l-61.635 5.014c-101.212 58.787-200.303 59.697-221.211 60.908-20.907 1.212-23.334 9.999-25.756 12.422-.753.757-4.696 6.812-9.769 14.793-5.931 9.76-13.111 21.605-21.656 34.572-3.756 6.048-6.304 10.168-6.304 10.168l.012-.027c-19.873 33.29-40.949 43.164-40.949 43.164 51.886-14.118 110.588-46.158 127.074-55.738 16.479-9.557 52.306-36.596 55.197-38.673 2.882-2.081 46.528 3.74 53.948 3.74 7.429 0 86.094-39.939 114.096-54.9 28.004-14.975 88.654-37.399 88.654-37.399m-15.389-44.129c-.066.06-.091.079-.157.138-.098.086-.242.22-.337.306.169-.15.318-.283.494-.444m214.306-181.477c-5.688-2.454-28.168-11.857-41.688-21.669-16.066-11.641-23.91-23.275-37.923-27.873-14.01-4.57-29.25-4.144-31.315-3.739 0 0-20.026-36.909-57.491-50.205 0 0 .032.091.086.229.095.05.188.102.278.152 2.596 2.705 18.689 19.626 26.396 31.068 0 0 24.385 28.778 29.312 34.458.87-.09 8.008-.784 14.417.008 6.836.848 16.173 8.636 27.967 18.333 11.215 9.224 36.376 19.587 38.911 20.621.039.017.028.013.06.024.02.008.071.027.087.035h.004c.035.016.117.047.117.047-2.646.925-5.985 1-9.697.51-16.914-2.238-41.679-16.354-45.356-16.898-3.856-.572-7.639-.518-8.623-.49v.009s-.078 0-.195-.004c-.036.004-.059.004-.059.004v-.004c-1.494-.012-9.792-.067-14.735.485-5.444.608-13.104 2.474-19.469 18.533 0 0-6.816 16.439-21.971 40.757-8.561 14.473-31.907 52.545-49.62 73.336-17.69 20.79-33.118 44.618-29.41 55.429 3.708 10.83 9.799 11.242 9.799 11.242h2.415s.012-.013.021-.016c.098-.079 1.261-1.024 3.221-2.768 12.497-11.128 59.42-57.018 101.099-151.95 0 0 .765-1.933-12.127-22.252.07-.192.145-.389.215-.58 4.245 4.226 15.781 15.021 24.68 17.012.869.195 1.696.368 2.505.529 2.449.639 7.075 1.653 13.46 2.289.169-.113.372-.243.544-.357-.176.118-.384.251-.561.365 8.161.815 19.219.992 32.397-1.066 29.092-4.543 44.85-9.999 44.85-9.999s-3.233-5.735-12.226-9.988l-.051-.026c12.204 3.766 19.398-4.051 19.676-5.591"/><path d="M176.019 851.447c-2.221-1.808-4.193-3.33-5.92-4.562-1.727-1.234-3.392-2.221-4.995-2.961-1.604-.739-3.188-1.273-4.748-1.604a24.034 24.034 0 00-4.934-.493c-3.126 0-5.593.679-7.4 2.036-1.81 1.356-2.713 3.187-2.713 5.488 0 1.232.164 2.323.493 3.268.328.946 1.006 2.016 2.035 3.207 1.027 1.192 2.485 2.611 4.379 4.255 1.89 1.646 4.439 3.742 7.646 6.29 2.547 2.056 4.706 3.968 6.475 5.734 1.768 1.77 3.164 3.558 4.193 5.365a21.108 21.108 0 012.22 5.611c.451 1.934.679 4.052.679 6.353 0 4.358-.863 8.367-2.59 12.024a28.575 28.575 0 01-7.216 9.497c-3.083 2.673-6.764 4.77-11.038 6.29-4.275 1.521-8.922 2.282-13.937 2.282-9.456 0-17.679-1.646-24.666-4.934l-2.344-17.637c2.713 2.056 5.18 3.782 7.399 5.18 2.221 1.399 4.317 2.528 6.29 3.392 1.974.863 3.904 1.501 5.797 1.912 1.891.412 3.823.616 5.797.616 3.946 0 7.132-.966 9.559-2.898 2.424-1.931 3.638-4.46 3.638-7.585 0-1.314-.165-2.507-.493-3.577-.329-1.066-.968-2.219-1.911-3.453-.947-1.233-2.304-2.651-4.07-4.255-1.77-1.604-4.091-3.596-6.969-5.981-2.713-2.221-4.995-4.296-6.845-6.229-1.85-1.931-3.33-3.802-4.44-5.611-1.109-1.808-1.892-3.639-2.343-5.488-.453-1.851-.679-3.843-.679-5.981 0-4.028.802-7.688 2.405-10.977 1.604-3.288 3.885-6.105 6.846-8.449 2.96-2.343 6.555-4.132 10.791-5.364 4.234-1.234 8.941-1.851 14.122-1.851 3.863 0 7.378.33 10.545.986 3.164.659 6.475 1.687 9.929 3.084l-.987 17.02zm32.804 47.514c-.493 2.217-.884 4.27-1.172 6.158s-.431 3.407-.431 4.555c0 1.396.225 2.628.678 3.695.451 1.066 1.376 2.543 2.775 4.432h-35.521c1.48-1.15 2.754-2.281 3.823-3.392a16.54 16.54 0 002.713-3.762c.741-1.397 1.397-3.021 1.974-4.871.574-1.851 1.15-4.132 1.727-6.845l10.606-47.978c1.068-4.768 1.604-8.345 1.604-10.729 0-1.314-.228-2.486-.679-3.515-.453-1.028-1.378-2.569-2.775-4.626h30.711c3.78 0 7.008.062 9.681.186 2.672.123 4.995.329 6.969.616 1.974.289 3.679.699 5.119 1.233a24.173 24.173 0 014.008 1.912c2.301 1.398 4.089 3.452 5.365 6.167 1.273 2.713 1.911 5.796 1.911 9.249 0 4.193-.721 8.038-2.158 11.532-1.439 3.496-3.475 6.496-6.104 9.003-2.633 2.51-5.778 4.461-9.436 5.858-3.659 1.398-7.708 2.097-12.148 2.097-2.633 0-4.934-.186-6.906-.555-1.974-.37-4.153-1.049-6.537-2.035 2.631-.164 4.749-.532 6.352-1.106 1.604-.572 3.062-1.475 4.379-2.704 2.22-2.212 3.986-5.16 5.304-8.849a33.82 33.82 0 001.973-11.43c0-7.209-3.083-10.814-9.25-10.814h-2.097l-12.458 56.518zm40.823 18.84c1.48-1.15 2.754-2.281 3.823-3.392a16.54 16.54 0 002.713-3.762c.741-1.397 1.397-3.021 1.974-4.871.574-1.851 1.15-4.132 1.727-6.845l10.606-47.978c1.068-4.604 1.604-8.18 1.604-10.729 0-1.314-.229-2.486-.679-3.515-.453-1.028-1.378-2.569-2.775-4.626h33.547c5.508 0 9.99.246 13.444.74 3.452.493 6.247 1.275 8.386 2.343 2.63 1.399 4.728 3.599 6.29 6.599 1.561 3.003 2.344 6.352 2.344 10.052 0 3.619-.679 7.134-2.035 10.545-1.356 3.413-3.104 6.147-5.242 8.202-1.892 1.727-3.946 2.96-6.166 3.699-2.22.74-5.181 1.152-8.88 1.234l4.562 9.866c2.631 5.673 4.872 10.36 6.723 14.061 1.85 3.699 3.493 6.763 4.933 9.188 1.438 2.427 2.714 4.317 3.823 5.674 1.11 1.356 2.282 2.528 3.515 3.515-1.892.247-3.413.41-4.562.493a102.1 102.1 0 00-2.96.247c-.823.081-1.584.123-2.282.123h-2.651c-4.193 0-7.668-.351-10.422-1.048-2.756-.698-5.037-1.869-6.845-3.516a17.926 17.926 0 01-2.344-2.59c-.74-.987-1.501-2.22-2.281-3.7-.782-1.479-1.625-3.309-2.528-5.488a475.501 475.501 0 01-3.207-7.955l-6.29-16.402-4.687 20.967c-.576 2.713-.987 4.871-1.233 6.475-.247 1.603-.369 3.021-.369 4.255 0 1.399.225 2.632.678 3.7.45 1.069 1.376 2.549 2.774 4.439h-35.028zm39.097-45.633c.574.165 1.048.289 1.418.369.371.083.884.124 1.542.124 2.301 0 4.419-.513 6.352-1.542 1.932-1.027 3.596-2.466 4.995-4.316 1.397-1.851 2.508-4.028 3.33-6.537.821-2.507 1.233-5.241 1.233-8.201 0-6.084-3.742-9.127-11.224-9.127h-1.11l-6.536 29.23zm49.492 45.633c1.48-1.15 2.732-2.281 3.763-3.392a19.619 19.619 0 002.713-3.762c.78-1.397 1.458-3.021 2.034-4.871.575-1.851 1.151-4.132 1.728-6.845l10.605-47.978c1.068-4.604 1.604-8.18 1.604-10.729 0-1.314-.228-2.486-.679-3.515-.452-1.028-1.378-2.569-2.775-4.626h35.521c-1.479 1.152-2.756 2.282-3.823 3.392a16.58 16.58 0 00-2.714 3.762c-.739 1.399-1.398 3.021-1.973 4.872-.576 1.85-1.152 4.132-1.728 6.845l-10.606 47.978c-.576 2.302-.986 4.378-1.233 6.228-.246 1.85-.369 3.352-.369 4.502 0 1.399.226 2.611.678 3.638.451 1.029 1.376 2.528 2.775 4.502h-35.521zm125.22 0c-1.315.328-2.55.556-3.699.679a37.551 37.551 0 01-3.947.185c-3.536 0-6.578-.329-9.127-.986s-4.852-1.912-6.906-3.762c-2.056-1.85-4.008-4.398-5.857-7.646-1.851-3.247-3.846-7.42-5.982-12.519l-14.307-33.67-8.634 38.851c-.575 2.632-.986 4.79-1.233 6.475-.246 1.686-.37 3.104-.37 4.255 0 1.399.227 2.632.679 3.7.451 1.069 1.376 2.549 2.775 4.439h-25.16c1.479-1.15 2.734-2.281 3.761-3.392a19.495 19.495 0 002.714-3.762c.781-1.397 1.459-3.021 2.035-4.871.574-1.851 1.15-4.132 1.727-6.845l10.607-47.978c1.067-4.604 1.604-8.18 1.604-10.729 0-1.48-.269-2.837-.803-4.07-.535-1.233-1.501-2.59-2.898-4.07h28.12c.328 1.152.821 2.714 1.48 4.687a102.39 102.39 0 002.343 6.29l18.624 45.017 8.264-37.123c1.066-4.85 1.604-8.427 1.604-10.729 0-1.397-.229-2.609-.679-3.639-.453-1.027-1.378-2.528-2.775-4.502h25.16c-1.48 1.152-2.734 2.282-3.762 3.392a19.46 19.46 0 00-2.714 3.762c-.782 1.399-1.461 3.021-2.034 4.872-.576 1.85-1.152 4.132-1.727 6.845l-12.95 58.583 4.067 8.261zm92.081-64.626c-2.55-3.535-5.55-6.167-9.004-7.895-3.453-1.726-7.522-2.589-12.209-2.589-4.44 0-8.511.905-12.211 2.713-3.7 1.81-6.887 4.378-9.558 7.708-2.674 3.33-4.729 7.319-6.167 11.964-1.439 4.646-2.158 9.805-2.158 15.478 0 8.471 1.745 15.108 5.241 19.919 3.494 4.81 8.325 7.215 14.492 7.215.657 0 1.233-.02 1.727-.062a10.906 10.906 0 001.727-.309l3.083-13.689c.494-2.467.883-4.357 1.172-5.674.287-1.314.493-2.362.617-3.145.123-.78.204-1.397.246-1.85.041-.452.062-1.007.062-1.665 0-1.397-.308-2.652-.925-3.763s-1.748-2.404-3.392-3.885h31.82a98.979 98.979 0 00-1.789 3.083 16.262 16.262 0 00-1.171 2.714 54.28 54.28 0 00-1.048 3.638c-.371 1.44-.803 3.352-1.296 5.735l-2.713 12.087c-.986 4.605-1.48 8.223-1.48 10.854 0 .905.164 2.016.494 3.33-4.03 1.398-8.677 2.487-13.938 3.269-5.263.78-10.689 1.172-16.28 1.172-13.239 0-23.475-3.247-30.71-9.744-7.236-6.494-10.853-15.744-10.853-27.75 0-8.468 1.828-16.382 5.488-23.742 3.657-7.357 8.735-13.381 15.231-18.067 9.207-6.577 20.637-9.867 34.287-9.867 4.521 0 8.633.289 12.333.863 3.699.577 7.522 1.522 11.47 2.837l-2.588 19.117zm54.425-21.091c3.454 0 6.167.021 8.141.062 1.973.043 3.596.104 4.871.185 1.274.083 2.363.207 3.269.371a33.81 33.81 0 013.084.739c3.452.987 6.145 2.837 8.077 5.55 1.932 2.714 2.899 5.921 2.899 9.62a26.55 26.55 0 01-1.974 10.053c-1.316 3.248-3.043 5.9-5.18 7.954-1.646 1.646-3.454 2.88-5.427 3.7-1.974.823-4.563 1.522-7.771 2.097 11.511 1.233 17.267 7.523 17.267 18.87 0 5.099-1.214 9.724-3.639 13.875-2.426 4.153-5.653 7.175-9.681 9.065-1.727.822-3.33 1.461-4.811 1.911-1.48.453-3.352.802-5.612 1.049-2.262.246-5.098.412-8.51.493-3.412.083-7.873.123-13.381.123h-33.054c1.48-1.15 2.754-2.281 3.823-3.392a16.54 16.54 0 002.713-3.762c.741-1.397 1.397-3.021 1.974-4.871.574-1.851 1.15-4.132 1.727-6.845l10.606-48.101c1.068-4.604 1.604-8.14 1.604-10.606 0-1.314-.228-2.486-.678-3.515-.453-1.028-1.378-2.569-2.775-4.626h32.438zm-19.486 73.137c1.314.412 2.424.679 3.33.802.903.123 1.974.185 3.206.185 4.851 0 8.735-1.376 11.655-4.131 2.918-2.754 4.379-6.475 4.379-11.162 0-4.027-1.276-7.215-3.823-9.559-2.55-2.343-6.044-3.515-10.483-3.515h-1.11c-.33 0-.74.083-1.233.246l-5.921 27.134zm8.386-38.481a35.64 35.64 0 001.788.186 17.78 17.78 0 001.419.062c4.193 0 7.584-1.521 10.175-4.564 2.59-3.041 3.885-6.946 3.885-11.716 0-2.961-.822-5.077-2.467-6.352-1.646-1.274-4.316-1.912-8.017-1.912h-1.356l-5.427 24.296zm98.962-36.383c11.181 0 19.813 3.126 25.9 9.374 5.427 5.426 8.14 13.812 8.14 25.159 0 8.141-1.193 15.583-3.577 22.323-2.386 6.743-5.734 12.499-10.052 17.267-4.316 4.77-9.496 8.471-15.539 11.101-6.044 2.63-12.766 3.947-20.166 3.947-11.1 0-19.591-2.961-25.468-8.881-5.88-5.92-8.818-14.511-8.818-25.776 0-3.864.327-7.688.986-11.471a69.812 69.812 0 012.775-10.853 57.9 57.9 0 014.378-9.744c1.727-3.041 3.7-5.796 5.921-8.263 8.468-9.453 20.308-14.183 35.52-14.183zm-2.837 11.47c-6.25 0-11.513 5.058-15.787 15.171-.905 2.139-1.726 4.502-2.467 7.091a95.484 95.484 0 00-1.911 8.017 92.47 92.47 0 00-1.233 8.448 81.717 81.717 0 00-.432 8.141c0 6.003 1.048 10.73 3.146 14.183 2.096 3.454 4.952 5.181 8.571 5.181 6.741 0 12.25-5.385 16.527-16.157.82-2.054 1.561-4.336 2.22-6.845a104.747 104.747 0 001.726-7.832 90.81 90.81 0 001.11-8.201c.247-2.754.37-5.364.37-7.831 0-12.91-3.946-19.366-11.84-19.366zm131.251-9.743c-.823.74-1.625 1.461-2.405 2.159-.782.699-1.541 1.378-2.281 2.034l-4.44 4.193-29.97 28.243 5.303 9.744c1.727 3.125 3.474 6.27 5.242 9.435a689.963 689.963 0 015.241 9.559c3.371 6.167 6.29 10.834 8.757 13.998 2.468 3.167 4.851 5.242 7.154 6.229-1.894.41-3.516.719-4.872.925-1.357.204-2.611.389-3.762.555a32.817 32.817 0 01-3.33.309 94.065 94.065 0 01-3.577.062c-8.223 0-13.896-1.563-17.02-4.688-.659-.574-1.172-1.109-1.542-1.603-.37-.494-.863-1.274-1.479-2.344-.617-1.068-1.439-2.609-2.467-4.625a574.292 574.292 0 01-4.256-8.572l-8.88-17.76-4.192 18.994c-.576 2.302-.987 4.378-1.234 6.228-.246 1.85-.37 3.352-.37 4.502 0 1.399.227 2.611.679 3.638.451 1.029 1.376 2.528 2.775 4.502H729.79c1.48-1.15 2.733-2.281 3.762-3.392a19.49 19.49 0 002.713-3.762c.781-1.397 1.46-3.021 2.036-4.871.574-1.851 1.15-4.132 1.727-6.845l10.606-47.978c1.067-4.604 1.603-8.18 1.603-10.729 0-1.314-.227-2.486-.678-3.515-.453-1.028-1.378-2.569-2.774-4.626h35.52c-1.48 1.152-2.756 2.282-3.823 3.392a16.546 16.546 0 00-2.713 3.762c-.741 1.399-1.399 3.021-1.974 4.872-.576 1.85-1.152 4.132-1.727 6.845l-3.947 17.514 25.16-25.16a239.288 239.288 0 003.762-3.824c.863-.903 1.5-1.603 1.911-2.096s.658-.863.741-1.11c.08-.246.122-.574.122-.986 0-.904-.615-1.974-1.85-3.207h26.27zm61.136 19.363c-2.221-1.808-4.193-3.33-5.92-4.562-1.727-1.234-3.392-2.221-4.995-2.961-1.604-.739-3.188-1.273-4.748-1.604a24.041 24.041 0 00-4.934-.493c-3.126 0-5.593.679-7.4 2.036-1.81 1.356-2.713 3.187-2.713 5.488 0 1.232.164 2.323.493 3.268.327.946 1.006 2.016 2.034 3.207 1.028 1.192 2.486 2.611 4.379 4.255 1.891 1.646 4.439 3.742 7.647 6.29 2.547 2.056 4.705 3.968 6.475 5.734 1.768 1.77 3.164 3.558 4.193 5.365a21.142 21.142 0 012.22 5.611c.451 1.934.678 4.052.678 6.353 0 4.358-.862 8.367-2.589 12.024a28.575 28.575 0 01-7.216 9.497c-3.083 2.673-6.764 4.77-11.038 6.29-4.275 1.521-8.923 2.282-13.937 2.282-9.456 0-17.679-1.646-24.667-4.934l-2.343-17.637c2.713 2.056 5.18 3.782 7.399 5.18 2.221 1.399 4.316 2.528 6.29 3.392s3.904 1.501 5.797 1.912c1.891.412 3.823.616 5.797.616 3.946 0 7.132-.966 9.558-2.898 2.425-1.931 3.639-4.46 3.639-7.585 0-1.314-.166-2.507-.493-3.577-.329-1.066-.968-2.219-1.911-3.453-.947-1.233-2.304-2.651-4.07-4.255-1.77-1.604-4.092-3.596-6.969-5.981-2.713-2.221-4.995-4.296-6.845-6.229-1.85-1.931-3.33-3.802-4.44-5.611-1.109-1.808-1.892-3.639-2.344-5.488-.452-1.851-.678-3.843-.678-5.981 0-4.028.802-7.688 2.405-10.977 1.603-3.288 3.885-6.105 6.845-8.449 2.961-2.343 6.556-4.132 10.792-5.364 4.234-1.234 8.941-1.851 14.122-1.851 3.863 0 7.378.33 10.544.986 3.165.659 6.476 1.687 9.929 3.084l-.986 17.02z"/></svg>