<svg width="177" height="149" xmlns="http://www.w3.org/2000/svg"><g fill="none" fill-rule="evenodd"><path d="M169.388 26.737c-3.407-2.27-6.017-5.127-7.104-5.785-1.088-.66-2.628-1.611-6.454-1.611 0 0-2.03-3.078-3.337-4.467-1.304-1.392-3.336-3.076-6.309-4.247-2.972-1.172-7.179-3.222-9.642-5.492-2.465-2.27-3.99-4.54-10.153-4.614 0 0 2.176 1.465 3.48 3.222 1.305 1.757 2.83 4.76 4.352 6.516 1.523 1.759 3.625 3.662 5.728 5.127 2.102 1.465 3.772 3.149 3.335 3.881 0 0-7.032-1.025-13.415.44 0 0 2.901 8.714 11.53 11.35 0 0 .29.073-.29 1.026-.58.95-7.758 11.276-17.33 17.502-9.573 6.222-16.68 10.103-31.979 13.4 0 0-15.88 2.415-19.432 3.368-3.555.953-6.165 2.05-10.298 6.738 0 0-1.234.292-3.771-.441-2.538-.732-3.843-.658-7.033-.146-3.192.512-5.292 1.172-9.936.366-4.64-.805-7.745-2.27-8.483-2.71-.58-.44.943 3.662 2.032 5.2 1.086 1.537 3.48 4.686 7.612 5.051 4.135.368 6.743-1.17 8.412-1.608 1.668-.441 3.119-.953 5.293-.221 1.727.58 2.177.586 1.812 1.391-.362.806-1.23 4.32-1.593 8.422-.364 4.1-.654 6.884-5.005 9.298-4.351 2.418-10.44 4.248-14.792 3.005 0 0-3.19 5.711-6.307 8.2-3.12 2.489-8.485 6.371-12.256 7.98-3.772 1.614-4.64 2.053-5.512 1.833l-1.45 2.05-3.262-.074-7.83 11.205s3.406 1.32 7.756-.147c4.351-1.464 18.275-10.252 24.074-14.06 5.803-3.808 12.717-8.258 19.253-9.859 7.104-1.17 17.666-4.417 22.741-6.468 5.077-2.05 16.18-8.497 21.238-12.085 0 0 .863-.68 2.25-.366 2.03.22 4.857.806 5.945.66 1.098.04 10.732-4.102 13.197-5.347s13.777-7.542 15.735-8.493c1.96-.953 3.192-1.54 2.684-.733-.51.805-4.787 5.345-6.962 6.956-2.176 1.61-3.915 3.442-4.86 2.71-.941-.732-.53-1.269-3.045.219-1.957 1.173-11.02 6.298-11.02 6.298s7.251 3.003 12.326 2.418c5.076-.587 7.569-2.202 10.542-4.251 2.972-2.051 8.022-6.515 9.328-8.126 1.304-1.611 4.042-5.135 5.854-7.697 1.708-2.614 6.52-11.61 6.882-12.564 0 0-.102-.027-11.31-.027 0 0 5.896-8.272 7.708-11.713 1.815-3.442 5.223-10.764 5.44-11.57.218-.804.363-.512 2.539-.366 2.173.147 7.25-.22 9.064-.585 2.19-.36 5.339-1.214 6.815-1.54 0 0 1.351-.933 1.885-1.976v-3.075s-3.261-1.1-6.672-3.368" fill="#000"/><path d="M154.688 24.2s.004-.002.015-.002c-.867-1-5.16-6.067-5.16-6.067-1.357-2.014-4.19-4.994-4.647-5.47-.286-.16-.595-.325-.958-.496-3.408-1.61-6.163-3.59-7.108-4.321-.82-.638-4.703-4.038-5.752-5.156 1.033 1.482 5.058 7.534 9.885 10.722 5.659 3.733 6.526 6.882 6.746 8.86 0 0-6.6-2.343-14.358-.733 0 0-.075 4.101 11.456 9.008 0 0-6.164 10.619-14.14 17.28-7.976 6.665-15.951 11.644-28.715 15.453-12.802 3.2-22.043 3.954-25.597 4.76-3.553.803-9.065 1.83-12.69 7.541 0 0-1.378.22-4.786-.585-3.267-.771-5.14-1.27-9.122-.15a79.712 79.712 0 01-4.02 2.059c-2.099 1.065-3.848 1.175-3.928 1.18 1.053.293 3.205.666 5.759-.16 3.625-1.172 3.335-1.61 5.874-1.61 2.536 0 2.973-.147 8.047 2.196 0 0-1.74 3.589-2.319 8.275-.58 4.686-.22 9.373-6.019 12.888-5.8 3.515-13.488 3.955-15.3 3.734 0 0-2.176 5.638-11.819 11.351-9.644 5.712-11.603 5.492-12.184 5.858-.58.367-1.087 1.977-1.522 2.343l-3.553-.218s-4.64 6.15-4.495 6.589c.144.44 3.48.805 11.166-3.806 7.687-4.616 14.502-9.74 18.926-12.304 4.423-2.562 9.644-5.419 12.834-6.59 3.19-1.172 11.816-2.804 14.972-3.881.003-.002 3.713-1.74 7.21-7.6l-.003.005s3.388-8.513 5.096-12.508c1.707-3.997 2.88-4.162 6.722-3.948 3.842.213 9.817-.747 16.966-2.348 7.15-1.6 14.992-6.749 16.219-7.576 1.227-.827 2.107-.956 2.508-.956.4 0 1.92.342 1.92.342l12.504 2.641-.96.078c.167-.008.332-.015.502-.025l8.6-.32-.032.013.087-.019s-2.392 9.812-15.953 17.207c0 0-1.307-1.112-1.814-1.328-.509.074-7.396 3.819-6.889 4.113.507.292 6.308 2.05 11.529-.367 5.221-2.418 12.255-7.616 16.75-14.719 4.497-7.103 5.683-8.947 7.207-12.315 0 0-6.83.16-11.555.087-1.208.057-2.03.09-2.643.089.116-.097.325-.276.605-.53-.384.344-.599.515-.599.515h-.427s-4.695-.268-4.86-2.989c-.165-2.72 3.05-4.681 7.181-9.283 4.132-4.601 11.456-15.053 11.456-15.053s-.422.736-1.133 1.939c2.35-3.874 3.416-6.44 3.416-6.44 1.12-2.827 2.468-3.156 3.427-3.263.87-.097 2.332-.088 2.594-.085l-3.119-3.906zm-16.897-.718s9.05.39 9.356.623c.31.233 2.54 4.162 2.54 4.162s-6.773.113-11.896-4.785z" fill="#FFC425"/><path d="M174.482 30.814c-1.001-.432-4.96-2.088-7.34-3.815-2.828-2.05-4.208-4.098-6.676-4.908-2.467-.804-5.15-.729-5.514-.658 0 0-3.525-6.498-10.12-8.839 0 0 .004.016.014.04.016.01.033.018.049.027.457.476 3.29 3.455 4.648 5.47 0 0 4.293 5.067 5.16 6.067.154-.016 1.41-.138 2.538.001 1.203.15 2.848 1.52 4.924 3.228 1.975 1.624 6.404 3.448 6.851 3.63l.01.004.015.007.022.008c-.466.163-1.055.176-1.707.09-2.979-.394-7.34-2.88-7.986-2.975a9.417 9.417 0 00-1.519-.087v.002h-.043c-.263-.003-1.725-.013-2.595.085-.96.107-2.308.435-3.428 3.262 0 0-1.2 2.895-3.868 7.176-1.507 2.548-5.618 9.251-8.735 12.912-3.115 3.66-5.832 7.855-5.18 9.759.653 1.906 1.726 1.979 1.726 1.979h.425l.003-.003c.018-.014.223-.18.568-.487 2.2-1.96 10.461-10.039 17.8-26.753 0 0 .135-.34-2.135-3.917l.037-.102c.748.744 2.779 2.644 4.345 2.995.153.034.3.065.44.093a15.75 15.75 0 002.372.403l.095-.063-.098.064c1.436.144 3.383.175 5.702-.187 5.122-.8 7.897-1.76 7.897-1.76s-.57-1.01-2.153-1.76l-.008-.004c2.15.663 3.415-.713 3.464-.984m-37.65 31.95l-.054.047-.113.104.167-.15m2.63 7.769l-8.602.32-.502.024-10.85.883c-17.82 10.35-35.266 10.51-38.947 10.724-3.681.213-4.108 1.76-4.535 2.187-.132.133-.827 1.199-1.72 2.604-1.044 1.718-2.308 3.804-3.813 6.087l-1.11 1.79.003-.005c-3.5 5.861-7.21 7.6-7.21 7.6 9.135-2.486 19.47-8.127 22.373-9.814 2.901-1.682 9.209-6.443 9.718-6.809.507-.366 8.192.659 9.498.659 1.308 0 15.158-7.032 20.088-9.666 4.93-2.636 15.609-6.584 15.609-6.584m-93.726 6.369a79.456 79.456 0 004.03-2.064l-1.931.294s-5.676 1.205-11.868-1.674c0 0 .313 1.429 2.02 2.794.863.69 2.125 1.346 3.814 1.83 0 0 1.787-.089 3.935-1.18" fill="#FFF"/><path d="M45.605 136.258a21.23 21.23 0 00-1.043-.802 5.506 5.506 0 00-.879-.522 3.956 3.956 0 00-.836-.282 4.256 4.256 0 00-.868-.087c-.55 0-.985.12-1.303.358-.319.24-.478.56-.478.967 0 .217.029.408.087.575.058.166.177.355.358.565.181.21.438.46.77.748.334.29.783.66 1.347 1.108.449.362.829.698 1.14 1.01.311.31.557.626.738.944a3.7 3.7 0 01.391.988c.08.34.12.713.12 1.12a4.897 4.897 0 01-1.727 3.787 5.968 5.968 0 01-1.943 1.108 7.29 7.29 0 01-2.454.402c-1.664 0-3.112-.29-4.342-.868l-.413-3.106c.478.362.912.666 1.303.912.39.247.76.445 1.107.597a5.34 5.34 0 001.02.336c.334.074.674.109 1.021.109.695 0 1.256-.169 1.683-.51.427-.34.64-.786.64-1.336 0-.23-.028-.44-.086-.63a1.998 1.998 0 00-.337-.607 6.023 6.023 0 00-.716-.75c-.312-.281-.72-.632-1.227-1.053-.478-.39-.88-.755-1.205-1.096a5.97 5.97 0 01-.782-.987 3.378 3.378 0 01-.412-.967 4.423 4.423 0 01-.12-1.053c0-.71.141-1.353.424-1.933a4.255 4.255 0 011.205-1.487c.52-.413 1.154-.728 1.9-.945.745-.217 1.574-.326 2.486-.326.68 0 1.3.059 1.856.175.558.115 1.14.296 1.748.542l-.173 2.996m9.33 5.061l-.716-4.974-2.802 4.974h3.518zm4.842 4.298c.058.363.112.656.163.88.05.224.109.42.174.586.065.166.144.311.239.434.094.124.22.265.38.424h-6.037c.391-.29.652-.522.782-.695a.985.985 0 00.195-.607c0-.19-.021-.407-.065-.652l-.043-.37-.304-2.171h-5.016l-.869 1.542c-.347.607-.59 1.064-.727 1.367-.138.304-.206.543-.206.718 0 .116.032.227.097.336.065.108.214.286.445.532h-4.56a6.08 6.08 0 00.565-.391c.145-.116.297-.279.456-.489.16-.21.347-.491.565-.846.217-.355.499-.837.846-1.444l5.103-8.752c.26-.447.438-.8.532-1.052.094-.254.141-.51.141-.771 0-.29-.058-.536-.173-.738-.116-.203-.304-.405-.565-.608h5.624l2.258 12.767zm13.919-5.71c.1.028.184.05.25.065.065.014.155.022.27.022a2.35 2.35 0 001.119-.272 2.68 2.68 0 00.88-.76c.246-.325.44-.71.586-1.151.144-.442.217-.923.217-1.444 0-1.071-.659-1.607-1.976-1.607h-.196l-1.15 5.147zm-6.884 8.034c.26-.203.485-.402.673-.597.188-.196.348-.416.478-.663.13-.246.246-.531.348-.857.1-.325.202-.727.304-1.206l1.867-8.446c.188-.81.282-1.44.282-1.89 0-.23-.04-.437-.12-.618-.079-.182-.242-.453-.488-.814h5.906c.97 0 1.76.043 2.367.13.608.087 1.1.224 1.477.413.463.245.832.632 1.107 1.16.275.53.413 1.12.413 1.771 0 .637-.12 1.256-.358 1.856-.24.6-.547 1.083-.923 1.444a3.03 3.03 0 01-1.086.651c-.39.131-.912.203-1.563.218l.803 1.737c.463.999.858 1.823 1.183 2.475.326.651.616 1.191.869 1.618.253.427.478.76.673 1 .196.238.402.444.62.618a15.74 15.74 0 01-.804.087 19.08 19.08 0 00-.521.043 4.01 4.01 0 01-.402.022h-.467c-.738 0-1.35-.062-1.835-.185-.485-.122-.887-.329-1.205-.618a3.205 3.205 0 01-.413-.456 5.027 5.027 0 01-.401-.652 11.697 11.697 0 01-.445-.967c-.16-.382-.348-.849-.565-1.4l-1.107-2.888-.826 3.691c-.101.479-.173.859-.217 1.14a5.01 5.01 0 00-.065.75c0 .247.04.464.12.651.079.188.242.45.488.782h-6.167zm23.894-1.433a11.19 11.19 0 01-1.01.836c-.31.225-.626.4-.944.531a4.62 4.62 0 01-1.032.284 8.198 8.198 0 01-1.248.086c-.594 0-1.097-.061-1.51-.185a3.135 3.135 0 01-1.096-.575 2.841 2.841 0 01-1.042-2.193 4.18 4.18 0 01.054-.728c.022-.136.05-.296.087-.477.036-.182.083-.41.141-.685l1.607-7.23c.188-.854.282-1.483.282-1.89 0-.245-.04-.46-.119-.64-.08-.18-.243-.446-.489-.792h6.254c-.26.203-.485.4-.673.597a2.892 2.892 0 00-.478.662 5.05 5.05 0 00-.347.858c-.102.326-.203.727-.304 1.205l-1.26 5.623c-.072.363-.137.674-.195.935a9.127 9.127 0 00-.195 1.227 4.456 4.456 0 00-.022.422c0 .464.144.826.434 1.086.29.261.687.392 1.194.392.492 0 .93-.109 1.314-.326a2.18 2.18 0 00.88-.913c.13-.245.242-.52.336-.824.094-.304.199-.718.315-1.239l1.411-6.383c.101-.42.174-.79.218-1.108.043-.318.065-.578.065-.782 0-.245-.04-.462-.12-.651-.08-.188-.242-.448-.488-.78h6.253c-.26.202-.485.4-.673.596a2.892 2.892 0 00-.477.662 5.05 5.05 0 00-.348.858c-.102.326-.203.727-.304 1.205l-1.867 8.446c-.189.812-.283 1.441-.283 1.89 0 .247.04.464.12.651.08.188.242.45.488.782h-5.45l.521-1.433m21.091-9.946c-.449-.622-.977-1.086-1.585-1.39-.608-.303-1.325-.456-2.15-.456a4.83 4.83 0 00-2.15.479 4.886 4.886 0 00-1.682 1.357c-.47.587-.833 1.288-1.086 2.107-.253.817-.38 1.725-.38 2.724 0 1.49.307 2.66.923 3.507.615.846 1.466 1.27 2.551 1.27a2.1 2.1 0 00.608-.065l.543-2.41c.087-.434.156-.767.206-.999.05-.232.087-.417.109-.553a3.355 3.355 0 00.054-.62c0-.246-.054-.466-.163-.662-.108-.196-.307-.423-.597-.684h5.603c-.13.217-.236.399-.315.543-.08.145-.15.303-.207.478a8.98 8.98 0 00-.184.64c-.065.254-.141.591-.228 1.01l-.478 2.128c-.174.811-.26 1.448-.26 1.91 0 .16.028.355.086.587-.71.247-1.527.439-2.453.575-.927.138-1.882.207-2.867.207-2.33 0-4.133-.572-5.406-1.715-1.274-1.144-1.911-2.773-1.911-4.886a9.26 9.26 0 01.966-4.18 8.56 8.56 0 012.682-3.182c1.62-1.157 3.633-1.737 6.036-1.737.796 0 1.52.051 2.172.153.651.1 1.324.268 2.019.498l-.456 3.366m7.628 2.388c.116.015.22.027.315.034.094.008.177.01.25.01.738 0 1.335-.268 1.79-.803.457-.536.685-1.223.685-2.063 0-.521-.145-.894-.434-1.118-.29-.225-.76-.336-1.412-.336h-.239l-.955 4.277zm-1.477 6.776c.232.072.427.119.587.14.159.023.347.033.564.033.854 0 1.538-.242 2.052-.726.514-.486.771-1.14.771-1.966 0-.709-.225-1.27-.673-1.683-.449-.412-1.064-.62-1.846-.62h-.195a.707.707 0 00-.217.045l-1.043 4.777zm3.431-12.876c.608 0 1.086.003 1.433.01.348.008.633.018.858.033a4.763 4.763 0 011.119.195c.607.174 1.08.5 1.421.977.34.478.51 1.043.51 1.695a4.67 4.67 0 01-.347 1.769c-.232.572-.535 1.039-.911 1.401-.29.29-.609.506-.956.652-.347.143-.804.267-1.368.368 2.026.217 3.04 1.325 3.04 3.323a4.76 4.76 0 01-.641 2.443c-.427.73-.995 1.263-1.704 1.595a6.112 6.112 0 01-.847.337c-.26.08-.59.14-.988.185-.398.042-.898.072-1.498.086a99 99 0 01-2.356.022h-5.82c.261-.203.485-.402.674-.597.188-.196.347-.416.477-.663.13-.246.246-.531.348-.857.1-.325.202-.727.304-1.206l1.867-8.468c.188-.81.282-1.434.282-1.868 0-.23-.04-.437-.119-.618-.08-.182-.243-.453-.489-.814h5.711zm16.241 1.91c.16-.26.291-.496.392-.705.101-.21.151-.373.151-.489 0-.232-.143-.47-.434-.716h4.061l-.836 1.074c-.252.326-.437.57-.553.728l-4.69 6.492-.783 3.474a27.79 27.79 0 00-.183 1.064 5.608 5.608 0 00-.076.826c0 .247.035.464.108.651.072.188.23.45.477.782h-6.102c.261-.203.486-.402.673-.597.188-.196.351-.416.489-.663.138-.246.257-.535.36-.868.1-.333.202-.731.303-1.195l.76-3.452c-.16-.637-.395-1.35-.706-2.14a29.217 29.217 0 00-1.043-2.333 29.462 29.462 0 00-1.182-2.15c-.407-.666-.782-1.194-1.13-1.584.506-.16.92-.269 1.238-.326a5.747 5.747 0 011.042-.088c.449 0 .85.044 1.206.13.354.087.676.23.965.425.29.195.554.451.793.77.239.318.474.71.705 1.172.06.13.12.269.185.414.066.144.148.34.25.585l.391.967c.159.398.369.908.63 1.53l2.54-3.778" fill="#FFC425"/></g></svg>