<svg xmlns="http://www.w3.org/2000/svg" width="400" height="310"><path d="M150.781 293.62c0-.832-.173-1.57-.518-2.214-.345-.644-.87-1.286-1.574-1.93-.704-.644-1.537-1.204-2.496-1.685-.51-.252-1.439-.655-2.789-1.211-1.169-.453-1.934-.781-2.294-.982-.81-.48-1.214-1.047-1.214-1.703 0-.202.015-.366.045-.492.21-.832.757-1.444 1.642-1.836a6.98 6.98 0 012.856-.586 9.89 9.89 0 013.103.473c.959.315 1.889.75 2.789 1.304l1.125-4.423c-2.16-.756-4.589-1.135-7.288-1.135-1.439 0-2.872.146-4.296.436-1.424.29-2.751.75-3.981 1.382-2.52 1.312-4.094 3.155-4.724 5.528-.15.707-.225 1.287-.225 1.74 0 1.793.958 3.309 2.876 4.545.299.2 2.052 1.047 5.258 2.537 1.887.883 2.831 1.805 2.831 2.764 0 .126-.03.315-.09.567-.24.985-.959 1.704-2.158 2.158-.899.354-1.993.53-3.282.53-1.588 0-3.169-.272-4.743-.818-1.573-.545-2.899-1.262-3.978-2.15l.135 5.45c2.579.908 5.369 1.362 8.368 1.362 1.8 0 3.435-.14 4.904-.416 1.469-.277 2.909-.795 4.319-1.552 2.819-1.488 4.559-3.531 5.219-6.13.12-.48.18-.984.18-1.513zm29.173-9.825c.015-.201.022-.391.022-.566 0-2.066-1.005-3.564-3.016-4.498a8.927 8.927 0 00-3.061-.773c-1.111-.087-2.701-.133-4.771-.133h-10.622l-.045.113c.45.277.765.6.945.965.18.365.27.774.27 1.228 0 .429-.075.945-.225 1.55-.03.15-.165.668-.405 1.549l-3.6 14.098c-.39 1.612-.675 2.596-.855 2.947-.48 1.059-1.26 1.84-2.34 2.344l-.043.112h12.015l.045-.113c-.42-.428-.712-.831-.877-1.21-.165-.377-.248-.83-.248-1.358 0-.504.067-1.04.202-1.606.135-.566.232-.964.292-1.19l3.959-15.678c1.29 0 2.234.289 2.834.869.51.503.765 1.258.765 2.265 0 .327-.015.643-.045.944a4.09 4.09 0 01-.18.868c-.33 1.284-.99 2.397-1.979 3.342-.99.944-2.249 1.668-3.778 2.17.12 0 .3.026.54.077h1.08c3.15 0 5.851-.567 8.102-1.701 2.58-1.31 4.201-3.225 4.861-5.744.09-.38.142-.67.158-.871zm24.511 16.698a20.544 20.544 0 01-1.373-2.515l-3.51-7.524c1.77-.58 3.24-1.348 4.41-2.307 1.35-1.084 2.189-2.307 2.52-3.668.12-.48.18-.995.18-1.55 0-1.891-.93-3.302-2.789-4.235-1.021-.504-2.19-.793-3.51-.87h-15.615l-.045.114c.45.277.765.599.945.964.18.365.27.774.27 1.228 0 .43-.075.945-.225 1.55-.03.15-.165.668-.405 1.55l-3.6 14.098c-.39 1.612-.675 2.596-.855 2.947-.48 1.059-1.26 1.84-2.34 2.344l-.046.112h12.105l.045-.113c-.45-.277-.765-.6-.945-.964a2.74 2.74 0 01-.27-1.23c0-.428.075-.943.225-1.55.03-.15.165-.667.405-1.55l1.35-5.254 3.15 8.25c.54 1.337 1.41 2.132 2.61 2.384.479.1 1.395.15 2.745.15l6.345-.34a8.91 8.91 0 01-1.777-2.021zm-8.663-12.09a7.892 7.892 0 01-3.915 1.665l2.16-8.587h.45c.48 0 .945.038 1.395.113.45.076.81.215 1.08.416.75.529 1.125 1.299 1.125 2.308 0 .328-.045.644-.135.946-.3 1.186-1.02 2.232-2.16 3.139zm25.563 14.215c-.45-.277-.766-.6-.945-.964a2.753 2.753 0 01-.27-1.23c0-.402.074-.906.225-1.511.06-.176.195-.692.405-1.55l3.6-14.135c.39-1.611.675-2.595.855-2.947.479-1.06 1.26-1.84 2.34-2.344l.045-.113h-12.104l-.045.113c.449.277.765.599.944.964.179.365.271.774.271 1.229 0 .429-.075.944-.226 1.55-.03.15-.165.668-.404 1.549l-3.601 14.135c-.42 1.613-.705 2.596-.854 2.948-.48 1.033-1.261 1.802-2.341 2.306l-.045.113h12.105l.045-.113zm40.207-24.793h-8.657v.113c.731.756 1.098 1.637 1.098 2.645 0 .479-.067 1.002-.2 1.568-.133.566-.229.963-.288 1.189l-2.479 9.834-10.038-15.236.045-.113h-9.36l-.045.113c1.02 1.209 1.53 2.33 1.53 3.362 0 .655-.165 1.612-.495 2.87l-3.285 13.042c-.332 1.285-.678 2.269-1.039 2.948-.543.958-1.326 1.777-2.35 2.457l-.031.114h8.656v-.113c-.393-.428-.666-.837-.82-1.227-.154-.391-.231-.85-.231-1.38 0-.478.078-1.03.235-1.66l.283-1.133 2.641-9.97 6.206 9.66c1.229 1.86 2.1 3.03 2.609 3.51.629.578 1.431 1.094 2.405 1.547.974.453 1.807.792 2.497 1.019 1.049.353 1.934.528 2.653.528l5.093-20.173c.3-1.284.646-2.267 1.036-2.946.511-.957 1.277-1.775 2.299-2.455l.032-.113zm28.076 11.968h-9.495l-.045.113c.72.58 1.08 1.21 1.08 1.893 0 .252-.03.523-.09.814-.061.289-.135.61-.225.965l-1.395 5.602a18.116 18.116 0 01-1.843.113c-2.278 0-3.956-.631-5.035-1.893-.899-1.06-1.349-2.55-1.349-4.467 0-1.186.165-2.41.495-3.672.6-2.422 1.739-4.34 3.42-5.754 1.83-1.54 4.154-2.31 6.975-2.31 1.14 0 2.303.192 3.487.576 1.186.384 2.078.868 2.678 1.456h.226l1.305-5.276c-2.07-.503-4.35-.755-6.84-.755-4.83 0-9.128 1.19-12.894 3.576-3.766 2.383-6.144 5.58-7.134 9.59-.271 1.11-.405 2.145-.405 3.104 0 3.128 1.319 5.562 3.959 7.303 2.489 1.639 5.849 2.459 10.077 2.459 1.68 0 3.314-.102 4.904-.303a60.174 60.174 0 005.038-.871l3.106-12.263zm27.406 3.754c0-1.311-.451-2.42-1.354-3.326-.903-.907-2.15-1.45-3.744-1.625 1.623-.428 2.931-1.008 3.923-1.738 1.112-.832 1.833-1.865 2.164-3.1.09-.378.136-.73.136-1.06a3.86 3.86 0 00-.519-1.983c-.345-.592-.862-1.158-1.553-1.7a4.832 4.832 0 00-2.319-1.001c-.855-.127-2.049-.19-3.579-.19h-13.418l-.045.114c.45.252.765.56.945.926.18.365.27.775.27 1.229 0 .428-.075.945-.225 1.549-.03.152-.165.668-.405 1.55l-3.6 14.136c-.391 1.637-.676 2.633-.855 2.985-.48 1.033-1.26 1.802-2.34 2.306l-.045.112h13.191c1.891 0 3.346-.088 4.366-.265a11.35 11.35 0 004.098-1.55c2.551-1.537 4.126-3.49 4.727-5.857.12-.478.181-.982.181-1.512zm-8.991-6.997c-.766.642-1.658.962-2.678.962-.12 0-.39-.051-.81-.15l1.484-5.811c.51-.15.96-.227 1.351-.227.779 0 1.342.189 1.688.566.345.377.518.893.518 1.547 0 .352-.03.629-.09.83-.21.88-.698 1.642-1.463 2.283zm-.999 11.335c-.933.855-2.09 1.283-3.474 1.283-.481 0-.843-.031-1.083-.094a2.712 2.712 0 01-.767-.36l1.985-7.93h1.082c2.768 0 4.151.92 4.151 2.758 0 .453-.061.919-.181 1.397-.329 1.209-.9 2.19-1.713 2.946zm49.548-10.961c0-3.104-1.223-5.5-3.668-7.19-2.445-1.688-5.768-2.534-9.968-2.534-4.74 0-9 1.16-12.779 3.48-3.931 2.422-6.405 5.6-7.426 9.535-.27 1.06-.404 2.043-.404 2.95 0 3.104 1.237 5.557 3.712 7.36s5.737 2.705 9.788 2.705c4.8 0 9.075-1.147 12.825-3.443 3.96-2.421 6.449-5.625 7.47-9.61.3-1.26.45-2.344.45-3.253zm-10.621 7.512a8.002 8.002 0 01-1.935 2.364 11.204 11.204 0 01-3.173 1.93c-1.185.48-2.362.72-3.532.72-1.23 0-2.303-.303-3.218-.908s-1.597-1.438-2.047-2.498c-.45-1.06-.675-2.334-.675-3.822 0-1.06.119-2.068.359-3.027a11.28 11.28 0 013.24-5.563c1.86-1.767 4.021-2.65 6.48-2.65 2.13 0 3.72.72 4.77 2.158.84 1.16 1.26 2.737 1.26 4.73 0 .556-.045 1.18-.135 1.874-.09.693-.195 1.28-.315 1.76a11.545 11.545 0 01-1.079 2.932zm40.339 8.182a4.665 4.665 0 01-1.17-1.115 8.27 8.27 0 01-.81-1.418l-6.12-12.133 12.51-10.018.045-.11h-11.104v.114c.446.253.796.549 1.05.89.253.34.335.726.245 1.155-.12.454-.509.996-1.166 1.627l-1.66 1.4-7.154 6.05 1.487-5.825c.39-1.614.675-2.598.855-2.951.48-1.06 1.262-1.841 2.343-2.346l.031-.113h-12.107l-.045.113c.449.277.765.599.944.964.179.365.271.774.271 1.229 0 .378-.075.856-.226 1.437-.15.579-.285 1.133-.404 1.662l-3.601 14.098c-.39 1.612-.675 2.596-.854 2.947-.48 1.059-1.26 1.84-2.34 2.344l-.044.112h12.104l.045-.113c-.45-.277-.766-.6-.945-.964a2.753 2.753 0 01-.27-1.23c0-.428.074-.943.225-1.55.03-.15.165-.667.405-1.55l1.439-5.67 2.971 6.768c.93 2.117 1.994 3.363 3.194 3.742 1.2.377 4.471.566 9.811.566l.045-.112zM282.143 18.132s6.001 3.897 10.946 13.935c2.8 5.687 10.926 15.378 20.389 20.724 3.962 2.235 6.579 6.617 8.103 9.04-5.884-2.123-20.6-2.004-30.835 0 2.469 8.98 13.592 21.32 25.771 25.043-28.07 46.065-86.327 66.266-111.928 69.985-27.692 4.026-45.195 1.357-61.791 20.965-11.768-3.421-17.888-3.306-28.599-.707-10.389 2.517-23.067.119-34.72-6.612 3.061 13.938 9.926 18.359 15.981 20.59 6.694 2.466 15.027 1.856 20.388-.631 6.566-3.044 12.24-3.66 19.654-.113-3.407 8.215-3.995 16.123-4.238 21.845-.156 3.64 0 5.908-1.53 9.098-5.492 11.439-24.01 16.307-41.898 16.069-10.828 20.317-34.487 32.356-43.195 35.43-5.999 2.115-9.952 4.363-11.981 7.587-1.311-.072-7.441-.26-7.441-.26L8.625 303.86l9.887.122c8.844.09 16.5-3.892 29.954-12.271l10.298-6.394c11.773-8.065 31.674-21.665 45.431-27.638 8.125-3.531 18.547-5.992 28.718-8.626 12.368-3.201 25.481-6.071 37.666-11.695 16.087-7.42 35.687-18.334 45.433-26.935 2.334.293 18.239 2.125 18.239 2.125s56.728-27.285 68.688-33.418c-6.222 9.43-17.93 19.769-25.361 24.263-.594-.373-4.487-2.884-4.487-2.884l-27.304 15.354s23.641 9.295 39.547 2.479c24.011-10.287 54.024-52.212 56.258-66.504-7.573-.93-16.342-.773-23.307-.94 13.654-17.25 26.13-41.106 29.425-51.386 7.811 1.144 23.657 1.24 34.957-3.188 4.623-1.812 8.531-7.677 8.708-12.106-16.064-4.783-33.366-21.793-33.366-21.793s-8.448-.948-10.415-1.062c-3.327-4.41-10.425-15.36-23.18-19.786-19.547-6.79-18.142-13.877-28.618-19.43-4.788-2.536-13.653-4.015-13.653-4.015z"/><path d="M339.292 88.735c3.355 1.507 4.59 3.014 6.973 5.67 2.207.974 37.959 4.609 41.931-7.972-15.799-5.581-27.539-16.922-31.337-20.285-3.794-.708-9.444-.622-11.297-.622-2.473-3.011-9.713-14.352-22.864-19.754-13.152-5.407-24.401-15.271-29.962-21.854 4.471 9.215 13.864 19.785 22.959 24.92 9.09 5.137 12.477 12.994 12.477 17.485-4.504-2.037-20.567-3.986-30.808-.62 3.708 9.479 17.302 17.54 25.598 18.867-31.691 55.105-84.476 72.824-111.837 76.543-25.758 3.504-50.316 2.658-64.675 21.44-5.296-1.887-8.711-2.832-15.185-3.187-6.584-.362-12.474 1.947-21.655 2.83-9.181.89-16.242-.883-22.952-4.368 4.769 10.392 19.655 12.4 26.717 9.09 7.061-3.302 17.888-3.72 28.601 1.535-8.358 14.999-4.003 28.063-7.413 34.614-5.537 10.625-18.597 19.727-43.667 19.019-12.474 20.669-39.193 33.187-45.9 35.196-6.709 2.012-8.241 4.49-9.653 7.558-2.117.478-8.002-.47-8.002-.47s-9.297 13.58-9.415 14.174c7.762.08 15.209-2.624 28.161-10.681 6.486-4.04 37.749-26.818 56.109-34.791 18.361-7.974 43.252-10.633 65.145-20.731 16.369-7.554 37.426-19.314 45.961-27.578 7.886.646 12.472 1.888 20.241 2.595 15.537-7.09 63.732-32.424 77.855-36.144-2.471 13.818-24.361 32.423-33.365 37.205-2.647-.355-5.415-3.188-5.415-3.188l-14.121 9.214s10.098 4.617 24.303-.354c22.772-7.973 45.197-41.284 51.493-57.052-8.594-.354-20.951-.71-29.246-.71 21.536-22.323 39.719-56.552 39.367-59.742-.357-3.19-2.824-5.636-5.122-7.852z" fill="#e8b663"/><path d="M101.779 188.002c5.302-1.112 9.566-3.36 12.184-6.402-1.403.218-2.777.444-4.354.599-9.181.889-16.242-.884-22.952-4.37 2.783 6.068 9.014 9.21 15.122 10.173z" fill="#fff"/><path d="M333.469 80.145c-3.005-3.191-5.122-7.796-6.71-8.86-2.12 0-11.829-.177-18.536-1.42 3.705 4.432 15.005 10.634 25.246 10.28z"/><path d="M302.514 142.865c5.768-6.732 17.301-22.324 23.185-32.007 2.702-4.447 4.724-10.037 7.397-15.565-15.569 24.806-27.626 34.594-37.057 41.547-10.623 7.843-6.986 20.504 7.069 19.155-4.354-1.34-5.633-7.244-.594-13.13zm-126.406 41.347c-6.124 0-8.474 3.066-8.708 8.972-.238 5.979-2.909 17.91-9.076 31.277 6.148-10.354 9.606-20 11.888-26.932 2.128-6.473 4.246-7.891 11.31-7.891 26.363 0 58.487-8.18 78.149-23.606 10.99 3.075 30.929 7.14 45.033 7.486a90.212 90.212 0 014.207-1.535c-14.594-.313-27.24-3.46-49.945-12.35-33.194 24.579-77.914 24.579-82.858 24.579z" fill="#ffcb05"/><path d="M302.514 142.865c5.768-6.732 17.301-22.324 23.185-32.007 1.914-3.151 3.491-6.9 5.2-10.777-10.83 19.125-26.753 33.75-33.624 40.802-3.356 3.448-4.767 9.424-2.117 12.08 2.006 2.01 4.398 2.755 7.823 2.983-4.248-1.415-5.456-7.256-.467-13.081zm-124.685 53.863c26.602 1.423 66.071-5.666 90.79-22.682 2.834-.812 14.214-1.154 24.532-1.414-12.055-1.458-25.27-4.297-33.479-6.6-19.662 15.428-51.786 23.606-78.149 23.606-7.063 0-9.181 1.418-11.31 7.89-2.568 7.804-6.602 19.03-14.341 30.85 11.133-13.681 18.244-29.83 21.957-31.65z"/><path d="M385.52 90.242c1.26-1.062 2.203-2.313 2.676-3.81-15.799-5.581-27.539-16.922-31.337-20.285-3.794-.708-9.444-.622-11.297-.622-2.473-3.011-9.713-14.352-22.864-19.754-1.123-.46-2.203-.993-3.285-1.512 6.273 6.669 19.301 22.695 23.85 30.768.925 1.64 2.202 3.392 2.3 4.229-11.653 8.327-14.281 22.41-19.863 31.6-5.884 9.683-17.417 25.275-23.185 32.007-5.739 6.705-3.283 13.448 2.579 13.41 21.517-22.325 39.672-56.497 39.32-59.687-.356-3.19-2.823-5.637-5.121-7.853 3.355 1.507 4.59 3.014 6.973 5.67.765.339 5.534.974 11.583 1.17 3.834-4.705 14.632-11.371 27.671-5.331zm-116.902 83.804c-24.719 17.016-64.188 24.104-90.79 22.682-4.987 2.448-16.097 30.758-34.872 44.212 8.22-2.306 16.496-4.963 24.382-8.6 16.369-7.553 37.426-19.313 45.961-27.577 7.886.646 12.472 1.888 20.241 2.595 14.545-6.634 57.709-29.262 74.751-35.175-9.154.46-35.174.576-39.673 1.863z" fill="#fff"/><path d="M332.569 59.946c5.826 4.428 10.342 10.898 12.285 12.492 2.56.353 8.475.885 8.475.885s6.178 7.619 18.538 12.045c-10.154-1.237-13.771-4.517-16.509-4.961-4.066-.658-10.062-.354-10.062-.354s-6.9-13.287-12.727-20.107zm47.31 28.141c-.434.7 2.067 2.57 5.129 4.167 2.182-1.756 3.751-3.8 4.499-6.175-4.084.17-9.138 1.23-9.628 2.008zm-215.379.195c21.244-11.873 26.444-27.883 24.829-38.681-4.124-.09-6.813.177-10.766 1.194 0 0-2.033-23.518-6.803-27.101-4.034 1.167-8.949 3.594-12.711 6.206-.495-4.114-4.32-11.876-7.056-13.937-3.267 1.61-6.587 4.13-8.951 7.188-4.335-6.622-7.645-11.374-12.617-16.91l-.094-.224-.05.136c-5.016 5.579-8.334 10.35-12.689 16.998-2.365-3.06-5.684-5.578-8.951-7.188-2.735 2.06-6.555 9.648-7.052 13.755-4.659-3.057-8.681-4.857-12.717-6.024-4.768 3.583-6.802 27.1-6.802 27.1-3.952-1.016-6.642-1.282-10.767-1.193-1.612 10.798 3.587 26.808 24.828 38.68-8.508-.337-19.988-3.415-26.082-8.454-1.076 28.696 29.491 40.12 52.617 35.097.449 5.135 4.123 12.045 7.642 14.732l.003-.141.011.026.002.115.035-.03.004.01.006-.017c3.507-2.725 7.151-9.591 7.596-14.695 23.128 5.023 53.695-6.401 52.619-35.097-6.096 5.039-17.575 8.117-26.084 8.455z"/><path d="M170.48 53.858c0 7.885-18.002 20.72-40.212 20.72-22.207 0-40.21-12.204-40.21-20.72 0-8.511 18.003-18.148 40.21-18.148 22.21 0 40.212 10.264 40.212 18.148z" fill="#fff"/><path d="M132.392 54.196c0 4.989-.951 9.039-2.121 9.039-1.169 0-2.118-4.05-2.118-9.04 0-4.986.948-9.035 2.118-9.035s2.121 4.049 2.121 9.036zm8.238 0c0 4.989-.949 9.039-2.119 9.039-1.169 0-2.118-4.05-2.118-9.04 0-4.986.949-9.035 2.118-9.035 1.17 0 2.119 4.049 2.119 9.036zm-16.48 0c0 4.989-.949 9.039-2.118 9.039s-2.119-4.05-2.119-9.04c0-4.986.949-9.035 2.119-9.035 1.17 0 2.118 4.049 2.118 9.036z"/><path d="M130.271 32.465l-6.558-5.3s2.499-12.505 6.552-16.858c4.537 4.59 6.562 16.859 6.562 16.859l-6.556 5.299zm19.866 2.885c.569-.283 4.375-2.984 6.266-3.81-.352-3.628-1.312-9.065-4.61-12.725-3.763 2.364-10.123 8.98-11.769 12.996-.18.432-.318.869-.444 1.309 3.285.423 7.598 1.399 10.557 2.23zm19.961-8.031c-2.592.56-10.147 4.935-13.852 10.389 8.953 3.852 15.13 9.256 16.561 14.235l.586-.287c2.59-2.713-.351-20.553-3.295-24.337z" fill="#e8b663"/><path d="M110.061 35.529c-1.414-1.33-3.267-2.924-5.56-4.251 0-3.545.949-8.803 4.243-12.462 3.768 2.364 10.124 8.98 11.771 12.996.179.432.318.869.444 1.309-3.284.422-7.941 1.578-10.898 2.408zm-19.622-8.21c2.594.56 10.15 4.935 13.852 10.389-8.95 3.852-15.13 9.256-16.558 14.235l-.587-.287c-2.59-2.713.349-20.553 3.293-24.337zm94.675 26.108c1.527 10.04-11.536 32.248-35.311 35.083 14.006-10.161 24.012-20.793 27.895-33.43 2.12-1.298 4.707-1.768 7.416-1.653z" fill="#ffcb05"/><path d="M75.425 53.427c-1.53 10.04 11.534 32.248 35.309 35.083-14.005-10.161-24.013-20.793-27.895-33.43-2.117-1.298-4.705-1.768-7.414-1.653z" fill="#e8b663"/><path d="M130.485 78.715c-17.372 0-32.292-7.817-39.018-15.982-.398.169-.837.356-1.199.495 3.53 9.335 20.126 24.45 27.425 28.47-1.647-3.427-2.826-5.793-3.177-10.984 3.049 6.009 7.396 12.602 15.711 19.906.01.018.012.037.025.056l.015-.02.018.02c.011-.02.013-.038.025-.056 8.314-7.304 12.66-13.897 15.712-19.906-.352 5.19-1.53 7.557-3.177 10.985 7.296-4.02 23.893-19.136 27.425-28.471-.328-.122-.728-.3-1.089-.451-6.864 7.965-21.587 15.938-38.696 15.938zm.05 27.982c4.355 4.49 18.066 6.44 28.48 4.49 10.416-1.95 26.957-11.93 27.132-25.52-5.122 3.55-13.772 6.448-25.718 6.856-11.406.394-22.48 1.187-29.894 14.174z" fill="#e8b663"/><path d="M186.136 85.787c-4.038 7.224-17.595 15.585-28.176 15.706-10.432.117-20.605.56-27.348 5.092-.024.04-.052.067-.077.112 4.355 4.49 18.066 6.44 28.48 4.49 10.386-1.943 26.851-11.875 27.121-25.4z" fill="#ffcb05"/><path d="M157.96 101.493c7.338-.083 16.097-4.141 22.138-9.025-5.888 4.069-14.006 6.777-22.963 5.837-8.617-.91-14.829 1.283-18.26 4.815 5.687-1.35 12.338-1.55 19.085-1.627z" fill="#fff"/><path d="M130.005 106.697c-4.357 4.49-18.066 6.44-28.482 4.49-10.417-1.95-26.954-11.93-27.129-25.52 5.118 3.55 13.769 6.448 25.715 6.856 11.405.394 22.48 1.187 29.896 14.174z" fill="#ffcb05"/><path d="M74.404 85.787c4.034 7.224 17.593 15.585 28.176 15.706 10.429.117 20.605.56 27.349 5.092.024.04.051.067.076.112-4.357 4.49-18.066 6.44-28.482 4.49-10.385-1.943-26.853-11.875-27.119-25.4z" fill="#e8b663"/><path d="M102.58 101.493c-7.342-.083-16.099-4.141-22.138-9.025 5.886 4.069 14.004 6.777 22.961 5.837 8.619-.91 14.828 1.283 18.262 4.815-5.687-1.35-12.338-1.55-19.085-1.627z" fill="#fff"/><path d="M130.262 111.47l4.852 3.533s-2.146 8.334-4.851 11.233c-3.021-3.055-4.852-11.233-4.852-11.233l4.851-3.533z" fill="#e8b663"/><path d="M130.263 78.7c-17.273-.063-32.097-7.838-38.796-15.968-.398.169-.837.356-1.199.495 3.53 9.335 20.126 24.45 27.425 28.47-1.647-3.427-2.826-5.793-3.177-10.984 3.049 6.009 7.396 12.602 15.711 19.906.01.018.012.037.025.056l.01-.013V78.7zm-.001 32.77l-4.85 3.533s1.831 8.178 4.852 11.233V111.47h-.002zm.001-79.012V10.31c-4.051 4.352-6.55 16.856-6.55 16.856l6.55 5.29z" fill="#ffcb05"/></svg>