<?xml version="1.0" encoding="utf-8"?><!DOCTYPE svg PUBLIC "-//W3C//DTD SVG 1.1//EN" "http://www.w3.org/Graphics/SVG/1.1/DTD/svg11.dtd"><svg version="1.1" id="Logo" xmlns="http://www.w3.org/2000/svg" xmlns:xlink="http://www.w3.org/1999/xlink" x="0px" y="0px" width="1000px" height="1000px" viewBox="0 0 1000 1000" enable-background="new 0 0 1000 1000" xml:space="preserve"><path d="M962.104,229.375c-19.355-12.896-34.177-29.119-40.358-32.854c-6.173-3.752-14.918-9.153-36.656-9.153	c0,0-11.524-17.478-18.945-25.372c-7.412-7.902-18.951-17.467-35.834-24.122c-16.886-6.656-40.777-18.298-54.771-31.194	c-14.001-12.892-22.656-25.787-57.663-26.207c0,0,12.354,8.321,19.767,18.302c7.408,9.979,16.063,27.034,24.714,37.014	c8.651,9.988,20.591,20.799,32.534,29.12c11.943,8.317,21.425,17.882,18.944,22.045c0,0-39.946-5.825-76.192,2.493	c0,0,16.471,49.498,65.491,64.472c0,0,1.639,0.411-1.649,5.824c-3.293,5.402-44.07,64.049-98.438,99.41	c-54.371,35.34-94.736,57.385-181.634,76.109c0,0-90.197,13.719-110.372,19.132c-20.19,5.409-35.015,11.643-58.495,38.27	c0,0-7.004,1.661-21.417-2.505c-14.413-4.155-21.825-3.735-39.946-0.831c-18.133,2.908-30.057,6.659-56.433,2.081	c-26.353-4.57-43.995-12.892-48.186-15.393c-3.293-2.493,5.358,20.802,11.54,29.535c6.173,8.733,19.763,26.615,43.238,28.692	c23.483,2.089,38.301-6.647,47.778-9.137c9.474-2.505,17.713-5.413,30.064-1.255c9.807,3.297,12.363,3.328,10.293,7.902	c-2.058,4.578-6.992,24.538-9.051,47.833c-2.069,23.291-3.712,39.1-28.426,52.815c-24.715,13.73-59.302,24.126-84.016,17.065	c0,0-18.121,32.44-35.827,46.579c-17.722,14.135-48.189,36.18-69.611,45.328c-21.421,9.16-26.355,11.653-31.307,10.403	l-8.239,11.646l-18.525-0.415L0,826.648c0,0,19.352,7.486,44.058-0.835c24.715-8.317,103.799-58.235,136.737-79.857	c32.961-21.633,72.232-46.908,109.356-56.001c40.347-6.645,100.338-25.091,129.164-36.74c28.838-11.646,91.895-48.26,120.631-68.643	c0,0,4.899-3.857,12.774-2.078c11.531,1.254,27.59,4.579,33.771,3.748c6.233,0.227,60.953-23.295,74.954-30.367	c14.006-7.074,78.255-42.839,89.379-48.24c11.12-5.413,18.12-8.745,15.239-4.162c-2.889,4.57-27.191,30.358-39.542,39.507	c-12.355,9.148-22.236,19.552-27.6,15.389c-5.35-4.155-3.015-7.2-17.302,1.247c-11.112,6.663-62.59,35.775-62.59,35.775	s41.185,17.055,70.011,13.73c28.834-3.331,42.991-12.504,59.874-24.146c16.882-11.649,45.562-37.003,52.979-46.154	c7.409-9.149,22.963-29.164,33.256-43.714c9.697-14.848,37.029-65.95,39.092-71.363c0,0-0.584-0.152-64.245-0.152	c0,0,33.495-46.986,43.783-66.53c10.313-19.548,29.666-61.137,30.896-65.719c1.242-4.566,2.062-2.904,14.425-2.077	c12.343,0.835,41.185-1.247,51.478-3.32c12.45-2.05,30.327-6.898,38.715-8.745c0,0,7.677-5.304,10.706-11.226v-17.467	C1000,248.508,981.476,242.264,962.104,229.375"/><path fill="#FFC425" d="M782.634,210.891c0,0,51.403,2.21,53.144,3.535c1.757,1.325,14.434,23.645,14.434,23.645	S811.729,238.709,782.634,210.891 M878.604,214.963c0,0,0.032-0.004,0.091-0.008c-4.932-5.684-29.316-34.458-29.316-34.458	c-7.706-11.442-23.797-28.364-26.392-31.069c-1.619-0.908-3.382-1.846-5.44-2.817c-19.355-9.148-35.008-20.387-40.369-24.546	c-4.661-3.618-26.714-22.935-32.671-29.284c5.871,8.419,28.728,42.792,56.146,60.901c32.135,21.205,37.065,39.088,38.316,50.322	c0,0-37.484-13.308-81.555-4.16c0,0-0.42,23.292,65.072,51.162c0,0-35.016,60.312-80.316,98.154	c-45.305,37.853-90.601,66.13-163.097,87.767c-72.712,18.18-125.201,22.46-145.388,27.03c-20.183,4.567-51.486,10.396-72.073,42.839	c0,0-7.832,1.247-27.191-3.323c-18.556-4.383-29.19-7.216-51.811-0.851c-0.589,0.325-10.529,5.828-22.837,11.692	c-11.916,6.049-21.849,6.671-22.308,6.699c5.981,1.665,18.208,3.786,32.711-0.902c20.595-6.659,18.944-9.151,33.364-9.151	c14.405,0,16.887-0.831,45.708,12.476c0,0-9.881,20.383-13.169,47.002c-3.301,26.615-1.251,53.234-34.189,73.201	c-32.945,19.964-76.611,22.464-86.904,21.21c0,0-12.359,32.024-67.13,64.473c-54.778,32.443-65.902,31.193-69.203,33.271	c-3.293,2.09-6.174,11.227-8.643,13.315l-20.184-1.246c0,0-26.356,34.933-25.532,37.425c0.819,2.498,19.763,4.575,63.421-21.617	c43.666-26.215,82.374-55.327,107.499-69.885c25.122-14.55,54.779-30.778,72.896-37.426c18.121-6.66,67.115-15.93,85.04-22.049	c0.02-0.012,21.088-9.886,40.949-43.164l-0.012,0.027c0,0,19.242-48.351,28.943-71.046c9.694-22.699,16.361-23.636,38.179-22.425	c21.821,1.211,55.758-4.241,96.363-13.335c40.608-9.09,85.152-38.331,92.122-43.027c6.969-4.7,11.971-5.433,14.244-5.433	s10.908,1.944,10.908,1.944l71.019,15.001l-5.448,0.442c0.944-0.047,1.882-0.09,2.85-0.141l48.852-1.818	c0,0-0.062,0.023-0.184,0.069c0.16-0.039,0.325-0.069,0.486-0.105c0,0-13.583,55.731-90.605,97.735c0,0-7.425-6.318-10.302-7.546	c-2.893,0.42-42.008,21.692-39.131,23.362c2.881,1.662,35.831,11.642,65.483-2.085c29.657-13.731,69.604-43.255,95.137-83.602	c25.545-40.346,32.275-50.818,40.934-69.947c0,0-38.785,0.913-65.628,0.493c-6.864,0.322-11.528,0.511-15.014,0.507	c0.663-0.553,1.843-1.568,3.435-3.007c-2.18,1.948-3.398,2.92-3.398,2.92h-2.414h-0.013h0.004c0,0-26.666-1.521-27.606-16.977	c-0.94-15.451,17.321-26.588,40.789-52.729c23.464-26.133,65.068-85.493,65.068-85.493s-2.403,4.178-6.437,11.011	c13.351-22.002,19.398-36.576,19.398-36.576c6.361-16.06,14.021-17.929,19.466-18.536c4.942-0.553,13.241-0.497,14.734-0.482	L878.604,214.963z"/><path fill="#FFFFFF" d="M259.771,514.314c12.692-6.041,22.896-11.721,22.896-11.721l-10.972,1.666c0,0-32.239,6.848-67.407-9.51	c0,0,1.775,8.118,11.47,15.871c4.902,3.924,12.072,7.648,21.668,10.396C237.425,521.017,247.573,520.511,259.771,514.314 M792.12,478.139l-48.855,1.819c-0.965,0.046-1.901,0.093-2.846,0.137l-61.635,5.014c-101.212,58.787-200.303,59.697-221.211,60.908	c-20.907,1.212-23.334,9.999-25.756,12.422c-0.753,0.757-4.696,6.812-9.769,14.793c-5.931,9.76-13.111,21.605-21.656,34.572	c-3.756,6.048-6.304,10.168-6.304,10.168l0.012-0.027c-19.873,33.29-40.949,43.164-40.949,43.164	c51.886-14.118,110.588-46.158,127.074-55.738c16.479-9.557,52.306-36.596,55.197-38.673c2.882-2.081,46.528,3.74,53.948,3.74	c7.429,0,86.094-39.939,114.096-54.9C731.47,500.563,792.12,478.139,792.12,478.139 M776.731,434.01	c-0.066,0.06-0.091,0.079-0.157,0.138c-0.098,0.086-0.242,0.22-0.337,0.306C776.406,434.304,776.555,434.171,776.731,434.01 M991.037,252.533c-5.688-2.454-28.168-11.857-41.688-21.669c-16.066-11.641-23.91-23.275-37.923-27.873	c-14.01-4.57-29.25-4.144-31.315-3.739c0,0-20.026-36.909-57.491-50.205c0,0,0.032,0.091,0.086,0.229	c0.095,0.05,0.188,0.102,0.278,0.152c2.596,2.705,18.689,19.626,26.396,31.068c0,0,24.385,28.778,29.312,34.458	c0.87-0.09,8.008-0.784,14.417,0.008c6.836,0.848,16.173,8.636,27.967,18.333c11.215,9.224,36.376,19.587,38.911,20.621l0,0	c0.039,0.017,0.028,0.013,0.06,0.024c0.02,0.008,0.071,0.027,0.087,0.035h0.004c0.035,0.016,0.117,0.047,0.117,0.047	c-2.646,0.925-5.985,1-9.697,0.51c-16.914-2.238-41.679-16.354-45.356-16.898c-3.856-0.572-7.639-0.518-8.623-0.49	c0,0,0,0.005,0,0.009c0,0-0.078,0-0.195-0.004c-0.036,0.004-0.059,0.004-0.059,0.004v-0.004c-1.494-0.012-9.792-0.067-14.735,0.485	c-5.444,0.608-13.104,2.474-19.469,18.533c0,0-6.816,16.439-21.971,40.757c-8.561,14.473-31.907,52.545-49.62,73.336	c-17.69,20.79-33.118,44.618-29.41,55.429c3.708,10.83,9.799,11.242,9.799,11.242h2.18h0.235c0,0,0.012-0.013,0.021-0.016	c0.098-0.079,1.261-1.024,3.221-2.768c12.497-11.128,59.42-57.018,101.099-151.95c0,0,0.765-1.933-12.127-22.252	c0.07-0.192,0.145-0.389,0.215-0.58c4.245,4.226,15.781,15.021,24.68,17.012c0.869,0.195,1.696,0.368,2.505,0.529	c2.449,0.639,7.075,1.653,13.46,2.289c0.169-0.113,0.372-0.243,0.544-0.357c-0.176,0.118-0.384,0.251-0.561,0.365	c8.161,0.815,19.219,0.992,32.397-1.066c29.092-4.543,44.85-9.999,44.85-9.999s-3.233-5.735-12.226-9.988	c0,0-0.043-0.023-0.051-0.026C983.565,261.89,990.759,254.073,991.037,252.533"/><g><path d="M176.019,851.447c-2.221-1.808-4.193-3.33-5.92-4.562c-1.727-1.234-3.392-2.221-4.995-2.961 c-1.604-0.739-3.188-1.273-4.748-1.604c-1.562-0.327-3.207-0.493-4.934-0.493c-3.126,0-5.593,0.679-7.4,2.036 c-1.81,1.356-2.713,3.187-2.713,5.488c0,1.232,0.164,2.323,0.493,3.268c0.328,0.946,1.006,2.016,2.035,3.207 c1.027,1.192,2.485,2.611,4.379,4.255c1.89,1.646,4.439,3.742,7.646,6.29c2.547,2.056,4.706,3.968,6.475,5.734 c1.768,1.77,3.164,3.558,4.193,5.365c1.026,1.81,1.768,3.681,2.22,5.611c0.451,1.934,0.679,4.052,0.679,6.353 c0,4.358-0.863,8.367-2.59,12.024c-1.728,3.66-4.132,6.826-7.216,9.497c-3.083,2.673-6.764,4.77-11.038,6.29 c-4.275,1.521-8.922,2.282-13.937,2.282c-9.456,0-17.679-1.646-24.666-4.934l-2.344-17.637c2.713,2.056,5.18,3.782,7.399,5.18 c2.221,1.399,4.317,2.528,6.29,3.392c1.974,0.863,3.904,1.501,5.797,1.912c1.891,0.412,3.823,0.616,5.797,0.616 c3.946,0,7.132-0.966,9.559-2.898c2.424-1.931,3.638-4.46,3.638-7.585c0-1.314-0.165-2.507-0.493-3.577 c-0.329-1.066-0.968-2.219-1.911-3.453c-0.947-1.233-2.304-2.651-4.07-4.255c-1.77-1.604-4.091-3.596-6.969-5.981 c-2.713-2.221-4.995-4.296-6.845-6.229c-1.85-1.931-3.33-3.802-4.44-5.611c-1.109-1.808-1.892-3.639-2.343-5.488 c-0.453-1.851-0.679-3.843-0.679-5.981c0-4.028,0.802-7.688,2.405-10.977c1.604-3.288,3.885-6.105,6.846-8.449 c2.96-2.343,6.555-4.132,10.791-5.364c4.234-1.234,8.941-1.851,14.122-1.851c3.863,0,7.378,0.33,10.545,0.986 c3.164,0.659,6.475,1.687,9.929,3.084L176.019,851.447z"/><path d="M208.823,898.961c-0.493,2.217-0.884,4.27-1.172,6.158s-0.431,3.407-0.431,4.555c0,1.396,0.225,2.628,0.678,3.695 c0.451,1.066,1.376,2.543,2.775,4.432h-35.521c1.48-1.15,2.754-2.281,3.823-3.392c1.067-1.11,1.974-2.362,2.713-3.762 c0.741-1.397,1.397-3.021,1.974-4.871c0.574-1.851,1.15-4.132,1.727-6.845l10.606-47.978c1.068-4.768,1.604-8.345,1.604-10.729 c0-1.314-0.228-2.486-0.679-3.515c-0.453-1.028-1.378-2.569-2.775-4.626h30.711c3.78,0,7.008,0.062,9.681,0.186 c2.672,0.123,4.995,0.329,6.969,0.616c1.974,0.289,3.679,0.699,5.119,1.233c1.437,0.535,2.774,1.172,4.008,1.912 c2.301,1.398,4.089,3.452,5.365,6.167c1.273,2.713,1.911,5.796,1.911,9.249c0,4.193-0.721,8.038-2.158,11.532 c-1.439,3.496-3.475,6.496-6.104,9.003c-2.633,2.51-5.778,4.461-9.436,5.858c-3.659,1.398-7.708,2.097-12.148,2.097 c-2.633,0-4.934-0.186-6.906-0.555c-1.974-0.37-4.153-1.049-6.537-2.035c2.631-0.164,4.749-0.532,6.352-1.106 c1.604-0.572,3.062-1.475,4.379-2.704c2.22-2.212,3.986-5.16,5.304-8.849c1.313-3.687,1.973-7.496,1.973-11.43 c0-7.209-3.083-10.814-9.25-10.814h-2.097L208.823,898.961z"/><path d="M249.646,917.801c1.48-1.15,2.754-2.281,3.823-3.392c1.067-1.11,1.974-2.362,2.713-3.762 c0.741-1.397,1.397-3.021,1.974-4.871c0.574-1.851,1.15-4.132,1.727-6.845l10.606-47.978c1.068-4.604,1.604-8.18,1.604-10.729 c0-1.314-0.229-2.486-0.679-3.515c-0.453-1.028-1.378-2.569-2.775-4.626h33.547c5.508,0,9.99,0.246,13.444,0.74 c3.452,0.493,6.247,1.275,8.386,2.343c2.63,1.399,4.728,3.599,6.29,6.599c1.561,3.003,2.344,6.352,2.344,10.052 c0,3.619-0.679,7.134-2.035,10.545c-1.356,3.413-3.104,6.147-5.242,8.202c-1.892,1.727-3.946,2.96-6.166,3.699 c-2.22,0.74-5.181,1.152-8.88,1.234l4.562,9.866c2.631,5.673,4.872,10.36,6.723,14.061c1.85,3.699,3.493,6.763,4.933,9.188 c1.438,2.427,2.714,4.317,3.823,5.674c1.11,1.356,2.282,2.528,3.515,3.515c-1.892,0.247-3.413,0.41-4.562,0.493 c-1.152,0.082-2.14,0.164-2.96,0.247c-0.823,0.081-1.584,0.123-2.282,0.123c-0.699,0-1.584,0-2.651,0 c-4.193,0-7.668-0.351-10.422-1.048c-2.756-0.698-5.037-1.869-6.845-3.516c-0.823-0.739-1.604-1.604-2.344-2.59 c-0.74-0.987-1.501-2.22-2.281-3.7c-0.782-1.479-1.625-3.309-2.528-5.488c-0.906-2.178-1.974-4.829-3.207-7.955l-6.29-16.402 l-4.687,20.967c-0.576,2.713-0.987,4.871-1.233,6.475c-0.247,1.603-0.369,3.021-0.369,4.255c0,1.399,0.225,2.632,0.678,3.7 c0.45,1.069,1.376,2.549,2.774,4.439H249.646z M288.743,872.168c0.574,0.165,1.048,0.289,1.418,0.369 c0.371,0.083,0.884,0.124,1.542,0.124c2.301,0,4.419-0.513,6.352-1.542c1.932-1.027,3.596-2.466,4.995-4.316 c1.397-1.851,2.508-4.028,3.33-6.537c0.821-2.507,1.233-5.241,1.233-8.201c0-6.084-3.742-9.127-11.224-9.127h-1.11L288.743,872.168 z"/><path d="M338.235,917.801c1.48-1.15,2.732-2.281,3.763-3.392c1.026-1.11,1.93-2.362,2.713-3.762 c0.78-1.397,1.458-3.021,2.034-4.871c0.575-1.851,1.151-4.132,1.728-6.845l10.605-47.978c1.068-4.604,1.604-8.18,1.604-10.729 c0-1.314-0.228-2.486-0.679-3.515c-0.452-1.028-1.378-2.569-2.775-4.626h35.521c-1.479,1.152-2.756,2.282-3.823,3.392 c-1.069,1.11-1.974,2.365-2.714,3.762c-0.739,1.399-1.398,3.021-1.973,4.872c-0.576,1.85-1.152,4.132-1.728,6.845l-10.606,47.978 c-0.576,2.302-0.986,4.378-1.233,6.228c-0.246,1.85-0.369,3.352-0.369,4.502c0,1.399,0.226,2.611,0.678,3.638 c0.451,1.029,1.376,2.528,2.775,4.502H338.235z"/><path d="M463.455,917.801c-1.315,0.328-2.55,0.556-3.699,0.679c-1.152,0.123-2.468,0.185-3.947,0.185 c-3.536,0-6.578-0.329-9.127-0.986s-4.852-1.912-6.906-3.762c-2.056-1.85-4.008-4.398-5.857-7.646 c-1.851-3.247-3.846-7.42-5.982-12.519l-14.307-33.67l-8.634,38.851c-0.575,2.632-0.986,4.79-1.233,6.475 c-0.246,1.686-0.37,3.104-0.37,4.255c0,1.399,0.227,2.632,0.679,3.7c0.451,1.069,1.376,2.549,2.775,4.439h-25.16 c1.479-1.15,2.734-2.281,3.761-3.392c1.028-1.11,1.932-2.362,2.714-3.762c0.781-1.397,1.459-3.021,2.035-4.871 c0.574-1.851,1.15-4.132,1.727-6.845l10.607-47.978c1.067-4.604,1.604-8.18,1.604-10.729c0-1.48-0.269-2.837-0.803-4.07 c-0.535-1.233-1.501-2.59-2.898-4.07h28.12c0.328,1.152,0.821,2.714,1.48,4.687c0.657,1.974,1.438,4.07,2.343,6.29l18.624,45.017 l8.264-37.123c1.066-4.85,1.604-8.427,1.604-10.729c0-1.397-0.229-2.609-0.679-3.639c-0.453-1.027-1.378-2.528-2.775-4.502h25.16 c-1.48,1.152-2.734,2.282-3.762,3.392c-1.029,1.11-1.934,2.365-2.714,3.762c-0.782,1.399-1.461,3.021-2.034,4.872 c-0.576,1.85-1.152,4.132-1.727,6.845l-12.95,58.583L463.455,917.801z"/><path d="M555.536,853.175c-2.55-3.535-5.55-6.167-9.004-7.895c-3.453-1.726-7.522-2.589-12.209-2.589 c-4.44,0-8.511,0.905-12.211,2.713c-3.7,1.81-6.887,4.378-9.558,7.708c-2.674,3.33-4.729,7.319-6.167,11.964 c-1.439,4.646-2.158,9.805-2.158,15.478c0,8.471,1.745,15.108,5.241,19.919c3.494,4.81,8.325,7.215,14.492,7.215 c0.657,0,1.233-0.02,1.727-0.062c0.493-0.041,1.067-0.143,1.727-0.309l3.083-13.689c0.494-2.467,0.883-4.357,1.172-5.674 c0.287-1.314,0.493-2.362,0.617-3.145c0.123-0.78,0.204-1.397,0.246-1.85c0.041-0.452,0.062-1.007,0.062-1.665 c0-1.397-0.308-2.652-0.925-3.763s-1.748-2.404-3.392-3.885h31.82c-0.74,1.233-1.337,2.262-1.789,3.083 c-0.452,0.823-0.844,1.728-1.171,2.714c-0.33,0.986-0.679,2.201-1.048,3.638c-0.371,1.44-0.803,3.352-1.296,5.735l-2.713,12.087 c-0.986,4.605-1.48,8.223-1.48,10.854c0,0.905,0.164,2.016,0.494,3.33c-4.03,1.398-8.677,2.487-13.938,3.269 c-5.263,0.78-10.689,1.172-16.28,1.172c-13.239,0-23.475-3.247-30.71-9.744c-7.236-6.494-10.853-15.744-10.853-27.75 c0-8.468,1.828-16.382,5.488-23.742c3.657-7.357,8.735-13.381,15.231-18.067c9.207-6.577,20.637-9.867,34.287-9.867 c4.521,0,8.633,0.289,12.333,0.863c3.699,0.577,7.522,1.522,11.47,2.837L555.536,853.175z"/><path d="M609.961,832.084c3.454,0,6.167,0.021,8.141,0.062c1.973,0.043,3.596,0.104,4.871,0.185 c1.274,0.083,2.363,0.207,3.269,0.371c0.904,0.166,1.932,0.412,3.084,0.739c3.452,0.987,6.145,2.837,8.077,5.55 c1.932,2.714,2.899,5.921,2.899,9.62c0,3.454-0.659,6.806-1.974,10.053c-1.316,3.248-3.043,5.9-5.18,7.954 c-1.646,1.646-3.454,2.88-5.427,3.7c-1.974,0.823-4.563,1.522-7.771,2.097c11.511,1.233,17.267,7.523,17.267,18.87 c0,5.099-1.214,9.724-3.639,13.875c-2.426,4.153-5.653,7.175-9.681,9.065c-1.727,0.822-3.33,1.461-4.811,1.911 c-1.48,0.453-3.352,0.802-5.612,1.049c-2.262,0.246-5.098,0.412-8.51,0.493c-3.412,0.083-7.873,0.123-13.381,0.123h-33.054 c1.48-1.15,2.754-2.281,3.823-3.392c1.067-1.11,1.974-2.362,2.713-3.762c0.741-1.397,1.397-3.021,1.974-4.871 c0.574-1.851,1.15-4.132,1.727-6.845l10.606-48.101c1.068-4.604,1.604-8.14,1.604-10.606c0-1.314-0.228-2.486-0.678-3.515 c-0.453-1.028-1.378-2.569-2.775-4.626H609.961z M590.475,905.221c1.314,0.412,2.424,0.679,3.33,0.802 c0.903,0.123,1.974,0.185,3.206,0.185c4.851,0,8.735-1.376,11.655-4.131c2.918-2.754,4.379-6.475,4.379-11.162 c0-4.027-1.276-7.215-3.823-9.559c-2.55-2.343-6.044-3.515-10.483-3.515c-0.413,0-0.782,0-1.11,0c-0.33,0-0.74,0.083-1.233,0.246 L590.475,905.221z M598.861,866.74c0.657,0.083,1.253,0.146,1.788,0.186c0.534,0.043,1.006,0.062,1.419,0.062 c4.193,0,7.584-1.521,10.175-4.564c2.59-3.041,3.885-6.946,3.885-11.716c0-2.961-0.822-5.077-2.467-6.352 c-1.646-1.274-4.316-1.912-8.017-1.912h-1.356L598.861,866.74z"/><path d="M697.823,830.357c11.181,0,19.813,3.126,25.9,9.374c5.427,5.426,8.14,13.812,8.14,25.159 c0,8.141-1.193,15.583-3.577,22.323c-2.386,6.743-5.734,12.499-10.052,17.267c-4.316,4.77-9.496,8.471-15.539,11.101 c-6.044,2.63-12.766,3.947-20.166,3.947c-11.1,0-19.591-2.961-25.468-8.881c-5.88-5.92-8.818-14.511-8.818-25.776 c0-3.864,0.327-7.688,0.986-11.471c0.657-3.78,1.582-7.399,2.775-10.853c1.19-3.454,2.651-6.701,4.378-9.744 c1.727-3.041,3.7-5.796,5.921-8.263C670.771,835.087,682.611,830.357,697.823,830.357z M694.986,841.827 c-6.25,0-11.513,5.058-15.787,15.171c-0.905,2.139-1.726,4.502-2.467,7.091c-0.739,2.591-1.377,5.263-1.911,8.017 c-0.535,2.756-0.946,5.571-1.233,8.448c-0.289,2.88-0.432,5.593-0.432,8.141c0,6.003,1.048,10.73,3.146,14.183 c2.096,3.454,4.952,5.181,8.571,5.181c6.741,0,12.25-5.385,16.527-16.157c0.82-2.054,1.561-4.336,2.22-6.845 c0.657-2.507,1.233-5.118,1.726-7.832c0.494-2.713,0.864-5.445,1.11-8.201c0.247-2.754,0.37-5.364,0.37-7.831 C706.826,848.283,702.88,841.827,694.986,841.827z"/><path d="M826.237,832.084c-0.823,0.74-1.625,1.461-2.405,2.159c-0.782,0.699-1.541,1.378-2.281,2.034l-4.44,4.193l-29.97,28.243 l5.303,9.744c1.727,3.125,3.474,6.27,5.242,9.435c1.768,3.166,3.516,6.352,5.241,9.559c3.371,6.167,6.29,10.834,8.757,13.998 c2.468,3.167,4.851,5.242,7.154,6.229c-1.894,0.41-3.516,0.719-4.872,0.925c-1.357,0.204-2.611,0.389-3.762,0.555 c-1.152,0.164-2.263,0.267-3.33,0.309c-1.069,0.041-2.263,0.062-3.577,0.062c-8.223,0-13.896-1.563-17.02-4.688 c-0.659-0.574-1.172-1.109-1.542-1.603c-0.37-0.494-0.863-1.274-1.479-2.344c-0.617-1.068-1.439-2.609-2.467-4.625 c-1.029-2.015-2.448-4.871-4.256-8.572l-8.88-17.76l-4.192,18.994c-0.576,2.302-0.987,4.378-1.234,6.228 c-0.246,1.85-0.37,3.352-0.37,4.502c0,1.399,0.227,2.611,0.679,3.638c0.451,1.029,1.376,2.528,2.775,4.502H729.79 c1.48-1.15,2.733-2.281,3.762-3.392c1.027-1.11,1.932-2.362,2.713-3.762c0.781-1.397,1.46-3.021,2.036-4.871 c0.574-1.851,1.15-4.132,1.727-6.845l10.606-47.978c1.067-4.604,1.603-8.18,1.603-10.729c0-1.314-0.227-2.486-0.678-3.515 c-0.453-1.028-1.378-2.569-2.774-4.626h35.52c-1.48,1.152-2.756,2.282-3.823,3.392c-1.069,1.11-1.974,2.365-2.713,3.762 c-0.741,1.399-1.399,3.021-1.974,4.872c-0.576,1.85-1.152,4.132-1.727,6.845l-3.947,17.514l25.16-25.16 c1.644-1.644,2.899-2.918,3.762-3.824c0.863-0.903,1.5-1.603,1.911-2.096s0.658-0.863,0.741-1.11 c0.08-0.246,0.122-0.574,0.122-0.986c0-0.904-0.615-1.974-1.85-3.207H826.237z"/><path d="M887.373,851.447c-2.221-1.808-4.193-3.33-5.92-4.562c-1.727-1.234-3.392-2.221-4.995-2.961 c-1.604-0.739-3.188-1.273-4.748-1.604c-1.563-0.327-3.207-0.493-4.934-0.493c-3.126,0-5.593,0.679-7.4,2.036 c-1.81,1.356-2.713,3.187-2.713,5.488c0,1.232,0.164,2.323,0.493,3.268c0.327,0.946,1.006,2.016,2.034,3.207 c1.028,1.192,2.486,2.611,4.379,4.255c1.891,1.646,4.439,3.742,7.647,6.29c2.547,2.056,4.705,3.968,6.475,5.734 c1.768,1.77,3.164,3.558,4.193,5.365c1.026,1.81,1.767,3.681,2.22,5.611c0.451,1.934,0.678,4.052,0.678,6.353 c0,4.358-0.862,8.367-2.589,12.024c-1.728,3.66-4.132,6.826-7.216,9.497c-3.083,2.673-6.764,4.77-11.038,6.29 c-4.275,1.521-8.923,2.282-13.937,2.282c-9.456,0-17.679-1.646-24.667-4.934l-2.343-17.637c2.713,2.056,5.18,3.782,7.399,5.18 c2.221,1.399,4.316,2.528,6.29,3.392s3.904,1.501,5.797,1.912c1.891,0.412,3.823,0.616,5.797,0.616 c3.946,0,7.132-0.966,9.558-2.898c2.425-1.931,3.639-4.46,3.639-7.585c0-1.314-0.166-2.507-0.493-3.577 c-0.329-1.066-0.968-2.219-1.911-3.453c-0.947-1.233-2.304-2.651-4.07-4.255c-1.77-1.604-4.092-3.596-6.969-5.981 c-2.713-2.221-4.995-4.296-6.845-6.229c-1.85-1.931-3.33-3.802-4.44-5.611c-1.109-1.808-1.892-3.639-2.344-5.488 c-0.452-1.851-0.678-3.843-0.678-5.981c0-4.028,0.802-7.688,2.405-10.977c1.603-3.288,3.885-6.105,6.845-8.449 c2.961-2.343,6.556-4.132,10.792-5.364c4.234-1.234,8.941-1.851,14.122-1.851c3.863,0,7.378,0.33,10.544,0.986 c3.165,0.659,6.476,1.687,9.929,3.084L887.373,851.447z"/></g></svg>