<svg xmlns="http://www.w3.org/2000/svg" viewBox="0 0 600 700"><g stroke-width="5.191" stroke="#000"><path d="M268.7 796.036c.631 20.39-19.227 37.499-35.786 49.237-19.48 13.81-44.763 21.431-68.777 20.676-24.209-.76-48.84-10.713-68.415-25.173-15.087-11.145-34.017-26.1-34.103-44.74-.092-20.235 19.97-36.658 36.576-48.055 19.24-13.205 43.913-20.546 67.374-19.65 24.523.937 49.165 11.472 69.18 25.87 14.58 10.49 33.4 23.987 33.952 41.835z" transform="matrix(.67872 .737 -.74421 .67214 570.87 -53.74)" fill="#f99c1b" stroke-width="4.984"/><path d="M86.429 708.434s.554 31.946 5.714 46.785c7.283 20.943 20.746 39.509 34.643 56.786 14.67 18.24 31.633 35.013 50.714 48.571 10.676 7.587 35 17.858 35 17.858" fill="none" transform="matrix(.96153 0 0 .9633 -54.418 -160.378)"/></g><path d="M166.31 93.648l-4.994 7.746-8.49 1.25-11.987-1.25-7.241-8.121zm287.67 577.737l137.093-3.998c9.625-6.133 2.694-21.047 5.308-30.9 4.194-13-3.98-19.885-14.524-25.6l-74.937-53.95-1.499-74.716-45.448-46.729c3.59-10.614 15.996-17.665 23.035-26.885 15.424-18.303 36.804-32.329 46.386-54.828 2.063-11.486 2.853-22.652-6.386-31.296L393.55 126.633l66.174-71.718c27.606 5.276 67.503-15.445 64.92-42.668-33.174-8.412-42.106 7.457-55.962 15.43-17.193 2.839-10.994 23.494-23.734 31.089l-63.135 67.867L510.665 328.29c3.326 13.666-12.953 17.533-20.472 25.779l-63.93 50.686c-13.652-9.654-26.254-22.165-40.548-30.07-25.125-1.88-51.295-.916-75.778-4.544l-56.227-43.6 48.444-45.73-4.744-250.885c-9.875-8.3-18.321-20.07-29.062-26.266-33.303-.055-66.905-1.885-100.024-.842-13.661 6.072-29.863 8.65-41.968 16.862-3.612 10.107-21.58 9.792-33.2 18.467-10.775 8.045-23.468 22.515-25.044 38.932 9.713 6.725 24.755 3.861 34.28 9.078 8.73 3.13-13.716 15.349-18.767 21.065-16.62 4.192-52.92 10.995-40.39 24.339 12.514-.8 23.768-.632 37.48-2.825 12.469-7.771 22.137-27.785 39.148-19.596 7.575 6.902 25.703 8.5 20.31 21.919-4.305 9.395-19.351 11.604-27.946 18.13l-73.021 39.165c-15.198 9.682 2.006 32.732-13.742 41.511-8.9 8.614-21.646 15.837-18.612 30.18l-.858 56c8.98 7.496 16.93 15.507 15.689 28.118l19.52 146.053L2.499 528.45c1.581 26.185 21.417 1.35 28.655-7.028 18.68-3.567 39.082-4.253 57.434 1.53 8.828-9.751-14.462-18.114-.643-30.764l12.941-33.706 91.895 61.722c23.045 3.292 34.258-24.148 55.436-30.236 21.121-14.647 45.6-23.744 71.642-21.378 18.843-1.083 10.382 6.13-3.575 3.485-12.442.716-26.616-3.386-35.11 8.314l-51.186 41.814-.999 62.971L323.88 638.9c-3.578 12.654-11.677 17.752-24.576 14.83-42.417.22-84.833.442-127.25.663-13.614 9.38-34.63 15.054-34.96 34.734m-.07.6l302.295 7.775c6.508-9.184 18.642-16.418 14.827-29.18-.47-11.544 2.496-24.982-11.35-29.159l-40.256-27.25c9.684-9.53 20.488-16.915 34.25-18.635 15.044 2.823 29.613 12.37 44.476 17.739l40.637 17.638c-5.141 13.16-19.581 7.955-30.692 9.325-13.2 1.52-28.103-3.586-37.73 8.167" fill="#d71f27" stroke="#000" stroke-width="4.996"/><path d="M402.943 611.98l-24.367-13.075 4.238-7.774 24.014-8.128 15.892-8.128 3.178-2.827.706-28.979m-103.472 96.123l57.563 31.099 37.08-.354 6.004-8.128" fill="none" stroke="#000" stroke-width="4.996" stroke-linecap="round"/><path d="M460.153 435.284l2.12 127.575s-.354 3.534-.707 4.594c-.353 1.06-1.766 2.12-2.825 3.888-1.06 1.767-21.896 21.91-21.896 21.91" fill="none" stroke="#000" stroke-width="4.996"/><path d="M513.126 636.895c8.502-2.357 17.141-8.04 26.31-10.072 8.18-1.812 15.896-1.767 25.073-1.767M102.633 109.39l17.23-16.242 15.608.375" fill="none" stroke="#000" stroke-width="4.996" stroke-linecap="round"/><path d="M122.61 93.398s-5.993 6.247-6.243 7.246c-.25 1-1.248 6.248-1.248 6.248" fill="none" stroke="#000" stroke-width="4.996" stroke-linecap="round"/><path d="M139.367 121.772c4.773-2.254 10.481-2.556 14.821.94 4.974 2.69 10.68 2.933 16.004 1.302 10.584-5.555 20.862-11.924 31.33-17.791l.706-67.145-27.9-18.376c-6.12-.181-12.256-1.475-18.363-.707-5.145 5.097-12.993 3.6-19.511 5.124-8.793 1.25-16.634 5.887-24.962 8.79-7.487 3.394-15.2 6.733-22.213 10.883-3.796 5.471-8.933 10.646-8.292 17.875-.099 5.555-1.99 10.766-.949 16.345" fill="none" stroke="#000" stroke-width="4.996"/><path d="M99.412 84.012l39.2 2.474 15.362-12.546s2.472-.706 4.237-.706c1.766 0 3.885 0 6.004.706 2.119.707 4.59 2.297 5.12 3.004.53.707 1.59 1.767 1.237 4.064-.354 2.297-.707 3.71-1.236 5.301-.53 1.59-1.413 5.124-1.413 5.124" fill="none" stroke="#000" stroke-width="4.996" stroke-linecap="round"/><path d="M201.295 105.922l-.353 14.666L31.608 224.31" fill="none" stroke="#000" stroke-width="4.996"/><path d="M14.127 323.612l29.311 10.602 1.942-67.675s.354-1.59.883-2.473c.53-.884 1.59-2.65 2.472-3.358.883-.706 2.472-1.767 3.885-2.827 1.413-1.06 141.79-92.412 141.79-92.412" fill="none" stroke="#000" stroke-width="4.996" stroke-linecap="round"/><path d="M43.085 333.86l9.888 7.422L87.23 311.95l.706-33.925c52.115-33.694 138.773-91.393 180.74-119.554 3.68-2.47 8.418-5.427 10.59-9.568 1.877-3.58 1.436-8.223 1.567-12.056 1.268-37.019 1.503-80.247 1.688-110.085L262.743 4.5M70.63 520.099l-1.059-146.305 1.413-2.474 2.119-2.827 49.087-31.452-1.412-31.452" fill="none" stroke="#000" stroke-width="4.996"/><path d="M86.875 311.597l.354 12.722 161.035-97.89c7.176-3.977 16.916.804 13.481 9.772m-7.477 90.945l-27.899-23.324s-2.891-23.05-4.16-35.182c-.261-2.488-.06-5.752 1.944-7.248 12.018-8.968 23.581-18.315 37.83-25.28" fill="none" stroke="#000" stroke-width="4.996"/><path d="M229.194 306.296l31.43-22.617 1.36-52.87" fill="none" stroke="#000" stroke-width="4.996" stroke-linecap="round"/><path d="M85.11 360.365l5.297 87.642 12.007 11.308" fill="none" stroke="#000" stroke-width="4.996"/><path d="M149.7 48.86c2.447-1.585 5.152-3.793 7.962-4.732 3.199-1.167 2.058-1.48 5.311-2.527 2.274-.852 10.488-1.83 13.17-2.125 2.591-.453 4.17 1.822 2.104 3.28-1.282.987-8.125 3.46-7.742 4.994-2.895 4.982-4.483 9.217-14.73 5.136-2.55.866.417-.17-3.103 1.052-2.316.268-3.435.09-5.727-.72.203-1.744.938-3.6 2.755-4.358z" fill-rule="evenodd"/><path d="M470.382 27.204s12.129-4.79 18.454-6.273c4.669-1.095 14.26-1.908 14.26-1.908" fill="none" stroke="#000" stroke-width="6" stroke-linecap="round"/><path d="M465.36 54.09c.515-1.031 4.195-7.714 7.315-10.705 2.814-2.698 9.925-6.187 9.925-6.187m18.562 8.765s1.812-5.846 3.41-8.417c.872-1.402 3.293-3.7 3.293-3.7" fill="none" stroke="#000" stroke-width="7" stroke-linecap="round"/></svg>