<svg xmlns="http://www.w3.org/2000/svg" viewBox="0 0 1399.284 373.166" height="100.563" width="377.085"><g transform="translate(0 -2.01)"><path d="M595.695 329.173C585.36 326.526 580 318.316 580 305.128c0-18.027 9.941-26.386 28.924-24.32 8.287.901 8.027.736 8.027 5.108 0 3.062-.16 3.623-.944 3.322-6.052-2.323-13.503-3.034-17.591-1.679-2.575.853-6.283 4.659-7.76 7.965-1.397 3.124-1.409 15.445-.018 18.552 1.442 3.223 4.772 6.747 7.578 8.021 4.232 1.923 11.321 1.296 18.307-1.62 1.006-.419 1.09-.128.921 3.148l-.186 3.61-3.377 1.08c-4.505 1.444-14.127 1.897-18.187.858zm63.718.204c-5.935-1.255-11.808-6.498-14.336-12.799-1.196-2.982-1.391-4.585-1.391-11.45 0-9.352 1.084-12.989 5.296-17.775 8.7-9.884 26.639-9.007 33.872 1.656 3.193 4.708 4.398 9.379 4.315 16.733-.165 14.536-7.49 23.228-20.17 23.929-2.702.15-6.115.017-7.586-.294zm10.964-7.08c2.266-1.152 4.062-3.294 5.65-6.738 1.224-2.656 1.411-4.04 1.411-10.431 0-6.391-.187-7.776-1.411-10.432-2.571-5.578-5.75-7.86-10.948-7.86-7.988 0-13.018 8.178-12.39 20.143.448 8.544 4.364 14.968 9.928 16.291 2.27.54 5.609.122 7.76-.972zm122.968 6.993l-3.838-.628v-4.003c0-3.574.116-3.956 1.075-3.557 5.501 2.286 11.515 2.966 14.62 1.654 1.034-.436 2.374-1.63 2.978-2.653 2.269-3.84.084-7.356-7.312-11.77-9.537-5.69-12.82-10.912-11.341-18.038.963-4.638 3.942-7.705 8.884-9.146 3.239-.945 4.417-.99 9.732-.369 3.325.389 6.296.86 6.6 1.05.306.188.555 1.994.555 4.012 0 3.51-.054 3.64-1.26 2.995-.693-.37-3.03-1.045-5.195-1.497-6.68-1.398-10.739.431-10.739 4.84 0 2.41 2.103 4.519 8.597 8.623 8.258 5.22 11.63 9.492 11.65 14.764.025 5.85-2.652 10.166-7.819 12.605-3.423 1.616-11.092 2.115-17.187 1.118zm174.815-.091c-3.744-1.064-8.052-3.647-10.058-6.032-6.704-7.967-7.865-22.101-2.63-32.031 2.233-4.237 5.02-6.823 9.633-8.938 2.896-1.329 4.29-1.563 9.32-1.564 5.445 0 6.24.157 10.005 2.011 7.14 3.516 11.24 10.444 11.846 20.026 1.005 15.858-6.801 26.202-20.397 27.027-3.073.186-5.963 0-7.72-.5zm8.64-6.004c6.273-1.436 9.9-7.847 10.046-17.76.095-6.368-.936-10.24-3.72-13.983-5.761-7.744-16.186-5.582-19.925 4.132-1.907 4.958-1.917 14.37-.02 19.062 2.331 5.763 5.275 8.311 10.55 9.133.168.027 1.55-.237 3.07-.584zm271.305 5.944c-5.667-1.525-9.68-5.509-10.89-10.809-.348-1.523-.637-10.411-.646-19.804l-.015-17.04h8.498l.203 17.347c.186 15.898.306 17.55 1.432 19.765 1.755 3.453 3.978 4.881 7.6 4.881 3.516 0 5.726-1.239 7.278-4.08.957-1.75 1.11-4.15 1.275-19.952l.188-17.961h8.025l-.28 17.961c-.32 20.576-.587 22.129-4.485 26.026-4.15 4.151-11.144 5.561-18.183 3.666zm47.094.036c-11.573-3.027-16.938-11.8-16.122-26.365 1.007-17.974 12.848-25.356 34.083-21.247l3.224.624v3.707c0 3.077-.16 3.645-.94 3.345-3.307-1.269-9.166-2.377-12.643-2.39-7.699-.031-12.616 4.559-14.061 13.125-1.333 7.901.432 15.532 4.504 19.473 3.1 3 6.495 4.072 12.222 3.858l1.67-.062.172-7.829.172-7.83 4.467-.18 4.467-.18-.168 10.298-.169 10.3-3.377.779c-5.248 1.21-13.972 1.497-17.501.574zm-955.195-24.047v-23.642h27.633v6.14h-18.422v14.738h14.738v6.141h-14.738v20.265h-9.211zm35.002 0v-23.642h27.02v6.108l-9.058.17-9.058.17-.174 6.6-.174 6.602h15.393v6.103l-7.522.173-7.523.172-.173 7.215-.173 7.216h19.69v6.755h-28.248zm36.23-.01v-23.76l12.436.27c13.414.291 15.818.765 19.98 3.94 5.025 3.833 7.984 12.36 7.298 21.037-.494 6.249-1.76 10.19-4.566 14.21-1.846 2.645-3.22 3.797-6.55 5.496l-4.213 2.15-12.192.208-12.192.21zm23.1 15.565c5.146-2.57 7.305-7.992 6.869-17.248-.218-4.614-.576-6.278-1.912-8.874-2.408-4.684-5.251-6.163-12.874-6.698l-5.971-.42v34.569h5.613c4.527 0 6.128-.257 8.275-1.33zm25.413-15.558v-23.642h27.019v6.141h-18.422v13.51h14.737v6.14h-14.738v14.738h19.651v6.755H459.75zm36.23 0v-23.642l9.365.015c12.687.02 15.249.729 18.538 5.134 1.025 1.373 1.263 2.592 1.251 6.41-.017 5.795-1.548 9.112-5.483 11.886l-2.675 1.886 5.643 8.674c3.104 4.77 6.278 9.71 7.053 10.976l1.41 2.303-5.423-.017-5.423-.018-5.425-9.808-5.424-9.808h-4.81v19.651h-8.596zm15.576-2.996c3.983-1.664 6.248-6.57 4.594-9.945-1.271-2.593-3.534-3.853-7.735-4.305l-3.838-.414v15.511h2.476c1.362 0 3.388-.381 4.503-.847zm21.883 26.103c0-.483 14.443-41.018 16.055-45.06.648-1.624.844-1.689 5.1-1.689h4.426l8.187 22.875 8.46 23.642c.204.57-.899.767-4.276.767h-4.55l-1.134-3.224a649.705 649.705 0 00-2.314-6.448l-1.181-3.223h-9.126c-8.927 0-9.135.03-9.553 1.381-.235.76-1.246 3.662-2.248 6.448l-1.822 5.066h-3.012c-1.657 0-3.012-.24-3.012-.535zm26.056-19.883c-1.894-6.061-6.287-17.116-6.6-16.609-.214.346-1.613 4.052-3.108 8.236-1.495 4.183-2.913 8.09-3.151 8.68-.397.985.138 1.075 6.429 1.075 6.834 0 6.86-.01 6.43-1.382zm66.055-3.224v-23.642h9.211v47.284h-9.211zm70.005 0v-23.642l4.145.024 4.145.024 9.825 15.919c5.404 8.756 10.032 15.93 10.286 15.943.253.013.46-7.162.46-15.943v-15.966h6.755v47.284h-7.924l-10.008-16.11-10.008-16.11-.164 16.11-.164 16.11h-7.348zm59.565 0v-23.642h27.02v6.141H764.33v13.51h14.738v6.14H764.33v14.707l9.672.17 9.671.168.186 3.224.186 3.224h-28.926zm71.233-.068v-23.71l10.9.234c10.219.22 11.072.33 13.663 1.757 3.755 2.07 5.21 5.065 5.216 10.734.01 9.916-5.256 15.155-16.116 16.038l-5.066.411v18.246h-8.597zm16.273-2.484c5.558-2.613 6.121-11.567.864-13.744-.964-.4-3.211-.765-4.993-.812l-3.24-.086-.174 7.333c-.096 4.034-.045 7.671.114 8.084.357.931 4.781.47 7.429-.775zm16.364 25.692c.119-.315 3.946-10.976 8.506-23.693l8.29-23.122 4.536.17 4.536.17 6.96 19.344a8989.714 8989.714 0 008.485 23.513l1.526 4.17-4.64-.178-4.638-.179-2.246-6.14-2.247-6.141h-18.263l-2.236 6.14-2.236 6.141-3.275.188c-1.844.106-3.18-.062-3.058-.383zm25.456-22.372a712.505 712.505 0 01-3.142-8.75c-.949-2.703-1.916-5.135-2.149-5.406-.363-.422-6.789 16.25-6.758 17.533.01.253 3.039.46 6.739.46h6.727zm23.579-.796v-23.67l4.135.182 4.136.181 9.835 15.783c5.409 8.68 10.042 15.796 10.295 15.812.253.017.46-7.155.46-15.936v-15.966h6.755v47.284h-7.922l-10.01-16.07-10.008-16.071-.164 16.07-.164 16.071h-7.348zm97.024.029v-23.642h8.597v40.529h19.65v6.755h-28.247zm30.704 23.208c0-.323 14.565-41.201 16.42-46.083.196-.516 1.746-.767 4.739-.767h4.448l8.382 23.28c4.61 12.803 8.382 23.442 8.382 23.641 0 .2-2.012.363-4.472.363h-4.473l-2.203-6.295-2.203-6.294h-18.267l-1.292 3.377a548.05 548.05 0 00-2.356 6.295l-1.066 2.917h-3.02c-1.66 0-3.02-.196-3.02-.434zm26.405-18.96c0-.51-6.195-17.71-6.482-17.997-.283-.283-.77.944-4.294 10.832l-2.681 7.522h6.728c3.701 0 6.73-.16 6.73-.357zm35.616-4.256v-23.76l12.45.216 12.448.217 4.062 2c6.956 3.425 9.769 8.512 10.22 18.482.57 12.61-3.052 20.358-11.448 24.48-3.386 1.664-3.788 1.713-15.603 1.917l-12.129.209zm22.53 15.7c5.223-2.371 7.989-8.903 7.418-17.518-.518-7.838-4.364-13.834-9.516-14.838-1.274-.248-4.389-.468-6.922-.49l-4.605-.04-.164 17.04-.163 17.04 5.69-.012c4.259-.01 6.337-.308 8.262-1.182zm25.368-15.692v-23.642h27.02v6.14h-17.808v13.51h14.738v6.141h-14.738v14.707l9.671.169 9.672.169.185 3.224.186 3.224h-28.926zm49.126-.06v-23.702l10.9.213c10.294.202 11.05.299 13.602 1.749 3.94 2.238 5.088 4.732 4.853 10.543-.165 4.085-.438 5.062-2.057 7.369-1.026 1.462-2.741 3.212-3.812 3.887-1.07.676-1.956 1.422-1.97 1.658-.012.236 3.017 5.118 6.732 10.849 3.715 5.73 6.755 10.59 6.755 10.801 0 .21-2.378.302-5.284.205l-5.283-.178-5.339-9.518-5.338-9.518-2.58-.189-2.582-.189v19.721h-8.597zm15.48-2.729c5.709-1.586 7.254-10.63 2.257-13.214-.957-.495-3.405-1.074-5.44-1.287l-3.7-.387v15.527h2.303c1.267 0 3.327-.288 4.58-.635zm116.547 2.848v-23.702h7.899c4.344 0 9.387.28 11.207.62 5.198.975 8.35 3.939 8.95 8.42.676 5.038-2.215 9.79-7.424 12.204l-3.06 1.418 1.807.66c4.42 1.615 5.29 2.132 7.252 4.303 3.802 4.208 4.412 9.916 1.555 14.538-2.49 4.03-4.977 4.751-17.286 5.01l-10.9.23zm17.787 15.917c3.518-1.82 3.77-7.58.464-10.59-1.982-1.804-3.457-2.448-6.737-2.94l-2.917-.437v14.877h3.715c2.081 0 4.488-.4 5.475-.91zm-2.552-20.799c3.471-1.926 4.936-7.457 2.704-10.213-1.03-1.272-4.628-2.374-7.96-2.44-1.351-.025-1.382.126-1.382 6.73v6.754l2.61-.022c1.435-.012 3.248-.376 4.028-.809zm33.277 18.53V308.9l-7.062-13.318c-3.884-7.325-7.062-13.494-7.062-13.708 0-.214 2.142-.384 4.759-.377l4.76.012 5.141 9.813c2.828 5.397 5.315 9.809 5.527 9.804.211-.01 2.823-4.426 5.804-9.825l5.418-9.817h3.332c1.832 0 3.332.134 3.332.296 0 .163-3.316 6.248-7.37 13.521l-7.368 13.224v20.242h-9.211zm-712.207-46.326c1.79-2.573 3.565-4.8 3.943-4.947.378-.148 2.124-.185 3.879-.081l3.19.188-4.39 4.76c-4.216 4.57-4.498 4.758-7.134 4.758h-2.745zm253.18 2.683c1.167-5.825 2.675-7.83 5.89-7.83.89 0 2.615.676 3.833 1.502 3.92 2.66 4.701 2.956 5.673 2.15.485-.402.882-1.389.882-2.192 0-1.259.296-1.46 2.15-1.46 1.975 0 2.148.148 2.148 1.83 0 2.505-1.749 6.674-3.103 7.4-2.096 1.121-4.537.612-7.783-1.623-3.61-2.486-4.774-2.414-5.378.335-.365 1.664-.663 1.883-2.562 1.883-2.098 0-2.14-.048-1.75-1.995zm117.232-24.463c-11.647-.841-32.415-5.62-33.189-7.637-.341-.89 2.554-24.76 3.066-25.272.153-.153 1.996.59 4.096 1.65 5.383 2.717 17.12 6.525 23.56 7.644 7.874 1.368 19.275 1.247 25.197-.267 11.619-2.972 18.631-10.178 21.937-22.542.992-3.712 1.343-7.23 1.55-15.545l.266-10.746-1.353 1.842c-3.598 4.897-10.387 10.694-15.403 13.152-7.922 3.883-11.617 4.654-22.297 4.652-7.93 0-9.851-.201-13.816-1.437-7.76-2.42-13.833-5.968-19.041-11.126-8.316-8.236-13.5-18.393-16.467-32.26-1.386-6.479-1.58-8.853-1.603-19.65-.03-13.361 1.022-20.884 4.24-30.347 4.751-13.967 14.45-26.347 25.971-33.153 10.588-6.253 25.728-8.362 37.91-5.28 5.107 1.291 14.075 5.841 18.116 9.19l3.377 2.8.178-5.226.177-5.226h27.586v57.877c0 33.547-.268 61.49-.633 66.474-1.532 20.901-5.18 32.534-13.28 42.355-8.553 10.368-22.168 16.538-39.938 18.097-8.01.703-10.237.7-20.204-.02zm23.238-80.549c6.477-2.39 10.68-5.207 17.176-11.51l6.012-5.833v-52.4l-3.838-3.484c-7.891-7.163-16.47-10.782-25.67-10.829-5.795-.03-9.245.705-13.543 2.883-7.434 3.767-13.77 13.654-16.311 25.45-1.554 7.217-1.579 28.831-.041 35.559 2.718 11.886 9.344 19.62 18.478 21.564 4.547.968 13.166.288 17.738-1.4zm235.563 75.843c.31-.591 5.558-12.03 11.664-25.419l11.101-24.344-26.617-67.153-26.618-67.153 16.007-.164c10.445-.107 16.141.055 16.395.465.214.347 8.514 21.49 18.444 46.988 9.93 25.496 18.216 46.357 18.414 46.357.197 0 9.15-21.14 19.894-46.976l19.535-46.977h14.362c7.899 0 14.362.188 14.362.418 0 .23-17.049 41.956-37.886 92.725l-37.885 92.308h-15.868c-14.918 0-15.834-.065-15.304-1.075zm-624.627-38.635c-.225-.226-.409-46.527-.409-102.893V2.009l46.516.24c44.22.23 46.805.304 52.35 1.51 22.544 4.903 34.713 14.874 40.312 33.032 1.611 5.224 1.7 6.132 1.694 17.485-.01 14.33-.794 18.04-6.056 28.564-5.749 11.498-14.463 20.946-25.038 27.143l-4.748 2.783 3.285 4.682c19.853 28.301 61.998 88.961 62.232 89.571.244.636-5.377.757-29.075.628l-29.377-.16-24.3-40.221-24.3-40.222-8.72-.17-8.72-.17v81.09h-22.618c-12.44 0-22.802-.184-23.028-.41zM734.74 90.539c14.95-3.085 22.785-10.778 25.13-24.674 1.604-9.503-.068-15.997-5.467-21.23-5.704-5.528-13.1-7.53-29.526-7.991l-11.514-.324v55.415l7.83-.01c5.3-.008 9.675-.389 13.547-1.187zM503.348 104.63V2.08H631.69v35.002h-80.444v47.273l33.006.159 33.007.159.163 16.733.164 16.734h-66.34v53.424h86.584v35.617H503.348zm691.756 102.18c-10.78-1.595-20.625-5.864-27.506-11.925-1.619-1.427-3.076-2.46-3.238-2.299-.162.162-.785 3.029-1.385 6.37l-1.09 6.076-13.328.165-13.329.166.156-100.874.155-100.874h29.476l.158 39.455.158 39.456 3.22-3.79c3.71-4.368 10.438-9.716 14.886-11.833 8.619-4.1 16.387-5.56 27.02-5.077 17.034.774 30.297 8.06 39.298 21.589 8.596 12.918 12.02 26.338 12.004 47.044-.013 17.265-2.405 29.697-7.979 41.47-8.569 18.098-20.834 29.117-37.183 33.405-4.795 1.258-17.208 2.11-21.493 1.476zm10.87-24.259c12.03-2.517 19.986-12.868 23.314-30.33 1.315-6.902 1.118-32.384-.302-38.994-2.364-11.006-7.822-19.277-14.841-22.49-13.33-6.104-29.796-1.136-44.678 13.478l-4.145 4.07v60.127l2.61 2.12c6.322 5.136 14.687 9.742 20.946 11.533 4.363 1.249 12.363 1.476 17.096.486zm-866.584-78.23V2.073l65.552.156 65.553.157.163 17.036.163 17.036-41.613.158-41.613.158V88.97l33.927.159 33.928.159v34.368l-33.928.159-33.927.159-.158 41.296-.158 41.297H339.39zm541.922 100.723c-15.643-3.444-26.056-14.254-29.42-30.541-.849-4.108-.977-11.627-.977-57.258v-52.53h29.475v49.014c0 51.417.113 53.835 2.752 59.039 2.613 5.152 5.946 6.876 13.294 6.876 12.772 0 24.356-7.432 36.356-23.325l2.558-3.388.166-44.108.165-44.108h29.452v138.167h-29.476v-19.217l-5.68 5.48c-9.348 9.017-17.588 13.634-28.278 15.842-5.587 1.154-15.282 1.18-20.387.057z" fill="#2a2b54"/><circle cy="347.362" cx="258.414" r="4.467" fill="#fff"/><path d="M139.707 347.06c.246-.032.375-.067.525-.138a.555.555 0 00.173-.13.749.749 0 00.238-.55c0-.112 0-.15-.018-.228a.77.77 0 00-.415-.522 1.198 1.198 0 00-.43-.122c-.108-.014-.284-.019-.896-.023l-.762-.005v1.746l.728-.005c.571-.004.757-.009.857-.022z" fill="#fff"/><g stroke-width="5.191" stroke="#000"><path transform="matrix(.3134 .35427 -.34364 .32309 262.666 -22.177)" d="M268.7 796.036c.631 20.39-19.227 37.499-35.786 49.237-19.48 13.81-44.763 21.431-68.777 20.676-24.209-.76-48.84-10.713-68.415-25.173-15.087-11.145-34.017-26.1-34.103-44.74-.092-20.235 19.97-36.658 36.576-48.055 19.24-13.205 43.913-20.546 67.374-19.65 24.523.937 49.165 11.472 69.18 25.87 14.58 10.49 33.4 23.987 33.952 41.835z" fill="#f99c1b" stroke-width="4.984"/><path d="M86.429 708.434s.554 31.946 5.714 46.785c7.283 20.943 20.746 39.509 34.643 56.786 14.67 18.24 31.633 35.013 50.714 48.571 10.676 7.587 35 17.858 35 17.858" fill="none" transform="matrix(.44398 0 0 .46304 -26.057 -73.437)"/></g><path d="M161 96.667l-4.832 7.84-8.463 1.413-12.01-1.019-7.41-7.98zM460.644 668.76c45.66-2.21 91.321-4.42 136.982-6.632 9.495-6.317 2.255-21.094 4.663-30.994 3.923-13.079-4.393-19.806-15.054-25.316l-76.046-52.5-3.054-74.672-46.412-45.846c3.368-10.681 15.624-17.97 22.47-27.323 15.04-18.596 36.124-33.03 45.235-55.708 1.823-11.524 2.381-22.703-7.036-31.167L388.88 125.278l64.668-72.975c27.71 4.744 67.168-16.74 64.018-43.907-33.342-7.773-41.942 8.264-55.629 16.503-17.13 3.168-10.503 23.7-23.082 31.538l-61.709 69.067 133.026 199.142c3.61 13.598-12.585 17.778-19.931 26.167l-62.862 51.905c-13.85-9.39-26.71-21.657-41.165-29.286-25.16-1.397-51.305.07-75.858-3.087l-57.124-42.51 47.482-46.651-9.968-250.745c-10.046-8.108-18.735-19.713-29.603-25.702-33.298.585-66.931-.599-100.022 1.08-13.532 6.334-29.676 9.223-41.608 17.666-3.401 10.174-21.372 10.204-32.809 19.101C76.1 50.834 63.71 65.545 62.476 81.99c9.851 6.537 24.83 3.385 34.462 8.418 8.793 2.962-13.394 15.609-18.324 21.421-16.53 4.511-52.68 12.01-39.874 25.11 12.493-1.04 23.749-1.088 37.413-3.545 12.304-8.008 21.553-28.204 38.732-20.344 7.716 6.755 25.874 8.005 20.761 21.525-4.107 9.476-19.105 11.973-27.562 18.663l-72.19 40.56c-14.994 9.973 2.687 32.687-12.875 41.767-8.72 8.784-21.312 16.25-17.98 30.532l.308 56.006c9.134 7.321 17.249 15.178 16.271 27.81l22.559 145.65L6.275 534.53c2.127 26.149 21.442.938 28.503-7.577 18.603-3.926 38.986-5.003 57.454.426 8.624-9.919-14.836-17.833-1.283-30.745l12.237-33.949 93.161 59.944c23.11 2.848 33.749-24.801 54.796-31.296 20.812-15.05 45.096-24.615 71.183-22.75 18.816-1.444 10.506 5.93-3.502 3.553-12.425.956-26.681-2.873-34.93 8.987l-50.305 42.79.313 62.977 95.99 51.892c-3.313 12.72-11.305 17.973-24.262 15.299l-127.21 3.108c-13.416 9.64-34.31 15.717-34.23 35.4m-.058.6l302.396 1.965c6.316-9.308 18.297-16.774 14.217-29.46-.71-11.532 1.975-25.024-11.954-28.934l-40.816-26.472c9.483-9.714 20.131-17.305 33.855-19.288 15.099 2.533 29.864 11.797 44.836 16.88l40.997 16.853c-4.867 13.257-19.412 8.33-30.493 9.913-13.165 1.773-28.172-3.045-37.55 8.89" fill="#d71f27" stroke="#000" stroke-width="4.996" transform="matrix(.46175 0 0 .48069 -.93 3.472)"/><path d="M402.943 612.36l-24.367-13.076 4.238-7.775 24.014-8.128 15.892-8.128 3.178-2.827.706-28.978M323.132 639.57l57.563 31.1 37.08-.354 6.004-8.128" fill="none" stroke="#000" stroke-width="4.996" stroke-linecap="round" transform="matrix(.46175 0 0 .48069 -.93 3.472)"/><path d="M460.153 435.663l2.12 127.575s-.354 3.534-.707 4.594c-.353 1.06-1.766 2.12-2.825 3.887-1.06 1.767-21.896 21.91-21.896 21.91" fill="none" stroke="#000" stroke-width="4.996" transform="matrix(.46175 0 0 .48069 -.93 3.472)"/><path d="M513.126 637.274c8.502-2.358 17.141-8.041 26.31-10.072 8.18-1.812 15.896-1.767 25.073-1.767M102.633 109.77l17.23-16.243 15.608.374" fill="none" stroke="#000" stroke-width="4.996" stroke-linecap="round" transform="matrix(.46175 0 0 .48069 -.93 3.472)"/><path d="M122.61 93.776s-5.993 6.248-6.243 7.247c-.25 1-1.248 6.247-1.248 6.247" fill="none" stroke="#000" stroke-width="4.996" stroke-linecap="round" transform="matrix(.46175 0 0 .48069 -.93 3.472)"/><path d="M139.367 122.15c4.773-2.254 10.481-2.555 14.821.94 4.974 2.692 10.68 2.934 16.004 1.302 10.584-5.555 20.862-11.923 31.33-17.79l.706-67.145-27.9-18.377c-6.12-.18-12.256-1.475-18.363-.706-5.145 5.097-12.993 3.599-19.511 5.124-8.793 1.25-16.634 5.887-24.962 8.79-7.487 3.394-15.2 6.733-22.213 10.882-3.796 5.472-8.933 10.647-8.292 17.876-.099 5.554-1.99 10.765-.949 16.344" fill="none" stroke="#000" stroke-width="4.996" transform="matrix(.46175 0 0 .48069 -.93 3.472)"/><path d="M99.412 84.39l39.2 2.474 15.362-12.545s2.472-.707 4.237-.707c1.766 0 3.885 0 6.004.707 2.119.707 4.59 2.297 5.12 3.004.53.707 1.59 1.767 1.237 4.064-.354 2.297-.707 3.71-1.236 5.3-.53 1.591-1.413 5.125-1.413 5.125" fill="none" stroke="#000" stroke-width="4.996" stroke-linecap="round" transform="matrix(.46175 0 0 .48069 -.93 3.472)"/><path d="M201.295 106.301l-.353 14.666-169.334 103.72" fill="none" stroke="#000" stroke-width="4.996" transform="matrix(.46175 0 0 .48069 -.93 3.472)"/><path d="M14.127 323.991l29.311 10.602 1.942-67.675s.354-1.59.883-2.474c.53-.883 1.59-2.65 2.472-3.357.883-.707 2.472-1.767 3.885-2.827 1.413-1.06 141.79-92.412 141.79-92.412" fill="none" stroke="#000" stroke-width="4.996" stroke-linecap="round" transform="matrix(.46175 0 0 .48069 -.93 3.472)"/><path d="M43.085 334.24l9.888 7.42 34.256-29.33.706-33.927c52.115-33.693 138.773-91.393 180.74-119.553 3.68-2.47 8.418-5.427 10.59-9.568 1.877-3.58 1.436-8.224 1.567-12.056 1.268-37.019 1.503-80.247 1.688-110.085L262.743 4.877M70.63 520.477l-1.059-146.304 1.413-2.474 2.119-2.827 49.087-31.452-1.412-31.452" fill="none" stroke="#000" stroke-width="4.996" transform="matrix(.46175 0 0 .48069 -.93 3.472)"/><path d="M86.875 311.976l.354 12.722 161.035-97.89c7.176-3.978 16.916.803 13.481 9.771m-7.477 90.946l-27.899-23.324s-2.891-23.05-4.16-35.183c-.261-2.487-.06-5.751 1.944-7.247 12.018-8.968 23.581-18.315 37.83-25.28" fill="none" stroke="#000" stroke-width="4.996" transform="matrix(.46175 0 0 .48069 -.93 3.472)"/><path d="M229.194 306.675l31.43-22.617 1.36-52.87" fill="none" stroke="#000" stroke-width="4.996" stroke-linecap="round" transform="matrix(.46175 0 0 .48069 -.93 3.472)"/><path d="M85.11 360.744l5.297 87.641 12.007 11.309" fill="none" stroke="#000" stroke-width="4.996" transform="matrix(.46175 0 0 .48069 -.93 3.472)"/><path d="M68.193 27.14c1.13-.761 2.379-1.823 3.677-2.274 1.476-.56.95-.711 2.452-1.215 1.05-.41 4.843-.88 6.08-1.021 1.197-.218 1.926.876.973 1.576-.592.475-3.752 1.664-3.576 2.4-1.336 2.396-2.07 4.432-6.8 2.47-1.178.416.192-.082-1.434.506-1.069.128-1.586.043-2.644-.347.094-.838.433-1.73 1.272-2.094z" fill-rule="evenodd"/><path transform="matrix(.46175 0 0 .48069 -.93 3.654)" d="M470.382 27.204s12.129-4.79 18.454-6.273c4.669-1.095 14.26-1.908 14.26-1.908" fill="none" stroke="#000" stroke-width="6" stroke-linecap="round"/><path transform="matrix(.46175 0 0 .48069 -.93 3.654)" d="M465.36 54.09c.515-1.031 4.195-7.714 7.315-10.705 2.814-2.698 9.925-6.187 9.925-6.187m18.562 8.765s1.812-5.846 3.41-8.417c.872-1.402 3.293-3.7 3.293-3.7" fill="none" stroke="#000" stroke-width="7" stroke-linecap="round"/><g transform="translate(-590.872 -860.663) scale(1.08602)"><circle r="14.83" cy="1121.441" cx="786.738" fill="none" stroke="#2a2a57" stroke-width="3.352"/><path d="M785.833 1120.1c.922 0 1.592-.184 1.995-.536.402-.335.62-.905.62-1.709 0-.788-.218-1.34-.62-1.692-.403-.336-1.073-.503-1.995-.503h-1.876v4.44h1.876m-1.876 3.067v6.536h-4.458v-17.277h6.804c2.279 0 3.938.385 4.993 1.156 1.073.754 1.592 1.96 1.592 3.62 0 1.139-.268 2.078-.82 2.815-.554.72-1.375 1.273-2.498 1.609.62.15 1.157.469 1.643.955s.972 1.223 1.458 2.229l2.43 4.893h-4.743l-2.111-4.29c-.42-.855-.855-1.458-1.29-1.76-.436-.318-1.023-.486-1.744-.486h-1.256" fill="#2a2a57"/></g></g></svg>