<?xml version="1.0" encoding="UTF-8" standalone="no"?>
<svg
   xmlns:dc="http://purl.org/dc/elements/1.1/"
   xmlns:cc="http://creativecommons.org/ns#"
   xmlns:rdf="http://www.w3.org/1999/02/22-rdf-syntax-ns#"
   xmlns:svg="http://www.w3.org/2000/svg"
   xmlns="http://www.w3.org/2000/svg"
   xmlns:sodipodi="http://sodipodi.sourceforge.net/DTD/sodipodi-0.dtd"
   xmlns:inkscape="http://www.inkscape.org/namespaces/inkscape"
   viewBox="0 0 1399.2845 373.16637"
   height="100.5625"
   width="377.08533"
   version="1.1"
   id="svg2"
   sodipodi:docname="ULTIMA.svg"
   inkscape:version="0.92.2 5c3e80d, 2017-08-06">
  <sodipodi:namedview
     pagecolor="#ffffff"
     bordercolor="#666666"
     borderopacity="1"
     objecttolerance="10"
     gridtolerance="10"
     guidetolerance="10"
     inkscape:pageopacity="0"
     inkscape:pageshadow="2"
     inkscape:window-width="1440"
     inkscape:window-height="757"
     id="namedview61"
     showgrid="false"
     inkscape:zoom="1.7953042"
     inkscape:cx="235.04954"
     inkscape:cy="53.842283"
     inkscape:window-x="0"
     inkscape:window-y="1"
     inkscape:window-maximized="1"
     inkscape:current-layer="svg2"
     fit-margin-top="0"
     fit-margin-left="0"
     fit-margin-right="0"
     fit-margin-bottom="0" />
  <metadata
     id="metadata8">
    <rdf:RDF>
      <cc:Work
         rdf:about="">
        <dc:format>image/svg+xml</dc:format>
        <dc:type
           rdf:resource="http://purl.org/dc/dcmitype/StillImage" />
        <dc:title></dc:title>
      </cc:Work>
    </rdf:RDF>
  </metadata>
  <defs
     id="defs6" />
  <flowRoot
     transform="matrix(3.7107904,0,0,3.7107904,-1472.0905,50.712056)"
     style="font-style:normal;font-variant:normal;font-weight:bold;font-stretch:normal;font-size:26.66666603px;line-height:120.00000477%;font-family:'Luxi Serif';-inkscape-font-specification:'Luxi Serif Bold';text-align:start;letter-spacing:0px;word-spacing:0px;writing-mode:lr-tb;text-anchor:start;fill:#000000;fill-opacity:1;stroke:none;stroke-width:1px;stroke-linecap:butt;stroke-linejoin:miter;stroke-opacity:1"
     id="flowRoot1347"
     xml:space="preserve"><flowRegion
       style="font-size:26.66666603px"
       id="flowRegion1349"><rect
         style="font-size:26.66666603px"
         y="-25.906893"
         x="269.65936"
         height="121.34671"
         width="799.98944"
         id="rect1351" /></flowRegion><flowPara
       id="flowPara1353" /></flowRoot>  <flowRoot
     transform="matrix(3.7107904,0,0,3.7107904,-1472.0905,50.712056)"
     style="font-style:normal;font-variant:normal;font-weight:bold;font-stretch:normal;font-size:45px;line-height:120.00000477%;font-family:'.Al Nile PUA';-inkscape-font-specification:'.Al Nile PUA Bold';text-align:start;letter-spacing:0px;word-spacing:0px;writing-mode:lr-tb;text-anchor:start;fill:#000000;fill-opacity:1;stroke:none;stroke-width:1px;stroke-linecap:butt;stroke-linejoin:miter;stroke-opacity:1"
     id="flowRoot1379"
     xml:space="preserve"><flowRegion
       style="font-style:normal;font-variant:normal;font-weight:bold;font-stretch:normal;font-family:'.Al Nile PUA';-inkscape-font-specification:'.Al Nile PUA Bold'"
       id="flowRegion1381"><rect
         style="font-style:normal;font-variant:normal;font-weight:bold;font-stretch:normal;font-family:'.Al Nile PUA';-inkscape-font-specification:'.Al Nile PUA Bold'"
         y="23.530657"
         x="527.63348"
         height="88.987587"
         width="183.36836"
         id="rect1383" /></flowRegion><flowPara
       id="flowPara1385" /></flowRoot>  <g
     id="g1456"
     transform="translate(0,-2.0092363)">
    <path
       inkscape:connector-curvature="0"
       id="path1377"
       d="m 595.69481,329.17253 c -10.33502,-2.64603 -15.69383,-10.85654 -15.69383,-24.045 0,-18.02623 9.94106,-26.38518 28.92357,-24.3201 8.28706,0.90159 8.02736,0.73633 8.02736,5.10812 0,3.06227 -0.15938,3.62323 -0.94383,3.32216 -6.05232,-2.32241 -13.50293,-3.03334 -17.59145,-1.67853 -2.57451,0.8532 -6.28246,4.65871 -7.76034,7.96441 -1.39656,3.12407 -1.40797,15.44535 -0.0171,18.55268 1.4423,3.2223 4.77157,6.74624 7.57822,8.02118 4.23145,1.92235 11.3206,1.2951 18.30695,-1.61966 1.00525,-0.41946 1.09035,-0.12847 0.92109,3.14717 l -0.18648,3.60924 -3.37673,1.08162 c -4.50542,1.44307 -14.12706,1.89628 -18.18743,0.85671 z m 63.71849,0.20475 c -5.93574,-1.25556 -11.80805,-6.49824 -14.33616,-12.79906 -1.19658,-2.98228 -1.39143,-4.5852 -1.39143,-11.45069 0,-9.35127 1.0838,-12.98838 5.29641,-17.77413 8.70065,-9.88438 26.63844,-9.00761 33.87166,1.65561 3.19339,4.70768 4.39786,9.37856 4.31475,16.73255 -0.16433,14.53663 -7.49035,23.22851 -20.16939,23.92946 -2.70193,0.14939 -6.11557,0.0172 -7.58584,-0.29374 z m 10.96324,-7.07937 c 2.26659,-1.15265 4.06294,-3.29514 5.65017,-6.73883 1.22425,-2.65609 1.41169,-4.04096 1.41169,-10.43155 0,-6.39068 -0.18744,-7.77555 -1.41169,-10.43164 -2.5707,-5.57752 -5.74906,-7.85905 -10.94811,-7.85905 -7.9876,0 -13.01786,8.17742 -12.38984,20.14172 0.44847,8.54429 4.36382,14.96883 9.92868,16.29169 2.2705,0.53967 5.60824,0.12144 7.7591,-0.97234 z m 122.9687,6.99206 -3.83795,-0.62782 v -4.00351 c 0,-3.57367 0.11535,-3.95567 1.07457,-3.55703 5.50136,2.286 11.51498,2.9665 14.62079,1.65456 1.0333,-0.43648 2.373,-1.6304 2.97714,-2.65305 2.26887,-3.84091 0.0847,-7.35609 -7.31215,-11.76926 -9.5369,-5.69002 -12.82015,-10.91245 -11.34067,-18.03907 0.96284,-4.63798 3.94198,-7.70499 8.88436,-9.14625 3.23837,-0.9443 4.4166,-0.9889 9.73118,-0.36811 3.32566,0.38836 6.29624,0.86042 6.60132,1.04898 0.30506,0.18848 0.55459,1.99416 0.55459,4.01255 0,3.51071 -0.0542,3.64053 -1.2602,2.99531 -0.69314,-0.37088 -3.03088,-1.04492 -5.19496,-1.49767 -6.67986,-1.3976 -10.73899,0.43174 -10.73899,4.83988 0,2.41027 2.10227,4.51911 8.59708,8.62399 8.25739,5.21881 11.62899,9.49125 11.65057,14.76333 0.0237,5.85101 -2.65316,10.16652 -7.81976,12.60542 -3.42362,1.61605 -11.09171,2.11482 -17.18692,1.11775 z m 174.81464,-0.0913 c -3.7438,-1.06365 -8.0516,-3.64671 -10.0581,-6.03122 -6.70366,-7.96697 -7.86438,-22.10154 -2.63019,-32.03165 2.23299,-4.2363 5.02089,-6.82299 9.63339,-8.93828 2.8965,-1.32838 4.2894,-1.56203 9.3199,-1.56394 5.4449,0 6.2392,0.15766 10.0051,2.01165 7.1407,3.51538 11.2391,10.44353 11.8464,20.02618 1.0048,15.85768 -6.8014,26.20117 -20.397,27.02641 -3.0735,0.18657 -5.9635,0 -7.7195,-0.49915 z m 8.6406,-6.00402 c 6.2727,-1.43547 9.8994,-7.84707 10.0459,-17.75996 0.095,-6.36777 -0.936,-10.23899 -3.721,-13.9828 -5.7607,-7.74388 -16.185,-5.58161 -19.9239,4.13255 -1.9079,4.95731 -1.9177,14.36878 -0.02,19.06144 2.3308,5.76285 5.2742,8.31131 10.5488,9.13322 0.1689,0.0266 1.5505,-0.23669 3.0703,-0.58445 z m 271.30462,5.94476 c -5.6672,-1.52579 -9.6807,-5.50942 -10.89,-10.80907 -0.3476,-1.52314 -0.6374,-10.41159 -0.6456,-19.80394 l -0.015,-17.04067 h 4.2486 4.2487 l 0.2034,17.34764 c 0.1863,15.898 0.306,17.54961 1.4315,19.76438 1.7552,3.45347 3.9785,4.88133 7.6011,4.88133 3.5152,0 5.725,-1.2389 7.2775,-4.07996 0.9566,-1.75061 1.1099,-4.14977 1.275,-19.95163 l 0.1876,-17.96176 h 4.0128 4.0125 l -0.2796,17.96176 c -0.3203,20.57535 -0.5879,22.12845 -4.4852,26.02573 -4.1511,4.15119 -11.1447,5.56117 -18.1834,3.66619 z m 47.0937,0.0353 c -11.5728,-3.02621 -16.9374,-11.79912 -16.1217,-26.36494 1.0068,-17.97413 12.8484,-25.35579 34.0833,-21.24662 l 3.224,0.62382 v 3.70671 c 0,3.07699 -0.1598,3.64528 -0.9409,3.34554 -3.3069,-1.26895 -9.1656,-2.377 -12.642,-2.39098 -7.6992,-0.0304 -12.6169,4.55953 -14.0618,13.12618 -1.3325,7.90107 0.4323,15.53141 4.5042,19.47215 3.0999,3.00015 6.4948,4.07197 12.2222,3.85868 l 1.6705,-0.0618 0.1718,-7.82946 0.1719,-7.82948 4.467,-0.18077 4.467,-0.18068 -0.1685,10.29918 -0.1685,10.29919 -3.3774,0.77929 c -5.2477,1.21086 -13.9721,1.49718 -17.5011,0.57438 z M 340.00379,305.12772 v -23.64198 h 13.81665 13.81676 v 3.07043 3.07034 h -9.2111 -9.2112 v 7.36892 7.36892 h 7.36892 7.36891 v 3.07035 3.07042 h -7.36891 -7.36892 v 10.1322 10.13229 h -4.60556 -4.60555 z m 35.00233,0 v -23.64198 h 13.50959 13.50969 v 3.05398 3.05398 l -9.05762,0.16994 -9.05762,0.16994 -0.17422,6.60131 -0.1743,6.60131 h 7.69671 7.69672 v 3.05151 3.05141 l -7.5224,0.17241 -7.52251,0.1725 -0.17298,7.21535 -0.17298,7.21534 h 9.84473 9.84463 v 3.37749 3.3774 h -14.12373 -14.12371 z m 36.23049,-0.01 v -23.76048 l 12.435,0.27036 c 13.41394,0.29166 15.81852,0.7658 19.97988,3.9398 5.02577,3.83338 7.98429,12.36103 7.29855,21.03761 -0.49383,6.2488 -1.76049,10.19087 -4.5658,14.20949 -1.84656,2.64517 -3.22021,3.79782 -6.55006,5.49641 l -4.21357,2.14924 -12.19205,0.20902 -12.19195,0.20911 z m 23.09974,15.56479 c 5.14579,-2.56995 7.30492,-7.9917 6.86854,-17.24712 -0.21759,-4.61449 -0.5759,-6.27809 -1.91152,-8.87475 -2.40885,-4.68334 -5.25143,-6.16226 -12.87483,-6.69812 l -5.97083,-0.41976 v 17.28479 17.28477 h 5.61289 c 4.52701,0 6.12822,-0.25733 8.27575,-1.32991 z m 25.41218,-15.55728 v -23.64191 h 13.50968 13.5097 v 3.07034 3.07043 h -9.2112 -9.2111 v 6.7548 6.75479 h 7.36891 7.36892 v 3.07045 3.07032 h -7.36892 -7.36891 v 7.36894 7.36891 h 9.82522 9.82523 v 3.3774 3.3774 h -14.12372 -14.12381 z m 36.23048,0 v -23.64191 l 9.36469,0.0143 c 12.6873,0.02 15.24897,0.72928 18.53784,5.13438 1.02541,1.37345 1.26334,2.59182 1.25184,6.40988 -0.0172,5.79472 -1.54807,9.1124 -5.48357,11.88642 l -2.67531,1.88573 5.64323,8.67364 c 3.1038,4.77044 6.2779,9.70977 7.05349,10.97635 l 1.41026,2.30273 -5.42318,-0.0172 -5.42328,-0.018 -5.4247,-9.80773 -5.4248,-9.80765 h -2.40467 -2.40476 v 9.82524 9.82523 h -4.2985 -4.29858 z m 15.57553,-2.99597 c 3.98297,-1.66416 6.24871,-6.56936 4.59396,-9.94572 -1.27076,-2.59296 -3.53374,-3.85249 -7.73447,-4.30486 l -3.83794,-0.41319 v 7.7552 7.75529 h 2.47599 c 1.36186,0 3.38796,-0.38104 4.50246,-0.84672 z m 21.88312,26.10313 c 0,-0.48308 14.44304,-41.01823 16.05538,-45.06035 0.64769,-1.62375 0.84397,-1.6887 5.09986,-1.6887 h 4.4262 l 8.18645,22.87428 c 4.50247,12.5809 8.30979,23.21976 8.46052,23.64189 0.2035,0.56971 -0.89894,0.76761 -4.27576,0.76761 h -4.54992 l -1.13401,-3.22382 c -0.62374,-1.77315 -1.6654,-4.67469 -2.31472,-6.44783 l -1.18069,-3.22392 h -9.12562 c -8.92772,0 -9.13494,0.0304 -9.55288,1.38164 -0.23498,0.76 -1.24688,3.66144 -2.24871,6.44783 l -1.82154,5.0661 h -3.01224 c -1.65685,0 -3.01232,-0.2406 -3.01232,-0.53473 z m 26.05625,-19.88324 c -1.8942,-6.06156 -6.28684,-17.1158 -6.60008,-16.60913 -0.21396,0.34624 -1.61233,4.0522 -3.10753,8.23552 -1.49508,4.18333 -2.91323,8.08956 -3.15144,8.68067 -0.39703,0.98518 0.13817,1.07457 6.42891,1.07457 6.83458,0 6.86016,-0.01 6.43014,-1.38163 z m 66.05507,-3.22392 v -23.64191 h 4.60556 4.60555 v 23.64189 23.64189 h -4.60555 -4.60556 z m 70.00467,0 v -23.64191 l 4.145,0.0238 4.145,0.0238 9.82523,15.91911 c 5.40388,8.7555 10.03244,15.92967 10.28578,15.94251 0.25323,0.0133 0.46054,-7.16133 0.46054,-15.9426 v -15.9659 h 3.3774 3.3774 v 23.64188 23.64189 h -3.96223 -3.96224 l -10.008,-16.11036 -10.008,-16.11034 -0.16366,16.11034 -0.16375,16.11036 h -3.67419 -3.67428 z m 59.56534,0 v -23.64191 h 13.50968 13.5097 v 3.07034 3.07043 h -8.90414 -8.90405 v 6.7548 6.75479 h 7.36883 7.36892 v 3.07045 3.07032 h -7.36892 -7.36883 v 7.35333 7.35333 l 9.67166,0.16907 9.67165,0.16918 0.18562,3.22392 0.18563,3.22382 h -14.46283 -14.46292 z m 71.23282,-0.0685 v -23.71036 l 10.8998,0.23432 c 10.2193,0.21976 11.07241,0.3295 13.66327,1.75716 3.75512,2.06937 5.21054,5.06486 5.21568,10.73396 0.01,9.91586 -5.25601,15.15541 -16.11558,16.03789 l -5.0661,0.41176 v 9.12276 9.12286 h -4.29859 -4.29848 z m 16.27296,-2.48352 c 5.5584,-2.61301 6.12155,-11.56697 0.86442,-13.74447 -0.96426,-0.3995 -3.21127,-0.76485 -4.99326,-0.81201 l -3.23999,-0.0856 -0.17403,7.33317 c -0.0958,4.03326 -0.0447,7.67075 0.11384,8.08345 0.35736,0.93127 4.78156,0.47006 7.42902,-0.77444 z m 16.36396,25.69138 c 0.11888,-0.3141 3.94664,-10.97597 8.50618,-23.69304 l 8.29,-23.122 4.53614,0.17031 4.53613,0.17051 6.95944,19.34329 c 3.82767,10.63888 7.64603,21.2201 8.48516,23.5138 l 1.52579,4.17031 -4.63893,-0.17887 -4.63883,-0.17879 -2.24615,-6.14077 -2.24625,-6.14077 h -9.13198 -9.13189 l -2.23588,6.14077 -2.23597,6.14077 -3.27451,0.18772 c -1.84409,0.10574 -3.18016,-0.0618 -3.05845,-0.38324 z m 25.4565,-22.37189 c -0.77931,-2.11082 -2.19327,-6.04862 -3.14223,-8.75056 -0.94896,-2.70193 -1.91598,-5.13418 -2.14905,-5.40491 -0.36317,-0.42204 -6.78875,16.24937 -6.75765,17.53297 0.01,0.25323 3.03847,0.46054 6.73853,0.46054 h 6.72732 z m 23.57865,-0.79556 V 281.4271 l 4.13549,0.18154 4.1355,0.18163 9.83472,15.78266 c 5.40915,8.68047 10.04199,15.79606 10.29526,15.8125 0.25336,0.0161 0.46058,-7.15495 0.46058,-15.93622 v -15.966 h 3.37738 3.37749 v 23.64198 23.64189 h -3.96137 -3.96118 l -10.00905,-16.0707 -10.00884,-16.07078 -0.16375,16.07078 -0.16376,16.0707 h -3.67419 -3.67428 z m 97.02412,0.0285 v -23.64185 h 4.2986 4.2984 v 20.26448 20.26459 h 9.8252 9.8252 v 3.3774 3.3774 h -14.1237 -14.1237 z m 30.7038,23.20796 c 0,-0.32236 14.5656,-41.20062 16.4199,-46.08233 0.1962,-0.51655 1.7459,-0.7676 4.7393,-0.7676 h 4.4477 l 8.3822,23.27984 c 4.61,12.80391 8.3821,23.44276 8.3821,23.64189 0,0.19913 -2.0125,0.36213 -4.4723,0.36213 h -4.4724 l -2.203,-6.29426 -2.203,-6.29434 h -9.1338 -9.1336 l -1.2915,3.37749 c -0.7101,1.85759 -1.7707,4.69 -2.3569,6.29425 l -1.0654,2.91686 h -3.0198 c -1.6607,0 -3.0195,-0.19532 -3.0195,-0.43393 z m 26.4053,-18.95946 c 0,-0.50962 -6.1951,-17.70927 -6.4821,-17.99675 -0.2833,-0.28367 -0.7698,0.94325 -4.2942,10.83152 l -2.6812,7.52241 h 6.7288 c 3.7006,0 6.7287,-0.16071 6.7287,-0.35718 z m 35.6163,-4.25588 v -23.76057 l 12.4489,0.21662 12.4488,0.21653 4.0615,1.99995 c 6.9566,3.42553 9.7692,8.51177 10.2206,18.48231 0.5707,12.60943 -3.0527,20.35787 -11.4478,24.48053 -3.3866,1.66312 -3.788,1.71238 -15.6039,1.91598 l -12.1281,0.20912 z m 22.5294,15.69992 c 5.223,-2.3713 7.9889,-8.90272 7.4186,-17.51814 -0.5187,-7.83842 -4.3647,-13.83454 -9.5167,-14.8376 -1.2739,-0.24801 -4.3886,-0.46891 -6.9216,-0.49088 l -4.6056,-0.0399 -0.1633,17.04058 -0.1631,17.04057 5.6899,-0.0133 c 4.2585,-0.0104 6.337,-0.30726 8.2618,-1.18118 z m 25.3685,-15.69241 v -23.64198 h 13.5097 13.5097 v 3.07042 3.07035 h -8.9041 -8.9041 v 6.75489 6.75479 h 7.3688 7.369 v 3.07034 3.07043 h -7.369 -7.3688 v 7.35333 7.35332 l 9.6716,0.16908 9.6717,0.16908 0.1856,3.22392 0.1857,3.22392 h -14.4629 -14.4629 z m 49.1261,-0.06 v -23.70161 l 10.8998,0.2132 c 10.2938,0.20132 11.0501,0.2985 13.6021,1.74832 3.9405,2.23853 5.0881,4.73203 4.8528,10.5432 -0.1654,4.08481 -0.4383,5.0622 -2.0567,7.36892 -1.0264,1.46266 -2.7418,3.21212 -3.812,3.88759 -1.0705,0.67546 -1.9567,1.42138 -1.9697,1.65769 -0.013,0.23622 3.0161,5.11812 6.7312,10.84865 3.7151,5.73053 6.7548,10.59112 6.7548,10.80128 0,0.21016 -2.3776,0.30221 -5.2836,0.20465 l -5.2834,-0.17745 -5.3382,-9.51817 -5.3381,-9.51816 -2.581,-0.18877 -2.581,-0.18886 v 9.86051 9.86052 h -4.2985 -4.2985 z m 15.4789,-2.72872 c 5.7095,-1.58562 7.2551,-10.63041 2.2582,-13.21442 -0.9573,-0.49497 -3.4053,-1.07391 -5.4401,-1.28664 l -3.7,-0.38665 v 7.76337 7.76347 h 2.3028 c 1.2665,0 3.3271,-0.28785 4.5791,-0.63562 z m 116.5473,2.84799 v -23.7016 h 7.8992 c 4.3445,0 9.3876,0.27902 11.2068,0.61992 5.1984,0.97426 8.3498,3.93856 8.9508,8.41926 0.6757,5.0387 -2.2152,9.79099 -7.4247,12.20451 l -3.06,1.41777 1.8069,0.66015 c 4.4204,1.61538 5.2907,2.13165 7.2526,4.30334 3.8013,4.20748 4.4118,9.91557 1.5549,14.53805 -2.4907,4.03003 -4.9771,4.75066 -17.2866,5.01028 l -10.8999,0.22984 z m 17.7877,15.91703 c 3.5177,-1.81916 3.7699,-7.57965 0.4633,-10.58999 -1.9812,-1.80386 -3.4569,-2.44765 -6.737,-2.93948 l -2.9169,-0.43743 v 7.43862 7.43862 h 3.715 c 2.0817,0 4.4888,-0.40015 5.4756,-0.91034 z m -2.5523,-20.79892 c 3.4714,-1.92635 4.9358,-7.45698 2.7041,-10.21302 -1.0304,-1.27238 -4.6278,-2.37462 -7.9606,-2.4392 -1.3507,-0.0257 -1.3818,0.12458 -1.3818,6.72818 v 6.75479 l 2.6099,-0.0218 c 1.4354,-0.0124 3.2481,-0.37601 4.0284,-0.80898 z m 33.2766,18.53023 v -9.93391 l -7.0618,-13.31837 c -3.884,-7.32507 -7.0618,-13.49361 -7.0618,-13.70795 0,-0.21435 2.1415,-0.384 4.759,-0.37706 l 4.7591,0.0124 5.142,9.81257 c 2.8281,5.39693 5.3151,9.8086 5.5267,9.80375 0.2115,-0.01 2.8232,-4.42622 5.8037,-9.82524 l 5.419,-9.81629 h 3.3315 c 1.8324,0 3.3316,0.13323 3.3316,0.29613 0,0.16289 -3.3159,6.24718 -7.369,13.52062 l -7.3688,13.22441 v 10.12135 10.12136 h -4.6057 -4.6055 z M 663.12867,272.50705 c 1.79103,-2.57308 3.5656,-4.79945 3.9436,-4.94742 0.37801,-0.14806 2.12328,-0.18439 3.87836,-0.0808 l 3.1911,0.18838 -4.39016,4.75903 c -4.21698,4.57142 -4.49847,4.75914 -7.1348,4.75914 h -2.74454 z m 253.18037,2.68263 c 1.16663,-5.82485 2.67455,-7.82947 5.8895,-7.82947 0.89094,0 2.61594,0.67594 3.83334,1.50203 3.91927,2.65972 4.70158,2.95622 5.67314,2.14982 0.4851,-0.40254 0.88195,-1.38886 0.88195,-2.19185 0,-1.25915 0.29557,-1.46 2.14918,-1.46 1.97547,0 2.14928,0.14797 2.14928,1.82982 0,2.50472 -1.74895,6.67416 -3.10385,7.39926 -2.09607,1.12174 -4.53695,0.61299 -7.78224,-1.62212 -3.61058,-2.48665 -4.7741,-2.41428 -5.37787,0.33454 -0.36551,1.66464 -0.66363,1.88374 -2.56296,1.88374 -2.09743,0 -2.13955,-0.0485 -1.74947,-1.99577 z m 117.23226,-24.46302 c -11.6478,-0.84112 -32.4153,-5.61955 -33.1893,-7.63662 -0.3415,-0.88971 2.5542,-24.76097 3.0655,-25.27229 0.153,-0.15302 1.9964,0.5893 4.0966,1.64952 5.383,2.71734 17.1194,6.52561 23.5591,7.6445 7.8751,1.36833 19.2755,1.24746 25.1976,-0.26712 11.6191,-2.97163 18.6315,-10.17727 21.9371,-22.54144 0.9925,-3.71261 1.3431,-7.22999 1.5498,-15.54473 l 0.2667,-10.74632 -1.3536,1.84227 c -3.5979,4.89646 -10.3867,10.69308 -15.4025,13.15167 -7.9222,3.88292 -11.6171,4.65376 -22.2969,4.65205 -7.9298,0 -9.8518,-0.20133 -13.8166,-1.43736 -7.7599,-2.41912 -13.8331,-5.9676 -19.0409,-11.12547 -8.31632,-8.23647 -13.50082,-18.3933 -16.46662,-32.26026 -1.3858,-6.47864 -1.5795,-8.8526 -1.6031,-19.65037 -0.03,-13.36086 1.022,-20.88412 4.2404,-30.34666 4.7506,-13.967284 14.44852,-26.347149 25.97052,-33.152537 10.5878,-6.253551 25.7284,-8.362666 37.9105,-5.281013 5.1065,1.291867 14.0739,5.841503 18.1151,9.191039 l 3.3775,2.799221 0.1774,-5.225668 0.1775,-5.225668 h 13.7927 13.7929 v 57.876606 c 0,33.54662 -0.2675,61.49061 -0.6328,66.47368 -1.5319,20.90154 -5.1793,32.53395 -13.2804,42.35528 -8.5524,10.36851 -22.1674,16.5378 -39.9376,18.0968 -8.0103,0.70275 -10.237,0.70066 -20.204,-0.019 z m 23.2374,-80.54834 c 6.4773,-2.39098 10.6803,-5.20742 17.176,-11.50955 l 6.0127,-5.83371 V 126.63493 100.4347 l -3.8379,-3.483724 c -7.8915,-7.163133 -16.47,-10.781883 -25.6702,-10.82886 -5.7954,-0.02949 -9.2455,0.70475 -13.5432,2.882523 -7.4342,3.767197 -13.7708,13.654331 -16.3111,25.450681 -1.5541,7.21697 -1.5789,28.83115 -0.041,35.55864 2.7177,11.88652 9.3439,19.61946 18.4781,21.56444 4.5467,0.96808 13.1661,0.28776 17.7384,-1.40008 z m 235.5628,75.84274 c 0.31,-0.59102 5.559,-12.02944 11.6648,-25.41874 l 11.1012,-24.34417 -26.6175,-67.15314 -26.6176,-67.153129 16.0065,-0.163944 c 10.4449,-0.106982 16.1415,0.05516 16.3954,0.465491 0.214,0.346241 8.5136,21.490453 18.4438,46.987272 9.9301,25.49671 18.2163,46.35773 18.4138,46.35773 0.1972,0 9.1495,-21.13955 19.8936,-46.9768 l 19.535,-46.976811 h 14.362 c 7.8991,0 14.3621,0.188003 14.3621,0.417753 0,0.22975 -17.0485,41.956158 -37.8854,92.725448 l -37.8855,92.30771 h -15.8678 c -14.9175,0 -15.834,-0.0646 -15.3044,-1.07467 z M 667.71549,207.38552 c -0.22508,-0.22519 -0.40938,-46.52699 -0.40938,-102.89283 V 2.0092363 l 46.51626,0.24059 c 44.21984,0.228609 46.80434,0.303163 52.35,1.509255 22.54411,4.90301 34.71257,14.8740197 40.31187,33.0322447 1.61091,5.224051 1.69887,6.131924 1.69327,17.484572 -0.01,14.329789 -0.79367,18.039926 -6.05557,28.564579 -5.7486,11.497949 -14.4633,20.945183 -25.03826,27.142713 l -4.74773,2.7824 3.28498,4.68285 c 19.85273,28.30089 61.99794,88.96055 62.23206,89.57087 0.24383,0.63533 -5.37715,0.75668 -29.07496,0.62801 l -29.37717,-0.15947 -24.29965,-40.22202 -24.2998,-40.22191 -8.71975,-0.17041 -8.71984,-0.17031 v 40.54581 40.5459 h -22.61847 c -12.44016,0 -22.80267,-0.1843 -23.02786,-0.40939 z M 734.73883,90.538524 c 14.94937,-3.084791 22.78493,-10.777702 25.13045,-24.673193 1.60415,-9.502856 -0.0685,-15.997094 -5.46722,-21.229893 -5.70361,-5.528165 -13.10067,-7.530393 -29.52632,-7.99189 l -11.51392,-0.323609 v 27.707299 27.707298 l 7.82946,-0.009 c 5.30099,-0.009 9.67612,-0.38913 13.54755,-1.188028 z M 503.34793,104.6302 V 2.0795123 h 64.17086 64.17095 V 19.580629 37.081842 h -40.22191 -40.222 v 23.63656 23.636561 l 33.00657,0.158903 33.00657,0.15881 0.16336,16.733614 0.16338,16.7335 h -33.16995 -33.16993 v 26.71232 26.71232 h 43.29234 43.29234 v 17.80817 17.80819 h -67.24129 -67.24129 z m 691.75647,102.18009 c -10.7811,-1.59579 -20.6253,-5.86385 -27.5066,-11.92559 -1.6188,-1.42624 -3.0761,-2.46049 -3.238,-2.29845 -0.1622,0.16204 -0.7853,3.0285 -1.385,6.36995 l -1.0903,6.07534 -13.328,0.16547 -13.3282,0.16555 0.1554,-100.87396 0.1555,-100.8738737 h 14.7376 14.7379 l 0.1581,39.4557317 0.158,39.45573 3.2193,-3.790016 c 3.7105,-4.368101 10.4393,-9.716535 14.8869,-11.832783 8.6188,-4.101167 16.3866,-5.560877 27.0192,-5.077414 17.0343,0.774455 30.2973,8.060644 39.2988,21.588877 8.5956,12.918384 12.02,26.338308 12.0042,47.043748 -0.013,17.26538 -2.4052,29.69755 -7.9791,41.47004 -8.5687,18.09802 -20.8337,29.117 -37.183,33.40549 -4.7948,1.25764 -17.2086,2.11026 -21.4927,1.47616 z m 10.8697,-24.25924 c 12.0298,-2.51698 19.9863,-12.86789 23.3136,-30.33002 1.315,-6.90154 1.1178,-32.38361 -0.3019,-38.99385 -2.3639,-11.00641 -7.8217,-19.277304 -14.8412,-22.490953 -13.3303,-6.102825 -29.796,-1.135436 -44.6778,13.478403 l -4.1451,4.07037 v 30.06336 30.06347 l 2.6099,2.12015 c 6.3226,5.13638 14.6869,9.74182 20.9468,11.53342 4.3624,1.2485 12.3629,1.47578 17.0957,0.48565 z M 339.38966,104.32038 V 2.0739013 l 65.5526,0.156336 65.55259,0.156336 0.16327,17.0362927 0.16319,17.036292 -41.61335,0.157764 -41.61334,0.157857 v 26.098194 26.098193 l 33.92775,0.158809 33.92767,0.158713 v 17.183692 17.18369 l -33.92767,0.15871 -33.92775,0.15872 -0.15786,41.29659 -0.15776,41.29667 h -23.94467 -23.94467 z m 541.9219,100.72352 c -15.6421,-3.44348 -26.05578,-14.254 -29.41996,-30.54113 -0.84854,-4.10792 -0.97672,-11.62643 -0.97672,-57.25821 V 64.715251 h 14.73775 14.73783 v 49.013269 c 0,51.41708 0.1127,53.83507 2.75187,59.03933 2.61301,5.15255 5.94573,6.87652 13.29354,6.87652 12.77165,0 24.35602,-7.43216 36.35619,-23.32494 l 2.5582,-3.38795 0.1653,-44.10815 0.1655,-44.108079 h 14.72599 14.72593 v 69.083469 69.08358 h -14.7378 -14.73787 v -9.60842 -9.6085 l -5.68029,5.47947 c -9.34802,9.01759 -17.58789,13.63369 -28.27802,15.8418 -5.58693,1.15398 -15.2817,1.18118 -20.38744,0.0571 z"
       style="fill:#2a2b54;fill-opacity:1;stroke-width:0.61407572" />
    <circle
       cy="347.36237"
       cx="258.41388"
       style="fill:#ffffff;fill-opacity:1;fill-rule:nonzero;stroke:none;stroke-width:0.61092442;stroke-linecap:round;stroke-linejoin:round;stroke-miterlimit:4;stroke-dasharray:none;stroke-dashoffset:6.76940012;stroke-opacity:1"
       id="path2181"
       r="4.4667273" />
    <path
       style="fill:#ffffff;stroke-width:0.30546221"
       d="m 139.70749,347.06042 c 0.246,-0.0329 0.3744,-0.067 0.5244,-0.1387 0.064,-0.0304 0.1044,-0.0611 0.1731,-0.1304 0.1607,-0.16215 0.2278,-0.31698 0.2376,-0.54876 0,-0.11249 0,-0.14969 -0.018,-0.22889 -0.059,-0.23692 -0.2002,-0.41473 -0.4148,-0.52215 -0.1325,-0.0663 -0.2361,-0.0956 -0.4299,-0.12139 -0.1076,-0.0145 -0.2836,-0.0188 -0.8961,-0.0228 l -0.7621,-0.005 v 0.87294 0.87287 l 0.7286,-0.005 c 0.5709,-0.004 0.7564,-0.009 0.8571,-0.0224 z"
       id="path2170"
       inkscape:connector-curvature="0" />
    <g
       style="display:inline"
       id="layer1"
       transform="matrix(0.46174564,0,0,0.48068506,-0.93031,3.472335)">
      <g
         style="display:inline;stroke-width:5.19111967;stroke-miterlimit:4;stroke-dasharray:none"
         id="g3806"
         transform="matrix(0.96153331,0,0,0.96329343,-54.417655,-159.99924)">
        <path
           style="fill:#f99c1b;fill-opacity:1;stroke:#000000;stroke-width:4.98435783;stroke-linejoin:miter;stroke-miterlimit:4;stroke-dasharray:none;stroke-opacity:1"
           id="path3808"
           transform="matrix(0.70586777,0.76508575,-0.77398273,0.69775377,650.30226,110.70181)"
           d="m 268.70057,796.03595 c 0.63074,20.39014 -19.22771,37.49856 -35.78611,49.23695 -19.48105,13.81029 -44.76339,21.43127 -68.77773,20.67647 -24.20867,-0.76092 -48.83945,-10.71312 -68.414799,-25.17345 -15.086597,-11.14448 -34.017208,-26.09904 -34.102615,-44.73997 -0.09271,-20.23474 19.970072,-36.65826 36.57573,-48.05539 19.239374,-13.20475 43.913034,-20.54551 67.374184,-19.64931 24.52231,0.93672 49.16486,11.47218 69.17932,25.87068 14.5802,10.48907 33.39992,23.98585 33.95202,41.83402 z"
           inkscape:connector-curvature="0" />
        <path
           style="fill:none;stroke:#000000;stroke-width:5.19111967;stroke-linecap:butt;stroke-linejoin:miter;stroke-miterlimit:4;stroke-dasharray:none;stroke-opacity:1"
           id="path3810"
           d="m 86.428572,708.43361 c 0,0 0.553985,31.94621 5.714285,46.78572 7.282664,20.9428 20.745863,39.50821 34.642853,56.78571 14.67065,18.23937 31.63368,35.01294 50.71429,48.57143 10.67642,7.58656 35,17.85714 35,17.85714"
           inkscape:connector-curvature="0" />
      </g>
      <path
         style="fill:#d71f27;fill-opacity:1;stroke:#000000;stroke-width:4.99600124;stroke-linecap:butt;stroke-linejoin:miter;stroke-miterlimit:4;stroke-dasharray:none;stroke-opacity:1"
         id="path3836"
         d="m 160.99957,96.666609 -4.83194,7.840911 -8.46253,1.41233 -12.00988,-1.01883 -7.40939,-7.980529 z M 460.64402,668.76036 c 45.6607,-2.21063 91.3214,-4.42127 136.9821,-6.6319 9.49528,-6.31702 2.25535,-21.09467 4.66296,-30.99493 3.92294,-13.07854 -4.39338,-19.80555 -15.05402,-25.31599 -25.34862,-17.49986 -50.69721,-34.99973 -76.04582,-52.49962 -1.018,-24.89077 -2.03601,-49.78154 -3.05401,-74.67232 -15.47066,-15.28201 -30.94129,-30.56402 -46.41195,-45.84604 3.36796,-10.68085 15.62412,-17.96944 22.47,-27.32291 15.03988,-18.59565 36.12388,-33.02927 45.23475,-55.70767 1.82333,-11.52385 2.38094,-22.70318 -7.03618,-31.1674 -44.50381,-64.44114 -89.00758,-128.8823 -133.51138,-193.32344 21.55576,-24.32492 43.11153,-48.649821 64.66731,-72.974736 27.71104,4.743972 67.16855,-16.739541 64.01792,-43.907582 -33.34134,-7.77268281 -41.94159,8.264622 -55.6285,16.50325 -17.13066,3.16791 -10.50286,23.700436 -23.08218,31.538324 -20.56958,23.022097 -41.13915,46.044194 -61.70874,69.066294 44.34205,66.38063 88.68411,132.76125 133.02616,199.14188 3.60918,13.5989 -12.5855,17.77866 -19.93147,26.16706 -20.95413,17.30163 -41.90825,34.60326 -62.8624,51.90488 -13.84956,-9.39003 -26.70913,-21.65653 -41.16471,-29.28574 -25.1592,-1.39678 -51.30479,0.0704 -75.85789,-3.08629 -19.04129,-14.17028 -38.08258,-28.34056 -57.12388,-42.51085 15.82746,-15.55034 31.65492,-31.10068 47.4824,-46.65103 C 297.39166,197.60206 294.06881,114.02051 290.74598,30.438953 280.70009,22.331441 272.01076,10.726268 261.14331,4.7370153 227.84528,5.3223634 194.21177,4.1379556 161.12106,5.8170421 147.58929,12.150683 131.44454,15.039603 119.51298,23.482814 116.11176,33.656537 98.14125,33.686928 86.704407,42.584137 76.099199,50.834379 63.709571,65.545332 62.47614,81.98915 c 9.851286,6.537262 24.830545,3.385038 34.462106,8.417378 8.792574,2.96214 -13.394088,15.609462 -18.324604,21.421792 -16.530043,4.5108 -52.680001,12.00979 -39.874108,25.10986 12.493946,-1.0397 23.749427,-1.08826 37.413206,-3.54471 12.303887,-8.00872 21.553334,-28.20462 38.73205,-20.34443 7.71658,6.75513 25.87467,8.00525 20.7612,21.52464 -4.10726,9.4759 -19.10501,11.97377 -27.56154,18.66289 -24.063779,13.52022 -48.127552,27.04043 -72.191324,40.56064 -14.99281,9.973 2.687698,32.68705 -12.874201,41.76715 -8.719072,8.78356 -21.3123681,16.25008 -17.9805517,30.53165 0.1029263,18.66863 0.2058526,37.33724 0.308779,56.00587 9.1335227,7.32161 17.2488447,15.17797 16.2711377,27.8099 7.519566,48.54985 15.039133,97.09966 22.558698,145.6495 -12.63388,12.9896 -25.26776,25.97919 -37.9016416,38.96879 2.1261885,26.1489 21.4411606,0.93755 28.5025416,-7.57731 18.602642,-3.9257 38.986246,-5.00312 57.454521,0.42653 8.623151,-9.91931 -14.836431,-17.83354 -1.283627,-30.74562 4.078968,-11.31617 8.157935,-22.63235 12.236908,-33.94853 31.05388,19.98122 62.10776,39.96245 93.16164,59.94367 23.10887,2.84861 33.74829,-24.80106 54.79564,-31.29553 20.81192,-15.04961 45.09589,-24.61506 71.18266,-22.75029 18.81601,-1.44446 10.50685,5.93012 -3.50174,3.55336 -12.42455,0.95525 -26.68117,-2.87369 -34.92958,8.98702 -16.76849,14.26303 -33.53697,28.52608 -50.30545,42.7891 0.10426,20.99267 0.20851,41.98533 0.31277,62.97801 31.99703,17.2971 63.99405,34.59419 95.99109,51.8913 -3.31414,12.72029 -11.3059,17.97304 -24.26292,15.29906 -42.40332,1.03616 -84.80663,2.0723 -127.20996,3.10845 -13.41612,9.63927 -34.30998,15.7168 -34.22953,35.3991 m -0.0587,0.60149 c 100.79882,0.65461 201.59764,1.30924 302.39647,1.96385 6.31575,-9.30734 18.29723,-16.77334 14.21663,-29.45948 -0.71057,-11.53274 1.9755,-25.02409 -11.954,-28.9343 -13.60532,-8.82404 -27.21065,-17.64808 -40.81598,-26.47213 9.48327,-9.71416 20.13142,-17.30478 33.85548,-19.28815 15.09883,2.53321 29.86374,11.79737 44.83608,16.87988 13.66546,5.61785 27.33091,11.23568 40.99637,16.85352 -4.86631,13.25736 -19.41193,8.33035 -30.49258,9.91289 -13.16543,1.77349 -28.17197,-3.04455 -37.551,8.89052"
         inkscape:connector-curvature="0" />
      <path
         style="fill:none;stroke:#000000;stroke-width:4.99600124;stroke-linecap:round;stroke-linejoin:miter;stroke-miterlimit:4;stroke-dasharray:none;stroke-opacity:1"
         id="path3778"
         d="m 402.94323,612.35961 -24.36724,-13.07555 4.23778,-7.77463 24.01409,-8.12804 15.89168,-8.12803 3.17833,-2.82714 0.7063,-28.97822"
         inkscape:connector-curvature="0" />
      <path
         style="fill:none;stroke:#000000;stroke-width:4.99600124;stroke-linecap:round;stroke-linejoin:miter;stroke-miterlimit:4;stroke-dasharray:none;stroke-opacity:1"
         id="path3780"
         d="m 323.13167,639.57086 57.5632,31.09857 37.08059,-0.35338 6.00352,-8.12805"
         inkscape:connector-curvature="0" />
      <path
         style="fill:none;stroke:#000000;stroke-width:4.99600124;stroke-linecap:butt;stroke-linejoin:miter;stroke-miterlimit:4;stroke-dasharray:none;stroke-opacity:1"
         id="path3782"
         d="m 460.15327,435.66317 2.11889,127.57484 c 0,0 -0.35314,3.53392 -0.7063,4.59409 -0.35314,1.06019 -1.76573,2.12036 -2.82518,3.88733 -1.05945,1.76697 -21.8952,21.91036 -21.8952,21.91036"
         inkscape:connector-curvature="0" />
      <path
         style="fill:none;stroke:#000000;stroke-width:4.99600124;stroke-linecap:round;stroke-linejoin:miter;stroke-miterlimit:4;stroke-dasharray:none;stroke-opacity:1"
         id="path3784"
         d="m 513.12554,637.2738 c 8.50219,-2.35744 17.1418,-8.04098 26.30956,-10.07169 8.18052,-1.81204 15.89656,-1.76697 25.07354,-1.76697"
         inkscape:connector-curvature="0" />
      <path
         style="fill:none;stroke:#000000;stroke-width:4.99600124;stroke-linecap:round;stroke-linejoin:miter;stroke-miterlimit:4;stroke-dasharray:none;stroke-opacity:1"
         id="path3839"
         d="m 102.63317,109.76916 17.23024,-16.242626 15.6071,0.37483"
         inkscape:connector-curvature="0" />
      <path
         style="fill:none;stroke:#000000;stroke-width:4.99600124;stroke-linecap:round;stroke-linejoin:miter;stroke-miterlimit:4;stroke-dasharray:none;stroke-opacity:1"
         id="path3841"
         d="m 122.61027,93.776421 c 0,0 -5.99313,6.247159 -6.24284,7.246709 -0.24972,0.99955 -1.24857,6.24716 -1.24857,6.24716"
         inkscape:connector-curvature="0" />
      <path
         style="display:inline;fill:none;stroke:#000000;stroke-width:4.99600124;stroke-linecap:butt;stroke-linejoin:miter;stroke-miterlimit:4;stroke-dasharray:none;stroke-opacity:1"
         id="path3843"
         d="m 139.3672,122.15085 c 4.77325,-2.25465 10.48089,-2.55621 14.82119,0.94009 4.97321,2.69064 10.67951,2.93268 16.0032,1.30151 10.58411,-5.55522 20.8627,-11.92392 31.32973,-17.79087 0.23543,-22.381553 0.47087,-44.763104 0.7063,-67.144654 -9.29958,-6.125476 -18.59915,-12.250952 -27.89873,-18.376429 -6.12047,-0.181275 -12.2567,-1.475126 -18.36372,-0.706784 -5.14546,5.096834 -12.99276,3.599189 -19.51144,5.124196 -8.7925,1.250341 -16.63392,5.887222 -24.96201,8.790178 -7.48629,3.393646 -15.198975,6.732994 -22.21287,10.882209 -3.795578,5.471865 -8.933328,10.646284 -8.292192,17.875604 -0.09823,5.554568 -1.990472,10.765353 -0.948394,16.344418"
         inkscape:connector-curvature="0" />
      <path
         style="fill:none;stroke:#000000;stroke-width:4.99600124;stroke-linecap:round;stroke-linejoin:miter;stroke-miterlimit:4;stroke-dasharray:none;stroke-opacity:1"
         id="path3863"
         d="m 99.412148,84.390678 39.199482,2.47375 15.36195,-12.545447 c 0,0 2.47203,-0.706785 4.23778,-0.706785 1.76575,0 3.88464,0 6.00353,0.706785 2.11888,0.706785 4.59092,2.297054 5.12065,3.003839 0.52972,0.706787 1.58916,1.766965 1.23602,4.064019 -0.35316,2.297053 -0.7063,3.710625 -1.23602,5.300892 -0.52973,1.590269 -1.4126,5.124196 -1.4126,5.124196"
         inkscape:connector-curvature="0" />
      <path
         style="fill:none;stroke:#000000;stroke-width:4.99600124;stroke-linecap:butt;stroke-linejoin:miter;stroke-miterlimit:4;stroke-dasharray:none;stroke-opacity:1"
         id="path3865"
         d="M 201.29547,106.30104 200.94232,120.96685 31.607649,224.68764"
         inkscape:connector-curvature="0" />
      <path
         style="fill:none;stroke:#000000;stroke-width:4.99600124;stroke-linecap:round;stroke-linejoin:miter;stroke-miterlimit:4;stroke-dasharray:none;stroke-opacity:1"
         id="path3867"
         d="m 14.126801,323.99103 29.31132,10.60179 1.942317,-67.67473 c 0,0 0.353148,-1.59027 0.88287,-2.47375 0.529723,-0.88349 1.589169,-2.65045 2.47204,-3.35723 0.882871,-0.70679 2.472039,-1.76696 3.884632,-2.82715 1.412594,-1.06017 141.7891,-92.41223 141.7891,-92.41223"
         inkscape:connector-curvature="0" />
      <path
         style="fill:none;stroke:#000000;stroke-width:4.99600124;stroke-linecap:butt;stroke-linejoin:miter;stroke-miterlimit:4;stroke-dasharray:none;stroke-opacity:1"
         id="path3871"
         d="m 43.084973,334.23943 9.888156,7.42124 34.255398,-29.3316 0.706297,-33.92572 C 140.05037,244.70999 226.70769,187.01026 268.6742,158.84985 c 3.68161,-2.47044 8.41905,-5.42672 10.59071,-9.56772 1.87738,-3.57986 1.43572,-8.22369 1.56697,-12.05614 1.26774,-37.01893 1.5031,-80.24715 1.68773,-110.084955 L 262.7433,4.8772852"
         inkscape:connector-curvature="0" />
      <path
         style="fill:none;stroke:#000000;stroke-width:4.99600124;stroke-linecap:butt;stroke-linejoin:miter;stroke-miterlimit:4;stroke-dasharray:none;stroke-opacity:1"
         id="path3891"
         d="m 70.63055,520.47747 -1.059446,-146.30465 1.412595,-2.47375 2.11889,-2.82714 49.087631,-31.45196 -1.41259,-31.45197"
         inkscape:connector-curvature="0" />
      <path
         style="fill:none;stroke:#000000;stroke-width:4.99600124;stroke-linecap:butt;stroke-linejoin:miter;stroke-miterlimit:4;stroke-dasharray:none;stroke-opacity:1"
         id="path3893"
         d="m 86.875378,311.97568 c 0.117716,4.24072 0.235433,8.48143 0.353149,12.72214 53.678563,-32.62993 107.357123,-65.25988 161.035683,-97.88982 7.17531,-3.97753 16.91576,0.80334 13.48103,9.77145 m -7.47751,90.94552 c -9.29958,-7.77465 -18.59915,-15.54929 -27.89872,-23.32394 0,0 -2.8913,-23.05057 -4.1607,-35.18261 -0.2603,-2.48781 -0.0602,-5.75187 1.94454,-7.24785 12.0178,-8.96787 23.58145,-18.3149 37.83022,-25.27907"
         inkscape:connector-curvature="0" />
      <path
         style="fill:none;stroke:#000000;stroke-width:4.99600124;stroke-linecap:round;stroke-linejoin:miter;stroke-miterlimit:4;stroke-dasharray:none;stroke-opacity:1"
         id="path3897"
         d="m 229.19419,306.67478 31.43021,-22.61713 1.35866,-52.86945"
         inkscape:connector-curvature="0" />
      <path
         style="fill:none;stroke:#000000;stroke-width:4.99600124;stroke-linecap:butt;stroke-linejoin:miter;stroke-miterlimit:4;stroke-dasharray:none;stroke-opacity:1"
         id="path3899"
         d="m 85.109635,360.74389 5.297227,87.64143 12.007038,11.30857"
         inkscape:connector-curvature="0" />
      <path
         style="fill:#000000;fill-opacity:1;fill-rule:evenodd;stroke:none"
         id="path3901"
         d="m 149.70017,49.238816 c 2.44651,-1.585634 5.15159,-3.793377 7.96201,-4.732334 3.19841,-1.166366 2.05786,-1.479432 5.31085,-2.527076 2.27437,-0.851983 10.48795,-1.82961 13.16912,-2.12454 2.59183,-0.4527 4.17038,1.822123 2.10517,3.279668 -1.28188,0.987347 -8.12528,3.460008 -7.74271,4.993839 -2.89457,4.98203 -4.48295,9.217722 -14.72893,5.136012 -2.55033,0.866792 0.41653,-0.17009 -3.10343,1.05262 -2.31581,0.267879 -3.43488,0.08906 -5.72725,-0.720246 0.20289,-1.744534 0.93825,-3.600884 2.75517,-4.357943 z"
         inkscape:connector-curvature="0" />
      <path
         style="fill:none;stroke:#000000;stroke-width:6;stroke-linecap:round;stroke-linejoin:miter;stroke-miterlimit:4;stroke-dasharray:none;stroke-opacity:1"
         id="path3002"
         transform="translate(-1.2179566e-7,0.3786807)"
         d="m 470.3824,27.203572 c 0,0 12.12822,-4.789744 18.45349,-6.272984 4.66887,-1.094823 14.25953,-1.907564 14.25953,-1.907564"
         inkscape:connector-curvature="0" />
      <path
         style="fill:none;stroke:#000000;stroke-width:7;stroke-linecap:round;stroke-linejoin:miter;stroke-miterlimit:4;stroke-dasharray:none;stroke-opacity:1"
         id="path3772"
         transform="translate(-1.2179566e-7,0.3786807)"
         d="m 465.3591,54.090211 c 0.5156,-1.031197 4.19622,-7.713933 7.31601,-10.705149 2.81411,-2.698133 9.92527,-6.187185 9.92527,-6.187185"
         inkscape:connector-curvature="0" />
      <path
         style="fill:none;stroke:#000000;stroke-width:7;stroke-linecap:round;stroke-linejoin:miter;stroke-miterlimit:4;stroke-dasharray:none;stroke-opacity:1"
         id="path3774"
         transform="translate(-1.2179566e-7,0.3786807)"
         d="m 501.16193,45.963054 c 0,0 1.81225,-5.846308 3.41038,-8.417485 0.8714,-1.401952 3.29241,-3.699084 3.29241,-3.699084"
         inkscape:connector-curvature="0" />
    </g>
    <g
       id="g1036"
       transform="matrix(1.0860245,0,0,1.0860245,-590.8719,-860.66317)">
      <circle
         id="circle1016"
         r="14.830481"
         cy="1121.4412"
         cx="786.7384"
         style="fill:none;stroke:#2a2a57;stroke-width:3.35152102;stroke-opacity:1" />
      <path
         style="fill:#2a2a57;fill-opacity:1;stroke-width:0.16757604"
         id="path1018"
         d="m 785.83347,1120.1006 c 0.92167,0 1.59198,-0.1843 1.99416,-0.5362 0.40218,-0.3352 0.62003,-0.905 0.62003,-1.7093 0,-0.7876 -0.21785,-1.3406 -0.62003,-1.6925 -0.40218,-0.3352 -1.07249,-0.5028 -1.99416,-0.5028 h -1.87685 v 4.4408 h 1.87685 m -1.87685,3.0666 v 6.5355 h -4.45752 v -17.2771 h 6.80359 c 2.27903,0 3.93803,0.3854 4.99376,1.1563 1.07249,0.7541 1.59198,1.9606 1.59198,3.6196 0,1.1395 -0.26813,2.078 -0.82113,2.8153 -0.553,0.7206 -1.37412,1.2736 -2.49688,1.6087 0.62003,0.1509 1.15627,0.4693 1.64225,0.9552 0.48597,0.486 0.97194,1.2233 1.45791,2.2288 l 2.42985,4.8932 h -4.7424 l -2.11146,-4.2899 c -0.41894,-0.8547 -0.85464,-1.458 -1.29034,-1.7596 -0.43569,-0.3184 -1.02221,-0.486 -1.74279,-0.486 h -1.25682"
         inkscape:connector-curvature="0" />
    </g>
  </g>
</svg>
