<?xml version="1.0" encoding="UTF-8" standalone="no"?>
<svg
   xmlns:dc="http://purl.org/dc/elements/1.1/"
   xmlns:cc="http://creativecommons.org/ns#"
   xmlns:rdf="http://www.w3.org/1999/02/22-rdf-syntax-ns#"
   xmlns:svg="http://www.w3.org/2000/svg"
   xmlns="http://www.w3.org/2000/svg"
   viewBox="0 0 577.33331 853.33331"
   height="853.33331"
   width="577.33331"
   xml:space="preserve"
   id="svg2"
   version="1.1"><metadata
     id="metadata8"><rdf:RDF><cc:Work
         rdf:about=""><dc:format>image/svg+xml</dc:format><dc:type
           rdf:resource="http://purl.org/dc/dcmitype/StillImage" /></cc:Work></rdf:RDF></metadata><defs
     id="defs6" /><g
     transform="matrix(1.3333333,0,0,-1.3333333,0,853.33333)"
     id="g10"><g
       transform="scale(0.1)"
       id="g12"><path
         id="path14"
         style="fill:#060f76;fill-opacity:1;fill-rule:nonzero;stroke:none"
         d="M 396.289,6400 H 3937.81 c 219.53,0 396.29,-176.76 396.29,-396.29 V 396.289 C 4334.1,176.762 4157.34,0 3937.81,0 H 396.289 C 176.762,0 0,176.762 0,396.289 V 6003.71 C 0,6223.24 176.762,6400 396.289,6400 Z" /><path
         id="path16"
         style="fill:#ffe500;fill-opacity:1;fill-rule:nonzero;stroke:none"
         d="M 617.969,6147.19 V 400.512 H 766.09 V 2827.85 H 3568.01 V 400.512 h 148.12 V 6147.19 H 3568.01 V 2975.94 H 766.09 v 3171.25 z" /><path
         id="path18"
         style="fill:#fee500;fill-opacity:1;fill-rule:nonzero;stroke:none"
         d="m 971.129,6172.23 64.921,-942.89 c 322.35,-57.39 673.68,-59.89 1029.54,0 l 62.11,942.89 c -99.73,-64.46 -192.82,-138.91 -270.28,-236.76 -21.87,-34.69 -19.29,-68.67 -2.11,-92.19 11.88,-29.26 74.73,-3.71 117.35,-23.08 57.77,-26.25 44.14,-96.88 14.45,-136.92 -22.19,-29.84 -91.33,-46.21 -119.22,-5.55 l -50.27,73.32 c -30.86,-33.51 -51.64,-78.08 -111.06,-94.25 -34.26,-9.34 -69.33,14.02 -79.26,62.69 -7.46,36.6 23.99,74.92 93.91,96.53 77.31,47.07 84.69,98.94 0,157.14 l -43.98,29.34 c -2.46,74.3 -23.64,138.2 -125.75,157.15 -97.89,-27.03 -128.67,-85.63 -131.99,-157.15 l -48.16,-29.34 c -51.41,-50.39 -91.45,-101.25 0,-157.14 44.65,-21.41 101.4,-34.81 98.47,-88.01 -3.51,-30.63 -24.45,-75.35 -77.53,-73.32 -57.74,2.19 -73.87,62.58 -111.06,96.36 l -54.45,-73.32 c -18.83,-25.31 -58.6,-46.17 -107.11,5.55 -24.81,26.49 -53.83,80 -1.88,130.67 30.16,29.37 82.23,-2.86 117.35,29.33 12.81,26.06 19.29,62.62 4.18,94.26 -85.59,88.83 -171.49,162.5 -268.171,234.69 z" /><path
         id="path20"
         style="fill:#060f76;fill-opacity:1;fill-rule:nonzero;stroke:none"
         d="m 1079.14,5548.05 h 940.55 v -47.03 h -940.55 z" /><path
         id="path22"
         style="fill:#fee500;fill-opacity:1;fill-rule:nonzero;stroke:none"
         d="m 2206.41,6172.23 64.96,-942.89 c 322.34,-57.39 673.63,-59.89 1029.49,0 l 62.11,942.89 c -99.73,-64.46 -192.81,-138.91 -270.27,-236.76 -21.84,-34.69 -19.3,-68.67 -2.11,-92.19 11.87,-29.26 74.76,-3.71 117.34,-23.08 57.77,-26.25 44.18,-96.88 14.45,-136.92 -22.15,-29.84 -91.33,-46.21 -119.22,-5.55 l -50.27,73.32 c -30.82,-33.51 -51.64,-78.08 -111.05,-94.25 -34.26,-9.34 -69.34,14.02 -79.26,62.69 -7.46,36.6 23.98,74.92 93.94,96.53 77.27,47.07 84.65,98.94 0,157.14 l -44.02,29.34 c -2.46,74.3 -23.63,138.2 -125.7,157.15 -97.93,-27.03 -128.67,-85.63 -132,-157.15 l -48.2,-29.34 c -51.4,-50.39 -91.4,-101.25 0,-157.14 44.69,-21.41 101.45,-34.81 98.48,-88.01 -3.48,-30.63 -24.42,-75.35 -77.54,-73.32 -57.74,2.19 -73.87,62.58 -111.02,96.36 l -54.49,-73.32 c -18.83,-25.31 -58.59,-46.17 -107.07,5.55 -24.8,26.49 -53.83,80 -1.87,130.67 30.15,29.37 82.18,-2.86 117.34,29.33 12.77,26.06 19.26,62.62 4.18,94.26 -85.63,88.83 -171.52,162.5 -268.2,234.69 z" /><path
         id="path24"
         style="fill:#060f76;fill-opacity:1;fill-rule:nonzero;stroke:none"
         d="m 2314.45,5548.05 h 940.51 v -47.03 h -940.51 z" /><path
         id="path26"
         style="fill:#fee500;fill-opacity:1;fill-rule:nonzero;stroke:none"
         d="m 1588.75,4978.44 64.96,-942.89 c 322.34,-57.39 673.67,-59.89 1029.49,0 l 62.15,942.89 c -99.76,-64.46 -192.81,-138.91 -270.31,-236.76 -21.84,-34.69 -19.3,-68.67 -2.07,-92.23 11.83,-29.22 74.73,-3.67 117.34,-23.04 57.78,-26.25 44.14,-96.88 14.42,-136.92 -22.15,-29.84 -91.33,-46.21 -119.18,-5.54 l -50.32,73.32 c -30.82,-33.52 -51.64,-78.09 -111.05,-94.26 -34.26,-9.34 -69.3,14.02 -79.26,62.69 -7.46,36.6 23.99,74.93 93.95,96.53 77.3,47.07 84.65,98.94 0,157.15 l -44.03,29.33 c -2.42,74.3 -23.59,138.2 -125.7,157.15 -97.89,-27.03 -128.67,-85.63 -131.99,-157.15 l -48.2,-29.33 c -51.41,-50.4 -91.41,-101.25 0,-157.15 44.68,-21.45 101.44,-34.81 98.47,-88.01 -3.47,-30.63 -24.41,-75.35 -77.5,-73.32 -57.73,2.19 -73.87,62.58 -111.05,96.37 l -54.49,-73.32 c -18.79,-25.32 -58.6,-46.18 -107.08,5.54 -24.8,26.49 -53.82,80 -1.87,130.67 30.16,29.37 82.19,-2.86 117.34,29.29 12.82,26.1 19.26,62.66 4.18,94.3 -85.58,88.83 -171.48,162.5 -268.2,234.69 z" /><path
         id="path28"
         style="fill:#060f76;fill-opacity:1;fill-rule:nonzero;stroke:none"
         d="m 1696.8,4354.26 h 940.5 v -47.03 h -940.5 z" /><path
         id="path30"
         style="fill:#ffe500;fill-opacity:1;fill-rule:nonzero;stroke:none"
         d="m 2187.66,2699.45 c 306.52,-1.75 613.04,-32.5 919.57,-179.22 217.69,-96.25 423.9,-215.58 600.07,-374.1 163.52,-138.79 312.5,-288.71 342.9,-529.92 H 2191.52 Z" /><path
         id="path32"
         style="fill:none;stroke:#060f76;stroke-width:99.98000336;stroke-linecap:butt;stroke-linejoin:miter;stroke-miterlimit:4;stroke-dasharray:none;stroke-opacity:1"
         d="m 2187.66,2699.45 c 306.52,-1.75 613.04,-32.5 919.57,-179.22 217.69,-96.25 423.9,-215.58 600.07,-374.1 163.52,-138.79 312.5,-288.71 342.9,-529.92 H 2191.52 Z" /><path
         id="path34"
         style="fill:#ffe500;fill-opacity:1;fill-rule:nonzero;stroke:none"
         d="m 2146.48,2699.45 c -306.56,-1.75 -613.08,-32.5 -919.6,-179.22 -217.7,-96.25 -423.911,-215.58 -600.079,-374.1 C 463.32,2007.34 314.301,1857.42 283.91,1616.21 h 1858.67 z" /><path
         id="path36"
         style="fill:none;stroke:#060f76;stroke-width:99.98000336;stroke-linecap:butt;stroke-linejoin:miter;stroke-miterlimit:4;stroke-dasharray:none;stroke-opacity:1"
         d="m 2146.48,2699.45 c -306.56,-1.75 -613.08,-32.5 -919.6,-179.22 -217.7,-96.25 -423.911,-215.58 -600.079,-374.1 C 463.32,2007.34 314.301,1857.42 283.91,1616.21 h 1858.67 z" /><path
         id="path38"
         style="fill:#ffe500;fill-opacity:1;fill-rule:nonzero;stroke:none"
         d="m 2187.66,490.121 c 306.52,1.758 613.04,32.5 919.57,179.219 217.69,96.25 423.9,215.582 600.07,374.1 163.52,138.79 312.5,288.71 342.9,529.92 H 2191.52 Z" /><path
         id="path40"
         style="fill:none;stroke:#060f76;stroke-width:99.98000336;stroke-linecap:butt;stroke-linejoin:miter;stroke-miterlimit:4;stroke-dasharray:none;stroke-opacity:1"
         d="m 2187.66,490.121 c 306.52,1.75 613.04,32.5 919.57,179.219 217.69,96.25 423.9,215.582 600.07,374.1 163.52,138.79 312.5,288.71 342.9,529.92 H 2191.52 Z" /><path
         id="path42"
         style="fill:#ffe500;fill-opacity:1;fill-rule:nonzero;stroke:none"
         d="m 2146.48,490.121 c -306.56,1.758 -613.08,32.5 -919.6,179.219 -217.7,96.25 -423.911,215.582 -600.079,374.1 -163.481,138.79 -312.5,288.71 -342.891,529.92 h 1858.67 l 3.71,-1032.309 0.16,-50.93 z" /><path
         id="path44"
         style="fill:none;stroke:#060f76;stroke-width:99.98000336;stroke-linecap:butt;stroke-linejoin:miter;stroke-miterlimit:4;stroke-dasharray:none;stroke-opacity:1"
         d="m 2146.48,490.121 c -306.56,1.75 -613.08,32.5 -919.6,179.219 -217.7,96.25 -423.911,215.582 -600.079,374.1 -163.481,138.79 -312.5,288.71 -342.891,529.92 h 1858.67 l 3.71,-1032.309 0.16,-50.93 z" /><path
         id="path46"
         style="fill:#ffe500;fill-opacity:1;fill-rule:nonzero;stroke:none"
         d="m 2095.63,2648.55 c 46.36,2.47 94.06,2.19 142.73,0 l 1752.03,-981.87 c 8.28,-48.24 8.95,-96.17 0,-143.71 L 2239.49,540.82 c -47.93,-1.48 -96.4,-1.019 -143.63,0 L 343.672,1522.97 c -8.473,48.05 -8.043,96.05 0,144.1 z" /><path
         id="path48"
         style="fill:none;stroke:#ffe500;stroke-width:0.49990001;stroke-linecap:butt;stroke-linejoin:miter;stroke-miterlimit:4;stroke-dasharray:none;stroke-opacity:1"
         d="m 2095.63,2648.55 c 46.36,2.47 94.06,2.19 142.73,0 l 1752.03,-981.87 c 8.28,-48.24 8.95,-96.17 0,-143.71 L 2239.49,540.82 c -47.93,-1.48 -96.4,-1.019 -143.63,0 L 343.672,1522.97 c -8.473,48.05 -8.043,96.05 0,144.1 z" /><path
         id="path50"
         style="fill:none;stroke:#060f76;stroke-width:69.98600006;stroke-linecap:butt;stroke-linejoin:miter;stroke-miterlimit:4;stroke-dasharray:none;stroke-opacity:1"
         d="m 3534.41,1593.32 c 2.66,106.91 5.32,214.34 35.32,317.81 29.41,101.53 73.55,167.97 114.76,235.43 l 217.78,-185.39 117.73,-220.7 17.66,-147.15" /><path
         id="path52"
         style="fill:none;stroke:#060f76;stroke-width:69.98600006;stroke-linecap:butt;stroke-linejoin:miter;stroke-miterlimit:4;stroke-dasharray:none;stroke-opacity:1"
         d="m 3534.41,1596.25 c 2.66,-106.91 5.32,-214.34 35.32,-317.81 29.41,-101.53 73.55,-167.97 114.76,-235.43 l 217.78,185.39 117.73,220.7 17.66,147.15" /><path
         id="path54"
         style="fill:none;stroke:#060f76;stroke-width:69.98600006;stroke-linecap:butt;stroke-linejoin:miter;stroke-miterlimit:4;stroke-dasharray:none;stroke-opacity:1"
         d="m 797.891,1593.32 c -2.661,106.91 -5.313,214.34 -35.313,317.81 -29.418,101.53 -73.598,167.97 -114.769,235.43 l -217.77,-185.39 -117.738,-220.7 -17.653,-147.15" /><path
         id="path56"
         style="fill:none;stroke:#060f76;stroke-width:69.98600006;stroke-linecap:butt;stroke-linejoin:miter;stroke-miterlimit:4;stroke-dasharray:none;stroke-opacity:1"
         d="M 797.891,1596.25 C 795.23,1489.34 792.578,1381.91 762.578,1278.44 733.16,1176.91 688.98,1110.47 647.809,1043.01 l -217.77,185.39 -117.738,220.7 -17.653,147.15" /><path
         id="path58"
         style="fill:none;stroke:#060f76;stroke-width:66.98660278;stroke-linecap:butt;stroke-linejoin:miter;stroke-miterlimit:4;stroke-dasharray:none;stroke-opacity:1"
         d="m 3564.73,1918.67 c -447.62,158.05 -923.83,238.24 -1398.52,237.85" /><path
         id="path60"
         style="fill:none;stroke:#060f76;stroke-width:66.98660278;stroke-linecap:butt;stroke-linejoin:miter;stroke-miterlimit:4;stroke-dasharray:none;stroke-opacity:1"
         d="m 769.379,1918.67 c 447.611,158.05 923.861,238.24 1398.511,237.85" /></g></g></svg>