<svg xmlns="http://www.w3.org/2000/svg" height="853.333" width="577.333"><path d="M52.839 0H525.04c29.271 0 52.839 23.568 52.839 52.839v747.656c0 29.27-23.568 52.838-52.839 52.838H52.84C23.569 853.333 0 829.765 0 800.495V52.839C0 23.568 23.568 0 52.839 0z" fill="#060f76"/><path d="M82.396 33.708v766.224h19.75V476.287h373.589v323.645h19.749V33.708h-19.75v422.833H102.146V33.708z" fill="#ffe500"/><path d="M129.484 30.37l8.656 125.718c42.98 7.652 89.824 7.985 137.272 0l8.281-125.719c-13.297 8.595-25.709 18.522-36.037 31.568-2.916 4.626-2.572 9.156-.281 12.292 1.584 3.902 9.964.495 15.646 3.078 7.703 3.5 5.886 12.917 1.927 18.256-2.959 3.978-12.177 6.161-15.896.74l-6.703-9.776c-4.114 4.468-6.885 10.41-14.808 12.566-4.568 1.246-9.244-1.869-10.568-8.358-.994-4.88 3.199-9.99 12.522-12.871 10.308-6.276 11.292-13.192 0-20.952L223.63 53c-.328-9.907-3.152-18.427-16.767-20.953C193.812 35.65 189.708 43.464 189.265 53l-6.421 3.912c-6.855 6.719-12.193 13.5 0 20.952 5.953 2.855 13.52 4.641 13.13 11.735-.469 4.084-3.26 10.046-10.338 9.776-7.699-.292-9.85-8.344-14.808-12.848l-7.26 9.776c-2.51 3.374-7.813 6.156-14.281-.74-3.308-3.532-7.178-10.667-.251-17.423 4.021-3.916 10.964.381 15.647-3.91 1.708-3.475 2.572-8.35.557-12.569-11.412-11.844-22.865-21.666-35.756-31.292z" fill="#fee500"/><path d="M143.885 113.593h125.407v6.271H143.885z" fill="#060f76"/><path d="M294.188 30.37l8.661 125.718c42.979 7.652 89.818 7.985 137.266 0l8.281-125.719c-13.297 8.595-25.708 18.522-36.036 31.568-2.912 4.626-2.573 9.156-.281 12.292 1.582 3.902 9.968.495 15.645 3.078 7.703 3.5 5.89 12.917 1.927 18.256-2.954 3.978-12.178 6.161-15.896.74l-6.703-9.776c-4.11 4.468-6.885 10.41-14.807 12.566-4.568 1.246-9.245-1.869-10.568-8.358-.994-4.88 3.198-9.99 12.526-12.871 10.302-6.276 11.286-13.192 0-20.952L388.333 53c-.328-9.907-3.15-18.427-16.76-20.953-13.057 3.604-17.156 11.417-17.6 20.953l-6.426 3.912c-6.854 6.719-12.187 13.5 0 20.952 5.958 2.855 13.526 4.641 13.13 11.735-.464 4.084-3.256 10.046-10.338 9.776-7.699-.292-9.85-8.344-14.803-12.848l-7.265 9.776c-2.511 3.374-7.812 6.156-14.276-.74-3.307-3.532-7.178-10.667-.25-17.423 4.02-3.916 10.958.381 15.646-3.91 1.702-3.475 2.568-8.35.557-12.569-11.417-11.844-22.87-21.666-35.76-31.292z" fill="#fee500"/><path d="M308.593 113.593h125.402v6.271H308.593z" fill="#060f76"/><path d="M211.833 189.541l8.662 125.719c42.978 7.652 89.822 7.985 137.265 0l8.287-125.719c-13.302 8.595-25.708 18.522-36.042 31.568-2.912 4.626-2.573 9.156-.276 12.298 1.578 3.896 9.964.489 15.646 3.072 7.704 3.5 5.885 12.917 1.922 18.256-2.953 3.978-12.177 6.161-15.89.738l-6.71-9.776c-4.109 4.47-6.885 10.412-14.806 12.568-4.568 1.246-9.24-1.869-10.568-8.358-.995-4.88 3.198-9.991 12.526-12.871 10.307-6.276 11.287-13.192 0-20.953l-5.87-3.911c-.323-9.907-3.146-18.427-16.76-20.953-13.052 3.604-17.156 11.417-17.599 20.953l-6.427 3.91c-6.854 6.72-12.188 13.5 0 20.954 5.958 2.86 13.526 4.641 13.13 11.735-.463 4.084-3.255 10.046-10.334 9.776-7.697-.292-9.849-8.344-14.806-12.85l-7.266 9.776c-2.505 3.376-7.813 6.158-14.277-.738-3.307-3.532-7.176-10.667-.25-17.423 4.022-3.916 10.96.381 15.646-3.905 1.71-3.48 2.568-8.355.557-12.574-11.41-11.844-22.864-21.666-35.76-31.292z" fill="#fee500"/><path d="M226.24 272.765h125.4v6.271h-125.4z" fill="#060f76"/><path d="M291.688 493.407c40.87.233 81.739 4.333 122.61 23.896 29.025 12.833 56.52 28.744 80.009 49.88 21.802 18.505 41.666 38.494 45.72 70.656H292.203z" fill="#ffe500"/><path d="M291.688 493.407c40.87.233 81.739 4.333 122.61 23.896 29.025 12.833 56.52 28.744 80.009 49.88 21.802 18.505 41.666 38.494 45.72 70.656H292.203z" fill="none" stroke="#060f76" stroke-width="13.33"/><path d="M286.197 493.407c-40.874.233-81.744 4.333-122.613 23.896-29.027 12.833-56.521 28.744-80.01 49.88-21.798 18.505-41.667 38.494-45.72 70.656h247.823z" fill="#ffe500"/><path d="M286.197 493.407c-40.874.233-81.744 4.333-122.613 23.896-29.027 12.833-56.521 28.744-80.01 49.88-21.798 18.505-41.667 38.494-45.72 70.656h247.823z" fill="none" stroke="#060f76" stroke-width="13.33"/><path d="M291.688 787.984c40.87-.235 81.739-4.333 122.61-23.896 29.025-12.833 56.52-28.744 80.009-49.88 21.802-18.505 41.666-38.495 45.72-70.656H292.203z" fill="#ffe500"/><path d="M291.688 787.984c40.87-.233 81.739-4.333 122.61-23.896 29.025-12.833 56.52-28.744 80.009-49.88 21.802-18.505 41.666-38.495 45.72-70.656H292.203z" fill="none" stroke="#060f76" stroke-width="13.33"/><path d="M286.197 787.984c-40.874-.235-81.744-4.333-122.613-23.896-29.027-12.833-56.521-28.744-80.01-49.88-21.798-18.505-41.667-38.495-45.72-70.656h247.823l.495 137.641.021 6.79z" fill="#ffe500"/><path d="M286.197 787.984c-40.874-.233-81.744-4.333-122.613-23.896-29.027-12.833-56.521-28.744-80.01-49.88-21.798-18.505-41.667-38.495-45.72-70.656h247.823l.495 137.641.021 6.79z" fill="none" stroke="#060f76" stroke-width="13.33"/><path d="M279.417 500.193c6.182-.329 12.542-.292 19.031 0L532.052 631.11c1.104 6.432 1.193 12.823 0 19.162L298.599 781.224c-6.391.197-12.854.136-19.151 0L45.823 650.271c-1.13-6.407-1.072-12.807 0-19.214z" fill="#ffe500"/><path d="M279.417 500.193c6.182-.329 12.542-.292 19.031 0L532.052 631.11c1.104 6.432 1.193 12.823 0 19.162L298.599 781.224c-6.391.197-12.854.136-19.151 0L45.823 650.271c-1.13-6.407-1.072-12.807 0-19.214z" fill="none" stroke="#ffe500" stroke-width=".067"/><path d="M471.255 640.89c.354-14.254.709-28.578 4.709-42.374 3.921-13.537 9.807-22.396 15.301-31.39l29.038 24.718L536 621.271l2.355 19.62" fill="none" stroke="#060f76" stroke-width="9.331"/><path d="M471.255 640.5c.354 14.255.709 28.579 4.709 42.375 3.921 13.537 9.807 22.396 15.301 31.39l29.038-24.718L536 660.12l2.355-19.62m-431.97.39c-.354-14.254-.708-28.578-4.708-42.374-3.922-13.537-9.813-22.396-15.302-31.39l-29.036 24.718-15.699 29.427-2.354 19.62" fill="none" stroke="#060f76" stroke-width="9.331"/><path d="M106.385 640.5c-.354 14.255-.708 28.579-4.708 42.375-3.922 13.537-9.813 22.396-15.302 31.39l-29.036-24.718L41.64 660.12l-2.354-19.62" fill="none" stroke="#060f76" stroke-width="9.331"/><path d="M475.297 597.51c-59.682-21.073-123.177-31.765-186.469-31.713M102.584 597.51c59.681-21.073 123.181-31.765 186.468-31.713" fill="none" stroke="#060f76" stroke-width="8.931"/></svg>