<svg xmlns="http://www.w3.org/2000/svg" xmlns:xlink="http://www.w3.org/1999/xlink" width="266.961" height="259.868" overflow="visible"><switch><g><defs><path id="a" d="M.002 259.868h266.959V.001H.002v259.867z"/></defs><clipPath id="b"><use xlink:href="#a"/></clipPath><path clip-path="url(#b)" fill="#FE370B" d="M133.477 3.31s9.148 14.998 30 14.998 38.406-16.826 38.406-16.826l63.652 57.068s-17.926 27.068-17.926 45.357c0 23.414 5.484 27.07 3.656 47.188-2.227 24.508-21.945 45.727-42.063 59.262-20.121 13.535-27.805 12.801-53.773 29.266-11.008 6.973-21.953 18.656-21.953 18.656s-10.943-11.684-21.945-18.656c-25.973-16.465-33.656-15.73-53.775-29.266-20.117-13.535-39.834-34.754-42.066-59.262-1.828-20.117 3.658-23.773 3.658-47.188 0-18.289-17.924-45.357-17.924-45.357l63.65-57.068s17.557 16.826 38.408 16.826c20.854 0 29.995-14.998 29.995-14.998"/><path clip-path="url(#b)" fill="none" stroke="#000" stroke-width="2.173" d="M133.477 3.31s9.148 14.998 30 14.998 38.406-16.826 38.406-16.826l63.652 57.068s-17.926 27.068-17.926 45.357c0 23.414 5.484 27.07 3.656 47.188-2.227 24.508-21.945 45.727-42.063 59.262-20.121 13.535-27.805 12.801-53.773 29.266-11.008 6.973-21.953 18.656-21.953 18.656s-10.943-11.684-21.945-18.656c-25.973-16.465-33.656-15.73-53.775-29.266-20.117-13.535-39.834-34.754-42.066-59.262-1.828-20.117 3.658-23.773 3.658-47.188 0-18.289-17.924-45.357-17.924-45.357l63.65-57.068s17.557 16.826 38.408 16.826c20.854 0 29.995-14.998 29.995-14.998z"/><path clip-path="url(#b)" fill="#FFF" d="M23.281 61.929c6.029 11.27 13.178 27.631 13.178 41.979 0 12.502-1.424 20.354-2.57 26.664-.834 4.605-1.465 8.078-1.465 12.805 0 1.824.094 3.836.305 6.168 1.416 15.578 14.344 33.004 34.58 46.617 8.814 5.93 14.662 8.645 22.066 12.082 8.074 3.75 17.229 8 31.314 16.926 4.543 2.879 8.949 7.527 12.787 10.797 3.844-3.27 8.25-7.918 12.793-10.797 14.086-8.926 23.238-13.176 31.316-16.926 7.402-3.438 13.25-6.152 22.063-12.082 20.234-13.613 33.164-31.039 34.578-46.617.211-2.332.305-4.344.305-6.168 0-4.727-.625-8.203-1.461-12.805-1.145-6.311-2.57-14.164-2.57-26.664 0-14.348 7.148-30.709 13.176-41.979a372279.861 372279.861 0 01-42.754-38.332c-9.117 5.742-22.348 11.824-37.445 11.824-12.383 0-22.43-3.879-30-8.807-7.566 4.928-17.611 8.807-29.994 8.807-15.098 0-28.326-6.082-37.447-11.824-11.741 10.529-31.034 27.824-42.755 38.332"/><path clip-path="url(#b)" fill="none" stroke="#000" stroke-width="2.173" d="M23.281 61.929c6.029 11.27 13.178 27.631 13.178 41.979 0 12.502-1.424 20.354-2.57 26.664-.834 4.605-1.465 8.078-1.465 12.805 0 1.824.094 3.836.305 6.168 1.416 15.578 14.344 33.004 34.58 46.617 8.814 5.93 14.662 8.645 22.066 12.082 8.074 3.75 17.229 8 31.314 16.926 4.543 2.879 8.949 7.527 12.787 10.797 3.844-3.27 8.25-7.918 12.793-10.797 14.086-8.926 23.238-13.176 31.316-16.926 7.402-3.438 13.25-6.152 22.063-12.082 20.234-13.613 33.164-31.039 34.578-46.617.211-2.332.305-4.344.305-6.168 0-4.727-.625-8.203-1.461-12.805-1.145-6.311-2.57-14.164-2.57-26.664 0-14.348 7.148-30.709 13.176-41.979a372279.861 372279.861 0 01-42.754-38.332c-9.117 5.742-22.348 11.824-37.445 11.824-12.383 0-22.43-3.879-30-8.807-7.566 4.928-17.611 8.807-29.994 8.807-15.098 0-28.326-6.082-37.447-11.824-11.741 10.529-31.034 27.824-42.755 38.332z"/><defs><path id="c" d="M54.861 48.323L36.818 64.499c7.008 14.791 10.588 28.025 10.588 39.408 0 13.484-1.586 22.23-2.744 28.617-.777 4.281-1.289 7.109-1.289 10.852 0 1.555.086 3.246.262 5.18 1.104 12.141 12.518 26.902 29.785 38.52 8.102 5.449 13.33 7.879 20.564 11.234 8.396 3.898 17.887 8.309 32.568 17.613 2.236 1.418 4.553 4.234 6.924 6.016 2.379-1.781 4.695-4.602 6.934-6.016 14.672-9.305 24.164-13.711 32.539-17.602 7.258-3.367 12.488-5.797 20.59-11.246 17.266-11.617 28.68-26.379 29.789-38.52.172-1.938.258-3.633.258-5.18 0-3.738-.512-6.563-1.285-10.832-1.16-6.402-2.746-15.148-2.746-28.637 0-11.385 3.578-24.621 10.586-39.408a566214.35 566214.35 0 01-30.672-27.496c-9.465 4.889-21.926 9.365-35.992 9.365-10.566 0-20.797-2.486-30-7.174-9.197 4.688-19.43 7.174-29.994 7.174-14.068 0-26.527-4.477-35.994-9.365a37630.668 37630.668 0 00-12.628 11.321"/></defs><use xlink:href="#c" clip-path="url(#b)" fill="#FF0"/><clipPath id="d" clip-path="url(#b)"><use xlink:href="#c"/></clipPath><path clip-path="url(#d)" fill="#FE370B" d="M234.809 95.493h-76.637V29.282h-49.385v66.211H32.15v49.75h76.637v82.414h49.385v-82.414h76.637"/><path clip-path="url(#d)" fill="none" stroke="#000" stroke-width="2.173" d="M234.809 95.493h-76.637V29.282h-49.385v66.211H32.15v49.75h76.637v82.414h49.385v-82.414h76.637v-49.75z"/><path clip-path="url(#b)" fill="none" stroke="#000" stroke-width="2.173" d="M54.861 48.323L36.818 64.499c7.008 14.791 10.588 28.025 10.588 39.408 0 13.484-1.586 22.23-2.744 28.617-.777 4.281-1.289 7.109-1.289 10.852 0 1.555.086 3.246.262 5.18 1.104 12.141 12.518 26.902 29.785 38.52 8.102 5.449 13.33 7.879 20.564 11.234 8.396 3.898 17.887 8.309 32.568 17.613 2.236 1.418 4.553 4.234 6.924 6.016 2.379-1.781 4.695-4.602 6.934-6.016 14.672-9.305 24.164-13.711 32.539-17.602 7.258-3.367 12.488-5.797 20.59-11.246 17.266-11.617 28.68-26.379 29.789-38.52.172-1.938.258-3.633.258-5.18 0-3.738-.512-6.563-1.285-10.832-1.16-6.402-2.746-15.148-2.746-28.637 0-11.385 3.578-24.621 10.586-39.408a566214.35 566214.35 0 01-30.672-27.496c-9.465 4.889-21.926 9.365-35.992 9.365-10.566 0-20.797-2.486-30-7.174-9.197 4.688-19.43 7.174-29.994 7.174-14.068 0-26.527-4.477-35.994-9.365a37630.668 37630.668 0 00-12.628 11.321z"/><path clip-path="url(#b)" fill="#92CAE0" d="M69.098 121.286c0-35.662 28.908-64.566 64.566-64.566 35.656 0 64.563 28.904 64.563 64.566 0 35.652-28.906 64.563-64.563 64.563-35.658 0-64.566-28.911-64.566-64.563"/><path clip-path="url(#b)" fill="none" stroke="#000" stroke-width="2.167" stroke-miterlimit="35" d="M69.098 121.286c0-35.662 28.908-64.566 64.566-64.566 35.656 0 64.563 28.904 64.563 64.566 0 35.652-28.906 64.563-64.563 64.563-35.658 0-64.566-28.911-64.566-64.563z"/><path clip-path="url(#b)" fill="#006532" d="M103.146 94.704s4.436-1.68 7.904 1.488c3.469 3.166 5.332 8.977 5.332 8.977s-6.121-.502-10-3.15c-3.882-2.641-3.236-7.315-3.236-7.315m-3.603.121s-4.717-.469-7.242 3.488c-2.529 3.965-2.82 10.061-2.82 10.061s5.779-2.08 8.842-5.639c3.062-3.562 1.22-7.91 1.22-7.91"/><path clip-path="url(#b)" fill="#006532" d="M100.701 88.747c.004.227-1.494 27.305 6.627 50.273 6.203 17.543 15.199 25.586 15.578 25.922l.998-1.133c-.092-.078-9.104-8.145-15.154-25.293-6.971-19.77-6.113-49.574-6.115-49.795"/><path clip-path="url(#b)" fill="#006532" d="M117.209 156.853s4.693-.684 7.396 3.156c2.701 3.844 3.268 9.922 3.268 9.922s-5.869-1.813-9.086-5.234c-3.221-3.423-1.578-7.844-1.578-7.844m-5.711-13.567s3.451-3.254 7.869-1.668c4.42 1.598 8.375 6.242 8.375 6.242s-5.844 1.891-10.445.938c-4.602-.949-5.799-5.512-5.799-5.512m-3.336 1.777s-4.535 1.383-5.348 6.004c-.813 4.629 1.262 10.367 1.262 10.367s4.541-4.137 5.994-8.602c1.461-4.464-1.908-7.769-1.908-7.769m-2.469-21.259s4.186-2.227 8.029.473c3.842 2.703 6.428 8.225 6.428 8.225s-6.137.281-10.32-1.852c-4.187-2.129-4.137-6.846-4.137-6.846m-3.144.898s-4.742.133-6.744 4.381c-2.006 4.25-1.521 10.332-1.521 10.332s5.473-2.793 8.055-6.715c2.583-3.922.21-7.998.21-7.998"/><path clip-path="url(#b)" fill="#FFF" d="M131.082 114.714s8.457.139 16.164-2.781c7.707-2.922 11.434-4.842 11.434-4.842s.094 5.305-6.75 7.809c-16.641 6.076-22.037 5.191-22.037 5.191"/><path clip-path="url(#b)" fill="none" stroke="#000" stroke-width="1.207" stroke-linecap="round" stroke-miterlimit="35" d="M131.082 114.714s8.457.139 16.164-2.781c7.707-2.922 11.434-4.842 11.434-4.842s.094 5.305-6.75 7.809c-16.641 6.076-22.037 5.191-22.037 5.191"/><path clip-path="url(#b)" fill="#FFF" d="M134.117 109.714s8.457-.004 16.109-3.061c7.656-3.055 11.352-5.041 11.352-5.041s.188 5.305-6.617 7.924c-16.531 6.369-21.938 5.576-21.938 5.576"/><path clip-path="url(#b)" fill="none" stroke="#000" stroke-width="1.207" stroke-linecap="round" stroke-miterlimit="35" d="M134.117 109.714s8.457-.004 16.109-3.061c7.656-3.055 11.352-5.041 11.352-5.041s.188 5.305-6.617 7.924c-16.531 6.369-21.938 5.576-21.938 5.576"/><path clip-path="url(#b)" fill="#FFF" d="M137.16 104.712s8.453-.154 16.055-3.34c7.598-3.188 11.262-5.236 11.262-5.236s.281 5.293-6.48 8.033c-16.418 6.66-21.836 5.959-21.836 5.959"/><path clip-path="url(#b)" fill="none" stroke="#000" stroke-width="1.207" stroke-linecap="round" stroke-miterlimit="35" d="M137.16 104.712s8.453-.154 16.055-3.34c7.598-3.188 11.262-5.236 11.262-5.236s.281 5.293-6.48 8.033c-16.418 6.66-21.836 5.959-21.836 5.959"/><path clip-path="url(#b)" fill="#FFF" d="M140.211 99.71s8.453-.301 16-3.623c7.539-3.318 11.164-5.43 11.164-5.43s.375 5.289-6.336 8.146c-16.297 6.941-21.734 6.338-21.734 6.338"/><path clip-path="url(#b)" fill="none" stroke="#000" stroke-width="1.207" stroke-linecap="round" stroke-miterlimit="35" d="M140.211 99.71s8.453-.301 16-3.623c7.539-3.318 11.164-5.43 11.164-5.43s.375 5.289-6.336 8.146c-16.297 6.941-21.734 6.338-21.734 6.338"/><path clip-path="url(#b)" fill="#FFF" d="M136.063 105.741c.766-6.771 6.672-12.414 9.055-19.084.305-1.811.531-4.449.227-7.771-.602-6.641-4.527-7.846-4.527-7.846s.605 3.623.301 8.148c-.301 4.525-3.32 10.262-7.242 14.486-3.924 4.225-5.129 5.432-4.826 9.959.299 4.527.602 20.219.602 20.219l6.342-.506v-10.629a31.438 31.438 0 01-.629-3.074c.079-1.261.337-2.583.697-3.902"/><path clip-path="url(#b)" fill="none" stroke="#000" stroke-width="1.207" stroke-linecap="round" stroke-miterlimit="35" d="M136.063 105.741c.766-6.771 6.672-12.414 9.055-19.084.305-1.811.531-4.449.227-7.771-.602-6.641-4.527-7.846-4.527-7.846s.605 3.623.301 8.148c-.301 4.525-3.32 10.262-7.242 14.486-3.924 4.225-5.129 5.432-4.826 9.959.299 4.527.602 20.219.602 20.219l6.342-.506v-10.629a31.438 31.438 0 01-.629-3.074c.079-1.261.337-2.583.697-3.902z"/><path clip-path="url(#b)" fill="#FFF" d="M165.352 124.259a41.376 41.376 0 00-5.219 5.328c-6.414 7.785-10.563 12.07-19.922 12.07-9.354 0-17.504-5.129-20.822-13.275-3.318-8.15-6.639-14.189-11.469-14.189-4.826 0-8.752 2.416-8.752 2.416s4.225-9.656 12.074-9.656c7.846 0 12.07 8.148 15.693 12.072 3.621 3.924 16.596 4.828 24.443 2.416 6.98-2.148 10.863-9.055 18.105-8.451"/><path clip-path="url(#b)" fill="none" stroke="#000" stroke-width="1.207" stroke-miterlimit="35" d="M165.352 124.259a41.376 41.376 0 00-5.219 5.328c-6.414 7.785-10.563 12.07-19.922 12.07-9.354 0-17.504-5.129-20.822-13.275-3.318-8.15-6.639-14.189-11.469-14.189-4.826 0-8.752 2.416-8.752 2.416s4.225-9.656 12.074-9.656c7.846 0 12.07 8.148 15.693 12.072 3.621 3.924 16.596 4.828 24.443 2.416 6.98-2.148 10.863-9.055 18.105-8.451"/><path clip-path="url(#b)" fill="#FFF" d="M165.867 113.292s3.852-1.313 7.543.299c5.531 2.416 3.621 5.434 3.621 5.434s-3.016-1.205-5.434-1.809c-2.41-.607-4.512.105-4.512.105 1.008.09 2.047.416 2.953.848 6.336 3.018 3.625 5.434 3.625 5.434s-3.023-1.207-5.434-1.813c-2.414-.604-4.375.125-4.375.125.918.102 1.992.439 2.816.83 6.336 3.02 3.621 5.434 3.621 5.434s-3.02-1.207-5.434-1.811-4.527 0-4.527 0"/><path clip-path="url(#b)" fill="none" stroke="#000" stroke-width="1.207" stroke-linecap="round" stroke-miterlimit="35" d="M165.867 113.292s3.852-1.313 7.543.299c5.531 2.416 3.621 5.434 3.621 5.434s-3.016-1.205-5.434-1.809c-2.41-.607-4.512.105-4.512.105 1.008.09 2.047.416 2.953.848 6.336 3.018 3.625 5.434 3.625 5.434s-3.023-1.207-5.434-1.813c-2.414-.604-4.375.125-4.375.125.918.102 1.992.439 2.816.83 6.336 3.02 3.621 5.434 3.621 5.434s-3.02-1.207-5.434-1.811-4.527 0-4.527 0"/><path clip-path="url(#b)" fill="#FFF" d="M150.172 122.646s-9.375-1.854-9.375-13.002c0-11.395 9.105-19.811 9.547-21.928s.801-4.773.43-8.83c-.602-6.641-4.523-7.846-4.523-7.846s.602 3.623.301 8.148-3.316 10.262-7.246 14.486c-3.922 4.225-5.125 5.432-4.828 9.959.305 4.527.641 20.891.641 20.891"/><path clip-path="url(#b)" fill="none" stroke="#000" stroke-width="1.207" stroke-linecap="round" stroke-miterlimit="35" d="M150.172 122.646s-9.375-1.854-9.375-13.002c0-11.395 9.105-19.811 9.547-21.928s.801-4.773.43-8.83c-.602-6.641-4.523-7.846-4.523-7.846s.602 3.623.301 8.148-3.316 10.262-7.246 14.486c-3.922 4.225-5.125 5.432-4.828 9.959.305 4.527.641 20.891.641 20.891"/><path clip-path="url(#b)" fill="#FFF" d="M141.641 103.847c1.023-4.939 7.258-5.797 9.875-9.316 1.289-1.736 2.441-3.986 3.352-7.955 1.492-6.496-1.863-8.867-1.863-8.867s-.551 3.629-2.246 7.84c-1.203 2.982-5.016 5.852-8.277 8.424"/><path clip-path="url(#b)" fill="none" stroke="#000" stroke-width="1.207" stroke-linecap="round" stroke-miterlimit="35" d="M141.641 103.847c1.023-4.939 7.258-5.797 9.875-9.316 1.289-1.736 2.441-3.986 3.352-7.955 1.492-6.496-1.863-8.867-1.863-8.867s-.551 3.629-2.246 7.84c-1.203 2.982-5.016 5.852-8.277 8.424"/><path clip-path="url(#b)" d="M106.613 111.079s1.209-1.41 3.219-1.41c2.014 0 2.691.502 3.861 2.43-2.257-1.006-8.035.836-7.08-1.02"/></g></switch></svg>