<svg xmlns="http://www.w3.org/2000/svg" xmlns:xlink="http://www.w3.org/1999/xlink" viewBox="0 0 763.26 749.67"><defs><linearGradient id="a" data-name="usar gradient blue" x1="457.51" y1="104.04" x2="542.84" y2="153.3" gradientUnits="userSpaceOnUse"><stop offset="0" stop-color="#181e56"/><stop offset="0" stop-color="#142056"/><stop offset="0" stop-color="#092655"/><stop offset="0" stop-color="#022a54"/><stop offset="0" stop-color="#002b54"/><stop offset=".61" stop-color="#00365f"/><stop offset="1" stop-color="#003f68"/></linearGradient><linearGradient id="e" x1="473.9" y1="24.32" x2="652.54" y2="164.27" gradientUnits="userSpaceOnUse"><stop offset="0" stop-color="#181e56"/><stop offset="0" stop-color="#142056"/><stop offset="0" stop-color="#092655"/><stop offset="0" stop-color="#022a54"/><stop offset="0" stop-color="#002b54"/><stop offset=".09" stop-color="#0f3b63"/><stop offset=".23" stop-color="#224f77"/><stop offset=".33" stop-color="#29567e"/></linearGradient><linearGradient id="f" x1="671.39" y1="379.29" x2="518.61" y2="195.43" gradientUnits="userSpaceOnUse"><stop offset="0" stop-color="#181e56"/><stop offset="0" stop-color="#142056"/><stop offset="0" stop-color="#092655"/><stop offset="0" stop-color="#022a54"/><stop offset="0" stop-color="#002b54"/><stop offset=".42" stop-color="#06365e"/><stop offset="1" stop-color="#134b73"/></linearGradient><linearGradient id="g" x1="238.14" y1="810.36" x2="238.1" y2="692.59" gradientUnits="userSpaceOnUse"><stop offset="0" stop-color="#181e56"/><stop offset=".75" stop-color="#063b78"/><stop offset="1" stop-color="#004684"/></linearGradient><linearGradient id="h" x1="238.15" y1="838.33" x2="238.11" y2="720.56" xlink:href="#a"/><linearGradient id="i" x1="584.82" y1="806.7" x2="584.82" y2="697.58" gradientUnits="userSpaceOnUse"><stop offset="0" stop-color="#771110"/><stop offset=".3" stop-color="#870d1b"/><stop offset="1" stop-color="#a90533"/></linearGradient><linearGradient id="j" x1="584.74" y1="830.67" x2="584.74" y2="721.56" gradientUnits="userSpaceOnUse"><stop offset="0" stop-color="#851817"/><stop offset=".41" stop-color="#911220"/><stop offset="1" stop-color="#a90533"/><stop offset="1" stop-color="#b00832"/><stop offset="1" stop-color="#c21130"/><stop offset="1" stop-color="#c41230"/></linearGradient><linearGradient id="b" data-name="Red Gradient" x1="362.73" y1="258.65" x2="662.75" y2="570.35" gradientUnits="userSpaceOnUse"><stop offset="0" stop-color="#c41230"/><stop offset="0" stop-color="#c81e36"/><stop offset="0" stop-color="#cd3040"/><stop offset="0" stop-color="#cf3744"/><stop offset=".26" stop-color="#bb2f38"/><stop offset=".8" stop-color="#871918"/><stop offset=".82" stop-color="#851817"/></linearGradient><linearGradient id="k" x1="245.94" y1="405.86" x2="611.64" y2="630.42" xlink:href="#b"/><radialGradient id="c" cx="747.76" cy="97.88" r="179.92" gradientUnits="userSpaceOnUse"><stop offset="0" stop-color="#fff" stop-opacity=".8"/><stop offset="1" stop-color="#fff" stop-opacity="0"/></radialGradient><radialGradient id="d" cx="197.78" cy="486.4" r="179.62" gradientUnits="userSpaceOnUse"><stop offset="0" stop-color="#fff" stop-opacity=".9"/><stop offset=".37" stop-color="#fff" stop-opacity=".55"/><stop offset=".81" stop-color="#fff" stop-opacity=".16"/><stop offset="1" stop-color="#fff" stop-opacity="0"/></radialGradient></defs><g data-name="USAR Logo Digital"><path d="M263.6 597.47a26.32 26.32 0 01-2.9-.15c-20.48-2.19-177.6-63.69-228.48-249.4C2 237.63 45.74 97.09 47.61 91.16l2.14-6.74 5.91-3.88c4.8-3.14 119.86-77 331.53-77h9c216.7 2.1 346.58 79.41 352 82.7l11.18 6.78-1.8 12.95c-3.75 27.28-16.12 145.55-158.75 311.5-127.18 147.82-307.58 180-335.22 180zM83.43 110.27c-8.15 29-36.4 141.37-12.89 227.19 45 164.28 180.67 215.46 194.69 220.24 30.31-2 190.21-36.72 304-166.84 104.26-112.77 137.87-236.8 146.46-277-14-7.14-40-19.23-76.31-31.32-52-17.31-136.47-38.16-243.58-39.2-108.26-1.1-189.92 18.68-238.93 35.2-37.85 12.79-62.72 25.67-73.44 31.73z" fill="#002b54"/><path d="M381.78 658a26.32 26.32 0 01-2.9-.15c-20.48-2.19-177.6-63.69-228.48-249.4-30.22-110.29 13.52-250.83 15.39-256.76l2.14-6.74 5.91-3.88c4.8-3.14 119.86-77 331.53-77h9c216.7 2.1 346.58 79.41 352 82.7l11.18 6.78-1.8 12.95C872 193.78 859.63 312.05 717 478 589.82 625.82 409.42 658 381.78 658zM201.61 170.8c-8.15 29-36.4 141.37-12.89 227.19 45 164.28 180.67 215.46 194.69 220.24 30.31-2 190.21-36.72 304-166.84 104.26-112.77 137.87-236.8 146.46-277-14-7.14-40-19.23-76.31-31.32-52-17.31-136.47-38.16-243.58-39.2-108.26-1.1-189.92 18.68-238.93 35.2-37.85 12.79-62.72 25.67-73.44 31.73z" transform="translate(-118.18 -60.53)" fill="url(#c)"/><path d="M381.78 659.84a27 27 0 01-3.11-.17c-20.7-2.21-178.86-64-230-250.71-30.33-110.69 13.53-251.82 15.41-257.77l2.33-7.36 6.45-4.22c4.81-3.16 120.34-77.28 332.51-77.28h9c217.08 2.11 347.47 79.67 352.92 83l12.18 7.39-2 14.12-.37 2.65c-2.14 15.84-7.16 52.95-29 106.26-27.23 66.44-70.91 134.87-129.82 203.37-67.48 78.47-149.05 122.7-205.59 146-69.97 28.88-121.06 34.72-130.91 34.72zM203.14 172c-9.08 32.59-35.7 141.52-12.68 225.51 18.76 68.49 55.22 125.36 108.37 169 41.43 34 79.17 47.92 84.82 49.88 33.86-2.37 191-38.85 302.42-166.2a612.09 612.09 0 00108.82-165.25c22-48.9 32.49-89.13 36.94-109.55-15.33-7.75-40.45-19.15-74.82-30.59-51.88-17.27-136.16-38.07-243-39.1h-8.6c-103.68 0-182.16 19.12-229.74 35.15-36.6 12.28-60.93 24.65-72.53 31.15z" transform="translate(-118.18 -60.53)" fill="url(#d)"/><path d="M387.19 3.59h9c216.7 2.1 346.58 79.41 352 82.7l11.18 6.78-1.8 12.95c-3.75 27.23-16.12 145.5-158.75 311.45-127.18 147.82-307.58 180-335.22 180a26.32 26.32 0 01-2.9-.15c-20.48-2.19-177.6-63.69-228.48-249.4C2 237.63 45.74 97.09 47.61 91.16l2.14-6.74 5.91-3.88c4.8-3.14 119.86-77 331.53-77m-122 554.11c30.31-2 190.21-36.72 304-166.84 104.26-112.77 137.87-236.8 146.46-277-14-7.14-40-19.23-76.31-31.32-52-17.31-136.47-38.16-243.58-39.2h-8.62c-104 0-182.61 19.16-230.31 35.24-37.86 12.76-62.73 25.64-73.45 31.7-8.15 29-36.4 141.37-12.89 227.19 45 164.28 180.67 215.46 194.69 220.24m122-557.7c-212.7 0-328.67 74.41-333.5 77.57l-5.86 3.94-1.07.7-.39 1.22-2.13 6.74c-1.89 6-45.91 147.6-15.43 258.8a383.38 383.38 0 0054.79 118.11 372.9 372.9 0 0072 77.26c49.6 40 94.11 55.52 104.71 56.65a27.53 27.53 0 003.29.18c15.33 0 67.67-8.52 131.64-34.87a577.42 577.42 0 00103.43-55.31A518.2 518.2 0 00601.5 419.8c59-68.66 102.82-137.25 130.13-203.86 21.94-53.54 27-90.8 29.14-106.71l.36-2.65 1.8-12.94.32-2.35-2-1.22-11.17-6.78C744.61 79.96 613.82 2.16 396.24.04h-9zM86.49 112.67c11.79-6.56 35.79-18.64 71.54-30.69 47.45-16 125.72-35.06 229.16-35.06h8.58c106.65 1 190.73 21.78 242.49 39 33.36 11.1 58 22.16 73.34 29.86-4.6 20.74-15.12 60.15-36.53 107.83A610.12 610.12 0 01566.6 388.47a483.9 483.9 0 01-90.58 80.08 547.8 547.8 0 01-91.46 50.46c-53.15 23.1-100.61 33.65-118.79 35-6.64-2.34-43.49-16.23-83.92-49.45a321.89 321.89 0 01-60.91-66.09 335.44 335.44 0 01-46.93-102c-9.89-36.11-11.68-81-5.33-133.5a644.94 644.94 0 0117.81-90.34z" fill="#fff"/><g fill="#fff"><path d="M262.65 579.86c-1.52-.16-162.38-50.16-213.45-236.56C20.34 237.98 63.96 97.92 64.4 96.47l.24-.76.68-.44c1.13-.75 115.41-74.11 321.87-74.11h8.83c211.91 2.06 341.77 79.37 343 80.15l1.27.78-.21 1.47c-.16 1.67-23.57 160.61-154.26 301.91-124.11 141.9-300 174.42-322.26 174.42.04.01-.67 0-.91-.03z"/><path d="M387.19 23.47H396c213.74 2.08 341.9 79.83 341.9 79.83s-22 158.19-153.7 300.61c-127.84 146.16-305.26 173.7-320.6 173.7h-.7c-9.34-1-162.61-56.4-211.52-234.91-29-105.9 15.18-245.52 15.18-245.52s112.46-73.71 320.63-73.71m0-4.52c-207.13 0-322 73.73-323.11 74.47l-1.35.89-.48 1.53c-.45 1.41-44.26 142.11-15.23 248.07 25.8 94.23 80.67 153.35 122.14 186.36 44.92 35.74 86.65 51.12 93.26 51.84a11.61 11.61 0 001.18.05c22.39 0 199.31-32.67 324-175.24 131-141.73 154.55-301.37 154.78-303l.4-2.94-2.54-1.51c-1.29-.78-131.67-78.41-344.2-80.48h-8.85z"/></g><path d="M442.5 569.85h2.76l3.07-9.54h3.42l.71-2.22h-9.64l-.76 2.22h3.47z" fill="#002b54"/><path d="M445.26 572.47h-2.76a2.68 2.68 0 01-2.54-3.48l1.93-6.07a2.65 2.65 0 01-2-1.1 2.69 2.69 0 01-.36-2.41l.75-2.22a2.66 2.66 0 012.54-1.72h9.64a2.66 2.66 0 012.54 3.47l-.71 2.22a2.67 2.67 0 01-2.54 1.85h-1.48l-2.45 7.65a2.67 2.67 0 01-2.56 1.81z" fill="#fff"/><path d="M461.43 569.85l1.33-4.85c.36-1.28.8-2.88 1.37-4.56h-.11c-.81 1.47-1.83 3.12-2.67 4.4l-3.18 4.83h-2.23l.13-4.77c0-1.29 0-2.92.18-4.46-.51 1.54-1.11 3.28-1.56 4.56l-1.8 4.85h-2.56l4.49-11.76h3.75l-.13 4.48c0 1.1 0 2.43-.14 3.74h.09a33.24 33.24 0 012.15-3.74l2.89-4.48h3.77l-3 11.76z" fill="#002b54"/><path d="M464.14 572.47h-2.71a2.66 2.66 0 01-1.74-.65 2.63 2.63 0 01-1.52.47h-2.23a2.68 2.68 0 00-3.1.18h-2.56a2.67 2.67 0 01-2.48-3.63l4.52-11.76a2.67 2.67 0 012.5-1.61h3.75a2.7 2.7 0 011.91.79 2.81 2.81 0 01.5.75l.21-.33a2.67 2.67 0 012.23-1.21h3.77a2.64 2.64 0 012.1 1 2.68 2.68 0 01.47 2.3l-3 11.76a2.67 2.67 0 01-2.62 1.94z" fill="#fff"/><path d="M442.5 569.85h2.76l3.07-9.54h3.42l.71-2.22h-9.64l-.76 2.22h3.47zm18.93 0l1.33-4.85c.36-1.28.8-2.88 1.37-4.56h-.11c-.81 1.47-1.83 3.12-2.67 4.4l-3.18 4.83h-2.23l.13-4.77c0-1.29 0-2.92.18-4.46-.51 1.54-1.11 3.28-1.56 4.56l-1.8 4.85h-2.56l4.49-11.76h3.75l-.13 4.48c0 1.1 0 2.43-.14 3.74h.09a33.24 33.24 0 012.15-3.74l2.89-4.48h3.77l-3 11.76z" fill="#002b54"/><path fill="url(#a)" d="M456.62 105.59l94.83 32.8-57.98 6.29 9.22-14.66-46.07-24.43z"/><path d="M642.67 85.01c-28.45-11.02-40.85-18.73-91.85-29.94-116.21-25.6-216.91-19-216.91-19s79.78.05 132.54 16.41c78.63 24.41 106.76 61.14 106.76 61.14l-.59 23s11.67 7.21 20.62 25.37c14.16 28.74-7.5 66.68-7.5 66.68s-85.77-92.43-220.46-23.47l26.47-47.34-91.93-15.23 83.29-30.95L297.34 88l96.86-25.21s-54.2-14.25-131.12-2.2C133.46 80.88 149.97 166.27 149.25 166.32a201 201 0 0024.31 72.08c-12.8-29.61-12.64-59.75 2.6-75.28 23.54-8.37 84.26 20.29 126.34 56.9 53.76 46.88 58 90.78 58.26 112.4-33.66 6-96.54-13.41-132.83-33.14a222.58 222.58 0 0047.35 26.19c174.92 71.27 357.88-24.34 357.88-24.34s.92-.86 2.43-2.42c-19.9 2.9-70.19 5.16-88.78-2.38 0 0 86-21.55 126.88-64.61-30 9.43-72 3.9-72 3.9s101.3-29.85 106.25-86.31c2.88-33.49-45.47-56.66-65.27-64.3zm-258.53 231c-.94 7.9-7.42 13.15-12 13.46-4.6-34.41-5.53-65.67-56.41-112.68-39.45-36.39-84.71-57.06-118-61.16 35.23-11.73 105.85 21.55 135.78 47.27 56.8 48.87 54.5 99.84 50.63 113.15z" fill="#002b54"/><g style="mix-blend-mode:screen" opacity=".5"><path d="M365.28 205.22c134.69-69 220.46 23.47 220.46 23.47s21.66-37.94 7.5-66.68c-8.95-18.16-20.62-25.37-20.62-25.37l.59-23s-10.18-13.16-35.09-29c-64.46 16.34-124.5 39.34-178.48 67.88l32.11 5.33zm-167.52-49.55c26 3.21 59.3 16.58 91.44 39.61q8.33-5.77 16.89-11.36c-34.27-20.04-81.52-37.18-108.33-28.25z" fill="none"/><path d="M315.72 216.83c50.88 47 51.81 78.27 56.41 112.68 4.59-.31 11.07-5.56 12-13.46 3.87-13.31 6.17-64.28-50.6-113.11a190.44 190.44 0 00-27.45-19q-8.58 5.56-16.89 11.36a277.2 277.2 0 0126.53 21.53z" fill="none"/><path d="M197.76 155.67c26.81-8.93 74.06 8.21 108.33 28.25q25.64-16.63 53.55-31.37l-59.82-9.92 83.29-30.95L297.34 88l96.86-25.21s-54.2-14.25-131.12-2.2C133.46 80.88 149.97 166.27 149.25 166.32a201 201 0 0024.31 72.08c-12.8-29.61-12.64-59.75 2.6-75.28 19.52-6.94 64.55 11.6 103.37 39q4.79-3.45 9.67-6.83c-32.14-23.04-65.46-36.41-91.44-39.62z" fill="#002b54"/><path d="M669 115.6c-116.21-25.6-216.91-19-216.91-19s79.78.05 132.54 16.41c31.6 9.81 54.93 21.59 71.67 32.19q33.06-8.37 67.61-14.37c-13.12-4.77-29.05-9.55-54.91-15.23z" transform="translate(-118.18 -60.53)" fill="url(#e)"/></g><g fill="#c41230"><path d="M129.16 84c-20.73 46.41-42.86 164.31 16.08 255.41a470.7 470.7 0 0133.58-44.88C105.91 207.47 129.16 84 129.16 84z"/><path d="M85.82 120.88s-71.39 175 16.9 302.19a402.67 402.67 0 0128-60c-73.9-106.44-44.9-242.19-44.9-242.19z"/></g><path d="M315.72 216.83c50.88 47 51.81 78.27 56.41 112.68 4.59-.31 11.07-5.56 12-13.46 3.87-13.31 6.17-64.28-50.6-113.11a190.44 190.44 0 00-27.45-19q-8.58 5.56-16.89 11.36a277.2 277.2 0 0126.53 21.53z" fill="none"/><path d="M197.76 155.67c26 3.21 59.3 16.58 91.44 39.61q8.33-5.77 16.89-11.36c-34.27-20.04-81.52-37.18-108.33-28.25zm167.52 49.55c134.69-69 220.46 23.47 220.46 23.47s21.66-37.94 7.5-66.68c-8.95-18.16-20.62-25.37-20.62-25.37l.59-23s-10.18-13.16-35.09-29c-64.46 16.34-124.5 39.34-178.48 67.88l32.11 5.33z" fill="none"/><path d="M760.85 145.54c-14-5.44-24.17-10.06-36.94-14.71q-34.51 6-67.61 14.37c24.91 15.79 35.09 29 35.09 29l-.59 23s11.67 7.21 20.62 25.37c14.16 28.74-7.5 66.68-7.5 66.68s-85.77-92.43-220.46-23.47l26.47-47.34-32.11-5.33q-27.82 14.7-53.55 31.34a190.44 190.44 0 0127.45 19c56.77 48.83 54.47 99.8 50.6 113.11-.94 7.9-7.42 13.15-12 13.46-4.6-34.41-5.53-65.67-56.41-112.68a277.2 277.2 0 00-26.52-21.55q-4.87 3.39-9.67 6.83a289 289 0 0123 17.91c53.76 46.88 58 90.78 58.26 112.4-33.66 6-96.54-13.41-132.83-33.14A222.58 222.58 0 00393.46 386c174.92 71.27 357.88-24.34 357.88-24.34s.92-.86 2.43-2.42c-19.9 2.9-70.19 5.16-88.78-2.38 0 0 86-21.55 126.88-64.61-30 9.43-72 3.9-72 3.9s101.3-29.85 106.25-86.31c2.88-33.49-45.47-56.66-65.27-64.3z" transform="translate(-118.18 -60.53)" fill="url(#f)"/><path d="M142.6 700h26.54l-20.26 78.61c-1.33 5-.78 9.33 6.78 9.33 7 0 10.49-5.56 11.63-10L187.42 700H214l-19.48 75.42c-4.58 17.65-16.67 31.24-43.85 31.24-22.47 0-33-9.84-27.56-31.24zm87.73 69.34l-1.89 7.32c-1.56 6-.81 11.28 7.66 11.28 6.16 0 10.23-5.17 11.57-10.42 2.28-8.76-4.72-12.11-10.67-16-7-4.31-12.94-8.33-16.56-13.62-3.46-5.29-4.64-11.66-2.33-20.84 5.08-19.58 20.52-29.55 41-29.55 23.14 0 31.24 14.17 25 33.73h-24.49c1.29-6.11 3.75-14.46-4.87-15a10.32 10.32 0 00-11 6.95c-2.37 6.24.26 9.42 4.68 12.77 8.46 5.8 16.13 9.42 21 14.74s6.64 12.19 3.39 24.83c-5.18 20-20.09 31.09-42.15 31.09-24.3 0-31.33-12.46-27.76-26.21l2.86-11.11zm40.6 34.83L322.56 700h32l-2.27 104.17H325.4l1.46-20.29h-20.81l-8.44 20.29zm62.77-85.27h-.3l-19.75 46.65H329zM142.6 700h26.54l-20.26 78.61c-1.33 5-.78 9.33 6.78 9.33 7 0 10.49-5.56 11.63-10L187.42 700H214l-19.48 75.42c-4.58 17.65-16.67 31.24-43.85 31.24-22.47 0-33-9.84-27.56-31.24zm87.73 69.34l-1.89 7.32c-1.56 6-.81 11.28 7.66 11.28 6.16 0 10.23-5.17 11.57-10.42 2.28-8.76-4.72-12.11-10.67-16-7-4.31-12.94-8.33-16.56-13.62-3.46-5.29-4.64-11.66-2.33-20.84 5.08-19.58 20.52-29.55 41-29.55 23.14 0 31.24 14.17 25 33.73h-24.49c1.29-6.11 3.75-14.46-4.87-15a10.32 10.32 0 00-11 6.95c-2.37 6.24.26 9.42 4.68 12.77 8.46 5.8 16.13 9.42 21 14.74s6.64 12.19 3.39 24.83c-5.18 20-20.09 31.09-42.15 31.09-24.3 0-31.33-12.46-27.76-26.21l2.86-11.11zm40.6 34.83L322.56 700h32l-2.27 104.17H325.4l1.46-20.29h-20.81l-8.44 20.29zm62.77-85.27h-.3l-19.75 46.65H329z" transform="translate(-118.18 -60.53)" fill="url(#g)"/><path d="M112.47 749.67c-10.44 0-18.55-2.19-24.12-6.5a20.43 20.43 0 01-8-16.75 29.85 29.85 0 011-7.33l3.47-13.74h27.3l4.34.19-.95 4.18-1.89 7.33a14.6 14.6 0 00-.54 3.56c0 1.57 0 3.34 4.81 3.34 4.27 0 7.19-3.91 8.18-7.78a9.54 9.54 0 00.33-2.35c0-3.63-3-5.68-7.77-8.72-.59-.37-1.17-.73-1.74-1.11-6.57-4-13.4-8.5-17.55-14.58a24.74 24.74 0 01-4.13-14.07 38.85 38.85 0 011.3-9.59c5.3-20.47 21.48-32.2 44.38-32.2 9.66 0 17.25 2.3 22.58 6.83s7.94 10.83 7.94 18.53h-7c0-5.67-1.84-10.11-5.48-13.2-4-3.42-10.09-5.16-18-5.16-19.74 0-33.1 9.57-37.6 26.93a32.47 32.47 0 00-1.08 7.86 17.66 17.66 0 003 10.18c3 4.42 8 8 15.46 12.55l1.74 1.11c4.92 3.1 11 7 11 14.63a16.36 16.36 0 01-.56 4.11c-1.65 6.48-6.92 13-15 13-10.66 0-11.81-7.23-11.81-10.33a20.94 20.94 0 01.77-5.33l.76-2.94H90.28l-2.18 8.49a22.55 22.55 0 00-.77 5.59 13.48 13.48 0 005.31 11.21c4.25 3.29 11.11 5 19.83 5 20.53 0 33.94-9.85 38.76-28.47a41.74 41.74 0 001.53-10.32 15.55 15.55 0 00-4.11-11.27c-2.94-3.22-7.25-5.89-12.25-9-2.6-1.61-5.29-3.28-8.13-5.22l-.13-.1c-3.62-2.74-7-6-7-11.27a15.3 15.3 0 011.12-5.52 13.79 13.79 0 0113.22-9.25c.43 0 .87 0 1.32.05 6 .37 9.44 4 9.44 10.08a27.3 27.3 0 01-.53 4.9h17.52a33.15 33.15 0 001.17-8.37h7a42.62 42.62 0 01-2.21 12.94l-.78 2.43h-27l-4.12-.07.69-4.15.28-1.29a32.26 32.26 0 001-6.39c0-2.22-.41-2.94-2.93-3.09h-.83a6.82 6.82 0 00-6.69 4.75 8.8 8.8 0 00-.65 3c0 1.85 1.08 3.34 4.12 5.65 2.68 1.84 5.28 3.44 7.79 5 5.44 3.37 10.14 6.29 13.73 10.22 4.05 4.44 5.94 9.52 5.94 16a48.54 48.54 0 01-1.75 12.07c-5.61 21.78-21.79 33.75-45.52 33.75zm-80 0c-26.85 0-32.49-13.36-32.49-24.57a44.92 44.92 0 011.54-11l20.17-78.05h29.25l4.19.2-.8 4.18-20.27 78.6a11.75 11.75 0 00-.45 2.85c0 1 0 2.11 3.85 2.11 5.89 0 7.79-5.64 8.24-7.37l20.81-80.57h29.31l4.33.2-.94 4.18-19.49 75.37c-5.82 22.47-21.71 33.87-47.23 33.87zM6.98 725.1c0 4.34 0 17.57 25.49 17.57 22.24 0 35.47-9.36 40.46-28.62l18.35-71H71.95L52.5 718.36c-2.4 9.32-9.59 12.63-15 12.63-9.79 0-10.85-6.37-10.85-9.11a18.11 18.11 0 01.68-4.62l19.13-74.21H27.13L8.32 715.8A37.72 37.72 0 007 725.1zm230.53 22.08h-30.29l-3.73-.14.23-3.61 1.19-16.54h-14.7l-8.45 20.29H147.5l2.12-5.08 52.6-106.12h37.66v3.55zm-26.55-7h19.7l2.16-97.17h-26.27l-48.16 97.17h18.71l8.44-20.29h23.14v3.5l3.49.25zm3-31.62h-18.49v-3.5l-3.23-1.36 20.66-48.79h2.62v3.5l3.48.35zm-13.27-7h6.94l2.19-21.44z" fill="#fff"/><path d="M142.6 700h26.54l-20.26 78.61c-1.33 5-.78 9.33 6.78 9.33 7 0 10.48-5.56 11.63-10L187.42 700H214l-19.48 75.42c-4.58 17.65-16.67 31.24-43.85 31.24-22.47 0-33-9.84-27.56-31.24zm87.73 69.34l-1.89 7.32c-1.56 6-.81 11.28 7.66 11.28 6.17 0 10.23-5.17 11.57-10.42 2.28-8.76-4.73-12.11-10.67-16-7-4.31-12.94-8.33-16.56-13.62-3.46-5.29-4.64-11.66-2.33-20.84 5.08-19.58 20.52-29.55 41-29.55 23.14 0 31.24 14.17 25 33.73h-24.49c1.29-6.11 3.75-14.46-4.87-15a10.32 10.32 0 00-11 6.95c-2.37 6.24.26 9.42 4.68 12.77 8.46 5.8 16.13 9.42 21 14.74s6.64 12.19 3.39 24.83c-5.18 20-20.09 31.09-42.16 31.09-24.29 0-31.32-12.46-27.76-26.21l2.87-11.11zm40.6 34.83L322.56 700h32l-2.27 104.17H325.4l1.46-20.29h-20.8l-8.45 20.29zm62.77-85.27h-.3l-19.75 46.65H329zM142.6 700h26.54l-20.26 78.61c-1.33 5-.78 9.33 6.78 9.33 7 0 10.48-5.56 11.63-10L187.42 700H214l-19.48 75.42c-4.58 17.65-16.67 31.24-43.85 31.24-22.47 0-33-9.84-27.56-31.24zm87.73 69.34l-1.89 7.32c-1.56 6-.81 11.28 7.66 11.28 6.17 0 10.23-5.17 11.57-10.42 2.28-8.76-4.73-12.11-10.67-16-7-4.31-12.94-8.33-16.56-13.62-3.46-5.29-4.64-11.66-2.33-20.84 5.08-19.58 20.52-29.55 41-29.55 23.14 0 31.24 14.17 25 33.73h-24.49c1.29-6.11 3.75-14.46-4.87-15a10.32 10.32 0 00-11 6.95c-2.37 6.24.26 9.42 4.68 12.77 8.46 5.8 16.13 9.42 21 14.74s6.64 12.19 3.39 24.83c-5.18 20-20.09 31.09-42.16 31.09-24.29 0-31.32-12.46-27.76-26.21l2.87-11.11zm40.6 34.83L322.56 700h32l-2.27 104.17H325.4l1.46-20.29h-20.8l-8.45 20.29zm62.77-85.27h-.3l-19.75 46.65H329z" transform="translate(-118.18 -60.53)" fill="url(#h)"/><path d="M395.51 804.21H369L395.86 700h38.76c21.73 0 30.51 8.06 25.25 28.75-2.92 11.13-7.84 19.07-20.25 23.78v.28c7 1.5 11 6.22 9.63 13.44-1.43 8.35-5.88 26.26-6.1 32.92a6.4 6.4 0 001.65 3.6l-.37 1.4h-29a20.18 20.18 0 010-6c1.92-9.14 4.75-17.76 5.65-24.15s-.13-10.55-6.2-11h-8.77zM411 744.39h9c7.71 0 11.22-6.53 12.82-12.9 3.24-12.4-2.21-13-15.26-12.68zM479 700h26.6l-20.34 78.61c-1.27 5-.72 9.33 6.83 9.33 6.92 0 10.44-5.56 11.62-10l20.1-77.94h26.58l-19.45 75.42c-4.56 17.65-16.71 31.24-43.8 31.24-22.54 0-33.12-9.84-27.6-31.24zm110.83 104.37L591 795h-.28c-7.74 8.91-14.47 11.67-26 11.67-22.48 0-26-14.29-21.16-33.19l11.06-42.75c5.88-22.66 19.86-33.18 44.18-33.18 22.64 0 33.75 8.88 28.31 30.12l-2 7.79h-26.52l1.47-5.71c2.31-8.89 2.24-13.33-4.85-13.46-8.24-.16-11.31 4-13 10.81l-13.32 51.52c-1.52 5.86.49 9.33 7.41 9.33 9 0 11.07-6.69 12.8-13.34l2.08-8.19h-9.48l4.81-18.78h36.1L608 804.37zm30.69-.16L647.41 700h34.43c20 0 34.21 6 28.8 27a31.94 31.94 0 01-18.49 22l-.06.26c10.43 6.39 11.53 11.92 8.18 24.88-5.42 21.07-20.72 30.11-42.3 30.11zm31.41-18.75c13.33-.29 18.7.53 22.34-13.45 3.11-12.12-4.5-11.81-15.7-12.22zM663.41 741c11.78-.69 17 0 20.21-12.38 2.64-10.25-5.11-9.85-14.51-9.85zm88-6.94h.32L774.1 700h26.57l-42.92 60.44-11.25 43.77h-26.6l11.29-43.73L720.08 700H747zm-355.9 70.15H369L395.86 700h38.76c21.73 0 30.51 8.06 25.25 28.75-2.92 11.13-7.84 19.07-20.25 23.78v.28c7 1.5 11 6.22 9.63 13.44-1.43 8.35-5.88 26.26-6.1 32.92a6.4 6.4 0 001.65 3.6l-.37 1.4h-29a20.18 20.18 0 010-6c1.92-9.14 4.75-17.76 5.65-24.15s-.13-10.55-6.2-11h-8.77zM411 744.39h9c7.71 0 11.22-6.53 12.82-12.9 3.24-12.4-2.21-13-15.26-12.68zM479 700h26.6l-20.34 78.61c-1.27 5-.72 9.33 6.83 9.33 6.92 0 10.44-5.56 11.62-10l20.1-77.94h26.58l-19.45 75.42c-4.56 17.65-16.71 31.24-43.8 31.24-22.54 0-33.12-9.84-27.6-31.24zm110.83 104.37L591 795h-.28c-7.74 8.91-14.47 11.67-26 11.67-22.48 0-26-14.29-21.16-33.19l11.06-42.75c5.88-22.66 19.86-33.18 44.18-33.18 22.64 0 33.75 8.88 28.31 30.12l-2 7.79h-26.52l1.47-5.71c2.31-8.89 2.24-13.33-4.85-13.46-8.24-.16-11.31 4-13 10.81l-13.32 51.52c-1.52 5.86.49 9.33 7.41 9.33 9 0 11.07-6.69 12.8-13.34l2.08-8.19h-9.48l4.81-18.78h36.1L608 804.37zm30.69-.16L647.41 700h34.43c20 0 34.21 6 28.8 27a31.94 31.94 0 01-18.49 22l-.06.26c10.43 6.39 11.53 11.92 8.18 24.88-5.42 21.07-20.72 30.11-42.3 30.11zm31.41-18.75c13.33-.29 18.7.53 22.34-13.45 3.11-12.12-4.5-11.81-15.7-12.22zM663.41 741c11.78-.69 17 0 20.21-12.38 2.64-10.25-5.11-9.85-14.51-9.85zm88-6.94h.32L774.1 700h26.57l-42.92 60.44-11.25 43.77h-26.6l11.29-43.73L720.08 700H747z" transform="translate(-118.18 -60.53)" fill="url(#i)"/><path d="M446.6 749.67c-9 0-15.79-2.19-20.28-6.49-4.18-4-6.3-9.74-6.29-17a57.16 57.16 0 012-14l11.06-42.76c3.17-12.24 8.56-21.07 16.46-27s18-8.79 31.11-8.79c10.46 0 18.25 1.78 23.82 5.43 6.23 3.99 9.34 10.21 9.34 18.41h-7c0-5.77-2-9.9-6.2-12.64-4.33-2.84-11.06-4.28-20-4.28-22.73 0-35.31 9.43-40.79 30.55l-11.01 42.76a50.35 50.35 0 00-1.79 12.28c0 5.4 1.35 9.32 4.13 12 3.15 3 8.34 4.55 15.44 4.55 10.78 0 16.45-2.54 23.33-10.46l1-1.21h1.89v3.45l3.48.45-.7 5.39h11.45l12.83-49.7h-28.83l-3 11.78H473v3.5l3.39.86-2.08 8.2c-1.56 6-4.15 16-16.19 16-10.27 0-11.39-6.65-11.39-9.51a16.82 16.82 0 01.59-4.19l13.32-51.52c3-12 10.56-13.43 16-13.43h.53c8.38.15 9.63 5.75 9.63 9.09h-7c0-1.52 0-2-2.76-2.08h-.4c-5.38 0-7.6 2-9.16 8.17l-13.33 51.53a9.72 9.72 0 00-.37 2.45c0 1.12 0 2.51 4.39 2.51 6 0 7.52-3.43 9.41-10.72l1-3.81h-5l-4.37-.21 1-4.16 5.49-21.41h38.81l4.22.23-.83 4.15-15.32 59.32h-20.93l-3.5-.13.16-3.8c-5.98 4.5-12.49 6.24-21.71 6.24zm-77.64 0c-10.13 0-18-2-23.5-5.78-6-4.21-9-10.52-9-18.77a44.78 44.78 0 011.55-11.07l20.12-78h33.69l-1 4.35-20.34 78.6a11.72 11.72 0 00-.42 2.78c0 1.12 0 2.18 3.86 2.18 5.82 0 7.78-5.66 8.23-7.4l20.78-80.54h33.73l-1.06 4.35-19.44 75.41c-5.81 22.49-21.68 33.89-47.2 33.89zm-25.54-24.54c0 5.9 2 10.17 6.06 13 4.26 3 10.81 4.51 19.48 4.51 22.23 0 35.44-9.36 40.41-28.62l18.32-71h-19.34l-19.43 75.3c-1.62 6.12-6.41 12.63-15 12.63-9.8 0-10.86-6.42-10.86-9.18a18.42 18.42 0 01.64-4.51l19.21-74.25h-19.39l-18.77 72.79a38 38 0 00-1.33 9.33zm287.61 22.05h-34.04l1.35-4.4 11.09-43-11-59.67-1.14-3.94 4.58-.2h30l3.7 28.16 18.47-28.16H689l-3.64 5.5-42.54 60zm-24.79-7h19.36l10.74-41.71 39.37-55.44h-17.89l-22.35 34.04h-5.28l-4.47-34.06H606.1l10.35 56.31-3.44.63 3.39.88zm-66.45 7h-41.8l1-4.4 27.57-106.8h37.14c10 0 17.57 1.44 23.06 4.41 6.81 3.67 10.4 9.83 10.4 17.82h-7c0-5.48-2.14-9.19-6.72-11.66-4.38-2.37-11-3.57-19.74-3.57h-31.76l-25.12 97.2h33c21.43 0 34.16-9 38.91-27.48a39.62 39.62 0 001.58-9.57c0-4.17-1.31-7.24-8.2-11.46l1.83-3-3.42-.78.45-2 1.61-.72a28.56 28.56 0 0016.52-19.62 29.68 29.68 0 001-7.36h7a37 37 0 01-1.27 9.11 35.3 35.3 0 01-15.47 21.63c4.84 4 6.9 8.38 6.9 14.15a46 46 0 01-1.8 11.32c-5.49 21.46-21.29 32.78-45.64 32.78zm-210.85 0h-34.76l-.39-3.06a25.56 25.56 0 01-.24-3.57 21 21 0 01.27-3.41V737c.85-4.07 1.86-7.95 2.83-11.7a120.61 120.61 0 002.78-12.22 23 23 0 00.24-3.06h7a29.4 29.4 0 01-.31 4 126 126 0 01-2.93 13c-.95 3.65-1.93 7.42-2.75 11.3a13.39 13.39 0 00-.16 1.82h21.14c-.07-.29-.13-.59-.19-.9l3.45-.6-3.5-.12c.16-4.62 2-13.49 3.86-22.06.92-4.35 1.8-8.46 2.29-11.33a11.24 11.24 0 00.23-2.18c0-4.72-3.88-6.55-7.14-7.24l.73-3.43-3.49-.28.2-2.49 2.07-.78c11.51-4.37 15.56-11.71 18.11-21.4a40.2 40.2 0 001.37-9.49h7a46.26 46.26 0 01-1.6 11.24c-2.13 8.11-5.72 16.9-15.65 22.93a13.23 13.23 0 015.4 10.95 17.91 17.91 0 01-.35 3.43c-.5 2.92-1.38 7.1-2.32 11.52-1.63 7.66-3.46 16.3-3.7 20.47a2.87 2.87 0 00.61 1.39l1.25 1.4-.34 2zm-48.9 0h-33.85l1.25-4.4 27.57-106.8h41.47c9.79 0 16.95 1.59 21.91 4.87 5.52 3.64 8.32 9.35 8.33 17h-7c0-5.28-1.65-8.83-5.19-11.16-3.72-2.46-9.79-3.71-18.05-3.71h-36.09l-25.09 97.17h19.32l10.62-41.1h11.74c3.63.26 9.73 2 9.72 10.93h-7c0-3.12-.78-3.75-3.12-3.94h-5.92zm253.78-18.71l-.08-3.5-3.39-.87 7.35-28.4 4.27.15c8.58.3 18.31.63 18.31 10.93h-7c0-2.7-1-3.51-10.21-3.89l-4.79 18.49c9.6-.22 11.85-.92 14.42-10.76a15.9 15.9 0 00.58-3.84h7a22.9 22.9 0 01-.8 5.61c-4.1 15.7-11.74 15.83-23.29 16zm-232-41.11h-9v-3.5l-3.39-.87 7.24-28.15 2.65-.06h3.86c3.86 0 7.83.19 10.75 1.58 3.41 1.62 5.14 4.59 5.14 8.83a26.9 26.9 0 01-1 6.7c-1.48 5.73-5.53 15.47-16.25 15.47zm-4.5-7h4.5c1.69 0 6.84 0 9.43-10.26a21 21 0 00.8-5c0-2-.58-2.24-1.14-2.51-1.69-.8-5-.9-7.75-.9h-1.05zm248.09 3.65l-.2-3.5-3.39-.86 6.37-24.87h4.73c6.58 0 16.52 0 16.52 9.75h-7c0-1.72-.42-2.71-8.82-2.76l-3.84 15c8-.47 10.13-1.25 12.25-9.5a10.94 10.94 0 00.41-2.72h7a17.62 17.62 0 01-.63 4.45c-3.58 14-10.86 14.35-20.93 14.87zm-35.73-5.54h-29.27l-4.59-.1 1.2-4.28 1.47-5.71a31.93 31.93 0 001.24-7h7a34.93 34.93 0 01-1.46 8.74l-.34 1.33h19.33l1.35-5.17a36.07 36.07 0 001.21-8.81h7a42.84 42.84 0 01-1.48 10.56z" fill="#fff"/><path d="M395.43 804.21h-26.55L395.78 700h38.75c21.74 0 30.52 8.06 25.26 28.75-2.92 11.13-7.84 19.07-20.25 23.78v.28c7 1.5 11.06 6.22 9.63 13.44-1.42 8.35-5.87 26.26-6.09 32.92a6.39 6.39 0 001.64 3.6l-.36 1.4h-29a20.18 20.18 0 010-6c1.92-9.14 4.74-17.76 5.65-24.15s-.13-10.55-6.2-11h-8.77zm15.49-59.82h9c7.71 0 11.22-6.53 12.82-12.9 3.24-12.4-2.22-13-15.26-12.68zm68-44.35h26.62l-20.34 78.61c-1.27 5-.72 9.33 6.83 9.33 6.92 0 10.44-5.56 11.62-10L523.73 700h26.57l-19.44 75.42c-4.56 17.65-16.71 31.24-43.8 31.24-22.54 0-33.12-9.84-27.6-31.24zm110.83 104.33L591 795h-.28c-7.75 8.91-14.47 11.67-26 11.67-22.49 0-26-14.29-21.17-33.19l11.07-42.75c5.87-22.66 19.86-33.18 44.18-33.18 22.64 0 33.75 8.88 28.31 30.12l-2 7.79h-26.6l1.47-5.71c2.31-8.89 2.24-13.33-4.85-13.46-8.24-.16-11.31 4-13 10.81l-13.33 51.52c-1.51 5.86.5 9.33 7.42 9.33 9 0 11.07-6.69 12.8-13.34l2.08-8.19h-9.46l4.81-18.78h36.09l-14.63 56.7zm30.69-.16L647.33 700h34.43c20 0 34.21 6 28.8 27a32 32 0 01-18.5 22l-.06.26c10.43 6.39 11.54 11.92 8.19 24.88-5.42 21.07-20.72 30.11-42.3 30.11zm31.41-18.75c13.32-.29 18.69.53 22.34-13.45 3.11-12.12-4.51-11.81-15.7-12.22zM663.33 741c11.78-.69 17 0 20.21-12.38 2.64-10.25-5.11-9.85-14.52-9.85zm88-6.94h.32L774 700h26.57l-42.92 60.44-11.25 43.73h-26.6l11.29-43.73L720 700h26.89zm-355.9 70.15h-26.55L395.78 700h38.75c21.74 0 30.52 8.06 25.26 28.75-2.92 11.13-7.84 19.07-20.25 23.78v.28c7 1.5 11.06 6.22 9.63 13.44-1.42 8.35-5.87 26.26-6.09 32.92a6.39 6.39 0 001.64 3.6l-.36 1.4h-29a20.18 20.18 0 010-6c1.92-9.14 4.74-17.76 5.65-24.15s-.13-10.55-6.2-11h-8.77zm15.49-59.82h9c7.71 0 11.22-6.53 12.82-12.9 3.24-12.4-2.22-13-15.26-12.68zm68-44.35h26.62l-20.34 78.61c-1.27 5-.72 9.33 6.83 9.33 6.92 0 10.44-5.56 11.62-10L523.73 700h26.57l-19.44 75.42c-4.56 17.65-16.71 31.24-43.8 31.24-22.54 0-33.12-9.84-27.6-31.24zm110.83 104.33L591 795h-.28c-7.75 8.91-14.47 11.67-26 11.67-22.49 0-26-14.29-21.17-33.19l11.07-42.75c5.87-22.66 19.86-33.18 44.18-33.18 22.64 0 33.75 8.88 28.31 30.12l-2 7.79h-26.6l1.47-5.71c2.31-8.89 2.24-13.33-4.85-13.46-8.24-.16-11.31 4-13 10.81l-13.33 51.52c-1.51 5.86.5 9.33 7.42 9.33 9 0 11.07-6.69 12.8-13.34l2.08-8.19h-9.46l4.81-18.78h36.09l-14.63 56.7zm30.69-.16L647.33 700h34.43c20 0 34.21 6 28.8 27a32 32 0 01-18.5 22l-.06.26c10.43 6.39 11.54 11.92 8.19 24.88-5.42 21.07-20.72 30.11-42.3 30.11zm31.41-18.75c13.32-.29 18.69.53 22.34-13.45 3.11-12.12-4.51-11.81-15.7-12.22zM663.33 741c11.78-.69 17 0 20.21-12.38 2.64-10.25-5.11-9.85-14.52-9.85zm88-6.94h.32L774 700h26.57l-42.92 60.44-11.25 43.73h-26.6l11.29-43.73L720 700h26.89z" transform="translate(-118.18 -60.53)" fill="url(#j)"/><path d="M362.56 406.88a202.51 202.51 0 01-65.62-51.82 471.78 471.78 0 00-33.54 44.83c27.36 42.29 71.3 78.57 141.82 99.49 93.43 27.7 187.88 5 236-19.19 21.32-10.66 35.88-21 53.12-37.31 20.27-19.14 40.38-47.9 40.38-47.9S540 496.38 362.56 406.88z" transform="translate(-118.18 -60.53)" fill="url(#b)"/><path d="M223.91 488.25c58.9 80.37 158 123.19 166.4 124.92s51.59 1.62 126.53-33.67C605.06 537.93 625 513.44 625 513.44s-209.69 86.32-350.6-58.6a246.41 246.41 0 01-25.78-31.37 401.31 401.31 0 00-27.94 59.86c1.11 1.57 2.09 3.37 3.23 4.92z" transform="translate(-118.18 -60.53)" fill="url(#k)"/></g></svg>