<svg xmlns="http://www.w3.org/2000/svg" width="1000" height="1000" viewBox="-125.62 0 1000 1000" overflow="visible"><path fill-rule="evenodd" clip-rule="evenodd" fill="#00000A" d="M748.653 99.851C748.76-15.134 569.14-9.973 427.621 13.83 206.985 50.964.792 160.128 0 182.739l.073-.703C21.83 501.172 67.088 705.371 381.825 858.841c285.071-139.694 358.078-438.832 366.935-758.64"/><path fill-rule="evenodd" clip-rule="evenodd" fill="#1C9AD6" d="M593.546 165.511c-14 3.097-22.178 8.292-25.06 23.913-1.214 20.495.903 42.394 3.712 67.133.476 12.383.54 24.509-2.369 36.062-2.984 22.439-12.15 38.635-21.647 52.943-13.221 18.974-28.039 31.602-43.805 39.891-26.171 13.99-40.658 24.961-47.392 34.084-15.182 18.509-22.006 48.825-24.07 71.777 4.776 12.354 9.578 24.718 14.343 37.065 9.584 22.595 19.161 45.194 28.734 67.794 1.946 3.866 3.353 7.059 5.251 10.198 4.68 7.728 15.915 19.669 24.027 22.964 13.295 4.845 27.161 7.39 41.407 8.336-13.93 1.664-28.84.878-44.733-2.331-16.76-4.197-34.061-20.081-37.028-26.509-15.476-38.958-31.557-78.228-47.039-117.186 1.99-22.76 5.188-44.691 15.921-62.58 1.792-3.572 4.674-6.655 6.466-10.211-23.782 17.081-33.627 46.224-41.691 75.101 5.896 14.696 13.08 28.739 18.979 43.451 4.674 12.006 9.342 24.027 14.016 36.06 17.295 39.798 24.375 57.189 66.463 65.109-30.307.626-56.879-2.728-68.431-33.52-13.589-32.274-26.854-64.768-40.429-97.047-1.564-4.117-4.875-10.882-6.447-14.994 7.292-23.947 15.501-51.831 33.11-70.208 14.295-13.416 28.91-24.852 48.473-32.122 11.846-4.962 25.274-13.241 41.407-22.591 9.515-8.297 17.846-15.38 26.777-27.386 6.417-10.038 13.812-21.292 18.973-36.41 4.3-11.588 6.278-24.34 6.338-38.068-.893-16.353-1.771-32.717-2.679-49.082.192-16.621 3.999-24.664 10.026-34.608 9.455-12.905 18.926-18.587 28.397-17.028zm-93.377-33.129c-7.198-.543-14.006 9.42-17.498 19.877-7.166 24.089-15.241 41.841-23.771 59.12-4.562 9.038-13.738 19.145-28.499 25.252-17.524 5.428-34.321 12.083-49.135 19.564-38.536 25.87-73.933 61.804-109.56 91.786-19.809 16.03-38.397 28.421-56.157 38.333-19.618 10.968-39.236 20.356-58.855 28.611-14.222 5.045-28.437 10.078-42.651 15.126 26.822-13.14 53.622-26.271 80.449-39.418 24.153-13.915 45.967-28.049 62.623-42.651 38.349-33.856 74.224-71.606 116.306-100.762 2.781-2.746 10.474-6.42 16.885-8.92 9.732-3.789 19.627-7.313 29.832-10.188 12.273-3.815 21.675-11.367 29.179-22.661 5.705-8.779 10.658-16.333 16.203-33.889 3.241-9.343 5.685-19.349 9.466-28.574 2.145-4.521 5.011-9.575 13.791-12.428 4.75-1.117 11.398-.553 11.392 1.822z"/><path fill-rule="evenodd" clip-rule="evenodd" fill="#1C9AD6" d="M453.216 368.017c-16.284 18.234-33.542 28.975-52.232 32.969-12.31 3.53-30.738 1.87-45.156-1.229-83.743-18.052-175.516 40.629-253.054 71.029-3.315 1.3-2.176 2.026-5.163 3.123 62.505-20.364 121.314-40.627 183.198-57.833 19.26-5.575 37.665-7.637 58.069-5.035 15.813 2.041 29.474 3.64 47.969 3.498 9.287-.299 15.736-2.925 22.349-5.936 21.248-9.651 36.083-22.379 44.02-40.586z"/><path fill="#00B5EF" d="M635.28 172.19c.192-4.128-1.931-7.714-4.278-9.283-12.642-8.514-30.327-8.987-40.916-16.501-3.871-4.383-7.08-8.843-8.647-18.95-.855-5.559-3.609-12.158-7.855-15.982-3.99-3.596-6.889-5.214-12.06-8.033-25.61-8.366-46.959 2.426-63.868 8.463-38.953 18.618-70.8 34.469-121.788 34.501 28.451 6.225 56.293-1.257 81.327-8.088 8.519-2.324 12.749-4.206 20.781-7.556 28.953-15.418 52.713-21.089 72.142-18.688 10.401 2.176 16.562 6.415 18.594 13.941 3.898 14.335 2.481 33.383 47.354 38.229 4.582.923 12.572 3.372 19.214 7.947z"/><path fill-rule="evenodd" clip-rule="evenodd" fill="#00B5EF" d="M545.165 138.141l-5.016-8.947a10.246 10.246 0 00-5.247 8.947c0 5.677 4.594 10.276 10.263 10.276 5.668 0 10.268-4.599 10.268-10.276 0-5.532-4.401-10.078-9.937-10.26l-.331 10.26z"/><path fill="#00B5EF" d="M593.546 165.511c-14 3.097-22.178 8.292-25.06 23.913-1.214 20.495.903 42.394 3.712 67.133.476 12.383.54 24.509-2.369 36.062-2.984 22.439-12.15 38.635-21.647 52.943-13.221 18.974-28.039 31.602-43.805 39.891-26.171 13.99-40.658 24.961-47.392 34.084-15.182 18.509-22.006 48.825-24.07 71.777 4.776 12.354 9.578 24.718 14.343 37.065 9.584 22.595 19.161 45.194 28.734 67.794 1.946 3.866 3.353 7.059 5.251 10.198 4.68 7.728 15.915 19.669 24.027 22.964 13.295 4.845 27.161 7.39 41.407 8.336-13.93 1.664-28.84.878-44.733-2.331-16.76-4.197-34.061-20.081-37.028-26.509-15.476-38.958-31.557-78.228-47.039-117.186 1.99-22.76 5.188-44.691 15.921-62.58 1.792-3.572 4.674-6.655 6.466-10.211-23.782 17.081-33.627 46.224-41.691 75.101 5.896 14.696 13.08 28.739 18.979 43.451 4.674 12.006 9.342 24.027 14.016 36.06 17.295 39.798 24.375 57.189 66.463 65.109-30.307.626-56.879-2.728-68.431-33.52-13.589-32.274-26.854-64.768-40.429-97.047-1.564-4.117-4.875-10.882-6.447-14.994 7.292-23.947 15.501-51.831 33.11-70.208 14.295-13.416 28.91-24.852 48.473-32.122 11.846-4.962 25.274-13.241 41.407-22.591 9.515-8.297 17.846-15.38 26.777-27.386 6.417-10.038 13.812-21.292 18.973-36.41 4.3-11.588 6.278-24.34 6.338-38.068-.893-16.353-1.771-32.717-2.679-49.082.192-16.621 3.999-24.664 10.026-34.608 9.455-12.905 18.926-18.587 28.397-17.028zm-93.377-33.129c-7.198-.543-14.006 9.42-17.498 19.877-7.166 24.089-15.241 41.841-23.771 59.12-4.562 9.038-13.738 19.145-28.499 25.252-17.524 5.428-34.321 12.083-49.135 19.564-38.536 25.87-73.933 61.804-109.56 91.786-19.809 16.03-38.397 28.421-56.157 38.333-19.618 10.968-39.236 20.356-58.855 28.611-14.222 5.045-28.437 10.078-42.651 15.126 26.822-13.14 53.622-26.271 80.449-39.418 24.153-13.915 45.967-28.049 62.623-42.651 38.349-33.856 74.224-71.606 116.306-100.762 2.781-2.746 10.474-6.42 16.885-8.92 9.732-3.789 19.627-7.313 29.832-10.188 12.273-3.815 21.675-11.367 29.179-22.661 5.705-8.779 10.658-16.333 16.203-33.889 3.241-9.343 5.685-19.349 9.466-28.574 2.145-4.521 5.011-9.575 13.791-12.428 4.75-1.117 11.398-.553 11.392 1.822z"/><path fill="#00B5EF" d="M453.216 368.017c-16.284 18.234-33.542 28.975-52.232 32.969-12.31 3.53-30.738 1.87-45.156-1.229-83.743-18.052-175.516 40.629-253.054 71.029-3.315 1.3-2.176 2.026-5.163 3.123 62.505-20.364 121.314-40.627 183.198-57.833 19.26-5.575 37.665-7.637 58.069-5.035 15.813 2.041 29.474 3.64 47.969 3.498 9.287-.299 15.736-2.925 22.349-5.936 21.248-9.651 36.083-22.379 44.02-40.586z"/><path fill="#00000A" d="M249.343 891.217c2.112 0 3.938.722 5.468 2.154 1.532 1.438 2.3 3.145 2.3 5.123v72.815c0 2.685.845 5.311 2.538 7.888 1.585 2.278 3.804 3.958 6.658 5.048a9.747 9.747 0 002.772.813c1.003.155 1.984.225 2.937.225 3.166 0 5.968-.791 8.401-2.374 2.426-1.481 4.222-3.524 5.388-6.097.845-1.877 1.27-3.711 1.27-5.503v-72.815c0-1.979.762-3.685 2.299-5.123 1.527-1.433 3.356-2.154 5.468-2.154 2.115 0 3.933.722 5.471 2.154 1.53 1.438 2.3 3.145 2.3 5.123v72.815c0 5.952-1.744 11.3-5.236 16.064-3.382 4.647-7.872 8.118-13.474 10.396-3.698 1.486-7.663 2.229-11.888 2.229-6.024 0-11.68-1.637-16.963-4.903a32.372 32.372 0 01-6.5-5.572 27.707 27.707 0 01-4.596-7.06c-1.585-3.566-2.38-7.278-2.38-11.155v-72.815c0-1.979.768-3.685 2.297-5.123 1.536-1.432 3.355-2.153 5.47-2.153zm142.517 48.001a29.438 29.438 0 01-2.454 3.123 27.32 27.32 0 01-2.778 2.663c-.529.508-.846 1.097-.949 1.792-.112.694.051 1.288.473 1.785 2.96 3.669 4.752 7.681 5.389 12.033.32 1.78.66 3.893 1.031 6.315a709.55 709.55 0 011.11 7.577 528.38 528.38 0 001.112 7.579c.363 2.433.708 4.438 1.029 6.026l.474 3.418c.314 1.983-.185 3.78-1.503 5.428-1.329 1.625-3.046 2.599-5.158 2.887-.214.107-.58.155-1.102.155-1.906 0-3.602-.599-5.083-1.791-1.477-1.182-2.372-2.717-2.692-4.594 0-.102-.187-1.363-.551-3.797-.369-2.428-.794-5.3-1.267-8.626a958.062 958.062 0 00-1.508-10.097c-.53-3.417-.949-6.214-1.27-8.401-.524-2.872-1.896-5.192-4.123-6.984-2.321-1.877-4.968-2.818-7.928-2.818h-10.46c-.845 0-1.527.247-2.064.744-.524.497-.786 1.133-.786 1.931v37.006c0 2.08-.771 3.835-2.297 5.268-1.537 1.438-3.356 2.16-5.471 2.16-2.217 0-4.096-.722-5.625-2.16-1.533-1.433-2.3-3.188-2.3-5.268v-94.078c0-1.979.789-3.711 2.379-5.203 1.474-1.38 3.329-2.074 5.546-2.074h21.554c6.765 0 12.894 1.732 18.391 5.203 5.498 3.465 9.512 7.973 12.049 13.519a32.74 32.74 0 011.906 5.947c.418 1.983.629 4.011.629 6.096-.001 6.439-1.898 12.187-5.703 17.236zm-11.254-10.851c.844-2.177 1.265-4.311 1.265-6.386 0-3.171-.952-6.197-2.856-9.069-2.008-2.674-4.543-4.604-7.604-5.792-2.228-.893-4.495-1.342-6.824-1.342h-10.936c-.845 0-1.527.251-2.064.738-.524.507-.786 1.149-.786 1.936v27.198c0 .695.262 1.289.786 1.787.538.486 1.219.742 2.064.742h10.936c3.599 0 6.824-.897 9.68-2.673 2.948-1.78 5.069-4.166 6.339-7.139zm54.212-37.15c2.113 0 3.937.722 5.466 2.154 1.529 1.438 2.3 3.145 2.3 5.123v72.815c0 2.685.845 5.311 2.534 7.888 1.584 2.278 3.798 3.958 6.659 5.048.845.396 1.77.669 2.775.813 1 .155 1.979.225 2.93.225 3.172 0 5.969-.791 8.407-2.374 2.422-1.481 4.225-3.524 5.385-6.097.845-1.877 1.273-3.711 1.273-5.503v-72.815c0-1.979.754-3.685 2.294-5.123 1.534-1.433 3.354-2.154 5.466-2.154 2.117 0 3.936.722 5.471 2.154 1.534 1.438 2.305 3.145 2.305 5.123v72.815c0 5.952-1.743 11.3-5.235 16.064-3.386 4.647-7.877 8.118-13.477 10.396-3.701 1.486-7.663 2.229-11.889 2.229-6.026 0-11.68-1.637-16.962-4.903a32.305 32.305 0 01-6.498-5.572 27.357 27.357 0 01-4.594-7.06c-1.589-3.566-2.386-7.278-2.386-11.155v-72.815c0-1.979.771-3.685 2.305-5.123 1.525-1.432 3.349-2.153 5.471-2.153z"/></svg>