<svg xmlns="http://www.w3.org/2000/svg" width="1000" height="1000" viewBox="-121.994 0 1000 1000" overflow="visible"><path fill="#E9AA00" d="M437.177 613.119H318.878l-67.983 45.679h46.051l23.431-16.468h115.3l23.432 16.468h46.051z"/><path fill="#007D32" d="M112.823 939.307h530.432V1000H112.823z"/><path fill="#E9AA00" d="M479.087 564.849c16.513 5.64 27.235 18.503 23.689 28.68-3.43 10.077-19.736 13.629-36.37 7.909-16.54-5.728-27.239-18.516-23.697-28.604 3.439-10.083 19.741-13.714 36.378-7.985z"/><path fill="#E52713" d="M534.38 878.81s-2.589 32.855-36.481 32.023c-32.94-.635-35.837-32.436-35.837-32.436v-86.176h27.744v82.111s.725 7.69 8.42 7.382c7.256-.401 8.405-6.56 8.405-6.56V792.22h27.749v86.59zM428.504 675.375l-9.577 62.058h-13.826v-78.167z"/><path fill="#E9AA00" d="M421.847 566.189l-43.804 21.942-43.835-21.942 43.835-21.193zm-14.974-87.48l-19.05 40.935h-19.012l-19.638-40.935z"/><path fill="#E52713" d="M393.019 658.527l-8.009 104.501h-14.55l-7.368-104.501zM361.2 792.203h44.901c6.051 0 25.264 2.934 26.011 30.042.72 28.371-16.134 33.595-16.134 33.595l22.689 52.61h-31.398l-17.562-46.77v46.77H361.2V792.203zm43.886 35.136c.3-15.802-14.671-12.447-14.671-12.447v28.464c.001-.001 14.252 1.149 14.671-16.017zm-54.093-168.073v78.167h-13.928l-9.461-62.058zm-54.024 190.023l10.906-57.086h27.781L310.08 908.45h-20.475l-15.282-58.413-12.803 58.442h-21.212L214.61 792.184h28.408l9.368 57.105 10.863-57.105h23.595z"/><path fill="#E9AA00" d="M277.018 564.849c-16.512 5.64-27.226 18.503-23.688 28.68 3.424 10.077 19.736 13.629 36.365 7.909 16.54-5.728 27.253-18.516 23.708-28.604-3.445-10.083-19.747-13.714-36.385-7.985zm-79.682-33.706l59.628 113.288-13.157 9.269-73.468-91.178zm361.364 0l-59.628 113.288 13.157 9.269 73.468-91.178z"/><path fill="#E52713" d="M318.593 507.131l-73.777-281.863-97.922-52.498-62.054 60.618v30.66l-32.959-35.753 43.892-46.032L0 221.632v85.551l45.331 48.247 42.242-.215-47.709-52.312 7.532-35.154 12.592 20.427 48.139 48.228-6.555-38.061 69.445-68.59 48.957 29.216 72.921 228.151-96.447-210.643-15.007-10.125-34.436 44.933 139.559 214.461zm118.835 0l73.773-281.863 97.927-52.498 62.04 60.618v30.66l32.958-35.753-43.882-46.032 95.769 39.369v85.551l-45.322 48.247-42.257-.215 47.709-52.312-7.522-35.154-12.587 20.427-48.153 48.228 6.569-38.061-69.45-68.59-48.961 29.216-72.916 228.151 96.441-210.643 15.008-10.125 34.43 44.933-139.558 214.461zm20.723-319.195L392.5 233.584l-14.47 200.22-14.475-200.22-65.661-45.648 52.531 273.92h55.209z"/><path fill="#E52713" d="M378.03 214.909l79.443-52.335-17.894-61.254 41.648 40.233.272 29.759 28.955-20.278-.005-98.755L419.253 0h-30.089l9.536 28.342-20.67 53.718-20.685-53.718L366.896 0h-30.104l-91.19 52.279-.01 98.755 28.954 20.278.276-29.759 41.645-40.233-17.895 61.254z"/></svg>