<?xml version="1.0" encoding="UTF-8" standalone="no"?>
<!-- Created with Inkscape (http://www.inkscape.org/) -->

<svg
   xmlns:dc="http://purl.org/dc/elements/1.1/"
   xmlns:cc="http://creativecommons.org/ns#"
   xmlns:rdf="http://www.w3.org/1999/02/22-rdf-syntax-ns#"
   xmlns:svg="http://www.w3.org/2000/svg"
   xmlns="http://www.w3.org/2000/svg"
   xmlns:sodipodi="http://sodipodi.sourceforge.net/DTD/sodipodi-0.dtd"
   xmlns:inkscape="http://www.inkscape.org/namespaces/inkscape"
   width="65"
   height="65"
   viewBox="0 0 65.000001 65.000001"
   id="svg19053"
   version="1.1"
   inkscape:version="0.91 r13725"
   sodipodi:docname="rugby wa.svg">
  <defs
     id="defs19055">
    <linearGradient
       id="linearGradient12353"
       spreadMethod="pad"
       gradientTransform="matrix(0.3912933,46.342321,46.342321,-0.3912933,114.07488,254.82426)"
       gradientUnits="userSpaceOnUse"
       y2="0"
       x2="1"
       y1="0"
       x1="0">
      <stop
         id="stop12355"
         offset="0"
         style="stop-opacity:1;stop-color:#73071e" />
      <stop
         id="stop12357"
         offset="1"
         style="stop-opacity:1;stop-color:#d41041" />
    </linearGradient>
  </defs>
  <sodipodi:namedview
     id="base"
     pagecolor="#ffffff"
     bordercolor="#666666"
     borderopacity="1.0"
     inkscape:pageopacity="0.0"
     inkscape:pageshadow="2"
     inkscape:zoom="8.3538462"
     inkscape:cx="32.5"
     inkscape:cy="32.5"
     inkscape:document-units="px"
     inkscape:current-layer="layer1"
     showgrid="false"
     units="px"
     inkscape:window-width="1280"
     inkscape:window-height="744"
     inkscape:window-x="-4"
     inkscape:window-y="-4"
     inkscape:window-maximized="1" />
  <metadata
     id="metadata19058">
    <rdf:RDF>
      <cc:Work
         rdf:about="">
        <dc:format>image/svg+xml</dc:format>
        <dc:type
           rdf:resource="http://purl.org/dc/dcmitype/StillImage" />
        <dc:title></dc:title>
      </cc:Work>
    </rdf:RDF>
  </metadata>
  <g
     inkscape:label="Layer 1"
     inkscape:groupmode="layer"
     id="layer1"
     transform="translate(0,-987.36216)">
    <g
       id="g13125"
       transform="matrix(0.28430738,0,0,0.27937325,14.794169,1005.4868)">
      <path
         d="m 0,0 c 0,0 -35.642,95.278 67.085,62.296 63.93,-24.166 58.168,-97.588 26.088,-86.458 -1.174,2.069 -22.087,19.135 -27.526,9.451 -5.329,2.106 -9.739,4.838 -19.694,11.919 -0.145,-1.055 15.04,-14.375 39.246,-24.893 -6.959,1.235 -17.516,6.951 -17.516,6.951 0,0 8.223,-9.459 25.922,-13.174 25.322,-4.259 45.64,20.897 30.258,67.639 26.439,-35.292 17.021,-65.681 1.31,-75.93 9.498,-0.538 38.471,13.47 22.641,62.927 22.279,-41.874 9.74,-74.647 -36.742,-84.333 45.41,0.348 86.853,37.52 49.959,107.366 -47.928,79.765 -129.216,86.041 -157.181,68.43 24.058,1.896 51.92,3.368 87.507,-18.536 C 78.214,99.227 -21.982,133.146 -22.702,61.828 -18.187,75.873 6.029,104.134 63.78,82.987 -28.468,96.88 -30.069,37.781 0,0"
         style="fill:#231f20;fill-opacity:1;fill-rule:nonzero;stroke:none"
         id="path13127"
         inkscape:connector-curvature="0" />
    </g>
    <g
       id="g13137"
       transform="matrix(0.28430738,0,0,0.27937325,33.574399,993.80896)">
      <path
         d="M 0,0 C -40.876,13.532 -82.001,60.49 -50.561,96.886 -57.315,74.049 -69.175,39.351 0,0"
         style="fill:#231f20;fill-opacity:1;fill-rule:nonzero;stroke:none"
         id="path13139"
         inkscape:connector-curvature="0" />
    </g>
    <g
       id="g13141"
       transform="matrix(0.28430738,0,0,0.27937325,4.220629,1046.6036)">
      <path
         d="M 0,0 3.555,0 C 5.678,0 8.28,-0.324 8.809,-3.047 9.016,-4.109 8.659,-5.124 7.789,-5.632 7.038,-6.048 6.023,-6.048 5.1,-6.048 l -3.924,0 L 0,0 Z m -3.67,18.88 -9.832,0 6.155,-31.667 16.111,0 c 2.77,0 5.744,0.369 7.794,1.938 2.308,1.662 3.007,4.479 2.405,7.571 -0.807,4.155 -3.138,6.647 -7.209,8.355 l 3.041,13.803 -10.802,0 -2.265,-12.095 -3.047,0 -2.351,12.095 z"
         style="fill:#3955a8;fill-opacity:1;fill-rule:nonzero;stroke:none"
         id="path13143"
         inkscape:connector-curvature="0" />
    </g>
    <g
       id="g13145"
       transform="matrix(0.28430738,0,0,0.27937325,17.228129,1048.7185)">
      <path
         d="m 0,0 c -0.718,3.693 -1.708,6.647 -5.23,9.094 -3.136,2.123 -6.568,2.677 -9.891,2.677 -2.908,0 -6.568,-0.646 -8.701,-2.262 -2.939,-2.215 -3.002,-5.216 -2.266,-9.001 l 4.056,-20.865 9.879,0 -3.841,19.756 c -0.206,1.063 -0.531,2.494 -0.073,3.463 0.541,1.016 1.938,1.431 3.184,1.431 1.108,0 2.556,-0.323 3.53,-1.062 C -7.9,2.17 -7.716,0.508 -7.428,-0.97 l 3.768,-19.387 7.617,0 L 0,0 Z"
         style="fill:#3955a8;fill-opacity:1;fill-rule:nonzero;stroke:none"
         id="path13147"
         inkscape:connector-curvature="0" />
    </g>
    <g
       id="g13149"
       transform="matrix(0.28430738,0,0,0.27937325,25.527319,1051.8782)">
      <path
         d="m 0,0 -4.755,0 -0.646,-3.324 c -2.506,2.677 -6.045,3.785 -9.322,3.785 -9.233,0 -12.79,-7.109 -11.103,-15.787 0.808,-4.155 2.713,-8.494 5.981,-11.771 3.737,-3.785 7.81,-5.032 12.473,-5.032 7.339,0 11.505,3.739 11.481,10.987 l -9.605,0.969 c 0.124,-2.539 -0.471,-4.94 -3.425,-4.94 -4.478,0 -5.921,6.001 -6.549,9.233 -0.359,1.846 -0.715,4.155 -0.3,5.816 0.426,1.847 1.716,3.047 3.747,3.047 2.493,0 4.635,-1.523 5.12,-4.016 l -5.217,0 1.302,-6.694 14.264,0 L 0,0 Z"
         style="fill:#3955a8;fill-opacity:1;fill-rule:nonzero;stroke:none"
         id="path13151"
         inkscape:connector-curvature="0" />
    </g>
    <g
       id="g13153"
       transform="matrix(0.28430738,0,0,0.27937325,31.396329,1046.4229)">
      <path
         d="M 0,0 C 0.924,0 2.023,0.046 2.841,-0.6 3.549,-1.154 4.024,-1.938 4.168,-2.678 4.625,-5.031 2.749,-5.354 0.903,-5.354 l -3.785,0 L -3.923,0 0,0 Z m -2.145,12.464 c 0.969,0 2.022,0.046 2.932,-0.601 C 1.578,11.356 2.201,10.525 2.372,9.648 2.578,8.586 2.167,7.616 1.333,7.155 0.583,6.739 -0.525,6.739 -1.402,6.739 l -3.831,0 -1.113,5.725 4.201,0 z m -8.327,-24.604 15.464,0 c 2.4,0 4.811,0.184 6.518,1.616 1.827,1.522 2.571,4.108 2.068,6.693 -0.646,3.323 -3.316,6.139 -6.691,6.878 L 6.868,3.139 c 3.521,0.646 5.476,3.416 4.74,7.201 -0.529,2.724 -2.091,5.771 -4.667,7.386 -2.787,1.755 -6.212,1.801 -9.074,1.801 l -14.495,0 6.156,-31.667 z"
         style="fill:#3955a8;fill-opacity:1;fill-rule:nonzero;stroke:none"
         id="path13155"
         inkscape:connector-curvature="0" />
    </g>
    <g
       id="g13157"
       transform="matrix(0.28430738,0,0,0.27937325,40.034159,1048.1383)">
      <path
         d="m 0,0 -2.603,13.387 -9.417,0 L -9.417,0 l -7.111,-18.28 10.663,0 3.512,10.432 7.337,-10.432 8.493,0 L 0,0 Z"
         style="fill:#3955a8;fill-opacity:1;fill-rule:nonzero;stroke:none"
         id="path13159"
         inkscape:connector-curvature="0" />
    </g>
    <g
       id="g13161"
       transform="matrix(0.28430738,0,0,0.27937325,50.449469,1051.8782)">
      <path
         d="M 0,0 -3.97,0 -6.075,-24.558 -17.311,0 l -4.016,0 -1.877,-31.667 4.063,0 1.335,25.666 0.092,0 11.682,-25.666 3.186,0 2.212,25.666 0.093,0 10.851,-25.666 3.462,0 L 0,0 Z"
         style="fill:#3955a8;fill-opacity:1;fill-rule:nonzero;stroke:none"
         id="path13163"
         inkscape:connector-curvature="0" />
    </g>
    <g
       id="g13165"
       transform="matrix(0.28430738,0,0,0.27937325,57.020089,1044.2178)">
      <path
         d="m 0,0 -7.846,15.187 9.74,0 L 0,0 Z m 7.641,27.42 -4.062,0 -1.391,-9.233 -11.724,0 -4.611,9.233 -3.324,0 16.403,-31.667 4.571,0 4.138,31.667 z"
         style="fill:#3955a8;fill-opacity:1;fill-rule:nonzero;stroke:none"
         id="path13167"
         inkscape:connector-curvature="0" />
    </g>
  </g>
</svg>
