<svg xmlns="http://www.w3.org/2000/svg" width="65" height="65"><path d="M14.794 18.125S4.661 44.743 33.867 35.528c18.176-6.75 16.538-27.263 7.417-24.154-.334.578-6.28 5.346-7.826 2.64-1.515.59-2.769 1.352-5.6 3.33-.04-.294 4.277-4.015 11.159-6.954-1.979.345-4.98 1.942-4.98 1.942s2.338-2.642 7.37-3.68c7.199-1.19 12.976 5.838 8.602 18.896 7.517-9.86 4.84-18.35.373-21.213 2.7-.15 10.937 3.764 6.437 17.58C63.153 12.217 59.588 3.061 46.373.355c12.91.097 24.693 10.482 14.203 29.995C46.95 52.635 23.84 54.388 15.89 49.468c6.84.53 14.761.94 24.879-5.179C37.03 45.846 8.545 55.322 8.34 35.398c1.283 3.924 8.168 11.819 24.587 5.911C6.701 45.19 6.245 28.679 14.794 18.125" fill="#231f20"/><path d="M33.574 6.447c-11.62 3.78-23.313 16.9-14.374 27.067-1.92-6.38-5.293-16.074 14.374-27.067" fill="#231f20"/><path d="M4.22 59.241h1.011c.604 0 1.344-.09 1.494-.85.059-.298-.043-.581-.29-.723-.213-.116-.502-.116-.764-.116H4.555l-.334 1.69zm-1.043 5.275H.382l1.75-8.847h4.58c.788 0 1.633.103 2.216.542.656.464.855 1.25.684 2.115-.23 1.16-.892 1.857-2.05 2.334l.865 3.856H5.356l-.644-3.379h-.866l-.669 3.379zm14.051-3.16c-.204 1.032-.485 1.857-1.487 2.541-.891.593-1.867.748-2.812.748-.827 0-1.867-.18-2.474-.632-.835-.619-.853-1.457-.644-2.515l1.153-5.829h2.809l-1.092 5.52c-.059.296-.151.696-.02.967.153.284.55.4.904.4.315 0 .727-.09 1.004-.297.413-.296.465-.76.547-1.174l1.072-5.416h2.165l-1.125 5.687zm8.299 3.16h-1.352l-.183-.929c-.713.748-1.719 1.058-2.65 1.058-2.626 0-3.637-1.986-3.157-4.41.23-1.161.771-2.374 1.7-3.29 1.063-1.057 2.22-1.405 3.546-1.405 2.087 0 3.271 1.045 3.265 3.07l-2.731.27c.035-.71-.134-1.38-.974-1.38-1.273 0-1.683 1.677-1.862 2.58-.102.515-.203 1.16-.085 1.624.12.516.488.852 1.065.852.709 0 1.318-.426 1.456-1.122h-1.483l.37-1.87h4.055l-.98 4.952zm5.869-5.456c.263 0 .575.014.808-.167a1.01 1.01 0 00.377-.58c.13-.658-.403-.748-.928-.748h-1.076l-.296 1.496h1.115zm-.61 3.483c.276 0 .575.013.834-.168a.998.998 0 00.45-.619c.06-.297-.058-.568-.295-.696-.213-.117-.528-.117-.777-.117h-1.09l-.316 1.6h1.194zm-2.367-6.874h4.397c.682 0 1.367.052 1.853.452.52.425.73 1.147.588 1.87a2.5 2.5 0 01-1.903 1.921l-.005.026c1.001.18 1.557.954 1.348 2.011-.15.761-.595 1.613-1.327 2.064-.793.49-1.766.503-2.58.503h-4.121l1.75-8.847zm11.615 5.107l-.74 3.74h-2.677l.74-3.74-2.022-5.107h3.032l.998 2.915 2.086-2.915h2.415l-3.832 5.107z" fill="#3955a8"/><path d="M50.45 64.516h-1.13l-.598-6.86-3.194 6.86h-1.142l-.534-8.847h1.156l.38 7.17h.025l3.322-7.17h.905l.63 7.17h.026l3.085-7.17h.984l-3.916 8.847zm6.57-7.66l-2.23 4.242h2.769l-.539-4.242zm2.172 7.66h-1.154l-.396-2.58H54.31l-1.311 2.58h-.945l4.663-8.847h1.3l1.176 8.847z" fill="#3955a8"/></svg>